<?xml version="1.0" encoding="utf-8"?>
<!-- Generator: Adobe Illustrator 17.0.0, SVG Export Plug-In . SVG Version: 6.00 Build 0)  -->
<!DOCTYPE svg PUBLIC "-//W3C//DTD SVG 1.1//EN" "http://www.w3.org/Graphics/SVG/1.1/DTD/svg11.dtd">
<svg version="1.1" id="图层_1" xmlns="http://www.w3.org/2000/svg" xmlns:xlink="http://www.w3.org/1999/xlink" x="0px" y="0px"
	 width="16px" height="16px" viewBox="0 0 16 16" enable-background="new 0 0 16 16" xml:space="preserve">
<path fill="#3C3C3C" d="M-9.208-0.167c-4.138,0-7.5,3.362-7.5,7.5s3.362,7.5,7.5,7.5s7.5-3.362,7.5-7.5S-5.07-0.167-9.208-0.167z
	 M-9.208,12.562l-3.254-5.229h2.44V2.104h1.627v5.229h2.44L-9.208,12.562z"/>
<path fill="#3C3C3C" d="M8,1C4.134,1,1,4.134,1,8s3.134,7,7,7s7-3.134,7-7S11.866,1,8,1z M8,13L5,9h2V3h2v6h2L8,13z"/>
</svg>
