<?xml version="1.0" encoding="UTF-8" standalone="no"?>
<!-- Generator: Adobe Illustrator 17.0.0, SVG Export Plug-In . SVG Version: 6.00 Build 0)  -->

<svg
   xmlns:dc="http://purl.org/dc/elements/1.1/"
   xmlns:cc="http://creativecommons.org/ns#"
   xmlns:rdf="http://www.w3.org/1999/02/22-rdf-syntax-ns#"
   xmlns:svg="http://www.w3.org/2000/svg"
   xmlns="http://www.w3.org/2000/svg"
   xmlns:xlink="http://www.w3.org/1999/xlink"
   xmlns:sodipodi="http://sodipodi.sourceforge.net/DTD/sodipodi-0.dtd"
   xmlns:inkscape="http://www.inkscape.org/namespaces/inkscape"
   version="1.1"
   id="图层_1"
   inkscape:version="0.48.4 r9939"
   sodipodi:docname="folder-music.svg"
   x="0px"
   y="0px"
   width="48px"
   height="48px"
   viewBox="0 0 48 48"
   enable-background="new 0 0 48 48"
   xml:space="preserve"><metadata
     id="metadata153"><rdf:RDF><cc:Work
         rdf:about=""><dc:format>image/svg+xml</dc:format><dc:type
           rdf:resource="http://purl.org/dc/dcmitype/StillImage" /><dc:title></dc:title></cc:Work></rdf:RDF></metadata><defs
     id="defs151"><linearGradient
       id="path3347_1_"
       gradientUnits="userSpaceOnUse"
       x1="879.66052"
       y1="-1124.1611"
       x2="879.66052"
       y2="-1107.6879"
       gradientTransform="matrix(1,0,0,-1,-855.6602,-1091.96)"><stop
         offset="0"
         style="stop-color:#a2c8f1;stop-opacity:0.78430003;"
         id="stop155" /><stop
         offset="1"
         style="stop-color:#6eaee6;stop-opacity:0.39219999;"
         id="stop157" /></linearGradient><linearGradient
       id="rect2941_2_"
       gradientUnits="userSpaceOnUse"
       x1="590.66058"
       y1="792.53833"
       x2="590.66058"
       y2="778.87122"
       gradientTransform="translate(-566.6602,-761.96)"><stop
         offset="0"
         style="stop-color:#a5c8ee;stop-opacity:0.78430003;"
         id="stop155-3" /><stop
         offset="1"
         style="stop-color:#6eaee6;stop-opacity:0.39219999;"
         id="stop157-8" /></linearGradient></defs><sodipodi:namedview
     inkscape:current-layer="图层_1"
     inkscape:window-maximized="0"
     inkscape:window-y="149"
     inkscape:window-x="1173"
     inkscape:window-height="480"
     inkscape:window-width="702"
     inkscape:pageshadow="2"
     inkscape:pageopacity="0"
     inkscape:cy="26.77801"
     inkscape:cx="25.585848"
     inkscape:zoom="5.6568542"
     showgrid="false"
     guidetolerance="10"
     gridtolerance="10"
     objecttolerance="10"
     borderopacity="1"
     pagecolor="#ffffff"
     bordercolor="#666666"
     id="namedview252"
     showguides="true"
     inkscape:guide-bbox="true"><sodipodi:guide
       orientation="-0.70710678,0.70710678"
       position="-135.41095,99.52528"
       id="guide3130" /></sodipodi:namedview><radialGradient
     id="ellipse10_1_"
     cx="315"
     cy="-2047.0854"
     r="23.9962"
     gradientTransform="matrix(1 0 0 -0.1841 -291 -333.2854)"
     gradientUnits="userSpaceOnUse"><stop
       offset="0"
       style="stop-color:#000000;stop-opacity:0.6"
       id="stop5" /><stop
       offset="0.8996"
       style="stop-color:#000000;stop-opacity:0.0603"
       id="stop7" /><stop
       offset="1"
       style="stop-color:#000000;stop-opacity:0"
       id="stop9" /></radialGradient><ellipse
     id="ellipse10"
     display="none"
     fill="url(#ellipse10_1_)"
     cx="24"
     cy="43.583"
     rx="24"
     ry="4.417" /><linearGradient
     id="path12_1_"
     gradientUnits="userSpaceOnUse"
     x1="24"
     y1="45"
     x2="24"
     y2="1"><stop
       offset="0"
       style="stop-color:#c2d3e1;stop-opacity:1;"
       id="stop13" /><stop
       offset="0.4314"
       style="stop-color:#AFD3E2"
       id="stop15" /><stop
       offset="1"
       style="stop-color:#cadff0;stop-opacity:1;"
       id="stop17" /></linearGradient><path
     id="path12"
     fill="url(#path12_1_)"
     d="M46,39.5c0,3.037-2.463,5.5-5.5,5.5h-33C4.462,45,2,42.537,2,39.5v-33  C2,3.462,4.462,1,7.5,1h33C43.537,1,46,3.462,46,6.5V39.5z" /><path
     id="path188"
     fill="#FFFFFF"
     enable-background="new    "
     d="M40.5,2H7.499C5.017,2,3,4.018,3,6.5v33  C3,41.98,5.017,44,7.499,44H40.5c2.48,0,4.5-2.02,4.5-4.5v-33C45,4.018,42.98,2,40.5,2z M44,39.5c0,1.933-1.567,3.5-3.5,3.5h-33  C5.567,43,4,41.433,4,39.5v-33C4,4.567,5.567,3,7.5,3h33C42.433,3,44,4.567,44,6.5V39.5z" /><linearGradient
     id="path98_1_"
     gradientUnits="userSpaceOnUse"
     x1="314.9998"
     y1="-333.0005"
     x2="314.9998"
     y2="-377"
     gradientTransform="matrix(1 0 0 -1 -291 -332)"><stop
       offset="0"
       style="stop-color:#000000;stop-opacity:0.1"
       id="stop22" /><stop
       offset="1"
       style="stop-color:#000000;stop-opacity:0.8"
       id="stop24" /></linearGradient><path
     id="path98"
     opacity="0.5"
     fill="url(#path98_1_)"
     fill-opacity="0.8"
     enable-background="new    "
     d="M40.5,1h-33  C4.462,1,2,3.463,2,6.5v33C2,42.537,4.462,45,7.5,45h33c3.037,0,5.5-2.463,5.5-5.5v-33C46,3.463,43.537,1,40.5,1z M44.94,39.484  c0,2.48-2.019,4.5-4.497,4.5H7.462c-2.481,0-4.497-2.02-4.497-4.5v-33c0-2.482,2.016-4.5,4.497-4.5h32.981  c2.479,0,4.497,2.018,4.497,4.5V39.484z" /><g
     id="g125"
     display="none"
     opacity="0.3"><defs
       id="defs28"><filter
         id="Adobe_OpacityMaskFilter"
         filterUnits="userSpaceOnUse"
         x="4.769"
         y="13.895"
         width="37.382"
         height="27.883"><feColorMatrix
           type="matrix"
           values="1 0 0 0 0  0 1 0 0 0  0 0 1 0 0  0 0 0 1 0"
           id="feColorMatrix31" /></filter></defs><mask
       maskUnits="userSpaceOnUse"
       x="4.769"
       y="13.895"
       width="37.382"
       height="27.883"
       id="SVGID_11_"
       display="inline"><g
         id="g135"
         filter="url(#Adobe_OpacityMaskFilter)"><image
           sodipodi:absref="/usr/share/icons/Deepin/places/48/DEB81AAE695B461C.jpeg"
           xlink:href="DEB81AAE695B461C.jpeg"
           transform="matrix(0.232 0 0 0.2313 2.7686 11.8945)"
           id="image137"
           height="138"
           width="179"
           enable-background="new    "
           overflow="visible" /></g></mask><g
       id="g139"
       display="inline"
       mask="url(#SVGID_11_)"><path
         id="path141"
         fill="#FFF2B3"
         d="M7.228,41.777c-1.356,0-2.459-1.135-2.459-2.528v-25.29l10.667-0.064    c0.102,0.77,0.198,1.883,0.875,2.788c0.542,0.724,1.464,1.31,3.214,1.31l22.626-0.003v21.26c0,1.394-1.104,2.528-2.459,2.528    H7.228z" /></g></g><g
     id="g151"
     opacity="0.5"><path
       id="path153"
       opacity="0.08"
       enable-background="new    "
       d="M40.514,45h-33C4.476,45,2,42.521,2,39.484v4.219   C2,46.076,3.937,48,6.31,48h35.407C44.09,48,46,46.076,46,43.703v-4.219C46,42.521,43.551,45,40.514,45z" /><path
       id="path155"
       opacity="0.1"
       enable-background="new    "
       d="M40.486,45h-33C4.449,45,2,42.566,2,39.529v2.207   C2,44.109,3.046,47,7.283,47s29.112,0,33.405,0S46,44.109,46,41.736v-2.207C46,42.566,43.523,45,40.486,45z" /><path
       id="path157"
       opacity="0.1"
       enable-background="new    "
       d="M40.486,45h-33C4.449,45,2,42.566,2,39.529v1.191   C2,43.094,3.814,46,7.283,46s29.434,0,33.405,0C44.66,46,46,43.094,46,40.721v-1.191C46,42.566,43.523,45,40.486,45z" /><rect
       id="rect159"
       x="7"
       y="45"
       opacity="0.05"
       enable-background="new    "
       width="34"
       height="1" /><rect
       id="rect161"
       x="8"
       y="45"
       opacity="0.05"
       enable-background="new    "
       width="31"
       height="1" /><rect
       id="rect163"
       x="8"
       y="46"
       opacity="0.05"
       enable-background="new    "
       width="31"
       height="1" /><rect
       id="rect165"
       x="10"
       y="46"
       opacity="0.05"
       enable-background="new    "
       width="28"
       height="1" /><rect
       id="rect167"
       x="13"
       y="46"
       opacity="0.05"
       enable-background="new    "
       width="22"
       height="1" /><rect
       id="rect169"
       x="17"
       y="46"
       opacity="0.05"
       enable-background="new    "
       width="14"
       height="1" /><rect
       id="rect171"
       x="10"
       y="45"
       opacity="0.05"
       enable-background="new    "
       width="28"
       height="1" /><rect
       id="rect173"
       x="12"
       y="45"
       opacity="0.05"
       enable-background="new    "
       width="24"
       height="1" /><rect
       id="rect175"
       x="13"
       y="45"
       opacity="0.05"
       enable-background="new    "
       width="22"
       height="1" /><rect
       id="rect177"
       x="15"
       y="45"
       opacity="0.05"
       enable-background="new    "
       width="18"
       height="1" /><rect
       id="rect179"
       x="15"
       y="45"
       opacity="0.05"
       enable-background="new    "
       width="18"
       height="1" /></g><path
     id="path197"
     fill="#8FBCE5"
     d="M40.5,1h-33C4.462,1,2,3.463,2,6.5v33C2,42.537,4.462,45,7.5,45h33c3.037,0,5.5-2.463,5.5-5.5  v-33C46,3.463,43.537,1,40.5,1z M44.94,39.484c0,2.48-2.019,4.5-4.497,4.5H7.462c-2.481,0-4.497-2.02-4.497-4.5v-33  c0-2.482,2.016-4.5,4.497-4.5h32.981c2.479,0,4.497,2.018,4.497,4.5V39.484z"
     style="fill:#9dbcd7;fill-opacity:1" /><g
     id="g203"
     display="none"><polygon
       id="polygon205"
       display="inline"
       opacity="0.6"
       fill="#FFF8D9"
       enable-background="new    "
       points="17,36 17,29    13.062,29 23.992,18.889 28,22.544 28,22 31,22 31,25.304 35.033,29 31,29 31,36  " /><polygon
       id="polygon207"
       display="inline"
       opacity="0.8"
       fill="#8C6E22"
       enable-background="new    "
       points="17.5,35.5 17.5,28.5    14.339,28.5 23.995,19.567 28.5,23.677 28.5,22.5 30.5,22.5 30.5,25.523 33.748,28.5 30.5,28.5 30.5,35.5  " /><linearGradient
       id="polygon214_1_"
       gradientUnits="userSpaceOnUse"
       x1="315.0388"
       y1="-352.2461"
       x2="315.0388"
       y2="-367"
       gradientTransform="matrix(1 0 0 -1 -291 -332)"><stop
         offset="0"
         style="stop-color:#BFAA68"
         id="stop58" /><stop
         offset="1"
         style="stop-color:#CBA03B"
         id="stop60" /></linearGradient><polygon
       id="polygon214"
       display="inline"
       fill="url(#polygon214_1_)"
       points="18,35 18,28 15.616,28 23.997,20.246 29,24.81    29,23 30,23 30,25.743 32.462,28 30,28 30,35  " /></g><path
     id="path216"
     fill="none"
     d="M35.033,29" /><path
     id="path218"
     fill="none"
     d="M24,18.889" /><path
     id="path248"
     fill="none"
     d="M160.033,49" /><path
     id="path250"
     fill="none"
     d="M149,38.889" /><g
     id="g67"><linearGradient
       id="path123_1_"
       gradientUnits="userSpaceOnUse"
       x1="315.0002"
       y1="-340.5918"
       x2="315.0002"
       y2="-376.6097"
       gradientTransform="matrix(1 0 0 -1 -291 -332)"><stop
         offset="0"
         style="stop-color:#e4eefb;stop-opacity:1;"
         id="stop70" /><stop
         offset="1"
         style="stop-color:#d1e0ed;stop-opacity:1;"
         id="stop72" /></linearGradient><path
       id="path123"
       d="M44,11.984c-5.805,0-22.341,0.003-24,0.003c-2.016,0-2-1.987-2-1.987s0-2-2-2   C12.499,8,5.487,8,4,8c-1.969,0-2,1.928-2,1.989V39.5C2,42.537,4.463,45,7.5,45h33c3.037,0,5.5-2.463,5.5-5.5V14   C46,14,46,11.984,44,11.984z"
       fill="url(#path123_1_)" /><g
       id="g143"><path
         id="polygon145"
         d="M46,14L46,14L46,14z"
         fill="#EEFAFF" /><polygon
         id="polygon149"
         points="2,10.025 2,10 2,10.025   "
         fill="#EEFAFF" /><path
         id="path147"
         d="M20.5,12.487L44,12.484c1.411,0,1.997,1.261,2,1.515c0,0,0-2.015-2-2.015    c-5.805,0-22.341,0.003-24,0.003c-2.016,0-2-1.987-2-1.987s0-2-2-2C12.498,8,5.486,8,4,8c-2,0-2,2-2,2    c0.003-0.248,0.589-1.5,2-1.5h12c1.458,0,1.5,1.346,1.5,1.5c0,0.041,0,1.087,0.722,1.816c0.442,0.445,1.041,0.671,1.778,0.671    L20.5,12.487"
         fill="#EEFAFF" /></g><g
       id="g79"><path
         stroke-miterlimit="10"
         d="M7.5,43.5c-2.206,0-4-1.794-4-4V8.989    C3.523,8.5,3.766,8.5,4,8.5h12c0.175,0,0.5,0,0.5,0.5c-0.002,0.239,0.038,1.538,1.013,2.52c0.438,0.441,1.225,0.967,2.487,0.967    l24-0.003c0.224,0,0.478,0,0.5,0.543V39.5c0,2.206-1.794,4-4,4H7.5z"
         id="path81"
         stroke="#FFFFFF"
         fill="none"
         opacity="0.7" /><g
         id="g83"><path
           d="M40.507,45h-33c-3.033,0-5.5-2.468-5.5-5.5V8.99c0.016-0.994,0.641-1.989,2-1.989h12c1.579,0,2,1.257,2,2     c0,0.036,0.006,0.888,0.578,1.464c0.344,0.347,0.823,0.523,1.422,0.523l24-0.003c1.365,0,1.988,1.011,2,2.012V39.5     C46.007,42.532,43.539,45,40.507,45z M4.007,8.001c-0.856,0-0.994,0.625-1,0.997V39.5c0,2.481,2.019,4.5,4.5,4.5h33     c2.481,0,4.5-2.019,4.5-4.5V13.003c-0.004-0.376-0.141-1.018-1-1.018l-24,0.003c-0.876,0-1.594-0.276-2.132-0.819     c-0.843-0.85-0.868-2.036-0.868-2.168c0-0.3-0.098-1-1-1H4.007z"
           id="path85"
           fill="#8FBCE5" /><path
           d="M40.507,45h-33c-3.033,0-5.5-2.468-5.5-5.5V8.99c0.016-0.994,0.641-1.989,2-1.989h12c1.579,0,2,1.257,2,2     c0,0.036,0.006,0.888,0.578,1.464c0.344,0.347,0.823,0.523,1.422,0.523l24-0.003c1.365,0,1.988,1.011,2,2.012V39.5     C46.007,42.532,43.539,45,40.507,45z M4.007,8.001c-0.856,0-0.994,0.625-1,0.997V39.5c0,2.481,2.019,4.5,4.5,4.5h33     c2.481,0,4.5-2.019,4.5-4.5V13.003c-0.004-0.376-0.141-1.018-1-1.018l-24,0.003c-0.876,0-1.594-0.276-2.132-0.819     c-0.843-0.85-0.868-2.036-0.868-2.168c0-0.3-0.098-1-1-1H4.007z"
           id="path87"
           fill="#8FBCE5"
           style="fill:#9dbcd7;fill-opacity:1" /></g><path
         d="M44,9.967L20,9.97c-0.6,0-1.078-0.176-1.422-0.523C18.006,8.871,18,8.019,18,7.982c0-0.743-0.421-2-2-2H4    c-1.359,0-1.984,0.995-2,1.989v1.062c0.014-0.843,0.47-1.679,1.435-1.917C3.576,7.037,3.756,6.983,4,6.983h12    c0.232,0,0.409,0.047,0.546,0.12C17.678,7.357,18,8.397,18,9.045c0,0.036,0.006,0.888,0.578,1.464    c0.135,0.136,0.296,0.238,0.471,0.321c0.294,0.085,0.607,0.14,0.951,0.14l24-0.003c0.24,0,0.419,0.053,0.559,0.134    c0.974,0.238,1.431,1.09,1.441,1.941v-1.062C45.988,10.978,45.365,9.967,44,9.967z"
         id="path89"
         opacity="0.05" /></g></g><linearGradient
     id="path25_1_"
     gradientUnits="userSpaceOnUse"
     x1="642.9738"
     y1="773.0254"
     x2="642.9738"
     y2="792.192"
     gradientTransform="matrix(1 0 0 1 -564.6602 -757.96)"><stop
       offset="0"
       style="stop-color:#FFFFFF;stop-opacity:0.2"
       id="stop92" /><stop
       offset="0.08"
       style="stop-color:#FFFFFF;stop-opacity:0.9"
       id="stop94" /><stop
       offset="0.25"
       style="stop-color:#FFFFFF;stop-opacity:0.6"
       id="stop96" /><stop
       offset="1"
       style="stop-color:#FFFFFF;stop-opacity:0"
       id="stop98" /></linearGradient><path
     id="path25"
     fill="url(#path25_1_)"
     d="M99.313,26.836c0,2.491-0.66,4.229-4.994,4.229s-29.638,0-33.014,0  s-3.992-1.481-3.992-3.972l0.025-7.056c0-2.488,3.194-4.972,5.472-4.972h31.003c2.279,0,5.531,2.609,5.5,5.5V26.836z" /><g
     id="g27"
     opacity="0.8"><linearGradient
       id="path36_1_"
       gradientUnits="userSpaceOnUse"
       x1="295.3478"
       y1="-333.4479"
       x2="301.3581"
       y2="-343.8579"
       gradientTransform="matrix(1 0 0 -1 -291 -332)"><stop
         offset="0"
         style="stop-color:#FFFFFF"
         id="stop103" /><stop
         offset="0.5"
         style="stop-color:#FFFFFF;stop-opacity:0.6"
         id="stop105" /><stop
         offset="1"
         style="stop-color:#FFFFFF;stop-opacity:0.15"
         id="stop107" /></linearGradient><path
       id="path36"
       fill="url(#path36_1_)"
       d="M9.303,13.627c0.672-1.391,1.492-2.694,2.433-3.899l-1.712-3.754   c-1.462,1.382-2.649,2.905-3.596,4.384L9.303,13.627z" /><linearGradient
       id="path45_1_"
       gradientUnits="userSpaceOnUse"
       x1="300.7964"
       y1="-331.8896"
       x2="304.7298"
       y2="-338.7026"
       gradientTransform="matrix(1 0 0 -1 -291 -332)"><stop
         offset="0"
         style="stop-color:#FFFFFF"
         id="stop111" /><stop
         offset="0.5"
         style="stop-color:#FFFFFF;stop-opacity:0.6"
         id="stop113" /><stop
         offset="1"
         style="stop-color:#FFFFFF;stop-opacity:0.15"
         id="stop115" /></linearGradient><path
       id="path45"
       fill="url(#path45_1_)"
       d="M9.481,2.366l0.895,1.961c0.861-0.715,1.805-0.961,2.834-1.961H9.481z" /><linearGradient
       id="path54_1_"
       gradientUnits="userSpaceOnUse"
       x1="302.0345"
       y1="-330.5953"
       x2="306.8404"
       y2="-338.9194"
       gradientTransform="matrix(1 0 0 -1 -291 -332)"><stop
         offset="0"
         style="stop-color:#FFFFFF"
         id="stop119" /><stop
         offset="0.5"
         style="stop-color:#FFFFFF;stop-opacity:0.6"
         id="stop121" /><stop
         offset="1"
         style="stop-color:#FFFFFF;stop-opacity:0.15"
         id="stop123" /></linearGradient><path
       id="path54"
       fill="url(#path54_1_)"
       d="M16.196,2.366h-0.708c-1.785,1-3.346,1.763-4.685,2.903l1.641,3.6   c1.402-1.619,3.028-3.038,4.849-4.184c0.014-0.013,0.024-0.024,0.039-0.037C19.373,2.886,17.346,2.366,16.196,2.366z" /><linearGradient
       id="path63_1_"
       gradientUnits="userSpaceOnUse"
       x1="291.974"
       y1="-338.1939"
       x2="297.1894"
       y2="-347.2272"
       gradientTransform="matrix(1 0 0 -1 -291 -332)"><stop
         offset="0"
         style="stop-color:#FFFFFF"
         id="stop127" /><stop
         offset="0.5"
         style="stop-color:#FFFFFF;stop-opacity:0.6"
         id="stop129" /><stop
         offset="1"
         style="stop-color:#FFFFFF;stop-opacity:0.15"
         id="stop131" /></linearGradient><path
       id="path63"
       fill="url(#path63_1_)"
       d="M5.882,11.251c-1.098,1.869-1.815,3.596-2.241,4.777   c0.504,0.719,1.337,1.191,2.282,1.191c1.17,0,2.169-0.723,2.583-1.744c0.106-0.285,0.235-0.559,0.353-0.84L5.882,11.251z" /><linearGradient
       id="path72_1_"
       gradientUnits="userSpaceOnUse"
       x1="291.739"
       y1="-338.5643"
       x2="297.519"
       y2="-348.5756"
       gradientTransform="matrix(1 0 0 -1 -291 -332)"><stop
         offset="0"
         style="stop-color:#FFFFFF"
         id="stop135" /><stop
         offset="0.5"
         style="stop-color:#FFFFFF;stop-opacity:0.6"
         id="stop137" /><stop
         offset="1"
         style="stop-color:#FFFFFF;stop-opacity:0.15"
         id="stop139" /></linearGradient><path
       id="path72"
       fill="url(#path72_1_)"
       d="M3.157,8.15l-0.022,6.276c0,0,0,0.002,0,0.004c0,0.039,0.01,0.076,0.012,0.115   c0.477-1.161,1.143-2.58,2.047-4.079L3.157,8.15z" /><linearGradient
       id="path81_1_"
       gradientUnits="userSpaceOnUse"
       x1="296.2229"
       y1="-335.6222"
       x2="301.4355"
       y2="-344.6505"
       gradientTransform="matrix(1 0 0 -1 -291 -332)"><stop
         offset="0"
         style="stop-color:#FFFFFF"
         id="stop143" /><stop
         offset="0.5"
         style="stop-color:#FFFFFF;stop-opacity:0.6"
         id="stop145" /><stop
         offset="1"
         style="stop-color:#FFFFFF;stop-opacity:0.15"
         id="stop147" /></linearGradient><path
       id="path149"
       fill="url(#path81_1_)"
       d="M8.289,2.378c-1.479,0.08-4.724,2.128-5.069,4.33l2.53,2.877   c1.01-1.541,2.266-3.12,3.815-4.546L8.289,2.378z" /></g><g
     transform="translate(-4.4309626e-4,-2.8801737e-4)"
     id="layer6_11_"><path
       style="opacity:0.05;fill:#ffffff"
       id="path4455_1_"
       inkscape:connector-curvature="0"
       enable-background="new    "
       d="m 27.578,13.714 c -0.932,0.021 -1.867,0.365 -2.622,1.002 -1.168,0.987 -1.371,2.199 -1.451,3.032 -0.082,0.833 -0.057,1.234 -0.695,1.773 -0.637,0.538 -1.059,0.456 -1.914,0.411 -0.855,-0.045 -2.096,-0.023 -3.264,0.964 -0.545,0.46 -0.932,1.034 -1.168,1.644 -0.002,0.004 0,0.01 0,0.014 0,0 0,0.011 0,0.013 -0.004,0.007 -0.008,0.032 -0.014,0.052 -0.035,0.088 -0.08,0.184 -0.115,0.32 -0.006,0.021 -0.029,0.082 -0.051,0.18 -0.004,0.007 0,0.007 0,0.014 -0.002,0.006 0,0.006 0,0.013 -0.025,0.116 -0.051,0.235 -0.064,0.359 -0.002,0.007 0,0.007 0,0.013 -0.008,0.06 -0.012,0.109 -0.014,0.154 -0.004,-0.007 -0.021,0.043 -0.025,0.154 -0.004,0.076 -0.002,0.098 0,0.064 -0.002,0.072 -0.002,0.091 0,0.039 -0.002,0.054 -0.002,0.098 0,0.153 -0.002,-0.022 -0.004,0.017 0,0.103 0.004,0.111 0.021,0.162 0.025,0.155 0.002,0.036 0.002,0.085 0.014,0.167 0.016,0.127 0.037,0.253 0.064,0.372 0,0.006 -0.004,0.008 0,0.013 0.02,0.094 0.043,0.155 0.051,0.181 0.031,0.113 0.059,0.189 0.09,0.27 0.008,0.022 0.018,0.057 0.025,0.076 0.002,0.009 0,0.04 0,0.04 0.004,0 0.008,0 0.014,0 0.203,0.53 0.547,1.007 0.977,1.425 0.006,0.007 0.006,0.02 0.012,0.026 0.012,0.018 0.025,0.034 0.039,0.051 0.041,0.054 0.088,0.101 0.141,0.142 0,0.005 0,0.009 0,0.014 1.168,0.986 2.408,1.007 3.264,0.963 0.856,-0.044 1.277,-0.127 1.914,0.411 0.639,0.539 0.613,0.939 0.695,1.773 0.08,0.834 0.283,2.045 1.451,3.032 1.733,1.464 4.362,1.29 5.86,-0.411 1.498,-1.702 1.297,-4.316 -0.438,-5.782 -1.168,-0.987 -2.408,-1.008 -3.264,-0.964 -0.855,0.045 -1.277,0.128 -1.914,-0.41 -0.62,-0.523 -0.61,-0.933 -0.682,-1.723 0.072,-0.789 0.062,-1.199 0.682,-1.721 0.637,-0.539 1.059,-0.457 1.914,-0.412 0.855,0.045 2.096,0.024 3.264,-0.963 1.734,-1.465 1.936,-4.08 0.438,-5.782 -0.845,-0.957 -2.048,-1.439 -3.239,-1.414 z m 0.014,0.835 c 0.957,-0.02 1.918,0.364 2.594,1.131 1.201,1.363 1.045,3.423 -0.346,4.6 -1.959,1.654 -3.471,-0.068 -5.178,1.375 -0.863,0.729 -0.898,1.525 -0.977,2.351 0.078,0.826 0.113,1.622 0.977,2.352 1.708,1.442 3.219,-0.28 5.178,1.375 1.391,1.176 1.547,3.236 0.346,4.6 -1.199,1.363 -3.297,1.51 -4.689,0.334 -1.958,-1.654 -0.438,-3.362 -2.147,-4.805 -1.707,-1.443 -3.219,0.279 -5.178,-1.376 v -0.012 c -0.434,-0.368 -0.748,-0.819 -0.938,-1.311 -0.002,-0.003 0.002,-0.011 0,-0.014 -0.037,-0.1 -0.074,-0.192 -0.104,-0.296 -0.012,-0.045 -0.027,-0.094 -0.037,-0.141 -0.002,-0.005 0.002,-0.009 0,-0.013 -0.021,-0.097 -0.039,-0.197 -0.053,-0.296 -0.006,-0.051 -0.008,-0.103 -0.012,-0.154 -0.002,-0.034 -0.012,-0.068 -0.014,-0.103 0,-0.023 0,-0.054 0,-0.077 0,-0.047 0,-0.082 0,-0.129 0,-0.005 0,-0.02 0,-0.025 0,-0.018 0,-0.033 0,-0.051 0.002,-0.035 0.012,-0.068 0.014,-0.104 0.004,-0.045 0.008,-0.096 0.012,-0.141 0.002,-0.006 0,-0.008 0,-0.014 0.014,-0.098 0.031,-0.198 0.053,-0.295 0,-0.005 -0.002,-0.008 0,-0.014 0.01,-0.045 0.025,-0.095 0.037,-0.141 0.029,-0.104 0.066,-0.195 0.104,-0.295 0.002,-0.004 -0.002,-0.01 0,-0.014 0.189,-0.492 0.504,-0.956 0.938,-1.323 1.959,-1.654 3.471,0.068 5.178,-1.375 1.709,-1.443 0.189,-3.151 2.147,-4.806 0.608,-0.511 1.348,-0.776 2.095,-0.793 z" /><path
       style="opacity:0.1;fill:#ffffff"
       id="path4446_1_"
       inkscape:connector-curvature="0"
       enable-background="new    "
       d="m 27.578,14.138 c -0.84,0.018 -1.67,0.31 -2.352,0.886 -1.075,0.908 -1.233,1.939 -1.311,2.763 -0.078,0.824 -0.09,1.414 -0.836,2.043 -0.744,0.629 -1.363,0.558 -2.209,0.514 -0.846,-0.044 -1.895,-0.046 -2.969,0.861 -0.49,0.416 -0.84,0.938 -1.053,1.49 0,0 0,0.012 0,0.014 -0.006,0.016 -0.023,0.064 -0.025,0.09 -0.029,0.076 -0.064,0.147 -0.09,0.244 -0.01,0.033 -0.035,0.095 -0.053,0.166 0,0.008 0.002,0.008 0,0.014 -0.023,0.107 -0.037,0.221 -0.051,0.334 -0.006,0.045 0,0.088 0,0.09 -0.002,0.029 -0.012,0.064 -0.014,0.09 0.002,-0.014 -0.008,0.023 -0.012,0.115 -0.002,0.047 0,0.06 0,0.052 -0.002,0.038 0,0.049 0,0.026 0,0.05 -0.002,0.103 0,0.153 0,0 -0.002,0.022 0,0.077 0.004,0.092 0.014,0.129 0.012,0.115 0.004,0.043 0.006,0.109 0.014,0.181 0.014,0.112 0.027,0.226 0.051,0.334 0.002,0.006 0,0.006 0,0.013 0.018,0.07 0.043,0.132 0.053,0.167 0.035,0.131 0.078,0.236 0.115,0.334 0,0.004 0,0.009 0,0.013 0.199,0.516 0.529,0.98 0.963,1.375 0.004,0.003 -0.002,0.011 0,0.013 0.004,0.004 0.008,0.009 0.014,0.013 0.021,0.029 0.049,0.056 0.076,0.077 0,0.004 0,0.01 0,0.013 1.074,0.908 2.123,0.905 2.969,0.861 0.846,-0.044 1.465,-0.116 2.209,0.514 0.746,0.63 0.758,1.22 0.836,2.043 0.078,0.824 0.236,1.855 1.311,2.763 1.562,1.32 3.918,1.147 5.268,-0.385 1.35,-1.534 1.178,-3.87 -0.385,-5.191 -1.074,-0.907 -2.123,-0.905 -2.969,-0.86 -0.846,0.044 -1.465,0.115 -2.209,-0.515 -0.74,-0.625 -0.76,-1.211 -0.836,-2.03 0.076,-0.818 0.096,-1.404 0.836,-2.03 0.745,-0.629 1.364,-0.558 2.209,-0.514 0.846,0.044 1.895,0.047 2.969,-0.861 1.562,-1.321 1.734,-3.657 0.385,-5.19 -0.758,-0.865 -1.84,-1.298 -2.916,-1.275 z m 0.014,0.411 c 0.957,-0.02 1.918,0.364 2.594,1.131 1.201,1.363 1.045,3.423 -0.346,4.6 -1.959,1.654 -3.471,-0.068 -5.178,1.375 -0.863,0.729 -0.898,1.525 -0.977,2.351 0.078,0.826 0.113,1.622 0.977,2.352 1.708,1.442 3.219,-0.28 5.178,1.375 1.391,1.176 1.547,3.236 0.346,4.6 -1.199,1.363 -3.297,1.51 -4.689,0.334 -1.958,-1.654 -0.438,-3.362 -2.147,-4.805 -1.707,-1.443 -3.219,0.279 -5.178,-1.376 v -0.012 c -0.434,-0.368 -0.748,-0.819 -0.938,-1.311 -0.002,-0.003 0.002,-0.011 0,-0.014 -0.037,-0.1 -0.074,-0.192 -0.104,-0.296 -0.012,-0.045 -0.027,-0.094 -0.037,-0.141 -0.002,-0.005 0.002,-0.009 0,-0.013 -0.021,-0.097 -0.039,-0.197 -0.053,-0.296 -0.006,-0.051 -0.008,-0.103 -0.012,-0.154 -0.002,-0.034 -0.012,-0.068 -0.014,-0.103 0,-0.023 0,-0.054 0,-0.077 0,-0.047 0,-0.082 0,-0.129 0,-0.005 0,-0.02 0,-0.025 0,-0.018 0,-0.033 0,-0.051 0.002,-0.035 0.012,-0.068 0.014,-0.104 0.004,-0.045 0.008,-0.096 0.012,-0.141 0.002,-0.006 0,-0.008 0,-0.014 0.014,-0.098 0.031,-0.198 0.053,-0.295 0,-0.005 -0.002,-0.008 0,-0.014 0.01,-0.045 0.025,-0.095 0.037,-0.141 0.029,-0.104 0.066,-0.195 0.104,-0.295 0.002,-0.004 -0.002,-0.01 0,-0.014 0.189,-0.492 0.504,-0.956 0.938,-1.323 1.959,-1.654 3.471,0.068 5.178,-1.375 1.709,-1.443 0.189,-3.151 2.147,-4.806 0.608,-0.511 1.348,-0.776 2.095,-0.793 z" /><path
       style="opacity:0.5;fill:#669ccc"
       id="path3984-0-3-4-7_1_"
       inkscape:connector-curvature="0"
       enable-background="new    "
       d="m 27.595,14.55 c -0.746,0.016 -1.492,0.274 -2.102,0.789 -1.958,1.655 -0.436,3.375 -2.145,4.817 -1.707,1.443 -3.221,-0.282 -5.178,1.373 v 0.003 c -0.436,0.368 -0.75,0.823 -0.939,1.315 0,0.002 0,0.006 -0.002,0.01 -0.039,0.1 -0.07,0.2 -0.1,0.303 -0.012,0.046 -0.025,0.092 -0.035,0.138 -0.002,0.005 -0.002,0.011 -0.004,0.016 -0.021,0.097 -0.035,0.194 -0.049,0.293 0,0.001 0,0.001 0,0.003 0,0.004 -0.002,0.01 -0.002,0.015 -0.006,0.046 -0.01,0.091 -0.014,0.138 -0.002,0.035 -0.006,0.069 -0.008,0.104 0,0.017 -0.002,0.036 -0.002,0.054 0,0.006 0,0.012 0,0.018 -0.002,0.046 -0.002,0.091 0,0.137 0,0.024 0.002,0.049 0.002,0.072 0.002,0.034 0.006,0.069 0.008,0.104 0.004,0.052 0.01,0.102 0.016,0.154 0,0 0,0.001 0,0.002 0.014,0.098 0.027,0.195 0.049,0.293 0.002,0.005 0.002,0.01 0.004,0.016 0.01,0.046 0.023,0.091 0.035,0.137 0.029,0.104 0.061,0.204 0.1,0.303 0.002,0.004 0.002,0.007 0.002,0.011 0.189,0.492 0.504,0.946 0.939,1.314 v 0.003 c 1.957,1.654 3.471,-0.07 5.178,1.373 1.709,1.442 0.188,3.162 2.145,4.816 1.393,1.176 3.492,1.022 4.693,-0.342 1.199,-1.363 1.045,-3.422 -0.346,-4.598 -1.957,-1.655 -3.471,0.073 -5.18,-1.37 -0.861,-0.729 -0.9,-1.53 -0.979,-2.356 0.078,-0.826 0.117,-1.627 0.979,-2.355 1.709,-1.443 3.223,0.284 5.18,-1.371 1.391,-1.176 1.545,-3.234 0.346,-4.598 -0.675,-0.77 -1.632,-1.155 -2.591,-1.134 l 0,0 z" /><path
       style="opacity:0.5;fill:#669ccc"
       id="path4380_1_"
       inkscape:connector-curvature="0"
       enable-background="new    "
       d="m 27.592,14.549 c -0.746,0.017 -1.486,0.282 -2.096,0.797 -1.958,1.655 -0.438,3.362 -2.147,4.806 -1.707,1.443 -3.219,-0.28 -5.178,1.375 -0.434,0.368 -0.748,0.831 -0.938,1.323 -0.002,0.004 0.002,0.01 0,0.014 -0.037,0.1 -0.074,0.191 -0.104,0.295 -0.012,0.046 -0.027,0.096 -0.037,0.141 -0.002,0.006 0,0.009 0,0.014 -0.021,0.097 -0.039,0.197 -0.053,0.295 0,0.006 0.002,0.008 0,0.014 -0.004,0.045 -0.008,0.096 -0.012,0.141 -0.002,0.035 -0.012,0.068 -0.014,0.104 0,0.018 0,0.033 0,0.051 0,0.006 0,0.021 0,0.025 0,0.047 0,0.082 0,0.129 0,0.023 0,0.054 0,0.077 0.002,0.021 0.012,0.042 0.014,0.064 0.002,-0.013 -0.002,-0.026 0,-0.038 0.004,-0.047 0.008,-0.096 0.012,-0.143 0.002,-0.004 0,-0.008 0,-0.012 0.014,-0.099 0.031,-0.199 0.053,-0.296 0,-0.005 -0.002,-0.009 0,-0.013 0.01,-0.046 0.025,-0.096 0.037,-0.142 0.029,-0.103 0.066,-0.195 0.104,-0.296 0.002,-0.003 -0.002,-0.01 0,-0.012 0.189,-0.492 0.504,-0.957 0.938,-1.324 1.959,-1.654 3.471,0.068 5.178,-1.375 1.709,-1.443 0.189,-3.151 2.147,-4.806 0.609,-0.515 1.35,-0.78 2.096,-0.796 0.957,-0.021 1.918,0.364 2.594,1.131 0.492,0.557 0.752,1.232 0.797,1.914 0.051,-0.82 -0.205,-1.654 -0.797,-2.325 -0.676,-0.768 -1.637,-1.152 -2.594,-1.132 z m -3.882,9.663 c -0.006,0.068 -0.02,0.136 -0.025,0.206 0.078,0.825 0.113,1.622 0.977,2.351 1.708,1.443 3.219,-0.28 5.178,1.375 0.695,0.588 1.08,1.391 1.143,2.223 0.051,-0.97 -0.336,-1.95 -1.143,-2.634 -1.959,-1.655 -3.471,0.067 -5.178,-1.375 -0.792,-0.669 -0.88,-1.395 -0.952,-2.146 z" /><path
       style="opacity:0.5;fill:#669ccc"
       id="path4392_1_"
       inkscape:connector-curvature="0"
       enable-background="new    "
       d="m 27.592,14.549 c -0.746,0.017 -1.486,0.282 -2.096,0.797 -1.958,1.655 -0.438,3.362 -2.147,4.806 -1.707,1.443 -3.219,-0.28 -5.178,1.375 -0.434,0.368 -0.748,0.831 -0.938,1.323 -0.002,0.004 0.002,0.01 0,0.014 -0.037,0.1 -0.074,0.191 -0.104,0.295 -0.012,0.046 -0.027,0.096 -0.037,0.141 -0.002,0.006 0,0.009 0,0.014 -0.021,0.097 -0.039,0.197 -0.053,0.295 0,0.006 0.002,0.008 0,0.014 -0.004,0.045 -0.008,0.096 -0.012,0.141 -0.002,0.035 -0.012,0.068 -0.014,0.104 0,0.018 0,0.033 0,0.051 0,0.006 0,0.021 0,0.025 0,0.047 0,0.082 0,0.129 0,0.023 0,0.054 0,0.077 0.002,0.034 0.012,0.068 0.014,0.103 0.004,0.052 0.006,0.104 0.012,0.154 0.014,0.099 0.031,0.199 0.053,0.296 0.002,0.004 -0.002,0.008 0,0.013 0.01,0.047 0.025,0.096 0.037,0.141 0.029,0.104 0.066,0.196 0.104,0.296 0.002,0.003 -0.002,0.011 0,0.014 0.189,0.491 0.504,0.942 0.938,1.311 v 0.012 c 1.959,1.655 3.471,-0.067 5.178,1.376 1.709,1.442 0.189,3.15 2.147,4.805 1.393,1.176 3.49,1.029 4.689,-0.334 1.201,-1.363 1.045,-3.424 -0.346,-4.6 -1.959,-1.655 -3.471,0.067 -5.178,-1.375 -0.863,-0.729 -0.898,-1.525 -0.977,-2.352 0.078,-0.826 0.113,-1.622 0.977,-2.351 1.708,-1.443 3.219,0.28 5.178,-1.375 1.391,-1.176 1.547,-3.236 0.346,-4.6 -0.675,-0.771 -1.636,-1.155 -2.593,-1.135 z m 0.011,0.437 c 0.836,-0.018 1.662,0.31 2.248,0.976 1.043,1.186 0.916,2.959 -0.295,3.983 -0.879,0.743 -1.551,0.711 -2.377,0.668 -0.826,-0.043 -1.834,-0.111 -2.801,0.707 -0.979,0.827 -1.053,1.835 -1.131,2.647 -0.002,0.025 -0.002,0.052 0,0.077 0.078,0.811 0.152,1.819 1.131,2.646 0.967,0.818 1.975,0.75 2.801,0.707 0.826,-0.043 1.498,-0.075 2.377,0.668 1.211,1.024 1.338,2.798 0.295,3.982 -1.043,1.186 -2.859,1.308 -4.072,0.283 -0.881,-0.743 -0.938,-1.381 -1.016,-2.185 -0.076,-0.803 -0.162,-1.804 -1.131,-2.621 -0.967,-0.818 -1.975,-0.749 -2.801,-0.706 -0.818,0.042 -1.486,0.063 -2.352,-0.655 -0.008,-0.005 -0.016,-0.009 -0.025,-0.014 0,-0.003 0,-0.009 0,-0.013 -0.377,-0.317 -0.645,-0.697 -0.809,-1.117 -0.002,-0.004 0,-0.01 0,-0.013 -0.002,-0.003 0,-0.013 0,-0.013 -0.039,-0.104 -0.07,-0.185 -0.09,-0.258 -0.016,-0.051 -0.033,-0.092 -0.039,-0.115 0,-0.007 0.002,-0.007 0,-0.013 -0.018,-0.085 -0.029,-0.174 -0.039,-0.257 -0.004,-0.029 -0.008,-0.082 -0.012,-0.142 -0.006,-0.073 -0.012,-0.085 -0.014,-0.077 0,0.002 0,-0.012 0,-0.014 0,-0.002 0.002,-0.023 0,-0.063 0,-0.041 0,-0.062 0,-0.103 0.002,-0.037 0.002,-0.055 0,-0.025 0.002,-0.033 0,-0.039 0,-0.039 0,0.004 0,-0.014 0,-0.013 0.002,0.009 0.008,-0.005 0.014,-0.077 0.002,-0.045 0.008,-0.095 0.012,-0.129 0.002,-0.006 0,-0.006 0,-0.013 0.01,-0.083 0.021,-0.172 0.039,-0.257 0,-0.004 0,-0.009 0,-0.013 0.004,-0.019 0.021,-0.058 0.039,-0.116 0.02,-0.073 0.051,-0.154 0.09,-0.257 0,0 0,-0.011 0,-0.013 0.164,-0.428 0.434,-0.826 0.809,-1.144 0.881,-0.743 1.551,-0.711 2.377,-0.668 0.826,0.043 1.834,0.111 2.801,-0.707 0.969,-0.817 1.055,-1.817 1.131,-2.621 0.078,-0.803 0.135,-1.44 1.016,-2.184 C 26.31,15.23 26.955,15 27.603,14.986 z" /><path
       style="opacity:0.5;fill:#669ccc"
       id="path4394_1_"
       inkscape:connector-curvature="0"
       enable-background="new    "
       d="m 27.592,14.549 c -0.746,0.017 -1.486,0.282 -2.096,0.797 -1.958,1.655 -0.438,3.362 -2.147,4.806 -1.707,1.443 -3.219,-0.28 -5.178,1.375 -0.434,0.368 -0.748,0.831 -0.938,1.323 -0.002,0.004 0.002,0.01 0,0.014 -0.037,0.1 -0.074,0.191 -0.104,0.295 -0.012,0.046 -0.027,0.096 -0.037,0.141 -0.002,0.006 0,0.009 0,0.014 -0.021,0.097 -0.039,0.197 -0.053,0.295 0,0.006 0.002,0.008 0,0.014 -0.004,0.045 -0.008,0.096 -0.012,0.141 -0.002,0.035 -0.012,0.068 -0.014,0.104 0,0.018 0,0.033 0,0.051 0,0.006 0,0.021 0,0.025 0,0.047 0,0.082 0,0.129 0,0.023 0,0.054 0,0.077 0.002,0.034 0.012,0.068 0.014,0.103 0.004,0.052 0.006,0.104 0.012,0.154 0.014,0.099 0.031,0.199 0.053,0.296 0.002,0.004 -0.002,0.008 0,0.013 0.01,0.047 0.025,0.096 0.037,0.141 0.029,0.104 0.066,0.196 0.104,0.296 0.002,0.003 -0.002,0.011 0,0.014 0.189,0.491 0.504,0.942 0.938,1.311 v 0.012 c 1.959,1.655 3.471,-0.067 5.178,1.376 1.709,1.442 0.189,3.15 2.147,4.805 1.393,1.176 3.49,1.029 4.689,-0.334 1.201,-1.363 1.045,-3.424 -0.346,-4.6 -1.959,-1.655 -3.471,0.067 -5.178,-1.375 -0.863,-0.729 -0.898,-1.525 -0.977,-2.352 0.078,-0.826 0.113,-1.622 0.977,-2.351 1.708,-1.443 3.219,0.28 5.178,-1.375 1.391,-1.176 1.547,-3.236 0.346,-4.6 -0.675,-0.771 -1.636,-1.155 -2.593,-1.135 z m 0.011,0.809 c 0.73,-0.015 1.455,0.281 1.967,0.861 0.908,1.033 0.799,2.551 -0.258,3.444 -0.795,0.671 -1.303,0.608 -2.121,0.565 -0.816,-0.042 -1.99,-0.091 -3.057,0.81 -1.078,0.911 -1.182,2.093 -1.26,2.892 -0.004,0.051 -0.004,0.102 0,0.153 0.078,0.799 0.182,1.98 1.26,2.891 1.067,0.902 2.241,0.853 3.057,0.81 0.818,-0.043 1.326,-0.104 2.121,0.565 1.057,0.894 1.166,2.411 0.258,3.443 -0.91,1.033 -2.488,1.151 -3.547,0.257 -0.795,-0.671 -0.811,-1.145 -0.887,-1.939 -0.076,-0.796 -0.194,-1.966 -1.26,-2.865 -1.066,-0.901 -2.238,-0.852 -3.057,-0.81 -0.809,0.042 -1.318,0.094 -2.096,-0.553 -0.008,-0.008 -0.016,-0.004 -0.025,-0.013 0,-0.004 0,-0.009 0,-0.013 -0.328,-0.277 -0.564,-0.612 -0.707,-0.977 0,-0.003 0.002,-0.01 0,-0.013 0,-0.001 0,-0.014 0,-0.014 -0.039,-0.104 -0.062,-0.17 -0.076,-0.218 -0.02,-0.067 -0.025,-0.103 -0.025,-0.103 -0.002,-0.007 0,-0.007 0,-0.013 -0.018,-0.075 -0.029,-0.149 -0.039,-0.219 -0.002,-0.01 -0.008,-0.048 -0.014,-0.116 -0.008,-0.128 -0.016,-0.152 -0.012,-0.076 0.002,0.037 0.002,0.018 0,-0.052 -0.002,-0.037 -0.002,-0.065 0,-0.103 0.002,-0.062 0.002,-0.071 0,-0.014 0.002,-0.066 0.002,-0.078 0,-0.038 -0.004,0.077 0.004,0.052 0.012,-0.077 0.004,-0.039 0.012,-0.079 0.014,-0.103 0,-0.003 0,-0.011 0,-0.013 0.01,-0.07 0.021,-0.143 0.039,-0.219 0,-0.004 0,-0.009 0,-0.013 -0.002,0.005 0.006,-0.033 0.025,-0.103 0.014,-0.049 0.037,-0.113 0.076,-0.219 0,0 0,-0.012 0,-0.013 v -0.013 c 0.145,-0.369 0.387,-0.719 0.707,-0.99 0.795,-0.67 1.303,-0.607 2.121,-0.565 0.818,0.043 1.99,0.092 3.057,-0.809 1.066,-0.9 1.184,-2.07 1.26,-2.865 0.076,-0.795 0.092,-1.269 0.887,-1.94 0.467,-0.39 1.016,-0.587 1.58,-0.6 z" /><path
       style="opacity:0.2;fill:#ffffff"
       id="path4421_1_"
       inkscape:connector-curvature="0"
       enable-background="new    "
       d="m 30.982,18.044 c -0.062,0.832 -0.447,1.648 -1.143,2.236 -1.959,1.654 -3.471,-0.068 -5.178,1.375 -0.863,0.729 -0.898,1.525 -0.977,2.351 0.006,0.069 0.02,0.137 0.025,0.206 0.072,-0.753 0.16,-1.478 0.951,-2.146 1.708,-1.443 3.219,0.279 5.178,-1.375 0.812,-0.687 1.199,-1.673 1.144,-2.647 z m -13.953,6.168 c -0.002,0.022 -0.012,0.042 -0.014,0.063 0,0.018 0,0.035 0,0.053 0,0.006 0,0.02 0,0.025 0,0.046 0,0.082 0,0.128 0,0.024 0,0.054 0,0.077 0.002,0.034 0.012,0.068 0.014,0.103 0.004,0.052 0.006,0.104 0.012,0.154 0.014,0.099 0.031,0.198 0.053,0.296 0.002,0.005 -0.002,0.008 0,0.013 0.01,0.047 0.025,0.096 0.037,0.142 0.029,0.103 0.066,0.195 0.104,0.295 0.002,0.004 -0.002,0.01 0,0.014 0.189,0.492 0.504,0.942 0.938,1.31 v 0.013 c 1.959,1.654 3.471,-0.067 5.178,1.375 1.709,1.443 0.189,3.15 2.147,4.806 1.393,1.176 3.49,1.029 4.689,-0.334 0.592,-0.672 0.85,-1.519 0.797,-2.339 -0.043,0.688 -0.303,1.366 -0.797,1.928 -1.199,1.363 -3.297,1.51 -4.689,0.334 -1.958,-1.654 -0.438,-3.362 -2.147,-4.805 -1.707,-1.443 -3.219,0.279 -5.178,-1.376 v -0.012 c -0.434,-0.368 -0.748,-0.819 -0.938,-1.311 -0.002,-0.003 0.002,-0.011 0,-0.014 -0.037,-0.1 -0.074,-0.192 -0.104,-0.296 -0.012,-0.045 -0.027,-0.094 -0.037,-0.141 -0.002,-0.005 0.002,-0.009 0,-0.013 -0.021,-0.097 -0.039,-0.197 -0.053,-0.296 -0.006,-0.051 -0.008,-0.103 -0.012,-0.154 -0.002,-0.013 0.002,-0.026 0,-0.038 z" /></g></svg>