<?xml version="1.0" encoding="utf-8"?>
<!-- Generator: Adobe Illustrator 17.0.0, SVG Export Plug-In . SVG Version: 6.00 Build 0)  -->
<!DOCTYPE svg PUBLIC "-//W3C//DTD SVG 1.1//EN" "http://www.w3.org/Graphics/SVG/1.1/DTD/svg11.dtd">
<svg version="1.1" id="图层_1" xmlns="http://www.w3.org/2000/svg" xmlns:xlink="http://www.w3.org/1999/xlink" x="0px" y="0px"
	 width="16px" height="16px" viewBox="0 0 16 16" enable-background="new 0 0 16 16" xml:space="preserve">
<g id="layer6_1_" transform="translate(-5e-4,0)">
	<path id="path4765" inkscape:connector-curvature="0" opacity="0.05" fill="#FFFFFF" enable-background="new    " d="M6.99,0
		C6.336,0,5.803,0.552,5.803,1.198v0.594C5.583,1.871,5.374,1.963,5.167,2.063L4.751,1.636c-0.003,0-0.007,0-0.01,0
		C4.29,1.185,3.526,1.163,3.064,1.625L1.627,3.063C1.163,3.525,1.187,4.29,1.636,4.741c0,0.003,0,0.007,0,0.01l0.429,0.418
		c-0.1,0.207-0.193,0.416-0.273,0.635H1.199C0.554,5.803,0,6.336,0,6.99v2.02c0,0.657,0.554,1.189,1.199,1.189h0.593
		c0.081,0.219,0.173,0.428,0.273,0.636l-0.429,0.416c0,0.003,0,0.007,0,0.01c-0.449,0.45-0.472,1.215-0.008,1.677l1.437,1.439
		c0.247,0.247,0.567,0.345,0.854,0.343c0.302-0.003,0.605-0.136,0.824-0.355c0.003,0,0.007,0,0.01,0l0.416-0.428
		c0.207,0.1,0.416,0.193,0.636,0.271v0.593C5.804,15.449,6.337,16,6.991,16h2.02c0.656,0,1.189-0.551,1.189-1.199v-0.593
		c0.219-0.079,0.428-0.171,0.636-0.271l0.416,0.428c0.003,0,0.007,0,0.012,0c0.45,0.452,1.213,0.473,1.677,0.012l1.437-1.439
		c0.462-0.462,0.44-1.226-0.012-1.677c0-0.003,0-0.007,0-0.01l-0.426-0.416c0.098-0.209,0.193-0.418,0.271-0.636h0.593
		c0.645,0,1.197-0.531,1.197-1.189V6.99c0-0.654-0.552-1.187-1.197-1.187h-0.593c-0.079-0.22-0.173-0.428-0.271-0.635l0.426-0.418
		c0-0.003,0-0.007,0-0.01c0.452-0.451,0.473-1.215,0.012-1.678L12.94,1.625c-0.464-0.462-1.226-0.44-1.677,0.011
		c-0.005,0-0.008,0-0.012,0l-0.416,0.427C10.627,1.962,10.418,1.87,10.2,1.792V1.198C10.2,0.552,9.667,0,9.011,0
		C9.011,0,6.99,0,6.99,0z M6.99,0.666h2.02c0.29,0,0.521,0.238,0.521,0.531v1.032c0.516,0.137,1.018,0.352,1.47,0.614l0.73-0.739
		c0.207-0.208,0.535-0.214,0.738-0.011l1.439,1.438c0.204,0.205,0.197,0.532-0.012,0.74L13.156,5
		c0.263,0.451,0.476,0.952,0.616,1.468h1.031c0.293,0,0.531,0.233,0.531,0.521v2.02c0,0.29-0.238,0.523-0.531,0.523h-1.031
		c-0.14,0.516-0.354,1.018-0.616,1.468l0.74,0.728c0.209,0.207,0.215,0.536,0.012,0.74l-1.439,1.439
		c-0.204,0.204-0.531,0.197-0.738-0.01l-0.73-0.742c-0.452,0.263-0.954,0.478-1.47,0.614v1.031c0,0.295-0.231,0.533-0.521,0.533
		H6.99c-0.288,0-0.521-0.238-0.521-0.533v-1.031c-0.516-0.136-1.016-0.352-1.468-0.614l-0.73,0.742
		C4.168,14,4.041,14.05,3.907,14.051c-0.135,0.002-0.273-0.043-0.375-0.145l-1.439-1.439c-0.204-0.204-0.195-0.533,0.012-0.74
		L2.844,11C2.583,10.55,2.37,10.048,2.23,9.532H1.199c-0.293,0-0.529-0.233-0.529-0.523v-2.02c0-0.288,0.237-0.521,0.529-0.521H2.23
		C2.37,5.953,2.583,5.451,2.844,5L2.106,4.271c-0.207-0.208-0.215-0.535-0.012-0.74l1.439-1.438C3.737,1.89,4.066,1.896,4.271,2.104
		l0.73,0.739c0.452-0.263,0.952-0.477,1.468-0.614V1.197C6.469,0.904,6.702,0.666,6.99,0.666z M8.001,5.781
		C6.778,5.781,5.783,6.777,5.783,8s0.995,2.22,2.218,2.22c1.223,0,2.219-0.997,2.219-2.22C10.22,6.777,9.224,5.781,8.001,5.781z
		 M8.001,6.448c0.861,0,1.551,0.689,1.551,1.552c0,0.861-0.69,1.552-1.551,1.552S6.449,8.862,6.449,8
		C6.449,7.137,7.14,6.448,8.001,6.448z"/>
	<path id="path4754" inkscape:connector-curvature="0" opacity="0.1" fill="#FFFFFF" enable-background="new    " d="M6.99,0.333
		c-0.471,0-0.854,0.396-0.854,0.864v0.813C5.767,2.127,5.41,2.27,5.072,2.448L4.512,1.875c0-0.003,0-0.007,0-0.01
		c-0.331-0.33-0.886-0.343-1.22-0.01L1.855,3.291c-0.333,0.333-0.319,0.89,0.01,1.219c0.003,0,0.007,0,0.01,0L2.45,5.072
		C2.272,5.408,2.129,5.765,2.012,6.136H1.198c-0.469,0-0.864,0.381-0.864,0.854v2.02c0,0.472,0.396,0.855,0.864,0.855h0.814
		c0.117,0.37,0.26,0.728,0.438,1.062l-0.574,0.564c-0.003,0-0.007,0-0.01,0c-0.329,0.329-0.343,0.885-0.01,1.218l1.437,1.437
		c0.174,0.174,0.404,0.243,0.614,0.24c0.219-0.002,0.444-0.088,0.605-0.25c0-0.003,0-0.008,0-0.012l0.561-0.571
		c0.337,0.176,0.694,0.319,1.064,0.436v0.812c0,0.471,0.383,0.866,0.854,0.866h2.02c0.473,0,0.855-0.396,0.855-0.866v-0.812
		c0.37-0.117,0.726-0.26,1.064-0.436l0.562,0.571c0,0.003,0,0.008,0,0.012c0.329,0.329,0.885,0.343,1.218,0.01l1.439-1.437
		c0.332-0.333,0.319-0.89-0.012-1.218c-0.003,0-0.007,0-0.01,0l-0.574-0.564c0.179-0.333,0.322-0.692,0.438-1.062h0.814
		c0.469,0,0.864-0.383,0.864-0.855v-2.02c0-0.472-0.396-0.854-0.864-0.854H13.99c-0.115-0.37-0.258-0.727-0.438-1.063l0.574-0.562
		c0.003,0,0.007,0,0.01,0c0.331-0.329,0.343-0.886,0.012-1.219L12.71,1.854c-0.333-0.333-0.89-0.319-1.218,0.01
		c0,0.003,0,0.007,0,0.01l-0.562,0.573c-0.337-0.178-0.694-0.321-1.064-0.437V1.197c0-0.469-0.381-0.864-0.855-0.864L6.99,0.333
		L6.99,0.333z M6.99,0.666h2.02c0.29,0,0.521,0.238,0.521,0.531v1.032c0.516,0.137,1.018,0.352,1.47,0.614l0.73-0.739
		c0.207-0.208,0.535-0.214,0.738-0.011l1.439,1.438c0.204,0.205,0.197,0.532-0.012,0.74L13.156,5
		c0.263,0.451,0.476,0.952,0.616,1.468h1.031c0.293,0,0.531,0.233,0.531,0.521v2.02c0,0.29-0.238,0.523-0.531,0.523h-1.031
		c-0.14,0.516-0.354,1.018-0.616,1.468l0.74,0.728c0.209,0.207,0.215,0.536,0.012,0.74l-1.439,1.439
		c-0.204,0.204-0.531,0.197-0.738-0.01l-0.73-0.742c-0.452,0.263-0.954,0.478-1.47,0.614v1.031c0,0.295-0.231,0.533-0.521,0.533
		H6.99c-0.288,0-0.521-0.238-0.521-0.533v-1.031c-0.516-0.136-1.016-0.352-1.468-0.614l-0.73,0.742
		C4.168,14,4.041,14.05,3.907,14.051c-0.135,0.002-0.273-0.043-0.375-0.145l-1.439-1.439c-0.204-0.204-0.195-0.533,0.012-0.74
		L2.844,11C2.583,10.55,2.37,10.048,2.23,9.532H1.199c-0.293,0-0.529-0.233-0.529-0.523v-2.02c0-0.288,0.237-0.521,0.529-0.521H2.23
		C2.37,5.953,2.583,5.451,2.844,5L2.106,4.271c-0.207-0.208-0.215-0.535-0.012-0.74l1.439-1.438C3.737,1.89,4.066,1.896,4.271,2.104
		l0.73,0.739c0.452-0.263,0.952-0.477,1.468-0.614V1.197C6.469,0.904,6.702,0.666,6.99,0.666z M8.001,5.781
		C6.778,5.781,5.783,6.777,5.783,8s0.995,2.22,2.218,2.22c1.223,0,2.219-0.997,2.219-2.22C10.22,6.777,9.224,5.781,8.001,5.781z
		 M8.001,6.114c1.044,0,1.886,0.842,1.886,1.886c0,1.042-0.842,1.886-1.886,1.886S6.117,9.042,6.117,8
		C6.117,6.956,6.957,6.114,8.001,6.114z"/>
	<path id="rect3267" inkscape:connector-curvature="0" opacity="0.5" fill="#669CCC" enable-background="new    " d="M6.988,15.334
		c-0.288,0-0.523-0.24-0.523-0.535v-1.034c-0.514-0.136-1.009-0.345-1.46-0.607l-0.737,0.737c-0.104,0.102-0.227,0.157-0.362,0.158
		c-0.133,0.002-0.269-0.046-0.373-0.15l-1.439-1.439c-0.204-0.202-0.197-0.528,0.012-0.735l0.735-0.735
		c-0.263-0.45-0.469-0.944-0.609-1.46H1.2c-0.293,0-0.531-0.233-0.531-0.523V6.988c0-0.29,0.238-0.521,0.531-0.521h1.035
		c0.14-0.517,0.345-1.01,0.609-1.461L2.108,4.27C1.899,4.062,1.892,3.739,2.096,3.535l1.439-1.439C3.74,1.892,4.064,1.9,4.269,2.107
		l0.737,0.736c0.45-0.263,0.945-0.471,1.46-0.608V1.2c0-0.294,0.235-0.534,0.523-0.534h2.025c0.288,0,0.523,0.24,0.523,0.534v1.035
		c0.516,0.137,1.009,0.345,1.458,0.608l0.738-0.736c0.207-0.207,0.531-0.215,0.735-0.011l1.439,1.439
		c0.204,0.204,0.197,0.527-0.01,0.735l-0.737,0.736c0.263,0.451,0.471,0.944,0.609,1.461h1.035c0.293,0,0.533,0.231,0.533,0.521
		v2.025c0,0.29-0.24,0.523-0.533,0.523h-1.035c-0.138,0.516-0.345,1.009-0.609,1.46l0.737,0.735c0.207,0.207,0.214,0.533,0.01,0.735
		l-1.439,1.439c-0.204,0.207-0.528,0.199-0.735-0.008l-0.738-0.737c-0.449,0.262-0.942,0.471-1.458,0.607v1.035
		c0,0.295-0.235,0.535-0.523,0.535L6.988,15.334L6.988,15.334z M8.001,10.218c1.223,0,2.217-0.995,2.217-2.218
		S9.223,5.782,8.001,5.782C6.778,5.782,5.785,6.777,5.785,8C5.785,9.223,6.778,10.218,8.001,10.218z"/>
	<path id="path4726" inkscape:connector-curvature="0" opacity="0.5" fill="#669CCC" enable-background="new    " d="M6.99,0.666
		c-0.288,0-0.521,0.238-0.521,0.531v1.032C5.953,2.366,5.453,2.581,5.001,2.843l-0.73-0.739C4.066,1.896,3.737,1.891,3.533,2.093
		L2.094,3.531c-0.204,0.205-0.195,0.532,0.012,0.74L2.844,5C2.583,5.451,2.37,5.952,2.23,6.468H1.199
		c-0.293,0-0.529,0.233-0.529,0.521v2.02c0,0.29,0.237,0.523,0.529,0.523H2.23C2.37,10.048,2.583,10.55,2.844,11l-0.738,0.728
		c-0.207,0.207-0.215,0.536-0.012,0.74l1.439,1.439c0.102,0.102,0.24,0.146,0.375,0.145C4.04,14.05,4.168,14,4.271,13.896
		l0.73-0.742c0.452,0.263,0.952,0.478,1.468,0.614v1.031c0,0.295,0.233,0.533,0.521,0.533h2.02c0.29,0,0.521-0.238,0.521-0.533
		v-1.031c0.516-0.136,1.018-0.352,1.47-0.614l0.73,0.742c0.207,0.207,0.535,0.214,0.738,0.01l1.439-1.439
		c0.204-0.204,0.197-0.533-0.012-0.74L13.156,11c0.263-0.45,0.476-0.952,0.616-1.468h1.031c0.293,0,0.531-0.233,0.531-0.523v-2.02
		c0-0.288-0.238-0.521-0.531-0.521h-1.031C13.632,5.953,13.418,5.451,13.156,5l0.74-0.729c0.209-0.208,0.215-0.535,0.012-0.74
		l-1.439-1.438c-0.204-0.204-0.531-0.197-0.738,0.011l-0.73,0.739c-0.452-0.263-0.954-0.477-1.47-0.614V1.197
		c0-0.294-0.231-0.531-0.521-0.531C9.01,0.666,6.99,0.666,6.99,0.666z M7.136,1.333h1.729v0.896c0,0.304,0.205,0.57,0.498,0.646
		c0.455,0.121,0.901,0.308,1.304,0.542c0.263,0.155,0.598,0.113,0.812-0.105l0.636-0.635l1.209,1.209L12.69,4.52
		c-0.217,0.215-0.26,0.551-0.105,0.813c0.233,0.403,0.421,0.849,0.543,1.302c0.076,0.295,0.342,0.5,0.646,0.5h0.894v1.73h-0.894
		c-0.304,0-0.571,0.205-0.646,0.5c-0.122,0.452-0.309,0.901-0.543,1.302c-0.155,0.262-0.112,0.597,0.105,0.812l0.635,0.636
		l-1.209,1.207l-0.636-0.635c-0.214-0.217-0.549-0.258-0.812-0.104c-0.403,0.233-0.848,0.421-1.304,0.541
		c-0.293,0.076-0.498,0.342-0.498,0.646v0.896H7.136v-0.896c0-0.304-0.205-0.571-0.5-0.646c-0.454-0.12-0.899-0.307-1.302-0.541
		c-0.263-0.155-0.597-0.114-0.812,0.104l-0.636,0.635l-1.209-1.207l0.636-0.636c0.215-0.215,0.258-0.551,0.104-0.812
		c-0.233-0.402-0.421-0.85-0.541-1.302c-0.077-0.295-0.343-0.5-0.648-0.5H1.333v-1.73h0.894c0.304,0,0.571-0.205,0.648-0.5
		c0.12-0.453,0.307-0.899,0.541-1.302C3.572,5.071,3.529,4.736,3.313,4.52L2.677,3.886l1.209-1.209l0.636,0.635
		c0.215,0.217,0.549,0.259,0.812,0.105c0.403-0.234,0.848-0.421,1.302-0.542c0.295-0.076,0.5-0.342,0.5-0.646
		C7.136,2.229,7.136,1.333,7.136,1.333z M8.001,5.115c-1.585,0-2.886,1.301-2.886,2.886c0,1.587,1.301,2.887,2.886,2.887
		c1.584,0,2.885-1.301,2.885-2.887C10.886,6.415,9.586,5.115,8.001,5.115z M8.001,5.781c1.223,0,2.219,0.996,2.219,2.219
		s-0.997,2.22-2.219,2.22c-1.223,0-2.218-0.997-2.218-2.22C5.783,6.777,6.778,5.781,8.001,5.781z"/>
	<path id="path4713" inkscape:connector-curvature="0" opacity="0.5" fill="#669CCC" enable-background="new    " d="M6.99,0.666
		c-0.288,0-0.521,0.238-0.521,0.531v1.032C5.953,2.366,5.453,2.581,5.001,2.843l-0.73-0.739C4.066,1.896,3.737,1.891,3.533,2.093
		L2.094,3.531c-0.204,0.205-0.195,0.532,0.012,0.74L2.844,5C2.583,5.451,2.37,5.952,2.23,6.468H1.199
		c-0.293,0-0.529,0.233-0.529,0.521v2.02c0,0.29,0.237,0.523,0.529,0.523H2.23C2.37,10.048,2.583,10.55,2.844,11l-0.738,0.728
		c-0.207,0.207-0.215,0.536-0.012,0.74l1.439,1.439c0.102,0.102,0.24,0.146,0.375,0.145C4.04,14.05,4.168,14,4.271,13.896
		l0.73-0.742c0.452,0.263,0.952,0.478,1.468,0.614v1.031c0,0.295,0.233,0.533,0.521,0.533h2.02c0.29,0,0.521-0.238,0.521-0.533
		v-1.031c0.516-0.136,1.018-0.352,1.47-0.614l0.73,0.742c0.207,0.207,0.535,0.214,0.738,0.01l1.439-1.439
		c0.204-0.204,0.197-0.533-0.012-0.74L13.156,11c0.263-0.45,0.476-0.952,0.616-1.468h1.031c0.293,0,0.531-0.233,0.531-0.523v-2.02
		c0-0.288-0.238-0.521-0.531-0.521h-1.031C13.632,5.953,13.418,5.451,13.156,5l0.74-0.729c0.209-0.208,0.215-0.535,0.012-0.74
		l-1.439-1.438c-0.204-0.204-0.531-0.197-0.738,0.011l-0.73,0.739c-0.452-0.263-0.954-0.477-1.47-0.614V1.197
		c0-0.294-0.231-0.531-0.521-0.531C9.01,0.666,6.99,0.666,6.99,0.666z M6.99,1h2.02C9.117,1,9.2,1.08,9.2,1.197v1.032
		c0,0.152,0.102,0.285,0.25,0.322c0.483,0.13,0.959,0.335,1.386,0.583c0.131,0.075,0.301,0.051,0.406-0.062l0.728-0.729
		c0.086-0.087,0.186-0.086,0.26-0.011l1.439,1.438c0.074,0.075,0.074,0.174-0.01,0.261l-0.73,0.729
		c-0.112,0.105-0.138,0.273-0.062,0.407c0.248,0.427,0.454,0.9,0.583,1.385c0.038,0.148,0.171,0.25,0.324,0.25h1.031
		c0.117,0,0.199,0.082,0.199,0.188v2.02c0,0.107-0.082,0.189-0.199,0.189h-1.031c-0.153,0-0.286,0.102-0.324,0.248
		c-0.13,0.485-0.335,0.96-0.583,1.387c-0.076,0.133-0.05,0.301,0.062,0.404l0.73,0.73c0.084,0.088,0.084,0.184,0.01,0.26
		l-1.439,1.439c-0.074,0.076-0.174,0.076-0.26-0.01l-0.728-0.73c-0.105-0.112-0.274-0.138-0.406-0.062
		c-0.428,0.248-0.902,0.454-1.386,0.583C9.301,13.486,9.2,13.619,9.2,13.77v1.031C9.2,14.92,9.117,15,9.01,15H6.99
		c-0.105,0-0.188-0.081-0.188-0.199V13.77c0-0.152-0.102-0.285-0.25-0.322c-0.485-0.13-0.959-0.335-1.386-0.583
		c-0.133-0.076-0.301-0.05-0.406,0.062l-0.728,0.73c-0.046,0.046-0.074,0.061-0.125,0.061c-0.059,0.002-0.107-0.021-0.135-0.051
		l-1.439-1.439c-0.076-0.076-0.076-0.173,0.012-0.26l0.728-0.73c0.114-0.104,0.138-0.271,0.062-0.404
		c-0.248-0.428-0.455-0.902-0.583-1.387C2.516,9.3,2.383,9.198,2.23,9.198H1.199c-0.117,0-0.195-0.082-0.195-0.189v-2.02
		c0-0.105,0.079-0.188,0.195-0.188H2.23c0.153,0,0.286-0.102,0.324-0.25c0.128-0.485,0.335-0.958,0.583-1.385
		c0.076-0.134,0.051-0.301-0.062-0.407L2.347,4.03C2.259,3.944,2.259,3.845,2.335,3.769l1.439-1.438
		c0.074-0.075,0.173-0.076,0.26,0.011l0.728,0.729c0.105,0.112,0.273,0.137,0.406,0.062C5.595,2.886,6.068,2.68,6.553,2.551
		c0.148-0.038,0.25-0.171,0.25-0.322V1.196C6.802,1.081,6.885,1,6.99,1z M8.001,5.448C6.597,5.448,5.45,6.596,5.45,8
		s1.147,2.551,2.551,2.551c1.403,0,2.551-1.147,2.551-2.551S9.405,5.448,8.001,5.448z M8.001,5.781c1.223,0,2.219,0.996,2.219,2.219
		s-0.997,2.22-2.219,2.22c-1.223,0-2.218-0.997-2.218-2.22C5.783,6.777,6.778,5.781,8.001,5.781z"/>
	<path id="path4704" inkscape:connector-curvature="0" opacity="0.5" fill="#669CCC" enable-background="new    " d="M6.99,0.666
		c-0.288,0-0.521,0.238-0.521,0.531V1.53c0-0.294,0.233-0.531,0.521-0.531h2.02c0.29,0,0.521,0.237,0.521,0.531V1.197
		c0-0.294-0.231-0.531-0.521-0.531H6.99z M3.897,1.948C3.764,1.945,3.635,1.992,3.532,2.093L2.094,3.531
		c-0.138,0.14-0.168,0.334-0.115,0.51c0.024-0.062,0.064-0.125,0.115-0.177l1.439-1.438C3.736,2.222,4.065,2.23,4.27,2.438L5,3.178
		c0.452-0.263,0.952-0.478,1.468-0.615V2.229C5.952,2.366,5.452,2.581,5,2.843L4.27,2.104C4.168,2,4.029,1.95,3.897,1.948z
		 M12.106,1.948C11.973,1.95,11.835,2,11.732,2.104l-0.73,0.739c-0.452-0.263-0.954-0.477-1.47-0.614v0.333
		c0.516,0.137,1.018,0.352,1.47,0.615l0.73-0.74c0.207-0.208,0.535-0.215,0.738-0.011l1.439,1.438
		c0.051,0.051,0.09,0.114,0.114,0.177c0.056-0.175,0.024-0.37-0.114-0.51L12.47,2.093C12.367,1.992,12.237,1.945,12.106,1.948z
		 M2.731,5.219C2.524,5.611,2.348,6.032,2.229,6.468H1.198c-0.293,0-0.529,0.233-0.529,0.521v0.333c0-0.288,0.237-0.521,0.529-0.521
		h1.031c0.14-0.516,0.354-1.017,0.614-1.468L2.731,5.219z M13.271,5.219l-0.115,0.114c0.263,0.451,0.476,0.952,0.616,1.468h1.031
		c0.293,0,0.531,0.233,0.531,0.521V6.989c0-0.288-0.238-0.521-0.531-0.521h-1.031C13.655,6.032,13.479,5.611,13.271,5.219z
		 M5.791,8.168C5.79,8.221,5.783,8.278,5.783,8.332c0,1.225,0.995,2.22,2.218,2.22s2.219-0.995,2.219-2.22
		c0-0.054-0.007-0.11-0.012-0.164C10.124,9.313,9.169,10.22,8,10.22C6.833,10.22,5.877,9.314,5.791,8.168z M2.731,11.115
		l-0.625,0.614c-0.153,0.155-0.194,0.367-0.126,0.554c0.026-0.081,0.062-0.157,0.126-0.221l0.738-0.728
		C2.804,11.263,2.768,11.188,2.731,11.115z M13.271,11.115c-0.038,0.072-0.074,0.148-0.115,0.219l0.74,0.728
		c0.064,0.064,0.1,0.14,0.125,0.221c0.071-0.188,0.028-0.4-0.125-0.554L13.271,11.115z"/>
	<path id="path4739" inkscape:connector-curvature="0" opacity="0.2" fill="#FFFFFF" enable-background="new    " d="M1.979,4.052
		C1.912,4.237,1.951,4.451,2.105,4.604L2.73,5.219C2.768,5.147,2.804,5.07,2.844,5L2.105,4.271C2.041,4.207,2.005,4.13,1.979,4.052z
		 M14.021,4.052c-0.024,0.077-0.061,0.155-0.125,0.219L13.157,5c0.041,0.07,0.077,0.147,0.115,0.219l0.625-0.614
		C14.049,4.451,14.092,4.237,14.021,4.052z M8.001,5.781C6.778,5.781,5.783,6.777,5.783,8c0,0.056,0.007,0.112,0.008,0.168
		c0.086-1.147,1.04-2.053,2.21-2.053c1.168,0,2.124,0.906,2.208,2.053C10.214,8.112,10.221,8.056,10.221,8
		C10.22,6.777,9.224,5.781,8.001,5.781z M0.668,9.009v0.333c0,0.29,0.237,0.521,0.529,0.521h1.031
		c0.119,0.436,0.295,0.859,0.502,1.251l0.114-0.115c-0.262-0.45-0.475-0.952-0.614-1.468H1.199C0.906,9.533,0.668,9.299,0.668,9.009
		z M15.335,9.009c0,0.29-0.238,0.523-0.531,0.523h-1.031c-0.14,0.516-0.354,1.018-0.616,1.468l0.115,0.115
		c0.207-0.393,0.383-0.816,0.502-1.251h1.031c0.293,0,0.531-0.231,0.531-0.521L15.335,9.009L15.335,9.009z M1.979,12.291
		c-0.052,0.178-0.023,0.373,0.115,0.511l1.439,1.437c0.102,0.104,0.24,0.148,0.375,0.146c0.133-0.002,0.26-0.051,0.364-0.157
		l0.73-0.74c0.452,0.262,0.952,0.478,1.468,0.614V13.77c-0.516-0.136-1.016-0.352-1.468-0.614l-0.73,0.742
		c-0.104,0.104-0.23,0.153-0.364,0.155c-0.135,0.002-0.273-0.043-0.375-0.145l-1.439-1.439C2.043,12.418,2.003,12.354,1.979,12.291z
		 M14.021,12.291c-0.023,0.062-0.062,0.126-0.114,0.178l-1.439,1.439c-0.204,0.204-0.531,0.197-0.738-0.01l-0.73-0.742
		c-0.452,0.263-0.954,0.478-1.47,0.614v0.333c0.516-0.136,1.018-0.354,1.47-0.614l0.73,0.74c0.207,0.209,0.535,0.214,0.738,0.01
		l1.439-1.437C14.046,12.664,14.077,12.469,14.021,12.291z M6.469,14.801v0.333c0,0.295,0.233,0.533,0.521,0.533h2.02
		c0.29,0,0.521-0.238,0.521-0.533v-0.333c0,0.295-0.231,0.533-0.521,0.533H6.99C6.702,15.334,6.469,15.096,6.469,14.801z"/>
</g>
</svg>
