<?xml version="1.0" encoding="UTF-8" standalone="no"?>
<!-- Generator: Adobe Illustrator 17.0.0, SVG Export Plug-In . SVG Version: 6.00 Build 0)  -->

<svg
   xmlns:dc="http://purl.org/dc/elements/1.1/"
   xmlns:cc="http://creativecommons.org/ns#"
   xmlns:rdf="http://www.w3.org/1999/02/22-rdf-syntax-ns#"
   xmlns:svg="http://www.w3.org/2000/svg"
   xmlns="http://www.w3.org/2000/svg"
   xmlns:xlink="http://www.w3.org/1999/xlink"
   xmlns:sodipodi="http://sodipodi.sourceforge.net/DTD/sodipodi-0.dtd"
   xmlns:inkscape="http://www.inkscape.org/namespaces/inkscape"
   version="1.1"
   id="图层_1"
   inkscape:version="0.48.4 r9939"
   sodipodi:docname="folder-wine.svg"
   x="0px"
   y="0px"
   width="48px"
   height="48px"
   viewBox="0 0 48 48"
   enable-background="new 0 0 48 48"
   xml:space="preserve"><metadata
     id="metadata153"><rdf:RDF><cc:Work
         rdf:about=""><dc:format>image/svg+xml</dc:format><dc:type
           rdf:resource="http://purl.org/dc/dcmitype/StillImage" /><dc:title></dc:title></cc:Work></rdf:RDF></metadata><defs
     id="defs151"><linearGradient
       id="path3347_1_"
       gradientUnits="userSpaceOnUse"
       x1="879.66052"
       y1="-1124.1611"
       x2="879.66052"
       y2="-1107.6879"
       gradientTransform="matrix(1,0,0,-1,-855.6602,-1091.96)"><stop
         offset="0"
         style="stop-color:#a2c8f1;stop-opacity:0.78430003;"
         id="stop155" /><stop
         offset="1"
         style="stop-color:#6eaee6;stop-opacity:0.39219999;"
         id="stop157" /></linearGradient><linearGradient
       id="rect2941_2_"
       gradientUnits="userSpaceOnUse"
       x1="590.66058"
       y1="792.53833"
       x2="590.66058"
       y2="778.87122"
       gradientTransform="translate(-566.6602,-761.96)"><stop
         offset="0"
         style="stop-color:#a5c8ee;stop-opacity:0.78430003;"
         id="stop155-3" /><stop
         offset="1"
         style="stop-color:#6eaee6;stop-opacity:0.39219999;"
         id="stop157-8" /></linearGradient></defs><sodipodi:namedview
     inkscape:current-layer="图层_1"
     inkscape:window-maximized="1"
     inkscape:window-y="0"
     inkscape:window-x="0"
     inkscape:window-height="1114"
     inkscape:window-width="1920"
     inkscape:pageshadow="2"
     inkscape:pageopacity="0"
     inkscape:cy="55.062282"
     inkscape:cx="18.51478"
     inkscape:zoom="5.6568542"
     showgrid="false"
     guidetolerance="10"
     gridtolerance="10"
     objecttolerance="10"
     borderopacity="1"
     pagecolor="#ffffff"
     bordercolor="#666666"
     id="namedview252"
     showguides="true"
     inkscape:guide-bbox="true"><sodipodi:guide
       orientation="-0.70710678,0.70710678"
       position="-135.41095,99.52528"
       id="guide3130" /></sodipodi:namedview><radialGradient
     id="ellipse10_1_"
     cx="315"
     cy="-2047.0854"
     r="23.9962"
     gradientTransform="matrix(1 0 0 -0.1841 -291 -333.2854)"
     gradientUnits="userSpaceOnUse"><stop
       offset="0"
       style="stop-color:#000000;stop-opacity:0.6"
       id="stop5" /><stop
       offset="0.8996"
       style="stop-color:#000000;stop-opacity:0.0603"
       id="stop7" /><stop
       offset="1"
       style="stop-color:#000000;stop-opacity:0"
       id="stop9" /></radialGradient><ellipse
     id="ellipse10"
     display="none"
     fill="url(#ellipse10_1_)"
     cx="24"
     cy="43.583"
     rx="24"
     ry="4.417" /><linearGradient
     id="path12_1_"
     gradientUnits="userSpaceOnUse"
     x1="24"
     y1="45"
     x2="24"
     y2="1"><stop
       offset="0"
       style="stop-color:#c2d3e1;stop-opacity:1;"
       id="stop13" /><stop
       offset="0.4314"
       style="stop-color:#AFD3E2"
       id="stop15" /><stop
       offset="1"
       style="stop-color:#cadff0;stop-opacity:1;"
       id="stop17" /></linearGradient><path
     id="path12"
     fill="url(#path12_1_)"
     d="M46,39.5c0,3.037-2.463,5.5-5.5,5.5h-33C4.462,45,2,42.537,2,39.5v-33  C2,3.462,4.462,1,7.5,1h33C43.537,1,46,3.462,46,6.5V39.5z" /><path
     id="path188"
     fill="#FFFFFF"
     enable-background="new    "
     d="M40.5,2H7.499C5.017,2,3,4.018,3,6.5v33  C3,41.98,5.017,44,7.499,44H40.5c2.48,0,4.5-2.02,4.5-4.5v-33C45,4.018,42.98,2,40.5,2z M44,39.5c0,1.933-1.567,3.5-3.5,3.5h-33  C5.567,43,4,41.433,4,39.5v-33C4,4.567,5.567,3,7.5,3h33C42.433,3,44,4.567,44,6.5V39.5z" /><linearGradient
     id="path98_1_"
     gradientUnits="userSpaceOnUse"
     x1="314.9998"
     y1="-333.0005"
     x2="314.9998"
     y2="-377"
     gradientTransform="matrix(1 0 0 -1 -291 -332)"><stop
       offset="0"
       style="stop-color:#000000;stop-opacity:0.1"
       id="stop22" /><stop
       offset="1"
       style="stop-color:#000000;stop-opacity:0.8"
       id="stop24" /></linearGradient><path
     id="path98"
     opacity="0.5"
     fill="url(#path98_1_)"
     fill-opacity="0.8"
     enable-background="new    "
     d="M40.5,1h-33  C4.462,1,2,3.463,2,6.5v33C2,42.537,4.462,45,7.5,45h33c3.037,0,5.5-2.463,5.5-5.5v-33C46,3.463,43.537,1,40.5,1z M44.94,39.484  c0,2.48-2.019,4.5-4.497,4.5H7.462c-2.481,0-4.497-2.02-4.497-4.5v-33c0-2.482,2.016-4.5,4.497-4.5h32.981  c2.479,0,4.497,2.018,4.497,4.5V39.484z" /><g
     id="g125"
     display="none"
     opacity="0.3"><defs
       id="defs28"><filter
         id="Adobe_OpacityMaskFilter"
         filterUnits="userSpaceOnUse"
         x="4.769"
         y="13.895"
         width="37.382"
         height="27.883"><feColorMatrix
           type="matrix"
           values="1 0 0 0 0  0 1 0 0 0  0 0 1 0 0  0 0 0 1 0"
           id="feColorMatrix31" /></filter></defs><mask
       maskUnits="userSpaceOnUse"
       x="4.769"
       y="13.895"
       width="37.382"
       height="27.883"
       id="SVGID_11_"
       display="inline"><g
         id="g135"
         filter="url(#Adobe_OpacityMaskFilter)"><image
           sodipodi:absref="/usr/share/icons/Deepin/places/48/DEB81AAE695B461C.jpeg"
           xlink:href="DEB81AAE695B461C.jpeg"
           transform="matrix(0.232 0 0 0.2313 2.7686 11.8945)"
           id="image137"
           height="138"
           width="179"
           enable-background="new    "
           overflow="visible" /></g></mask><g
       id="g139"
       display="inline"
       mask="url(#SVGID_11_)"><path
         id="path141"
         fill="#FFF2B3"
         d="M7.228,41.777c-1.356,0-2.459-1.135-2.459-2.528v-25.29l10.667-0.064    c0.102,0.77,0.198,1.883,0.875,2.788c0.542,0.724,1.464,1.31,3.214,1.31l22.626-0.003v21.26c0,1.394-1.104,2.528-2.459,2.528    H7.228z" /></g></g><g
     id="g151"
     opacity="0.5"><path
       id="path153"
       opacity="0.08"
       enable-background="new    "
       d="M40.514,45h-33C4.476,45,2,42.521,2,39.484v4.219   C2,46.076,3.937,48,6.31,48h35.407C44.09,48,46,46.076,46,43.703v-4.219C46,42.521,43.551,45,40.514,45z" /><path
       id="path155"
       opacity="0.1"
       enable-background="new    "
       d="M40.486,45h-33C4.449,45,2,42.566,2,39.529v2.207   C2,44.109,3.046,47,7.283,47s29.112,0,33.405,0S46,44.109,46,41.736v-2.207C46,42.566,43.523,45,40.486,45z" /><path
       id="path157"
       opacity="0.1"
       enable-background="new    "
       d="M40.486,45h-33C4.449,45,2,42.566,2,39.529v1.191   C2,43.094,3.814,46,7.283,46s29.434,0,33.405,0C44.66,46,46,43.094,46,40.721v-1.191C46,42.566,43.523,45,40.486,45z" /><rect
       id="rect159"
       x="7"
       y="45"
       opacity="0.05"
       enable-background="new    "
       width="34"
       height="1" /><rect
       id="rect161"
       x="8"
       y="45"
       opacity="0.05"
       enable-background="new    "
       width="31"
       height="1" /><rect
       id="rect163"
       x="8"
       y="46"
       opacity="0.05"
       enable-background="new    "
       width="31"
       height="1" /><rect
       id="rect165"
       x="10"
       y="46"
       opacity="0.05"
       enable-background="new    "
       width="28"
       height="1" /><rect
       id="rect167"
       x="13"
       y="46"
       opacity="0.05"
       enable-background="new    "
       width="22"
       height="1" /><rect
       id="rect169"
       x="17"
       y="46"
       opacity="0.05"
       enable-background="new    "
       width="14"
       height="1" /><rect
       id="rect171"
       x="10"
       y="45"
       opacity="0.05"
       enable-background="new    "
       width="28"
       height="1" /><rect
       id="rect173"
       x="12"
       y="45"
       opacity="0.05"
       enable-background="new    "
       width="24"
       height="1" /><rect
       id="rect175"
       x="13"
       y="45"
       opacity="0.05"
       enable-background="new    "
       width="22"
       height="1" /><rect
       id="rect177"
       x="15"
       y="45"
       opacity="0.05"
       enable-background="new    "
       width="18"
       height="1" /><rect
       id="rect179"
       x="15"
       y="45"
       opacity="0.05"
       enable-background="new    "
       width="18"
       height="1" /></g><path
     id="path197"
     fill="#8FBCE5"
     d="M40.5,1h-33C4.462,1,2,3.463,2,6.5v33C2,42.537,4.462,45,7.5,45h33c3.037,0,5.5-2.463,5.5-5.5  v-33C46,3.463,43.537,1,40.5,1z M44.94,39.484c0,2.48-2.019,4.5-4.497,4.5H7.462c-2.481,0-4.497-2.02-4.497-4.5v-33  c0-2.482,2.016-4.5,4.497-4.5h32.981c2.479,0,4.497,2.018,4.497,4.5V39.484z"
     style="fill:#9dbcd7;fill-opacity:1" /><g
     id="g203"
     display="none"><polygon
       id="polygon205"
       display="inline"
       opacity="0.6"
       fill="#FFF8D9"
       enable-background="new    "
       points="17,36 17,29    13.062,29 23.992,18.889 28,22.544 28,22 31,22 31,25.304 35.033,29 31,29 31,36  " /><polygon
       id="polygon207"
       display="inline"
       opacity="0.8"
       fill="#8C6E22"
       enable-background="new    "
       points="17.5,35.5 17.5,28.5    14.339,28.5 23.995,19.567 28.5,23.677 28.5,22.5 30.5,22.5 30.5,25.523 33.748,28.5 30.5,28.5 30.5,35.5  " /><linearGradient
       id="polygon214_1_"
       gradientUnits="userSpaceOnUse"
       x1="315.0388"
       y1="-352.2461"
       x2="315.0388"
       y2="-367"
       gradientTransform="matrix(1 0 0 -1 -291 -332)"><stop
         offset="0"
         style="stop-color:#BFAA68"
         id="stop58" /><stop
         offset="1"
         style="stop-color:#CBA03B"
         id="stop60" /></linearGradient><polygon
       id="polygon214"
       display="inline"
       fill="url(#polygon214_1_)"
       points="18,35 18,28 15.616,28 23.997,20.246 29,24.81    29,23 30,23 30,25.743 32.462,28 30,28 30,35  " /></g><path
     id="path216"
     fill="none"
     d="M35.033,29" /><path
     id="path218"
     fill="none"
     d="M24,18.889" /><path
     id="path248"
     fill="none"
     d="M160.033,49" /><path
     id="path250"
     fill="none"
     d="M149,38.889" /><g
     id="g67"><linearGradient
       id="path123_1_"
       gradientUnits="userSpaceOnUse"
       x1="315.0002"
       y1="-340.5918"
       x2="315.0002"
       y2="-376.6097"
       gradientTransform="matrix(1 0 0 -1 -291 -332)"><stop
         offset="0"
         style="stop-color:#e4eefb;stop-opacity:1;"
         id="stop70" /><stop
         offset="1"
         style="stop-color:#d1e0ed;stop-opacity:1;"
         id="stop72" /></linearGradient><path
       id="path123"
       d="m 44,17.984 c -5.805,0 -22.341,0.003 -24,0.003 -2.016,0 -2,-1.987 -2,-1.987 0,0 0,-2 -2,-2 -3.501,0 -10.513,0 -12,0 -1.969,0 -2,1.928 -2,1.989 L 2,39.5 C 2,42.537 4.463,45 7.5,45 l 33,0 C 43.537,45 46,42.537 46,39.5 L 46,20 c 0,0 0,-2.016 -2,-2.016 z"
       inkscape:connector-curvature="0"
       style="fill:url(#path123_1_)"
       sodipodi:nodetypes="sscssssssscs" /><g
       id="g143"><path
         id="polygon145"
         d="M46,14L46,14L46,14z"
         fill="#EEFAFF" /><polygon
         id="polygon149"
         points="2,10.025 2,10 2,10.025   "
         fill="#EEFAFF" /></g><g
       id="g79"><path
         stroke-miterlimit="10"
         d="m 7.5,43.5 c -2.206,0 -4,-1.794 -4,-4 l 0,-24.511 C 3.523,14.5 3.766,14.5 4,14.5 l 12,0 c 0.175,0 0.5,0 0.5,0.5 -0.002,0.239 0.038,1.538 1.013,2.52 0.438,0.441 1.225,0.967 2.487,0.967 l 24,-0.003 c 0.224,0 0.478,0 0.5,0.543 l 0,20.473 c 0,2.206 -1.794,4 -4,4 z"
         id="path81"
         inkscape:connector-curvature="0"
         style="opacity:0.7;fill:none;stroke:#ffffff;stroke-miterlimit:10"
         sodipodi:nodetypes="sscsscccccsss" /><g
         id="g83"><path
           d="m 40.507,45 -33,0 c -3.033,0 -5.5,-2.468 -5.5,-5.5 l 0,-24.51 c 0.016,-0.994 0.641,-1.989 2,-1.989 l 12,0 c 1.579,0 2,1.257 2,2 0,0.036 0.006,0.888 0.578,1.464 0.344,0.347 0.823,0.523 1.422,0.523 l 24,-0.003 c 1.365,0 1.988,1.011 2,2.012 l 0,20.503 c 0,3.032 -2.468,5.5 -5.5,5.5 z M 4.007,14.001 c -0.856,0 -0.994,0.625 -1,0.997 l 0,24.502 c 0,2.481 2.019,4.5 4.5,4.5 l 33,0 c 2.481,0 4.5,-2.019 4.5,-4.5 l 0,-20.497 c -0.004,-0.376 -0.141,-1.018 -1,-1.018 l -24,0.003 c -0.876,0 -1.594,-0.276 -2.132,-0.819 -0.843,-0.85 -0.868,-2.036 -0.868,-2.168 0,-0.3 -0.098,-1 -1,-1 z"
           id="path85"
           inkscape:connector-curvature="0"
           style="fill:#8fbce5"
           sodipodi:nodetypes="ssscsssccccssscssssccccsss" /><path
           d="m 40.507,45 -33,0 c -3.033,0 -5.5,-2.468 -5.5,-5.5 l 0,-24.51 c 0.016,-0.994 0.641,-1.989 2,-1.989 l 12,0 c 1.579,0 2,1.257 2,2 0,0.036 0.006,0.888 0.578,1.464 0.344,0.347 0.823,0.523 1.422,0.523 l 24,-0.003 c 1.365,0 1.988,1.011 2,2.012 l 0,20.503 c 0,3.032 -2.468,5.5 -5.5,5.5 z M 4.007,14.001 c -0.856,0 -0.994,0.625 -1,0.997 l 0,24.502 c 0,2.481 2.019,4.5 4.5,4.5 l 33,0 c 2.481,0 4.5,-2.019 4.5,-4.5 l 0,-20.497 c -0.004,-0.376 -0.141,-1.018 -1,-1.018 l -24,0.003 c -0.876,0 -1.594,-0.276 -2.132,-0.819 -0.843,-0.85 -0.868,-2.036 -0.868,-2.168 0,-0.3 -0.098,-1 -1,-1 z"
           id="path87"
           style="fill:#9dbcd7;fill-opacity:1"
           inkscape:connector-curvature="0"
           sodipodi:nodetypes="ssscsssccccssscssssccccsss" /></g><path
         d="M 44,15.967 20,15.97 c -0.6,0 -1.078,-0.176 -1.422,-0.523 C 18.006,14.871 18,14.019 18,13.982 c 0,-0.743 -0.421,-2 -2,-2 l -12,0 c -1.359,0 -1.984,0.995 -2,1.989 l 0,1.062 C 2.014,14.19 2.47,13.354 3.435,13.116 3.576,13.037 3.756,12.983 4,12.983 l 12,0 c 0.232,0 0.409,0.047 0.546,0.12 1.132,0.254 1.454,1.294 1.454,1.942 0,0.036 0.006,0.888 0.578,1.464 0.135,0.136 0.296,0.238 0.471,0.321 0.294,0.085 0.607,0.14 0.951,0.14 l 24,-0.003 c 0.24,0 0.419,0.053 0.559,0.134 0.974,0.238 1.431,1.09 1.441,1.941 l 0,-1.062 c -0.012,-1.002 -0.635,-2.013 -2,-2.013 z"
         id="path89"
         inkscape:connector-curvature="0"
         style="opacity:0.05"
         sodipodi:nodetypes="cccssscccsscscccccccc" /></g></g><linearGradient
     id="path25_1_"
     gradientUnits="userSpaceOnUse"
     x1="642.9738"
     y1="773.0254"
     x2="642.9738"
     y2="792.192"
     gradientTransform="translate(-527.00676,-757.96)"><stop
       offset="0"
       style="stop-color:#FFFFFF;stop-opacity:0.2"
       id="stop92" /><stop
       offset="0.08"
       style="stop-color:#FFFFFF;stop-opacity:0.9"
       id="stop94" /><stop
       offset="0.25"
       style="stop-color:#FFFFFF;stop-opacity:0.6"
       id="stop96" /><stop
       offset="1"
       style="stop-color:#FFFFFF;stop-opacity:0"
       id="stop98" /></linearGradient><g
     id="g27"
     opacity="0.8"><linearGradient
       id="path36_1_"
       gradientUnits="userSpaceOnUse"
       x1="295.3478"
       y1="-333.4479"
       x2="301.3581"
       y2="-343.8579"
       gradientTransform="matrix(1 0 0 -1 -291 -332)"><stop
         offset="0"
         style="stop-color:#FFFFFF"
         id="stop103" /><stop
         offset="0.5"
         style="stop-color:#FFFFFF;stop-opacity:0.6"
         id="stop105" /><stop
         offset="1"
         style="stop-color:#FFFFFF;stop-opacity:0.15"
         id="stop107" /></linearGradient><path
       id="path36"
       fill="url(#path36_1_)"
       d="M9.303,13.627c0.672-1.391,1.492-2.694,2.433-3.899l-1.712-3.754   c-1.462,1.382-2.649,2.905-3.596,4.384L9.303,13.627z" /><linearGradient
       id="path45_1_"
       gradientUnits="userSpaceOnUse"
       x1="300.7964"
       y1="-331.8896"
       x2="304.7298"
       y2="-338.7026"
       gradientTransform="matrix(1 0 0 -1 -291 -332)"><stop
         offset="0"
         style="stop-color:#FFFFFF"
         id="stop111" /><stop
         offset="0.5"
         style="stop-color:#FFFFFF;stop-opacity:0.6"
         id="stop113" /><stop
         offset="1"
         style="stop-color:#FFFFFF;stop-opacity:0.15"
         id="stop115" /></linearGradient><path
       id="path45"
       fill="url(#path45_1_)"
       d="M9.481,2.366l0.895,1.961c0.861-0.715,1.805-0.961,2.834-1.961H9.481z" /><linearGradient
       id="path54_1_"
       gradientUnits="userSpaceOnUse"
       x1="302.0345"
       y1="-330.5953"
       x2="306.8404"
       y2="-338.9194"
       gradientTransform="matrix(1 0 0 -1 -291 -332)"><stop
         offset="0"
         style="stop-color:#FFFFFF"
         id="stop119" /><stop
         offset="0.5"
         style="stop-color:#FFFFFF;stop-opacity:0.6"
         id="stop121" /><stop
         offset="1"
         style="stop-color:#FFFFFF;stop-opacity:0.15"
         id="stop123" /></linearGradient><path
       id="path54"
       fill="url(#path54_1_)"
       d="M16.196,2.366h-0.708c-1.785,1-3.346,1.763-4.685,2.903l1.641,3.6   c1.402-1.619,3.028-3.038,4.849-4.184c0.014-0.013,0.024-0.024,0.039-0.037C19.373,2.886,17.346,2.366,16.196,2.366z" /><linearGradient
       id="path63_1_"
       gradientUnits="userSpaceOnUse"
       x1="291.974"
       y1="-338.1939"
       x2="297.1894"
       y2="-347.2272"
       gradientTransform="matrix(1 0 0 -1 -291 -332)"><stop
         offset="0"
         style="stop-color:#FFFFFF"
         id="stop127" /><stop
         offset="0.5"
         style="stop-color:#FFFFFF;stop-opacity:0.6"
         id="stop129" /><stop
         offset="1"
         style="stop-color:#FFFFFF;stop-opacity:0.15"
         id="stop131" /></linearGradient><path
       id="path63"
       fill="url(#path63_1_)"
       d="M5.882,11.251c-1.098,1.869-1.815,3.596-2.241,4.777   c0.504,0.719,1.337,1.191,2.282,1.191c1.17,0,2.169-0.723,2.583-1.744c0.106-0.285,0.235-0.559,0.353-0.84L5.882,11.251z" /><linearGradient
       id="path72_1_"
       gradientUnits="userSpaceOnUse"
       x1="291.739"
       y1="-338.5643"
       x2="297.519"
       y2="-348.5756"
       gradientTransform="matrix(1 0 0 -1 -291 -332)"><stop
         offset="0"
         style="stop-color:#FFFFFF"
         id="stop135" /><stop
         offset="0.5"
         style="stop-color:#FFFFFF;stop-opacity:0.6"
         id="stop137" /><stop
         offset="1"
         style="stop-color:#FFFFFF;stop-opacity:0.15"
         id="stop139" /></linearGradient><path
       id="path72"
       fill="url(#path72_1_)"
       d="M3.157,8.15l-0.022,6.276c0,0,0,0.002,0,0.004c0,0.039,0.01,0.076,0.012,0.115   c0.477-1.161,1.143-2.58,2.047-4.079L3.157,8.15z" /><linearGradient
       id="path81_1_"
       gradientUnits="userSpaceOnUse"
       x1="296.2229"
       y1="-335.6222"
       x2="301.4355"
       y2="-344.6505"
       gradientTransform="matrix(1 0 0 -1 -291 -332)"><stop
         offset="0"
         style="stop-color:#FFFFFF"
         id="stop143" /><stop
         offset="0.5"
         style="stop-color:#FFFFFF;stop-opacity:0.6"
         id="stop145" /><stop
         offset="1"
         style="stop-color:#FFFFFF;stop-opacity:0.15"
         id="stop147" /></linearGradient><path
       id="path149"
       fill="url(#path81_1_)"
       d="M8.289,2.378c-1.479,0.08-4.724,2.128-5.069,4.33l2.53,2.877   c1.01-1.541,2.266-3.12,3.815-4.546L8.289,2.378z" /></g></svg>