<?xml version="1.0" encoding="utf-8"?>
<!-- Generator: Adobe Illustrator 17.0.0, SVG Export Plug-In . SVG Version: 6.00 Build 0)  -->
<!DOCTYPE svg PUBLIC "-//W3C//DTD SVG 1.1//EN" "http://www.w3.org/Graphics/SVG/1.1/DTD/svg11.dtd">
<svg version="1.1" id="图层_1" xmlns="http://www.w3.org/2000/svg" xmlns:xlink="http://www.w3.org/1999/xlink" x="0px" y="0px"
	 width="16px" height="16px" viewBox="3 3 16 16" enable-background="new 3 3 16 16" xml:space="preserve">
<path fill="#C4DCED" stroke="#9DBCD7" stroke-miterlimit="10" d="M18.483,16.525c0,1.091-0.884,1.975-1.975,1.975H5.458
	c-1.091,0-1.975-0.884-1.975-1.975V5.475c0-1.091,0.884-1.975,1.975-1.975h11.051c1.091,0,1.975,0.884,1.975,1.975L18.483,16.525
	L18.483,16.525z"/>
<path opacity="0.6" fill="none" stroke="#FFFFFF" stroke-miterlimit="10" d="M5.458,17.5c-0.538,0-0.975-0.438-0.975-0.975V5.475
	C4.482,4.938,4.92,4.5,5.458,4.5h11.05c0.538,0,0.976,0.438,0.976,0.975l-0.001,11.05c0,0.537-0.438,0.975-0.975,0.975H5.458z"/>
<linearGradient id="SVGID_1_" gradientUnits="userSpaceOnUse" x1="1380.9825" y1="-1685.5" x2="1380.9825" y2="-1673.1315" gradientTransform="matrix(1 0 0 -1 -1370 -1667)">
	<stop  offset="0" style="stop-color:#D1E0ED"/>
	<stop  offset="1" style="stop-color:#E4EEFB"/>
</linearGradient>
<path fill="url(#SVGID_1_)" stroke="#9DBCD7" stroke-miterlimit="10" d="M5.453,18.5h11.092c1.091,0,1.938-0.906,1.938-1.997V7.648
	c0-0.155-0.232-0.302-0.541-0.302c-1.911,0-8.001,0.001-8.548,0.001c-0.664,0-0.654-0.605-0.654-0.605s0.005-0.61-0.654-0.61
	c-1.152,0-3.46,0-3.949,0c-0.648,0-0.654,0.537-0.654,0.557v9.814C3.483,17.594,4.363,18.5,5.453,18.5z"/>
<path fill="none" stroke="#FFFFFF" stroke-miterlimit="10" d="M5.453,17.5c-0.535,0-0.97-0.447-0.97-0.998V7.131h3.304
	c0.054,0.218,0.17,0.496,0.412,0.742C8.41,8.089,8.79,8.346,9.393,8.346l8.089,0v8.157c0,0.56-0.412,0.997-0.938,0.997H5.453z"/>
</svg>
