<?xml version="1.0" encoding="utf-8"?>
<!-- Generator: Adobe Illustrator 17.0.0, SVG Export Plug-In . SVG Version: 6.00 Build 0)  -->
<!DOCTYPE svg PUBLIC "-//W3C//DTD SVG 1.1//EN" "http://www.w3.org/Graphics/SVG/1.1/DTD/svg11.dtd">
<svg version="1.1" id="图层_1" xmlns="http://www.w3.org/2000/svg" xmlns:xlink="http://www.w3.org/1999/xlink" x="0px" y="0px"
	 width="16px" height="16px" viewBox="0 0 16 16" enable-background="new 0 0 16 16" xml:space="preserve">
<g>
	<path id="path3292" fill="#3C3C3C" d="M8.383,10.24l0.884-1.585l0.004,0.58l1.86-0.004c0.332-0.035,0.624-0.17,0.835-0.424
		c-0.673,1.377-0.867,2.352-2.265,2.352h-0.43l-0.004,0.644L8.383,10.24z"/>
	<path id="path3290" fill="#3C3C3C" d="M10.407,8.989L9.586,7.477l1.658-1.004l0.802,1.608c0.024,0.385-0.597,0.92-0.983,0.916
		L10.407,8.989z"/>
	<path id="path3288" fill="#3C3C3C" d="M5.364,5.639L6.211,4.37c0.822-0.306,1.298,0.355,1.598,0.771L7.011,6.673L5.364,5.639z"/>
	<path id="path3286" fill="#3C3C3C" d="M8.711,6.271C8.54,5.87,8.313,5.41,8.028,5.011c-0.255-0.358-0.563-0.67-0.796-0.809
		l2.143-0.004c0.385,0.035,0.572,0.259,0.776,0.566l0.308,0.542l0.476-0.304l-0.896,1.596L8.106,6.602L8.711,6.271z"/>
	<path id="path3284" fill="#3C3C3C" d="M5.746,6.864l1.025,1.498L6.25,8.107L5.424,9.773c-0.117,0.313-0.126,0.634,0.008,0.936
		C4.499,9.493,3.713,8.884,4.336,7.634l0.192-0.385L3.953,6.958L5.746,6.864z"/>
	<path id="path4068" fill="#3C3C3C" d="M5.981,9.233l1.89-0.06L7.86,11.105l-1.797,0.001c-0.355-0.15-0.557-0.945-0.382-1.288
		L5.981,9.233z"/>
</g>
<g>
	<path fill="#3C3C3C" d="M15,16H1V0h14V16z M2,15h12V1H2V15z"/>
</g>
</svg>
