<?xml version="1.0" encoding="utf-8"?>
<!-- Generator: Adobe Illustrator 17.0.0, SVG Export Plug-In . SVG Version: 6.00 Build 0)  -->
<!DOCTYPE svg PUBLIC "-//W3C//DTD SVG 1.1//EN" "http://www.w3.org/Graphics/SVG/1.1/DTD/svg11.dtd">
<svg version="1.1" id="图层_1" xmlns="http://www.w3.org/2000/svg" xmlns:xlink="http://www.w3.org/1999/xlink" x="0px" y="0px"
	 width="128px" height="128px" viewBox="0 0 128 128" enable-background="new 0 0 128 128" xml:space="preserve">
<g id="g151" opacity="0.5">
	<path id="path153" opacity="0.08" enable-background="new    " d="M106.873,118.496H20.952c-7.91,0-14.357-6.201-14.357-13.797
		v10.553c0,5.936,5.043,10.748,11.222,10.748h92.188c6.178,0,11.151-4.812,11.151-10.748v-10.553
		C121.156,112.296,114.78,118.496,106.873,118.496z"/>
	<path id="path155" opacity="0.1" enable-background="new    " d="M106.8,118.496H20.879c-7.907,0-14.284-6.088-14.284-13.684v5.52
		c0,5.936,2.723,13.167,13.755,13.167s75.798,0,86.975,0s13.831-7.231,13.831-13.167v-5.52
		C121.156,112.408,114.707,118.496,106.8,118.496z"/>
	<path id="path157" opacity="0.1" enable-background="new    " d="M106.8,118.496H20.879c-7.907,0-14.284-6.088-14.284-13.684v2.979
		c0,5.938,4.723,13.207,13.755,13.207s76.636,0,86.975,0c10.342,0,13.831-7.269,13.831-13.204v-2.979
		C121.156,112.408,114.707,118.496,106.8,118.496z"/>
	<rect id="rect159" x="19.613" y="118.496" opacity="0.05" enable-background="new    " width="88.525" height="2.501"/>
	<rect id="rect161" x="22.217" y="118.496" opacity="0.05" enable-background="new    " width="80.714" height="2.501"/>
	<rect id="rect163" x="22.217" y="120.997" opacity="0.05" enable-background="new    " width="80.714" height="2.501"/>
	<rect id="rect165" x="27.424" y="120.997" opacity="0.05" enable-background="new    " width="72.903" height="2.501"/>
	<rect id="rect167" x="35.235" y="120.997" opacity="0.05" enable-background="new    " width="57.281" height="2.501"/>
	<rect id="rect169" x="45.65" y="120.997" opacity="0.05" enable-background="new    " width="36.451" height="2.501"/>
	<rect id="rect171" x="27.424" y="118.496" opacity="0.05" enable-background="new    " width="72.903" height="2.501"/>
	<rect id="rect173" x="32.632" y="118.496" opacity="0.05" enable-background="new    " width="62.488" height="2.501"/>
	<rect id="rect175" x="35.235" y="118.496" opacity="0.05" enable-background="new    " width="57.281" height="2.501"/>
	<rect id="rect177" x="40.443" y="118.496" opacity="0.05" enable-background="new    " width="46.866" height="2.501"/>
	<rect id="rect179" x="40.443" y="118.496" opacity="0.05" enable-background="new    " width="46.866" height="2.501"/>
</g>
<path fill="#C4DCED" stroke="#9DBCD7" stroke-width="2" stroke-miterlimit="10" d="M121,102.992c0,8.288-6.719,15.008-15.008,15.008
	H22.008C13.719,118,7,111.281,7,102.992V19.008C7,10.719,13.719,4,22.008,4h83.985C114.281,4,121,10.719,121,19.008V102.992z"/>
<path opacity="0.5" fill="none" stroke="#FFFFFF" stroke-width="2" stroke-miterlimit="10" enable-background="new    " d="
	M119,102.992c0,7.184-5.824,13.008-13.008,13.008H22.008C14.824,116,9,110.176,9,102.992V19.008C9,11.824,14.824,6,22.008,6h83.984
	C113.176,6,119,11.824,119,19.008V102.992z"/>
<path opacity="0.08" fill="none" stroke="#000000" stroke-miterlimit="10" enable-background="new    " d="M121.426,37.445
	c0,0,0-5.043-4.981-5.043c-14.457,0-60.62,0.008-64.752,0.008c-5.021,0-4.981-4.97-4.981-4.97s0-5.003-4.981-5.003
	c-8.719,0-26.182,0-29.886,0c-4.904,0-4.981,4.822-4.981,4.975"/>
<path opacity="0.05" fill="none" stroke="#000000" stroke-miterlimit="10" enable-background="new    " d="M121.405,36.445
	c0,0,0-5.043-4.981-5.043c-14.457,0-60.62,0.008-64.752,0.008c-5.021,0-4.981-4.97-4.981-4.97s0-5.003-4.981-5.003
	c-8.719,0-26.182,0-29.886,0c-4.904,0-4.981,4.822-4.981,4.975"/>
<path opacity="0.03" fill="none" stroke="#000000" stroke-miterlimit="10" enable-background="new    " d="M121.405,35.487
	c0,0,0-5.043-4.981-5.043c-14.457,0-60.62,0.008-64.752,0.008c-5.021,0-4.981-4.97-4.981-4.97s0-5.003-4.981-5.003
	c-8.719,0-26.182,0-29.886,0c-4.904,0-4.981,4.822-4.981,4.975"/>
<linearGradient id="SVGID_1_" gradientUnits="userSpaceOnUse" x1="338" y1="-353" x2="338" y2="-259" gradientTransform="matrix(1 0 0 -1 -274 -235)">
	<stop  offset="0" style="stop-color:#D1E0ED"/>
	<stop  offset="1" style="stop-color:#E4EEFB"/>
</linearGradient>
<path fill="url(#SVGID_1_)" stroke="#9DBCD7" stroke-width="2" stroke-miterlimit="10" d="M21.975,118h84.298
	c8.288,0,14.727-6.891,14.727-15.18V35.522c0-1.181-1.766-2.295-4.117-2.295c-14.52,0-60.813,0.008-64.963,0.008
	c-5.043,0-4.967-4.601-4.967-4.601S46.988,24,41.985,24c-8.757,0-26.296,0-30.015,0C7.045,24,7,28.084,7,28.237v74.584
	C7,111.109,13.687,118,21.975,118z"/>
<path fill="none" stroke="#FFFFFF" stroke-width="2" stroke-miterlimit="10" d="M21.975,116C14.821,116,9,110.088,9,102.82V28.237
	c0-0.095,0.015-0.894,0.608-1.488C10.104,26.252,10.898,26,11.97,26h30.015c1.184,0,1.786,0.141,2.146,0.503
	c0.796,0.801,0.832,2.023,0.832,2.036c-0.004,0.261,0.011,2.87,1.945,4.833c1.232,1.25,2.921,1.884,5.02,1.884
	c0,0,55.49-0.021,64.952-0.021c1.25,0,1.942,0.428,2.12,0.636v66.951c0,7.268-5.709,13.18-12.727,13.18H21.975V116z"/>
<radialGradient id="SVGID_2_" cx="420.8792" cy="301.577" r="91.4084" gradientTransform="matrix(0.0197 0.9998 0.9109 -0.018 -223.0688 -370.3121)" gradientUnits="userSpaceOnUse">
	<stop  offset="0" style="stop-color:#FFFFFF;stop-opacity:0.6"/>
	<stop  offset="0.3783" style="stop-color:#FAFCFE;stop-opacity:0.4487"/>
	<stop  offset="0.829" style="stop-color:#EBF3FC;stop-opacity:0.2684"/>
	<stop  offset="1" style="stop-color:#E4EEFB;stop-opacity:0.2"/>
</radialGradient>
<path fill="url(#SVGID_2_)" d="M21.975,116C14.821,116,9,110.088,9,102.82V28.237c0-0.095,0.015-0.894,0.608-1.488
	C10.104,26.252,10.898,26,11.97,26h30.015c1.184,0,1.786,0.141,2.146,0.503c0.796,0.801,0.832,2.023,0.832,2.036
	c-0.004,0.261,0.011,2.87,1.945,4.833c1.232,1.25,2.921,1.884,5.02,1.884c0,0,55.49-0.021,64.952-0.021
	c1.25,0,1.942,0.428,2.12,0.636v66.951c0,7.268-5.709,13.18-12.727,13.18H21.975V116z"/>
<g id="g27_1_">
	
		<linearGradient id="path36_2_" gradientUnits="userSpaceOnUse" x1="696.7643" y1="-1055.7594" x2="712.6021" y2="-1083.191" gradientTransform="matrix(1 0 0 -1 -686 -1053)">
		<stop  offset="0" style="stop-color:#FFFFFF"/>
		<stop  offset="0.5" style="stop-color:#FFFFFF;stop-opacity:0.6"/>
		<stop  offset="1" style="stop-color:#FFFFFF;stop-opacity:0.15"/>
	</linearGradient>
	<path id="path36_1_" fill="url(#path36_2_)" d="M23.823,34.852c1.771-3.665,3.932-7.099,6.411-10.274l-4.511-9.892
		c-3.853,3.642-6.98,7.655-9.476,11.552L23.823,34.852z"/>
	
		<linearGradient id="path45_2_" gradientUnits="userSpaceOnUse" x1="711.1246" y1="-1051.6516" x2="721.4895" y2="-1069.6047" gradientTransform="matrix(1 0 0 -1 -686 -1053)">
		<stop  offset="0" style="stop-color:#FFFFFF"/>
		<stop  offset="0.5" style="stop-color:#FFFFFF;stop-opacity:0.6"/>
		<stop  offset="1" style="stop-color:#FFFFFF;stop-opacity:0.15"/>
	</linearGradient>
	<path id="path45_1_" fill="url(#path45_2_)" d="M24.292,5.178l2.358,5.167c2.269-1.884,4.756-2.532,7.468-5.167L24.292,5.178z"/>
	
		<linearGradient id="path54_2_" gradientUnits="userSpaceOnUse" x1="714.3847" y1="-1048.2424" x2="727.0488" y2="-1070.1774" gradientTransform="matrix(1 0 0 -1 -686 -1053)">
		<stop  offset="0" style="stop-color:#FFFFFF"/>
		<stop  offset="0.5" style="stop-color:#FFFFFF;stop-opacity:0.6"/>
		<stop  offset="1" style="stop-color:#FFFFFF;stop-opacity:0.15"/>
	</linearGradient>
	<path id="path54_1_" fill="url(#path54_2_)" d="M41.987,5.178h-1.866c-4.704,2.635-8.817,4.646-12.346,7.65l4.324,9.486
		c3.694-4.266,7.979-8.005,12.778-11.025c0.037-0.034,0.063-0.063,0.103-0.097C50.358,6.549,45.017,5.178,41.987,5.178z"/>
	
		<linearGradient id="path63_2_" gradientUnits="userSpaceOnUse" x1="687.8759" y1="-1068.2646" x2="701.6191" y2="-1092.0684" gradientTransform="matrix(1 0 0 -1 -686 -1053)">
		<stop  offset="0" style="stop-color:#FFFFFF"/>
		<stop  offset="0.5" style="stop-color:#FFFFFF;stop-opacity:0.6"/>
		<stop  offset="1" style="stop-color:#FFFFFF;stop-opacity:0.15"/>
	</linearGradient>
	<path id="path63_1_" fill="url(#path63_2_)" d="M14.808,28.591c-2.893,4.925-4.783,9.476-5.905,12.588
		c1.328,1.895,3.523,3.138,6.013,3.138c3.083,0,5.716-1.905,6.807-4.596c0.279-0.751,0.619-1.473,0.93-2.213L14.808,28.591z"/>
	
		<linearGradient id="path72_2_" gradientUnits="userSpaceOnUse" x1="687.2581" y1="-1069.2399" x2="702.4891" y2="-1095.6207" gradientTransform="matrix(1 0 0 -1 -686 -1053)">
		<stop  offset="0" style="stop-color:#FFFFFF"/>
		<stop  offset="0.5" style="stop-color:#FFFFFF;stop-opacity:0.6"/>
		<stop  offset="1" style="stop-color:#FFFFFF;stop-opacity:0.15"/>
	</linearGradient>
	<path id="path72_1_" fill="url(#path72_2_)" d="M7.627,20.42L7.569,36.958c0,0,0,0.005,0,0.011c0,0.103,0.026,0.2,0.032,0.303
		c1.257-3.059,3.012-6.799,5.394-10.749L7.627,20.42z"/>
	
		<linearGradient id="path149_2_" gradientUnits="userSpaceOnUse" x1="698.7764" y1="-1060.978" x2="713.0781" y2="-1085.7493" gradientTransform="matrix(1 0 0 -1 -686 -1053)">
		<stop  offset="0" style="stop-color:#FFFFFF"/>
		<stop  offset="0.5" style="stop-color:#FFFFFF;stop-opacity:0.6"/>
		<stop  offset="1" style="stop-color:#FFFFFF;stop-opacity:0.15"/>
	</linearGradient>
	<path id="path149_1_" fill="url(#path149_2_)" d="M21.151,5.21C15.778,4.763,8.702,10.817,7.793,16.62l6.667,7.581
		c2.661-4.061,5.971-8.222,10.053-11.979L21.151,5.21z"/>
</g>
<g>
	<g opacity="0.3" enable-background="new    ">
		<g>
			<rect x="26.649" y="45.909" fill="#FFFFFF" width="74.703" height="46.009"/>
		</g>
		<g>
			<rect x="26.649" y="43.909" fill="#669CCC" width="74.703" height="46.009"/>
		</g>
	</g>
	<path opacity="0.3" fill="#669CCC" enable-background="new    " d="M26.649,43.909v46.009h74.703V43.909H26.649z M100.857,89.423
		H27.143V44.403h73.713V89.423z"/>
	<path opacity="0.3" fill="#669CCC" enable-background="new    " d="M26.649,43.909v46.009h74.703V43.909H26.649z M100.362,88.928
		H27.638v-44.03h72.724V88.928z"/>
	<rect x="86.015" y="43.909" opacity="0.3" fill="#669CCC" enable-background="new    " width="15.336" height="46.009"/>
	<path opacity="0.3" fill="#669CCC" enable-background="new    " d="M86.015,43.909v46.009h15.336V43.909H86.015z M100.362,88.928
		H87.004v-44.03h13.357V88.928z"/>
	<polygon opacity="0.3" fill="#669CCC" enable-background="new    " points="80.849,86.372 47.151,86.372 46.162,89.917 
		81.838,89.917 	"/>
	<rect x="86.015" y="43.909" opacity="0.3" fill="#669CCC" enable-background="new    " width="0.495" height="46.009"/>
	<rect x="86.262" y="48.485" opacity="0.3" fill="#669CCC" enable-background="new    " width="15.089" height="0.495"/>
	<path opacity="0.3" fill="#669CCC" enable-background="new    " d="M89.9,45.31h-1.782c-0.231,0-0.42,0.188-0.42,0.419v1.782
		c0,0.231,0.188,0.419,0.42,0.419H89.9c0.232,0,0.42-0.188,0.42-0.419v-1.782C90.32,45.498,90.132,45.31,89.9,45.31z M90.162,47.512
		c0,0.145-0.117,0.262-0.262,0.262h-1.288c0.224-0.116,0.687-0.386,0.95-0.755c0,0,0.375-0.534-0.223-1.055
		c0,0,0.154,0.242,0.159,0.485c0,0,0.038,0.322-0.245,0.52c-0.283,0.198-0.53,0.177-0.856,0.171
		c-0.261-0.005-0.468-0.084-0.541-0.115v-1.295c0-0.104,0.062-0.194,0.15-0.236c0.022,0.525,0.242,0.976,0.382,1.127
		c0.143,0.154,0.353,0.317,0.623,0.249c0.269-0.068,0.323-0.363,0.323-0.363c0.059-0.252-0.026-0.55-0.031-0.556
		c-0.004-0.006-0.045-0.013-0.045-0.013c0.043,0.396-0.06,0.571-0.06,0.571c-0.15,0.31-0.372,0.215-0.372,0.215
		c-0.247-0.126-0.236-0.481-0.236-0.481c-0.012-0.37,0.177-0.713,0.212-0.774h0.624c-0.128,0.087-0.383,0.34-0.383,0.34
		c-0.363,0.338-0.291,0.622-0.291,0.622c0.059,0.298,0.238,0.097,0.238,0.097c0.189-0.197,0.174-0.588,0.174-0.588
		c-0.077,0.013-0.125,0.055-0.125,0.055c-0.009,0.261-0.162,0.423-0.162,0.423c-0.06,0.066-0.102,0.003-0.102,0.003
		c-0.031-0.047,0.031-0.08,0.031-0.08c0.087-0.077,0.114-0.208,0.112-0.258c-0.001-0.049,0.025-0.063,0.025-0.063
		c0.124-0.096,0.247-0.153,0.247-0.153c0.166-0.085,0.462-0.1,0.462-0.1c0.187,0.006,0.354-0.024,0.354-0.024l0.156-0.028
		c0,0.005,0.001,0.009,0.001,0.014L90.162,47.512L90.162,47.512L90.162,47.512z"/>
	<g opacity="0.3">
		<path opacity="0.5" fill="#669CCC" enable-background="new    " d="M89.994,45.682c-0.001,0-0.135,0.024-0.292,0.024
			c-0.016,0-0.033,0-0.049-0.001c-0.018,0.001-0.317,0.016-0.492,0.106c-0.001,0.001-0.03,0.014-0.072,0.037
			c0.034-0.033,0.258-0.253,0.371-0.33l0.167-0.114h-0.862l-0.018,0.031c-0.039,0.067-0.233,0.422-0.22,0.807
			c-0.001,0.012-0.009,0.393,0.27,0.534c0.008,0.004,0.049,0.021,0.109,0.021c0.082,0,0.237-0.034,0.348-0.264
			c0.001-0.001,0.009-0.015,0.019-0.041c-0.005,0.025-0.058,0.26-0.278,0.315c-0.037,0.009-0.073,0.014-0.11,0.014
			c-0.151,0-0.299-0.08-0.452-0.245c-0.135-0.145-0.344-0.591-0.365-1.087l-0.004-0.094l-0.085,0.041
			c-0.113,0.054-0.186,0.168-0.186,0.292v1.336l0.038,0.016c0.08,0.035,0.295,0.116,0.565,0.121l0.07,0.002
			c0.053,0.001,0.103,0.002,0.152,0.002c0.25,0,0.45-0.031,0.671-0.186c0.31-0.217,0.273-0.564,0.271-0.578
			c-0.001-0.04-0.005-0.08-0.013-0.118c0.172,0.354-0.026,0.644-0.036,0.66c-0.251,0.352-0.689,0.612-0.928,0.735l-0.228,0.118H89.9
			c0.179,0,0.325-0.146,0.325-0.325v-1.782c0-0.006-0.001-0.011-0.002-0.017l-0.009-0.064l-0.064,0.005L89.994,45.682z
			 M90.162,45.729v1.782c0,0.145-0.117,0.262-0.262,0.262h-1.288c0.224-0.116,0.687-0.386,0.95-0.755c0,0,0.375-0.534-0.223-1.055
			c0,0,0.154,0.242,0.159,0.485c0,0,0.038,0.322-0.245,0.52c-0.283,0.198-0.53,0.177-0.856,0.171
			c-0.261-0.005-0.468-0.084-0.541-0.115v-1.295c0-0.104,0.062-0.194,0.15-0.236c0.022,0.525,0.242,0.976,0.382,1.127
			c0.143,0.154,0.353,0.317,0.623,0.249c0.269-0.068,0.323-0.363,0.323-0.363c0.059-0.252-0.026-0.55-0.031-0.556
			c-0.004-0.006-0.045-0.013-0.045-0.013c0.043,0.396-0.06,0.571-0.06,0.571c-0.15,0.31-0.372,0.215-0.372,0.215
			c-0.247-0.126-0.236-0.481-0.236-0.481c-0.012-0.37,0.177-0.713,0.212-0.774h0.624c-0.128,0.087-0.383,0.34-0.383,0.34
			c-0.363,0.338-0.291,0.622-0.291,0.622c0.059,0.298,0.238,0.097,0.238,0.097c0.189-0.197,0.174-0.588,0.174-0.588
			c-0.077,0.013-0.125,0.055-0.125,0.055c-0.009,0.261-0.162,0.423-0.162,0.423c-0.06,0.066-0.102,0.003-0.102,0.003
			c-0.031-0.047,0.031-0.08,0.031-0.08c0.087-0.077,0.114-0.208,0.112-0.258c-0.001-0.049,0.025-0.063,0.025-0.063
			c0.124-0.096,0.247-0.153,0.247-0.153c0.166-0.085,0.462-0.1,0.462-0.1c0.187,0.006,0.354-0.024,0.354-0.024l0.156-0.028
			C90.161,45.72,90.162,45.725,90.162,45.729z M88.842,46.508c0.023-0.004,0.052-0.017,0.08-0.049
			c0.006-0.006,0.156-0.168,0.176-0.431l0,0c-0.007,0.119-0.037,0.333-0.155,0.455c-0.019,0.021-0.054,0.047-0.076,0.047
			C88.86,46.531,88.851,46.523,88.842,46.508z"/>
		<path opacity="0.5" fill="#669CCC" enable-background="new    " d="M89.9,45.31h-1.782c-0.231,0-0.42,0.188-0.42,0.419v1.782
			c0,0.231,0.188,0.419,0.42,0.419H89.9c0.232,0,0.42-0.188,0.42-0.419v-1.782C90.32,45.498,90.132,45.31,89.9,45.31z
			 M90.257,47.512c0,0.197-0.16,0.357-0.357,0.357h-1.782c-0.197,0-0.357-0.16-0.357-0.357v-1.782c0-0.197,0.16-0.357,0.357-0.357
			H89.9c0.197,0,0.357,0.16,0.357,0.357V47.512z"/>
	</g>
	<g opacity="0.3">
		<path opacity="0.5" fill="#669CCC" enable-background="new    " d="M88.746,46.397c0.007-0.11,0.058-0.309,0.296-0.531
			c0,0,0.254-0.253,0.383-0.34h-0.077c-0.133,0.109-0.306,0.282-0.306,0.282C88.752,46.078,88.74,46.313,88.746,46.397z"/>
		<path opacity="0.5" fill="#669CCC" enable-background="new    " d="M89.339,45.964c0,0,0.029,0.045,0.062,0.116
			c0.204,0.201,0.27,0.402,0.277,0.569C89.685,46.456,89.619,46.208,89.339,45.964z"/>
		<path opacity="0.5" fill="#669CCC" enable-background="new    " d="M89.302,45.95c-0.004-0.006-0.045-0.013-0.045-0.013
			c0.002,0.02,0.004,0.04,0.005,0.059c0.011,0.002,0.036,0.007,0.04,0.012c0.003,0.005,0.046,0.153,0.051,0.329
			C89.358,46.138,89.306,45.955,89.302,45.95z"/>
		<path opacity="0.5" fill="#669CCC" enable-background="new    " d="M88.589,46.231c0,0.004,0,0.008,0,0.012v-0.001
			C88.588,46.238,88.589,46.234,88.589,46.231z"/>
		<path opacity="0.5" fill="#669CCC" enable-background="new    " d="M88.876,46.417c-0.052,0.057-0.09,0.018-0.1,0.006
			c-0.011,0.014-0.017,0.033-0.002,0.056c0,0,0.042,0.063,0.102-0.003c0,0,0.153-0.162,0.162-0.423c0,0,0.048-0.042,0.124-0.055
			c0.001-0.036,0.001-0.059,0.001-0.059c-0.001,0-0.001,0-0.002,0c-0.028,0.014-0.072,0.038-0.125,0.072
			C89.022,46.262,88.876,46.417,88.876,46.417z"/>
		<path opacity="0.5" fill="#669CCC" enable-background="new    " d="M89.9,45.31h-1.782c-0.231,0-0.42,0.188-0.42,0.419v0.059
			c0-0.232,0.188-0.419,0.42-0.419H89.9c0.232,0,0.42,0.188,0.42,0.419v-0.059C90.32,45.498,90.132,45.31,89.9,45.31z"/>
		<path opacity="0.5" fill="#669CCC" enable-background="new    " d="M88.397,47.198c0.326,0.006,0.573,0.028,0.856-0.171
			c0.254-0.178,0.249-0.455,0.246-0.51c-0.005,0.105-0.044,0.31-0.246,0.451c-0.283,0.198-0.53,0.177-0.856,0.171
			c-0.261-0.005-0.468-0.084-0.541-0.115v0.059C87.929,47.115,88.136,47.194,88.397,47.198z"/>
		<path opacity="0.5" fill="#669CCC" enable-background="new    " d="M88.825,46.781c0,0,0.222,0.096,0.372-0.215
			c0,0,0.075-0.129,0.07-0.414c-0.005,0.245-0.07,0.356-0.07,0.356c-0.15,0.31-0.372,0.215-0.372,0.215
			c-0.221-0.113-0.235-0.409-0.236-0.469c0,0.016-0.001,0.031,0,0.047C88.589,46.3,88.578,46.655,88.825,46.781z"/>
		<path opacity="0.5" fill="#669CCC" enable-background="new    " d="M89.9,47.832c0.145,0,0.262-0.117,0.262-0.262v-0.059
			c0,0.145-0.117,0.262-0.262,0.262h-1.18c-0.04,0.022-0.077,0.042-0.109,0.058C88.612,47.832,89.9,47.832,89.9,47.832z"/>
	</g>
</g>
</svg>
