<?xml version="1.0" encoding="utf-8"?>
<!-- Generator: Adobe Illustrator 17.0.0, SVG Export Plug-In . SVG Version: 6.00 Build 0)  -->
<!DOCTYPE svg PUBLIC "-//W3C//DTD SVG 1.1//EN" "http://www.w3.org/Graphics/SVG/1.1/DTD/svg11.dtd">
<svg version="1.1" id="图层_1" xmlns="http://www.w3.org/2000/svg" xmlns:xlink="http://www.w3.org/1999/xlink" x="0px" y="0px"
	 width="128px" height="128px" viewBox="64 64 128 128" enable-background="new 64 64 128 128" xml:space="preserve">
<path fill="#EBF2FB" stroke="#9DBCD7" stroke-width="2" stroke-miterlimit="10" d="M184.046,167.085
	c0,8.272-6.706,14.978-14.978,14.978H84.932c-8.272,0-14.978-6.706-14.978-14.978V82.949c0-8.272,6.706-14.978,14.978-14.978h84.135
	c8.273,0,14.979,6.706,14.979,14.978V167.085z"/>
<path opacity="0.3" fill="#669CCC" enable-background="new    " d="M184.046,167.085c0,8.272-6.706,14.978-14.978,14.978H84.932
	c-8.272,0-14.978-6.706-14.978-14.978V82.949c0-8.272,6.706-14.978,14.978-14.978h84.135c8.273,0,14.979,6.706,14.979,14.978
	V167.085z"/>
<g id="g151" opacity="0.5">
	<path id="path153" opacity="0.08" enable-background="new    " d="M170.634,182.482H84.262c-7.952,0-14.432-6.189-14.432-13.77
		v10.532c0,5.924,5.07,10.727,11.28,10.727h92.672c6.211,0,11.21-4.803,11.21-10.727v-10.532
		C184.993,176.293,178.583,182.482,170.634,182.482z"/>
	<path id="path155" opacity="0.1" enable-background="new    " d="M170.561,182.482H84.189c-7.949,0-14.359-6.076-14.359-13.658
		v5.51c0,5.924,2.738,13.141,13.828,13.141s76.196,0,87.432,0c11.237,0,13.903-7.217,13.903-13.141v-5.51
		C184.993,176.406,178.51,182.482,170.561,182.482z"/>
	<path id="path157" opacity="0.1" enable-background="new    " d="M170.561,182.482H84.189c-7.949,0-14.359-6.076-14.359-13.658
		v2.973c0,5.926,4.748,13.181,13.828,13.181s77.038,0,87.432,0c10.396,0,13.903-7.255,13.903-13.179v-2.973
		C184.993,176.406,178.51,182.482,170.561,182.482z"/>
	<rect id="rect159" x="82.917" y="182.482" opacity="0.05" enable-background="new    " width="88.989" height="2.497"/>
	<rect id="rect161" x="85.534" y="182.482" opacity="0.05" enable-background="new    " width="81.137" height="2.497"/>
	<rect id="rect163" x="85.534" y="184.978" opacity="0.05" enable-background="new    " width="81.137" height="2.497"/>
	<rect id="rect165" x="90.769" y="184.978" opacity="0.05" enable-background="new    " width="73.285" height="2.497"/>
	<rect id="rect167" x="98.621" y="184.978" opacity="0.05" enable-background="new    " width="57.581" height="2.497"/>
	<rect id="rect169" x="109.09" y="184.978" opacity="0.05" enable-background="new    " width="36.642" height="2.497"/>
	<rect id="rect171" x="90.769" y="182.482" opacity="0.05" enable-background="new    " width="73.285" height="2.497"/>
	<rect id="rect173" x="96.004" y="182.482" opacity="0.05" enable-background="new    " width="62.816" height="2.497"/>
	<rect id="rect175" x="98.621" y="182.482" opacity="0.05" enable-background="new    " width="57.581" height="2.497"/>
	<rect id="rect177" x="103.856" y="182.482" opacity="0.05" enable-background="new    " width="47.112" height="2.497"/>
	<rect id="rect179" x="103.856" y="182.482" opacity="0.05" enable-background="new    " width="47.112" height="2.497"/>
</g>
<path opacity="0.6" fill="none" stroke="#FFFFFF" stroke-width="2" stroke-miterlimit="10" enable-background="new    " d="
	M84.932,180.071c-7.161,0-12.986-5.825-12.986-12.986V82.949c0-7.161,5.825-12.986,12.986-12.986h84.135
	c7.161,0,12.986,5.826,12.986,12.986v84.135c0,7.161-5.825,12.987-12.986,12.987H84.932z"/>
<g id="g27_1_">
	
		<linearGradient id="path36_2_" gradientUnits="userSpaceOnUse" x1="760.1725" y1="-991.7191" x2="775.9796" y2="-1019.0975" gradientTransform="matrix(1 0 0 -1 -686 -925)">
		<stop  offset="0" style="stop-color:#FFFFFF"/>
		<stop  offset="0.5" style="stop-color:#FFFFFF;stop-opacity:0.6"/>
		<stop  offset="1" style="stop-color:#FFFFFF;stop-opacity:0.15"/>
	</linearGradient>
	<path id="path36_1_" fill="url(#path36_2_)" d="M87.206,98.75c1.767-3.658,3.924-7.085,6.399-10.254l-4.503-9.873
		c-3.845,3.635-6.967,7.64-9.458,11.53L87.206,98.75z"/>
	
		<linearGradient id="path45_2_" gradientUnits="userSpaceOnUse" x1="774.5049" y1="-987.6193" x2="784.8499" y2="-1005.5375" gradientTransform="matrix(1 0 0 -1 -686 -925)">
		<stop  offset="0" style="stop-color:#FFFFFF"/>
		<stop  offset="0.5" style="stop-color:#FFFFFF;stop-opacity:0.6"/>
		<stop  offset="1" style="stop-color:#FFFFFF;stop-opacity:0.15"/>
	</linearGradient>
	<path id="path45_1_" fill="url(#path45_2_)" d="M87.674,69.133l2.354,5.157c2.264-1.881,4.747-2.527,7.454-5.157H87.674z"/>
	
		<linearGradient id="path54_2_" gradientUnits="userSpaceOnUse" x1="777.7591" y1="-984.2164" x2="790.3987" y2="-1006.1089" gradientTransform="matrix(1 0 0 -1 -686 -925)">
		<stop  offset="0" style="stop-color:#FFFFFF"/>
		<stop  offset="0.5" style="stop-color:#FFFFFF;stop-opacity:0.6"/>
		<stop  offset="1" style="stop-color:#FFFFFF;stop-opacity:0.15"/>
	</linearGradient>
	<path id="path54_1_" fill="url(#path54_2_)" d="M105.334,69.133h-1.862c-4.695,2.63-8.8,4.637-12.321,7.635l4.316,9.468
		c3.687-4.258,7.964-7.99,12.753-11.004c0.037-0.034,0.063-0.063,0.103-0.097C113.69,70.501,108.359,69.133,105.334,69.133z"/>
	
		<linearGradient id="path63_2_" gradientUnits="userSpaceOnUse" x1="751.3013" y1="-1004.2001" x2="765.0178" y2="-1027.9576" gradientTransform="matrix(1 0 0 -1 -686 -925)">
		<stop  offset="0" style="stop-color:#FFFFFF"/>
		<stop  offset="0.5" style="stop-color:#FFFFFF;stop-opacity:0.6"/>
		<stop  offset="1" style="stop-color:#FFFFFF;stop-opacity:0.15"/>
	</linearGradient>
	<path id="path63_1_" fill="url(#path63_2_)" d="M78.209,92.501c-2.888,4.915-4.774,9.458-5.894,12.564
		c1.325,1.891,3.517,3.133,6.002,3.133c3.077,0,5.705-1.901,6.793-4.587c0.279-0.75,0.618-1.47,0.929-2.209L78.209,92.501z"/>
	
		<linearGradient id="path72_2_" gradientUnits="userSpaceOnUse" x1="750.685" y1="-1005.1732" x2="765.8864" y2="-1031.5031" gradientTransform="matrix(1 0 0 -1 -686 -925)">
		<stop  offset="0" style="stop-color:#FFFFFF"/>
		<stop  offset="0.5" style="stop-color:#FFFFFF;stop-opacity:0.6"/>
		<stop  offset="1" style="stop-color:#FFFFFF;stop-opacity:0.15"/>
	</linearGradient>
	<path id="path72_1_" fill="url(#path72_2_)" d="M71.042,84.345l-0.058,16.506c0,0,0,0.005,0,0.01c0,0.103,0.026,0.2,0.032,0.303
		c1.255-3.053,3.006-6.785,5.384-10.728L71.042,84.345z"/>
	
		<linearGradient id="path149_2_" gradientUnits="userSpaceOnUse" x1="762.181" y1="-996.9274" x2="776.4551" y2="-1021.6506" gradientTransform="matrix(1 0 0 -1 -686 -925)">
		<stop  offset="0" style="stop-color:#FFFFFF"/>
		<stop  offset="0.5" style="stop-color:#FFFFFF;stop-opacity:0.6"/>
		<stop  offset="1" style="stop-color:#FFFFFF;stop-opacity:0.15"/>
	</linearGradient>
	<path id="path149_1_" fill="url(#path149_2_)" d="M84.539,69.164c-5.362-0.445-12.424,5.597-13.331,11.388l6.654,7.567
		c2.656-4.053,5.96-8.206,10.034-11.956L84.539,69.164z"/>
</g>
<g>
	<path opacity="0.9" fill="#FFFFFF" enable-background="new    " d="M151.428,145.586c0,0,5.529-7.917,5.085-19.033
		c-0.444,9.647-5.085,16.271-5.085,16.271c-11.62,16.324-32.077,28.239-41.987,33.372h5.1
		C125.284,170.15,141.533,159.469,151.428,145.586z"/>
	<path opacity="0.9" fill="#FFFFFF" enable-background="new    " d="M115.589,119.528c2.598,13.183,10.52,4.301,10.52,4.301
		c8.359-8.689,7.703-25.978,7.703-25.978c-0.014,0-0.027,0.007-0.027,0.007c-0.195,5.235-1.375,16.66-7.683,23.202
		c0,0-7.929,8.897-10.52-4.287c0,0-0.121-0.49-0.195-1.368C115.219,117.991,115.589,119.528,115.589,119.528z"/>
	<path opacity="0.9" fill="#FFFFFF" enable-background="new    " d="M108.431,108.955c0-0.154,0-0.309,0-0.463
		C108.431,108.532,108.431,108.687,108.431,108.955z"/>
	<path opacity="0.9" fill="#FFFFFF" enable-background="new    " d="M138.233,97.776c-0.14-0.027-0.248-0.046-0.248-0.046
		c0.275,2.463,0.41,4.709,0.429,6.796C138.467,102.494,138.414,100.253,138.233,97.776z"/>
	<path opacity="0.9" fill="#FFFFFF" enable-background="new    " d="M117.803,74.234c-1.544,2.67-9.804,17.658-9.365,33.915
		c0.482-15.164,7.903-28.634,9.365-31.15h23.979c1.307-1.093,2.543-2.053,3.59-2.765H117.803L117.803,74.234z"/>
	<path opacity="0.9" fill="#FFFFFF" enable-background="new    " d="M177.925,85.196l-6.878,1.24c0,0-7.408,1.334-15.646,1.059
		c0,0-13.089,0.637-20.416,4.402c0,0-5.462,2.509-10.93,6.742c0,0-1.153,0.596-1.1,2.779c0.068,2.181-1.088,7.982-4.953,11.391
		c0,0-2.765,1.457-1.375,3.536c0,0,0.068,0.094,0.154,0.207c0.523-0.63,1.221-0.987,1.221-0.987
		c3.865-3.416,5.018-9.213,4.953-11.391c-0.053-2.181,1.1-2.779,1.1-2.779c1.428-1.1,2.844-2.079,4.166-2.938
		c0.014-0.316,0.053-0.618,0.068-0.938c0,0,2.135-1.884,5.529-2.441c0,0,0,0.075,0,0.147c0.719-0.369,1.168-0.577,1.168-0.577
		c7.326-3.763,20.416-4.395,20.416-4.395c8.245,0.268,15.646-1.066,15.646-1.066l6.878-1.24c0,0.207,0.053,0.41,0.053,0.618v-2.757
		C177.979,85.606,177.925,85.413,177.925,85.196z"/>
	<path opacity="0.9" fill="#FFFFFF" enable-background="new    " d="M99.534,125.185c-6.173-6.641-15.88-26.596-16.881-49.795
		c-3.906,1.86-6.629,5.823-6.629,10.433v2.757c0-4.61,2.724-8.569,6.629-10.433c0.994,23.202,10.708,43.169,16.881,49.81
		c6.313,6.783,15.62,13.996,27.52,10.991c11.895-2.999,14.283-16.049,14.283-16.049c0.784-3.329,0.979-6.851,0.893-10.144
		c-0.068,2.456-0.316,4.965-0.893,7.394c0,0-2.381,13.036-14.283,16.049C115.152,139.186,105.855,131.973,99.534,125.185z"/>
	<g>
		<g opacity="0.3">
			<path opacity="0.5" fill="#669CCC" enable-background="new    " d="M170.544,83.726c-0.053,0.007-5.966,1.052-12.896,1.052
				c-0.704,0-1.443-0.007-2.159-0.034c-0.784,0.027-13.996,0.712-21.764,4.697c-0.053,0.027-1.307,0.603-3.201,1.657
				c1.484-1.45,11.386-11.184,16.389-14.592l7.394-5.039h-38.093l-0.798,1.375c-1.732,2.965-10.298,18.652-9.734,35.686
				c-0.027,0.543-0.396,17.349,11.936,23.624c0.355,0.162,2.174,0.912,4.796,0.912c3.643,0,10.472-1.515,15.383-11.661
				c0.027-0.034,0.384-0.644,0.852-1.831c-0.234,1.088-2.557,11.48-12.276,13.936c-1.623,0.41-3.247,0.618-4.851,0.618
				c-6.656,0-13.198-3.541-19.974-10.814c-5.951-6.407-15.202-26.106-16.129-48.044L85.237,71.1l-3.763,1.79
				c-4.991,2.376-8.219,7.447-8.219,12.923v59.061l1.665,0.712c3.536,1.537,13.051,5.112,24.965,5.326l3.107,0.068
				c2.321,0.046,4.55,0.101,6.723,0.101c11.07-0.007,19.907-1.375,29.655-8.219c13.695-9.594,12.057-24.919,11.977-25.563
				c-0.041-1.766-0.234-3.522-0.564-5.228c7.601,15.627-1.127,28.475-1.609,29.158c-11.085,15.552-30.439,27.04-41,32.499
				l-10.064,5.206h68.286c7.917,0,14.351-6.434,14.351-14.344V85.82c0-0.256-0.027-0.502-0.068-0.745l-0.415-2.825l-2.832,0.241
				L170.544,83.726z M177.979,85.82v78.787c0,6.388-5.187,11.594-11.586,11.594h-56.95c9.91-5.133,30.359-17.048,41.987-33.372
				c0,0,16.565-23.624-9.857-46.63c0,0,6.803,10.675,7.039,21.436c0,0,1.691,14.23-10.822,22.985
				c-12.498,8.769-23.443,7.809-37.847,7.548c-11.519-0.203-20.691-3.696-23.911-5.1V85.82c0-4.61,2.724-8.569,6.629-10.433
				c0.994,23.202,10.708,43.154,16.881,49.795c6.313,6.791,15.62,14.004,27.52,11.003c11.895-3.006,14.283-16.049,14.283-16.049
				c2.61-11.116-1.168-24.302-1.363-24.584c-0.195-0.275-1.993-0.584-1.993-0.584c1.899,17.492-2.656,25.24-2.656,25.24
				c-6.641,13.721-16.459,9.493-16.459,9.493c-10.916-5.556-10.433-21.262-10.433-21.262c-0.536-16.365,7.809-31.527,9.365-34.216
				h27.568c-5.662,3.852-16.908,15.036-16.908,15.036c-16.028,14.942-12.882,27.508-12.882,27.508
				c2.598,13.183,10.52,4.287,10.52,4.287c8.359-8.689,7.703-25.971,7.703-25.971c-3.394,0.557-5.529,2.441-5.529,2.441
				c-0.396,11.526-7.153,18.679-7.153,18.679c-2.637,2.919-4.509,0.14-4.509,0.14c-1.39-2.087,1.375-3.536,1.375-3.536
				c3.865-3.409,5.018-9.213,4.953-11.391c-0.053-2.181,1.1-2.779,1.1-2.779c5.462-4.241,10.93-6.742,10.93-6.742
				c7.326-3.763,20.416-4.402,20.416-4.402c8.245,0.275,15.646-1.059,15.646-1.059l6.878-1.24
				C177.925,85.413,177.979,85.606,177.979,85.82z M119.607,120.218c1.02-0.188,2.294-0.757,3.549-2.159
				c0.261-0.261,6.916-7.428,7.797-19.033l0,0c-0.316,5.273-1.638,14.739-6.829,20.128c-0.839,0.919-2.395,2.094-3.356,2.094
				C120.432,121.231,120.03,120.91,119.607,120.218z"/>
		</g>
		<g opacity="0.9" enable-background="new    ">
			<path fill="#FFFFFF" d="M177.971,164.606h-0.01V85.812c0-0.207-0.053-0.41-0.053-0.618l-6.878,1.24c0,0-7.401,1.334-15.646,1.059
				c0,0-13.089,0.639-20.416,4.402c0,0-5.469,2.502-10.93,6.742c0,0-1.153,0.598-1.1,2.779c0.065,2.178-1.088,7.982-4.952,11.391
				c0,0-2.765,1.45-1.375,3.536c0,0,1.872,2.779,4.509-0.14c0,0,6.757-7.153,7.153-18.679c0,0,2.135-1.884,5.529-2.441
				c0,0,0.656,17.282-7.703,25.971c0,0-7.922,8.897-10.52-4.287c0,0-3.146-12.566,12.882-27.508c0,0,11.246-11.184,16.908-15.036
				h-27.568c-1.556,2.69-9.9,17.851-9.365,34.216c0,0-0.482,15.707,10.433,21.262c0,0,9.818,4.229,16.459-9.493
				c0,0,4.554-7.748,2.656-25.24c0,0,1.797,0.309,1.993,0.584c0.195,0.282,3.973,13.468,1.363,24.584
				c0,0-2.388,13.043-14.283,16.049c-11.9,3.001-21.207-4.212-27.52-11.003c-6.173-6.641-15.888-26.593-16.881-49.795
				c-3.906,1.865-6.629,5.823-6.629,10.433v57.249c3.22,1.404,12.392,4.897,23.911,5.1c14.404,0.261,25.349,1.221,37.847-7.548
				c12.513-8.754,10.822-22.985,10.822-22.985c-0.236-10.761-7.039-21.436-7.039-21.436c26.422,23.006,9.857,46.63,9.857,46.63
				c-11.627,16.324-32.077,28.239-41.987,33.372h56.95c6.4,0,11.586-5.206,11.586-11.594h-0.002V164.606z"/>
		</g>
	</g>
</g>
</svg>
