<?xml version="1.0" encoding="utf-8"?>
<!-- Generator: Adobe Illustrator 17.0.0, SVG Export Plug-In . SVG Version: 6.00 Build 0)  -->
<!DOCTYPE svg PUBLIC "-//W3C//DTD SVG 1.1//EN" "http://www.w3.org/Graphics/SVG/1.1/DTD/svg11.dtd">
<svg version="1.1" id="图层_1" xmlns="http://www.w3.org/2000/svg" xmlns:xlink="http://www.w3.org/1999/xlink" x="0px" y="0px"
	 width="128px" height="128px" viewBox="0 0 128 128" enable-background="new 0 0 128 128" xml:space="preserve">
<g id="g151" opacity="0.5">
	<path id="path153" opacity="0.08" enable-background="new    " d="M106.873,118.496H20.952c-7.91,0-14.357-6.201-14.357-13.797
		v10.553c0,5.936,5.043,10.748,11.222,10.748h92.188c6.178,0,11.151-4.812,11.151-10.748v-10.553
		C121.156,112.296,114.78,118.496,106.873,118.496z"/>
	<path id="path155" opacity="0.1" enable-background="new    " d="M106.8,118.496H20.879c-7.907,0-14.284-6.088-14.284-13.684v5.52
		c0,5.936,2.723,13.167,13.755,13.167s75.798,0,86.975,0s13.831-7.231,13.831-13.167v-5.52
		C121.156,112.408,114.707,118.496,106.8,118.496z"/>
	<path id="path157" opacity="0.1" enable-background="new    " d="M106.8,118.496H20.879c-7.907,0-14.284-6.088-14.284-13.684v2.979
		c0,5.938,4.723,13.207,13.755,13.207s76.636,0,86.975,0c10.342,0,13.831-7.269,13.831-13.204v-2.979
		C121.156,112.408,114.707,118.496,106.8,118.496z"/>
	<rect id="rect159" x="19.613" y="118.496" opacity="0.05" enable-background="new    " width="88.525" height="2.501"/>
	<rect id="rect161" x="22.217" y="118.496" opacity="0.05" enable-background="new    " width="80.714" height="2.501"/>
	<rect id="rect163" x="22.217" y="120.997" opacity="0.05" enable-background="new    " width="80.714" height="2.501"/>
	<rect id="rect165" x="27.424" y="120.997" opacity="0.05" enable-background="new    " width="72.903" height="2.501"/>
	<rect id="rect167" x="35.235" y="120.997" opacity="0.05" enable-background="new    " width="57.281" height="2.501"/>
	<rect id="rect169" x="45.65" y="120.997" opacity="0.05" enable-background="new    " width="36.451" height="2.501"/>
	<rect id="rect171" x="27.424" y="118.496" opacity="0.05" enable-background="new    " width="72.903" height="2.501"/>
	<rect id="rect173" x="32.632" y="118.496" opacity="0.05" enable-background="new    " width="62.488" height="2.501"/>
	<rect id="rect175" x="35.235" y="118.496" opacity="0.05" enable-background="new    " width="57.281" height="2.501"/>
	<rect id="rect177" x="40.443" y="118.496" opacity="0.05" enable-background="new    " width="46.866" height="2.501"/>
	<rect id="rect179" x="40.443" y="118.496" opacity="0.05" enable-background="new    " width="46.866" height="2.501"/>
</g>
<path fill="#C4DCED" stroke="#9DBCD7" stroke-width="2" stroke-miterlimit="10" d="M121,102.992c0,8.288-6.719,15.008-15.008,15.008
	H22.008C13.719,118,7,111.281,7,102.992V19.008C7,10.719,13.719,4,22.008,4h83.985C114.281,4,121,10.719,121,19.008V102.992z"/>
<path opacity="0.5" fill="none" stroke="#FFFFFF" stroke-width="2" stroke-miterlimit="10" enable-background="new    " d="
	M119,102.992c0,7.184-5.824,13.008-13.008,13.008H22.008C14.824,116,9,110.176,9,102.992V19.008C9,11.824,14.824,6,22.008,6h83.984
	C113.176,6,119,11.824,119,19.008V102.992z"/>
<path opacity="0.08" fill="none" stroke="#000000" stroke-miterlimit="10" enable-background="new    " d="M121.426,37.445
	c0,0,0-5.043-4.981-5.043c-14.457,0-60.62,0.008-64.752,0.008c-5.021,0-4.981-4.97-4.981-4.97s0-5.003-4.981-5.003
	c-8.719,0-26.182,0-29.886,0c-4.904,0-4.981,4.822-4.981,4.975"/>
<path opacity="0.05" fill="none" stroke="#000000" stroke-miterlimit="10" enable-background="new    " d="M121.405,36.445
	c0,0,0-5.043-4.981-5.043c-14.457,0-60.62,0.008-64.752,0.008c-5.021,0-4.981-4.97-4.981-4.97s0-5.003-4.981-5.003
	c-8.719,0-26.182,0-29.886,0c-4.904,0-4.981,4.822-4.981,4.975"/>
<path opacity="0.03" fill="none" stroke="#000000" stroke-miterlimit="10" enable-background="new    " d="M121.405,35.487
	c0,0,0-5.043-4.981-5.043c-14.457,0-60.62,0.008-64.752,0.008c-5.021,0-4.981-4.97-4.981-4.97s0-5.003-4.981-5.003
	c-8.719,0-26.182,0-29.886,0c-4.904,0-4.981,4.822-4.981,4.975"/>
<linearGradient id="SVGID_1_" gradientUnits="userSpaceOnUse" x1="612" y1="781" x2="612" y2="687" gradientTransform="matrix(1 0 0 1 -548 -663)">
	<stop  offset="0" style="stop-color:#D1E0ED"/>
	<stop  offset="1" style="stop-color:#E4EEFB"/>
</linearGradient>
<path fill="url(#SVGID_1_)" stroke="#9DBCD7" stroke-width="2" stroke-miterlimit="10" d="M21.975,118h84.298
	c8.288,0,14.727-6.891,14.727-15.18V35.522c0-1.181-1.766-2.295-4.117-2.295c-14.52,0-60.813,0.008-64.963,0.008
	c-5.043,0-4.967-4.601-4.967-4.601S46.988,24,41.985,24c-8.757,0-26.296,0-30.015,0C7.045,24,7,28.084,7,28.237v74.584
	C7,111.109,13.687,118,21.975,118z"/>
<path fill="none" stroke="#FFFFFF" stroke-width="2" stroke-miterlimit="10" d="M21.975,116C14.821,116,9,110.088,9,102.82V28.237
	c0-0.095,0.015-0.894,0.608-1.488C10.104,26.252,10.898,26,11.97,26h30.015c1.184,0,1.786,0.141,2.146,0.503
	c0.796,0.801,0.832,2.023,0.832,2.036c-0.004,0.261,0.011,2.87,1.945,4.833c1.232,1.25,2.921,1.884,5.02,1.884
	c0,0,55.49-0.021,64.952-0.021c1.25,0,1.942,0.428,2.12,0.636v66.951c0,7.268-5.709,13.18-12.727,13.18H21.975V116z"/>
<radialGradient id="SVGID_2_" cx="789.5878" cy="-462.9282" r="91.4084" gradientTransform="matrix(0.0197 0.9998 -0.9109 0.018 -377.3072 -736.0426)" gradientUnits="userSpaceOnUse">
	<stop  offset="0" style="stop-color:#FFFFFF;stop-opacity:0.6"/>
	<stop  offset="0.3783" style="stop-color:#FAFCFE;stop-opacity:0.4487"/>
	<stop  offset="0.829" style="stop-color:#EBF3FC;stop-opacity:0.2684"/>
	<stop  offset="1" style="stop-color:#E4EEFB;stop-opacity:0.2"/>
</radialGradient>
<path fill="url(#SVGID_2_)" d="M21.975,116C14.821,116,9,110.088,9,102.82V28.237c0-0.095,0.015-0.894,0.608-1.488
	C10.104,26.252,10.898,26,11.97,26h30.015c1.184,0,1.786,0.141,2.146,0.503c0.796,0.801,0.832,2.023,0.832,2.036
	c-0.004,0.261,0.011,2.87,1.945,4.833c1.232,1.25,2.921,1.884,5.02,1.884c0,0,55.49-0.021,64.952-0.021
	c1.25,0,1.942,0.428,2.12,0.636v66.951c0,7.268-5.709,13.18-12.727,13.18H21.975V116z"/>
<g id="g27_1_">
	
		<linearGradient id="path36_2_" gradientUnits="userSpaceOnUse" x1="970.7643" y1="1483.7594" x2="986.6021" y2="1511.191" gradientTransform="matrix(1 0 0 1 -960 -1481)">
		<stop  offset="0" style="stop-color:#FFFFFF"/>
		<stop  offset="0.5" style="stop-color:#FFFFFF;stop-opacity:0.6"/>
		<stop  offset="1" style="stop-color:#FFFFFF;stop-opacity:0.15"/>
	</linearGradient>
	<path id="path36_1_" fill="url(#path36_2_)" d="M23.823,34.852c1.771-3.665,3.932-7.099,6.411-10.274l-4.511-9.892
		c-3.853,3.642-6.98,7.655-9.476,11.552L23.823,34.852z"/>
	
		<linearGradient id="path45_2_" gradientUnits="userSpaceOnUse" x1="985.1246" y1="1479.6516" x2="995.4895" y2="1497.6047" gradientTransform="matrix(1 0 0 1 -960 -1481)">
		<stop  offset="0" style="stop-color:#FFFFFF"/>
		<stop  offset="0.5" style="stop-color:#FFFFFF;stop-opacity:0.6"/>
		<stop  offset="1" style="stop-color:#FFFFFF;stop-opacity:0.15"/>
	</linearGradient>
	<path id="path45_1_" fill="url(#path45_2_)" d="M24.292,5.178l2.358,5.167c2.269-1.884,4.756-2.532,7.468-5.167L24.292,5.178z"/>
	
		<linearGradient id="path54_2_" gradientUnits="userSpaceOnUse" x1="988.3846" y1="1476.2424" x2="1001.0488" y2="1498.1774" gradientTransform="matrix(1 0 0 1 -960 -1481)">
		<stop  offset="0" style="stop-color:#FFFFFF"/>
		<stop  offset="0.5" style="stop-color:#FFFFFF;stop-opacity:0.6"/>
		<stop  offset="1" style="stop-color:#FFFFFF;stop-opacity:0.15"/>
	</linearGradient>
	<path id="path54_1_" fill="url(#path54_2_)" d="M41.987,5.178h-1.866c-4.704,2.635-8.817,4.646-12.346,7.65l4.324,9.486
		c3.694-4.266,7.979-8.005,12.778-11.025c0.037-0.034,0.063-0.063,0.103-0.097C50.358,6.549,45.017,5.178,41.987,5.178z"/>
	
		<linearGradient id="path63_2_" gradientUnits="userSpaceOnUse" x1="961.876" y1="1496.2646" x2="975.6191" y2="1520.0684" gradientTransform="matrix(1 0 0 1 -960 -1481)">
		<stop  offset="0" style="stop-color:#FFFFFF"/>
		<stop  offset="0.5" style="stop-color:#FFFFFF;stop-opacity:0.6"/>
		<stop  offset="1" style="stop-color:#FFFFFF;stop-opacity:0.15"/>
	</linearGradient>
	<path id="path63_1_" fill="url(#path63_2_)" d="M14.808,28.591c-2.893,4.925-4.783,9.476-5.905,12.588
		c1.328,1.895,3.523,3.138,6.013,3.138c3.083,0,5.716-1.905,6.807-4.596c0.279-0.751,0.619-1.473,0.93-2.213L14.808,28.591z"/>
	
		<linearGradient id="path72_2_" gradientUnits="userSpaceOnUse" x1="961.2581" y1="1497.2399" x2="976.4891" y2="1523.6207" gradientTransform="matrix(1 0 0 1 -960 -1481)">
		<stop  offset="0" style="stop-color:#FFFFFF"/>
		<stop  offset="0.5" style="stop-color:#FFFFFF;stop-opacity:0.6"/>
		<stop  offset="1" style="stop-color:#FFFFFF;stop-opacity:0.15"/>
	</linearGradient>
	<path id="path72_1_" fill="url(#path72_2_)" d="M7.627,20.42L7.569,36.958c0,0,0,0.005,0,0.011c0,0.103,0.026,0.2,0.032,0.303
		c1.257-3.059,3.012-6.799,5.394-10.749L7.627,20.42z"/>
	
		<linearGradient id="path149_2_" gradientUnits="userSpaceOnUse" x1="972.7764" y1="1488.978" x2="987.0781" y2="1513.7493" gradientTransform="matrix(1 0 0 1 -960 -1481)">
		<stop  offset="0" style="stop-color:#FFFFFF"/>
		<stop  offset="0.5" style="stop-color:#FFFFFF;stop-opacity:0.6"/>
		<stop  offset="1" style="stop-color:#FFFFFF;stop-opacity:0.15"/>
	</linearGradient>
	<path id="path149_1_" fill="url(#path149_2_)" d="M21.151,5.21C15.778,4.763,8.702,10.817,7.793,16.62l6.667,7.581
		c2.661-4.061,5.971-8.222,10.053-11.979L21.151,5.21z"/>
</g>
<g>
	<path opacity="0.3" fill="#FFFFFF" enable-background="new    " d="M75.736,38.602c-2.758,0.059-5.482,1.018-7.721,2.909
		c-3.529,2.981-4.047,6.365-4.303,9.07c-0.256,2.705-0.296,4.642-2.744,6.706c-2.442,2.065-4.474,1.832-7.251,1.687
		c-2.777-0.145-6.221-0.151-9.746,2.826c-1.608,1.366-2.758,3.079-3.457,4.891c0,0,0,0.04,0,0.046
		c-0.02,0.053-0.076,0.21-0.082,0.296c-0.095,0.25-0.21,0.483-0.296,0.801c-0.033,0.109-0.115,0.312-0.174,0.545
		c0,0.026,0.007,0.026,0,0.046c-0.076,0.351-0.122,0.725-0.168,1.097c-0.02,0.148,0,0.289,0,0.296
		c-0.007,0.095-0.04,0.21-0.046,0.296c0.007-0.046-0.026,0.076-0.04,0.378c-0.007,0.154,0,0.197,0,0.171
		c-0.007,0.125,0,0.161,0,0.086c0,0.164-0.007,0.338,0,0.502c0,0-0.007,0.072,0,0.253c0.013,0.302,0.046,0.423,0.04,0.378
		c0.013,0.141,0.02,0.358,0.046,0.594c0.046,0.368,0.089,0.742,0.168,1.097c0.007,0.02,0,0.02,0,0.043
		c0.059,0.23,0.141,0.433,0.174,0.548c0.115,0.43,0.256,0.775,0.378,1.097c0,0.013,0,0.03,0,0.043
		c0.653,1.694,1.737,3.217,3.161,4.514c0.013,0.01-0.007,0.036,0,0.043c0.013,0.013,0.026,0.03,0.046,0.043
		c0.069,0.095,0.161,0.184,0.25,0.253c0,0.013,0,0.033,0,0.043c3.526,2.981,6.969,2.971,9.746,2.826
		c2.777-0.145,4.809-0.381,7.251,1.687c2.449,2.068,2.488,4.005,2.744,6.706c0.256,2.705,0.775,6.09,4.303,9.07
		c5.127,4.333,12.861,3.765,17.293-1.264c4.432-5.035,3.867-12.704-1.264-17.04c-3.526-2.977-6.969-2.971-9.746-2.823
		c-2.777,0.145-4.809,0.378-7.251-1.69c-2.429-2.052-2.495-3.975-2.744-6.664c0.25-2.685,0.315-4.609,2.744-6.664
		c2.445-2.065,4.478-1.832,7.251-1.687c2.777,0.145,6.221,0.154,9.746-2.826c5.127-4.337,5.692-12.005,1.264-17.037
		C82.82,39.948,79.268,38.526,75.736,38.602z M75.782,39.951c3.141-0.066,6.296,1.195,8.515,3.713
		c3.942,4.474,3.43,11.237-1.136,15.1c-6.431,5.43-11.394-0.223-16.998,4.514c-2.833,2.393-2.948,5.006-3.207,7.717
		c0.256,2.712,0.371,5.325,3.207,7.721c5.607,4.734,10.567-0.919,16.998,4.514c4.566,3.86,5.078,10.623,1.136,15.1
		c-3.936,4.474-10.823,4.957-15.392,1.097c-6.428-5.43-1.438-11.036-7.048-15.773c-5.604-4.737-10.567,0.916-16.998-4.517v-0.04
		c-1.425-1.208-2.455-2.689-3.079-4.303c-0.007-0.01,0.007-0.036,0-0.046c-0.122-0.328-0.243-0.63-0.341-0.972
		c-0.04-0.148-0.089-0.309-0.122-0.463c-0.007-0.017,0.007-0.03,0-0.043c-0.069-0.318-0.128-0.647-0.174-0.972
		c-0.02-0.168-0.026-0.338-0.04-0.505c-0.007-0.112-0.04-0.223-0.046-0.338c0-0.076,0-0.177,0-0.253c0-0.154,0-0.269,0-0.423
		c0-0.017,0-0.066,0-0.082c0-0.059,0-0.109,0-0.168c0.007-0.115,0.04-0.223,0.046-0.341c0.013-0.148,0.026-0.315,0.04-0.463
		c0.007-0.02,0-0.026,0-0.046c0.046-0.322,0.102-0.65,0.174-0.969c0-0.017-0.007-0.026,0-0.046c0.033-0.148,0.082-0.312,0.122-0.463
		c0.095-0.341,0.217-0.64,0.341-0.969c0.007-0.013-0.007-0.033,0-0.046c0.62-1.615,1.654-3.138,3.079-4.343
		c6.431-5.43,11.394,0.223,16.998-4.514c5.61-4.737,0.62-10.343,7.048-15.777C70.9,40.877,73.329,40.007,75.782,39.951z"/>
	<path opacity="0.3" fill="#669CCC" enable-background="new    " d="M75.791,39.955c-2.449,0.053-4.898,0.9-6.9,2.59
		c-6.428,5.433-1.431,11.079-7.042,15.813c-5.604,4.737-10.574-0.926-16.998,4.507v0.01c-1.431,1.208-2.462,2.702-3.082,4.317
		c0,0.007,0,0.02-0.007,0.033c-0.128,0.328-0.23,0.656-0.328,0.995c-0.04,0.151-0.082,0.302-0.115,0.453
		c-0.007,0.017-0.007,0.036-0.013,0.053c-0.069,0.318-0.115,0.637-0.161,0.962c0,0.003,0,0.003,0,0.01
		c0,0.013-0.007,0.033-0.007,0.049c-0.02,0.151-0.033,0.299-0.046,0.453c-0.007,0.115-0.02,0.227-0.026,0.341
		c0,0.056-0.007,0.118-0.007,0.177c0,0.02,0,0.04,0,0.059c-0.007,0.151-0.007,0.299,0,0.45c0,0.079,0.007,0.161,0.007,0.236
		c0.007,0.112,0.02,0.227,0.026,0.341c0.013,0.171,0.033,0.335,0.053,0.505c0,0,0,0.004,0,0.007c0.046,0.322,0.089,0.64,0.161,0.962
		c0.007,0.017,0.007,0.033,0.013,0.053c0.033,0.151,0.076,0.299,0.115,0.45c0.095,0.341,0.2,0.67,0.328,0.995
		c0.007,0.013,0.007,0.023,0.007,0.036c0.62,1.615,1.654,3.105,3.082,4.313v0.01c6.424,5.43,11.394-0.23,16.998,4.507
		c5.61,4.734,0.617,10.38,7.042,15.809c4.573,3.86,11.463,3.355,15.405-1.123c3.936-4.474,3.43-11.234-1.136-15.094
		c-6.424-5.433-11.394,0.24-17.004-4.497c-2.826-2.393-2.954-5.022-3.214-7.734c0.256-2.712,0.384-5.341,3.214-7.73
		c5.61-4.737,10.58,0.932,17.004-4.501c4.566-3.86,5.072-10.616,1.136-15.094C82.081,41.149,78.939,39.886,75.791,39.955
		C75.791,39.954,75.791,39.954,75.791,39.955z"/>
	<path opacity="0.3" fill="#669CCC" enable-background="new    " d="M75.782,39.951c-2.449,0.056-4.878,0.926-6.88,2.617
		C62.473,48,67.463,53.604,61.853,58.344c-5.604,4.737-10.567-0.919-16.998,4.514c-1.425,1.208-2.455,2.728-3.079,4.343
		c-0.007,0.013,0.007,0.033,0,0.046c-0.122,0.328-0.243,0.627-0.341,0.969c-0.04,0.151-0.089,0.315-0.122,0.463
		c-0.007,0.02,0,0.03,0,0.046c-0.069,0.318-0.128,0.647-0.174,0.969c0,0.02,0.007,0.026,0,0.046
		c-0.013,0.148-0.026,0.315-0.04,0.463c-0.007,0.115-0.04,0.223-0.046,0.341c0,0.059,0,0.109,0,0.168c0,0.02,0,0.069,0,0.082
		c0,0.154,0,0.269,0,0.423c0,0.076,0,0.177,0,0.253c0.007,0.069,0.04,0.138,0.046,0.21c0.007-0.043-0.007-0.086,0-0.125
		c0.013-0.154,0.026-0.315,0.04-0.469c0.007-0.013,0-0.026,0-0.04c0.046-0.325,0.102-0.653,0.174-0.972c0-0.017-0.007-0.03,0-0.043
		c0.033-0.151,0.082-0.315,0.122-0.466c0.095-0.338,0.217-0.64,0.341-0.972c0.007-0.01-0.007-0.033,0-0.04
		c0.62-1.615,1.654-3.141,3.079-4.346c6.431-5.43,11.394,0.223,16.998-4.514c5.61-4.737,0.62-10.343,7.048-15.777
		c1.999-1.69,4.432-2.56,6.88-2.613c3.141-0.069,6.296,1.195,8.515,3.713c1.615,1.829,2.468,4.044,2.617,6.283
		c0.168-2.692-0.673-5.43-2.617-7.632C82.078,41.146,78.923,39.886,75.782,39.951z M63.038,71.672
		c-0.02,0.223-0.066,0.446-0.082,0.676c0.256,2.708,0.371,5.325,3.207,7.717c5.607,4.737,10.567-0.919,16.998,4.514
		c2.281,1.93,3.545,4.566,3.752,7.297c0.168-3.184-1.103-6.401-3.752-8.647c-6.431-5.433-11.394,0.22-16.998-4.514
		C63.563,76.521,63.274,74.137,63.038,71.672z"/>
	<path opacity="0.3" fill="#669CCC" enable-background="new    " d="M75.782,39.951c-2.449,0.056-4.878,0.926-6.88,2.617
		C62.473,48,67.463,53.604,61.853,58.344c-5.604,4.737-10.567-0.919-16.998,4.514c-1.425,1.208-2.455,2.728-3.079,4.343
		c-0.007,0.013,0.007,0.033,0,0.046c-0.122,0.328-0.243,0.627-0.341,0.969c-0.04,0.151-0.089,0.315-0.122,0.463
		c-0.007,0.02,0,0.03,0,0.046c-0.069,0.318-0.128,0.647-0.174,0.969c0,0.02,0.007,0.026,0,0.046
		c-0.013,0.148-0.026,0.315-0.04,0.463c-0.007,0.115-0.04,0.223-0.046,0.341c0,0.059,0,0.109,0,0.168c0,0.02,0,0.069,0,0.082
		c0,0.154,0,0.269,0,0.423c0,0.076,0,0.177,0,0.253c0.007,0.112,0.04,0.223,0.046,0.338c0.013,0.171,0.02,0.341,0.04,0.505
		c0.046,0.325,0.102,0.653,0.174,0.972c0.007,0.013-0.007,0.026,0,0.043c0.033,0.154,0.082,0.315,0.122,0.463
		c0.095,0.341,0.217,0.643,0.341,0.972c0.007,0.01-0.007,0.036,0,0.046c0.62,1.612,1.654,3.092,3.079,4.303v0.04
		c6.431,5.433,11.394-0.22,16.998,4.517c5.61,4.734,0.62,10.34,7.048,15.773c4.573,3.86,11.457,3.378,15.392-1.097
		c3.942-4.474,3.43-11.24-1.136-15.1c-6.431-5.433-11.394,0.22-16.998-4.514c-2.833-2.393-2.948-5.006-3.207-7.721
		c0.256-2.712,0.371-5.325,3.207-7.717c5.607-4.737,10.567,0.919,16.998-4.514c4.566-3.86,5.078-10.623,1.136-15.1
		C82.078,41.146,78.923,39.886,75.782,39.951z M75.818,41.386c2.744-0.059,5.456,1.018,7.379,3.204
		c3.424,3.893,3.007,9.714-0.969,13.075c-2.886,2.439-5.091,2.334-7.803,2.193c-2.712-0.141-6.02-0.364-9.195,2.321
		c-3.214,2.715-3.457,6.023-3.713,8.689c-0.007,0.082-0.007,0.171,0,0.253c0.256,2.662,0.499,5.971,3.713,8.686
		c3.174,2.685,6.483,2.462,9.195,2.321s4.917-0.246,7.803,2.193c3.975,3.361,4.392,9.185,0.969,13.072
		c-3.424,3.893-9.385,4.293-13.367,0.929c-2.892-2.439-3.079-4.533-3.335-7.173c-0.25-2.636-0.532-5.922-3.713-8.604
		c-3.174-2.685-6.483-2.459-9.195-2.317c-2.685,0.138-4.878,0.207-7.721-2.15c-0.026-0.017-0.053-0.03-0.082-0.046
		c0-0.01,0-0.03,0-0.043c-1.238-1.041-2.117-2.288-2.656-3.667c-0.007-0.013,0-0.033,0-0.043c-0.007-0.01,0-0.043,0-0.043
		c-0.128-0.341-0.23-0.607-0.296-0.847c-0.053-0.168-0.109-0.302-0.128-0.378c0-0.023,0.007-0.023,0-0.043
		c-0.059-0.279-0.095-0.571-0.128-0.843c-0.013-0.095-0.026-0.269-0.04-0.466c-0.02-0.24-0.04-0.279-0.046-0.253
		c0,0.007,0-0.04,0-0.046c0-0.007,0.007-0.076,0-0.207c0-0.135,0-0.204,0-0.338c0.007-0.122,0.007-0.181,0-0.082
		c0.007-0.109,0-0.128,0-0.128c0,0.013,0-0.046,0-0.043c0.007,0.03,0.026-0.017,0.046-0.253c0.007-0.148,0.026-0.312,0.04-0.423
		c0.007-0.02,0-0.02,0-0.043c0.033-0.273,0.069-0.565,0.128-0.843c0-0.013,0-0.03,0-0.043c0.013-0.063,0.069-0.191,0.128-0.381
		c0.066-0.24,0.168-0.505,0.296-0.843c0,0,0-0.036,0-0.043c0.538-1.405,1.425-2.712,2.656-3.755
		c2.892-2.439,5.091-2.334,7.803-2.193c2.712,0.141,6.02,0.364,9.195-2.321c3.181-2.682,3.463-5.964,3.713-8.604
		c0.256-2.636,0.443-4.727,3.335-7.169C71.573,42.187,73.69,41.432,75.818,41.386z"/>
	<path opacity="0.3" fill="#669CCC" enable-background="new    " d="M75.782,39.951c-2.449,0.056-4.878,0.926-6.88,2.617
		C62.473,48,67.463,53.604,61.853,58.344c-5.604,4.737-10.567-0.919-16.998,4.514c-1.425,1.208-2.455,2.728-3.079,4.343
		c-0.007,0.013,0.007,0.033,0,0.046c-0.122,0.328-0.243,0.627-0.341,0.969c-0.04,0.151-0.089,0.315-0.122,0.463
		c-0.007,0.02,0,0.03,0,0.046c-0.069,0.318-0.128,0.647-0.174,0.969c0,0.02,0.007,0.026,0,0.046
		c-0.013,0.148-0.026,0.315-0.04,0.463c-0.007,0.115-0.04,0.223-0.046,0.341c0,0.059,0,0.109,0,0.168c0,0.02,0,0.069,0,0.082
		c0,0.154,0,0.269,0,0.423c0,0.076,0,0.177,0,0.253c0.007,0.112,0.04,0.223,0.046,0.338c0.013,0.171,0.02,0.341,0.04,0.505
		c0.046,0.325,0.102,0.653,0.174,0.972c0.007,0.013-0.007,0.026,0,0.043c0.033,0.154,0.082,0.315,0.122,0.463
		c0.095,0.341,0.217,0.643,0.341,0.972c0.007,0.01-0.007,0.036,0,0.046c0.62,1.612,1.654,3.092,3.079,4.303v0.04
		c6.431,5.433,11.394-0.22,16.998,4.517c5.61,4.734,0.62,10.34,7.048,15.773c4.573,3.86,11.457,3.378,15.392-1.097
		c3.942-4.474,3.43-11.24-1.136-15.1c-6.431-5.433-11.394,0.22-16.998-4.514c-2.833-2.393-2.948-5.006-3.207-7.721
		c0.256-2.712,0.371-5.325,3.207-7.717c5.607-4.737,10.567,0.919,16.998-4.514c4.566-3.86,5.078-10.623,1.136-15.1
		C82.078,41.146,78.923,39.886,75.782,39.951z M75.818,42.607c2.396-0.049,4.776,0.923,6.457,2.826
		c2.981,3.391,2.623,8.374-0.847,11.306c-2.61,2.203-4.277,1.996-6.963,1.855c-2.679-0.138-6.532-0.299-10.035,2.659
		c-3.539,2.991-3.88,6.87-4.136,9.493c-0.013,0.168-0.013,0.335,0,0.502c0.256,2.623,0.597,6.5,4.136,9.49
		c3.503,2.961,7.356,2.8,10.035,2.659c2.685-0.141,4.353-0.341,6.963,1.855c3.47,2.935,3.828,7.915,0.847,11.302
		c-2.987,3.391-8.167,3.778-11.644,0.843c-2.61-2.203-2.662-3.759-2.912-6.365c-0.25-2.613-0.637-6.454-4.136-9.405
		c-3.5-2.958-7.347-2.797-10.035-2.659c-2.656,0.138-4.327,0.309-6.88-1.816c-0.026-0.026-0.053-0.013-0.082-0.043
		c0-0.013,0-0.03,0-0.043c-1.077-0.91-1.852-2.009-2.321-3.207c0-0.01,0.007-0.033,0-0.043c0-0.004,0-0.046,0-0.046
		c-0.128-0.341-0.204-0.558-0.25-0.715c-0.066-0.22-0.082-0.338-0.082-0.338c-0.007-0.023,0-0.023,0-0.043
		c-0.059-0.246-0.095-0.489-0.128-0.719c-0.007-0.033-0.026-0.158-0.046-0.381c-0.026-0.42-0.053-0.499-0.04-0.25
		c0.007,0.122,0.007,0.059,0-0.171c-0.007-0.122-0.007-0.213,0-0.338c0.007-0.204,0.007-0.233,0-0.046
		c0.007-0.217,0.007-0.256,0-0.125c-0.013,0.253,0.013,0.171,0.04-0.253c0.013-0.128,0.04-0.259,0.046-0.338c0-0.01,0-0.036,0-0.043
		c0.033-0.23,0.069-0.469,0.128-0.719c0-0.013,0-0.03,0-0.043c-0.007,0.017,0.02-0.109,0.082-0.338
		c0.046-0.161,0.122-0.371,0.25-0.719c0,0,0-0.04,0-0.043V68.11c0.476-1.211,1.27-2.36,2.321-3.25
		c2.61-2.199,4.277-1.993,6.963-1.855c2.685,0.141,6.532,0.302,10.035-2.656c3.5-2.954,3.887-6.795,4.136-9.405
		c0.25-2.61,0.302-4.166,2.912-6.368C72.164,43.296,73.966,42.65,75.818,42.607z"/>
	<path opacity="0.3" fill="#FFFFFF" enable-background="new    " d="M86.91,51.424c-0.204,2.731-1.467,5.41-3.752,7.34
		c-6.431,5.43-11.394-0.223-16.998,4.514c-2.833,2.393-2.948,5.006-3.207,7.717c0.02,0.227,0.066,0.45,0.082,0.676
		c0.236-2.472,0.525-4.852,3.122-7.045c5.607-4.737,10.567,0.916,16.998-4.514C85.82,57.858,87.09,54.621,86.91,51.424z
		 M41.106,71.672c-0.007,0.072-0.04,0.138-0.046,0.207c0,0.059,0,0.115,0,0.174c0,0.02,0,0.066,0,0.082c0,0.151,0,0.269,0,0.42
		c0,0.079,0,0.177,0,0.253c0.007,0.112,0.04,0.223,0.046,0.338c0.013,0.171,0.02,0.341,0.04,0.505
		c0.046,0.325,0.102,0.65,0.174,0.972c0.007,0.017-0.007,0.026,0,0.043c0.033,0.154,0.082,0.315,0.122,0.466
		c0.095,0.338,0.217,0.64,0.341,0.969c0.007,0.013-0.007,0.033,0,0.046c0.62,1.615,1.654,3.092,3.079,4.3v0.043
		c6.431,5.43,11.394-0.22,16.998,4.514c5.61,4.737,0.62,10.34,7.048,15.777c4.573,3.86,11.457,3.378,15.392-1.097
		c1.943-2.206,2.79-4.986,2.617-7.678c-0.141,2.258-0.995,4.484-2.617,6.329c-3.936,4.474-10.823,4.957-15.392,1.097
		c-6.428-5.43-1.438-11.036-7.048-15.773c-5.604-4.737-10.567,0.916-16.998-4.517v-0.04c-1.425-1.208-2.455-2.689-3.079-4.303
		c-0.007-0.01,0.007-0.036,0-0.046c-0.122-0.328-0.243-0.63-0.341-0.972c-0.04-0.148-0.089-0.309-0.122-0.463
		c-0.007-0.017,0.007-0.03,0-0.043c-0.069-0.318-0.128-0.647-0.174-0.972c-0.02-0.168-0.026-0.338-0.04-0.505
		C41.1,71.754,41.113,71.711,41.106,71.672z"/>
</g>
</svg>
