<?xml version="1.0" encoding="utf-8"?>
<!-- Generator: Adobe Illustrator 17.0.0, SVG Export Plug-In . SVG Version: 6.00 Build 0)  -->
<!DOCTYPE svg PUBLIC "-//W3C//DTD SVG 1.1//EN" "http://www.w3.org/Graphics/SVG/1.1/DTD/svg11.dtd">
<svg version="1.1" id="图层_1" xmlns="http://www.w3.org/2000/svg" xmlns:xlink="http://www.w3.org/1999/xlink" x="0px" y="0px"
	 width="128px" height="128px" viewBox="0 0 128 128" enable-background="new 0 0 128 128" xml:space="preserve">
<g id="g151" opacity="0.5">
	<path id="path153" opacity="0.08" enable-background="new    " d="M106.873,118.496H20.952c-7.91,0-14.357-6.201-14.357-13.797
		v10.553c0,5.936,5.043,10.748,11.222,10.748h92.188c6.178,0,11.151-4.812,11.151-10.748v-10.553
		C121.156,112.296,114.78,118.496,106.873,118.496z"/>
	<path id="path155" opacity="0.1" enable-background="new    " d="M106.8,118.496H20.879c-7.907,0-14.284-6.088-14.284-13.684v5.52
		c0,5.936,2.723,13.167,13.755,13.167s75.798,0,86.975,0s13.831-7.231,13.831-13.167v-5.52
		C121.156,112.408,114.707,118.496,106.8,118.496z"/>
	<path id="path157" opacity="0.1" enable-background="new    " d="M106.8,118.496H20.879c-7.907,0-14.284-6.088-14.284-13.684v2.979
		c0,5.938,4.723,13.207,13.755,13.207s76.636,0,86.975,0c10.342,0,13.831-7.269,13.831-13.204v-2.979
		C121.156,112.408,114.707,118.496,106.8,118.496z"/>
	<rect id="rect159" x="19.613" y="118.496" opacity="0.05" enable-background="new    " width="88.525" height="2.501"/>
	<rect id="rect161" x="22.217" y="118.496" opacity="0.05" enable-background="new    " width="80.714" height="2.501"/>
	<rect id="rect163" x="22.217" y="120.997" opacity="0.05" enable-background="new    " width="80.714" height="2.501"/>
	<rect id="rect165" x="27.424" y="120.997" opacity="0.05" enable-background="new    " width="72.903" height="2.501"/>
	<rect id="rect167" x="35.235" y="120.997" opacity="0.05" enable-background="new    " width="57.281" height="2.501"/>
	<rect id="rect169" x="45.65" y="120.997" opacity="0.05" enable-background="new    " width="36.451" height="2.501"/>
	<rect id="rect171" x="27.424" y="118.496" opacity="0.05" enable-background="new    " width="72.903" height="2.501"/>
	<rect id="rect173" x="32.632" y="118.496" opacity="0.05" enable-background="new    " width="62.488" height="2.501"/>
	<rect id="rect175" x="35.235" y="118.496" opacity="0.05" enable-background="new    " width="57.281" height="2.501"/>
	<rect id="rect177" x="40.443" y="118.496" opacity="0.05" enable-background="new    " width="46.866" height="2.501"/>
	<rect id="rect179" x="40.443" y="118.496" opacity="0.05" enable-background="new    " width="46.866" height="2.501"/>
</g>
<path fill="#C4DCED" stroke="#9DBCD7" stroke-width="2" stroke-miterlimit="10" d="M121,102.992c0,8.288-6.719,15.008-15.008,15.008
	H22.008C13.719,118,7,111.281,7,102.992V19.008C7,10.719,13.719,4,22.008,4h83.985C114.281,4,121,10.719,121,19.008V102.992z"/>
<path opacity="0.5" fill="none" stroke="#FFFFFF" stroke-width="2" stroke-miterlimit="10" enable-background="new    " d="
	M119,102.992c0,7.184-5.824,13.008-13.008,13.008H22.008C14.824,116,9,110.176,9,102.992V19.008C9,11.824,14.824,6,22.008,6h83.984
	C113.176,6,119,11.824,119,19.008V102.992z"/>
<path opacity="0.08" fill="none" stroke="#000000" stroke-miterlimit="10" enable-background="new    " d="M121.426,37.445
	c0,0,0-5.043-4.981-5.043c-14.457,0-60.62,0.008-64.752,0.008c-5.021,0-4.981-4.97-4.981-4.97s0-5.003-4.981-5.003
	c-8.719,0-26.182,0-29.886,0c-4.904,0-4.981,4.822-4.981,4.975"/>
<path opacity="0.05" fill="none" stroke="#000000" stroke-miterlimit="10" enable-background="new    " d="M121.405,36.445
	c0,0,0-5.043-4.981-5.043c-14.457,0-60.62,0.008-64.752,0.008c-5.021,0-4.981-4.97-4.981-4.97s0-5.003-4.981-5.003
	c-8.719,0-26.182,0-29.886,0c-4.904,0-4.981,4.822-4.981,4.975"/>
<path opacity="0.03" fill="none" stroke="#000000" stroke-miterlimit="10" enable-background="new    " d="M121.405,35.487
	c0,0,0-5.043-4.981-5.043c-14.457,0-60.62,0.008-64.752,0.008c-5.021,0-4.981-4.97-4.981-4.97s0-5.003-4.981-5.003
	c-8.719,0-26.182,0-29.886,0c-4.904,0-4.981,4.822-4.981,4.975"/>
<linearGradient id="SVGID_1_" gradientUnits="userSpaceOnUse" x1="612" y1="781" x2="612" y2="687" gradientTransform="matrix(1 0 0 1 -548 -663)">
	<stop  offset="0" style="stop-color:#D1E0ED"/>
	<stop  offset="1" style="stop-color:#E4EEFB"/>
</linearGradient>
<path fill="url(#SVGID_1_)" stroke="#9DBCD7" stroke-width="2" stroke-miterlimit="10" d="M21.975,118h84.298
	c8.288,0,14.727-6.891,14.727-15.18V35.522c0-1.181-1.766-2.295-4.117-2.295c-14.52,0-60.813,0.008-64.963,0.008
	c-5.043,0-4.967-4.601-4.967-4.601S46.988,24,41.985,24c-8.757,0-26.296,0-30.015,0C7.045,24,7,28.084,7,28.237v74.584
	C7,111.109,13.687,118,21.975,118z"/>
<path fill="none" stroke="#FFFFFF" stroke-width="2" stroke-miterlimit="10" d="M21.975,116C14.821,116,9,110.088,9,102.82V28.237
	c0-0.095,0.015-0.894,0.608-1.488C10.104,26.252,10.898,26,11.97,26h30.015c1.184,0,1.786,0.141,2.146,0.503
	c0.796,0.801,0.832,2.023,0.832,2.036c-0.004,0.261,0.011,2.87,1.945,4.833c1.232,1.25,2.921,1.884,5.02,1.884
	c0,0,55.49-0.021,64.952-0.021c1.25,0,1.942,0.428,2.12,0.636v66.951c0,7.268-5.709,13.18-12.727,13.18H21.975V116z"/>
<radialGradient id="SVGID_2_" cx="789.5878" cy="-462.9282" r="91.4084" gradientTransform="matrix(0.0197 0.9998 -0.9109 0.018 -377.3072 -736.0426)" gradientUnits="userSpaceOnUse">
	<stop  offset="0" style="stop-color:#FFFFFF;stop-opacity:0.6"/>
	<stop  offset="0.3783" style="stop-color:#FAFCFE;stop-opacity:0.4487"/>
	<stop  offset="0.829" style="stop-color:#EBF3FC;stop-opacity:0.2684"/>
	<stop  offset="1" style="stop-color:#E4EEFB;stop-opacity:0.2"/>
</radialGradient>
<path fill="url(#SVGID_2_)" d="M21.975,116C14.821,116,9,110.088,9,102.82V28.237c0-0.095,0.015-0.894,0.608-1.488
	C10.104,26.252,10.898,26,11.97,26h30.015c1.184,0,1.786,0.141,2.146,0.503c0.796,0.801,0.832,2.023,0.832,2.036
	c-0.004,0.261,0.011,2.87,1.945,4.833c1.232,1.25,2.921,1.884,5.02,1.884c0,0,55.49-0.021,64.952-0.021
	c1.25,0,1.942,0.428,2.12,0.636v66.951c0,7.268-5.709,13.18-12.727,13.18H21.975V116z"/>
<g id="g27_1_">
	
		<linearGradient id="path36_2_" gradientUnits="userSpaceOnUse" x1="970.7643" y1="1483.7594" x2="986.6021" y2="1511.191" gradientTransform="matrix(1 0 0 1 -960 -1481)">
		<stop  offset="0" style="stop-color:#FFFFFF"/>
		<stop  offset="0.5" style="stop-color:#FFFFFF;stop-opacity:0.6"/>
		<stop  offset="1" style="stop-color:#FFFFFF;stop-opacity:0.15"/>
	</linearGradient>
	<path id="path36_1_" fill="url(#path36_2_)" d="M23.823,34.852c1.771-3.665,3.932-7.099,6.411-10.274l-4.511-9.892
		c-3.853,3.642-6.98,7.655-9.476,11.552L23.823,34.852z"/>
	
		<linearGradient id="path45_2_" gradientUnits="userSpaceOnUse" x1="985.1246" y1="1479.6516" x2="995.4895" y2="1497.6047" gradientTransform="matrix(1 0 0 1 -960 -1481)">
		<stop  offset="0" style="stop-color:#FFFFFF"/>
		<stop  offset="0.5" style="stop-color:#FFFFFF;stop-opacity:0.6"/>
		<stop  offset="1" style="stop-color:#FFFFFF;stop-opacity:0.15"/>
	</linearGradient>
	<path id="path45_1_" fill="url(#path45_2_)" d="M24.292,5.178l2.358,5.167c2.269-1.884,4.756-2.532,7.468-5.167L24.292,5.178z"/>
	
		<linearGradient id="path54_2_" gradientUnits="userSpaceOnUse" x1="988.3846" y1="1476.2424" x2="1001.0488" y2="1498.1774" gradientTransform="matrix(1 0 0 1 -960 -1481)">
		<stop  offset="0" style="stop-color:#FFFFFF"/>
		<stop  offset="0.5" style="stop-color:#FFFFFF;stop-opacity:0.6"/>
		<stop  offset="1" style="stop-color:#FFFFFF;stop-opacity:0.15"/>
	</linearGradient>
	<path id="path54_1_" fill="url(#path54_2_)" d="M41.987,5.178h-1.866c-4.704,2.635-8.817,4.646-12.346,7.65l4.324,9.486
		c3.694-4.266,7.979-8.005,12.778-11.025c0.037-0.034,0.063-0.063,0.103-0.097C50.358,6.549,45.017,5.178,41.987,5.178z"/>
	
		<linearGradient id="path63_2_" gradientUnits="userSpaceOnUse" x1="961.876" y1="1496.2646" x2="975.6191" y2="1520.0684" gradientTransform="matrix(1 0 0 1 -960 -1481)">
		<stop  offset="0" style="stop-color:#FFFFFF"/>
		<stop  offset="0.5" style="stop-color:#FFFFFF;stop-opacity:0.6"/>
		<stop  offset="1" style="stop-color:#FFFFFF;stop-opacity:0.15"/>
	</linearGradient>
	<path id="path63_1_" fill="url(#path63_2_)" d="M14.808,28.591c-2.893,4.925-4.783,9.476-5.905,12.588
		c1.328,1.895,3.523,3.138,6.013,3.138c3.083,0,5.716-1.905,6.807-4.596c0.279-0.751,0.619-1.473,0.93-2.213L14.808,28.591z"/>
	
		<linearGradient id="path72_2_" gradientUnits="userSpaceOnUse" x1="961.2581" y1="1497.2399" x2="976.4891" y2="1523.6207" gradientTransform="matrix(1 0 0 1 -960 -1481)">
		<stop  offset="0" style="stop-color:#FFFFFF"/>
		<stop  offset="0.5" style="stop-color:#FFFFFF;stop-opacity:0.6"/>
		<stop  offset="1" style="stop-color:#FFFFFF;stop-opacity:0.15"/>
	</linearGradient>
	<path id="path72_1_" fill="url(#path72_2_)" d="M7.627,20.42L7.569,36.958c0,0,0,0.005,0,0.011c0,0.103,0.026,0.2,0.032,0.303
		c1.257-3.059,3.012-6.799,5.394-10.749L7.627,20.42z"/>
	
		<linearGradient id="path149_2_" gradientUnits="userSpaceOnUse" x1="972.7764" y1="1488.978" x2="987.0781" y2="1513.7493" gradientTransform="matrix(1 0 0 1 -960 -1481)">
		<stop  offset="0" style="stop-color:#FFFFFF"/>
		<stop  offset="0.5" style="stop-color:#FFFFFF;stop-opacity:0.6"/>
		<stop  offset="1" style="stop-color:#FFFFFF;stop-opacity:0.15"/>
	</linearGradient>
	<path id="path149_1_" fill="url(#path149_2_)" d="M21.151,5.21C15.778,4.763,8.702,10.817,7.793,16.62l6.667,7.581
		c2.661-4.061,5.971-8.222,10.053-11.979L21.151,5.21z"/>
</g>
<g>
	<path opacity="0.3" fill="#FFFFFF" enable-background="new    " d="M60.528,41.511c-2.247,0-4.078,1.897-4.078,4.116v2.042
		c-0.758,0.272-1.475,0.587-2.186,0.931l-1.429-1.466c-0.011,0-0.023,0-0.035,0c-1.548-1.55-4.174-1.625-5.761-0.038l-4.938,4.94
		c-1.594,1.588-1.512,4.214,0.029,5.764c0,0.009,0,0.023,0,0.035l1.475,1.435c-0.344,0.711-0.662,1.429-0.937,2.181h-2.039
		c-2.216,0-4.119,1.831-4.119,4.078v6.941c0,2.259,1.903,4.084,4.119,4.084h2.039c0.277,0.752,0.593,1.469,0.937,2.187L42.13,80.17
		c0,0.011,0,0.023,0,0.035c-1.541,1.547-1.622,4.173-0.029,5.761l4.938,4.943c0.847,0.848,1.949,1.186,2.933,1.18
		c1.039-0.011,2.08-0.469,2.831-1.221c0.011,0,0.023,0,0.035,0l1.429-1.469c0.711,0.344,1.429,0.662,2.187,0.931v2.039
		c0,2.227,1.831,4.119,4.079,4.119h6.941c2.252,0,4.083-1.892,4.083-4.119v-2.039c0.752-0.272,1.469-0.587,2.187-0.931l1.429,1.469
		c0.012,0,0.024,0,0.041,0c1.547,1.553,4.168,1.625,5.761,0.041l4.938-4.943c1.588-1.588,1.512-4.214-0.041-5.761
		c0-0.011,0-0.023,0-0.035l-1.463-1.429c0.338-0.717,0.662-1.435,0.931-2.187h2.039c2.216,0,4.113-1.825,4.113-4.084V65.53
		c0-2.247-1.898-4.078-4.113-4.078h-2.039c-0.272-0.755-0.593-1.472-0.931-2.181l1.463-1.435c0-0.011,0-0.023,0-0.035
		c1.553-1.55,1.625-4.173,0.041-5.764l-4.938-4.94c-1.593-1.588-4.214-1.513-5.761,0.038c-0.017,0-0.029,0-0.041,0L73.742,48.6
		c-0.717-0.347-1.435-0.662-2.187-0.931v-2.042c0-2.218-1.831-4.116-4.083-4.116H60.528z M60.528,43.799h6.941
		c0.995,0,1.791,0.818,1.791,1.825v3.546c1.773,0.472,3.497,1.209,5.05,2.111l2.508-2.54c0.712-0.714,1.837-0.735,2.537-0.038
		l4.944,4.94c0.7,0.703,0.677,1.828-0.041,2.542l-2.542,2.505c0.902,1.55,1.637,3.271,2.117,5.044h3.543
		c1.007,0,1.825,0.801,1.825,1.79v6.943c0,0.995-0.818,1.796-1.825,1.796h-3.543c-0.48,1.773-1.215,3.497-2.117,5.044l2.542,2.502
		c0.718,0.711,0.741,1.842,0.041,2.542l-4.944,4.943c-0.7,0.7-1.825,0.677-2.537-0.035l-2.508-2.548
		c-1.553,0.903-3.277,1.643-5.05,2.111v3.543c0,1.012-0.796,1.831-1.791,1.831h-6.941c-0.989,0-1.79-0.818-1.79-1.831v-3.543
		c-1.772-0.469-3.491-1.209-5.044-2.111l-2.508,2.548c-0.356,0.356-0.79,0.527-1.25,0.532c-0.463,0.006-0.937-0.148-1.287-0.497
		l-4.943-4.943c-0.7-0.7-0.672-1.831,0.04-2.542l2.537-2.502c-0.9-1.547-1.631-3.271-2.111-5.044h-3.543
		c-1.007,0-1.819-0.801-1.819-1.796v-6.941c0-0.989,0.812-1.79,1.819-1.79h3.543c0.48-1.77,1.215-3.494,2.111-5.044l-2.537-2.505
		c-0.711-0.714-0.741-1.84-0.04-2.542l4.943-4.94c0.7-0.7,1.831-0.677,2.537,0.038l2.508,2.54c1.553-0.903,3.271-1.64,5.044-2.111
		v-3.546C58.737,44.618,59.539,43.799,60.528,43.799z M64.002,61.376c-4.203,0-7.622,3.421-7.622,7.624s3.419,7.627,7.622,7.627
		c4.203,0,7.624-3.424,7.624-7.627S68.204,61.376,64.002,61.376z M64.002,63.667c2.958,0,5.33,2.366,5.33,5.333
		c0,2.959-2.372,5.333-5.33,5.333c-2.959,0-5.334-2.372-5.334-5.333C58.668,66.036,61.043,63.667,64.002,63.667z"/>
	<path opacity="0.3" fill="#FFFFFF" enable-background="new    " d="M60.528,42.657c-1.617,0-2.933,1.359-2.933,2.971v2.794
		c-1.27,0.399-2.496,0.891-3.656,1.501l-1.926-1.97c0-0.011,0-0.023,0-0.035c-1.137-1.134-3.045-1.18-4.191-0.035l-4.937,4.937
		c-1.145,1.145-1.096,3.057,0.035,4.188c0.011,0,0.023,0,0.035,0l1.973,1.932c-0.61,1.154-1.102,2.38-1.504,3.653h-2.797
		c-1.611,0-2.971,1.31-2.971,2.933v6.941c0,1.623,1.362,2.938,2.971,2.938h2.797c0.402,1.27,0.894,2.502,1.504,3.65l-1.973,1.938
		c-0.011,0-0.023,0-0.035,0c-1.131,1.131-1.18,3.04-0.035,4.185l4.937,4.937c0.599,0.599,1.388,0.836,2.111,0.824
		c0.752-0.006,1.524-0.304,2.08-0.859c0-0.011,0-0.029,0-0.041l1.926-1.961c1.157,0.604,2.383,1.096,3.656,1.498v2.791
		c0,1.617,1.316,2.976,2.933,2.976h6.941c1.625,0,2.938-1.362,2.938-2.976v-2.791c1.27-0.402,2.496-0.894,3.656-1.498l1.931,1.961
		c0,0.011,0,0.029,0,0.041c1.131,1.131,3.04,1.18,4.185,0.035l4.943-4.937c1.142-1.145,1.096-3.057-0.04-4.185
		c-0.012,0-0.024,0-0.035,0l-1.973-1.938c0.616-1.145,1.108-2.378,1.504-3.65h2.796c1.611,0,2.971-1.316,2.971-2.938v-6.941
		c0-1.623-1.362-2.933-2.971-2.933H84.58c-0.396-1.27-0.889-2.499-1.504-3.653l1.973-1.932c0.011,0,0.023,0,0.035,0
		c1.136-1.131,1.18-3.043,0.04-4.188l-4.943-4.94c-1.145-1.145-3.057-1.096-4.185,0.035c0,0.011,0,0.023,0,0.035l-1.931,1.97
		c-1.158-0.61-2.384-1.102-3.656-1.501v-2.794c0-1.611-1.31-2.971-2.938-2.971h-6.941V42.657z M60.528,43.799h6.941
		c0.995,0,1.791,0.818,1.791,1.825v3.546c1.773,0.472,3.496,1.209,5.05,2.111l2.508-2.54c0.712-0.714,1.837-0.735,2.537-0.038
		l4.944,4.94c0.7,0.703,0.676,1.828-0.041,2.542l-2.542,2.505c0.903,1.55,1.637,3.271,2.118,5.044h3.543
		c1.007,0,1.825,0.801,1.825,1.79v6.943c0,0.995-0.818,1.796-1.825,1.796h-3.543c-0.48,1.773-1.215,3.497-2.118,5.044l2.542,2.502
		c0.717,0.711,0.741,1.842,0.041,2.542l-4.944,4.943c-0.7,0.7-1.825,0.677-2.537-0.035l-2.508-2.548
		c-1.553,0.903-3.277,1.643-5.05,2.111v3.543c0,1.012-0.796,1.831-1.791,1.831h-6.941c-0.989,0-1.79-0.818-1.79-1.831v-3.543
		c-1.773-0.469-3.491-1.209-5.044-2.111l-2.507,2.548c-0.356,0.356-0.79,0.527-1.25,0.532c-0.463,0.006-0.937-0.148-1.287-0.497
		l-4.943-4.943c-0.7-0.7-0.671-1.831,0.041-2.542l2.537-2.502c-0.9-1.547-1.631-3.271-2.111-5.044h-3.544
		c-1.007,0-1.819-0.801-1.819-1.796v-6.941c0-0.989,0.812-1.79,1.819-1.79h3.544c0.48-1.77,1.214-3.494,2.111-5.044l-2.537-2.505
		c-0.711-0.714-0.741-1.84-0.041-2.542l4.943-4.94c0.7-0.7,1.831-0.677,2.537,0.038l2.508,2.54c1.553-0.903,3.271-1.64,5.044-2.111
		v-3.546C58.737,44.618,59.539,43.799,60.528,43.799z M64.001,61.376c-4.203,0-7.621,3.421-7.621,7.624s3.419,7.627,7.621,7.627
		c4.203,0,7.624-3.424,7.624-7.627S68.204,61.376,64.001,61.376z M64.001,62.521c3.586,0,6.479,2.892,6.479,6.479
		c0,3.581-2.892,6.479-6.479,6.479c-3.586,0-6.473-2.898-6.473-6.479C57.529,65.414,60.415,62.521,64.001,62.521z"/>
	<path opacity="0.3" fill="#669CCC" enable-background="new    " d="M60.523,94.201c-0.989,0-1.796-0.824-1.796-1.837v-3.552
		c-1.767-0.469-3.468-1.186-5.015-2.085l-2.531,2.531c-0.356,0.35-0.781,0.538-1.244,0.544c-0.457,0.006-0.925-0.159-1.281-0.515
		l-4.942-4.943c-0.7-0.694-0.677-1.813,0.041-2.525l2.525-2.525c-0.903-1.547-1.611-3.242-2.091-5.015h-3.555
		c-1.006,0-1.824-0.801-1.824-1.796v-6.959c0-0.995,0.818-1.79,1.824-1.79h3.555c0.48-1.776,1.185-3.471,2.091-5.021l-2.525-2.528
		c-0.717-0.714-0.741-1.825-0.041-2.525l4.943-4.946c0.706-0.7,1.82-0.674,2.525,0.038l2.531,2.528
		c1.547-0.903,3.248-1.617,5.015-2.088v-3.555c0-1.01,0.807-1.834,1.796-1.834h6.958c0.99,0,1.797,0.824,1.797,1.834v3.555
		c1.772,0.472,3.468,1.186,5.009,2.088l2.537-2.528c0.712-0.711,1.825-0.738,2.525-0.038l4.944,4.946
		c0.7,0.7,0.677,1.811-0.035,2.525l-2.53,2.528c0.903,1.55,1.617,3.245,2.091,5.021h3.555c1.007,0,1.831,0.796,1.831,1.79v6.959
		c0,0.995-0.824,1.796-1.831,1.796h-3.555c-0.474,1.773-1.186,3.468-2.091,5.015l2.53,2.525c0.712,0.711,0.735,1.831,0.035,2.525
		l-4.944,4.943c-0.7,0.711-1.813,0.683-2.525-0.029l-2.537-2.531c-1.541,0.9-3.237,1.617-5.009,2.085v3.555
		c0,1.012-0.807,1.837-1.797,1.837h-6.958V94.201z M64.002,76.621c4.203,0,7.619-3.419,7.619-7.621s-3.419-7.621-7.619-7.621
		c-4.203,0-7.616,3.419-7.616,7.621C56.386,73.203,59.799,76.621,64.002,76.621z"/>
	<path opacity="0.3" fill="#669CCC" enable-background="new    " d="M60.528,43.799c-0.989,0-1.79,0.818-1.79,1.825v3.546
		c-1.773,0.472-3.492,1.209-5.044,2.111l-2.508-2.54c-0.706-0.714-1.837-0.735-2.537-0.038l-4.943,4.94
		c-0.7,0.703-0.672,1.828,0.041,2.542l2.536,2.505c-0.9,1.55-1.631,3.271-2.111,5.044h-3.543c-1.007,0-1.819,0.801-1.819,1.79v6.943
		c0,0.995,0.812,1.796,1.819,1.796h3.543c0.48,1.773,1.215,3.497,2.111,5.044l-2.536,2.502c-0.711,0.711-0.741,1.842-0.041,2.542
		l4.943,4.943c0.351,0.35,0.825,0.503,1.287,0.497c0.457-0.006,0.894-0.176,1.25-0.532l2.508-2.548
		c1.553,0.903,3.271,1.643,5.044,2.111v3.543c0,1.012,0.801,1.831,1.79,1.831h6.942c0.995,0,1.79-0.818,1.79-1.831v-3.543
		c1.773-0.469,3.497-1.209,5.051-2.111l2.508,2.548c0.711,0.711,1.837,0.735,2.537,0.035l4.943-4.943
		c0.7-0.7,0.677-1.831-0.04-2.542l-2.543-2.502c0.903-1.547,1.638-3.271,2.117-5.044h3.544c1.007,0,1.825-0.801,1.825-1.796v-6.941
		c0-0.989-0.818-1.79-1.825-1.79h-3.544c-0.48-1.77-1.214-3.494-2.117-5.044l2.543-2.505c0.717-0.714,0.741-1.84,0.04-2.542
		l-4.943-4.94c-0.7-0.7-1.825-0.677-2.537,0.038l-2.508,2.54c-1.553-0.903-3.277-1.64-5.051-2.111v-3.546
		c0-1.01-0.796-1.825-1.79-1.825C67.47,43.799,60.528,43.799,60.528,43.799z M61.031,46.093h5.941v3.078
		c0,1.044,0.705,1.958,1.712,2.218c1.564,0.417,3.095,1.059,4.48,1.863c0.903,0.532,2.056,0.387,2.791-0.362l2.187-2.181
		l4.154,4.154l-2.181,2.181c-0.746,0.741-0.894,1.892-0.362,2.794c0.801,1.385,1.446,2.918,1.866,4.475
		c0.26,1.012,1.174,1.718,2.221,1.718h3.072v5.944H83.84c-1.044,0-1.961,0.706-2.221,1.718c-0.42,1.553-1.062,3.095-1.866,4.475
		c-0.532,0.9-0.385,2.051,0.362,2.791l2.181,2.187l-4.154,4.148l-2.187-2.181c-0.735-0.746-1.886-0.888-2.791-0.356
		c-1.385,0.801-2.916,1.446-4.48,1.86c-1.007,0.26-1.712,1.174-1.712,2.221v3.078h-5.941v-3.078c0-1.044-0.705-1.961-1.717-2.221
		c-1.559-0.414-3.089-1.056-4.475-1.86c-0.903-0.532-2.051-0.39-2.791,0.356l-2.187,2.181l-4.154-4.148l2.187-2.187
		c0.741-0.741,0.888-1.892,0.355-2.791c-0.801-1.38-1.446-2.921-1.859-4.475c-0.266-1.012-1.18-1.718-2.228-1.718h-3.071V66.03
		h3.071c1.044,0,1.961-0.706,2.228-1.718c0.414-1.556,1.055-3.089,1.859-4.475c0.532-0.903,0.385-2.054-0.355-2.794l-2.187-2.181
		l4.154-4.154l2.187,2.181c0.741,0.746,1.886,0.891,2.791,0.362c1.386-0.804,2.915-1.446,4.475-1.863
		c1.012-0.261,1.717-1.174,1.717-2.218V46.093z M64.002,59.088c-5.446,0-9.915,4.469-9.915,9.915c0,5.452,4.469,9.921,9.915,9.921
		c5.443,0,9.912-4.469,9.912-9.921C73.914,63.554,69.448,59.088,64.002,59.088z M64.002,61.376c4.203,0,7.624,3.421,7.624,7.624
		s-3.424,7.627-7.624,7.627c-4.203,0-7.622-3.424-7.622-7.627C56.38,64.798,59.799,61.376,64.002,61.376z"/>
	<path opacity="0.3" fill="#669CCC" enable-background="new    " d="M60.528,43.799c-0.989,0-1.79,0.818-1.79,1.825v3.546
		c-1.773,0.472-3.492,1.209-5.044,2.111l-2.508-2.54c-0.706-0.714-1.837-0.735-2.537-0.038l-4.943,4.94
		c-0.7,0.703-0.672,1.828,0.041,2.542l2.536,2.505c-0.9,1.55-1.631,3.271-2.111,5.044h-3.543c-1.007,0-1.819,0.801-1.819,1.79v6.943
		c0,0.995,0.812,1.796,1.819,1.796h3.543c0.48,1.773,1.215,3.497,2.111,5.044l-2.536,2.502c-0.711,0.711-0.741,1.842-0.041,2.542
		l4.943,4.943c0.351,0.35,0.825,0.503,1.287,0.497c0.457-0.006,0.894-0.176,1.25-0.532l2.508-2.548
		c1.553,0.903,3.271,1.643,5.044,2.111v3.543c0,1.012,0.801,1.831,1.79,1.831h6.942c0.995,0,1.79-0.818,1.79-1.831v-3.543
		c1.773-0.469,3.497-1.209,5.051-2.111l2.508,2.548c0.711,0.711,1.837,0.735,2.537,0.035l4.943-4.943
		c0.7-0.7,0.677-1.831-0.04-2.542l-2.543-2.502c0.903-1.547,1.638-3.271,2.117-5.044h3.544c1.007,0,1.825-0.801,1.825-1.796v-6.941
		c0-0.989-0.818-1.79-1.825-1.79h-3.544c-0.48-1.77-1.214-3.494-2.117-5.044l2.543-2.505c0.717-0.714,0.741-1.84,0.04-2.542
		l-4.943-4.94c-0.7-0.7-1.825-0.677-2.537,0.038l-2.508,2.54c-1.553-0.903-3.277-1.64-5.051-2.111v-3.546
		c0-1.01-0.796-1.825-1.79-1.825C67.47,43.799,60.528,43.799,60.528,43.799z M60.528,44.948h6.941c0.368,0,0.651,0.275,0.651,0.677
		v3.546c0,0.521,0.35,0.978,0.859,1.108c1.66,0.445,3.294,1.151,4.76,2.004c0.451,0.258,1.033,0.173,1.394-0.214l2.502-2.505
		c0.295-0.298,0.639-0.295,0.894-0.038l4.943,4.94c0.255,0.258,0.255,0.599-0.035,0.897l-2.508,2.505
		c-0.384,0.362-0.474,0.937-0.214,1.397c0.853,1.466,1.559,3.092,2.004,4.758c0.13,0.509,0.587,0.859,1.114,0.859h3.543
		c0.403,0,0.683,0.283,0.683,0.645v6.942c0,0.368-0.283,0.651-0.683,0.651h-3.543c-0.527,0-0.984,0.35-1.114,0.853
		c-0.445,1.666-1.151,3.3-2.004,4.766c-0.26,0.457-0.17,1.032,0.214,1.388l2.508,2.508c0.29,0.301,0.29,0.634,0.035,0.894
		l-4.943,4.943c-0.255,0.26-0.599,0.26-0.894-0.035l-2.502-2.508c-0.362-0.385-0.943-0.475-1.394-0.214
		c-1.469,0.853-3.1,1.559-4.76,2.004c-0.51,0.13-0.859,0.587-0.859,1.108v3.543c0,0.408-0.283,0.683-0.651,0.683h-6.941
		c-0.362,0-0.645-0.278-0.645-0.683v-3.543c0-0.521-0.35-0.978-0.859-1.108c-1.665-0.445-3.294-1.151-4.76-2.004
		c-0.457-0.261-1.033-0.171-1.394,0.214l-2.502,2.508c-0.159,0.159-0.255,0.208-0.428,0.208c-0.203,0.006-0.368-0.072-0.463-0.176
		l-4.943-4.943c-0.261-0.26-0.261-0.593,0.04-0.894l2.502-2.508c0.391-0.356,0.475-0.931,0.214-1.388
		c-0.853-1.469-1.565-3.1-2.004-4.766c-0.131-0.503-0.587-0.853-1.114-0.853h-3.543c-0.403,0-0.671-0.283-0.671-0.651v-6.941
		c0-0.362,0.272-0.645,0.671-0.645h3.543c0.527,0,0.983-0.35,1.114-0.859c0.44-1.666,1.151-3.292,2.004-4.758
		c0.26-0.46,0.176-1.035-0.214-1.397l-2.502-2.505c-0.301-0.298-0.301-0.637-0.04-0.897l4.943-4.94
		c0.254-0.258,0.593-0.26,0.893,0.038l2.502,2.505c0.362,0.385,0.937,0.472,1.394,0.214c1.47-0.853,3.095-1.559,4.761-2.004
		c0.509-0.13,0.859-0.587,0.859-1.108v-3.546C59.883,45.226,60.167,44.948,60.528,44.948z M64.002,60.231
		c-4.824,0-8.767,3.945-8.767,8.769s3.943,8.767,8.767,8.767c4.821,0,8.766-3.942,8.766-8.767S68.826,60.231,64.002,60.231z
		 M64.002,61.376c4.203,0,7.624,3.421,7.624,7.624s-3.424,7.627-7.624,7.627c-4.203,0-7.622-3.424-7.622-7.627
		C56.38,64.798,59.799,61.376,64.002,61.376z"/>
	<path opacity="0.3" fill="#669CCC" enable-background="new    " d="M60.528,43.799c-0.989,0-1.79,0.818-1.79,1.825v1.145
		c0-1.01,0.801-1.825,1.79-1.825h6.941c0.995,0,1.791,0.816,1.791,1.825v-1.145c0-1.01-0.796-1.825-1.791-1.825H60.528z
		 M49.901,48.205c-0.457-0.009-0.902,0.151-1.255,0.5l-4.944,4.94c-0.475,0.48-0.576,1.148-0.396,1.753
		c0.084-0.214,0.219-0.431,0.396-0.607l4.944-4.94c0.7-0.703,1.83-0.677,2.536,0.038l2.508,2.542
		c1.553-0.903,3.271-1.643,5.044-2.114v-1.145c-1.773,0.472-3.491,1.209-5.044,2.111l-2.508-2.54
		C50.83,48.384,50.352,48.213,49.901,48.205z M78.108,48.205c-0.458,0.009-0.932,0.179-1.287,0.538l-2.508,2.54
		c-1.553-0.903-3.277-1.64-5.051-2.111v1.145c1.773,0.472,3.497,1.209,5.051,2.114l2.508-2.542c0.711-0.714,1.836-0.741,2.536-0.038
		l4.943,4.94c0.177,0.176,0.31,0.393,0.391,0.607c0.191-0.601,0.083-1.273-0.391-1.753l-4.943-4.94
		C79.004,48.355,78.559,48.196,78.108,48.205z M45.893,59.444c-0.711,1.348-1.316,2.794-1.724,4.292h-3.543
		c-1.006,0-1.819,0.801-1.819,1.79v1.145c0-0.989,0.813-1.79,1.819-1.79h3.543c0.48-1.773,1.215-3.494,2.112-5.044L45.893,59.444z
		 M82.111,59.444l-0.396,0.393c0.902,1.55,1.637,3.271,2.117,5.044h3.543c1.007,0,1.825,0.801,1.825,1.79v-1.145
		c0-0.989-0.818-1.79-1.825-1.79h-3.543C83.43,62.238,82.825,60.792,82.111,59.444z M56.409,69.576
		c-0.006,0.185-0.029,0.379-0.029,0.564c0,4.209,3.419,7.627,7.622,7.627c4.202,0,7.624-3.419,7.624-7.627
		c0-0.185-0.024-0.379-0.041-0.564c-0.289,3.937-3.569,7.051-7.586,7.051C59.987,76.627,56.704,73.515,56.409,69.576z
		 M45.893,79.705l-2.146,2.109c-0.526,0.532-0.665,1.261-0.433,1.903c0.09-0.278,0.214-0.538,0.433-0.758l2.537-2.502
		C46.145,80.214,46.02,79.954,45.893,79.705z M82.111,79.705c-0.13,0.249-0.255,0.509-0.396,0.752l2.542,2.502
		c0.22,0.22,0.345,0.48,0.428,0.758c0.243-0.645,0.095-1.374-0.428-1.903L82.111,79.705z"/>
	<path opacity="0.3" fill="#FFFFFF" enable-background="new    " d="M43.31,55.435c-0.231,0.634-0.095,1.371,0.434,1.897
		l2.146,2.111c0.131-0.246,0.255-0.512,0.391-0.752l-2.537-2.505C43.524,55.967,43.4,55.701,43.31,55.435z M84.688,55.435
		c-0.084,0.266-0.208,0.532-0.428,0.752l-2.542,2.505c0.142,0.24,0.266,0.506,0.397,0.752l2.146-2.111
		C84.783,56.806,84.931,56.071,84.688,55.435z M64.002,61.376c-4.203,0-7.622,3.421-7.622,7.624c0,0.191,0.023,0.385,0.029,0.576
		c0.295-3.942,3.575-7.054,7.593-7.054c4.014,0,7.297,3.112,7.586,7.054c0.017-0.191,0.041-0.385,0.041-0.576
		C71.626,64.798,68.204,61.376,64.002,61.376z M38.807,72.468v1.145c0,0.995,0.813,1.79,1.819,1.79h3.543
		c0.408,1.498,1.013,2.95,1.724,4.298l0.39-0.396c-0.9-1.547-1.631-3.271-2.111-5.044h-3.543
		C39.622,74.267,38.807,73.463,38.807,72.468z M89.202,72.468c0,0.995-0.818,1.796-1.825,1.796h-3.543
		c-0.48,1.773-1.215,3.497-2.118,5.044l0.397,0.396c0.711-1.351,1.316-2.803,1.723-4.298h3.544c1.007,0,1.825-0.796,1.825-1.79
		v-1.148H89.202z M43.31,83.745c-0.179,0.61-0.078,1.281,0.397,1.756l4.943,4.937c0.35,0.356,0.824,0.509,1.287,0.503
		c0.457-0.006,0.894-0.176,1.25-0.538l2.508-2.542c1.553,0.9,3.271,1.643,5.044,2.111v-1.145c-1.773-0.469-3.492-1.209-5.044-2.111
		l-2.508,2.548c-0.356,0.356-0.79,0.527-1.25,0.532c-0.463,0.006-0.937-0.148-1.287-0.497l-4.943-4.943
		C43.53,84.179,43.394,83.959,43.31,83.745z M69.26,88.827v1.145c1.773-0.469,3.497-1.215,5.051-2.111l2.508,2.542
		c0.711,0.717,1.837,0.735,2.537,0.035l4.943-4.937c0.475-0.475,0.582-1.145,0.39-1.756c-0.078,0.214-0.214,0.434-0.39,0.61
		l-4.943,4.943c-0.7,0.7-1.825,0.677-2.537-0.035l-2.508-2.548C72.756,87.618,71.033,88.359,69.26,88.827 M58.738,92.37v1.145
		c0,1.012,0.801,1.831,1.79,1.831h6.941c0.995,0,1.791-0.818,1.791-1.831V92.37c0,1.012-0.796,1.831-1.791,1.831h-6.941
		C59.539,94.201,58.738,93.383,58.738,92.37z"/>
</g>
</svg>
