<?xml version="1.0" encoding="utf-8"?>
<!-- Generator: Adobe Illustrator 17.0.0, SVG Export Plug-In . SVG Version: 6.00 Build 0)  -->
<!DOCTYPE svg PUBLIC "-//W3C//DTD SVG 1.1//EN" "http://www.w3.org/Graphics/SVG/1.1/DTD/svg11.dtd">
<svg version="1.1" id="图层_1" xmlns="http://www.w3.org/2000/svg" xmlns:xlink="http://www.w3.org/1999/xlink" x="0px" y="0px"
	 width="128px" height="128px" viewBox="0 0 128 128" enable-background="new 0 0 128 128" xml:space="preserve">
<g id="g151" opacity="0.5">
	<path id="path153" opacity="0.08" enable-background="new    " d="M106.873,118.496H20.952c-7.91,0-14.357-6.201-14.357-13.797
		v10.553c0,5.936,5.043,10.748,11.222,10.748h92.188c6.178,0,11.151-4.812,11.151-10.748v-10.553
		C121.156,112.296,114.78,118.496,106.873,118.496z"/>
	<path id="path155" opacity="0.1" enable-background="new    " d="M106.8,118.496H20.879c-7.907,0-14.284-6.088-14.284-13.684v5.52
		c0,5.936,2.723,13.167,13.755,13.167s75.798,0,86.975,0s13.831-7.231,13.831-13.167v-5.52
		C121.156,112.408,114.707,118.496,106.8,118.496z"/>
	<path id="path157" opacity="0.1" enable-background="new    " d="M106.8,118.496H20.879c-7.907,0-14.284-6.088-14.284-13.684v2.979
		c0,5.938,4.723,13.207,13.755,13.207s76.636,0,86.975,0c10.342,0,13.831-7.269,13.831-13.204v-2.979
		C121.156,112.408,114.707,118.496,106.8,118.496z"/>
	<rect id="rect159" x="19.613" y="118.496" opacity="0.05" enable-background="new    " width="88.525" height="2.501"/>
	<rect id="rect161" x="22.217" y="118.496" opacity="0.05" enable-background="new    " width="80.714" height="2.501"/>
	<rect id="rect163" x="22.217" y="120.997" opacity="0.05" enable-background="new    " width="80.714" height="2.501"/>
	<rect id="rect165" x="27.424" y="120.997" opacity="0.05" enable-background="new    " width="72.903" height="2.501"/>
	<rect id="rect167" x="35.235" y="120.997" opacity="0.05" enable-background="new    " width="57.281" height="2.501"/>
	<rect id="rect169" x="45.65" y="120.997" opacity="0.05" enable-background="new    " width="36.451" height="2.501"/>
	<rect id="rect171" x="27.424" y="118.496" opacity="0.05" enable-background="new    " width="72.903" height="2.501"/>
	<rect id="rect173" x="32.632" y="118.496" opacity="0.05" enable-background="new    " width="62.488" height="2.501"/>
	<rect id="rect175" x="35.235" y="118.496" opacity="0.05" enable-background="new    " width="57.281" height="2.501"/>
	<rect id="rect177" x="40.443" y="118.496" opacity="0.05" enable-background="new    " width="46.866" height="2.501"/>
	<rect id="rect179" x="40.443" y="118.496" opacity="0.05" enable-background="new    " width="46.866" height="2.501"/>
</g>
<path fill="#C4DCED" stroke="#9DBCD7" stroke-width="2" stroke-miterlimit="10" d="M121,102.992c0,8.288-6.719,15.008-15.008,15.008
	H22.008C13.719,118,7,111.281,7,102.992V19.008C7,10.719,13.719,4,22.008,4h83.985C114.281,4,121,10.719,121,19.008V102.992z"/>
<path opacity="0.5" fill="none" stroke="#FFFFFF" stroke-width="2" stroke-miterlimit="10" enable-background="new    " d="
	M119,102.992c0,7.184-5.824,13.008-13.008,13.008H22.008C14.824,116,9,110.176,9,102.992V19.008C9,11.824,14.824,6,22.008,6h83.984
	C113.176,6,119,11.824,119,19.008V102.992z"/>
<path opacity="0.08" fill="none" stroke="#000000" stroke-miterlimit="10" enable-background="new    " d="M121.426,37.445
	c0,0,0-5.043-4.981-5.043c-14.457,0-60.62,0.008-64.752,0.008c-5.021,0-4.981-4.97-4.981-4.97s0-5.003-4.981-5.003
	c-8.719,0-26.182,0-29.886,0c-4.904,0-4.981,4.822-4.981,4.975"/>
<path opacity="0.05" fill="none" stroke="#000000" stroke-miterlimit="10" enable-background="new    " d="M121.405,36.445
	c0,0,0-5.043-4.981-5.043c-14.457,0-60.62,0.008-64.752,0.008c-5.021,0-4.981-4.97-4.981-4.97s0-5.003-4.981-5.003
	c-8.719,0-26.182,0-29.886,0c-4.904,0-4.981,4.822-4.981,4.975"/>
<path opacity="0.03" fill="none" stroke="#000000" stroke-miterlimit="10" enable-background="new    " d="M121.405,35.487
	c0,0,0-5.043-4.981-5.043c-14.457,0-60.62,0.008-64.752,0.008c-5.021,0-4.981-4.97-4.981-4.97s0-5.003-4.981-5.003
	c-8.719,0-26.182,0-29.886,0c-4.904,0-4.981,4.822-4.981,4.975"/>
<linearGradient id="SVGID_1_" gradientUnits="userSpaceOnUse" x1="612" y1="781" x2="612" y2="687" gradientTransform="matrix(1 0 0 1 -548 -663)">
	<stop  offset="0" style="stop-color:#D1E0ED"/>
	<stop  offset="1" style="stop-color:#E4EEFB"/>
</linearGradient>
<path fill="url(#SVGID_1_)" stroke="#9DBCD7" stroke-width="2" stroke-miterlimit="10" d="M21.975,118h84.298
	c8.288,0,14.727-6.891,14.727-15.18V35.522c0-1.181-1.766-2.295-4.117-2.295c-14.52,0-60.813,0.008-64.963,0.008
	c-5.043,0-4.967-4.601-4.967-4.601S46.988,24,41.985,24c-8.757,0-26.296,0-30.015,0C7.045,24,7,28.084,7,28.237v74.584
	C7,111.109,13.687,118,21.975,118z"/>
<path fill="none" stroke="#FFFFFF" stroke-width="2" stroke-miterlimit="10" d="M21.975,116C14.821,116,9,110.088,9,102.82V28.237
	c0-0.095,0.015-0.894,0.608-1.488C10.104,26.252,10.898,26,11.97,26h30.015c1.184,0,1.786,0.141,2.146,0.503
	c0.796,0.801,0.832,2.023,0.832,2.036c-0.004,0.261,0.011,2.87,1.945,4.833c1.232,1.25,2.921,1.884,5.02,1.884
	c0,0,55.49-0.021,64.952-0.021c1.25,0,1.942,0.428,2.12,0.636v66.951c0,7.268-5.709,13.18-12.727,13.18H21.975V116z"/>
<radialGradient id="SVGID_2_" cx="789.5878" cy="-462.9282" r="91.4084" gradientTransform="matrix(0.0197 0.9998 -0.9109 0.018 -377.3072 -736.0426)" gradientUnits="userSpaceOnUse">
	<stop  offset="0" style="stop-color:#FFFFFF;stop-opacity:0.6"/>
	<stop  offset="0.3783" style="stop-color:#FAFCFE;stop-opacity:0.4487"/>
	<stop  offset="0.829" style="stop-color:#EBF3FC;stop-opacity:0.2684"/>
	<stop  offset="1" style="stop-color:#E4EEFB;stop-opacity:0.2"/>
</radialGradient>
<path fill="url(#SVGID_2_)" d="M21.975,116C14.821,116,9,110.088,9,102.82V28.237c0-0.095,0.015-0.894,0.608-1.488
	C10.104,26.252,10.898,26,11.97,26h30.015c1.184,0,1.786,0.141,2.146,0.503c0.796,0.801,0.832,2.023,0.832,2.036
	c-0.004,0.261,0.011,2.87,1.945,4.833c1.232,1.25,2.921,1.884,5.02,1.884c0,0,55.49-0.021,64.952-0.021
	c1.25,0,1.942,0.428,2.12,0.636v66.951c0,7.268-5.709,13.18-12.727,13.18H21.975V116z"/>
<g id="g27_1_">
	
		<linearGradient id="path36_2_" gradientUnits="userSpaceOnUse" x1="970.7643" y1="1483.7594" x2="986.6021" y2="1511.191" gradientTransform="matrix(1 0 0 1 -960 -1481)">
		<stop  offset="0" style="stop-color:#FFFFFF"/>
		<stop  offset="0.5" style="stop-color:#FFFFFF;stop-opacity:0.6"/>
		<stop  offset="1" style="stop-color:#FFFFFF;stop-opacity:0.15"/>
	</linearGradient>
	<path id="path36_1_" fill="url(#path36_2_)" d="M23.823,34.852c1.771-3.665,3.932-7.099,6.411-10.274l-4.511-9.892
		c-3.853,3.642-6.98,7.655-9.476,11.552L23.823,34.852z"/>
	
		<linearGradient id="path45_2_" gradientUnits="userSpaceOnUse" x1="985.1246" y1="1479.6516" x2="995.4895" y2="1497.6047" gradientTransform="matrix(1 0 0 1 -960 -1481)">
		<stop  offset="0" style="stop-color:#FFFFFF"/>
		<stop  offset="0.5" style="stop-color:#FFFFFF;stop-opacity:0.6"/>
		<stop  offset="1" style="stop-color:#FFFFFF;stop-opacity:0.15"/>
	</linearGradient>
	<path id="path45_1_" fill="url(#path45_2_)" d="M24.292,5.178l2.358,5.167c2.269-1.884,4.756-2.532,7.468-5.167L24.292,5.178z"/>
	
		<linearGradient id="path54_2_" gradientUnits="userSpaceOnUse" x1="988.3846" y1="1476.2424" x2="1001.0488" y2="1498.1774" gradientTransform="matrix(1 0 0 1 -960 -1481)">
		<stop  offset="0" style="stop-color:#FFFFFF"/>
		<stop  offset="0.5" style="stop-color:#FFFFFF;stop-opacity:0.6"/>
		<stop  offset="1" style="stop-color:#FFFFFF;stop-opacity:0.15"/>
	</linearGradient>
	<path id="path54_1_" fill="url(#path54_2_)" d="M41.987,5.178h-1.866c-4.704,2.635-8.817,4.646-12.346,7.65l4.324,9.486
		c3.694-4.266,7.979-8.005,12.778-11.025c0.037-0.034,0.063-0.063,0.103-0.097C50.358,6.549,45.017,5.178,41.987,5.178z"/>
	
		<linearGradient id="path63_2_" gradientUnits="userSpaceOnUse" x1="961.876" y1="1496.2646" x2="975.6191" y2="1520.0684" gradientTransform="matrix(1 0 0 1 -960 -1481)">
		<stop  offset="0" style="stop-color:#FFFFFF"/>
		<stop  offset="0.5" style="stop-color:#FFFFFF;stop-opacity:0.6"/>
		<stop  offset="1" style="stop-color:#FFFFFF;stop-opacity:0.15"/>
	</linearGradient>
	<path id="path63_1_" fill="url(#path63_2_)" d="M14.808,28.591c-2.893,4.925-4.783,9.476-5.905,12.588
		c1.328,1.895,3.523,3.138,6.013,3.138c3.083,0,5.716-1.905,6.807-4.596c0.279-0.751,0.619-1.473,0.93-2.213L14.808,28.591z"/>
	
		<linearGradient id="path72_2_" gradientUnits="userSpaceOnUse" x1="961.2581" y1="1497.2399" x2="976.4891" y2="1523.6207" gradientTransform="matrix(1 0 0 1 -960 -1481)">
		<stop  offset="0" style="stop-color:#FFFFFF"/>
		<stop  offset="0.5" style="stop-color:#FFFFFF;stop-opacity:0.6"/>
		<stop  offset="1" style="stop-color:#FFFFFF;stop-opacity:0.15"/>
	</linearGradient>
	<path id="path72_1_" fill="url(#path72_2_)" d="M7.627,20.42L7.569,36.958c0,0,0,0.005,0,0.011c0,0.103,0.026,0.2,0.032,0.303
		c1.257-3.059,3.012-6.799,5.394-10.749L7.627,20.42z"/>
	
		<linearGradient id="path149_2_" gradientUnits="userSpaceOnUse" x1="972.7764" y1="1488.978" x2="987.0781" y2="1513.7493" gradientTransform="matrix(1 0 0 1 -960 -1481)">
		<stop  offset="0" style="stop-color:#FFFFFF"/>
		<stop  offset="0.5" style="stop-color:#FFFFFF;stop-opacity:0.6"/>
		<stop  offset="1" style="stop-color:#FFFFFF;stop-opacity:0.15"/>
	</linearGradient>
	<path id="path149_1_" fill="url(#path149_2_)" d="M21.151,5.21C15.778,4.763,8.702,10.817,7.793,16.62l6.667,7.581
		c2.661-4.061,5.971-8.222,10.053-11.979L21.151,5.21z"/>
</g>
<g>
	<path opacity="0.3" fill="#FFFFFF" enable-background="new    " d="M62.75,38.142c-2.022,0-3.729,1.713-3.729,3.732v7.701
		c-2.945,1.734-4.979,4.843-4.979,8.479c0,1.629,0.509,3.118,1.205,4.474l-2.376,7.976h-3.808c-2.022,0-3.735,1.71-3.735,3.729
		c0,2.022,1.713,3.732,3.735,3.732h1.595l-1.831,6.069c-1.432,4.81-2.176,9.299-2.216,12.913c-0.018,1.807,0.094,3.369,0.551,4.786
		c0.442,1.414,1.371,2.97,3.145,3.499c1.314,0.381,2.685-0.366,3.075-1.674l7.622-25.593h6.03l7.622,25.593
		c0.397,1.308,1.768,2.055,3.075,1.674c1.774-0.53,2.703-2.086,3.151-3.499c0.448-1.417,0.563-2.979,0.545-4.786
		c-0.036-3.611-0.781-8.103-2.216-12.913l-1.828-6.069h1.556c2.022,0,3.735-1.71,3.735-3.732c0-2.019-1.713-3.729-3.735-3.729
		h-3.772l-2.37-8.013c0.681-1.35,1.165-2.824,1.165-4.435c0-3.635-2.034-6.744-4.979-8.479v-7.701c0-2.019-1.713-3.732-3.735-3.732
		H62.75V38.142z M62.75,40.63h2.488c0.693,0,1.247,0.554,1.247,1.244v9.142c2.903,1.023,4.979,3.787,4.979,7.038
		c0,1.577-0.49,3.036-1.326,4.241l3.194,10.694h5.6c0.693,0,1.241,0.554,1.241,1.241c0,0.693-0.551,1.247-1.241,1.247h-4.858
		l2.761,9.257c2.755,9.251,2.839,17.339,0.194,18.123l-8.17-27.379h-9.683l-8.164,27.379c-2.643-0.787-2.567-8.875,0.194-18.123
		l2.761-9.257h-4.901c-0.693,0-1.247-0.557-1.247-1.247c0-0.69,0.557-1.241,1.247-1.241h5.639l3.187-10.658
		c-0.851-1.211-1.359-2.679-1.359-4.277c0-3.251,2.077-6.015,4.979-7.038v-9.142C61.509,41.184,62.063,40.63,62.75,40.63z
		 M63.997,53.074c-2.749,0-4.979,2.231-4.979,4.979c0,0.403,0.064,0.796,0.154,1.168c0.054,0.23,0.112,0.442,0.194,0.663
		c0.088,0.224,0.188,0.448,0.315,0.663c0.03,0.058,0.076,0.094,0.118,0.154c0.024,0.048,0.042,0.106,0.076,0.154
		c0.061,0.088,0.13,0.154,0.194,0.236c0.136,0.182,0.303,0.384,0.46,0.545c0.13,0.121,0.254,0.239,0.39,0.348
		c0.054,0.042,0.1,0.076,0.154,0.118c0.076,0.054,0.16,0.106,0.236,0.154c0.206,0.13,0.439,0.251,0.663,0.348
		c0.024,0.012,0.048,0.03,0.076,0.042c0.285,0.118,0.584,0.206,0.893,0.272c0.336,0.07,0.693,0.118,1.053,0.118
		c0.372,0,0.739-0.079,1.087-0.16c0.23-0.048,0.442-0.112,0.663-0.191c0.433-0.163,0.838-0.39,1.205-0.66
		c0.185-0.136,0.384-0.272,0.545-0.433c0.16-0.157,0.291-0.324,0.427-0.502c0.13-0.166,0.242-0.363,0.348-0.545
		c0.012-0.018,0.036-0.024,0.042-0.042c0.106-0.188,0.23-0.378,0.315-0.581c0.088-0.221,0.136-0.46,0.188-0.699
		c0.094-0.372,0.16-0.766,0.16-1.168C68.976,55.305,66.746,53.074,63.997,53.074z M63.997,55.565c1.408,0,2.488,1.081,2.488,2.485
		c0,0.127-0.018,0.321-0.076,0.581c-0.07,0.306-0.106,0.415-0.076,0.351c0.024-0.073-0.042,0.033-0.16,0.233
		c-0.012,0.018,0.012,0.018,0,0.039c-0.018,0.033-0.018,0.003-0.036,0.039c-0.106,0.179-0.173,0.291-0.16,0.272
		c-0.148,0.191-0.23,0.236-0.23,0.236c0.064-0.064-0.03,0.054-0.272,0.23c-0.2,0.148-0.39,0.239-0.584,0.315
		c-0.1,0.039-0.212,0.082-0.348,0.115c-0.33,0.073-0.515,0.079-0.545,0.079c-0.148,0-0.348,0-0.545-0.042
		c-0.118-0.024-0.188-0.042-0.272-0.076c0.006-0.003-0.036-0.027-0.154-0.076c-0.024-0.009-0.018,0.006-0.042,0
		c-0.136-0.061-0.272-0.148-0.354-0.194c-0.064-0.045-0.1-0.07-0.112-0.076c-0.036-0.03-0.064-0.027-0.076-0.042
		c-0.006,0-0.076-0.076-0.16-0.154c-0.006-0.012,0.012-0.03,0-0.042c-0.006-0.009-0.118-0.127-0.23-0.272
		c-0.061-0.076-0.082-0.07-0.118-0.115c-0.042-0.061-0.024-0.054-0.036-0.079c-0.024-0.027-0.024-0.012-0.042-0.036
		c-0.018-0.033-0.024-0.012-0.042-0.042c-0.012-0.024-0.054-0.076-0.076-0.115c-0.006-0.009,0.006-0.033,0-0.039
		c-0.018-0.03-0.076-0.118-0.076-0.118c-0.006-0.012,0.006-0.024,0-0.039c-0.012-0.033-0.024-0.133-0.076-0.351
		c-0.061-0.26-0.076-0.454-0.076-0.581C61.509,56.649,62.589,55.565,63.997,55.565z M62.247,65.285l-2.294,7.704h8.164l-2.294-7.704
		c-0.584,0.148-1.199,0.236-1.828,0.236C63.395,65.521,62.807,65.421,62.247,65.285z M63.997,68.013c0.012,0,0.024,0,0.036,0
		l0.781,2.488h-1.556L63.997,68.013z"/>
	<path opacity="0.3" fill="#FFFFFF" enable-background="new    " d="M62.75,39.347c-1.383,0-2.525,1.141-2.525,2.528v8.4
		c-2.927,1.423-4.979,4.323-4.979,7.776c0,1.604,0.49,3.066,1.241,4.356l-2.761,9.296h-4.665c-1.383,0-2.531,1.141-2.531,2.525
		c0,1.386,1.147,2.531,2.531,2.531h3.151l-2.258,7.586c-1.408,4.719-2.14,9.145-2.176,12.598c-0.018,1.725,0.118,3.212,0.502,4.435
		c0.39,1.223,1.087,2.352,2.334,2.721c0.681,0.218,1.414-0.16,1.632-0.845c0-0.003,0-0.006,0-0.009l7.898-26.486h7.74l7.891,26.486
		c0.212,0.687,0.935,1.069,1.619,0.857c0.006,0,0.012,0,0.012,0c1.247-0.372,1.952-1.501,2.334-2.724
		c0.39-1.223,0.527-2.709,0.509-4.435c-0.042-3.454-0.775-7.882-2.182-12.598l-2.252-7.586h3.109c1.383,0,2.531-1.144,2.531-2.531
		c0-1.383-1.147-2.525-2.531-2.525h-4.628l-2.761-9.335c0.733-1.283,1.205-2.736,1.205-4.32c0-3.457-2.052-6.357-4.979-7.776v-8.4
		c0-1.386-1.141-2.528-2.531-2.528H62.75V39.347z M62.75,40.63h2.488c0.693,0,1.247,0.554,1.247,1.244v9.142
		c2.903,1.023,4.979,3.787,4.979,7.038c0,1.577-0.49,3.036-1.326,4.241l3.194,10.694h5.6c0.693,0,1.241,0.554,1.241,1.241
		c0,0.693-0.551,1.247-1.241,1.247h-4.858l2.761,9.257c2.755,9.251,2.839,17.339,0.194,18.123l-8.17-27.379h-9.683l-8.164,27.379
		c-2.643-0.787-2.567-8.875,0.194-18.123l2.761-9.257h-4.901c-0.693,0-1.247-0.557-1.247-1.247c0-0.69,0.557-1.241,1.247-1.241
		h5.639l3.187-10.658c-0.851-1.211-1.359-2.679-1.359-4.277c0-3.251,2.077-6.015,4.979-7.038v-9.142
		C61.509,41.184,62.063,40.63,62.75,40.63z M63.997,53.074c-2.749,0-4.979,2.231-4.979,4.979c0,0.403,0.064,0.796,0.154,1.168
		c0.054,0.23,0.112,0.442,0.194,0.663c0.088,0.224,0.188,0.448,0.315,0.663c0.03,0.058,0.076,0.094,0.118,0.154
		c0.024,0.048,0.042,0.106,0.076,0.154c0.061,0.088,0.13,0.154,0.194,0.236c0.136,0.182,0.303,0.384,0.46,0.545
		c0.13,0.121,0.254,0.239,0.39,0.348c0.054,0.042,0.1,0.076,0.154,0.118c0.076,0.054,0.16,0.106,0.236,0.154
		c0.206,0.13,0.439,0.251,0.663,0.348c0.024,0.012,0.048,0.03,0.076,0.042c0.285,0.118,0.584,0.206,0.893,0.272
		c0.336,0.07,0.693,0.118,1.053,0.118c0.372,0,0.739-0.079,1.087-0.16c0.23-0.048,0.442-0.112,0.663-0.191
		c0.433-0.163,0.838-0.39,1.205-0.66c0.185-0.136,0.384-0.272,0.545-0.433c0.16-0.157,0.291-0.324,0.427-0.502
		c0.13-0.166,0.242-0.363,0.348-0.545c0.012-0.018,0.036-0.024,0.042-0.042c0.106-0.188,0.23-0.378,0.315-0.581
		c0.088-0.221,0.136-0.46,0.188-0.699c0.094-0.372,0.16-0.766,0.16-1.168C68.976,55.305,66.746,53.074,63.997,53.074z
		 M63.997,54.361c2.046,0,3.696,1.644,3.696,3.693c0,0.257-0.042,0.542-0.118,0.857c-0.064,0.272-0.124,0.469-0.154,0.545
		c-0.024,0.054-0.106,0.163-0.236,0.387c-0.012,0.018,0.012,0.024,0,0.042c-0.012,0.012-0.024-0.018-0.036,0
		c-0.106,0.179-0.179,0.354-0.236,0.427c-0.142,0.188-0.23,0.275-0.309,0.351c-0.048,0.045-0.212,0.154-0.433,0.312
		c-0.278,0.206-0.584,0.39-0.893,0.506c-0.16,0.061-0.285,0.073-0.466,0.115c-0.342,0.076-0.621,0.16-0.817,0.16
		c-0.248,0-0.521-0.064-0.781-0.118c-0.212-0.048-0.409-0.091-0.584-0.157c0.006-0.003-0.018-0.015-0.07-0.039
		c-0.018-0.006-0.018,0.012-0.042,0c-0.179-0.079-0.366-0.185-0.509-0.272c-0.061-0.042-0.112-0.088-0.154-0.118
		c-0.012-0.006-0.03,0.009-0.042,0c-0.03-0.024-0.048-0.061-0.076-0.076c-0.064-0.054-0.185-0.148-0.309-0.272
		c-0.082-0.082-0.23-0.224-0.354-0.39c-0.154-0.2-0.173-0.278-0.112-0.194c0.142,0.212,0.1,0.173-0.076-0.115
		c-0.054-0.073-0.061-0.082-0.082-0.115c-0.076-0.136-0.16-0.282-0.23-0.466c-0.048-0.121-0.1-0.285-0.154-0.506
		c-0.076-0.315-0.118-0.599-0.118-0.857C60.301,56.004,61.945,54.361,63.997,54.361z M62.247,65.285l-2.294,7.704h8.164
		l-2.294-7.704c-0.584,0.148-1.199,0.236-1.828,0.236C63.395,65.521,62.807,65.421,62.247,65.285z M63.18,66.687
		c0.278,0.033,0.521,0.118,0.817,0.118c0.315,0,0.59-0.082,0.893-0.118l1.477,5.019h-4.665L63.18,66.687z"/>
	<path opacity="0.3" fill="#669CCC" enable-background="new    " d="M62.75,40.63c-0.687,0-1.241,0.554-1.241,1.244v9.142
		c-2.903,1.023-4.979,3.787-4.979,7.038c0,1.598,0.509,3.066,1.359,4.277l-3.187,10.658h-5.639c-0.693,0-1.247,0.554-1.247,1.241
		c0,0.693,0.557,1.247,1.247,1.247h4.901l-2.761,9.257c-2.761,9.251-2.839,17.339-0.194,18.123l8.164-27.379h9.683l8.17,27.379
		c2.643-0.787,2.561-8.875-0.194-18.123l-2.761-9.257h4.858c0.693,0,1.241-0.557,1.241-1.247c0-0.69-0.551-1.241-1.241-1.241h-5.6
		l-3.194-10.694c0.832-1.205,1.326-2.664,1.326-4.241c0-3.251-2.077-6.015-4.979-7.038v-9.142c0-0.69-0.557-1.244-1.247-1.244H62.75
		z M63.997,53.074c2.749,0,4.979,2.231,4.979,4.979c0,0.403-0.064,0.796-0.16,1.168c-0.054,0.239-0.1,0.478-0.188,0.699
		c-0.082,0.203-0.206,0.394-0.315,0.581c-0.006,0.018-0.03,0.024-0.042,0.042c-0.106,0.182-0.218,0.378-0.348,0.545
		c-0.136,0.179-0.266,0.345-0.427,0.502c-0.16,0.16-0.36,0.297-0.545,0.433c-0.366,0.269-0.775,0.496-1.205,0.66
		c-0.218,0.079-0.433,0.145-0.663,0.191c-0.348,0.079-0.714,0.16-1.087,0.16c-0.36,0-0.714-0.048-1.053-0.118
		c-0.309-0.064-0.608-0.154-0.893-0.272c-0.03-0.012-0.054-0.03-0.076-0.042c-0.224-0.097-0.454-0.218-0.663-0.348
		c-0.076-0.048-0.16-0.1-0.236-0.154c-0.054-0.042-0.1-0.076-0.154-0.118c-0.136-0.109-0.26-0.227-0.39-0.348
		c-0.16-0.16-0.324-0.363-0.46-0.545c-0.064-0.082-0.136-0.148-0.194-0.236c-0.036-0.048-0.054-0.106-0.076-0.154
		c-0.042-0.061-0.088-0.097-0.118-0.154c-0.124-0.212-0.224-0.439-0.315-0.663c-0.082-0.218-0.142-0.433-0.194-0.663
		c-0.088-0.372-0.154-0.766-0.154-1.168C59.018,55.305,61.248,53.074,63.997,53.074z M62.247,65.285
		c0.563,0.136,1.147,0.236,1.75,0.236c0.627,0,1.241-0.088,1.828-0.236l2.294,7.704h-8.164L62.247,65.285z"/>
	<path opacity="0.3" fill="#669CCC" enable-background="new    " d="M62.75,40.63c-0.687,0-1.241,0.554-1.241,1.244v9.142
		c-2.903,1.023-4.979,3.787-4.979,7.038c0,1.598,0.509,3.066,1.359,4.277l-3.187,10.658h-5.639c-0.693,0-1.247,0.554-1.247,1.241
		c0,0.693,0.557,1.247,1.247,1.247h4.901l-2.761,9.257c-2.761,9.251-2.839,17.339-0.194,18.123l8.164-27.379h9.683l8.17,27.379
		c2.643-0.787,2.561-8.875-0.194-18.123l-2.761-9.257h4.858c0.693,0,1.241-0.557,1.241-1.247c0-0.69-0.551-1.241-1.241-1.241h-5.6
		l-3.194-10.694c0.832-1.205,1.326-2.664,1.326-4.241c0-3.251-2.077-6.015-4.979-7.038v-9.142c0-0.69-0.557-1.244-1.247-1.244H62.75
		z M63.997,53.074c2.749,0,4.979,2.231,4.979,4.979c0,0.403-0.064,0.796-0.16,1.168c-0.054,0.239-0.1,0.478-0.188,0.699
		c-0.082,0.203-0.206,0.394-0.315,0.581c-0.006,0.018-0.03,0.024-0.042,0.042c-0.106,0.182-0.218,0.378-0.348,0.545
		c-0.136,0.179-0.266,0.345-0.427,0.502c-0.16,0.16-0.36,0.297-0.545,0.433c-0.366,0.269-0.775,0.496-1.205,0.66
		c-0.218,0.079-0.433,0.145-0.663,0.191c-0.348,0.079-0.714,0.16-1.087,0.16c-0.36,0-0.714-0.048-1.053-0.118
		c-0.309-0.064-0.608-0.154-0.893-0.272c-0.03-0.012-0.054-0.03-0.076-0.042c-0.224-0.097-0.454-0.218-0.663-0.348
		c-0.076-0.048-0.16-0.1-0.236-0.154c-0.054-0.042-0.1-0.076-0.154-0.118c-0.136-0.109-0.26-0.227-0.39-0.348
		c-0.16-0.16-0.324-0.363-0.46-0.545c-0.064-0.082-0.136-0.148-0.194-0.236c-0.036-0.048-0.054-0.106-0.076-0.154
		c-0.042-0.061-0.088-0.097-0.118-0.154c-0.124-0.212-0.224-0.439-0.315-0.663c-0.082-0.218-0.142-0.433-0.194-0.663
		c-0.088-0.372-0.154-0.766-0.154-1.168C59.018,55.305,61.248,53.074,63.997,53.074z M68.117,64.198l0.076,0.233
		c-0.036-0.067-0.076-0.13-0.118-0.194C68.096,64.229,68.105,64.208,68.117,64.198z M59.877,64.274
		c0.024,0.018,0.048,0.064,0.076,0.076c-0.03,0.076-0.061,0.157-0.076,0.236l-2.301,7.698c-0.13,0.433-0.142,0.887-0.036,1.326
		c0,0.012,0,0.027,0,0.039c-0.348,0.306-0.602,0.69-0.739,1.129l-3.424,11.394c0.07-0.254,0.118-0.478,0.194-0.736l2.761-9.26
		c0.136-0.442,0.154-0.911,0.042-1.359c0.33-0.309,0.569-0.693,0.696-1.129L59.877,64.274z M68.195,64.589l2.761,9.099
		c0.13,0.436,0.372,0.82,0.702,1.129c-0.112,0.448-0.1,0.92,0.036,1.359l2.761,9.26c0.076,0.257,0.124,0.481,0.194,0.736
		l-3.424-11.394c-0.124-0.436-0.366-0.82-0.696-1.129c0.112-0.445,0.1-0.92-0.042-1.362L68.195,64.589z M62.247,65.285
		c0.563,0.136,1.147,0.236,1.75,0.236c0.627,0,1.241-0.088,1.828-0.236l2.294,7.704h-8.164L62.247,65.285z"/>
	<path opacity="0.3" fill="#669CCC" enable-background="new    " d="M62.75,40.63c-0.687,0-1.241,0.554-1.241,1.244v1.244
		c0-0.69,0.557-1.244,1.241-1.244h2.488c0.693,0,1.247,0.554,1.247,1.244v-1.244c0-0.69-0.557-1.244-1.247-1.244H62.75z
		 M61.509,51.013c-2.903,1.023-4.979,3.787-4.979,7.038c0,0.215,0.024,0.418,0.042,0.624c0.242-2.979,2.222-5.461,4.937-6.417
		V51.013z M66.485,51.013v1.244c2.712,0.957,4.695,3.439,4.937,6.417c0.018-0.206,0.042-0.415,0.042-0.624
		C71.465,54.8,69.388,52.036,66.485,51.013z M59.096,58.753c-0.018,0.182-0.076,0.36-0.076,0.545c0,0.403,0.064,0.796,0.154,1.168
		c0.054,0.233,0.112,0.442,0.194,0.66c0.088,0.227,0.188,0.454,0.315,0.663c0.03,0.061,0.076,0.1,0.118,0.157
		c0.024,0.051,0.042,0.109,0.076,0.157c0.061,0.085,0.13,0.148,0.194,0.23c0.136,0.185,0.303,0.384,0.46,0.545
		c0.13,0.124,0.254,0.242,0.39,0.351c0.054,0.042,0.1,0.079,0.154,0.115c0.076,0.058,0.16,0.106,0.236,0.16
		c0.206,0.13,0.439,0.248,0.663,0.348c0.024,0.012,0.048,0.027,0.076,0.039c0.285,0.115,0.584,0.203,0.893,0.272
		c0.336,0.067,0.693,0.115,1.053,0.115c0.372,0,0.739-0.076,1.087-0.154c0.23-0.054,0.442-0.112,0.663-0.194
		c0.433-0.163,0.838-0.39,1.205-0.663c0.185-0.136,0.384-0.269,0.545-0.427c0.16-0.16,0.291-0.324,0.427-0.509
		c0.13-0.163,0.242-0.36,0.348-0.545c0.012-0.012,0.036-0.024,0.042-0.036c0.106-0.188,0.23-0.381,0.315-0.584
		c0.088-0.224,0.136-0.46,0.188-0.699c0.094-0.372,0.16-0.766,0.16-1.168c0-0.185-0.061-0.363-0.076-0.545
		c-0.03,0.154-0.048,0.318-0.082,0.466c-0.054,0.239-0.1,0.478-0.188,0.699c-0.082,0.203-0.206,0.394-0.315,0.581
		c-0.006,0.018-0.03,0.024-0.042,0.042c-0.106,0.182-0.218,0.378-0.348,0.545c-0.136,0.179-0.266,0.345-0.427,0.502
		c-0.16,0.16-0.36,0.297-0.545,0.433c-0.366,0.269-0.775,0.496-1.205,0.66c-0.218,0.079-0.433,0.145-0.663,0.191
		c-0.348,0.079-0.714,0.16-1.087,0.16c-0.36,0-0.714-0.048-1.053-0.118c-0.309-0.064-0.608-0.154-0.893-0.272
		c-0.03-0.012-0.054-0.03-0.076-0.042c-0.224-0.097-0.454-0.218-0.663-0.348c-0.076-0.048-0.16-0.1-0.236-0.154
		c-0.054-0.042-0.1-0.076-0.154-0.118c-0.136-0.109-0.26-0.227-0.39-0.348c-0.16-0.16-0.324-0.363-0.46-0.545
		c-0.064-0.082-0.136-0.148-0.194-0.236c-0.036-0.048-0.054-0.106-0.076-0.154c-0.042-0.061-0.088-0.097-0.118-0.154
		c-0.124-0.212-0.224-0.439-0.315-0.663c-0.082-0.218-0.142-0.433-0.194-0.663C59.139,59.074,59.12,58.907,59.096,58.753z
		 M70.375,63.112c-0.088,0.142-0.142,0.291-0.236,0.427l3.194,10.694h5.6c0.454,0,0.832,0.26,1.053,0.624
		c0.112-0.188,0.188-0.387,0.188-0.624c0-0.69-0.551-1.241-1.241-1.241h-5.6L70.375,63.112z M57.658,63.148l-2.957,9.841h-5.639
		c-0.693,0-1.247,0.554-1.247,1.241c0,0.236,0.082,0.439,0.194,0.624c0.218-0.363,0.596-0.624,1.053-0.624h5.639l3.187-10.655
		C57.795,63.448,57.737,63.284,57.658,63.148z M60.343,72.989l-0.39,1.241h8.164l-0.39-1.241H60.343z M53.575,76.724l-2.37,8.01
		c-1.495,5.01-2.189,9.674-2.104,13.028c0.094-3.218,0.787-7.365,2.104-11.784l2.761-9.257h-0.39V76.724z M74.071,76.724
		l2.761,9.257c1.32,4.419,2.01,8.563,2.098,11.784c0.082-3.351-0.608-8.016-2.098-13.028l-2.376-8.01h-0.384V76.724z"/>
	<path opacity="0.3" fill="#669CCC" enable-background="new    " d="M62.75,40.63c-0.687,0-1.241,0.554-1.241,1.244v9.142
		c-2.903,1.023-4.979,3.787-4.979,7.038c0,1.598,0.509,3.066,1.359,4.277l-3.187,10.658h-5.639c-0.693,0-1.247,0.554-1.247,1.241
		c0,0.693,0.557,1.247,1.247,1.247h4.901l-2.761,9.257c-2.761,9.251-2.839,17.339-0.194,18.123l8.164-27.379h9.683l8.17,27.379
		c2.643-0.787,2.561-8.875-0.194-18.123l-2.761-9.257h4.858c0.693,0,1.241-0.557,1.241-1.247c0-0.69-0.551-1.241-1.241-1.241h-5.6
		l-3.194-10.694c0.832-1.205,1.326-2.664,1.326-4.241c0-3.251-2.077-6.015-4.979-7.038v-9.142c0-0.69-0.557-1.244-1.247-1.244H62.75
		z M62.75,41.874h2.488v9.142c0,0.521,0.33,0.987,0.82,1.165c0.061,0.024,0.094,0.094,0.154,0.118
		c-0.696-0.272-1.432-0.466-2.216-0.466c-0.784,0-1.526,0.194-2.216,0.466c0.061-0.024,0.088-0.094,0.154-0.118
		c0.49-0.179,0.817-0.645,0.817-1.165v-9.142H62.75z M63.997,53.074c2.749,0,4.979,2.231,4.979,4.979
		c0,0.403-0.064,0.796-0.16,1.168c-0.054,0.239-0.1,0.478-0.188,0.699c-0.082,0.203-0.206,0.394-0.315,0.581
		c-0.006,0.018-0.03,0.024-0.042,0.042c-0.106,0.182-0.218,0.378-0.348,0.545c-0.136,0.179-0.266,0.345-0.427,0.502
		c-0.16,0.16-0.36,0.297-0.545,0.433c-0.366,0.269-0.775,0.496-1.205,0.66c-0.218,0.079-0.433,0.145-0.663,0.191
		c-0.348,0.079-0.714,0.16-1.087,0.16c-0.36,0-0.714-0.048-1.053-0.118c-0.309-0.064-0.608-0.154-0.893-0.272
		c-0.03-0.012-0.054-0.03-0.076-0.042c-0.224-0.097-0.454-0.218-0.663-0.348c-0.076-0.048-0.16-0.1-0.236-0.154
		c-0.054-0.042-0.1-0.076-0.154-0.118c-0.136-0.109-0.26-0.227-0.39-0.348c-0.16-0.16-0.324-0.363-0.46-0.545
		c-0.064-0.082-0.136-0.148-0.194-0.236c-0.036-0.048-0.054-0.106-0.076-0.154c-0.042-0.061-0.088-0.097-0.118-0.154
		c-0.124-0.212-0.224-0.439-0.315-0.663c-0.082-0.218-0.142-0.433-0.194-0.663c-0.088-0.372-0.154-0.766-0.154-1.168
		C59.018,55.305,61.248,53.074,63.997,53.074z M69.17,61.438c-0.03,0.045-0.012,0.112-0.042,0.154
		c-0.024,0.027-0.054,0.054-0.076,0.079C69.107,61.598,69.128,61.504,69.17,61.438z M58.978,61.71c0.03,0.033,0.13,0.13,0.118,0.118
		c0.154,0.2,0.342,0.463,0.584,0.696c0.124,0.124,0.26,0.266,0.466,0.43c0.064,0.058,0.13,0.112,0.194,0.157
		c0.106,0.076,0.224,0.142,0.309,0.194c0.272,0.173,0.545,0.306,0.817,0.427c-0.094-0.042-0.042-0.03,0.118,0.042
		c0,0.012,0,0.024,0,0.036c0.266,0.112,0.515,0.173,0.775,0.236c-0.596-0.064-1.153,0.315-1.32,0.893l-2.294,7.701
		c-0.206,0.657,0.16,1.353,0.817,1.559c0.054,0.018,0.106,0.03,0.154,0.036h-0.545c-0.557-0.003-1.047,0.36-1.205,0.899l-7.35,24.57
		c-0.154-0.772-0.324-1.553-0.315-2.718c0.036-3.109,0.751-7.371,2.098-11.905l2.767-9.257c0.2-0.657-0.166-1.353-0.82-1.559
		c-0.054-0.015-0.1-0.027-0.154-0.039h0.509c0.557,0.006,1.047-0.357,1.199-0.893l3.194-10.658
		C59.19,62.355,59.148,62.004,58.978,61.71z M68.976,61.786c-0.112,0.272-0.13,0.575-0.042,0.857l3.194,10.694
		c0.154,0.536,0.645,0.899,1.205,0.893h0.502c-0.675,0.121-1.129,0.769-1.005,1.444c0.006,0.054,0.018,0.106,0.036,0.154
		l2.761,9.257c1.353,4.534,2.07,8.794,2.098,11.905c0.012,1.168-0.16,1.949-0.315,2.718l-7.35-24.576
		c-0.154-0.539-0.651-0.902-1.205-0.899h-0.502c0.675-0.118,1.129-0.763,1.005-1.441c-0.006-0.054-0.018-0.103-0.036-0.154
		l-2.294-7.701c-0.188-0.651-0.863-1.029-1.52-0.857c-0.048,0.012-0.1-0.012-0.154,0c0.278-0.061,0.545-0.13,0.817-0.23
		c0.557-0.206,1.072-0.487,1.52-0.817c0.154-0.115,0.384-0.278,0.663-0.548c0.242-0.239,0.409-0.445,0.545-0.624
		C68.922,61.831,68.952,61.816,68.976,61.786z M62.247,65.285c0.563,0.136,1.147,0.236,1.75,0.236c0.627,0,1.241-0.088,1.828-0.236
		l2.294,7.704h-8.164L62.247,65.285z"/>
	<path opacity="0.3" fill="#FFFFFF" enable-background="new    " d="M63.997,53.074c-2.749,0-4.979,2.231-4.979,4.979
		c0,0.242,0.036,0.469,0.076,0.699c0.272-2.491,2.334-4.435,4.901-4.435c2.567,0,4.622,1.943,4.901,4.435
		c0.036-0.23,0.076-0.457,0.076-0.699C68.976,55.305,66.746,53.074,63.997,53.074z M56.572,58.677
		c-0.018,0.203-0.042,0.415-0.042,0.621c0,1.426,0.433,2.718,1.129,3.85l0.23-0.82C57.15,61.277,56.684,60.027,56.572,58.677z
		 M71.422,58.677c-0.106,1.335-0.563,2.573-1.283,3.617l0.236,0.817c0.669-1.117,1.087-2.413,1.087-3.814
		C71.465,59.089,71.44,58.88,71.422,58.677z M62.247,65.285l-2.294,7.704h0.39l1.904-6.457c0.563,0.133,1.147,0.23,1.75,0.23
		c0.627,0,1.241-0.088,1.828-0.23l1.904,6.457h0.39l-2.294-7.704c-0.584,0.148-1.199,0.236-1.828,0.236
		C63.395,65.521,62.807,65.421,62.247,65.285z M48.011,74.854c-0.112,0.188-0.194,0.387-0.194,0.624
		c0,0.693,0.557,1.244,1.247,1.244h4.51l0.39-1.244h-4.901C48.608,75.477,48.229,75.22,48.011,74.854z M79.983,74.854
		c-0.218,0.363-0.596,0.624-1.053,0.624h-4.858l0.384,1.244h4.477c0.693,0,1.241-0.554,1.241-1.244
		C80.173,75.241,80.095,75.041,79.983,74.854z M59.172,75.477l-8.164,27.379c-1.211-0.363-1.831-2.258-1.91-5.098
		c-0.094,3.517,0.527,5.93,1.91,6.342l8.164-27.379h9.683l8.17,27.379c1.377-0.412,1.998-2.824,1.904-6.342
		c-0.07,2.839-0.696,4.731-1.904,5.098l-8.17-27.379H59.172z"/>
</g>
</svg>
