<?xml version="1.0" encoding="utf-8"?>
<!-- Generator: Adobe Illustrator 17.0.0, SVG Export Plug-In . SVG Version: 6.00 Build 0)  -->
<!DOCTYPE svg PUBLIC "-//W3C//DTD SVG 1.1//EN" "http://www.w3.org/Graphics/SVG/1.1/DTD/svg11.dtd">
<svg version="1.1" id="图层_1" xmlns="http://www.w3.org/2000/svg" xmlns:xlink="http://www.w3.org/1999/xlink" x="0px" y="0px"
	 width="128px" height="128px" viewBox="0 0 128 128" enable-background="new 0 0 128 128" xml:space="preserve">
<g id="g151" opacity="0.5">
	<path id="path153" opacity="0.08" enable-background="new    " d="M106.873,118.496H20.952c-7.91,0-14.357-6.201-14.357-13.797
		v10.553c0,5.936,5.043,10.748,11.222,10.748h92.188c6.178,0,11.151-4.812,11.151-10.748v-10.553
		C121.156,112.296,114.78,118.496,106.873,118.496z"/>
	<path id="path155" opacity="0.1" enable-background="new    " d="M106.8,118.496H20.879c-7.907,0-14.284-6.088-14.284-13.684v5.52
		c0,5.936,2.723,13.167,13.755,13.167s75.798,0,86.975,0s13.831-7.231,13.831-13.167v-5.52
		C121.156,112.408,114.707,118.496,106.8,118.496z"/>
	<path id="path157" opacity="0.1" enable-background="new    " d="M106.8,118.496H20.879c-7.907,0-14.284-6.088-14.284-13.684v2.979
		c0,5.938,4.723,13.207,13.755,13.207s76.636,0,86.975,0c10.342,0,13.831-7.269,13.831-13.204v-2.979
		C121.156,112.408,114.707,118.496,106.8,118.496z"/>
	<rect id="rect159" x="19.613" y="118.496" opacity="0.05" enable-background="new    " width="88.525" height="2.501"/>
	<rect id="rect161" x="22.217" y="118.496" opacity="0.05" enable-background="new    " width="80.714" height="2.501"/>
	<rect id="rect163" x="22.217" y="120.997" opacity="0.05" enable-background="new    " width="80.714" height="2.501"/>
	<rect id="rect165" x="27.424" y="120.997" opacity="0.05" enable-background="new    " width="72.903" height="2.501"/>
	<rect id="rect167" x="35.235" y="120.997" opacity="0.05" enable-background="new    " width="57.281" height="2.501"/>
	<rect id="rect169" x="45.65" y="120.997" opacity="0.05" enable-background="new    " width="36.451" height="2.501"/>
	<rect id="rect171" x="27.424" y="118.496" opacity="0.05" enable-background="new    " width="72.903" height="2.501"/>
	<rect id="rect173" x="32.632" y="118.496" opacity="0.05" enable-background="new    " width="62.488" height="2.501"/>
	<rect id="rect175" x="35.235" y="118.496" opacity="0.05" enable-background="new    " width="57.281" height="2.501"/>
	<rect id="rect177" x="40.443" y="118.496" opacity="0.05" enable-background="new    " width="46.866" height="2.501"/>
	<rect id="rect179" x="40.443" y="118.496" opacity="0.05" enable-background="new    " width="46.866" height="2.501"/>
</g>
<path fill="#C4DCED" stroke="#9DBCD7" stroke-width="2" stroke-miterlimit="10" d="M121,102.992c0,8.288-6.719,15.008-15.008,15.008
	H22.008C13.719,118,7,111.281,7,102.992V19.008C7,10.719,13.719,4,22.008,4h83.985C114.281,4,121,10.719,121,19.008V102.992z"/>
<path opacity="0.5" fill="none" stroke="#FFFFFF" stroke-width="2" stroke-miterlimit="10" enable-background="new    " d="
	M119,102.992c0,7.184-5.824,13.008-13.008,13.008H22.008C14.824,116,9,110.176,9,102.992V19.008C9,11.824,14.824,6,22.008,6h83.984
	C113.176,6,119,11.824,119,19.008V102.992z"/>
<path opacity="0.08" fill="none" stroke="#000000" stroke-miterlimit="10" enable-background="new    " d="M121.426,37.445
	c0,0,0-5.043-4.981-5.043c-14.457,0-60.62,0.008-64.752,0.008c-5.021,0-4.981-4.97-4.981-4.97s0-5.003-4.981-5.003
	c-8.719,0-26.182,0-29.886,0c-4.904,0-4.981,4.822-4.981,4.975"/>
<path opacity="0.05" fill="none" stroke="#000000" stroke-miterlimit="10" enable-background="new    " d="M121.405,36.445
	c0,0,0-5.043-4.981-5.043c-14.457,0-60.62,0.008-64.752,0.008c-5.021,0-4.981-4.97-4.981-4.97s0-5.003-4.981-5.003
	c-8.719,0-26.182,0-29.886,0c-4.904,0-4.981,4.822-4.981,4.975"/>
<path opacity="0.03" fill="none" stroke="#000000" stroke-miterlimit="10" enable-background="new    " d="M121.405,35.487
	c0,0,0-5.043-4.981-5.043c-14.457,0-60.62,0.008-64.752,0.008c-5.021,0-4.981-4.97-4.981-4.97s0-5.003-4.981-5.003
	c-8.719,0-26.182,0-29.886,0c-4.904,0-4.981,4.822-4.981,4.975"/>
<linearGradient id="SVGID_1_" gradientUnits="userSpaceOnUse" x1="612" y1="781" x2="612" y2="687" gradientTransform="matrix(1 0 0 1 -548 -663)">
	<stop  offset="0" style="stop-color:#D1E0ED"/>
	<stop  offset="1" style="stop-color:#E4EEFB"/>
</linearGradient>
<path fill="url(#SVGID_1_)" stroke="#9DBCD7" stroke-width="2" stroke-miterlimit="10" d="M21.975,118h84.298
	c8.288,0,14.727-6.891,14.727-15.18V35.522c0-1.181-1.766-2.295-4.117-2.295c-14.52,0-60.813,0.008-64.963,0.008
	c-5.043,0-4.967-4.601-4.967-4.601S46.988,24,41.985,24c-8.757,0-26.296,0-30.015,0C7.045,24,7,28.084,7,28.237v74.584
	C7,111.109,13.687,118,21.975,118z"/>
<path fill="none" stroke="#FFFFFF" stroke-width="2" stroke-miterlimit="10" d="M21.975,116C14.821,116,9,110.088,9,102.82V28.237
	c0-0.095,0.015-0.894,0.608-1.488C10.104,26.252,10.898,26,11.97,26h30.015c1.184,0,1.786,0.141,2.146,0.503
	c0.796,0.801,0.832,2.023,0.832,2.036c-0.004,0.261,0.011,2.87,1.945,4.833c1.232,1.25,2.921,1.884,5.02,1.884
	c0,0,55.49-0.021,64.952-0.021c1.25,0,1.942,0.428,2.12,0.636v66.951c0,7.268-5.709,13.18-12.727,13.18H21.975V116z"/>
<radialGradient id="SVGID_2_" cx="789.5878" cy="-462.9282" r="91.4084" gradientTransform="matrix(0.0197 0.9998 -0.9109 0.018 -377.3072 -736.0426)" gradientUnits="userSpaceOnUse">
	<stop  offset="0" style="stop-color:#FFFFFF;stop-opacity:0.6"/>
	<stop  offset="0.3783" style="stop-color:#FAFCFE;stop-opacity:0.4487"/>
	<stop  offset="0.829" style="stop-color:#EBF3FC;stop-opacity:0.2684"/>
	<stop  offset="1" style="stop-color:#E4EEFB;stop-opacity:0.2"/>
</radialGradient>
<path fill="url(#SVGID_2_)" d="M21.975,116C14.821,116,9,110.088,9,102.82V28.237c0-0.095,0.015-0.894,0.608-1.488
	C10.104,26.252,10.898,26,11.97,26h30.015c1.184,0,1.786,0.141,2.146,0.503c0.796,0.801,0.832,2.023,0.832,2.036
	c-0.004,0.261,0.011,2.87,1.945,4.833c1.232,1.25,2.921,1.884,5.02,1.884c0,0,55.49-0.021,64.952-0.021
	c1.25,0,1.942,0.428,2.12,0.636v66.951c0,7.268-5.709,13.18-12.727,13.18H21.975V116z"/>
<g id="g27_1_">
	
		<linearGradient id="path36_2_" gradientUnits="userSpaceOnUse" x1="970.7643" y1="1483.7594" x2="986.6021" y2="1511.191" gradientTransform="matrix(1 0 0 1 -960 -1481)">
		<stop  offset="0" style="stop-color:#FFFFFF"/>
		<stop  offset="0.5" style="stop-color:#FFFFFF;stop-opacity:0.6"/>
		<stop  offset="1" style="stop-color:#FFFFFF;stop-opacity:0.15"/>
	</linearGradient>
	<path id="path36_1_" fill="url(#path36_2_)" d="M23.823,34.852c1.771-3.665,3.932-7.099,6.411-10.274l-4.511-9.892
		c-3.853,3.642-6.98,7.655-9.476,11.552L23.823,34.852z"/>
	
		<linearGradient id="path45_2_" gradientUnits="userSpaceOnUse" x1="985.1246" y1="1479.6516" x2="995.4895" y2="1497.6047" gradientTransform="matrix(1 0 0 1 -960 -1481)">
		<stop  offset="0" style="stop-color:#FFFFFF"/>
		<stop  offset="0.5" style="stop-color:#FFFFFF;stop-opacity:0.6"/>
		<stop  offset="1" style="stop-color:#FFFFFF;stop-opacity:0.15"/>
	</linearGradient>
	<path id="path45_1_" fill="url(#path45_2_)" d="M24.292,5.178l2.358,5.167c2.269-1.884,4.756-2.532,7.468-5.167L24.292,5.178z"/>
	
		<linearGradient id="path54_2_" gradientUnits="userSpaceOnUse" x1="988.3846" y1="1476.2424" x2="1001.0488" y2="1498.1774" gradientTransform="matrix(1 0 0 1 -960 -1481)">
		<stop  offset="0" style="stop-color:#FFFFFF"/>
		<stop  offset="0.5" style="stop-color:#FFFFFF;stop-opacity:0.6"/>
		<stop  offset="1" style="stop-color:#FFFFFF;stop-opacity:0.15"/>
	</linearGradient>
	<path id="path54_1_" fill="url(#path54_2_)" d="M41.987,5.178h-1.866c-4.704,2.635-8.817,4.646-12.346,7.65l4.324,9.486
		c3.694-4.266,7.979-8.005,12.778-11.025c0.037-0.034,0.063-0.063,0.103-0.097C50.358,6.549,45.017,5.178,41.987,5.178z"/>
	
		<linearGradient id="path63_2_" gradientUnits="userSpaceOnUse" x1="961.876" y1="1496.2646" x2="975.6191" y2="1520.0684" gradientTransform="matrix(1 0 0 1 -960 -1481)">
		<stop  offset="0" style="stop-color:#FFFFFF"/>
		<stop  offset="0.5" style="stop-color:#FFFFFF;stop-opacity:0.6"/>
		<stop  offset="1" style="stop-color:#FFFFFF;stop-opacity:0.15"/>
	</linearGradient>
	<path id="path63_1_" fill="url(#path63_2_)" d="M14.808,28.591c-2.893,4.925-4.783,9.476-5.905,12.588
		c1.328,1.895,3.523,3.138,6.013,3.138c3.083,0,5.716-1.905,6.807-4.596c0.279-0.751,0.619-1.473,0.93-2.213L14.808,28.591z"/>
	
		<linearGradient id="path72_2_" gradientUnits="userSpaceOnUse" x1="961.2581" y1="1497.2399" x2="976.4891" y2="1523.6207" gradientTransform="matrix(1 0 0 1 -960 -1481)">
		<stop  offset="0" style="stop-color:#FFFFFF"/>
		<stop  offset="0.5" style="stop-color:#FFFFFF;stop-opacity:0.6"/>
		<stop  offset="1" style="stop-color:#FFFFFF;stop-opacity:0.15"/>
	</linearGradient>
	<path id="path72_1_" fill="url(#path72_2_)" d="M7.627,20.42L7.569,36.958c0,0,0,0.005,0,0.011c0,0.103,0.026,0.2,0.032,0.303
		c1.257-3.059,3.012-6.799,5.394-10.749L7.627,20.42z"/>
	
		<linearGradient id="path149_2_" gradientUnits="userSpaceOnUse" x1="972.7764" y1="1488.978" x2="987.0781" y2="1513.7493" gradientTransform="matrix(1 0 0 1 -960 -1481)">
		<stop  offset="0" style="stop-color:#FFFFFF"/>
		<stop  offset="0.5" style="stop-color:#FFFFFF;stop-opacity:0.6"/>
		<stop  offset="1" style="stop-color:#FFFFFF;stop-opacity:0.15"/>
	</linearGradient>
	<path id="path149_1_" fill="url(#path149_2_)" d="M21.151,5.21C15.778,4.763,8.702,10.817,7.793,16.62l6.667,7.581
		c2.661-4.061,5.971-8.222,10.053-11.979L21.151,5.21z"/>
</g>
<g>
	<path opacity="0.3" fill="#FFFFFF" enable-background="new    " d="M66.359,38.634c-14.815,0-26.865,11.469-28.105,25.962h-2.578
		c-1.32,0-2.393,1.065-2.405,2.388c0,0.432,0.116,0.861,0.337,1.234l4.134,7.078l4.134,7.084c0.665,1.142,2.131,1.52,3.272,0.856
		c0.349-0.208,0.647-0.501,0.85-0.856l4.14-7.084l4.134-7.078c0.67-1.142,0.298-2.608-0.837-3.285
		c-0.373-0.214-0.799-0.336-1.228-0.336H50.14c0.948-6.485,5.606-11.695,11.799-13.42c-0.197,0.521-0.331,1.076-0.331,1.663v13.385
		h0.075c-0.185,1.192,0.042,2.387,0.697,3.359h-0.042c0.03,0.036,0.018,0.036,0.042,0.075c0.018,0.018,0.024,0.012,0.042,0.035
		c0.262,0.367,0.542,0.611,0.593,0.665l8.33,8.372c1.478,1.484,3.889,1.926,5.717,0.739c-2.882,2.48-6.584,4.024-10.699,4.024
		c-3.01,0-5.785-0.805-8.22-2.217c-1.142-0.659-2.608-0.274-3.272,0.867c-0.006,0.006-0.012,0.018-0.012,0.024l-3.544,6.158
		c-0.641,1.142-0.251,2.59,0.891,3.243c4.166,2.417,9.01,3.799,14.157,3.799c15.635,0,28.367-12.728,28.367-28.367
		C94.726,51.367,81.993,38.634,66.359,38.634z M66.359,41.034c14.341,0,25.968,11.624,25.968,25.961
		c0,14.341-11.624,25.968-25.968,25.968c-4.721,0-9.161-1.263-12.986-3.469l3.549-6.157c2.778,1.613,5.996,2.545,9.436,2.545
		c10.431,0,18.884-8.453,18.884-18.884c0-10.428-8.452-18.88-18.884-18.88c-10.425,0-18.877,8.455-18.877,18.88h4.721l-4.128,7.084
		l-4.14,7.084L39.8,74.082l-4.128-7.084h4.721C40.396,52.657,52.02,41.034,66.359,41.034z M66.359,50.475
		c1.309,0,2.363,1.055,2.363,2.363v13.203l7.671,7.633c0.927,0.927,1.049,2.276,0.298,3.028l-0.629,0.629
		c-0.751,0.751-2.101,0.629-3.028-0.298l-8.33-8.372c-0.122-0.116-0.244-0.226-0.331-0.366c-0.477-0.665-0.605-1.437-0.373-2.071
		V52.839C64.001,51.527,65.053,50.475,66.359,50.475z M70.787,51.176c6.956,1.937,12.061,8.235,12.061,15.82
		c0,4.121-1.55,7.817-4.024,10.699c1.186-1.827,0.751-4.239-0.733-5.717l-6.974-6.932V52.839
		C71.121,52.251,70.987,51.698,70.787,51.176z"/>
	<path opacity="0.3" fill="#FFFFFF" enable-background="new    " d="M66.359,39.85c-14.571,0-26.403,11.549-27.032,25.962h-3.652
		c-0.652,0-1.186,0.525-1.192,1.177c0,0.208,0.06,0.414,0.164,0.599l4.128,7.079l4.128,7.084c0.319,0.569,1.043,0.781,1.606,0.459
		c0.191-0.104,0.355-0.268,0.459-0.459l4.133-7.084l4.134-7.079c0.324-0.569,0.128-1.287-0.435-1.613
		c-0.182-0.104-0.384-0.164-0.594-0.164h-3.439c0.617-9.227,8.208-16.52,17.59-16.52c9.79,0,17.707,7.916,17.707,17.703
		c0,9.796-7.916,17.706-17.707,17.706c-3.231,0-6.24-0.885-8.848-2.399c-0.563-0.325-1.287-0.134-1.613,0.426
		c-0.007,0.012-0.012,0.018-0.012,0.018l-3.54,6.158c-0.325,0.563-0.14,1.287,0.426,1.613c0.006,0.006,0.012,0.012,0.018,0.012
		c3.988,2.304,8.637,3.615,13.569,3.615c14.982,0,27.148-12.166,27.148-27.148C93.507,52.022,81.341,39.85,66.359,39.85z
		 M66.359,49.292c-1.938,0-3.541,1.6-3.541,3.544V66.22h0.036c-0.197,0.921-0.036,1.892,0.519,2.694
		c0.023,0.036,0.017,0.042,0.036,0.069c0.184,0.256,0.373,0.441,0.447,0.519l8.33,8.378c1.3,1.293,3.434,1.588,4.728,0.292
		l0.623-0.628c1.3-1.294,1.002-3.421-0.297-4.715l-7.335-7.305V52.838C69.902,50.892,68.308,49.292,66.359,49.292z M66.359,41.033
		c14.341,0,25.968,11.624,25.968,25.962c0,14.341-11.624,25.968-25.968,25.968c-4.721,0-9.161-1.264-12.986-3.469l3.549-6.158
		c2.778,1.613,5.997,2.545,9.436,2.545c10.432,0,18.884-8.452,18.884-18.884c0-10.428-8.452-18.88-18.884-18.88
		c-10.425,0-18.877,8.455-18.877,18.88h4.721l-4.127,7.084l-4.14,7.084l-4.133-7.084l-4.128-7.084h4.721
		C40.396,52.657,52.02,41.033,66.359,41.033z M66.359,50.475c1.308,0,2.363,1.055,2.363,2.363v13.203l7.672,7.633
		c0.927,0.928,1.049,2.277,0.298,3.028l-0.629,0.628c-0.751,0.751-2.102,0.629-3.028-0.298l-8.33-8.372
		c-0.121-0.116-0.244-0.226-0.33-0.366c-0.477-0.665-0.605-1.437-0.373-2.071V52.839C64.001,51.527,65.053,50.475,66.359,50.475z"/>
	<path opacity="0.3" fill="#669CCC" enable-background="new    " d="M66.359,41.033c-14.339,0-25.962,11.624-25.962,25.962h-4.721
		l4.128,7.084l4.134,7.084l4.14-7.084l4.128-7.084h-4.721c0-10.428,8.452-18.88,18.878-18.88c10.431,0,18.884,8.455,18.884,18.88
		c0,10.431-8.453,18.884-18.884,18.884c-3.44,0-6.659-0.929-9.436-2.545l-3.549,6.158c3.824,2.205,8.265,3.47,12.986,3.47
		c14.341,0,25.968-11.624,25.968-25.968C92.326,52.657,80.7,41.033,66.359,41.033z M66.359,50.475c-1.305,0-2.358,1.055-2.358,2.363
		v13.385c-0.233,0.634-0.104,1.409,0.373,2.071c0.086,0.14,0.208,0.251,0.33,0.366l8.33,8.372c0.927,0.927,2.277,1.05,3.028,0.298
		l0.629-0.629c0.751-0.751,0.629-2.101-0.298-3.028l-7.671-7.633V52.838C68.722,51.527,67.667,50.475,66.359,50.475z"/>
	<path opacity="0.3" fill="#669CCC" enable-background="new    " d="M66.359,41.033c-14.339,0-25.962,11.624-25.962,25.962h-4.721
		l4.128,7.084l4.134,7.084l4.14-7.084l4.128-7.084h-4.721c0-10.428,8.452-18.88,18.878-18.88c10.431,0,18.884,8.455,18.884,18.88
		c0,10.431-8.453,18.884-18.884,18.884c-3.44,0-6.659-0.929-9.436-2.545l-3.549,6.158c3.824,2.205,8.265,3.47,12.986,3.47
		c14.341,0,25.968-11.624,25.968-25.968C92.326,52.657,80.7,41.033,66.359,41.033z M66.359,43.355
		c13.081,0,23.646,10.566,23.646,23.64c0,13.081-10.566,23.647-23.646,23.647c-3.463,0-6.664-0.915-9.623-2.254l1.216-2.095
		c2.602,1.136,5.386,1.917,8.405,1.917c11.695,0,21.211-9.516,21.211-21.211c0-11.686-9.516-21.202-21.211-21.202
		c-11.689,0-21.199,9.513-21.199,21.202c0.006,1.287,1.037,2.316,2.322,2.328h0.659L46.035,72.9l-2.101,3.615L41.834,72.9
		l-2.101-3.574h0.665c1.282-0.012,2.316-1.043,2.322-2.328C42.718,53.92,53.284,43.355,66.359,43.355z M66.359,50.475
		c-1.305,0-2.358,1.055-2.358,2.363v13.385c-0.233,0.634-0.104,1.409,0.373,2.071c0.086,0.14,0.208,0.251,0.33,0.366l8.33,8.372
		c0.927,0.927,2.277,1.05,3.028,0.298l0.629-0.629c0.751-0.751,0.629-2.101-0.298-3.028l-7.671-7.633V52.838
		C68.722,51.527,67.667,50.475,66.359,50.475z M66.359,52.797c0.06,0,0.042-0.018,0.042,0.042v13.203
		c0,0.537,0.175,1.055,0.512,1.472l-0.555-0.519c-0.087-0.087-0.14-0.116-0.14-0.11c-0.006-0.006-0.006-0.042,0-0.03
		c0.06-0.208,0.099-0.42,0.105-0.635V52.835C66.323,52.779,66.305,52.797,66.359,52.797z M67.062,67.702l7.666,7.636l-0.036,0.036
		C74.691,75.373,67.062,67.702,67.062,67.702z"/>
	<path opacity="0.3" fill="#669CCC" enable-background="new    " d="M66.359,41.033c-14.339,0-25.962,11.624-25.962,25.962h-4.721
		l0.697,1.18h4.024c0-14.339,11.624-25.962,25.962-25.962c14.139,0,25.652,11.311,25.968,25.374c0.006-0.197,0-0.396,0-0.593
		C92.327,52.657,80.7,41.033,66.359,41.033z M66.359,50.475c-1.305,0-2.358,1.055-2.358,2.363v1.177
		c0-1.305,1.055-2.358,2.358-2.358c1.309,0,2.363,1.052,2.363,2.358v-1.177C68.722,51.527,67.667,50.475,66.359,50.475z
		 M68.722,66.041v1.18l7.672,7.632c0.343,0.349,0.581,0.769,0.697,1.18c0.238-0.745-0.006-1.666-0.697-2.363
		C76.394,73.671,68.722,66.041,68.722,66.041z M64.001,66.223c-0.146,0.384-0.122,0.82,0,1.258c0.006-0.024-0.012-0.053,0-0.075
		V66.223z M47.55,66.996c-0.024,0.396-0.069,0.781-0.069,1.18h4.017l0.703-1.18H47.55z M85.207,67.589
		c-0.32,10.151-8.622,18.29-18.848,18.29c-3.439,0-6.658-0.929-9.436-2.545l-3.549,6.158c0.176,0.098,0.355,0.169,0.525,0.256
		l3.028-5.233c2.778,1.612,5.996,2.545,9.436,2.545c10.431,0,18.884-8.452,18.884-18.884C85.242,67.979,85.212,67.788,85.207,67.589
		z"/>
	<path opacity="0.3" fill="#669CCC" enable-background="new    " d="M66.359,41.033c-14.339,0-25.962,11.624-25.962,25.962h-4.721
		l4.128,7.084l4.134,7.084l4.14-7.084l4.128-7.084h-4.721c0-10.428,8.452-18.88,18.878-18.88c10.431,0,18.884,8.455,18.884,18.88
		c0,10.431-8.453,18.884-18.884,18.884c-3.44,0-6.659-0.929-9.436-2.545l-3.549,6.158c3.824,2.205,8.265,3.47,12.986,3.47
		c14.341,0,25.968-11.624,25.968-25.968C92.326,52.657,80.7,41.033,66.359,41.033z M66.359,42.139
		c13.736,0,24.862,11.122,24.862,24.856c0,13.742-11.123,24.862-24.862,24.862c-4.128,0-7.97-1.1-11.391-2.876l2.432-4.244
		c2.706,1.374,5.717,2.247,8.959,2.247c11.03,0,19.989-8.953,19.989-19.989c0-11.033-8.959-19.989-19.989-19.989
		s-19.983,8.956-19.983,19.989c0,0.611,0.495,1.1,1.106,1.106h2.799l-3.171,5.424l-3.171,5.419l-3.171-5.418l-3.171-5.424h2.804
		c0.605-0.006,1.1-0.495,1.106-1.106C41.502,53.262,52.628,42.139,66.359,42.139z M66.359,50.475c-1.305,0-2.358,1.055-2.358,2.363
		v13.385c-0.233,0.634-0.104,1.409,0.373,2.071c0.086,0.14,0.208,0.251,0.33,0.366l8.33,8.372c0.927,0.927,2.277,1.05,3.028,0.298
		l0.629-0.629c0.751-0.751,0.629-2.101-0.298-3.028l-7.671-7.633V52.838C68.722,51.527,67.667,50.475,66.359,50.475z M66.359,51.581
		c0.709,0,1.258,0.548,1.258,1.258v13.203c0.006,0.292,0.128,0.564,0.331,0.775l7.671,7.636c0.569,0.569,0.53,1.234,0.292,1.472
		l-0.623,0.629c-0.238,0.233-0.903,0.281-1.478-0.298l-8.336-8.377c-0.146-0.147-0.197-0.203-0.182-0.182c0-0.03,0-0.048,0-0.074
		c-0.292-0.403-0.343-0.769-0.262-0.996c0.053-0.128,0.074-0.268,0.074-0.408V52.832C65.107,52.126,65.655,51.581,66.359,51.581z"/>
	<path opacity="0.3" fill="#FFFFFF" enable-background="new    " d="M66.359,48.115c-10.425,0-18.877,8.455-18.877,18.88h0.069
		c0.617-9.868,8.783-17.703,18.809-17.703c10.228,0,18.529,8.142,18.848,18.296c0.006-0.197,0.035-0.39,0.035-0.593
		C85.242,56.57,76.79,48.115,66.359,48.115z M64.001,67.478c-0.197,0.617-0.087,1.351,0.373,1.991
		c0.086,0.14,0.208,0.251,0.33,0.373l8.33,8.372c0.927,0.927,2.277,1.043,3.028,0.292l0.629-0.623
		c0.465-0.471,0.599-1.166,0.402-1.845c-0.08,0.244-0.215,0.471-0.402,0.665l-0.629,0.629c-0.751,0.751-2.101,0.629-3.028-0.298
		l-8.33-8.372c-0.121-0.116-0.244-0.226-0.33-0.366C64.183,68.032,64.082,67.758,64.001,67.478z M92.326,67.589
		c-0.312,14.064-11.829,25.374-25.968,25.374c-4.518,0-8.759-1.177-12.464-3.213l-0.525,0.927c3.824,2.205,8.265,3.469,12.986,3.469
		c14.341,0,25.968-11.624,25.968-25.968C92.326,67.979,92.332,67.782,92.326,67.589z M35.676,68.179l4.128,7.084l4.134,7.084
		l4.14-7.084l4.127-7.084h-0.703l-3.421,5.901l-4.14,7.084l-4.134-7.084l-3.427-5.901C36.379,68.179,35.676,68.179,35.676,68.179z"
		/>
</g>
</svg>
