<?xml version="1.0" encoding="utf-8"?>
<!-- Generator: Adobe Illustrator 17.0.0, SVG Export Plug-In . SVG Version: 6.00 Build 0)  -->
<!DOCTYPE svg PUBLIC "-//W3C//DTD SVG 1.1//EN" "http://www.w3.org/Graphics/SVG/1.1/DTD/svg11.dtd">
<svg version="1.1" id="图层_1" xmlns="http://www.w3.org/2000/svg" xmlns:xlink="http://www.w3.org/1999/xlink" x="0px" y="0px"
	 width="128px" height="128px" viewBox="0 0 128 128" enable-background="new 0 0 128 128" xml:space="preserve">
<g id="g151" opacity="0.5">
	<path id="path153" opacity="0.08" enable-background="new    " d="M106.873,118.496H20.952c-7.91,0-14.357-6.201-14.357-13.797
		v10.553c0,5.936,5.043,10.748,11.222,10.748h92.188c6.178,0,11.151-4.812,11.151-10.748v-10.553
		C121.156,112.296,114.78,118.496,106.873,118.496z"/>
	<path id="path155" opacity="0.1" enable-background="new    " d="M106.8,118.496H20.879c-7.907,0-14.284-6.088-14.284-13.684v5.52
		c0,5.936,2.723,13.167,13.755,13.167s75.798,0,86.975,0s13.831-7.231,13.831-13.167v-5.52
		C121.156,112.408,114.707,118.496,106.8,118.496z"/>
	<path id="path157" opacity="0.1" enable-background="new    " d="M106.8,118.496H20.879c-7.907,0-14.284-6.088-14.284-13.684v2.979
		c0,5.938,4.723,13.207,13.755,13.207s76.636,0,86.975,0c10.342,0,13.831-7.269,13.831-13.204v-2.979
		C121.156,112.408,114.707,118.496,106.8,118.496z"/>
	<rect id="rect159" x="19.613" y="118.496" opacity="0.05" enable-background="new    " width="88.525" height="2.501"/>
	<rect id="rect161" x="22.217" y="118.496" opacity="0.05" enable-background="new    " width="80.714" height="2.501"/>
	<rect id="rect163" x="22.217" y="120.997" opacity="0.05" enable-background="new    " width="80.714" height="2.501"/>
	<rect id="rect165" x="27.424" y="120.997" opacity="0.05" enable-background="new    " width="72.903" height="2.501"/>
	<rect id="rect167" x="35.235" y="120.997" opacity="0.05" enable-background="new    " width="57.281" height="2.501"/>
	<rect id="rect169" x="45.65" y="120.997" opacity="0.05" enable-background="new    " width="36.451" height="2.501"/>
	<rect id="rect171" x="27.424" y="118.496" opacity="0.05" enable-background="new    " width="72.903" height="2.501"/>
	<rect id="rect173" x="32.632" y="118.496" opacity="0.05" enable-background="new    " width="62.488" height="2.501"/>
	<rect id="rect175" x="35.235" y="118.496" opacity="0.05" enable-background="new    " width="57.281" height="2.501"/>
	<rect id="rect177" x="40.443" y="118.496" opacity="0.05" enable-background="new    " width="46.866" height="2.501"/>
	<rect id="rect179" x="40.443" y="118.496" opacity="0.05" enable-background="new    " width="46.866" height="2.501"/>
</g>
<path fill="#C4DCED" stroke="#9DBCD7" stroke-width="2" stroke-miterlimit="10" d="M121,102.992c0,8.288-6.719,15.008-15.008,15.008
	H22.008C13.719,118,7,111.281,7,102.992V19.008C7,10.719,13.719,4,22.008,4h83.985C114.281,4,121,10.719,121,19.008V102.992z"/>
<path opacity="0.5" fill="none" stroke="#FFFFFF" stroke-width="2" stroke-miterlimit="10" enable-background="new    " d="
	M119,102.992c0,7.184-5.824,13.008-13.008,13.008H22.008C14.824,116,9,110.176,9,102.992V19.008C9,11.824,14.824,6,22.008,6h83.984
	C113.176,6,119,11.824,119,19.008V102.992z"/>
<path opacity="0.08" fill="none" stroke="#000000" stroke-miterlimit="10" enable-background="new    " d="M121.426,37.445
	c0,0,0-5.043-4.981-5.043c-14.457,0-60.62,0.008-64.752,0.008c-5.021,0-4.981-4.97-4.981-4.97s0-5.003-4.981-5.003
	c-8.719,0-26.182,0-29.886,0c-4.904,0-4.981,4.822-4.981,4.975"/>
<path opacity="0.05" fill="none" stroke="#000000" stroke-miterlimit="10" enable-background="new    " d="M121.405,36.445
	c0,0,0-5.043-4.981-5.043c-14.457,0-60.62,0.008-64.752,0.008c-5.021,0-4.981-4.97-4.981-4.97s0-5.003-4.981-5.003
	c-8.719,0-26.182,0-29.886,0c-4.904,0-4.981,4.822-4.981,4.975"/>
<path opacity="0.03" fill="none" stroke="#000000" stroke-miterlimit="10" enable-background="new    " d="M121.405,35.487
	c0,0,0-5.043-4.981-5.043c-14.457,0-60.62,0.008-64.752,0.008c-5.021,0-4.981-4.97-4.981-4.97s0-5.003-4.981-5.003
	c-8.719,0-26.182,0-29.886,0c-4.904,0-4.981,4.822-4.981,4.975"/>
<linearGradient id="SVGID_1_" gradientUnits="userSpaceOnUse" x1="612" y1="781" x2="612" y2="687" gradientTransform="matrix(1 0 0 1 -548 -663)">
	<stop  offset="0" style="stop-color:#D1E0ED"/>
	<stop  offset="1" style="stop-color:#E4EEFB"/>
</linearGradient>
<path fill="url(#SVGID_1_)" stroke="#9DBCD7" stroke-width="2" stroke-miterlimit="10" d="M21.975,118h84.298
	c8.288,0,14.727-6.891,14.727-15.18V35.522c0-1.181-1.766-2.295-4.117-2.295c-14.52,0-60.813,0.008-64.963,0.008
	c-5.043,0-4.967-4.601-4.967-4.601S46.988,24,41.985,24c-8.757,0-26.296,0-30.015,0C7.045,24,7,28.084,7,28.237v74.584
	C7,111.109,13.687,118,21.975,118z"/>
<path fill="none" stroke="#FFFFFF" stroke-width="2" stroke-miterlimit="10" d="M21.975,116C14.821,116,9,110.088,9,102.82V28.237
	c0-0.095,0.015-0.894,0.608-1.488C10.104,26.252,10.898,26,11.97,26h30.015c1.184,0,1.786,0.141,2.146,0.503
	c0.796,0.801,0.832,2.023,0.832,2.036c-0.004,0.261,0.011,2.87,1.945,4.833c1.232,1.25,2.921,1.884,5.02,1.884
	c0,0,55.49-0.021,64.952-0.021c1.25,0,1.942,0.428,2.12,0.636v66.951c0,7.268-5.709,13.18-12.727,13.18H21.975V116z"/>
<radialGradient id="SVGID_2_" cx="789.5878" cy="-462.9282" r="91.4084" gradientTransform="matrix(0.0197 0.9998 -0.9109 0.018 -377.3072 -736.0426)" gradientUnits="userSpaceOnUse">
	<stop  offset="0" style="stop-color:#FFFFFF;stop-opacity:0.6"/>
	<stop  offset="0.3783" style="stop-color:#FAFCFE;stop-opacity:0.4487"/>
	<stop  offset="0.829" style="stop-color:#EBF3FC;stop-opacity:0.2684"/>
	<stop  offset="1" style="stop-color:#E4EEFB;stop-opacity:0.2"/>
</radialGradient>
<path fill="url(#SVGID_2_)" d="M21.975,116C14.821,116,9,110.088,9,102.82V28.237c0-0.095,0.015-0.894,0.608-1.488
	C10.104,26.252,10.898,26,11.97,26h30.015c1.184,0,1.786,0.141,2.146,0.503c0.796,0.801,0.832,2.023,0.832,2.036
	c-0.004,0.261,0.011,2.87,1.945,4.833c1.232,1.25,2.921,1.884,5.02,1.884c0,0,55.49-0.021,64.952-0.021
	c1.25,0,1.942,0.428,2.12,0.636v66.951c0,7.268-5.709,13.18-12.727,13.18H21.975V116z"/>
<g id="g27_1_">
	
		<linearGradient id="path36_2_" gradientUnits="userSpaceOnUse" x1="970.7643" y1="1483.7594" x2="986.6021" y2="1511.191" gradientTransform="matrix(1 0 0 1 -960 -1481)">
		<stop  offset="0" style="stop-color:#FFFFFF"/>
		<stop  offset="0.5" style="stop-color:#FFFFFF;stop-opacity:0.6"/>
		<stop  offset="1" style="stop-color:#FFFFFF;stop-opacity:0.15"/>
	</linearGradient>
	<path id="path36_1_" fill="url(#path36_2_)" d="M23.823,34.852c1.771-3.665,3.932-7.099,6.411-10.274l-4.511-9.892
		c-3.853,3.642-6.98,7.655-9.476,11.552L23.823,34.852z"/>
	
		<linearGradient id="path45_2_" gradientUnits="userSpaceOnUse" x1="985.1246" y1="1479.6516" x2="995.4895" y2="1497.6047" gradientTransform="matrix(1 0 0 1 -960 -1481)">
		<stop  offset="0" style="stop-color:#FFFFFF"/>
		<stop  offset="0.5" style="stop-color:#FFFFFF;stop-opacity:0.6"/>
		<stop  offset="1" style="stop-color:#FFFFFF;stop-opacity:0.15"/>
	</linearGradient>
	<path id="path45_1_" fill="url(#path45_2_)" d="M24.292,5.178l2.358,5.167c2.269-1.884,4.756-2.532,7.468-5.167L24.292,5.178z"/>
	
		<linearGradient id="path54_2_" gradientUnits="userSpaceOnUse" x1="988.3846" y1="1476.2424" x2="1001.0488" y2="1498.1774" gradientTransform="matrix(1 0 0 1 -960 -1481)">
		<stop  offset="0" style="stop-color:#FFFFFF"/>
		<stop  offset="0.5" style="stop-color:#FFFFFF;stop-opacity:0.6"/>
		<stop  offset="1" style="stop-color:#FFFFFF;stop-opacity:0.15"/>
	</linearGradient>
	<path id="path54_1_" fill="url(#path54_2_)" d="M41.987,5.178h-1.866c-4.704,2.635-8.817,4.646-12.346,7.65l4.324,9.486
		c3.694-4.266,7.979-8.005,12.778-11.025c0.037-0.034,0.063-0.063,0.103-0.097C50.358,6.549,45.017,5.178,41.987,5.178z"/>
	
		<linearGradient id="path63_2_" gradientUnits="userSpaceOnUse" x1="961.876" y1="1496.2646" x2="975.6191" y2="1520.0684" gradientTransform="matrix(1 0 0 1 -960 -1481)">
		<stop  offset="0" style="stop-color:#FFFFFF"/>
		<stop  offset="0.5" style="stop-color:#FFFFFF;stop-opacity:0.6"/>
		<stop  offset="1" style="stop-color:#FFFFFF;stop-opacity:0.15"/>
	</linearGradient>
	<path id="path63_1_" fill="url(#path63_2_)" d="M14.808,28.591c-2.893,4.925-4.783,9.476-5.905,12.588
		c1.328,1.895,3.523,3.138,6.013,3.138c3.083,0,5.716-1.905,6.807-4.596c0.279-0.751,0.619-1.473,0.93-2.213L14.808,28.591z"/>
	
		<linearGradient id="path72_2_" gradientUnits="userSpaceOnUse" x1="961.2581" y1="1497.2399" x2="976.4891" y2="1523.6207" gradientTransform="matrix(1 0 0 1 -960 -1481)">
		<stop  offset="0" style="stop-color:#FFFFFF"/>
		<stop  offset="0.5" style="stop-color:#FFFFFF;stop-opacity:0.6"/>
		<stop  offset="1" style="stop-color:#FFFFFF;stop-opacity:0.15"/>
	</linearGradient>
	<path id="path72_1_" fill="url(#path72_2_)" d="M7.627,20.42L7.569,36.958c0,0,0,0.005,0,0.011c0,0.103,0.026,0.2,0.032,0.303
		c1.257-3.059,3.012-6.799,5.394-10.749L7.627,20.42z"/>
	
		<linearGradient id="path149_2_" gradientUnits="userSpaceOnUse" x1="972.7764" y1="1488.978" x2="987.0781" y2="1513.7493" gradientTransform="matrix(1 0 0 1 -960 -1481)">
		<stop  offset="0" style="stop-color:#FFFFFF"/>
		<stop  offset="0.5" style="stop-color:#FFFFFF;stop-opacity:0.6"/>
		<stop  offset="1" style="stop-color:#FFFFFF;stop-opacity:0.15"/>
	</linearGradient>
	<path id="path149_1_" fill="url(#path149_2_)" d="M21.151,5.21C15.778,4.763,8.702,10.817,7.793,16.62l6.667,7.581
		c2.661-4.061,5.971-8.222,10.053-11.979L21.151,5.21z"/>
</g>
<g>
	<path opacity="0.3" fill="#669CCC" enable-background="new    " d="M64.003,46.948c-12.44,0-24.874,4.758-34.365,14.253
		l5.713,5.719c15.827-15.827,41.484-15.827,57.308,0l5.719-5.719C88.876,51.707,76.448,46.948,64.003,46.948z M64.003,63.155
		c-8.292,0-16.607,3.148-22.934,9.477l5.752,5.752c9.492-9.491,24.877-9.491,34.368,0l5.752-5.752
		C80.613,66.303,72.303,63.155,64.003,63.155z M64.003,79.365c-4.147,0-8.298,1.572-11.465,4.739l11.465,11.465l11.468-11.465
		C72.309,80.933,68.15,79.365,64.003,79.365z"/>
	<path opacity="0.3" fill="#669CCC" enable-background="new    " d="M64.003,46.948c-12.44,0-24.874,4.758-34.365,14.253
		l5.713,5.719c15.827-15.827,41.484-15.827,57.308,0l5.719-5.719C88.876,51.707,76.448,46.948,64.003,46.948z M64.003,49.189
		c11.156,0,22.221,4.15,31.04,12.155l-2.529,2.531c-16.213-14.574-40.802-14.574-57.015,0l-2.534-2.531
		C41.784,53.34,52.849,49.189,64.003,49.189z M64.003,63.155c-8.292,0-16.607,3.148-22.934,9.477l5.752,5.752
		c9.492-9.491,24.877-9.491,34.368,0l5.752-5.752C80.613,66.303,72.303,63.155,64.003,63.155z M64.003,65.399
		c7.014,0,13.971,2.525,19.614,7.38l-2.568,2.568c-9.849-8.292-24.238-8.292-34.081,0L44.4,72.779
		C50.04,67.924,56.994,65.399,64.003,65.399z M64.003,79.365c-4.147,0-8.298,1.572-11.465,4.739l11.465,11.465l11.468-11.465
		C72.309,80.934,68.15,79.365,64.003,79.365z M64.003,81.606c2.841,0,5.553,1.11,7.966,2.822l-7.966,7.959l-7.957-7.959
		C58.458,82.713,61.164,81.606,64.003,81.606z"/>
	<path opacity="0.3" fill="#669CCC" enable-background="new    " d="M64.003,46.948c-12.44,0-24.874,4.758-34.365,14.253
		l5.713,5.719c15.827-15.827,41.484-15.827,57.308,0l5.719-5.719C88.876,51.707,76.448,46.948,64.003,46.948z M64.003,48.142
		c11.772,0,23.486,4.427,32.637,13.132l-4.052,4.049c-16.046-15.16-41.117-15.16-57.159,0l-4.058-4.049
		C40.525,52.568,52.238,48.142,64.003,48.142z M64.003,63.155c-8.292,0-16.607,3.148-22.934,9.477l5.752,5.752
		c9.492-9.491,24.877-9.491,34.368,0l5.752-5.752C80.613,66.303,72.303,63.155,64.003,63.155z M64.003,64.349
		c7.625,0,15.224,2.813,21.202,8.357l-4.086,4.088c-9.706-8.841-24.525-8.841-34.225,0l-4.091-4.088
		C48.784,67.162,56.378,64.349,64.003,64.349z M64.003,79.365c-4.147,0-8.298,1.572-11.465,4.739l11.465,11.465l11.468-11.465
		C72.309,80.933,68.15,79.365,64.003,79.365z M64.003,80.556c3.478,0,6.938,1.23,9.737,3.618l-9.737,9.731l-9.728-9.731
		C57.073,81.784,60.531,80.556,64.003,80.556z"/>
	<path opacity="0.3" fill="#669CCC" enable-background="new    " d="M64.003,46.948c-12.44,0-24.874,4.759-34.365,14.253l0.577,0.58
		c9.421-9.108,21.602-13.673,33.788-13.673c12.195,0,24.375,4.565,33.797,13.673l0.577-0.58
		C88.876,51.707,76.448,46.948,64.003,46.948z M64.003,63.155c-8.292,0-16.607,3.148-22.934,9.477l0.577,0.577
		C47.9,67.269,55.961,64.312,64,64.312c8.042,0,16.111,2.957,22.362,8.898l0.577-0.577C80.613,66.302,72.303,63.155,64.003,63.155z
		 M64.003,79.365c-4.147,0-8.298,1.572-11.465,4.739l0.617,0.613c3.08-2.782,6.963-4.195,10.851-4.195
		c3.897,0,7.78,1.413,10.857,4.195l0.611-0.613C72.309,80.933,68.15,79.365,64.003,79.365z"/>
	<path opacity="0.3" fill="#FFFFFF" enable-background="new    " d="M64.003,44.631c-13.028,0-26.062,5.007-35.993,14.943
		c-0.006,0-0.071,0.071-0.071,0.073c-0.006,0-0.071,0.107-0.071,0.107c-0.006,0.003-0.076,0.071-0.076,0.071
		c0,0.003-0.071,0.107-0.071,0.11s-0.071,0.071-0.071,0.071c0,0.006-0.034,0.11-0.034,0.113c-0.006,0-0.076,0.107-0.076,0.11
		l-0.034,0.107c0,0.003-0.039,0.107-0.039,0.11c0,0-0.039,0.068-0.039,0.071c0,0.003-0.034,0.107-0.034,0.107
		c0,0.003-0.034,0.144-0.034,0.144c0,0.003,0,0.11,0,0.11c0,0.003-0.039,0.107-0.039,0.11c0,0.003,0,0.107,0,0.107
		c0,0.003,0,0.107,0,0.11c0,0,0,0.107,0,0.11c0,0.003,0,0.107,0,0.11s0.039,0.107,0.039,0.11v0.107c0,0.006,0.034,0.144,0.034,0.147
		c0,0,0.034,0.107,0.034,0.11c0,0.003,0.039,0.071,0.039,0.071c0,0.006,0.039,0.11,0.039,0.113l0.034,0.107
		c0,0.003,0.071,0.11,0.076,0.11c0,0.003,0.034,0.107,0.034,0.11l0.071,0.071c0,0.003,0.071,0.107,0.071,0.11
		c0,0,0.071,0.071,0.076,0.073c0,0,0.065,0.107,0.071,0.107c0,0.003,0.065,0.071,0.071,0.073l5.713,5.719
		c0.006,0,0.071,0.067,0.071,0.071c0.006,0,0.11,0.067,0.11,0.071c0,0.003,0.071,0.071,0.071,0.071c0.006,0,0.104,0.071,0.11,0.071
		c0,0.003,0.071,0.071,0.071,0.073c0,0,0.104,0.037,0.11,0.037c0,0,0.104,0.071,0.11,0.071l0.104,0.039
		c0.006,0,0.104,0.034,0.11,0.034c0.006,0,0.071,0.039,0.076,0.039l0.104,0.037c0.006,0,0.144,0.036,0.15,0.036h0.104
		c0.006,0,0.104,0.04,0.11,0.04c0,0,0.104,0,0.11,0h0.104c0.006,0,0.11,0,0.11,0s0.104,0,0.11,0c0,0,0.104-0.04,0.11-0.04h0.104
		c0.006,0,0.144-0.036,0.15-0.036l0.104-0.037c0.006,0,0.071-0.039,0.071-0.039c0.006,0,0.11-0.034,0.11-0.034l0.11-0.039
		c0,0,0.104-0.071,0.11-0.071l0.104-0.037c0.006-0.003,0.071-0.071,0.071-0.073c0.006,0,0.11-0.071,0.11-0.071
		s0.071-0.068,0.071-0.071c0.006-0.003,0.11-0.071,0.11-0.071c0-0.003,0.071-0.071,0.071-0.071c14.943-14.943,39.11-14.943,54.056,0
		c0,0,0.065,0.067,0.065,0.071c0.006,0,0.11,0.067,0.11,0.071c0.006,0.003,0.071,0.071,0.076,0.071l0.104,0.071
		c0.006,0.003,0.071,0.071,0.071,0.073c0.006,0.002,0.104,0.037,0.11,0.037l0.11,0.071c0,0,0.104,0.039,0.11,0.039l0.104,0.034
		c0.006,0,0.071,0.039,0.071,0.039c0.006,0,0.11,0.037,0.11,0.037l0.144,0.036c0.006,0,0.11,0,0.11,0l0.11,0.04c0,0,0.104,0,0.11,0
		h0.104c0.006,0,0.11,0,0.11,0c0.006,0,0.104,0,0.11,0l0.104-0.04c0.006,0,0.11,0,0.11,0c0.006,0,0.144-0.036,0.144-0.036
		c0.006,0,0.11-0.037,0.11-0.037c0.006,0,0.071-0.039,0.071-0.039c0.006,0,0.11-0.034,0.11-0.034c0.006,0,0.104-0.039,0.11-0.039
		l0.104-0.071c0.006,0,0.11-0.034,0.11-0.034c0.006-0.005,0.071-0.073,0.076-0.076l0.104-0.071c0.006,0,0.071-0.068,0.076-0.071
		c0-0.003,0.104-0.071,0.104-0.071c0.006-0.003,0.071-0.071,0.071-0.071l5.713-5.719c0.006,0,0.071-0.071,0.076-0.073
		c0.006,0,0.065-0.107,0.071-0.107c0-0.003,0.071-0.071,0.071-0.071c0.006-0.003,0.071-0.107,0.071-0.11
		c0.006,0,0.076-0.071,0.076-0.071c0-0.003,0.034-0.11,0.034-0.113c0,0,0.071-0.107,0.071-0.11c0.006,0,0.039-0.107,0.039-0.107
		c0-0.003,0.034-0.107,0.034-0.11c0,0,0.039-0.071,0.039-0.073c0-0.003,0.039-0.107,0.039-0.11c0-0.003,0.034-0.141,0.034-0.147
		v-0.107c0-0.003,0.039-0.107,0.039-0.11c0,0,0-0.107,0-0.11c0-0.003,0-0.107,0-0.107c0-0.003,0-0.107,0-0.11c0,0,0-0.107,0-0.11
		c0-0.003-0.039-0.107-0.039-0.11c0,0,0-0.107,0-0.11c0,0-0.034-0.141-0.034-0.144c0,0-0.039-0.107-0.039-0.11
		c0-0.003-0.039-0.071-0.039-0.071c0-0.003-0.034-0.11-0.034-0.113c0,0-0.034-0.107-0.039-0.107c0-0.003-0.071-0.107-0.071-0.11
		c0-0.003-0.034-0.107-0.034-0.11c0,0-0.071-0.068-0.076-0.071c0-0.003-0.065-0.107-0.071-0.11c0,0-0.071-0.071-0.071-0.073
		c-0.006,0-0.065-0.107-0.071-0.107c-0.006-0.003-0.071-0.071-0.076-0.073C90.065,49.64,77.036,44.631,64.003,44.631L64.003,44.631z
		 M64.003,46.948c12.448,0,24.877,4.758,34.374,14.253l-5.719,5.719c-15.821-15.827-41.478-15.827-57.308,0l-5.713-5.719
		C39.128,51.707,51.563,46.948,64.003,46.948z M64.003,60.841c-8.875,0-17.784,3.39-24.567,10.165l-0.065,0.071
		c-0.006,0.003-0.071,0.107-0.076,0.11c0,0.003-0.065,0.068-0.071,0.073l-0.071,0.104c0,0.006-0.071,0.071-0.071,0.074
		c0,0.003-0.039,0.104-0.039,0.11l-0.071,0.107c0,0.003-0.034,0.105-0.039,0.111c0,0-0.034,0.104-0.034,0.107
		c0,0.002-0.039,0.068-0.039,0.071c0,0.002-0.034,0.107-0.034,0.11c0,0-0.039,0.141-0.039,0.144c0,0.003,0,0.107,0,0.11
		l-0.034,0.107c0,0.003,0,0.104,0,0.11c0,0.003,0,0.104,0,0.107c0,0.002,0,0.107,0,0.107c0,0.006,0,0.107,0,0.113l0.034,0.104
		c0,0.006,0,0.107,0,0.109c0,0.003,0.039,0.144,0.039,0.144c0,0.005,0.034,0.107,0.034,0.11s0.039,0.071,0.039,0.071
		c0,0.003,0.034,0.107,0.034,0.11c0.006,0.003,0.039,0.104,0.039,0.11l0.071,0.104c0,0.006,0.039,0.107,0.039,0.11
		c0,0.003,0.071,0.071,0.071,0.073l0.071,0.107c0,0.003,0.071,0.071,0.071,0.071c0.006,0.003,0.071,0.107,0.076,0.109
		c0,0.003,0.065,0.071,0.065,0.071l5.752,5.752c0.006,0.003,0.071,0.071,0.076,0.071c0,0.003,0.104,0.071,0.104,0.074
		c0.006,0,0.071,0.067,0.071,0.071c0.006,0.003,0.11,0.071,0.11,0.071c0.006,0.003,0.071,0.071,0.076,0.073l0.104,0.037
		c0.006,0,0.104,0.071,0.11,0.071c0,0.003,0.104,0.036,0.11,0.036c0,0.003,0.104,0.037,0.104,0.037c0.006,0,0.071,0.039,0.076,0.039
		l0.104,0.037c0.006,0,0.144,0.037,0.15,0.037h0.104c0.006,0,0.104,0.036,0.11,0.036s0.104,0,0.11,0c0,0,0.104,0,0.11,0
		c0,0,0.104,0,0.11,0h0.104c0.006,0,0.104-0.036,0.11-0.036c0,0,0.104,0,0.11,0c0,0,0.138-0.037,0.144-0.037
		c0,0,0.104-0.037,0.11-0.037c0,0,0.065-0.039,0.071-0.039c0,0,0.104-0.034,0.11-0.037c0,0,0.104-0.033,0.104-0.036
		c0.006,0,0.104-0.071,0.11-0.071c0,0,0.104-0.037,0.11-0.037c0-0.003,0.071-0.071,0.071-0.073c0,0,0.104-0.068,0.11-0.071
		c0-0.003,0.065-0.071,0.071-0.071c0-0.003,0.104-0.071,0.104-0.074c0.006,0,0.071-0.067,0.076-0.071
		c8.613-8.613,22.5-8.613,31.113,0c0,0.003,0.071,0.071,0.071,0.071c0.006,0.003,0.104,0.071,0.11,0.074
		c0,0,0.065,0.067,0.071,0.071c0,0.003,0.11,0.071,0.11,0.071c0,0.003,0.071,0.071,0.071,0.073c0,0,0.104,0.037,0.11,0.037
		l0.104,0.071c0.006,0.003,0.11,0.036,0.11,0.036c0,0.003,0.11,0.037,0.11,0.037l0.071,0.039c0,0,0.104,0.037,0.11,0.037
		l0.144,0.037c0.006,0,0.104,0,0.11,0l0.104,0.036c0.006,0,0.11,0,0.11,0c0.006,0,0.11,0,0.11,0s0.104,0,0.11,0h0.104
		c0.006,0,0.11-0.036,0.11-0.036c0.006,0,0.104,0,0.11,0l0.144-0.037c0.006,0,0.104-0.037,0.11-0.037l0.071-0.039
		c0,0,0.104-0.034,0.11-0.037c0.006,0,0.104-0.033,0.11-0.036l0.104-0.071c0.006,0,0.104-0.037,0.11-0.037
		c0.006-0.003,0.071-0.071,0.071-0.073c0.006,0,0.104-0.068,0.11-0.071c0.006-0.003,0.065-0.071,0.071-0.071
		c0.006-0.003,0.104-0.071,0.11-0.074c0,0,0.071-0.067,0.071-0.071l5.752-5.752c0.006,0,0.065-0.067,0.071-0.071
		c0.006-0.002,0.071-0.107,0.071-0.109c0.006,0,0.071-0.068,0.071-0.071c0.006,0,0.076-0.107,0.076-0.107
		c0-0.003,0.071-0.071,0.071-0.073c0-0.003,0.034-0.104,0.034-0.11c0.006,0,0.071-0.104,0.071-0.104
		c0.006-0.006,0.039-0.107,0.039-0.11c0-0.003,0.039-0.107,0.039-0.11c0,0,0.034-0.068,0.034-0.071s0.039-0.105,0.039-0.11
		c0,0,0.039-0.141,0.039-0.144c0-0.002,0-0.104,0-0.109l0.034-0.104c0-0.006,0-0.107,0-0.113c0,0,0-0.105,0-0.107
		c0-0.003,0-0.104,0-0.107c0-0.006,0-0.107,0-0.11l-0.034-0.107c0-0.003,0-0.107,0-0.11c0-0.003-0.039-0.144-0.039-0.144
		c0-0.003-0.039-0.108-0.039-0.11c0-0.003-0.034-0.068-0.034-0.071c0-0.003-0.039-0.107-0.039-0.107
		c0-0.006-0.034-0.107-0.039-0.111c0,0-0.065-0.107-0.071-0.107c0-0.006-0.034-0.107-0.034-0.11c0-0.003-0.071-0.068-0.071-0.074
		c0,0-0.071-0.104-0.076-0.104c0-0.006-0.065-0.071-0.071-0.073c0-0.003-0.065-0.107-0.071-0.11c-0.006,0-0.065-0.071-0.071-0.071
		C81.795,64.231,72.886,60.841,64.003,60.841L64.003,60.841z M64.003,63.155c8.301,0,16.61,3.148,22.94,9.477l-5.752,5.752
		c-9.492-9.491-24.877-9.491-34.368,0l-5.752-5.752C47.393,66.303,55.707,63.155,64.003,63.155z M64.003,77.045
		c-4.731,0-9.486,1.819-13.093,5.429c0,0-0.071,0.068-0.071,0.071c-0.006,0.003-0.071,0.107-0.071,0.107
		c-0.006,0.005-0.071,0.071-0.076,0.073c0,0.002-0.065,0.107-0.071,0.107c0,0.003-0.071,0.071-0.071,0.071
		c0,0.006-0.034,0.107-0.034,0.113c0,0-0.071,0.104-0.076,0.104c0,0.005-0.034,0.107-0.034,0.11s-0.039,0.107-0.039,0.11
		l-0.034,0.071c0,0.003-0.039,0.104-0.039,0.11l-0.034,0.144c0,0.003,0,0.104,0,0.11c0,0-0.039,0.104-0.039,0.107s0,0.107,0,0.107
		c0,0.003,0,0.108,0,0.111c0,0,0,0.104,0,0.107c0,0.006,0,0.107,0,0.11l0.039,0.107c0,0.003,0,0.104,0,0.11
		c0,0.002,0.034,0.143,0.034,0.143c0,0.003,0.039,0.108,0.039,0.111c0,0.003,0.034,0.068,0.034,0.073l0.039,0.104
		c0,0.006,0.034,0.107,0.034,0.11c0.006,0.003,0.076,0.107,0.076,0.11c0,0,0.034,0.104,0.034,0.107c0,0.003,0.071,0.068,0.071,0.073
		c0.006,0,0.071,0.104,0.071,0.104c0.006,0.006,0.071,0.071,0.076,0.074c0,0.003,0.065,0.107,0.071,0.107
		c0,0.003,0.071,0.071,0.071,0.071l11.465,11.471c0.006,0.003,0.071,0.068,0.071,0.071c0.006,0.003,0.104,0.068,0.11,0.071
		c0,0.003,0.071,0.071,0.071,0.071c0.006,0.003,0.11,0.071,0.11,0.071c0.006,0.003,0.071,0.073,0.071,0.073
		c0.006,0,0.11,0.036,0.11,0.039c0,0,0.104,0.067,0.11,0.071c0,0,0.104,0.034,0.104,0.037c0.006,0.003,0.11,0.034,0.11,0.034
		c0.006,0,0.071,0.039,0.071,0.039c0.006,0,0.11,0.036,0.11,0.036l0.144,0.04c0.006,0,0.11,0,0.11,0s0.104,0.037,0.11,0.037
		c0,0,0.104,0,0.11,0H64c0.006,0,0.104,0,0.11,0c0,0,0.104,0,0.11,0l0.104-0.037c0.006,0,0.11,0,0.11,0l0.144-0.04
		c0.006,0,0.11-0.036,0.11-0.036l0.071-0.039c0.006,0,0.104-0.031,0.11-0.034c0.006-0.003,0.104-0.037,0.11-0.037
		c0-0.003,0.104-0.071,0.11-0.071c0-0.003,0.104-0.039,0.11-0.039c0,0,0.065-0.071,0.071-0.073c0,0,0.104-0.068,0.104-0.071
		c0.006,0,0.073-0.068,0.079-0.071c0-0.003,0.104-0.068,0.104-0.071c0.006-0.003,0.071-0.068,0.071-0.071L77.101,85.72
		c0,0,0.065-0.068,0.071-0.071c0,0,0.071-0.104,0.071-0.107c0-0.003,0.071-0.068,0.071-0.074l0.071-0.104
		c0-0.006,0.071-0.071,0.076-0.073c0-0.003,0.034-0.107,0.034-0.107c0-0.003,0.071-0.107,0.071-0.11c0-0.003,0.039-0.104,0.039-0.11
		l0.034-0.104c0-0.006,0.039-0.071,0.039-0.073c0-0.003,0.039-0.107,0.039-0.111c0,0,0.034-0.141,0.034-0.143
		c0-0.006,0-0.107,0-0.11l0.039-0.107c0-0.003,0-0.104,0-0.11c0-0.003,0-0.107,0-0.107c0-0.003,0-0.107,0-0.111c0,0,0-0.104,0-0.107
		s-0.039-0.107-0.039-0.107c0-0.006,0-0.107,0-0.11l-0.034-0.144c0-0.006-0.039-0.107-0.039-0.11l-0.039-0.071
		c0-0.003-0.034-0.107-0.034-0.11s-0.039-0.105-0.039-0.11l-0.071-0.104c0-0.006-0.034-0.107-0.034-0.113
		c-0.006,0-0.076-0.068-0.076-0.071c0,0-0.071-0.105-0.071-0.107c0,0-0.071-0.068-0.071-0.073c0,0-0.071-0.104-0.071-0.107
		c-0.006-0.003-0.071-0.071-0.071-0.071C73.491,78.867,68.738,77.045,64.003,77.045z M64.003,79.365
		c4.15,0,8.306,1.572,11.468,4.739L64.003,95.569L52.537,84.104C55.702,80.933,59.855,79.365,64.003,79.365z"/>
	<path opacity="0.3" fill="#FFFFFF" enable-background="new    " d="M64.003,45.717c-12.752,0-25.507,4.889-35.236,14.613
		c-0.478,0.481-0.478,1.259,0,1.737l5.713,5.716c0.484,0.481,1.259,0.481,1.737,0c15.354-15.354,40.219-15.354,55.573,0
		c0.473,0.481,1.253,0.481,1.731,0l5.713-5.716c0.484-0.478,0.484-1.256,0-1.737C89.515,50.606,76.763,45.717,64.003,45.717z
		 M64.003,46.948c12.448,0,24.877,4.758,34.374,14.253l-5.719,5.719c-15.821-15.827-41.478-15.827-57.308,0l-5.713-5.719
		C39.128,51.706,51.563,46.948,64.003,46.948z M64.003,61.924c-8.608,0-17.235,3.275-23.801,9.844c-0.478,0.476-0.478,1.255,0,1.734
		l5.752,5.752c0.478,0.478,1.253,0.478,1.737,0c9.024-9.024,23.607-9.024,32.631,0c0.478,0.478,1.259,0.478,1.737,0l5.752-5.752
		c0.478-0.478,0.478-1.258,0-1.734C81.246,65.196,72.61,61.924,64.003,61.924z M64.003,63.155c8.301,0,16.61,3.148,22.94,9.478
		l-5.752,5.752c-9.492-9.492-24.877-9.492-34.368,0l-5.752-5.752C47.393,66.302,55.707,63.155,64.003,63.155z M64.003,78.132
		c-4.46,0-8.937,1.701-12.336,5.102c-0.478,0.478-0.478,1.259,0,1.734l11.465,11.468c0.484,0.481,1.259,0.481,1.737,0l11.468-11.468
		c0.484-0.476,0.484-1.256,0-1.734C72.94,79.833,68.462,78.132,64.003,78.132z M64.003,79.365c4.15,0,8.306,1.572,11.468,4.739
		L64.003,95.569L52.537,84.104C55.702,80.933,59.855,79.365,64.003,79.365z"/>
	<path opacity="0.3" fill="#FFFFFF" enable-background="new    " d="M64.003,55.048c-10.367,0-20.738,3.956-28.652,11.868
		l-5.136-5.139c-0.197,0.188-0.386,0.386-0.577,0.58l5.713,5.716c15.827-15.824,41.484-15.824,57.308,0l5.719-5.716
		c-0.197-0.194-0.386-0.389-0.577-0.58l-5.141,5.139C84.749,59.004,74.376,55.048,64.003,55.048z M64.003,71.261
		c-6.214,0-12.434,2.379-17.182,7.124l-5.175-5.175c-0.197,0.188-0.386,0.389-0.577,0.58l5.752,5.752
		c9.492-9.495,24.877-9.495,34.368,0l5.752-5.752c-0.191-0.191-0.38-0.392-0.577-0.58l-5.175,5.175
		C76.442,73.637,70.223,71.261,64.003,71.261z M53.151,84.714c-0.203,0.183-0.423,0.349-0.617,0.543l11.465,11.465l11.468-11.465
		c-0.191-0.194-0.411-0.361-0.611-0.543L63.999,95.566C64,95.566,53.151,84.714,53.151,84.714z"/>
</g>
</svg>
