<?xml version="1.0" encoding="utf-8"?>
<!-- Generator: Adobe Illustrator 17.0.0, SVG Export Plug-In . SVG Version: 6.00 Build 0)  -->
<!DOCTYPE svg PUBLIC "-//W3C//DTD SVG 1.1//EN" "http://www.w3.org/Graphics/SVG/1.1/DTD/svg11.dtd">
<svg version="1.1" id="图层_1" xmlns="http://www.w3.org/2000/svg" xmlns:xlink="http://www.w3.org/1999/xlink" x="0px" y="0px"
	 width="128px" height="128px" viewBox="0 0 128 128" enable-background="new 0 0 128 128" xml:space="preserve">
<g id="g151" opacity="0.5">
	<path id="path153" opacity="0.08" enable-background="new    " d="M106.873,118.496H20.952c-7.91,0-14.357-6.201-14.357-13.797
		v10.553c0,5.936,5.043,10.748,11.222,10.748h92.188c6.178,0,11.151-4.812,11.151-10.748v-10.553
		C121.156,112.296,114.78,118.496,106.873,118.496z"/>
	<path id="path155" opacity="0.1" enable-background="new    " d="M106.8,118.496H20.879c-7.907,0-14.284-6.088-14.284-13.684v5.52
		c0,5.936,2.723,13.167,13.755,13.167s75.798,0,86.975,0s13.831-7.231,13.831-13.167v-5.52
		C121.156,112.408,114.707,118.496,106.8,118.496z"/>
	<path id="path157" opacity="0.1" enable-background="new    " d="M106.8,118.496H20.879c-7.907,0-14.284-6.088-14.284-13.684v2.979
		c0,5.938,4.723,13.207,13.755,13.207s76.636,0,86.975,0c10.342,0,13.831-7.269,13.831-13.204v-2.979
		C121.156,112.408,114.707,118.496,106.8,118.496z"/>
	<rect id="rect159" x="19.613" y="118.496" opacity="0.05" enable-background="new    " width="88.525" height="2.501"/>
	<rect id="rect161" x="22.217" y="118.496" opacity="0.05" enable-background="new    " width="80.714" height="2.501"/>
	<rect id="rect163" x="22.217" y="120.997" opacity="0.05" enable-background="new    " width="80.714" height="2.501"/>
	<rect id="rect165" x="27.424" y="120.997" opacity="0.05" enable-background="new    " width="72.903" height="2.501"/>
	<rect id="rect167" x="35.235" y="120.997" opacity="0.05" enable-background="new    " width="57.281" height="2.501"/>
	<rect id="rect169" x="45.65" y="120.997" opacity="0.05" enable-background="new    " width="36.451" height="2.501"/>
	<rect id="rect171" x="27.424" y="118.496" opacity="0.05" enable-background="new    " width="72.903" height="2.501"/>
	<rect id="rect173" x="32.632" y="118.496" opacity="0.05" enable-background="new    " width="62.488" height="2.501"/>
	<rect id="rect175" x="35.235" y="118.496" opacity="0.05" enable-background="new    " width="57.281" height="2.501"/>
	<rect id="rect177" x="40.443" y="118.496" opacity="0.05" enable-background="new    " width="46.866" height="2.501"/>
	<rect id="rect179" x="40.443" y="118.496" opacity="0.05" enable-background="new    " width="46.866" height="2.501"/>
</g>
<path fill="#C4DCED" stroke="#9DBCD7" stroke-width="2" stroke-miterlimit="10" d="M121,102.992c0,8.288-6.719,15.008-15.008,15.008
	H22.008C13.719,118,7,111.281,7,102.992V19.008C7,10.719,13.719,4,22.008,4h83.985C114.281,4,121,10.719,121,19.008V102.992z"/>
<path opacity="0.5" fill="none" stroke="#FFFFFF" stroke-width="2" stroke-miterlimit="10" enable-background="new    " d="
	M119,102.992c0,7.184-5.824,13.008-13.008,13.008H22.008C14.824,116,9,110.176,9,102.992V19.008C9,11.824,14.824,6,22.008,6h83.984
	C113.176,6,119,11.824,119,19.008V102.992z"/>
<g>
	<g>
		<path opacity="0.08" fill="none" stroke="#000000" stroke-miterlimit="10" enable-background="new    " d="M121.405,53.867
			c0,0,0-5.043-4.981-5.043c-14.457,0-60.62,0.008-64.752,0.008c-5.021,0-4.981-4.97-4.981-4.97s0-5.003-4.981-5.003
			c-8.719,0-26.182,0-29.886,0c-4.904,0-4.981,4.822-4.981,4.975"/>
		<path opacity="0.05" fill="none" stroke="#000000" stroke-miterlimit="10" enable-background="new    " d="M121.405,53.37
			c0,0,0-5.043-4.981-5.043c-14.457,0-60.62,0.008-64.752,0.008c-5.021,0-4.981-4.97-4.981-4.97s0-5.003-4.981-5.003
			c-8.719,0-26.182,0-29.886,0c-4.904,0-4.981,4.822-4.981,4.975"/>
		<path opacity="0.03" fill="none" stroke="#000000" stroke-miterlimit="10" enable-background="new    " d="M121.405,52.873
			c0,0,0-5.043-4.981-5.043c-14.457,0-60.62,0.008-64.752,0.008c-5.021,0-4.981-4.97-4.981-4.97s0-5.003-4.981-5.003
			c-8.719,0-26.182,0-29.886,0c-4.904,0-4.981,4.822-4.981,4.975"/>
		
			<linearGradient id="SVGID_1_" gradientUnits="userSpaceOnUse" x1="338" y1="-353" x2="338" y2="-275" gradientTransform="matrix(1 0 0 -1 -274 -235)">
			<stop  offset="0" style="stop-color:#D1E0ED"/>
			<stop  offset="1" style="stop-color:#E4EEFB"/>
		</linearGradient>
		<path fill="url(#SVGID_1_)" stroke="#9DBCD7" stroke-width="2" stroke-miterlimit="10" d="M21.975,118h84.298
			c8.288,0,14.727-6.891,14.727-15.18V51.522c0-1.181-1.766-2.295-4.117-2.295c-14.52,0-60.813,0.008-64.963,0.008
			c-5.043,0-4.967-4.601-4.967-4.601S46.988,40,41.985,40c-8.757,0-26.296,0-30.015,0C7.045,40,7,44.084,7,44.237v58.584
			C7,111.109,13.687,118,21.975,118z"/>
		<path fill="none" stroke="#FFFFFF" stroke-width="2" stroke-miterlimit="10" d="M21.975,116C14.821,116,9,110.088,9,102.82V44.237
			c0-0.095,0.015-0.894,0.608-1.488C10.104,42.252,10.898,42,11.97,42h30.015c1.184,0,1.786,0.141,2.146,0.503
			c0.796,0.801,0.832,2.023,0.832,2.036c-0.004,0.261,0.011,2.87,1.945,4.833c1.232,1.25,2.921,1.884,5.02,1.884
			c0,0,55.49-0.021,64.952-0.021c1.25,0,1.942,0.428,2.12,0.636v50.951c0,7.268-5.709,13.18-12.727,13.18H21.975V116z"/>
	</g>
	
		<radialGradient id="SVGID_2_" cx="433.393" cy="301.4152" r="82.9066" gradientTransform="matrix(0.0197 0.9998 0.9109 -0.018 -223.0688 -370.3121)" gradientUnits="userSpaceOnUse">
		<stop  offset="0" style="stop-color:#FFFFFF;stop-opacity:0.6"/>
		<stop  offset="0.3783" style="stop-color:#FAFCFE;stop-opacity:0.4487"/>
		<stop  offset="0.829" style="stop-color:#EBF3FC;stop-opacity:0.2684"/>
		<stop  offset="1" style="stop-color:#E4EEFB;stop-opacity:0.2"/>
	</radialGradient>
	<path fill="url(#SVGID_2_)" d="M21.975,116C14.821,116,9,110.088,9,102.82V44.237c0-0.095,0.015-0.894,0.608-1.488
		C10.104,42.252,10.898,42,11.97,42h30.015c1.184,0,1.786,0.141,2.146,0.503c0.796,0.801,0.832,2.023,0.832,2.036
		c-0.004,0.261,0.011,2.87,1.945,4.833c1.232,1.25,2.921,1.884,5.02,1.884c0,0,55.49-0.021,64.952-0.021
		c1.25,0,1.942,0.428,2.12,0.636v50.951c0,7.268-5.709,13.18-12.727,13.18H21.975V116z"/>
</g>
<g id="g27_1_">
	
		<linearGradient id="path36_2_" gradientUnits="userSpaceOnUse" x1="696.7643" y1="-1055.7594" x2="712.6021" y2="-1083.191" gradientTransform="matrix(1 0 0 -1 -686 -1053)">
		<stop  offset="0" style="stop-color:#FFFFFF"/>
		<stop  offset="0.5" style="stop-color:#FFFFFF;stop-opacity:0.6"/>
		<stop  offset="1" style="stop-color:#FFFFFF;stop-opacity:0.15"/>
	</linearGradient>
	<path id="path36_1_" fill="url(#path36_2_)" d="M23.823,34.852c1.771-3.665,3.932-7.099,6.411-10.274l-4.511-9.892
		c-3.853,3.642-6.98,7.655-9.476,11.552L23.823,34.852z"/>
	
		<linearGradient id="path45_2_" gradientUnits="userSpaceOnUse" x1="711.1246" y1="-1051.6516" x2="721.4895" y2="-1069.6047" gradientTransform="matrix(1 0 0 -1 -686 -1053)">
		<stop  offset="0" style="stop-color:#FFFFFF"/>
		<stop  offset="0.5" style="stop-color:#FFFFFF;stop-opacity:0.6"/>
		<stop  offset="1" style="stop-color:#FFFFFF;stop-opacity:0.15"/>
	</linearGradient>
	<path id="path45_1_" fill="url(#path45_2_)" d="M24.292,5.178l2.358,5.167c2.269-1.884,4.756-2.532,7.468-5.167L24.292,5.178z"/>
	
		<linearGradient id="path54_2_" gradientUnits="userSpaceOnUse" x1="714.3847" y1="-1048.2424" x2="727.0488" y2="-1070.1774" gradientTransform="matrix(1 0 0 -1 -686 -1053)">
		<stop  offset="0" style="stop-color:#FFFFFF"/>
		<stop  offset="0.5" style="stop-color:#FFFFFF;stop-opacity:0.6"/>
		<stop  offset="1" style="stop-color:#FFFFFF;stop-opacity:0.15"/>
	</linearGradient>
	<path id="path54_1_" fill="url(#path54_2_)" d="M41.987,5.178h-1.866c-4.704,2.635-8.817,4.646-12.346,7.65l4.324,9.486
		c3.694-4.266,7.979-8.005,12.778-11.025c0.037-0.034,0.063-0.063,0.103-0.097C50.358,6.549,45.017,5.178,41.987,5.178z"/>
	
		<linearGradient id="path63_2_" gradientUnits="userSpaceOnUse" x1="687.8759" y1="-1068.2646" x2="701.6191" y2="-1092.0684" gradientTransform="matrix(1 0 0 -1 -686 -1053)">
		<stop  offset="0" style="stop-color:#FFFFFF"/>
		<stop  offset="0.5" style="stop-color:#FFFFFF;stop-opacity:0.6"/>
		<stop  offset="1" style="stop-color:#FFFFFF;stop-opacity:0.15"/>
	</linearGradient>
	<path id="path63_1_" fill="url(#path63_2_)" d="M14.808,28.591c-2.893,4.925-4.783,9.476-5.905,12.588
		c1.328,1.895,3.523,3.138,6.013,3.138c3.083,0,5.716-1.905,6.807-4.596c0.279-0.751,0.619-1.473,0.93-2.213L14.808,28.591z"/>
	
		<linearGradient id="path72_2_" gradientUnits="userSpaceOnUse" x1="687.2581" y1="-1069.2399" x2="702.4891" y2="-1095.6207" gradientTransform="matrix(1 0 0 -1 -686 -1053)">
		<stop  offset="0" style="stop-color:#FFFFFF"/>
		<stop  offset="0.5" style="stop-color:#FFFFFF;stop-opacity:0.6"/>
		<stop  offset="1" style="stop-color:#FFFFFF;stop-opacity:0.15"/>
	</linearGradient>
	<path id="path72_1_" fill="url(#path72_2_)" d="M7.627,20.42L7.569,36.958c0,0,0,0.005,0,0.011c0,0.103,0.026,0.2,0.032,0.303
		c1.257-3.059,3.012-6.799,5.394-10.749L7.627,20.42z"/>
	
		<linearGradient id="path149_2_" gradientUnits="userSpaceOnUse" x1="698.7764" y1="-1060.978" x2="713.0781" y2="-1085.7493" gradientTransform="matrix(1 0 0 -1 -686 -1053)">
		<stop  offset="0" style="stop-color:#FFFFFF"/>
		<stop  offset="0.5" style="stop-color:#FFFFFF;stop-opacity:0.6"/>
		<stop  offset="1" style="stop-color:#FFFFFF;stop-opacity:0.15"/>
	</linearGradient>
	<path id="path149_1_" fill="url(#path149_2_)" d="M21.151,5.21C15.778,4.763,8.702,10.817,7.793,16.62l6.667,7.581
		c2.661-4.061,5.971-8.222,10.053-11.979L21.151,5.21z"/>
</g>
</svg>
