<?xml version="1.0" encoding="utf-8"?>
<!-- Generator: Adobe Illustrator 17.0.0, SVG Export Plug-In . SVG Version: 6.00 Build 0)  -->
<!DOCTYPE svg PUBLIC "-//W3C//DTD SVG 1.1//EN" "http://www.w3.org/Graphics/SVG/1.1/DTD/svg11.dtd">
<svg version="1.1" id="图层_1" xmlns="http://www.w3.org/2000/svg" xmlns:xlink="http://www.w3.org/1999/xlink" x="0px" y="0px"
	 width="128px" height="128px" viewBox="0 0 128 128" enable-background="new 0 0 128 128" xml:space="preserve">
<g id="g151" opacity="0.5">
	<path id="path153" opacity="0.08" enable-background="new    " d="M106.873,118.496H20.952c-7.91,0-14.357-6.201-14.357-13.797
		v10.553c0,5.936,5.043,10.748,11.222,10.748h92.188c6.178,0,11.151-4.812,11.151-10.748v-10.553
		C121.156,112.296,114.78,118.496,106.873,118.496z"/>
	<path id="path155" opacity="0.1" enable-background="new    " d="M106.8,118.496H20.879c-7.907,0-14.284-6.088-14.284-13.684v5.52
		c0,5.936,2.723,13.167,13.755,13.167s75.798,0,86.975,0s13.831-7.231,13.831-13.167v-5.52
		C121.156,112.408,114.707,118.496,106.8,118.496z"/>
	<path id="path157" opacity="0.1" enable-background="new    " d="M106.8,118.496H20.879c-7.907,0-14.284-6.088-14.284-13.684v2.979
		c0,5.938,4.723,13.207,13.755,13.207s76.636,0,86.975,0c10.342,0,13.831-7.269,13.831-13.204v-2.979
		C121.156,112.408,114.707,118.496,106.8,118.496z"/>
	<rect id="rect159" x="19.613" y="118.496" opacity="0.05" enable-background="new    " width="88.525" height="2.501"/>
	<rect id="rect161" x="22.217" y="118.496" opacity="0.05" enable-background="new    " width="80.714" height="2.501"/>
	<rect id="rect163" x="22.217" y="120.997" opacity="0.05" enable-background="new    " width="80.714" height="2.501"/>
	<rect id="rect165" x="27.424" y="120.997" opacity="0.05" enable-background="new    " width="72.903" height="2.501"/>
	<rect id="rect167" x="35.235" y="120.997" opacity="0.05" enable-background="new    " width="57.281" height="2.501"/>
	<rect id="rect169" x="45.65" y="120.997" opacity="0.05" enable-background="new    " width="36.451" height="2.501"/>
	<rect id="rect171" x="27.424" y="118.496" opacity="0.05" enable-background="new    " width="72.903" height="2.501"/>
	<rect id="rect173" x="32.632" y="118.496" opacity="0.05" enable-background="new    " width="62.488" height="2.501"/>
	<rect id="rect175" x="35.235" y="118.496" opacity="0.05" enable-background="new    " width="57.281" height="2.501"/>
	<rect id="rect177" x="40.443" y="118.496" opacity="0.05" enable-background="new    " width="46.866" height="2.501"/>
	<rect id="rect179" x="40.443" y="118.496" opacity="0.05" enable-background="new    " width="46.866" height="2.501"/>
</g>
<path fill="#C4DCED" stroke="#9DBCD7" stroke-width="2" stroke-miterlimit="10" d="M121,102.992c0,8.288-6.719,15.008-15.008,15.008
	H22.008C13.719,118,7,111.281,7,102.992V19.008C7,10.719,13.719,4,22.008,4h83.985C114.281,4,121,10.719,121,19.008V102.992z"/>
<path opacity="0.5" fill="none" stroke="#FFFFFF" stroke-width="2" stroke-miterlimit="10" enable-background="new    " d="
	M119,102.992c0,7.184-5.824,13.008-13.008,13.008H22.008C14.824,116,9,110.176,9,102.992V19.008C9,11.824,14.824,6,22.008,6h83.984
	C113.176,6,119,11.824,119,19.008V102.992z"/>
<path opacity="0.08" fill="none" stroke="#000000" stroke-miterlimit="10" enable-background="new    " d="M121.426,37.445
	c0,0,0-5.043-4.981-5.043c-14.457,0-60.62,0.008-64.752,0.008c-5.021,0-4.981-4.97-4.981-4.97s0-5.003-4.981-5.003
	c-8.719,0-26.182,0-29.886,0c-4.904,0-4.981,4.822-4.981,4.975"/>
<path opacity="0.05" fill="none" stroke="#000000" stroke-miterlimit="10" enable-background="new    " d="M121.405,36.445
	c0,0,0-5.043-4.981-5.043c-14.457,0-60.62,0.008-64.752,0.008c-5.021,0-4.981-4.97-4.981-4.97s0-5.003-4.981-5.003
	c-8.719,0-26.182,0-29.886,0c-4.904,0-4.981,4.822-4.981,4.975"/>
<path opacity="0.03" fill="none" stroke="#000000" stroke-miterlimit="10" enable-background="new    " d="M121.405,35.487
	c0,0,0-5.043-4.981-5.043c-14.457,0-60.62,0.008-64.752,0.008c-5.021,0-4.981-4.97-4.981-4.97s0-5.003-4.981-5.003
	c-8.719,0-26.182,0-29.886,0c-4.904,0-4.981,4.822-4.981,4.975"/>
<linearGradient id="SVGID_1_" gradientUnits="userSpaceOnUse" x1="612" y1="781" x2="612" y2="687" gradientTransform="matrix(1 0 0 1 -548 -663)">
	<stop  offset="0" style="stop-color:#D1E0ED"/>
	<stop  offset="1" style="stop-color:#E4EEFB"/>
</linearGradient>
<path fill="url(#SVGID_1_)" stroke="#9DBCD7" stroke-width="2" stroke-miterlimit="10" d="M21.975,118h84.298
	c8.288,0,14.727-6.891,14.727-15.18V35.522c0-1.181-1.766-2.295-4.117-2.295c-14.52,0-60.813,0.008-64.963,0.008
	c-5.043,0-4.967-4.601-4.967-4.601S46.988,24,41.985,24c-8.757,0-26.296,0-30.015,0C7.045,24,7,28.084,7,28.237v74.584
	C7,111.109,13.687,118,21.975,118z"/>
<path fill="none" stroke="#FFFFFF" stroke-width="2" stroke-miterlimit="10" d="M21.975,116C14.821,116,9,110.088,9,102.82V28.237
	c0-0.095,0.015-0.894,0.608-1.488C10.104,26.252,10.898,26,11.97,26h30.015c1.184,0,1.786,0.141,2.146,0.503
	c0.796,0.801,0.832,2.023,0.832,2.036c-0.004,0.261,0.011,2.87,1.945,4.833c1.232,1.25,2.921,1.884,5.02,1.884
	c0,0,55.49-0.021,64.952-0.021c1.25,0,1.942,0.428,2.12,0.636v66.951c0,7.268-5.709,13.18-12.727,13.18H21.975V116z"/>
<radialGradient id="SVGID_2_" cx="789.5878" cy="-462.9282" r="91.4084" gradientTransform="matrix(0.0197 0.9998 -0.9109 0.018 -377.3072 -736.0426)" gradientUnits="userSpaceOnUse">
	<stop  offset="0" style="stop-color:#FFFFFF;stop-opacity:0.6"/>
	<stop  offset="0.3783" style="stop-color:#FAFCFE;stop-opacity:0.4487"/>
	<stop  offset="0.829" style="stop-color:#EBF3FC;stop-opacity:0.2684"/>
	<stop  offset="1" style="stop-color:#E4EEFB;stop-opacity:0.2"/>
</radialGradient>
<path fill="url(#SVGID_2_)" d="M21.975,116C14.821,116,9,110.088,9,102.82V28.237c0-0.095,0.015-0.894,0.608-1.488
	C10.104,26.252,10.898,26,11.97,26h30.015c1.184,0,1.786,0.141,2.146,0.503c0.796,0.801,0.832,2.023,0.832,2.036
	c-0.004,0.261,0.011,2.87,1.945,4.833c1.232,1.25,2.921,1.884,5.02,1.884c0,0,55.49-0.021,64.952-0.021
	c1.25,0,1.942,0.428,2.12,0.636v66.951c0,7.268-5.709,13.18-12.727,13.18H21.975V116z"/>
<g id="g27_1_">
	
		<linearGradient id="path36_2_" gradientUnits="userSpaceOnUse" x1="970.7643" y1="1483.7594" x2="986.6021" y2="1511.191" gradientTransform="matrix(1 0 0 1 -960 -1481)">
		<stop  offset="0" style="stop-color:#FFFFFF"/>
		<stop  offset="0.5" style="stop-color:#FFFFFF;stop-opacity:0.6"/>
		<stop  offset="1" style="stop-color:#FFFFFF;stop-opacity:0.15"/>
	</linearGradient>
	<path id="path36_1_" fill="url(#path36_2_)" d="M23.823,34.852c1.771-3.665,3.932-7.099,6.411-10.274l-4.511-9.892
		c-3.853,3.642-6.98,7.655-9.476,11.552L23.823,34.852z"/>
	
		<linearGradient id="path45_2_" gradientUnits="userSpaceOnUse" x1="985.1246" y1="1479.6516" x2="995.4895" y2="1497.6047" gradientTransform="matrix(1 0 0 1 -960 -1481)">
		<stop  offset="0" style="stop-color:#FFFFFF"/>
		<stop  offset="0.5" style="stop-color:#FFFFFF;stop-opacity:0.6"/>
		<stop  offset="1" style="stop-color:#FFFFFF;stop-opacity:0.15"/>
	</linearGradient>
	<path id="path45_1_" fill="url(#path45_2_)" d="M24.292,5.178l2.358,5.167c2.269-1.884,4.756-2.532,7.468-5.167L24.292,5.178z"/>
	
		<linearGradient id="path54_2_" gradientUnits="userSpaceOnUse" x1="988.3846" y1="1476.2424" x2="1001.0488" y2="1498.1774" gradientTransform="matrix(1 0 0 1 -960 -1481)">
		<stop  offset="0" style="stop-color:#FFFFFF"/>
		<stop  offset="0.5" style="stop-color:#FFFFFF;stop-opacity:0.6"/>
		<stop  offset="1" style="stop-color:#FFFFFF;stop-opacity:0.15"/>
	</linearGradient>
	<path id="path54_1_" fill="url(#path54_2_)" d="M41.987,5.178h-1.866c-4.704,2.635-8.817,4.646-12.346,7.65l4.324,9.486
		c3.694-4.266,7.979-8.005,12.778-11.025c0.037-0.034,0.063-0.063,0.103-0.097C50.358,6.549,45.017,5.178,41.987,5.178z"/>
	
		<linearGradient id="path63_2_" gradientUnits="userSpaceOnUse" x1="961.876" y1="1496.2646" x2="975.6191" y2="1520.0684" gradientTransform="matrix(1 0 0 1 -960 -1481)">
		<stop  offset="0" style="stop-color:#FFFFFF"/>
		<stop  offset="0.5" style="stop-color:#FFFFFF;stop-opacity:0.6"/>
		<stop  offset="1" style="stop-color:#FFFFFF;stop-opacity:0.15"/>
	</linearGradient>
	<path id="path63_1_" fill="url(#path63_2_)" d="M14.808,28.591c-2.893,4.925-4.783,9.476-5.905,12.588
		c1.328,1.895,3.523,3.138,6.013,3.138c3.083,0,5.716-1.905,6.807-4.596c0.279-0.751,0.619-1.473,0.93-2.213L14.808,28.591z"/>
	
		<linearGradient id="path72_2_" gradientUnits="userSpaceOnUse" x1="961.2581" y1="1497.2399" x2="976.4891" y2="1523.6207" gradientTransform="matrix(1 0 0 1 -960 -1481)">
		<stop  offset="0" style="stop-color:#FFFFFF"/>
		<stop  offset="0.5" style="stop-color:#FFFFFF;stop-opacity:0.6"/>
		<stop  offset="1" style="stop-color:#FFFFFF;stop-opacity:0.15"/>
	</linearGradient>
	<path id="path72_1_" fill="url(#path72_2_)" d="M7.627,20.42L7.569,36.958c0,0,0,0.005,0,0.011c0,0.103,0.026,0.2,0.032,0.303
		c1.257-3.059,3.012-6.799,5.394-10.749L7.627,20.42z"/>
	
		<linearGradient id="path149_2_" gradientUnits="userSpaceOnUse" x1="972.7764" y1="1488.978" x2="987.0781" y2="1513.7493" gradientTransform="matrix(1 0 0 1 -960 -1481)">
		<stop  offset="0" style="stop-color:#FFFFFF"/>
		<stop  offset="0.5" style="stop-color:#FFFFFF;stop-opacity:0.6"/>
		<stop  offset="1" style="stop-color:#FFFFFF;stop-opacity:0.15"/>
	</linearGradient>
	<path id="path149_1_" fill="url(#path149_2_)" d="M21.151,5.21C15.778,4.763,8.702,10.817,7.793,16.62l6.667,7.581
		c2.661-4.061,5.971-8.222,10.053-11.979L21.151,5.21z"/>
</g>
<g>
	<path opacity="0.3" fill="#FFFFFF" enable-background="new    " d="M54.846,39.345c-1.411,0.106-2.504,1.286-2.504,2.703v30.273
		c-2.108-0.225-4.323-0.183-6.605,0.434c-3.433,0.929-6.328,2.69-8.353,4.975c-2.025,2.285-3.236,5.31-2.427,8.357
		c0.803,3.037,3.352,5.11,6.242,6.084c2.889,0.974,6.306,1.054,9.742,0.119c5.387-1.456,9.581-4.927,10.626-9.466
		c0.251-0.421,0.395-0.897,0.395-1.395V59.87l15.752,1.993v18.182c-2.115-0.244-4.345-0.225-6.647,0.395
		c-3.429,0.922-6.331,2.681-8.35,4.972c-2.025,2.292-3.233,5.348-2.43,8.386c0.813,3.044,3.355,5.11,6.248,6.091
		c2.893,0.98,6.306,1.054,9.745,0.125c5.4-1.463,9.578-4.959,10.616-9.511c0.264-0.421,0.395-0.897,0.402-1.395V46.027
		c0.006-1.363-1-2.523-2.346-2.703l-29.55-3.979C55.218,39.326,55.029,39.326,54.846,39.345z M55.045,42.048l29.556,3.979v43.078
		H84.55c-0.334,3.42-3.944,6.91-8.983,8.273c-5.939,1.607-11.603-0.315-12.654-4.256c-1.048-3.937,2.937-8.456,8.871-10.063
		c3.179-0.861,6.28-0.685,8.636,0.238V59.43l-21.164-2.664v24.662h-0.039c-0.334,3.426-3.95,6.869-8.99,8.234
		c-5.936,1.601-11.606-0.315-12.651-4.256c-1.045-3.944,2.931-8.417,8.868-10.024c3.179-0.861,6.235-0.723,8.598,0.199V42.048
		H55.045z M59.258,50.122v3.063l21.164,2.664v-2.703L59.258,50.122z"/>
	<path opacity="0.3" fill="#FFFFFF" enable-background="new    " d="M54.801,40.541c-0.739,0.113-1.282,0.758-1.269,1.508V73.79
		c-2.301-0.482-4.824-0.559-7.476,0.158c-3.227,0.874-5.959,2.5-7.804,4.574c-1.832,2.083-2.787,4.721-2.102,7.29
		c0.678,2.555,2.825,4.361,5.445,5.249c2.626,0.884,5.801,0.91,9.032,0.039c5.197-1.408,9.144-4.795,9.906-8.871
		c0.1-0.17,0.17-0.357,0.196-0.559c0.006-0.026,0.006-0.051,0-0.074c0.019-0.058,0.039-0.106,0.045-0.164V58.44l18.134,2.305v20.731
		c-2.298-0.495-4.847-0.572-7.511,0.158c-3.233,0.871-5.959,2.529-7.797,4.615c-1.838,2.086-2.787,4.715-2.108,7.277
		c0.678,2.562,2.828,4.368,5.448,5.255c2.623,0.884,5.798,0.91,9.038,0.039c5.204-1.408,9.134-4.834,9.899-8.906
		c0.1-0.17,0.164-0.363,0.199-0.559c0-0.026,0-0.051,0-0.074c0.013-0.058,0.026-0.106,0.039-0.164V46.027
		c-0.013-0.749-0.572-1.376-1.311-1.472l-29.553-3.979c-0.09-0.023-0.186-0.032-0.279-0.039
		C54.907,40.534,54.858,40.534,54.801,40.541z M55.045,42.048l29.556,3.979v43.078H84.55c-0.334,3.42-3.944,6.91-8.983,8.273
		c-5.939,1.607-11.603-0.315-12.654-4.256c-1.048-3.937,2.937-8.456,8.871-10.063c3.179-0.861,6.28-0.685,8.636,0.238V59.43
		l-21.164-2.664v24.662h-0.039c-0.334,3.426-3.95,6.869-8.99,8.234c-5.936,1.601-11.606-0.315-12.651-4.256
		c-1.045-3.944,2.931-8.417,8.868-10.024c3.179-0.861,6.235-0.723,8.598,0.199V42.048H55.045z M59.258,50.122v3.063l21.164,2.664
		v-2.703L59.258,50.122z M60.772,51.835l2.388,0.357l-2.388-0.318V51.835z"/>
	<path opacity="0.3" fill="#669CCC" enable-background="new    " d="M55.051,42.058v33.539c-2.356-0.922-5.435-1.08-8.607-0.225
		c-5.936,1.607-9.919,6.12-8.871,10.057c1.041,3.937,6.701,5.837,12.644,4.236c5.033-1.369,8.652-4.828,8.986-8.247h0.035V56.752
		L80.41,59.42V83.3c-2.346-0.922-5.429-1.08-8.604-0.219c-5.936,1.601-9.919,6.113-8.871,10.05
		c1.045,3.944,6.705,5.837,12.641,4.236c5.046-1.363,8.656-4.821,8.99-8.248h0.045V46.03L55.051,42.058L55.051,42.058z
		 M59.239,50.125l21.171,3.031v2.709l-21.171-2.668V50.125z"/>
	<path opacity="0.3" fill="#669CCC" enable-background="new    " d="M55.045,42.048v33.536c-2.359-0.922-5.419-1.06-8.598-0.199
		c-5.936,1.607-9.912,6.084-8.868,10.024c1.041,3.944,6.714,5.856,12.651,4.256c5.04-1.369,8.652-4.808,8.99-8.234h0.039V56.768
		l21.164,2.664V83.3c-2.353-0.922-5.454-1.099-8.636-0.238c-5.933,1.607-9.919,6.126-8.871,10.063
		c1.048,3.944,6.714,5.863,12.654,4.256c5.04-1.363,8.649-4.853,8.983-8.273h0.051V46.027L55.045,42.048z M57.269,44.555
		l25.102,3.381v4.175c-0.334-0.62-0.935-1.048-1.633-1.154L59.58,47.936c-0.945-0.138-1.871,0.341-2.311,1.192V44.555z
		 M59.258,50.122l21.164,3.024v2.703l-21.164-2.664C59.258,53.185,59.258,50.122,59.258,50.122z M57.269,54.143
		c0.158,0.328,0.389,0.617,0.678,0.836c-0.283,0.206-0.514,0.479-0.678,0.797V54.143z M82.368,56.923v1.472
		c-0.151-0.296-0.369-0.556-0.633-0.755C81.991,57.45,82.213,57.209,82.368,56.923z M57.031,76.577v4.42
		c-0.013,0.08-0.026,0.158-0.039,0.231c-0.196,2.028-2.97,5.104-7.357,6.29c-2.581,0.697-5.049,0.604-6.843,0
		c-1.79-0.607-2.774-1.568-3.063-2.668c-0.289-1.093,0.093-2.43,1.35-3.854c1.263-1.424,3.385-2.761,5.968-3.465
		c2.767-0.746,5.387-0.592,7.199,0.119C55.315,78.058,56.514,77.592,57.031,76.577z M82.368,84.371v4.3
		c-0.013,0.074-0.032,0.158-0.039,0.231c-0.196,2.028-2.976,5.142-7.357,6.328c-2.584,0.697-5.052,0.604-6.846,0
		c-1.797-0.604-2.767-1.575-3.056-2.668c-0.296-1.086,0.084-2.462,1.35-3.892c1.266-1.437,3.385-2.767,5.965-3.465
		c2.745-0.739,5.412-0.553,7.244,0.158C80.661,85.766,81.828,85.345,82.368,84.371z"/>
	<path opacity="0.3" fill="#669CCC" enable-background="new    " d="M55.045,42.048v1.273l29.556,3.976v-1.273L55.045,42.048z
		 M59.258,53.185v1.276l21.164,2.661v-1.273L59.258,53.185z M49.95,74.831c-1.131,0.051-2.308,0.231-3.504,0.553
		C40.8,76.911,36.92,81.06,37.46,84.85c0.363-3.41,3.972-6.836,8.987-8.193c3.179-0.861,6.235-0.723,8.598,0.196v-1.269
		C53.569,75.005,51.834,74.742,49.95,74.831z M76.399,82.5c-1.449-0.045-3.018,0.125-4.612,0.559
		c-5.56,1.508-9.392,5.557-8.99,9.308c0.482-3.346,4.072-6.705,8.99-8.035c3.179-0.861,6.28-0.685,8.636,0.238v-1.273
		C79.243,82.841,77.868,82.558,76.399,82.5z"/>
	<path opacity="0.3" fill="#669CCC" enable-background="new    " d="M55.045,42.048v33.536c-2.359-0.922-5.419-1.06-8.598-0.199
		c-5.936,1.607-9.912,6.084-8.868,10.024c1.041,3.944,6.714,5.856,12.651,4.256c5.04-1.369,8.652-4.808,8.99-8.234h0.039V56.768
		l21.164,2.664V83.3c-2.353-0.922-5.454-1.099-8.636-0.238c-5.933,1.607-9.919,6.126-8.871,10.063
		c1.048,3.944,6.714,5.863,12.654,4.256c5.04-1.363,8.649-4.853,8.983-8.273h0.051V46.027L55.045,42.048z M56.038,43.202
		l27.567,3.699v41.927c-0.019,0.064-0.039,0.132-0.045,0.196c-0.27,2.787-3.529,6.113-8.267,7.402
		c-2.796,0.758-5.496,0.652-7.566-0.045c-2.063-0.691-3.436-1.928-3.854-3.49c-0.415-1.575,0.183-3.365,1.633-5.02
		c1.453-1.646,3.773-3.101,6.56-3.854c2.986-0.81,5.885-0.592,8,0.244c0.521,0.183,1.099-0.087,1.292-0.604
		c0.039-0.113,0.058-0.238,0.058-0.357V59.433c0-0.505-0.376-0.932-0.871-0.996l-21.164-2.664c-0.553-0.061-1.045,0.341-1.105,0.894
		c-0.006,0.032-0.006,0.068-0.006,0.1v24.385c-0.019,0.068-0.039,0.132-0.045,0.199c-0.27,2.793-3.523,6.072-8.27,7.357
		c-2.79,0.758-5.493,0.652-7.556-0.039c-2.066-0.697-3.439-1.935-3.86-3.51c-0.415-1.568,0.183-3.333,1.633-4.966
		c1.446-1.633,3.767-3.108,6.563-3.86c2.989-0.81,5.84-0.627,7.952,0.199c0.524,0.196,1.102-0.074,1.292-0.604
		c0.045-0.113,0.064-0.231,0.064-0.35V43.202H56.038z M59.101,49.128c-0.485,0.084-0.836,0.505-0.836,0.993v3.063
		c0,0.505,0.373,0.932,0.871,0.996l21.164,2.664c0.553,0.061,1.048-0.341,1.105-0.894c0.006-0.032,0.006-0.068,0.006-0.103v-2.703
		c0-0.488-0.344-0.91-0.836-0.993l-21.164-3.024C59.316,49.113,59.204,49.113,59.101,49.128z M59.258,50.122l21.164,3.024v2.703
		l-21.164-2.664C59.258,53.185,59.258,50.122,59.258,50.122z"/>
	<path opacity="0.3" fill="#FFFFFF" enable-background="new    " d="M59.258,50.122v1.273l21.164,3.024v-1.273L59.258,50.122z
		 M59.258,56.768v1.273l21.164,2.668v-1.273L59.258,56.768z M59.22,81.427c-0.334,3.426-3.95,6.869-8.99,8.234
		c-5.936,1.601-11.606-0.315-12.651-4.256c-0.051-0.196-0.093-0.363-0.119-0.559c-0.068,0.627-0.045,1.224,0.119,1.826
		c1.041,3.944,6.714,5.869,12.651,4.262c5.04-1.369,8.652-4.808,8.99-8.234h0.039v-1.273H59.22z M84.553,89.105
		c-0.334,3.42-3.944,6.91-8.983,8.273c-5.939,1.607-11.603-0.315-12.654-4.256c-0.058-0.219-0.087-0.453-0.119-0.672
		c-0.084,0.659-0.055,1.299,0.119,1.941c1.048,3.944,6.714,5.869,12.654,4.262c5.04-1.363,8.649-4.853,8.983-8.267h0.051v-1.279
		h-0.051V89.105z"/>
</g>
</svg>
