<?xml version="1.0" encoding="utf-8"?>
<!-- Generator: Adobe Illustrator 17.0.0, SVG Export Plug-In . SVG Version: 6.00 Build 0)  -->
<!DOCTYPE svg PUBLIC "-//W3C//DTD SVG 1.1//EN" "http://www.w3.org/Graphics/SVG/1.1/DTD/svg11.dtd">
<svg version="1.1" id="图层_1" xmlns="http://www.w3.org/2000/svg" xmlns:xlink="http://www.w3.org/1999/xlink" x="0px" y="0px"
	 width="128px" height="128px" viewBox="0 0 128 128" enable-background="new 0 0 128 128" xml:space="preserve">
<g id="g151" opacity="0.5">
	<path id="path153" opacity="0.08" enable-background="new    " d="M106.873,118.496H20.952c-7.91,0-14.357-6.201-14.357-13.797
		v10.553c0,5.936,5.043,10.748,11.222,10.748h92.188c6.178,0,11.151-4.812,11.151-10.748v-10.553
		C121.156,112.296,114.78,118.496,106.873,118.496z"/>
	<path id="path155" opacity="0.1" enable-background="new    " d="M106.8,118.496H20.879c-7.907,0-14.284-6.088-14.284-13.684v5.52
		c0,5.936,2.723,13.167,13.755,13.167s75.798,0,86.975,0s13.831-7.231,13.831-13.167v-5.52
		C121.156,112.408,114.707,118.496,106.8,118.496z"/>
	<path id="path157" opacity="0.1" enable-background="new    " d="M106.8,118.496H20.879c-7.907,0-14.284-6.088-14.284-13.684v2.979
		c0,5.938,4.723,13.207,13.755,13.207s76.636,0,86.975,0c10.342,0,13.831-7.269,13.831-13.204v-2.979
		C121.156,112.408,114.707,118.496,106.8,118.496z"/>
	<rect id="rect159" x="19.613" y="118.496" opacity="0.05" enable-background="new    " width="88.525" height="2.501"/>
	<rect id="rect161" x="22.217" y="118.496" opacity="0.05" enable-background="new    " width="80.714" height="2.501"/>
	<rect id="rect163" x="22.217" y="120.997" opacity="0.05" enable-background="new    " width="80.714" height="2.501"/>
	<rect id="rect165" x="27.424" y="120.997" opacity="0.05" enable-background="new    " width="72.903" height="2.501"/>
	<rect id="rect167" x="35.235" y="120.997" opacity="0.05" enable-background="new    " width="57.281" height="2.501"/>
	<rect id="rect169" x="45.65" y="120.997" opacity="0.05" enable-background="new    " width="36.451" height="2.501"/>
	<rect id="rect171" x="27.424" y="118.496" opacity="0.05" enable-background="new    " width="72.903" height="2.501"/>
	<rect id="rect173" x="32.632" y="118.496" opacity="0.05" enable-background="new    " width="62.488" height="2.501"/>
	<rect id="rect175" x="35.235" y="118.496" opacity="0.05" enable-background="new    " width="57.281" height="2.501"/>
	<rect id="rect177" x="40.443" y="118.496" opacity="0.05" enable-background="new    " width="46.866" height="2.501"/>
	<rect id="rect179" x="40.443" y="118.496" opacity="0.05" enable-background="new    " width="46.866" height="2.501"/>
</g>
<path fill="#C4DCED" stroke="#9DBCD7" stroke-width="2" stroke-miterlimit="10" d="M121,102.992c0,8.288-6.719,15.008-15.008,15.008
	H22.008C13.719,118,7,111.281,7,102.992V19.008C7,10.719,13.719,4,22.008,4h83.985C114.281,4,121,10.719,121,19.008V102.992z"/>
<path opacity="0.5" fill="none" stroke="#FFFFFF" stroke-width="2" stroke-miterlimit="10" enable-background="new    " d="
	M119,102.992c0,7.184-5.824,13.008-13.008,13.008H22.008C14.824,116,9,110.176,9,102.992V19.008C9,11.824,14.824,6,22.008,6h83.984
	C113.176,6,119,11.824,119,19.008V102.992z"/>
<path opacity="0.08" fill="none" stroke="#000000" stroke-miterlimit="10" enable-background="new    " d="M121.426,37.445
	c0,0,0-5.043-4.981-5.043c-14.457,0-60.62,0.008-64.752,0.008c-5.021,0-4.981-4.97-4.981-4.97s0-5.003-4.981-5.003
	c-8.719,0-26.182,0-29.886,0c-4.904,0-4.981,4.822-4.981,4.975"/>
<path opacity="0.05" fill="none" stroke="#000000" stroke-miterlimit="10" enable-background="new    " d="M121.405,36.445
	c0,0,0-5.043-4.981-5.043c-14.457,0-60.62,0.008-64.752,0.008c-5.021,0-4.981-4.97-4.981-4.97s0-5.003-4.981-5.003
	c-8.719,0-26.182,0-29.886,0c-4.904,0-4.981,4.822-4.981,4.975"/>
<path opacity="0.03" fill="none" stroke="#000000" stroke-miterlimit="10" enable-background="new    " d="M121.405,35.487
	c0,0,0-5.043-4.981-5.043c-14.457,0-60.62,0.008-64.752,0.008c-5.021,0-4.981-4.97-4.981-4.97s0-5.003-4.981-5.003
	c-8.719,0-26.182,0-29.886,0c-4.904,0-4.981,4.822-4.981,4.975"/>
<linearGradient id="SVGID_1_" gradientUnits="userSpaceOnUse" x1="612" y1="781" x2="612" y2="687" gradientTransform="matrix(1 0 0 1 -548 -663)">
	<stop  offset="0" style="stop-color:#D1E0ED"/>
	<stop  offset="1" style="stop-color:#E4EEFB"/>
</linearGradient>
<path fill="url(#SVGID_1_)" stroke="#9DBCD7" stroke-width="2" stroke-miterlimit="10" d="M21.975,118h84.298
	c8.288,0,14.727-6.891,14.727-15.18V35.522c0-1.181-1.766-2.295-4.117-2.295c-14.52,0-60.813,0.008-64.963,0.008
	c-5.043,0-4.967-4.601-4.967-4.601S46.988,24,41.985,24c-8.757,0-26.296,0-30.015,0C7.045,24,7,28.084,7,28.237v74.584
	C7,111.109,13.687,118,21.975,118z"/>
<path fill="none" stroke="#FFFFFF" stroke-width="2" stroke-miterlimit="10" d="M21.975,116C14.821,116,9,110.088,9,102.82V28.237
	c0-0.095,0.015-0.894,0.608-1.488C10.104,26.252,10.898,26,11.97,26h30.015c1.184,0,1.786,0.141,2.146,0.503
	c0.796,0.801,0.832,2.023,0.832,2.036c-0.004,0.261,0.011,2.87,1.945,4.833c1.232,1.25,2.921,1.884,5.02,1.884
	c0,0,55.49-0.021,64.952-0.021c1.25,0,1.942,0.428,2.12,0.636v66.951c0,7.268-5.709,13.18-12.727,13.18H21.975V116z"/>
<radialGradient id="SVGID_2_" cx="789.5878" cy="-462.9282" r="91.4084" gradientTransform="matrix(0.0197 0.9998 -0.9109 0.018 -377.3072 -736.0426)" gradientUnits="userSpaceOnUse">
	<stop  offset="0" style="stop-color:#FFFFFF;stop-opacity:0.6"/>
	<stop  offset="0.3783" style="stop-color:#FAFCFE;stop-opacity:0.4487"/>
	<stop  offset="0.829" style="stop-color:#EBF3FC;stop-opacity:0.2684"/>
	<stop  offset="1" style="stop-color:#E4EEFB;stop-opacity:0.2"/>
</radialGradient>
<path fill="url(#SVGID_2_)" d="M21.975,116C14.821,116,9,110.088,9,102.82V28.237c0-0.095,0.015-0.894,0.608-1.488
	C10.104,26.252,10.898,26,11.97,26h30.015c1.184,0,1.786,0.141,2.146,0.503c0.796,0.801,0.832,2.023,0.832,2.036
	c-0.004,0.261,0.011,2.87,1.945,4.833c1.232,1.25,2.921,1.884,5.02,1.884c0,0,55.49-0.021,64.952-0.021
	c1.25,0,1.942,0.428,2.12,0.636v66.951c0,7.268-5.709,13.18-12.727,13.18H21.975V116z"/>
<g id="g27_1_">
	
		<linearGradient id="path36_2_" gradientUnits="userSpaceOnUse" x1="970.7643" y1="1483.7594" x2="986.6021" y2="1511.191" gradientTransform="matrix(1 0 0 1 -960 -1481)">
		<stop  offset="0" style="stop-color:#FFFFFF"/>
		<stop  offset="0.5" style="stop-color:#FFFFFF;stop-opacity:0.6"/>
		<stop  offset="1" style="stop-color:#FFFFFF;stop-opacity:0.15"/>
	</linearGradient>
	<path id="path36_1_" fill="url(#path36_2_)" d="M23.823,34.852c1.771-3.665,3.932-7.099,6.411-10.274l-4.511-9.892
		c-3.853,3.642-6.98,7.655-9.476,11.552L23.823,34.852z"/>
	
		<linearGradient id="path45_2_" gradientUnits="userSpaceOnUse" x1="985.1246" y1="1479.6516" x2="995.4895" y2="1497.6047" gradientTransform="matrix(1 0 0 1 -960 -1481)">
		<stop  offset="0" style="stop-color:#FFFFFF"/>
		<stop  offset="0.5" style="stop-color:#FFFFFF;stop-opacity:0.6"/>
		<stop  offset="1" style="stop-color:#FFFFFF;stop-opacity:0.15"/>
	</linearGradient>
	<path id="path45_1_" fill="url(#path45_2_)" d="M24.292,5.178l2.358,5.167c2.269-1.884,4.756-2.532,7.468-5.167L24.292,5.178z"/>
	
		<linearGradient id="path54_2_" gradientUnits="userSpaceOnUse" x1="988.3846" y1="1476.2424" x2="1001.0488" y2="1498.1774" gradientTransform="matrix(1 0 0 1 -960 -1481)">
		<stop  offset="0" style="stop-color:#FFFFFF"/>
		<stop  offset="0.5" style="stop-color:#FFFFFF;stop-opacity:0.6"/>
		<stop  offset="1" style="stop-color:#FFFFFF;stop-opacity:0.15"/>
	</linearGradient>
	<path id="path54_1_" fill="url(#path54_2_)" d="M41.987,5.178h-1.866c-4.704,2.635-8.817,4.646-12.346,7.65l4.324,9.486
		c3.694-4.266,7.979-8.005,12.778-11.025c0.037-0.034,0.063-0.063,0.103-0.097C50.358,6.549,45.017,5.178,41.987,5.178z"/>
	
		<linearGradient id="path63_2_" gradientUnits="userSpaceOnUse" x1="961.876" y1="1496.2646" x2="975.6191" y2="1520.0684" gradientTransform="matrix(1 0 0 1 -960 -1481)">
		<stop  offset="0" style="stop-color:#FFFFFF"/>
		<stop  offset="0.5" style="stop-color:#FFFFFF;stop-opacity:0.6"/>
		<stop  offset="1" style="stop-color:#FFFFFF;stop-opacity:0.15"/>
	</linearGradient>
	<path id="path63_1_" fill="url(#path63_2_)" d="M14.808,28.591c-2.893,4.925-4.783,9.476-5.905,12.588
		c1.328,1.895,3.523,3.138,6.013,3.138c3.083,0,5.716-1.905,6.807-4.596c0.279-0.751,0.619-1.473,0.93-2.213L14.808,28.591z"/>
	
		<linearGradient id="path72_2_" gradientUnits="userSpaceOnUse" x1="961.2581" y1="1497.2399" x2="976.4891" y2="1523.6207" gradientTransform="matrix(1 0 0 1 -960 -1481)">
		<stop  offset="0" style="stop-color:#FFFFFF"/>
		<stop  offset="0.5" style="stop-color:#FFFFFF;stop-opacity:0.6"/>
		<stop  offset="1" style="stop-color:#FFFFFF;stop-opacity:0.15"/>
	</linearGradient>
	<path id="path72_1_" fill="url(#path72_2_)" d="M7.627,20.42L7.569,36.958c0,0,0,0.005,0,0.011c0,0.103,0.026,0.2,0.032,0.303
		c1.257-3.059,3.012-6.799,5.394-10.749L7.627,20.42z"/>
	
		<linearGradient id="path149_2_" gradientUnits="userSpaceOnUse" x1="972.7764" y1="1488.978" x2="987.0781" y2="1513.7493" gradientTransform="matrix(1 0 0 1 -960 -1481)">
		<stop  offset="0" style="stop-color:#FFFFFF"/>
		<stop  offset="0.5" style="stop-color:#FFFFFF;stop-opacity:0.6"/>
		<stop  offset="1" style="stop-color:#FFFFFF;stop-opacity:0.15"/>
	</linearGradient>
	<path id="path149_1_" fill="url(#path149_2_)" d="M21.151,5.21C15.778,4.763,8.702,10.817,7.793,16.62l6.667,7.581
		c2.661-4.061,5.971-8.222,10.053-11.979L21.151,5.21z"/>
</g>
<g>
	<path opacity="0.3" fill="#FFFFFF" enable-background="new    " d="M56.105,38.174c-5.469,0-10.959,2.061-15.122,6.209
		c-8.331,8.3-8.331,21.867,0,30.167c7.02,6.994,17.733,8.095,25.94,3.276c0.423,0.033,0.87,0.045,1.219,0.114
		c0.236,0.047,0.097-0.045,0.19,0c0.005,0.23-0.007,0.473,0,0.914c0.019,1.143,0.331,3.086,1.828,4.533l-0.038,0.038l0.114,0.114
		l11.465,11.618c0,0,0.036,0.036,0.038,0.038c0.057,0.059,1.148,1.176,2.857,1.447c1.754,0.279,4.073-0.425,6.133-2.476
		c2.061-2.053,2.758-4.375,2.476-6.133c-0.267-1.666-1.298-2.708-1.409-2.819l-0.076-0.076L80.255,73.522
		c-0.026-0.029-0.05-0.048-0.076-0.076c-1.458-1.541-3.492-1.781-4.647-1.79c-0.423-0.004-0.646,0.002-0.876,0
		c-0.042-0.088,0.055,0.032,0-0.229c-0.073-0.346-0.117-0.769-0.152-1.181c4.834-8.177,3.785-18.866-3.238-25.863
		C67.097,40.229,61.574,38.174,56.105,38.174z M56.105,40.612c4.846,0,9.713,1.841,13.408,5.523
		c6.443,6.419,7.266,16.302,2.476,23.616c0.063,1.243,0.255,3.249,1.067,3.961c1.104,0.97,3.688-0.413,5.371,1.447l11.618,11.77
		c0,0,2.288,2.143-1.067,5.485c-3.355,3.342-5.485,1.067-5.485,1.067l-11.618-11.77c-1.867-1.677-0.512-4.27-1.486-5.371
		c-0.715-0.808-2.714-0.966-3.961-1.028c-7.341,4.773-17.249,3.905-23.692-2.514c-7.391-7.363-7.391-19.3,0-26.663
		C46.431,42.453,51.259,40.612,56.105,40.612z M56.182,46.897c-3.484,0-6.628,1.342-8.913,3.619
		c-2.285,2.276-3.733,5.48-3.733,8.951c0,6.942,5.678,12.57,12.646,12.57s12.608-5.628,12.608-12.57S63.149,46.897,56.182,46.897z
		 M56.182,49.335c5.646,0,10.17,4.52,10.17,10.132s-4.525,10.132-10.17,10.132S45.974,65.07,45.974,59.467
		c0-2.788,1.211-5.37,3.047-7.199C50.849,50.446,53.329,49.335,56.182,49.335z"/>
	<path opacity="0.3" fill="#FFFFFF" enable-background="new    " d="M56.105,39.355c-5.168,0-10.347,1.943-14.284,5.866
		c-7.877,7.848-7.877,20.643,0,28.491c6.727,6.702,17.011,7.654,24.797,2.895c0.556,0.033,1.205,0.081,1.752,0.19
		c0.631,0.126,1.071,0.386,1.067,0.381c-0.018-0.02,0.049,0.045,0.076,0.343c0.027,0.298-0.009,0.75,0,1.295
		c0.018,1.065,0.236,2.621,1.447,3.771c0.028,0.027,0.047,0.05,0.076,0.076l11.541,11.694c0,0,0.842,0.887,2.209,1.105
		c1.367,0.217,3.229-0.265,5.104-2.133c1.876-1.869,2.352-3.734,2.133-5.104c-0.211-1.32-1.006-2.112-1.067-2.171l-0.038-0.038
		L79.378,74.321c-0.014-0.015-0.025-0.024-0.038-0.038c-1.16-1.247-2.733-1.439-3.809-1.447c-0.544-0.005-0.999,0.025-1.295,0
		c-0.297-0.025-0.364-0.095-0.343-0.076c0.001,0.001-0.286-0.473-0.419-1.105c-0.115-0.546-0.156-1.169-0.19-1.714
		c4.777-7.758,3.872-18.016-2.857-24.72C66.487,41.295,61.274,39.355,56.105,39.355z M56.105,40.612
		c4.846,0,9.713,1.841,13.408,5.523c6.443,6.419,7.266,16.302,2.476,23.616c0.063,1.243,0.255,3.249,1.067,3.961
		c1.104,0.97,3.688-0.413,5.371,1.447l11.618,11.77c0,0,2.288,2.143-1.067,5.485c-3.355,3.342-5.485,1.067-5.485,1.067
		l-11.618-11.77c-1.867-1.677-0.512-4.27-1.486-5.371c-0.715-0.808-2.714-0.966-3.961-1.028c-7.341,4.773-17.249,3.905-23.692-2.514
		c-7.391-7.363-7.391-19.3,0-26.663C46.431,42.453,51.259,40.612,56.105,40.612z M56.182,46.897c-3.484,0-6.628,1.342-8.913,3.619
		c-2.285,2.276-3.733,5.48-3.733,8.951c0,6.942,5.678,12.57,12.646,12.57s12.608-5.628,12.608-12.57S63.149,46.897,56.182,46.897z
		 M56.182,48.154c6.284,0,11.351,5.059,11.351,11.313s-5.068,11.313-11.351,11.313s-11.389-5.063-11.389-11.313
		c0-3.118,1.338-5.992,3.39-8.037C50.231,49.388,53.024,48.154,56.182,48.154z"/>
	<path opacity="0.3" fill="#669CCC" enable-background="new    " d="M42.717,46.134c-7.391,7.363-7.391,19.315,0,26.679
		c6.443,6.419,16.368,7.274,23.709,2.501c1.248,0.063,3.26,0.234,3.975,1.042c0.973,1.1-0.402,3.673,1.465,5.35l11.611,11.765
		c0,0,2.154,2.301,5.509-1.042c3.355-3.342,1.046-5.488,1.046-5.488L78.42,75.176c-1.683-1.86-4.265-0.489-5.369-1.459
		c-0.811-0.712-0.983-2.717-1.046-3.96c4.791-7.314,3.933-17.202-2.51-23.622C62.104,38.771,50.108,38.771,42.717,46.134z
		 M47.25,50.512c2.285-2.276,5.442-3.613,8.926-3.613c6.968,0,12.622,5.633,12.622,12.575c0,6.942-5.654,12.575-12.622,12.575
		c-6.968,0-12.622-5.633-12.622-12.575C43.554,56.003,44.965,52.788,47.25,50.512z"/>
	<path opacity="0.3" fill="#669CCC" d="M56.105,40.612c-4.846,0-9.674,1.841-13.37,5.523c-3.849,3.835-5.683,8.913-5.523,13.941
		c0.151-4.621,1.985-9.197,5.523-12.722c7.391-7.363,19.387-7.363,26.777,0C73.031,50.86,74.821,55.41,74.998,60
		c0.131-4.999-1.655-10.049-5.485-13.865C65.818,42.453,60.952,40.612,56.105,40.612z M43.574,60.076
		c-0.009,0.202-0.038,0.405-0.038,0.61c0,6.942,5.678,12.57,12.646,12.57s12.608-5.628,12.608-12.57c0-0.204-0.028-0.407-0.038-0.61
		c-0.319,6.659-5.807,11.96-12.57,11.96S43.893,66.736,43.574,60.076z M72.065,70.818c-0.031,0.048-0.045,0.105-0.076,0.152
		c0.063,1.243,0.255,3.249,1.067,3.961c1.104,0.97,3.688-0.413,5.371,1.447l11.618,11.77c0,0,0.507,0.513,0.686,1.409
		c0.335-1.651-0.686-2.628-0.686-2.628l-11.618-11.77c-1.683-1.86-4.266-0.478-5.371-1.447
		C72.447,73.178,72.178,71.939,72.065,70.818z"/>
	<path opacity="0.3" fill="#669CCC" enable-background="new    " d="M56.105,40.612c-4.846,0-9.674,1.841-13.37,5.523
		c-7.391,7.363-7.391,19.3,0,26.663c6.443,6.419,16.352,7.287,23.692,2.514c1.248,0.063,3.246,0.22,3.961,1.028
		c0.973,1.1-0.381,3.694,1.486,5.371l11.618,11.77c0,0,2.13,2.276,5.485-1.067c3.354-3.342,1.067-5.485,1.067-5.485l-11.618-11.77
		c-1.683-1.86-4.266-0.478-5.371-1.447c-0.811-0.712-1.004-2.718-1.067-3.961c4.791-7.314,3.967-17.197-2.476-23.616
		C65.818,42.453,60.952,40.612,56.105,40.612z M56.105,41.831c4.534,0,9.075,1.736,12.531,5.18
		c6.031,6.009,6.799,15.222,2.324,22.054c-0.145,0.226-0.212,0.494-0.19,0.762c0.033,0.652,0.086,1.505,0.267,2.362
		c0.181,0.857,0.418,1.734,1.219,2.438c0.565,0.496,1.205,0.639,1.752,0.686s1.072,0.034,1.523,0.038
		c0.903,0.007,1.452,0.063,1.981,0.647c0.013,0.013,0.025,0.026,0.038,0.038l11.618,11.77c0.013,0.013,0.025,0.026,0.038,0.038
		c0,0,0.255,0.213,0.343,0.762c0.088,0.549,0.037,1.454-1.447,2.933c-1.485,1.48-2.385,1.534-2.933,1.447
		c-0.548-0.087-0.762-0.343-0.762-0.343c-0.013-0.013-0.025-0.026-0.038-0.038L72.75,80.836c-0.013-0.013-0.025-0.026-0.038-0.038
		c-0.588-0.528-0.671-1.115-0.686-2.019c-0.007-0.452,0.012-0.939-0.038-1.486s-0.188-1.19-0.686-1.752
		c-0.71-0.802-1.582-1.049-2.438-1.219c-0.856-0.171-1.718-0.196-2.362-0.229c-0.268-0.021-0.535,0.046-0.762,0.19
		c-6.857,4.458-16.097,3.65-22.13-2.362c-6.917-6.892-6.917-18.019,0-24.911C47.072,43.564,51.572,41.831,56.105,41.831z
		 M56.182,45.678c-3.801,0-7.275,1.456-9.789,3.961c-2.51,2.501-4.076,6.013-4.076,9.827c0,7.616,6.232,13.788,13.865,13.788
		s13.827-6.177,13.827-13.788S63.815,45.678,56.182,45.678z M56.182,46.897c6.968,0,12.608,5.628,12.608,12.57
		s-5.64,12.57-12.608,12.57s-12.646-5.628-12.646-12.57c0-3.471,1.448-6.675,3.733-8.951C49.553,48.239,52.698,46.897,56.182,46.897
		z"/>
	<path opacity="0.3" fill="#FFFFFF" enable-background="new    " d="M56.182,46.897c-3.484,0-6.628,1.342-8.913,3.619
		c-2.285,2.276-3.733,5.48-3.733,8.951c0,0.204,0.028,0.407,0.038,0.61c0.154-3.236,1.545-6.199,3.695-8.342
		c2.285-2.276,5.429-3.619,8.913-3.619c6.763,0,12.251,5.301,12.57,11.96c0.009-0.202,0.038-0.405,0.038-0.61
		C68.79,52.524,63.149,46.897,56.182,46.897z M74.998,60c-0.089,3.409-1.067,6.786-3.009,9.751c0.016,0.311,0.039,0.693,0.076,1.067
		C74.176,67.53,75.143,63.761,74.998,60z M37.213,60.076c-0.164,5.032,1.671,10.103,5.523,13.941
		c6.443,6.419,16.352,7.287,23.692,2.514c1.248,0.063,3.246,0.22,3.961,1.028c0.973,1.1-0.381,3.694,1.486,5.371L83.492,94.7
		c0,0,2.13,2.276,5.485-1.067c1.733-1.726,1.943-3.119,1.752-4.076c-0.163,0.805-0.653,1.761-1.752,2.857
		c-3.355,3.342-5.485,1.067-5.485,1.067l-11.618-11.77c-1.867-1.677-0.512-4.27-1.486-5.371c-0.715-0.808-2.714-0.966-3.961-1.028
		c-7.341,4.773-17.249,3.905-23.692-2.514C39.195,69.27,37.36,64.702,37.213,60.076z"/>
</g>
</svg>
