<?xml version="1.0" encoding="utf-8"?>
<!-- Generator: Adobe Illustrator 17.0.0, SVG Export Plug-In . SVG Version: 6.00 Build 0)  -->
<!DOCTYPE svg PUBLIC "-//W3C//DTD SVG 1.1//EN" "http://www.w3.org/Graphics/SVG/1.1/DTD/svg11.dtd">
<svg version="1.1" id="图层_1" xmlns="http://www.w3.org/2000/svg" xmlns:xlink="http://www.w3.org/1999/xlink" x="0px" y="0px"
	 width="128px" height="128px" viewBox="0 0 128 128" enable-background="new 0 0 128 128" xml:space="preserve">
<g id="g151" opacity="0.5">
	<path id="path153" opacity="0.08" enable-background="new    " d="M106.873,118.496H20.952c-7.91,0-14.357-6.201-14.357-13.797
		v10.553c0,5.936,5.043,10.748,11.222,10.748h92.188c6.178,0,11.151-4.812,11.151-10.748v-10.553
		C121.156,112.296,114.78,118.496,106.873,118.496z"/>
	<path id="path155" opacity="0.1" enable-background="new    " d="M106.8,118.496H20.879c-7.907,0-14.284-6.088-14.284-13.684v5.52
		c0,5.936,2.723,13.167,13.755,13.167s75.798,0,86.975,0s13.831-7.231,13.831-13.167v-5.52
		C121.156,112.408,114.707,118.496,106.8,118.496z"/>
	<path id="path157" opacity="0.1" enable-background="new    " d="M106.8,118.496H20.879c-7.907,0-14.284-6.088-14.284-13.684v2.979
		c0,5.938,4.723,13.207,13.755,13.207s76.636,0,86.975,0c10.342,0,13.831-7.269,13.831-13.204v-2.979
		C121.156,112.408,114.707,118.496,106.8,118.496z"/>
	<rect id="rect159" x="19.613" y="118.496" opacity="0.05" enable-background="new    " width="88.525" height="2.501"/>
	<rect id="rect161" x="22.217" y="118.496" opacity="0.05" enable-background="new    " width="80.714" height="2.501"/>
	<rect id="rect163" x="22.217" y="120.997" opacity="0.05" enable-background="new    " width="80.714" height="2.501"/>
	<rect id="rect165" x="27.424" y="120.997" opacity="0.05" enable-background="new    " width="72.903" height="2.501"/>
	<rect id="rect167" x="35.235" y="120.997" opacity="0.05" enable-background="new    " width="57.281" height="2.501"/>
	<rect id="rect169" x="45.65" y="120.997" opacity="0.05" enable-background="new    " width="36.451" height="2.501"/>
	<rect id="rect171" x="27.424" y="118.496" opacity="0.05" enable-background="new    " width="72.903" height="2.501"/>
	<rect id="rect173" x="32.632" y="118.496" opacity="0.05" enable-background="new    " width="62.488" height="2.501"/>
	<rect id="rect175" x="35.235" y="118.496" opacity="0.05" enable-background="new    " width="57.281" height="2.501"/>
	<rect id="rect177" x="40.443" y="118.496" opacity="0.05" enable-background="new    " width="46.866" height="2.501"/>
	<rect id="rect179" x="40.443" y="118.496" opacity="0.05" enable-background="new    " width="46.866" height="2.501"/>
</g>
<path fill="#C4DCED" stroke="#9DBCD7" stroke-width="2" stroke-miterlimit="10" d="M121,102.992c0,8.288-6.719,15.008-15.008,15.008
	H22.008C13.719,118,7,111.281,7,102.992V19.008C7,10.719,13.719,4,22.008,4h83.985C114.281,4,121,10.719,121,19.008V102.992z"/>
<path opacity="0.5" fill="none" stroke="#FFFFFF" stroke-width="2" stroke-miterlimit="10" enable-background="new    " d="
	M119,102.992c0,7.184-5.824,13.008-13.008,13.008H22.008C14.824,116,9,110.176,9,102.992V19.008C9,11.824,14.824,6,22.008,6h83.984
	C113.176,6,119,11.824,119,19.008V102.992z"/>
<path opacity="0.08" fill="none" stroke="#000000" stroke-miterlimit="10" enable-background="new    " d="M121.426,37.445
	c0,0,0-5.043-4.981-5.043c-14.457,0-60.62,0.008-64.752,0.008c-5.021,0-4.981-4.97-4.981-4.97s0-5.003-4.981-5.003
	c-8.719,0-26.182,0-29.886,0c-4.904,0-4.981,4.822-4.981,4.975"/>
<path opacity="0.05" fill="none" stroke="#000000" stroke-miterlimit="10" enable-background="new    " d="M121.405,36.445
	c0,0,0-5.043-4.981-5.043c-14.457,0-60.62,0.008-64.752,0.008c-5.021,0-4.981-4.97-4.981-4.97s0-5.003-4.981-5.003
	c-8.719,0-26.182,0-29.886,0c-4.904,0-4.981,4.822-4.981,4.975"/>
<path opacity="0.03" fill="none" stroke="#000000" stroke-miterlimit="10" enable-background="new    " d="M121.405,35.487
	c0,0,0-5.043-4.981-5.043c-14.457,0-60.62,0.008-64.752,0.008c-5.021,0-4.981-4.97-4.981-4.97s0-5.003-4.981-5.003
	c-8.719,0-26.182,0-29.886,0c-4.904,0-4.981,4.822-4.981,4.975"/>
<linearGradient id="SVGID_1_" gradientUnits="userSpaceOnUse" x1="338" y1="-353" x2="338" y2="-259" gradientTransform="matrix(1 0 0 -1 -274 -235)">
	<stop  offset="0" style="stop-color:#D1E0ED"/>
	<stop  offset="1" style="stop-color:#E4EEFB"/>
</linearGradient>
<path fill="url(#SVGID_1_)" stroke="#9DBCD7" stroke-width="2" stroke-miterlimit="10" d="M21.975,118h84.298
	c8.288,0,14.727-6.891,14.727-15.18V35.522c0-1.181-1.766-2.295-4.117-2.295c-14.52,0-60.813,0.008-64.963,0.008
	c-5.043,0-4.967-4.601-4.967-4.601S46.988,24,41.985,24c-8.757,0-26.296,0-30.015,0C7.045,24,7,28.084,7,28.237v74.584
	C7,111.109,13.687,118,21.975,118z"/>
<path fill="none" stroke="#FFFFFF" stroke-width="2" stroke-miterlimit="10" d="M21.975,116C14.821,116,9,110.088,9,102.82V28.237
	c0-0.095,0.015-0.894,0.608-1.488C10.104,26.252,10.898,26,11.97,26h30.015c1.184,0,1.786,0.141,2.146,0.503
	c0.796,0.801,0.832,2.023,0.832,2.036c-0.004,0.261,0.011,2.87,1.945,4.833c1.232,1.25,2.921,1.884,5.02,1.884
	c0,0,55.49-0.021,64.952-0.021c1.25,0,1.942,0.428,2.12,0.636v66.951c0,7.268-5.709,13.18-12.727,13.18H21.975V116z"/>
<radialGradient id="SVGID_2_" cx="420.8792" cy="301.577" r="91.4084" gradientTransform="matrix(0.0197 0.9998 0.9109 -0.018 -223.0688 -370.3121)" gradientUnits="userSpaceOnUse">
	<stop  offset="0" style="stop-color:#FFFFFF;stop-opacity:0.6"/>
	<stop  offset="0.3783" style="stop-color:#FAFCFE;stop-opacity:0.4487"/>
	<stop  offset="0.829" style="stop-color:#EBF3FC;stop-opacity:0.2684"/>
	<stop  offset="1" style="stop-color:#E4EEFB;stop-opacity:0.2"/>
</radialGradient>
<path fill="url(#SVGID_2_)" d="M21.975,116C14.821,116,9,110.088,9,102.82V28.237c0-0.095,0.015-0.894,0.608-1.488
	C10.104,26.252,10.898,26,11.97,26h30.015c1.184,0,1.786,0.141,2.146,0.503c0.796,0.801,0.832,2.023,0.832,2.036
	c-0.004,0.261,0.011,2.87,1.945,4.833c1.232,1.25,2.921,1.884,5.02,1.884c0,0,55.49-0.021,64.952-0.021
	c1.25,0,1.942,0.428,2.12,0.636v66.951c0,7.268-5.709,13.18-12.727,13.18H21.975V116z"/>
<g id="g27_1_">
	
		<linearGradient id="path36_2_" gradientUnits="userSpaceOnUse" x1="696.7643" y1="-1055.7594" x2="712.6021" y2="-1083.191" gradientTransform="matrix(1 0 0 -1 -686 -1053)">
		<stop  offset="0" style="stop-color:#FFFFFF"/>
		<stop  offset="0.5" style="stop-color:#FFFFFF;stop-opacity:0.6"/>
		<stop  offset="1" style="stop-color:#FFFFFF;stop-opacity:0.15"/>
	</linearGradient>
	<path id="path36_1_" fill="url(#path36_2_)" d="M23.823,34.852c1.771-3.665,3.932-7.099,6.411-10.274l-4.511-9.892
		c-3.853,3.642-6.98,7.655-9.476,11.552L23.823,34.852z"/>
	
		<linearGradient id="path45_2_" gradientUnits="userSpaceOnUse" x1="711.1246" y1="-1051.6516" x2="721.4895" y2="-1069.6047" gradientTransform="matrix(1 0 0 -1 -686 -1053)">
		<stop  offset="0" style="stop-color:#FFFFFF"/>
		<stop  offset="0.5" style="stop-color:#FFFFFF;stop-opacity:0.6"/>
		<stop  offset="1" style="stop-color:#FFFFFF;stop-opacity:0.15"/>
	</linearGradient>
	<path id="path45_1_" fill="url(#path45_2_)" d="M24.292,5.178l2.358,5.167c2.269-1.884,4.756-2.532,7.468-5.167L24.292,5.178z"/>
	
		<linearGradient id="path54_2_" gradientUnits="userSpaceOnUse" x1="714.3847" y1="-1048.2424" x2="727.0488" y2="-1070.1774" gradientTransform="matrix(1 0 0 -1 -686 -1053)">
		<stop  offset="0" style="stop-color:#FFFFFF"/>
		<stop  offset="0.5" style="stop-color:#FFFFFF;stop-opacity:0.6"/>
		<stop  offset="1" style="stop-color:#FFFFFF;stop-opacity:0.15"/>
	</linearGradient>
	<path id="path54_1_" fill="url(#path54_2_)" d="M41.987,5.178h-1.866c-4.704,2.635-8.817,4.646-12.346,7.65l4.324,9.486
		c3.694-4.266,7.979-8.005,12.778-11.025c0.037-0.034,0.063-0.063,0.103-0.097C50.358,6.549,45.017,5.178,41.987,5.178z"/>
	
		<linearGradient id="path63_2_" gradientUnits="userSpaceOnUse" x1="687.8759" y1="-1068.2646" x2="701.6191" y2="-1092.0684" gradientTransform="matrix(1 0 0 -1 -686 -1053)">
		<stop  offset="0" style="stop-color:#FFFFFF"/>
		<stop  offset="0.5" style="stop-color:#FFFFFF;stop-opacity:0.6"/>
		<stop  offset="1" style="stop-color:#FFFFFF;stop-opacity:0.15"/>
	</linearGradient>
	<path id="path63_1_" fill="url(#path63_2_)" d="M14.808,28.591c-2.893,4.925-4.783,9.476-5.905,12.588
		c1.328,1.895,3.523,3.138,6.013,3.138c3.083,0,5.716-1.905,6.807-4.596c0.279-0.751,0.619-1.473,0.93-2.213L14.808,28.591z"/>
	
		<linearGradient id="path72_2_" gradientUnits="userSpaceOnUse" x1="687.2581" y1="-1069.2399" x2="702.4891" y2="-1095.6207" gradientTransform="matrix(1 0 0 -1 -686 -1053)">
		<stop  offset="0" style="stop-color:#FFFFFF"/>
		<stop  offset="0.5" style="stop-color:#FFFFFF;stop-opacity:0.6"/>
		<stop  offset="1" style="stop-color:#FFFFFF;stop-opacity:0.15"/>
	</linearGradient>
	<path id="path72_1_" fill="url(#path72_2_)" d="M7.627,20.42L7.569,36.958c0,0,0,0.005,0,0.011c0,0.103,0.026,0.2,0.032,0.303
		c1.257-3.059,3.012-6.799,5.394-10.749L7.627,20.42z"/>
	
		<linearGradient id="path149_2_" gradientUnits="userSpaceOnUse" x1="698.7764" y1="-1060.978" x2="713.0781" y2="-1085.7493" gradientTransform="matrix(1 0 0 -1 -686 -1053)">
		<stop  offset="0" style="stop-color:#FFFFFF"/>
		<stop  offset="0.5" style="stop-color:#FFFFFF;stop-opacity:0.6"/>
		<stop  offset="1" style="stop-color:#FFFFFF;stop-opacity:0.15"/>
	</linearGradient>
	<path id="path149_1_" fill="url(#path149_2_)" d="M21.151,5.21C15.778,4.763,8.702,10.817,7.793,16.62l6.667,7.581
		c2.661-4.061,5.971-8.222,10.053-11.979L21.151,5.21z"/>
</g>
<g>
	<path opacity="0.3" fill="#FFFFFF" enable-background="new    " d="M47.671,92.155c-4.867,0-8.828-3.96-8.828-8.828V50.67
		c0-4.867,3.96-8.828,8.828-8.828h32.657c4.867,0,8.828,3.96,8.828,8.828v32.66c0,4.867-3.96,8.828-8.828,8.828H47.671V92.155z
		 M80.329,86.988c2.017,0,3.66-1.641,3.66-3.657V51.777l-1.532,0.275c-0.108,0.019-2.667,0.473-5.752,0.473
		c-0.32,0-0.645-0.006-0.973-0.014c0.033,0-3.401,0.181-6.172,1.024c0.359,0.122,0.576,0.278,0.74,0.506
		c0.045,0.058,0.097,0.175,0.164,0.348l0.325-0.281c11.598,10.096,4.344,20.745,4.275,20.851
		c-3.705,5.195-9.414,9.317-13.945,12.029H80.329z M44.009,73.635c1.68,0.648,4.895,1.666,8.789,1.735l1.299,0.028
		c0.946,0.019,1.852,0.042,2.737,0.042c4.253,0,7.415-0.489,10.978-2.99c4.536-3.179,4.03-8.246,4.002-8.458
		c-0.017-0.887-0.153-1.774-0.348-2.617c-0.006,1.254-0.12,2.553-0.412,3.785c-0.033,0.195-1.179,6.088-6.758,7.501
		c-0.854,0.211-1.716,0.32-2.57,0.32c-3.426,0-6.686-1.702-9.951-5.212c-2.564-2.756-6.252-10.299-7.137-19.124
		c-0.403,0.589-0.631,1.293-0.631,2.025v22.965L44.009,73.635L44.009,73.635z M61.138,67.839c0.017,0,0.412,0.133,0.962,0.133
		c1.705,0,3.193-1.224,4.319-3.54c0.045-0.075,0.929-1.691,1.14-5.118c-0.439,2.286-1.327,4.912-3.101,6.758
		c-0.114,0.131-1.446,1.566-3.037,1.566c-0.273,0-0.565-0.042-0.859-0.142C60.74,67.622,60.935,67.736,61.138,67.839L61.138,67.839z
		 M60.854,47.01c-1.043,1.936-3.596,7.295-3.413,13.002c0,0.081-0.05,2.581,0.987,4.839c-0.108-0.336-0.2-0.715-0.289-1.135
		c-0.05-0.178-1.374-5.877,5.682-12.457c0.12-0.117,2.375-2.353,4.542-4.25L60.854,47.01L60.854,47.01z"/>
	<path opacity="0.3" fill="#669CCC" enable-background="new    " d="M80.329,42.983H47.671c-4.241,0-7.687,3.44-7.687,7.685v32.66
		c0,4.241,3.443,7.685,7.687,7.685h32.657c4.247,0,7.687-3.44,7.687-7.685V50.67C88.016,46.426,84.576,42.983,80.329,42.983z
		 M85.132,83.328c0,2.648-2.15,4.806-4.803,4.806H56.721c4.108-2.128,12.585-7.067,17.405-13.834c0,0,6.867-9.793-4.086-19.33
		c0,0,2.82,4.425,2.918,8.886c0,0,0.701,5.899-4.486,9.528c-5.181,3.635-9.718,3.237-15.689,3.129
		c-4.775-0.084-8.577-1.532-9.912-2.114V50.667c0-1.911,1.129-3.552,2.748-4.325c0.412,9.618,4.439,17.889,6.998,20.642
		c2.617,2.815,6.475,5.805,11.408,4.561c4.931-1.246,5.921-6.653,5.921-6.653c1.082-4.608-0.484-10.074-0.565-10.191
		c-0.081-0.114-0.826-0.242-0.826-0.242c0.787,7.251-1.101,10.463-1.101,10.463c-2.753,5.688-6.823,3.935-6.823,3.935
		c-4.525-2.303-4.325-8.814-4.325-8.814c-0.222-6.784,3.237-13.069,3.882-14.184h11.428c-2.347,1.597-7.009,6.233-7.009,6.233
		c-6.644,6.194-5.34,11.403-5.34,11.403c1.077,5.465,4.361,1.777,4.361,1.777c3.465-3.602,3.193-10.766,3.193-10.766
		c-1.407,0.231-2.292,1.012-2.292,1.012c-0.164,4.778-2.965,7.743-2.965,7.743c-1.093,1.21-1.869,0.058-1.869,0.058
		c-0.576-0.865,0.57-1.466,0.57-1.466c1.602-1.413,2.08-3.819,2.053-4.722c-0.022-0.904,0.456-1.152,0.456-1.152
		c2.264-1.758,4.531-2.795,4.531-2.795c3.037-1.56,8.463-1.825,8.463-1.825c3.418,0.114,6.486-0.439,6.486-0.439l2.851-0.514
		c0,0.086,0.022,0.17,0.022,0.256v32.663h0.004V83.328z"/>
	<g opacity="0.3">
		<path opacity="0.5" fill="#669CCC" enable-background="new    " d="M82.05,49.802c-0.022,0.003-2.473,0.436-5.346,0.436
			c-0.292,0-0.598-0.003-0.895-0.014c-0.325,0.011-5.802,0.295-9.022,1.947c-0.022,0.011-0.542,0.25-1.327,0.687
			c0.615-0.601,4.72-4.636,6.794-6.049l3.065-2.089H59.528l-0.331,0.57c-0.718,1.229-4.269,7.732-4.035,14.793
			c-0.011,0.225-0.164,7.192,4.948,9.793c0.147,0.067,0.901,0.378,1.988,0.378c1.51,0,4.341-0.628,6.377-4.834
			c0.011-0.014,0.159-0.267,0.353-0.759c-0.097,0.451-1.06,4.759-5.089,5.777c-0.673,0.17-1.346,0.256-2.011,0.256
			c-2.759,0-5.471-1.468-8.28-4.483c-2.467-2.656-6.302-10.822-6.686-19.916l-0.075-1.727l-1.56,0.742
			c-2.069,0.985-3.407,3.087-3.407,5.357v24.483l0.69,0.295c1.466,0.637,5.41,2.119,10.349,2.208l1.288,0.028
			c0.962,0.019,1.886,0.042,2.787,0.042c4.589-0.003,8.252-0.57,12.293-3.407c5.677-3.977,4.998-10.33,4.965-10.597
			c-0.017-0.732-0.097-1.46-0.234-2.167c3.151,6.478-0.467,11.804-0.667,12.087c-4.595,6.447-12.618,11.209-16.996,13.472
			l-4.172,2.158h28.307c3.282,0,5.949-2.667,5.949-5.946V50.67c0-0.106-0.011-0.208-0.028-0.309l-0.172-1.171l-1.174,0.1
			L82.05,49.802z M85.132,50.67v32.66c0,2.648-2.15,4.806-4.803,4.806H56.721c4.108-2.128,12.585-7.067,17.405-13.834
			c0,0,6.867-9.793-4.086-19.33c0,0,2.82,4.425,2.918,8.886c0,0,0.701,5.899-4.486,9.528c-5.181,3.635-9.718,3.237-15.689,3.129
			c-4.775-0.084-8.577-1.532-9.912-2.114V50.67c0-1.911,1.129-3.552,2.748-4.325c0.412,9.618,4.439,17.889,6.998,20.642
			c2.617,2.815,6.475,5.805,11.408,4.561c4.931-1.246,5.921-6.653,5.921-6.653c1.082-4.608-0.484-10.074-0.565-10.191
			c-0.081-0.114-0.826-0.242-0.826-0.242c0.787,7.251-1.101,10.463-1.101,10.463c-2.753,5.688-6.823,3.935-6.823,3.935
			c-4.525-2.303-4.325-8.814-4.325-8.814c-0.222-6.784,3.237-13.069,3.882-14.184h11.428c-2.347,1.597-7.009,6.233-7.009,6.233
			c-6.644,6.194-5.34,11.403-5.34,11.403c1.077,5.465,4.361,1.777,4.361,1.777c3.465-3.602,3.193-10.766,3.193-10.766
			c-1.407,0.231-2.292,1.012-2.292,1.012c-0.164,4.778-2.965,7.743-2.965,7.743c-1.093,1.21-1.869,0.058-1.869,0.058
			c-0.576-0.865,0.57-1.466,0.57-1.466c1.602-1.413,2.08-3.819,2.053-4.722c-0.022-0.904,0.456-1.152,0.456-1.152
			c2.264-1.758,4.531-2.795,4.531-2.795c3.037-1.56,8.463-1.825,8.463-1.825c3.418,0.114,6.486-0.439,6.486-0.439l2.851-0.514
			C85.11,50.501,85.132,50.581,85.132,50.67z M60.935,64.929c0.423-0.078,0.951-0.314,1.471-0.895
			c0.108-0.108,2.867-3.079,3.232-7.89l0,0c-0.131,2.186-0.679,6.11-2.831,8.344c-0.348,0.381-0.993,0.868-1.391,0.868
			C61.277,65.349,61.11,65.216,60.935,64.929z"/>
		<path opacity="0.5" fill="#669CCC" enable-background="new    " d="M80.329,42.983H47.671c-4.241,0-7.687,3.44-7.687,7.685v32.66
			c0,4.241,3.443,7.685,7.687,7.685h32.657c4.247,0,7.687-3.44,7.687-7.685V50.67C88.016,46.426,84.576,42.983,80.329,42.983z
			 M86.87,83.328c0,3.607-2.934,6.541-6.541,6.541H47.671c-3.607,0-6.541-2.934-6.541-6.541V50.67c0-3.607,2.934-6.541,6.541-6.541
			h32.657c3.607,0,6.541,2.934,6.541,6.541V83.328z"/>
	</g>
	<g opacity="0.3">
		<path opacity="0.05" fill="#FFFFFF" enable-background="new    " d="M82.256,50.926c0,0-3.071,0.553-6.486,0.439
			c0,0-5.426,0.264-8.463,1.825c0,0-2.264,1.04-4.531,2.795c0,0-0.478,0.247-0.456,1.152c0.028,0.904-0.451,3.309-2.053,4.722
			c0,0-1.146,0.604-0.57,1.466c0,0,0.776,1.149,1.869-0.058c0,0,2.804-2.965,2.965-7.743c0,0,0.885-0.781,2.292-1.012
			c0,0,0.273,7.165-3.193,10.766c0,0-3.287,3.688-4.361-1.777c0,0-1.305-5.209,5.34-11.403c0,0,4.661-4.636,7.009-6.233H60.19
			c-0.645,1.115-4.108,7.398-3.882,14.184c0,0-0.2,6.511,4.325,8.814c0,0,4.069,1.752,6.823-3.935c0,0,1.891-3.209,1.101-10.463
			c0,0,0.745,0.128,0.826,0.242c0.081,0.117,1.646,5.579,0.565,10.191c0,0-0.987,5.404-5.921,6.653
			c-4.931,1.243-8.789-1.747-11.408-4.561c-2.559-2.753-6.583-11.025-6.998-20.642c-1.619,0.771-2.748,2.414-2.748,4.325v23.732
			c1.335,0.581,5.14,2.027,9.912,2.114c5.968,0.108,10.505,0.506,15.689-3.129c5.187-3.63,4.486-9.528,4.486-9.528
			c-0.097-4.461-2.918-8.886-2.918-8.886c10.952,9.537,4.086,19.33,4.086,19.33C69.31,81.07,60.83,86.01,56.722,88.138h23.607
			c2.651,0,4.803-2.155,4.803-4.806V50.67c0-0.089-0.022-0.17-0.022-0.256L82.256,50.926z M59.013,55.295
			c0.626-3.029,1.772-5.624,2.537-7.142h3.858c-1.315,1.232-2.314,2.228-2.364,2.272C61.23,52.122,59.936,53.768,59.013,55.295z
			 M56.835,74.294c-0.873,0-1.777-0.019-2.712-0.042l-1.305-0.028c-3.237-0.058-5.991-0.807-7.665-1.391V56.995
			c1.544,5.154,3.807,9.423,5.785,11.553c3.173,3.407,6.372,5.226,9.757,5.529C59.514,74.244,58.248,74.294,56.835,74.294z
			 M82.843,83.328c0,1.388-1.129,2.517-2.514,2.517H65.026c3.774-2.578,7.996-6.058,10.972-10.232
			c0.075-0.114,7.523-11.039-3.568-21.563c1.477-0.253,2.809-0.359,3.324-0.395c0.32,0.008,0.637,0.014,0.951,0.014
			c3.204,0,5.846-0.473,5.96-0.492l0.178-0.033L82.843,83.328z"/>
		<path opacity="0.05" fill="#FFFFFF" enable-background="new    " d="M80.329,40.7H47.671c-5.499,0-9.973,4.472-9.973,9.971v32.66
			c0,5.499,4.475,9.971,9.973,9.971h32.657c5.499,0,9.973-4.472,9.973-9.971V50.67C90.302,45.172,85.827,40.7,80.329,40.7z
			 M88.016,83.328c0,4.241-3.438,7.685-7.687,7.685H47.671c-4.241,0-7.687-3.44-7.687-7.685V50.67c0-4.244,3.443-7.685,7.687-7.685
			h32.657c4.247,0,7.687,3.44,7.687,7.685V83.328z"/>
	</g>
	<g opacity="0.3">
		<path opacity="0.9" fill="#FFFFFF" enable-background="new    " d="M74.126,75.445c0,0,2.292-3.282,2.108-7.89
			c-0.184,3.999-2.108,6.745-2.108,6.745c-4.817,6.767-13.297,11.706-17.405,13.834h2.114C63.288,85.628,70.024,81.2,74.126,75.445z
			"/>
		<path opacity="0.9" fill="#FFFFFF" enable-background="new    " d="M59.269,64.643c1.077,5.465,4.361,1.783,4.361,1.783
			c3.465-3.602,3.193-10.769,3.193-10.769c-0.006,0-0.011,0.003-0.011,0.003c-0.081,2.17-0.57,6.906-3.185,9.618
			c0,0-3.287,3.688-4.361-1.777c0,0-0.05-0.203-0.081-0.567C59.116,64.006,59.269,64.643,59.269,64.643z"/>
		<path opacity="0.9" fill="#FFFFFF" enable-background="new    " d="M56.302,60.26c0-0.064,0-0.128,0-0.192
			C56.302,60.085,56.302,60.149,56.302,60.26z"/>
		<path opacity="0.9" fill="#FFFFFF" enable-background="new    " d="M68.656,55.626c-0.058-0.011-0.103-0.019-0.103-0.019
			c0.114,1.021,0.17,1.952,0.178,2.817C68.753,57.582,68.731,56.653,68.656,55.626z"/>
		<path opacity="0.9" fill="#FFFFFF" enable-background="new    " d="M60.187,45.867c-0.64,1.107-4.064,7.32-3.882,14.059
			c0.2-6.286,3.276-11.87,3.882-12.913h9.94c0.542-0.453,1.054-0.851,1.488-1.146L60.187,45.867L60.187,45.867z"/>
		<path opacity="0.9" fill="#FFFFFF" enable-background="new    " d="M80.329,91.012H47.671c-4.241,0-7.687-3.44-7.687-7.685v1.14
			c0,4.247,3.443,7.687,7.687,7.687h32.657c4.247,0,7.687-3.438,7.687-7.687v-1.14C88.016,87.572,84.576,91.012,80.329,91.012z"/>
		<path opacity="0.9" fill="#FFFFFF" enable-background="new    " d="M85.11,50.411l-2.851,0.514c0,0-3.071,0.553-6.486,0.439
			c0,0-5.426,0.264-8.463,1.825c0,0-2.264,1.04-4.531,2.795c0,0-0.478,0.247-0.456,1.152c0.028,0.904-0.451,3.309-2.053,4.722
			c0,0-1.146,0.604-0.57,1.466c0,0,0.028,0.039,0.064,0.086c0.217-0.261,0.506-0.409,0.506-0.409
			c1.602-1.416,2.08-3.819,2.053-4.722c-0.022-0.904,0.456-1.152,0.456-1.152c0.592-0.456,1.179-0.862,1.727-1.218
			c0.006-0.131,0.022-0.256,0.028-0.389c0,0,0.885-0.781,2.292-1.012c0,0,0,0.031,0,0.061c0.298-0.153,0.484-0.239,0.484-0.239
			c3.037-1.56,8.463-1.822,8.463-1.822c3.418,0.111,6.486-0.442,6.486-0.442l2.851-0.514c0,0.086,0.022,0.17,0.022,0.256v-1.143
			C85.132,50.581,85.11,50.501,85.11,50.411z"/>
		<path opacity="0.9" fill="#FFFFFF" enable-background="new    " d="M52.614,66.988c-2.559-2.753-6.583-11.025-6.998-20.642
			c-1.619,0.771-2.748,2.414-2.748,4.325v1.143c0-1.911,1.129-3.552,2.748-4.325c0.412,9.618,4.439,17.895,6.998,20.648
			c2.617,2.812,6.475,5.802,11.408,4.556c4.931-1.243,5.921-6.653,5.921-6.653c0.325-1.38,0.406-2.84,0.37-4.205
			c-0.028,1.018-0.131,2.058-0.37,3.065c0,0-0.987,5.404-5.921,6.653C59.088,72.792,55.234,69.802,52.614,66.988z"/>
	</g>
	<g opacity="0.3">
		<path opacity="0.5" fill="#669CCC" enable-background="new    " d="M59.188,62.896c0.125-2.019,1.054-5.654,5.421-9.726
			c0,0,4.661-4.636,7.009-6.233h-1.402c-2.428,2-5.607,5.159-5.607,5.159C59.297,57.051,59.069,61.361,59.188,62.896z"/>
		<path opacity="0.5" fill="#669CCC" enable-background="new    " d="M70.041,54.97c0,0,0.526,0.829,1.129,2.128
			c3.744,3.691,4.953,7.359,5.067,10.432C76.396,63.981,75.183,59.445,70.041,54.97z"/>
		<path opacity="0.5" fill="#669CCC" enable-background="new    " d="M69.379,54.709c-0.081-0.114-0.826-0.242-0.826-0.242
			c0.045,0.375,0.069,0.737,0.097,1.09c0.2,0.039,0.662,0.136,0.729,0.225c0.058,0.084,0.843,2.812,0.934,6.024
			C70.405,58.149,69.443,54.8,69.379,54.709z"/>
		<path opacity="0.5" fill="#669CCC" enable-background="new    " d="M56.302,59.854c-0.006,0.069,0,0.142,0,0.211v-0.017
			C56.296,59.985,56.302,59.921,56.302,59.854z"/>
		<path opacity="0.5" fill="#669CCC" enable-background="new    " d="M61.566,63.266c-0.946,1.048-1.652,0.328-1.825,0.114
			c-0.195,0.261-0.32,0.609-0.045,1.018c0,0,0.776,1.149,1.869-0.058c0,0,2.804-2.97,2.965-7.746c0,0,0.885-0.776,2.281-1.009
			c0.022-0.662,0.011-1.077,0.011-1.077c-0.011,0.003-0.022,0.006-0.033,0.006c-0.506,0.259-1.327,0.703-2.286,1.321
			C64.239,60.429,61.566,63.266,61.566,63.266z"/>
		<path opacity="0.5" fill="#669CCC" enable-background="new    " d="M80.329,42.983H47.671c-4.241,0-7.687,3.44-7.687,7.685v1.074
			c0-4.244,3.443-7.685,7.687-7.685h32.657c4.247,0,7.687,3.44,7.687,7.685v-1.074C88.016,46.426,84.576,42.983,80.329,42.983z"/>
		<path opacity="0.5" fill="#669CCC" enable-background="new    " d="M52.783,77.587c5.968,0.108,10.505,0.506,15.689-3.129
			c4.661-3.262,4.569-8.344,4.503-9.339c-0.097,1.927-0.798,5.671-4.503,8.268c-5.181,3.635-9.718,3.237-15.689,3.129
			c-4.775-0.084-8.577-1.532-9.912-2.114v1.074C44.206,76.054,48.008,77.501,52.783,77.587z"/>
		<path opacity="0.5" fill="#669CCC" enable-background="new    " d="M60.626,69.936c0,0,4.069,1.752,6.823-3.935
			c0,0,1.38-2.364,1.282-7.593c-0.092,4.481-1.282,6.522-1.282,6.522c-2.753,5.688-6.823,3.935-6.823,3.935
			c-4.052-2.063-4.314-7.49-4.325-8.6c-0.006,0.289-0.011,0.57,0,0.859C56.302,61.122,56.101,67.633,60.626,69.936z"/>
		<path opacity="0.5" fill="#669CCC" enable-background="new    " d="M80.329,89.204c2.651,0,4.803-2.153,4.803-4.803v-1.074
			c0,2.648-2.15,4.806-4.803,4.806H58.71c-0.734,0.406-1.407,0.771-1.988,1.071C56.721,89.204,80.329,89.204,80.329,89.204z"/>
	</g>
</g>
</svg>
