<?xml version="1.0" encoding="utf-8"?>
<!-- Generator: Adobe Illustrator 17.0.0, SVG Export Plug-In . SVG Version: 6.00 Build 0)  -->
<!DOCTYPE svg PUBLIC "-//W3C//DTD SVG 1.1//EN" "http://www.w3.org/Graphics/SVG/1.1/DTD/svg11.dtd">
<svg version="1.1" id="图层_1" xmlns="http://www.w3.org/2000/svg" xmlns:xlink="http://www.w3.org/1999/xlink" x="0px" y="0px"
	 width="128px" height="128px" viewBox="0 0 128 128" enable-background="new 0 0 128 128" xml:space="preserve">
<g id="g151" opacity="0.5">
	<path id="path153" opacity="0.08" enable-background="new    " d="M106.873,118.496H20.952c-7.91,0-14.357-6.201-14.357-13.797
		v10.553c0,5.936,5.043,10.748,11.222,10.748h92.188c6.178,0,11.151-4.812,11.151-10.748v-10.553
		C121.156,112.296,114.78,118.496,106.873,118.496z"/>
	<path id="path155" opacity="0.1" enable-background="new    " d="M106.8,118.496H20.879c-7.907,0-14.284-6.088-14.284-13.684v5.52
		c0,5.936,2.723,13.167,13.755,13.167s75.798,0,86.975,0s13.831-7.231,13.831-13.167v-5.52
		C121.156,112.408,114.707,118.496,106.8,118.496z"/>
	<path id="path157" opacity="0.1" enable-background="new    " d="M106.8,118.496H20.879c-7.907,0-14.284-6.088-14.284-13.684v2.979
		c0,5.938,4.723,13.207,13.755,13.207s76.636,0,86.975,0c10.342,0,13.831-7.269,13.831-13.204v-2.979
		C121.156,112.408,114.707,118.496,106.8,118.496z"/>
	<rect id="rect159" x="19.613" y="118.496" opacity="0.05" enable-background="new    " width="88.525" height="2.501"/>
	<rect id="rect161" x="22.217" y="118.496" opacity="0.05" enable-background="new    " width="80.714" height="2.501"/>
	<rect id="rect163" x="22.217" y="120.997" opacity="0.05" enable-background="new    " width="80.714" height="2.501"/>
	<rect id="rect165" x="27.424" y="120.997" opacity="0.05" enable-background="new    " width="72.903" height="2.501"/>
	<rect id="rect167" x="35.235" y="120.997" opacity="0.05" enable-background="new    " width="57.281" height="2.501"/>
	<rect id="rect169" x="45.65" y="120.997" opacity="0.05" enable-background="new    " width="36.451" height="2.501"/>
	<rect id="rect171" x="27.424" y="118.496" opacity="0.05" enable-background="new    " width="72.903" height="2.501"/>
	<rect id="rect173" x="32.632" y="118.496" opacity="0.05" enable-background="new    " width="62.488" height="2.501"/>
	<rect id="rect175" x="35.235" y="118.496" opacity="0.05" enable-background="new    " width="57.281" height="2.501"/>
	<rect id="rect177" x="40.443" y="118.496" opacity="0.05" enable-background="new    " width="46.866" height="2.501"/>
	<rect id="rect179" x="40.443" y="118.496" opacity="0.05" enable-background="new    " width="46.866" height="2.501"/>
</g>
<path fill="#C4DCED" stroke="#9DBCD7" stroke-width="2" stroke-miterlimit="10" d="M121,102.992c0,8.288-6.719,15.008-15.008,15.008
	H22.008C13.719,118,7,111.281,7,102.992V19.008C7,10.719,13.719,4,22.008,4h83.985C114.281,4,121,10.719,121,19.008V102.992z"/>
<path opacity="0.5" fill="none" stroke="#FFFFFF" stroke-width="2" stroke-miterlimit="10" enable-background="new    " d="
	M119,102.992c0,7.184-5.824,13.008-13.008,13.008H22.008C14.824,116,9,110.176,9,102.992V19.008C9,11.824,14.824,6,22.008,6h83.984
	C113.176,6,119,11.824,119,19.008V102.992z"/>
<path opacity="0.08" fill="none" stroke="#000000" stroke-miterlimit="10" enable-background="new    " d="M121.426,37.445
	c0,0,0-5.043-4.981-5.043c-14.457,0-60.62,0.008-64.752,0.008c-5.021,0-4.981-4.97-4.981-4.97s0-5.003-4.981-5.003
	c-8.719,0-26.182,0-29.886,0c-4.904,0-4.981,4.822-4.981,4.975"/>
<path opacity="0.05" fill="none" stroke="#000000" stroke-miterlimit="10" enable-background="new    " d="M121.405,36.445
	c0,0,0-5.043-4.981-5.043c-14.457,0-60.62,0.008-64.752,0.008c-5.021,0-4.981-4.97-4.981-4.97s0-5.003-4.981-5.003
	c-8.719,0-26.182,0-29.886,0c-4.904,0-4.981,4.822-4.981,4.975"/>
<path opacity="0.03" fill="none" stroke="#000000" stroke-miterlimit="10" enable-background="new    " d="M121.405,35.487
	c0,0,0-5.043-4.981-5.043c-14.457,0-60.62,0.008-64.752,0.008c-5.021,0-4.981-4.97-4.981-4.97s0-5.003-4.981-5.003
	c-8.719,0-26.182,0-29.886,0c-4.904,0-4.981,4.822-4.981,4.975"/>
<linearGradient id="SVGID_1_" gradientUnits="userSpaceOnUse" x1="612" y1="781" x2="612" y2="687" gradientTransform="matrix(1 0 0 1 -548 -663)">
	<stop  offset="0" style="stop-color:#D1E0ED"/>
	<stop  offset="1" style="stop-color:#E4EEFB"/>
</linearGradient>
<path fill="url(#SVGID_1_)" stroke="#9DBCD7" stroke-width="2" stroke-miterlimit="10" d="M21.975,118h84.298
	c8.288,0,14.727-6.891,14.727-15.18V35.522c0-1.181-1.766-2.295-4.117-2.295c-14.52,0-60.813,0.008-64.963,0.008
	c-5.043,0-4.967-4.601-4.967-4.601S46.988,24,41.985,24c-8.757,0-26.296,0-30.015,0C7.045,24,7,28.084,7,28.237v74.584
	C7,111.109,13.687,118,21.975,118z"/>
<path fill="none" stroke="#FFFFFF" stroke-width="2" stroke-miterlimit="10" d="M21.975,116C14.821,116,9,110.088,9,102.82V28.237
	c0-0.095,0.015-0.894,0.608-1.488C10.104,26.252,10.898,26,11.97,26h30.015c1.184,0,1.786,0.141,2.146,0.503
	c0.796,0.801,0.832,2.023,0.832,2.036c-0.004,0.261,0.011,2.87,1.945,4.833c1.232,1.25,2.921,1.884,5.02,1.884
	c0,0,55.49-0.021,64.952-0.021c1.25,0,1.942,0.428,2.12,0.636v66.951c0,7.268-5.709,13.18-12.727,13.18H21.975V116z"/>
<radialGradient id="SVGID_2_" cx="789.5878" cy="-462.9282" r="91.4084" gradientTransform="matrix(0.0197 0.9998 -0.9109 0.018 -377.3072 -736.0426)" gradientUnits="userSpaceOnUse">
	<stop  offset="0" style="stop-color:#FFFFFF;stop-opacity:0.6"/>
	<stop  offset="0.3783" style="stop-color:#FAFCFE;stop-opacity:0.4487"/>
	<stop  offset="0.829" style="stop-color:#EBF3FC;stop-opacity:0.2684"/>
	<stop  offset="1" style="stop-color:#E4EEFB;stop-opacity:0.2"/>
</radialGradient>
<path fill="url(#SVGID_2_)" d="M21.975,116C14.821,116,9,110.088,9,102.82V28.237c0-0.095,0.015-0.894,0.608-1.488
	C10.104,26.252,10.898,26,11.97,26h30.015c1.184,0,1.786,0.141,2.146,0.503c0.796,0.801,0.832,2.023,0.832,2.036
	c-0.004,0.261,0.011,2.87,1.945,4.833c1.232,1.25,2.921,1.884,5.02,1.884c0,0,55.49-0.021,64.952-0.021
	c1.25,0,1.942,0.428,2.12,0.636v66.951c0,7.268-5.709,13.18-12.727,13.18H21.975V116z"/>
<g id="g27_1_">
	
		<linearGradient id="path36_2_" gradientUnits="userSpaceOnUse" x1="970.7643" y1="1483.7594" x2="986.6021" y2="1511.191" gradientTransform="matrix(1 0 0 1 -960 -1481)">
		<stop  offset="0" style="stop-color:#FFFFFF"/>
		<stop  offset="0.5" style="stop-color:#FFFFFF;stop-opacity:0.6"/>
		<stop  offset="1" style="stop-color:#FFFFFF;stop-opacity:0.15"/>
	</linearGradient>
	<path id="path36_1_" fill="url(#path36_2_)" d="M23.823,34.852c1.771-3.665,3.932-7.099,6.411-10.274l-4.511-9.892
		c-3.853,3.642-6.98,7.655-9.476,11.552L23.823,34.852z"/>
	
		<linearGradient id="path45_2_" gradientUnits="userSpaceOnUse" x1="985.1246" y1="1479.6516" x2="995.4895" y2="1497.6047" gradientTransform="matrix(1 0 0 1 -960 -1481)">
		<stop  offset="0" style="stop-color:#FFFFFF"/>
		<stop  offset="0.5" style="stop-color:#FFFFFF;stop-opacity:0.6"/>
		<stop  offset="1" style="stop-color:#FFFFFF;stop-opacity:0.15"/>
	</linearGradient>
	<path id="path45_1_" fill="url(#path45_2_)" d="M24.292,5.178l2.358,5.167c2.269-1.884,4.756-2.532,7.468-5.167L24.292,5.178z"/>
	
		<linearGradient id="path54_2_" gradientUnits="userSpaceOnUse" x1="988.3846" y1="1476.2424" x2="1001.0488" y2="1498.1774" gradientTransform="matrix(1 0 0 1 -960 -1481)">
		<stop  offset="0" style="stop-color:#FFFFFF"/>
		<stop  offset="0.5" style="stop-color:#FFFFFF;stop-opacity:0.6"/>
		<stop  offset="1" style="stop-color:#FFFFFF;stop-opacity:0.15"/>
	</linearGradient>
	<path id="path54_1_" fill="url(#path54_2_)" d="M41.987,5.178h-1.866c-4.704,2.635-8.817,4.646-12.346,7.65l4.324,9.486
		c3.694-4.266,7.979-8.005,12.778-11.025c0.037-0.034,0.063-0.063,0.103-0.097C50.358,6.549,45.017,5.178,41.987,5.178z"/>
	
		<linearGradient id="path63_2_" gradientUnits="userSpaceOnUse" x1="961.876" y1="1496.2646" x2="975.6191" y2="1520.0684" gradientTransform="matrix(1 0 0 1 -960 -1481)">
		<stop  offset="0" style="stop-color:#FFFFFF"/>
		<stop  offset="0.5" style="stop-color:#FFFFFF;stop-opacity:0.6"/>
		<stop  offset="1" style="stop-color:#FFFFFF;stop-opacity:0.15"/>
	</linearGradient>
	<path id="path63_1_" fill="url(#path63_2_)" d="M14.808,28.591c-2.893,4.925-4.783,9.476-5.905,12.588
		c1.328,1.895,3.523,3.138,6.013,3.138c3.083,0,5.716-1.905,6.807-4.596c0.279-0.751,0.619-1.473,0.93-2.213L14.808,28.591z"/>
	
		<linearGradient id="path72_2_" gradientUnits="userSpaceOnUse" x1="961.2581" y1="1497.2399" x2="976.4891" y2="1523.6207" gradientTransform="matrix(1 0 0 1 -960 -1481)">
		<stop  offset="0" style="stop-color:#FFFFFF"/>
		<stop  offset="0.5" style="stop-color:#FFFFFF;stop-opacity:0.6"/>
		<stop  offset="1" style="stop-color:#FFFFFF;stop-opacity:0.15"/>
	</linearGradient>
	<path id="path72_1_" fill="url(#path72_2_)" d="M7.627,20.42L7.569,36.958c0,0,0,0.005,0,0.011c0,0.103,0.026,0.2,0.032,0.303
		c1.257-3.059,3.012-6.799,5.394-10.749L7.627,20.42z"/>
	
		<linearGradient id="path149_2_" gradientUnits="userSpaceOnUse" x1="972.7764" y1="1488.978" x2="987.0781" y2="1513.7493" gradientTransform="matrix(1 0 0 1 -960 -1481)">
		<stop  offset="0" style="stop-color:#FFFFFF"/>
		<stop  offset="0.5" style="stop-color:#FFFFFF;stop-opacity:0.6"/>
		<stop  offset="1" style="stop-color:#FFFFFF;stop-opacity:0.15"/>
	</linearGradient>
	<path id="path149_1_" fill="url(#path149_2_)" d="M21.151,5.21C15.778,4.763,8.702,10.817,7.793,16.62l6.667,7.581
		c2.661-4.061,5.971-8.222,10.053-11.979L21.151,5.21z"/>
</g>
<g>
	<path opacity="0.05" fill="#FFFFFF" enable-background="new    " d="M52.367,43.083c-0.361,0.037-0.707,0.152-1.017,0.34
		L33.993,53.964c-1.141,0.692-1.505,2.176-0.816,3.317c0.136,0.228,0.309,0.428,0.513,0.601l9.451,7.983l-9.601,7.754
		c-1.044,0.829-1.217,2.349-0.389,3.393c0.164,0.203,0.358,0.382,0.577,0.522l11.069,7.078c-0.049,0.185-0.073,0.373-0.076,0.565
		v1.505c-0.009,0.792,0.37,1.536,1.017,1.994l16.942,11.822c0.825,0.574,1.921,0.574,2.75,0l17.17-11.822
		c0.659-0.449,1.053-1.196,1.053-1.994v-1.694c0-0.203-0.024-0.407-0.076-0.601l10.693-6.854c1.12-0.725,1.438-2.222,0.71-3.339
		c-0.143-0.219-0.319-0.413-0.522-0.577l-9.451-7.642l9.451-8.058c1.014-0.865,1.135-2.389,0.27-3.405
		c-0.173-0.203-0.38-0.376-0.61-0.513L76.8,43.495c-0.892-0.543-2.03-0.452-2.823,0.224l-9.864,8.511l-9.94-8.584
		C53.672,43.222,53.02,43.019,52.367,43.083z M52.592,45.493l11.521,9.94l11.446-9.864l17.319,10.505l-11.673,9.94l11.746,9.488
		L75.744,86.494l-11.743-9.976l-11.746,9.976L35.049,75.501l11.822-9.527l17.13,10.544l17.094-10.505L64.001,55.472L46.983,65.977
		l-11.746-9.94L52.592,45.493z M64.001,58.331l12.462,7.682l-12.462,7.642l-12.426-7.642L64.001,58.331z M64.001,78.515
		l11.746,9.976l5.497-3.502v1.694l-17.17,11.822L47.132,86.682v-1.505l5.12,3.315L64.001,78.515z"/>
	<path opacity="0.1" fill="#FFFFFF" enable-background="new    " d="M52.48,44.288c-0.188,0.021-0.367,0.085-0.528,0.188
		L34.594,55.017c-0.562,0.358-0.728,1.102-0.37,1.663c0.061,0.094,0.134,0.182,0.219,0.258l10.58,8.96l-10.729,8.659
		c-0.519,0.416-0.601,1.175-0.182,1.694c0.082,0.103,0.182,0.191,0.297,0.264l12.01,7.682c-0.309,0.228-0.491,0.592-0.489,0.981
		v1.505c0.006,0.392,0.203,0.759,0.528,0.981L63.4,99.485c0.41,0.279,0.947,0.279,1.357,0l17.17-11.822
		c0.325-0.221,0.522-0.586,0.528-0.981v-1.694c0.006-0.407-0.191-0.789-0.528-1.017L93.6,76.518
		c0.562-0.355,0.732-1.099,0.376-1.663c-0.07-0.112-0.161-0.212-0.264-0.297l-10.617-8.584l10.58-8.999
		c0.498-0.44,0.546-1.202,0.106-1.7c-0.076-0.085-0.161-0.158-0.258-0.219L76.206,44.551c-0.449-0.283-1.032-0.237-1.429,0.112
		L64.12,53.851l-10.729-9.263C53.135,44.369,52.81,44.26,52.48,44.288z M52.592,45.493l11.521,9.94l11.446-9.864l17.319,10.505
		l-11.673,9.94l11.746,9.488L75.744,86.494l-11.743-9.976l-11.746,9.976L35.049,75.501l11.822-9.527l17.13,10.544l17.094-10.505
		L64.001,55.472L46.983,65.977l-11.746-9.94C35.237,56.036,52.592,45.493,52.592,45.493z M64.001,56.865l14.796,9.148l-14.796,9.112
		l-14.796-9.112L64.001,56.865z M64.001,78.515l11.746,9.976l5.497-3.502v1.694l-17.17,11.822L47.132,86.682v-1.505l5.12,3.315
		L64.001,78.515z"/>
	<path opacity="0.3" fill="#669CCC" enable-background="new    " d="M52.586,45.493L35.249,56.046l11.746,9.925l17.021-10.49
		l17.085,10.52l-17.085,10.52l11.746,9.955l17.212-10.993l-11.777-9.485l11.682-9.925l-17.337-10.52L64.11,55.414L52.586,45.493
		L52.586,45.493z M46.868,65.971l-11.84,9.515L52.27,86.479l11.716-9.955C63.986,76.521,46.868,65.971,46.868,65.971z
		 M63.986,78.533L52.27,88.488l-5.151-3.299v1.509l16.961,11.81l17.148-11.81v-1.696l-5.466,3.488
		C75.762,88.488,63.986,78.533,63.986,78.533z"/>
	<path opacity="0.3" fill="#669CCC" enable-background="new    " d="M52.592,45.493L35.234,56.034l11.746,9.94l17.021-10.502
		l17.094,10.541L64.001,76.518l11.746,9.976l17.206-10.993l-11.746-9.488l11.673-9.94L75.562,45.568l-11.446,9.864L52.592,45.493z
		 M64.001,76.518l-17.13-10.541l-11.822,9.527l17.206,10.993L64.001,76.518z M52.404,47.827l8.511,7.342l-13.78,8.471l-8.699-7.342
		L52.404,47.827z M75.747,47.903l13.931,8.435l-8.66,7.379l-13.78-8.471C67.24,55.244,75.747,47.903,75.747,47.903z M47.02,68.271
		l13.78,8.511L52.1,84.161l-13.855-8.847L47.02,68.271z M81.019,68.271l8.735,7.041L75.899,84.16L67.2,76.781L81.019,68.271z
		 M64.001,78.515l-11.746,9.976l-5.12-3.315v1.505l16.942,11.822l17.17-11.822v-1.694l-5.497,3.502L64.001,78.515z M64.001,80.961
		l9.976,8.471l-9.864,6.778l-9.94-6.89L64.001,80.961z"/>
	<path opacity="0.5" fill="#669CCC" enable-background="new    " d="M52.592,45.493L35.234,56.034l0.829,0.716l16.53-10.052
		l10.693,9.224l0.716-0.449L64.866,56l10.693-9.224l16.49,10.016l0.829-0.716L75.559,45.571l-11.446,9.864L52.592,45.493z
		 M46.191,66.502l-11.145,8.999l0.829,0.528l10.993-8.847L63.17,77.234l0.832-0.716l-16.114-9.904l-0.905,0.565L46.191,66.502z
		 M64.001,76.518l0.829,0.716l16.265-10.016l-0.981-0.601L64.001,76.518z M81.924,66.617l-0.716,0.601l10.92,8.811l0.829-0.528
		L81.924,66.617z M64.001,78.515l-11.746,9.976l-5.12-3.315v1.205l5.12,3.315l11.746-9.976l11.746,9.976l5.497-3.502v-1.205
		l-5.497,3.502L64.001,78.515z"/>
	<path opacity="0.3" fill="#669CCC" enable-background="new    " d="M52.592,45.493L35.234,56.034l11.746,9.94l17.021-10.502
		l17.094,10.541L64.001,76.518l11.746,9.976l17.206-10.993l-11.746-9.488l11.673-9.94L75.562,45.568l-11.446,9.864L52.592,45.493z
		 M64.001,76.518l-17.13-10.541l-11.822,9.527l17.206,10.993L64.001,76.518z M52.48,46.661l9.976,8.623l-15.4,9.527l-10.204-8.623
		C36.852,56.188,52.48,46.661,52.48,46.661z M75.674,46.737l15.588,9.488l-10.204,8.66l-15.4-9.527
		C65.658,55.357,75.674,46.737,75.674,46.737z M46.944,67.142L62.38,76.67l-10.204,8.659l-15.513-9.904L46.944,67.142z
		 M81.095,67.142l10.241,8.283l-15.513,9.904L65.619,76.67L81.095,67.142z M64.001,78.515l-11.746,9.976l-5.12-3.315v1.505
		l16.942,11.822l17.17-11.822v-1.694l-5.497,3.502L64.001,78.515z M64.001,79.756l11.145,9.451c0.118,0.109,0.258,0.185,0.413,0.224
		l-11.446,7.907l-11.485-7.983c0.082-0.039,0.158-0.091,0.224-0.152L64.001,79.756z"/>
	<path opacity="0.2" fill="#FFFFFF" enable-background="new    " d="M63.285,55.921L46.983,65.973l-10.92-9.224l-0.829,0.489
		l10.957,9.263l0.677-0.528l1.017,0.64L64,56.677l16.114,9.94l0.981-0.601L64.866,56l-0.753,0.64
		C64.113,56.64,63.285,55.921,63.285,55.921z M92.052,56.789l-10.845,9.224l0.716,0.601l10.957-9.336L92.052,56.789z M35.874,76.029
		l-0.829,0.677L52.252,87.7l11.749-9.976l-0.829-0.489l-10.92,9.263L35.874,76.029z M64.001,77.723l11.746,9.976l17.206-10.993
		l-0.829-0.677L75.746,86.497l-10.92-9.263L64.001,77.723z M47.132,86.685v1.205l16.942,11.822l17.17-11.822v-1.205l-17.17,11.822
		L47.132,86.685z"/>
</g>
</svg>
