<?xml version="1.0" encoding="utf-8"?>
<!-- Generator: Adobe Illustrator 17.0.0, SVG Export Plug-In . SVG Version: 6.00 Build 0)  -->
<!DOCTYPE svg PUBLIC "-//W3C//DTD SVG 1.1//EN" "http://www.w3.org/Graphics/SVG/1.1/DTD/svg11.dtd">
<svg version="1.1" id="图层_1" xmlns="http://www.w3.org/2000/svg" xmlns:xlink="http://www.w3.org/1999/xlink" x="0px" y="0px"
	 width="128px" height="128px" viewBox="0 0 128 128" enable-background="new 0 0 128 128" xml:space="preserve">
<g id="g151" opacity="0.5">
	<path id="path153" opacity="0.08" enable-background="new    " d="M106.873,118.496H20.952c-7.91,0-14.357-6.201-14.357-13.797
		v10.553c0,5.936,5.043,10.748,11.222,10.748h92.188c6.178,0,11.151-4.812,11.151-10.748v-10.553
		C121.156,112.296,114.78,118.496,106.873,118.496z"/>
	<path id="path155" opacity="0.1" enable-background="new    " d="M106.8,118.496H20.879c-7.907,0-14.284-6.088-14.284-13.684v5.52
		c0,5.936,2.723,13.167,13.755,13.167s75.798,0,86.975,0s13.831-7.231,13.831-13.167v-5.52
		C121.156,112.408,114.707,118.496,106.8,118.496z"/>
	<path id="path157" opacity="0.1" enable-background="new    " d="M106.8,118.496H20.879c-7.907,0-14.284-6.088-14.284-13.684v2.979
		c0,5.938,4.723,13.207,13.755,13.207s76.636,0,86.975,0c10.342,0,13.831-7.269,13.831-13.204v-2.979
		C121.156,112.408,114.707,118.496,106.8,118.496z"/>
	<rect id="rect159" x="19.613" y="118.496" opacity="0.05" enable-background="new    " width="88.525" height="2.501"/>
	<rect id="rect161" x="22.217" y="118.496" opacity="0.05" enable-background="new    " width="80.714" height="2.501"/>
	<rect id="rect163" x="22.217" y="120.997" opacity="0.05" enable-background="new    " width="80.714" height="2.501"/>
	<rect id="rect165" x="27.424" y="120.997" opacity="0.05" enable-background="new    " width="72.903" height="2.501"/>
	<rect id="rect167" x="35.235" y="120.997" opacity="0.05" enable-background="new    " width="57.281" height="2.501"/>
	<rect id="rect169" x="45.65" y="120.997" opacity="0.05" enable-background="new    " width="36.451" height="2.501"/>
	<rect id="rect171" x="27.424" y="118.496" opacity="0.05" enable-background="new    " width="72.903" height="2.501"/>
	<rect id="rect173" x="32.632" y="118.496" opacity="0.05" enable-background="new    " width="62.488" height="2.501"/>
	<rect id="rect175" x="35.235" y="118.496" opacity="0.05" enable-background="new    " width="57.281" height="2.501"/>
	<rect id="rect177" x="40.443" y="118.496" opacity="0.05" enable-background="new    " width="46.866" height="2.501"/>
	<rect id="rect179" x="40.443" y="118.496" opacity="0.05" enable-background="new    " width="46.866" height="2.501"/>
</g>
<path fill="#C4DCED" stroke="#9DBCD7" stroke-width="2" stroke-miterlimit="10" d="M121,102.992c0,8.288-6.719,15.008-15.008,15.008
	H22.008C13.719,118,7,111.281,7,102.992V19.008C7,10.719,13.719,4,22.008,4h83.985C114.281,4,121,10.719,121,19.008V102.992z"/>
<path opacity="0.5" fill="none" stroke="#FFFFFF" stroke-width="2" stroke-miterlimit="10" enable-background="new    " d="
	M119,102.992c0,7.184-5.824,13.008-13.008,13.008H22.008C14.824,116,9,110.176,9,102.992V19.008C9,11.824,14.824,6,22.008,6h83.984
	C113.176,6,119,11.824,119,19.008V102.992z"/>
<path opacity="0.08" fill="none" stroke="#000000" stroke-miterlimit="10" enable-background="new    " d="M121.426,37.445
	c0,0,0-5.043-4.981-5.043c-14.457,0-60.62,0.008-64.752,0.008c-5.021,0-4.981-4.97-4.981-4.97s0-5.003-4.981-5.003
	c-8.719,0-26.182,0-29.886,0c-4.904,0-4.981,4.822-4.981,4.975"/>
<path opacity="0.05" fill="none" stroke="#000000" stroke-miterlimit="10" enable-background="new    " d="M121.405,36.445
	c0,0,0-5.043-4.981-5.043c-14.457,0-60.62,0.008-64.752,0.008c-5.021,0-4.981-4.97-4.981-4.97s0-5.003-4.981-5.003
	c-8.719,0-26.182,0-29.886,0c-4.904,0-4.981,4.822-4.981,4.975"/>
<path opacity="0.03" fill="none" stroke="#000000" stroke-miterlimit="10" enable-background="new    " d="M121.405,35.487
	c0,0,0-5.043-4.981-5.043c-14.457,0-60.62,0.008-64.752,0.008c-5.021,0-4.981-4.97-4.981-4.97s0-5.003-4.981-5.003
	c-8.719,0-26.182,0-29.886,0c-4.904,0-4.981,4.822-4.981,4.975"/>
<linearGradient id="SVGID_1_" gradientUnits="userSpaceOnUse" x1="612" y1="781" x2="612" y2="687" gradientTransform="matrix(1 0 0 1 -548 -663)">
	<stop  offset="0" style="stop-color:#D1E0ED"/>
	<stop  offset="1" style="stop-color:#E4EEFB"/>
</linearGradient>
<path fill="url(#SVGID_1_)" stroke="#9DBCD7" stroke-width="2" stroke-miterlimit="10" d="M21.975,118h84.298
	c8.288,0,14.727-6.891,14.727-15.18V35.522c0-1.181-1.766-2.295-4.117-2.295c-14.52,0-60.813,0.008-64.963,0.008
	c-5.043,0-4.967-4.601-4.967-4.601S46.988,24,41.985,24c-8.757,0-26.296,0-30.015,0C7.045,24,7,28.084,7,28.237v74.584
	C7,111.109,13.687,118,21.975,118z"/>
<path fill="none" stroke="#FFFFFF" stroke-width="2" stroke-miterlimit="10" d="M21.975,116C14.821,116,9,110.088,9,102.82V28.237
	c0-0.095,0.015-0.894,0.608-1.488C10.104,26.252,10.898,26,11.97,26h30.015c1.184,0,1.786,0.141,2.146,0.503
	c0.796,0.801,0.832,2.023,0.832,2.036c-0.004,0.261,0.011,2.87,1.945,4.833c1.232,1.25,2.921,1.884,5.02,1.884
	c0,0,55.49-0.021,64.952-0.021c1.25,0,1.942,0.428,2.12,0.636v66.951c0,7.268-5.709,13.18-12.727,13.18H21.975V116z"/>
<radialGradient id="SVGID_2_" cx="789.5878" cy="-462.9282" r="91.4084" gradientTransform="matrix(0.0197 0.9998 -0.9109 0.018 -377.3072 -736.0426)" gradientUnits="userSpaceOnUse">
	<stop  offset="0" style="stop-color:#FFFFFF;stop-opacity:0.6"/>
	<stop  offset="0.3783" style="stop-color:#FAFCFE;stop-opacity:0.4487"/>
	<stop  offset="0.829" style="stop-color:#EBF3FC;stop-opacity:0.2684"/>
	<stop  offset="1" style="stop-color:#E4EEFB;stop-opacity:0.2"/>
</radialGradient>
<path fill="url(#SVGID_2_)" d="M21.975,116C14.821,116,9,110.088,9,102.82V28.237c0-0.095,0.015-0.894,0.608-1.488
	C10.104,26.252,10.898,26,11.97,26h30.015c1.184,0,1.786,0.141,2.146,0.503c0.796,0.801,0.832,2.023,0.832,2.036
	c-0.004,0.261,0.011,2.87,1.945,4.833c1.232,1.25,2.921,1.884,5.02,1.884c0,0,55.49-0.021,64.952-0.021
	c1.25,0,1.942,0.428,2.12,0.636v66.951c0,7.268-5.709,13.18-12.727,13.18H21.975V116z"/>
<g id="g27_1_">
	
		<linearGradient id="path36_2_" gradientUnits="userSpaceOnUse" x1="970.7643" y1="1483.7594" x2="986.6021" y2="1511.191" gradientTransform="matrix(1 0 0 1 -960 -1481)">
		<stop  offset="0" style="stop-color:#FFFFFF"/>
		<stop  offset="0.5" style="stop-color:#FFFFFF;stop-opacity:0.6"/>
		<stop  offset="1" style="stop-color:#FFFFFF;stop-opacity:0.15"/>
	</linearGradient>
	<path id="path36_1_" fill="url(#path36_2_)" d="M23.823,34.852c1.771-3.665,3.932-7.099,6.411-10.274l-4.511-9.892
		c-3.853,3.642-6.98,7.655-9.476,11.552L23.823,34.852z"/>
	
		<linearGradient id="path45_2_" gradientUnits="userSpaceOnUse" x1="985.1246" y1="1479.6516" x2="995.4895" y2="1497.6047" gradientTransform="matrix(1 0 0 1 -960 -1481)">
		<stop  offset="0" style="stop-color:#FFFFFF"/>
		<stop  offset="0.5" style="stop-color:#FFFFFF;stop-opacity:0.6"/>
		<stop  offset="1" style="stop-color:#FFFFFF;stop-opacity:0.15"/>
	</linearGradient>
	<path id="path45_1_" fill="url(#path45_2_)" d="M24.292,5.178l2.358,5.167c2.269-1.884,4.756-2.532,7.468-5.167L24.292,5.178z"/>
	
		<linearGradient id="path54_2_" gradientUnits="userSpaceOnUse" x1="988.3846" y1="1476.2424" x2="1001.0488" y2="1498.1774" gradientTransform="matrix(1 0 0 1 -960 -1481)">
		<stop  offset="0" style="stop-color:#FFFFFF"/>
		<stop  offset="0.5" style="stop-color:#FFFFFF;stop-opacity:0.6"/>
		<stop  offset="1" style="stop-color:#FFFFFF;stop-opacity:0.15"/>
	</linearGradient>
	<path id="path54_1_" fill="url(#path54_2_)" d="M41.987,5.178h-1.866c-4.704,2.635-8.817,4.646-12.346,7.65l4.324,9.486
		c3.694-4.266,7.979-8.005,12.778-11.025c0.037-0.034,0.063-0.063,0.103-0.097C50.358,6.549,45.017,5.178,41.987,5.178z"/>
	
		<linearGradient id="path63_2_" gradientUnits="userSpaceOnUse" x1="961.876" y1="1496.2646" x2="975.6191" y2="1520.0684" gradientTransform="matrix(1 0 0 1 -960 -1481)">
		<stop  offset="0" style="stop-color:#FFFFFF"/>
		<stop  offset="0.5" style="stop-color:#FFFFFF;stop-opacity:0.6"/>
		<stop  offset="1" style="stop-color:#FFFFFF;stop-opacity:0.15"/>
	</linearGradient>
	<path id="path63_1_" fill="url(#path63_2_)" d="M14.808,28.591c-2.893,4.925-4.783,9.476-5.905,12.588
		c1.328,1.895,3.523,3.138,6.013,3.138c3.083,0,5.716-1.905,6.807-4.596c0.279-0.751,0.619-1.473,0.93-2.213L14.808,28.591z"/>
	
		<linearGradient id="path72_2_" gradientUnits="userSpaceOnUse" x1="961.2581" y1="1497.2399" x2="976.4891" y2="1523.6207" gradientTransform="matrix(1 0 0 1 -960 -1481)">
		<stop  offset="0" style="stop-color:#FFFFFF"/>
		<stop  offset="0.5" style="stop-color:#FFFFFF;stop-opacity:0.6"/>
		<stop  offset="1" style="stop-color:#FFFFFF;stop-opacity:0.15"/>
	</linearGradient>
	<path id="path72_1_" fill="url(#path72_2_)" d="M7.627,20.42L7.569,36.958c0,0,0,0.005,0,0.011c0,0.103,0.026,0.2,0.032,0.303
		c1.257-3.059,3.012-6.799,5.394-10.749L7.627,20.42z"/>
	
		<linearGradient id="path149_2_" gradientUnits="userSpaceOnUse" x1="972.7764" y1="1488.978" x2="987.0781" y2="1513.7493" gradientTransform="matrix(1 0 0 1 -960 -1481)">
		<stop  offset="0" style="stop-color:#FFFFFF"/>
		<stop  offset="0.5" style="stop-color:#FFFFFF;stop-opacity:0.6"/>
		<stop  offset="1" style="stop-color:#FFFFFF;stop-opacity:0.15"/>
	</linearGradient>
	<path id="path149_1_" fill="url(#path149_2_)" d="M21.151,5.21C15.778,4.763,8.702,10.817,7.793,16.62l6.667,7.581
		c2.661-4.061,5.971-8.222,10.053-11.979L21.151,5.21z"/>
</g>
<g>
	<g opacity="0.3" enable-background="new    ">
		<g>
			<path fill="#FFFFFF" d="M64,106.059c-18.228,0-33.059-14.831-33.059-33.059S45.772,39.941,64,39.941S97.059,54.772,97.059,73
				S82.228,106.059,64,106.059z M64,44.074c-15.951,0-28.926,12.976-28.926,28.926c0,15.947,12.976,28.926,28.926,28.926
				c15.947,0,28.926-12.98,28.926-28.926C92.926,57.049,79.947,44.074,64,44.074z"/>
		</g>
		<g>
			<path fill="#669CCC" d="M64,104.059c-18.228,0-33.059-14.831-33.059-33.059S45.772,37.941,64,37.941S97.059,52.772,97.059,71
				S82.228,104.059,64,104.059z M64,42.074c-15.951,0-28.926,12.976-28.926,28.926c0,15.947,12.976,28.926,28.926,28.926
				c15.947,0,28.926-12.98,28.926-28.926C92.926,55.049,79.947,42.074,64,42.074z"/>
		</g>
	</g>
	<g>
		<path opacity="0.3" fill="#669CCC" enable-background="new    " d="M64,41.037c-16.521,0-29.963,13.441-29.963,29.963
			S47.479,100.963,64,100.963S93.963,87.521,93.963,71S80.521,41.037,64,41.037z M64,99.926c-15.951,0-28.926-12.98-28.926-28.926
			c0-15.951,12.976-28.926,28.926-28.926c15.947,0,28.926,12.976,28.926,28.926C92.926,86.947,79.947,99.926,64,99.926z"/>
		<path opacity="0.3" fill="#669CCC" enable-background="new    " d="M64,37.941c-18.228,0-33.059,14.831-33.059,33.059
			S45.772,104.059,64,104.059S97.059,89.228,97.059,71S82.228,37.941,64,37.941z M64,103.023c-17.657,0-32.023-14.366-32.023-32.023
			c0-17.657,14.365-32.023,32.023-32.023c17.657,0,32.023,14.365,32.023,32.023C96.023,88.657,81.657,103.023,64,103.023z"/>
	</g>
	<g>
		<g>
			<g>
				<defs>
					<circle id="SVGID_3_" cx="64" cy="73" r="27.512"/>
				</defs>
				<clipPath id="SVGID_4_">
					<use xlink:href="#SVGID_3_"  overflow="visible"/>
				</clipPath>
			</g>
			<g>
				<defs>
					<circle id="SVGID_5_" cx="64" cy="73" r="27.512"/>
				</defs>
				<clipPath id="SVGID_6_">
					<use xlink:href="#SVGID_5_"  overflow="visible"/>
				</clipPath>
				<path opacity="0.3" clip-path="url(#SVGID_6_)" fill="#FFFFFF" d="M56.185,46.225c1.078,1.445,0.073,3.863,1.702,3.837
					c0.792,1.122-1.581,0.337,0.132,1.2c0.987,0.774-1.042,1.218,0.176,1.911c-1.401,0.723,0.231,3.786,1.277,4.552
					c1.72,1.445,0.759-3.059,2.678-3.294c1.042-1.188,2.872-1.951,4.174-3.144c-1.273-0.099-2.014-0.891-0.811-1.379
					c2.216,2.263,0.554-1.071-0.671-1.599c1.185-0.378,2.34-0.099,2.175-1.078c1.255-0.917-1.207-1.211-2.084-1.005
					C62.018,46.225,59.102,46.225,56.185,46.225z M37.998,47.171c-1.603,0.455-1.717,4.277-0.103,2.153
					C38.288,48.455,40.115,47.402,37.998,47.171z M45.485,47.303c-0.924,1.445,0.136,2.604,0.902,0.84
					C46.934,47.41,45.984,47.329,45.485,47.303z M47.796,47.63c-1.786,0.825-0.44,2.751-0.396,3.18
					c1.882,0.649,2.927-0.426,3.639,1.412c1.79,1.031-0.037,2.817-0.708,3.283c1.211-1.056,3.536,2.854,2.924,0.789
					c-0.726-0.528,1.955,0.851,0.565-0.869c-1.28-2.058,0.103-0.921,0.642-0.44c1.834-1.643-2.076-1.841-1.1-3.529
					c-0.855-0.693-1.977-2.788-3.492-2.377c-1.016,1.306-0.143-2.858-1.629-0.774c-0.077,1.163-0.029,2.641-0.462,0.624
					C47.488,48.576,48.277,47.754,47.796,47.63z M44.154,47.644c-1.196,0.396-1.133,2.014,0.341,2.186
					C44.997,49.255,44.693,47.751,44.154,47.644z M39.477,48.158c-1.555,0.367-0.921,1.621-0.444,1.974
					c-1.926,0.484,2.942,0.616,0.517,0.921c-2.014,0.803,1.944,1.75,2.593,0.8c2.487,0.609,0.088-1.988-0.128-3.397
					c-1.056-1.13-0.04,2.604-0.994,0.121C40.684,49.313,39.627,48.683,39.477,48.158z M88.935,48.323
					c-2.087,0.814,1.299,3.896,0.455,1.093C89.309,49.079,89.581,48.184,88.935,48.323z M45.324,49.563
					c-1.5,1.405,1.907,2.571-0.433,3.621c-0.348-1.31-0.954,0.653-2.289-0.404c-2.3,0.957-3.477-0.499-5.403-1.493
					c-1.155-0.143-0.723,1.097-0.8,2.256c0,3.21,0,6.419,0,9.629c1.133,1.192,0.444,0.525,0,0.198
					c0.624,2.117-0.275,5.209,2.179,6.438c0.418,0.77,2.168,4.061,2.249,3.078c-0.877-0.917-1.779-3.665-0.293-1.214
					c1.332,2.329,3.125,3.841,5.744,4.395c1.434,0.484,2.612,2.157,3.87,1.79c0.712,1.874-2.113,3.676,0.095,5.422
					c1.152,1.768,3.085,2.931,2.04,5.414c-0.734,2.428-0.418,5.069-1.053,7.333c-0.198,1.376,1.922,4.868,1.739,2.073
					c0.62-1.944,0.602-4.083,2.058-5.458c1.992,0.015,0.381-2.139,2.359-1.856c1.207-1.581,1.559-3.463,3.595-4.09
					c0.242-1.918,3.389-4.853,0.139-5.601c-0.884-0.433-3.155-0.591-2.982-0.803c0.356-1.904-2.938-2.447-4.336-3.224
					c-1.838-1.302-4.604,2.164-5.249-0.822c-0.385-0.939-1.801-0.954-1.152-2.406c-1.17,1.163-3.459,0.807-2.861-1.434
					c0.91-1.889,4.406-1.981,5.003,0.293c-0.829-2.509,1.596-4.461,2.946-6.243C52.763,65.6,54.392,64.867,53.83,66
					c0.954-0.033,2.403-1.753,0.708-0.961c-0.026-1.57-1.489-1.122-1.966-0.899c0.88-1.394,5.392-0.631,3.503-2.909
					c-1.464-0.591-1.343-4.05-2.825-2.124c0.125-1.185-3.015-3.51-2.946-1.519c0.381,1.779,0.07,3.833-0.745,5
					c-0.172-2.612-4.629-2.032-4.057-4.813c0.829-1.328,1.801-3.158,1.893-2.993c1.489-0.569,2.685-2.216,0.961-3.301
					c-0.092,0.946-1.299,2.894-1.126,0.536C46.113,53.338,46.369,49.915,45.324,49.563z M80.946,50.476
					c-2.615,0.638-3.65,3.129-4.945,5.194c-1.907,0.858-1.834,4.541,0.297,3.364c0.569,0.994-0.4,2.56,1.262,1.262
					c1.339-1.768,0.235-4.629,2.513-5.744c0.165,0.866-2.102,4.105,0.547,3.573c2.395,0.092-1.742,0.238-0.576,1.764
					c-1.211-0.715-0.583,1.959-2.161,1.335c-1.368,0.745-2.267-0.345-1.951-1.537c-1.078,0.627,0.337,2.395-1.53,2.502
					c-0.418,1.486-3.863,1.262-1.904,2.77c0.869,2.249-3.239,0.139-2.073,2.839c0.998,2.667,3.089-0.884,3.94-1.57
					c1.636-1.266,4.064,2.161,2.59,2.289c1.651-0.22,1.313-1.79-0.011-2.395c-0.715-1.849,2.263,0.906,2.098,1.834
					c1.049,1.962,0.616-2.01,1.687-0.249c-0.125,1.856,4.299,0.437,2.186,2.803c-1.816,0.367-3.606-0.466-5.169,0.066
					c-1.456-0.015-1.383-1.566-1.911-1.955c-1.852,0.15-4.141,0.132-5.378,1.625c-1.339,1.834-3.272,4.402-1.812,6.746
					c1.464,3.474,5.088,0.18,7.171,2.23c0.62,0.855-0.536,1.871,0.847,2.799c0.521,1.974-0.591,3.848,0.69,5.733
					c0.66,1.775,1.071,4.428,3.536,2.81c2.608-1.566,1.915-4.453,4.064-6.053c-1.702-3.287,2.084-4.728,3.026-7.399
					c-2.062,0.301-3.903-1.75-4.402-3.819c-0.866-1.005-0.642-2.483,0.326-0.598c1.332,1.288,1.361,5.106,3.822,3.14
					c1.126-0.47,4.2-2.263,1.75-3.078c-1.577,1.141-3.32-3.408-1.001-0.77c1.684,0.715,2.865,1.137,2.865-1.229
					c0-6.375,0-12.835,0-19.251c-0.525,0.536-1.874,1.522-2.553,0.866c-1.17,0.161-2.718,2.436-2.348,0.238
					c-1.02-0.066-0.183,1.97-1.581,2.029c-0.139,1.049-1.412,0.194-0.935,1.189c-0.983-0.693-1.812-2.891,0.121-1.511
					c2.872-0.858-1.893-2.799-2.263-3.268C82.391,50.905,81.1,50.264,80.946,50.476z M68.397,54.152
					c-0.95,1.089-2.201-0.286-2.223,0.653c0.172,0.282,0.858,2.304,2.37,0.811C69.354,55.274,69.035,54.416,68.397,54.152z
					 M48.211,54.805c-1.797,1.566,3.056,1.713,0.381,0.18L48.211,54.805z M71.933,59.144c-1.295,0.844,0.62,2.634-0.029,3.474
					c-0.811,1.412,3.015-0.099,0.972-1.225C72.729,60.425,71.676,59.243,71.933,59.144z M71.06,60.843
					c-1.805,0.51-0.411,3.136,0.231,0.66C71.324,61.36,71.372,60.835,71.06,60.843z M56.615,62.746
					c-1.676,1.141-0.26,2.282,0.968,1.768C57.334,63.825,56.626,63.392,56.615,62.746z M88.315,64.665
					c0.836,0.422-1.533,1.141-0.033,1.885c0.873,1.027,0.543,3.228-0.877,1.669C87.67,66.481,85.48,65.179,88.315,64.665z
					 M84.009,64.68c-0.114,1.119,2.417,2.854-0.312,2.289c-1.442,0.169-3.602-0.044-1.786-1.838c0.576-0.345,2.08,1.188,1.299-0.246
					C83.488,64.87,83.745,64.764,84.009,64.68z M49.26,73.406c-0.176,0.591,3.327,1.189,0.91,0.242L49.81,73.52L49.26,73.406z
					 M87.53,84.125c-2.311,0.059-2.003,6.005-0.393,2.487C87.292,85.849,87.901,84.84,87.53,84.125z"/>
			</g>
			<g>
				<defs>
					<circle id="SVGID_7_" cx="64" cy="73" r="27.512"/>
				</defs>
				<clipPath id="SVGID_8_">
					<use xlink:href="#SVGID_7_"  overflow="visible"/>
				</clipPath>
			</g>
		</g>
		<g>
			<g>
				<defs>
					<circle id="SVGID_9_" cx="64" cy="71" r="27.512"/>
				</defs>
				<clipPath id="SVGID_10_">
					<use xlink:href="#SVGID_9_"  overflow="visible"/>
				</clipPath>
			</g>
			<g>
				<defs>
					<circle id="SVGID_11_" cx="64" cy="71" r="27.512"/>
				</defs>
				<clipPath id="SVGID_12_">
					<use xlink:href="#SVGID_11_"  overflow="visible"/>
				</clipPath>
				<path opacity="0.3" clip-path="url(#SVGID_12_)" fill="#669CCC" d="M56.185,44.225c1.078,1.445,0.073,3.863,1.702,3.837
					c0.792,1.122-1.581,0.337,0.132,1.2c0.987,0.774-1.042,1.218,0.176,1.911c-1.401,0.723,0.231,3.786,1.277,4.552
					c1.72,1.445,0.759-3.059,2.678-3.294c1.042-1.188,2.872-1.951,4.174-3.144c-1.273-0.099-2.014-0.891-0.811-1.379
					c2.216,2.263,0.554-1.071-0.671-1.599c1.185-0.378,2.34-0.099,2.175-1.078c1.255-0.917-1.207-1.211-2.084-1.005
					C62.018,44.225,59.102,44.225,56.185,44.225z M37.998,45.171c-1.603,0.455-1.717,4.277-0.103,2.153
					C38.288,46.455,40.115,45.402,37.998,45.171z M45.485,45.303c-0.924,1.445,0.136,2.604,0.902,0.84
					C46.934,45.41,45.984,45.329,45.485,45.303z M47.796,45.63c-1.786,0.825-0.44,2.751-0.396,3.18
					c1.882,0.649,2.927-0.426,3.639,1.412c1.79,1.031-0.037,2.817-0.708,3.283c1.211-1.056,3.536,2.854,2.924,0.789
					c-0.726-0.528,1.955,0.851,0.565-0.869c-1.28-2.058,0.103-0.921,0.642-0.44c1.834-1.643-2.076-1.841-1.1-3.529
					c-0.855-0.693-1.977-2.788-3.492-2.377c-1.016,1.306-0.143-2.858-1.629-0.774c-0.077,1.163-0.029,2.641-0.462,0.624
					C47.488,46.576,48.277,45.754,47.796,45.63z M44.154,45.644c-1.196,0.396-1.133,2.014,0.341,2.186
					C44.997,47.255,44.693,45.751,44.154,45.644z M39.477,46.158c-1.555,0.367-0.921,1.621-0.444,1.974
					c-1.926,0.484,2.942,0.616,0.517,0.921c-2.014,0.803,1.944,1.75,2.593,0.8c2.487,0.609,0.088-1.988-0.128-3.397
					c-1.056-1.13-0.04,2.604-0.994,0.121C40.684,47.313,39.627,46.683,39.477,46.158z M88.935,46.323
					c-2.087,0.814,1.299,3.896,0.455,1.093C89.309,47.079,89.581,46.184,88.935,46.323z M45.324,47.563
					c-1.5,1.405,1.907,2.571-0.433,3.621c-0.348-1.31-0.954,0.653-2.289-0.404c-2.3,0.957-3.477-0.499-5.403-1.493
					c-1.155-0.143-0.723,1.097-0.8,2.256c0,3.21,0,6.419,0,9.629c1.133,1.192,0.444,0.525,0,0.198
					c0.624,2.117-0.275,5.209,2.179,6.438c0.418,0.77,2.168,4.061,2.249,3.078c-0.877-0.917-1.779-3.665-0.293-1.214
					c1.332,2.329,3.125,3.841,5.744,4.395c1.434,0.484,2.612,2.157,3.87,1.79c0.712,1.874-2.113,3.676,0.095,5.422
					c1.152,1.768,3.085,2.931,2.04,5.414c-0.734,2.428-0.418,5.069-1.053,7.333c-0.198,1.376,1.922,4.868,1.739,2.073
					c0.62-1.944,0.602-4.083,2.058-5.458c1.992,0.015,0.381-2.139,2.359-1.856c1.207-1.581,1.559-3.463,3.595-4.09
					c0.242-1.918,3.389-4.853,0.139-5.601c-0.884-0.433-3.155-0.591-2.982-0.803c0.356-1.904-2.938-2.447-4.336-3.224
					c-1.838-1.302-4.604,2.164-5.249-0.822c-0.385-0.939-1.801-0.954-1.152-2.406c-1.17,1.163-3.459,0.807-2.861-1.434
					c0.91-1.889,4.406-1.981,5.003,0.293c-0.829-2.509,1.596-4.461,2.946-6.243C52.763,63.6,54.392,62.867,53.83,64
					c0.954-0.033,2.403-1.753,0.708-0.961c-0.026-1.57-1.489-1.122-1.966-0.899c0.88-1.394,5.392-0.631,3.503-2.909
					c-1.464-0.591-1.343-4.05-2.825-2.124c0.125-1.185-3.015-3.51-2.946-1.519c0.381,1.779,0.07,3.833-0.745,5
					c-0.172-2.612-4.629-2.032-4.057-4.813c0.829-1.328,1.801-3.158,1.893-2.993c1.489-0.569,2.685-2.216,0.961-3.301
					c-0.092,0.946-1.299,2.894-1.126,0.536C46.113,51.338,46.369,47.915,45.324,47.563z M80.946,48.476
					c-2.615,0.638-3.65,3.129-4.945,5.194c-1.907,0.858-1.834,4.541,0.297,3.364c0.569,0.994-0.4,2.56,1.262,1.262
					c1.339-1.768,0.235-4.629,2.513-5.744c0.165,0.866-2.102,4.105,0.547,3.573c2.395,0.092-1.742,0.238-0.576,1.764
					c-1.211-0.715-0.583,1.959-2.161,1.335c-1.368,0.745-2.267-0.345-1.951-1.537c-1.078,0.627,0.337,2.395-1.53,2.502
					c-0.418,1.486-3.863,1.262-1.904,2.77c0.869,2.249-3.239,0.139-2.073,2.839c0.998,2.667,3.089-0.884,3.94-1.57
					c1.636-1.266,4.064,2.161,2.59,2.289c1.651-0.22,1.313-1.79-0.011-2.395c-0.715-1.849,2.263,0.906,2.098,1.834
					c1.049,1.962,0.616-2.01,1.687-0.249c-0.125,1.856,4.299,0.437,2.186,2.803c-1.816,0.367-3.606-0.466-5.169,0.066
					c-1.456-0.015-1.383-1.566-1.911-1.955c-1.852,0.15-4.141,0.132-5.378,1.625c-1.339,1.834-3.272,4.402-1.812,6.746
					c1.464,3.474,5.088,0.18,7.171,2.23c0.62,0.855-0.536,1.871,0.847,2.799c0.521,1.974-0.591,3.848,0.69,5.733
					c0.66,1.775,1.071,4.428,3.536,2.81c2.608-1.566,1.915-4.453,4.064-6.053c-1.702-3.287,2.084-4.728,3.026-7.399
					c-2.062,0.301-3.903-1.75-4.402-3.819c-0.866-1.005-0.642-2.483,0.326-0.598c1.332,1.288,1.361,5.106,3.822,3.14
					c1.126-0.47,4.2-2.263,1.75-3.078c-1.577,1.141-3.32-3.408-1.001-0.77c1.684,0.715,2.865,1.137,2.865-1.229
					c0-6.375,0-12.835,0-19.251c-0.525,0.536-1.874,1.522-2.553,0.866c-1.17,0.161-2.718,2.436-2.348,0.238
					c-1.02-0.066-0.183,1.97-1.581,2.029c-0.139,1.049-1.412,0.194-0.935,1.189c-0.983-0.693-1.812-2.891,0.121-1.511
					c2.872-0.858-1.893-2.799-2.263-3.268C82.391,48.905,81.1,48.264,80.946,48.476z M68.397,52.152
					c-0.95,1.089-2.201-0.286-2.223,0.653c0.172,0.282,0.858,2.304,2.37,0.811C69.354,53.274,69.035,52.416,68.397,52.152z
					 M48.211,52.805c-1.797,1.566,3.056,1.713,0.381,0.18L48.211,52.805z M71.933,57.144c-1.295,0.844,0.62,2.634-0.029,3.474
					c-0.811,1.412,3.015-0.099,0.972-1.225C72.729,58.425,71.676,57.243,71.933,57.144z M71.06,58.843
					c-1.805,0.51-0.411,3.136,0.231,0.66C71.324,59.36,71.372,58.835,71.06,58.843z M56.615,60.746
					c-1.676,1.141-0.26,2.282,0.968,1.768C57.334,61.825,56.626,61.392,56.615,60.746z M88.315,62.665
					c0.836,0.422-1.533,1.141-0.033,1.885c0.873,1.027,0.543,3.228-0.877,1.669C87.67,64.481,85.48,63.179,88.315,62.665z
					 M84.009,62.68c-0.114,1.119,2.417,2.854-0.312,2.289c-1.442,0.169-3.602-0.044-1.786-1.838c0.576-0.345,2.08,1.188,1.299-0.246
					C83.488,62.87,83.745,62.764,84.009,62.68z M49.26,71.406c-0.176,0.591,3.327,1.189,0.91,0.242L49.81,71.52L49.26,71.406z
					 M87.53,82.125c-2.311,0.059-2.003,6.005-0.393,2.487C87.292,83.849,87.901,82.84,87.53,82.125z"/>
			</g>
			<g>
				<defs>
					<circle id="SVGID_13_" cx="64" cy="71" r="27.512"/>
				</defs>
				<clipPath id="SVGID_14_">
					<use xlink:href="#SVGID_13_"  overflow="visible"/>
				</clipPath>
			</g>
		</g>
	</g>
	<g>
		<defs>
			<path id="SVGID_27_" d="M64,97.339c-14.523,0-26.339-11.815-26.339-26.339c0-14.523,11.815-26.338,26.339-26.338
				S90.339,56.477,90.339,71C90.339,85.523,78.523,97.339,64,97.339z"/>
		</defs>
		<clipPath id="SVGID_15_">
			<use xlink:href="#SVGID_27_"  overflow="visible"/>
		</clipPath>
		<g clip-path="url(#SVGID_15_)">
			<path opacity="0.3" fill="#669CCC" d="M57.583,62.515c-0.249-0.69-0.957-1.122-0.968-1.768
				C54.938,61.887,56.354,63.028,57.583,62.515z"/>
			<path opacity="0.3" fill="#669CCC" d="M44.495,47.831c0.503-0.576,0.198-2.08-0.341-2.186
				C42.958,46.041,43.02,47.658,44.495,47.831z"/>
			<path opacity="0.3" fill="#669CCC" d="M37.896,47.325c0.392-0.869,2.219-1.922,0.103-2.153
				C36.395,45.626,36.282,49.448,37.896,47.325z"/>
			<path opacity="0.3" fill="#669CCC" d="M39.033,48.132c-1.926,0.484,2.942,0.616,0.517,0.921c-2.014,0.803,1.944,1.75,2.593,0.8
				c2.487,0.609,0.088-1.988-0.128-3.397c-1.056-1.13-0.04,2.604-0.994,0.121c-0.337,0.737-1.394,0.106-1.544-0.418
				C37.921,46.525,38.556,47.779,39.033,48.132z M41.438,48.62c0.067,0,0.133-0.006,0.2-0.018c0,0,0.053,0.102,0.081,0.156
				c-0.109,0.042-0.211,0.101-0.304,0.174c0-0.004,0-0.008,0-0.012c0.004-0.109-0.003-0.209-0.02-0.301
				C41.409,48.62,41.438,48.62,41.438,48.62z"/>
			<path opacity="0.3" fill="#669CCC" d="M51.039,50.222c1.79,1.031-0.037,2.817-0.708,3.283c1.211-1.056,3.536,2.854,2.924,0.789
				c-0.726-0.528,1.955,0.851,0.565-0.869c-1.28-2.058,0.103-0.921,0.642-0.44c1.834-1.643-2.076-1.841-1.1-3.529
				c-0.855-0.693-1.977-2.788-3.492-2.377c-1.016,1.306-0.143-2.858-1.629-0.774c-0.077,1.163-0.029,2.641-0.462,0.624
				c-0.29-0.352,0.499-1.174,0.018-1.299c-1.786,0.825-0.44,2.751-0.396,3.18C49.282,49.46,50.327,48.385,51.039,50.222z"/>
			<path opacity="0.3" fill="#669CCC" d="M71.291,59.503c0.033-0.143,0.081-0.668-0.231-0.66
				C69.255,59.353,70.649,61.979,71.291,59.503z"/>
			<path opacity="0.3" fill="#669CCC" d="M48.211,52.805c-1.797,1.566,3.056,1.713,0.381,0.18L48.211,52.805z"/>
			<path opacity="0.3" fill="#669CCC" d="M46.388,46.143c0.547-0.734-0.404-0.814-0.902-0.84
				C44.561,46.749,45.621,47.908,46.388,46.143z"/>
			<path opacity="0.3" fill="#669CCC" d="M57.888,48.199c0.792,1.122-1.581,0.269,0.132,1.131c0.987,0.774-1.042,1.183,0.176,1.877
				c-1.401,0.723,0.231,3.768,1.277,4.535c1.72,1.445,0.759-3.068,2.678-3.303c1.042-1.189,2.872-1.956,4.174-3.148
				c-1.273-0.099-2.014-0.894-0.811-1.381c2.216,2.263,0.554-1.072-0.671-1.6c1.185-0.378,2.34,0.038,2.175-0.941
				c1.255-0.917-1.207-0.868-2.084-0.868c-2.916,0-5.832,0-8.749,0C57.264,46.5,56.259,48.225,57.888,48.199z M64.103,46.5
				c-0.253,0-0.416-0.038-0.432,0.302c-0.022,0.443,0.208,0.58,0.586,0.798c-0.576,0.546-0.542,1.043-0.507,1.27
				c0.044,0.28,0.16,0.468,0.339,0.694c-0.121,0.079-0.244,0.125-0.369,0.205c-0.761,0.493-1.544,0.983-2.182,1.619
				c-1.284,0.426-1.669,1.835-1.891,2.822c-0.465-0.666-0.882-1.635-0.825-2.042c0.331-0.209,0.538-0.574,0.546-0.969
				c0.005-0.216-0.05-0.425-0.153-0.606c0.161-0.268,0.3-0.626,0.247-1.068c-0.031-0.261-0.124-0.503-0.277-0.725
				c0.088-0.348,0.069-0.835-0.34-1.414c-0.19-0.269-0.482-0.443-0.803-0.486c-0.034-0.182-0.06,0.1-0.079-0.097
				c-0.025-0.258-0.053-0.303-0.104-0.303H64.103z"/>
			<path opacity="0.3" fill="#669CCC" d="M71.904,60.618c-0.811,1.412,3.015-0.099,0.972-1.225c-0.147-0.968-1.2-2.15-0.943-2.249
				C70.638,57.988,72.553,59.778,71.904,60.618z"/>
			<path opacity="0.3" fill="#669CCC" d="M87.138,84.612c0.154-0.763,0.763-1.772,0.393-2.487
				C85.219,82.184,85.528,88.13,87.138,84.612z"/>
			<path opacity="0.3" fill="#669CCC" d="M88.868,50.373c-1.17,0.161-2.758,2.436-2.387,0.238c-1.02-0.066-0.203,1.97-1.601,2.029
				c-0.139,1.049-1.422,0.194-0.945,1.189c-0.983-0.693-1.817-2.891,0.116-1.511c2.872-0.858-1.895-2.799-2.266-3.268
				c0.609-0.143-0.684-0.785-0.838-0.572c-2.615,0.638-3.65,3.129-4.945,5.194c-1.907,0.858-1.834,4.541,0.297,3.364
				c0.569,0.994-0.4,2.56,1.262,1.262c1.339-1.768,0.235-4.629,2.513-5.744c0.165,0.866-2.102,4.105,0.547,3.573
				c2.395,0.092-1.742,0.238-0.576,1.764c-1.21-0.715-0.583,1.959-2.161,1.335c-1.368,0.745-2.267-0.345-1.952-1.537
				c-1.078,0.627,0.337,2.395-1.53,2.502c-0.418,1.486-3.863,1.262-1.904,2.77c0.869,2.249-3.239,0.139-2.073,2.839
				c0.998,2.667,3.089-0.884,3.94-1.57c1.636-1.266,4.064,2.161,2.59,2.289c1.651-0.22,1.313-1.79-0.011-2.395
				c-0.715-1.849,2.263,0.906,2.098,1.834c1.049,1.962,0.616-2.01,1.687-0.249c-0.125,1.856,4.299,0.437,2.186,2.803
				c-1.816,0.367-3.606-0.466-5.169,0.066c-1.456-0.015-1.383-1.566-1.911-1.955c-1.852,0.15-4.141,0.132-5.378,1.625
				c-1.339,1.834-3.272,4.402-1.812,6.746c1.464,3.474,5.088,0.18,7.171,2.23c0.62,0.855-0.536,1.871,0.847,2.799
				c0.521,1.974-0.591,3.848,0.69,5.733c0.66,1.775,1.071,4.428,3.536,2.81c2.608-1.566,1.915-4.453,4.064-6.053
				c-1.702-3.287,2.084-4.728,3.026-7.399c-2.062,0.301-3.903-1.75-4.402-3.819c-0.866-1.005-0.642-2.483,0.326-0.598
				c1.332,1.288,1.361,5.106,3.822,3.14c1.126-0.47,4.2-2.263,1.75-3.078c-1.577,1.141-3.241-3.408-0.922-0.77
				c1.684,0.715,2.944,1.137,2.944-1.229c0-6.375,0-12.835,0-19.251C90.5,50.043,89.546,51.03,88.868,50.373z M71.563,65.484
				c-0.012-0.029-0.044-0.109-0.046-0.114c0.026-0.003,0.165-0.019,0.212-0.025C71.671,65.398,71.615,65.445,71.563,65.484z
				 M86.087,75.993c-0.215,0.272-0.454,0.566-0.698,0.845c-1.112,1.272-2.593,2.975-1.833,5.349
				c-0.777,0.845-1.144,1.834-1.477,2.724c-0.421,1.127-0.753,1.824-1.792,2.447c-0.49,0.321-0.702,0.141-0.74,0.141h-0.013
				c-0.267,0-0.632-1.029-0.807-1.559c-0.09-0.273-0.179-0.443-0.273-0.695c-0.033-0.088-0.076-0.123-0.129-0.201
				c-0.53-0.781-0.47-1.569-0.394-2.598c0.061-0.824,0.13-1.747-0.132-2.739c-0.073-0.276-0.243-0.51-0.481-0.669
				c-0.159-0.107-0.193-0.167-0.194-0.168c-0.019-0.054,0.007-0.27,0.022-0.4c0.053-0.456,0.143-1.219-0.381-1.94
				c-0.038-0.052-0.08-0.101-0.126-0.147c-0.731-0.719-1.669-1.068-2.869-1.068c-0.492,0-0.97,0.054-1.433,0.106
				c-0.408,0.046-0.794,0.09-1.14,0.09c-0.718,0-1.12-0.146-1.471-0.978c-0.024-0.057-0.052-0.112-0.085-0.165
				c-0.939-1.507,0.211-3.309,1.693-5.337l0.048-0.065c0.77-0.9,2.312-0.646,3.817-0.75c0.285,0.668,0.872,2.282,2.536,2.282
				c0.004,0,0.007,0,0.011,0c0.128,0,0.256-0.398,0.378-0.439c0.242-0.082,0.517-0.309,0.867-0.309c0.385,0,0.808,0.314,1.254,0.364
				c0.518,0.058,1.054,0.384,1.624,0.384c0.005,0,0.011,0,0.017,0c-0.099,0,0.192,1.092,0.62,1.685
				C83.01,73.942,84.325,75.323,86.087,75.993z M83.697,64.969c-1.442,0.169-3.602-0.044-1.786-1.838
				c0.576-0.345,2.08,1.188,1.299-0.246c0.279-0.015,0.536-0.121,0.8-0.205C83.895,63.799,86.426,65.534,83.697,64.969z
				 M90.5,68.758c0,0.281-0.186,0.468-0.207,0.589c-0.267-0.061-0.732-0.212-1.037-0.34c-0.683-0.737-1.215-1.03-1.748-1.03
				c-0.463,0-0.898,0.238-1.128,0.636c-0.292,0.506-0.233,1.159,0.188,1.89c0.195,0.337,0.86,1.354,1.949,1.573
				c-0.363,0.245-0.812,0.498-1.239,0.676c-0.101,0.042-0.197,0.098-0.282,0.166c-0.196,0.156-0.33,0.231-0.408,0.266
				c-0.18-0.222-0.429-0.803-0.585-1.167c-0.291-0.68-0.617-1.443-1.137-2.016c-0.215-0.399-0.468-0.787-0.791-1.052
				c0.349-0.451,0.763-1.169,0.503-1.942c-0.122-0.364-0.341-0.617-0.605-0.8c0.209,0.029,0.391,0.044,0.556,0.044
				c0.9,0,1.291-0.472,1.444-0.753c0.052-0.095,0.09-0.19,0.117-0.284c0.11,0.301,0.191,0.583,0.153,0.829
				c-0.053,0.349,0.054,0.704,0.293,0.966c0.566,0.622,1.129,0.924,1.719,0.924c0.637,0,1.186-0.364,1.468-0.975
				c0.405-0.877,0.201-2.192-0.46-3.058c0.238-0.289,0.478-0.702,0.389-1.237c-0.044-0.26-0.206-0.742-0.811-1.047
				c-0.165-0.083-0.346-0.125-0.528-0.125c-0.07,0-0.14,0.006-0.209,0.019c-0.784,0.142-1.742,0.41-2.201,1.227
				c-0.158,0.283-0.223,0.566-0.231,0.84c-0.038-0.061-0.077-0.12-0.113-0.177c-0.119-0.183-0.334-0.515-0.38-0.668
				c0.017-0.371-0.143-0.729-0.432-0.964c-0.212-0.172-0.474-0.262-0.739-0.262c-0.12,0-0.239,0.018-0.356,0.056l-0.177,0.058
				c-0.124,0.042-0.266,0.09-0.328,0.093c-0.235,0.012-0.458,0.095-0.641,0.232c-0.124-0.025-0.253-0.04-0.385-0.04
				c-0.297,0-0.571,0.074-0.814,0.218c-0.08,0.048-0.155,0.106-0.222,0.172c-0.628,0.621-0.974,1.219-1.035,1.789
				c-0.181,0.026-0.337,0.085-0.471,0.166c-0.094-0.131-0.198-0.265-0.313-0.401c-0.583-0.696-1.454-1.525-2.291-1.525
				c-0.433,0-0.834,0.208-1.076,0.557c-0.24-0.069-0.485-0.106-0.732-0.106c-0.499,0-0.979,0.15-1.396,0.435
				c-0.029-0.214-0.089-0.439-0.18-0.674c-0.017-0.043-0.036-0.084-0.057-0.125c0.533-0.242,1.196-0.578,1.631-1.163
				c0.525-0.15,0.863-0.426,1.08-0.743c0.247,0.089,0.512,0.135,0.786,0.135c0.314,0,0.633-0.059,0.951-0.176
				c0.113,0.019,0.224,0.028,0.332,0.028c1.147,0,1.617-0.895,1.837-1.44c0.287-0.027,0.562-0.16,0.765-0.387
				c0.269-0.303,0.358-0.712,0.258-1.084c0.119-0.05,0.24-0.095,0.308-0.12c0.805-0.298,1.16-1.006,1.056-1.66
				c-0.16-1.009-1.151-1.301-1.873-1.301c-0.015,0-0.052,0-0.056,0c0.076,0,0.176-0.295,0.245-0.483
				c0.259-0.712,0.484-1.215,0.373-1.798c-0.069-0.359-0.301-0.61-0.628-0.773c-0.165-0.082-0.345-0.095-0.525-0.095
				c-0.176,0-0.353,0.054-0.516,0.134c-1.885,0.923-2.135,2.666-2.335,4.061c-0.031,0.221-0.063,0.441-0.1,0.651
				c-0.222-0.219-0.52-0.336-0.825-0.336c-0.166,0-0.333,0.036-0.492,0.11c0.002-0.135,0.026-0.309,0.095-0.505
				c0.122-0.349,0.334-0.613,0.583-0.725c0.211-0.095,0.389-0.25,0.512-0.446c0.214-0.341,0.421-0.694,0.629-1.047
				c0.932-1.587,1.747-2.974,3.208-3.511c0.01,0.013,0.019,0.027,0.03,0.04c0.23,0.291,0.577,0.491,1.207,0.854
				c0.104,0.06,0.239,0.137,0.388,0.226c-0.32,0.164-0.566,0.449-0.682,0.814c-0.334,1.053,0.633,2.526,1.474,3.119
				c0.203,0.143,0.44,0.214,0.676,0.214c0.27,0,0.54-0.093,0.758-0.277c0.165-0.14,0.284-0.317,0.351-0.511
				c0.316-0.149,0.536-0.355,0.688-0.581c0.449-0.202,0.733-0.544,0.916-0.896c0.556-0.013,1.009-0.342,1.489-0.69
				c0.148-0.107,0.377-0.273,0.568-0.388c0.208,0.07,0.596,0.106,0.83,0.106c0.276,0-0.024-0.052,0.976-0.136V68.758z
				 M88.282,64.551c0.873,1.027,0.543,3.228-0.877,1.669c0.264-1.739-1.926-3.041,0.91-3.555
				C89.152,63.087,86.782,63.806,88.282,64.551z"/>
			<path opacity="0.3" fill="#669CCC" d="M89.39,47.416c-0.081-0.337,0.191-1.233-0.455-1.093
				C86.848,47.138,90.234,50.219,89.39,47.416z"/>
			<path opacity="0.3" fill="#669CCC" d="M61.119,79.091c-0.884-0.433-3.155-0.591-2.982-0.803c0.356-1.904-2.938-2.447-4.336-3.224
				c-1.838-1.302-4.604,2.164-5.249-0.822c-0.385-0.939-1.801-0.954-1.152-2.406c-1.17,1.163-3.459,0.807-2.861-1.434
				c0.91-1.889,4.406-1.981,5.003,0.293c-0.829-2.509,1.596-4.461,2.946-6.243C52.763,63.6,54.392,62.867,53.83,64
				c0.954-0.033,2.403-1.753,0.708-0.961c-0.026-1.57-1.489-1.122-1.966-0.899c0.88-1.394,5.392-0.631,3.503-2.909
				c-1.464-0.591-1.343-4.05-2.825-2.124c0.125-1.185-3.015-3.51-2.946-1.519c0.382,1.779,0.07,3.833-0.745,5
				c-0.172-2.612-4.629-2.032-4.057-4.813c0.829-1.328,1.801-3.158,1.893-2.993c1.489-0.569,2.685-2.216,0.961-3.301
				c-0.092,0.946-1.299,2.894-1.126,0.536c-1.119,1.321-0.862-2.102-1.907-2.454c-1.5,1.405,1.907,2.571-0.433,3.621
				c-0.348-1.31-0.954,0.653-2.289-0.404c-2.3,0.957-3.927-0.499-5.853-1.493c-1.155-0.143-1.249,1.097-1.249,2.256
				c0,3.21,0,6.419,0,9.629c2,1.192,0.893,0.525,0.45,0.198c0.624,2.117-0.05,5.209,2.404,6.438c0.418,0.77,2.28,4.061,2.361,3.078
				c-0.877-0.917-1.723-3.665-0.237-1.214c1.332,2.329,3.153,3.841,5.772,4.395c1.434,0.484,2.626,2.157,3.884,1.79
				c0.712,1.874-2.106,3.676,0.102,5.422c1.152,1.768,3.088,2.931,2.043,5.414c-0.734,2.428-0.416,5.069-1.051,7.333
				c-0.198,1.376,1.923,4.868,1.74,2.073c0.62-1.944,0.602-4.083,2.058-5.458c1.992,0.015,0.382-2.139,2.359-1.856
				c1.207-1.581,1.559-3.463,3.595-4.09C61.222,82.774,64.369,79.84,61.119,79.091z M43.482,69.892
				c-0.032,0.066-0.058,0.136-0.077,0.207c-0.121,0.453-0.155,0.85-0.132,1.195c-0.644-0.583-1.212-1.316-1.722-2.208
				c-0.603-0.995-1.014-1.586-1.771-1.586c-0.011,0-0.021,0-0.032,0c-0.024,0-0.14-0.255-0.14-0.255
				c-0.115-0.211-0.291-0.38-0.506-0.487c-1.028-0.515-1.143-1.577-1.245-3.269c-0.015-0.254-0.031-0.511-0.052-0.769
				c0.122-0.111,0.186-0.248,0.253-0.406c0.267-0.623-0.559-0.993-0.559-1.607v-9.127c0-0.252,0.047-0.495,0.039-0.72
				c0.079,0.049,0.175,0.098,0.252,0.146c0.987,0.619,2.017,1.26,3.372,1.26c0.43,0,0.864-0.064,1.305-0.195
				c0.305,0.139,0.623,0.209,0.944,0.209c0.304,0,0.571-0.063,0.793-0.144c0.057,0.041,0.118,0.076,0.182,0.107
				c0.16,0.076,0.332,0.114,0.505,0.114c0.164,0,0.327-0.034,0.48-0.103c0.181-0.081,0.587-0.263,0.938-0.6
				c0.05,0.083,0.108,0.162,0.177,0.235c0.016,0.017,0.032,0.034,0.048,0.05c-0.304,0.305-0.625,0.855-1.176,1.795
				c-0.272,0.466-0.569,0.973-0.849,1.422c-0.074,0.118-0.126,0.248-0.154,0.385c-0.483,2.344,1.405,3.277,2.533,3.834
				c1.019,0.503,1.469,0.778,1.503,1.292c0.033,0.497,0.376,0.919,0.855,1.053c0.105,0.029,0.21,0.043,0.315,0.043
				c0.377,0,0.739-0.182,0.962-0.501c0.826-1.182,1.225-2.995,1.094-4.767c0.217,0.204,0.404,0.427,0.462,0.583
				c-0.013,0.487,0.278,0.937,0.737,1.12c0.142,0.057,0.289,0.084,0.435,0.084c0.192,0,0.381-0.047,0.55-0.137
				c0.256,0.569,0.587,1.274,1.163,1.765c-0.173,0.044-0.354,0.086-0.505,0.12c-1.064,0.244-2.269,0.52-2.879,1.485
				c-0.278,0.441-0.233,1.012,0.113,1.403c0.078,0.089,0.168,0.164,0.265,0.223c-0.206,0.219-0.379,0.465-0.497,0.722
				c-0.227,0.29-0.489,0.594-0.763,0.913c-0.809,0.94-1.737,2.016-2.202,3.273c-0.432-0.153-0.909-0.235-1.416-0.235
				C45.503,67.813,44.091,68.629,43.482,69.892z M60.726,82.168c-0.278,0.542-0.563,1.097-0.743,1.656
				c-1.413,0.666-2.089,1.854-2.694,2.919c-0.169,0.297-0.331,0.582-0.507,0.856c-0.94,0.097-1.519,0.703-1.725,1.804
				c-0.004,0.019-0.008,0.042-0.012,0.064c-0.299,0.001-0.607,0.115-0.824,0.32c-0.747,0.706-1.181,1.553-1.476,2.424
				c0.056-0.517,0.094-1.034,0.132-1.545c0.093-1.262,0.18-2.454,0.512-3.58c1.023-2.507-0.281-4.089-1.332-5.362
				c-0.304-0.369-0.592-0.718-0.832-1.086c-0.069-0.107-0.156-0.201-0.255-0.28c-0.54-0.427-0.547-0.591-0.068-1.753
				c0.272-0.662,0.596-1.448,0.531-2.321c0.022-0.007,0.043-0.015,0.065-0.022c0.464-0.162,0.943-0.33,1.295-0.33
				c0.179,0,0.267,0.045,0.33,0.09c0.035,0.025,0.071,0.048,0.108,0.068c0.435,0.242,0.961,0.442,1.518,0.653
				c0.805,0.306,2.299,0.873,2.237,1.321c-0.046,0.222-0.034,0.455,0.044,0.666c0.265,0.716,0.896,0.832,1.94,1.023
				c0.528,0.096,1.325,0.242,1.633,0.393c0.081,0.04,0.166,0.07,0.253,0.09c0.45,0.104,0.566,0.225,0.566,0.226
				C61.472,80.713,60.987,81.659,60.726,82.168z"/>
			<path opacity="0.3" fill="#669CCC" d="M49.81,71.52l-0.55-0.114c-0.176,0.591,3.327,1.189,0.91,0.242L49.81,71.52z"/>
			<path opacity="0.3" fill="#669CCC" d="M68.397,52.152c-0.95,1.089-2.201-0.286-2.223,0.653c0.172,0.282,0.858,2.304,2.37,0.811
				C69.354,53.274,69.035,52.416,68.397,52.152z"/>
		</g>
	</g>
</g>
</svg>
