<?xml version="1.0" encoding="utf-8"?>
<!-- Generator: Adobe Illustrator 17.0.0, SVG Export Plug-In . SVG Version: 6.00 Build 0)  -->
<!DOCTYPE svg PUBLIC "-//W3C//DTD SVG 1.1//EN" "http://www.w3.org/Graphics/SVG/1.1/DTD/svg11.dtd">
<svg version="1.1" id="图层_1" xmlns="http://www.w3.org/2000/svg" xmlns:xlink="http://www.w3.org/1999/xlink" x="0px" y="0px"
	 width="128px" height="128px" viewBox="0 0 128 128" enable-background="new 0 0 128 128" xml:space="preserve">
<g id="g151" opacity="0.5">
	<path id="path153" opacity="0.08" enable-background="new    " d="M106.873,118.496H20.952c-7.91,0-14.357-6.201-14.357-13.797
		v10.553c0,5.936,5.043,10.748,11.222,10.748h92.188c6.178,0,11.151-4.812,11.151-10.748v-10.553
		C121.156,112.296,114.78,118.496,106.873,118.496z"/>
	<path id="path155" opacity="0.1" enable-background="new    " d="M106.8,118.496H20.879c-7.907,0-14.284-6.088-14.284-13.684v5.52
		c0,5.936,2.723,13.167,13.755,13.167s75.798,0,86.975,0s13.831-7.231,13.831-13.167v-5.52
		C121.156,112.408,114.707,118.496,106.8,118.496z"/>
	<path id="path157" opacity="0.1" enable-background="new    " d="M106.8,118.496H20.879c-7.907,0-14.284-6.088-14.284-13.684v2.979
		c0,5.938,4.723,13.207,13.755,13.207s76.636,0,86.975,0c10.342,0,13.831-7.269,13.831-13.204v-2.979
		C121.156,112.408,114.707,118.496,106.8,118.496z"/>
	<rect id="rect159" x="19.613" y="118.496" opacity="0.05" enable-background="new    " width="88.525" height="2.501"/>
	<rect id="rect161" x="22.217" y="118.496" opacity="0.05" enable-background="new    " width="80.714" height="2.501"/>
	<rect id="rect163" x="22.217" y="120.997" opacity="0.05" enable-background="new    " width="80.714" height="2.501"/>
	<rect id="rect165" x="27.424" y="120.997" opacity="0.05" enable-background="new    " width="72.903" height="2.501"/>
	<rect id="rect167" x="35.235" y="120.997" opacity="0.05" enable-background="new    " width="57.281" height="2.501"/>
	<rect id="rect169" x="45.65" y="120.997" opacity="0.05" enable-background="new    " width="36.451" height="2.501"/>
	<rect id="rect171" x="27.424" y="118.496" opacity="0.05" enable-background="new    " width="72.903" height="2.501"/>
	<rect id="rect173" x="32.632" y="118.496" opacity="0.05" enable-background="new    " width="62.488" height="2.501"/>
	<rect id="rect175" x="35.235" y="118.496" opacity="0.05" enable-background="new    " width="57.281" height="2.501"/>
	<rect id="rect177" x="40.443" y="118.496" opacity="0.05" enable-background="new    " width="46.866" height="2.501"/>
	<rect id="rect179" x="40.443" y="118.496" opacity="0.05" enable-background="new    " width="46.866" height="2.501"/>
</g>
<path fill="#C4DCED" stroke="#9DBCD7" stroke-width="2" stroke-miterlimit="10" d="M121,102.992c0,8.288-6.719,15.008-15.008,15.008
	H22.008C13.719,118,7,111.281,7,102.992V19.008C7,10.719,13.719,4,22.008,4h83.985C114.281,4,121,10.719,121,19.008V102.992z"/>
<path opacity="0.5" fill="none" stroke="#FFFFFF" stroke-width="2" stroke-miterlimit="10" enable-background="new    " d="
	M119,102.992c0,7.184-5.824,13.008-13.008,13.008H22.008C14.824,116,9,110.176,9,102.992V19.008C9,11.824,14.824,6,22.008,6h83.984
	C113.176,6,119,11.824,119,19.008V102.992z"/>
<path opacity="0.08" fill="none" stroke="#000000" stroke-miterlimit="10" enable-background="new    " d="M121.426,37.445
	c0,0,0-5.043-4.981-5.043c-14.457,0-60.62,0.008-64.752,0.008c-5.021,0-4.981-4.97-4.981-4.97s0-5.003-4.981-5.003
	c-8.719,0-26.182,0-29.886,0c-4.904,0-4.981,4.822-4.981,4.975"/>
<path opacity="0.05" fill="none" stroke="#000000" stroke-miterlimit="10" enable-background="new    " d="M121.405,36.445
	c0,0,0-5.043-4.981-5.043c-14.457,0-60.62,0.008-64.752,0.008c-5.021,0-4.981-4.97-4.981-4.97s0-5.003-4.981-5.003
	c-8.719,0-26.182,0-29.886,0c-4.904,0-4.981,4.822-4.981,4.975"/>
<path opacity="0.03" fill="none" stroke="#000000" stroke-miterlimit="10" enable-background="new    " d="M121.405,35.487
	c0,0,0-5.043-4.981-5.043c-14.457,0-60.62,0.008-64.752,0.008c-5.021,0-4.981-4.97-4.981-4.97s0-5.003-4.981-5.003
	c-8.719,0-26.182,0-29.886,0c-4.904,0-4.981,4.822-4.981,4.975"/>
<linearGradient id="SVGID_1_" gradientUnits="userSpaceOnUse" x1="612" y1="781" x2="612" y2="687" gradientTransform="matrix(1 0 0 1 -548 -663)">
	<stop  offset="0" style="stop-color:#D1E0ED"/>
	<stop  offset="1" style="stop-color:#E4EEFB"/>
</linearGradient>
<path fill="url(#SVGID_1_)" stroke="#9DBCD7" stroke-width="2" stroke-miterlimit="10" d="M21.975,118h84.298
	c8.288,0,14.727-6.891,14.727-15.18V35.522c0-1.181-1.766-2.295-4.117-2.295c-14.52,0-60.813,0.008-64.963,0.008
	c-5.043,0-4.967-4.601-4.967-4.601S46.988,24,41.985,24c-8.757,0-26.296,0-30.015,0C7.045,24,7,28.084,7,28.237v74.584
	C7,111.109,13.687,118,21.975,118z"/>
<path fill="none" stroke="#FFFFFF" stroke-width="2" stroke-miterlimit="10" d="M21.975,116C14.821,116,9,110.088,9,102.82V28.237
	c0-0.095,0.015-0.894,0.608-1.488C10.104,26.252,10.898,26,11.97,26h30.015c1.184,0,1.786,0.141,2.146,0.503
	c0.796,0.801,0.832,2.023,0.832,2.036c-0.004,0.261,0.011,2.87,1.945,4.833c1.232,1.25,2.921,1.884,5.02,1.884
	c0,0,55.49-0.021,64.952-0.021c1.25,0,1.942,0.428,2.12,0.636v66.951c0,7.268-5.709,13.18-12.727,13.18H21.975V116z"/>
<radialGradient id="SVGID_2_" cx="789.5878" cy="-462.9282" r="91.4084" gradientTransform="matrix(0.0197 0.9998 -0.9109 0.018 -377.3072 -736.0426)" gradientUnits="userSpaceOnUse">
	<stop  offset="0" style="stop-color:#FFFFFF;stop-opacity:0.6"/>
	<stop  offset="0.3783" style="stop-color:#FAFCFE;stop-opacity:0.4487"/>
	<stop  offset="0.829" style="stop-color:#EBF3FC;stop-opacity:0.2684"/>
	<stop  offset="1" style="stop-color:#E4EEFB;stop-opacity:0.2"/>
</radialGradient>
<path fill="url(#SVGID_2_)" d="M21.975,116C14.821,116,9,110.088,9,102.82V28.237c0-0.095,0.015-0.894,0.608-1.488
	C10.104,26.252,10.898,26,11.97,26h30.015c1.184,0,1.786,0.141,2.146,0.503c0.796,0.801,0.832,2.023,0.832,2.036
	c-0.004,0.261,0.011,2.87,1.945,4.833c1.232,1.25,2.921,1.884,5.02,1.884c0,0,55.49-0.021,64.952-0.021
	c1.25,0,1.942,0.428,2.12,0.636v66.951c0,7.268-5.709,13.18-12.727,13.18H21.975V116z"/>
<g id="g27_1_">
	
		<linearGradient id="path36_2_" gradientUnits="userSpaceOnUse" x1="970.7643" y1="1483.7594" x2="986.6021" y2="1511.191" gradientTransform="matrix(1 0 0 1 -960 -1481)">
		<stop  offset="0" style="stop-color:#FFFFFF"/>
		<stop  offset="0.5" style="stop-color:#FFFFFF;stop-opacity:0.6"/>
		<stop  offset="1" style="stop-color:#FFFFFF;stop-opacity:0.15"/>
	</linearGradient>
	<path id="path36_1_" fill="url(#path36_2_)" d="M23.823,34.852c1.771-3.665,3.932-7.099,6.411-10.274l-4.511-9.892
		c-3.853,3.642-6.98,7.655-9.476,11.552L23.823,34.852z"/>
	
		<linearGradient id="path45_2_" gradientUnits="userSpaceOnUse" x1="985.1246" y1="1479.6516" x2="995.4895" y2="1497.6047" gradientTransform="matrix(1 0 0 1 -960 -1481)">
		<stop  offset="0" style="stop-color:#FFFFFF"/>
		<stop  offset="0.5" style="stop-color:#FFFFFF;stop-opacity:0.6"/>
		<stop  offset="1" style="stop-color:#FFFFFF;stop-opacity:0.15"/>
	</linearGradient>
	<path id="path45_1_" fill="url(#path45_2_)" d="M24.292,5.178l2.358,5.167c2.269-1.884,4.756-2.532,7.468-5.167L24.292,5.178z"/>
	
		<linearGradient id="path54_2_" gradientUnits="userSpaceOnUse" x1="988.3846" y1="1476.2424" x2="1001.0488" y2="1498.1774" gradientTransform="matrix(1 0 0 1 -960 -1481)">
		<stop  offset="0" style="stop-color:#FFFFFF"/>
		<stop  offset="0.5" style="stop-color:#FFFFFF;stop-opacity:0.6"/>
		<stop  offset="1" style="stop-color:#FFFFFF;stop-opacity:0.15"/>
	</linearGradient>
	<path id="path54_1_" fill="url(#path54_2_)" d="M41.987,5.178h-1.866c-4.704,2.635-8.817,4.646-12.346,7.65l4.324,9.486
		c3.694-4.266,7.979-8.005,12.778-11.025c0.037-0.034,0.063-0.063,0.103-0.097C50.358,6.549,45.017,5.178,41.987,5.178z"/>
	
		<linearGradient id="path63_2_" gradientUnits="userSpaceOnUse" x1="961.876" y1="1496.2646" x2="975.6191" y2="1520.0684" gradientTransform="matrix(1 0 0 1 -960 -1481)">
		<stop  offset="0" style="stop-color:#FFFFFF"/>
		<stop  offset="0.5" style="stop-color:#FFFFFF;stop-opacity:0.6"/>
		<stop  offset="1" style="stop-color:#FFFFFF;stop-opacity:0.15"/>
	</linearGradient>
	<path id="path63_1_" fill="url(#path63_2_)" d="M14.808,28.591c-2.893,4.925-4.783,9.476-5.905,12.588
		c1.328,1.895,3.523,3.138,6.013,3.138c3.083,0,5.716-1.905,6.807-4.596c0.279-0.751,0.619-1.473,0.93-2.213L14.808,28.591z"/>
	
		<linearGradient id="path72_2_" gradientUnits="userSpaceOnUse" x1="961.2581" y1="1497.2399" x2="976.4891" y2="1523.6207" gradientTransform="matrix(1 0 0 1 -960 -1481)">
		<stop  offset="0" style="stop-color:#FFFFFF"/>
		<stop  offset="0.5" style="stop-color:#FFFFFF;stop-opacity:0.6"/>
		<stop  offset="1" style="stop-color:#FFFFFF;stop-opacity:0.15"/>
	</linearGradient>
	<path id="path72_1_" fill="url(#path72_2_)" d="M7.627,20.42L7.569,36.958c0,0,0,0.005,0,0.011c0,0.103,0.026,0.2,0.032,0.303
		c1.257-3.059,3.012-6.799,5.394-10.749L7.627,20.42z"/>
	
		<linearGradient id="path149_2_" gradientUnits="userSpaceOnUse" x1="972.7764" y1="1488.978" x2="987.0781" y2="1513.7493" gradientTransform="matrix(1 0 0 1 -960 -1481)">
		<stop  offset="0" style="stop-color:#FFFFFF"/>
		<stop  offset="0.5" style="stop-color:#FFFFFF;stop-opacity:0.6"/>
		<stop  offset="1" style="stop-color:#FFFFFF;stop-opacity:0.15"/>
	</linearGradient>
	<path id="path149_1_" fill="url(#path149_2_)" d="M21.151,5.21C15.778,4.763,8.702,10.817,7.793,16.62l6.667,7.581
		c2.661-4.061,5.971-8.222,10.053-11.979L21.151,5.21z"/>
</g>
<g>
	<g opacity="0.3">
		<g opacity="0.5">
			<path fill="#FFFFFF" d="M98.901,75.547c0-5.332-4.652-10.024-12.094-13.169c0.997-8.015-0.741-14.389-5.357-17.056
				c-1.466-0.846-3.139-1.275-4.974-1.275c-3.822,0-8.151,1.857-12.475,5.136c-4.324-3.279-8.653-5.136-12.476-5.136
				c-1.835,0-3.508,0.429-4.975,1.275c-4.616,2.666-6.353,9.04-5.356,17.055c-7.441,3.144-12.094,7.837-12.094,13.168
				c0,5.33,4.649,10.022,12.087,13.166c-0.062,0.492-0.116,0.979-0.158,1.461c-0.665,7.62,1.297,13.159,5.521,15.598
				c1.467,0.847,3.141,1.276,4.977,1.276c3.822,0,8.15-1.857,12.474-5.136c4.324,3.279,8.652,5.136,12.474,5.136
				c1.836,0,3.51-0.43,4.976-1.276c4.226-2.439,6.187-7.978,5.523-15.598c-0.042-0.482-0.096-0.969-0.158-1.461
				C94.252,85.569,98.901,80.877,98.901,75.547z M76.475,47.744c1.178,0,2.23,0.262,3.126,0.78
				c2.911,1.681,4.274,6.283,3.659,12.542c-2.928-0.944-6.173-1.672-9.654-2.148c-2.137-2.76-4.383-5.207-6.664-7.281
				C70.358,49.161,73.671,47.744,76.475,47.744z M75.757,82.336c-1.301,2.253-2.71,4.39-4.186,6.379
				c-2.389,0.263-4.915,0.409-7.571,0.409c-2.656,0-5.182-0.146-7.571-0.409c-1.477-1.989-2.886-4.127-4.186-6.379
				c-1.331-2.306-2.47-4.573-3.439-6.779c0.99-2.267,2.139-4.547,3.439-6.798c1.301-2.253,2.71-4.39,4.187-6.379
				c2.389-0.263,4.915-0.409,7.571-0.409c2.655,0,5.182,0.146,7.571,0.409c1.477,1.989,2.886,4.127,4.187,6.379
				c1.3,2.251,2.449,4.531,3.439,6.798C78.227,77.763,77.088,80.03,75.757,82.336z M81.039,80.31
				c0.697,2.059,1.248,4.083,1.642,6.043c-1.847,0.622-3.866,1.161-6.047,1.593c0.8-1.211,1.576-2.467,2.324-3.763
				C79.704,82.891,80.394,81.598,81.039,80.31z M64,97.084c-1.467-1.301-2.931-2.774-4.361-4.398
				c1.427,0.085,2.88,0.133,4.361,0.133c1.481,0,2.934-0.049,4.361-0.133C66.93,94.31,65.466,95.783,64,97.084z M51.366,87.946
				c-2.182-0.432-4.201-0.971-6.047-1.593c0.394-1.96,0.945-3.984,1.642-6.043c0.645,1.289,1.334,2.581,2.081,3.874
				C49.79,85.48,50.567,86.735,51.366,87.946z M46.948,70.812c-0.721-2.116-1.265-4.145-1.651-6.064
				c1.853-0.625,3.879-1.167,6.069-1.6c-0.8,1.211-1.576,2.467-2.325,3.763C48.296,68.203,47.6,69.506,46.948,70.812z M64,54.011
				c1.466,1.301,2.93,2.774,4.361,4.396c-1.427-0.084-2.88-0.133-4.36-0.133c-1.481,0-2.933,0.049-4.361,0.133
				C61.07,56.785,62.533,55.312,64,54.011z M78.958,66.911c-0.748-1.296-1.525-2.551-2.324-3.763c2.19,0.433,4.217,0.976,6.069,1.6
				c-0.386,1.919-0.93,3.948-1.651,6.064C80.399,69.506,79.704,68.203,78.958,66.911z M48.397,48.524
				c0.897-0.518,1.949-0.78,3.127-0.78c2.804,0,6.117,1.417,9.533,3.892c-2.281,2.074-4.527,4.521-6.664,7.281
				c-3.48,0.476-6.726,1.205-9.654,2.148C44.124,54.806,45.487,50.205,48.397,48.524z M32.795,75.547
				c0-3.362,3.304-6.844,9.033-9.44c0.647,3.01,1.64,6.188,2.969,9.443c-1.308,3.207-2.308,6.385-2.968,9.439
				C36.1,82.391,32.795,78.909,32.795,75.547z M51.526,103.352c-1.179,0-2.231-0.263-3.129-0.781
				c-2.868-1.655-4.212-6.056-3.687-12.075c0.013-0.152,0.033-0.307,0.049-0.46c2.923,0.941,6.162,1.667,9.634,2.142
				c2.137,2.76,4.383,5.208,6.665,7.282C57.642,101.935,54.33,103.352,51.526,103.352z M83.29,90.495
				c0.525,6.019-0.819,10.42-3.688,12.076c-0.897,0.518-1.95,0.781-3.128,0.781c-2.803,0-6.116-1.417-9.531-3.892
				c2.281-2.074,4.528-4.522,6.665-7.282c3.473-0.475,6.711-1.202,9.634-2.142C83.257,90.188,83.277,90.343,83.29,90.495z
				 M86.17,84.988c-0.66-3.054-1.66-6.232-2.968-9.439c1.33-3.255,2.322-6.433,2.969-9.443c5.73,2.597,9.034,6.078,9.034,9.44
				C95.205,78.909,91.901,82.391,86.17,84.988z"/>
		</g>
		<g>
			<path fill="#669CCC" d="M98.901,73.547c0-5.332-4.652-10.024-12.094-13.169c0.997-8.015-0.741-14.389-5.357-17.056
				c-1.466-0.846-3.139-1.275-4.974-1.275c-3.822,0-8.151,1.857-12.475,5.136c-4.324-3.279-8.653-5.136-12.476-5.136
				c-1.835,0-3.508,0.429-4.975,1.275c-4.616,2.666-6.353,9.04-5.356,17.055c-7.441,3.144-12.094,7.837-12.094,13.168
				c0,5.33,4.649,10.022,12.087,13.166c-0.062,0.492-0.116,0.979-0.158,1.461c-0.665,7.62,1.297,13.159,5.521,15.598
				c1.467,0.847,3.141,1.276,4.977,1.276c3.822,0,8.15-1.857,12.474-5.136c4.324,3.279,8.652,5.136,12.474,5.136
				c1.836,0,3.51-0.43,4.976-1.276c4.226-2.439,6.187-7.978,5.523-15.598c-0.042-0.482-0.096-0.969-0.158-1.461
				C94.252,83.569,98.901,78.877,98.901,73.547z M76.475,45.744c1.178,0,2.23,0.262,3.126,0.78
				c2.911,1.681,4.274,6.283,3.659,12.542c-2.928-0.944-6.173-1.672-9.654-2.148c-2.137-2.76-4.383-5.207-6.664-7.281
				C70.358,47.161,73.671,45.744,76.475,45.744z M75.757,80.336c-1.301,2.253-2.71,4.39-4.186,6.379
				c-2.389,0.263-4.915,0.409-7.571,0.409c-2.656,0-5.182-0.146-7.571-0.409c-1.477-1.989-2.886-4.127-4.186-6.379
				c-1.331-2.306-2.47-4.573-3.439-6.779c0.99-2.267,2.139-4.547,3.439-6.798c1.301-2.253,2.71-4.39,4.187-6.379
				c2.389-0.263,4.915-0.409,7.571-0.409c2.655,0,5.182,0.146,7.571,0.409c1.477,1.989,2.886,4.127,4.187,6.379
				c1.3,2.251,2.449,4.531,3.439,6.798C78.227,75.763,77.088,78.03,75.757,80.336z M81.039,78.31
				c0.697,2.059,1.248,4.083,1.642,6.043c-1.847,0.622-3.866,1.161-6.047,1.593c0.8-1.211,1.576-2.467,2.324-3.763
				C79.704,80.891,80.394,79.598,81.039,78.31z M64,95.084c-1.467-1.301-2.931-2.774-4.361-4.398
				c1.427,0.085,2.88,0.133,4.361,0.133c1.481,0,2.934-0.049,4.361-0.133C66.93,92.31,65.466,93.783,64,95.084z M51.366,85.946
				c-2.182-0.432-4.201-0.971-6.047-1.593c0.394-1.96,0.945-3.984,1.642-6.043c0.645,1.289,1.334,2.581,2.081,3.874
				C49.79,83.48,50.567,84.735,51.366,85.946z M46.948,68.812c-0.721-2.116-1.265-4.145-1.651-6.064
				c1.853-0.625,3.879-1.167,6.069-1.6c-0.8,1.211-1.576,2.467-2.325,3.763C48.296,66.203,47.6,67.506,46.948,68.812z M64,52.011
				c1.466,1.301,2.93,2.774,4.361,4.396c-1.427-0.084-2.88-0.133-4.36-0.133c-1.481,0-2.933,0.049-4.361,0.133
				C61.07,54.785,62.533,53.312,64,52.011z M78.958,64.911c-0.748-1.296-1.525-2.551-2.324-3.763c2.19,0.433,4.217,0.976,6.069,1.6
				c-0.386,1.919-0.93,3.948-1.651,6.064C80.399,67.506,79.704,66.203,78.958,64.911z M48.397,46.524
				c0.897-0.518,1.949-0.78,3.127-0.78c2.804,0,6.117,1.417,9.533,3.892c-2.281,2.074-4.527,4.521-6.664,7.281
				c-3.48,0.476-6.726,1.205-9.654,2.148C44.124,52.806,45.487,48.205,48.397,46.524z M32.795,73.547
				c0-3.362,3.304-6.844,9.033-9.44c0.647,3.01,1.64,6.188,2.969,9.443c-1.308,3.207-2.308,6.385-2.968,9.439
				C36.1,80.391,32.795,76.909,32.795,73.547z M51.526,101.352c-1.179,0-2.231-0.263-3.129-0.781
				c-2.868-1.655-4.212-6.056-3.687-12.075c0.013-0.152,0.033-0.307,0.049-0.46c2.923,0.941,6.162,1.667,9.634,2.142
				c2.137,2.76,4.383,5.208,6.665,7.282C57.642,99.935,54.33,101.352,51.526,101.352z M83.29,88.495
				c0.525,6.019-0.819,10.42-3.688,12.076c-0.897,0.518-1.95,0.781-3.128,0.781c-2.803,0-6.116-1.417-9.531-3.892
				c2.281-2.074,4.528-4.522,6.665-7.282c3.473-0.475,6.711-1.202,9.634-2.142C83.257,88.188,83.277,88.343,83.29,88.495z
				 M86.17,82.988c-0.66-3.054-1.66-6.232-2.968-9.439c1.33-3.255,2.322-6.433,2.969-9.443c5.73,2.597,9.034,6.078,9.034,9.44
				C95.205,76.909,91.901,80.391,86.17,82.988z"/>
		</g>
	</g>
	<g>
		<path opacity="0.3" fill="#669CCC" d="M86.552,63.265c-0.121-0.055-0.251-0.082-0.381-0.082c-0.143,0-0.285,0.033-0.416,0.099
			c-0.25,0.126-0.429,0.358-0.487,0.631c-0.643,2.993-1.626,6.117-2.921,9.288c-0.092,0.224-0.092,0.475,0,0.698
			c1.29,3.16,2.272,6.284,2.92,9.285c0.059,0.273,0.238,0.505,0.488,0.63c0.131,0.066,0.273,0.099,0.416,0.099
			c0.13,0,0.26-0.028,0.381-0.083c6.087-2.758,9.578-6.507,9.578-10.283S92.638,66.023,86.552,63.265z M86.17,82.988
			c-0.66-3.054-1.66-6.232-2.968-9.439c1.33-3.255,2.322-6.433,2.969-9.443c5.73,2.597,9.034,6.078,9.034,9.44
			C95.205,76.909,91.9,80.391,86.17,82.988z"/>
		<path opacity="0.3" fill="#669CCC" d="M56.328,87.633c2.5,0.275,5.081,0.415,7.672,0.415c2.589,0,5.171-0.139,7.672-0.414
			c0.255-0.028,0.488-0.162,0.641-0.368c1.525-2.054,2.953-4.23,4.244-6.468c1.298-2.247,2.47-4.558,3.485-6.869
			c0.104-0.236,0.104-0.504,0.001-0.741c-1.013-2.321-2.186-4.64-3.485-6.891c-1.292-2.237-2.72-4.413-4.245-6.468
			c-0.153-0.206-0.385-0.34-0.641-0.368c-2.503-0.275-5.084-0.415-7.672-0.415c-2.588,0-5.17,0.139-7.672,0.415
			c-0.255,0.028-0.488,0.161-0.641,0.368c-1.524,2.052-2.952,4.229-4.245,6.468c-1.3,2.251-2.472,4.569-3.486,6.891
			c-0.103,0.236-0.103,0.505,0.001,0.741c1.014,2.309,2.186,4.62,3.485,6.869c1.294,2.242,2.722,4.418,4.245,6.468
			C55.84,87.472,56.072,87.605,56.328,87.633z M48.803,73.557c0.99-2.267,2.139-4.547,3.439-6.798
			c1.301-2.253,2.71-4.39,4.187-6.379c2.389-0.263,4.915-0.409,7.571-0.409c2.655,0,5.182,0.146,7.571,0.409
			c1.477,1.989,2.886,4.127,4.187,6.379c1.3,2.251,2.449,4.531,3.439,6.798c-0.969,2.206-2.108,4.473-3.439,6.779
			c-1.301,2.253-2.71,4.39-4.186,6.379c-2.389,0.263-4.915,0.409-7.571,0.409c-2.656,0-5.182-0.146-7.571-0.409
			c-1.477-1.989-2.886-4.127-4.186-6.379C50.911,78.03,49.772,75.763,48.803,73.557z"/>
		<path opacity="0.3" fill="#669CCC" d="M46.886,69.734c0.021,0.001,0.042,0.002,0.062,0.002c0.348,0,0.669-0.197,0.827-0.511
			c0.666-1.333,1.361-2.629,2.067-3.852c0.729-1.262,1.501-2.512,2.295-3.715c0.205-0.311,0.204-0.715-0.004-1.024
			c-0.174-0.259-0.463-0.409-0.767-0.409c-0.06,0-0.12,0.006-0.18,0.018c-2.165,0.428-4.246,0.977-6.185,1.631
			c-0.441,0.148-0.702,0.601-0.611,1.058c0.403,2.008,0.969,4.087,1.682,6.18C46.193,69.463,46.514,69.709,46.886,69.734z
			 M45.297,62.748c1.853-0.625,3.879-1.167,6.069-1.6c-0.8,1.211-1.576,2.467-2.325,3.763c-0.746,1.292-1.442,2.595-2.094,3.902
			C46.227,66.696,45.683,64.667,45.297,62.748z"/>
		<path opacity="0.3" fill="#669CCC" d="M72.876,57.483c0.148,0.191,0.365,0.317,0.605,0.35c3.391,0.464,6.586,1.174,9.495,2.112
			c0.092,0.03,0.188,0.045,0.283,0.045c0.178,0,0.355-0.051,0.507-0.151c0.234-0.153,0.386-0.404,0.413-0.682
			c0.654-6.648-0.846-11.544-4.116-13.432c-1.039-0.6-2.246-0.904-3.588-0.904c-2.919,0-6.402,1.407-10.075,4.068
			c-0.225,0.163-0.365,0.419-0.38,0.697c-0.015,0.278,0.095,0.548,0.301,0.735C68.582,52.375,70.788,54.785,72.876,57.483z
			 M76.475,45.744c1.178,0,2.23,0.262,3.126,0.78c2.911,1.681,4.274,6.283,3.659,12.542c-2.928-0.944-6.173-1.672-9.654-2.148
			c-2.137-2.76-4.383-5.207-6.664-7.281C70.358,47.161,73.671,45.744,76.475,45.744z"/>
		<path opacity="0.3" fill="#669CCC" d="M45.024,85.229c1.933,0.651,4.006,1.197,6.163,1.624c0.06,0.012,0.12,0.018,0.18,0.018
			c0.304,0,0.593-0.15,0.767-0.409c0.208-0.31,0.209-0.713,0.004-1.024c-0.795-1.204-1.567-2.454-2.295-3.716
			c-0.707-1.225-1.38-2.477-2.055-3.826c-0.157-0.314-0.478-0.51-0.826-0.51c-0.021,0-0.042,0.001-0.064,0.002
			c-0.372,0.026-0.692,0.273-0.812,0.625c-0.711,2.099-1.273,4.171-1.673,6.157C44.321,84.627,44.583,85.08,45.024,85.229z
			 M46.961,78.31c0.645,1.289,1.334,2.581,2.081,3.874c0.748,1.296,1.525,2.551,2.324,3.762c-2.182-0.432-4.201-0.971-6.047-1.593
			C45.713,82.393,46.264,80.369,46.961,78.31z"/>
		<path opacity="0.3" fill="#669CCC" d="M98.901,73.547c0-5.332-4.652-10.024-12.094-13.169c0.997-8.015-0.741-14.389-5.357-17.056
			c-1.466-0.846-3.139-1.275-4.974-1.275c-3.822,0-8.151,1.857-12.475,5.136c-4.324-3.279-8.653-5.136-12.476-5.136
			c-1.835,0-3.508,0.429-4.975,1.275c-4.616,2.666-6.353,9.04-5.356,17.055c-7.441,3.144-12.094,7.837-12.094,13.168
			c0,5.33,4.649,10.022,12.087,13.166c-0.062,0.492-0.116,0.979-0.158,1.461c-0.665,7.62,1.297,13.159,5.521,15.598
			c1.467,0.847,3.141,1.276,4.977,1.276c3.822,0,8.15-1.857,12.474-5.136c4.324,3.279,8.652,5.136,12.474,5.136
			c1.836,0,3.51-0.43,4.976-1.276c4.226-2.439,6.187-7.978,5.523-15.598c-0.042-0.482-0.096-0.969-0.158-1.461
			C94.252,83.569,98.901,78.877,98.901,73.547z M86.454,85.862c-0.382,0.161-0.609,0.556-0.557,0.967
			c0.061,0.48,0.114,0.956,0.155,1.425c0.631,7.242-1.167,12.469-5.064,14.717c-1.324,0.765-2.843,1.152-4.514,1.152
			c-3.526,0-7.646-1.711-11.916-4.948c-0.165-0.125-0.362-0.188-0.558-0.188c-0.197,0-0.393,0.063-0.558,0.188
			c-4.269,3.237-8.389,4.948-11.916,4.948c-1.671,0-3.191-0.388-4.515-1.153c-3.896-2.249-5.694-7.475-5.063-14.717
			c0.041-0.47,0.094-0.946,0.154-1.426c0.052-0.411-0.176-0.805-0.557-0.966c-7.323-3.096-11.523-7.585-11.523-12.315
			c0-4.732,4.202-9.221,11.529-12.317c0.381-0.161,0.608-0.555,0.557-0.965c-0.982-7.891,0.805-13.774,4.902-16.141
			c1.324-0.764,2.842-1.151,4.513-1.151c3.527,0,7.648,1.711,11.918,4.948c0.165,0.125,0.362,0.188,0.558,0.188
			c0.197,0,0.393-0.062,0.558-0.188c4.269-3.237,8.39-4.948,11.917-4.948c1.671,0,3.189,0.387,4.512,1.151
			c4.097,2.366,5.884,8.25,4.903,16.141c-0.051,0.41,0.176,0.804,0.557,0.965c7.327,3.096,11.529,7.585,11.529,12.318
			C97.977,78.277,93.777,82.766,86.454,85.862z"/>
		<path opacity="0.3" fill="#669CCC" d="M58.946,55.797c-0.247,0.28-0.301,0.681-0.137,1.016c0.155,0.319,0.479,0.519,0.83,0.519
			c0.018,0,0.037,0,0.055-0.002c1.472-0.087,2.921-0.132,4.306-0.132c1.385,0,2.834,0.044,4.306,0.132
			c0.018,0.001,0.037,0.002,0.055,0.002c0.352,0,0.675-0.2,0.831-0.519c0.163-0.335,0.109-0.736-0.138-1.016
			c-1.44-1.634-2.934-3.14-4.44-4.477c-0.175-0.155-0.394-0.233-0.613-0.233s-0.438,0.078-0.613,0.233
			C61.88,52.657,60.386,54.163,58.946,55.797z M64,52.011c1.466,1.301,2.93,2.774,4.361,4.396c-1.427-0.084-2.88-0.133-4.36-0.133
			c-1.481,0-2.933,0.049-4.361,0.133C61.07,54.784,62.533,53.312,64,52.011z"/>
		<path opacity="0.3" fill="#669CCC" d="M55.124,89.611c-0.148-0.191-0.366-0.317-0.605-0.35c-3.383-0.463-6.572-1.172-9.476-2.107
			c-0.092-0.03-0.188-0.044-0.283-0.044c-0.178,0-0.354,0.051-0.506,0.151c-0.233,0.153-0.386,0.402-0.414,0.68l-0.019,0.173
			c-0.011,0.101-0.023,0.201-0.031,0.3c-0.558,6.392,0.954,11.114,4.146,12.956c1.039,0.601,2.247,0.905,3.591,0.905
			c2.919,0,6.402-1.407,10.074-4.068c0.225-0.163,0.365-0.419,0.38-0.697c0.015-0.277-0.095-0.548-0.301-0.735
			C59.417,94.719,57.211,92.308,55.124,89.611z M51.526,101.352c-1.179,0-2.231-0.263-3.129-0.781
			c-2.868-1.655-4.212-6.056-3.687-12.075c0.013-0.152,0.033-0.307,0.049-0.46c2.923,0.941,6.162,1.667,9.634,2.142
			c2.137,2.76,4.383,5.208,6.665,7.282C57.642,99.935,54.329,101.352,51.526,101.352z"/>
		<path opacity="0.3" fill="#669CCC" d="M69.054,91.298c0.247-0.28,0.301-0.68,0.138-1.016c-0.156-0.319-0.479-0.519-0.83-0.519
			c-0.019,0-0.037,0-0.055,0.002c-1.497,0.088-2.906,0.131-4.307,0.131c-1.401,0-2.81-0.043-4.307-0.131
			c-0.018-0.001-0.037-0.002-0.055-0.002c-0.351,0-0.675,0.2-0.83,0.519c-0.163,0.335-0.109,0.736,0.137,1.016
			c1.439,1.633,2.933,3.139,4.441,4.478c0.175,0.155,0.394,0.233,0.613,0.233c0.219,0,0.438-0.078,0.614-0.233
			C66.121,94.437,67.615,92.931,69.054,91.298z M64,95.084c-1.467-1.301-2.931-2.774-4.361-4.398
			c1.427,0.085,2.88,0.133,4.361,0.133c1.481,0,2.934-0.049,4.361-0.133C66.93,92.31,65.466,93.783,64,95.084z"/>
		<path opacity="0.3" fill="#669CCC" d="M44.232,59.838c0.153,0.1,0.329,0.151,0.507,0.151c0.095,0,0.191-0.015,0.283-0.044
			c2.911-0.938,6.106-1.648,9.496-2.112c0.24-0.033,0.457-0.158,0.605-0.35c2.088-2.697,4.293-5.107,6.555-7.163
			c0.206-0.187,0.317-0.457,0.301-0.735c-0.015-0.278-0.155-0.534-0.38-0.697c-3.672-2.661-7.156-4.068-10.075-4.068
			c-1.342,0-2.55,0.304-3.589,0.904c-3.269,1.889-4.769,6.785-4.116,13.432C43.847,59.434,43.999,59.685,44.232,59.838z
			 M48.397,46.524c0.897-0.518,1.949-0.78,3.127-0.78c2.804,0,6.117,1.417,9.533,3.892c-2.281,2.074-4.527,4.521-6.664,7.281
			c-3.48,0.476-6.726,1.205-9.654,2.148C44.124,52.806,45.486,48.205,48.397,46.524z"/>
		<path opacity="0.3" fill="#669CCC" d="M76.633,86.87c0.06,0,0.12-0.006,0.18-0.018c2.155-0.426,4.228-0.973,6.162-1.623
			c0.441-0.148,0.703-0.601,0.611-1.058c-0.4-1.988-0.963-4.06-1.673-6.158c-0.12-0.353-0.44-0.6-0.812-0.625
			c-0.022-0.001-0.043-0.002-0.064-0.002c-0.348,0-0.669,0.196-0.826,0.511c-0.665,1.329-1.356,2.616-2.054,3.825
			c-0.729,1.262-1.501,2.512-2.295,3.715c-0.205,0.311-0.204,0.715,0.004,1.025C76.04,86.72,76.329,86.87,76.633,86.87z
			 M78.958,82.184c0.746-1.293,1.436-2.585,2.081-3.874c0.697,2.059,1.248,4.083,1.642,6.043c-1.847,0.622-3.866,1.161-6.047,1.593
			C77.433,84.735,78.21,83.48,78.958,82.184z"/>
		<path opacity="0.3" fill="#669CCC" d="M45.653,73.2c-1.295-3.171-2.278-6.295-2.922-9.288c-0.059-0.273-0.238-0.505-0.488-0.631
			c-0.131-0.066-0.273-0.099-0.416-0.099c-0.13,0-0.26,0.027-0.381,0.082c-6.086,2.758-9.576,6.506-9.576,10.282
			c0,3.777,3.491,7.525,9.577,10.283c0.121,0.055,0.252,0.083,0.381,0.083c0.143,0,0.285-0.033,0.415-0.099
			c0.25-0.125,0.429-0.357,0.488-0.63c0.648-3,1.63-6.123,2.92-9.285C45.745,73.675,45.745,73.424,45.653,73.2z M41.83,82.988
			c-5.731-2.597-9.035-6.079-9.035-9.441c0-3.362,3.304-6.844,9.033-9.44c0.647,3.01,1.64,6.188,2.969,9.443
			C43.49,76.756,42.49,79.935,41.83,82.988z"/>
		<path opacity="0.3" fill="#669CCC" d="M84.179,88.118l-0.019-0.176c-0.028-0.277-0.18-0.528-0.413-0.68
			c-0.152-0.1-0.328-0.151-0.506-0.151c-0.095,0-0.19,0.014-0.283,0.044c-2.905,0.935-6.093,1.643-9.476,2.106
			c-0.24,0.033-0.457,0.158-0.605,0.35c-2.089,2.699-4.295,5.109-6.556,7.164c-0.206,0.187-0.316,0.457-0.301,0.735
			c0.015,0.278,0.155,0.534,0.38,0.697c3.671,2.662,7.155,4.068,10.073,4.068c1.344,0,2.551-0.305,3.591-0.905
			c3.192-1.842,4.704-6.564,4.146-12.956C84.202,88.317,84.191,88.217,84.179,88.118z M79.602,100.571
			c-0.897,0.518-1.95,0.781-3.128,0.781c-2.803,0-6.116-1.417-9.531-3.892c2.281-2.074,4.528-4.522,6.665-7.282
			c3.473-0.475,6.711-1.202,9.634-2.142c0.015,0.153,0.035,0.308,0.049,0.46C83.815,94.514,82.471,98.915,79.602,100.571z"/>
		<path opacity="0.3" fill="#669CCC" d="M82.998,61.873c-1.939-0.654-4.021-1.203-6.185-1.631c-0.06-0.012-0.12-0.018-0.179-0.018
			c-0.304,0-0.593,0.15-0.767,0.409c-0.208,0.309-0.209,0.713-0.004,1.024c0.797,1.208,1.57,2.458,2.295,3.716
			c0.704,1.219,1.4,2.516,2.068,3.852c0.157,0.315,0.478,0.511,0.826,0.511c0.021,0,0.042-0.001,0.063-0.002
			c0.372-0.025,0.692-0.271,0.813-0.624c0.712-2.093,1.278-4.172,1.682-6.18C83.7,62.474,83.439,62.021,82.998,61.873z
			 M81.052,68.812c-0.652-1.306-1.348-2.609-2.094-3.902c-0.748-1.296-1.525-2.551-2.324-3.763c2.19,0.433,4.217,0.976,6.069,1.6
			C82.317,64.667,81.772,66.696,81.052,68.812z"/>
	</g>
</g>
</svg>
