<?xml version="1.0" encoding="utf-8"?>
<!-- Generator: Adobe Illustrator 17.0.0, SVG Export Plug-In . SVG Version: 6.00 Build 0)  -->
<!DOCTYPE svg PUBLIC "-//W3C//DTD SVG 1.1//EN" "http://www.w3.org/Graphics/SVG/1.1/DTD/svg11.dtd">
<svg version="1.1" id="图层_1" xmlns="http://www.w3.org/2000/svg" xmlns:xlink="http://www.w3.org/1999/xlink" x="0px" y="0px"
	 width="128px" height="128px" viewBox="64 64 128 128" enable-background="new 64 64 128 128" xml:space="preserve">
<path fill="#EBF2FB" stroke="#9DBCD7" stroke-width="2" stroke-miterlimit="10" d="M184.046,167.085
	c0,8.272-6.706,14.978-14.978,14.978H84.932c-8.272,0-14.978-6.706-14.978-14.978V82.949c0-8.272,6.706-14.978,14.978-14.978h84.135
	c8.273,0,14.979,6.706,14.979,14.978V167.085z"/>
<g id="g27_1_">
	
		<linearGradient id="path36_2_" gradientUnits="userSpaceOnUse" x1="760.1725" y1="-991.7191" x2="775.9796" y2="-1019.0975" gradientTransform="matrix(1 0 0 -1 -686 -925)">
		<stop  offset="0" style="stop-color:#FFFFFF"/>
		<stop  offset="0.5" style="stop-color:#FFFFFF;stop-opacity:0.6"/>
		<stop  offset="1" style="stop-color:#FFFFFF;stop-opacity:0.15"/>
	</linearGradient>
	<path id="path36_1_" fill="url(#path36_2_)" d="M87.206,98.75c1.767-3.658,3.924-7.085,6.399-10.254l-4.503-9.873
		c-3.845,3.635-6.967,7.64-9.458,11.53L87.206,98.75z"/>
	
		<linearGradient id="path45_2_" gradientUnits="userSpaceOnUse" x1="774.5049" y1="-987.6193" x2="784.8499" y2="-1005.5375" gradientTransform="matrix(1 0 0 -1 -686 -925)">
		<stop  offset="0" style="stop-color:#FFFFFF"/>
		<stop  offset="0.5" style="stop-color:#FFFFFF;stop-opacity:0.6"/>
		<stop  offset="1" style="stop-color:#FFFFFF;stop-opacity:0.15"/>
	</linearGradient>
	<path id="path45_1_" fill="url(#path45_2_)" d="M87.674,69.133l2.354,5.157c2.264-1.881,4.747-2.527,7.454-5.157H87.674z"/>
	
		<linearGradient id="path54_2_" gradientUnits="userSpaceOnUse" x1="777.7591" y1="-984.2164" x2="790.3987" y2="-1006.1089" gradientTransform="matrix(1 0 0 -1 -686 -925)">
		<stop  offset="0" style="stop-color:#FFFFFF"/>
		<stop  offset="0.5" style="stop-color:#FFFFFF;stop-opacity:0.6"/>
		<stop  offset="1" style="stop-color:#FFFFFF;stop-opacity:0.15"/>
	</linearGradient>
	<path id="path54_1_" fill="url(#path54_2_)" d="M105.334,69.133h-1.862c-4.695,2.63-8.8,4.637-12.321,7.635l4.316,9.468
		c3.687-4.258,7.964-7.99,12.753-11.004c0.037-0.034,0.063-0.063,0.103-0.097C113.69,70.501,108.359,69.133,105.334,69.133z"/>
	
		<linearGradient id="path63_2_" gradientUnits="userSpaceOnUse" x1="751.3013" y1="-1004.2001" x2="765.0178" y2="-1027.9576" gradientTransform="matrix(1 0 0 -1 -686 -925)">
		<stop  offset="0" style="stop-color:#FFFFFF"/>
		<stop  offset="0.5" style="stop-color:#FFFFFF;stop-opacity:0.6"/>
		<stop  offset="1" style="stop-color:#FFFFFF;stop-opacity:0.15"/>
	</linearGradient>
	<path id="path63_1_" fill="url(#path63_2_)" d="M78.209,92.501c-2.888,4.915-4.774,9.458-5.894,12.564
		c1.325,1.891,3.517,3.133,6.002,3.133c3.077,0,5.705-1.901,6.793-4.587c0.279-0.75,0.618-1.47,0.929-2.209L78.209,92.501z"/>
	
		<linearGradient id="path72_2_" gradientUnits="userSpaceOnUse" x1="750.685" y1="-1005.1732" x2="765.8864" y2="-1031.5031" gradientTransform="matrix(1 0 0 -1 -686 -925)">
		<stop  offset="0" style="stop-color:#FFFFFF"/>
		<stop  offset="0.5" style="stop-color:#FFFFFF;stop-opacity:0.6"/>
		<stop  offset="1" style="stop-color:#FFFFFF;stop-opacity:0.15"/>
	</linearGradient>
	<path id="path72_1_" fill="url(#path72_2_)" d="M71.042,84.345l-0.058,16.506c0,0,0,0.005,0,0.01c0,0.103,0.026,0.2,0.032,0.303
		c1.255-3.053,3.006-6.785,5.384-10.728L71.042,84.345z"/>
	
		<linearGradient id="path149_2_" gradientUnits="userSpaceOnUse" x1="762.181" y1="-996.9274" x2="776.4551" y2="-1021.6506" gradientTransform="matrix(1 0 0 -1 -686 -925)">
		<stop  offset="0" style="stop-color:#FFFFFF"/>
		<stop  offset="0.5" style="stop-color:#FFFFFF;stop-opacity:0.6"/>
		<stop  offset="1" style="stop-color:#FFFFFF;stop-opacity:0.15"/>
	</linearGradient>
	<path id="path149_1_" fill="url(#path149_2_)" d="M84.539,69.164c-5.362-0.445-12.424,5.597-13.331,11.388l6.654,7.567
		c2.656-4.053,5.96-8.206,10.034-11.956L84.539,69.164z"/>
</g>
<g id="g151" opacity="0.5">
	<path id="path153" opacity="0.08" enable-background="new    " d="M170.634,182.482H84.262c-7.952,0-14.432-6.189-14.432-13.77
		v10.532c0,5.924,5.07,10.727,11.28,10.727h92.672c6.211,0,11.21-4.803,11.21-10.727v-10.532
		C184.993,176.293,178.583,182.482,170.634,182.482z"/>
	<path id="path155" opacity="0.1" enable-background="new    " d="M170.561,182.482H84.189c-7.949,0-14.359-6.076-14.359-13.658
		v5.51c0,5.924,2.738,13.141,13.828,13.141s76.196,0,87.432,0c11.237,0,13.903-7.217,13.903-13.141v-5.51
		C184.993,176.406,178.51,182.482,170.561,182.482z"/>
	<path id="path157" opacity="0.1" enable-background="new    " d="M170.561,182.482H84.189c-7.949,0-14.359-6.076-14.359-13.658
		v2.973c0,5.926,4.748,13.181,13.828,13.181s77.038,0,87.432,0c10.396,0,13.903-7.255,13.903-13.179v-2.973
		C184.993,176.406,178.51,182.482,170.561,182.482z"/>
	<rect id="rect159" x="82.917" y="182.482" opacity="0.05" enable-background="new    " width="88.989" height="2.497"/>
	<rect id="rect161" x="85.534" y="182.482" opacity="0.05" enable-background="new    " width="81.137" height="2.497"/>
	<rect id="rect163" x="85.534" y="184.978" opacity="0.05" enable-background="new    " width="81.137" height="2.497"/>
	<rect id="rect165" x="90.769" y="184.978" opacity="0.05" enable-background="new    " width="73.285" height="2.497"/>
	<rect id="rect167" x="98.621" y="184.978" opacity="0.05" enable-background="new    " width="57.581" height="2.497"/>
	<rect id="rect169" x="109.09" y="184.978" opacity="0.05" enable-background="new    " width="36.642" height="2.497"/>
	<rect id="rect171" x="90.769" y="182.482" opacity="0.05" enable-background="new    " width="73.285" height="2.497"/>
	<rect id="rect173" x="96.004" y="182.482" opacity="0.05" enable-background="new    " width="62.816" height="2.497"/>
	<rect id="rect175" x="98.621" y="182.482" opacity="0.05" enable-background="new    " width="57.581" height="2.497"/>
	<rect id="rect177" x="103.856" y="182.482" opacity="0.05" enable-background="new    " width="47.112" height="2.497"/>
	<rect id="rect179" x="103.856" y="182.482" opacity="0.05" enable-background="new    " width="47.112" height="2.497"/>
</g>
<g>
	<path opacity="0.3" fill="#669CCC" enable-background="new    " d="M172.885,125.016c0,11.826-20.544,21.413-45.885,21.413
		s-45.885-9.587-45.885-21.413s20.544-21.413,45.885-21.413S172.885,113.19,172.885,125.016z"/>
	<path opacity="0.3" fill="#669CCC" enable-background="new    " d="M149.942,85.28c10.241,5.916,8.272,28.498-4.399,50.443
		s-31.244,34.946-41.486,29.029c-10.241-5.91-8.272-28.498,4.399-50.443S139.701,79.37,149.942,85.28z"/>
	<path opacity="0.3" fill="#669CCC" enable-background="new    " d="M104.058,85.28c10.241-5.91,28.816,7.085,41.486,29.03
		c12.67,21.945,14.64,44.533,4.399,50.443c-10.241,5.916-28.816-7.085-41.486-29.029S93.816,91.196,104.058,85.28z"/>
</g>
<path opacity="0.6" fill="none" stroke="#FFFFFF" stroke-width="2" stroke-miterlimit="10" enable-background="new    " d="
	M84.932,180.071c-7.161,0-12.986-5.825-12.986-12.986V82.949c0-7.161,5.825-12.986,12.986-12.986h84.135
	c7.161,0,12.986,5.826,12.986,12.986v84.135c0,7.161-5.825,12.987-12.986,12.987H84.932z"/>
</svg>
