<?xml version="1.0" encoding="utf-8"?>
<!-- Generator: Adobe Illustrator 17.0.0, SVG Export Plug-In . SVG Version: 6.00 Build 0)  -->
<!DOCTYPE svg PUBLIC "-//W3C//DTD SVG 1.1//EN" "http://www.w3.org/Graphics/SVG/1.1/DTD/svg11.dtd">
<svg version="1.1" id="图层_1" xmlns="http://www.w3.org/2000/svg" xmlns:xlink="http://www.w3.org/1999/xlink" x="0px" y="0px"
	 width="128px" height="128px" viewBox="0 0 128 128" enable-background="new 0 0 128 128" xml:space="preserve">
<g id="g151" opacity="0.5">
	<path id="path153" opacity="0.08" enable-background="new    " d="M106.873,118.496H20.952c-7.91,0-14.357-6.201-14.357-13.797
		v10.553c0,5.936,5.043,10.748,11.222,10.748h92.188c6.178,0,11.151-4.812,11.151-10.748v-10.553
		C121.156,112.296,114.78,118.496,106.873,118.496z"/>
	<path id="path155" opacity="0.1" enable-background="new    " d="M106.8,118.496H20.879c-7.907,0-14.284-6.088-14.284-13.684v5.52
		c0,5.936,2.723,13.167,13.755,13.167s75.798,0,86.975,0s13.831-7.231,13.831-13.167v-5.52
		C121.156,112.408,114.707,118.496,106.8,118.496z"/>
	<path id="path157" opacity="0.1" enable-background="new    " d="M106.8,118.496H20.879c-7.907,0-14.284-6.088-14.284-13.684v2.979
		c0,5.938,4.723,13.207,13.755,13.207s76.636,0,86.975,0c10.342,0,13.831-7.269,13.831-13.204v-2.979
		C121.156,112.408,114.707,118.496,106.8,118.496z"/>
	<rect id="rect159" x="19.613" y="118.496" opacity="0.05" enable-background="new    " width="88.525" height="2.501"/>
	<rect id="rect161" x="22.217" y="118.496" opacity="0.05" enable-background="new    " width="80.714" height="2.501"/>
	<rect id="rect163" x="22.217" y="120.997" opacity="0.05" enable-background="new    " width="80.714" height="2.501"/>
	<rect id="rect165" x="27.424" y="120.997" opacity="0.05" enable-background="new    " width="72.903" height="2.501"/>
	<rect id="rect167" x="35.235" y="120.997" opacity="0.05" enable-background="new    " width="57.281" height="2.501"/>
	<rect id="rect169" x="45.65" y="120.997" opacity="0.05" enable-background="new    " width="36.451" height="2.501"/>
	<rect id="rect171" x="27.424" y="118.496" opacity="0.05" enable-background="new    " width="72.903" height="2.501"/>
	<rect id="rect173" x="32.632" y="118.496" opacity="0.05" enable-background="new    " width="62.488" height="2.501"/>
	<rect id="rect175" x="35.235" y="118.496" opacity="0.05" enable-background="new    " width="57.281" height="2.501"/>
	<rect id="rect177" x="40.443" y="118.496" opacity="0.05" enable-background="new    " width="46.866" height="2.501"/>
	<rect id="rect179" x="40.443" y="118.496" opacity="0.05" enable-background="new    " width="46.866" height="2.501"/>
</g>
<path fill="#C4DCED" stroke="#9DBCD7" stroke-width="2" stroke-miterlimit="10" d="M121,102.992c0,8.288-6.719,15.008-15.008,15.008
	H22.008C13.719,118,7,111.281,7,102.992V19.008C7,10.719,13.719,4,22.008,4h83.985C114.281,4,121,10.719,121,19.008V102.992z"/>
<path opacity="0.5" fill="none" stroke="#FFFFFF" stroke-width="2" stroke-miterlimit="10" d="M119,102.992
	c0,7.184-5.824,13.008-13.008,13.008H22.008C14.824,116,9,110.176,9,102.992V19.008C9,11.824,14.824,6,22.008,6h83.984
	C113.176,6,119,11.824,119,19.008V102.992z"/>
<g>
	<g>
		
			<rect x="20.08" y="12.012" transform="matrix(0.9291 -0.3699 0.3699 0.9291 -10.4491 19.2353)" opacity="0.5" fill="#669CCC" enable-background="new    " width="49.701" height="49.701"/>
		
			<rect x="20.635" y="10.721" transform="matrix(0.9291 -0.3699 0.3699 0.9291 -9.932 19.3493)" opacity="0.2" fill="#669CCC" enable-background="new    " width="49.701" height="49.701"/>
		
			<rect x="21.191" y="9.43" transform="matrix(0.9291 -0.3699 0.3699 0.9291 -9.415 19.4633)" opacity="0.1" fill="#669CCC" enable-background="new    " width="49.701" height="49.701"/>
	</g>
	
		<rect x="19.861" y="13.144" transform="matrix(0.9291 -0.3699 0.3699 0.9291 -9.5571 18.6945)" fill="#FFFFFF" width="48.21" height="42.246"/>
</g>
<g>
	<g>
		
			<rect x="53.43" y="13.193" transform="matrix(1 -0.0012 0.0012 1 -0.0463 0.0939)" opacity="0.5" fill="#669CCC" enable-background="new    " width="52.192" height="52.192"/>
		
			<rect x="54.472" y="12.148" transform="matrix(1 -0.0012 0.0012 1 -0.0451 0.0951)" opacity="0.2" fill="#669CCC" enable-background="new    " width="52.192" height="52.192"/>
		
			<rect x="55.515" y="11.102" transform="matrix(1 -0.0012 0.0012 1 -0.0438 0.0963)" opacity="0.1" fill="#669CCC" enable-background="new    " width="52.192" height="52.192"/>
	</g>
	
		<rect x="54.47" y="14.211" transform="matrix(1 -0.0012 0.0012 1 -0.0429 0.0942)" fill="#FFFFFF" width="50.626" height="44.363"/>
</g>
<g>
	<g>
		<path opacity="0.08" fill="none" stroke="#000000" stroke-miterlimit="10" d="M121.405,47.867c0,0,0-5.043-4.981-5.043
			c-14.457,0-60.62,0.008-64.752,0.008c-5.021,0-4.981-4.97-4.981-4.97s0-5.003-4.981-5.003c-8.719,0-26.182,0-29.886,0
			c-4.904,0-4.981,4.822-4.981,4.975"/>
		<path opacity="0.05" fill="none" stroke="#000000" stroke-miterlimit="10" d="M121.405,47.37c0,0,0-5.043-4.981-5.043
			c-14.457,0-60.62,0.008-64.752,0.008c-5.021,0-4.981-4.97-4.981-4.97s0-5.003-4.981-5.003c-8.719,0-26.182,0-29.886,0
			c-4.904,0-4.981,4.822-4.981,4.975"/>
		<path opacity="0.03" fill="none" stroke="#000000" stroke-miterlimit="10" d="M121.405,46.873c0,0,0-5.043-4.981-5.043
			c-14.457,0-60.62,0.008-64.752,0.008c-5.021,0-4.981-4.97-4.981-4.97s0-5.003-4.981-5.003c-8.719,0-26.182,0-29.886,0
			c-4.904,0-4.981,4.822-4.981,4.975"/>
		<linearGradient id="SVGID_1_" gradientUnits="userSpaceOnUse" x1="64" y1="118" x2="64" y2="34">
			<stop  offset="0" style="stop-color:#D1E0ED"/>
			<stop  offset="1" style="stop-color:#E4EEFB"/>
		</linearGradient>
		<path fill="url(#SVGID_1_)" stroke="#9DBCD7" stroke-width="2" stroke-miterlimit="10" d="M21.975,118h84.298
			c8.288,0,14.727-6.891,14.727-15.18V45.522c0-1.181-1.766-2.295-4.117-2.295c-14.52,0-60.813,0.008-64.963,0.008
			c-5.043,0-4.967-4.601-4.967-4.601S46.988,34,41.985,34c-8.757,0-26.296,0-30.015,0C7.045,34,7,38.084,7,38.237v64.584
			C7,111.109,13.687,118,21.975,118z"/>
		<path fill="none" stroke="#FFFFFF" stroke-width="2" stroke-miterlimit="10" d="M21.975,116C14.821,116,9,110.088,9,102.82V38.237
			c0-0.095,0.015-0.894,0.608-1.488C10.104,36.252,10.898,36,11.97,36h30.015c1.184,0,1.786,0.141,2.146,0.503
			c0.796,0.801,0.832,2.023,0.832,2.036c-0.004,0.261,0.011,2.87,1.945,4.833c1.232,1.25,2.921,1.884,5.02,1.884
			c0,0,55.49-0.021,64.952-0.021c1.25,0,1.942,0.428,2.12,0.636v56.951c0,7.268-5.709,13.18-12.727,13.18H21.975z"/>
	</g>
	
		<radialGradient id="SVGID_2_" cx="59.9918" cy="52.8754" r="86.0034" gradientTransform="matrix(0.0197 0.9998 -0.9109 0.018 106.9733 -8.0556)" gradientUnits="userSpaceOnUse">
		<stop  offset="0" style="stop-color:#FFFFFF;stop-opacity:0.6"/>
		<stop  offset="0.3783" style="stop-color:#FAFCFE;stop-opacity:0.4487"/>
		<stop  offset="0.829" style="stop-color:#EBF3FC;stop-opacity:0.2684"/>
		<stop  offset="1" style="stop-color:#E4EEFB;stop-opacity:0.2"/>
	</radialGradient>
	<path fill="url(#SVGID_2_)" d="M21.975,116C14.821,116,9,110.088,9,102.82V38.237c0-0.095,0.015-0.894,0.608-1.488
		C10.104,36.252,10.898,36,11.97,36h30.015c1.184,0,1.786,0.141,2.146,0.503c0.796,0.801,0.832,2.023,0.832,2.036
		c-0.004,0.261,0.011,2.87,1.945,4.833c1.232,1.25,2.921,1.884,5.02,1.884c0,0,55.49-0.021,64.952-0.021
		c1.25,0,1.942,0.428,2.12,0.636v56.951c0,7.268-5.709,13.18-12.727,13.18H21.975z"/>
</g>
<g>
	<path opacity="0.1" fill="#FFFFFF" enable-background="new    " d="M43.665,109.203c-6.024,0-10.927-4.902-10.927-10.927V57.854
		c0-6.024,4.902-10.927,10.927-10.927h40.422c6.024,0,10.927,4.902,10.927,10.927V98.28c0,6.024-4.902,10.927-10.927,10.927H43.665
		V109.203z M84.087,102.807c2.496,0,4.53-2.031,4.53-4.527V59.224l-1.897,0.341c-0.134,0.024-3.301,0.585-7.119,0.585
		c-0.396,0-0.799-0.007-1.205-0.017c0.041,0-4.21,0.224-7.639,1.267c0.444,0.152,0.713,0.344,0.916,0.627
		c0.055,0.072,0.12,0.217,0.203,0.43l0.403-0.348c14.355,12.496,5.377,25.678,5.291,25.809
		c-4.585,6.431-11.653,11.533-17.261,14.889H84.087z M39.131,86.279c2.08,0.802,6.059,2.062,10.879,2.148l1.608,0.034
		c1.17,0.024,2.293,0.052,3.388,0.052c5.264,0,9.178-0.606,13.588-3.701c5.615-3.935,4.988-10.207,4.954-10.469
		c-0.021-1.098-0.189-2.196-0.43-3.24c-0.007,1.553-0.148,3.16-0.509,4.685c-0.041,0.241-1.46,7.536-8.365,9.285
		c-1.057,0.261-2.124,0.396-3.181,0.396c-4.241,0-8.276-2.107-12.318-6.451c-3.174-3.412-7.739-12.748-8.833-23.671
		c-0.499,0.73-0.781,1.601-0.781,2.506V86.28L39.131,86.279L39.131,86.279z M60.334,79.105c0.021,0,0.509,0.165,1.191,0.165
		c2.11,0,3.952-1.515,5.346-4.382c0.055-0.093,1.15-2.093,1.412-6.334c-0.544,2.83-1.642,6.079-3.838,8.365
		c-0.141,0.162-1.79,1.938-3.759,1.938c-0.337,0-0.699-0.052-1.064-0.175C59.841,78.837,60.082,78.978,60.334,79.105L60.334,79.105z
		 M59.982,53.324c-1.291,2.396-4.451,9.03-4.224,16.094c0,0.1-0.062,3.195,1.222,5.99c-0.134-0.416-0.248-0.885-0.358-1.405
		c-0.062-0.22-1.701-7.274,7.033-15.419c0.148-0.145,2.94-2.913,5.622-5.26L59.982,53.324L59.982,53.324z"/>
	<path opacity="0.3" fill="#669CCC" enable-background="new    " d="M84.087,48.339H43.665c-5.25,0-9.515,4.258-9.515,9.512v40.426
		c0,5.25,4.262,9.512,9.515,9.512h40.422c5.257,0,9.515-4.258,9.515-9.512V57.855C93.602,52.601,89.344,48.339,84.087,48.339z
		 M90.032,98.277c0,3.277-2.661,5.949-5.945,5.949h-29.22c5.084-2.634,15.577-8.747,21.544-17.123c0,0,8.499-12.121-5.057-23.926
		c0,0,3.491,5.477,3.611,10.999c0,0,0.867,7.302-5.553,11.794c-6.413,4.499-12.028,4.007-19.419,3.873
		c-5.911-0.103-10.617-1.897-12.269-2.616V57.851c0-2.365,1.398-4.396,3.401-5.353c0.509,11.904,5.494,22.143,8.661,25.551
		c3.24,3.484,8.014,7.185,14.121,5.646c6.104-1.542,7.329-8.235,7.329-8.235c1.339-5.704-0.599-12.469-0.699-12.614
		c-0.1-0.141-1.022-0.3-1.022-0.3c0.974,8.975-1.363,12.951-1.363,12.951c-3.408,7.04-8.445,4.871-8.445,4.871
		c-5.601-2.85-5.353-10.909-5.353-10.909c-0.275-8.397,4.007-16.176,4.806-17.557h14.146c-2.906,1.976-8.675,7.715-8.675,7.715
		c-8.224,7.666-6.61,14.114-6.61,14.114c1.332,6.764,5.398,2.2,5.398,2.2c4.289-4.458,3.952-13.326,3.952-13.326
		c-1.742,0.286-2.836,1.253-2.836,1.253c-0.203,5.914-3.67,9.584-3.67,9.584c-1.353,1.498-2.314,0.072-2.314,0.072
		c-0.713-1.071,0.706-1.814,0.706-1.814c1.983-1.749,2.575-4.727,2.541-5.845c-0.027-1.119,0.565-1.425,0.565-1.425
		c2.802-2.176,5.608-3.46,5.608-3.46c3.759-1.931,10.476-2.258,10.476-2.258c4.231,0.141,8.028-0.544,8.028-0.544L90,57.529
		c0,0.107,0.027,0.21,0.027,0.317v40.429h0.004V98.277z"/>
	<g opacity="0.5">
		<path opacity="0.5" fill="#669CCC" enable-background="new    " d="M86.218,56.78c-0.027,0.003-3.061,0.54-6.617,0.54
			c-0.361,0-0.74-0.003-1.108-0.017c-0.403,0.014-7.181,0.365-11.167,2.41c-0.027,0.014-0.671,0.31-1.642,0.85
			c0.761-0.744,5.842-5.739,8.41-7.488l3.794-2.585H58.34l-0.41,0.706c-0.888,1.521-5.284,9.571-4.995,18.311
			c-0.014,0.279-0.203,8.903,6.124,12.121c0.182,0.083,1.115,0.468,2.461,0.468c1.869,0,5.374-0.778,7.894-5.983
			c0.014-0.017,0.196-0.331,0.437-0.94c-0.12,0.558-1.312,5.89-6.3,7.15c-0.833,0.21-1.666,0.317-2.489,0.317
			c-3.415,0-6.771-1.818-10.248-5.549c-3.054-3.288-7.801-13.395-8.276-24.652l-0.093-2.138l-1.931,0.919
			c-2.561,1.219-4.217,3.821-4.217,6.63v30.305l0.854,0.365c1.814,0.788,6.696,2.623,12.81,2.734l1.594,0.034
			c1.191,0.024,2.334,0.052,3.449,0.052c5.68-0.003,10.214-0.706,15.216-4.217c7.026-4.923,6.186-12.786,6.145-13.116
			c-0.021-0.906-0.12-1.807-0.289-2.682c3.901,8.018-0.579,14.61-0.826,14.961c-5.687,7.98-15.619,13.874-21.038,16.676
			l-5.164,2.671h35.038c4.062,0,7.364-3.301,7.364-7.36V57.854c0-0.131-0.014-0.258-0.034-0.382l-0.213-1.449l-1.453,0.124
			L86.218,56.78z M90.032,57.854V98.28c0,3.277-2.661,5.949-5.945,5.949h-29.22c5.084-2.634,15.577-8.747,21.544-17.123
			c0,0,8.499-12.121-5.057-23.926c0,0,3.491,5.477,3.611,10.999c0,0,0.867,7.302-5.553,11.794
			c-6.413,4.499-12.028,4.007-19.419,3.873c-5.911-0.103-10.617-1.897-12.269-2.616V57.854c0-2.365,1.398-4.396,3.401-5.353
			c0.509,11.905,5.494,22.143,8.661,25.551c3.24,3.484,8.014,7.185,14.121,5.646c6.104-1.542,7.329-8.235,7.329-8.235
			c1.339-5.704-0.599-12.469-0.699-12.614c-0.1-0.141-1.022-0.3-1.022-0.3c0.974,8.975-1.363,12.951-1.363,12.951
			c-3.408,7.04-8.445,4.871-8.445,4.871c-5.601-2.85-5.353-10.909-5.353-10.909c-0.275-8.397,4.007-16.176,4.806-17.557h14.146
			c-2.906,1.976-8.675,7.715-8.675,7.715c-8.224,7.666-6.61,14.114-6.61,14.114c1.332,6.764,5.398,2.2,5.398,2.2
			c4.289-4.458,3.952-13.326,3.952-13.326c-1.742,0.286-2.836,1.253-2.836,1.253c-0.203,5.914-3.67,9.584-3.67,9.584
			c-1.353,1.498-2.314,0.072-2.314,0.072c-0.713-1.071,0.706-1.814,0.706-1.814c1.983-1.749,2.575-4.727,2.541-5.845
			c-0.027-1.119,0.565-1.425,0.565-1.425c2.802-2.176,5.608-3.46,5.608-3.46c3.759-1.931,10.476-2.258,10.476-2.258
			c4.231,0.141,8.028-0.544,8.028-0.544L90,57.532C90.005,57.644,90.032,57.744,90.032,57.854z M60.082,75.504
			c0.523-0.096,1.177-0.389,1.821-1.108c0.134-0.134,3.549-3.811,4-9.766l0,0c-0.162,2.706-0.84,7.563-3.504,10.327
			c-0.43,0.472-1.229,1.074-1.721,1.074C60.505,76.024,60.299,75.859,60.082,75.504z"/>
		<path opacity="0.5" fill="#669CCC" enable-background="new    " d="M84.087,48.339H43.665c-5.25,0-9.515,4.258-9.515,9.512v40.426
			c0,5.25,4.262,9.512,9.515,9.512h40.422c5.257,0,9.515-4.258,9.515-9.512V57.855C93.602,52.601,89.344,48.339,84.087,48.339z
			 M92.184,98.277c0,4.465-3.632,8.097-8.097,8.097H43.665c-4.465,0-8.097-3.632-8.097-8.097V57.855
			c0-4.465,3.632-8.097,8.097-8.097h40.422c4.465,0,8.097,3.632,8.097,8.097V98.277z"/>
	</g>
	<g>
		<path opacity="0.05" fill="#FFFFFF" enable-background="new    " d="M86.473,58.171c0,0-3.801,0.685-8.028,0.544
			c0,0-6.717,0.327-10.476,2.258c0,0-2.802,1.287-5.608,3.46c0,0-0.592,0.306-0.565,1.425c0.034,1.119-0.558,4.096-2.541,5.845
			c0,0-1.418,0.747-0.706,1.814c0,0,0.96,1.422,2.314-0.072c0,0,3.47-3.67,3.67-9.584c0,0,1.095-0.967,2.836-1.253
			c0,0,0.337,8.868-3.952,13.326c0,0-4.069,4.565-5.398-2.2c0,0-1.615-6.448,6.61-14.114c0,0,5.77-5.739,8.675-7.715H59.16
			c-0.799,1.38-5.084,9.157-4.806,17.557c0,0-0.248,8.059,5.353,10.909c0,0,5.036,2.169,8.445-4.871c0,0,2.341-3.973,1.363-12.951
			c0,0,0.922,0.159,1.022,0.3c0.1,0.145,2.038,6.906,0.699,12.614c0,0-1.222,6.689-7.329,8.235
			c-6.104,1.539-10.879-2.162-14.121-5.646c-3.167-3.408-8.149-13.646-8.661-25.551c-2.003,0.954-3.401,2.988-3.401,5.353v29.375
			c1.653,0.72,6.362,2.509,12.269,2.616c7.388,0.134,13.002,0.627,19.419-3.873c6.42-4.493,5.553-11.794,5.553-11.794
			c-0.12-5.522-3.611-10.999-3.611-10.999c13.557,11.805,5.057,23.926,5.057,23.926c-5.963,8.376-16.459,14.489-21.544,17.123
			h29.221c3.281,0,5.945-2.668,5.945-5.949V57.854c0-0.11-0.027-0.21-0.027-0.317L86.473,58.171z M57.703,63.579
			c0.774-3.749,2.193-6.961,3.14-8.84h4.775c-1.628,1.525-2.864,2.757-2.926,2.813C60.447,59.651,58.846,61.689,57.703,63.579z
			 M55.008,87.095c-1.081,0-2.2-0.024-3.356-0.052l-1.615-0.034c-4.007-0.072-7.415-0.999-9.488-1.721V65.683
			c1.911,6.379,4.713,11.663,7.16,14.3c3.928,4.217,7.887,6.469,12.076,6.844C58.323,87.033,56.757,87.095,55.008,87.095z
			 M87.199,98.277c0,1.718-1.398,3.115-3.112,3.115H65.146c4.671-3.191,9.898-7.498,13.581-12.665
			c0.093-0.141,9.312-13.663-4.417-26.69c1.828-0.313,3.477-0.444,4.114-0.489c0.396,0.01,0.788,0.017,1.177,0.017
			c3.966,0,7.236-0.585,7.377-0.609l0.22-0.041L87.199,98.277z"/>
		<path opacity="0.05" fill="#FFFFFF" enable-background="new    " d="M84.087,45.513H43.665c-6.806,0-12.345,5.536-12.345,12.341
			V98.28c0,6.806,5.539,12.341,12.345,12.341h40.422c6.806,0,12.345-5.536,12.345-12.341V57.854
			C96.432,51.048,90.893,45.513,84.087,45.513z M93.602,98.277c0,5.25-4.255,9.512-9.515,9.512H43.665
			c-5.25,0-9.515-4.258-9.515-9.512V57.855c0-5.253,4.262-9.512,9.515-9.512h40.422c5.257,0,9.515,4.258,9.515,9.512V98.277z"/>
	</g>
	<g opacity="0.2">
		<path opacity="0.9" fill="#FFFFFF" enable-background="new    " d="M76.41,88.52c0,0,2.836-4.062,2.609-9.766
			c-0.227,4.95-2.609,8.348-2.609,8.348c-5.963,8.376-16.459,14.489-21.544,17.123h2.616C62.995,101.124,71.332,95.643,76.41,88.52z
			"/>
		<path opacity="0.9" fill="#FFFFFF" enable-background="new    " d="M58.02,75.15c1.332,6.764,5.398,2.207,5.398,2.207
			c4.289-4.458,3.952-13.329,3.952-13.329c-0.007,0-0.014,0.003-0.014,0.003c-0.1,2.685-0.706,8.548-3.942,11.905
			c0,0-4.069,4.565-5.398-2.2c0,0-0.062-0.251-0.1-0.702C57.831,74.361,58.02,75.15,58.02,75.15z"/>
		<path opacity="0.9" fill="#FFFFFF" enable-background="new    " d="M54.347,69.724c0-0.079,0-0.159,0-0.238
			C54.347,69.507,54.347,69.587,54.347,69.724z"/>
		<path opacity="0.9" fill="#FFFFFF" enable-background="new    " d="M69.639,63.989c-0.072-0.014-0.127-0.024-0.127-0.024
			c0.141,1.263,0.21,2.416,0.22,3.487C69.759,66.409,69.732,65.259,69.639,63.989z"/>
		<path opacity="0.9" fill="#FFFFFF" enable-background="new    " d="M59.156,51.909c-0.792,1.37-5.03,9.061-4.806,17.402
			c0.248-7.78,4.055-14.693,4.806-15.984H71.46c0.671-0.561,1.305-1.053,1.842-1.418L59.156,51.909L59.156,51.909z"/>
		<path opacity="0.9" fill="#FFFFFF" enable-background="new    " d="M84.087,107.789H43.665c-5.25,0-9.515-4.258-9.515-9.512v1.412
			c0,5.257,4.262,9.515,9.515,9.515h40.422c5.257,0,9.515-4.255,9.515-9.515v-1.412C93.602,103.53,89.344,107.789,84.087,107.789z"
			/>
		<path opacity="0.9" fill="#FFFFFF" enable-background="new    " d="M90.005,57.534l-3.529,0.637c0,0-3.801,0.685-8.028,0.544
			c0,0-6.717,0.327-10.476,2.258c0,0-2.802,1.287-5.608,3.46c0,0-0.592,0.306-0.565,1.425c0.034,1.119-0.558,4.096-2.541,5.845
			c0,0-1.418,0.747-0.706,1.814c0,0,0.034,0.048,0.079,0.107c0.268-0.324,0.627-0.506,0.627-0.506
			c1.983-1.752,2.575-4.727,2.541-5.845c-0.027-1.119,0.565-1.425,0.565-1.425c0.733-0.565,1.46-1.067,2.138-1.508
			c0.007-0.162,0.027-0.317,0.034-0.482c0,0,1.095-0.967,2.836-1.253c0,0,0,0.038,0,0.076c0.368-0.189,0.599-0.296,0.599-0.296
			c3.759-1.931,10.476-2.255,10.476-2.255c4.231,0.138,8.028-0.547,8.028-0.547l3.529-0.637c0,0.107,0.027,0.21,0.027,0.317v-1.415
			C90.032,57.744,90.005,57.644,90.005,57.534z"/>
		<path opacity="0.9" fill="#FFFFFF" enable-background="new    " d="M49.782,78.052c-3.167-3.408-8.149-13.646-8.661-25.551
			c-2.003,0.954-3.401,2.988-3.401,5.353v1.415c0-2.365,1.398-4.396,3.401-5.353c0.509,11.905,5.494,22.149,8.661,25.558
			c3.24,3.481,8.014,7.181,14.121,5.639c6.104-1.539,7.329-8.235,7.329-8.235c0.403-1.708,0.502-3.515,0.458-5.205
			c-0.034,1.26-0.162,2.548-0.458,3.794c0,0-1.222,6.689-7.329,8.235C57.796,85.236,53.025,81.535,49.782,78.052z"/>
	</g>
	<g>
		<path opacity="0.5" fill="#669CCC" enable-background="new    " d="M57.92,72.988c0.155-2.499,1.305-6.998,6.71-12.039
			c0,0,5.77-5.739,8.675-7.715H71.57c-3.005,2.475-6.94,6.386-6.94,6.386C58.054,65.752,57.772,71.088,57.92,72.988z"/>
		<path opacity="0.5" fill="#669CCC" enable-background="new    " d="M71.353,63.177c0,0,0.651,1.026,1.398,2.634
			c4.634,4.568,6.131,9.109,6.272,12.913C79.219,74.33,77.718,68.715,71.353,63.177z"/>
		<path opacity="0.5" fill="#669CCC" enable-background="new    " d="M70.534,62.853c-0.1-0.141-1.022-0.3-1.022-0.3
			c0.055,0.465,0.086,0.913,0.12,1.349c0.248,0.048,0.819,0.168,0.902,0.279c0.072,0.103,1.043,3.481,1.157,7.457
			C71.804,67.111,70.613,62.966,70.534,62.853z"/>
		<path opacity="0.5" fill="#669CCC" enable-background="new    " d="M54.347,69.221c-0.007,0.086,0,0.175,0,0.261v-0.021
			C54.34,69.383,54.347,69.304,54.347,69.221z"/>
		<path opacity="0.5" fill="#669CCC" enable-background="new    " d="M60.863,73.445c-1.17,1.298-2.045,0.406-2.258,0.141
			c-0.241,0.324-0.396,0.754-0.055,1.26c0,0,0.96,1.422,2.314-0.072c0,0,3.47-3.676,3.67-9.587c0,0,1.095-0.96,2.823-1.249
			c0.027-0.819,0.014-1.332,0.014-1.332c-0.014,0.003-0.027,0.007-0.041,0.007c-0.627,0.32-1.642,0.871-2.83,1.635
			C64.172,69.934,60.863,73.445,60.863,73.445z"/>
		<path opacity="0.5" fill="#669CCC" enable-background="new    " d="M84.087,48.339H43.665c-5.25,0-9.515,4.258-9.515,9.512v1.329
			c0-5.253,4.262-9.512,9.515-9.512h40.422c5.257,0,9.515,4.258,9.515,9.512v-1.329C93.602,52.601,89.344,48.339,84.087,48.339z"/>
		<path opacity="0.5" fill="#669CCC" enable-background="new    " d="M49.992,91.171c7.388,0.134,13.002,0.627,19.419-3.873
			c5.77-4.038,5.656-10.327,5.574-11.56c-0.12,2.386-0.988,7.019-5.574,10.235c-6.413,4.499-12.028,4.007-19.419,3.873
			c-5.911-0.103-10.617-1.897-12.269-2.616v1.329C39.375,89.274,44.081,91.065,49.992,91.171z"/>
		<path opacity="0.5" fill="#669CCC" enable-background="new    " d="M59.7,81.701c0,0,5.036,2.169,8.445-4.871
			c0,0,1.708-2.926,1.587-9.398c-0.114,5.546-1.587,8.073-1.587,8.073c-3.408,7.04-8.445,4.871-8.445,4.871
			c-5.016-2.554-5.339-9.271-5.353-10.645c-0.007,0.358-0.014,0.706,0,1.064C54.347,70.791,54.099,78.85,59.7,81.701z"/>
		<path opacity="0.5" fill="#669CCC" enable-background="new    " d="M84.087,105.551c3.281,0,5.945-2.664,5.945-5.945v-1.329
			c0,3.277-2.661,5.949-5.945,5.949H57.328c-0.909,0.502-1.742,0.954-2.461,1.326C54.866,105.551,84.087,105.551,84.087,105.551z"/>
	</g>
</g>
<g id="g27_1_">
	
		<linearGradient id="path36_2_" gradientUnits="userSpaceOnUse" x1="422.7641" y1="820.7596" x2="438.6019" y2="848.1912" gradientTransform="matrix(1 0 0 1 -412 -818)">
		<stop  offset="0" style="stop-color:#FFFFFF"/>
		<stop  offset="0.5" style="stop-color:#FFFFFF;stop-opacity:0.6"/>
		<stop  offset="1" style="stop-color:#FFFFFF;stop-opacity:0.15"/>
	</linearGradient>
	<path id="path36_1_" fill="url(#path36_2_)" d="M23.823,34.852c1.771-3.665,3.932-7.099,6.411-10.274l-4.511-9.892
		c-3.853,3.642-6.98,7.655-9.476,11.552L23.823,34.852z"/>
	
		<linearGradient id="path45_2_" gradientUnits="userSpaceOnUse" x1="437.1245" y1="816.6517" x2="447.4894" y2="834.6048" gradientTransform="matrix(1 0 0 1 -412 -818)">
		<stop  offset="0" style="stop-color:#FFFFFF"/>
		<stop  offset="0.5" style="stop-color:#FFFFFF;stop-opacity:0.6"/>
		<stop  offset="1" style="stop-color:#FFFFFF;stop-opacity:0.15"/>
	</linearGradient>
	<path id="path45_1_" fill="url(#path45_2_)" d="M24.292,5.178l2.358,5.167c2.269-1.884,4.756-2.532,7.468-5.167L24.292,5.178z"/>
	
		<linearGradient id="path54_2_" gradientUnits="userSpaceOnUse" x1="440.3849" y1="813.2423" x2="453.049" y2="835.1773" gradientTransform="matrix(1 0 0 1 -412 -818)">
		<stop  offset="0" style="stop-color:#FFFFFF"/>
		<stop  offset="0.5" style="stop-color:#FFFFFF;stop-opacity:0.6"/>
		<stop  offset="1" style="stop-color:#FFFFFF;stop-opacity:0.15"/>
	</linearGradient>
	<path id="path54_1_" fill="url(#path54_2_)" d="M41.987,5.178h-1.866c-4.704,2.635-8.817,4.646-12.346,7.65l4.324,9.486
		c3.694-4.266,7.979-8.005,12.778-11.025c0.037-0.034,0.063-0.063,0.103-0.097C50.358,6.549,45.017,5.178,41.987,5.178z"/>
	
		<linearGradient id="path63_2_" gradientUnits="userSpaceOnUse" x1="413.8756" y1="833.2648" x2="427.6188" y2="857.0685" gradientTransform="matrix(1 0 0 1 -412 -818)">
		<stop  offset="0" style="stop-color:#FFFFFF"/>
		<stop  offset="0.5" style="stop-color:#FFFFFF;stop-opacity:0.6"/>
		<stop  offset="1" style="stop-color:#FFFFFF;stop-opacity:0.15"/>
	</linearGradient>
	<path id="path63_1_" fill="url(#path63_2_)" d="M14.808,28.591c-2.893,4.925-4.783,9.476-5.905,12.588
		c1.328,1.895,3.523,3.138,6.013,3.138c3.083,0,5.716-1.905,6.807-4.596c0.279-0.751,0.619-1.473,0.93-2.213L14.808,28.591z"/>
	
		<linearGradient id="path72_2_" gradientUnits="userSpaceOnUse" x1="413.2583" y1="834.2397" x2="428.4893" y2="860.6206" gradientTransform="matrix(1 0 0 1 -412 -818)">
		<stop  offset="0" style="stop-color:#FFFFFF"/>
		<stop  offset="0.5" style="stop-color:#FFFFFF;stop-opacity:0.6"/>
		<stop  offset="1" style="stop-color:#FFFFFF;stop-opacity:0.15"/>
	</linearGradient>
	<path id="path72_1_" fill="url(#path72_2_)" d="M7.627,20.42L7.569,36.958c0,0,0,0.005,0,0.011c0,0.103,0.026,0.2,0.032,0.303
		c1.257-3.059,3.012-6.799,5.394-10.749L7.627,20.42z"/>
	
		<linearGradient id="path149_2_" gradientUnits="userSpaceOnUse" x1="424.7764" y1="825.978" x2="439.0782" y2="850.7492" gradientTransform="matrix(1 0 0 1 -412 -818)">
		<stop  offset="0" style="stop-color:#FFFFFF"/>
		<stop  offset="0.5" style="stop-color:#FFFFFF;stop-opacity:0.6"/>
		<stop  offset="1" style="stop-color:#FFFFFF;stop-opacity:0.15"/>
	</linearGradient>
	<path id="path149_1_" fill="url(#path149_2_)" d="M21.151,5.21C15.778,4.763,8.702,10.817,7.793,16.62l6.667,7.581
		c2.661-4.061,5.971-8.222,10.053-11.979L21.151,5.21z"/>
</g>
</svg>
