<?xml version="1.0" encoding="utf-8"?>
<!-- Generator: Adobe Illustrator 17.0.0, SVG Export Plug-In . SVG Version: 6.00 Build 0)  -->
<!DOCTYPE svg PUBLIC "-//W3C//DTD SVG 1.1//EN" "http://www.w3.org/Graphics/SVG/1.1/DTD/svg11.dtd">
<svg version="1.1" id="图层_1" xmlns="http://www.w3.org/2000/svg" xmlns:xlink="http://www.w3.org/1999/xlink" x="0px" y="0px"
	 width="128px" height="128px" viewBox="0 0 128 128" enable-background="new 0 0 128 128" xml:space="preserve">
<g id="g151" opacity="0.5">
	<path id="path153" opacity="0.08" enable-background="new    " d="M106.873,118.496H20.952c-7.91,0-14.357-6.201-14.357-13.797
		v10.553c0,5.936,5.043,10.748,11.222,10.748h92.188c6.178,0,11.151-4.812,11.151-10.748v-10.553
		C121.156,112.296,114.78,118.496,106.873,118.496z"/>
	<path id="path155" opacity="0.1" enable-background="new    " d="M106.8,118.496H20.879c-7.907,0-14.284-6.088-14.284-13.684v5.52
		c0,5.936,2.723,13.167,13.755,13.167s75.798,0,86.975,0s13.831-7.231,13.831-13.167v-5.52
		C121.156,112.408,114.707,118.496,106.8,118.496z"/>
	<path id="path157" opacity="0.1" enable-background="new    " d="M106.8,118.496H20.879c-7.907,0-14.284-6.088-14.284-13.684v2.979
		c0,5.938,4.723,13.207,13.755,13.207s76.636,0,86.975,0c10.342,0,13.831-7.269,13.831-13.204v-2.979
		C121.156,112.408,114.707,118.496,106.8,118.496z"/>
	<rect id="rect159" x="19.613" y="118.496" opacity="0.05" enable-background="new    " width="88.525" height="2.501"/>
	<rect id="rect161" x="22.217" y="118.496" opacity="0.05" enable-background="new    " width="80.714" height="2.501"/>
	<rect id="rect163" x="22.217" y="120.997" opacity="0.05" enable-background="new    " width="80.714" height="2.501"/>
	<rect id="rect165" x="27.424" y="120.997" opacity="0.05" enable-background="new    " width="72.903" height="2.501"/>
	<rect id="rect167" x="35.235" y="120.997" opacity="0.05" enable-background="new    " width="57.281" height="2.501"/>
	<rect id="rect169" x="45.65" y="120.997" opacity="0.05" enable-background="new    " width="36.451" height="2.501"/>
	<rect id="rect171" x="27.424" y="118.496" opacity="0.05" enable-background="new    " width="72.903" height="2.501"/>
	<rect id="rect173" x="32.632" y="118.496" opacity="0.05" enable-background="new    " width="62.488" height="2.501"/>
	<rect id="rect175" x="35.235" y="118.496" opacity="0.05" enable-background="new    " width="57.281" height="2.501"/>
	<rect id="rect177" x="40.443" y="118.496" opacity="0.05" enable-background="new    " width="46.866" height="2.501"/>
	<rect id="rect179" x="40.443" y="118.496" opacity="0.05" enable-background="new    " width="46.866" height="2.501"/>
</g>
<path fill="#C4DCED" stroke="#9DBCD7" stroke-width="2" stroke-miterlimit="10" d="M121,102.992c0,8.288-6.719,15.008-15.008,15.008
	H22.008C13.719,118,7,111.281,7,102.992V19.008C7,10.719,13.719,4,22.008,4h83.985C114.281,4,121,10.719,121,19.008V102.992z"/>
<path opacity="0.5" fill="none" stroke="#FFFFFF" stroke-width="2" stroke-miterlimit="10" enable-background="new    " d="
	M119,102.992c0,7.184-5.824,13.008-13.008,13.008H22.008C14.824,116,9,110.176,9,102.992V19.008C9,11.824,14.824,6,22.008,6h83.984
	C113.176,6,119,11.824,119,19.008V102.992z"/>
<g>
	<g>
		<path opacity="0.08" fill="none" stroke="#000000" stroke-miterlimit="10" enable-background="new    " d="M121.405,39.867
			c0,0,0-5.043-4.981-5.043c-14.457,0-60.62,0.008-64.752,0.008c-5.021,0-4.981-4.97-4.981-4.97s0-5.003-4.981-5.003
			c-8.719,0-26.182,0-29.886,0c-4.904,0-4.981,4.822-4.981,4.975"/>
		<path opacity="0.05" fill="none" stroke="#000000" stroke-miterlimit="10" enable-background="new    " d="M121.405,39.37
			c0,0,0-5.043-4.981-5.043c-14.457,0-60.62,0.008-64.752,0.008c-5.021,0-4.981-4.97-4.981-4.97s0-5.003-4.981-5.003
			c-8.719,0-26.182,0-29.886,0c-4.904,0-4.981,4.822-4.981,4.975"/>
		<path opacity="0.03" fill="none" stroke="#000000" stroke-miterlimit="10" enable-background="new    " d="M121.405,38.873
			c0,0,0-5.043-4.981-5.043c-14.457,0-60.62,0.008-64.752,0.008c-5.021,0-4.981-4.97-4.981-4.97s0-5.003-4.981-5.003
			c-8.719,0-26.182,0-29.886,0c-4.904,0-4.981,4.822-4.981,4.975"/>
		
			<linearGradient id="SVGID_1_" gradientUnits="userSpaceOnUse" x1="338" y1="-353" x2="338" y2="-261" gradientTransform="matrix(1 0 0 -1 -274 -235)">
			<stop  offset="0" style="stop-color:#D1E0ED"/>
			<stop  offset="1" style="stop-color:#E4EEFB"/>
		</linearGradient>
		<path fill="url(#SVGID_1_)" stroke="#9DBCD7" stroke-width="2" stroke-miterlimit="10" d="M21.975,118h84.298
			c8.288,0,14.727-6.891,14.727-15.18V37.522c0-1.181-1.766-2.295-4.117-2.295c-14.52,0-60.813,0.008-64.963,0.008
			c-5.043,0-4.967-4.601-4.967-4.601S46.988,26,41.985,26c-8.757,0-26.296,0-30.015,0C7.045,26,7,30.084,7,30.237v72.584
			C7,111.109,13.687,118,21.975,118z"/>
		<path fill="none" stroke="#FFFFFF" stroke-width="2" stroke-miterlimit="10" d="M21.975,116C14.821,116,9,110.088,9,102.82V30.237
			c0-0.095,0.015-0.894,0.608-1.488C10.104,28.252,10.898,28,11.97,28h30.015c1.184,0,1.786,0.141,2.146,0.503
			c0.796,0.801,0.832,2.023,0.832,2.036c-0.004,0.261,0.011,2.87,1.945,4.833c1.232,1.25,2.921,1.884,5.02,1.884
			c0,0,55.49-0.021,64.952-0.021c1.25,0,1.942,0.428,2.12,0.636v64.951c0,7.268-5.709,13.18-12.727,13.18H21.975V116z"/>
	</g>
	
		<radialGradient id="SVGID_2_" cx="422.4435" cy="301.5568" r="90.3051" gradientTransform="matrix(0.0197 0.9998 0.9109 -0.018 -223.0688 -370.3121)" gradientUnits="userSpaceOnUse">
		<stop  offset="0" style="stop-color:#FFFFFF;stop-opacity:0.6"/>
		<stop  offset="0.3783" style="stop-color:#FAFCFE;stop-opacity:0.4487"/>
		<stop  offset="0.829" style="stop-color:#EBF3FC;stop-opacity:0.2684"/>
		<stop  offset="1" style="stop-color:#E4EEFB;stop-opacity:0.2"/>
	</radialGradient>
	<path fill="url(#SVGID_2_)" d="M21.975,116C14.821,116,9,110.088,9,102.82V30.237c0-0.095,0.015-0.894,0.608-1.488
		C10.104,28.252,10.898,28,11.97,28h30.015c1.184,0,1.786,0.141,2.146,0.503c0.796,0.801,0.832,2.023,0.832,2.036
		c-0.004,0.261,0.011,2.87,1.945,4.833c1.232,1.25,2.921,1.884,5.02,1.884c0,0,55.49-0.021,64.952-0.021
		c1.25,0,1.942,0.428,2.12,0.636v64.951c0,7.268-5.709,13.18-12.727,13.18H21.975V116z"/>
</g>
<g id="Symbol">
	<path opacity="0.05" fill="#FFFFFF" enable-background="new    " d="M74.17,48.813c-4.787,0.048-9.635-0.079-14.469,0.064
		c-0.241,0.001-0.471,0.094-0.646,0.258c-0.471,0.481-0.829,0.484-1.582,0.421c-0.705-0.06-1.691-0.197-2.778,0.032v-0.032
		c-0.034,0.002-0.062,0.03-0.097,0.032c-0.038,0.009-0.058-0.01-0.097,0v0.032c-1.636,0.148-3.174,0.992-3.94,2.552l-0.032-0.032
		c-0.026,0.039-0.039,0.089-0.065,0.129c-1.665,2.574-3.49,5.118-5.103,7.816c-0.04,0.061-0.072,0.126-0.097,0.194
		c-0.377,1.109,0.061,2.179,0.678,2.842c0.607,0.651,1.352,1.067,1.938,1.389c0.012,0.007,0.02,0.024,0.033,0.032
		c0.912,0.556,1.866,1.102,2.777,1.679c-0.327-0.03-0.674-0.054-0.968-0.033c-0.847,0.06-1.593,0.201-2.132,0.162
		c-0.043-0.003-0.086-0.003-0.129,0c-3.034,0.205-6.156,0.237-9.27,0.549c-0.043,0.007-0.087,0.019-0.129,0.032
		c-2.599,0.687-2.67,4.471-0.322,5.491l-0.033,0.032c0.146,0.114,0.187,0.087,0.323,0.161c0.289,0.159,0.497,0.296,0.678,0.356
		c-2.392,4.481-2.133,10.116,0.807,14.308c0.005,0.007-0.004,0.025,0,0.032c2.151,3.273,4.703,6.217,7.107,9.141
		c0.179,0.205,0.438,0.322,0.71,0.322c0.815,0.041,1.178,0.307,1.744,0.808c0.566,0.5,1.229,1.257,2.293,1.873
		c0.089,0.059,0.187,0.102,0.29,0.129c2.214,0.425,4.396,0.068,6.298,0.161c0.022,0.001,0.043,0.001,0.065,0
		c2.248-0.054,4.604,0.144,7.008-0.064c0.055-0.006,0.109-0.018,0.161-0.032c0.64-0.173,1.175-0.541,1.518-1.001
		c0.343-0.461,0.499-0.965,0.582-1.454c0.054-0.321,0.022-0.534,0.032-0.839c1.317,2.322,2.559,4.688,4.037,6.976
		c0.029,0.045,0.061,0.089,0.097,0.129c1.821,1.982,5.28,0.241,5.005-2.357h0.033c0.001-0.079-0.001-0.085,0-0.161
		c0.001-0.417,0.025-0.695,0.032-0.872c0.026,0.007,0.001-0.01,0.032,0c0.095,0.026,0.193,0.036,0.291,0.032
		c4.975,0.067,9.725-2.698,12.111-7.074c0.007-0.012,0.025-0.02,0.033-0.032c1.97-3.399,3.49-7.001,5.037-10.497
		c0.093-0.228,0.093-0.483,0-0.711c-0.274-0.726-0.257-1.179-0.128-1.776c0.128-0.597,0.429-1.342,0.71-2.325
		c0.023-0.085,0.033-0.172,0.032-0.258c-0.024-2.089-1.399-3.527-1.873-4.748c-0.01-0.022-0.021-0.043-0.033-0.065
		c-1.336-2.578-2.562-5.256-4.004-7.848c-0.037-0.059-0.081-0.113-0.13-0.162c-0.674-0.764-1.679-1.04-2.519-0.936
		c-0.788,0.097-1.462,0.457-2.035,0.904l-0.032,0.032c-0.026,0.021-0.071,0.011-0.097,0.032l-0.613,0.389
		c1.314-2.32,2.631-4.629,3.908-6.976c0.013-0.042,0.025-0.086,0.032-0.13c0.995-2.61-2.354-5.089-4.522-3.326
		c-0.034,0.02-0.066,0.041-0.097,0.064c-0.255,0.254-0.227,0.241-0.226,0.258c-0.035-0.07-0.084-0.105-0.128-0.258
		c-0.023-0.079-0.056-0.155-0.097-0.225C80.549,51.655,77.964,48.839,74.17,48.813z M65.093,62.281
		c0.295,0.43,0.611,0.957,0.775,1.292c0.182,0.369,0.153,0.576,0.162,0.549c0.008-0.026,0.039,0.091-0.517,0.226
		c-0.022,0-0.043,0-0.065,0c-0.868,0.287-1.614,0.874-2.067,1.679c-0.452,0.805-0.548,1.93,0,2.875
		c0.674,1.135,1.889,1.48,2.875,1.517c0.985,0.038,1.917-0.096,2.487-0.032c0.032,0.002,0.064,0.002,0.097,0l5.749-0.032
		c-0.475,0.318-0.967,0.605-1.389,1.066c-0.037,0.051-0.07,0.104-0.097,0.161c-0.665,1.146-0.404,2.401,0.033,3.295
		s1.007,1.648,1.227,2.196c0.009,0.033,0.02,0.065,0.032,0.097l0.647,1.195c-0.179-0.116-0.301-0.282-0.517-0.356
		c-0.007-0.002,0.006-0.03,0-0.032c-0.011-0.004-0.022,0.003-0.033,0c-0.969-0.341-1.964-0.06-2.648,0.452
		c-0.659,0.493-1.076,1.175-1.357,1.874l-0.032-0.032l-3.133,5.651c0.005-0.893,0.087-1.72-0.065-2.648
		c-0.014-0.067-0.036-0.132-0.064-0.194c-0.261-0.622-0.72-1.136-1.228-1.421c-0.506-0.285-1.018-0.355-1.517-0.388
		c-0.999-0.066-1.964,0.093-2.552,0.065c-0.022-0.001-0.043-0.001-0.065,0l-3.326,0.096c0.257-0.123,0.521-0.199,0.742-0.42
		l0.033,0.033c0.019-0.019,0.013-0.048,0.032-0.065c0.807-0.772,0.989-1.904,0.775-2.777c-0.213-0.869-0.709-1.562-1.196-2.132
		h0.033c-0.018-0.025-0.048-0.04-0.065-0.065c-1.892-2.708-3.715-5.518-5.684-8.235c1.566,0.989,3.103,1.99,4.716,2.906
		c0.06,0.04,0.125,0.072,0.193,0.097c1.184,0.334,2.303-0.203,2.939-0.904c0.625-0.689,0.975-1.504,1.26-2.132l0.032-0.032
		L65.093,62.281z M76.462,80.95l0.389,0.71h-0.356C76.496,81.429,76.481,81.205,76.462,80.95z M55.211,81.175
		c0.239,0.124,0.464,0.214,0.743,0.323L55.05,81.53L55.211,81.175z"/>
	<path opacity="0.1" fill="#FFFFFF" enable-background="new    " d="M74.181,49.737c-4.81,0.049-9.635-0.056-14.435,0.087
		c-1.405,1.432-3.163,0.183-5,0.671c-1.475,0.079-2.79,0.821-3.4,2.176c-1.702,2.642-3.559,5.201-5.169,7.893
		c-0.537,1.582,1.027,2.501,2.191,3.14c3.331,2.03,6.583,4.235,9.963,6.157c1.705,0.481,2.531-1.281,3.102-2.537
		c1.199-2.311,2.398-4.621,3.597-6.932c0.651,1.637,3.597,4.169,0.718,4.873c-1.274,0.422-2.313,1.846-1.555,3.152
		c0.968,1.634,3.087,0.859,4.632,1.033c3.018-0.007,6.035-0.014,9.052-0.022c-1.293,0.917-2.883,1.484-3.955,2.656
		c-0.961,1.656,0.74,3.165,1.33,4.631c1.058,1.949,2.116,3.898,3.174,5.848c-0.944,0.01-1.886,0.02-2.83,0.029
		c-0.009-1.323,0.217-3.183-1.385-3.695c-1.354-0.495-2.47,0.655-2.911,1.829c-1.619,2.903-3.236,5.805-4.855,8.709
		c-0.078-1.997,0.206-4.041-0.116-6.006c-0.763-1.813-2.946-1.097-4.464-1.168c-2.784,0.082-5.57,0.163-8.355,0.245
		c0.424-0.857,0.847-1.714,1.271-2.569c1.165,0.603,2.717,1.617,3.869,0.404c1.204-1.086,0.357-2.736-0.505-3.731
		c-2.09-2.986-4.063-6.086-6.222-9.001c-1.261-0.97-2.956-0.225-4.409-0.33c-3.07,0.207-6.16,0.254-9.217,0.56
		c-1.83,0.484-1.839,3.351-0.009,3.864c0.599,0.469,2.27,0.571,1.337,1.564c-2.309,4.192-2.11,9.562,0.659,13.492
		c2.105,3.209,4.657,6.14,7.078,9.085c2.112,0.106,2.67,1.74,4.503,2.8c1.996,0.383,4.089,0.073,6.124,0.174
		c2.315-0.056,4.657,0.112,6.955-0.087c1.853-0.5,1.401-2.671,1.459-4.123c-0.043-1.184-0.056-2.246,0.631-0.622
		c1.733,2.931,3.285,5.992,5.126,8.845c1.246,1.356,3.717,0.088,3.41-1.716c0.01-1.073-0.314-2.473,1.274-1.958
		c4.628,0.062,9.099-2.523,11.304-6.6c1.941-3.341,3.444-6.937,5.001-10.455c-0.67-1.77,0.023-2.805,0.551-4.657
		c-0.019-1.617-1.237-2.923-1.808-4.393c-1.349-2.601-2.578-5.289-3.998-7.839c-0.931-1.054-2.408-0.613-3.345,0.164
		c-1.272,0.763-2.544,1.527-3.815,2.289c1.876-3.362,3.823-6.699,5.658-10.076c0.666-1.743-1.647-3.424-3.088-2.252
		c-0.894,0.887-1.568,0.857-1.944-0.41C79.806,52.281,77.504,49.76,74.181,49.737z"/>
	<path opacity="0.2" fill="#FFFFFF" enable-background="new    " d="M74.239,50.835l-13.944,0.029
		c-0.342-0.001-0.656,0.189-0.814,0.493s-0.133,0.671,0.064,0.95c-0.933-0.462-1.943-0.813-3.118-0.837
		c-0.962-0.019-2.01,0.136-3.118,0.549c-0.177,0.068-0.328,0.189-0.433,0.346l-5.514,8.286c-0.144,0.205-0.197,0.46-0.148,0.705
		c0.049,0.246,0.196,0.46,0.407,0.594l10.739,6.727c0.216,0.135,0.479,0.176,0.726,0.111c0.247-0.066,0.455-0.232,0.574-0.458
		l5.197-9.989c0.062-0.106,0.101-0.224,0.116-0.346c1.513,2.198,2.784,4.64,3.782,6.9l-3.204,1.732
		c-0.38,0.194-0.577,0.624-0.473,1.039c0.104,0.413,0.48,0.702,0.906,0.693L78.57,68.33c0.333,0.005,0.643-0.172,0.808-0.462
		l5.86-10.393c0.235-0.368,0.176-0.852-0.141-1.152c-0.315-0.302-0.801-0.339-1.159-0.089l-2.281,1.444l-1.53-2.685
		c-0.019-0.02-0.037-0.039-0.058-0.058c-0.681-1.023-1.367-1.968-2.281-2.713c-0.913-0.746-2.046-1.259-3.464-1.386
		C74.296,50.833,74.268,50.833,74.239,50.835z M86.336,65.674c-0.134,0.021-0.263,0.069-0.375,0.145l-10.798,6.554
		c-0.419,0.248-0.572,0.78-0.346,1.212l5.341,9.844c0.045,0.086,0.103,0.164,0.174,0.232L74.5,83.69l-0.03-2.86
		c0.008-0.426-0.28-0.802-0.694-0.905s-0.844,0.093-1.039,0.472l-5.774,10.336c-0.155,0.278-0.155,0.617,0,0.895l5.774,10.162
		c0.195,0.387,0.635,0.583,1.053,0.471c0.419-0.112,0.702-0.501,0.679-0.933l0.029-3.262h1.877c4.767-0.002,7.749-1.801,9.873-4.678
		c2.124-2.875,3.543-6.728,5.716-11.173c0.184-0.361,0.11-0.8-0.184-1.079c-0.292-0.28-0.735-0.334-1.086-0.133
		c1.105-1.165,1.999-2.501,1.905-3.984c-0.014-0.122-0.054-0.24-0.116-0.346l-5.253-10.48
		C87.067,65.852,86.712,65.646,86.336,65.674z M50.536,68.215L38.844,68.85c-0.41,0.03-0.751,0.33-0.832,0.735
		c-0.082,0.404,0.118,0.812,0.486,0.997l2.945,1.473l-0.837,1.703c-2.124,4.266-1.854,7.752-0.23,10.942
		c1.624,3.189,4.439,6.148,7.449,10.075c0.286,0.351,0.787,0.441,1.177,0.21c0.39-0.232,0.552-0.713,0.381-1.134
		c-0.054-0.123-0.04-0.251-0.087-0.375c0.532,1.796,1.443,3.487,3.031,4.158c0.109,0.051,0.226,0.081,0.346,0.086h11.692
		c0.246,0.002,0.483-0.094,0.656-0.268c0.174-0.174,0.27-0.41,0.268-0.655l0.087-12.587c0.002-0.251-0.098-0.492-0.278-0.667
		s-0.424-0.268-0.675-0.257L52.096,83.66c-0.164,0.006-0.323,0.056-0.462,0.145l2.656-5.341l2.569,1.27
		c0.37,0.172,0.808,0.078,1.076-0.23c0.268-0.307,0.3-0.754,0.079-1.098l-6.668-9.787C51.165,68.351,50.859,68.197,50.536,68.215z
		 M48.862,90.906c0.032,0.64,0.132,1.289,0.289,1.935C48.983,92.2,48.835,91.566,48.862,90.906z"/>
	<path opacity="0.3" fill="#669CCC" enable-background="new    " d="M74.239,51.759l-13.944,0.029
		c1.52,0.908,3.506,2.952,5.168,5.282c1.856,2.605,3.364,5.61,4.475,8.228l-3.955,2.136l12.587-0.029l5.86-10.393l-3.118,1.964
		l-1.992-3.522C77.99,53.454,76.748,51.984,74.239,51.759z M56.397,52.394c-0.854-0.017-1.767,0.117-2.772,0.491l-5.514,8.286
		l10.739,6.726l5.197-9.989C62.457,55.703,60.094,52.467,56.397,52.394z M86.421,66.597l-10.797,6.554l5.341,9.844l4.302,0.058
		c2.514,0.028,6.568-3.468,6.409-5.976L86.421,66.597z M50.594,69.138l-11.692,0.636l3.754,1.877l-1.242,2.511
		c-4.059,8.153,1.052,12.132,7.131,20.064c-0.869-1.969-0.819-4.079-0.058-6.12l5.399-10.855l3.378,1.674L50.594,69.138z
		 M73.546,80.83l-5.773,10.336l5.773,10.162l0.029-4.186h2.801c9.108-0.004,10.362-6.352,14.753-15.33
		c-1.376,1.656-3.262,2.542-5.428,2.772l-12.125,0.029L73.546,80.83z M64.452,84.209l-12.327,0.375l-1.964,3.811
		c-1.145,2.238,0.196,7.424,2.511,8.402h11.692L64.452,84.209z"/>
	<path opacity="0.3" fill="#669CCC" enable-background="new    " d="M74.239,51.759l-13.944,0.029
		c1.52,0.908,3.506,2.952,5.168,5.282c1.856,2.605,3.364,5.61,4.475,8.228l-3.955,2.136l12.587-0.029l5.86-10.392l-3.118,1.963
		l-1.992-3.522C77.99,53.454,76.748,51.984,74.239,51.759z M56.397,52.394c-0.854-0.017-1.767,0.117-2.772,0.491l-5.514,8.286
		l10.739,6.726l5.197-9.989C62.457,55.703,60.094,52.467,56.397,52.394z M74.094,53.52c0.941,0.084,1.467,0.327,2.021,0.779
		c0.555,0.453,1.098,1.18,1.732,2.136l1.935,3.407c0.157,0.277,0.387,0.506,0.664,0.664l-2.916,5.14l-5.86,0.028
		c0.073-0.359,0.033-0.733-0.116-1.068c-1.145-2.7-2.682-5.787-4.648-8.545c-0.656-0.92-1.375-1.718-2.079-2.511L74.094,53.52z
		 M56.368,54.155c2.346,0.047,4.094,2.029,5.572,3.984l-3.753,7.246l-7.593-4.735l4.129-6.207
		C55.301,54.282,55.872,54.145,56.368,54.155z M86.421,66.597l-10.797,6.554l5.341,9.844l4.302,0.058
		c2.514,0.028,6.568-3.468,6.409-5.976L86.421,66.597z M85.7,69.11l4.157,8.256c-0.074,0.39-0.569,1.444-1.559,2.339
		c-1.081,0.979-2.572,1.593-3.002,1.588l-3.262-0.057l-4.042-7.449L85.7,69.11z M50.594,69.138l-11.692,0.636l3.754,1.877
		l-1.242,2.511c-4.059,8.153,1.052,12.132,7.131,20.065c-0.869-1.97-0.819-4.079-0.058-6.121l5.399-10.855l3.378,1.674
		L50.594,69.138z M49.728,70.957l3.263,4.792c-0.297,0.168-0.536,0.42-0.694,0.722l-5.398,10.854
		c-0.023,0.057-0.041,0.115-0.058,0.174c-0.171,0.457-0.151,0.943-0.259,1.415c-1.609-2.009-3.023-3.824-3.841-5.428
		c-1.35-2.651-1.586-4.835,0.26-8.545l1.241-2.511c0.184-0.366,0.236-0.784,0.145-1.183L49.728,70.957z M73.546,80.83l-5.773,10.336
		l5.773,10.162l0.029-4.186h2.801c9.108-0.004,10.362-6.352,14.753-15.33c-1.376,1.656-3.262,2.542-5.428,2.772l-12.125,0.029
		L73.546,80.83z M64.452,84.209l-12.327,0.375l-1.964,3.811c-1.145,2.238,0.196,7.425,2.511,8.402h11.692L64.452,84.209z
		 M87.259,85.941c-1.077,2.334-2.079,4.415-3.146,5.86c-1.765,2.39-3.593,3.578-7.737,3.58h-2.801c-0.425,0-0.834,0.154-1.154,0.433
		l-2.627-4.648l2.829-5.082c0.283,0.186,0.614,0.286,0.953,0.289L85.7,86.345c0.058,0.002,0.116,0.002,0.174,0
		C86.356,86.294,86.79,86.054,87.259,85.941z M62.69,86.027l-0.087,9.008H53.25c-0.316-0.242-1.079-1.169-1.444-2.455
		c-0.398-1.405-0.28-2.998-0.086-3.378l1.501-2.887L62.69,86.027z"/>
	<path opacity="0.3" fill="#669CCC" enable-background="new    " d="M74.239,51.759l-13.944,0.029
		c1.52,0.908,3.506,2.952,5.168,5.282c1.856,2.605,3.364,5.61,4.475,8.228l-3.955,2.136l12.587-0.029l5.86-10.393l-3.118,1.964
		l-1.992-3.522C77.99,53.454,76.748,51.984,74.239,51.759z M56.397,52.394c-0.854-0.017-1.767,0.117-2.772,0.491l-5.514,8.286
		l10.739,6.726l5.197-9.989C62.457,55.703,60.094,52.467,56.397,52.394z M74.152,52.654c1.092,0.097,1.814,0.435,2.483,0.981
		c0.654,0.535,1.271,1.303,1.906,2.252l0.029,0.058l1.963,3.464c0.118,0.219,0.32,0.38,0.561,0.445
		c0.24,0.065,0.496,0.03,0.709-0.099l0.087-0.058l-3.84,6.814l-8.46,0.029l0.78-0.433c0.412-0.222,0.587-0.722,0.404-1.154
		c-1.129-2.66-2.649-5.718-4.562-8.401c-1.08-1.516-2.269-2.787-3.435-3.869L74.152,52.654z M56.368,53.289
		c2.983,0.06,5.023,2.602,6.583,4.735l-4.446,8.574l-9.123-5.715l4.792-7.189C54.972,53.426,55.693,53.275,56.368,53.289z
		 M86.421,66.597l-10.797,6.554l5.341,9.844l4.302,0.058c2.514,0.028,6.568-3.468,6.409-5.976L86.421,66.597z M86.046,67.868
		l4.706,9.383c-0.013,0.759-0.731,2.052-1.876,3.089c-1.192,1.078-2.779,1.827-3.609,1.818l-3.753-0.057l-4.677-8.633L86.046,67.868
		z M50.594,69.138l-11.692,0.636l3.754,1.877l-1.242,2.511c-4.059,8.153,1.052,12.132,7.131,20.064
		c-0.869-1.969-0.819-4.079-0.058-6.12l5.399-10.855l3.378,1.674L50.594,69.138z M50.132,70.062l4.417,6.525l-0.259-0.144
		c-0.446-0.221-0.988-0.04-1.212,0.404l-5.399,10.855c-0.011,0.028-0.021,0.057-0.029,0.086c-0.375,1.008-0.571,2.047-0.607,3.089
		c-2.097-2.603-3.992-4.932-5.052-7.016c-1.437-2.823-1.704-5.408,0.232-9.296l1.241-2.511c0.22-0.446,0.039-0.988-0.404-1.212
		l-0.722-0.347L50.132,70.062z M73.546,80.83l-5.773,10.336l5.773,10.162l0.029-4.186h2.801c9.108-0.004,10.362-6.352,14.753-15.33
		c-1.376,1.656-3.262,2.542-5.428,2.772l-12.125,0.029L73.546,80.83z M64.452,84.209l-12.327,0.375l-1.964,3.811
		c-1.145,2.238,0.196,7.424,2.511,8.402h11.692L64.452,84.209z M72.68,84.209v0.404c0.007,0.491,0.404,0.887,0.895,0.895
		L85.7,85.479c0.029,0.001,0.058,0.001,0.087,0c1.075-0.114,2.083-0.431,3.031-0.866c-1.402,3.058-2.649,5.792-4.042,7.679
		c-1.879,2.545-4.058,3.953-8.401,3.955h-2.801c-0.491,0.007-0.888,0.404-0.895,0.895v0.808l-3.869-6.813L72.68,84.209z
		 M63.557,85.133L63.47,95.901H52.962c-0.678-0.333-1.536-1.583-1.964-3.089c-0.438-1.547-0.406-3.276-0.029-4.013l1.732-3.349
		L63.557,85.133z"/>
</g>
<g id="g27_1_">
	
		<linearGradient id="path36_2_" gradientUnits="userSpaceOnUse" x1="696.7643" y1="-1055.7594" x2="712.6021" y2="-1083.191" gradientTransform="matrix(1 0 0 -1 -686 -1053)">
		<stop  offset="0" style="stop-color:#FFFFFF"/>
		<stop  offset="0.5" style="stop-color:#FFFFFF;stop-opacity:0.6"/>
		<stop  offset="1" style="stop-color:#FFFFFF;stop-opacity:0.15"/>
	</linearGradient>
	<path id="path36_1_" fill="url(#path36_2_)" d="M23.823,34.852c1.771-3.665,3.932-7.099,6.411-10.274l-4.511-9.892
		c-3.853,3.642-6.98,7.655-9.476,11.552L23.823,34.852z"/>
	
		<linearGradient id="path45_2_" gradientUnits="userSpaceOnUse" x1="711.1246" y1="-1051.6516" x2="721.4895" y2="-1069.6047" gradientTransform="matrix(1 0 0 -1 -686 -1053)">
		<stop  offset="0" style="stop-color:#FFFFFF"/>
		<stop  offset="0.5" style="stop-color:#FFFFFF;stop-opacity:0.6"/>
		<stop  offset="1" style="stop-color:#FFFFFF;stop-opacity:0.15"/>
	</linearGradient>
	<path id="path45_1_" fill="url(#path45_2_)" d="M24.292,5.178l2.358,5.167c2.269-1.884,4.756-2.532,7.468-5.167L24.292,5.178z"/>
	
		<linearGradient id="path54_2_" gradientUnits="userSpaceOnUse" x1="714.3847" y1="-1048.2424" x2="727.0488" y2="-1070.1774" gradientTransform="matrix(1 0 0 -1 -686 -1053)">
		<stop  offset="0" style="stop-color:#FFFFFF"/>
		<stop  offset="0.5" style="stop-color:#FFFFFF;stop-opacity:0.6"/>
		<stop  offset="1" style="stop-color:#FFFFFF;stop-opacity:0.15"/>
	</linearGradient>
	<path id="path54_1_" fill="url(#path54_2_)" d="M41.987,5.178h-1.866c-4.704,2.635-8.817,4.646-12.346,7.65l4.324,9.486
		c3.694-4.266,7.979-8.005,12.778-11.025c0.037-0.034,0.063-0.063,0.103-0.097C50.358,6.549,45.017,5.178,41.987,5.178z"/>
	
		<linearGradient id="path63_2_" gradientUnits="userSpaceOnUse" x1="687.8759" y1="-1068.2646" x2="701.6191" y2="-1092.0684" gradientTransform="matrix(1 0 0 -1 -686 -1053)">
		<stop  offset="0" style="stop-color:#FFFFFF"/>
		<stop  offset="0.5" style="stop-color:#FFFFFF;stop-opacity:0.6"/>
		<stop  offset="1" style="stop-color:#FFFFFF;stop-opacity:0.15"/>
	</linearGradient>
	<path id="path63_1_" fill="url(#path63_2_)" d="M14.808,28.591c-2.893,4.925-4.783,9.476-5.905,12.588
		c1.328,1.895,3.523,3.138,6.013,3.138c3.083,0,5.716-1.905,6.807-4.596c0.279-0.751,0.619-1.473,0.93-2.213L14.808,28.591z"/>
	
		<linearGradient id="path72_2_" gradientUnits="userSpaceOnUse" x1="687.2581" y1="-1069.2399" x2="702.4891" y2="-1095.6207" gradientTransform="matrix(1 0 0 -1 -686 -1053)">
		<stop  offset="0" style="stop-color:#FFFFFF"/>
		<stop  offset="0.5" style="stop-color:#FFFFFF;stop-opacity:0.6"/>
		<stop  offset="1" style="stop-color:#FFFFFF;stop-opacity:0.15"/>
	</linearGradient>
	<path id="path72_1_" fill="url(#path72_2_)" d="M7.627,20.42L7.569,36.958c0,0,0,0.005,0,0.011c0,0.103,0.026,0.2,0.032,0.303
		c1.257-3.059,3.012-6.799,5.394-10.749L7.627,20.42z"/>
	
		<linearGradient id="path149_2_" gradientUnits="userSpaceOnUse" x1="698.7764" y1="-1060.978" x2="713.0781" y2="-1085.7493" gradientTransform="matrix(1 0 0 -1 -686 -1053)">
		<stop  offset="0" style="stop-color:#FFFFFF"/>
		<stop  offset="0.5" style="stop-color:#FFFFFF;stop-opacity:0.6"/>
		<stop  offset="1" style="stop-color:#FFFFFF;stop-opacity:0.15"/>
	</linearGradient>
	<path id="path149_1_" fill="url(#path149_2_)" d="M21.151,5.21C15.778,4.763,8.702,10.817,7.793,16.62l6.667,7.581
		c2.661-4.061,5.971-8.222,10.053-11.979L21.151,5.21z"/>
</g>
</svg>
