<?xml version="1.0" encoding="utf-8"?>
<!-- Generator: Adobe Illustrator 17.0.0, SVG Export Plug-In . SVG Version: 6.00 Build 0)  -->
<!DOCTYPE svg PUBLIC "-//W3C//DTD SVG 1.1//EN" "http://www.w3.org/Graphics/SVG/1.1/DTD/svg11.dtd">
<svg version="1.1" id="图层_1" xmlns="http://www.w3.org/2000/svg" xmlns:xlink="http://www.w3.org/1999/xlink" x="0px" y="0px"
	 width="16px" height="16px" viewBox="0 0 16 16" enable-background="new 0 0 16 16" xml:space="preserve">
<path fill="#DCDCDC" d="M8.592,1.472c-3.605,0-6.527,2.922-6.527,6.527H0.878L1.916,9.78l1.039,1.781L3.996,9.78l1.038-1.781H3.847
	c0-2.622,2.125-4.747,4.746-4.747c2.622,0,4.747,2.126,4.747,4.747c0,2.622-2.125,4.747-4.747,4.747
	c-0.865,0-1.674-0.234-2.372-0.64l-0.892,1.548c0.961,0.554,2.078,0.872,3.265,0.872c3.605,0,6.528-2.922,6.528-6.528
	C15.12,4.394,12.197,1.472,8.592,1.472z"/>
<polygon fill="#DCDCDC" points="9,8 9,5 8,5 8,8 8,9 9,9 13,9 13,8 "/>
</svg>
