<?xml version="1.0" encoding="utf-8"?>
<!-- Generator: Adobe Illustrator 17.0.0, SVG Export Plug-In . SVG Version: 6.00 Build 0)  -->
<!DOCTYPE svg PUBLIC "-//W3C//DTD SVG 1.1//EN" "http://www.w3.org/Graphics/SVG/1.1/DTD/svg11.dtd">
<svg version="1.1"
	 id="svg2" xmlns:dc="http://purl.org/dc/elements/1.1/" xmlns:cc="http://creativecommons.org/ns#" xmlns:rdf="http://www.w3.org/1999/02/22-rdf-syntax-ns#" xmlns:svg="http://www.w3.org/2000/svg" xmlns:sodipodi="http://sodipodi.sourceforge.net/DTD/sodipodi-0.dtd" xmlns:inkscape="http://www.inkscape.org/namespaces/inkscape" sodipodi:docname="edit-find-symbolic.svg" inkscape:version="0.48+devel r12660" inkscape:output_extension="org.inkscape.output.svg.inkscape" sodipodi:modified="true" inkscape:export-ydpi="90" inkscape:export-filename="/home/matt/.icons/Sirocco/scalable/mimetypes/text-plain.png" sodipodi:version="0.32" inkscape:export-xdpi="90"
	 xmlns="http://www.w3.org/2000/svg" xmlns:xlink="http://www.w3.org/1999/xlink" x="0px" y="0px" width="16px" height="16px"
	 viewBox="0 0 16 16" enable-background="new 0 0 16 16" xml:space="preserve">
<sodipodi:namedview  showguides="true" showgrid="false" inkscape:cy="8.3332085" inkscape:cx="11.715537" inkscape:zoom="25.956438" borderopacity="1.0" bordercolor="#666666" pagecolor="#ffffff" id="base" inkscape:window-maximized="1" inkscape:window-y="30" inkscape:window-x="0" inkscape:window-height="714" inkscape:window-width="1366" inkscape:current-layer="layer1" inkscape:document-units="px" inkscape:pageopacity="0.0" inkscape:pageshadow="2" width="128px" height="128px" inkscape:showpageshadow="false" inkscape:guide-bbox="true">
	<inkscape:grid  visible="true" enabled="true" id="grid3231" type="xygrid"></inkscape:grid>
</sodipodi:namedview>
<g id="layer1" inkscape:label="Calque 1" inkscape:groupmode="layer">
	<path id="path3296" inkscape:connector-curvature="0" fill="#DCDCDC" d="M5.798,2C4.804,2,3.815,2.41,3.112,3.113S2,4.805,2,5.8
		s0.409,1.983,1.112,2.687S4.804,9.6,5.798,9.6c0.995,0,1.984-0.41,2.688-1.113S9.6,6.795,9.6,5.8S9.19,3.817,8.486,3.113
		S6.793,2,5.798,2z M5.799,3.6C6.951,3.6,8,4.648,8,5.8S6.951,8,5.799,8S3.6,6.952,3.6,5.8S4.647,3.6,5.799,3.6L5.799,3.6z"/>
	
		<rect id="rect3302" x="11" y="9.488" transform="matrix(0.7071 -0.7071 0.7071 0.7071 -4.8875 11.7996)" fill="#DCDCDC" width="1.6" height="4.623"/>
</g>
</svg>
