<?xml version="1.0" encoding="utf-8"?>
<!-- Generator: Adobe Illustrator 17.0.0, SVG Export Plug-In . SVG Version: 6.00 Build 0)  -->
<!DOCTYPE svg PUBLIC "-//W3C//DTD SVG 1.1//EN" "http://www.w3.org/Graphics/SVG/1.1/DTD/svg11.dtd">
<svg version="1.1" id="图层_1" xmlns="http://www.w3.org/2000/svg" xmlns:xlink="http://www.w3.org/1999/xlink" x="0px" y="0px"
	 width="24px" height="24px" viewBox="0 0 24 24" enable-background="new 0 0 24 24" xml:space="preserve">
<path fill="#C4DCED" stroke="#9DBCD7" stroke-miterlimit="10" d="M22.942,20.079c0,1.595-1.293,2.888-2.888,2.888H3.896
	c-1.595,0-2.888-1.293-2.888-2.888V3.921c0-1.595,1.293-2.888,2.888-2.888h16.159c1.595,0,2.888,1.293,2.888,2.888L22.942,20.079
	L22.942,20.079z"/>
<path opacity="0.6" fill="none" stroke="#FFFFFF" stroke-miterlimit="10" enable-background="new    " d="M3.896,21.967
	c-1.041,0-1.888-0.847-1.888-1.888V3.921c0-1.041,0.847-1.888,1.888-1.888h16.159c1.041,0,1.888,0.847,1.888,1.888v16.158
	c-0.001,1.041-0.848,1.888-1.889,1.888C20.054,21.967,3.896,21.967,3.896,21.967z"/>
<path opacity="0.05" fill="none" stroke="#000000" stroke-width="0.3786" stroke-miterlimit="10" enable-background="new    " d="
	M23.02,7.276c0,0,0-0.97-0.958-0.97c-2.782,0-11.663,0.002-12.458,0.002c-0.966,0-0.958-0.956-0.958-0.956s0-0.963-0.958-0.963
	c-1.678,0-5.038,0-5.75,0c-0.943,0-0.958,0.928-0.958,0.957"/>
<linearGradient id="SVGID_1_" gradientUnits="userSpaceOnUse" x1="1381.974" y1="-1687.967" x2="1381.974" y2="-1669.882" gradientTransform="matrix(1 0 0 -1 -1370 -1665)">
	<stop  offset="0" style="stop-color:#D1E0ED"/>
	<stop  offset="1" style="stop-color:#E4EEFB"/>
</linearGradient>
<path fill="url(#SVGID_1_)" stroke="#9DBCD7" stroke-miterlimit="10" d="M3.889,22.967h16.219c1.595,0,2.833-1.326,2.833-2.92V7.098
	c0-0.227-0.34-0.441-0.792-0.441c-2.794,0-11.7,0.002-12.499,0.002c-0.97,0-0.956-0.885-0.956-0.885s0.007-0.892-0.956-0.892
	c-1.685,0-5.06,0-5.775,0c-0.948,0-0.956,0.786-0.956,0.815v14.35C1.008,21.641,2.295,22.967,3.889,22.967z"/>
<path opacity="0.8" fill="none" stroke="#FFFFFF" stroke-miterlimit="10" enable-background="new    " d="M3.889,21.967
	c-1.037,0-1.881-0.862-1.881-1.921V5.889l5.688-0.007c0.016,0.225,0.098,0.777,0.537,1.224C8.481,7.358,8.929,7.659,9.65,7.659
	l12.291-0.001v12.389c0,1.06-0.822,1.921-1.833,1.921L3.889,21.967L3.889,21.967z"/>
<g id="g27_1_">
	
		<linearGradient id="path36_2_" gradientUnits="userSpaceOnUse" x1="1784.3451" y1="-2484.1682" x2="1787.3922" y2="-2489.446" gradientTransform="matrix(1 0 0 -1 -1782 -2483)">
		<stop  offset="0" style="stop-color:#FFFFFF"/>
		<stop  offset="0.5" style="stop-color:#FFFFFF;stop-opacity:0.6"/>
		<stop  offset="1" style="stop-color:#FFFFFF;stop-opacity:0.15"/>
	</linearGradient>
	<path id="path36_1_" fill="url(#path36_2_)" d="M4.858,7.342c0.341-0.705,0.756-1.366,1.233-1.977L5.223,3.462
		C4.482,4.163,3.88,4.935,3.4,5.685L4.858,7.342z"/>
	
		<linearGradient id="path45_2_" gradientUnits="userSpaceOnUse" x1="1787.1091" y1="-2483.3772" x2="1789.1033" y2="-2486.8313" gradientTransform="matrix(1 0 0 -1 -1782 -2483)">
		<stop  offset="0" style="stop-color:#FFFFFF"/>
		<stop  offset="0.5" style="stop-color:#FFFFFF;stop-opacity:0.6"/>
		<stop  offset="1" style="stop-color:#FFFFFF;stop-opacity:0.15"/>
	</linearGradient>
	<path id="path45_1_" fill="url(#path45_2_)" d="M4.949,1.633l0.454,0.994C5.84,2.265,6.318,2.14,6.84,1.633H4.949z"/>
	
		<linearGradient id="path54_2_" gradientUnits="userSpaceOnUse" x1="1787.736" y1="-2482.7214" x2="1790.1725" y2="-2486.9417" gradientTransform="matrix(1 0 0 -1 -1782 -2483)">
		<stop  offset="0" style="stop-color:#FFFFFF"/>
		<stop  offset="0.5" style="stop-color:#FFFFFF;stop-opacity:0.6"/>
		<stop  offset="1" style="stop-color:#FFFFFF;stop-opacity:0.15"/>
	</linearGradient>
	<path id="path54_1_" fill="url(#path54_2_)" d="M8.353,1.633H7.994C7.089,2.14,6.298,2.527,5.619,3.105L6.451,4.93
		C7.162,4.109,7.986,3.39,8.91,2.809C8.917,2.803,8.922,2.797,8.93,2.79C9.964,1.897,8.936,1.633,8.353,1.633z"/>
	
		<linearGradient id="path63_2_" gradientUnits="userSpaceOnUse" x1="1782.6355" y1="-2486.5737" x2="1785.2798" y2="-2491.1538" gradientTransform="matrix(1 0 0 -1 -1782 -2483)">
		<stop  offset="0" style="stop-color:#FFFFFF"/>
		<stop  offset="0.5" style="stop-color:#FFFFFF;stop-opacity:0.6"/>
		<stop  offset="1" style="stop-color:#FFFFFF;stop-opacity:0.15"/>
	</linearGradient>
	<path id="path63_1_" fill="url(#path63_2_)" d="M3.124,6.138C2.567,7.086,2.204,7.961,1.988,8.56
		c0.256,0.365,0.678,0.604,1.157,0.604c0.593,0,1.1-0.366,1.31-0.884c0.054-0.145,0.119-0.284,0.179-0.426L3.124,6.138z"/>
	
		<linearGradient id="path72_2_" gradientUnits="userSpaceOnUse" x1="1782.5165" y1="-2486.7615" x2="1785.4468" y2="-2491.8372" gradientTransform="matrix(1 0 0 -1 -1782 -2483)">
		<stop  offset="0" style="stop-color:#FFFFFF"/>
		<stop  offset="0.5" style="stop-color:#FFFFFF;stop-opacity:0.6"/>
		<stop  offset="1" style="stop-color:#FFFFFF;stop-opacity:0.15"/>
	</linearGradient>
	<path id="path72_1_" fill="url(#path72_2_)" d="M1.742,4.566L1.731,7.748c0,0,0,0.001,0,0.002c0,0.02,0.005,0.039,0.006,0.058
		C1.979,7.219,2.317,6.5,2.775,5.74L1.742,4.566z"/>
	
		<linearGradient id="path149_2_" gradientUnits="userSpaceOnUse" x1="1784.7327" y1="-2485.1721" x2="1787.4844" y2="-2489.938" gradientTransform="matrix(1 0 0 -1 -1782 -2483)">
		<stop  offset="0" style="stop-color:#FFFFFF"/>
		<stop  offset="0.5" style="stop-color:#FFFFFF;stop-opacity:0.6"/>
		<stop  offset="1" style="stop-color:#FFFFFF;stop-opacity:0.15"/>
	</linearGradient>
	<path id="path149_1_" fill="url(#path149_2_)" d="M4.344,1.639C3.31,1.553,1.949,2.718,1.774,3.834l1.283,1.459
		c0.512-0.781,1.149-1.582,1.934-2.305L4.344,1.639z"/>
</g>
<g>
	<g opacity="0.3" enable-background="new    ">
		<g>
			<rect x="3.816" y="9.95" fill="#FFFFFF" width="16.367" height="10.08"/>
		</g>
		<g>
			<rect x="3.816" y="9.512" fill="#669CCC" width="16.367" height="10.08"/>
		</g>
	</g>
	<path opacity="0.3" fill="#669CCC" enable-background="new    " d="M3.816,9.512v10.08h16.367V9.512H3.816z M20.076,19.484H3.925
		V9.62h16.15L20.076,19.484L20.076,19.484z"/>
	<path opacity="0.3" fill="#669CCC" enable-background="new    " d="M3.816,9.512v10.08h16.367V9.512H3.816z M19.967,19.376H4.033
		V9.729h15.934V19.376z"/>
	<rect x="16.824" y="9.512" opacity="0.3" fill="#669CCC" enable-background="new    " width="3.36" height="10.08"/>
	<path opacity="0.3" fill="#669CCC" enable-background="new    " d="M16.824,9.512v10.08h3.36V9.512H16.824z M19.967,19.376H17.04
		V9.729h2.926L19.967,19.376L19.967,19.376z"/>
	<polygon opacity="0.3" fill="#669CCC" enable-background="new    " points="15.691,18.816 8.309,18.816 8.092,19.592 
		15.909,19.592 	"/>
	<rect x="16.824" y="9.512" opacity="0.3" fill="#669CCC" enable-background="new    " width="0.109" height="10.08"/>
	<rect x="16.878" y="10.515" opacity="0.3" fill="#669CCC" enable-background="new    " width="3.306" height="0.109"/>
	<path opacity="0.3" fill="#669CCC" enable-background="new    " d="M17.675,9.819h-0.39c-0.05,0-0.092,0.041-0.092,0.092v0.39
		c0,0.05,0.041,0.092,0.092,0.092h0.39c0.05,0,0.092-0.041,0.092-0.092v-0.39C17.767,9.86,17.725,9.819,17.675,9.819z
		 M17.732,10.301c0,0.032-0.026,0.058-0.058,0.058h-0.282c0.049-0.025,0.15-0.084,0.208-0.166c0,0,0.082-0.117-0.049-0.231
		c0,0,0.034,0.053,0.035,0.106c0,0,0.009,0.071-0.054,0.114c-0.062,0.043-0.116,0.038-0.187,0.037
		c-0.058-0.001-0.103-0.018-0.118-0.025V9.91c0-0.023,0.014-0.042,0.033-0.052c0.005,0.115,0.053,0.214,0.084,0.247
		c0.031,0.034,0.077,0.07,0.136,0.055c0.059-0.015,0.071-0.079,0.071-0.079c0.013-0.055-0.006-0.121-0.007-0.122
		c-0.001-0.002-0.01-0.003-0.01-0.003c0.01,0.087-0.013,0.125-0.013,0.125c-0.033,0.068-0.082,0.047-0.082,0.047
		c-0.054-0.028-0.052-0.106-0.052-0.106c-0.003-0.081,0.038-0.156,0.046-0.17h0.137c-0.028,0.019-0.084,0.075-0.084,0.075
		c-0.079,0.074-0.064,0.136-0.064,0.136c0.013,0.066,0.052,0.021,0.052,0.021c0.041-0.043,0.038-0.129,0.038-0.129
		c-0.017,0.003-0.027,0.012-0.027,0.012c-0.002,0.058-0.036,0.092-0.036,0.092c-0.013,0.014-0.022,0.001-0.022,0.001
		c-0.007-0.01,0.007-0.018,0.007-0.018c0.019-0.017,0.025-0.045,0.025-0.057c-0.001-0.011,0.006-0.014,0.006-0.014
		c0.027-0.021,0.054-0.033,0.054-0.033c0.036-0.019,0.101-0.022,0.101-0.022c0.041,0.002,0.078-0.005,0.078-0.005l0.034-0.006
		c0,0.001,0.001,0.002,0.001,0.003L17.732,10.301L17.732,10.301L17.732,10.301z"/>
	<g opacity="0.3">
		<path opacity="0.5" fill="#669CCC" enable-background="new    " d="M17.696,9.9c-0.001,0-0.029,0.005-0.064,0.005
			c-0.004,0-0.008,0-0.011-0.001c-0.004,0.001-0.07,0.004-0.108,0.023c-0.001,0.001-0.007,0.003-0.016,0.008
			c0.008-0.008,0.057-0.056,0.081-0.072l0.037-0.025h-0.189l-0.004,0.007c-0.009,0.015-0.051,0.092-0.048,0.177
			c-0.001,0.003-0.002,0.086,0.059,0.117c0.002,0.001,0.011,0.005,0.024,0.005c0.018,0,0.052-0.008,0.076-0.058
			c0.001-0.001,0.002-0.004,0.004-0.009c-0.001,0.006-0.013,0.057-0.061,0.069c-0.008,0.002-0.016,0.003-0.024,0.003
			c-0.033,0-0.066-0.018-0.099-0.054c-0.029-0.032-0.075-0.129-0.08-0.238l-0.001-0.021l-0.019,0.009
			c-0.025,0.012-0.041,0.037-0.041,0.064v0.293l0.009,0.004c0.018,0.008,0.065,0.025,0.124,0.026l0.016,0.001
			c0.012,0.001,0.022,0.001,0.033,0.001c0.055,0,0.098-0.007,0.147-0.041c0.068-0.047,0.06-0.124,0.059-0.126
			c-0.001-0.009-0.001-0.018-0.003-0.026c0.037,0.078-0.006,0.141-0.008,0.144c-0.055,0.077-0.151,0.134-0.204,0.161l-0.05,0.026
			h0.339c0.039,0,0.071-0.032,0.071-0.071V9.91c0-0.002-0.001-0.003-0.001-0.004l-0.002-0.014L17.73,9.894L17.696,9.9z M17.732,9.91
			v0.39c0,0.032-0.026,0.058-0.058,0.058h-0.282c0.049-0.025,0.15-0.084,0.208-0.166c0,0,0.082-0.117-0.049-0.231
			c0,0,0.034,0.053,0.035,0.106c0,0,0.009,0.071-0.054,0.114c-0.062,0.043-0.116,0.038-0.187,0.037
			c-0.058-0.001-0.103-0.018-0.118-0.025V9.91c0-0.023,0.014-0.042,0.033-0.052c0.005,0.115,0.053,0.214,0.084,0.247
			c0.031,0.034,0.077,0.07,0.136,0.055c0.059-0.015,0.071-0.079,0.071-0.079c0.013-0.055-0.006-0.121-0.007-0.122
			c-0.001-0.002-0.01-0.003-0.01-0.003c0.01,0.087-0.013,0.125-0.013,0.125c-0.033,0.068-0.082,0.047-0.082,0.047
			c-0.054-0.028-0.052-0.106-0.052-0.106c-0.003-0.081,0.038-0.156,0.046-0.17h0.137c-0.028,0.019-0.084,0.075-0.084,0.075
			c-0.079,0.074-0.064,0.136-0.064,0.136c0.013,0.066,0.052,0.021,0.052,0.021c0.041-0.043,0.038-0.129,0.038-0.129
			c-0.017,0.003-0.027,0.012-0.027,0.012c-0.002,0.058-0.036,0.092-0.036,0.092c-0.013,0.014-0.022,0.001-0.022,0.001
			c-0.007-0.01,0.007-0.018,0.007-0.018c0.019-0.017,0.025-0.045,0.025-0.057c-0.001-0.011,0.006-0.014,0.006-0.014
			c0.027-0.021,0.054-0.033,0.054-0.033c0.036-0.019,0.101-0.022,0.101-0.022c0.041,0.002,0.078-0.005,0.078-0.005l0.034-0.006
			C17.732,9.909,17.732,9.91,17.732,9.91z M17.443,10.082c0.005-0.001,0.012-0.004,0.018-0.011c0.002-0.002,0.034-0.037,0.038-0.094
			l0,0c-0.002,0.026-0.008,0.073-0.034,0.099c-0.004,0.005-0.012,0.01-0.017,0.01C17.447,10.086,17.445,10.085,17.443,10.082z"/>
		<path opacity="0.5" fill="#669CCC" enable-background="new    " d="M17.675,9.819h-0.39c-0.05,0-0.092,0.041-0.092,0.092v0.39
			c0,0.05,0.041,0.092,0.092,0.092h0.39c0.05,0,0.092-0.041,0.092-0.092v-0.39C17.767,9.86,17.725,9.819,17.675,9.819z
			 M17.753,10.301c0,0.043-0.035,0.078-0.078,0.078h-0.39c-0.043,0-0.078-0.035-0.078-0.078v-0.39c0-0.043,0.035-0.078,0.078-0.078
			h0.39c0.043,0,0.078,0.035,0.078,0.078V10.301z"/>
	</g>
	<g opacity="0.3">
		<path opacity="0.5" fill="#669CCC" enable-background="new    " d="M17.422,10.057c0.002-0.024,0.013-0.068,0.065-0.116
			c0,0,0.056-0.056,0.084-0.075h-0.017c-0.029,0.024-0.067,0.062-0.067,0.062C17.423,9.987,17.42,10.039,17.422,10.057z"/>
		<path opacity="0.5" fill="#669CCC" enable-background="new    " d="M17.552,9.962c0,0,0.006,0.01,0.014,0.025
			c0.045,0.044,0.059,0.088,0.061,0.125C17.628,10.07,17.613,10.016,17.552,9.962z"/>
		<path opacity="0.5" fill="#669CCC" enable-background="new    " d="M17.544,9.959c-0.001-0.002-0.01-0.003-0.01-0.003
			c0.001,0.005,0.001,0.009,0.001,0.013c0.003,0.001,0.008,0.002,0.009,0.003c0.001,0.001,0.01,0.033,0.011,0.072
			C17.556,10,17.545,9.96,17.544,9.959z"/>
		<path opacity="0.5" fill="#669CCC" enable-background="new    " d="M17.388,10.021c0,0.001,0,0.002,0,0.003v-0.001
			C17.387,10.023,17.388,10.021,17.388,10.021z"/>
		<path opacity="0.5" fill="#669CCC" enable-background="new    " d="M17.451,10.061c-0.012,0.013-0.02,0.004-0.022,0.002
			c-0.003,0.003-0.004,0.008-0.001,0.012c0,0,0.009,0.014,0.022-0.001c0,0,0.033-0.036,0.036-0.092c0,0,0.011-0.009,0.027-0.012
			c0.001-0.008,0.001-0.013,0.001-0.013c-0.001,0-0.001,0-0.001,0c-0.006,0.003-0.016,0.009-0.027,0.016
			C17.483,10.028,17.451,10.061,17.451,10.061z"/>
		<path opacity="0.5" fill="#669CCC" enable-background="new    " d="M17.675,9.819h-0.39c-0.05,0-0.092,0.041-0.092,0.092v0.013
			c0-0.05,0.041-0.092,0.092-0.092h0.39c0.05,0,0.092,0.041,0.092,0.092V9.911C17.767,9.86,17.725,9.819,17.675,9.819z"/>
		<path opacity="0.5" fill="#669CCC" enable-background="new    " d="M17.345,10.233c0.071,0.002,0.125,0.006,0.187-0.037
			c0.056-0.039,0.055-0.099,0.054-0.112c-0.001,0.023-0.01,0.068-0.054,0.099c-0.062,0.043-0.116,0.038-0.187,0.037
			c-0.058-0.001-0.103-0.018-0.118-0.025v0.013C17.243,10.214,17.289,10.232,17.345,10.233z"/>
		<path opacity="0.5" fill="#669CCC" enable-background="new    " d="M17.439,10.141c0,0,0.048,0.021,0.082-0.047
			c0,0,0.017-0.028,0.016-0.091c-0.001,0.054-0.016,0.078-0.016,0.078c-0.033,0.068-0.082,0.047-0.082,0.047
			c-0.048-0.025-0.052-0.09-0.052-0.103c0,0.004-0.001,0.007,0,0.01C17.388,10.036,17.385,10.113,17.439,10.141z"/>
		<path opacity="0.5" fill="#669CCC" enable-background="new    " d="M17.675,10.371c0.032,0,0.058-0.026,0.058-0.058v-0.013
			c0,0.032-0.026,0.058-0.058,0.058h-0.259c-0.009,0.005-0.017,0.009-0.024,0.013H17.675z"/>
	</g>
</g>
</svg>
