<?xml version="1.0" encoding="utf-8"?>
<!-- Generator: Adobe Illustrator 17.0.0, SVG Export Plug-In . SVG Version: 6.00 Build 0)  -->
<!DOCTYPE svg PUBLIC "-//W3C//DTD SVG 1.1//EN" "http://www.w3.org/Graphics/SVG/1.1/DTD/svg11.dtd">
<svg version="1.1" id="图层_1" xmlns="http://www.w3.org/2000/svg" xmlns:xlink="http://www.w3.org/1999/xlink" x="0px" y="0px"
	 width="24px" height="24px" viewBox="0 0 24 24" enable-background="new 0 0 24 24" xml:space="preserve">
<path fill="#C4DCED" stroke="#9DBCD7" stroke-miterlimit="10" d="M22.942,20.079c0,1.595-1.293,2.888-2.888,2.888H3.896
	c-1.595,0-2.888-1.293-2.888-2.888V3.921c0-1.595,1.293-2.888,2.888-2.888h16.159c1.595,0,2.888,1.293,2.888,2.888L22.942,20.079
	L22.942,20.079z"/>
<path opacity="0.6" fill="none" stroke="#FFFFFF" stroke-miterlimit="10" enable-background="new    " d="M3.896,21.967
	c-1.041,0-1.888-0.847-1.888-1.888V3.921c0-1.041,0.847-1.888,1.888-1.888h16.159c1.041,0,1.888,0.847,1.888,1.888v16.158
	c-0.001,1.041-0.848,1.888-1.889,1.888C20.054,21.967,3.896,21.967,3.896,21.967z"/>
<path opacity="0.05" fill="none" stroke="#000000" stroke-width="0.3786" stroke-miterlimit="10" enable-background="new    " d="
	M23.02,7.276c0,0,0-0.97-0.958-0.97c-2.782,0-11.663,0.002-12.458,0.002c-0.966,0-0.958-0.956-0.958-0.956s0-0.963-0.958-0.963
	c-1.678,0-5.038,0-5.75,0c-0.943,0-0.958,0.928-0.958,0.957"/>
<linearGradient id="SVGID_1_" gradientUnits="userSpaceOnUse" x1="1655.974" y1="2115.967" x2="1655.974" y2="2097.8821" gradientTransform="matrix(1 0 0 1 -1644 -2093)">
	<stop  offset="0" style="stop-color:#D1E0ED"/>
	<stop  offset="1" style="stop-color:#E4EEFB"/>
</linearGradient>
<path fill="url(#SVGID_1_)" stroke="#9DBCD7" stroke-miterlimit="10" d="M3.889,22.967h16.219c1.595,0,2.833-1.326,2.833-2.92V7.098
	c0-0.227-0.34-0.441-0.792-0.441c-2.794,0-11.7,0.002-12.499,0.002c-0.97,0-0.956-0.885-0.956-0.885s0.007-0.892-0.956-0.892
	c-1.685,0-5.06,0-5.775,0c-0.948,0-0.956,0.786-0.956,0.815v14.35C1.008,21.641,2.295,22.967,3.889,22.967z"/>
<path opacity="0.8" fill="none" stroke="#FFFFFF" stroke-miterlimit="10" enable-background="new    " d="M3.889,21.967
	c-1.037,0-1.881-0.862-1.881-1.921V5.889l5.688-0.007c0.016,0.225,0.098,0.777,0.537,1.224C8.481,7.358,8.929,7.659,9.65,7.659
	l12.291-0.001v12.389c0,1.06-0.822,1.921-1.833,1.921L3.889,21.967L3.889,21.967z"/>
<g id="g27_1_">
	
		<linearGradient id="path36_2_" gradientUnits="userSpaceOnUse" x1="2058.3455" y1="2912.168" x2="2061.3926" y2="2917.4458" gradientTransform="matrix(1 0 0 1 -2056 -2911)">
		<stop  offset="0" style="stop-color:#FFFFFF"/>
		<stop  offset="0.5" style="stop-color:#FFFFFF;stop-opacity:0.6"/>
		<stop  offset="1" style="stop-color:#FFFFFF;stop-opacity:0.15"/>
	</linearGradient>
	<path id="path36_1_" fill="url(#path36_2_)" d="M4.858,7.342c0.341-0.705,0.756-1.366,1.233-1.977L5.223,3.462
		C4.482,4.163,3.88,4.935,3.4,5.685L4.858,7.342z"/>
	
		<linearGradient id="path45_2_" gradientUnits="userSpaceOnUse" x1="2061.1094" y1="2911.377" x2="2063.1035" y2="2914.8311" gradientTransform="matrix(1 0 0 1 -2056 -2911)">
		<stop  offset="0" style="stop-color:#FFFFFF"/>
		<stop  offset="0.5" style="stop-color:#FFFFFF;stop-opacity:0.6"/>
		<stop  offset="1" style="stop-color:#FFFFFF;stop-opacity:0.15"/>
	</linearGradient>
	<path id="path45_1_" fill="url(#path45_2_)" d="M4.949,1.633l0.454,0.994C5.84,2.265,6.318,2.14,6.84,1.633H4.949z"/>
	
		<linearGradient id="path54_2_" gradientUnits="userSpaceOnUse" x1="2061.7363" y1="2910.7212" x2="2064.1729" y2="2914.9414" gradientTransform="matrix(1 0 0 1 -2056 -2911)">
		<stop  offset="0" style="stop-color:#FFFFFF"/>
		<stop  offset="0.5" style="stop-color:#FFFFFF;stop-opacity:0.6"/>
		<stop  offset="1" style="stop-color:#FFFFFF;stop-opacity:0.15"/>
	</linearGradient>
	<path id="path54_1_" fill="url(#path54_2_)" d="M8.353,1.633H7.994C7.089,2.14,6.298,2.527,5.619,3.105L6.451,4.93
		C7.162,4.109,7.986,3.39,8.91,2.809C8.917,2.803,8.922,2.797,8.93,2.79C9.964,1.897,8.936,1.633,8.353,1.633z"/>
	
		<linearGradient id="path63_2_" gradientUnits="userSpaceOnUse" x1="2056.636" y1="2914.5735" x2="2059.2803" y2="2919.1536" gradientTransform="matrix(1 0 0 1 -2056 -2911)">
		<stop  offset="0" style="stop-color:#FFFFFF"/>
		<stop  offset="0.5" style="stop-color:#FFFFFF;stop-opacity:0.6"/>
		<stop  offset="1" style="stop-color:#FFFFFF;stop-opacity:0.15"/>
	</linearGradient>
	<path id="path63_1_" fill="url(#path63_2_)" d="M3.124,6.138C2.567,7.086,2.204,7.961,1.988,8.56
		c0.256,0.365,0.678,0.604,1.157,0.604c0.593,0,1.1-0.366,1.31-0.884c0.054-0.145,0.119-0.284,0.179-0.426L3.124,6.138z"/>
	
		<linearGradient id="path72_2_" gradientUnits="userSpaceOnUse" x1="2056.5168" y1="2914.7612" x2="2059.447" y2="2919.8369" gradientTransform="matrix(1 0 0 1 -2056 -2911)">
		<stop  offset="0" style="stop-color:#FFFFFF"/>
		<stop  offset="0.5" style="stop-color:#FFFFFF;stop-opacity:0.6"/>
		<stop  offset="1" style="stop-color:#FFFFFF;stop-opacity:0.15"/>
	</linearGradient>
	<path id="path72_1_" fill="url(#path72_2_)" d="M1.742,4.566L1.731,7.748c0,0,0,0.001,0,0.002c0,0.02,0.005,0.039,0.006,0.058
		C1.979,7.219,2.317,6.5,2.775,5.74L1.742,4.566z"/>
	
		<linearGradient id="path149_2_" gradientUnits="userSpaceOnUse" x1="2058.7329" y1="2913.1719" x2="2061.4846" y2="2917.9377" gradientTransform="matrix(1 0 0 1 -2056 -2911)">
		<stop  offset="0" style="stop-color:#FFFFFF"/>
		<stop  offset="0.5" style="stop-color:#FFFFFF;stop-opacity:0.6"/>
		<stop  offset="1" style="stop-color:#FFFFFF;stop-opacity:0.15"/>
	</linearGradient>
	<path id="path149_1_" fill="url(#path149_2_)" d="M4.344,1.639C3.31,1.553,1.949,2.718,1.774,3.834l1.283,1.459
		c0.512-0.781,1.149-1.582,1.934-2.305L4.344,1.639z"/>
</g>
<g>
	<path opacity="0.3" fill="#FFFFFF" enable-background="new    " d="M11.294,8.303c-1.07,0-2.144,0.404-2.959,1.216
		c-1.63,1.624-1.63,4.279,0,5.903c1.374,1.368,3.47,1.584,5.076,0.641c0.083,0.006,0.17,0.008,0.238,0.022
		c0.046,0.009,0.02-0.008,0.037,0c0.001,0.045-0.001,0.093,0,0.179c0.004,0.224,0.064,0.604,0.358,0.887l-0.008,0.008l0.022,0.022
		l2.244,2.273c0,0,0.007,0.007,0.008,0.008c0.011,0.012,0.225,0.23,0.559,0.283c0.343,0.055,0.797-0.083,1.2-0.484
		c0.404-0.402,0.54-0.857,0.484-1.2c-0.052-0.326-0.254-0.53-0.276-0.552l-0.015-0.015l-2.244-2.273
		c-0.006-0.006-0.01-0.009-0.015-0.015c-0.285-0.301-0.683-0.348-0.909-0.351c-0.083-0.001-0.126,0.001-0.171,0
		c-0.008-0.018,0.011,0.006,0-0.045c-0.014-0.068-0.022-0.15-0.029-0.231c0.946-1.6,0.741-3.692-0.634-5.061
		C13.445,8.705,12.365,8.303,11.294,8.303z M11.294,8.78c0.948,0,1.9,0.36,2.624,1.08c1.261,1.256,1.422,3.19,0.484,4.621
		c0.013,0.243,0.05,0.636,0.209,0.775c0.216,0.189,0.721-0.081,1.051,0.283l2.273,2.304c0,0,0.448,0.419-0.209,1.073
		c-0.657,0.654-1.073,0.209-1.073,0.209l-2.273-2.304c-0.365-0.328-0.1-0.836-0.291-1.051c-0.139-0.158-0.531-0.189-0.775-0.201
		c-1.437,0.934-3.375,0.764-4.636-0.492c-1.446-1.441-1.446-3.776,0-5.218C9.401,9.14,10.346,8.78,11.294,8.78z M11.31,10.01
		c-0.682,0-1.297,0.263-1.744,0.708c-0.447,0.445-0.73,1.073-0.73,1.751c0,1.359,1.111,2.46,2.475,2.46s2.467-1.101,2.467-2.46
		S12.672,10.01,11.31,10.01z M11.31,10.487c1.105,0,1.99,0.885,1.99,1.983s-0.885,1.982-1.99,1.982s-1.997-0.886-1.997-1.982
		c0-0.545,0.237-1.051,0.597-1.409C10.266,10.704,10.751,10.487,11.31,10.487z"/>
	<path opacity="0.3" fill="#FFFFFF" enable-background="new    " d="M11.294,8.535c-1.012,0-2.025,0.38-2.795,1.148
		c-1.541,1.536-1.541,4.039,0,5.575c1.316,1.312,3.328,1.497,4.852,0.566c0.109,0.006,0.236,0.016,0.343,0.037
		c0.123,0.025,0.21,0.076,0.209,0.074c-0.004-0.004,0.01,0.008,0.015,0.067c0.006,0.058-0.002,0.147,0,0.253
		c0.004,0.208,0.046,0.512,0.283,0.738c0.006,0.006,0.009,0.01,0.015,0.015l2.258,2.288c0,0,0.165,0.173,0.432,0.217
		c0.268,0.043,0.632-0.052,0.999-0.418s0.46-0.73,0.418-0.999c-0.041-0.258-0.197-0.413-0.209-0.425l-0.008-0.008l-2.258-2.289
		c-0.002-0.003-0.005-0.005-0.008-0.008c-0.227-0.244-0.535-0.281-0.746-0.283c-0.107-0.001-0.196,0.005-0.253,0
		c-0.058-0.005-0.071-0.019-0.067-0.015c0.001,0.001-0.056-0.093-0.082-0.217c-0.022-0.107-0.03-0.229-0.037-0.335
		c0.934-1.518,0.758-3.525-0.559-4.838C13.326,8.914,12.306,8.535,11.294,8.535z M11.294,8.78c0.948,0,1.9,0.36,2.624,1.08
		c1.261,1.256,1.422,3.19,0.484,4.621c0.013,0.243,0.05,0.636,0.209,0.775c0.216,0.189,0.721-0.081,1.051,0.283l2.273,2.304
		c0,0,0.448,0.419-0.209,1.073c-0.657,0.654-1.073,0.209-1.073,0.209l-2.273-2.304c-0.365-0.328-0.1-0.836-0.291-1.051
		c-0.139-0.158-0.531-0.189-0.775-0.201c-1.437,0.934-3.375,0.764-4.636-0.492c-1.446-1.441-1.446-3.776,0-5.218
		C9.401,9.14,10.346,8.78,11.294,8.78z M11.31,10.01c-0.682,0-1.297,0.263-1.744,0.708c-0.447,0.445-0.73,1.073-0.73,1.751
		c0,1.359,1.111,2.46,2.475,2.46s2.467-1.101,2.467-2.46S12.672,10.01,11.31,10.01z M11.31,10.256c1.23,0,2.221,0.99,2.221,2.214
		s-0.992,2.214-2.221,2.214s-2.229-0.991-2.229-2.214c0-0.611,0.262-1.172,0.664-1.572C10.144,10.498,10.691,10.256,11.31,10.256z"
		/>
	<path opacity="0.3" fill="#669CCC" enable-background="new    " d="M8.674,9.861c-1.446,1.441-1.446,3.78,0,5.22
		c1.261,1.256,3.203,1.424,4.64,0.489c0.245,0.013,0.638,0.046,0.777,0.204c0.191,0.215-0.079,0.719,0.287,1.047l2.272,2.302
		c0,0,0.422,0.45,1.078-0.204c0.657-0.654,0.205-1.074,0.205-1.074l-2.272-2.302c-0.329-0.364-0.835-0.095-1.051-0.285
		c-0.158-0.14-0.192-0.531-0.205-0.775c0.937-1.431,0.769-3.366-0.491-4.622C12.468,8.42,10.121,8.42,8.674,9.861z M9.561,10.718
		c0.447-0.445,1.065-0.707,1.746-0.707c1.363,0,2.47,1.102,2.47,2.461s-1.107,2.461-2.47,2.461s-2.47-1.102-2.47-2.461
		C8.838,11.792,9.114,11.163,9.561,10.718z"/>
	<path opacity="0.3" fill="#669CCC" enable-background="new    " d="M11.294,8.78c-0.948,0-1.893,0.36-2.616,1.08
		c-0.753,0.751-1.112,1.744-1.08,2.728c0.029-0.905,0.388-1.8,1.08-2.49c1.446-1.441,3.794-1.441,5.24,0
		c0.688,0.686,1.039,1.577,1.073,2.475c0.026-0.978-0.324-1.966-1.073-2.714C13.195,9.14,12.243,8.78,11.294,8.78z M8.842,12.589
		c-0.002,0.039-0.008,0.079-0.008,0.119c0,1.359,1.111,2.46,2.475,2.46s2.467-1.101,2.467-2.46c0-0.04-0.006-0.079-0.008-0.119
		c-0.063,1.303-1.136,2.341-2.46,2.341C9.985,14.929,8.904,13.892,8.842,12.589z M14.417,14.691
		c-0.006,0.009-0.008,0.021-0.015,0.029c0.013,0.243,0.05,0.636,0.209,0.775c0.216,0.189,0.721-0.081,1.051,0.283l2.273,2.304
		c0,0,0.1,0.1,0.135,0.276c0.066-0.323-0.135-0.514-0.135-0.514l-2.273-2.304c-0.329-0.364-0.835-0.094-1.051-0.283
		C14.492,15.153,14.44,14.91,14.417,14.691z"/>
	<path opacity="0.3" fill="#669CCC" enable-background="new    " d="M11.294,8.78c-0.948,0-1.893,0.36-2.616,1.08
		c-1.446,1.441-1.446,3.776,0,5.218c1.261,1.256,3.199,1.426,4.636,0.492c0.245,0.013,0.636,0.043,0.775,0.201
		c0.191,0.215-0.074,0.723,0.291,1.051l2.273,2.304c0,0,0.416,0.445,1.073-0.209c0.656-0.654,0.209-1.073,0.209-1.073l-2.273-2.304
		c-0.329-0.364-0.835-0.094-1.051-0.283c-0.158-0.139-0.196-0.532-0.209-0.775c0.937-1.431,0.776-3.365-0.484-4.621
		C13.195,9.14,12.243,8.78,11.294,8.78z M11.294,9.019c0.887,0,1.776,0.34,2.452,1.014c1.18,1.176,1.331,2.979,0.455,4.315
		c-0.029,0.044-0.041,0.097-0.037,0.149c0.006,0.128,0.017,0.295,0.052,0.462c0.035,0.168,0.082,0.339,0.238,0.477
		c0.111,0.097,0.236,0.125,0.343,0.135c0.107,0.009,0.21,0.007,0.298,0.008c0.177,0.001,0.284,0.013,0.388,0.127
		c0.002,0.002,0.005,0.006,0.008,0.008l2.273,2.304c0.002,0.002,0.005,0.006,0.008,0.008c0,0,0.05,0.041,0.067,0.149
		c0.018,0.108,0.007,0.285-0.283,0.573c-0.29,0.29-0.467,0.3-0.573,0.283c-0.107-0.017-0.149-0.067-0.149-0.067
		c-0.002-0.002-0.005-0.006-0.008-0.008l-2.274-2.303c-0.002-0.002-0.005-0.006-0.008-0.008c-0.115-0.104-0.131-0.218-0.135-0.395
		c-0.001-0.088,0.002-0.184-0.008-0.291c-0.01-0.107-0.036-0.233-0.135-0.343c-0.139-0.157-0.31-0.205-0.477-0.238
		c-0.168-0.034-0.336-0.038-0.462-0.045c-0.053-0.004-0.104,0.009-0.149,0.037c-1.342,0.872-3.15,0.714-4.33-0.462
		c-1.354-1.349-1.354-3.526,0-4.875C9.527,9.358,10.407,9.019,11.294,9.019z M11.31,9.771c-0.744,0-1.424,0.285-1.916,0.775
		c-0.491,0.489-0.798,1.177-0.798,1.923c0,1.49,1.22,2.698,2.714,2.698s2.706-1.209,2.706-2.698S12.803,9.771,11.31,9.771z
		 M11.31,10.01c1.363,0,2.467,1.101,2.467,2.46s-1.104,2.46-2.467,2.46c-1.363,0-2.475-1.101-2.475-2.46
		c0-0.679,0.283-1.306,0.73-1.751C10.012,10.272,10.627,10.01,11.31,10.01z"/>
	<path opacity="0.3" fill="#FFFFFF" enable-background="new    " d="M11.31,10.01c-0.682,0-1.297,0.263-1.744,0.708
		c-0.447,0.445-0.73,1.073-0.73,1.751c0,0.04,0.006,0.079,0.008,0.119c0.03-0.633,0.303-1.213,0.723-1.633
		c0.447-0.445,1.062-0.708,1.744-0.708c1.324,0,2.397,1.037,2.46,2.341c0.002-0.039,0.008-0.079,0.008-0.119
		C13.776,11.111,12.672,10.01,11.31,10.01z M14.991,12.574c-0.018,0.667-0.209,1.328-0.589,1.908
		c0.003,0.061,0.008,0.136,0.015,0.209C14.83,14.047,15.02,13.311,14.991,12.574z M7.598,12.589
		c-0.032,0.985,0.327,1.977,1.08,2.728c1.261,1.256,3.199,1.426,4.636,0.492c0.245,0.013,0.636,0.043,0.775,0.201
		c0.191,0.215-0.074,0.723,0.291,1.051l2.273,2.304c0,0,0.416,0.445,1.073-0.209c0.339-0.338,0.38-0.611,0.343-0.798
		c-0.032,0.158-0.128,0.345-0.343,0.559c-0.657,0.654-1.073,0.209-1.073,0.209l-2.273-2.304c-0.365-0.328-0.1-0.836-0.291-1.051
		c-0.139-0.158-0.531-0.189-0.775-0.201c-1.437,0.934-3.375,0.764-4.636-0.492C7.985,14.388,7.626,13.494,7.598,12.589z"/>
</g>
</svg>
