<?xml version="1.0" encoding="utf-8"?>
<!-- Generator: Adobe Illustrator 17.0.0, SVG Export Plug-In . SVG Version: 6.00 Build 0)  -->
<!DOCTYPE svg PUBLIC "-//W3C//DTD SVG 1.1//EN" "http://www.w3.org/Graphics/SVG/1.1/DTD/svg11.dtd">
<svg version="1.1" id="图层_1" xmlns="http://www.w3.org/2000/svg" xmlns:xlink="http://www.w3.org/1999/xlink" x="0px" y="0px"
	 width="24px" height="24px" viewBox="0 0 24 24" enable-background="new 0 0 24 24" xml:space="preserve">
<path fill="#C4DCED" stroke="#9DBCD7" stroke-miterlimit="10" d="M22.942,20.079c0,1.595-1.293,2.888-2.888,2.888H3.896
	c-1.595,0-2.888-1.293-2.888-2.888V3.921c0-1.595,1.293-2.888,2.888-2.888h16.159c1.595,0,2.888,1.293,2.888,2.888L22.942,20.079
	L22.942,20.079z"/>
<path opacity="0.6" fill="none" stroke="#FFFFFF" stroke-miterlimit="10" enable-background="new    " d="M3.896,21.967
	c-1.041,0-1.888-0.847-1.888-1.888V3.921c0-1.041,0.847-1.888,1.888-1.888h16.159c1.041,0,1.888,0.847,1.888,1.888v16.158
	c-0.001,1.041-0.848,1.888-1.889,1.888C20.054,21.967,3.896,21.967,3.896,21.967z"/>
<path opacity="0.05" fill="none" stroke="#000000" stroke-width="0.3786" stroke-miterlimit="10" enable-background="new    " d="
	M23.02,7.276c0,0,0-0.97-0.958-0.97c-2.782,0-11.663,0.002-12.458,0.002c-0.966,0-0.958-0.956-0.958-0.956s0-0.963-0.958-0.963
	c-1.678,0-5.038,0-5.75,0c-0.943,0-0.958,0.928-0.958,0.957"/>
<linearGradient id="SVGID_1_" gradientUnits="userSpaceOnUse" x1="1381.974" y1="-1687.967" x2="1381.974" y2="-1669.882" gradientTransform="matrix(1 0 0 -1 -1370 -1665)">
	<stop  offset="0" style="stop-color:#D1E0ED"/>
	<stop  offset="1" style="stop-color:#E4EEFB"/>
</linearGradient>
<path fill="url(#SVGID_1_)" stroke="#9DBCD7" stroke-miterlimit="10" d="M3.889,22.967h16.219c1.595,0,2.833-1.326,2.833-2.92V7.098
	c0-0.227-0.34-0.441-0.792-0.441c-2.794,0-11.7,0.002-12.499,0.002c-0.97,0-0.956-0.885-0.956-0.885s0.007-0.892-0.956-0.892
	c-1.685,0-5.06,0-5.775,0c-0.948,0-0.956,0.786-0.956,0.815v14.35C1.008,21.641,2.295,22.967,3.889,22.967z"/>
<path opacity="0.8" fill="none" stroke="#FFFFFF" stroke-miterlimit="10" enable-background="new    " d="M3.889,21.967
	c-1.037,0-1.881-0.862-1.881-1.921V5.889l5.688-0.007c0.016,0.225,0.098,0.777,0.537,1.224C8.481,7.358,8.929,7.659,9.65,7.659
	l12.291-0.001v12.389c0,1.06-0.822,1.921-1.833,1.921L3.889,21.967L3.889,21.967z"/>
<g id="g27_1_">
	
		<linearGradient id="path36_2_" gradientUnits="userSpaceOnUse" x1="1784.3451" y1="-2484.1682" x2="1787.3922" y2="-2489.446" gradientTransform="matrix(1 0 0 -1 -1782 -2483)">
		<stop  offset="0" style="stop-color:#FFFFFF"/>
		<stop  offset="0.5" style="stop-color:#FFFFFF;stop-opacity:0.6"/>
		<stop  offset="1" style="stop-color:#FFFFFF;stop-opacity:0.15"/>
	</linearGradient>
	<path id="path36_1_" fill="url(#path36_2_)" d="M4.858,7.342c0.341-0.705,0.756-1.366,1.233-1.977L5.223,3.462
		C4.482,4.163,3.88,4.935,3.4,5.685L4.858,7.342z"/>
	
		<linearGradient id="path45_2_" gradientUnits="userSpaceOnUse" x1="1787.1091" y1="-2483.3772" x2="1789.1033" y2="-2486.8313" gradientTransform="matrix(1 0 0 -1 -1782 -2483)">
		<stop  offset="0" style="stop-color:#FFFFFF"/>
		<stop  offset="0.5" style="stop-color:#FFFFFF;stop-opacity:0.6"/>
		<stop  offset="1" style="stop-color:#FFFFFF;stop-opacity:0.15"/>
	</linearGradient>
	<path id="path45_1_" fill="url(#path45_2_)" d="M4.949,1.633l0.454,0.994C5.84,2.265,6.318,2.14,6.84,1.633H4.949z"/>
	
		<linearGradient id="path54_2_" gradientUnits="userSpaceOnUse" x1="1787.736" y1="-2482.7214" x2="1790.1725" y2="-2486.9417" gradientTransform="matrix(1 0 0 -1 -1782 -2483)">
		<stop  offset="0" style="stop-color:#FFFFFF"/>
		<stop  offset="0.5" style="stop-color:#FFFFFF;stop-opacity:0.6"/>
		<stop  offset="1" style="stop-color:#FFFFFF;stop-opacity:0.15"/>
	</linearGradient>
	<path id="path54_1_" fill="url(#path54_2_)" d="M8.353,1.633H7.994C7.089,2.14,6.298,2.527,5.619,3.105L6.451,4.93
		C7.162,4.109,7.986,3.39,8.91,2.809C8.917,2.803,8.922,2.797,8.93,2.79C9.964,1.897,8.936,1.633,8.353,1.633z"/>
	
		<linearGradient id="path63_2_" gradientUnits="userSpaceOnUse" x1="1782.6355" y1="-2486.5737" x2="1785.2798" y2="-2491.1538" gradientTransform="matrix(1 0 0 -1 -1782 -2483)">
		<stop  offset="0" style="stop-color:#FFFFFF"/>
		<stop  offset="0.5" style="stop-color:#FFFFFF;stop-opacity:0.6"/>
		<stop  offset="1" style="stop-color:#FFFFFF;stop-opacity:0.15"/>
	</linearGradient>
	<path id="path63_1_" fill="url(#path63_2_)" d="M3.124,6.138C2.567,7.086,2.204,7.961,1.988,8.56
		c0.256,0.365,0.678,0.604,1.157,0.604c0.593,0,1.1-0.366,1.31-0.884c0.054-0.145,0.119-0.284,0.179-0.426L3.124,6.138z"/>
	
		<linearGradient id="path72_2_" gradientUnits="userSpaceOnUse" x1="1782.5165" y1="-2486.7615" x2="1785.4468" y2="-2491.8372" gradientTransform="matrix(1 0 0 -1 -1782 -2483)">
		<stop  offset="0" style="stop-color:#FFFFFF"/>
		<stop  offset="0.5" style="stop-color:#FFFFFF;stop-opacity:0.6"/>
		<stop  offset="1" style="stop-color:#FFFFFF;stop-opacity:0.15"/>
	</linearGradient>
	<path id="path72_1_" fill="url(#path72_2_)" d="M1.742,4.566L1.731,7.748c0,0,0,0.001,0,0.002c0,0.02,0.005,0.039,0.006,0.058
		C1.979,7.219,2.317,6.5,2.775,5.74L1.742,4.566z"/>
	
		<linearGradient id="path149_2_" gradientUnits="userSpaceOnUse" x1="1784.7327" y1="-2485.1721" x2="1787.4844" y2="-2489.938" gradientTransform="matrix(1 0 0 -1 -1782 -2483)">
		<stop  offset="0" style="stop-color:#FFFFFF"/>
		<stop  offset="0.5" style="stop-color:#FFFFFF;stop-opacity:0.6"/>
		<stop  offset="1" style="stop-color:#FFFFFF;stop-opacity:0.15"/>
	</linearGradient>
	<path id="path149_1_" fill="url(#path149_2_)" d="M4.344,1.639C3.31,1.553,1.949,2.718,1.774,3.834l1.283,1.459
		c0.512-0.781,1.149-1.582,1.934-2.305L4.344,1.639z"/>
</g>
<g>
	<path opacity="0.3" fill="#669CCC" enable-background="new    " d="M12.005,9.316c-2.529,0-5.056,0.967-6.985,2.897l1.161,1.162
		c3.217-3.217,8.432-3.217,11.648,0l1.162-1.162C17.061,10.283,14.534,9.316,12.005,9.316z M12.005,12.61
		c-1.686,0-3.376,0.64-4.661,1.926l1.169,1.169c1.929-1.929,5.057-1.929,6.985,0l1.169-1.169
		C15.381,13.25,13.692,12.61,12.005,12.61z M12.005,15.905c-0.843,0-1.687,0.32-2.33,0.963l2.33,2.33l2.331-2.33
		C13.693,16.224,12.848,15.905,12.005,15.905z"/>
	<path opacity="0.3" fill="#669CCC" enable-background="new    " d="M12.005,9.316c-2.529,0-5.056,0.967-6.985,2.897l1.161,1.162
		c3.217-3.217,8.432-3.217,11.648,0l1.162-1.162C17.061,10.283,14.534,9.316,12.005,9.316z M12.005,9.772
		c2.267,0,4.517,0.844,6.309,2.471L17.8,12.757c-3.295-2.963-8.294-2.963-11.589,0l-0.515-0.514
		C7.489,10.615,9.738,9.772,12.005,9.772z M12.005,12.61c-1.686,0-3.376,0.64-4.661,1.926l1.169,1.169
		c1.929-1.929,5.057-1.929,6.985,0l1.169-1.169C15.381,13.25,13.692,12.61,12.005,12.61z M12.005,13.066
		c1.426,0,2.84,0.513,3.986,1.5l-0.522,0.522c-2.002-1.686-4.927-1.686-6.928,0l-0.522-0.522
		C9.167,13.579,10.58,13.066,12.005,13.066z M12.005,15.905c-0.843,0-1.687,0.32-2.33,0.963l2.33,2.33l2.331-2.33
		C13.693,16.224,12.848,15.905,12.005,15.905z M12.005,16.36c0.577,0,1.128,0.225,1.62,0.573l-1.62,1.618l-1.617-1.618
		C10.878,16.586,11.428,16.36,12.005,16.36z"/>
	<path opacity="0.3" fill="#669CCC" enable-background="new    " d="M12.005,9.316c-2.529,0-5.056,0.967-6.985,2.897l1.161,1.162
		c3.217-3.217,8.432-3.217,11.648,0l1.162-1.162C17.061,10.283,14.534,9.316,12.005,9.316z M12.005,9.558
		c2.393,0,4.774,0.9,6.634,2.669l-0.823,0.823c-3.262-3.082-8.358-3.082-11.618,0l-0.825-0.823
		C7.233,10.459,9.614,9.558,12.005,9.558z M12.005,12.61c-1.686,0-3.376,0.64-4.661,1.926l1.169,1.169
		c1.929-1.929,5.057-1.929,6.985,0l1.169-1.169C15.381,13.25,13.692,12.61,12.005,12.61z M12.005,12.853
		c1.55,0,3.094,0.572,4.309,1.698l-0.831,0.831c-1.973-1.797-4.985-1.797-6.956,0l-0.831-0.831
		C8.912,13.425,10.455,12.853,12.005,12.853z M12.005,15.905c-0.843,0-1.687,0.32-2.33,0.963l2.33,2.33l2.331-2.33
		C13.693,16.224,12.848,15.905,12.005,15.905z M12.005,16.147c0.707,0,1.41,0.25,1.979,0.736l-1.979,1.978l-1.977-1.978
		C10.596,16.397,11.299,16.147,12.005,16.147z"/>
	<path opacity="0.3" fill="#669CCC" enable-background="new    " d="M12.005,9.316c-2.529,0-5.056,0.967-6.985,2.897l0.117,0.118
		c1.915-1.851,4.391-2.779,6.867-2.779c2.479,0,4.955,0.928,6.87,2.779l0.117-0.118C17.061,10.283,14.534,9.316,12.005,9.316z
		 M12.005,12.61c-1.686,0-3.376,0.64-4.661,1.926l0.117,0.117c1.271-1.208,2.91-1.809,4.544-1.809c1.635,0,3.275,0.601,4.545,1.809
		l0.117-0.117C15.381,13.25,13.692,12.61,12.005,12.61z M12.005,15.905c-0.843,0-1.687,0.32-2.33,0.963L9.8,16.993
		c0.626-0.566,1.415-0.853,2.206-0.853c0.792,0,1.582,0.287,2.207,0.853l0.124-0.125C13.693,16.224,12.848,15.905,12.005,15.905z"/>
	<path opacity="0.3" fill="#FFFFFF" enable-background="new    " d="M12.005,8.845c-2.648,0-5.297,1.018-7.316,3.037
		c-0.001,0-0.014,0.014-0.014,0.014c-0.001,0-0.014,0.022-0.014,0.022c-0.001,0.001-0.016,0.014-0.016,0.014
		c0,0.001-0.014,0.022-0.014,0.022c0,0.001-0.014,0.014-0.014,0.014c0,0.001-0.007,0.022-0.007,0.023
		c-0.001,0-0.016,0.022-0.016,0.022l-0.007,0.022c0,0.001-0.008,0.022-0.008,0.022S4.57,12.072,4.57,12.072
		c0,0.001-0.007,0.022-0.007,0.022c0,0.001-0.007,0.029-0.007,0.029c0,0.001,0,0.022,0,0.022c0,0.001-0.008,0.022-0.008,0.022v0.022
		c0,0.001,0,0.022,0,0.022v0.022c0,0.001,0,0.022,0,0.022c0,0.001,0.008,0.022,0.008,0.022v0.022c0,0.001,0.007,0.029,0.007,0.03
		l0.007,0.022c0,0.001,0.008,0.014,0.008,0.014c0,0.001,0.008,0.023,0.008,0.023l0.007,0.022c0,0.001,0.014,0.022,0.016,0.022
		c0,0.001,0.007,0.022,0.007,0.023L4.63,12.47c0,0.001,0.014,0.022,0.014,0.022s0.014,0.014,0.016,0.014
		c0,0,0.013,0.022,0.014,0.022c0,0.001,0.013,0.014,0.014,0.014l1.161,1.162c0.001,0,0.014,0.013,0.014,0.014
		c0.001,0,0.022,0.013,0.022,0.014c0,0.001,0.014,0.014,0.014,0.014c0.001,0,0.021,0.014,0.022,0.014
		c0,0.001,0.014,0.014,0.014,0.014s0.021,0.008,0.022,0.008c0,0,0.021,0.014,0.022,0.014l0.021,0.008
		c0.001,0,0.021,0.007,0.022,0.007c0.001,0,0.014,0.008,0.016,0.008l0.021,0.008c0.001,0,0.029,0.007,0.031,0.007h0.021
		c0.001,0,0.021,0.008,0.022,0.008c0,0,0.021,0,0.022,0h0.021c0.001,0,0.022,0,0.022,0s0.021,0,0.022,0c0,0,0.021-0.008,0.022-0.008
		h0.021c0.001,0,0.029-0.007,0.031-0.007l0.021-0.008c0.001,0,0.014-0.008,0.014-0.008c0.001,0,0.022-0.007,0.022-0.007l0.022-0.008
		c0,0,0.021-0.014,0.022-0.014l0.021-0.008c0.001-0.001,0.014-0.014,0.014-0.014c0.001,0,0.022-0.014,0.022-0.014
		s0.014-0.014,0.014-0.014c0.001-0.001,0.022-0.014,0.022-0.014c0-0.001,0.014-0.014,0.014-0.014c3.037-3.037,7.95-3.037,10.988,0
		c0,0,0.013,0.013,0.013,0.014c0.001,0,0.023,0.013,0.023,0.014c0.001,0.001,0.014,0.014,0.016,0.014l0.023,0.014
		c0.001,0.001,0.014,0.014,0.014,0.014c0.001,0.001,0.021,0.008,0.023,0.008l0.022,0.014c0,0,0.021,0.008,0.023,0.008l0.021,0.007
		c0.001,0,0.014,0.008,0.014,0.008c0.001,0,0.022,0.008,0.022,0.008l0.029,0.007c0.001,0,0.023,0,0.023,0l0.022,0.008
		c0,0,0.021,0,0.023,0h0.021c0.001,0,0.022,0,0.022,0c0.001,0,0.021,0,0.023,0l0.021-0.008c0.001,0,0.022,0,0.022,0
		c0.001,0,0.029-0.007,0.029-0.007c0.001,0,0.022-0.008,0.022-0.008c0.001,0,0.014-0.008,0.014-0.008
		c0.001,0,0.022-0.007,0.022-0.007c0.001,0,0.021-0.008,0.023-0.008l0.021-0.014c0.001,0,0.022-0.007,0.022-0.007
		c0.001-0.001,0.014-0.014,0.016-0.016l0.021-0.014c0.001,0,0.014-0.014,0.016-0.014c0-0.001,0.021-0.014,0.021-0.014
		c0.001-0.001,0.014-0.014,0.014-0.014l1.161-1.162c0.001,0,0.014-0.014,0.016-0.014c0.001,0,0.013-0.022,0.014-0.022
		c0-0.001,0.014-0.014,0.014-0.014c0.001-0.001,0.014-0.022,0.014-0.022c0.001,0,0.016-0.014,0.016-0.014
		c0-0.001,0.007-0.023,0.007-0.023l0.014-0.022c0.001,0,0.008-0.022,0.008-0.022c0-0.001,0.007-0.022,0.007-0.023l0.008-0.014
		c0-0.001,0.008-0.022,0.008-0.022c0-0.001,0.007-0.028,0.007-0.03v-0.022c0-0.001,0.008-0.022,0.008-0.022v-0.022v-0.022
		c0-0.001,0-0.022,0-0.022v-0.022l-0.008-0.022v-0.022c0,0-0.007-0.028-0.007-0.029l-0.008-0.022l-0.008-0.014
		c0-0.001-0.007-0.022-0.007-0.023c0,0-0.007-0.022-0.008-0.022c0-0.001-0.014-0.022-0.014-0.022l-0.007-0.022
		c0,0-0.014-0.014-0.016-0.014c0-0.001-0.013-0.022-0.014-0.022l-0.014-0.014c-0.001,0-0.013-0.022-0.014-0.022
		c-0.001-0.001-0.014-0.014-0.016-0.014C17.302,9.863,14.654,8.845,12.005,8.845L12.005,8.845z M12.005,9.316
		c2.53,0,5.057,0.967,6.987,2.897l-1.162,1.162c-3.216-3.217-8.431-3.217-11.648,0l-1.161-1.162
		C6.949,10.283,9.477,9.316,12.005,9.316z M12.005,12.14c-1.804,0-3.615,0.689-4.994,2.066l-0.013,0.014
		c-0.001,0.001-0.014,0.022-0.016,0.023c0,0.001-0.013,0.014-0.014,0.014l-0.014,0.021c0,0.001-0.014,0.014-0.014,0.015
		c0,0.001-0.008,0.021-0.008,0.022l-0.014,0.022c0,0.001-0.007,0.021-0.008,0.023c0,0-0.007,0.021-0.007,0.022
		c0,0.001-0.008,0.014-0.008,0.014c0,0.001-0.007,0.022-0.007,0.023c0,0-0.008,0.028-0.008,0.029s0,0.022,0,0.022l-0.007,0.022
		c0,0.001,0,0.021,0,0.022c0,0.001,0,0.021,0,0.022c0,0.001,0,0.022,0,0.022c0,0.001,0,0.022,0,0.023l0.007,0.021
		c0,0.001,0,0.022,0,0.022c0,0.001,0.008,0.029,0.008,0.029c0,0.001,0.007,0.022,0.007,0.023s0.008,0.014,0.008,0.014
		c0,0.001,0.007,0.022,0.007,0.022c0.001,0.001,0.008,0.021,0.008,0.023l0.014,0.021c0,0.001,0.008,0.022,0.008,0.022
		c0,0.001,0.014,0.014,0.014,0.014l0.014,0.022c0,0.001,0.014,0.014,0.014,0.014c0.001,0.001,0.014,0.022,0.016,0.022
		c0,0.001,0.013,0.014,0.013,0.014l1.169,1.169c0.001,0.001,0.014,0.014,0.016,0.014c0,0.001,0.021,0.014,0.021,0.015
		c0.001,0,0.014,0.013,0.014,0.014c0.001,0.001,0.022,0.014,0.022,0.014c0.001,0.001,0.014,0.014,0.016,0.014l0.021,0.008
		c0.001,0,0.021,0.014,0.022,0.014c0,0.001,0.021,0.007,0.022,0.007c0,0.001,0.021,0.008,0.021,0.008
		c0.001,0,0.014,0.008,0.016,0.008l0.021,0.008c0.001,0,0.029,0.008,0.031,0.008h0.021c0.001,0,0.021,0.007,0.022,0.007
		c0.001,0,0.021,0,0.022,0c0,0,0.021,0,0.022,0c0,0,0.021,0,0.022,0h0.021c0.001,0,0.021-0.007,0.022-0.007c0,0,0.021,0,0.022,0
		c0,0,0.028-0.008,0.029-0.008c0,0,0.021-0.008,0.022-0.008c0,0,0.013-0.008,0.014-0.008c0,0,0.021-0.007,0.022-0.008l0.021-0.007
		c0.001,0,0.021-0.014,0.022-0.014c0,0,0.021-0.008,0.022-0.008c0-0.001,0.014-0.014,0.014-0.014s0.021-0.014,0.022-0.014
		c0-0.001,0.013-0.014,0.014-0.014c0-0.001,0.021-0.014,0.021-0.015c0.001,0,0.014-0.013,0.016-0.014
		c1.751-1.751,4.573-1.751,6.324,0c0,0.001,0.014,0.014,0.014,0.014c0.001,0.001,0.021,0.014,0.022,0.015
		c0,0,0.013,0.013,0.014,0.014c0,0.001,0.022,0.014,0.022,0.014c0,0.001,0.014,0.014,0.014,0.014s0.021,0.008,0.023,0.008
		l0.021,0.014c0.001,0.001,0.022,0.007,0.022,0.007c0,0.001,0.023,0.008,0.023,0.008l0.014,0.008c0,0,0.021,0.008,0.023,0.008
		l0.029,0.008c0.001,0,0.021,0,0.023,0l0.021,0.007c0.001,0,0.022,0,0.022,0c0.001,0,0.023,0,0.023,0s0.021,0,0.022,0h0.021
		c0.001,0,0.023-0.007,0.023-0.007c0.001,0,0.021,0,0.022,0l0.029-0.008c0.001,0,0.021-0.008,0.023-0.008l0.014-0.008
		c0,0,0.021-0.007,0.022-0.008c0.001,0,0.021-0.007,0.023-0.007l0.021-0.014c0.001,0,0.021-0.008,0.022-0.008
		c0.001-0.001,0.014-0.014,0.014-0.014c0.001,0,0.021-0.014,0.023-0.014c0.001-0.001,0.013-0.014,0.014-0.014
		c0.001-0.001,0.021-0.014,0.023-0.015c0,0,0.014-0.013,0.014-0.014l1.169-1.169c0.001,0,0.013-0.013,0.014-0.014
		c0.001-0.001,0.014-0.022,0.014-0.022c0.001,0,0.014-0.014,0.014-0.014c0.001,0,0.016-0.022,0.016-0.022
		c0-0.001,0.014-0.014,0.014-0.014c0-0.001,0.007-0.021,0.007-0.022c0.001,0,0.014-0.021,0.014-0.021
		c0.001-0.001,0.008-0.022,0.008-0.023s0.008-0.022,0.008-0.022s0.007-0.014,0.007-0.014c0-0.001,0.008-0.021,0.008-0.023
		c0,0,0.008-0.028,0.008-0.029c0-0.001,0-0.021,0-0.022l0.007-0.021c0-0.001,0-0.022,0-0.023c0,0,0-0.021,0-0.022
		c0-0.001,0-0.021,0-0.022s0-0.022,0-0.022L17.12,14.47c0-0.001,0-0.022,0-0.022c0-0.001-0.008-0.029-0.008-0.029
		c0-0.001-0.008-0.022-0.008-0.023s-0.007-0.014-0.007-0.014c0-0.001-0.008-0.022-0.008-0.022c0-0.001-0.007-0.022-0.008-0.023
		c0,0-0.013-0.022-0.014-0.022c0-0.001-0.007-0.022-0.007-0.022c0-0.001-0.014-0.014-0.014-0.015c0,0-0.014-0.021-0.016-0.021
		c0-0.001-0.013-0.014-0.014-0.014c0-0.001-0.013-0.022-0.014-0.023c-0.001,0-0.013-0.014-0.014-0.014
		C15.622,12.829,13.811,12.14,12.005,12.14L12.005,12.14z M12.005,12.61c1.687,0,3.376,0.64,4.663,1.926l-1.169,1.169
		c-1.929-1.929-5.057-1.929-6.985,0l-1.169-1.169C8.629,13.25,10.319,12.61,12.005,12.61z M12.005,15.434
		c-0.962,0-1.928,0.37-2.661,1.103c0,0-0.014,0.014-0.014,0.014c-0.001,0.001-0.014,0.022-0.014,0.022
		c-0.001,0.001-0.014,0.014-0.016,0.014c0,0.001-0.013,0.022-0.014,0.022c0,0.001-0.014,0.014-0.014,0.014
		c0,0.001-0.007,0.022-0.007,0.023c0,0-0.014,0.021-0.016,0.021c0,0.001-0.007,0.022-0.007,0.022c0,0.001-0.008,0.022-0.008,0.023
		l-0.007,0.014c0,0.001-0.008,0.021-0.008,0.022l-0.007,0.029c0,0.001,0,0.021,0,0.023c0,0-0.008,0.021-0.008,0.022
		c0,0.001,0,0.022,0,0.022c0,0.001,0,0.022,0,0.023c0,0,0,0.021,0,0.022c0,0.001,0,0.022,0,0.023l0.008,0.022
		c0,0.001,0,0.021,0,0.023c0,0.001,0.007,0.029,0.007,0.029c0,0.001,0.008,0.022,0.008,0.023c0,0.001,0.007,0.014,0.007,0.014
		l0.008,0.021c0,0.001,0.007,0.022,0.007,0.022c0.001,0.001,0.016,0.022,0.016,0.023c0,0,0.007,0.021,0.007,0.022
		c0,0.001,0.014,0.014,0.014,0.014c0.001,0,0.014,0.021,0.014,0.021c0.001,0.001,0.014,0.014,0.016,0.015
		c0,0.001,0.013,0.022,0.014,0.022c0,0.001,0.014,0.014,0.014,0.014l2.33,2.332c0.001,0.001,0.014,0.014,0.014,0.014
		c0.001,0.001,0.021,0.014,0.022,0.014c0,0.001,0.014,0.014,0.014,0.014c0.001,0.001,0.022,0.014,0.022,0.014
		c0.001,0.001,0.014,0.014,0.014,0.014c0.001,0,0.022,0.007,0.022,0.008c0,0,0.021,0.013,0.022,0.014c0,0,0.021,0.007,0.021,0.008
		c0.001,0.001,0.022,0.007,0.022,0.007c0.001,0,0.014,0.008,0.014,0.008c0.001,0,0.022,0.007,0.022,0.007l0.029,0.008
		c0.001,0,0.022,0,0.022,0s0.021,0.008,0.022,0.008c0,0,0.021,0,0.022,0h0.024c0.001,0,0.021,0,0.022,0c0,0,0.021,0,0.023,0
		l0.021-0.008c0.001,0,0.022,0,0.022,0l0.029-0.008c0.001,0,0.022-0.007,0.022-0.007l0.014-0.008c0.001,0,0.021-0.006,0.022-0.007
		c0.001-0.001,0.021-0.008,0.023-0.008c0-0.001,0.021-0.014,0.022-0.014c0-0.001,0.021-0.008,0.023-0.008
		c0,0,0.013-0.014,0.014-0.014c0,0,0.021-0.014,0.021-0.014c0.001,0,0.014-0.014,0.016-0.014c0-0.001,0.021-0.014,0.021-0.014
		c0.001-0.001,0.014-0.014,0.014-0.014l2.332-2.332c0,0,0.013-0.014,0.014-0.014c0,0,0.014-0.021,0.014-0.022
		c0-0.001,0.014-0.014,0.014-0.015l0.014-0.021c0-0.001,0.014-0.014,0.016-0.014c0-0.001,0.007-0.022,0.007-0.022
		c0-0.001,0.014-0.022,0.014-0.022c0-0.001,0.008-0.021,0.008-0.023l0.007-0.021c0-0.001,0.008-0.014,0.008-0.014
		c0-0.001,0.008-0.022,0.008-0.023c0,0,0.007-0.028,0.007-0.029c0-0.001,0-0.022,0-0.023l0.008-0.022c0-0.001,0-0.021,0-0.023
		c0-0.001,0-0.022,0-0.022c0-0.001,0-0.022,0-0.023c0,0,0-0.021,0-0.022c0-0.001-0.008-0.022-0.008-0.022c0-0.001,0-0.022,0-0.023
		l-0.007-0.029c0-0.001-0.008-0.022-0.008-0.022l-0.008-0.014c0-0.001-0.007-0.022-0.007-0.023s-0.008-0.021-0.008-0.022
		l-0.014-0.021c0-0.001-0.007-0.022-0.007-0.023c-0.001,0-0.016-0.014-0.016-0.014c0,0-0.014-0.021-0.014-0.022
		c0,0-0.014-0.014-0.014-0.014c0,0-0.014-0.021-0.014-0.022c-0.001-0.001-0.014-0.014-0.014-0.014
		C13.934,15.803,12.967,15.434,12.005,15.434z M12.005,15.905c0.844,0,1.688,0.32,2.331,0.963l-2.331,2.33l-2.33-2.33
		C10.318,16.224,11.162,15.905,12.005,15.905z"/>
	<path opacity="0.3" fill="#FFFFFF" enable-background="new    " d="M12.005,9.066c-2.592,0-5.185,0.994-7.162,2.971
		c-0.097,0.098-0.097,0.256,0,0.353l1.161,1.162c0.099,0.098,0.256,0.098,0.353,0c3.121-3.121,8.175-3.121,11.296,0
		c0.096,0.098,0.255,0.098,0.352,0l1.161-1.162c0.099-0.097,0.099-0.255,0-0.353C17.191,10.059,14.598,9.066,12.005,9.066z
		 M12.005,9.316c2.53,0,5.057,0.967,6.987,2.897l-1.162,1.162c-3.216-3.217-8.431-3.217-11.648,0l-1.161-1.162
		C6.949,10.283,9.477,9.316,12.005,9.316z M12.005,12.36c-1.75,0-3.503,0.666-4.838,2.001c-0.097,0.096-0.097,0.255,0,0.352
		l1.169,1.169c0.097,0.097,0.255,0.097,0.353,0c1.834-1.834,4.798-1.834,6.633,0c0.097,0.097,0.256,0.097,0.353,0l1.169-1.169
		c0.097-0.097,0.097-0.255,0-0.352C15.51,13.025,13.754,12.36,12.005,12.36z M12.005,12.61c1.687,0,3.376,0.64,4.663,1.926
		l-1.169,1.169c-1.929-1.929-5.057-1.929-6.985,0l-1.169-1.169C8.629,13.25,10.319,12.61,12.005,12.61z M12.005,15.654
		c-0.907,0-1.817,0.346-2.507,1.037c-0.097,0.097-0.097,0.256,0,0.352l2.33,2.331c0.099,0.098,0.256,0.098,0.353,0l2.331-2.331
		c0.099-0.096,0.099-0.255,0-0.352C13.822,16,12.912,15.654,12.005,15.654z M12.005,15.905c0.844,0,1.688,0.32,2.331,0.963
		l-2.331,2.33l-2.33-2.33C10.318,16.224,11.162,15.905,12.005,15.905z"/>
	<path opacity="0.3" fill="#FFFFFF" enable-background="new    " d="M12.005,10.962c-2.107,0-4.215,0.804-5.824,2.412L5.137,12.33
		c-0.04,0.038-0.079,0.079-0.117,0.118l1.161,1.162c3.217-3.217,8.432-3.217,11.648,0l1.162-1.162
		c-0.04-0.039-0.079-0.079-0.117-0.118l-1.045,1.045C16.222,11.766,14.114,10.962,12.005,10.962z M12.005,14.258
		c-1.263,0-2.527,0.484-3.492,1.448l-1.052-1.052c-0.04,0.038-0.079,0.079-0.117,0.118l1.169,1.169c1.929-1.93,5.057-1.93,6.985,0
		l1.169-1.169c-0.039-0.039-0.077-0.08-0.117-0.118l-1.052,1.052C14.533,14.741,13.269,14.258,12.005,14.258z M9.799,16.993
		c-0.041,0.037-0.086,0.071-0.125,0.11l2.33,2.33l2.331-2.33c-0.039-0.039-0.084-0.073-0.124-0.11l-2.207,2.206
		C12.005,19.198,9.799,16.993,9.799,16.993z"/>
</g>
</svg>
