<?xml version="1.0" encoding="utf-8"?>
<!-- Generator: Adobe Illustrator 17.0.0, SVG Export Plug-In . SVG Version: 6.00 Build 0)  -->
<!DOCTYPE svg PUBLIC "-//W3C//DTD SVG 1.1//EN" "http://www.w3.org/Graphics/SVG/1.1/DTD/svg11.dtd">
<svg version="1.1" id="图层_1" xmlns="http://www.w3.org/2000/svg" xmlns:xlink="http://www.w3.org/1999/xlink" x="0px" y="0px"
	 width="24px" height="24px" viewBox="0 0 24 24" enable-background="new 0 0 24 24" xml:space="preserve">
<path fill="#C4DCED" stroke="#9DBCD7" stroke-miterlimit="10" d="M22.942,20.079c0,1.595-1.293,2.888-2.888,2.888H3.896
	c-1.595,0-2.888-1.293-2.888-2.888V3.921c0-1.595,1.293-2.888,2.888-2.888h16.159c1.595,0,2.888,1.293,2.888,2.888L22.942,20.079
	L22.942,20.079z"/>
<path opacity="0.6" fill="none" stroke="#FFFFFF" stroke-miterlimit="10" enable-background="new    " d="M3.896,21.967
	c-1.041,0-1.888-0.847-1.888-1.888V3.921c0-1.041,0.847-1.888,1.888-1.888h16.159c1.041,0,1.888,0.847,1.888,1.888v16.158
	c-0.001,1.041-0.848,1.888-1.889,1.888C20.054,21.967,3.896,21.967,3.896,21.967z"/>
<path opacity="0.05" fill="none" stroke="#000000" stroke-width="0.3786" stroke-miterlimit="10" enable-background="new    " d="
	M23.02,7.276c0,0,0-0.97-0.958-0.97c-2.782,0-11.663,0.002-12.458,0.002c-0.966,0-0.958-0.956-0.958-0.956s0-0.963-0.958-0.963
	c-1.678,0-5.038,0-5.75,0c-0.943,0-0.958,0.928-0.958,0.957"/>
<linearGradient id="SVGID_1_" gradientUnits="userSpaceOnUse" x1="1381.974" y1="-1687.967" x2="1381.974" y2="-1669.882" gradientTransform="matrix(1 0 0 -1 -1370 -1665)">
	<stop  offset="0" style="stop-color:#D1E0ED"/>
	<stop  offset="1" style="stop-color:#E4EEFB"/>
</linearGradient>
<path fill="url(#SVGID_1_)" stroke="#9DBCD7" stroke-miterlimit="10" d="M3.889,22.967h16.219c1.595,0,2.833-1.326,2.833-2.92V7.098
	c0-0.227-0.34-0.441-0.792-0.441c-2.794,0-11.7,0.002-12.499,0.002c-0.97,0-0.956-0.885-0.956-0.885s0.007-0.892-0.956-0.892
	c-1.685,0-5.06,0-5.775,0c-0.948,0-0.956,0.786-0.956,0.815v14.35C1.008,21.641,2.295,22.967,3.889,22.967z"/>
<path opacity="0.8" fill="none" stroke="#FFFFFF" stroke-miterlimit="10" enable-background="new    " d="M3.889,21.967
	c-1.037,0-1.881-0.862-1.881-1.921V5.889l5.688-0.007c0.016,0.225,0.098,0.777,0.537,1.224C8.481,7.358,8.929,7.659,9.65,7.659
	l12.291-0.001v12.389c0,1.06-0.822,1.921-1.833,1.921L3.889,21.967L3.889,21.967z"/>
<g id="g27_1_">
	
		<linearGradient id="path36_2_" gradientUnits="userSpaceOnUse" x1="1784.3451" y1="-2484.1682" x2="1787.3922" y2="-2489.446" gradientTransform="matrix(1 0 0 -1 -1782 -2483)">
		<stop  offset="0" style="stop-color:#FFFFFF"/>
		<stop  offset="0.5" style="stop-color:#FFFFFF;stop-opacity:0.6"/>
		<stop  offset="1" style="stop-color:#FFFFFF;stop-opacity:0.15"/>
	</linearGradient>
	<path id="path36_1_" fill="url(#path36_2_)" d="M4.858,7.342c0.341-0.705,0.756-1.366,1.233-1.977L5.223,3.462
		C4.482,4.163,3.88,4.935,3.4,5.685L4.858,7.342z"/>
	
		<linearGradient id="path45_2_" gradientUnits="userSpaceOnUse" x1="1787.1091" y1="-2483.3772" x2="1789.1033" y2="-2486.8313" gradientTransform="matrix(1 0 0 -1 -1782 -2483)">
		<stop  offset="0" style="stop-color:#FFFFFF"/>
		<stop  offset="0.5" style="stop-color:#FFFFFF;stop-opacity:0.6"/>
		<stop  offset="1" style="stop-color:#FFFFFF;stop-opacity:0.15"/>
	</linearGradient>
	<path id="path45_1_" fill="url(#path45_2_)" d="M4.949,1.633l0.454,0.994C5.84,2.265,6.318,2.14,6.84,1.633H4.949z"/>
	
		<linearGradient id="path54_2_" gradientUnits="userSpaceOnUse" x1="1787.736" y1="-2482.7214" x2="1790.1725" y2="-2486.9417" gradientTransform="matrix(1 0 0 -1 -1782 -2483)">
		<stop  offset="0" style="stop-color:#FFFFFF"/>
		<stop  offset="0.5" style="stop-color:#FFFFFF;stop-opacity:0.6"/>
		<stop  offset="1" style="stop-color:#FFFFFF;stop-opacity:0.15"/>
	</linearGradient>
	<path id="path54_1_" fill="url(#path54_2_)" d="M8.353,1.633H7.994C7.089,2.14,6.298,2.527,5.619,3.105L6.451,4.93
		C7.162,4.109,7.986,3.39,8.91,2.809C8.917,2.803,8.922,2.797,8.93,2.79C9.964,1.897,8.936,1.633,8.353,1.633z"/>
	
		<linearGradient id="path63_2_" gradientUnits="userSpaceOnUse" x1="1782.6355" y1="-2486.5737" x2="1785.2798" y2="-2491.1538" gradientTransform="matrix(1 0 0 -1 -1782 -2483)">
		<stop  offset="0" style="stop-color:#FFFFFF"/>
		<stop  offset="0.5" style="stop-color:#FFFFFF;stop-opacity:0.6"/>
		<stop  offset="1" style="stop-color:#FFFFFF;stop-opacity:0.15"/>
	</linearGradient>
	<path id="path63_1_" fill="url(#path63_2_)" d="M3.124,6.138C2.567,7.086,2.204,7.961,1.988,8.56
		c0.256,0.365,0.678,0.604,1.157,0.604c0.593,0,1.1-0.366,1.31-0.884c0.054-0.145,0.119-0.284,0.179-0.426L3.124,6.138z"/>
	
		<linearGradient id="path72_2_" gradientUnits="userSpaceOnUse" x1="1782.5165" y1="-2486.7615" x2="1785.4468" y2="-2491.8372" gradientTransform="matrix(1 0 0 -1 -1782 -2483)">
		<stop  offset="0" style="stop-color:#FFFFFF"/>
		<stop  offset="0.5" style="stop-color:#FFFFFF;stop-opacity:0.6"/>
		<stop  offset="1" style="stop-color:#FFFFFF;stop-opacity:0.15"/>
	</linearGradient>
	<path id="path72_1_" fill="url(#path72_2_)" d="M1.742,4.566L1.731,7.748c0,0,0,0.001,0,0.002c0,0.02,0.005,0.039,0.006,0.058
		C1.979,7.219,2.317,6.5,2.775,5.74L1.742,4.566z"/>
	
		<linearGradient id="path149_2_" gradientUnits="userSpaceOnUse" x1="1784.7327" y1="-2485.1721" x2="1787.4844" y2="-2489.938" gradientTransform="matrix(1 0 0 -1 -1782 -2483)">
		<stop  offset="0" style="stop-color:#FFFFFF"/>
		<stop  offset="0.5" style="stop-color:#FFFFFF;stop-opacity:0.6"/>
		<stop  offset="1" style="stop-color:#FFFFFF;stop-opacity:0.15"/>
	</linearGradient>
	<path id="path149_1_" fill="url(#path149_2_)" d="M4.344,1.639C3.31,1.553,1.949,2.718,1.774,3.834l1.283,1.459
		c0.512-0.781,1.149-1.582,1.934-2.305L4.344,1.639z"/>
</g>
<g>
	<g opacity="0.3" enable-background="new    ">
		<g>
			<path fill="#FFFFFF" d="M16.486,13.385l-0.003-3.08h-2.195v0.729l-2.297-2.169l-1.064,1.062l-4.781,4.779l1.112,1.048
				l0.245-0.198v5.126h8.979v-5.203l0.3,0.289l1.072-1.062L16.486,13.385z M14.993,10.959h0.773v1.648l-0.773-0.774V10.959z
				 M12.672,20.068h-1.375v-2.235h1.375V20.068z M15.767,20.068l-2.277,0.014v-2.794h-2.993v2.794H8.102l0.016-5.187l3.906-3.906
				l3.742,3.743C15.767,14.732,15.767,20.068,15.767,20.068z"/>
		</g>
		<g>
			<g>
				<g>
					<path fill="#669CCC" d="M16.486,12.986l-0.003-3.08h-2.195v0.729l-2.297-2.169l-1.064,1.062l-4.781,4.78l1.112,1.048
						l0.245-0.198v5.126h8.979v-5.204l0.3,0.289l1.072-1.062L16.486,12.986z M14.993,10.56h0.773v1.648l-0.773-0.774V10.56z
						 M12.672,19.67h-1.375v-2.235h1.375V19.67z M15.767,19.67l-2.277,0.014V16.89h-2.993v2.794H8.102l0.016-5.187l3.906-3.906
						l3.742,3.743C15.767,14.333,15.767,19.67,15.767,19.67z"/>
				</g>
			</g>
		</g>
	</g>
	<path opacity="0.3" fill="#669CCC" enable-background="new    " d="M16.486,12.986l-0.003-3.08h-2.195v0.729l-2.297-2.169
		l-1.064,1.062l-4.781,4.78l1.112,1.048l0.245-0.198v5.126h8.979v-5.204l0.3,0.289l1.072-1.062L16.486,12.986z M14.993,10.56h0.773
		v1.648l-0.773-0.774V10.56z M10.895,19.883v-2.594h0.003L10.895,19.883z M12.672,19.67h-1.375v-2.235h1.375V19.67z M13.072,19.883
		v-2.594h0.019L13.072,19.883z M15.767,19.67l-2.277,0.014V16.89h-2.993v2.794H8.102l0.016-5.187l3.906-3.906l3.742,3.743
		C15.767,14.333,15.767,19.67,15.767,19.67z M16.779,14.811l-4.755-4.786l-4.746,4.801l-0.56-0.527l5.279-5.276l5.286,5.288
		L16.779,14.811z"/>
	<g opacity="0.3">
		<path fill="#669CCC" d="M11.098,19.869h1.774v-2.634h-1.774C11.098,17.236,11.098,19.869,11.098,19.869z M11.297,17.435h1.375
			v2.235h-1.375C11.297,19.67,11.297,17.435,11.297,17.435z"/>
		<path fill="#669CCC" d="M16.486,12.986l-0.003-3.08h-2.195v0.729l-2.297-2.169l-1.064,1.062l-4.781,4.78l1.112,1.048l0.245-0.198
			v5.126h8.979v-5.204l0.3,0.289l1.072-1.062L16.486,12.986z M16.781,15.09l-0.498-0.479v5.472h-8.58v-5.344L7.268,15.09
			l-0.836-0.787l4.635-4.634l0.927-0.925l2.493,2.353v-0.992h1.796l0.003,2.965l1.283,1.238L16.781,15.09z"/>
		<path fill="#669CCC" d="M7.919,14.413l-0.017,5.47h2.794V17.09h2.594v2.795l2.676-0.017V14.25l-3.942-3.942L7.919,14.413z
			 M15.767,19.67l-2.277,0.014V16.89h-2.993v2.794H8.102l0.016-5.187l3.906-3.906l3.742,3.743
			C15.767,14.333,15.767,19.67,15.767,19.67z"/>
		<path fill="#669CCC" d="M14.793,11.517l1.173,1.173v-2.33h-1.173V11.517z M14.993,10.56h0.773v1.648l-0.773-0.774V10.56z"/>
	</g>
</g>
</svg>
