<?xml version="1.0" encoding="utf-8"?>
<!-- Generator: Adobe Illustrator 17.0.0, SVG Export Plug-In . SVG Version: 6.00 Build 0)  -->
<!DOCTYPE svg PUBLIC "-//W3C//DTD SVG 1.1//EN" "http://www.w3.org/Graphics/SVG/1.1/DTD/svg11.dtd">
<svg version="1.1" id="图层_1" xmlns="http://www.w3.org/2000/svg" xmlns:xlink="http://www.w3.org/1999/xlink" x="0px" y="0px"
	 width="24px" height="24px" viewBox="0 0 24 24" enable-background="new 0 0 24 24" xml:space="preserve">
<path fill="#C4DCED" stroke="#9DBCD7" stroke-miterlimit="10" d="M22.942,20.079c0,1.595-1.293,2.888-2.888,2.888H3.896
	c-1.595,0-2.888-1.293-2.888-2.888V3.921c0-1.595,1.293-2.888,2.888-2.888h16.159c1.595,0,2.888,1.293,2.888,2.888L22.942,20.079
	L22.942,20.079z"/>
<path opacity="0.6" fill="none" stroke="#FFFFFF" stroke-miterlimit="10" enable-background="new    " d="M3.896,21.967
	c-1.041,0-1.888-0.847-1.888-1.888V3.921c0-1.041,0.847-1.888,1.888-1.888h16.159c1.041,0,1.888,0.847,1.888,1.888v16.158
	c-0.001,1.041-0.848,1.888-1.889,1.888C20.054,21.967,3.896,21.967,3.896,21.967z"/>
<path opacity="0.05" fill="none" stroke="#000000" stroke-width="0.3786" stroke-miterlimit="10" enable-background="new    " d="
	M23.02,7.276c0,0,0-0.97-0.958-0.97c-2.782,0-11.663,0.002-12.458,0.002c-0.966,0-0.958-0.956-0.958-0.956s0-0.963-0.958-0.963
	c-1.678,0-5.038,0-5.75,0c-0.943,0-0.958,0.928-0.958,0.957"/>
<linearGradient id="SVGID_1_" gradientUnits="userSpaceOnUse" x1="1381.974" y1="-1687.967" x2="1381.974" y2="-1669.882" gradientTransform="matrix(1 0 0 -1 -1370 -1665)">
	<stop  offset="0" style="stop-color:#D1E0ED"/>
	<stop  offset="1" style="stop-color:#E4EEFB"/>
</linearGradient>
<path fill="url(#SVGID_1_)" stroke="#9DBCD7" stroke-miterlimit="10" d="M3.889,22.967h16.219c1.595,0,2.833-1.326,2.833-2.92V7.098
	c0-0.227-0.34-0.441-0.792-0.441c-2.794,0-11.7,0.002-12.499,0.002c-0.97,0-0.956-0.885-0.956-0.885s0.007-0.892-0.956-0.892
	c-1.685,0-5.06,0-5.775,0c-0.948,0-0.956,0.786-0.956,0.815v14.35C1.008,21.641,2.295,22.967,3.889,22.967z"/>
<path opacity="0.8" fill="none" stroke="#FFFFFF" stroke-miterlimit="10" enable-background="new    " d="M3.889,21.967
	c-1.037,0-1.881-0.862-1.881-1.921V5.889l5.688-0.007c0.016,0.225,0.098,0.777,0.537,1.224C8.481,7.358,8.929,7.659,9.65,7.659
	l12.291-0.001v12.389c0,1.06-0.822,1.921-1.833,1.921L3.889,21.967L3.889,21.967z"/>
<g id="g27_1_">
	
		<linearGradient id="path36_2_" gradientUnits="userSpaceOnUse" x1="1784.3451" y1="-2484.1682" x2="1787.3922" y2="-2489.446" gradientTransform="matrix(1 0 0 -1 -1782 -2483)">
		<stop  offset="0" style="stop-color:#FFFFFF"/>
		<stop  offset="0.5" style="stop-color:#FFFFFF;stop-opacity:0.6"/>
		<stop  offset="1" style="stop-color:#FFFFFF;stop-opacity:0.15"/>
	</linearGradient>
	<path id="path36_1_" fill="url(#path36_2_)" d="M4.858,7.342c0.341-0.705,0.756-1.366,1.233-1.977L5.223,3.462
		C4.482,4.163,3.88,4.935,3.4,5.685L4.858,7.342z"/>
	
		<linearGradient id="path45_2_" gradientUnits="userSpaceOnUse" x1="1787.1091" y1="-2483.3772" x2="1789.1033" y2="-2486.8313" gradientTransform="matrix(1 0 0 -1 -1782 -2483)">
		<stop  offset="0" style="stop-color:#FFFFFF"/>
		<stop  offset="0.5" style="stop-color:#FFFFFF;stop-opacity:0.6"/>
		<stop  offset="1" style="stop-color:#FFFFFF;stop-opacity:0.15"/>
	</linearGradient>
	<path id="path45_1_" fill="url(#path45_2_)" d="M4.949,1.633l0.454,0.994C5.84,2.265,6.318,2.14,6.84,1.633H4.949z"/>
	
		<linearGradient id="path54_2_" gradientUnits="userSpaceOnUse" x1="1787.736" y1="-2482.7214" x2="1790.1725" y2="-2486.9417" gradientTransform="matrix(1 0 0 -1 -1782 -2483)">
		<stop  offset="0" style="stop-color:#FFFFFF"/>
		<stop  offset="0.5" style="stop-color:#FFFFFF;stop-opacity:0.6"/>
		<stop  offset="1" style="stop-color:#FFFFFF;stop-opacity:0.15"/>
	</linearGradient>
	<path id="path54_1_" fill="url(#path54_2_)" d="M8.353,1.633H7.994C7.089,2.14,6.298,2.527,5.619,3.105L6.451,4.93
		C7.162,4.109,7.986,3.39,8.91,2.809C8.917,2.803,8.922,2.797,8.93,2.79C9.964,1.897,8.936,1.633,8.353,1.633z"/>
	
		<linearGradient id="path63_2_" gradientUnits="userSpaceOnUse" x1="1782.6355" y1="-2486.5737" x2="1785.2798" y2="-2491.1538" gradientTransform="matrix(1 0 0 -1 -1782 -2483)">
		<stop  offset="0" style="stop-color:#FFFFFF"/>
		<stop  offset="0.5" style="stop-color:#FFFFFF;stop-opacity:0.6"/>
		<stop  offset="1" style="stop-color:#FFFFFF;stop-opacity:0.15"/>
	</linearGradient>
	<path id="path63_1_" fill="url(#path63_2_)" d="M3.124,6.138C2.567,7.086,2.204,7.961,1.988,8.56
		c0.256,0.365,0.678,0.604,1.157,0.604c0.593,0,1.1-0.366,1.31-0.884c0.054-0.145,0.119-0.284,0.179-0.426L3.124,6.138z"/>
	
		<linearGradient id="path72_2_" gradientUnits="userSpaceOnUse" x1="1782.5165" y1="-2486.7615" x2="1785.4468" y2="-2491.8372" gradientTransform="matrix(1 0 0 -1 -1782 -2483)">
		<stop  offset="0" style="stop-color:#FFFFFF"/>
		<stop  offset="0.5" style="stop-color:#FFFFFF;stop-opacity:0.6"/>
		<stop  offset="1" style="stop-color:#FFFFFF;stop-opacity:0.15"/>
	</linearGradient>
	<path id="path72_1_" fill="url(#path72_2_)" d="M1.742,4.566L1.731,7.748c0,0,0,0.001,0,0.002c0,0.02,0.005,0.039,0.006,0.058
		C1.979,7.219,2.317,6.5,2.775,5.74L1.742,4.566z"/>
	
		<linearGradient id="path149_2_" gradientUnits="userSpaceOnUse" x1="1784.7327" y1="-2485.1721" x2="1787.4844" y2="-2489.938" gradientTransform="matrix(1 0 0 -1 -1782 -2483)">
		<stop  offset="0" style="stop-color:#FFFFFF"/>
		<stop  offset="0.5" style="stop-color:#FFFFFF;stop-opacity:0.6"/>
		<stop  offset="1" style="stop-color:#FFFFFF;stop-opacity:0.15"/>
	</linearGradient>
	<path id="path149_1_" fill="url(#path149_2_)" d="M4.344,1.639C3.31,1.553,1.949,2.718,1.774,3.834l1.283,1.459
		c0.512-0.781,1.149-1.582,1.934-2.305L4.344,1.639z"/>
</g>
<g>
	<path opacity="0.3" fill="#FFFFFF" enable-background="new    " d="M12.519,8.177c-3.258,0-5.909,2.522-6.182,5.71H5.77
		c-0.29,0-0.527,0.234-0.529,0.526c0,0.095,0.025,0.19,0.074,0.272l0.909,1.557L7.134,17.8c0.146,0.251,0.469,0.334,0.72,0.188
		c0.077-0.046,0.143-0.11,0.187-0.188l0.911-1.558l0.909-1.557c0.148-0.251,0.065-0.574-0.184-0.723
		c-0.082-0.047-0.176-0.074-0.27-0.074H8.951c0.209-1.426,1.233-2.572,2.595-2.951c-0.043,0.115-0.073,0.236-0.073,0.366v2.944
		h0.016c-0.041,0.262,0.01,0.525,0.153,0.739h-0.01c0.007,0.008,0.004,0.008,0.01,0.016c0.004,0.004,0.006,0.003,0.01,0.008
		c0.058,0.081,0.119,0.135,0.13,0.146l1.832,1.841c0.325,0.326,0.855,0.424,1.257,0.163c-0.634,0.546-1.448,0.885-2.353,0.885
		c-0.662,0-1.272-0.177-1.808-0.488c-0.251-0.145-0.574-0.06-0.72,0.191c-0.001,0.001-0.003,0.004-0.003,0.006L9.21,19.107
		c-0.141,0.251-0.055,0.57,0.196,0.713c0.916,0.532,1.981,0.835,3.114,0.835c3.439,0,6.239-2.799,6.239-6.239
		C18.758,10.977,15.958,8.177,12.519,8.177z M12.519,8.705c3.154,0,5.711,2.557,5.711,5.71c0,3.154-2.557,5.711-5.711,5.711
		c-1.038,0-2.015-0.278-2.856-0.763l0.78-1.354c0.611,0.355,1.319,0.56,2.076,0.56c2.294,0,4.153-1.859,4.153-4.153
		c0-2.294-1.859-4.153-4.153-4.153c-2.293,0-4.152,1.859-4.152,4.153h1.038l-0.908,1.558l-0.911,1.558l-0.909-1.558l-0.908-1.558
		h1.038C6.809,11.261,9.365,8.705,12.519,8.705z M12.519,10.782c0.288,0,0.52,0.232,0.52,0.52v2.904l1.687,1.679
		c0.204,0.204,0.231,0.501,0.065,0.666l-0.139,0.139c-0.165,0.165-0.462,0.139-0.666-0.065l-1.832-1.841
		c-0.027-0.025-0.054-0.05-0.073-0.081c-0.105-0.146-0.133-0.316-0.082-0.456v-2.944C12,11.013,12.232,10.782,12.519,10.782z
		 M13.493,10.936c1.53,0.426,2.653,1.811,2.653,3.48c0,0.906-0.341,1.72-0.885,2.353c0.261-0.402,0.165-0.933-0.161-1.257
		l-1.534-1.525v-2.685C13.566,11.172,13.537,11.05,13.493,10.936z"/>
	<path opacity="0.3" fill="#FFFFFF" enable-background="new    " d="M12.519,8.445c-3.205,0-5.807,2.54-5.946,5.71H5.77
		c-0.144,0-0.261,0.115-0.262,0.259c0,0.046,0.013,0.091,0.036,0.132l0.908,1.557l0.908,1.558c0.07,0.125,0.229,0.172,0.353,0.101
		c0.042-0.023,0.078-0.059,0.101-0.101l0.909-1.558l0.909-1.557c0.072-0.125,0.028-0.283-0.096-0.355
		c-0.04-0.023-0.084-0.036-0.131-0.036H8.649c0.136-2.029,1.805-3.633,3.869-3.633c2.153,0,3.894,1.741,3.894,3.894
		c0,2.155-1.741,3.894-3.894,3.894c-0.711,0-1.372-0.195-1.946-0.528c-0.124-0.072-0.283-0.03-0.355,0.093
		c-0.002,0.003-0.003,0.004-0.003,0.004l-0.778,1.355c-0.072,0.124-0.031,0.283,0.093,0.355c0.001,0.001,0.003,0.003,0.004,0.003
		c0.877,0.507,1.9,0.795,2.984,0.795c3.295,0,5.971-2.676,5.971-5.971C18.49,11.122,15.814,8.445,12.519,8.445z M12.519,10.521
		c-0.426,0-0.779,0.352-0.779,0.779v2.943h0.008c-0.043,0.202-0.008,0.416,0.114,0.593c0.005,0.008,0.004,0.01,0.008,0.015
		c0.041,0.056,0.082,0.097,0.098,0.114l1.832,1.843c0.286,0.285,0.755,0.349,1.04,0.064l0.137-0.138
		c0.286-0.285,0.22-0.752-0.065-1.037l-1.613-1.607v-2.79C13.298,10.873,12.948,10.521,12.519,10.521z M12.519,8.705
		c3.154,0,5.711,2.557,5.711,5.71c0,3.154-2.557,5.711-5.711,5.711c-1.038,0-2.015-0.278-2.856-0.763l0.78-1.355
		c0.611,0.355,1.319,0.56,2.076,0.56c2.294,0,4.153-1.859,4.153-4.153c0-2.294-1.859-4.153-4.153-4.153
		c-2.293,0-4.152,1.859-4.152,4.153h1.038l-0.907,1.558l-0.911,1.558l-0.909-1.558L5.77,14.416h1.038
		C6.809,11.261,9.365,8.705,12.519,8.705z M12.519,10.782c0.288,0,0.52,0.232,0.52,0.52v2.904l1.687,1.679
		c0.204,0.204,0.231,0.501,0.065,0.666l-0.139,0.138c-0.165,0.165-0.462,0.139-0.666-0.065l-1.832-1.841
		c-0.026-0.025-0.054-0.05-0.073-0.081c-0.105-0.146-0.133-0.316-0.082-0.456v-2.943C12,11.013,12.232,10.782,12.519,10.782z"/>
	<path opacity="0.3" fill="#669CCC" enable-background="new    " d="M12.519,8.705c-3.154,0-5.71,2.557-5.71,5.71H5.77l0.908,1.558
		l0.909,1.558l0.911-1.558l0.908-1.558H8.368c0-2.294,1.859-4.153,4.152-4.153c2.294,0,4.153,1.859,4.153,4.153
		c0,2.294-1.859,4.153-4.153,4.153c-0.756,0-1.464-0.205-2.076-0.56l-0.781,1.355c0.841,0.485,1.818,0.763,2.856,0.763
		c3.154,0,5.711-2.557,5.711-5.711C18.23,11.261,15.673,8.705,12.519,8.705z M12.519,10.782c-0.287,0-0.519,0.232-0.519,0.52v2.944
		c-0.051,0.14-0.023,0.31,0.082,0.456c0.019,0.031,0.046,0.055,0.073,0.081l1.832,1.841c0.204,0.204,0.501,0.231,0.666,0.065
		l0.139-0.139c0.165-0.165,0.139-0.462-0.065-0.666l-1.687-1.679v-2.904C13.039,11.013,12.807,10.782,12.519,10.782z"/>
	<path opacity="0.3" fill="#669CCC" enable-background="new    " d="M12.519,8.705c-3.154,0-5.71,2.557-5.71,5.71H5.77l0.908,1.558
		l0.909,1.558l0.911-1.558l0.908-1.558H8.368c0-2.294,1.859-4.153,4.152-4.153c2.294,0,4.153,1.859,4.153,4.153
		c0,2.294-1.859,4.153-4.153,4.153c-0.756,0-1.464-0.205-2.076-0.56l-0.781,1.355c0.841,0.485,1.818,0.763,2.856,0.763
		c3.154,0,5.711-2.557,5.711-5.711C18.23,11.261,15.673,8.705,12.519,8.705z M12.519,9.215c2.877,0,5.2,2.324,5.2,5.199
		c0,2.877-2.324,5.201-5.2,5.201c-0.761,0-1.466-0.201-2.117-0.496l0.268-0.461c0.572,0.25,1.185,0.422,1.849,0.422
		c2.572,0,4.665-2.093,4.665-4.665c0-2.57-2.093-4.663-4.665-4.663c-2.571,0-4.663,2.093-4.663,4.663
		c0.001,0.283,0.228,0.509,0.511,0.512h0.145L8.05,15.713l-0.462,0.795l-0.462-0.795l-0.462-0.786H6.81
		c0.282-0.003,0.509-0.229,0.511-0.512C7.319,11.539,9.643,9.215,12.519,9.215z M12.519,10.782c-0.287,0-0.519,0.232-0.519,0.52
		v2.944c-0.051,0.14-0.023,0.31,0.082,0.456c0.019,0.031,0.046,0.055,0.073,0.081l1.832,1.841c0.204,0.204,0.501,0.231,0.666,0.065
		l0.139-0.139c0.165-0.165,0.139-0.462-0.065-0.666l-1.687-1.679v-2.904C13.039,11.013,12.807,10.782,12.519,10.782z M12.519,11.292
		c0.013,0,0.01-0.004,0.01,0.01v2.904c0,0.118,0.039,0.232,0.113,0.324l-0.122-0.114c-0.019-0.019-0.031-0.025-0.031-0.024
		c-0.001-0.001-0.001-0.01,0-0.007c0.013-0.046,0.022-0.092,0.023-0.14v-2.944C12.511,11.288,12.507,11.292,12.519,11.292z
		 M12.674,14.571l1.686,1.679l-0.008,0.008C14.351,16.257,12.674,14.571,12.674,14.571z"/>
	<path opacity="0.3" fill="#669CCC" enable-background="new    " d="M12.519,8.705c-3.154,0-5.71,2.557-5.71,5.71H5.77l0.153,0.259
		h0.885c0-3.154,2.557-5.71,5.71-5.71c3.11,0,5.642,2.488,5.711,5.581c0.001-0.043,0-0.087,0-0.13
		C18.23,11.261,15.673,8.705,12.519,8.705z M12.519,10.782c-0.287,0-0.519,0.232-0.519,0.52v0.259c0-0.287,0.232-0.519,0.519-0.519
		c0.288,0,0.52,0.231,0.52,0.519v-0.259C13.039,11.013,12.807,10.782,12.519,10.782z M13.039,14.205v0.259l1.687,1.678
		c0.075,0.077,0.128,0.169,0.153,0.259c0.052-0.164-0.001-0.367-0.153-0.52C14.726,15.883,13.039,14.205,13.039,14.205z M12,14.245
		c-0.032,0.084-0.027,0.18,0,0.277c0.001-0.006-0.003-0.012,0-0.016V14.245z M8.382,14.415c-0.006,0.087-0.015,0.172-0.015,0.259
		h0.883l0.154-0.259H8.382z M16.665,14.545c-0.07,2.233-1.896,4.023-4.145,4.023c-0.756,0-1.464-0.205-2.076-0.56l-0.781,1.355
		c0.039,0.021,0.078,0.037,0.115,0.056l0.666-1.151c0.611,0.354,1.319,0.56,2.076,0.56c2.294,0,4.153-1.859,4.153-4.153
		C16.672,14.631,16.665,14.59,16.665,14.545z"/>
	<path opacity="0.3" fill="#669CCC" enable-background="new    " d="M12.519,8.705c-3.154,0-5.71,2.557-5.71,5.71H5.77l0.908,1.558
		l0.909,1.558l0.911-1.558l0.908-1.558H8.368c0-2.294,1.859-4.153,4.152-4.153c2.294,0,4.153,1.859,4.153,4.153
		c0,2.294-1.859,4.153-4.153,4.153c-0.756,0-1.464-0.205-2.076-0.56l-0.781,1.355c0.841,0.485,1.818,0.763,2.856,0.763
		c3.154,0,5.711-2.557,5.711-5.711C18.23,11.261,15.673,8.705,12.519,8.705z M12.519,8.948c3.021,0,5.468,2.446,5.468,5.467
		c0,3.022-2.446,5.468-5.468,5.468c-0.908,0-1.753-0.242-2.505-0.632l0.535-0.933c0.595,0.302,1.257,0.494,1.971,0.494
		c2.426,0,4.396-1.969,4.396-4.396c0-2.426-1.971-4.396-4.396-4.396s-4.395,1.97-4.395,4.396c0,0.135,0.109,0.242,0.243,0.243h0.616
		l-0.697,1.193l-0.697,1.192l-0.697-1.192l-0.697-1.193h0.617c0.133-0.001,0.242-0.109,0.243-0.243
		C7.052,11.395,9.499,8.948,12.519,8.948z M12.519,10.782c-0.287,0-0.519,0.232-0.519,0.52v2.944
		c-0.051,0.14-0.023,0.31,0.082,0.456c0.019,0.031,0.046,0.055,0.073,0.081l1.832,1.841c0.204,0.204,0.501,0.231,0.666,0.065
		l0.139-0.139c0.165-0.165,0.139-0.462-0.065-0.666l-1.687-1.679v-2.904C13.039,11.013,12.807,10.782,12.519,10.782z M12.519,11.024
		c0.156,0,0.277,0.121,0.277,0.277v2.904c0.001,0.064,0.028,0.124,0.073,0.171l1.687,1.679c0.125,0.125,0.117,0.272,0.064,0.324
		l-0.137,0.139c-0.052,0.051-0.198,0.061-0.325-0.065l-1.833-1.842c-0.032-0.032-0.043-0.045-0.04-0.04c0-0.007,0-0.011,0-0.016
		c-0.064-0.088-0.075-0.169-0.058-0.219c0.012-0.028,0.016-0.059,0.016-0.089V11.3C12.244,11.145,12.364,11.024,12.519,11.024z"/>
	<path opacity="0.3" fill="#FFFFFF" enable-background="new    " d="M12.519,10.262c-2.293,0-4.152,1.859-4.152,4.153h0.015
		c0.136-2.17,1.932-3.894,4.137-3.894c2.25,0,4.076,1.791,4.145,4.024c0.001-0.043,0.008-0.086,0.008-0.13
		C16.672,12.122,14.813,10.262,12.519,10.262z M12,14.521c-0.043,0.136-0.019,0.297,0.082,0.438
		c0.019,0.031,0.046,0.055,0.073,0.082l1.832,1.841c0.204,0.204,0.501,0.229,0.666,0.064l0.139-0.137
		c0.102-0.104,0.132-0.257,0.088-0.406c-0.017,0.054-0.047,0.104-0.088,0.146l-0.139,0.139c-0.165,0.165-0.462,0.139-0.666-0.065
		l-1.832-1.841c-0.026-0.025-0.054-0.05-0.073-0.081C12.04,14.643,12.018,14.583,12,14.521z M18.23,14.545
		c-0.069,3.093-2.602,5.581-5.711,5.581c-0.993,0-1.927-0.259-2.741-0.707l-0.115,0.204c0.841,0.485,1.818,0.763,2.856,0.763
		c3.154,0,5.711-2.557,5.711-5.711C18.23,14.631,18.232,14.588,18.23,14.545z M5.77,14.675l0.908,1.558l0.909,1.558l0.911-1.558
		l0.907-1.558H9.251l-0.752,1.298l-0.911,1.558l-0.909-1.558l-0.754-1.298H5.77z"/>
</g>
</svg>
