<?xml version="1.0" encoding="utf-8"?>
<!-- Generator: Adobe Illustrator 17.0.0, SVG Export Plug-In . SVG Version: 6.00 Build 0)  -->
<!DOCTYPE svg PUBLIC "-//W3C//DTD SVG 1.1//EN" "http://www.w3.org/Graphics/SVG/1.1/DTD/svg11.dtd">
<svg version="1.1" id="图层_1" xmlns="http://www.w3.org/2000/svg" xmlns:xlink="http://www.w3.org/1999/xlink" x="0px" y="0px"
	 width="24px" height="24px" viewBox="0 0 24 24" enable-background="new 0 0 24 24" xml:space="preserve">
<path fill="#C4DCED" stroke="#9DBCD7" stroke-miterlimit="10" d="M22.942,20.079c0,1.595-1.293,2.888-2.888,2.888H3.896
	c-1.595,0-2.888-1.293-2.888-2.888V3.921c0-1.595,1.293-2.888,2.888-2.888h16.159c1.595,0,2.888,1.293,2.888,2.888L22.942,20.079
	L22.942,20.079z"/>
<path opacity="0.6" fill="none" stroke="#FFFFFF" stroke-miterlimit="10" enable-background="new    " d="M3.896,21.967
	c-1.041,0-1.888-0.847-1.888-1.888V3.921c0-1.041,0.847-1.888,1.888-1.888h16.159c1.041,0,1.888,0.847,1.888,1.888v16.158
	c-0.001,1.041-0.848,1.888-1.889,1.888C20.054,21.967,3.896,21.967,3.896,21.967z"/>
<path opacity="0.05" fill="none" stroke="#000000" stroke-width="0.3786" stroke-miterlimit="10" enable-background="new    " d="
	M23.02,7.276c0,0,0-0.97-0.958-0.97c-2.782,0-11.663,0.002-12.458,0.002c-0.966,0-0.958-0.956-0.958-0.956s0-0.963-0.958-0.963
	c-1.678,0-5.038,0-5.75,0c-0.943,0-0.958,0.928-0.958,0.957"/>
<linearGradient id="SVGID_1_" gradientUnits="userSpaceOnUse" x1="1381.974" y1="-1687.967" x2="1381.974" y2="-1669.882" gradientTransform="matrix(1 0 0 -1 -1370 -1665)">
	<stop  offset="0" style="stop-color:#D1E0ED"/>
	<stop  offset="1" style="stop-color:#E4EEFB"/>
</linearGradient>
<path fill="url(#SVGID_1_)" stroke="#9DBCD7" stroke-miterlimit="10" d="M3.889,22.967h16.219c1.595,0,2.833-1.326,2.833-2.92V7.098
	c0-0.227-0.34-0.441-0.792-0.441c-2.794,0-11.7,0.002-12.499,0.002c-0.97,0-0.956-0.885-0.956-0.885s0.007-0.892-0.956-0.892
	c-1.685,0-5.06,0-5.775,0c-0.948,0-0.956,0.786-0.956,0.815v14.35C1.008,21.641,2.295,22.967,3.889,22.967z"/>
<path opacity="0.8" fill="none" stroke="#FFFFFF" stroke-miterlimit="10" enable-background="new    " d="M3.889,21.967
	c-1.037,0-1.881-0.862-1.881-1.921V5.889l5.688-0.007c0.016,0.225,0.098,0.777,0.537,1.224C8.481,7.358,8.929,7.659,9.65,7.659
	l12.291-0.001v12.389c0,1.06-0.822,1.921-1.833,1.921L3.889,21.967L3.889,21.967z"/>
<g id="g27_1_">
	
		<linearGradient id="path36_2_" gradientUnits="userSpaceOnUse" x1="1784.3451" y1="-2484.1682" x2="1787.3922" y2="-2489.446" gradientTransform="matrix(1 0 0 -1 -1782 -2483)">
		<stop  offset="0" style="stop-color:#FFFFFF"/>
		<stop  offset="0.5" style="stop-color:#FFFFFF;stop-opacity:0.6"/>
		<stop  offset="1" style="stop-color:#FFFFFF;stop-opacity:0.15"/>
	</linearGradient>
	<path id="path36_1_" fill="url(#path36_2_)" d="M4.858,7.342c0.341-0.705,0.756-1.366,1.233-1.977L5.223,3.462
		C4.482,4.163,3.88,4.935,3.4,5.685L4.858,7.342z"/>
	
		<linearGradient id="path45_2_" gradientUnits="userSpaceOnUse" x1="1787.1091" y1="-2483.3772" x2="1789.1033" y2="-2486.8313" gradientTransform="matrix(1 0 0 -1 -1782 -2483)">
		<stop  offset="0" style="stop-color:#FFFFFF"/>
		<stop  offset="0.5" style="stop-color:#FFFFFF;stop-opacity:0.6"/>
		<stop  offset="1" style="stop-color:#FFFFFF;stop-opacity:0.15"/>
	</linearGradient>
	<path id="path45_1_" fill="url(#path45_2_)" d="M4.949,1.633l0.454,0.994C5.84,2.265,6.318,2.14,6.84,1.633H4.949z"/>
	
		<linearGradient id="path54_2_" gradientUnits="userSpaceOnUse" x1="1787.736" y1="-2482.7214" x2="1790.1725" y2="-2486.9417" gradientTransform="matrix(1 0 0 -1 -1782 -2483)">
		<stop  offset="0" style="stop-color:#FFFFFF"/>
		<stop  offset="0.5" style="stop-color:#FFFFFF;stop-opacity:0.6"/>
		<stop  offset="1" style="stop-color:#FFFFFF;stop-opacity:0.15"/>
	</linearGradient>
	<path id="path54_1_" fill="url(#path54_2_)" d="M8.353,1.633H7.994C7.089,2.14,6.298,2.527,5.619,3.105L6.451,4.93
		C7.162,4.109,7.986,3.39,8.91,2.809C8.917,2.803,8.922,2.797,8.93,2.79C9.964,1.897,8.936,1.633,8.353,1.633z"/>
	
		<linearGradient id="path63_2_" gradientUnits="userSpaceOnUse" x1="1782.6355" y1="-2486.5737" x2="1785.2798" y2="-2491.1538" gradientTransform="matrix(1 0 0 -1 -1782 -2483)">
		<stop  offset="0" style="stop-color:#FFFFFF"/>
		<stop  offset="0.5" style="stop-color:#FFFFFF;stop-opacity:0.6"/>
		<stop  offset="1" style="stop-color:#FFFFFF;stop-opacity:0.15"/>
	</linearGradient>
	<path id="path63_1_" fill="url(#path63_2_)" d="M3.124,6.138C2.567,7.086,2.204,7.961,1.988,8.56
		c0.256,0.365,0.678,0.604,1.157,0.604c0.593,0,1.1-0.366,1.31-0.884c0.054-0.145,0.119-0.284,0.179-0.426L3.124,6.138z"/>
	
		<linearGradient id="path72_2_" gradientUnits="userSpaceOnUse" x1="1782.5165" y1="-2486.7615" x2="1785.4468" y2="-2491.8372" gradientTransform="matrix(1 0 0 -1 -1782 -2483)">
		<stop  offset="0" style="stop-color:#FFFFFF"/>
		<stop  offset="0.5" style="stop-color:#FFFFFF;stop-opacity:0.6"/>
		<stop  offset="1" style="stop-color:#FFFFFF;stop-opacity:0.15"/>
	</linearGradient>
	<path id="path72_1_" fill="url(#path72_2_)" d="M1.742,4.566L1.731,7.748c0,0,0,0.001,0,0.002c0,0.02,0.005,0.039,0.006,0.058
		C1.979,7.219,2.317,6.5,2.775,5.74L1.742,4.566z"/>
	
		<linearGradient id="path149_2_" gradientUnits="userSpaceOnUse" x1="1784.7327" y1="-2485.1721" x2="1787.4844" y2="-2489.938" gradientTransform="matrix(1 0 0 -1 -1782 -2483)">
		<stop  offset="0" style="stop-color:#FFFFFF"/>
		<stop  offset="0.5" style="stop-color:#FFFFFF;stop-opacity:0.6"/>
		<stop  offset="1" style="stop-color:#FFFFFF;stop-opacity:0.15"/>
	</linearGradient>
	<path id="path149_1_" fill="url(#path149_2_)" d="M4.344,1.639C3.31,1.553,1.949,2.718,1.774,3.834l1.283,1.459
		c0.512-0.781,1.149-1.582,1.934-2.305L4.344,1.639z"/>
</g>
<g>
	<path opacity="0.3" fill="#FFFFFF" enable-background="new    " d="M9.886,7.811c-0.299,0.022-0.53,0.272-0.53,0.573v6.414
		c-0.447-0.048-0.916-0.039-1.4,0.092c-0.728,0.197-1.341,0.57-1.77,1.054c-0.429,0.484-0.686,1.125-0.514,1.77
		c0.17,0.643,0.71,1.082,1.322,1.289s1.336,0.223,2.064,0.025c1.141-0.309,2.03-1.044,2.252-2.006
		c0.053-0.09,0.083-0.19,0.083-0.296v-4.567l3.337,0.422v3.852c-0.448-0.051-0.921-0.048-1.408,0.083
		c-0.727,0.196-1.341,0.568-1.769,1.053c-0.429,0.486-0.685,1.133-0.515,1.777c0.172,0.645,0.711,1.082,1.324,1.291
		c0.613,0.208,1.336,0.223,2.065,0.027c1.144-0.31,2.029-1.051,2.249-2.015c0.056-0.09,0.083-0.19,0.085-0.296V9.227
		c0.001-0.289-0.211-0.534-0.497-0.573l-6.261-0.843C9.965,7.807,9.926,7.807,9.886,7.811z M9.929,8.384l6.262,0.843v9.127H16.18
		c-0.07,0.725-0.836,1.464-1.904,1.753c-1.259,0.341-2.459-0.067-2.681-0.902c-0.222-0.834,0.622-1.792,1.88-2.132
		c0.674-0.182,1.331-0.145,1.83,0.05v-5.057l-4.484-0.564v5.225h-0.008c-0.07,0.726-0.837,1.456-1.905,1.745
		c-1.258,0.34-2.459-0.067-2.681-0.902c-0.222-0.836,0.621-1.783,1.879-2.124c0.674-0.182,1.321-0.153,1.822,0.042L9.929,8.384
		L9.929,8.384z M10.822,10.095v0.649l4.484,0.564v-0.573L10.822,10.095z"/>
	<path opacity="0.3" fill="#FFFFFF" enable-background="new    " d="M9.877,8.065C9.721,8.089,9.606,8.226,9.608,8.384v6.726
		c-0.488-0.102-1.022-0.119-1.584,0.034c-0.684,0.185-1.263,0.53-1.654,0.969c-0.388,0.441-0.591,1-0.445,1.545
		c0.144,0.541,0.599,0.924,1.153,1.112c0.556,0.187,1.23,0.192,1.914,0.008c1.101-0.298,1.937-1.016,2.099-1.88
		c0.021-0.036,0.036-0.076,0.041-0.119c0.001-0.006,0.001-0.011,0-0.016c0.004-0.012,0.008-0.022,0.01-0.035v-4.872l3.842,0.488
		v4.392c-0.487-0.105-1.027-0.121-1.591,0.034c-0.685,0.185-1.263,0.536-1.652,0.978c-0.39,0.442-0.591,0.999-0.447,1.542
		c0.144,0.543,0.599,0.925,1.154,1.113c0.556,0.187,1.228,0.192,1.915,0.008c1.103-0.298,1.935-1.024,2.097-1.887
		c0.021-0.036,0.035-0.077,0.042-0.119c0-0.006,0-0.011,0-0.016c0.003-0.012,0.006-0.022,0.008-0.035V9.227
		c-0.003-0.159-0.121-0.291-0.278-0.312L9.97,8.072C9.951,8.067,9.93,8.065,9.911,8.064C9.9,8.063,9.89,8.063,9.877,8.065z
		 M9.929,8.384l6.262,0.843v9.127H16.18c-0.07,0.725-0.836,1.464-1.904,1.753c-1.259,0.341-2.459-0.067-2.681-0.902
		c-0.222-0.834,0.622-1.792,1.88-2.132c0.674-0.182,1.331-0.145,1.83,0.05v-5.057l-4.484-0.564v5.225h-0.008
		c-0.07,0.726-0.837,1.456-1.905,1.745c-1.258,0.34-2.459-0.067-2.681-0.902c-0.222-0.836,0.621-1.783,1.879-2.124
		c0.674-0.182,1.321-0.153,1.822,0.042L9.929,8.384L9.929,8.384z M10.822,10.095v0.649l4.484,0.564v-0.573L10.822,10.095z
		 M11.142,10.458l0.506,0.076l-0.506-0.068V10.458z"/>
	<path opacity="0.3" fill="#669CCC" enable-background="new    " d="M9.93,8.386v7.106c-0.5-0.196-1.152-0.229-1.824-0.048
		c-1.258,0.341-2.102,1.297-1.88,2.131c0.22,0.834,1.42,1.237,2.679,0.898c1.067-0.29,1.833-1.023,1.904-1.748h0.007V11.5
		l4.486,0.565v5.06c-0.497-0.196-1.15-0.229-1.823-0.046c-1.258,0.34-2.102,1.295-1.88,2.13c0.222,0.836,1.421,1.237,2.678,0.898
		c1.07-0.289,1.834-1.021,1.905-1.748h0.01v-9.13L9.93,8.386L9.93,8.386z M10.817,10.095l4.486,0.642v0.574l-4.486-0.565V10.095z"/>
	<path opacity="0.3" fill="#669CCC" enable-background="new    " d="M9.929,8.384v7.106c-0.5-0.196-1.148-0.225-1.822-0.042
		c-1.258,0.341-2.1,1.289-1.879,2.124c0.22,0.836,1.423,1.241,2.681,0.902c1.068-0.29,1.833-1.019,1.905-1.745h0.008v-5.226
		l4.484,0.564v5.057c-0.498-0.196-1.156-0.233-1.83-0.05c-1.257,0.341-2.102,1.298-1.88,2.132c0.222,0.836,1.423,1.242,2.681,0.902
		c1.068-0.289,1.833-1.028,1.904-1.753h0.011V9.227L9.929,8.384z M10.4,8.915l5.319,0.716v0.885
		c-0.07-0.131-0.198-0.222-0.346-0.244l-4.483-0.64c-0.2-0.029-0.396,0.072-0.489,0.252C10.4,9.884,10.4,8.915,10.4,8.915z
		 M10.822,10.095l4.484,0.64v0.573l-4.484-0.564C10.822,10.743,10.822,10.095,10.822,10.095z M10.4,10.947
		c0.034,0.069,0.082,0.131,0.144,0.177c-0.06,0.044-0.109,0.101-0.144,0.169V10.947z M15.718,11.536v0.312
		c-0.032-0.063-0.078-0.118-0.134-0.16C15.639,11.647,15.685,11.596,15.718,11.536z M10.35,15.7v0.936
		c-0.003,0.017-0.006,0.034-0.008,0.049c-0.041,0.43-0.629,1.081-1.559,1.332c-0.547,0.148-1.07,0.128-1.45,0
		c-0.379-0.129-0.588-0.332-0.649-0.565c-0.062-0.232,0.02-0.515,0.286-0.816c0.267-0.302,0.717-0.585,1.264-0.734
		c0.586-0.158,1.141-0.126,1.525,0.025C9.986,16.014,10.24,15.915,10.35,15.7z M15.718,17.351v0.911
		c-0.003,0.016-0.007,0.034-0.008,0.049c-0.041,0.43-0.63,1.09-1.559,1.341c-0.548,0.148-1.071,0.128-1.45,0
		c-0.381-0.128-0.586-0.334-0.648-0.565c-0.063-0.23,0.018-0.521,0.286-0.825c0.269-0.305,0.717-0.586,1.264-0.734
		c0.582-0.157,1.147-0.117,1.534,0.034C15.357,17.647,15.603,17.558,15.718,17.351z"/>
	<path opacity="0.3" fill="#669CCC" enable-background="new    " d="M9.929,8.384v0.27l6.262,0.842v-0.27L9.929,8.384z
		 M10.822,10.743v0.271l4.484,0.564v-0.27L10.822,10.743z M8.849,15.33c-0.239,0.011-0.489,0.049-0.742,0.117
		c-1.196,0.323-2.018,1.203-1.904,2.006c0.077-0.723,0.841-1.448,1.904-1.736c0.674-0.182,1.321-0.153,1.822,0.041V15.49
		C9.616,15.367,9.248,15.311,8.849,15.33z M14.453,16.955c-0.307-0.01-0.639,0.027-0.977,0.119c-1.178,0.319-1.99,1.178-1.905,1.972
		c0.102-0.709,0.863-1.421,1.905-1.702c0.674-0.182,1.331-0.145,1.83,0.05v-0.27C15.056,17.028,14.765,16.967,14.453,16.955z"/>
	<path opacity="0.3" fill="#669CCC" enable-background="new    " d="M9.929,8.384v7.106c-0.5-0.196-1.148-0.225-1.822-0.042
		c-1.258,0.341-2.1,1.289-1.879,2.124c0.22,0.836,1.423,1.241,2.681,0.902c1.068-0.29,1.833-1.019,1.905-1.745h0.008v-5.226
		l4.484,0.564v5.057c-0.498-0.196-1.156-0.233-1.83-0.05c-1.257,0.341-2.102,1.298-1.88,2.132c0.222,0.836,1.423,1.242,2.681,0.902
		c1.068-0.289,1.833-1.028,1.904-1.753h0.011V9.227L9.929,8.384z M10.139,8.628l5.841,0.784v8.884
		c-0.004,0.014-0.008,0.028-0.01,0.041c-0.058,0.591-0.748,1.295-1.751,1.568c-0.592,0.161-1.165,0.138-1.603-0.01
		c-0.437-0.146-0.728-0.408-0.816-0.74c-0.088-0.334,0.039-0.713,0.346-1.063c0.308-0.348,0.799-0.657,1.39-0.816
		c0.633-0.172,1.247-0.126,1.695,0.051c0.11,0.039,0.233-0.018,0.274-0.128c0.008-0.024,0.012-0.05,0.012-0.076v-5.057
		c0-0.107-0.079-0.197-0.185-0.211l-4.484-0.564c-0.117-0.013-0.222,0.072-0.234,0.19c-0.001,0.007-0.001,0.015-0.001,0.021v5.167
		c-0.004,0.015-0.008,0.028-0.01,0.042c-0.058,0.592-0.747,1.287-1.753,1.559c-0.591,0.161-1.164,0.138-1.601-0.008
		c-0.438-0.148-0.729-0.41-0.818-0.744c-0.088-0.332,0.039-0.706,0.346-1.052c0.306-0.346,0.798-0.658,1.391-0.818
		c0.633-0.172,1.237-0.133,1.685,0.042c0.111,0.041,0.233-0.016,0.274-0.128c0.01-0.024,0.014-0.049,0.014-0.074V8.628H10.139z
		 M10.788,9.884c-0.102,0.018-0.177,0.107-0.177,0.21v0.649c0,0.107,0.079,0.197,0.185,0.211l4.484,0.564
		c0.117,0.013,0.222-0.072,0.234-0.19c0.001-0.007,0.001-0.015,0.001-0.022v-0.573c0-0.103-0.073-0.192-0.177-0.21l-4.484-0.64
		C10.834,9.881,10.81,9.881,10.788,9.884z M10.822,10.095l4.484,0.64v0.573l-4.484-0.564C10.822,10.743,10.822,10.095,10.822,10.095
		z"/>
	<path opacity="0.3" fill="#FFFFFF" enable-background="new    " d="M10.822,10.095v0.27l4.484,0.64v-0.27L10.822,10.095z
		 M10.822,11.503v0.27l4.484,0.565v-0.27L10.822,11.503z M10.813,16.728c-0.07,0.726-0.837,1.456-1.905,1.745
		c-1.258,0.34-2.459-0.067-2.681-0.902c-0.011-0.041-0.02-0.077-0.025-0.119c-0.015,0.133-0.01,0.26,0.025,0.387
		c0.22,0.836,1.423,1.244,2.681,0.903c1.068-0.29,1.833-1.019,1.905-1.745h0.008v-0.27H10.813z M16.181,18.354
		c-0.07,0.725-0.836,1.464-1.904,1.753c-1.259,0.341-2.459-0.067-2.681-0.902c-0.012-0.046-0.018-0.096-0.025-0.142
		c-0.018,0.14-0.012,0.275,0.025,0.411c0.222,0.836,1.423,1.244,2.681,0.903c1.068-0.289,1.833-1.028,1.904-1.751h0.011v-0.271
		L16.181,18.354L16.181,18.354z"/>
</g>
</svg>
