<?xml version="1.0" encoding="utf-8"?>
<!-- Generator: Adobe Illustrator 17.0.0, SVG Export Plug-In . SVG Version: 6.00 Build 0)  -->
<!DOCTYPE svg PUBLIC "-//W3C//DTD SVG 1.1//EN" "http://www.w3.org/Graphics/SVG/1.1/DTD/svg11.dtd">
<svg version="1.1" id="图层_1" xmlns="http://www.w3.org/2000/svg" xmlns:xlink="http://www.w3.org/1999/xlink" x="0px" y="0px"
	 width="24px" height="24px" viewBox="0 0 24 24" enable-background="new 0 0 24 24" xml:space="preserve">
<g>
	<path fill="#C4DCED" stroke="#9DBCD7" stroke-miterlimit="10" d="M22.942,20.079c0,1.595-1.293,2.888-2.888,2.888H3.896
		c-1.595,0-2.888-1.293-2.888-2.888V3.921c0-1.595,1.293-2.888,2.888-2.888h16.159c1.595,0,2.888,1.293,2.888,2.888L22.942,20.079
		L22.942,20.079z"/>
	<path opacity="0.6" fill="none" stroke="#FFFFFF" stroke-miterlimit="10" enable-background="new    " d="M3.896,21.967
		c-1.041,0-1.888-0.847-1.888-1.888V3.921c0-1.041,0.847-1.888,1.888-1.888h16.159c1.041,0,1.888,0.847,1.888,1.888v16.158
		c-0.001,1.041-0.848,1.888-1.889,1.888C20.054,21.967,3.896,21.967,3.896,21.967z"/>
	<g>
		<path opacity="0.05" fill="none" stroke="#000000" stroke-miterlimit="10" enable-background="new    " d="M23.02,11.276
			c0,0,0-0.97-0.958-0.97c-2.782,0-11.663,0.002-12.458,0.002c-0.966,0-0.958-0.956-0.958-0.956s0-0.963-0.958-0.963
			c-1.678,0-5.038,0-5.75,0c-0.943,0-0.958,0.928-0.958,0.957"/>
		
			<linearGradient id="SVGID_1_" gradientUnits="userSpaceOnUse" x1="1381.974" y1="-1687.967" x2="1381.974" y2="-1674.3831" gradientTransform="matrix(1 0 0 -1 -1370 -1665)">
			<stop  offset="0" style="stop-color:#D1E0ED"/>
			<stop  offset="1" style="stop-color:#E4EEFB"/>
		</linearGradient>
		<path fill="url(#SVGID_1_)" stroke="#9DBCD7" stroke-miterlimit="10" d="M3.889,22.967h16.219c1.595,0,2.833-1.326,2.833-2.92
			v-8.448c0-0.227-0.34-0.441-0.792-0.441c-2.794,0-11.7,0.002-12.499,0.002c-0.97,0-0.956-0.885-0.956-0.885
			s0.007-0.892-0.956-0.892c-1.685,0-5.06,0-5.775,0c-0.948,0-0.956,0.786-0.956,0.815v9.85C1.008,21.641,2.295,22.967,3.889,22.967
			z"/>
		<path opacity="0.8" fill="none" stroke="#FFFFFF" stroke-miterlimit="10" enable-background="new    " d="M3.889,21.967
			c-1.037,0-1.881-0.862-1.881-1.921v-9.657l5.688-0.007c0.016,0.225,0.098,0.777,0.537,1.224c0.248,0.252,0.696,0.553,1.417,0.553
			l12.291-0.001v7.889c0,1.06-0.822,1.921-1.833,1.921H3.889V21.967z"/>
	</g>
	<g id="g27_1_">
		
			<linearGradient id="path36_2_" gradientUnits="userSpaceOnUse" x1="1784.101" y1="-2484.0063" x2="1787.1482" y2="-2489.2842" gradientTransform="matrix(1 0 0 -1 -1782 -2483)">
			<stop  offset="0" style="stop-color:#FFFFFF"/>
			<stop  offset="0.5" style="stop-color:#FFFFFF;stop-opacity:0.6"/>
			<stop  offset="1" style="stop-color:#FFFFFF;stop-opacity:0.15"/>
		</linearGradient>
		<path id="path36_1_" fill="url(#path36_2_)" d="M4.614,7.181C4.955,6.476,5.37,5.815,5.847,5.204L4.979,3.301
			C4.238,4.002,3.636,4.774,3.156,5.524L4.614,7.181z"/>
		
			<linearGradient id="path45_2_" gradientUnits="userSpaceOnUse" x1="1786.8644" y1="-2483.2158" x2="1788.8585" y2="-2486.6699" gradientTransform="matrix(1 0 0 -1 -1782 -2483)">
			<stop  offset="0" style="stop-color:#FFFFFF"/>
			<stop  offset="0.5" style="stop-color:#FFFFFF;stop-opacity:0.6"/>
			<stop  offset="1" style="stop-color:#FFFFFF;stop-opacity:0.15"/>
		</linearGradient>
		<path id="path45_1_" fill="url(#path45_2_)" d="M4.704,1.472l0.454,0.994c0.437-0.362,0.915-0.487,1.437-0.994H4.704z"/>
		
			<linearGradient id="path54_2_" gradientUnits="userSpaceOnUse" x1="1787.4919" y1="-2482.5596" x2="1789.9285" y2="-2486.78" gradientTransform="matrix(1 0 0 -1 -1782 -2483)">
			<stop  offset="0" style="stop-color:#FFFFFF"/>
			<stop  offset="0.5" style="stop-color:#FFFFFF;stop-opacity:0.6"/>
			<stop  offset="1" style="stop-color:#FFFFFF;stop-opacity:0.15"/>
		</linearGradient>
		<path id="path54_1_" fill="url(#path54_2_)" d="M8.109,1.472H7.75C6.845,1.979,6.054,2.366,5.375,2.944l0.832,1.825
			c0.711-0.821,1.535-1.54,2.459-2.121c0.007-0.006,0.012-0.012,0.02-0.019C9.719,1.735,8.692,1.472,8.109,1.472z"/>
		
			<linearGradient id="path63_2_" gradientUnits="userSpaceOnUse" x1="1782.3921" y1="-2486.4119" x2="1785.0363" y2="-2490.9917" gradientTransform="matrix(1 0 0 -1 -1782 -2483)">
			<stop  offset="0" style="stop-color:#FFFFFF"/>
			<stop  offset="0.5" style="stop-color:#FFFFFF;stop-opacity:0.6"/>
			<stop  offset="1" style="stop-color:#FFFFFF;stop-opacity:0.15"/>
		</linearGradient>
		<path id="path63_1_" fill="url(#path63_2_)" d="M2.88,5.976C2.323,6.924,1.96,7.799,1.744,8.398C2,8.763,2.422,9.002,2.901,9.002
			c0.593,0,1.1-0.366,1.31-0.884C4.265,7.973,4.33,7.834,4.39,7.692L2.88,5.976z"/>
		
			<linearGradient id="path72_2_" gradientUnits="userSpaceOnUse" x1="1782.2728" y1="-2486.5994" x2="1785.2032" y2="-2491.6753" gradientTransform="matrix(1 0 0 -1 -1782 -2483)">
			<stop  offset="0" style="stop-color:#FFFFFF"/>
			<stop  offset="0.5" style="stop-color:#FFFFFF;stop-opacity:0.6"/>
			<stop  offset="1" style="stop-color:#FFFFFF;stop-opacity:0.15"/>
		</linearGradient>
		<path id="path72_1_" fill="url(#path72_2_)" d="M1.498,4.404L1.487,7.586c0,0,0,0.001,0,0.002c0,0.02,0.005,0.039,0.006,0.058
			c0.242-0.589,0.58-1.308,1.038-2.068L1.498,4.404z"/>
		
			<linearGradient id="path149_2_" gradientUnits="userSpaceOnUse" x1="1784.4886" y1="-2485.0103" x2="1787.2404" y2="-2489.7761" gradientTransform="matrix(1 0 0 -1 -1782 -2483)">
			<stop  offset="0" style="stop-color:#FFFFFF"/>
			<stop  offset="0.5" style="stop-color:#FFFFFF;stop-opacity:0.6"/>
			<stop  offset="1" style="stop-color:#FFFFFF;stop-opacity:0.15"/>
		</linearGradient>
		<path id="path149_1_" fill="url(#path149_2_)" d="M4.1,1.478C3.066,1.392,1.705,2.557,1.53,3.673l1.283,1.459
			C3.325,4.351,3.962,3.55,4.747,2.827L4.1,1.478z"/>
	</g>
</g>
</svg>
