<?xml version="1.0" encoding="utf-8"?>
<!-- Generator: Adobe Illustrator 17.0.0, SVG Export Plug-In . SVG Version: 6.00 Build 0)  -->
<!DOCTYPE svg PUBLIC "-//W3C//DTD SVG 1.1//EN" "http://www.w3.org/Graphics/SVG/1.1/DTD/svg11.dtd">
<svg version="1.1" id="图层_1" xmlns="http://www.w3.org/2000/svg" xmlns:xlink="http://www.w3.org/1999/xlink" x="0px" y="0px"
	 width="24px" height="24px" viewBox="0 0 24 24" enable-background="new 0 0 24 24" xml:space="preserve">
<path fill="#C4DCED" stroke="#9DBCD7" stroke-miterlimit="10" d="M22.942,20.079c0,1.595-1.293,2.888-2.888,2.888H3.896
	c-1.595,0-2.888-1.293-2.888-2.888V3.921c0-1.595,1.293-2.888,2.888-2.888h16.159c1.595,0,2.888,1.293,2.888,2.888L22.942,20.079
	L22.942,20.079z"/>
<path opacity="0.6" fill="none" stroke="#FFFFFF" stroke-miterlimit="10" enable-background="new    " d="M3.896,21.967
	c-1.041,0-1.888-0.847-1.888-1.888V3.921c0-1.041,0.847-1.888,1.888-1.888h16.159c1.041,0,1.888,0.847,1.888,1.888v16.158
	c-0.001,1.041-0.848,1.888-1.889,1.888C20.054,21.967,3.896,21.967,3.896,21.967z"/>
<path opacity="0.05" fill="none" stroke="#000000" stroke-width="0.3786" stroke-miterlimit="10" enable-background="new    " d="
	M23.02,7.276c0,0,0-0.97-0.958-0.97c-2.782,0-11.663,0.002-12.458,0.002c-0.966,0-0.958-0.956-0.958-0.956s0-0.963-0.958-0.963
	c-1.678,0-5.038,0-5.75,0c-0.943,0-0.958,0.928-0.958,0.957"/>
<linearGradient id="SVGID_1_" gradientUnits="userSpaceOnUse" x1="1381.974" y1="-1687.967" x2="1381.974" y2="-1669.882" gradientTransform="matrix(1 0 0 -1 -1370 -1665)">
	<stop  offset="0" style="stop-color:#D1E0ED"/>
	<stop  offset="1" style="stop-color:#E4EEFB"/>
</linearGradient>
<path fill="url(#SVGID_1_)" stroke="#9DBCD7" stroke-miterlimit="10" d="M3.889,22.967h16.219c1.595,0,2.833-1.326,2.833-2.92V7.098
	c0-0.227-0.34-0.441-0.792-0.441c-2.794,0-11.7,0.002-12.499,0.002c-0.97,0-0.956-0.885-0.956-0.885s0.007-0.892-0.956-0.892
	c-1.685,0-5.06,0-5.775,0c-0.948,0-0.956,0.786-0.956,0.815v14.35C1.008,21.641,2.295,22.967,3.889,22.967z"/>
<path opacity="0.8" fill="none" stroke="#FFFFFF" stroke-miterlimit="10" enable-background="new    " d="M3.889,21.967
	c-1.037,0-1.881-0.862-1.881-1.921V5.889l5.688-0.007c0.016,0.225,0.098,0.777,0.537,1.224C8.481,7.358,8.929,7.659,9.65,7.659
	l12.291-0.001v12.389c0,1.06-0.822,1.921-1.833,1.921L3.889,21.967L3.889,21.967z"/>
<g id="g27_1_">
	
		<linearGradient id="path36_2_" gradientUnits="userSpaceOnUse" x1="1784.3451" y1="-2484.1682" x2="1787.3922" y2="-2489.446" gradientTransform="matrix(1 0 0 -1 -1782 -2483)">
		<stop  offset="0" style="stop-color:#FFFFFF"/>
		<stop  offset="0.5" style="stop-color:#FFFFFF;stop-opacity:0.6"/>
		<stop  offset="1" style="stop-color:#FFFFFF;stop-opacity:0.15"/>
	</linearGradient>
	<path id="path36_1_" fill="url(#path36_2_)" d="M4.858,7.342c0.341-0.705,0.756-1.366,1.233-1.977L5.223,3.462
		C4.482,4.163,3.88,4.935,3.4,5.685L4.858,7.342z"/>
	
		<linearGradient id="path45_2_" gradientUnits="userSpaceOnUse" x1="1787.1091" y1="-2483.3772" x2="1789.1033" y2="-2486.8313" gradientTransform="matrix(1 0 0 -1 -1782 -2483)">
		<stop  offset="0" style="stop-color:#FFFFFF"/>
		<stop  offset="0.5" style="stop-color:#FFFFFF;stop-opacity:0.6"/>
		<stop  offset="1" style="stop-color:#FFFFFF;stop-opacity:0.15"/>
	</linearGradient>
	<path id="path45_1_" fill="url(#path45_2_)" d="M4.949,1.633l0.454,0.994C5.84,2.265,6.318,2.14,6.84,1.633H4.949z"/>
	
		<linearGradient id="path54_2_" gradientUnits="userSpaceOnUse" x1="1787.736" y1="-2482.7214" x2="1790.1725" y2="-2486.9417" gradientTransform="matrix(1 0 0 -1 -1782 -2483)">
		<stop  offset="0" style="stop-color:#FFFFFF"/>
		<stop  offset="0.5" style="stop-color:#FFFFFF;stop-opacity:0.6"/>
		<stop  offset="1" style="stop-color:#FFFFFF;stop-opacity:0.15"/>
	</linearGradient>
	<path id="path54_1_" fill="url(#path54_2_)" d="M8.353,1.633H7.994C7.089,2.14,6.298,2.527,5.619,3.105L6.451,4.93
		C7.162,4.109,7.986,3.39,8.91,2.809C8.917,2.803,8.922,2.797,8.93,2.79C9.964,1.897,8.936,1.633,8.353,1.633z"/>
	
		<linearGradient id="path63_2_" gradientUnits="userSpaceOnUse" x1="1782.6355" y1="-2486.5737" x2="1785.2798" y2="-2491.1538" gradientTransform="matrix(1 0 0 -1 -1782 -2483)">
		<stop  offset="0" style="stop-color:#FFFFFF"/>
		<stop  offset="0.5" style="stop-color:#FFFFFF;stop-opacity:0.6"/>
		<stop  offset="1" style="stop-color:#FFFFFF;stop-opacity:0.15"/>
	</linearGradient>
	<path id="path63_1_" fill="url(#path63_2_)" d="M3.124,6.138C2.567,7.086,2.204,7.961,1.988,8.56
		c0.256,0.365,0.678,0.604,1.157,0.604c0.593,0,1.1-0.366,1.31-0.884c0.054-0.145,0.119-0.284,0.179-0.426L3.124,6.138z"/>
	
		<linearGradient id="path72_2_" gradientUnits="userSpaceOnUse" x1="1782.5165" y1="-2486.7615" x2="1785.4468" y2="-2491.8372" gradientTransform="matrix(1 0 0 -1 -1782 -2483)">
		<stop  offset="0" style="stop-color:#FFFFFF"/>
		<stop  offset="0.5" style="stop-color:#FFFFFF;stop-opacity:0.6"/>
		<stop  offset="1" style="stop-color:#FFFFFF;stop-opacity:0.15"/>
	</linearGradient>
	<path id="path72_1_" fill="url(#path72_2_)" d="M1.742,4.566L1.731,7.748c0,0,0,0.001,0,0.002c0,0.02,0.005,0.039,0.006,0.058
		C1.979,7.219,2.317,6.5,2.775,5.74L1.742,4.566z"/>
	
		<linearGradient id="path149_2_" gradientUnits="userSpaceOnUse" x1="1784.7327" y1="-2485.1721" x2="1787.4844" y2="-2489.938" gradientTransform="matrix(1 0 0 -1 -1782 -2483)">
		<stop  offset="0" style="stop-color:#FFFFFF"/>
		<stop  offset="0.5" style="stop-color:#FFFFFF;stop-opacity:0.6"/>
		<stop  offset="1" style="stop-color:#FFFFFF;stop-opacity:0.15"/>
	</linearGradient>
	<path id="path149_1_" fill="url(#path149_2_)" d="M4.344,1.639C3.31,1.553,1.949,2.718,1.774,3.834l1.283,1.459
		c0.512-0.781,1.149-1.582,1.934-2.305L4.344,1.639z"/>
</g>
<g>
	<g opacity="0.3" enable-background="new    ">
		<g>
			<path fill="#FFFFFF" d="M14.309,9.474H9.663H7.01v2.171v0.507v1.435v0.507v1.605v0.507v1.607v0.507v2.121h2.653h4.646h2.629
				v-2.121v-0.508v-1.607v-0.507v-1.605v-0.507v-1.435v-0.507V9.473L14.309,9.474L14.309,9.474L14.309,9.474z M9.1,19.919H7.532
				v-1.567h1.567L9.1,19.919L9.1,19.919z M9.1,17.829H7.532v-1.565h1.567L9.1,17.829L9.1,17.829z M9.1,15.742H7.532v-1.567h1.567
				L9.1,15.742L9.1,15.742z M9.1,13.652H7.532v-1.567h1.567L9.1,13.652L9.1,13.652z M9.1,11.736H7.532V9.997h1.567L9.1,11.736
				L9.1,11.736z M14.325,15.699v0.507v1.607v0.507v1.598H9.623v-1.598v-0.506v-1.607V15.7V15.22h4.702V15.699z M14.325,11.645v0.507
				v1.435v0.507v0.602H9.623v-0.602v-0.507v-1.435v-0.507V9.997h4.702V11.645z M16.415,19.919h-1.567v-1.567h1.567V19.919z
				 M16.415,17.829h-1.567v-1.565h1.567V17.829z M16.415,15.742h-1.567v-1.567h1.567V15.742z M16.415,13.652h-1.567v-1.567h1.567
				V13.652z M16.415,11.736h-1.567V9.997h1.567V11.736z"/>
		</g>
		<g>
			<path fill="#669CCC" d="M14.309,9.126H9.663H7.01v1.999v0.678v1.435v0.507v1.605v0.507v1.607v0.507v2.121h2.653h4.646h2.629
				v-2.121v-0.508v-1.607v-0.507v-1.605v-0.507v-1.435v-0.678V9.126C16.938,9.126,14.309,9.126,14.309,9.126z M9.1,19.571H7.532
				v-1.567h1.567L9.1,19.571L9.1,19.571z M9.1,17.48H7.532v-1.565h1.567L9.1,17.48L9.1,17.48z M9.1,15.393H7.532v-1.567h1.567
				L9.1,15.393L9.1,15.393z M9.1,13.303H7.532v-1.567h1.567L9.1,13.303L9.1,13.303z M9.1,11.216H7.532V9.648h1.567L9.1,11.216
				L9.1,11.216z M14.325,15.352v0.507v1.607v0.507v1.598H9.623v-1.598v-0.508v-1.607v-0.507V14.87h4.702V15.352z M14.325,11.126
				v0.678v1.435v0.507v0.602H9.623v-0.603v-0.507v-1.435v-0.678V9.648h4.702V11.126z M16.415,19.571h-1.567v-1.567h1.567V19.571z
				 M16.415,17.48h-1.567v-1.565h1.567V17.48z M16.415,15.393h-1.567v-1.567h1.567V15.393z M16.415,13.303h-1.567v-1.567h1.567
				V13.303z M16.415,11.216h-1.567V9.648h1.567V11.216z"/>
		</g>
	</g>
	<path opacity="0.3" fill="#669CCC" enable-background="new    " d="M9.274,17.829H7.358v1.916h1.916V17.829z M9.1,19.571H7.532
		v-1.567h1.567L9.1,19.571L9.1,19.571z"/>
	<path opacity="0.3" fill="#669CCC" enable-background="new    " d="M16.589,13.652h-1.916v1.916h1.916V13.652z M16.415,15.393
		h-1.567v-1.567h1.567V15.393z"/>
	<path opacity="0.3" fill="#669CCC" enable-background="new    " d="M14.224,9.126H9.578H7.011v1.912v0.678v1.435v0.507v1.605v0.507
		v1.607v0.507v2.208h2.568h4.646h2.714v-2.208v-0.507v-1.607v-0.507v-1.605v-0.507v-1.435v-0.678V9.126
		C16.937,9.126,14.224,9.126,14.224,9.126z M16.764,19.919h-9.58V9.301h9.58V19.919L16.764,19.919z"/>
	<path opacity="0.3" fill="#669CCC" enable-background="new    " d="M16.589,15.742h-1.916v1.913h1.916V15.742z M16.415,17.48
		h-1.567v-1.565h1.567V17.48z"/>
	<path opacity="0.3" fill="#669CCC" enable-background="new    " d="M14.499,9.474H9.449v5.048h5.051V9.474L14.499,9.474z
		 M14.325,11.038v0.678v1.435v0.507v0.689H9.623v-0.689v-0.507v-1.435v-0.678V9.649h4.702V11.038z"/>
	<path opacity="0.3" fill="#669CCC" enable-background="new    " d="M14.499,14.697H9.449v5.048h5.051V14.697L14.499,14.697z
		 M14.325,15.264v0.507v1.607v0.507v1.686H9.623v-1.686v-0.507v-1.607v-0.507v-0.393h4.702V15.264z"/>
	<path opacity="0.3" fill="#669CCC" enable-background="new    " d="M16.589,17.829h-1.916v1.916h1.916V17.829z M16.415,19.571
		h-1.567v-1.567h1.567V19.571z"/>
	<path opacity="0.3" fill="#669CCC" enable-background="new    " d="M9.274,13.652H7.358v1.916h1.916V13.652z M9.1,15.393H7.532
		v-1.567h1.567L9.1,15.393L9.1,15.393z"/>
	<path opacity="0.3" fill="#669CCC" enable-background="new    " d="M9.274,15.742H7.358v1.913h1.916V15.742z M9.1,17.48H7.532
		v-1.565h1.567L9.1,17.48L9.1,17.48z"/>
	<path opacity="0.3" fill="#669CCC" enable-background="new    " d="M16.589,11.569h-1.916v1.913h1.916V11.569z M16.415,13.308
		h-1.567v-1.565h1.567V13.308z"/>
	<path opacity="0.3" fill="#669CCC" enable-background="new    " d="M9.274,11.569H7.358v1.913h1.916V11.569z M9.1,13.308H7.532
		v-1.565h1.567L9.1,13.308L9.1,13.308z"/>
	<path opacity="0.3" fill="#669CCC" enable-background="new    " d="M16.589,9.474h-1.916v1.916h1.916V9.474z M16.415,11.216h-1.567
		V9.648h1.567V11.216z"/>
	<path opacity="0.3" fill="#669CCC" enable-background="new    " d="M9.274,9.474H7.358v1.916h1.916V9.474z M9.1,11.216H7.532V9.648
		h1.567L9.1,11.216L9.1,11.216z"/>
	<rect x="9.623" y="9.649" opacity="0.3" fill="#669CCC" enable-background="new    " width="4.703" height="4.7"/>
	<rect x="9.623" y="14.871" opacity="0.3" fill="#669CCC" enable-background="new    " width="4.703" height="4.7"/>
</g>
</svg>
