<?xml version="1.0" encoding="utf-8"?>
<!-- Generator: Adobe Illustrator 17.0.0, SVG Export Plug-In . SVG Version: 6.00 Build 0)  -->
<!DOCTYPE svg PUBLIC "-//W3C//DTD SVG 1.1//EN" "http://www.w3.org/Graphics/SVG/1.1/DTD/svg11.dtd">
<svg version="1.1" id="图层_1" xmlns="http://www.w3.org/2000/svg" xmlns:xlink="http://www.w3.org/1999/xlink" x="0px" y="0px"
	 width="24px" height="24px" viewBox="0 0 24 24" enable-background="new 0 0 24 24" xml:space="preserve">
<path fill="#C4DCED" stroke="#9DBCD7" stroke-miterlimit="10" d="M22.942,20.079c0,1.595-1.293,2.888-2.888,2.888H3.896
	c-1.595,0-2.888-1.293-2.888-2.888V3.921c0-1.595,1.293-2.888,2.888-2.888h16.159c1.595,0,2.888,1.293,2.888,2.888L22.942,20.079
	L22.942,20.079z"/>
<path opacity="0.6" fill="none" stroke="#FFFFFF" stroke-miterlimit="10" enable-background="new    " d="M3.896,21.967
	c-1.041,0-1.888-0.847-1.888-1.888V3.921c0-1.041,0.847-1.888,1.888-1.888h16.159c1.041,0,1.888,0.847,1.888,1.888v16.158
	c-0.001,1.041-0.848,1.888-1.889,1.888C20.054,21.967,3.896,21.967,3.896,21.967z"/>
<path opacity="0.05" fill="none" stroke="#000000" stroke-width="0.3786" stroke-miterlimit="10" enable-background="new    " d="
	M23.02,7.276c0,0,0-0.97-0.958-0.97c-2.782,0-11.663,0.002-12.458,0.002c-0.966,0-0.958-0.956-0.958-0.956s0-0.963-0.958-0.963
	c-1.678,0-5.038,0-5.75,0c-0.943,0-0.958,0.928-0.958,0.957"/>
<linearGradient id="SVGID_1_" gradientUnits="userSpaceOnUse" x1="1381.974" y1="-1687.967" x2="1381.974" y2="-1669.882" gradientTransform="matrix(1 0 0 -1 -1370 -1665)">
	<stop  offset="0" style="stop-color:#D1E0ED"/>
	<stop  offset="1" style="stop-color:#E4EEFB"/>
</linearGradient>
<path fill="url(#SVGID_1_)" stroke="#9DBCD7" stroke-miterlimit="10" d="M3.889,22.967h16.219c1.595,0,2.833-1.326,2.833-2.92V7.098
	c0-0.227-0.34-0.441-0.792-0.441c-2.794,0-11.7,0.002-12.499,0.002c-0.97,0-0.956-0.885-0.956-0.885s0.007-0.892-0.956-0.892
	c-1.685,0-5.06,0-5.775,0c-0.948,0-0.956,0.786-0.956,0.815v14.35C1.008,21.641,2.295,22.967,3.889,22.967z"/>
<path opacity="0.8" fill="none" stroke="#FFFFFF" stroke-miterlimit="10" enable-background="new    " d="M3.889,21.967
	c-1.037,0-1.881-0.862-1.881-1.921V5.889l5.688-0.007c0.016,0.225,0.098,0.777,0.537,1.224C8.481,7.358,8.929,7.659,9.65,7.659
	l12.291-0.001v12.389c0,1.06-0.822,1.921-1.833,1.921L3.889,21.967L3.889,21.967z"/>
<g id="g27_1_">
	
		<linearGradient id="path36_2_" gradientUnits="userSpaceOnUse" x1="1784.3451" y1="-2484.1682" x2="1787.3922" y2="-2489.446" gradientTransform="matrix(1 0 0 -1 -1782 -2483)">
		<stop  offset="0" style="stop-color:#FFFFFF"/>
		<stop  offset="0.5" style="stop-color:#FFFFFF;stop-opacity:0.6"/>
		<stop  offset="1" style="stop-color:#FFFFFF;stop-opacity:0.15"/>
	</linearGradient>
	<path id="path36_1_" fill="url(#path36_2_)" d="M4.858,7.342c0.341-0.705,0.756-1.366,1.233-1.977L5.223,3.462
		C4.482,4.163,3.88,4.935,3.4,5.685L4.858,7.342z"/>
	
		<linearGradient id="path45_2_" gradientUnits="userSpaceOnUse" x1="1787.1091" y1="-2483.3772" x2="1789.1033" y2="-2486.8313" gradientTransform="matrix(1 0 0 -1 -1782 -2483)">
		<stop  offset="0" style="stop-color:#FFFFFF"/>
		<stop  offset="0.5" style="stop-color:#FFFFFF;stop-opacity:0.6"/>
		<stop  offset="1" style="stop-color:#FFFFFF;stop-opacity:0.15"/>
	</linearGradient>
	<path id="path45_1_" fill="url(#path45_2_)" d="M4.949,1.633l0.454,0.994C5.84,2.265,6.318,2.14,6.84,1.633H4.949z"/>
	
		<linearGradient id="path54_2_" gradientUnits="userSpaceOnUse" x1="1787.736" y1="-2482.7214" x2="1790.1725" y2="-2486.9417" gradientTransform="matrix(1 0 0 -1 -1782 -2483)">
		<stop  offset="0" style="stop-color:#FFFFFF"/>
		<stop  offset="0.5" style="stop-color:#FFFFFF;stop-opacity:0.6"/>
		<stop  offset="1" style="stop-color:#FFFFFF;stop-opacity:0.15"/>
	</linearGradient>
	<path id="path54_1_" fill="url(#path54_2_)" d="M8.353,1.633H7.994C7.089,2.14,6.298,2.527,5.619,3.105L6.451,4.93
		C7.162,4.109,7.986,3.39,8.91,2.809C8.917,2.803,8.922,2.797,8.93,2.79C9.964,1.897,8.936,1.633,8.353,1.633z"/>
	
		<linearGradient id="path63_2_" gradientUnits="userSpaceOnUse" x1="1782.6355" y1="-2486.5737" x2="1785.2798" y2="-2491.1538" gradientTransform="matrix(1 0 0 -1 -1782 -2483)">
		<stop  offset="0" style="stop-color:#FFFFFF"/>
		<stop  offset="0.5" style="stop-color:#FFFFFF;stop-opacity:0.6"/>
		<stop  offset="1" style="stop-color:#FFFFFF;stop-opacity:0.15"/>
	</linearGradient>
	<path id="path63_1_" fill="url(#path63_2_)" d="M3.124,6.138C2.567,7.086,2.204,7.961,1.988,8.56
		c0.256,0.365,0.678,0.604,1.157,0.604c0.593,0,1.1-0.366,1.31-0.884c0.054-0.145,0.119-0.284,0.179-0.426L3.124,6.138z"/>
	
		<linearGradient id="path72_2_" gradientUnits="userSpaceOnUse" x1="1782.5165" y1="-2486.7615" x2="1785.4468" y2="-2491.8372" gradientTransform="matrix(1 0 0 -1 -1782 -2483)">
		<stop  offset="0" style="stop-color:#FFFFFF"/>
		<stop  offset="0.5" style="stop-color:#FFFFFF;stop-opacity:0.6"/>
		<stop  offset="1" style="stop-color:#FFFFFF;stop-opacity:0.15"/>
	</linearGradient>
	<path id="path72_1_" fill="url(#path72_2_)" d="M1.742,4.566L1.731,7.748c0,0,0,0.001,0,0.002c0,0.02,0.005,0.039,0.006,0.058
		C1.979,7.219,2.317,6.5,2.775,5.74L1.742,4.566z"/>
	
		<linearGradient id="path149_2_" gradientUnits="userSpaceOnUse" x1="1784.7327" y1="-2485.1721" x2="1787.4844" y2="-2489.938" gradientTransform="matrix(1 0 0 -1 -1782 -2483)">
		<stop  offset="0" style="stop-color:#FFFFFF"/>
		<stop  offset="0.5" style="stop-color:#FFFFFF;stop-opacity:0.6"/>
		<stop  offset="1" style="stop-color:#FFFFFF;stop-opacity:0.15"/>
	</linearGradient>
	<path id="path149_1_" fill="url(#path149_2_)" d="M4.344,1.639C3.31,1.553,1.949,2.718,1.774,3.834l1.283,1.459
		c0.512-0.781,1.149-1.582,1.934-2.305L4.344,1.639z"/>
</g>
<g>
	<path opacity="0.3" fill="#FFFFFF" enable-background="new    " d="M8.002,20.931c-1.192,0-2.162-0.97-2.162-2.162V10.77
		c0-1.192,0.97-2.162,2.162-2.162H16c1.192,0,2.162,0.97,2.162,2.162v8c0,1.192-0.97,2.162-2.162,2.162L8.002,20.931L8.002,20.931z
		 M16,19.665c0.494,0,0.896-0.402,0.896-0.896v-7.729l-0.375,0.068c-0.026,0.005-0.653,0.116-1.409,0.116
		c-0.079,0-0.158-0.002-0.238-0.003c0.008,0-0.833,0.045-1.512,0.251c0.088,0.03,0.141,0.068,0.181,0.124
		c0.011,0.014,0.024,0.043,0.04,0.085l0.08-0.069c2.841,2.473,1.064,5.081,1.047,5.107c-0.907,1.272-2.306,2.282-3.416,2.946
		L16,19.665L16,19.665z M7.104,16.394c0.411,0.159,1.199,0.408,2.153,0.425l0.318,0.007c0.231,0.005,0.454,0.01,0.67,0.01
		c1.042,0,1.816-0.12,2.689-0.732c1.111-0.778,0.987-2.02,0.981-2.072c-0.004-0.217-0.037-0.435-0.085-0.641
		c-0.002,0.307-0.029,0.625-0.101,0.927c-0.008,0.048-0.289,1.491-1.655,1.838c-0.209,0.052-0.42,0.079-0.63,0.079
		c-0.839,0-1.638-0.417-2.437-1.276c-0.628-0.675-1.531-2.523-1.748-4.684c-0.099,0.144-0.155,0.317-0.155,0.496v5.625L7.104,16.394
		L7.104,16.394z M11.3,14.975c0.004,0,0.101,0.033,0.236,0.033c0.418,0,0.782-0.3,1.058-0.867c0.011-0.018,0.228-0.414,0.279-1.253
		c-0.107,0.56-0.325,1.203-0.76,1.655c-0.028,0.032-0.354,0.383-0.744,0.383c-0.067,0-0.138-0.01-0.21-0.035
		C11.202,14.921,11.25,14.95,11.3,14.975L11.3,14.975z M11.23,9.873c-0.256,0.474-0.881,1.787-0.836,3.185
		c0,0.02-0.012,0.632,0.242,1.185c-0.026-0.082-0.049-0.175-0.071-0.278c-0.012-0.044-0.337-1.439,1.392-3.051
		c0.029-0.029,0.582-0.576,1.113-1.041L11.23,9.873L11.23,9.873z"/>
	<path opacity="0.3" fill="#669CCC" enable-background="new    " d="M16,8.887H8.002c-1.039,0-1.883,0.843-1.883,1.882v8
		c0,1.039,0.843,1.882,1.883,1.882H16c1.04,0,1.883-0.843,1.883-1.882V10.77C17.884,9.73,17.041,8.887,16,8.887z M17.177,18.769
		c0,0.648-0.527,1.177-1.177,1.177h-5.782c1.006-0.521,3.083-1.731,4.263-3.388c0,0,1.682-2.398-1.001-4.735
		c0,0,0.691,1.084,0.714,2.176c0,0,0.172,1.445-1.099,2.333c-1.269,0.89-2.38,0.793-3.843,0.766
		c-1.169-0.02-2.101-0.375-2.428-0.518v-5.813c0-0.468,0.277-0.87,0.673-1.059c0.101,2.355,1.087,4.382,1.714,5.056
		c0.641,0.69,1.586,1.422,2.795,1.117c1.208-0.305,1.45-1.629,1.45-1.629c0.265-1.129-0.118-2.468-0.138-2.497
		c-0.02-0.028-0.202-0.059-0.202-0.059c0.193,1.776-0.27,2.563-0.27,2.563c-0.674,1.393-1.671,0.964-1.671,0.964
		c-1.108-0.564-1.059-2.159-1.059-2.159c-0.055-1.661,0.793-3.201,0.951-3.474h2.799c-0.575,0.391-1.716,1.526-1.716,1.526
		c-1.627,1.517-1.308,2.793-1.308,2.793c0.264,1.339,1.068,0.435,1.068,0.435c0.848-0.882,0.782-2.637,0.782-2.637
		c-0.345,0.057-0.561,0.248-0.561,0.248c-0.04,1.17-0.727,1.897-0.727,1.897c-0.268,0.296-0.458,0.014-0.458,0.014
		c-0.141-0.212,0.139-0.359,0.139-0.359c0.392-0.346,0.51-0.935,0.503-1.157c-0.006-0.221,0.112-0.282,0.112-0.282
		c0.555-0.431,1.11-0.685,1.11-0.685c0.744-0.382,2.073-0.447,2.073-0.447c0.837,0.028,1.589-0.107,1.589-0.107l0.698-0.126
		c0,0.021,0.006,0.041,0.006,0.063v8L17.177,18.769L17.177,18.769L17.177,18.769z"/>
	<g opacity="0.3">
		<path opacity="0.5" fill="#669CCC" enable-background="new    " d="M16.422,10.557c-0.006,0.001-0.605,0.107-1.309,0.107
			c-0.072,0-0.147-0.001-0.219-0.003c-0.08,0.003-1.421,0.072-2.21,0.477c-0.006,0.003-0.133,0.061-0.325,0.168
			c0.15-0.147,1.156-1.136,1.664-1.482l0.751-0.512h-3.868l-0.081,0.139c-0.176,0.301-1.046,1.894-0.988,3.624
			c-0.003,0.055-0.04,1.762,1.212,2.398c0.036,0.017,0.22,0.093,0.487,0.093c0.37,0,1.063-0.154,1.562-1.184
			c0.003-0.003,0.039-0.066,0.086-0.186c-0.024,0.111-0.259,1.166-1.247,1.415c-0.165,0.041-0.329,0.063-0.492,0.063
			c-0.676,0-1.34-0.36-2.028-1.098c-0.604-0.651-1.544-2.651-1.638-4.878L7.761,9.274L7.378,9.456
			c-0.507,0.241-0.835,0.756-0.835,1.312v5.997l0.169,0.072c0.359,0.156,1.325,0.519,2.535,0.54l0.316,0.007
			c0.236,0.005,0.462,0.01,0.683,0.01c1.124-0.001,2.021-0.139,3.011-0.835c1.39-0.974,1.224-2.53,1.216-2.596
			c-0.004-0.179-0.024-0.358-0.057-0.53c0.772,1.586-0.115,2.891-0.164,2.96c-1.125,1.579-3.09,2.746-4.163,3.3l-1.021,0.529H16
			c0.804,0,1.457-0.653,1.457-1.456v-7.998c0-0.026-0.003-0.051-0.007-0.075l-0.042-0.286l-0.288,0.025L16.422,10.557z
			 M17.177,10.77v8c0,0.648-0.527,1.177-1.177,1.177h-5.782c1.006-0.521,3.083-1.731,4.263-3.388c0,0,1.682-2.398-1.001-4.735
			c0,0,0.691,1.084,0.714,2.176c0,0,0.172,1.445-1.099,2.333c-1.269,0.89-2.38,0.793-3.843,0.766
			c-1.169-0.02-2.101-0.375-2.428-0.518V10.77c0-0.468,0.277-0.87,0.673-1.059c0.101,2.355,1.087,4.382,1.714,5.056
			c0.641,0.69,1.586,1.422,2.795,1.117c1.208-0.305,1.45-1.629,1.45-1.629c0.265-1.129-0.118-2.468-0.138-2.497
			c-0.02-0.028-0.202-0.059-0.202-0.059c0.193,1.776-0.27,2.563-0.27,2.563c-0.674,1.393-1.671,0.964-1.671,0.964
			c-1.108-0.564-1.059-2.159-1.059-2.159c-0.055-1.661,0.793-3.201,0.951-3.474h2.799c-0.575,0.391-1.716,1.526-1.716,1.526
			c-1.627,1.517-1.308,2.793-1.308,2.793c0.264,1.339,1.068,0.435,1.068,0.435c0.848-0.882,0.782-2.637,0.782-2.637
			c-0.345,0.057-0.561,0.248-0.561,0.248c-0.04,1.17-0.727,1.897-0.727,1.897c-0.268,0.296-0.458,0.014-0.458,0.014
			c-0.141-0.212,0.139-0.359,0.139-0.359c0.392-0.346,0.51-0.935,0.503-1.157c-0.006-0.221,0.112-0.282,0.112-0.282
			c0.555-0.431,1.11-0.685,1.11-0.685c0.744-0.382,2.073-0.447,2.073-0.447c0.837,0.028,1.589-0.107,1.589-0.107l0.698-0.126
			C17.172,10.728,17.177,10.748,17.177,10.77z M11.25,14.262c0.104-0.019,0.233-0.077,0.36-0.219
			c0.026-0.026,0.702-0.754,0.792-1.932l0,0c-0.032,0.535-0.166,1.497-0.694,2.044c-0.085,0.093-0.243,0.213-0.34,0.213
			C11.334,14.365,11.293,14.333,11.25,14.262z"/>
		<path opacity="0.5" fill="#669CCC" enable-background="new    " d="M16,8.887H8.002c-1.039,0-1.883,0.843-1.883,1.882v8
			c0,1.039,0.843,1.882,1.883,1.882H16c1.04,0,1.883-0.843,1.883-1.882V10.77C17.884,9.73,17.041,8.887,16,8.887z M17.603,18.769
			c0,0.884-0.719,1.602-1.602,1.602H8.002c-0.884,0-1.602-0.719-1.602-1.602V10.77c0-0.884,0.719-1.602,1.602-1.602H16
			c0.884,0,1.602,0.719,1.602,1.602L17.603,18.769L17.603,18.769z"/>
	</g>
	<g opacity="0.3">
		<path opacity="0.05" fill="#FFFFFF" enable-background="new    " d="M16.472,10.832c0,0-0.752,0.136-1.589,0.107
			c0,0-1.329,0.064-2.073,0.447c0,0-0.555,0.254-1.11,0.685c0,0-0.117,0.061-0.112,0.282c0.007,0.221-0.111,0.81-0.503,1.157
			c0,0-0.281,0.148-0.139,0.359c0,0,0.19,0.281,0.458-0.014c0,0,0.687-0.727,0.727-1.897c0,0,0.217-0.191,0.561-0.248
			c0,0,0.067,1.755-0.782,2.637c0,0-0.805,0.903-1.068-0.435c0,0-0.32-1.276,1.308-2.793c0,0,1.141-1.136,1.716-1.526h-2.799
			c-0.158,0.273-1.006,1.812-0.951,3.474c0,0-0.049,1.595,1.059,2.159c0,0,0.997,0.429,1.671-0.964c0,0,0.463-0.786,0.27-2.563
			c0,0,0.182,0.031,0.202,0.059c0.02,0.029,0.403,1.367,0.138,2.497c0,0-0.242,1.324-1.45,1.629
			c-1.208,0.304-2.153-0.428-2.795-1.117c-0.627-0.674-1.612-2.7-1.714-5.056c-0.397,0.189-0.673,0.591-0.673,1.059v5.813
			c0.327,0.143,1.259,0.497,2.428,0.518c1.462,0.026,2.573,0.124,3.843-0.766c1.27-0.889,1.099-2.333,1.099-2.333
			c-0.024-1.093-0.714-2.176-0.714-2.176c2.682,2.336,1.001,4.735,1.001,4.735c-1.18,1.657-3.257,2.867-4.263,3.388H16
			c0.649,0,1.177-0.528,1.177-1.177V10.77c0-0.021-0.006-0.041-0.006-0.063L16.472,10.832z M10.779,11.902
			c0.154-0.742,0.434-1.378,0.621-1.75h0.945c-0.322,0.302-0.567,0.546-0.579,0.556C11.322,11.125,11.006,11.528,10.779,11.902z
			 M10.246,16.556c-0.214,0-0.435-0.005-0.664-0.01l-0.32-0.007c-0.793-0.014-1.467-0.198-1.877-0.34v-3.879
			c0.378,1.262,0.932,2.308,1.417,2.83c0.777,0.835,1.561,1.28,2.39,1.355C10.902,16.543,10.592,16.556,10.246,16.556z
			 M16.616,18.769c0,0.34-0.277,0.616-0.616,0.616h-3.748c0.924-0.631,1.958-1.484,2.688-2.506c0.018-0.028,1.843-2.704-0.874-5.281
			c0.362-0.062,0.688-0.088,0.814-0.097c0.079,0.002,0.156,0.003,0.233,0.003c0.785,0,1.432-0.116,1.46-0.121l0.044-0.008
			C16.616,11.376,16.616,18.769,16.616,18.769z"/>
		<path opacity="0.05" fill="#FFFFFF" enable-background="new    " d="M16,8.328H8.002c-1.347,0-2.443,1.095-2.443,2.443v8
			c0,1.347,1.096,2.443,2.443,2.443H16c1.347,0,2.443-1.095,2.443-2.443v-8C18.443,9.423,17.347,8.328,16,8.328z M17.884,18.769
			c0,1.039-0.842,1.882-1.883,1.882H8.002c-1.039,0-1.883-0.843-1.883-1.882V10.77c0-1.039,0.843-1.882,1.883-1.882H16
			c1.04,0,1.883,0.843,1.883,1.882L17.884,18.769L17.884,18.769z"/>
	</g>
	<g opacity="0.3">
		<path opacity="0.9" fill="#FFFFFF" enable-background="new    " d="M14.482,16.838c0,0,0.561-0.804,0.516-1.932
			c-0.045,0.979-0.516,1.652-0.516,1.652c-1.18,1.658-3.257,2.867-4.263,3.388h0.518C11.826,19.332,13.476,18.247,14.482,16.838z"/>
		<path opacity="0.9" fill="#FFFFFF" enable-background="new    " d="M10.842,14.192c0.264,1.339,1.068,0.437,1.068,0.437
			c0.848-0.882,0.782-2.638,0.782-2.638c-0.002,0-0.003,0.001-0.003,0.001c-0.02,0.532-0.139,1.692-0.78,2.355
			c0,0-0.805,0.903-1.068-0.435c0,0-0.012-0.05-0.02-0.139C10.805,14.036,10.842,14.192,10.842,14.192z"/>
		<path opacity="0.9" fill="#FFFFFF" enable-background="new    " d="M10.115,13.118c0-0.016,0-0.031,0-0.047
			C10.115,13.076,10.115,13.091,10.115,13.118z"/>
		<path opacity="0.9" fill="#FFFFFF" enable-background="new    " d="M13.141,11.983c-0.014-0.003-0.025-0.005-0.025-0.005
			c0.028,0.25,0.041,0.478,0.044,0.69C13.165,12.462,13.16,12.235,13.141,11.983z"/>
		<path opacity="0.9" fill="#FFFFFF" enable-background="new    " d="M11.067,9.593c-0.157,0.271-0.995,1.793-0.951,3.443
			c0.049-1.54,0.803-2.907,0.951-3.163h2.435c0.133-0.111,0.258-0.208,0.365-0.281L11.067,9.593L11.067,9.593z"/>
		<path opacity="0.9" fill="#FFFFFF" enable-background="new    " d="M16,20.65H8.002c-1.039,0-1.883-0.843-1.883-1.882v0.279
			c0,1.04,0.843,1.883,1.883,1.883H16c1.04,0,1.883-0.842,1.883-1.883v-0.279C17.884,19.808,17.041,20.65,16,20.65z"/>
		<path opacity="0.9" fill="#FFFFFF" enable-background="new    " d="M17.172,10.706l-0.698,0.126c0,0-0.752,0.136-1.589,0.107
			c0,0-1.329,0.064-2.073,0.447c0,0-0.555,0.254-1.11,0.685c0,0-0.117,0.061-0.112,0.282c0.007,0.221-0.111,0.81-0.503,1.157
			c0,0-0.281,0.148-0.139,0.359c0,0,0.007,0.009,0.016,0.021c0.053-0.064,0.124-0.1,0.124-0.1c0.392-0.347,0.51-0.935,0.503-1.157
			c-0.006-0.221,0.112-0.282,0.112-0.282c0.145-0.112,0.289-0.211,0.423-0.299c0.002-0.032,0.006-0.063,0.007-0.095
			c0,0,0.217-0.191,0.561-0.248c0,0,0,0.008,0,0.015c0.073-0.037,0.118-0.058,0.118-0.058c0.744-0.382,2.073-0.446,2.073-0.446
			c0.837,0.027,1.589-0.109,1.589-0.109l0.698-0.126c0,0.021,0.006,0.041,0.006,0.063v-0.28
			C17.177,10.748,17.172,10.728,17.172,10.706z"/>
		<path opacity="0.9" fill="#FFFFFF" enable-background="new    " d="M9.212,14.766c-0.627-0.674-1.612-2.7-1.714-5.056
			c-0.397,0.189-0.673,0.591-0.673,1.059v0.28c0-0.468,0.277-0.87,0.673-1.059c0.101,2.355,1.087,4.383,1.714,5.057
			c0.641,0.689,1.586,1.421,2.795,1.116c1.208-0.304,1.45-1.629,1.45-1.629c0.08-0.338,0.1-0.696,0.091-1.03
			c-0.007,0.249-0.032,0.504-0.091,0.751c0,0-0.242,1.324-1.45,1.629C10.798,16.188,9.854,15.455,9.212,14.766z"/>
	</g>
	<g opacity="0.3">
		<path opacity="0.5" fill="#669CCC" enable-background="new    " d="M10.822,13.764c0.03-0.495,0.258-1.385,1.328-2.382
			c0,0,1.141-1.136,1.716-1.526h-0.344c-0.594,0.49-1.373,1.264-1.373,1.264C10.849,12.332,10.794,13.388,10.822,13.764z"/>
		<path opacity="0.5" fill="#669CCC" enable-background="new    " d="M13.481,11.822c0,0,0.129,0.203,0.277,0.521
			c0.917,0.904,1.213,1.802,1.241,2.555C15.037,14.03,14.74,12.919,13.481,11.822z"/>
		<path opacity="0.5" fill="#669CCC" enable-background="new    " d="M13.319,11.758c-0.02-0.028-0.202-0.059-0.202-0.059
			c0.011,0.092,0.017,0.181,0.024,0.267c0.049,0.009,0.163,0.034,0.178,0.055c0.014,0.02,0.207,0.689,0.229,1.476
			C13.57,12.601,13.334,11.781,13.319,11.758z"/>
		<path opacity="0.5" fill="#669CCC" enable-background="new    " d="M10.115,13.019c-0.002,0.017,0,0.035,0,0.052v-0.004
			C10.114,13.051,10.115,13.035,10.115,13.019z"/>
		<path opacity="0.5" fill="#669CCC" enable-background="new    " d="M11.405,13.855c-0.231,0.257-0.404,0.08-0.447,0.028
			c-0.048,0.064-0.079,0.149-0.011,0.249c0,0,0.19,0.281,0.458-0.014c0,0,0.687-0.728,0.727-1.897c0,0,0.217-0.19,0.559-0.247
			c0.006-0.163,0.003-0.264,0.003-0.264c-0.003,0.001-0.006,0.002-0.008,0.002c-0.124,0.063-0.325,0.172-0.56,0.324
			C12.059,13.16,11.405,13.855,11.405,13.855z"/>
		<path opacity="0.5" fill="#669CCC" enable-background="new    " d="M16,8.887H8.002c-1.039,0-1.883,0.843-1.883,1.882v0.263
			c0-1.039,0.843-1.882,1.883-1.882H16c1.04,0,1.883,0.843,1.883,1.882v-0.263C17.884,9.73,17.041,8.887,16,8.887z"/>
		<path opacity="0.5" fill="#669CCC" enable-background="new    " d="M9.253,17.362c1.462,0.026,2.573,0.124,3.843-0.766
			c1.141-0.799,1.119-2.044,1.103-2.287c-0.024,0.472-0.196,1.389-1.103,2.025c-1.269,0.89-2.38,0.793-3.843,0.766
			c-1.169-0.02-2.101-0.375-2.428-0.518v0.263C7.152,16.987,8.084,17.341,9.253,17.362z"/>
		<path opacity="0.5" fill="#669CCC" enable-background="new    " d="M11.175,15.488c0,0,0.997,0.429,1.671-0.964
			c0,0,0.338-0.579,0.314-1.86c-0.023,1.097-0.314,1.598-0.314,1.598c-0.674,1.393-1.671,0.964-1.671,0.964
			c-0.993-0.506-1.057-1.834-1.059-2.107c-0.002,0.071-0.003,0.139,0,0.21C10.115,13.329,10.066,14.924,11.175,15.488z"/>
		<path opacity="0.5" fill="#669CCC" enable-background="new    " d="M16,20.208c0.649,0,1.177-0.527,1.177-1.177v-0.263
			c0,0.648-0.527,1.177-1.177,1.177h-5.295c-0.18,0.1-0.345,0.189-0.487,0.262C10.218,20.208,16,20.208,16,20.208z"/>
	</g>
</g>
</svg>
