<?xml version="1.0" encoding="utf-8"?>
<!-- Generator: Adobe Illustrator 17.0.0, SVG Export Plug-In . SVG Version: 6.00 Build 0)  -->
<!DOCTYPE svg PUBLIC "-//W3C//DTD SVG 1.1//EN" "http://www.w3.org/Graphics/SVG/1.1/DTD/svg11.dtd">
<svg version="1.1" id="图层_1" xmlns="http://www.w3.org/2000/svg" xmlns:xlink="http://www.w3.org/1999/xlink" x="0px" y="0px"
	 width="24px" height="24px" viewBox="0 0 24 24" enable-background="new 0 0 24 24" xml:space="preserve">
<path fill="#C4DCED" stroke="#9DBCD7" stroke-miterlimit="10" d="M22.942,20.079c0,1.595-1.293,2.888-2.888,2.888H3.896
	c-1.595,0-2.888-1.293-2.888-2.888V3.921c0-1.595,1.293-2.888,2.888-2.888h16.159c1.595,0,2.888,1.293,2.888,2.888L22.942,20.079
	L22.942,20.079z"/>
<path opacity="0.6" fill="none" stroke="#FFFFFF" stroke-miterlimit="10" enable-background="new    " d="M3.896,21.967
	c-1.041,0-1.888-0.847-1.888-1.888V3.921c0-1.041,0.847-1.888,1.888-1.888h16.159c1.041,0,1.888,0.847,1.888,1.888v16.158
	c-0.001,1.041-0.848,1.888-1.889,1.888C20.054,21.967,3.896,21.967,3.896,21.967z"/>
<path opacity="0.05" fill="none" stroke="#000000" stroke-width="0.3786" stroke-miterlimit="10" enable-background="new    " d="
	M23.02,7.276c0,0,0-0.97-0.958-0.97c-2.782,0-11.663,0.002-12.458,0.002c-0.966,0-0.958-0.956-0.958-0.956s0-0.963-0.958-0.963
	c-1.678,0-5.038,0-5.75,0c-0.943,0-0.958,0.928-0.958,0.957"/>
<linearGradient id="SVGID_1_" gradientUnits="userSpaceOnUse" x1="1381.974" y1="-1687.967" x2="1381.974" y2="-1669.882" gradientTransform="matrix(1 0 0 -1 -1370 -1665)">
	<stop  offset="0" style="stop-color:#D1E0ED"/>
	<stop  offset="1" style="stop-color:#E4EEFB"/>
</linearGradient>
<path fill="url(#SVGID_1_)" stroke="#9DBCD7" stroke-miterlimit="10" d="M3.889,22.967h16.219c1.595,0,2.833-1.326,2.833-2.92V7.098
	c0-0.227-0.34-0.441-0.792-0.441c-2.794,0-11.7,0.002-12.499,0.002c-0.97,0-0.956-0.885-0.956-0.885s0.007-0.892-0.956-0.892
	c-1.685,0-5.06,0-5.775,0c-0.948,0-0.956,0.786-0.956,0.815v14.35C1.008,21.641,2.295,22.967,3.889,22.967z"/>
<path opacity="0.8" fill="none" stroke="#FFFFFF" stroke-miterlimit="10" enable-background="new    " d="M3.889,21.967
	c-1.037,0-1.881-0.862-1.881-1.921V5.889l5.688-0.007c0.016,0.225,0.098,0.777,0.537,1.224C8.481,7.358,8.929,7.659,9.65,7.659
	l12.291-0.001v12.389c0,1.06-0.822,1.921-1.833,1.921L3.889,21.967L3.889,21.967z"/>
<g id="g27_1_">
	
		<linearGradient id="path36_2_" gradientUnits="userSpaceOnUse" x1="1784.3451" y1="-2484.1682" x2="1787.3922" y2="-2489.446" gradientTransform="matrix(1 0 0 -1 -1782 -2483)">
		<stop  offset="0" style="stop-color:#FFFFFF"/>
		<stop  offset="0.5" style="stop-color:#FFFFFF;stop-opacity:0.6"/>
		<stop  offset="1" style="stop-color:#FFFFFF;stop-opacity:0.15"/>
	</linearGradient>
	<path id="path36_1_" fill="url(#path36_2_)" d="M4.858,7.342c0.341-0.705,0.756-1.366,1.233-1.977L5.223,3.462
		C4.482,4.163,3.88,4.935,3.4,5.685L4.858,7.342z"/>
	
		<linearGradient id="path45_2_" gradientUnits="userSpaceOnUse" x1="1787.1091" y1="-2483.3772" x2="1789.1033" y2="-2486.8313" gradientTransform="matrix(1 0 0 -1 -1782 -2483)">
		<stop  offset="0" style="stop-color:#FFFFFF"/>
		<stop  offset="0.5" style="stop-color:#FFFFFF;stop-opacity:0.6"/>
		<stop  offset="1" style="stop-color:#FFFFFF;stop-opacity:0.15"/>
	</linearGradient>
	<path id="path45_1_" fill="url(#path45_2_)" d="M4.949,1.633l0.454,0.994C5.84,2.265,6.318,2.14,6.84,1.633H4.949z"/>
	
		<linearGradient id="path54_2_" gradientUnits="userSpaceOnUse" x1="1787.736" y1="-2482.7214" x2="1790.1725" y2="-2486.9417" gradientTransform="matrix(1 0 0 -1 -1782 -2483)">
		<stop  offset="0" style="stop-color:#FFFFFF"/>
		<stop  offset="0.5" style="stop-color:#FFFFFF;stop-opacity:0.6"/>
		<stop  offset="1" style="stop-color:#FFFFFF;stop-opacity:0.15"/>
	</linearGradient>
	<path id="path54_1_" fill="url(#path54_2_)" d="M8.353,1.633H7.994C7.089,2.14,6.298,2.527,5.619,3.105L6.451,4.93
		C7.162,4.109,7.986,3.39,8.91,2.809C8.917,2.803,8.922,2.797,8.93,2.79C9.964,1.897,8.936,1.633,8.353,1.633z"/>
	
		<linearGradient id="path63_2_" gradientUnits="userSpaceOnUse" x1="1782.6355" y1="-2486.5737" x2="1785.2798" y2="-2491.1538" gradientTransform="matrix(1 0 0 -1 -1782 -2483)">
		<stop  offset="0" style="stop-color:#FFFFFF"/>
		<stop  offset="0.5" style="stop-color:#FFFFFF;stop-opacity:0.6"/>
		<stop  offset="1" style="stop-color:#FFFFFF;stop-opacity:0.15"/>
	</linearGradient>
	<path id="path63_1_" fill="url(#path63_2_)" d="M3.124,6.138C2.567,7.086,2.204,7.961,1.988,8.56
		c0.256,0.365,0.678,0.604,1.157,0.604c0.593,0,1.1-0.366,1.31-0.884c0.054-0.145,0.119-0.284,0.179-0.426L3.124,6.138z"/>
	
		<linearGradient id="path72_2_" gradientUnits="userSpaceOnUse" x1="1782.5165" y1="-2486.7615" x2="1785.4468" y2="-2491.8372" gradientTransform="matrix(1 0 0 -1 -1782 -2483)">
		<stop  offset="0" style="stop-color:#FFFFFF"/>
		<stop  offset="0.5" style="stop-color:#FFFFFF;stop-opacity:0.6"/>
		<stop  offset="1" style="stop-color:#FFFFFF;stop-opacity:0.15"/>
	</linearGradient>
	<path id="path72_1_" fill="url(#path72_2_)" d="M1.742,4.566L1.731,7.748c0,0,0,0.001,0,0.002c0,0.02,0.005,0.039,0.006,0.058
		C1.979,7.219,2.317,6.5,2.775,5.74L1.742,4.566z"/>
	
		<linearGradient id="path149_2_" gradientUnits="userSpaceOnUse" x1="1784.7327" y1="-2485.1721" x2="1787.4844" y2="-2489.938" gradientTransform="matrix(1 0 0 -1 -1782 -2483)">
		<stop  offset="0" style="stop-color:#FFFFFF"/>
		<stop  offset="0.5" style="stop-color:#FFFFFF;stop-opacity:0.6"/>
		<stop  offset="1" style="stop-color:#FFFFFF;stop-opacity:0.15"/>
	</linearGradient>
	<path id="path149_1_" fill="url(#path149_2_)" d="M4.344,1.639C3.31,1.553,1.949,2.718,1.774,3.834l1.283,1.459
		c0.512-0.781,1.149-1.582,1.934-2.305L4.344,1.639z"/>
</g>
<g>
	<path opacity="0.3" fill="#FFFFFF" enable-background="new    " d="M11.916,7.887c-0.387,0-0.714,0.328-0.714,0.715v1.476
		c-0.565,0.333-0.954,0.928-0.954,1.625c0,0.312,0.098,0.598,0.231,0.857l-0.455,1.529h-0.73c-0.387,0-0.716,0.328-0.716,0.714
		c0,0.387,0.328,0.715,0.716,0.715h0.305l-0.351,1.163c-0.274,0.922-0.417,1.783-0.425,2.475c-0.003,0.346,0.018,0.646,0.106,0.918
		c0.085,0.271,0.263,0.569,0.603,0.671c0.252,0.073,0.514-0.071,0.59-0.321l1.461-4.906h1.156l1.461,4.906
		c0.076,0.251,0.339,0.394,0.59,0.321c0.34-0.102,0.518-0.4,0.604-0.671c0.086-0.272,0.108-0.571,0.104-0.918
		c-0.007-0.692-0.15-1.553-0.425-2.475l-0.351-1.163h0.299c0.387,0,0.716-0.328,0.716-0.715c0-0.387-0.328-0.714-0.716-0.714h-0.724
		l-0.454-1.536c0.13-0.259,0.224-0.542,0.224-0.85c0-0.697-0.39-1.293-0.954-1.625V8.602c0-0.387-0.328-0.715-0.716-0.715H11.916
		L11.916,7.887z M11.916,8.363h0.477c0.133,0,0.239,0.106,0.239,0.238v1.752c0.556,0.196,0.954,0.726,0.954,1.349
		c0,0.302-0.094,0.582-0.254,0.813l0.612,2.05h1.073c0.133,0,0.238,0.106,0.238,0.238c0,0.133-0.106,0.239-0.238,0.239h-0.931
		l0.529,1.775c0.529,1.773,0.544,3.324,0.037,3.474l-1.566-5.248h-1.856l-1.566,5.247c-0.507-0.151-0.492-1.701,0.037-3.474
		l0.529-1.775H9.293c-0.133,0-0.239-0.107-0.239-0.239c0-0.133,0.107-0.238,0.239-0.238h1.081l0.611-2.043
		c-0.163-0.232-0.26-0.513-0.26-0.82c0-0.623,0.398-1.153,0.954-1.349V8.601C11.678,8.47,11.784,8.363,11.916,8.363z M12.155,10.749
		c-0.527,0-0.954,0.427-0.954,0.954c0,0.077,0.012,0.152,0.029,0.224c0.01,0.044,0.021,0.085,0.037,0.127
		c0.017,0.043,0.036,0.086,0.06,0.127c0.006,0.011,0.015,0.018,0.023,0.029c0.005,0.01,0.008,0.02,0.015,0.029
		c0.011,0.017,0.025,0.029,0.037,0.045c0.026,0.035,0.058,0.074,0.088,0.104c0.025,0.023,0.049,0.046,0.075,0.067
		c0.01,0.008,0.019,0.015,0.029,0.023c0.015,0.01,0.03,0.02,0.045,0.029c0.04,0.025,0.084,0.048,0.127,0.067
		c0.005,0.002,0.01,0.006,0.015,0.008c0.055,0.023,0.112,0.04,0.171,0.052c0.064,0.013,0.133,0.023,0.202,0.023
		c0.071,0,0.142-0.015,0.208-0.03c0.044-0.01,0.085-0.021,0.127-0.037c0.083-0.031,0.161-0.075,0.231-0.126
		c0.036-0.026,0.074-0.052,0.104-0.083c0.03-0.03,0.056-0.062,0.082-0.097c0.025-0.032,0.046-0.069,0.067-0.104
		c0.002-0.003,0.007-0.005,0.008-0.008c0.02-0.036,0.044-0.072,0.06-0.111c0.017-0.042,0.026-0.088,0.036-0.134
		c0.018-0.071,0.03-0.147,0.03-0.224C13.109,11.177,12.682,10.749,12.155,10.749z M12.155,11.227c0.27,0,0.477,0.207,0.477,0.476
		c0,0.024-0.003,0.062-0.015,0.111c-0.013,0.059-0.02,0.08-0.015,0.067c0.005-0.014-0.008,0.006-0.03,0.045
		c-0.002,0.003,0.002,0.003,0,0.008c-0.003,0.006-0.003,0.001-0.007,0.008c-0.02,0.034-0.033,0.056-0.03,0.052
		c-0.029,0.037-0.044,0.045-0.044,0.045c0.012-0.012-0.006,0.01-0.052,0.044c-0.038,0.029-0.075,0.046-0.112,0.06
		c-0.019,0.008-0.041,0.016-0.067,0.022c-0.063,0.014-0.099,0.015-0.104,0.015c-0.029,0-0.067,0-0.104-0.008
		c-0.023-0.005-0.036-0.008-0.052-0.015c0.001-0.001-0.007-0.005-0.029-0.015c-0.005-0.002-0.003,0.001-0.008,0
		c-0.026-0.011-0.052-0.029-0.068-0.037c-0.012-0.008-0.019-0.013-0.021-0.015c-0.007-0.006-0.012-0.005-0.015-0.008
		c-0.001,0-0.015-0.015-0.03-0.029c-0.001-0.002,0.002-0.006,0-0.008c-0.001-0.002-0.023-0.024-0.044-0.052
		c-0.011-0.015-0.016-0.013-0.023-0.022c-0.008-0.011-0.005-0.01-0.007-0.015c-0.005-0.005-0.005-0.002-0.008-0.007
		c-0.003-0.006-0.005-0.002-0.008-0.008c-0.002-0.005-0.01-0.015-0.015-0.022c-0.001-0.002,0.001-0.006,0-0.008
		c-0.003-0.006-0.015-0.023-0.015-0.023c-0.001-0.002,0.001-0.005,0-0.008c-0.002-0.006-0.005-0.025-0.015-0.067
		c-0.011-0.05-0.015-0.087-0.015-0.111C11.678,11.434,11.885,11.227,12.155,11.227z M11.819,13.09l-0.439,1.477h1.565l-0.439-1.477
		c-0.112,0.029-0.23,0.045-0.351,0.045C12.04,13.135,11.927,13.116,11.819,13.09z M12.155,13.613c0.002,0,0.005,0,0.007,0
		l0.15,0.477h-0.299L12.155,13.613z"/>
	<path opacity="0.3" fill="#FFFFFF" enable-background="new    " d="M11.916,8.118c-0.265,0-0.484,0.219-0.484,0.485v1.61
		c-0.561,0.273-0.954,0.829-0.954,1.491c0,0.307,0.094,0.587,0.238,0.835l-0.529,1.782H9.293c-0.265,0-0.485,0.219-0.485,0.484
		c0,0.265,0.22,0.485,0.485,0.485h0.603l-0.433,1.454c-0.27,0.905-0.41,1.753-0.417,2.415c-0.003,0.331,0.023,0.615,0.097,0.85
		c0.075,0.234,0.208,0.451,0.447,0.521c0.13,0.042,0.271-0.03,0.313-0.162c0-0.001,0-0.001,0-0.002l1.514-5.077h1.484l1.513,5.077
		c0.041,0.132,0.179,0.205,0.311,0.164c0.001,0,0.002,0,0.002,0c0.239-0.071,0.374-0.288,0.447-0.522
		c0.075-0.234,0.101-0.519,0.098-0.85c-0.008-0.662-0.149-1.511-0.418-2.415l-0.431-1.454h0.596c0.265,0,0.485-0.219,0.485-0.485
		c0-0.265-0.22-0.484-0.485-0.484h-0.887l-0.529-1.789c0.141-0.246,0.231-0.525,0.231-0.828c0-0.662-0.394-1.219-0.954-1.491v-1.61
		c0-0.265-0.219-0.485-0.485-0.485h-0.475v0.001L11.916,8.118L11.916,8.118z M11.916,8.363h0.477c0.133,0,0.239,0.106,0.239,0.238
		v1.752c0.556,0.196,0.954,0.726,0.954,1.349c0,0.302-0.094,0.582-0.254,0.813l0.612,2.05h1.073c0.133,0,0.238,0.106,0.238,0.238
		c0,0.133-0.106,0.239-0.238,0.239h-0.931l0.529,1.775c0.529,1.773,0.544,3.324,0.037,3.474l-1.566-5.248h-1.856l-1.566,5.247
		c-0.507-0.151-0.492-1.701,0.037-3.474l0.529-1.775H9.293c-0.133,0-0.239-0.107-0.239-0.239c0-0.133,0.107-0.238,0.239-0.238h1.081
		l0.611-2.043c-0.163-0.232-0.26-0.513-0.26-0.82c0-0.623,0.398-1.153,0.954-1.349V8.601C11.678,8.47,11.784,8.363,11.916,8.363z
		 M12.155,10.749c-0.527,0-0.954,0.427-0.954,0.954c0,0.077,0.012,0.152,0.029,0.224c0.01,0.044,0.021,0.085,0.037,0.127
		c0.017,0.043,0.036,0.086,0.06,0.127c0.006,0.011,0.015,0.018,0.023,0.029c0.005,0.01,0.008,0.02,0.015,0.029
		c0.011,0.017,0.025,0.029,0.037,0.045c0.026,0.035,0.058,0.074,0.088,0.104c0.025,0.023,0.049,0.046,0.075,0.067
		c0.01,0.008,0.019,0.015,0.029,0.023c0.015,0.01,0.03,0.02,0.045,0.029c0.04,0.025,0.084,0.048,0.127,0.067
		c0.005,0.002,0.01,0.006,0.015,0.008c0.055,0.023,0.112,0.04,0.171,0.052c0.064,0.013,0.133,0.023,0.202,0.023
		c0.071,0,0.142-0.015,0.208-0.03c0.044-0.01,0.085-0.021,0.127-0.037c0.083-0.031,0.161-0.075,0.231-0.126
		c0.036-0.026,0.074-0.052,0.104-0.083c0.03-0.03,0.056-0.062,0.082-0.097c0.025-0.032,0.046-0.069,0.067-0.104
		c0.002-0.003,0.007-0.005,0.008-0.008c0.02-0.036,0.044-0.072,0.06-0.111c0.017-0.042,0.026-0.088,0.036-0.134
		c0.018-0.071,0.03-0.147,0.03-0.224C13.109,11.177,12.682,10.749,12.155,10.749z M12.155,10.996c0.392,0,0.709,0.315,0.709,0.708
		c0,0.05-0.008,0.104-0.023,0.164c-0.012,0.052-0.024,0.09-0.029,0.104c-0.005,0.01-0.02,0.031-0.045,0.074
		c-0.002,0.003,0.002,0.005,0,0.008c-0.002,0.002-0.005-0.003-0.007,0c-0.02,0.034-0.034,0.068-0.045,0.082
		c-0.027,0.036-0.044,0.053-0.059,0.067c-0.01,0.008-0.041,0.029-0.083,0.06c-0.053,0.04-0.112,0.075-0.171,0.097
		c-0.03,0.011-0.055,0.014-0.09,0.022c-0.066,0.015-0.119,0.03-0.156,0.03c-0.047,0-0.1-0.012-0.15-0.023
		c-0.041-0.01-0.078-0.018-0.112-0.03c0.001-0.001-0.003-0.003-0.013-0.008c-0.003-0.001-0.003,0.002-0.008,0
		c-0.034-0.015-0.071-0.036-0.098-0.052c-0.011-0.008-0.021-0.017-0.029-0.023c-0.002-0.001-0.006,0.002-0.008,0
		c-0.006-0.005-0.01-0.011-0.015-0.015c-0.012-0.01-0.036-0.029-0.059-0.052c-0.016-0.016-0.044-0.043-0.068-0.075
		c-0.029-0.038-0.033-0.053-0.021-0.037c0.027,0.041,0.019,0.033-0.015-0.022c-0.01-0.014-0.011-0.016-0.016-0.022
		c-0.015-0.026-0.03-0.054-0.044-0.09c-0.01-0.023-0.019-0.055-0.029-0.097c-0.015-0.06-0.023-0.115-0.023-0.164
		C11.446,11.31,11.761,10.996,12.155,10.996z M11.819,13.09l-0.439,1.477h1.565l-0.439-1.477c-0.112,0.029-0.23,0.045-0.351,0.045
		C12.04,13.135,11.927,13.116,11.819,13.09z M11.998,13.358c0.053,0.006,0.1,0.023,0.156,0.023c0.06,0,0.113-0.016,0.171-0.023
		l0.283,0.962h-0.894L11.998,13.358z"/>
	<path opacity="0.3" fill="#669CCC" enable-background="new    " d="M11.916,8.363c-0.132,0-0.238,0.106-0.238,0.238v1.752
		c-0.556,0.196-0.954,0.726-0.954,1.349c0,0.306,0.098,0.587,0.26,0.82l-0.611,2.043H9.293c-0.133,0-0.239,0.106-0.239,0.238
		c0,0.133,0.107,0.239,0.239,0.239h0.939l-0.529,1.775c-0.529,1.773-0.544,3.324-0.037,3.474l1.565-5.248h1.856l1.566,5.248
		c0.507-0.151,0.491-1.701-0.037-3.474l-0.529-1.775h0.931c0.133,0,0.238-0.107,0.238-0.239s-0.106-0.238-0.238-0.238h-1.073
		l-0.612-2.05c0.159-0.231,0.254-0.511,0.254-0.813c0-0.623-0.398-1.153-0.954-1.349V8.602c0-0.132-0.107-0.238-0.239-0.238
		C12.392,8.363,11.916,8.363,11.916,8.363z M12.155,10.749c0.527,0,0.954,0.427,0.954,0.954c0,0.077-0.012,0.152-0.03,0.224
		c-0.01,0.046-0.019,0.091-0.036,0.134c-0.016,0.039-0.04,0.076-0.06,0.111c-0.001,0.003-0.006,0.005-0.008,0.008
		c-0.02,0.035-0.042,0.072-0.067,0.104c-0.026,0.034-0.051,0.066-0.082,0.097c-0.03,0.03-0.069,0.057-0.104,0.083
		c-0.071,0.051-0.149,0.095-0.231,0.126c-0.042,0.015-0.083,0.028-0.127,0.037c-0.067,0.015-0.137,0.03-0.208,0.03
		c-0.069,0-0.137-0.01-0.202-0.023c-0.059-0.012-0.116-0.029-0.171-0.052c-0.006-0.002-0.01-0.006-0.015-0.008
		c-0.043-0.019-0.087-0.042-0.127-0.067c-0.015-0.01-0.03-0.019-0.045-0.029c-0.01-0.008-0.019-0.015-0.029-0.023
		c-0.026-0.021-0.05-0.043-0.075-0.067c-0.03-0.03-0.062-0.069-0.088-0.104c-0.012-0.016-0.026-0.029-0.037-0.045
		c-0.007-0.01-0.01-0.02-0.015-0.029c-0.008-0.011-0.017-0.019-0.023-0.029c-0.024-0.041-0.043-0.084-0.06-0.127
		c-0.016-0.042-0.027-0.083-0.037-0.127c-0.017-0.071-0.029-0.147-0.029-0.224C11.201,11.177,11.628,10.749,12.155,10.749z
		 M11.819,13.09c0.108,0.026,0.22,0.045,0.335,0.045c0.12,0,0.238-0.017,0.351-0.045l0.439,1.477H11.38L11.819,13.09z"/>
	<path opacity="0.3" fill="#669CCC" enable-background="new    " d="M11.916,8.363c-0.132,0-0.238,0.106-0.238,0.238v1.752
		c-0.556,0.196-0.954,0.726-0.954,1.349c0,0.306,0.098,0.587,0.26,0.82l-0.611,2.043H9.293c-0.133,0-0.239,0.106-0.239,0.238
		c0,0.133,0.107,0.239,0.239,0.239h0.939l-0.529,1.775c-0.529,1.773-0.544,3.324-0.037,3.474l1.565-5.248h1.856l1.566,5.248
		c0.507-0.151,0.491-1.701-0.037-3.474l-0.529-1.775h0.931c0.133,0,0.238-0.107,0.238-0.239s-0.106-0.238-0.238-0.238h-1.073
		l-0.612-2.05c0.159-0.231,0.254-0.511,0.254-0.813c0-0.623-0.398-1.153-0.954-1.349V8.602c0-0.132-0.107-0.238-0.239-0.238
		C12.392,8.363,11.916,8.363,11.916,8.363z M12.155,10.749c0.527,0,0.954,0.427,0.954,0.954c0,0.077-0.012,0.152-0.03,0.224
		c-0.01,0.046-0.019,0.091-0.036,0.134c-0.016,0.039-0.04,0.076-0.06,0.111c-0.001,0.003-0.006,0.005-0.008,0.008
		c-0.02,0.035-0.042,0.072-0.067,0.104c-0.026,0.034-0.051,0.066-0.082,0.097c-0.03,0.03-0.069,0.057-0.104,0.083
		c-0.071,0.051-0.149,0.095-0.231,0.126c-0.042,0.015-0.083,0.028-0.127,0.037c-0.067,0.015-0.137,0.03-0.208,0.03
		c-0.069,0-0.137-0.01-0.202-0.023c-0.059-0.012-0.116-0.029-0.171-0.052c-0.006-0.002-0.01-0.006-0.015-0.008
		c-0.043-0.019-0.087-0.042-0.127-0.067c-0.015-0.01-0.03-0.019-0.045-0.029c-0.01-0.008-0.019-0.015-0.029-0.023
		c-0.026-0.021-0.05-0.043-0.075-0.067c-0.03-0.03-0.062-0.069-0.088-0.104c-0.012-0.016-0.026-0.029-0.037-0.045
		c-0.007-0.01-0.01-0.02-0.015-0.029c-0.008-0.011-0.017-0.019-0.023-0.029c-0.024-0.041-0.043-0.084-0.06-0.127
		c-0.016-0.042-0.027-0.083-0.037-0.127c-0.017-0.071-0.029-0.147-0.029-0.224C11.201,11.177,11.628,10.749,12.155,10.749z
		 M12.944,12.881l0.015,0.045c-0.007-0.013-0.015-0.025-0.023-0.037C12.94,12.887,12.942,12.883,12.944,12.881z M11.365,12.896
		c0.005,0.003,0.01,0.012,0.015,0.015c-0.006,0.015-0.011,0.03-0.015,0.045l-0.441,1.475c-0.025,0.083-0.027,0.17-0.007,0.254
		c0,0.002,0,0.005,0,0.008c-0.067,0.059-0.116,0.132-0.142,0.217l-0.656,2.184c0.013-0.049,0.023-0.091,0.037-0.141l0.529-1.775
		c0.026-0.085,0.029-0.175,0.008-0.26c0.063-0.059,0.109-0.133,0.133-0.217L11.365,12.896z M12.96,12.956l0.529,1.744
		c0.025,0.084,0.071,0.158,0.135,0.217c-0.021,0.086-0.019,0.177,0.007,0.26l0.529,1.775c0.015,0.05,0.024,0.092,0.037,0.141
		l-0.656-2.184c-0.024-0.084-0.071-0.158-0.133-0.217c0.021-0.085,0.019-0.177-0.008-0.261L12.96,12.956z M11.819,13.09
		c0.108,0.026,0.22,0.045,0.335,0.045c0.12,0,0.238-0.017,0.351-0.045l0.439,1.477H11.38L11.819,13.09z"/>
	<path opacity="0.3" fill="#669CCC" enable-background="new    " d="M11.916,8.363c-0.132,0-0.238,0.106-0.238,0.238V8.84
		c0-0.132,0.107-0.238,0.238-0.238h0.477c0.133,0,0.239,0.106,0.239,0.238V8.602c0-0.132-0.107-0.238-0.239-0.238H11.916z
		 M11.678,10.354c-0.556,0.196-0.954,0.726-0.954,1.349c0,0.041,0.005,0.08,0.008,0.12c0.046-0.571,0.426-1.047,0.946-1.23V10.354
		L11.678,10.354z M12.632,10.354v0.238c0.519,0.184,0.9,0.659,0.946,1.23c0.003-0.04,0.008-0.08,0.008-0.12
		C13.586,11.08,13.188,10.55,12.632,10.354z M11.215,11.838c-0.003,0.035-0.015,0.069-0.015,0.104c0,0.077,0.012,0.152,0.029,0.224
		c0.01,0.045,0.021,0.085,0.037,0.126c0.017,0.043,0.036,0.087,0.06,0.127c0.006,0.011,0.015,0.019,0.023,0.03
		c0.005,0.01,0.008,0.021,0.015,0.03c0.011,0.016,0.025,0.029,0.037,0.044c0.026,0.036,0.058,0.074,0.088,0.104
		c0.025,0.024,0.049,0.046,0.075,0.067c0.01,0.008,0.019,0.015,0.029,0.022c0.015,0.011,0.03,0.02,0.045,0.03
		c0.04,0.025,0.084,0.047,0.127,0.067c0.005,0.002,0.01,0.005,0.015,0.008c0.055,0.022,0.112,0.039,0.171,0.052
		c0.064,0.013,0.133,0.022,0.202,0.022c0.071,0,0.142-0.015,0.208-0.029c0.044-0.01,0.085-0.021,0.127-0.037
		c0.083-0.031,0.161-0.075,0.231-0.127c0.036-0.026,0.074-0.051,0.104-0.082c0.03-0.03,0.056-0.062,0.082-0.098
		c0.025-0.031,0.046-0.069,0.067-0.104c0.002-0.002,0.007-0.005,0.008-0.007c0.02-0.036,0.044-0.073,0.06-0.112
		c0.017-0.043,0.026-0.088,0.036-0.134c0.018-0.071,0.03-0.147,0.03-0.224c0-0.036-0.011-0.069-0.015-0.104
		c-0.006,0.029-0.01,0.061-0.016,0.09c-0.01,0.046-0.019,0.091-0.036,0.134c-0.016,0.039-0.04,0.076-0.06,0.111
		c-0.001,0.003-0.006,0.005-0.008,0.008c-0.02,0.035-0.042,0.072-0.067,0.104c-0.026,0.034-0.051,0.066-0.082,0.097
		c-0.03,0.03-0.069,0.057-0.104,0.083c-0.071,0.051-0.149,0.095-0.231,0.126c-0.042,0.015-0.083,0.028-0.127,0.037
		c-0.067,0.015-0.137,0.03-0.208,0.03c-0.069,0-0.137-0.01-0.202-0.023c-0.059-0.012-0.116-0.029-0.171-0.052
		c-0.006-0.002-0.01-0.006-0.015-0.008c-0.043-0.019-0.087-0.042-0.127-0.067c-0.015-0.01-0.03-0.019-0.045-0.029
		c-0.01-0.008-0.019-0.015-0.029-0.023c-0.026-0.021-0.05-0.043-0.075-0.067c-0.03-0.03-0.062-0.069-0.088-0.104
		c-0.012-0.016-0.026-0.029-0.037-0.045c-0.007-0.01-0.01-0.02-0.015-0.029c-0.008-0.011-0.017-0.019-0.023-0.029
		c-0.024-0.041-0.043-0.084-0.06-0.127c-0.016-0.042-0.027-0.083-0.037-0.127C11.224,11.899,11.22,11.867,11.215,11.838z
		 M13.377,12.673c-0.017,0.027-0.027,0.056-0.045,0.082l0.612,2.05h1.073c0.087,0,0.159,0.05,0.202,0.12
		c0.021-0.036,0.036-0.074,0.036-0.12c0-0.132-0.106-0.238-0.238-0.238h-1.073L13.377,12.673z M10.94,12.68l-0.566,1.886H9.293
		c-0.133,0-0.239,0.106-0.239,0.238c0,0.045,0.016,0.084,0.037,0.12c0.042-0.069,0.114-0.12,0.202-0.12h1.081l0.611-2.042
		C10.966,12.738,10.955,12.706,10.94,12.68z M11.454,14.566l-0.075,0.238h1.565l-0.075-0.238H11.454z M10.157,15.282l-0.454,1.535
		c-0.286,0.96-0.42,1.854-0.403,2.497c0.018-0.617,0.151-1.412,0.403-2.259l0.529-1.775h-0.075L10.157,15.282L10.157,15.282z
		 M14.086,15.282l0.529,1.775c0.253,0.847,0.386,1.641,0.402,2.259c0.016-0.643-0.116-1.536-0.402-2.497l-0.455-1.535h-0.074V15.282
		L14.086,15.282z"/>
	<path opacity="0.3" fill="#669CCC" enable-background="new    " d="M11.916,8.363c-0.132,0-0.238,0.106-0.238,0.238v1.752
		c-0.556,0.196-0.954,0.726-0.954,1.349c0,0.306,0.098,0.587,0.26,0.82l-0.611,2.043H9.293c-0.133,0-0.239,0.106-0.239,0.238
		c0,0.133,0.107,0.239,0.239,0.239h0.939l-0.529,1.775c-0.529,1.773-0.544,3.324-0.037,3.474l1.565-5.248h1.856l1.566,5.248
		c0.507-0.151,0.491-1.701-0.037-3.474l-0.529-1.775h0.931c0.133,0,0.238-0.107,0.238-0.239s-0.106-0.238-0.238-0.238h-1.073
		l-0.612-2.05c0.159-0.231,0.254-0.511,0.254-0.813c0-0.623-0.398-1.153-0.954-1.349V8.602c0-0.132-0.107-0.238-0.239-0.238
		C12.392,8.363,11.916,8.363,11.916,8.363z M11.916,8.602h0.477v1.752c0,0.1,0.063,0.189,0.158,0.224
		c0.011,0.005,0.018,0.018,0.029,0.023c-0.133-0.052-0.274-0.089-0.425-0.089s-0.292,0.037-0.425,0.089
		c0.011-0.005,0.017-0.018,0.029-0.023c0.094-0.034,0.156-0.124,0.156-0.224L11.916,8.602L11.916,8.602z M12.155,10.749
		c0.527,0,0.954,0.427,0.954,0.954c0,0.077-0.012,0.152-0.03,0.224c-0.01,0.046-0.019,0.091-0.036,0.134
		c-0.016,0.039-0.04,0.076-0.06,0.111c-0.001,0.003-0.006,0.005-0.008,0.008c-0.02,0.035-0.042,0.072-0.067,0.104
		c-0.026,0.034-0.051,0.066-0.082,0.097c-0.03,0.03-0.069,0.057-0.104,0.083c-0.071,0.051-0.149,0.095-0.231,0.126
		c-0.042,0.015-0.083,0.028-0.127,0.037c-0.067,0.015-0.137,0.03-0.208,0.03c-0.069,0-0.137-0.01-0.202-0.023
		c-0.059-0.012-0.116-0.029-0.171-0.052c-0.006-0.002-0.01-0.006-0.015-0.008c-0.043-0.019-0.087-0.042-0.127-0.067
		c-0.015-0.01-0.03-0.019-0.045-0.029c-0.01-0.008-0.019-0.015-0.029-0.023c-0.026-0.021-0.05-0.043-0.075-0.067
		c-0.03-0.03-0.062-0.069-0.088-0.104c-0.012-0.016-0.026-0.029-0.037-0.045c-0.007-0.01-0.01-0.02-0.015-0.029
		c-0.008-0.011-0.017-0.019-0.023-0.029c-0.024-0.041-0.043-0.084-0.06-0.127c-0.016-0.042-0.027-0.083-0.037-0.127
		c-0.017-0.071-0.029-0.147-0.029-0.224C11.201,11.177,11.628,10.749,12.155,10.749z M13.147,12.352
		c-0.006,0.008-0.002,0.021-0.008,0.029c-0.005,0.005-0.01,0.01-0.015,0.015C13.135,12.383,13.139,12.365,13.147,12.352z
		 M11.193,12.404c0.006,0.006,0.025,0.025,0.023,0.023c0.029,0.038,0.066,0.089,0.112,0.133c0.024,0.024,0.05,0.051,0.089,0.082
		c0.012,0.011,0.025,0.021,0.037,0.03c0.02,0.015,0.043,0.027,0.059,0.037c0.052,0.033,0.104,0.059,0.156,0.082
		c-0.018-0.008-0.008-0.006,0.023,0.008c0,0.002,0,0.005,0,0.007c0.051,0.021,0.099,0.033,0.149,0.045
		c-0.114-0.012-0.221,0.06-0.253,0.171l-0.439,1.476c-0.04,0.126,0.03,0.259,0.156,0.299c0.01,0.003,0.02,0.006,0.029,0.007H11.23
		c-0.107-0.001-0.201,0.069-0.231,0.172L9.59,19.686c-0.029-0.148-0.062-0.298-0.06-0.521c0.007-0.596,0.144-1.413,0.402-2.282
		l0.53-1.775c0.038-0.126-0.032-0.259-0.158-0.299c-0.01-0.003-0.019-0.005-0.029-0.008h0.098c0.107,0.001,0.201-0.068,0.23-0.171
		l0.612-2.043C11.233,12.528,11.226,12.461,11.193,12.404z M13.109,12.419c-0.021,0.052-0.025,0.111-0.008,0.164l0.612,2.05
		c0.029,0.103,0.124,0.172,0.231,0.171h0.097c-0.129,0.023-0.217,0.147-0.193,0.277c0.001,0.01,0.003,0.02,0.007,0.029l0.529,1.775
		c0.259,0.869,0.397,1.686,0.402,2.282c0.002,0.224-0.03,0.373-0.06,0.521l-1.409-4.711c-0.029-0.103-0.125-0.173-0.231-0.172H12.99
		c0.129-0.023,0.217-0.146,0.193-0.276c-0.001-0.01-0.003-0.02-0.007-0.029l-0.439-1.476c-0.036-0.125-0.165-0.198-0.291-0.164
		c-0.01,0.002-0.019-0.002-0.029,0c0.053-0.011,0.104-0.025,0.156-0.044c0.107-0.04,0.206-0.093,0.291-0.156
		c0.029-0.022,0.074-0.053,0.127-0.105c0.046-0.046,0.078-0.085,0.104-0.12C13.099,12.428,13.105,12.424,13.109,12.419z
		 M11.819,13.09c0.108,0.026,0.22,0.045,0.335,0.045c0.12,0,0.238-0.017,0.351-0.045l0.439,1.477H11.38L11.819,13.09z"/>
	<path opacity="0.3" fill="#FFFFFF" enable-background="new    " d="M12.155,10.749c-0.527,0-0.954,0.427-0.954,0.954
		c0,0.046,0.007,0.09,0.015,0.134c0.052-0.478,0.447-0.85,0.939-0.85c0.492,0,0.886,0.373,0.939,0.85
		c0.007-0.044,0.015-0.088,0.015-0.134C13.109,11.177,12.682,10.749,12.155,10.749z M10.731,11.823
		c-0.003,0.039-0.008,0.08-0.008,0.119c0,0.273,0.083,0.521,0.217,0.738l0.044-0.158C10.843,12.322,10.753,12.082,10.731,11.823z
		 M13.578,11.823c-0.02,0.256-0.108,0.494-0.246,0.693l0.045,0.156c0.128-0.214,0.208-0.462,0.208-0.731
		C13.586,11.902,13.581,11.862,13.578,11.823z M11.819,13.09l-0.439,1.477h0.075l0.365-1.238c0.108,0.025,0.22,0.044,0.335,0.044
		c0.12,0,0.238-0.017,0.351-0.044l0.365,1.238h0.075l-0.439-1.477c-0.112,0.029-0.23,0.045-0.351,0.045
		C12.04,13.135,11.927,13.116,11.819,13.09z M9.091,14.924c-0.021,0.036-0.037,0.074-0.037,0.12c0,0.133,0.107,0.238,0.239,0.238
		h0.865l0.075-0.238H9.293C9.205,15.043,9.132,14.994,9.091,14.924z M15.219,14.924c-0.042,0.069-0.114,0.12-0.202,0.12h-0.931
		l0.073,0.238h0.858c0.133,0,0.238-0.106,0.238-0.238C15.256,14.998,15.24,14.96,15.219,14.924z M11.23,15.043l-1.565,5.248
		c-0.232-0.069-0.351-0.433-0.366-0.977C9.281,19.988,9.4,20.451,9.665,20.53l1.565-5.248h1.856l1.566,5.248
		c0.264-0.079,0.383-0.542,0.365-1.216c-0.013,0.544-0.133,0.907-0.365,0.977l-1.566-5.248H11.23z"/>
</g>
</svg>
