<?xml version="1.0" encoding="utf-8"?>
<!-- Generator: Adobe Illustrator 17.0.0, SVG Export Plug-In . SVG Version: 6.00 Build 0)  -->
<!DOCTYPE svg PUBLIC "-//W3C//DTD SVG 1.1//EN" "http://www.w3.org/Graphics/SVG/1.1/DTD/svg11.dtd">
<svg version="1.1" id="图层_1" xmlns="http://www.w3.org/2000/svg" xmlns:xlink="http://www.w3.org/1999/xlink" x="0px" y="0px"
	 width="24px" height="24px" viewBox="0 0 24 24" enable-background="new 0 0 24 24" xml:space="preserve">
<path fill="#C4DCED" stroke="#9DBCD7" stroke-miterlimit="10" d="M22.942,20.079c0,1.595-1.293,2.888-2.888,2.888H3.896
	c-1.595,0-2.888-1.293-2.888-2.888V3.921c0-1.595,1.293-2.888,2.888-2.888h16.159c1.595,0,2.888,1.293,2.888,2.888L22.942,20.079
	L22.942,20.079z"/>
<path opacity="0.6" fill="none" stroke="#FFFFFF" stroke-miterlimit="10" enable-background="new    " d="M3.896,21.967
	c-1.041,0-1.888-0.847-1.888-1.888V3.921c0-1.041,0.847-1.888,1.888-1.888h16.159c1.041,0,1.888,0.847,1.888,1.888v16.158
	c-0.001,1.041-0.848,1.888-1.889,1.888C20.054,21.967,3.896,21.967,3.896,21.967z"/>
<path opacity="0.05" fill="none" stroke="#000000" stroke-width="0.3786" stroke-miterlimit="10" enable-background="new    " d="
	M23.02,7.276c0,0,0-0.97-0.958-0.97c-2.782,0-11.663,0.002-12.458,0.002c-0.966,0-0.958-0.956-0.958-0.956s0-0.963-0.958-0.963
	c-1.678,0-5.038,0-5.75,0c-0.943,0-0.958,0.928-0.958,0.957"/>
<linearGradient id="SVGID_1_" gradientUnits="userSpaceOnUse" x1="1381.974" y1="-1687.967" x2="1381.974" y2="-1669.882" gradientTransform="matrix(1 0 0 -1 -1370 -1665)">
	<stop  offset="0" style="stop-color:#D1E0ED"/>
	<stop  offset="1" style="stop-color:#E4EEFB"/>
</linearGradient>
<path fill="url(#SVGID_1_)" stroke="#9DBCD7" stroke-miterlimit="10" d="M3.889,22.967h16.219c1.595,0,2.833-1.326,2.833-2.92V7.098
	c0-0.227-0.34-0.441-0.792-0.441c-2.794,0-11.7,0.002-12.499,0.002c-0.97,0-0.956-0.885-0.956-0.885s0.007-0.892-0.956-0.892
	c-1.685,0-5.06,0-5.775,0c-0.948,0-0.956,0.786-0.956,0.815v14.35C1.008,21.641,2.295,22.967,3.889,22.967z"/>
<path opacity="0.8" fill="none" stroke="#FFFFFF" stroke-miterlimit="10" enable-background="new    " d="M3.889,21.967
	c-1.037,0-1.881-0.862-1.881-1.921V5.889l5.688-0.007c0.016,0.225,0.098,0.777,0.537,1.224C8.481,7.358,8.929,7.659,9.65,7.659
	l12.291-0.001v12.389c0,1.06-0.822,1.921-1.833,1.921L3.889,21.967L3.889,21.967z"/>
<g id="g27_1_">
	
		<linearGradient id="path36_2_" gradientUnits="userSpaceOnUse" x1="1784.3451" y1="-2484.1682" x2="1787.3922" y2="-2489.446" gradientTransform="matrix(1 0 0 -1 -1782 -2483)">
		<stop  offset="0" style="stop-color:#FFFFFF"/>
		<stop  offset="0.5" style="stop-color:#FFFFFF;stop-opacity:0.6"/>
		<stop  offset="1" style="stop-color:#FFFFFF;stop-opacity:0.15"/>
	</linearGradient>
	<path id="path36_1_" fill="url(#path36_2_)" d="M4.858,7.342c0.341-0.705,0.756-1.366,1.233-1.977L5.223,3.462
		C4.482,4.163,3.88,4.935,3.4,5.685L4.858,7.342z"/>
	
		<linearGradient id="path45_2_" gradientUnits="userSpaceOnUse" x1="1787.1091" y1="-2483.3772" x2="1789.1033" y2="-2486.8313" gradientTransform="matrix(1 0 0 -1 -1782 -2483)">
		<stop  offset="0" style="stop-color:#FFFFFF"/>
		<stop  offset="0.5" style="stop-color:#FFFFFF;stop-opacity:0.6"/>
		<stop  offset="1" style="stop-color:#FFFFFF;stop-opacity:0.15"/>
	</linearGradient>
	<path id="path45_1_" fill="url(#path45_2_)" d="M4.949,1.633l0.454,0.994C5.84,2.265,6.318,2.14,6.84,1.633H4.949z"/>
	
		<linearGradient id="path54_2_" gradientUnits="userSpaceOnUse" x1="1787.736" y1="-2482.7214" x2="1790.1725" y2="-2486.9417" gradientTransform="matrix(1 0 0 -1 -1782 -2483)">
		<stop  offset="0" style="stop-color:#FFFFFF"/>
		<stop  offset="0.5" style="stop-color:#FFFFFF;stop-opacity:0.6"/>
		<stop  offset="1" style="stop-color:#FFFFFF;stop-opacity:0.15"/>
	</linearGradient>
	<path id="path54_1_" fill="url(#path54_2_)" d="M8.353,1.633H7.994C7.089,2.14,6.298,2.527,5.619,3.105L6.451,4.93
		C7.162,4.109,7.986,3.39,8.91,2.809C8.917,2.803,8.922,2.797,8.93,2.79C9.964,1.897,8.936,1.633,8.353,1.633z"/>
	
		<linearGradient id="path63_2_" gradientUnits="userSpaceOnUse" x1="1782.6355" y1="-2486.5737" x2="1785.2798" y2="-2491.1538" gradientTransform="matrix(1 0 0 -1 -1782 -2483)">
		<stop  offset="0" style="stop-color:#FFFFFF"/>
		<stop  offset="0.5" style="stop-color:#FFFFFF;stop-opacity:0.6"/>
		<stop  offset="1" style="stop-color:#FFFFFF;stop-opacity:0.15"/>
	</linearGradient>
	<path id="path63_1_" fill="url(#path63_2_)" d="M3.124,6.138C2.567,7.086,2.204,7.961,1.988,8.56
		c0.256,0.365,0.678,0.604,1.157,0.604c0.593,0,1.1-0.366,1.31-0.884c0.054-0.145,0.119-0.284,0.179-0.426L3.124,6.138z"/>
	
		<linearGradient id="path72_2_" gradientUnits="userSpaceOnUse" x1="1782.5165" y1="-2486.7615" x2="1785.4468" y2="-2491.8372" gradientTransform="matrix(1 0 0 -1 -1782 -2483)">
		<stop  offset="0" style="stop-color:#FFFFFF"/>
		<stop  offset="0.5" style="stop-color:#FFFFFF;stop-opacity:0.6"/>
		<stop  offset="1" style="stop-color:#FFFFFF;stop-opacity:0.15"/>
	</linearGradient>
	<path id="path72_1_" fill="url(#path72_2_)" d="M1.742,4.566L1.731,7.748c0,0,0,0.001,0,0.002c0,0.02,0.005,0.039,0.006,0.058
		C1.979,7.219,2.317,6.5,2.775,5.74L1.742,4.566z"/>
	
		<linearGradient id="path149_2_" gradientUnits="userSpaceOnUse" x1="1784.7327" y1="-2485.1721" x2="1787.4844" y2="-2489.938" gradientTransform="matrix(1 0 0 -1 -1782 -2483)">
		<stop  offset="0" style="stop-color:#FFFFFF"/>
		<stop  offset="0.5" style="stop-color:#FFFFFF;stop-opacity:0.6"/>
		<stop  offset="1" style="stop-color:#FFFFFF;stop-opacity:0.15"/>
	</linearGradient>
	<path id="path149_1_" fill="url(#path149_2_)" d="M4.344,1.639C3.31,1.553,1.949,2.718,1.774,3.834l1.283,1.459
		c0.512-0.781,1.149-1.582,1.934-2.305L4.344,1.639z"/>
</g>
<g>
	<g opacity="0.3" enable-background="new    ">
		<g opacity="0.5">
			<circle fill="#FFFFFF" cx="16.72" cy="12.79" r="0.962"/>
		</g>
		<g>
			<circle fill="#669CCC" cx="16.72" cy="12.329" r="0.962"/>
		</g>
	</g>
	<path opacity="0.3" fill="#669CCC" enable-background="new    " d="M16.72,11.367c-0.531,0-0.962,0.43-0.962,0.962
		c0,0.531,0.43,0.962,0.962,0.962c0.531,0,0.962-0.43,0.962-0.962C17.682,11.798,17.251,11.367,16.72,11.367z M16.72,13.05
		c-0.398,0-0.721-0.323-0.721-0.721c0-0.398,0.323-0.721,0.721-0.721s0.721,0.323,0.721,0.721
		C17.441,12.726,17.118,13.05,16.72,13.05z"/>
	<g>
		<path opacity="0.1" fill="#669CCC" enable-background="new    " d="M19.62,19.542c0,0.255-0.207,0.461-0.461,0.461H4.774
			c-0.255,0-0.461-0.207-0.461-0.461V9.052c0-0.255,0.207-0.461,0.461-0.461h14.384c0.255,0,0.461,0.207,0.461,0.461V19.542
			L19.62,19.542z"/>
		<path opacity="0.3" fill="#669CCC" enable-background="new    " d="M19.159,8.592H4.774c-0.255,0-0.461,0.207-0.461,0.461v10.489
			c0,0.255,0.207,0.461,0.461,0.461h14.384c0.255,0,0.461-0.207,0.461-0.461V9.052C19.62,8.798,19.413,8.592,19.159,8.592z
			 M19.389,19.542c0,0.127-0.104,0.23-0.23,0.23H4.775c-0.127,0-0.23-0.104-0.23-0.23V9.052c0-0.127,0.104-0.23,0.23-0.23H19.16
			c0.127,0,0.23,0.104,0.23,0.23L19.389,19.542L19.389,19.542z"/>
	</g>
	<g>
		<g opacity="0.1" enable-background="new    ">
			<g>
				<path fill="#FFFFFF" d="M11.09,13.404c0,0-0.925-0.567-0.991-0.741s-1.018-0.327-1.018-0.327l-0.338,0.218l-0.381,0.632v-0.044
					c0,0-0.084-0.179-0.236-0.331c-0.252-0.095-0.958,1.89-1.87,1.89H6.169l-0.283-0.039l-0.218-0.215L5.276,13.99l-0.261,0.218
					c0,0-0.327,0.175-0.413,0.262c-0.087,0.087-0.277,0.153-0.277,0.153l-0.039-0.048v5.371c0,0.255,0.207,0.461,0.461,0.461h14.384
					c0.255,0,0.461-0.207,0.461-0.461v-2.409C16.83,17.079,13.018,15.761,11.09,13.404z"/>
			</g>
			<g>
				<path fill="#669CCC" d="M11.09,12.943c0,0-0.925-0.567-0.991-0.741s-1.018-0.327-1.018-0.327l-0.338,0.218l-0.381,0.632v-0.044
					c0,0-0.084-0.179-0.236-0.331c-0.252-0.095-0.958,1.89-1.87,1.89H6.169l-0.283-0.039l-0.218-0.215l-0.392-0.456l-0.261,0.218
					c0,0-0.327,0.175-0.413,0.262c-0.087,0.087-0.277,0.153-0.277,0.153l-0.039-0.048v5.371c0,0.255,0.207,0.461,0.461,0.461h14.384
					c0.255,0,0.461-0.207,0.461-0.461v-2.409C16.83,16.618,13.018,15.3,11.09,12.943z"/>
			</g>
		</g>
		<path opacity="0.3" fill="#669CCC" enable-background="new    " d="M11.09,12.943c0,0-0.925-0.567-0.991-0.741
			s-1.018-0.327-1.018-0.327l-0.338,0.218l-0.381,0.632v-0.044c0,0-0.084-0.179-0.236-0.331c-0.252-0.095-0.958,1.89-1.87,1.89
			H6.169l-0.283-0.039l-0.218-0.215l-0.392-0.456l-0.261,0.218c0,0-0.327,0.175-0.413,0.262c-0.087,0.087-0.277,0.153-0.277,0.153
			l-0.039-0.048v5.371c0,0.255,0.207,0.461,0.461,0.461h14.384c0.255,0,0.461-0.207,0.461-0.461v-2.409
			C16.83,16.618,13.018,15.3,11.09,12.943z M19.361,19.485c0,0.127-0.104,0.23-0.23,0.23H4.747c-0.127,0-0.23-0.104-0.23-0.23
			v-5.152c0.079-0.036,0.179-0.091,0.249-0.16c0.035-0.035,0.203-0.138,0.359-0.222l0.021-0.011l0.105-0.088l0.244,0.284
			l0.285,0.283l0.375,0.052h0.103c0.703,0,1.229-0.843,1.613-1.458c0.072-0.115,0.155-0.248,0.22-0.341
			c0.017,0.026,0.031,0.05,0.042,0.068v0.813l0.781-1.294l0.218-0.141c0.341,0.06,0.677,0.15,0.772,0.208
			c0.052,0.092,0.235,0.302,1.033,0.793c1.906,2.303,5.558,3.645,8.424,4.151L19.361,19.485L19.361,19.485z"/>
	</g>
	<path opacity="0.1" fill="#669CCC" enable-background="new    " d="M13.382,17.374c-2.979,0.101-7.618,0.965-9.035,1.239v0.871
		c0,0.255,0.207,0.461,0.461,0.461h14.384c0.255,0,0.461-0.207,0.461-0.461v-3.74C18.657,16.03,16.651,17.264,13.382,17.374z"/>
	<path opacity="0.3" fill="#669CCC" enable-background="new    " d="M13.377,17.374c-2.979,0.101-7.618,0.965-9.035,1.239v0.871
		c0,0.255,0.207,0.461,0.461,0.461h14.384c0.255,0,0.461-0.207,0.461-0.461v-3.74C18.652,16.03,16.647,17.264,13.377,17.374z
		 M19.418,19.485c0,0.127-0.104,0.23-0.23,0.23H4.803c-0.127,0-0.23-0.104-0.23-0.23v-0.681c1.863-0.356,6.054-1.106,8.813-1.199
		c2.519-0.085,4.28-0.817,5.445-1.302c0.216-0.09,0.413-0.171,0.586-0.237C19.418,16.066,19.418,19.485,19.418,19.485z"/>
</g>
</svg>
