<?xml version="1.0" encoding="utf-8"?>
<!-- Generator: Adobe Illustrator 17.0.0, SVG Export Plug-In . SVG Version: 6.00 Build 0)  -->
<!DOCTYPE svg PUBLIC "-//W3C//DTD SVG 1.1//EN" "http://www.w3.org/Graphics/SVG/1.1/DTD/svg11.dtd">
<svg version="1.1" id="图层_1" xmlns="http://www.w3.org/2000/svg" xmlns:xlink="http://www.w3.org/1999/xlink" x="0px" y="0px"
	 width="24px" height="24px" viewBox="0 0 24 24" enable-background="new 0 0 24 24" xml:space="preserve">
<path fill="#C4DCED" stroke="#9DBCD7" stroke-miterlimit="10" d="M22.942,20.079c0,1.595-1.293,2.888-2.888,2.888H3.896
	c-1.595,0-2.888-1.293-2.888-2.888V3.921c0-1.595,1.293-2.888,2.888-2.888h16.159c1.595,0,2.888,1.293,2.888,2.888L22.942,20.079
	L22.942,20.079z"/>
<path opacity="0.6" fill="none" stroke="#FFFFFF" stroke-miterlimit="10" enable-background="new    " d="M3.896,21.967
	c-1.041,0-1.888-0.847-1.888-1.888V3.921c0-1.041,0.847-1.888,1.888-1.888h16.159c1.041,0,1.888,0.847,1.888,1.888v16.158
	c-0.001,1.041-0.848,1.888-1.889,1.888C20.054,21.967,3.896,21.967,3.896,21.967z"/>
<path opacity="0.05" fill="none" stroke="#000000" stroke-width="0.3786" stroke-miterlimit="10" enable-background="new    " d="
	M23.02,7.276c0,0,0-0.97-0.958-0.97c-2.782,0-11.663,0.002-12.458,0.002c-0.966,0-0.958-0.956-0.958-0.956s0-0.963-0.958-0.963
	c-1.678,0-5.038,0-5.75,0c-0.943,0-0.958,0.928-0.958,0.957"/>
<linearGradient id="SVGID_1_" gradientUnits="userSpaceOnUse" x1="1381.974" y1="-1687.967" x2="1381.974" y2="-1669.882" gradientTransform="matrix(1 0 0 -1 -1370 -1665)">
	<stop  offset="0" style="stop-color:#D1E0ED"/>
	<stop  offset="1" style="stop-color:#E4EEFB"/>
</linearGradient>
<path fill="url(#SVGID_1_)" stroke="#9DBCD7" stroke-miterlimit="10" d="M3.889,22.967h16.219c1.595,0,2.833-1.326,2.833-2.92V7.098
	c0-0.227-0.34-0.441-0.792-0.441c-2.794,0-11.7,0.002-12.499,0.002c-0.97,0-0.956-0.885-0.956-0.885s0.007-0.892-0.956-0.892
	c-1.685,0-5.06,0-5.775,0c-0.948,0-0.956,0.786-0.956,0.815v14.35C1.008,21.641,2.295,22.967,3.889,22.967z"/>
<path opacity="0.8" fill="none" stroke="#FFFFFF" stroke-miterlimit="10" enable-background="new    " d="M3.889,21.967
	c-1.037,0-1.881-0.862-1.881-1.921V5.889l5.688-0.007c0.016,0.225,0.098,0.777,0.537,1.224C8.481,7.358,8.929,7.659,9.65,7.659
	l12.291-0.001v12.389c0,1.06-0.822,1.921-1.833,1.921L3.889,21.967L3.889,21.967z"/>
<g id="g27_1_">
	
		<linearGradient id="path36_2_" gradientUnits="userSpaceOnUse" x1="1784.3451" y1="-2484.1682" x2="1787.3922" y2="-2489.446" gradientTransform="matrix(1 0 0 -1 -1782 -2483)">
		<stop  offset="0" style="stop-color:#FFFFFF"/>
		<stop  offset="0.5" style="stop-color:#FFFFFF;stop-opacity:0.6"/>
		<stop  offset="1" style="stop-color:#FFFFFF;stop-opacity:0.15"/>
	</linearGradient>
	<path id="path36_1_" fill="url(#path36_2_)" d="M4.858,7.342c0.341-0.705,0.756-1.366,1.233-1.977L5.223,3.462
		C4.482,4.163,3.88,4.935,3.4,5.685L4.858,7.342z"/>
	
		<linearGradient id="path45_2_" gradientUnits="userSpaceOnUse" x1="1787.1091" y1="-2483.3772" x2="1789.1033" y2="-2486.8313" gradientTransform="matrix(1 0 0 -1 -1782 -2483)">
		<stop  offset="0" style="stop-color:#FFFFFF"/>
		<stop  offset="0.5" style="stop-color:#FFFFFF;stop-opacity:0.6"/>
		<stop  offset="1" style="stop-color:#FFFFFF;stop-opacity:0.15"/>
	</linearGradient>
	<path id="path45_1_" fill="url(#path45_2_)" d="M4.949,1.633l0.454,0.994C5.84,2.265,6.318,2.14,6.84,1.633H4.949z"/>
	
		<linearGradient id="path54_2_" gradientUnits="userSpaceOnUse" x1="1787.736" y1="-2482.7214" x2="1790.1725" y2="-2486.9417" gradientTransform="matrix(1 0 0 -1 -1782 -2483)">
		<stop  offset="0" style="stop-color:#FFFFFF"/>
		<stop  offset="0.5" style="stop-color:#FFFFFF;stop-opacity:0.6"/>
		<stop  offset="1" style="stop-color:#FFFFFF;stop-opacity:0.15"/>
	</linearGradient>
	<path id="path54_1_" fill="url(#path54_2_)" d="M8.353,1.633H7.994C7.089,2.14,6.298,2.527,5.619,3.105L6.451,4.93
		C7.162,4.109,7.986,3.39,8.91,2.809C8.917,2.803,8.922,2.797,8.93,2.79C9.964,1.897,8.936,1.633,8.353,1.633z"/>
	
		<linearGradient id="path63_2_" gradientUnits="userSpaceOnUse" x1="1782.6355" y1="-2486.5737" x2="1785.2798" y2="-2491.1538" gradientTransform="matrix(1 0 0 -1 -1782 -2483)">
		<stop  offset="0" style="stop-color:#FFFFFF"/>
		<stop  offset="0.5" style="stop-color:#FFFFFF;stop-opacity:0.6"/>
		<stop  offset="1" style="stop-color:#FFFFFF;stop-opacity:0.15"/>
	</linearGradient>
	<path id="path63_1_" fill="url(#path63_2_)" d="M3.124,6.138C2.567,7.086,2.204,7.961,1.988,8.56
		c0.256,0.365,0.678,0.604,1.157,0.604c0.593,0,1.1-0.366,1.31-0.884c0.054-0.145,0.119-0.284,0.179-0.426L3.124,6.138z"/>
	
		<linearGradient id="path72_2_" gradientUnits="userSpaceOnUse" x1="1782.5165" y1="-2486.7615" x2="1785.4468" y2="-2491.8372" gradientTransform="matrix(1 0 0 -1 -1782 -2483)">
		<stop  offset="0" style="stop-color:#FFFFFF"/>
		<stop  offset="0.5" style="stop-color:#FFFFFF;stop-opacity:0.6"/>
		<stop  offset="1" style="stop-color:#FFFFFF;stop-opacity:0.15"/>
	</linearGradient>
	<path id="path72_1_" fill="url(#path72_2_)" d="M1.742,4.566L1.731,7.748c0,0,0,0.001,0,0.002c0,0.02,0.005,0.039,0.006,0.058
		C1.979,7.219,2.317,6.5,2.775,5.74L1.742,4.566z"/>
	
		<linearGradient id="path149_2_" gradientUnits="userSpaceOnUse" x1="1784.7327" y1="-2485.1721" x2="1787.4844" y2="-2489.938" gradientTransform="matrix(1 0 0 -1 -1782 -2483)">
		<stop  offset="0" style="stop-color:#FFFFFF"/>
		<stop  offset="0.5" style="stop-color:#FFFFFF;stop-opacity:0.6"/>
		<stop  offset="1" style="stop-color:#FFFFFF;stop-opacity:0.15"/>
	</linearGradient>
	<path id="path149_1_" fill="url(#path149_2_)" d="M4.344,1.639C3.31,1.553,1.949,2.718,1.774,3.834l1.283,1.459
		c0.512-0.781,1.149-1.582,1.934-2.305L4.344,1.639z"/>
</g>
<g>
	<path opacity="0.05" fill="#FFFFFF" enable-background="new    " d="M9.764,8.831C9.694,8.838,9.628,8.86,9.568,8.896l-3.337,2.027
		c-0.219,0.133-0.29,0.418-0.157,0.638c0.026,0.044,0.059,0.082,0.099,0.116l1.817,1.535l-1.846,1.491
		c-0.201,0.159-0.234,0.451-0.075,0.652c0.032,0.039,0.069,0.073,0.111,0.101l2.128,1.361c-0.009,0.035-0.014,0.072-0.015,0.109
		v0.29c-0.002,0.153,0.071,0.296,0.196,0.384l3.257,2.273c0.159,0.11,0.369,0.11,0.529,0l3.301-2.273
		c0.127-0.086,0.203-0.23,0.203-0.384v-0.326c0-0.039-0.004-0.078-0.015-0.116l2.056-1.318c0.215-0.14,0.277-0.428,0.136-0.642
		c-0.027-0.042-0.061-0.079-0.101-0.111l-1.817-1.469l1.817-1.549c0.195-0.166,0.218-0.459,0.052-0.655
		c-0.033-0.039-0.073-0.072-0.117-0.099L14.461,8.91c-0.171-0.104-0.391-0.087-0.543,0.043l-1.896,1.637l-1.911-1.65
		C10.015,8.858,9.889,8.818,9.764,8.831z M9.807,9.294l2.215,1.911l2.201-1.896l3.33,2.02l-2.244,1.911l2.258,1.824l-3.308,2.113
		l-2.258-1.918l-2.258,1.918l-3.308-2.114l2.273-1.832l3.294,2.027l3.287-2.02l-3.287-2.027l-3.272,2.02l-2.258-1.911L9.807,9.294z
		 M12.001,11.763l2.396,1.477l-2.396,1.469L9.612,13.24L12.001,11.763z M12.001,15.644l2.258,1.918l1.057-0.674v0.326l-3.301,2.273
		l-3.257-2.273v-0.29l0.984,0.637L12.001,15.644z"/>
	<path opacity="0.1" fill="#FFFFFF" enable-background="new    " d="M9.786,9.062C9.749,9.066,9.715,9.079,9.684,9.099l-3.338,2.027
		c-0.108,0.069-0.14,0.212-0.071,0.32c0.011,0.018,0.026,0.035,0.042,0.049l2.034,1.723l-2.063,1.665
		c-0.1,0.08-0.116,0.226-0.035,0.326c0.016,0.02,0.035,0.037,0.057,0.051l2.309,1.477c-0.059,0.044-0.095,0.114-0.094,0.189v0.29
		c0.001,0.076,0.039,0.146,0.102,0.189l3.257,2.273c0.079,0.054,0.182,0.054,0.261,0l3.301-2.273
		c0.062-0.042,0.101-0.112,0.102-0.189v-0.326c0.001-0.078-0.037-0.152-0.102-0.196l2.244-1.433c0.108-0.068,0.141-0.211,0.072-0.32
		c-0.014-0.021-0.031-0.041-0.051-0.057l-2.041-1.65l2.034-1.73c0.096-0.085,0.105-0.231,0.02-0.327
		c-0.015-0.016-0.031-0.03-0.049-0.042l-3.33-2.02c-0.086-0.054-0.198-0.046-0.275,0.021l-2.049,1.767L9.959,9.12
		C9.912,9.078,9.849,9.057,9.786,9.062z M9.807,9.294l2.215,1.911l2.201-1.896l3.33,2.02l-2.244,1.911l2.258,1.824l-3.308,2.113
		l-2.258-1.918l-2.258,1.918l-3.308-2.114l2.273-1.832l3.294,2.027l3.287-2.02l-3.287-2.027l-3.272,2.02l-2.258-1.911
		C6.47,11.321,9.807,9.294,9.807,9.294z M12.001,11.481l2.845,1.759l-2.845,1.752L9.156,13.24L12.001,11.481z M12.001,15.644
		l2.258,1.918l1.057-0.674v0.326l-3.301,2.273l-3.257-2.273v-0.29l0.984,0.637L12.001,15.644z"/>
	<path opacity="0.3" fill="#669CCC" enable-background="new    " d="M9.806,9.294l-3.333,2.029l2.258,1.908l3.272-2.017l3.285,2.023
		l-3.285,2.023l2.258,1.914l3.309-2.114l-2.264-1.824l2.246-1.908L14.22,9.306l-2.198,1.896L9.806,9.294L9.806,9.294z M8.707,13.232
		l-2.276,1.829l3.315,2.114l2.253-1.914C11.998,15.26,8.707,13.232,8.707,13.232z M11.998,15.647l-2.253,1.914l-0.99-0.634v0.29
		l3.261,2.271l3.297-2.271v-0.326l-1.051,0.671C14.262,17.561,11.998,15.647,11.998,15.647z"/>
	<path opacity="0.3" fill="#669CCC" enable-background="new    " d="M9.807,9.294L6.47,11.321l2.258,1.911L12,11.213l3.287,2.027
		L12,15.259l2.258,1.918l3.308-2.114l-2.258-1.824l2.244-1.911l-3.33-2.02l-2.201,1.896L9.807,9.294z M12.001,15.26l-3.294-2.027
		l-2.273,1.832l3.308,2.114L12.001,15.26z M9.771,9.743l1.637,1.411l-2.649,1.629l-1.673-1.411L9.771,9.743z M14.259,9.758
		l2.678,1.622l-1.665,1.419l-2.649-1.629C12.624,11.169,14.259,9.758,14.259,9.758z M8.736,13.674l2.649,1.637L9.713,16.73
		l-2.664-1.701L8.736,13.674z M15.273,13.674l1.679,1.354l-2.664,1.701l-1.673-1.419L15.273,13.674z M12.001,15.644l-2.258,1.918
		l-0.984-0.637v0.29l3.257,2.273l3.301-2.273v-0.326l-1.057,0.674L12.001,15.644z M12.001,16.114l1.918,1.629l-1.896,1.303
		l-1.911-1.325L12.001,16.114z"/>
	<path opacity="0.5" fill="#669CCC" enable-background="new    " d="M9.807,9.294L6.47,11.321l0.159,0.137l3.178-1.932l2.056,1.774
		L12,11.213l0.166,0.102l2.056-1.774l3.17,1.926l0.159-0.137l-3.33-2.02l-2.201,1.896L9.807,9.294z M8.576,13.334l-2.143,1.73
		l0.159,0.102l2.114-1.701l3.134,1.932l0.16-0.137l-3.098-1.904l-0.174,0.109L8.576,13.334z M12.001,15.26l0.159,0.137l3.127-1.926
		l-0.189-0.116L12.001,15.26z M15.447,13.355l-0.137,0.116l2.1,1.694l0.159-0.102L15.447,13.355z M12.001,15.644l-2.258,1.918
		l-0.984-0.637v0.232l0.984,0.637l2.258-1.918l2.258,1.918l1.057-0.674v-0.232l-1.057,0.674L12.001,15.644z"/>
	<path opacity="0.3" fill="#669CCC" enable-background="new    " d="M9.807,9.294L6.47,11.321l2.258,1.911L12,11.213l3.287,2.027
		L12,15.259l2.258,1.918l3.308-2.114l-2.258-1.824l2.244-1.911l-3.33-2.02l-2.201,1.896L9.807,9.294z M12.001,15.26l-3.294-2.027
		l-2.273,1.832l3.308,2.114L12.001,15.26z M9.786,9.519l1.918,1.658l-2.961,1.832L6.78,11.351C6.781,11.351,9.786,9.519,9.786,9.519
		z M14.245,9.533l2.997,1.824l-1.962,1.665l-2.961-1.832C12.319,11.191,14.245,9.533,14.245,9.533z M8.721,13.457l2.968,1.832
		l-1.962,1.665l-2.983-1.904L8.721,13.457z M15.287,13.457l1.969,1.593l-2.983,1.904l-1.962-1.665L15.287,13.457z M12.001,15.644
		l-2.258,1.918l-0.984-0.637v0.29l3.257,2.273l3.301-2.273v-0.326l-1.057,0.674L12.001,15.644z M12.001,15.882l2.143,1.817
		c0.023,0.021,0.049,0.035,0.079,0.043l-2.201,1.521l-2.208-1.535c0.016-0.008,0.03-0.017,0.043-0.029L12.001,15.882z"/>
	<path opacity="0.2" fill="#FFFFFF" enable-background="new    " d="M11.863,11.299l-3.134,1.933l-2.1-1.774L6.47,11.552
		l2.107,1.781l0.13-0.102l0.196,0.123L12,11.444l3.098,1.911l0.189-0.116l-3.12-1.926l-0.145,0.123L11.863,11.299z M17.394,11.466
		l-2.085,1.774l0.137,0.116l2.107-1.795L17.394,11.466z M6.593,15.166l-0.159,0.13l3.308,2.114l2.259-1.918l-0.159-0.094l-2.1,1.781
		L6.593,15.166z M12.001,15.491l2.258,1.918l3.308-2.114l-0.159-0.13l-3.149,2.013l-2.1-1.781L12.001,15.491z M8.758,17.214v0.232
		l3.257,2.273l3.301-2.273v-0.232l-3.301,2.273L8.758,17.214z"/>
</g>
</svg>
