<?xml version="1.0" encoding="utf-8"?>
<!-- Generator: Adobe Illustrator 17.0.0, SVG Export Plug-In . SVG Version: 6.00 Build 0)  -->
<!DOCTYPE svg PUBLIC "-//W3C//DTD SVG 1.1//EN" "http://www.w3.org/Graphics/SVG/1.1/DTD/svg11.dtd">
<svg version="1.1" id="图层_1" xmlns="http://www.w3.org/2000/svg" xmlns:xlink="http://www.w3.org/1999/xlink" x="0px" y="0px"
	 width="24px" height="24px" viewBox="0 0 24 24" enable-background="new 0 0 24 24" xml:space="preserve">
<path fill="#C4DCED" stroke="#9DBCD7" stroke-miterlimit="10" d="M22.942,20.079c0,1.595-1.293,2.888-2.888,2.888H3.896
	c-1.595,0-2.888-1.293-2.888-2.888V3.921c0-1.595,1.293-2.888,2.888-2.888h16.159c1.595,0,2.888,1.293,2.888,2.888L22.942,20.079
	L22.942,20.079z"/>
<path opacity="0.6" fill="none" stroke="#FFFFFF" stroke-miterlimit="10" enable-background="new    " d="M3.896,21.967
	c-1.041,0-1.888-0.847-1.888-1.888V3.921c0-1.041,0.847-1.888,1.888-1.888h16.159c1.041,0,1.888,0.847,1.888,1.888v16.158
	c-0.001,1.041-0.848,1.888-1.889,1.888C20.054,21.967,3.896,21.967,3.896,21.967z"/>
<path opacity="0.05" fill="none" stroke="#000000" stroke-width="0.3786" stroke-miterlimit="10" enable-background="new    " d="
	M23.02,7.276c0,0,0-0.97-0.958-0.97c-2.782,0-11.663,0.002-12.458,0.002c-0.966,0-0.958-0.956-0.958-0.956s0-0.963-0.958-0.963
	c-1.678,0-5.038,0-5.75,0c-0.943,0-0.958,0.928-0.958,0.957"/>
<linearGradient id="SVGID_1_" gradientUnits="userSpaceOnUse" x1="1381.974" y1="-1687.967" x2="1381.974" y2="-1669.882" gradientTransform="matrix(1 0 0 -1 -1370 -1665)">
	<stop  offset="0" style="stop-color:#D1E0ED"/>
	<stop  offset="1" style="stop-color:#E4EEFB"/>
</linearGradient>
<path fill="url(#SVGID_1_)" stroke="#9DBCD7" stroke-miterlimit="10" d="M3.889,22.967h16.219c1.595,0,2.833-1.326,2.833-2.92V7.098
	c0-0.227-0.34-0.441-0.792-0.441c-2.794,0-11.7,0.002-12.499,0.002c-0.97,0-0.956-0.885-0.956-0.885s0.007-0.892-0.956-0.892
	c-1.685,0-5.06,0-5.775,0c-0.948,0-0.956,0.786-0.956,0.815v14.35C1.008,21.641,2.295,22.967,3.889,22.967z"/>
<path opacity="0.8" fill="none" stroke="#FFFFFF" stroke-miterlimit="10" enable-background="new    " d="M3.889,21.967
	c-1.037,0-1.881-0.862-1.881-1.921V5.889l5.688-0.007c0.016,0.225,0.098,0.777,0.537,1.224C8.481,7.358,8.929,7.659,9.65,7.659
	l12.291-0.001v12.389c0,1.06-0.822,1.921-1.833,1.921L3.889,21.967L3.889,21.967z"/>
<g id="g27_1_">
	
		<linearGradient id="path36_2_" gradientUnits="userSpaceOnUse" x1="1784.3451" y1="-2484.1682" x2="1787.3922" y2="-2489.446" gradientTransform="matrix(1 0 0 -1 -1782 -2483)">
		<stop  offset="0" style="stop-color:#FFFFFF"/>
		<stop  offset="0.5" style="stop-color:#FFFFFF;stop-opacity:0.6"/>
		<stop  offset="1" style="stop-color:#FFFFFF;stop-opacity:0.15"/>
	</linearGradient>
	<path id="path36_1_" fill="url(#path36_2_)" d="M4.858,7.342c0.341-0.705,0.756-1.366,1.233-1.977L5.223,3.462
		C4.482,4.163,3.88,4.935,3.4,5.685L4.858,7.342z"/>
	
		<linearGradient id="path45_2_" gradientUnits="userSpaceOnUse" x1="1787.1091" y1="-2483.3772" x2="1789.1033" y2="-2486.8313" gradientTransform="matrix(1 0 0 -1 -1782 -2483)">
		<stop  offset="0" style="stop-color:#FFFFFF"/>
		<stop  offset="0.5" style="stop-color:#FFFFFF;stop-opacity:0.6"/>
		<stop  offset="1" style="stop-color:#FFFFFF;stop-opacity:0.15"/>
	</linearGradient>
	<path id="path45_1_" fill="url(#path45_2_)" d="M4.949,1.633l0.454,0.994C5.84,2.265,6.318,2.14,6.84,1.633H4.949z"/>
	
		<linearGradient id="path54_2_" gradientUnits="userSpaceOnUse" x1="1787.736" y1="-2482.7214" x2="1790.1725" y2="-2486.9417" gradientTransform="matrix(1 0 0 -1 -1782 -2483)">
		<stop  offset="0" style="stop-color:#FFFFFF"/>
		<stop  offset="0.5" style="stop-color:#FFFFFF;stop-opacity:0.6"/>
		<stop  offset="1" style="stop-color:#FFFFFF;stop-opacity:0.15"/>
	</linearGradient>
	<path id="path54_1_" fill="url(#path54_2_)" d="M8.353,1.633H7.994C7.089,2.14,6.298,2.527,5.619,3.105L6.451,4.93
		C7.162,4.109,7.986,3.39,8.91,2.809C8.917,2.803,8.922,2.797,8.93,2.79C9.964,1.897,8.936,1.633,8.353,1.633z"/>
	
		<linearGradient id="path63_2_" gradientUnits="userSpaceOnUse" x1="1782.6355" y1="-2486.5737" x2="1785.2798" y2="-2491.1538" gradientTransform="matrix(1 0 0 -1 -1782 -2483)">
		<stop  offset="0" style="stop-color:#FFFFFF"/>
		<stop  offset="0.5" style="stop-color:#FFFFFF;stop-opacity:0.6"/>
		<stop  offset="1" style="stop-color:#FFFFFF;stop-opacity:0.15"/>
	</linearGradient>
	<path id="path63_1_" fill="url(#path63_2_)" d="M3.124,6.138C2.567,7.086,2.204,7.961,1.988,8.56
		c0.256,0.365,0.678,0.604,1.157,0.604c0.593,0,1.1-0.366,1.31-0.884c0.054-0.145,0.119-0.284,0.179-0.426L3.124,6.138z"/>
	
		<linearGradient id="path72_2_" gradientUnits="userSpaceOnUse" x1="1782.5165" y1="-2486.7615" x2="1785.4468" y2="-2491.8372" gradientTransform="matrix(1 0 0 -1 -1782 -2483)">
		<stop  offset="0" style="stop-color:#FFFFFF"/>
		<stop  offset="0.5" style="stop-color:#FFFFFF;stop-opacity:0.6"/>
		<stop  offset="1" style="stop-color:#FFFFFF;stop-opacity:0.15"/>
	</linearGradient>
	<path id="path72_1_" fill="url(#path72_2_)" d="M1.742,4.566L1.731,7.748c0,0,0,0.001,0,0.002c0,0.02,0.005,0.039,0.006,0.058
		C1.979,7.219,2.317,6.5,2.775,5.74L1.742,4.566z"/>
	
		<linearGradient id="path149_2_" gradientUnits="userSpaceOnUse" x1="1784.7327" y1="-2485.1721" x2="1787.4844" y2="-2489.938" gradientTransform="matrix(1 0 0 -1 -1782 -2483)">
		<stop  offset="0" style="stop-color:#FFFFFF"/>
		<stop  offset="0.5" style="stop-color:#FFFFFF;stop-opacity:0.6"/>
		<stop  offset="1" style="stop-color:#FFFFFF;stop-opacity:0.15"/>
	</linearGradient>
	<path id="path149_1_" fill="url(#path149_2_)" d="M4.344,1.639C3.31,1.553,1.949,2.718,1.774,3.834l1.283,1.459
		c0.512-0.781,1.149-1.582,1.934-2.305L4.344,1.639z"/>
</g>
<g>
	<path opacity="0.3" fill="#FFFFFF" enable-background="new    " d="M13.988,8.619c-0.467,0.01-0.929,0.172-1.308,0.493
		c-0.598,0.505-0.686,1.078-0.729,1.536c-0.043,0.458-0.05,0.787-0.465,1.136c-0.414,0.35-0.758,0.311-1.229,0.286
		s-1.054-0.026-1.651,0.479c-0.272,0.231-0.467,0.522-0.586,0.829c0,0,0,0.007,0,0.008c-0.004,0.009-0.013,0.035-0.014,0.05
		c-0.016,0.042-0.035,0.082-0.05,0.136c-0.006,0.019-0.02,0.053-0.029,0.093c0,0.004,0.001,0.004,0,0.008
		c-0.013,0.06-0.02,0.123-0.028,0.186c-0.004,0.025,0,0.049,0,0.05c-0.001,0.016-0.007,0.035-0.008,0.05
		c0.001-0.008-0.004,0.013-0.007,0.064c-0.001,0.026,0,0.033,0,0.029c-0.001,0.021,0,0.027,0,0.014c0,0.027-0.001,0.058,0,0.085
		c0,0-0.001,0.012,0,0.043c0.002,0.051,0.008,0.072,0.007,0.064c0.002,0.024,0.004,0.06,0.008,0.101
		c0.008,0.062,0.015,0.126,0.028,0.186c0.001,0.004,0,0.004,0,0.007c0.01,0.039,0.024,0.073,0.029,0.093
		c0.02,0.073,0.043,0.131,0.064,0.186c0,0.002,0,0.005,0,0.007c0.111,0.287,0.294,0.545,0.536,0.765
		c0.002,0.002-0.001,0.006,0,0.007c0.002,0.002,0.004,0.005,0.008,0.007c0.012,0.016,0.027,0.031,0.042,0.043
		c0,0.002,0,0.006,0,0.007c0.597,0.505,1.181,0.503,1.651,0.479c0.47-0.025,0.815-0.065,1.229,0.286
		c0.415,0.351,0.422,0.678,0.465,1.136c0.043,0.458,0.131,1.032,0.729,1.536c0.869,0.734,2.179,0.638,2.93-0.214
		c0.751-0.853,0.655-2.152-0.214-2.887c-0.597-0.504-1.181-0.503-1.651-0.478c-0.47,0.025-0.815,0.064-1.229-0.286
		c-0.411-0.348-0.423-0.674-0.465-1.129c0.042-0.455,0.053-0.781,0.465-1.129c0.414-0.35,0.759-0.311,1.229-0.286
		c0.47,0.025,1.054,0.026,1.651-0.479c0.869-0.735,0.965-2.034,0.214-2.887C15.188,8.847,14.586,8.607,13.988,8.619z M13.996,8.848
		c0.532-0.011,1.066,0.202,1.442,0.629c0.668,0.758,0.581,1.904-0.192,2.559c-1.09,0.92-1.93-0.038-2.88,0.765
		c-0.48,0.405-0.499,0.848-0.543,1.308c0.043,0.459,0.063,0.902,0.543,1.308c0.95,0.802,1.79-0.156,2.88,0.765
		c0.774,0.654,0.86,1.8,0.192,2.559c-0.667,0.758-1.833,0.84-2.607,0.186c-1.089-0.92-0.244-1.87-1.194-2.672
		c-0.95-0.802-1.79,0.155-2.88-0.765v-0.007c-0.241-0.205-0.416-0.456-0.522-0.729c-0.001-0.002,0.001-0.006,0-0.008
		c-0.02-0.056-0.041-0.107-0.058-0.165c-0.007-0.025-0.015-0.053-0.02-0.079c-0.001-0.003,0.001-0.005,0-0.007
		c-0.012-0.054-0.022-0.11-0.029-0.165C8.124,14.3,8.124,14.27,8.121,14.242c-0.001-0.019-0.007-0.038-0.008-0.058
		c0-0.013,0-0.03,0-0.043c0-0.026,0-0.046,0-0.072c0-0.003,0-0.011,0-0.014c0-0.01,0-0.019,0-0.028
		c0.001-0.02,0.007-0.038,0.008-0.058c0.002-0.025,0.004-0.053,0.007-0.079c0.001-0.004,0-0.004,0-0.008
		c0.008-0.054,0.017-0.11,0.029-0.164c0-0.003-0.001-0.004,0-0.008c0.006-0.025,0.014-0.053,0.02-0.079
		c0.016-0.058,0.037-0.108,0.058-0.164c0.001-0.002-0.001-0.006,0-0.008c0.105-0.274,0.28-0.532,0.522-0.736
		c1.09-0.92,1.93,0.038,2.88-0.765c0.951-0.802,0.105-1.753,1.194-2.673C13.168,9.004,13.58,8.858,13.996,8.848z"/>
	<path opacity="0.3" fill="#669CCC" enable-background="new    " d="M13.997,8.849c-0.415,0.009-0.83,0.152-1.169,0.439
		c-1.089,0.92-0.243,1.877-1.193,2.679c-0.95,0.802-1.792-0.157-2.88,0.763v0.002c-0.243,0.205-0.417,0.458-0.522,0.732
		c0,0.001,0,0.004-0.001,0.006c-0.022,0.056-0.039,0.111-0.056,0.169c-0.007,0.026-0.014,0.051-0.02,0.077
		c-0.001,0.003-0.001,0.006-0.002,0.009c-0.012,0.054-0.02,0.108-0.027,0.163c0,0,0,0,0,0.002c0,0.002-0.001,0.006-0.001,0.008
		c-0.004,0.026-0.006,0.051-0.008,0.077c-0.001,0.02-0.004,0.039-0.004,0.058c0,0.01-0.001,0.02-0.001,0.03c0,0.004,0,0.007,0,0.01
		c-0.001,0.026-0.001,0.051,0,0.076c0,0.013,0.001,0.027,0.001,0.04c0.001,0.019,0.004,0.039,0.004,0.058
		c0.002,0.029,0.006,0.057,0.009,0.086v0.001c0.008,0.054,0.015,0.108,0.027,0.163c0.001,0.003,0.001,0.006,0.002,0.009
		c0.006,0.026,0.013,0.051,0.02,0.076c0.016,0.058,0.034,0.113,0.056,0.169c0.001,0.002,0.001,0.004,0.001,0.006
		c0.105,0.274,0.28,0.526,0.522,0.731v0.002c1.089,0.92,1.93-0.039,2.88,0.763c0.951,0.802,0.105,1.759,1.193,2.679
		c0.775,0.654,1.942,0.569,2.61-0.19c0.667-0.758,0.581-1.903-0.192-2.557c-1.089-0.92-1.93,0.041-2.881-0.762
		c-0.479-0.405-0.501-0.851-0.544-1.31c0.043-0.459,0.065-0.905,0.544-1.31c0.951-0.802,1.793,0.158,2.881-0.762
		c0.774-0.654,0.859-1.799,0.192-2.557C15.063,9.05,14.531,8.837,13.997,8.849C13.997,8.848,13.997,8.848,13.997,8.849z"/>
	<path opacity="0.3" fill="#669CCC" enable-background="new    " d="M13.996,8.848c-0.415,0.01-0.827,0.157-1.166,0.443
		c-1.089,0.92-0.244,1.87-1.194,2.673c-0.95,0.802-1.79-0.156-2.88,0.765c-0.241,0.205-0.416,0.462-0.522,0.736
		c-0.001,0.002,0.001,0.006,0,0.008c-0.02,0.056-0.041,0.106-0.058,0.164c-0.007,0.026-0.015,0.053-0.02,0.079
		c-0.001,0.004,0,0.005,0,0.008c-0.012,0.054-0.022,0.11-0.029,0.164c0,0.004,0.001,0.004,0,0.008
		c-0.002,0.025-0.004,0.053-0.007,0.079c-0.001,0.02-0.007,0.038-0.008,0.058c0,0.01,0,0.019,0,0.028c0,0.004,0,0.012,0,0.014
		c0,0.026,0,0.046,0,0.072c0,0.013,0,0.03,0,0.043c0.001,0.012,0.007,0.023,0.008,0.035c0.001-0.007-0.001-0.014,0-0.021
		c0.002-0.026,0.004-0.053,0.007-0.079c0.001-0.002,0-0.004,0-0.007c0.008-0.055,0.017-0.111,0.029-0.165
		c0-0.003-0.001-0.005,0-0.007c0.006-0.026,0.014-0.053,0.02-0.079c0.016-0.058,0.037-0.108,0.058-0.165
		c0.001-0.002-0.001-0.006,0-0.007c0.105-0.274,0.28-0.532,0.522-0.736c1.09-0.92,1.93,0.038,2.88-0.765
		c0.951-0.802,0.105-1.753,1.194-2.673c0.339-0.286,0.751-0.434,1.166-0.443c0.532-0.012,1.066,0.202,1.442,0.629
		c0.274,0.31,0.418,0.685,0.443,1.065c0.028-0.456-0.114-0.92-0.443-1.293C15.062,9.05,14.528,8.837,13.996,8.848z M11.837,14.222
		c-0.004,0.038-0.011,0.075-0.014,0.114c0.043,0.459,0.063,0.902,0.543,1.308c0.95,0.802,1.79-0.156,2.88,0.765
		c0.386,0.327,0.601,0.774,0.635,1.236c0.028-0.539-0.187-1.085-0.635-1.465c-1.09-0.92-1.93,0.037-2.88-0.765
		C11.925,15.043,11.877,14.64,11.837,14.222z"/>
	<path opacity="0.3" fill="#669CCC" enable-background="new    " d="M13.996,8.848c-0.415,0.01-0.827,0.157-1.166,0.443
		c-1.089,0.92-0.244,1.87-1.194,2.673c-0.95,0.802-1.79-0.156-2.88,0.765c-0.241,0.205-0.416,0.462-0.522,0.736
		c-0.001,0.002,0.001,0.006,0,0.008c-0.02,0.056-0.041,0.106-0.058,0.164c-0.007,0.026-0.015,0.053-0.02,0.079
		c-0.001,0.004,0,0.005,0,0.008c-0.012,0.054-0.022,0.11-0.029,0.164c0,0.004,0.001,0.004,0,0.008
		c-0.002,0.025-0.004,0.053-0.007,0.079c-0.001,0.02-0.007,0.038-0.008,0.058c0,0.01,0,0.019,0,0.028c0,0.004,0,0.012,0,0.014
		c0,0.026,0,0.046,0,0.072c0,0.013,0,0.03,0,0.043c0.001,0.019,0.007,0.038,0.008,0.058c0.002,0.029,0.004,0.058,0.007,0.086
		c0.008,0.055,0.017,0.111,0.029,0.165c0.001,0.002-0.001,0.004,0,0.007c0.006,0.026,0.014,0.053,0.02,0.079
		c0.016,0.058,0.037,0.109,0.058,0.165c0.001,0.002-0.001,0.006,0,0.008c0.105,0.273,0.28,0.524,0.522,0.729v0.007
		c1.09,0.92,1.93-0.037,2.88,0.765c0.951,0.802,0.105,1.752,1.194,2.672c0.775,0.654,1.941,0.572,2.607-0.186
		c0.668-0.758,0.581-1.905-0.192-2.559c-1.09-0.92-1.93,0.037-2.88-0.765c-0.48-0.405-0.499-0.848-0.543-1.308
		c0.043-0.459,0.063-0.902,0.543-1.308c0.95-0.802,1.79,0.156,2.88-0.765c0.774-0.654,0.86-1.8,0.192-2.559
		C15.062,9.05,14.528,8.837,13.996,8.848z M14.002,9.091c0.465-0.01,0.925,0.172,1.25,0.543c0.58,0.66,0.509,1.646-0.164,2.215
		c-0.489,0.413-0.863,0.396-1.322,0.371c-0.459-0.024-1.02-0.062-1.558,0.393c-0.544,0.46-0.586,1.02-0.629,1.472
		c-0.001,0.014-0.001,0.029,0,0.043c0.043,0.451,0.085,1.012,0.629,1.472c0.538,0.455,1.098,0.417,1.558,0.393
		c0.459-0.024,0.833-0.042,1.322,0.371c0.674,0.569,0.744,1.556,0.164,2.215c-0.58,0.66-1.59,0.728-2.264,0.158
		c-0.49-0.413-0.522-0.768-0.565-1.216c-0.042-0.447-0.09-1.004-0.629-1.458c-0.538-0.455-1.098-0.417-1.558-0.393
		c-0.455,0.023-0.827,0.035-1.308-0.364c-0.004-0.003-0.009-0.005-0.014-0.008c0-0.002,0-0.005,0-0.007
		c-0.21-0.177-0.359-0.388-0.45-0.622c-0.001-0.002,0-0.006,0-0.007c-0.001-0.002,0-0.007,0-0.007
		c-0.022-0.058-0.039-0.103-0.05-0.144c-0.009-0.028-0.019-0.051-0.022-0.064c0-0.004,0.001-0.004,0-0.007
		c-0.01-0.047-0.016-0.097-0.022-0.143c-0.002-0.016-0.004-0.046-0.007-0.079c-0.004-0.041-0.007-0.047-0.008-0.043
		c0,0.001,0-0.007,0-0.008c0-0.001,0.001-0.013,0-0.035c0-0.023,0-0.035,0-0.058c0.001-0.02,0.001-0.031,0-0.014
		c0.001-0.019,0-0.022,0-0.022c0,0.002,0-0.008,0-0.007c0.001,0.005,0.004-0.003,0.008-0.043c0.001-0.025,0.004-0.053,0.007-0.072
		c0.001-0.004,0-0.004,0-0.007c0.006-0.046,0.012-0.096,0.022-0.143c0-0.002,0-0.005,0-0.007c0.002-0.011,0.012-0.032,0.022-0.065
		c0.011-0.041,0.028-0.086,0.05-0.143c0,0,0-0.006,0-0.007c0.091-0.238,0.241-0.459,0.45-0.636c0.49-0.413,0.863-0.396,1.322-0.371
		c0.459,0.024,1.02,0.062,1.558-0.393c0.539-0.454,0.587-1.011,0.629-1.458c0.043-0.447,0.075-0.801,0.565-1.215
		C13.283,9.227,13.641,9.099,14.002,9.091z"/>
	<path opacity="0.3" fill="#669CCC" enable-background="new    " d="M13.996,8.848c-0.415,0.01-0.827,0.157-1.166,0.443
		c-1.089,0.92-0.244,1.87-1.194,2.673c-0.95,0.802-1.79-0.156-2.88,0.765c-0.241,0.205-0.416,0.462-0.522,0.736
		c-0.001,0.002,0.001,0.006,0,0.008c-0.02,0.056-0.041,0.106-0.058,0.164c-0.007,0.026-0.015,0.053-0.02,0.079
		c-0.001,0.004,0,0.005,0,0.008c-0.012,0.054-0.022,0.11-0.029,0.164c0,0.004,0.001,0.004,0,0.008
		c-0.002,0.025-0.004,0.053-0.007,0.079c-0.001,0.02-0.007,0.038-0.008,0.058c0,0.01,0,0.019,0,0.028c0,0.004,0,0.012,0,0.014
		c0,0.026,0,0.046,0,0.072c0,0.013,0,0.03,0,0.043c0.001,0.019,0.007,0.038,0.008,0.058c0.002,0.029,0.004,0.058,0.007,0.086
		c0.008,0.055,0.017,0.111,0.029,0.165c0.001,0.002-0.001,0.004,0,0.007c0.006,0.026,0.014,0.053,0.02,0.079
		c0.016,0.058,0.037,0.109,0.058,0.165c0.001,0.002-0.001,0.006,0,0.008c0.105,0.273,0.28,0.524,0.522,0.729v0.007
		c1.09,0.92,1.93-0.037,2.88,0.765c0.951,0.802,0.105,1.752,1.194,2.672c0.775,0.654,1.941,0.572,2.607-0.186
		c0.668-0.758,0.581-1.905-0.192-2.559c-1.09-0.92-1.93,0.037-2.88-0.765c-0.48-0.405-0.499-0.848-0.543-1.308
		c0.043-0.459,0.063-0.902,0.543-1.308c0.95-0.802,1.79,0.156,2.88-0.765c0.774-0.654,0.86-1.8,0.192-2.559
		C15.062,9.05,14.528,8.837,13.996,8.848z M14.002,9.298c0.406-0.008,0.809,0.156,1.094,0.479c0.505,0.575,0.444,1.419-0.144,1.915
		c-0.443,0.373-0.724,0.338-1.18,0.314c-0.454-0.023-1.106-0.051-1.7,0.45c-0.6,0.507-0.657,1.164-0.701,1.608
		c-0.002,0.028-0.002,0.057,0,0.085c0.043,0.444,0.101,1.101,0.701,1.608c0.593,0.502,1.246,0.474,1.7,0.45
		c0.455-0.024,0.738-0.058,1.18,0.314c0.588,0.497,0.648,1.341,0.144,1.915c-0.506,0.575-1.384,0.64-1.973,0.143
		c-0.443-0.373-0.451-0.637-0.493-1.078c-0.042-0.443-0.108-1.093-0.701-1.594c-0.593-0.501-1.245-0.474-1.7-0.45
		c-0.45,0.023-0.733,0.053-1.166-0.308c-0.004-0.004-0.009-0.002-0.014-0.007c0-0.002,0-0.005,0-0.007
		c-0.183-0.154-0.314-0.34-0.393-0.543c0-0.002,0.001-0.006,0-0.007c0-0.001,0-0.008,0-0.008c-0.022-0.058-0.035-0.095-0.042-0.121
		c-0.011-0.037-0.014-0.058-0.014-0.058c-0.001-0.004,0-0.004,0-0.007c-0.01-0.042-0.016-0.083-0.022-0.122
		c-0.001-0.006-0.004-0.027-0.008-0.065c-0.004-0.071-0.009-0.085-0.007-0.042c0.001,0.02,0.001,0.01,0-0.029
		c-0.001-0.02-0.001-0.036,0-0.058c0.001-0.035,0.001-0.04,0-0.008c0.001-0.037,0.001-0.043,0-0.021
		c-0.002,0.043,0.002,0.029,0.007-0.043c0.002-0.022,0.007-0.044,0.008-0.058c0-0.002,0-0.006,0-0.007
		c0.006-0.039,0.012-0.079,0.022-0.122c0-0.002,0-0.005,0-0.007c-0.001,0.003,0.004-0.019,0.014-0.058
		c0.008-0.027,0.02-0.063,0.042-0.122c0,0,0-0.007,0-0.007v-0.005c0.081-0.205,0.215-0.4,0.393-0.551
		c0.443-0.372,0.724-0.338,1.18-0.314c0.455,0.024,1.106,0.051,1.7-0.45c0.593-0.501,0.659-1.151,0.701-1.594
		c0.042-0.443,0.051-0.706,0.493-1.079C13.383,9.414,13.688,9.305,14.002,9.298z"/>
	<path opacity="0.3" fill="#FFFFFF" enable-background="new    " d="M15.881,10.792c-0.035,0.463-0.248,0.917-0.635,1.244
		c-1.09,0.92-1.93-0.038-2.88,0.765c-0.48,0.405-0.499,0.848-0.543,1.308c0.004,0.039,0.011,0.076,0.014,0.114
		c0.04-0.419,0.089-0.822,0.529-1.194c0.95-0.802,1.79,0.155,2.88-0.765C15.696,11.881,15.912,11.333,15.881,10.792z M8.121,14.222
		c-0.001,0.012-0.007,0.023-0.008,0.035c0,0.01,0,0.02,0,0.029c0,0.004,0,0.011,0,0.014c0,0.026,0,0.046,0,0.071
		c0,0.013,0,0.03,0,0.043c0.001,0.019,0.007,0.038,0.008,0.058c0.002,0.029,0.004,0.058,0.007,0.086
		c0.008,0.055,0.017,0.11,0.029,0.165c0.001,0.003-0.001,0.004,0,0.007c0.006,0.026,0.014,0.053,0.02,0.079
		c0.016,0.058,0.037,0.108,0.058,0.164c0.001,0.002-0.001,0.006,0,0.008c0.105,0.274,0.28,0.524,0.522,0.728v0.007
		c1.09,0.92,1.93-0.037,2.88,0.765c0.951,0.802,0.105,1.752,1.194,2.673c0.775,0.654,1.941,0.572,2.607-0.186
		c0.329-0.374,0.473-0.845,0.443-1.301c-0.024,0.383-0.169,0.76-0.443,1.072c-0.667,0.758-1.833,0.84-2.607,0.186
		c-1.089-0.92-0.244-1.87-1.194-2.672c-0.95-0.802-1.79,0.155-2.88-0.765v-0.007c-0.241-0.205-0.416-0.456-0.522-0.729
		c-0.001-0.002,0.001-0.006,0-0.008c-0.02-0.056-0.041-0.107-0.058-0.165c-0.007-0.025-0.015-0.053-0.02-0.079
		c-0.001-0.003,0.001-0.005,0-0.007c-0.012-0.054-0.022-0.11-0.029-0.165C8.124,14.3,8.123,14.27,8.121,14.242
		C8.12,14.236,8.122,14.229,8.121,14.222z"/>
</g>
</svg>
