<?xml version="1.0" encoding="utf-8"?>
<!-- Generator: Adobe Illustrator 17.0.0, SVG Export Plug-In . SVG Version: 6.00 Build 0)  -->
<!DOCTYPE svg PUBLIC "-//W3C//DTD SVG 1.1//EN" "http://www.w3.org/Graphics/SVG/1.1/DTD/svg11.dtd">
<svg version="1.1" id="图层_1" xmlns="http://www.w3.org/2000/svg" xmlns:xlink="http://www.w3.org/1999/xlink" x="0px" y="0px"
	 width="24px" height="24px" viewBox="0 0 24 24" enable-background="new 0 0 24 24" xml:space="preserve">
<path fill="#C4DCED" stroke="#9DBCD7" stroke-miterlimit="10" d="M22.942,20.079c0,1.595-1.293,2.888-2.888,2.888H3.896
	c-1.595,0-2.888-1.293-2.888-2.888V3.921c0-1.595,1.293-2.888,2.888-2.888h16.159c1.595,0,2.888,1.293,2.888,2.888L22.942,20.079
	L22.942,20.079z"/>
<path opacity="0.6" fill="none" stroke="#FFFFFF" stroke-miterlimit="10" enable-background="new    " d="M3.896,21.967
	c-1.041,0-1.888-0.847-1.888-1.888V3.921c0-1.041,0.847-1.888,1.888-1.888h16.159c1.041,0,1.888,0.847,1.888,1.888v16.158
	c-0.001,1.041-0.848,1.888-1.889,1.888C20.054,21.967,3.896,21.967,3.896,21.967z"/>
<path opacity="0.05" fill="none" stroke="#000000" stroke-width="0.3786" stroke-miterlimit="10" enable-background="new    " d="
	M23.02,7.276c0,0,0-0.97-0.958-0.97c-2.782,0-11.663,0.002-12.458,0.002c-0.966,0-0.958-0.956-0.958-0.956s0-0.963-0.958-0.963
	c-1.678,0-5.038,0-5.75,0c-0.943,0-0.958,0.928-0.958,0.957"/>
<linearGradient id="SVGID_1_" gradientUnits="userSpaceOnUse" x1="1381.974" y1="-1687.967" x2="1381.974" y2="-1669.882" gradientTransform="matrix(1 0 0 -1 -1370 -1665)">
	<stop  offset="0" style="stop-color:#D1E0ED"/>
	<stop  offset="1" style="stop-color:#E4EEFB"/>
</linearGradient>
<path fill="url(#SVGID_1_)" stroke="#9DBCD7" stroke-miterlimit="10" d="M3.889,22.967h16.219c1.595,0,2.833-1.326,2.833-2.92V7.098
	c0-0.227-0.34-0.441-0.792-0.441c-2.794,0-11.7,0.002-12.499,0.002c-0.97,0-0.956-0.885-0.956-0.885s0.007-0.892-0.956-0.892
	c-1.685,0-5.06,0-5.775,0c-0.948,0-0.956,0.786-0.956,0.815v14.35C1.008,21.641,2.295,22.967,3.889,22.967z"/>
<path opacity="0.8" fill="none" stroke="#FFFFFF" stroke-miterlimit="10" enable-background="new    " d="M3.889,21.967
	c-1.037,0-1.881-0.862-1.881-1.921V5.889l5.688-0.007c0.016,0.225,0.098,0.777,0.537,1.224C8.481,7.358,8.929,7.659,9.65,7.659
	l12.291-0.001v12.389c0,1.06-0.822,1.921-1.833,1.921L3.889,21.967L3.889,21.967z"/>
<g id="g27_1_">
	
		<linearGradient id="path36_2_" gradientUnits="userSpaceOnUse" x1="1784.3451" y1="-2484.1682" x2="1787.3922" y2="-2489.446" gradientTransform="matrix(1 0 0 -1 -1782 -2483)">
		<stop  offset="0" style="stop-color:#FFFFFF"/>
		<stop  offset="0.5" style="stop-color:#FFFFFF;stop-opacity:0.6"/>
		<stop  offset="1" style="stop-color:#FFFFFF;stop-opacity:0.15"/>
	</linearGradient>
	<path id="path36_1_" fill="url(#path36_2_)" d="M4.858,7.342c0.341-0.705,0.756-1.366,1.233-1.977L5.223,3.462
		C4.482,4.163,3.88,4.935,3.4,5.685L4.858,7.342z"/>
	
		<linearGradient id="path45_2_" gradientUnits="userSpaceOnUse" x1="1787.1091" y1="-2483.3772" x2="1789.1033" y2="-2486.8313" gradientTransform="matrix(1 0 0 -1 -1782 -2483)">
		<stop  offset="0" style="stop-color:#FFFFFF"/>
		<stop  offset="0.5" style="stop-color:#FFFFFF;stop-opacity:0.6"/>
		<stop  offset="1" style="stop-color:#FFFFFF;stop-opacity:0.15"/>
	</linearGradient>
	<path id="path45_1_" fill="url(#path45_2_)" d="M4.949,1.633l0.454,0.994C5.84,2.265,6.318,2.14,6.84,1.633H4.949z"/>
	
		<linearGradient id="path54_2_" gradientUnits="userSpaceOnUse" x1="1787.736" y1="-2482.7214" x2="1790.1725" y2="-2486.9417" gradientTransform="matrix(1 0 0 -1 -1782 -2483)">
		<stop  offset="0" style="stop-color:#FFFFFF"/>
		<stop  offset="0.5" style="stop-color:#FFFFFF;stop-opacity:0.6"/>
		<stop  offset="1" style="stop-color:#FFFFFF;stop-opacity:0.15"/>
	</linearGradient>
	<path id="path54_1_" fill="url(#path54_2_)" d="M8.353,1.633H7.994C7.089,2.14,6.298,2.527,5.619,3.105L6.451,4.93
		C7.162,4.109,7.986,3.39,8.91,2.809C8.917,2.803,8.922,2.797,8.93,2.79C9.964,1.897,8.936,1.633,8.353,1.633z"/>
	
		<linearGradient id="path63_2_" gradientUnits="userSpaceOnUse" x1="1782.6355" y1="-2486.5737" x2="1785.2798" y2="-2491.1538" gradientTransform="matrix(1 0 0 -1 -1782 -2483)">
		<stop  offset="0" style="stop-color:#FFFFFF"/>
		<stop  offset="0.5" style="stop-color:#FFFFFF;stop-opacity:0.6"/>
		<stop  offset="1" style="stop-color:#FFFFFF;stop-opacity:0.15"/>
	</linearGradient>
	<path id="path63_1_" fill="url(#path63_2_)" d="M3.124,6.138C2.567,7.086,2.204,7.961,1.988,8.56
		c0.256,0.365,0.678,0.604,1.157,0.604c0.593,0,1.1-0.366,1.31-0.884c0.054-0.145,0.119-0.284,0.179-0.426L3.124,6.138z"/>
	
		<linearGradient id="path72_2_" gradientUnits="userSpaceOnUse" x1="1782.5165" y1="-2486.7615" x2="1785.4468" y2="-2491.8372" gradientTransform="matrix(1 0 0 -1 -1782 -2483)">
		<stop  offset="0" style="stop-color:#FFFFFF"/>
		<stop  offset="0.5" style="stop-color:#FFFFFF;stop-opacity:0.6"/>
		<stop  offset="1" style="stop-color:#FFFFFF;stop-opacity:0.15"/>
	</linearGradient>
	<path id="path72_1_" fill="url(#path72_2_)" d="M1.742,4.566L1.731,7.748c0,0,0,0.001,0,0.002c0,0.02,0.005,0.039,0.006,0.058
		C1.979,7.219,2.317,6.5,2.775,5.74L1.742,4.566z"/>
	
		<linearGradient id="path149_2_" gradientUnits="userSpaceOnUse" x1="1784.7327" y1="-2485.1721" x2="1787.4844" y2="-2489.938" gradientTransform="matrix(1 0 0 -1 -1782 -2483)">
		<stop  offset="0" style="stop-color:#FFFFFF"/>
		<stop  offset="0.5" style="stop-color:#FFFFFF;stop-opacity:0.6"/>
		<stop  offset="1" style="stop-color:#FFFFFF;stop-opacity:0.15"/>
	</linearGradient>
	<path id="path149_1_" fill="url(#path149_2_)" d="M4.344,1.639C3.31,1.553,1.949,2.718,1.774,3.834l1.283,1.459
		c0.512-0.781,1.149-1.582,1.934-2.305L4.344,1.639z"/>
</g>
<g>
	<g opacity="0.3">
		<g opacity="0.5">
			<path fill="#FFFFFF" d="M18.206,14.788c0-0.948-0.827-1.782-2.15-2.341c0.177-1.425-0.132-2.558-0.952-3.032
				c-0.261-0.151-0.558-0.227-0.884-0.227c-0.679,0-1.449,0.33-2.218,0.913c-0.769-0.583-1.539-0.913-2.218-0.913
				c-0.326,0-0.624,0.076-0.885,0.227c-0.821,0.474-1.129,1.607-0.952,3.032c-1.323,0.559-2.15,1.394-2.15,2.341
				s0.827,1.782,2.149,2.341c-0.011,0.088-0.021,0.174-0.028,0.26c-0.118,1.355,0.231,2.34,0.982,2.773
				c0.261,0.151,0.558,0.227,0.885,0.227c0.679,0,1.449-0.33,2.218-0.913c0.769,0.583,1.538,0.913,2.218,0.913
				c0.326,0,0.624-0.076,0.885-0.227c0.752-0.434,1.1-1.418,0.982-2.773c-0.008-0.086-0.017-0.172-0.028-0.26
				C17.379,16.569,18.206,15.735,18.206,14.788z M14.218,9.844c0.21,0,0.396,0.046,0.556,0.139c0.518,0.299,0.76,1.117,0.65,2.23
				c-0.52-0.168-1.097-0.297-1.716-0.382c-0.38-0.491-0.779-0.926-1.185-1.295C13.131,10.096,13.72,9.844,14.218,9.844z
				 M14.091,15.994c-0.231,0.401-0.482,0.78-0.744,1.134c-0.425,0.046-0.874,0.073-1.346,0.073s-0.921-0.026-1.346-0.073
				c-0.263-0.354-0.513-0.733-0.744-1.134c-0.237-0.41-0.439-0.813-0.611-1.205c0.176-0.403,0.38-0.809,0.611-1.209
				c0.231-0.401,0.482-0.78,0.744-1.134c0.425-0.046,0.874-0.073,1.346-0.073c0.472,0,0.921,0.026,1.346,0.073
				c0.263,0.354,0.513,0.733,0.744,1.134c0.231,0.4,0.435,0.806,0.611,1.209C14.53,15.182,14.327,15.585,14.091,15.994z
				 M15.03,15.635c0.124,0.366,0.222,0.726,0.292,1.075c-0.328,0.11-0.688,0.206-1.075,0.283c0.142-0.215,0.28-0.439,0.413-0.669
				C14.792,16.094,14.915,15.863,15.03,15.635z M12,18.617c-0.261-0.231-0.521-0.493-0.775-0.782
				c0.254,0.015,0.512,0.024,0.775,0.024s0.522-0.009,0.775-0.024C12.521,18.124,12.261,18.386,12,18.617z M9.754,16.992
				c-0.388-0.077-0.747-0.173-1.075-0.283C8.749,16.36,8.847,16,8.971,15.634c0.115,0.229,0.237,0.459,0.37,0.689
				C9.474,16.553,9.612,16.777,9.754,16.992z M8.969,13.946c-0.128-0.376-0.225-0.737-0.294-1.078
				c0.329-0.111,0.69-0.207,1.079-0.284c-0.142,0.215-0.28,0.439-0.413,0.669C9.208,13.482,9.085,13.714,8.969,13.946z M12,10.958
				c0.261,0.231,0.521,0.493,0.775,0.781c-0.254-0.014-0.512-0.023-0.775-0.023s-0.521,0.009-0.775,0.024
				C11.479,11.452,11.74,11.19,12,10.958z M14.66,13.252c-0.133-0.231-0.271-0.454-0.413-0.669c0.389,0.077,0.749,0.173,1.079,0.284
				c-0.069,0.341-0.165,0.702-0.294,1.078C14.916,13.714,14.792,13.482,14.66,13.252z M9.226,9.983
				c0.159-0.092,0.346-0.139,0.556-0.139c0.499,0,1.088,0.252,1.695,0.692c-0.406,0.369-0.805,0.804-1.185,1.295
				c-0.619,0.085-1.196,0.214-1.716,0.382C8.466,11.1,8.709,10.282,9.226,9.983z M6.452,14.788c0-0.598,0.587-1.217,1.606-1.679
				c0.115,0.535,0.292,1.1,0.528,1.679c-0.233,0.57-0.41,1.135-0.528,1.678C7.04,16.004,6.452,15.385,6.452,14.788z M9.783,19.731
				c-0.21,0-0.397-0.046-0.556-0.139c-0.51-0.294-0.749-1.077-0.656-2.147c0.003-0.027,0.006-0.055,0.009-0.082
				c0.52,0.167,1.096,0.296,1.713,0.381c0.38,0.491,0.779,0.926,1.185,1.295C10.87,19.479,10.281,19.731,9.783,19.731z
				 M15.43,17.445c0.093,1.07-0.146,1.852-0.656,2.147c-0.159,0.092-0.347,0.139-0.556,0.139c-0.498,0-1.088-0.252-1.695-0.692
				c0.406-0.369,0.805-0.804,1.185-1.295c0.617-0.085,1.193-0.214,1.713-0.381C15.424,17.391,15.428,17.419,15.43,17.445z
				 M15.942,16.466c-0.118-0.543-0.295-1.108-0.528-1.678c0.236-0.579,0.413-1.144,0.528-1.679c1.019,0.462,1.606,1.081,1.606,1.679
				C17.549,15.385,16.961,16.004,15.942,16.466z"/>
		</g>
		<g>
			<path fill="#669CCC" d="M18.206,14.432c0-0.948-0.827-1.782-2.15-2.341c0.177-1.425-0.132-2.558-0.952-3.032
				c-0.261-0.151-0.558-0.227-0.884-0.227c-0.679,0-1.449,0.33-2.218,0.913c-0.769-0.583-1.539-0.913-2.218-0.913
				c-0.326,0-0.624,0.076-0.885,0.227c-0.821,0.474-1.129,1.607-0.952,3.032c-1.323,0.559-2.15,1.394-2.15,2.341
				s0.827,1.782,2.149,2.341c-0.011,0.088-0.021,0.174-0.028,0.26c-0.118,1.355,0.231,2.34,0.982,2.773
				c0.261,0.151,0.558,0.227,0.885,0.227c0.679,0,1.449-0.33,2.218-0.913c0.769,0.583,1.538,0.913,2.218,0.913
				c0.326,0,0.624-0.076,0.885-0.227c0.752-0.434,1.1-1.418,0.982-2.773c-0.008-0.086-0.017-0.172-0.028-0.26
				C17.379,16.214,18.206,15.38,18.206,14.432z M14.218,9.489c0.21,0,0.396,0.046,0.556,0.139c0.518,0.299,0.76,1.117,0.65,2.23
				c-0.52-0.168-1.097-0.297-1.716-0.382c-0.38-0.491-0.779-0.926-1.185-1.295C13.131,9.741,13.72,9.489,14.218,9.489z
				 M14.091,15.639c-0.231,0.401-0.482,0.78-0.744,1.134c-0.425,0.046-0.874,0.073-1.346,0.073s-0.921-0.026-1.346-0.073
				c-0.263-0.354-0.513-0.733-0.744-1.134c-0.237-0.41-0.439-0.813-0.611-1.205c0.176-0.403,0.38-0.809,0.611-1.209
				c0.231-0.401,0.482-0.78,0.744-1.134c0.425-0.046,0.874-0.073,1.346-0.073c0.472,0,0.921,0.026,1.346,0.073
				c0.263,0.354,0.513,0.733,0.744,1.134c0.231,0.4,0.435,0.806,0.611,1.209C14.53,14.826,14.327,15.229,14.091,15.639z
				 M15.03,15.279c0.124,0.366,0.222,0.726,0.292,1.075c-0.328,0.11-0.688,0.206-1.075,0.283c0.142-0.215,0.28-0.439,0.413-0.669
				C14.792,15.738,14.915,15.508,15.03,15.279z M12,18.261c-0.261-0.231-0.521-0.493-0.775-0.782
				c0.254,0.015,0.512,0.023,0.775,0.023s0.522-0.009,0.775-0.024C12.521,17.768,12.261,18.03,12,18.261z M9.754,16.637
				c-0.388-0.077-0.747-0.173-1.075-0.283c0.07-0.348,0.168-0.709,0.292-1.075c0.115,0.229,0.237,0.459,0.37,0.689
				C9.474,16.198,9.612,16.421,9.754,16.637z M8.969,13.59c-0.128-0.376-0.225-0.737-0.294-1.078
				c0.329-0.111,0.69-0.207,1.079-0.284c-0.142,0.215-0.28,0.439-0.413,0.669C9.208,13.126,9.085,13.358,8.969,13.59z M12,10.603
				c0.261,0.231,0.521,0.493,0.775,0.781c-0.254-0.014-0.512-0.023-0.775-0.023s-0.521,0.009-0.775,0.024
				C11.479,11.096,11.74,10.834,12,10.603z M14.66,12.896c-0.133-0.231-0.271-0.454-0.413-0.669
				c0.389,0.077,0.749,0.173,1.079,0.284c-0.069,0.341-0.165,0.702-0.294,1.078C14.916,13.358,14.792,13.126,14.66,12.896z
				 M9.226,9.628c0.159-0.092,0.346-0.139,0.556-0.139c0.499,0,1.088,0.252,1.695,0.692c-0.406,0.369-0.805,0.804-1.185,1.295
				c-0.619,0.085-1.196,0.214-1.716,0.382C8.466,10.744,8.709,9.926,9.226,9.628z M6.452,14.432c0-0.598,0.587-1.217,1.606-1.679
				c0.115,0.535,0.292,1.1,0.528,1.679c-0.233,0.57-0.41,1.135-0.528,1.678C7.04,15.649,6.452,15.03,6.452,14.432z M9.783,19.376
				c-0.21,0-0.397-0.046-0.556-0.139c-0.51-0.294-0.749-1.077-0.656-2.147c0.003-0.027,0.006-0.055,0.009-0.082
				c0.52,0.167,1.096,0.296,1.713,0.381c0.38,0.491,0.779,0.926,1.185,1.295C10.87,19.124,10.281,19.376,9.783,19.376z M15.43,17.09
				c0.093,1.07-0.146,1.852-0.656,2.147c-0.159,0.092-0.347,0.139-0.556,0.139c-0.498,0-1.088-0.252-1.695-0.692
				c0.406-0.369,0.805-0.804,1.185-1.295c0.617-0.085,1.193-0.214,1.713-0.381C15.424,17.035,15.428,17.063,15.43,17.09z
				 M15.942,16.111c-0.118-0.543-0.295-1.108-0.528-1.678c0.236-0.579,0.413-1.144,0.528-1.679c1.019,0.462,1.606,1.081,1.606,1.679
				C17.549,15.03,16.961,15.649,15.942,16.111z"/>
		</g>
	</g>
	<g>
		<path opacity="0.3" fill="#669CCC" enable-background="new    " d="M16.01,12.604c-0.022-0.01-0.044-0.014-0.068-0.014
			c-0.025,0-0.051,0.006-0.074,0.018c-0.044,0.023-0.076,0.063-0.087,0.112c-0.115,0.532-0.289,1.088-0.519,1.651
			c-0.017,0.04-0.017,0.085,0,0.124c0.229,0.562,0.404,1.117,0.519,1.651c0.01,0.049,0.042,0.09,0.087,0.112
			c0.023,0.011,0.049,0.018,0.074,0.018c0.023,0,0.046-0.005,0.068-0.014c1.082-0.49,1.703-1.157,1.703-1.828
			C17.713,13.761,17.092,13.094,16.01,12.604z M15.942,16.111c-0.118-0.543-0.295-1.108-0.528-1.678
			c0.236-0.579,0.413-1.144,0.528-1.679c1.019,0.462,1.606,1.081,1.606,1.679C17.549,15.03,16.961,15.649,15.942,16.111z"/>
		<path opacity="0.3" fill="#669CCC" enable-background="new    " d="M10.636,16.936C11.081,16.985,11.54,17.01,12,17.01
			c0.46,0,0.919-0.025,1.364-0.074c0.045-0.005,0.087-0.029,0.114-0.066c0.271-0.365,0.525-0.752,0.755-1.15
			c0.231-0.4,0.439-0.81,0.619-1.221c0.019-0.042,0.019-0.09,0.001-0.132c-0.18-0.413-0.389-0.825-0.619-1.225
			c-0.23-0.398-0.484-0.785-0.755-1.15c-0.027-0.037-0.069-0.06-0.114-0.066c-0.445-0.049-0.904-0.074-1.364-0.074
			c-0.46,0-0.919,0.025-1.364,0.074c-0.045,0.005-0.087,0.028-0.114,0.066c-0.271,0.365-0.525,0.752-0.755,1.15
			c-0.231,0.4-0.439,0.812-0.62,1.225C9.13,14.41,9.13,14.458,9.149,14.5c0.18,0.41,0.389,0.822,0.619,1.221
			c0.23,0.398,0.484,0.786,0.755,1.15C10.55,16.908,10.591,16.932,10.636,16.936z M9.298,14.434c0.176-0.403,0.38-0.809,0.611-1.209
			c0.231-0.401,0.482-0.78,0.744-1.134c0.425-0.046,0.874-0.073,1.346-0.073c0.472,0,0.921,0.026,1.346,0.073
			c0.263,0.354,0.513,0.733,0.744,1.134c0.231,0.4,0.435,0.806,0.611,1.209c-0.172,0.392-0.375,0.795-0.611,1.205
			c-0.231,0.401-0.482,0.78-0.744,1.134c-0.425,0.046-0.874,0.073-1.346,0.073c-0.472,0-0.921-0.026-1.346-0.073
			c-0.263-0.354-0.513-0.733-0.744-1.134C9.673,15.229,9.471,14.826,9.298,14.434z"/>
		<path opacity="0.3" fill="#669CCC" enable-background="new    " d="M8.958,13.754c0.004,0.001,0.008,0.001,0.011,0.001
			c0.062,0,0.119-0.035,0.147-0.091c0.119-0.237,0.242-0.467,0.368-0.685c0.13-0.225,0.267-0.446,0.408-0.66
			c0.037-0.055,0.036-0.127-0.001-0.182c-0.031-0.046-0.083-0.073-0.136-0.073c-0.01,0-0.022,0.001-0.032,0.003
			c-0.385,0.076-0.755,0.174-1.1,0.29c-0.078,0.026-0.125,0.107-0.109,0.188c0.072,0.357,0.172,0.727,0.299,1.099
			C8.834,13.706,8.892,13.75,8.958,13.754z M8.675,12.512c0.329-0.111,0.69-0.207,1.079-0.284c-0.142,0.215-0.28,0.439-0.413,0.669
			c-0.133,0.23-0.257,0.461-0.372,0.694C8.841,13.214,8.743,12.853,8.675,12.512z"/>
		<path opacity="0.3" fill="#669CCC" enable-background="new    " d="M13.578,11.576c0.026,0.034,0.065,0.056,0.108,0.062
			c0.603,0.083,1.171,0.209,1.688,0.375c0.017,0.006,0.034,0.008,0.051,0.008c0.031,0,0.063-0.009,0.09-0.027
			c0.042-0.027,0.069-0.072,0.074-0.121c0.116-1.182-0.151-2.052-0.732-2.388c-0.185-0.107-0.399-0.161-0.638-0.161
			c-0.519,0-1.138,0.25-1.791,0.724c-0.04,0.029-0.065,0.075-0.068,0.124c-0.003,0.05,0.017,0.098,0.054,0.131
			C12.815,10.668,13.207,11.096,13.578,11.576z M14.218,9.489c0.21,0,0.396,0.046,0.556,0.139c0.518,0.299,0.76,1.117,0.65,2.23
			c-0.52-0.168-1.097-0.297-1.716-0.382c-0.38-0.491-0.779-0.926-1.185-1.295C13.131,9.741,13.72,9.489,14.218,9.489z"/>
		<path opacity="0.3" fill="#669CCC" enable-background="new    " d="M8.626,16.509c0.344,0.116,0.712,0.213,1.096,0.289
			c0.01,0.002,0.022,0.003,0.032,0.003c0.054,0,0.106-0.026,0.136-0.073c0.037-0.055,0.037-0.126,0.001-0.182
			c-0.141-0.214-0.279-0.436-0.408-0.661c-0.125-0.218-0.245-0.44-0.365-0.68c-0.028-0.056-0.085-0.091-0.147-0.091
			c-0.004,0-0.008,0.001-0.011,0.001c-0.066,0.005-0.123,0.049-0.145,0.111c-0.126,0.373-0.227,0.742-0.297,1.095
			C8.501,16.402,8.548,16.483,8.626,16.509z M8.971,15.279c0.115,0.229,0.237,0.459,0.37,0.689c0.133,0.231,0.271,0.454,0.413,0.669
			c-0.388-0.077-0.747-0.173-1.075-0.283C8.749,16.005,8.847,15.645,8.971,15.279z"/>
		<path opacity="0.3" fill="#669CCC" enable-background="new    " d="M18.206,14.432c0-0.948-0.827-1.782-2.15-2.341
			c0.177-1.425-0.132-2.558-0.952-3.032c-0.261-0.151-0.558-0.227-0.884-0.227c-0.679,0-1.449,0.33-2.218,0.913
			c-0.769-0.583-1.539-0.913-2.218-0.913c-0.326,0-0.624,0.076-0.885,0.227c-0.821,0.474-1.129,1.607-0.952,3.032
			c-1.323,0.559-2.15,1.394-2.15,2.341s0.827,1.782,2.149,2.341c-0.011,0.088-0.021,0.174-0.028,0.26
			c-0.118,1.355,0.231,2.34,0.982,2.773c0.261,0.151,0.558,0.227,0.885,0.227c0.679,0,1.449-0.33,2.218-0.913
			c0.769,0.583,1.538,0.913,2.218,0.913c0.326,0,0.624-0.076,0.885-0.227c0.752-0.434,1.1-1.418,0.982-2.773
			c-0.008-0.086-0.017-0.172-0.028-0.26C17.379,16.214,18.206,15.38,18.206,14.432z M15.992,16.622
			c-0.068,0.028-0.108,0.099-0.099,0.172c0.011,0.086,0.021,0.17,0.027,0.253c0.112,1.287-0.207,2.217-0.9,2.616
			c-0.235,0.136-0.505,0.205-0.803,0.205c-0.627,0-1.36-0.304-2.118-0.88c-0.029-0.022-0.065-0.034-0.099-0.034
			c-0.035,0-0.07,0.011-0.099,0.034c-0.759,0.576-1.492,0.88-2.118,0.88c-0.297,0-0.567-0.069-0.803-0.205
			c-0.693-0.4-1.012-1.329-0.9-2.616c0.007-0.084,0.017-0.168,0.027-0.253c0.009-0.073-0.031-0.143-0.099-0.172
			c-1.302-0.55-2.049-1.348-2.049-2.19s0.747-1.639,2.05-2.19c0.068-0.028,0.108-0.099,0.099-0.172
			C7.934,10.667,8.252,9.621,8.98,9.2c0.235-0.136,0.505-0.205,0.803-0.205c0.627,0,1.36,0.304,2.119,0.88
			c0.029,0.022,0.065,0.034,0.099,0.034c0.035,0,0.07-0.011,0.099-0.034c0.759-0.576,1.492-0.88,2.119-0.88
			c0.297,0,0.567,0.069,0.802,0.205c0.728,0.421,1.046,1.467,0.872,2.87c-0.009,0.073,0.031,0.143,0.099,0.172
			c1.303,0.55,2.05,1.348,2.05,2.19C18.042,15.273,17.295,16.071,15.992,16.622z"/>
		<path opacity="0.3" fill="#669CCC" enable-background="new    " d="M11.102,11.276c-0.044,0.05-0.054,0.121-0.025,0.181
			c0.027,0.057,0.085,0.092,0.148,0.092c0.003,0,0.007,0,0.01-0.001c0.262-0.015,0.519-0.024,0.765-0.024s0.504,0.008,0.765,0.024
			c0.003,0.001,0.007,0.001,0.01,0.001c0.062,0,0.12-0.036,0.148-0.092c0.029-0.059,0.02-0.131-0.025-0.181
			c-0.256-0.291-0.522-0.558-0.79-0.796c-0.031-0.027-0.07-0.042-0.109-0.042c-0.039,0-0.078,0.014-0.109,0.042
			C11.624,10.718,11.358,10.986,11.102,11.276z M12,10.603c0.261,0.231,0.521,0.493,0.775,0.781
			c-0.254-0.014-0.512-0.023-0.775-0.023s-0.521,0.009-0.775,0.024C11.479,11.096,11.74,10.834,12,10.603z"/>
		<path opacity="0.3" fill="#669CCC" enable-background="new    " d="M10.422,17.288c-0.026-0.034-0.065-0.056-0.108-0.062
			c-0.601-0.083-1.169-0.209-1.685-0.375c-0.017-0.006-0.034-0.008-0.051-0.008c-0.031,0-0.063,0.009-0.09,0.027
			c-0.042,0.027-0.069,0.072-0.074,0.121l-0.004,0.03c-0.002,0.018-0.004,0.036-0.006,0.054c-0.099,1.137,0.17,1.976,0.737,2.304
			c0.185,0.107,0.4,0.161,0.638,0.161c0.519,0,1.138-0.25,1.791-0.724c0.04-0.029,0.065-0.075,0.068-0.124
			c0.003-0.05-0.017-0.098-0.054-0.131C11.185,18.196,10.793,17.768,10.422,17.288z M9.783,19.376c-0.21,0-0.397-0.046-0.556-0.139
			c-0.51-0.294-0.749-1.077-0.656-2.147c0.003-0.027,0.006-0.055,0.009-0.082c0.52,0.167,1.096,0.296,1.713,0.381
			c0.38,0.491,0.779,0.926,1.185,1.295C10.87,19.124,10.281,19.376,9.783,19.376z"/>
		<path opacity="0.3" fill="#669CCC" enable-background="new    " d="M12.899,17.588c0.044-0.05,0.054-0.121,0.025-0.181
			c-0.027-0.057-0.085-0.092-0.148-0.092c-0.004,0-0.007,0-0.01,0.001c-0.266,0.015-0.517,0.023-0.765,0.023
			c-0.249,0-0.5-0.008-0.765-0.023c-0.003-0.001-0.007-0.001-0.01-0.001c-0.062,0-0.12,0.036-0.148,0.092
			c-0.029,0.059-0.02,0.131,0.025,0.181c0.256,0.29,0.521,0.558,0.79,0.796c0.031,0.027,0.07,0.042,0.109,0.042
			c0.039,0,0.078-0.014,0.109-0.042C12.377,18.146,12.643,17.878,12.899,17.588z M12,18.261c-0.261-0.231-0.521-0.493-0.775-0.782
			c0.254,0.015,0.512,0.023,0.775,0.023s0.522-0.009,0.775-0.024C12.521,17.768,12.261,18.03,12,18.261z"/>
		<path opacity="0.3" fill="#669CCC" enable-background="new    " d="M8.486,11.995c0.027,0.018,0.058,0.027,0.09,0.027
			c0.017,0,0.034-0.003,0.051-0.008c0.518-0.167,1.085-0.293,1.688-0.375c0.042-0.006,0.082-0.028,0.108-0.062
			c0.371-0.48,0.763-0.908,1.165-1.273c0.037-0.034,0.056-0.082,0.054-0.131c-0.003-0.049-0.027-0.095-0.068-0.124
			c-0.653-0.473-1.272-0.724-1.791-0.724c-0.239,0-0.453,0.054-0.638,0.161c-0.581,0.336-0.848,1.206-0.732,2.388
			C8.417,11.922,8.444,11.967,8.486,11.995z M9.226,9.628c0.159-0.092,0.346-0.139,0.556-0.139c0.499,0,1.088,0.252,1.695,0.692
			c-0.406,0.369-0.805,0.804-1.185,1.295c-0.619,0.085-1.196,0.214-1.716,0.382C8.466,10.744,8.708,9.926,9.226,9.628z"/>
		<path opacity="0.3" fill="#669CCC" enable-background="new    " d="M14.246,16.801c0.01,0,0.022-0.001,0.032-0.003
			c0.383-0.075,0.752-0.173,1.096-0.289c0.078-0.026,0.125-0.107,0.108-0.188c-0.071-0.354-0.171-0.722-0.297-1.095
			c-0.022-0.062-0.078-0.107-0.145-0.111c-0.004-0.001-0.008-0.001-0.011-0.001c-0.062,0-0.119,0.035-0.147,0.091
			c-0.118,0.236-0.241,0.465-0.365,0.68c-0.13,0.225-0.267,0.446-0.408,0.66c-0.037,0.055-0.036,0.127,0.001,0.182
			C14.141,16.774,14.193,16.801,14.246,16.801z M14.66,15.968c0.133-0.23,0.255-0.459,0.37-0.689
			c0.124,0.366,0.222,0.726,0.292,1.075c-0.328,0.11-0.688,0.206-1.075,0.283C14.389,16.421,14.527,16.198,14.66,15.968z"/>
		<path opacity="0.3" fill="#669CCC" enable-background="new    " d="M8.738,14.37c-0.23-0.564-0.405-1.119-0.519-1.651
			c-0.01-0.049-0.042-0.09-0.087-0.112c-0.023-0.011-0.049-0.018-0.074-0.018c-0.023,0-0.046,0.005-0.068,0.014
			c-1.082,0.49-1.703,1.157-1.703,1.828c0,0.672,0.62,1.338,1.703,1.828c0.022,0.01,0.045,0.014,0.068,0.014
			c0.025,0,0.051-0.006,0.074-0.018c0.044-0.022,0.076-0.063,0.087-0.112c0.115-0.533,0.29-1.089,0.519-1.651
			C8.754,14.455,8.754,14.41,8.738,14.37z M8.059,16.111c-1.019-0.462-1.606-1.081-1.606-1.679c0-0.598,0.587-1.217,1.606-1.679
			c0.115,0.535,0.292,1.1,0.528,1.679C8.354,15.002,8.176,15.568,8.059,16.111z"/>
		<path opacity="0.3" fill="#669CCC" enable-background="new    " d="M15.588,17.023l-0.004-0.031
			c-0.005-0.05-0.032-0.094-0.074-0.121c-0.027-0.018-0.058-0.027-0.09-0.027c-0.017,0-0.034,0.003-0.051,0.008
			c-0.516,0.166-1.083,0.292-1.685,0.374c-0.042,0.006-0.082,0.028-0.108,0.062c-0.371,0.48-0.763,0.908-1.165,1.274
			c-0.037,0.034-0.056,0.082-0.054,0.131c0.003,0.05,0.027,0.095,0.068,0.124c0.652,0.473,1.272,0.724,1.791,0.724
			c0.239,0,0.454-0.054,0.638-0.161c0.567-0.328,0.837-1.167,0.737-2.304C15.592,17.058,15.59,17.04,15.588,17.023z M14.774,19.237
			c-0.159,0.092-0.347,0.139-0.556,0.139c-0.498,0-1.088-0.252-1.695-0.692c0.406-0.369,0.805-0.804,1.185-1.295
			c0.617-0.085,1.193-0.214,1.713-0.381c0.003,0.027,0.006,0.055,0.009,0.082C15.523,18.16,15.285,18.942,14.774,19.237z"/>
		<path opacity="0.3" fill="#669CCC" enable-background="new    " d="M15.378,12.356c-0.345-0.116-0.715-0.214-1.1-0.29
			c-0.01-0.002-0.022-0.003-0.031-0.003c-0.054,0-0.106,0.026-0.136,0.073c-0.037,0.055-0.037,0.126-0.001,0.182
			c0.142,0.215,0.279,0.437,0.408,0.661c0.125,0.217,0.249,0.447,0.368,0.685c0.028,0.056,0.085,0.091,0.147,0.091
			c0.004,0,0.008-0.001,0.011-0.001c0.066-0.005,0.123-0.048,0.145-0.111c0.126-0.372,0.227-0.742,0.299-1.099
			C15.503,12.463,15.457,12.383,15.378,12.356z M15.032,13.59c-0.116-0.232-0.24-0.464-0.372-0.694
			c-0.133-0.231-0.271-0.454-0.413-0.669c0.389,0.077,0.749,0.173,1.079,0.284C15.257,12.853,15.16,13.214,15.032,13.59z"/>
	</g>
</g>
</svg>
