<?xml version="1.0" encoding="utf-8"?>
<!-- Generator: Adobe Illustrator 17.0.0, SVG Export Plug-In . SVG Version: 6.00 Build 0)  -->
<!DOCTYPE svg PUBLIC "-//W3C//DTD SVG 1.1//EN" "http://www.w3.org/Graphics/SVG/1.1/DTD/svg11.dtd">
<svg version="1.1" id="图层_1" xmlns="http://www.w3.org/2000/svg" xmlns:xlink="http://www.w3.org/1999/xlink" x="0px" y="0px"
	 width="24px" height="24px" viewBox="0 0 24 24" enable-background="new 0 0 24 24" xml:space="preserve">
<path fill="#C4DCED" stroke="#9DBCD7" stroke-miterlimit="10" d="M22.942,20.079c0,1.595-1.293,2.888-2.888,2.888H3.896
	c-1.595,0-2.888-1.293-2.888-2.888V3.921c0-1.595,1.293-2.888,2.888-2.888h16.159c1.595,0,2.888,1.293,2.888,2.888L22.942,20.079
	L22.942,20.079z"/>
<path opacity="0.6" fill="none" stroke="#FFFFFF" stroke-miterlimit="10" enable-background="new    " d="M3.896,21.967
	c-1.041,0-1.888-0.847-1.888-1.888V3.921c0-1.041,0.847-1.888,1.888-1.888h16.159c1.041,0,1.888,0.847,1.888,1.888v16.158
	c-0.001,1.041-0.848,1.888-1.889,1.888C20.054,21.967,3.896,21.967,3.896,21.967z"/>
<path opacity="0.05" fill="none" stroke="#000000" stroke-width="0.3786" stroke-miterlimit="10" enable-background="new    " d="
	M23.02,7.276c0,0,0-0.97-0.958-0.97c-2.782,0-11.663,0.002-12.458,0.002c-0.966,0-0.958-0.956-0.958-0.956s0-0.963-0.958-0.963
	c-1.678,0-5.038,0-5.75,0c-0.943,0-0.958,0.928-0.958,0.957"/>
<linearGradient id="SVGID_1_" gradientUnits="userSpaceOnUse" x1="1381.974" y1="-1687.967" x2="1381.974" y2="-1669.882" gradientTransform="matrix(1 0 0 -1 -1370 -1665)">
	<stop  offset="0" style="stop-color:#D1E0ED"/>
	<stop  offset="1" style="stop-color:#E4EEFB"/>
</linearGradient>
<path fill="url(#SVGID_1_)" stroke="#9DBCD7" stroke-miterlimit="10" d="M3.889,22.967h16.219c1.595,0,2.833-1.326,2.833-2.92V7.098
	c0-0.227-0.34-0.441-0.792-0.441c-2.794,0-11.7,0.002-12.499,0.002c-0.97,0-0.956-0.885-0.956-0.885s0.007-0.892-0.956-0.892
	c-1.685,0-5.06,0-5.775,0c-0.948,0-0.956,0.786-0.956,0.815v14.35C1.008,21.641,2.295,22.967,3.889,22.967z"/>
<path opacity="0.8" fill="none" stroke="#FFFFFF" stroke-miterlimit="10" enable-background="new    " d="M3.889,21.967
	c-1.037,0-1.881-0.862-1.881-1.921V5.889l5.688-0.007c0.016,0.225,0.098,0.777,0.537,1.224C8.481,7.358,8.929,7.659,9.65,7.659
	l12.291-0.001v12.389c0,1.06-0.822,1.921-1.833,1.921L3.889,21.967L3.889,21.967z"/>
<g id="g27_1_">
	
		<linearGradient id="path36_2_" gradientUnits="userSpaceOnUse" x1="1784.3451" y1="-2484.1682" x2="1787.3922" y2="-2489.446" gradientTransform="matrix(1 0 0 -1 -1782 -2483)">
		<stop  offset="0" style="stop-color:#FFFFFF"/>
		<stop  offset="0.5" style="stop-color:#FFFFFF;stop-opacity:0.6"/>
		<stop  offset="1" style="stop-color:#FFFFFF;stop-opacity:0.15"/>
	</linearGradient>
	<path id="path36_1_" fill="url(#path36_2_)" d="M4.858,7.342c0.341-0.705,0.756-1.366,1.233-1.977L5.223,3.462
		C4.482,4.163,3.88,4.935,3.4,5.685L4.858,7.342z"/>
	
		<linearGradient id="path45_2_" gradientUnits="userSpaceOnUse" x1="1787.1091" y1="-2483.3772" x2="1789.1033" y2="-2486.8313" gradientTransform="matrix(1 0 0 -1 -1782 -2483)">
		<stop  offset="0" style="stop-color:#FFFFFF"/>
		<stop  offset="0.5" style="stop-color:#FFFFFF;stop-opacity:0.6"/>
		<stop  offset="1" style="stop-color:#FFFFFF;stop-opacity:0.15"/>
	</linearGradient>
	<path id="path45_1_" fill="url(#path45_2_)" d="M4.949,1.633l0.454,0.994C5.84,2.265,6.318,2.14,6.84,1.633H4.949z"/>
	
		<linearGradient id="path54_2_" gradientUnits="userSpaceOnUse" x1="1787.736" y1="-2482.7214" x2="1790.1725" y2="-2486.9417" gradientTransform="matrix(1 0 0 -1 -1782 -2483)">
		<stop  offset="0" style="stop-color:#FFFFFF"/>
		<stop  offset="0.5" style="stop-color:#FFFFFF;stop-opacity:0.6"/>
		<stop  offset="1" style="stop-color:#FFFFFF;stop-opacity:0.15"/>
	</linearGradient>
	<path id="path54_1_" fill="url(#path54_2_)" d="M8.353,1.633H7.994C7.089,2.14,6.298,2.527,5.619,3.105L6.451,4.93
		C7.162,4.109,7.986,3.39,8.91,2.809C8.917,2.803,8.922,2.797,8.93,2.79C9.964,1.897,8.936,1.633,8.353,1.633z"/>
	
		<linearGradient id="path63_2_" gradientUnits="userSpaceOnUse" x1="1782.6355" y1="-2486.5737" x2="1785.2798" y2="-2491.1538" gradientTransform="matrix(1 0 0 -1 -1782 -2483)">
		<stop  offset="0" style="stop-color:#FFFFFF"/>
		<stop  offset="0.5" style="stop-color:#FFFFFF;stop-opacity:0.6"/>
		<stop  offset="1" style="stop-color:#FFFFFF;stop-opacity:0.15"/>
	</linearGradient>
	<path id="path63_1_" fill="url(#path63_2_)" d="M3.124,6.138C2.567,7.086,2.204,7.961,1.988,8.56
		c0.256,0.365,0.678,0.604,1.157,0.604c0.593,0,1.1-0.366,1.31-0.884c0.054-0.145,0.119-0.284,0.179-0.426L3.124,6.138z"/>
	
		<linearGradient id="path72_2_" gradientUnits="userSpaceOnUse" x1="1782.5165" y1="-2486.7615" x2="1785.4468" y2="-2491.8372" gradientTransform="matrix(1 0 0 -1 -1782 -2483)">
		<stop  offset="0" style="stop-color:#FFFFFF"/>
		<stop  offset="0.5" style="stop-color:#FFFFFF;stop-opacity:0.6"/>
		<stop  offset="1" style="stop-color:#FFFFFF;stop-opacity:0.15"/>
	</linearGradient>
	<path id="path72_1_" fill="url(#path72_2_)" d="M1.742,4.566L1.731,7.748c0,0,0,0.001,0,0.002c0,0.02,0.005,0.039,0.006,0.058
		C1.979,7.219,2.317,6.5,2.775,5.74L1.742,4.566z"/>
	
		<linearGradient id="path149_2_" gradientUnits="userSpaceOnUse" x1="1784.7327" y1="-2485.1721" x2="1787.4844" y2="-2489.938" gradientTransform="matrix(1 0 0 -1 -1782 -2483)">
		<stop  offset="0" style="stop-color:#FFFFFF"/>
		<stop  offset="0.5" style="stop-color:#FFFFFF;stop-opacity:0.6"/>
		<stop  offset="1" style="stop-color:#FFFFFF;stop-opacity:0.15"/>
	</linearGradient>
	<path id="path149_1_" fill="url(#path149_2_)" d="M4.344,1.639C3.31,1.553,1.949,2.718,1.774,3.834l1.283,1.459
		c0.512-0.781,1.149-1.582,1.934-2.305L4.344,1.639z"/>
</g>
<g>
	<g opacity="0.3" enable-background="new    ">
		<g>
			<path fill="#FFFFFF" d="M12,21.094c-3.462,0-6.278-2.816-6.278-6.278S8.538,8.538,12,8.538s6.278,2.816,6.278,6.278
				S15.462,21.094,12,21.094z M12,9.323c-3.029,0-5.493,2.464-5.493,5.493S8.971,20.309,12,20.309s5.493-2.465,5.493-5.493
				C17.493,11.787,15.029,9.323,12,9.323z"/>
		</g>
		<g>
			<path fill="#669CCC" d="M12,20.714c-3.462,0-6.278-2.816-6.278-6.278S8.538,8.158,12,8.158s6.278,2.816,6.278,6.278
				S15.462,20.714,12,20.714z M12,8.943c-3.029,0-5.493,2.464-5.493,5.493S8.971,19.929,12,19.929s5.493-2.465,5.493-5.493
				C17.493,11.407,15.029,8.943,12,8.943z"/>
		</g>
	</g>
	<g>
		<path opacity="0.3" fill="#669CCC" enable-background="new    " d="M12,8.746c-3.137,0-5.69,2.552-5.69,5.69
			s2.553,5.689,5.69,5.689s5.69-2.553,5.69-5.69S15.137,8.746,12,8.746z M12,19.929c-3.029,0-5.493-2.465-5.493-5.493
			c0-3.029,2.464-5.493,5.493-5.493s5.493,2.464,5.493,5.493S15.029,19.929,12,19.929z"/>
		<path opacity="0.3" fill="#669CCC" enable-background="new    " d="M12,8.158c-3.462,0-6.278,2.816-6.278,6.278
			S8.538,20.714,12,20.714s6.278-2.816,6.278-6.278S15.462,8.158,12,8.158z M12,20.517c-3.353,0-6.081-2.728-6.081-6.081
			S8.646,8.355,12,8.355c3.353,0,6.081,2.728,6.081,6.081C18.081,17.789,15.353,20.517,12,20.517z"/>
	</g>
	<g>
		<g>
			<g>
				<g>
					<g>
						<g>
							<defs>
								<circle id="SVGID_7_" cx="12" cy="14.816" r="5.224"/>
							</defs>
							<clipPath id="SVGID_2_">
								<use xlink:href="#SVGID_7_"  overflow="visible"/>
							</clipPath>
							<path opacity="0.3" clip-path="url(#SVGID_2_)" fill="#FFFFFF" enable-background="new    " d="M10.516,9.731
								c0.205,0.274,0.014,0.734,0.323,0.729c0.15,0.213-0.3,0.064,0.025,0.228c0.188,0.147-0.198,0.232,0.034,0.363
								c-0.266,0.137,0.044,0.719,0.243,0.864c0.327,0.274,0.144-0.581,0.509-0.625c0.198-0.226,0.545-0.37,0.793-0.597
								c-0.242-0.019-0.382-0.169-0.154-0.262c0.421,0.43,0.105-0.204-0.127-0.303c0.225-0.072,0.445-0.019,0.413-0.205
								c0.238-0.174-0.229-0.23-0.395-0.191C11.624,9.731,11.07,9.731,10.516,9.731z M7.062,9.911
								c-0.304,0.087-0.326,0.812-0.02,0.409C7.118,10.155,7.464,9.955,7.062,9.911z M8.484,9.936
								C8.308,10.21,8.51,10.43,8.655,10.095C8.759,9.956,8.579,9.941,8.484,9.936z M8.923,9.998
								c-0.339,0.157-0.083,0.522-0.075,0.604c0.357,0.124,0.556-0.081,0.691,0.268c0.34,0.196-0.007,0.535-0.135,0.623
								c0.23-0.201,0.672,0.542,0.555,0.15c-0.138-0.1,0.371,0.162,0.108-0.165c-0.243-0.391,0.02-0.175,0.122-0.083
								c0.348-0.312-0.394-0.35-0.209-0.67c-0.162-0.132-0.376-0.53-0.663-0.452c-0.193,0.248-0.028-0.543-0.309-0.147
								c-0.015,0.221-0.006,0.501-0.088,0.119C8.864,10.178,9.014,10.022,8.923,9.998z M8.231,10.001
								c-0.227,0.075-0.215,0.382,0.065,0.415C8.392,10.307,8.334,10.021,8.231,10.001z M7.343,10.098
								c-0.295,0.07-0.175,0.308-0.084,0.375c-0.366,0.092,0.559,0.117,0.098,0.175c-0.382,0.153,0.369,0.333,0.493,0.152
								c0.472,0.116,0.017-0.377-0.024-0.645c-0.201-0.215-0.008,0.494-0.189,0.023C7.572,10.318,7.372,10.198,7.343,10.098z
								 M16.735,10.13c-0.397,0.154,0.247,0.74,0.087,0.207C16.806,10.273,16.858,10.103,16.735,10.13z M8.453,10.365
								c-0.285,0.267,0.362,0.488-0.082,0.687c-0.066-0.249-0.181,0.124-0.435-0.077c-0.437,0.181-0.66-0.095-1.026-0.284
								c-0.22-0.028-0.137,0.208-0.152,0.429c0,0.609,0,1.219,0,1.828c0.215,0.227,0.084,0.1,0,0.038
								c0.119,0.402-0.052,0.989,0.414,1.222c0.079,0.146,0.411,0.771,0.427,0.585c-0.167-0.174-0.338-0.696-0.056-0.231
								c0.253,0.442,0.593,0.729,1.091,0.835c0.272,0.092,0.496,0.41,0.735,0.34c0.135,0.356-0.402,0.698,0.018,1.03
								c0.219,0.336,0.586,0.557,0.387,1.028c-0.139,0.461-0.079,0.962-0.2,1.393c-0.038,0.261,0.365,0.924,0.33,0.394
								c0.117-0.369,0.114-0.776,0.391-1.036c0.378,0.003,0.072-0.407,0.448-0.352c0.229-0.3,0.296-0.657,0.683-0.777
								c0.046-0.364,0.644-0.922,0.026-1.063c-0.168-0.082-0.599-0.113-0.566-0.153c0.067-0.362-0.558-0.465-0.823-0.612
								c-0.349-0.247-0.874,0.411-0.997-0.156c-0.073-0.178-0.342-0.181-0.219-0.457c-0.222,0.221-0.657,0.153-0.543-0.272
								c0.173-0.359,0.837-0.376,0.95,0.056c-0.157-0.477,0.303-0.847,0.559-1.186c0.052-0.162,0.361-0.302,0.255-0.087
								c0.181-0.007,0.457-0.333,0.135-0.183c-0.005-0.298-0.282-0.213-0.373-0.171c0.167-0.265,1.024-0.12,0.665-0.553
								c-0.278-0.113-0.255-0.769-0.537-0.403c0.024-0.225-0.573-0.667-0.559-0.288c0.072,0.338,0.013,0.728-0.142,0.95
								c-0.033-0.496-0.879-0.386-0.771-0.914c0.157-0.252,0.342-0.6,0.359-0.568c0.282-0.108,0.51-0.421,0.183-0.627
								c-0.018,0.179-0.247,0.549-0.214,0.101C8.603,11.082,8.652,10.432,8.453,10.365z M15.218,10.538
								c-0.496,0.121-0.693,0.594-0.939,0.986c-0.362,0.163-0.348,0.863,0.056,0.639c0.108,0.189-0.076,0.486,0.24,0.24
								c0.254-0.336,0.045-0.879,0.477-1.091c0.031,0.164-0.399,0.78,0.104,0.678c0.455,0.018-0.331,0.045-0.109,0.335
								c-0.23-0.136-0.111,0.372-0.41,0.254c-0.26,0.142-0.431-0.066-0.37-0.292c-0.205,0.119,0.064,0.455-0.291,0.475
								c-0.079,0.282-0.734,0.24-0.362,0.526c0.165,0.427-0.615,0.026-0.394,0.539c0.19,0.506,0.586-0.168,0.748-0.298
								c0.311-0.24,0.772,0.41,0.491,0.435c0.313-0.042,0.249-0.34-0.002-0.455c-0.136-0.351,0.43,0.172,0.398,0.348
								c0.199,0.372,0.117-0.382,0.32-0.047c-0.024,0.352,0.816,0.083,0.415,0.532c-0.345,0.07-0.685-0.088-0.982,0.013
								c-0.276-0.003-0.263-0.297-0.363-0.371c-0.352,0.029-0.787,0.025-1.022,0.308c-0.254,0.348-0.622,0.836-0.344,1.281
								c0.278,0.66,0.966,0.034,1.362,0.424c0.117,0.162-0.101,0.355,0.161,0.532c0.099,0.375-0.113,0.731,0.131,1.089
								c0.125,0.337,0.204,0.841,0.672,0.533c0.495-0.297,0.363-0.846,0.772-1.149c-0.323-0.624,0.395-0.898,0.575-1.405
								c-0.392,0.057-0.741-0.333-0.836-0.725c-0.164-0.191-0.122-0.472,0.062-0.114c0.253,0.245,0.258,0.97,0.726,0.596
								c0.214-0.089,0.798-0.43,0.333-0.585c-0.3,0.217-0.63-0.648-0.19-0.146c0.32,0.136,0.544,0.216,0.544-0.233
								c0-1.211,0-2.437,0-3.656c-0.1,0.101-0.356,0.289-0.485,0.164c-0.222,0.031-0.516,0.463-0.446,0.045
								c-0.194-0.013-0.035,0.374-0.3,0.386c-0.026,0.199-0.268,0.037-0.178,0.226c-0.186-0.132-0.344-0.549,0.023-0.287
								c0.545-0.163-0.359-0.532-0.43-0.621C15.493,10.62,15.248,10.498,15.218,10.538z M12.835,11.237
								c-0.18,0.207-0.418-0.054-0.423,0.124c0.033,0.054,0.163,0.437,0.45,0.154C13.017,11.45,12.956,11.287,12.835,11.237z
								 M9.002,11.361c-0.341,0.297,0.58,0.325,0.072,0.034L9.002,11.361z M13.507,12.184c-0.246,0.16,0.117,0.5-0.006,0.66
								c-0.154,0.268,0.573-0.019,0.184-0.233C13.657,12.428,13.458,12.204,13.507,12.184z M13.341,12.507
								c-0.343,0.097-0.078,0.596,0.044,0.125C13.391,12.606,13.4,12.506,13.341,12.507z M10.598,12.868
								c-0.318,0.217-0.049,0.434,0.184,0.336C10.734,13.073,10.6,12.991,10.598,12.868z M16.618,13.233
								c0.159,0.08-0.291,0.217-0.007,0.358c0.166,0.195,0.103,0.613-0.167,0.317C16.495,13.578,16.079,13.33,16.618,13.233z
								 M15.8,13.236c-0.022,0.212,0.459,0.542-0.059,0.435c-0.274,0.032-0.684-0.008-0.339-0.349
								c0.109-0.066,0.395,0.226,0.247-0.047C15.701,13.272,15.75,13.252,15.8,13.236z M9.201,14.893
								c-0.034,0.113,0.632,0.226,0.173,0.046l-0.068-0.024L9.201,14.893z M16.468,16.929c-0.439,0.012-0.381,1.141-0.075,0.472
								C16.423,17.256,16.539,17.065,16.468,16.929z"/>
						</g>
					</g>
				</g>
			</g>
		</g>
		<g>
			<g>
				<g>
					<g>
						<g>
							<defs>
								<circle id="SVGID_9_" cx="12" cy="14.436" r="5.224"/>
							</defs>
							<clipPath id="SVGID_3_">
								<use xlink:href="#SVGID_9_"  overflow="visible"/>
							</clipPath>
							<path opacity="0.3" clip-path="url(#SVGID_3_)" fill="#669CCC" enable-background="new    " d="M10.516,9.351
								c0.205,0.274,0.014,0.734,0.323,0.729c0.15,0.213-0.3,0.064,0.025,0.228c0.188,0.147-0.198,0.232,0.034,0.363
								c-0.266,0.137,0.044,0.719,0.243,0.864c0.327,0.274,0.144-0.581,0.509-0.625c0.198-0.226,0.545-0.37,0.793-0.597
								c-0.242-0.019-0.382-0.169-0.154-0.262c0.421,0.43,0.105-0.204-0.127-0.303c0.225-0.072,0.445-0.019,0.413-0.205
								c0.238-0.174-0.229-0.23-0.395-0.191C11.624,9.351,11.07,9.351,10.516,9.351z M7.062,9.531
								c-0.304,0.087-0.326,0.812-0.02,0.409C7.118,9.775,7.464,9.575,7.062,9.531z M8.484,9.556C8.308,9.83,8.51,10.05,8.655,9.715
								C8.759,9.576,8.579,9.561,8.484,9.556z M8.923,9.618c-0.339,0.157-0.083,0.522-0.075,0.604
								c0.357,0.124,0.556-0.081,0.691,0.268c0.34,0.196-0.007,0.535-0.135,0.623c0.23-0.201,0.672,0.542,0.555,0.15
								c-0.138-0.1,0.371,0.162,0.108-0.165c-0.243-0.391,0.02-0.175,0.122-0.083c0.348-0.312-0.394-0.35-0.209-0.67
								c-0.162-0.132-0.376-0.53-0.663-0.452c-0.193,0.248-0.028-0.543-0.309-0.147c-0.015,0.221-0.006,0.501-0.088,0.119
								C8.864,9.798,9.014,9.642,8.923,9.618z M8.231,9.621c-0.227,0.075-0.215,0.382,0.065,0.415
								C8.392,9.927,8.334,9.641,8.231,9.621z M7.343,9.719c-0.295,0.07-0.175,0.308-0.084,0.375
								c-0.366,0.092,0.559,0.117,0.098,0.175c-0.382,0.153,0.369,0.333,0.493,0.152c0.472,0.116,0.017-0.377-0.024-0.645
								C7.624,9.561,7.817,10.27,7.636,9.799C7.572,9.938,7.372,9.819,7.343,9.719z M16.735,9.75
								c-0.397,0.154,0.247,0.74,0.087,0.207C16.806,9.894,16.858,9.724,16.735,9.75z M8.453,9.985
								c-0.285,0.267,0.362,0.488-0.082,0.687c-0.066-0.249-0.181,0.124-0.435-0.077c-0.437,0.181-0.66-0.095-1.026-0.284
								c-0.22-0.028-0.137,0.208-0.152,0.429c0,0.609,0,1.219,0,1.828c0.215,0.227,0.084,0.1,0,0.038
								c0.119,0.402-0.052,0.989,0.414,1.222C7.252,13.975,7.584,14.6,7.6,14.414c-0.167-0.174-0.338-0.696-0.056-0.231
								c0.253,0.442,0.593,0.729,1.091,0.835c0.272,0.092,0.496,0.41,0.735,0.34c0.135,0.356-0.402,0.698,0.018,1.03
								c0.219,0.336,0.586,0.557,0.387,1.028c-0.139,0.461-0.079,0.962-0.2,1.393c-0.038,0.261,0.365,0.924,0.33,0.394
								c0.117-0.369,0.114-0.776,0.391-1.036c0.378,0.003,0.072-0.407,0.448-0.352c0.229-0.3,0.296-0.657,0.683-0.777
								c0.046-0.364,0.644-0.922,0.026-1.063c-0.168-0.082-0.599-0.113-0.566-0.153c0.067-0.362-0.558-0.465-0.823-0.612
								c-0.349-0.248-0.874,0.411-0.997-0.156c-0.073-0.178-0.342-0.181-0.219-0.457c-0.222,0.221-0.657,0.153-0.543-0.272
								c0.173-0.359,0.837-0.376,0.95,0.056c-0.157-0.477,0.303-0.847,0.559-1.186c0.052-0.162,0.361-0.302,0.255-0.087
								c0.181-0.007,0.457-0.333,0.135-0.183c-0.005-0.298-0.282-0.213-0.373-0.171c0.167-0.265,1.024-0.12,0.665-0.553
								c-0.278-0.113-0.255-0.769-0.537-0.403c0.024-0.225-0.573-0.667-0.559-0.288c0.072,0.338,0.013,0.728-0.142,0.95
								c-0.033-0.496-0.879-0.386-0.771-0.914c0.157-0.252,0.342-0.6,0.359-0.568c0.282-0.108,0.51-0.421,0.183-0.627
								c-0.018,0.179-0.247,0.549-0.214,0.101C8.603,10.702,8.652,10.052,8.453,9.985z M15.218,10.159
								c-0.496,0.121-0.693,0.594-0.939,0.986c-0.362,0.163-0.348,0.863,0.056,0.639c0.108,0.189-0.076,0.486,0.24,0.24
								c0.254-0.336,0.045-0.879,0.477-1.091c0.031,0.164-0.399,0.78,0.104,0.678c0.455,0.018-0.331,0.045-0.109,0.335
								c-0.23-0.136-0.111,0.372-0.41,0.254c-0.259,0.142-0.43-0.066-0.37-0.292c-0.205,0.119,0.064,0.455-0.291,0.475
								c-0.079,0.282-0.734,0.24-0.362,0.526c0.165,0.427-0.615,0.026-0.394,0.539c0.19,0.506,0.586-0.168,0.748-0.298
								c0.311-0.24,0.772,0.41,0.491,0.435c0.313-0.042,0.249-0.34-0.002-0.455c-0.136-0.351,0.43,0.172,0.398,0.348
								c0.199,0.373,0.117-0.382,0.32-0.047c-0.024,0.352,0.816,0.083,0.415,0.532c-0.345,0.07-0.685-0.088-0.982,0.013
								c-0.276-0.003-0.263-0.297-0.363-0.371c-0.352,0.029-0.787,0.025-1.022,0.308c-0.254,0.348-0.622,0.836-0.344,1.281
								c0.278,0.66,0.966,0.034,1.362,0.424c0.117,0.162-0.101,0.355,0.161,0.532c0.099,0.375-0.113,0.731,0.131,1.089
								c0.125,0.337,0.204,0.841,0.672,0.533c0.495-0.297,0.363-0.846,0.772-1.149c-0.323-0.624,0.395-0.898,0.575-1.405
								c-0.392,0.057-0.741-0.333-0.836-0.725c-0.164-0.191-0.122-0.472,0.062-0.114c0.253,0.245,0.258,0.97,0.726,0.596
								c0.214-0.089,0.798-0.43,0.333-0.585c-0.3,0.217-0.63-0.648-0.19-0.146c0.32,0.136,0.544,0.216,0.544-0.233
								c0-1.211,0-2.437,0-3.656c-0.1,0.101-0.356,0.289-0.485,0.164c-0.222,0.031-0.516,0.463-0.446,0.045
								c-0.194-0.013-0.035,0.374-0.3,0.386c-0.026,0.199-0.268,0.037-0.178,0.226c-0.186-0.132-0.344-0.549,0.023-0.287
								c0.545-0.163-0.359-0.532-0.43-0.621C15.493,10.241,15.248,10.119,15.218,10.159z M12.835,10.857
								c-0.18,0.207-0.418-0.054-0.423,0.124c0.033,0.054,0.163,0.437,0.45,0.154C13.017,11.07,12.956,10.907,12.835,10.857z
								 M9.002,10.981c-0.341,0.297,0.58,0.325,0.072,0.034L9.002,10.981z M13.507,11.805c-0.246,0.16,0.117,0.5-0.006,0.66
								c-0.154,0.268,0.573-0.019,0.184-0.233C13.657,12.048,13.458,11.824,13.507,11.805z M13.341,12.127
								c-0.343,0.097-0.078,0.596,0.044,0.125C13.391,12.226,13.4,12.126,13.341,12.127z M10.598,12.489
								c-0.318,0.217-0.049,0.434,0.184,0.336C10.734,12.693,10.6,12.612,10.598,12.489z M16.618,12.853
								c0.159,0.08-0.291,0.217-0.007,0.358c0.166,0.195,0.103,0.613-0.167,0.317C16.495,13.198,16.079,12.951,16.618,12.853z
								 M15.8,12.856c-0.022,0.212,0.459,0.542-0.059,0.435c-0.274,0.032-0.684-0.008-0.339-0.349
								c0.109-0.066,0.395,0.226,0.247-0.047C15.701,12.892,15.75,12.872,15.8,12.856z M9.201,14.513
								c-0.034,0.113,0.632,0.226,0.173,0.046l-0.068-0.024L9.201,14.513z M16.468,16.549c-0.439,0.012-0.381,1.141-0.075,0.472
								C16.423,16.876,16.539,16.685,16.468,16.549z"/>
						</g>
					</g>
				</g>
			</g>
		</g>
	</g>
	<g>
		<g>
			<g>
				<g>
					<defs>
						<path id="SVGID_11_" d="M12,19.438c-2.758,0-5.002-2.244-5.002-5.002S9.242,9.434,12,9.434s5.002,2.244,5.002,5.002
							S14.758,19.438,12,19.438z"/>
					</defs>
					<clipPath id="SVGID_4_">
						<use xlink:href="#SVGID_11_"  overflow="visible"/>
					</clipPath>
					<g clip-path="url(#SVGID_4_)">
						<path opacity="0.3" fill="#669CCC" enable-background="new    " d="M10.782,12.825c-0.047-0.131-0.181-0.213-0.184-0.336
							C10.279,12.705,10.548,12.922,10.782,12.825z"/>
						<path opacity="0.3" fill="#669CCC" enable-background="new    " d="M8.296,10.036c0.095-0.109,0.038-0.395-0.065-0.415
							C8.004,9.696,8.016,10.003,8.296,10.036z"/>
						<path opacity="0.3" fill="#669CCC" enable-background="new    " d="M7.043,9.94c0.074-0.165,0.421-0.365,0.02-0.409
							C6.758,9.618,6.736,10.344,7.043,9.94z"/>
						<path opacity="0.3" fill="#669CCC" enable-background="new    " d="M7.259,10.093c-0.366,0.092,0.559,0.117,0.098,0.175
							c-0.382,0.153,0.369,0.333,0.493,0.152c0.472,0.116,0.017-0.377-0.024-0.645C7.624,9.56,7.817,10.269,7.636,9.798
							c-0.064,0.14-0.265,0.02-0.293-0.079C7.047,9.788,7.168,10.027,7.259,10.093z M7.715,10.186c0.013,0,0.025-0.001,0.038-0.003
							c0,0,0.01,0.019,0.015,0.03c-0.021,0.008-0.04,0.019-0.058,0.033c0-0.001,0-0.002,0-0.002c0.001-0.021-0.001-0.04-0.004-0.057
							C7.71,10.186,7.715,10.186,7.715,10.186z"/>
						<path opacity="0.3" fill="#669CCC" enable-background="new    " d="M9.539,10.49c0.34,0.196-0.007,0.535-0.135,0.623
							c0.23-0.201,0.672,0.542,0.555,0.15c-0.138-0.1,0.371,0.162,0.108-0.165c-0.243-0.391,0.02-0.175,0.122-0.083
							c0.348-0.312-0.394-0.35-0.209-0.67c-0.162-0.132-0.376-0.53-0.663-0.452c-0.193,0.248-0.028-0.543-0.309-0.147
							c-0.015,0.221-0.006,0.501-0.088,0.119C8.864,9.799,9.014,9.643,8.923,9.619c-0.339,0.157-0.083,0.522-0.075,0.604
							C9.205,10.346,9.404,10.141,9.539,10.49z"/>
						<path opacity="0.3" fill="#669CCC" enable-background="new    " d="M13.384,12.253c0.007-0.028,0.015-0.127-0.044-0.125
							C12.998,12.224,13.263,12.723,13.384,12.253z"/>
						<path opacity="0.3" fill="#669CCC" enable-background="new    " d="M9.002,10.981c-0.341,0.297,0.58,0.325,0.072,0.034
							L9.002,10.981z"/>
						<path opacity="0.3" fill="#669CCC" enable-background="new    " d="M8.655,9.715c0.104-0.139-0.077-0.154-0.171-0.159
							C8.309,9.831,8.51,10.051,8.655,9.715z"/>
						<path opacity="0.3" fill="#669CCC" enable-background="new    " d="M10.839,10.106c0.15,0.213-0.3,0.051,0.025,0.215
							c0.188,0.147-0.198,0.224,0.034,0.356c-0.266,0.137,0.044,0.715,0.243,0.861c0.327,0.274,0.144-0.583,0.509-0.627
							c0.198-0.226,0.545-0.371,0.793-0.598c-0.242-0.019-0.382-0.169-0.154-0.262c0.421,0.43,0.105-0.204-0.127-0.304
							c0.225-0.072,0.445,0.007,0.413-0.179c0.238-0.174-0.229-0.165-0.395-0.165c-0.554,0-1.108,0-1.661,0
							C10.721,9.783,10.53,10.111,10.839,10.106z M12.02,9.783c-0.048,0-0.079-0.007-0.082,0.057
							c-0.004,0.084,0.04,0.11,0.111,0.151c-0.109,0.104-0.103,0.198-0.097,0.241c0.008,0.053,0.03,0.089,0.065,0.132
							c-0.023,0.015-0.046,0.024-0.07,0.039c-0.145,0.094-0.293,0.186-0.414,0.307c-0.244,0.081-0.317,0.348-0.359,0.536
							c-0.088-0.126-0.167-0.311-0.157-0.388c0.063-0.04,0.102-0.109,0.104-0.184c0.001-0.041-0.009-0.081-0.029-0.115
							c0.031-0.051,0.057-0.119,0.047-0.203c-0.006-0.05-0.024-0.095-0.053-0.138c0.017-0.066,0.013-0.159-0.065-0.269
							c-0.036-0.051-0.092-0.084-0.153-0.092c-0.007-0.035-0.012,0.019-0.015-0.019c-0.005-0.049-0.01-0.058-0.02-0.058
							C10.833,9.783,12.02,9.783,12.02,9.783z"/>
						<path opacity="0.3" fill="#669CCC" enable-background="new    " d="M13.501,12.464c-0.154,0.268,0.573-0.019,0.184-0.233
							c-0.028-0.184-0.228-0.408-0.179-0.427C13.26,11.965,13.624,12.305,13.501,12.464z"/>
						<path opacity="0.3" fill="#669CCC" enable-background="new    " d="M16.394,17.021c0.029-0.145,0.145-0.336,0.075-0.472
							C16.029,16.56,16.088,17.689,16.394,17.021z"/>
						<path opacity="0.3" fill="#669CCC" enable-background="new    " d="M16.723,10.519c-0.222,0.031-0.523,0.463-0.453,0.045
							c-0.194-0.013-0.039,0.374-0.304,0.386c-0.026,0.199-0.27,0.037-0.179,0.226c-0.186-0.132-0.345-0.549,0.022-0.287
							c0.545-0.163-0.36-0.532-0.43-0.621c0.116-0.028-0.13-0.149-0.159-0.109c-0.496,0.121-0.693,0.594-0.939,0.986
							c-0.362,0.163-0.348,0.863,0.056,0.639c0.108,0.189-0.076,0.486,0.24,0.24c0.254-0.336,0.045-0.879,0.477-1.091
							c0.031,0.164-0.399,0.78,0.104,0.678c0.455,0.018-0.331,0.045-0.109,0.335c-0.23-0.136-0.111,0.372-0.41,0.254
							c-0.26,0.142-0.431-0.066-0.371-0.292c-0.205,0.119,0.064,0.455-0.291,0.475c-0.079,0.282-0.734,0.24-0.362,0.526
							c0.165,0.427-0.615,0.026-0.394,0.539c0.19,0.506,0.586-0.168,0.748-0.298c0.311-0.24,0.772,0.41,0.491,0.435
							c0.313-0.042,0.249-0.34-0.002-0.455c-0.136-0.351,0.43,0.172,0.398,0.348c0.199,0.372,0.117-0.382,0.32-0.047
							c-0.024,0.352,0.816,0.083,0.415,0.532c-0.345,0.07-0.685-0.088-0.982,0.013c-0.276-0.003-0.263-0.297-0.363-0.371
							c-0.352,0.029-0.787,0.025-1.022,0.308c-0.254,0.348-0.622,0.836-0.344,1.281c0.278,0.66,0.966,0.034,1.362,0.424
							c0.117,0.162-0.101,0.355,0.161,0.532c0.099,0.375-0.113,0.731,0.131,1.089c0.125,0.337,0.204,0.841,0.672,0.533
							c0.495-0.297,0.363-0.846,0.772-1.149c-0.323-0.624,0.395-0.898,0.575-1.405c-0.392,0.057-0.741-0.333-0.836-0.725
							c-0.164-0.191-0.122-0.472,0.062-0.114c0.253,0.245,0.258,0.97,0.726,0.596c0.214-0.089,0.798-0.43,0.333-0.585
							c-0.3,0.217-0.616-0.648-0.175-0.146c0.32,0.136,0.559,0.216,0.559-0.233c0-1.211,0-2.437,0-3.656
							C17.032,10.456,16.851,10.644,16.723,10.519z M13.436,13.389c-0.002-0.006-0.008-0.021-0.009-0.022
							c0.005-0.001,0.031-0.004,0.04-0.005C13.457,13.372,13.446,13.381,13.436,13.389z M16.195,15.384
							c-0.041,0.052-0.086,0.108-0.132,0.161c-0.211,0.242-0.493,0.565-0.348,1.015c-0.148,0.161-0.217,0.348-0.28,0.517
							c-0.08,0.214-0.143,0.346-0.34,0.465c-0.093,0.061-0.133,0.027-0.141,0.027H14.95c-0.051,0-0.12-0.195-0.153-0.296
							c-0.017-0.052-0.034-0.084-0.052-0.132c-0.007-0.017-0.014-0.024-0.025-0.038c-0.1-0.148-0.089-0.298-0.075-0.493
							c0.012-0.156,0.025-0.331-0.025-0.52c-0.014-0.052-0.046-0.097-0.092-0.127c-0.03-0.02-0.037-0.032-0.037-0.032
							c-0.004-0.01,0.002-0.051,0.004-0.076c0.01-0.087,0.028-0.232-0.072-0.368c-0.007-0.01-0.015-0.019-0.024-0.028
							c-0.139-0.137-0.317-0.203-0.545-0.203c-0.093,0-0.184,0.01-0.272,0.02c-0.077,0.009-0.151,0.017-0.217,0.017
							c-0.136,0-0.213-0.028-0.279-0.185c-0.004-0.011-0.01-0.022-0.017-0.031c-0.178-0.286,0.04-0.628,0.322-1.013l0.009-0.013
							c0.146-0.171,0.439-0.122,0.725-0.142c0.054,0.127,0.165,0.434,0.482,0.434c0.001,0,0.002,0,0.002,0
							c0.024,0,0.049-0.076,0.072-0.083c0.046-0.015,0.098-0.059,0.165-0.059c0.073,0,0.153,0.06,0.238,0.069
							c0.098,0.011,0.2,0.073,0.308,0.073c0.001,0,0.002,0,0.003,0c-0.019,0,0.036,0.207,0.117,0.32
							C15.61,14.995,15.86,15.257,16.195,15.384z M15.741,13.291c-0.274,0.032-0.684-0.008-0.339-0.349
							c0.109-0.066,0.395,0.226,0.247-0.047c0.053-0.003,0.101-0.023,0.152-0.039C15.778,13.068,16.259,13.398,15.741,13.291z
							 M17.032,14.01c0,0.054-0.035,0.089-0.04,0.112c-0.051-0.012-0.139-0.04-0.197-0.065c-0.13-0.14-0.231-0.196-0.332-0.196
							c-0.088,0-0.17,0.045-0.215,0.121c-0.055,0.096-0.044,0.22,0.036,0.359c0.037,0.064,0.163,0.257,0.37,0.298
							c-0.069,0.047-0.154,0.094-0.235,0.129c-0.019,0.008-0.038,0.019-0.054,0.031c-0.037,0.03-0.063,0.044-0.077,0.05
							c-0.034-0.042-0.082-0.153-0.111-0.222c-0.055-0.129-0.117-0.274-0.216-0.383c-0.041-0.076-0.089-0.149-0.15-0.2
							c0.066-0.085,0.145-0.222,0.095-0.369c-0.023-0.069-0.065-0.117-0.115-0.152c0.04,0.006,0.074,0.008,0.105,0.008
							c0.171,0,0.245-0.089,0.274-0.143c0.01-0.018,0.017-0.036,0.023-0.054c0.021,0.057,0.036,0.111,0.029,0.157
							c-0.01,0.066,0.01,0.133,0.056,0.183c0.108,0.118,0.215,0.175,0.327,0.175c0.121,0,0.226-0.069,0.279-0.185
							c0.077-0.167,0.038-0.416-0.087-0.581c0.045-0.055,0.09-0.133,0.074-0.235c-0.008-0.049-0.039-0.141-0.154-0.199
							c-0.031-0.016-0.066-0.024-0.1-0.024c-0.013,0-0.026,0.001-0.04,0.004c-0.149,0.027-0.331,0.078-0.418,0.233
							c-0.03,0.054-0.042,0.108-0.044,0.159c-0.007-0.012-0.015-0.023-0.022-0.034c-0.023-0.035-0.063-0.098-0.072-0.127
							c0.003-0.071-0.028-0.138-0.082-0.183c-0.04-0.033-0.09-0.05-0.141-0.05c-0.023,0-0.046,0.003-0.067,0.01l-0.034,0.011
							c-0.024,0.008-0.05,0.017-0.062,0.018c-0.045,0.002-0.087,0.018-0.122,0.044c-0.024-0.005-0.048-0.008-0.073-0.008
							c-0.056,0-0.109,0.014-0.154,0.041c-0.015,0.009-0.03,0.02-0.042,0.033c-0.119,0.118-0.185,0.232-0.196,0.34
							c-0.035,0.005-0.064,0.017-0.089,0.031c-0.018-0.025-0.038-0.05-0.06-0.076c-0.111-0.132-0.276-0.29-0.435-0.29
							c-0.082,0-0.158,0.04-0.205,0.106c-0.046-0.013-0.092-0.02-0.139-0.02c-0.095,0-0.186,0.029-0.265,0.083
							c-0.006-0.041-0.017-0.083-0.034-0.128c-0.003-0.008-0.007-0.016-0.011-0.024c0.101-0.046,0.227-0.11,0.309-0.221
							c0.1-0.029,0.164-0.081,0.205-0.141c0.047,0.017,0.097,0.026,0.149,0.026c0.06,0,0.12-0.012,0.18-0.034
							c0.022,0.004,0.042,0.006,0.063,0.006c0.218,0,0.307-0.17,0.349-0.274c0.055-0.006,0.106-0.03,0.145-0.073
							c0.051-0.058,0.068-0.135,0.049-0.206c0.023-0.009,0.046-0.018,0.058-0.023c0.153-0.056,0.221-0.191,0.201-0.315
							c-0.03-0.191-0.218-0.247-0.356-0.247c-0.003,0-0.01,0-0.01,0c0.014,0,0.034-0.056,0.047-0.092
							c0.049-0.135,0.092-0.231,0.071-0.341c-0.013-0.068-0.057-0.116-0.119-0.147c-0.031-0.015-0.066-0.018-0.1-0.018
							c-0.034,0-0.067,0.01-0.098,0.025c-0.358,0.175-0.405,0.506-0.443,0.771c-0.006,0.042-0.012,0.084-0.019,0.124
							c-0.042-0.042-0.099-0.064-0.157-0.064c-0.031,0-0.063,0.007-0.093,0.021c0.001-0.026,0.005-0.059,0.018-0.096
							c0.023-0.066,0.063-0.116,0.111-0.138c0.04-0.018,0.074-0.047,0.097-0.084c0.041-0.065,0.08-0.132,0.12-0.199
							c0.177-0.301,0.331-0.565,0.609-0.667c0.002,0.003,0.004,0.006,0.006,0.008c0.044,0.055,0.11,0.093,0.229,0.162
							c0.02,0.012,0.046,0.026,0.073,0.043c-0.061,0.031-0.108,0.085-0.13,0.154c-0.063,0.2,0.12,0.479,0.28,0.592
							c0.039,0.028,0.083,0.041,0.129,0.041c0.051,0,0.103-0.018,0.144-0.053c0.031-0.026,0.054-0.06,0.067-0.097
							c0.06-0.029,0.101-0.067,0.131-0.11c0.085-0.038,0.139-0.103,0.174-0.17c0.105-0.003,0.191-0.065,0.282-0.131
							c0.028-0.02,0.072-0.052,0.108-0.073c0.04,0.013,0.113,0.02,0.157,0.02c0.052,0-0.004-0.01,0.185-0.026v3.253h0.001
							C17.032,14.009,17.032,14.01,17.032,14.01z M16.611,13.211c0.166,0.195,0.103,0.613-0.167,0.317
							c0.05-0.33-0.366-0.577,0.173-0.675C16.777,12.933,16.327,13.07,16.611,13.211z"/>
						<path opacity="0.3" fill="#669CCC" enable-background="new    " d="M16.822,9.957c-0.015-0.064,0.036-0.234-0.087-0.207
							C16.339,9.905,16.982,10.489,16.822,9.957z"/>
						<path opacity="0.3" fill="#669CCC" enable-background="new    " d="M11.453,15.972c-0.168-0.082-0.599-0.113-0.566-0.153
							c0.067-0.362-0.558-0.465-0.823-0.612c-0.349-0.248-0.874,0.411-0.997-0.156c-0.073-0.178-0.342-0.181-0.219-0.457
							c-0.222,0.221-0.657,0.153-0.543-0.272c0.173-0.359,0.837-0.376,0.95,0.056c-0.157-0.477,0.303-0.847,0.559-1.186
							c0.052-0.162,0.362-0.301,0.255-0.085c0.181-0.007,0.457-0.333,0.135-0.183c-0.005-0.298-0.282-0.213-0.373-0.171
							c0.167-0.265,1.024-0.12,0.665-0.553c-0.278-0.113-0.255-0.769-0.537-0.403c0.024-0.225-0.573-0.667-0.559-0.288
							c0.072,0.338,0.013,0.728-0.142,0.95c-0.033-0.496-0.879-0.386-0.771-0.914c0.157-0.252,0.342-0.6,0.359-0.568
							c0.282-0.108,0.51-0.421,0.183-0.627c-0.018,0.179-0.247,0.549-0.214,0.101c-0.212,0.251-0.163-0.399-0.362-0.466
							c-0.285,0.267,0.362,0.488-0.082,0.687c-0.066-0.249-0.181,0.124-0.435-0.077c-0.437,0.181-0.746-0.095-1.111-0.284
							c-0.22-0.028-0.237,0.208-0.237,0.429c0,0.609,0,1.219,0,1.828c0.38,0.227,0.169,0.1,0.085,0.038
							c0.119,0.402-0.009,0.989,0.457,1.222c0.079,0.146,0.433,0.771,0.448,0.585c-0.167-0.174-0.327-0.696-0.045-0.231
							c0.253,0.442,0.598,0.729,1.096,0.835c0.272,0.092,0.499,0.41,0.737,0.34c0.135,0.356-0.4,0.698,0.019,1.03
							c0.219,0.336,0.586,0.557,0.388,1.028c-0.139,0.461-0.079,0.962-0.2,1.393c-0.038,0.261,0.365,0.924,0.33,0.394
							c0.117-0.369,0.114-0.776,0.391-1.036c0.378,0.003,0.072-0.407,0.448-0.352c0.229-0.3,0.296-0.657,0.683-0.777
							C11.473,16.672,12.07,16.115,11.453,15.972z M8.104,14.226c-0.006,0.013-0.011,0.026-0.015,0.04
							c-0.023,0.086-0.03,0.161-0.025,0.227c-0.122-0.111-0.231-0.25-0.327-0.419c-0.115-0.189-0.192-0.301-0.336-0.301
							c-0.002,0-0.004,0-0.006,0c-0.004,0-0.026-0.049-0.026-0.049c-0.022-0.04-0.055-0.072-0.096-0.093
							c-0.195-0.098-0.217-0.3-0.237-0.621c-0.003-0.048-0.006-0.097-0.01-0.146c0.023-0.022,0.035-0.047,0.048-0.077
							c0.051-0.119-0.106-0.189-0.106-0.305v-1.733c0-0.048,0.009-0.094,0.008-0.137c0.015,0.009,0.034,0.019,0.048,0.028
							c0.188,0.117,0.383,0.239,0.64,0.239c0.082,0,0.164-0.012,0.248-0.037c0.058,0.026,0.119,0.04,0.179,0.04
							c0.058,0,0.109-0.012,0.151-0.028c0.011,0.008,0.023,0.014,0.035,0.02c0.03,0.014,0.063,0.022,0.096,0.022
							c0.031,0,0.062-0.007,0.091-0.02c0.035-0.015,0.111-0.05,0.178-0.114c0.009,0.016,0.02,0.031,0.034,0.045
							c0.003,0.003,0.006,0.007,0.009,0.009c-0.058,0.058-0.119,0.162-0.223,0.341c-0.052,0.088-0.108,0.185-0.161,0.27
							c-0.014,0.023-0.024,0.047-0.029,0.073c-0.092,0.445,0.267,0.622,0.481,0.728c0.194,0.095,0.279,0.148,0.285,0.245
							c0.007,0.094,0.071,0.174,0.162,0.2c0.02,0.006,0.04,0.008,0.06,0.008c0.072,0,0.141-0.035,0.183-0.095
							c0.157-0.224,0.233-0.569,0.208-0.905c0.041,0.039,0.077,0.081,0.088,0.111c-0.003,0.093,0.053,0.178,0.14,0.213
							c0.027,0.011,0.055,0.016,0.083,0.016c0.036,0,0.072-0.009,0.104-0.026c0.049,0.108,0.111,0.242,0.221,0.335
							c-0.033,0.008-0.067,0.017-0.096,0.023c-0.202,0.046-0.431,0.099-0.547,0.282c-0.053,0.084-0.044,0.192,0.022,0.266
							c0.015,0.017,0.032,0.031,0.05,0.042c-0.039,0.042-0.072,0.088-0.094,0.137c-0.043,0.055-0.093,0.113-0.145,0.173
							c-0.154,0.178-0.33,0.383-0.418,0.622c-0.082-0.029-0.173-0.045-0.269-0.045C8.488,13.831,8.219,13.986,8.104,14.226z
							 M11.378,16.557c-0.053,0.103-0.107,0.208-0.141,0.314c-0.268,0.126-0.397,0.352-0.511,0.554
							c-0.032,0.056-0.063,0.11-0.097,0.162c-0.178,0.019-0.288,0.133-0.328,0.343c-0.001,0.004-0.002,0.008-0.002,0.012
							c-0.057,0-0.115,0.022-0.156,0.061c-0.142,0.134-0.224,0.295-0.28,0.46c0.01-0.098,0.018-0.196,0.025-0.293
							c0.018-0.24,0.034-0.466,0.097-0.68c0.194-0.476-0.054-0.777-0.253-1.018c-0.058-0.07-0.113-0.136-0.158-0.206
							c-0.013-0.02-0.03-0.038-0.049-0.053c-0.103-0.081-0.104-0.113-0.013-0.333c0.052-0.126,0.113-0.275,0.101-0.441
							c0.004-0.002,0.008-0.003,0.013-0.004c0.088-0.031,0.179-0.063,0.246-0.063c0.034,0,0.051,0.009,0.063,0.017
							c0.007,0.005,0.014,0.009,0.02,0.013c0.083,0.046,0.183,0.084,0.288,0.124c0.153,0.058,0.437,0.166,0.425,0.251
							c-0.009,0.042-0.007,0.087,0.008,0.126c0.05,0.136,0.17,0.158,0.368,0.194c0.1,0.018,0.252,0.046,0.31,0.075
							c0.015,0.008,0.031,0.013,0.048,0.017c0.085,0.02,0.108,0.043,0.108,0.043C11.52,16.281,11.428,16.46,11.378,16.557z"/>
						<path opacity="0.3" fill="#669CCC" enable-background="new    " d="M9.306,14.535l-0.104-0.022
							c-0.034,0.113,0.632,0.226,0.173,0.046L9.306,14.535z"/>
						<path opacity="0.3" fill="#669CCC" enable-background="new    " d="M12.835,10.857c-0.18,0.207-0.418-0.054-0.423,0.124
							c0.033,0.054,0.163,0.437,0.45,0.154C13.017,11.07,12.956,10.907,12.835,10.857z"/>
					</g>
				</g>
			</g>
		</g>
	</g>
</g>
</svg>
