<?xml version="1.0" encoding="utf-8"?>
<!-- Generator: Adobe Illustrator 17.0.0, SVG Export Plug-In . SVG Version: 6.00 Build 0)  -->
<!DOCTYPE svg PUBLIC "-//W3C//DTD SVG 1.1//EN" "http://www.w3.org/Graphics/SVG/1.1/DTD/svg11.dtd">
<svg version="1.1" id="图层_1" xmlns="http://www.w3.org/2000/svg" xmlns:xlink="http://www.w3.org/1999/xlink" x="0px" y="0px"
	 width="24px" height="24px" viewBox="0 0 24 24" enable-background="new 0 0 24 24" xml:space="preserve">
<path fill="#C4DCED" stroke="#9DBCD7" stroke-miterlimit="10" d="M22.942,20.079c0,1.595-1.293,2.888-2.888,2.888H3.896
	c-1.595,0-2.888-1.293-2.888-2.888V3.921c0-1.595,1.293-2.888,2.888-2.888h16.159c1.595,0,2.888,1.293,2.888,2.888L22.942,20.079
	L22.942,20.079z"/>
<path opacity="0.6" fill="none" stroke="#FFFFFF" stroke-miterlimit="10" enable-background="new    " d="M3.896,21.967
	c-1.041,0-1.888-0.847-1.888-1.888V3.921c0-1.041,0.847-1.888,1.888-1.888h16.159c1.041,0,1.888,0.847,1.888,1.888v16.158
	c-0.001,1.041-0.848,1.888-1.889,1.888C20.054,21.967,3.896,21.967,3.896,21.967z"/>
<g id="g27_1_">
	
		<linearGradient id="path36_2_" gradientUnits="userSpaceOnUse" x1="1784.101" y1="-2484.0063" x2="1787.1482" y2="-2489.2842" gradientTransform="matrix(1 0 0 -1 -1782 -2483)">
		<stop  offset="0" style="stop-color:#FFFFFF"/>
		<stop  offset="0.5" style="stop-color:#FFFFFF;stop-opacity:0.6"/>
		<stop  offset="1" style="stop-color:#FFFFFF;stop-opacity:0.15"/>
	</linearGradient>
	<path id="path36_1_" fill="url(#path36_2_)" d="M4.614,7.181C4.955,6.476,5.37,5.815,5.847,5.204L4.979,3.301
		C4.238,4.002,3.636,4.774,3.156,5.524L4.614,7.181z"/>
	
		<linearGradient id="path45_2_" gradientUnits="userSpaceOnUse" x1="1786.8644" y1="-2483.2158" x2="1788.8585" y2="-2486.6699" gradientTransform="matrix(1 0 0 -1 -1782 -2483)">
		<stop  offset="0" style="stop-color:#FFFFFF"/>
		<stop  offset="0.5" style="stop-color:#FFFFFF;stop-opacity:0.6"/>
		<stop  offset="1" style="stop-color:#FFFFFF;stop-opacity:0.15"/>
	</linearGradient>
	<path id="path45_1_" fill="url(#path45_2_)" d="M4.704,1.472l0.454,0.994c0.437-0.362,0.915-0.487,1.437-0.994H4.704z"/>
	
		<linearGradient id="path54_2_" gradientUnits="userSpaceOnUse" x1="1787.4919" y1="-2482.5596" x2="1789.9285" y2="-2486.78" gradientTransform="matrix(1 0 0 -1 -1782 -2483)">
		<stop  offset="0" style="stop-color:#FFFFFF"/>
		<stop  offset="0.5" style="stop-color:#FFFFFF;stop-opacity:0.6"/>
		<stop  offset="1" style="stop-color:#FFFFFF;stop-opacity:0.15"/>
	</linearGradient>
	<path id="path54_1_" fill="url(#path54_2_)" d="M8.109,1.472H7.75C6.845,1.979,6.054,2.366,5.375,2.944l0.832,1.825
		c0.711-0.821,1.535-1.54,2.459-2.121c0.007-0.006,0.012-0.012,0.02-0.019C9.719,1.735,8.692,1.472,8.109,1.472z"/>
	
		<linearGradient id="path63_2_" gradientUnits="userSpaceOnUse" x1="1782.3921" y1="-2486.4119" x2="1785.0363" y2="-2490.9917" gradientTransform="matrix(1 0 0 -1 -1782 -2483)">
		<stop  offset="0" style="stop-color:#FFFFFF"/>
		<stop  offset="0.5" style="stop-color:#FFFFFF;stop-opacity:0.6"/>
		<stop  offset="1" style="stop-color:#FFFFFF;stop-opacity:0.15"/>
	</linearGradient>
	<path id="path63_1_" fill="url(#path63_2_)" d="M2.88,5.976C2.323,6.924,1.96,7.799,1.744,8.398C2,8.763,2.422,9.002,2.901,9.002
		c0.593,0,1.1-0.366,1.31-0.884C4.265,7.973,4.33,7.834,4.39,7.692L2.88,5.976z"/>
	
		<linearGradient id="path72_2_" gradientUnits="userSpaceOnUse" x1="1782.2728" y1="-2486.5994" x2="1785.2032" y2="-2491.6753" gradientTransform="matrix(1 0 0 -1 -1782 -2483)">
		<stop  offset="0" style="stop-color:#FFFFFF"/>
		<stop  offset="0.5" style="stop-color:#FFFFFF;stop-opacity:0.6"/>
		<stop  offset="1" style="stop-color:#FFFFFF;stop-opacity:0.15"/>
	</linearGradient>
	<path id="path72_1_" fill="url(#path72_2_)" d="M1.498,4.404L1.487,7.586c0,0,0,0.001,0,0.002c0,0.02,0.005,0.039,0.006,0.058
		c0.242-0.589,0.58-1.308,1.038-2.068L1.498,4.404z"/>
	
		<linearGradient id="path149_2_" gradientUnits="userSpaceOnUse" x1="1784.4886" y1="-2485.0103" x2="1787.2404" y2="-2489.7761" gradientTransform="matrix(1 0 0 -1 -1782 -2483)">
		<stop  offset="0" style="stop-color:#FFFFFF"/>
		<stop  offset="0.5" style="stop-color:#FFFFFF;stop-opacity:0.6"/>
		<stop  offset="1" style="stop-color:#FFFFFF;stop-opacity:0.15"/>
	</linearGradient>
	<path id="path149_1_" fill="url(#path149_2_)" d="M4.1,1.478C3.066,1.392,1.705,2.557,1.53,3.673l1.283,1.459
		C3.325,4.351,3.962,3.55,4.747,2.827L4.1,1.478z"/>
</g>
<g>
	<g>
		
			<rect x="4.984" y="4.08" transform="matrix(-0.9291 0.3699 -0.3699 -0.9291 20.12 12.1279)" opacity="0.5" fill="#669CCC" enable-background="new    " width="7.827" height="7.827"/>
		
			<rect x="5.071" y="3.877" transform="matrix(-0.9291 0.3699 -0.3699 -0.9291 20.2135 11.7041)" opacity="0.2" fill="#669CCC" enable-background="new    " width="7.827" height="7.827"/>
		
			<rect x="5.159" y="3.673" transform="matrix(-0.9291 0.3699 -0.3699 -0.9291 20.3076 11.2788)" opacity="0.1" fill="#669CCC" enable-background="new    " width="7.827" height="7.827"/>
	</g>
	
		<rect x="4.949" y="4.258" transform="matrix(-0.9291 0.3699 -0.3699 -0.9291 19.6752 11.3959)" fill="#FFFFFF" width="7.592" height="6.653"/>
</g>
<g>
	<g>
		
			<rect x="10.235" y="4.265" transform="matrix(-1 0.0012 -0.0012 -1 28.6981 16.7316)" opacity="0.5" fill="#669CCC" enable-background="new    " width="8.218" height="8.218"/>
		
			<rect x="10.399" y="4.101" transform="matrix(-1 0.0012 -0.0012 -1 29.0266 16.4017)" opacity="0.2" fill="#669CCC" enable-background="new    " width="8.218" height="8.218"/>
		
			<rect x="10.564" y="3.936" transform="matrix(-1 0.0012 -0.0012 -1 29.355 16.0729)" opacity="0.1" fill="#669CCC" enable-background="new    " width="8.218" height="8.218"/>
	</g>
	
		<rect x="10.399" y="4.426" transform="matrix(-1 0.0012 -0.0012 -1 28.7795 15.8196)" fill="#FFFFFF" width="7.971" height="6.985"/>
</g>
<g>
	<path opacity="0.05" fill="none" stroke="#000000" stroke-miterlimit="10" enable-background="new    " d="M23.02,9.276
		c0,0,0-0.97-0.958-0.97c-2.782,0-11.663,0.002-12.458,0.002c-0.966,0-0.958-0.956-0.958-0.956s0-0.963-0.958-0.963
		c-1.678,0-5.038,0-5.75,0c-0.943,0-0.958,0.928-0.958,0.957"/>
	
		<linearGradient id="SVGID_1_" gradientUnits="userSpaceOnUse" x1="1381.974" y1="-1687.967" x2="1381.974" y2="-1672.3831" gradientTransform="matrix(1 0 0 -1 -1370 -1665)">
		<stop  offset="0" style="stop-color:#D1E0ED"/>
		<stop  offset="1" style="stop-color:#E4EEFB"/>
	</linearGradient>
	<path fill="url(#SVGID_1_)" stroke="#9DBCD7" stroke-miterlimit="10" d="M3.889,22.967h16.219c1.595,0,2.833-1.326,2.833-2.92
		V9.599c0-0.227-0.34-0.441-0.792-0.441c-2.794,0-11.7,0.002-12.499,0.002c-0.97,0-0.956-0.885-0.956-0.885s0.007-0.892-0.956-0.892
		c-1.685,0-5.06,0-5.775,0c-0.948,0-0.956,0.786-0.956,0.815v11.85C1.008,21.641,2.295,22.967,3.889,22.967z"/>
	<path opacity="0.8" fill="none" stroke="#FFFFFF" stroke-miterlimit="10" enable-background="new    " d="M3.889,21.967
		c-1.037,0-1.881-0.862-1.881-1.921V8.389l5.688-0.007c0.016,0.225,0.098,0.777,0.537,1.224c0.248,0.252,0.696,0.553,1.417,0.553
		l12.291-0.001v9.889c0,1.06-0.822,1.921-1.833,1.921H3.889V21.967z"/>
</g>
<g>
	<path opacity="0.1" fill="#FFFFFF" enable-background="new    " d="M8.793,20.253c-0.949,0-1.721-0.772-1.721-1.721v-6.364
		c0-0.949,0.772-1.721,1.721-1.721h6.364c0.949,0,1.721,0.772,1.721,1.721v6.366c0,0.949-0.772,1.721-1.721,1.721H8.793V20.253z
		 M15.158,19.246c0.393,0,0.713-0.32,0.713-0.713v-6.149l-0.298,0.054c-0.021,0.004-0.52,0.092-1.121,0.092
		c-0.063,0-0.126-0.001-0.19-0.002c0.006,0-0.663,0.035-1.203,0.2c0.07,0.024,0.112,0.054,0.144,0.099
		c0.009,0.011,0.019,0.034,0.032,0.068l0.064-0.055c2.26,1.967,0.847,4.044,0.833,4.064c-0.722,1.013-1.835,1.816-2.718,2.344
		H15.158L15.158,19.246z M8.079,16.643c0.328,0.127,0.954,0.325,1.713,0.338l0.253,0.005c0.184,0.004,0.361,0.008,0.534,0.008
		c0.829,0,1.445-0.095,2.14-0.583c0.884-0.62,0.785-1.607,0.78-1.649c-0.003-0.173-0.03-0.346-0.068-0.51
		c-0.001,0.245-0.023,0.497-0.08,0.738c-0.006,0.038-0.23,1.186-1.317,1.462c-0.166,0.041-0.335,0.063-0.501,0.063
		c-0.668,0-1.303-0.332-1.94-1.016c-0.5-0.537-1.219-2.007-1.391-3.727c-0.079,0.115-0.123,0.252-0.123,0.395L8.079,16.643
		L8.079,16.643L8.079,16.643z M11.417,15.513c0.003,0,0.08,0.026,0.188,0.026c0.332,0,0.623-0.238,0.842-0.69
		c0.009-0.015,0.181-0.33,0.222-0.997c-0.085,0.446-0.259,0.957-0.604,1.317c-0.022,0.025-0.282,0.305-0.592,0.305
		c-0.053,0-0.11-0.008-0.168-0.027C11.34,15.471,11.378,15.494,11.417,15.513L11.417,15.513z M11.362,11.454
		c-0.203,0.377-0.701,1.422-0.665,2.534c0,0.016-0.01,0.503,0.193,0.943c-0.021-0.066-0.039-0.139-0.057-0.221
		c-0.01-0.035-0.268-1.145,1.108-2.428c0.023-0.023,0.463-0.459,0.885-0.828L11.362,11.454L11.362,11.454z"/>
	<path opacity="0.3" fill="#669CCC" enable-background="new    " d="M15.158,10.669H8.793c-0.827,0-1.498,0.67-1.498,1.498v6.365
		c0,0.827,0.671,1.498,1.498,1.498h6.364c0.828,0,1.498-0.67,1.498-1.498v-6.365C16.656,11.34,15.986,10.669,15.158,10.669z
		 M16.094,18.532c0,0.516-0.419,0.937-0.936,0.937h-4.601c0.8-0.415,2.453-1.377,3.392-2.696c0,0,1.338-1.908-0.796-3.767
		c0,0,0.55,0.862,0.568,1.732c0,0,0.137,1.15-0.875,1.857c-1.01,0.708-1.894,0.631-3.058,0.61c-0.931-0.016-1.672-0.298-1.932-0.412
		v-4.625c0-0.372,0.22-0.692,0.536-0.843c0.08,1.875,0.865,3.487,1.364,4.023c0.51,0.549,1.262,1.131,2.224,0.889
		c0.961-0.243,1.154-1.297,1.154-1.297c0.21-0.898-0.094-1.963-0.11-1.986c-0.016-0.022-0.161-0.047-0.161-0.047
		c0.153,1.413-0.214,2.039-0.214,2.039c-0.537,1.109-1.329,0.767-1.329,0.767c-0.882-0.449-0.843-1.718-0.843-1.718
		c-0.044-1.322,0.631-2.547,0.757-2.764h2.228c-0.458,0.311-1.366,1.215-1.366,1.215c-1.295,1.207-1.041,2.223-1.041,2.223
		c0.209,1.065,0.85,0.347,0.85,0.347c0.675-0.702,0.623-2.098,0.623-2.098c-0.275,0.045-0.447,0.197-0.447,0.197
		c-0.032,0.931-0.578,1.509-0.578,1.509c-0.213,0.236-0.364,0.011-0.364,0.011c-0.112-0.169,0.111-0.285,0.111-0.285
		c0.312-0.276,0.406-0.744,0.4-0.92c-0.004-0.176,0.089-0.224,0.089-0.224c0.441-0.343,0.883-0.545,0.883-0.545
		c0.592-0.304,1.649-0.355,1.649-0.355c0.666,0.022,1.264-0.085,1.264-0.085l0.555-0.101c0,0.017,0.004,0.033,0.004,0.05
		L16.094,18.532L16.094,18.532L16.094,18.532L16.094,18.532z"/>
	<g opacity="0.5">
		<path opacity="0.5" fill="#669CCC" enable-background="new    " d="M15.493,11.998c-0.004,0-0.482,0.085-1.042,0.085
			c-0.057,0-0.117,0-0.174-0.002c-0.064,0.002-1.131,0.058-1.758,0.38c-0.004,0.002-0.106,0.049-0.259,0.134
			c0.12-0.117,0.92-0.904,1.325-1.179l0.598-0.407h-3.078l-0.065,0.111c-0.14,0.239-0.832,1.507-0.787,2.883
			c-0.002,0.044-0.032,1.402,0.965,1.908c0.029,0.013,0.175,0.074,0.387,0.074c0.294,0,0.846-0.123,1.243-0.942
			c0.002-0.002,0.031-0.052,0.069-0.148c-0.019,0.088-0.207,0.927-0.992,1.126c-0.132,0.033-0.262,0.05-0.392,0.05
			c-0.538,0-1.066-0.286-1.613-0.874c-0.481-0.518-1.228-2.109-1.303-3.882l-0.015-0.337l-0.304,0.145
			c-0.403,0.192-0.664,0.602-0.664,1.044v4.772l0.135,0.058c0.285,0.124,1.054,0.413,2.017,0.43l0.251,0.005
			c0.188,0.004,0.367,0.008,0.543,0.008c0.895,0,1.608-0.111,2.396-0.664c1.106-0.775,0.974-2.014,0.968-2.065
			c-0.003-0.143-0.019-0.284-0.045-0.422c0.614,1.262-0.091,2.301-0.13,2.356c-0.896,1.256-2.459,2.184-3.313,2.626l-0.813,0.42
			h5.517c0.639,0,1.159-0.52,1.159-1.159v-6.364c0-0.02-0.002-0.041-0.005-0.06l-0.034-0.228l-0.229,0.019L15.493,11.998z
			 M16.094,12.167v6.366c0,0.516-0.419,0.937-0.936,0.937h-4.601c0.8-0.415,2.453-1.377,3.392-2.696c0,0,1.338-1.908-0.796-3.768
			c0,0,0.55,0.862,0.568,1.732c0,0,0.137,1.15-0.875,1.857c-1.01,0.708-1.894,0.631-3.058,0.61
			c-0.931-0.016-1.672-0.298-1.932-0.412v-4.626c0-0.372,0.22-0.692,0.536-0.843c0.08,1.875,0.865,3.487,1.364,4.023
			c0.51,0.549,1.262,1.131,2.224,0.889c0.961-0.243,1.154-1.297,1.154-1.297c0.21-0.898-0.094-1.963-0.11-1.986
			c-0.016-0.022-0.161-0.047-0.161-0.047c0.153,1.413-0.214,2.039-0.214,2.039c-0.537,1.109-1.329,0.767-1.329,0.767
			c-0.882-0.449-0.843-1.718-0.843-1.718c-0.044-1.322,0.631-2.547,0.757-2.764h2.228c-0.458,0.311-1.366,1.215-1.366,1.215
			c-1.295,1.207-1.041,2.223-1.041,2.223c0.209,1.065,0.85,0.347,0.85,0.347c0.675-0.702,0.623-2.098,0.623-2.098
			c-0.275,0.045-0.447,0.197-0.447,0.197c-0.032,0.931-0.578,1.509-0.578,1.509c-0.213,0.236-0.364,0.011-0.364,0.011
			c-0.112-0.169,0.111-0.285,0.111-0.285c0.312-0.276,0.406-0.744,0.4-0.92c-0.004-0.176,0.089-0.224,0.089-0.224
			c0.441-0.343,0.883-0.545,0.883-0.545c0.592-0.304,1.649-0.355,1.649-0.355c0.666,0.022,1.264-0.085,1.264-0.085l0.555-0.101
			C16.09,12.134,16.094,12.15,16.094,12.167z M11.378,14.947c0.082-0.015,0.185-0.061,0.287-0.174c0.021-0.021,0.559-0.6,0.63-1.537
			l0,0c-0.025,0.426-0.133,1.191-0.552,1.626c-0.068,0.074-0.194,0.169-0.271,0.169C11.444,15.028,11.412,15.003,11.378,14.947z"/>
		<path opacity="0.5" fill="#669CCC" enable-background="new    " d="M15.158,10.669H8.793c-0.827,0-1.498,0.67-1.498,1.498v6.365
			c0,0.827,0.671,1.498,1.498,1.498h6.364c0.828,0,1.498-0.67,1.498-1.498v-6.365C16.656,11.34,15.986,10.669,15.158,10.669z
			 M16.433,18.532c0,0.703-0.572,1.275-1.275,1.275H8.793c-0.703,0-1.275-0.572-1.275-1.275v-6.365c0-0.703,0.572-1.275,1.275-1.275
			h6.364c0.703,0,1.275,0.572,1.275,1.275V18.532z"/>
	</g>
	<g>
		<path opacity="0.05" fill="#FFFFFF" enable-background="new    " d="M15.534,12.217c0,0-0.599,0.108-1.264,0.085
			c0,0-1.058,0.052-1.649,0.355c0,0-0.441,0.203-0.883,0.545c0,0-0.093,0.048-0.089,0.224c0.005,0.176-0.088,0.645-0.4,0.92
			c0,0-0.223,0.118-0.111,0.285c0,0,0.151,0.224,0.364-0.011c0,0,0.547-0.578,0.578-1.509c0,0,0.172-0.152,0.447-0.197
			c0,0,0.053,1.396-0.623,2.098c0,0-0.64,0.719-0.85-0.347c0,0-0.254-1.015,1.041-2.223c0,0,0.908-0.904,1.366-1.215h-2.228
			c-0.126,0.217-0.8,1.442-0.757,2.764c0,0-0.039,1.269,0.843,1.718c0,0,0.793,0.342,1.329-0.767c0,0,0.368-0.626,0.214-2.039
			c0,0,0.145,0.025,0.161,0.047c0.016,0.023,0.321,1.088,0.11,1.986c0,0-0.193,1.053-1.154,1.297
			c-0.961,0.242-1.713-0.341-2.224-0.889c-0.498-0.537-1.283-2.149-1.364-4.023c-0.315,0.15-0.536,0.471-0.536,0.843v4.625
			c0.26,0.113,1.002,0.395,1.932,0.412c1.163,0.021,2.047,0.099,3.058-0.61c1.011-0.707,0.875-1.857,0.875-1.857
			c-0.019-0.87-0.568-1.732-0.568-1.732c2.135,1.859,0.796,3.768,0.796,3.768c-0.939,1.319-2.591,2.282-3.392,2.696h4.601
			c0.516,0,0.936-0.42,0.936-0.937v-6.364c0-0.017-0.004-0.033-0.004-0.05L15.534,12.217z M11.003,13.069
			c0.122-0.59,0.346-1.096,0.494-1.392h0.752c-0.257,0.24-0.451,0.434-0.461,0.443C11.435,12.45,11.184,12.771,11.003,13.069z
			 M10.579,16.771c-0.17,0-0.347-0.004-0.529-0.008l-0.254-0.005c-0.631-0.011-1.168-0.157-1.494-0.271V13.4
			c0.301,1.004,0.742,1.837,1.127,2.252c0.619,0.664,1.242,1.019,1.901,1.078C11.101,16.762,10.855,16.771,10.579,16.771z
			 M15.648,18.532c0,0.271-0.22,0.49-0.49,0.49h-2.982c0.735-0.502,1.559-1.181,2.139-1.994c0.015-0.022,1.466-2.151-0.696-4.202
			c0.288-0.049,0.548-0.07,0.648-0.077c0.063,0.001,0.124,0.002,0.185,0.002c0.625,0,1.139-0.092,1.162-0.096l0.035-0.006
			L15.648,18.532z"/>
		<path opacity="0.05" fill="#FFFFFF" enable-background="new    " d="M15.158,10.224H8.793c-1.071,0-1.944,0.872-1.944,1.943v6.366
			c0,1.071,0.872,1.943,1.944,1.943h6.364c1.071,0,1.944-0.872,1.944-1.943v-6.365C17.102,11.096,16.23,10.224,15.158,10.224z
			 M16.656,18.532c0,0.827-0.67,1.498-1.498,1.498H8.793c-0.827,0-1.498-0.67-1.498-1.498v-6.365c0-0.827,0.671-1.498,1.498-1.498
			h6.364c0.828,0,1.498,0.67,1.498,1.498V18.532z"/>
	</g>
	<g opacity="0.2">
		<path opacity="0.9" fill="#FFFFFF" enable-background="new    " d="M13.949,16.996c0,0,0.447-0.639,0.411-1.537
			c-0.036,0.779-0.411,1.315-0.411,1.315c-0.939,1.319-2.591,2.282-3.392,2.696h0.412C11.836,18.981,13.15,18.118,13.949,16.996z"/>
		<path opacity="0.9" fill="#FFFFFF" enable-background="new    " d="M11.054,14.891c0.209,1.065,0.85,0.348,0.85,0.348
			c0.675-0.702,0.623-2.099,0.623-2.099c-0.001,0-0.002,0-0.002,0c-0.016,0.423-0.111,1.346-0.621,1.875c0,0-0.64,0.719-0.85-0.347
			c0,0-0.01-0.04-0.016-0.11C11.023,14.767,11.054,14.891,11.054,14.891z"/>
		<path opacity="0.9" fill="#FFFFFF" enable-background="new    " d="M10.475,14.037c0-0.012,0-0.025,0-0.038
			C10.475,14.002,10.475,14.015,10.475,14.037z"/>
		<path opacity="0.9" fill="#FFFFFF" enable-background="new    " d="M12.883,13.134c-0.011-0.002-0.02-0.004-0.02-0.004
			c0.022,0.199,0.033,0.38,0.035,0.549C12.902,13.514,12.897,13.334,12.883,13.134z"/>
		<path opacity="0.9" fill="#FFFFFF" enable-background="new    " d="M11.232,11.231c-0.125,0.215-0.792,1.427-0.757,2.74
			c0.039-1.225,0.638-2.313,0.757-2.517h1.937c0.106-0.088,0.206-0.166,0.29-0.223L11.232,11.231L11.232,11.231z"/>
		<path opacity="0.9" fill="#FFFFFF" enable-background="new    " d="M15.158,20.03H8.793c-0.827,0-1.498-0.67-1.498-1.498v0.222
			c0,0.828,0.671,1.498,1.498,1.498h6.364c0.828,0,1.498-0.67,1.498-1.498v-0.222C16.656,19.359,15.986,20.03,15.158,20.03z"/>
		<path opacity="0.9" fill="#FFFFFF" enable-background="new    " d="M16.09,12.117l-0.556,0.1c0,0-0.599,0.108-1.264,0.085
			c0,0-1.058,0.052-1.649,0.355c0,0-0.441,0.203-0.883,0.545c0,0-0.093,0.048-0.089,0.224c0.005,0.176-0.088,0.645-0.4,0.92
			c0,0-0.223,0.118-0.111,0.285c0,0,0.005,0.007,0.012,0.017c0.042-0.051,0.099-0.08,0.099-0.08c0.312-0.276,0.406-0.744,0.4-0.92
			c-0.004-0.176,0.089-0.224,0.089-0.224c0.115-0.089,0.23-0.168,0.337-0.237c0.001-0.025,0.004-0.05,0.005-0.076
			c0,0,0.172-0.152,0.447-0.197c0,0,0,0.006,0,0.012c0.058-0.03,0.094-0.047,0.094-0.047c0.592-0.304,1.649-0.355,1.649-0.355
			c0.666,0.022,1.264-0.086,1.264-0.086l0.556-0.1c0,0.017,0.004,0.033,0.004,0.05v-0.223C16.094,12.15,16.09,12.134,16.09,12.117z"
			/>
		<path opacity="0.9" fill="#FFFFFF" enable-background="new    " d="M9.756,15.348c-0.498-0.537-1.283-2.149-1.364-4.023
			c-0.315,0.15-0.536,0.471-0.536,0.843v0.223c0-0.372,0.22-0.692,0.536-0.843c0.08,1.875,0.865,3.488,1.364,4.024
			c0.51,0.548,1.262,1.131,2.224,0.888c0.961-0.242,1.154-1.297,1.154-1.297c0.064-0.269,0.079-0.554,0.072-0.82
			c-0.005,0.198-0.025,0.401-0.072,0.598c0,0-0.193,1.053-1.154,1.297C11.018,16.479,10.267,15.896,9.756,15.348z"/>
	</g>
	<g>
		<path opacity="0.5" fill="#669CCC" enable-background="new    " d="M11.037,14.55c0.024-0.394,0.206-1.102,1.056-1.896
			c0,0,0.908-0.904,1.366-1.215h-0.273c-0.473,0.39-1.093,1.005-1.093,1.005C11.059,13.411,11.014,14.251,11.037,14.55z"/>
		<path opacity="0.5" fill="#669CCC" enable-background="new    " d="M13.153,13.005c0,0,0.103,0.162,0.22,0.415
			c0.73,0.719,0.966,1.434,0.987,2.033C14.391,14.762,14.155,13.877,13.153,13.005z"/>
		<path opacity="0.5" fill="#669CCC" enable-background="new    " d="M13.023,12.954c-0.016-0.022-0.161-0.047-0.161-0.047
			c0.009,0.073,0.013,0.144,0.019,0.212c0.039,0.007,0.129,0.026,0.142,0.044c0.011,0.016,0.164,0.548,0.182,1.174
			C13.224,13.625,13.036,12.972,13.023,12.954z"/>
		<path opacity="0.5" fill="#669CCC" enable-background="new    " d="M10.475,13.957c-0.001,0.013,0,0.027,0,0.041v-0.003
			C10.474,13.982,10.475,13.97,10.475,13.957z"/>
		<path opacity="0.5" fill="#669CCC" enable-background="new    " d="M11.501,14.622c-0.184,0.205-0.322,0.064-0.355,0.022
			c-0.038,0.051-0.063,0.119-0.009,0.198c0,0,0.151,0.224,0.364-0.011c0,0,0.547-0.579,0.578-1.51c0,0,0.172-0.151,0.445-0.197
			c0.004-0.129,0.002-0.209,0.002-0.209c-0.002,0-0.004,0.001-0.006,0.001c-0.099,0.05-0.259,0.137-0.446,0.258
			C12.022,14.069,11.501,14.622,11.501,14.622z"/>
		<path opacity="0.5" fill="#669CCC" enable-background="new    " d="M15.158,10.669H8.793c-0.827,0-1.498,0.67-1.498,1.498v0.209
			c0-0.827,0.671-1.498,1.498-1.498h6.364c0.828,0,1.498,0.67,1.498,1.498v-0.209C16.656,11.34,15.986,10.669,15.158,10.669z"/>
		<path opacity="0.5" fill="#669CCC" enable-background="new    " d="M9.789,17.413c1.163,0.021,2.047,0.099,3.058-0.61
			c0.908-0.636,0.891-1.626,0.878-1.82c-0.019,0.376-0.155,1.105-0.878,1.611c-1.01,0.708-1.894,0.631-3.058,0.61
			c-0.931-0.016-1.672-0.298-1.932-0.412v0.209C8.118,17.115,8.858,17.397,9.789,17.413z"/>
		<path opacity="0.5" fill="#669CCC" enable-background="new    " d="M11.318,15.923c0,0,0.793,0.342,1.329-0.767
			c0,0,0.269-0.461,0.25-1.48c-0.018,0.873-0.25,1.271-0.25,1.271c-0.537,1.109-1.329,0.767-1.329,0.767
			c-0.79-0.402-0.84-1.46-0.843-1.676c-0.001,0.057-0.002,0.111,0,0.168C10.475,14.204,10.436,15.473,11.318,15.923z"/>
		<path opacity="0.5" fill="#669CCC" enable-background="new    " d="M15.158,19.678c0.516,0,0.936-0.419,0.936-0.936v-0.209
			c0,0.516-0.419,0.937-0.936,0.937h-4.214c-0.143,0.079-0.275,0.15-0.387,0.209H15.158z"/>
	</g>
</g>
</svg>
