<?xml version="1.0" encoding="utf-8"?>
<!-- Generator: Adobe Illustrator 17.0.0, SVG Export Plug-In . SVG Version: 6.00 Build 0)  -->
<!DOCTYPE svg PUBLIC "-//W3C//DTD SVG 1.1//EN" "http://www.w3.org/Graphics/SVG/1.1/DTD/svg11.dtd">
<svg version="1.1" id="图层_1" xmlns="http://www.w3.org/2000/svg" xmlns:xlink="http://www.w3.org/1999/xlink" x="0px" y="0px"
	 width="24px" height="24px" viewBox="0 0 24 24" enable-background="new 0 0 24 24" xml:space="preserve">
<path fill="#C4DCED" stroke="#9DBCD7" stroke-miterlimit="10" d="M22.942,20.079c0,1.595-1.293,2.888-2.888,2.888H3.896
	c-1.595,0-2.888-1.293-2.888-2.888V3.921c0-1.595,1.293-2.888,2.888-2.888h16.159c1.595,0,2.888,1.293,2.888,2.888L22.942,20.079
	L22.942,20.079z"/>
<path opacity="0.6" fill="none" stroke="#FFFFFF" stroke-miterlimit="10" enable-background="new    " d="M3.896,21.967
	c-1.041,0-1.888-0.847-1.888-1.888V3.921c0-1.041,0.847-1.888,1.888-1.888h16.159c1.041,0,1.888,0.847,1.888,1.888v16.158
	c-0.001,1.041-0.848,1.888-1.889,1.888C20.054,21.967,3.896,21.967,3.896,21.967z"/>
<path opacity="0.05" fill="none" stroke="#000000" stroke-width="0.3786" stroke-miterlimit="10" enable-background="new    " d="
	M23.02,7.276c0,0,0-0.97-0.958-0.97c-2.782,0-11.663,0.002-12.458,0.002c-0.966,0-0.958-0.956-0.958-0.956s0-0.963-0.958-0.963
	c-1.678,0-5.038,0-5.75,0c-0.943,0-0.958,0.928-0.958,0.957"/>
<linearGradient id="SVGID_1_" gradientUnits="userSpaceOnUse" x1="1381.974" y1="-1687.967" x2="1381.974" y2="-1669.882" gradientTransform="matrix(1 0 0 -1 -1370 -1665)">
	<stop  offset="0" style="stop-color:#D1E0ED"/>
	<stop  offset="1" style="stop-color:#E4EEFB"/>
</linearGradient>
<path fill="url(#SVGID_1_)" stroke="#9DBCD7" stroke-miterlimit="10" d="M3.889,22.967h16.219c1.595,0,2.833-1.326,2.833-2.92V7.098
	c0-0.227-0.34-0.441-0.792-0.441c-2.794,0-11.7,0.002-12.499,0.002c-0.97,0-0.956-0.885-0.956-0.885s0.007-0.892-0.956-0.892
	c-1.685,0-5.06,0-5.775,0c-0.948,0-0.956,0.786-0.956,0.815v14.35C1.008,21.641,2.295,22.967,3.889,22.967z"/>
<path opacity="0.8" fill="none" stroke="#FFFFFF" stroke-miterlimit="10" enable-background="new    " d="M3.889,21.967
	c-1.037,0-1.881-0.862-1.881-1.921V5.889l5.688-0.007c0.016,0.225,0.098,0.777,0.537,1.224C8.481,7.358,8.929,7.659,9.65,7.659
	l12.291-0.001v12.389c0,1.06-0.822,1.921-1.833,1.921L3.889,21.967L3.889,21.967z"/>
<g id="g27_1_">
	
		<linearGradient id="path36_2_" gradientUnits="userSpaceOnUse" x1="1784.3451" y1="-2484.1682" x2="1787.3922" y2="-2489.446" gradientTransform="matrix(1 0 0 -1 -1782 -2483)">
		<stop  offset="0" style="stop-color:#FFFFFF"/>
		<stop  offset="0.5" style="stop-color:#FFFFFF;stop-opacity:0.6"/>
		<stop  offset="1" style="stop-color:#FFFFFF;stop-opacity:0.15"/>
	</linearGradient>
	<path id="path36_1_" fill="url(#path36_2_)" d="M4.858,7.342c0.341-0.705,0.756-1.366,1.233-1.977L5.223,3.462
		C4.482,4.163,3.88,4.935,3.4,5.685L4.858,7.342z"/>
	
		<linearGradient id="path45_2_" gradientUnits="userSpaceOnUse" x1="1787.1091" y1="-2483.3772" x2="1789.1033" y2="-2486.8313" gradientTransform="matrix(1 0 0 -1 -1782 -2483)">
		<stop  offset="0" style="stop-color:#FFFFFF"/>
		<stop  offset="0.5" style="stop-color:#FFFFFF;stop-opacity:0.6"/>
		<stop  offset="1" style="stop-color:#FFFFFF;stop-opacity:0.15"/>
	</linearGradient>
	<path id="path45_1_" fill="url(#path45_2_)" d="M4.949,1.633l0.454,0.994C5.84,2.265,6.318,2.14,6.84,1.633H4.949z"/>
	
		<linearGradient id="path54_2_" gradientUnits="userSpaceOnUse" x1="1787.736" y1="-2482.7214" x2="1790.1725" y2="-2486.9417" gradientTransform="matrix(1 0 0 -1 -1782 -2483)">
		<stop  offset="0" style="stop-color:#FFFFFF"/>
		<stop  offset="0.5" style="stop-color:#FFFFFF;stop-opacity:0.6"/>
		<stop  offset="1" style="stop-color:#FFFFFF;stop-opacity:0.15"/>
	</linearGradient>
	<path id="path54_1_" fill="url(#path54_2_)" d="M8.353,1.633H7.994C7.089,2.14,6.298,2.527,5.619,3.105L6.451,4.93
		C7.162,4.109,7.986,3.39,8.91,2.809C8.917,2.803,8.922,2.797,8.93,2.79C9.964,1.897,8.936,1.633,8.353,1.633z"/>
	
		<linearGradient id="path63_2_" gradientUnits="userSpaceOnUse" x1="1782.6355" y1="-2486.5737" x2="1785.2798" y2="-2491.1538" gradientTransform="matrix(1 0 0 -1 -1782 -2483)">
		<stop  offset="0" style="stop-color:#FFFFFF"/>
		<stop  offset="0.5" style="stop-color:#FFFFFF;stop-opacity:0.6"/>
		<stop  offset="1" style="stop-color:#FFFFFF;stop-opacity:0.15"/>
	</linearGradient>
	<path id="path63_1_" fill="url(#path63_2_)" d="M3.124,6.138C2.567,7.086,2.204,7.961,1.988,8.56
		c0.256,0.365,0.678,0.604,1.157,0.604c0.593,0,1.1-0.366,1.31-0.884c0.054-0.145,0.119-0.284,0.179-0.426L3.124,6.138z"/>
	
		<linearGradient id="path72_2_" gradientUnits="userSpaceOnUse" x1="1782.5165" y1="-2486.7615" x2="1785.4468" y2="-2491.8372" gradientTransform="matrix(1 0 0 -1 -1782 -2483)">
		<stop  offset="0" style="stop-color:#FFFFFF"/>
		<stop  offset="0.5" style="stop-color:#FFFFFF;stop-opacity:0.6"/>
		<stop  offset="1" style="stop-color:#FFFFFF;stop-opacity:0.15"/>
	</linearGradient>
	<path id="path72_1_" fill="url(#path72_2_)" d="M1.742,4.566L1.731,7.748c0,0,0,0.001,0,0.002c0,0.02,0.005,0.039,0.006,0.058
		C1.979,7.219,2.317,6.5,2.775,5.74L1.742,4.566z"/>
	
		<linearGradient id="path149_2_" gradientUnits="userSpaceOnUse" x1="1784.7327" y1="-2485.1721" x2="1787.4844" y2="-2489.938" gradientTransform="matrix(1 0 0 -1 -1782 -2483)">
		<stop  offset="0" style="stop-color:#FFFFFF"/>
		<stop  offset="0.5" style="stop-color:#FFFFFF;stop-opacity:0.6"/>
		<stop  offset="1" style="stop-color:#FFFFFF;stop-opacity:0.15"/>
	</linearGradient>
	<path id="path149_1_" fill="url(#path149_2_)" d="M4.344,1.639C3.31,1.553,1.949,2.718,1.774,3.834l1.283,1.459
		c0.512-0.781,1.149-1.582,1.934-2.305L4.344,1.639z"/>
</g>
<g id="Symbol">
	<path opacity="0.05" fill="#FFFFFF" enable-background="new    " d="M13.866,8.852c-1.012,0.01-2.036-0.017-3.058,0.013
		c-0.051,0.001-0.099,0.02-0.137,0.054c-0.099,0.101-0.175,0.103-0.335,0.089C10.188,8.995,9.979,8.966,9.75,9.015V9.008
		C9.743,9.009,9.736,9.014,9.729,9.015c-0.008,0.002-0.012-0.002-0.021,0v0.007c-0.346,0.031-0.671,0.21-0.832,0.539L8.869,9.554
		C8.863,9.562,8.861,9.573,8.855,9.581c-0.352,0.544-0.737,1.081-1.078,1.652c-0.008,0.013-0.015,0.027-0.021,0.041
		c-0.08,0.234,0.013,0.46,0.143,0.6c0.128,0.137,0.285,0.226,0.41,0.293c0.003,0.002,0.004,0.005,0.007,0.007
		c0.193,0.118,0.394,0.233,0.587,0.355c-0.069-0.006-0.143-0.012-0.205-0.007c-0.179,0.013-0.337,0.042-0.45,0.034
		c-0.009-0.001-0.018-0.001-0.027,0c-0.641,0.043-1.301,0.05-1.959,0.116c-0.009,0.002-0.018,0.004-0.027,0.007
		c-0.549,0.145-0.564,0.944-0.068,1.16L6.16,13.846c0.031,0.024,0.04,0.018,0.068,0.034c0.061,0.033,0.105,0.062,0.143,0.075
		c-0.506,0.947-0.451,2.137,0.171,3.023c0.001,0.002-0.001,0.005,0,0.007c0.455,0.692,0.994,1.313,1.502,1.932
		c0.038,0.043,0.092,0.068,0.15,0.068c0.172,0.008,0.249,0.065,0.368,0.171c0.119,0.106,0.26,0.265,0.484,0.396
		c0.019,0.012,0.04,0.022,0.061,0.027c0.468,0.09,0.929,0.014,1.331,0.034c0.004,0.001,0.009,0.001,0.014,0
		c0.475-0.012,0.973,0.031,1.481-0.013c0.012-0.001,0.023-0.004,0.034-0.007c0.135-0.036,0.248-0.114,0.321-0.211
		c0.072-0.098,0.105-0.204,0.123-0.307c0.012-0.068,0.004-0.113,0.007-0.177c0.278,0.49,0.541,0.99,0.853,1.474
		c0.006,0.01,0.013,0.019,0.021,0.027c0.385,0.419,1.116,0.051,1.058-0.498h0.007c0.001-0.017-0.001-0.018,0-0.034
		c0.001-0.088,0.005-0.147,0.007-0.184c0.006,0.002,0.001-0.002,0.007,0c0.02,0.006,0.041,0.007,0.061,0.007
		c1.051,0.014,2.055-0.57,2.559-1.495c0.002-0.003,0.005-0.004,0.007-0.007c0.416-0.718,0.737-1.479,1.064-2.218
		c0.02-0.048,0.02-0.102,0-0.151c-0.058-0.153-0.054-0.249-0.027-0.375c0.027-0.126,0.09-0.284,0.15-0.492
		c0.005-0.018,0.007-0.036,0.007-0.054c-0.005-0.441-0.295-0.745-0.396-1.003c-0.002-0.004-0.004-0.009-0.007-0.014
		c-0.282-0.545-0.541-1.11-0.846-1.659c-0.008-0.012-0.017-0.024-0.027-0.034c-0.143-0.162-0.355-0.22-0.532-0.198
		c-0.166,0.021-0.309,0.096-0.43,0.191l-0.007,0.007c-0.006,0.004-0.015,0.002-0.021,0.007l-0.129,0.082
		c0.278-0.49,0.556-0.978,0.826-1.474c0.003-0.009,0.005-0.018,0.007-0.027c0.21-0.551-0.497-1.075-0.956-0.703
		c-0.007,0.004-0.014,0.008-0.021,0.013c-0.054,0.053-0.048,0.051-0.048,0.054c-0.007-0.015-0.018-0.022-0.027-0.054
		c-0.005-0.017-0.012-0.033-0.021-0.048C15.213,9.452,14.667,8.857,13.866,8.852z M11.948,11.697
		c0.062,0.091,0.129,0.202,0.164,0.273c0.039,0.078,0.032,0.122,0.034,0.116c0.002-0.006,0.008,0.02-0.109,0.048
		c-0.004,0-0.009,0-0.014,0c-0.183,0.061-0.341,0.184-0.437,0.355s-0.116,0.407,0,0.608c0.143,0.24,0.399,0.313,0.608,0.321
		c0.208,0.008,0.405-0.02,0.525-0.007c0.007,0.001,0.013,0.001,0.021,0l1.215-0.007c-0.1,0.067-0.205,0.128-0.293,0.225
		c-0.008,0.011-0.015,0.022-0.021,0.034c-0.141,0.242-0.085,0.507,0.007,0.696c0.092,0.189,0.213,0.348,0.259,0.464
		c0.002,0.007,0.004,0.014,0.007,0.021l0.137,0.253c-0.038-0.024-0.063-0.06-0.109-0.075c-0.002-0.001,0.001-0.006,0-0.007
		c-0.002-0.001-0.004,0.001-0.007,0c-0.205-0.072-0.415-0.013-0.56,0.096c-0.139,0.104-0.227,0.248-0.286,0.396l-0.007-0.007
		l-0.662,1.194c0.001-0.189,0.018-0.364-0.014-0.56c-0.003-0.014-0.007-0.028-0.013-0.041c-0.055-0.132-0.152-0.24-0.26-0.3
		c-0.107-0.06-0.215-0.075-0.321-0.082c-0.211-0.014-0.415,0.02-0.539,0.014c-0.004-0.001-0.009-0.001-0.014,0l-0.703,0.02
		c0.054-0.026,0.11-0.042,0.157-0.089l0.007,0.007c0.004-0.004,0.003-0.01,0.007-0.014c0.171-0.163,0.209-0.402,0.164-0.587
		c-0.045-0.183-0.15-0.33-0.253-0.45h0.007c-0.004-0.005-0.01-0.008-0.014-0.014c-0.4-0.572-0.785-1.166-1.201-1.74
		c0.331,0.209,0.655,0.42,0.996,0.614c0.013,0.008,0.026,0.015,0.041,0.021c0.25,0.071,0.487-0.043,0.621-0.191
		c0.132-0.145,0.206-0.318,0.266-0.45l0.007-0.007L11.948,11.697z M14.35,15.642l0.082,0.15h-0.075
		C14.357,15.743,14.354,15.696,14.35,15.642z M9.859,15.69c0.051,0.026,0.098,0.045,0.157,0.068l-0.191,0.007L9.859,15.69z"/>
	<path opacity="0.1" fill="#FFFFFF" enable-background="new    " d="M13.868,9.047c-1.016,0.011-2.036-0.012-3.05,0.018
		c-0.297,0.303-0.668,0.039-1.057,0.142C9.449,9.224,9.172,9.38,9.042,9.667c-0.359,0.558-0.752,1.099-1.092,1.668
		c-0.114,0.335,0.217,0.529,0.463,0.663c0.703,0.429,1.391,0.895,2.105,1.301c0.36,0.101,0.535-0.271,0.655-0.536
		c0.253-0.488,0.507-0.977,0.76-1.465c0.137,0.346,0.76,0.881,0.152,1.03c-0.269,0.089-0.489,0.39-0.329,0.666
		c0.205,0.345,0.652,0.182,0.979,0.218c0.638-0.002,1.275-0.003,1.913-0.004c-0.273,0.193-0.609,0.313-0.836,0.561
		c-0.203,0.35,0.156,0.669,0.281,0.978c0.224,0.412,0.447,0.823,0.671,1.236c-0.2,0.002-0.399,0.004-0.598,0.006
		c-0.002-0.28,0.046-0.672-0.293-0.781c-0.286-0.105-0.522,0.138-0.615,0.386c-0.342,0.614-0.684,1.227-1.026,1.84
		c-0.016-0.422,0.043-0.854-0.024-1.269c-0.161-0.383-0.623-0.232-0.943-0.247c-0.588,0.017-1.177,0.035-1.765,0.052
		c0.09-0.181,0.179-0.362,0.268-0.543c0.246,0.127,0.574,0.342,0.818,0.085c0.254-0.229,0.076-0.578-0.107-0.788
		c-0.441-0.631-0.858-1.286-1.314-1.902c-0.266-0.205-0.625-0.048-0.931-0.07c-0.649,0.043-1.302,0.053-1.948,0.118
		c-0.387,0.103-0.388,0.708-0.002,0.817c0.127,0.099,0.479,0.121,0.283,0.331c-0.488,0.886-0.446,2.021,0.139,2.851
		c0.445,0.678,0.984,1.298,1.496,1.92c0.447,0.022,0.564,0.368,0.952,0.591c0.422,0.081,0.864,0.015,1.294,0.037
		c0.489-0.012,0.984,0.024,1.469-0.018c0.392-0.106,0.296-0.564,0.308-0.871c-0.009-0.25-0.012-0.475,0.133-0.132
		c0.366,0.619,0.694,1.266,1.083,1.869c0.263,0.286,0.785,0.018,0.72-0.363c0.002-0.227-0.066-0.523,0.269-0.414
		c0.978,0.013,1.923-0.533,2.388-1.395c0.41-0.706,0.728-1.466,1.057-2.209c-0.142-0.374,0.005-0.592,0.116-0.984
		c-0.004-0.342-0.262-0.618-0.382-0.928c-0.285-0.55-0.545-1.118-0.845-1.656c-0.197-0.223-0.509-0.129-0.707,0.035
		c-0.269,0.161-0.538,0.323-0.806,0.484c0.396-0.71,0.808-1.415,1.196-2.129c0.141-0.368-0.348-0.724-0.653-0.476
		c-0.189,0.187-0.331,0.181-0.411-0.087C15.056,9.585,14.57,9.052,13.868,9.047z"/>
	<path opacity="0.2" fill="#FFFFFF" enable-background="new    " d="M13.88,9.279l-2.947,0.006c-0.072-0.001-0.138,0.04-0.172,0.104
		c-0.033,0.064-0.028,0.142,0.013,0.201c-0.197-0.098-0.411-0.172-0.659-0.177C9.912,9.408,9.691,9.441,9.457,9.529
		C9.42,9.543,9.387,9.568,9.365,9.602L8.2,11.353c-0.031,0.043-0.042,0.097-0.031,0.149c0.011,0.052,0.041,0.097,0.086,0.125
		l2.269,1.422c0.046,0.029,0.101,0.037,0.153,0.023c0.052-0.014,0.096-0.049,0.122-0.097l1.098-2.11
		c0.013-0.022,0.021-0.047,0.024-0.073c0.32,0.464,0.588,0.98,0.799,1.458l-0.677,0.366c-0.08,0.041-0.122,0.132-0.1,0.22
		c0.022,0.087,0.101,0.148,0.191,0.146l2.66-0.006c0.07,0.001,0.136-0.036,0.171-0.098l1.238-2.196
		c0.05-0.078,0.037-0.18-0.03-0.244c-0.067-0.063-0.17-0.071-0.245-0.019l-0.482,0.305l-0.323-0.568
		c-0.004-0.004-0.008-0.008-0.012-0.012c-0.144-0.216-0.289-0.416-0.482-0.573c-0.193-0.158-0.432-0.266-0.732-0.293
		C13.892,9.278,13.886,9.278,13.88,9.279z M16.436,12.414c-0.029,0.004-0.055,0.014-0.079,0.031l-2.282,1.385
		c-0.089,0.052-0.121,0.165-0.073,0.256l1.128,2.08c0.01,0.018,0.022,0.035,0.037,0.049l-1.233,0.006l-0.006-0.604
		c0.002-0.09-0.059-0.17-0.147-0.191c-0.088-0.022-0.178,0.02-0.22,0.1l-1.22,2.184c-0.033,0.059-0.033,0.131,0,0.189l1.22,2.147
		c0.041,0.082,0.134,0.123,0.223,0.099c0.089-0.024,0.148-0.106,0.143-0.197l0.006-0.689h0.396c1.007-0.001,1.637-0.381,2.086-0.988
		c0.449-0.608,0.749-1.422,1.208-2.361c0.039-0.076,0.023-0.169-0.039-0.228c-0.062-0.059-0.155-0.071-0.229-0.028
		c0.234-0.246,0.422-0.529,0.402-0.842c-0.003-0.026-0.012-0.051-0.024-0.073l-1.11-2.215
		C16.591,12.452,16.516,12.409,16.436,12.414z M8.872,12.951l-2.471,0.134c-0.087,0.006-0.159,0.07-0.175,0.155
		c-0.017,0.085,0.025,0.172,0.103,0.211l0.622,0.311l-0.177,0.36c-0.449,0.901-0.392,1.638-0.049,2.312
		c0.343,0.674,0.938,1.299,1.574,2.129c0.06,0.074,0.166,0.093,0.249,0.044c0.082-0.049,0.116-0.151,0.08-0.24
		c-0.012-0.026-0.008-0.053-0.018-0.079c0.113,0.379,0.305,0.737,0.641,0.878c0.023,0.011,0.048,0.017,0.073,0.018h2.471
		c0.052,0.001,0.102-0.02,0.138-0.057c0.037-0.037,0.057-0.087,0.057-0.138l0.018-2.66c0.001-0.053-0.021-0.104-0.059-0.141
		s-0.09-0.057-0.143-0.054l-2.605,0.079c-0.035,0.001-0.068,0.012-0.098,0.031l0.561-1.128l0.543,0.268
		c0.078,0.036,0.171,0.016,0.227-0.049c0.057-0.065,0.063-0.159,0.017-0.232l-1.409-2.068C9.005,12.98,8.94,12.948,8.872,12.951z
		 M8.518,17.746c0.007,0.135,0.028,0.273,0.061,0.409C8.544,18.019,8.512,17.885,8.518,17.746z"/>
	<path opacity="0.3" fill="#669CCC" enable-background="new    " d="M13.88,9.474L10.933,9.48c0.321,0.192,0.741,0.624,1.092,1.116
		c0.392,0.55,0.711,1.185,0.946,1.739l-0.836,0.451l2.66-0.006l1.238-2.196L15.374,11l-0.421-0.744
		C14.673,9.833,14.41,9.521,13.88,9.474z M10.11,9.608C9.929,9.605,9.736,9.633,9.524,9.713L8.36,11.464l2.269,1.421l1.098-2.11
		C11.391,10.308,10.891,9.624,10.11,9.608z M16.454,12.609l-2.282,1.385l1.128,2.08l0.909,0.012
		c0.531,0.006,1.388-0.733,1.354-1.263L16.454,12.609z M8.884,13.146l-2.471,0.134l0.793,0.396l-0.263,0.531
		c-0.858,1.722,0.223,2.563,1.507,4.239c-0.183-0.416-0.173-0.862-0.012-1.293l1.141-2.294l0.714,0.354L8.884,13.146z
		 M13.734,15.617l-1.22,2.184l1.22,2.147l0.006-0.885h0.592c1.924-0.001,2.19-1.342,3.117-3.239
		c-0.291,0.35-0.689,0.537-1.147,0.586l-2.562,0.006L13.734,15.617z M11.812,16.331L9.208,16.41l-0.415,0.805
		c-0.242,0.473,0.041,1.569,0.531,1.775h2.471L11.812,16.331z"/>
	<path opacity="0.3" fill="#669CCC" enable-background="new    " d="M13.88,9.474L10.933,9.48c0.321,0.192,0.741,0.624,1.092,1.116
		c0.392,0.55,0.711,1.185,0.946,1.739l-0.836,0.451l2.66-0.006l1.238-2.196L15.374,11l-0.421-0.744
		C14.673,9.833,14.41,9.521,13.88,9.474z M10.11,9.608C9.929,9.605,9.736,9.633,9.524,9.713L8.36,11.464l2.269,1.421l1.098-2.11
		C11.391,10.308,10.891,9.624,10.11,9.608z M13.849,9.846c0.199,0.018,0.31,0.069,0.427,0.164c0.117,0.096,0.232,0.249,0.366,0.451
		l0.409,0.72c0.033,0.059,0.082,0.107,0.141,0.141l-0.616,1.086l-1.238,0.006c0.015-0.076,0.007-0.155-0.024-0.226
		c-0.242-0.57-0.567-1.222-0.982-1.805c-0.138-0.194-0.29-0.363-0.439-0.531L13.849,9.846z M10.104,9.98
		c0.496,0.01,0.865,0.429,1.177,0.842l-0.793,1.531l-1.604-1.001l0.872-1.312C9.878,10.007,9.999,9.978,10.104,9.98z M16.454,12.609
		l-2.282,1.385l1.128,2.08l0.909,0.012c0.531,0.006,1.388-0.733,1.354-1.263L16.454,12.609z M16.302,13.141l0.878,1.745
		c-0.016,0.082-0.121,0.305-0.329,0.494c-0.229,0.207-0.543,0.337-0.634,0.336l-0.689-0.012l-0.854-1.574L16.302,13.141z
		 M8.884,13.146l-2.471,0.134l0.793,0.396l-0.263,0.531c-0.858,1.722,0.223,2.563,1.507,4.24c-0.183-0.416-0.173-0.862-0.012-1.293
		l1.141-2.294l0.714,0.354L8.884,13.146z M8.701,13.531l0.69,1.013c-0.063,0.035-0.113,0.089-0.147,0.153l-1.141,2.293
		c-0.005,0.012-0.008,0.024-0.012,0.037c-0.036,0.096-0.032,0.199-0.055,0.299c-0.34-0.424-0.639-0.808-0.812-1.147
		c-0.285-0.56-0.335-1.022,0.055-1.805l0.262-0.531c0.039-0.078,0.05-0.165,0.031-0.25L8.701,13.531z M13.734,15.617l-1.22,2.184
		l1.22,2.147l0.006-0.885h0.592c1.924-0.001,2.19-1.342,3.117-3.239c-0.291,0.35-0.689,0.537-1.147,0.586l-2.562,0.006
		L13.734,15.617z M11.812,16.331L9.208,16.41l-0.415,0.805c-0.242,0.473,0.041,1.569,0.531,1.775h2.471L11.812,16.331z
		 M16.631,16.697c-0.227,0.493-0.439,0.933-0.664,1.238c-0.373,0.505-0.759,0.756-1.635,0.756H13.74
		c-0.09,0-0.176,0.032-0.244,0.091l-0.555-0.982l0.598-1.074c0.06,0.04,0.129,0.06,0.201,0.061l2.562-0.006
		c0.012,0.001,0.024,0.001,0.037,0C16.441,16.771,16.532,16.72,16.631,16.697z M11.44,16.715l-0.018,1.903H9.445
		C9.379,18.567,9.217,18.371,9.14,18.1c-0.084-0.297-0.059-0.633-0.018-0.714l0.317-0.61L11.44,16.715z"/>
	<path opacity="0.3" fill="#669CCC" enable-background="new    " d="M13.88,9.474L10.933,9.48c0.321,0.192,0.741,0.624,1.092,1.116
		c0.392,0.55,0.711,1.185,0.946,1.739l-0.836,0.451l2.66-0.006l1.238-2.196L15.374,11l-0.421-0.744
		C14.673,9.833,14.41,9.521,13.88,9.474z M10.11,9.608C9.929,9.605,9.736,9.633,9.524,9.713L8.36,11.464l2.269,1.421l1.098-2.11
		C11.391,10.308,10.891,9.624,10.11,9.608z M13.862,9.663c0.231,0.021,0.384,0.092,0.525,0.207c0.138,0.113,0.268,0.275,0.403,0.476
		l0.006,0.012l0.415,0.732c0.025,0.046,0.068,0.08,0.118,0.094c0.051,0.014,0.105,0.006,0.15-0.021l0.018-0.012l-0.811,1.44
		l-1.787,0.006l0.165-0.091c0.087-0.047,0.124-0.153,0.085-0.244c-0.239-0.562-0.56-1.208-0.964-1.775
		c-0.228-0.32-0.479-0.589-0.726-0.818L13.862,9.663z M10.104,9.797c0.631,0.013,1.061,0.55,1.391,1.001l-0.939,1.812l-1.928-1.207
		l1.013-1.519C9.809,9.826,9.961,9.794,10.104,9.797z M16.454,12.609l-2.282,1.385l1.128,2.08l0.909,0.012
		c0.531,0.006,1.388-0.733,1.354-1.263L16.454,12.609z M16.375,12.878l0.995,1.983c-0.003,0.161-0.154,0.434-0.396,0.653
		c-0.252,0.228-0.587,0.386-0.763,0.384l-0.793-0.012l-0.988-1.824L16.375,12.878z M8.884,13.146l-2.471,0.134l0.793,0.396
		l-0.263,0.531c-0.858,1.722,0.223,2.563,1.507,4.239c-0.183-0.416-0.173-0.862-0.012-1.293l1.141-2.294l0.714,0.354L8.884,13.146z
		 M8.787,13.341L9.72,14.72l-0.055-0.031c-0.094-0.047-0.209-0.008-0.256,0.085l-1.141,2.294c-0.002,0.006-0.004,0.012-0.006,0.018
		c-0.079,0.213-0.121,0.433-0.128,0.653c-0.443-0.55-0.844-1.042-1.068-1.483c-0.304-0.596-0.36-1.143,0.049-1.965l0.262-0.531
		c0.047-0.094,0.008-0.209-0.085-0.256L7.14,13.432L8.787,13.341z M13.734,15.617l-1.22,2.184l1.22,2.147l0.006-0.885h0.592
		c1.924-0.001,2.19-1.342,3.117-3.239c-0.291,0.35-0.689,0.537-1.147,0.586l-2.562,0.006L13.734,15.617z M11.812,16.331L9.208,16.41
		l-0.415,0.805c-0.242,0.473,0.041,1.569,0.531,1.775h2.471L11.812,16.331z M13.551,16.331v0.085
		c0.002,0.104,0.085,0.187,0.189,0.189l2.562-0.006c0.006,0.001,0.012,0.001,0.018,0c0.227-0.024,0.44-0.091,0.641-0.183
		c-0.297,0.646-0.56,1.224-0.854,1.623c-0.397,0.538-0.857,0.835-1.775,0.836h-0.592c-0.104,0.002-0.188,0.085-0.189,0.189v0.171
		l-0.818-1.44L13.551,16.331z M11.623,16.526l-0.018,2.275h-2.22c-0.143-0.07-0.325-0.335-0.415-0.653
		c-0.092-0.327-0.086-0.692-0.006-0.848l0.366-0.708L11.623,16.526z"/>
</g>
</svg>
