<?xml version="1.0" encoding="utf-8"?>
<!-- Generator: Adobe Illustrator 17.0.0, SVG Export Plug-In . SVG Version: 6.00 Build 0)  -->
<!DOCTYPE svg PUBLIC "-//W3C//DTD SVG 1.1//EN" "http://www.w3.org/Graphics/SVG/1.1/DTD/svg11.dtd">
<svg version="1.1" id="图层_1" xmlns="http://www.w3.org/2000/svg" xmlns:xlink="http://www.w3.org/1999/xlink" x="0px" y="0px"
	 width="24px" height="24px" viewBox="0 0 24 24" enable-background="new 0 0 24 24" xml:space="preserve">
<path fill="#C4DCED" stroke="#9DBCD7" stroke-miterlimit="10" d="M22.942,20.079c0,1.595-1.293,2.888-2.888,2.888H3.896
	c-1.595,0-2.888-1.293-2.888-2.888V3.921c0-1.595,1.293-2.888,2.888-2.888h16.159c1.595,0,2.888,1.293,2.888,2.888L22.942,20.079
	L22.942,20.079z"/>
<path opacity="0.6" fill="none" stroke="#FFFFFF" stroke-miterlimit="10" enable-background="new    " d="M3.896,21.967
	c-1.041,0-1.888-0.847-1.888-1.888V3.921c0-1.041,0.847-1.888,1.888-1.888h16.159c1.041,0,1.888,0.847,1.888,1.888v16.158
	c-0.001,1.041-0.848,1.888-1.889,1.888C20.054,21.967,3.896,21.967,3.896,21.967z"/>
<g id="g27_1_">
	
		<linearGradient id="path36_2_" gradientUnits="userSpaceOnUse" x1="1784.101" y1="-2484.0063" x2="1787.1482" y2="-2489.2842" gradientTransform="matrix(1 0 0 -1 -1782 -2483)">
		<stop  offset="0" style="stop-color:#FFFFFF"/>
		<stop  offset="0.5" style="stop-color:#FFFFFF;stop-opacity:0.6"/>
		<stop  offset="1" style="stop-color:#FFFFFF;stop-opacity:0.15"/>
	</linearGradient>
	<path id="path36_1_" fill="url(#path36_2_)" d="M4.614,7.181C4.955,6.476,5.37,5.815,5.847,5.204L4.979,3.301
		C4.238,4.002,3.636,4.774,3.156,5.524L4.614,7.181z"/>
	
		<linearGradient id="path45_2_" gradientUnits="userSpaceOnUse" x1="1786.8644" y1="-2483.2158" x2="1788.8585" y2="-2486.6699" gradientTransform="matrix(1 0 0 -1 -1782 -2483)">
		<stop  offset="0" style="stop-color:#FFFFFF"/>
		<stop  offset="0.5" style="stop-color:#FFFFFF;stop-opacity:0.6"/>
		<stop  offset="1" style="stop-color:#FFFFFF;stop-opacity:0.15"/>
	</linearGradient>
	<path id="path45_1_" fill="url(#path45_2_)" d="M4.704,1.472l0.454,0.994c0.437-0.362,0.915-0.487,1.437-0.994H4.704z"/>
	
		<linearGradient id="path54_2_" gradientUnits="userSpaceOnUse" x1="1787.4919" y1="-2482.5596" x2="1789.9285" y2="-2486.78" gradientTransform="matrix(1 0 0 -1 -1782 -2483)">
		<stop  offset="0" style="stop-color:#FFFFFF"/>
		<stop  offset="0.5" style="stop-color:#FFFFFF;stop-opacity:0.6"/>
		<stop  offset="1" style="stop-color:#FFFFFF;stop-opacity:0.15"/>
	</linearGradient>
	<path id="path54_1_" fill="url(#path54_2_)" d="M8.109,1.472H7.75C6.845,1.979,6.054,2.366,5.375,2.944l0.832,1.825
		c0.711-0.821,1.535-1.54,2.459-2.121c0.007-0.006,0.012-0.012,0.02-0.019C9.719,1.735,8.692,1.472,8.109,1.472z"/>
	
		<linearGradient id="path63_2_" gradientUnits="userSpaceOnUse" x1="1782.3921" y1="-2486.4119" x2="1785.0363" y2="-2490.9917" gradientTransform="matrix(1 0 0 -1 -1782 -2483)">
		<stop  offset="0" style="stop-color:#FFFFFF"/>
		<stop  offset="0.5" style="stop-color:#FFFFFF;stop-opacity:0.6"/>
		<stop  offset="1" style="stop-color:#FFFFFF;stop-opacity:0.15"/>
	</linearGradient>
	<path id="path63_1_" fill="url(#path63_2_)" d="M2.88,5.976C2.323,6.924,1.96,7.799,1.744,8.398C2,8.763,2.422,9.002,2.901,9.002
		c0.593,0,1.1-0.366,1.31-0.884C4.265,7.973,4.33,7.834,4.39,7.692L2.88,5.976z"/>
	
		<linearGradient id="path72_2_" gradientUnits="userSpaceOnUse" x1="1782.2728" y1="-2486.5994" x2="1785.2032" y2="-2491.6753" gradientTransform="matrix(1 0 0 -1 -1782 -2483)">
		<stop  offset="0" style="stop-color:#FFFFFF"/>
		<stop  offset="0.5" style="stop-color:#FFFFFF;stop-opacity:0.6"/>
		<stop  offset="1" style="stop-color:#FFFFFF;stop-opacity:0.15"/>
	</linearGradient>
	<path id="path72_1_" fill="url(#path72_2_)" d="M1.498,4.404L1.487,7.586c0,0,0,0.001,0,0.002c0,0.02,0.005,0.039,0.006,0.058
		c0.242-0.589,0.58-1.308,1.038-2.068L1.498,4.404z"/>
	
		<linearGradient id="path149_2_" gradientUnits="userSpaceOnUse" x1="1784.4886" y1="-2485.0103" x2="1787.2404" y2="-2489.7761" gradientTransform="matrix(1 0 0 -1 -1782 -2483)">
		<stop  offset="0" style="stop-color:#FFFFFF"/>
		<stop  offset="0.5" style="stop-color:#FFFFFF;stop-opacity:0.6"/>
		<stop  offset="1" style="stop-color:#FFFFFF;stop-opacity:0.15"/>
	</linearGradient>
	<path id="path149_1_" fill="url(#path149_2_)" d="M4.1,1.478C3.066,1.392,1.705,2.557,1.53,3.673l1.283,1.459
		C3.325,4.351,3.962,3.55,4.747,2.827L4.1,1.478z"/>
</g>
<g>
	<g>
		
			<rect x="4.032" y="3.935" transform="matrix(-0.986 0.1666 -0.1666 -0.986 17.281 14.4278)" opacity="0.5" fill="#669CCC" enable-background="new    " width="8.007" height="8.007"/>
		
			<rect x="4.163" y="3.75" transform="matrix(-0.986 0.1666 -0.1666 -0.986 17.5108 14.0387)" opacity="0.2" fill="#669CCC" enable-background="new    " width="8.007" height="8.007"/>
		
			<rect x="4.294" y="3.566" transform="matrix(-0.986 0.1666 -0.1666 -0.986 17.7409 13.6506)" opacity="0.1" fill="#669CCC" enable-background="new    " width="8.007" height="8.007"/>
	</g>
	
		<rect x="4.105" y="4.092" transform="matrix(-0.986 0.1666 -0.1666 -0.986 17.1135 13.5539)" fill="#FFFFFF" width="7.767" height="6.806"/>
</g>
<g>
	<g>
		
			<rect x="11.108" y="3.771" transform="matrix(-0.9967 0.0814 -0.0814 -0.9967 30.8075 14.2934)" opacity="0.5" fill="#669CCC" enable-background="new    " width="8.008" height="8.008"/>
		
			<rect x="11.255" y="3.598" transform="matrix(-0.9967 0.0814 -0.0814 -0.9967 31.0865 13.9367)" opacity="0.2" fill="#669CCC" enable-background="new    " width="8.008" height="8.008"/>
		
			<rect x="11.402" y="3.425" transform="matrix(-0.9967 0.0814 -0.0814 -0.9967 31.3646 13.58)" opacity="0.1" fill="#669CCC" enable-background="new    " width="8.008" height="8.008"/>
	</g>
	
		<rect x="11.226" y="3.926" transform="matrix(-0.9967 0.0814 -0.0814 -0.9967 30.7657 13.4045)" fill="#FFFFFF" width="7.768" height="6.807"/>
</g>
<g>
	<g>
		
			<rect x="6.524" y="4.678" transform="matrix(-0.9995 0.0321 -0.0321 -0.9995 21.3298 17.022)" opacity="0.5" fill="#669CCC" enable-background="new    " width="8.008" height="8.008"/>
		
			<rect x="6.679" y="4.513" transform="matrix(-0.9995 0.0321 -0.0321 -0.9995 21.634 16.6869)" opacity="0.2" fill="#669CCC" enable-background="new    " width="8.008" height="8.008"/>
		
			<rect x="6.834" y="4.348" transform="matrix(-0.9995 0.0321 -0.0321 -0.9995 21.9392 16.3507)" opacity="0.1" fill="#669CCC" enable-background="new    " width="8.008" height="8.008"/>
	</g>
	
		<rect x="6.668" y="4.834" transform="matrix(-0.9995 0.0321 -0.0321 -0.9995 21.3626 16.1309)" fill="#FFFFFF" width="7.768" height="6.807"/>
</g>
<g>
	<g>
		
			<rect x="12.239" y="5.436" transform="matrix(-1 0.0034 -0.0034 -1 32.5175 18.8249)" opacity="0.5" fill="#669CCC" enable-background="new    " width="8.008" height="8.008"/>
		
			<rect x="12.398" y="5.276" transform="matrix(-1 0.0034 -0.0034 -1 32.836 18.5036)" opacity="0.2" fill="#669CCC" enable-background="new    " width="8.008" height="8.008"/>
	</g>
	
		<rect x="12.397" y="5.592" transform="matrix(-1 0.0034 -0.0034 -1 32.5927 17.9361)" fill="#FFFFFF" width="7.767" height="6.807"/>
</g>
<g>
	<path opacity="0.05" fill="none" stroke="#000000" stroke-miterlimit="10" enable-background="new    " d="M23.02,9.276
		c0,0,0-0.97-0.958-0.97c-2.782,0-11.663,0.002-12.458,0.002c-0.966,0-0.958-0.956-0.958-0.956s0-0.963-0.958-0.963
		c-1.678,0-5.038,0-5.75,0c-0.943,0-0.958,0.928-0.958,0.957"/>
	
		<linearGradient id="SVGID_1_" gradientUnits="userSpaceOnUse" x1="1381.974" y1="-1687.967" x2="1381.974" y2="-1672.3831" gradientTransform="matrix(1 0 0 -1 -1370 -1665)">
		<stop  offset="0" style="stop-color:#D1E0ED"/>
		<stop  offset="1" style="stop-color:#E4EEFB"/>
	</linearGradient>
	<path fill="url(#SVGID_1_)" stroke="#9DBCD7" stroke-miterlimit="10" d="M3.889,22.967h16.219c1.595,0,2.833-1.326,2.833-2.92
		V9.599c0-0.227-0.34-0.441-0.792-0.441c-2.794,0-11.7,0.002-12.499,0.002c-0.97,0-0.956-0.885-0.956-0.885s0.007-0.892-0.956-0.892
		c-1.685,0-5.06,0-5.775,0c-0.948,0-0.956,0.786-0.956,0.815v11.85C1.008,21.641,2.295,22.967,3.889,22.967z"/>
	<path opacity="0.8" fill="none" stroke="#FFFFFF" stroke-miterlimit="10" enable-background="new    " d="M3.889,21.967
		c-1.037,0-1.881-0.862-1.881-1.921V8.389l5.688-0.007c0.016,0.225,0.098,0.777,0.537,1.224c0.248,0.252,0.696,0.553,1.417,0.553
		l12.291-0.001v9.889c0,1.06-0.822,1.921-1.833,1.921H3.889V21.967z"/>
</g>
<g id="Symbol">
	<path opacity="0.05" fill="#FFFFFF" enable-background="new    " d="M13.661,10.308c-0.901,0.009-1.812-0.015-2.722,0.012
		c-0.046,0-0.088,0.017-0.122,0.048c-0.088,0.09-0.156,0.091-0.298,0.079c-0.133-0.011-0.318-0.037-0.523,0.006v-0.006
		c-0.006,0-0.012,0.006-0.018,0.006c-0.007,0.002-0.011-0.002-0.018,0v0.006c-0.308,0.028-0.597,0.187-0.741,0.48l-0.006-0.006
		c-0.005,0.007-0.007,0.017-0.012,0.024c-0.313,0.484-0.656,0.963-0.96,1.47c-0.008,0.012-0.014,0.024-0.018,0.036
		c-0.071,0.208,0.012,0.41,0.128,0.534c0.114,0.122,0.254,0.201,0.365,0.261c0.002,0.001,0.004,0.005,0.006,0.006
		c0.172,0.105,0.351,0.207,0.522,0.316c-0.062-0.006-0.127-0.01-0.182-0.006c-0.159,0.011-0.3,0.038-0.401,0.031
		c-0.008,0-0.016,0-0.024,0c-0.571,0.039-1.158,0.045-1.744,0.104c-0.008,0.001-0.016,0.004-0.024,0.006
		c-0.489,0.129-0.502,0.841-0.061,1.033l-0.006,0.006c0.027,0.022,0.035,0.016,0.061,0.03c0.055,0.03,0.094,0.056,0.128,0.067
		c-0.45,0.843-0.401,1.903,0.152,2.691c0.001,0.001,0,0.005,0,0.006c0.405,0.616,0.885,1.169,1.337,1.72
		c0.034,0.039,0.082,0.061,0.134,0.061c0.153,0.008,0.222,0.058,0.328,0.152s0.231,0.236,0.431,0.352
		c0.017,0.011,0.035,0.019,0.055,0.024c0.416,0.08,0.827,0.013,1.185,0.03c0.004,0,0.008,0,0.012,0
		c0.423-0.01,0.866,0.027,1.318-0.012c0.01-0.001,0.021-0.003,0.03-0.006c0.12-0.032,0.221-0.102,0.286-0.188
		c0.064-0.087,0.094-0.182,0.109-0.273c0.01-0.06,0.004-0.1,0.006-0.158c0.247,0.437,0.481,0.882,0.759,1.312
		c0.005,0.008,0.012,0.017,0.018,0.024c0.343,0.373,0.993,0.046,0.941-0.444h0.006c0-0.015,0-0.016,0-0.03
		c0-0.079,0.005-0.131,0.006-0.164c0.005,0.001,0-0.002,0.006,0c0.018,0.005,0.036,0.007,0.055,0.006
		c0.936,0.013,1.829-0.507,2.278-1.331c0.001-0.002,0.005-0.004,0.006-0.006c0.371-0.639,0.656-1.317,0.948-1.974
		c0.017-0.043,0.017-0.091,0-0.134c-0.052-0.136-0.048-0.222-0.024-0.334c0.024-0.112,0.08-0.253,0.134-0.438
		c0.004-0.016,0.006-0.032,0.006-0.048c-0.005-0.393-0.263-0.663-0.352-0.893c-0.002-0.004-0.004-0.008-0.006-0.012
		c-0.251-0.485-0.482-0.989-0.753-1.476c-0.007-0.011-0.015-0.021-0.024-0.031c-0.127-0.144-0.316-0.196-0.474-0.176
		c-0.148,0.018-0.275,0.086-0.383,0.17l-0.006,0.006c-0.005,0.004-0.013,0.002-0.018,0.006l-0.115,0.073
		c0.247-0.437,0.495-0.871,0.735-1.312c0.002-0.008,0.005-0.016,0.006-0.024c0.187-0.491-0.443-0.957-0.851-0.626
		c-0.006,0.004-0.012,0.008-0.018,0.012c-0.048,0.048-0.043,0.046-0.042,0.048c-0.007-0.013-0.016-0.02-0.024-0.048
		c-0.004-0.015-0.011-0.029-0.018-0.042C14.861,10.843,14.374,10.313,13.661,10.308z M11.953,12.842
		c0.056,0.081,0.115,0.18,0.146,0.243c0.034,0.069,0.029,0.108,0.031,0.104c0.002-0.005,0.007,0.017-0.097,0.042
		c-0.004,0-0.008,0-0.012,0c-0.163,0.054-0.303,0.164-0.389,0.316s-0.103,0.363,0,0.541c0.127,0.214,0.355,0.279,0.541,0.286
		c0.185,0.007,0.36-0.018,0.468-0.006c0.006,0,0.012,0,0.018,0l1.082-0.006c-0.089,0.06-0.182,0.114-0.261,0.2
		c-0.007,0.009-0.013,0.02-0.018,0.03c-0.125,0.215-0.076,0.452,0.006,0.62c0.082,0.168,0.19,0.31,0.231,0.413
		c0.002,0.006,0.004,0.012,0.006,0.018l0.122,0.225c-0.034-0.022-0.056-0.053-0.097-0.067c-0.001,0,0.001-0.006,0-0.006
		c-0.002,0-0.004,0-0.006,0c-0.182-0.064-0.369-0.011-0.498,0.085c-0.124,0.093-0.202,0.221-0.255,0.353l-0.006-0.006l-0.589,1.063
		c0.001-0.168,0.016-0.324-0.012-0.498c-0.003-0.013-0.007-0.025-0.012-0.036c-0.049-0.117-0.136-0.214-0.231-0.267
		c-0.095-0.054-0.191-0.067-0.286-0.073c-0.188-0.012-0.369,0.017-0.48,0.012c-0.004,0-0.008,0-0.012,0l-0.626,0.018
		c0.048-0.023,0.098-0.038,0.14-0.079l0.006,0.006c0.004-0.004,0.002-0.009,0.006-0.012c0.152-0.145,0.186-0.358,0.146-0.522
		c-0.04-0.163-0.133-0.294-0.225-0.401h0.006c-0.003-0.005-0.009-0.008-0.012-0.012c-0.356-0.51-0.699-1.038-1.069-1.549
		c0.295,0.186,0.583,0.374,0.887,0.547c0.011,0.008,0.024,0.014,0.036,0.018c0.223,0.063,0.433-0.038,0.553-0.17
		c0.118-0.129,0.183-0.283,0.237-0.401l0.006-0.006L11.953,12.842z M14.092,16.353l0.073,0.134h-0.067
		C14.098,16.443,14.096,16.401,14.092,16.353z M10.095,16.396c0.045,0.023,0.087,0.04,0.14,0.061l-0.17,0.006L10.095,16.396z"/>
	<path opacity="0.1" fill="#FFFFFF" enable-background="new    " d="M13.663,10.482c-0.905,0.009-1.812-0.011-2.715,0.016
		c-0.264,0.27-0.595,0.034-0.941,0.126c-0.278,0.015-0.525,0.154-0.64,0.409c-0.32,0.497-0.67,0.978-0.973,1.485
		c-0.101,0.298,0.193,0.47,0.412,0.59c0.626,0.382,1.238,0.797,1.874,1.158c0.321,0.09,0.476-0.241,0.583-0.477
		c0.225-0.435,0.451-0.869,0.677-1.304c0.122,0.308,0.677,0.784,0.135,0.917c-0.239,0.079-0.435,0.347-0.293,0.593
		c0.182,0.307,0.581,0.162,0.871,0.194c0.568-0.001,1.135-0.003,1.703-0.004c-0.243,0.172-0.542,0.279-0.744,0.5
		c-0.181,0.311,0.139,0.595,0.25,0.871c0.199,0.367,0.398,0.733,0.597,1.1c-0.178,0.002-0.355,0.004-0.532,0.005
		c-0.002-0.249,0.041-0.598-0.261-0.695c-0.255-0.093-0.465,0.123-0.548,0.344c-0.304,0.546-0.609,1.092-0.913,1.638
		c-0.015-0.375,0.039-0.76-0.022-1.13c-0.144-0.341-0.554-0.207-0.839-0.22c-0.524,0.016-1.048,0.031-1.571,0.046
		c0.08-0.161,0.159-0.322,0.239-0.483c0.219,0.113,0.511,0.304,0.728,0.076c0.226-0.204,0.067-0.515-0.095-0.702
		c-0.393-0.562-0.764-1.145-1.17-1.693c-0.237-0.183-0.556-0.042-0.829-0.062c-0.577,0.039-1.159,0.048-1.734,0.105
		c-0.344,0.091-0.346,0.63-0.002,0.727c0.113,0.088,0.427,0.107,0.252,0.295c-0.434,0.789-0.397,1.799,0.124,2.538
		c0.396,0.604,0.876,1.155,1.331,1.709c0.398,0.02,0.502,0.327,0.847,0.526c0.375,0.072,0.769,0.014,1.152,0.033
		c0.436-0.011,0.876,0.021,1.308-0.016c0.349-0.094,0.263-0.502,0.274-0.775c-0.008-0.223-0.011-0.423,0.119-0.117
		c0.326,0.551,0.618,1.127,0.964,1.664c0.234,0.255,0.699,0.016,0.641-0.323c0.002-0.202-0.059-0.465,0.239-0.368
		c0.871,0.012,1.712-0.475,2.126-1.242c0.365-0.629,0.648-1.305,0.941-1.967c-0.126-0.333,0.004-0.527,0.104-0.876
		c-0.004-0.304-0.233-0.55-0.34-0.826c-0.254-0.489-0.485-0.995-0.752-1.475c-0.175-0.198-0.453-0.115-0.629,0.031
		c-0.239,0.144-0.478,0.287-0.718,0.431c0.353-0.632,0.719-1.26,1.064-1.895c0.125-0.328-0.31-0.644-0.581-0.423
		c-0.168,0.167-0.295,0.161-0.366-0.077C14.721,10.961,14.288,10.487,13.663,10.482z"/>
	<path opacity="0.2" fill="#FFFFFF" enable-background="new    " d="M13.674,10.689l-2.623,0.005c-0.064,0-0.123,0.035-0.153,0.093
		c-0.03,0.057-0.025,0.126,0.012,0.179c-0.175-0.087-0.366-0.153-0.587-0.158c-0.181-0.004-0.378,0.025-0.587,0.104
		c-0.033,0.013-0.062,0.035-0.081,0.065l-1.037,1.559C8.59,12.573,8.58,12.621,8.59,12.667c0.009,0.047,0.037,0.087,0.077,0.112
		l2.02,1.266c0.041,0.025,0.09,0.033,0.136,0.021c0.047-0.012,0.086-0.044,0.108-0.086l0.977-1.879
		c0.012-0.02,0.019-0.042,0.022-0.065c0.285,0.413,0.524,0.873,0.711,1.298l-0.603,0.326c-0.072,0.036-0.108,0.117-0.089,0.196
		c0.02,0.078,0.09,0.132,0.17,0.13l2.368-0.005c0.063,0.001,0.121-0.032,0.152-0.087l1.102-1.955
		c0.044-0.069,0.033-0.16-0.026-0.217c-0.059-0.056-0.151-0.064-0.218-0.017l-0.429,0.272l-0.287-0.505
		c-0.004-0.004-0.007-0.007-0.011-0.011c-0.128-0.192-0.257-0.37-0.429-0.51c-0.172-0.14-0.385-0.237-0.652-0.261
		C13.684,10.688,13.679,10.688,13.674,10.689z M15.949,13.48c-0.025,0.004-0.049,0.013-0.071,0.027l-2.031,1.233
		c-0.079,0.047-0.108,0.147-0.065,0.228l1.005,1.852c0.008,0.016,0.019,0.031,0.033,0.044l-1.097,0.005l-0.006-0.538
		c0.002-0.08-0.053-0.151-0.131-0.17s-0.159,0.017-0.196,0.089l-1.086,1.944c-0.029,0.052-0.029,0.116,0,0.168l1.086,1.911
		c0.037,0.073,0.12,0.11,0.198,0.088c0.079-0.021,0.132-0.094,0.128-0.175l0.005-0.614h0.353c0.896,0,1.458-0.339,1.857-0.88
		c0.399-0.541,0.667-1.266,1.075-2.102c0.034-0.068,0.021-0.151-0.034-0.203c-0.055-0.053-0.138-0.063-0.204-0.025
		c0.208-0.219,0.376-0.47,0.358-0.749c-0.003-0.023-0.01-0.045-0.022-0.065l-0.988-1.971C16.087,13.513,16.02,13.475,15.949,13.48z
		 M9.215,13.958l-2.2,0.12c-0.077,0.006-0.141,0.062-0.156,0.138c-0.016,0.076,0.022,0.153,0.091,0.188l0.554,0.277l-0.158,0.32
		c-0.399,0.802-0.349,1.458-0.043,2.058c0.305,0.6,0.835,1.156,1.401,1.895c0.054,0.066,0.148,0.083,0.222,0.04
		C9,18.95,9.03,18.86,8.998,18.781c-0.01-0.023-0.008-0.047-0.016-0.071c0.1,0.338,0.271,0.656,0.57,0.782
		c0.021,0.009,0.042,0.015,0.065,0.016h2.2c0.047,0,0.091-0.017,0.123-0.05c0.033-0.033,0.051-0.077,0.05-0.123l0.016-2.368
		c0-0.047-0.018-0.093-0.052-0.126s-0.08-0.05-0.127-0.048l-2.319,0.07c-0.031,0.001-0.061,0.011-0.087,0.027l0.5-1.005l0.483,0.239
		c0.07,0.032,0.152,0.015,0.202-0.043c0.05-0.058,0.056-0.142,0.015-0.207l-1.254-1.841C9.334,13.983,9.276,13.955,9.215,13.958z
		 M8.9,18.226c0.006,0.12,0.025,0.243,0.055,0.364C8.923,18.469,8.895,18.35,8.9,18.226z"/>
	<path opacity="0.3" fill="#669CCC" enable-background="new    " d="M13.674,10.863l-2.623,0.005
		c0.286,0.171,0.66,0.555,0.972,0.994c0.349,0.49,0.633,1.055,0.842,1.548l-0.744,0.402l2.368-0.005l1.102-1.955l-0.587,0.369
		l-0.375-0.662C14.379,11.182,14.145,10.905,13.674,10.863z M10.318,10.982c-0.161-0.003-0.333,0.022-0.521,0.093l-1.037,1.559
		l2.02,1.265l0.977-1.879C11.458,11.605,11.013,10.996,10.318,10.982z M15.965,13.654l-2.031,1.233l1.005,1.852l0.809,0.011
		c0.473,0.005,1.236-0.652,1.205-1.124L15.965,13.654z M9.226,14.132l-2.2,0.12l0.706,0.353l-0.234,0.472
		C6.735,16.61,7.697,17.358,8.84,18.85c-0.163-0.37-0.154-0.767-0.011-1.151l1.015-2.042l0.635,0.315L9.226,14.132z M13.543,16.331
		l-1.086,1.944l1.086,1.911l0.005-0.788h0.527c1.713,0,1.949-1.195,2.775-2.884c-0.259,0.311-0.614,0.478-1.021,0.521l-2.28,0.005
		L13.543,16.331z M11.833,16.966l-2.319,0.071l-0.369,0.717c-0.215,0.421,0.037,1.396,0.472,1.58h2.2L11.833,16.966z"/>
	<path opacity="0.3" fill="#669CCC" enable-background="new    " d="M13.674,10.863l-2.623,0.005
		c0.286,0.171,0.66,0.555,0.972,0.994c0.349,0.49,0.633,1.055,0.842,1.548l-0.744,0.402l2.368-0.005l1.102-1.955l-0.587,0.369
		l-0.375-0.662C14.379,11.182,14.145,10.905,13.674,10.863z M10.318,10.982c-0.161-0.003-0.333,0.022-0.521,0.093l-1.037,1.559
		l2.02,1.265l0.977-1.879C11.458,11.605,11.013,10.996,10.318,10.982z M13.646,11.194c0.177,0.016,0.276,0.062,0.38,0.146
		c0.104,0.085,0.207,0.222,0.326,0.402l0.364,0.641c0.03,0.052,0.073,0.095,0.125,0.125l-0.549,0.967L13.19,13.48
		c0.014-0.068,0.006-0.138-0.022-0.201c-0.215-0.508-0.504-1.088-0.874-1.607c-0.123-0.173-0.258-0.323-0.391-0.472L13.646,11.194z
		 M10.312,11.313c0.441,0.009,0.77,0.382,1.048,0.749l-0.706,1.363l-1.428-0.891l0.776-1.168
		C10.111,11.337,10.219,11.312,10.312,11.313z M15.965,13.654l-2.031,1.233l1.005,1.852l0.809,0.011
		c0.473,0.005,1.236-0.652,1.205-1.124L15.965,13.654z M15.83,14.126l0.782,1.553c-0.014,0.073-0.107,0.272-0.293,0.44
		c-0.204,0.184-0.484,0.3-0.565,0.299l-0.614-0.011l-0.76-1.401L15.83,14.126z M9.226,14.132l-2.2,0.12l0.706,0.353l-0.234,0.472
		c-0.764,1.533,0.198,2.282,1.341,3.774c-0.163-0.371-0.154-0.767-0.011-1.151l1.015-2.042l0.635,0.315L9.226,14.132z M9.063,14.474
		l0.614,0.901c-0.056,0.032-0.101,0.079-0.131,0.136l-1.015,2.041c-0.004,0.011-0.008,0.022-0.011,0.033
		c-0.032,0.086-0.029,0.177-0.049,0.266c-0.303-0.378-0.569-0.719-0.723-1.021c-0.254-0.499-0.298-0.909,0.049-1.607l0.233-0.472
		c0.034-0.069,0.044-0.147,0.027-0.223L9.063,14.474z M13.543,16.331l-1.086,1.944l1.086,1.911l0.005-0.788h0.527
		c1.713,0,1.949-1.195,2.775-2.884c-0.259,0.311-0.614,0.478-1.021,0.521l-2.28,0.005L13.543,16.331z M11.833,16.966l-2.319,0.071
		l-0.369,0.717c-0.215,0.421,0.037,1.396,0.472,1.58h2.2L11.833,16.966z M16.122,17.292c-0.202,0.439-0.391,0.83-0.591,1.102
		c-0.332,0.449-0.676,0.673-1.455,0.673h-0.527c-0.08,0-0.157,0.029-0.217,0.081l-0.494-0.874l0.532-0.956
		c0.053,0.035,0.115,0.054,0.179,0.055l2.28-0.005c0.011,0,0.022,0,0.033,0C15.953,17.358,16.034,17.313,16.122,17.292z
		 M11.501,17.308l-0.016,1.694H9.726c-0.059-0.046-0.203-0.22-0.272-0.462c-0.075-0.264-0.053-0.564-0.016-0.635l0.282-0.543
		L11.501,17.308z"/>
	<path opacity="0.3" fill="#669CCC" enable-background="new    " d="M13.674,10.863l-2.623,0.005
		c0.286,0.171,0.66,0.555,0.972,0.994c0.349,0.49,0.633,1.055,0.842,1.548l-0.744,0.402l2.368-0.005l1.102-1.955l-0.587,0.369
		l-0.375-0.662C14.379,11.182,14.145,10.905,13.674,10.863z M10.318,10.982c-0.161-0.003-0.333,0.022-0.521,0.093l-1.037,1.559
		l2.02,1.265l0.977-1.879C11.458,11.605,11.013,10.996,10.318,10.982z M13.658,11.031c0.206,0.018,0.342,0.082,0.467,0.184
		c0.123,0.101,0.239,0.245,0.359,0.423l0.005,0.011l0.369,0.652c0.022,0.041,0.06,0.072,0.105,0.084
		c0.045,0.012,0.093,0.006,0.133-0.018l0.016-0.011l-0.722,1.282l-1.591,0.005l0.147-0.081c0.078-0.042,0.111-0.136,0.076-0.217
		c-0.213-0.501-0.498-1.076-0.858-1.58c-0.203-0.285-0.427-0.524-0.646-0.728L13.658,11.031z M10.312,11.15
		c0.561,0.011,0.945,0.489,1.238,0.891l-0.836,1.613l-1.716-1.075L9.9,11.227C10.05,11.176,10.185,11.148,10.312,11.15z
		 M15.965,13.654l-2.031,1.233l1.005,1.852l0.809,0.011c0.473,0.005,1.236-0.652,1.205-1.124L15.965,13.654z M15.895,13.893
		l0.885,1.765c-0.002,0.143-0.137,0.386-0.353,0.581c-0.224,0.203-0.523,0.343-0.679,0.342l-0.706-0.011l-0.88-1.624L15.895,13.893z
		 M9.226,14.132l-2.2,0.12l0.706,0.353l-0.234,0.472C6.735,16.61,7.697,17.358,8.84,18.85c-0.163-0.37-0.154-0.767-0.011-1.151
		l1.015-2.042l0.635,0.315L9.226,14.132z M9.139,14.305l0.831,1.227l-0.049-0.027c-0.084-0.041-0.186-0.008-0.228,0.076
		l-1.015,2.042c-0.002,0.005-0.004,0.011-0.005,0.016c-0.071,0.19-0.107,0.385-0.114,0.581c-0.394-0.489-0.751-0.928-0.95-1.32
		c-0.271-0.531-0.32-1.017,0.044-1.749l0.233-0.472c0.041-0.084,0.007-0.186-0.076-0.228l-0.136-0.065L9.139,14.305z M13.543,16.331
		l-1.086,1.944l1.086,1.911l0.005-0.788h0.527c1.713,0,1.949-1.195,2.775-2.884c-0.259,0.311-0.614,0.478-1.021,0.521l-2.28,0.005
		L13.543,16.331z M11.833,16.966l-2.319,0.071l-0.369,0.717c-0.215,0.421,0.037,1.396,0.472,1.58h2.2L11.833,16.966z M13.38,16.966
		v0.076c0.001,0.093,0.076,0.167,0.168,0.168l2.28-0.005c0.005,0,0.011,0,0.016,0c0.202-0.022,0.392-0.081,0.57-0.163
		c-0.264,0.575-0.498,1.089-0.76,1.444c-0.353,0.478-0.763,0.743-1.58,0.744h-0.527c-0.093,0.001-0.167,0.076-0.168,0.168v0.152
		l-0.728-1.282L13.38,16.966z M11.665,17.14l-0.016,2.025H9.672c-0.128-0.063-0.289-0.298-0.369-0.581
		c-0.082-0.291-0.076-0.616-0.005-0.755l0.326-0.63L11.665,17.14z"/>
</g>
</svg>
