<?xml version="1.0" encoding="utf-8"?>
<!-- Generator: Adobe Illustrator 17.0.0, SVG Export Plug-In . SVG Version: 6.00 Build 0)  -->
<!DOCTYPE svg PUBLIC "-//W3C//DTD SVG 1.1//EN" "http://www.w3.org/Graphics/SVG/1.1/DTD/svg11.dtd">
<svg version="1.1" id="图层_1" xmlns="http://www.w3.org/2000/svg" xmlns:xlink="http://www.w3.org/1999/xlink" x="0px" y="0px"
	 width="32px" height="32px" viewBox="0 0 32 32" enable-background="new 0 0 32 32" xml:space="preserve">
<g>
	<g id="g151" opacity="0.5">
		<path id="path153" opacity="0.08" enable-background="new    " d="M27.059,29.57H4.96c-2.035,0-3.693-1.595-3.693-3.549v2.714
			c0,1.527,1.297,2.764,2.886,2.764h23.711c1.589,0,2.868-1.238,2.868-2.764v-2.714C30.733,27.977,29.093,29.57,27.059,29.57z"/>
		<path id="path155" opacity="0.1" enable-background="new    " d="M27.04,29.57H4.941c-2.034,0-3.674-1.566-3.674-3.519v1.42
			c0,1.527,0.7,3.387,3.538,3.387s19.496,0,22.371,0s3.557-1.86,3.557-3.387v-1.42C30.733,28.006,29.074,29.57,27.04,29.57z"/>
		<path id="path157" opacity="0.1" enable-background="new    " d="M27.04,29.57H4.941c-2.034,0-3.674-1.566-3.674-3.519v0.766
			c0,1.527,1.215,3.397,3.538,3.397s19.711,0,22.371,0s3.557-1.87,3.557-3.396v-0.766C30.733,28.006,29.074,29.57,27.04,29.57z"/>
		<rect id="rect159" x="4.615" y="29.57" opacity="0.05" enable-background="new    " width="22.769" height="0.643"/>
		<rect id="rect161" x="5.285" y="29.57" opacity="0.05" enable-background="new    " width="20.76" height="0.643"/>
		<rect id="rect163" x="5.285" y="30.214" opacity="0.05" enable-background="new    " width="20.76" height="0.643"/>
		<rect id="rect165" x="6.624" y="30.214" opacity="0.05" enable-background="new    " width="18.751" height="0.643"/>
		<rect id="rect167" x="8.633" y="30.214" opacity="0.05" enable-background="new    " width="14.733" height="0.643"/>
		<rect id="rect169" x="11.312" y="30.214" opacity="0.05" enable-background="new    " width="9.376" height="0.643"/>
		<rect id="rect171" x="6.624" y="29.57" opacity="0.05" enable-background="new    " width="18.751" height="0.643"/>
		<rect id="rect173" x="7.964" y="29.57" opacity="0.05" enable-background="new    " width="16.072" height="0.643"/>
		<rect id="rect175" x="8.633" y="29.57" opacity="0.05" enable-background="new    " width="14.733" height="0.643"/>
		<rect id="rect177" x="9.973" y="29.57" opacity="0.05" enable-background="new    " width="12.054" height="0.643"/>
		<rect id="rect179" x="9.973" y="29.57" opacity="0.05" enable-background="new    " width="12.054" height="0.643"/>
	</g>
	<path fill="#C4DCED" stroke="#9DBCD7" stroke-miterlimit="10" d="M30.466,25.625c0,2.104-1.706,3.809-3.809,3.809H5.342
		c-2.104,0-3.809-1.706-3.809-3.809V4.309c0-2.104,1.706-3.809,3.809-3.809h21.316c2.104,0,3.809,1.706,3.809,3.809L30.466,25.625
		L30.466,25.625z"/>
	<path opacity="0.6" fill="none" stroke="#FFFFFF" stroke-miterlimit="10" enable-background="new    " d="M5.342,28.434
		c-1.549,0-2.809-1.261-2.809-2.81V4.309c0-1.549,1.26-2.809,2.809-2.809h21.316c1.549,0,2.809,1.26,2.809,2.809v21.315
		c0,1.549-1.261,2.81-2.81,2.81C26.657,28.435,5.342,28.435,5.342,28.434z"/>
	<path opacity="0.05" fill="none" stroke="#000000" stroke-miterlimit="10" enable-background="new    " d="M30.569,8.482
		c0,0,0-1.28-1.264-1.28c-3.669,0-15.386,0.002-16.434,0.002c-1.275,0-1.264-1.262-1.264-1.262s0-1.27-1.264-1.27
		c-2.213,0-6.645,0-7.585,0c-1.245,0-1.264,1.224-1.264,1.263"/>
	
		<linearGradient id="SVGID_1_" gradientUnits="userSpaceOnUse" x1="1659.9995" y1="2114.4331" x2="1659.9995" y2="2090.5759" gradientTransform="matrix(1 0 0 1 -1644 -2085)">
		<stop  offset="0" style="stop-color:#D1E0ED"/>
		<stop  offset="1" style="stop-color:#E4EEFB"/>
	</linearGradient>
	<path fill="url(#SVGID_1_)" stroke="#9DBCD7" stroke-miterlimit="10" d="M5.334,29.433h21.395c2.104,0,3.738-1.749,3.738-3.853V8.5
		c0-0.3-0.448-0.582-1.045-0.582c-3.685,0-15.435,0.002-16.488,0.002c-1.28,0-1.261-1.168-1.261-1.168s0.009-1.176-1.261-1.176
		c-2.222,0-6.674,0-7.618,0c-1.25,0-1.262,1.036-1.262,1.075v18.93C1.533,27.684,3.23,29.433,5.334,29.433z"/>
	<path opacity="0.8" fill="none" stroke="#FFFFFF" stroke-miterlimit="10" enable-background="new    " d="M5.333,28.434
		c-1.544,0-2.8-1.279-2.801-2.853V6.651c0.031-0.045,0.105-0.075,0.261-0.075h7.618c0.144,0,0.202,0.029,0.21,0.037
		c0.028,0.029,0.051,0.131,0.051,0.132c-0.002,0.142,0.016,0.928,0.618,1.541c0.285,0.29,0.8,0.634,1.642,0.634
		c0,0,16.519-0.001,16.533-0.001v16.662c0,1.573-1.229,2.853-2.738,2.853C26.727,28.435,5.333,28.435,5.333,28.434z"/>
	<g id="g27_1_">
		
			<linearGradient id="path36_2_" gradientUnits="userSpaceOnUse" x1="2058.7556" y1="2903.4534" x2="2062.7754" y2="2910.4158" gradientTransform="matrix(1 0 0 1 -2056 -2903)">
			<stop  offset="0" style="stop-color:#FFFFFF"/>
			<stop  offset="0.5" style="stop-color:#FFFFFF;stop-opacity:0.6"/>
			<stop  offset="1" style="stop-color:#FFFFFF;stop-opacity:0.15"/>
		</linearGradient>
		<path id="path36_1_" fill="url(#path36_2_)" d="M6.07,8.598c0.449-0.93,0.998-1.802,1.627-2.607L6.552,3.48
			C5.574,4.404,4.781,5.424,4.147,6.412L6.07,8.598z"/>
		
			<linearGradient id="path45_2_" gradientUnits="userSpaceOnUse" x1="2062.4001" y1="2902.4111" x2="2065.0308" y2="2906.9675" gradientTransform="matrix(1 0 0 1 -2056 -2903)">
			<stop  offset="0" style="stop-color:#FFFFFF"/>
			<stop  offset="0.5" style="stop-color:#FFFFFF;stop-opacity:0.6"/>
			<stop  offset="1" style="stop-color:#FFFFFF;stop-opacity:0.15"/>
		</linearGradient>
		<path id="path45_1_" fill="url(#path45_2_)" d="M6.189,1.067l0.598,1.311C7.363,1.9,7.994,1.736,8.682,1.067H6.189z"/>
		
			<linearGradient id="path54_2_" gradientUnits="userSpaceOnUse" x1="2063.2278" y1="2901.5459" x2="2066.4419" y2="2907.113" gradientTransform="matrix(1 0 0 1 -2056 -2903)">
			<stop  offset="0" style="stop-color:#FFFFFF"/>
			<stop  offset="0.5" style="stop-color:#FFFFFF;stop-opacity:0.6"/>
			<stop  offset="1" style="stop-color:#FFFFFF;stop-opacity:0.15"/>
		</linearGradient>
		<path id="path54_1_" fill="url(#path54_2_)" d="M10.68,1.067h-0.473c-1.194,0.669-2.238,1.18-3.133,1.942l1.097,2.408
			c0.937-1.083,2.025-2.032,3.243-2.798c0.009-0.008,0.016-0.016,0.026-0.024C12.804,1.416,11.449,1.067,10.68,1.067z"/>
		
			<linearGradient id="path63_2_" gradientUnits="userSpaceOnUse" x1="2056.499" y1="2906.6277" x2="2059.9873" y2="2912.6692" gradientTransform="matrix(1 0 0 1 -2056 -2903)">
			<stop  offset="0" style="stop-color:#FFFFFF"/>
			<stop  offset="0.5" style="stop-color:#FFFFFF;stop-opacity:0.6"/>
			<stop  offset="1" style="stop-color:#FFFFFF;stop-opacity:0.15"/>
		</linearGradient>
		<path id="path63_1_" fill="url(#path63_2_)" d="M3.782,7.01c-0.734,1.25-1.214,2.405-1.499,3.195
			c0.337,0.481,0.894,0.797,1.526,0.797c0.783,0,1.451-0.483,1.727-1.167c0.071-0.191,0.157-0.374,0.236-0.562L3.782,7.01z"/>
		
			<linearGradient id="path72_2_" gradientUnits="userSpaceOnUse" x1="2056.3423" y1="2906.8752" x2="2060.208" y2="2913.5708" gradientTransform="matrix(1 0 0 1 -2056 -2903)">
			<stop  offset="0" style="stop-color:#FFFFFF"/>
			<stop  offset="0.5" style="stop-color:#FFFFFF;stop-opacity:0.6"/>
			<stop  offset="1" style="stop-color:#FFFFFF;stop-opacity:0.15"/>
		</linearGradient>
		<path id="path72_1_" fill="url(#path72_2_)" d="M1.959,4.937L1.945,9.135c0,0,0,0.001,0,0.003c0,0.026,0.006,0.051,0.008,0.077
			C2.272,8.438,2.718,7.49,3.322,6.486L1.959,4.937z"/>
		
			<linearGradient id="path149_2_" gradientUnits="userSpaceOnUse" x1="2059.2656" y1="2904.7783" x2="2062.8953" y2="2911.0654" gradientTransform="matrix(1 0 0 1 -2056 -2903)">
			<stop  offset="0" style="stop-color:#FFFFFF"/>
			<stop  offset="0.5" style="stop-color:#FFFFFF;stop-opacity:0.6"/>
			<stop  offset="1" style="stop-color:#FFFFFF;stop-opacity:0.15"/>
		</linearGradient>
		<path id="path149_1_" fill="url(#path149_2_)" d="M5.391,1.076c-1.364-0.113-3.16,1.423-3.39,2.896l1.692,1.924
			c0.675-1.031,1.515-2.087,2.552-3.04L5.391,1.076z"/>
	</g>
	
		<radialGradient id="SVGID_2_" cx="2232.0598" cy="-1615.4509" r="22.6588" gradientTransform="matrix(0.0197 0.9998 -0.9109 0.018 -1500.4954 -2191.4663)" gradientUnits="userSpaceOnUse">
		<stop  offset="0" style="stop-color:#FFFFFF;stop-opacity:0.6"/>
		<stop  offset="0.3783" style="stop-color:#FAFCFE;stop-opacity:0.4487"/>
		<stop  offset="0.829" style="stop-color:#EBF3FC;stop-opacity:0.2684"/>
		<stop  offset="1" style="stop-color:#E4EEFB;stop-opacity:0.2"/>
	</radialGradient>
	<path fill="url(#SVGID_2_)" d="M5.582,28.655c-1.774,0-3.216-1.465-3.216-3.267V6.9c0-0.023,0.004-0.221,0.151-0.369
		c0.123-0.123,0.32-0.186,0.585-0.186h7.441c0.294,0,0.443,0.035,0.532,0.125c0.198,0.199,0.206,0.501,0.206,0.505
		c-0.001,0.065,0.003,0.712,0.482,1.198c0.305,0.31,0.724,0.467,1.244,0.467c0,0,13.755-0.005,16.1-0.005
		c0.31,0,0.481,0.106,0.525,0.158v16.596c0,1.802-1.415,3.267-3.155,3.267L5.582,28.655L5.582,28.655L5.582,28.655z"/>
</g>
<g>
	<g opacity="0.3" enable-background="new    ">
		<g>
			<rect x="5.888" y="11.544" fill="#FFFFFF" width="20.224" height="12.455"/>
		</g>
		<g>
			<rect x="5.888" y="11.002" fill="#669CCC" width="20.224" height="12.455"/>
		</g>
	</g>
	<path opacity="0.3" fill="#669CCC" enable-background="new    " d="M5.888,11.002v12.455h20.224V11.002H5.888z M25.978,23.323
		H6.022V11.136h19.955L25.978,23.323L25.978,23.323z"/>
	<path opacity="0.3" fill="#669CCC" enable-background="new    " d="M5.888,11.002v12.455h20.224V11.002H5.888z M25.844,23.19H6.156
		V11.27h19.688V23.19z"/>
	<rect x="21.96" y="11.002" opacity="0.3" fill="#669CCC" enable-background="new    " width="4.152" height="12.455"/>
	<path opacity="0.3" fill="#669CCC" enable-background="new    " d="M21.96,11.002v12.455h4.152V11.002H21.96z M25.844,23.19h-3.616
		V11.27h3.616L25.844,23.19L25.844,23.19z"/>
	<polygon opacity="0.3" fill="#669CCC" enable-background="new    " points="20.561,22.498 11.439,22.498 11.171,23.457 
		20.829,23.457 	"/>
	<rect x="21.96" y="11.002" opacity="0.3" fill="#669CCC" enable-background="new    " width="0.134" height="12.455"/>
	<rect x="22.027" y="12.241" opacity="0.3" fill="#669CCC" enable-background="new    " width="4.085" height="0.134"/>
	<path opacity="0.3" fill="#669CCC" enable-background="new    " d="M23.012,11.381H22.53c-0.062,0-0.114,0.051-0.114,0.114v0.482
		c0,0.062,0.051,0.114,0.114,0.114h0.482c0.062,0,0.114-0.051,0.114-0.114v-0.482C23.126,11.433,23.074,11.381,23.012,11.381z
		 M23.083,11.977c0,0.039-0.032,0.071-0.071,0.071h-0.348c0.061-0.031,0.186-0.104,0.257-0.205c0,0,0.101-0.145-0.061-0.286
		c0,0,0.042,0.066,0.043,0.131c0,0,0.011,0.087-0.066,0.141c-0.077,0.054-0.144,0.047-0.231,0.046
		c-0.071-0.001-0.127-0.022-0.146-0.031v-0.351c0-0.028,0.017-0.052,0.041-0.064c0.006,0.142,0.066,0.265,0.104,0.305
		c0.039,0.042,0.095,0.086,0.168,0.067c0.073-0.019,0.087-0.098,0.087-0.098c0.016-0.068-0.007-0.149-0.008-0.15
		c-0.001-0.002-0.012-0.004-0.012-0.004c0.012,0.107-0.016,0.155-0.016,0.155c-0.041,0.084-0.101,0.058-0.101,0.058
		c-0.067-0.034-0.064-0.13-0.064-0.13c-0.003-0.1,0.047-0.193,0.057-0.21h0.169c-0.034,0.024-0.104,0.092-0.104,0.092
		c-0.098,0.091-0.079,0.168-0.079,0.168c0.016,0.081,0.064,0.026,0.064,0.026c0.051-0.053,0.047-0.159,0.047-0.159
		c-0.021,0.004-0.034,0.015-0.034,0.015c-0.002,0.071-0.044,0.114-0.044,0.114c-0.016,0.017-0.027,0.001-0.027,0.001
		c-0.008-0.012,0.008-0.022,0.008-0.022c0.024-0.021,0.031-0.056,0.031-0.07c-0.001-0.013,0.007-0.017,0.007-0.017
		c0.034-0.026,0.067-0.041,0.067-0.041c0.045-0.023,0.125-0.027,0.125-0.027c0.051,0.002,0.096-0.006,0.096-0.006l0.042-0.007
		c0,0.001,0.001,0.002,0.001,0.004L23.083,11.977L23.083,11.977L23.083,11.977z"/>
	<g opacity="0.3">
		<path opacity="0.5" fill="#669CCC" enable-background="new    " d="M23.038,11.482c-0.001,0-0.036,0.006-0.079,0.006
			c-0.004,0-0.009,0-0.013-0.001c-0.005,0.001-0.086,0.004-0.133,0.029c-0.001,0.001-0.008,0.004-0.019,0.01
			c0.009-0.009,0.07-0.069,0.1-0.089l0.046-0.031h-0.233l-0.005,0.008c-0.011,0.018-0.063,0.114-0.059,0.218
			c-0.001,0.003-0.002,0.106,0.073,0.145c0.002,0.001,0.013,0.006,0.029,0.006c0.022,0,0.064-0.009,0.094-0.071
			c0.001-0.001,0.002-0.004,0.005-0.011c-0.001,0.007-0.016,0.071-0.075,0.085c-0.01,0.002-0.02,0.004-0.03,0.004
			c-0.041,0-0.081-0.022-0.122-0.066c-0.036-0.039-0.093-0.16-0.099-0.295l-0.001-0.026l-0.023,0.011
			c-0.031,0.014-0.051,0.046-0.051,0.079v0.362l0.011,0.004c0.022,0.009,0.08,0.031,0.153,0.032l0.019,0.001
			c0.014,0.001,0.027,0.001,0.041,0.001c0.067,0,0.122-0.008,0.182-0.051c0.084-0.059,0.074-0.153,0.073-0.156
			c-0.001-0.011-0.001-0.022-0.004-0.032c0.046,0.096-0.007,0.175-0.009,0.178c-0.068,0.095-0.187,0.166-0.251,0.199l-0.062,0.032
			h0.419c0.049,0,0.088-0.039,0.088-0.088v-0.482c0-0.002-0.001-0.003-0.001-0.004l-0.002-0.017l-0.017,0.001L23.038,11.482z
			 M23.083,11.494v0.482c0,0.039-0.032,0.071-0.071,0.071h-0.348c0.061-0.031,0.186-0.104,0.257-0.205c0,0,0.101-0.145-0.061-0.286
			c0,0,0.042,0.066,0.043,0.131c0,0,0.011,0.087-0.066,0.141c-0.077,0.054-0.144,0.047-0.231,0.046
			c-0.071-0.001-0.127-0.022-0.146-0.031v-0.35c0-0.028,0.017-0.052,0.041-0.064c0.006,0.142,0.066,0.265,0.104,0.305
			c0.039,0.042,0.095,0.086,0.168,0.067c0.073-0.019,0.087-0.098,0.087-0.098c0.016-0.068-0.007-0.149-0.008-0.15
			c-0.001-0.002-0.012-0.004-0.012-0.004c0.012,0.107-0.016,0.155-0.016,0.155c-0.041,0.084-0.101,0.058-0.101,0.058
			c-0.067-0.034-0.064-0.13-0.064-0.13c-0.003-0.1,0.047-0.193,0.057-0.21h0.169c-0.034,0.024-0.104,0.092-0.104,0.092
			c-0.098,0.091-0.079,0.168-0.079,0.168c0.016,0.081,0.064,0.026,0.064,0.026c0.051-0.053,0.047-0.159,0.047-0.159
			c-0.021,0.004-0.034,0.015-0.034,0.015c-0.002,0.071-0.044,0.114-0.044,0.114c-0.016,0.017-0.027,0.001-0.027,0.001
			c-0.008-0.012,0.008-0.022,0.008-0.022c0.024-0.021,0.031-0.056,0.031-0.07c-0.001-0.013,0.007-0.017,0.007-0.017
			c0.034-0.026,0.067-0.041,0.067-0.041c0.045-0.023,0.125-0.027,0.125-0.027c0.051,0.002,0.096-0.006,0.096-0.006l0.042-0.007
			C23.083,11.492,23.083,11.494,23.083,11.494z M22.725,11.706c0.006-0.001,0.014-0.004,0.022-0.013
			c0.002-0.002,0.042-0.046,0.047-0.117l0,0c-0.002,0.032-0.01,0.09-0.042,0.123c-0.005,0.006-0.014,0.012-0.021,0.012
			C22.73,11.711,22.728,11.71,22.725,11.706z"/>
		<path opacity="0.5" fill="#669CCC" enable-background="new    " d="M23.012,11.381H22.53c-0.062,0-0.114,0.051-0.114,0.114v0.482
			c0,0.062,0.051,0.114,0.114,0.114h0.482c0.062,0,0.114-0.051,0.114-0.114v-0.482C23.126,11.433,23.074,11.381,23.012,11.381z
			 M23.108,11.977c0,0.053-0.043,0.097-0.097,0.097h-0.482c-0.053,0-0.097-0.043-0.097-0.097v-0.482
			c0-0.053,0.043-0.097,0.097-0.097h0.482c0.053,0,0.097,0.043,0.097,0.097V11.977z"/>
	</g>
	<g opacity="0.3">
		<path opacity="0.5" fill="#669CCC" enable-background="new    " d="M22.699,11.675c0.002-0.03,0.016-0.084,0.08-0.144
			c0,0,0.069-0.069,0.104-0.092h-0.021c-0.036,0.029-0.083,0.076-0.083,0.076C22.701,11.589,22.698,11.653,22.699,11.675z"/>
		<path opacity="0.5" fill="#669CCC" enable-background="new    " d="M22.86,11.558c0,0,0.007,0.012,0.017,0.031
			c0.056,0.054,0.073,0.109,0.075,0.154C22.954,11.691,22.936,11.625,22.86,11.558z"/>
		<path opacity="0.5" fill="#669CCC" enable-background="new    " d="M22.85,11.554c-0.001-0.002-0.012-0.004-0.012-0.004
			c0.001,0.006,0.001,0.011,0.001,0.016c0.003,0.001,0.009,0.002,0.011,0.003c0.001,0.001,0.012,0.041,0.014,0.089
			C22.865,11.605,22.851,11.556,22.85,11.554z"/>
		<path opacity="0.5" fill="#669CCC" enable-background="new    " d="M22.657,11.631c0,0.001,0,0.002,0,0.003v-0.001
			C22.656,11.633,22.657,11.631,22.657,11.631z"/>
		<path opacity="0.5" fill="#669CCC" enable-background="new    " d="M22.735,11.681c-0.014,0.016-0.024,0.005-0.027,0.002
			c-0.003,0.004-0.004,0.009-0.001,0.015c0,0,0.011,0.017,0.027-0.001c0,0,0.041-0.044,0.044-0.114c0,0,0.013-0.011,0.034-0.015
			c0.001-0.009,0.001-0.016,0.001-0.016c-0.001,0-0.001,0-0.001,0c-0.007,0.004-0.019,0.011-0.034,0.019
			C22.774,11.639,22.735,11.681,22.735,11.681z"/>
		<path opacity="0.5" fill="#669CCC" enable-background="new    " d="M23.012,11.381H22.53c-0.062,0-0.114,0.051-0.114,0.114v0.016
			c0-0.062,0.051-0.114,0.114-0.114h0.482c0.062,0,0.114,0.051,0.114,0.114v-0.016C23.126,11.433,23.074,11.381,23.012,11.381z"/>
		<path opacity="0.5" fill="#669CCC" enable-background="new    " d="M22.605,11.892c0.088,0.002,0.155,0.007,0.231-0.046
			c0.069-0.048,0.067-0.123,0.067-0.138c-0.001,0.029-0.012,0.084-0.067,0.122c-0.077,0.054-0.144,0.047-0.231,0.046
			c-0.071-0.001-0.127-0.022-0.146-0.031v0.016C22.478,11.87,22.535,11.891,22.605,11.892z"/>
		<path opacity="0.5" fill="#669CCC" enable-background="new    " d="M22.721,11.779c0,0,0.06,0.026,0.101-0.058
			c0,0,0.021-0.035,0.019-0.112c-0.001,0.066-0.019,0.096-0.019,0.096c-0.041,0.084-0.101,0.058-0.101,0.058
			c-0.06-0.031-0.064-0.111-0.064-0.127c0,0.004-0.001,0.008,0,0.012C22.657,11.65,22.654,11.745,22.721,11.779z"/>
		<path opacity="0.5" fill="#669CCC" enable-background="new    " d="M23.012,12.064c0.039,0,0.071-0.032,0.071-0.071v-0.016
			c0,0.039-0.032,0.071-0.071,0.071h-0.319c-0.011,0.006-0.021,0.011-0.029,0.016H23.012z"/>
	</g>
</g>
</svg>
