<?xml version="1.0" encoding="utf-8"?>
<!-- Generator: Adobe Illustrator 17.0.0, SVG Export Plug-In . SVG Version: 6.00 Build 0)  -->
<!DOCTYPE svg PUBLIC "-//W3C//DTD SVG 1.1//EN" "http://www.w3.org/Graphics/SVG/1.1/DTD/svg11.dtd">
<svg version="1.1" id="图层_1" xmlns="http://www.w3.org/2000/svg" xmlns:xlink="http://www.w3.org/1999/xlink" x="0px" y="0px"
	 width="32px" height="32px" viewBox="0 0 32 32" enable-background="new 0 0 32 32" xml:space="preserve">
<g>
	<g id="g151" opacity="0.5">
		<path id="path153" opacity="0.08" enable-background="new    " d="M26.551,29.167H5.466c-1.941,0-3.523-1.514-3.523-3.367v2.576
			C1.943,29.826,3.18,31,4.697,31h22.624c1.516,0,2.736-1.175,2.736-2.624V25.8C30.057,27.654,28.492,29.167,26.551,29.167z"/>
		<path id="path155" opacity="0.1" enable-background="new    " d="M26.534,29.167H5.449c-1.941,0-3.506-1.486-3.506-3.34v1.348
			c0,1.449,0.669,3.214,3.376,3.214s18.601,0,21.344,0s3.394-1.765,3.394-3.214v-1.348C30.057,27.682,28.474,29.167,26.534,29.167z"
			/>
		<path id="path157" opacity="0.1" enable-background="new    " d="M26.534,29.167H5.449c-1.941,0-3.506-1.486-3.506-3.34v0.727
			c0,1.449,1.159,3.223,3.376,3.223s18.807,0,21.344,0c2.538,0,3.394-1.774,3.394-3.223v-0.727
			C30.057,27.682,28.474,29.167,26.534,29.167z"/>
		<rect id="rect159" x="5.138" y="29.167" opacity="0.05" enable-background="new    " width="21.724" height="0.61"/>
		<rect id="rect161" x="5.777" y="29.167" opacity="0.05" enable-background="new    " width="19.808" height="0.61"/>
		<rect id="rect163" x="5.777" y="29.778" opacity="0.05" enable-background="new    " width="19.808" height="0.61"/>
		<rect id="rect165" x="7.054" y="29.778" opacity="0.05" enable-background="new    " width="17.89" height="0.61"/>
		<rect id="rect167" x="8.972" y="29.778" opacity="0.05" enable-background="new    " width="14.057" height="0.61"/>
		<rect id="rect169" x="11.527" y="29.778" opacity="0.05" enable-background="new    " width="8.945" height="0.61"/>
		<rect id="rect171" x="7.054" y="29.167" opacity="0.05" enable-background="new    " width="17.89" height="0.61"/>
		<rect id="rect173" x="8.332" y="29.167" opacity="0.05" enable-background="new    " width="15.335" height="0.61"/>
		<rect id="rect175" x="8.972" y="29.167" opacity="0.05" enable-background="new    " width="14.057" height="0.61"/>
		<rect id="rect177" x="10.249" y="29.167" opacity="0.05" enable-background="new    " width="11.501" height="0.61"/>
		<rect id="rect179" x="10.249" y="29.167" opacity="0.05" enable-background="new    " width="11.501" height="0.61"/>
	</g>
	<path fill="#EBF2FB" stroke="#9DBCD7" stroke-miterlimit="10" d="M29.95,25.237c0,2.023-1.64,3.663-3.663,3.663H5.712
		c-2.023,0-3.663-1.64-3.663-3.663V4.663C2.049,2.64,3.689,1,5.712,1h20.575c2.023,0,3.663,1.64,3.663,3.663
		C29.95,4.663,29.95,25.237,29.95,25.237z"/>
	<path opacity="0.3" fill="#669CCC" enable-background="new    " d="M29.576,24.959c0,1.968-1.596,3.564-3.564,3.564H5.989
		c-1.968,0-3.564-1.596-3.564-3.564V4.939c0-1.968,1.596-3.564,3.564-3.564h20.022c1.969,0,3.565,1.596,3.565,3.564V24.959z"/>
	<g id="g27_1_">
		
			<linearGradient id="path36_2_" gradientUnits="userSpaceOnUse" x1="1785.2449" y1="-2427.8792" x2="1789.1105" y2="-2434.5745" gradientTransform="matrix(1 0 0 -1 -1782 -2427)">
			<stop  offset="0" style="stop-color:#FFFFFF"/>
			<stop  offset="0.5" style="stop-color:#FFFFFF;stop-opacity:0.6"/>
			<stop  offset="1" style="stop-color:#FFFFFF;stop-opacity:0.15"/>
		</linearGradient>
		<path id="path36_1_" fill="url(#path36_2_)" d="M6.432,8.712c0.432-0.894,0.96-1.732,1.565-2.507L6.896,3.79
			C5.956,4.679,5.193,5.66,4.583,6.609L6.432,8.712z"/>
		
			<linearGradient id="path45_2_" gradientUnits="userSpaceOnUse" x1="1788.7499" y1="-2426.8767" x2="1791.2797" y2="-2431.2585" gradientTransform="matrix(1 0 0 -1 -1782 -2427)">
			<stop  offset="0" style="stop-color:#FFFFFF"/>
			<stop  offset="0.5" style="stop-color:#FFFFFF;stop-opacity:0.6"/>
			<stop  offset="1" style="stop-color:#FFFFFF;stop-opacity:0.15"/>
		</linearGradient>
		<path id="path45_1_" fill="url(#path45_2_)" d="M6.546,1.47l0.576,1.261c0.554-0.46,1.161-0.618,1.823-1.261H6.546z"/>
		
			<linearGradient id="path54_2_" gradientUnits="userSpaceOnUse" x1="1789.5454" y1="-2426.0444" x2="1792.6364" y2="-2431.3984" gradientTransform="matrix(1 0 0 -1 -1782 -2427)">
			<stop  offset="0" style="stop-color:#FFFFFF"/>
			<stop  offset="0.5" style="stop-color:#FFFFFF;stop-opacity:0.6"/>
			<stop  offset="1" style="stop-color:#FFFFFF;stop-opacity:0.15"/>
		</linearGradient>
		<path id="path54_1_" fill="url(#path54_2_)" d="M10.865,1.47H10.41C9.262,2.113,8.258,2.604,7.397,3.337l1.055,2.315
			c0.902-1.041,1.948-1.954,3.119-2.691c0.009-0.008,0.016-0.016,0.025-0.024C12.908,1.805,11.604,1.47,10.865,1.47z"/>
		
			<linearGradient id="path63_2_" gradientUnits="userSpaceOnUse" x1="1783.0754" y1="-2430.9316" x2="1786.4298" y2="-2436.7415" gradientTransform="matrix(1 0 0 -1 -1782 -2427)">
			<stop  offset="0" style="stop-color:#FFFFFF"/>
			<stop  offset="0.5" style="stop-color:#FFFFFF;stop-opacity:0.6"/>
			<stop  offset="1" style="stop-color:#FFFFFF;stop-opacity:0.15"/>
		</linearGradient>
		<path id="path63_1_" fill="url(#path63_2_)" d="M4.231,7.184C3.525,8.385,3.064,9.497,2.79,10.256
			c0.324,0.462,0.86,0.766,1.468,0.766c0.752,0,1.395-0.465,1.661-1.122C5.987,9.716,6.07,9.541,6.146,9.36L4.231,7.184z"/>
		
			<linearGradient id="path72_2_" gradientUnits="userSpaceOnUse" x1="1782.9246" y1="-2431.1694" x2="1786.642" y2="-2437.6084" gradientTransform="matrix(1 0 0 -1 -1782 -2427)">
			<stop  offset="0" style="stop-color:#FFFFFF"/>
			<stop  offset="0.5" style="stop-color:#FFFFFF;stop-opacity:0.6"/>
			<stop  offset="1" style="stop-color:#FFFFFF;stop-opacity:0.15"/>
		</linearGradient>
		<path id="path72_1_" fill="url(#path72_2_)" d="M2.479,5.189L2.465,9.226c0,0,0,0.001,0,0.003c0,0.025,0.006,0.049,0.008,0.074
			C2.78,8.556,3.208,7.644,3.79,6.68L2.479,5.189z"/>
		
			<linearGradient id="path149_2_" gradientUnits="userSpaceOnUse" x1="1785.7355" y1="-2429.1533" x2="1789.2262" y2="-2435.1992" gradientTransform="matrix(1 0 0 -1 -1782 -2427)">
			<stop  offset="0" style="stop-color:#FFFFFF"/>
			<stop  offset="0.5" style="stop-color:#FFFFFF;stop-opacity:0.6"/>
			<stop  offset="1" style="stop-color:#FFFFFF;stop-opacity:0.15"/>
		</linearGradient>
		<path id="path149_1_" fill="url(#path149_2_)" d="M5.779,1.477c-1.311-0.109-3.037,1.369-3.26,2.784l1.627,1.85
			C4.795,5.12,5.603,4.104,6.6,3.188L5.779,1.477z"/>
	</g>
	<g>
		<path opacity="0.9" fill="#FFFFFF" enable-background="new    " d="M21.528,19.606c0,0,1.252-1.792,1.151-4.308
			c-0.1,2.183-1.151,3.683-1.151,3.683c-2.63,3.695-7.261,6.391-9.503,7.554h1.154C15.611,25.166,19.289,22.747,21.528,19.606z"/>
		<path opacity="0.9" fill="#FFFFFF" enable-background="new    " d="M13.417,13.708c0.588,2.984,2.381,0.974,2.381,0.974
			c1.892-1.967,1.743-5.88,1.743-5.88c-0.003,0-0.006,0.002-0.006,0.002c-0.044,1.185-0.311,3.771-1.739,5.251
			c0,0-1.795,2.014-2.381-0.97c0,0-0.028-0.111-0.044-0.31C13.333,13.36,13.417,13.708,13.417,13.708z"/>
		<path opacity="0.9" fill="#FFFFFF" enable-background="new    " d="M11.796,11.315c0-0.035,0-0.07,0-0.105
			C11.796,11.219,11.796,11.253,11.796,11.315z"/>
		<path opacity="0.9" fill="#FFFFFF" enable-background="new    " d="M18.542,8.785c-0.032-0.006-0.056-0.01-0.056-0.01
			c0.062,0.558,0.093,1.066,0.097,1.538C18.595,9.851,18.583,9.344,18.542,8.785z"/>
		<path opacity="0.9" fill="#FFFFFF" enable-background="new    " d="M13.918,3.456c-0.349,0.604-2.219,3.997-2.12,7.677
			c0.109-3.432,1.789-6.481,2.12-7.05h5.427c0.296-0.247,0.576-0.465,0.813-0.626L13.918,3.456L13.918,3.456z"/>
		<path opacity="0.9" fill="#FFFFFF" enable-background="new    " d="M27.526,5.937l-1.557,0.281c0,0-1.677,0.302-3.541,0.24
			c0,0-2.962,0.144-4.621,0.996c0,0-1.236,0.568-2.474,1.526c0,0-0.261,0.135-0.249,0.629c0.016,0.493-0.246,1.807-1.121,2.578
			c0,0-0.626,0.33-0.311,0.8c0,0,0.016,0.021,0.035,0.047c0.118-0.143,0.276-0.223,0.276-0.223c0.875-0.773,1.136-2.085,1.121-2.578
			c-0.012-0.493,0.249-0.629,0.249-0.629c0.323-0.249,0.644-0.471,0.943-0.665c0.003-0.071,0.012-0.14,0.016-0.213
			c0,0,0.483-0.426,1.252-0.552c0,0,0,0.017,0,0.033c0.163-0.083,0.264-0.131,0.264-0.131c1.658-0.852,4.621-0.995,4.621-0.995
			C24.295,7.142,25.97,6.84,25.97,6.84l1.557-0.281c0,0.047,0.012,0.093,0.012,0.14V6.075C27.538,6.029,27.526,5.986,27.526,5.937z"
			/>
		<path opacity="0.9" fill="#FFFFFF" enable-background="new    " d="M9.783,14.986C8.386,13.483,6.188,8.967,5.962,3.715
			c-0.884,0.421-1.5,1.318-1.5,2.362v0.624c0-1.043,0.617-1.94,1.5-2.362C6.187,9.59,8.385,14.11,9.783,15.613
			c1.429,1.536,3.536,3.168,6.229,2.488c2.692-0.679,3.233-3.632,3.233-3.632c0.178-0.753,0.222-1.551,0.202-2.296
			c-0.016,0.556-0.071,1.124-0.202,1.674c0,0-0.539,2.95-3.233,3.632C13.318,18.156,11.213,16.524,9.783,14.986z"/>
		<g>
			<g opacity="0.3">
				<path opacity="0.5" fill="#669CCC" enable-background="new    " d="M25.855,5.604c-0.012,0.002-1.35,0.238-2.919,0.238
					c-0.159,0-0.327-0.002-0.489-0.008c-0.178,0.006-3.168,0.161-4.926,1.063c-0.012,0.006-0.296,0.136-0.725,0.375
					c0.336-0.328,2.577-2.531,3.709-3.303l1.674-1.141h-8.622l-0.181,0.311c-0.392,0.671-2.331,4.222-2.203,8.077
					c-0.006,0.123-0.089,3.927,2.701,5.347c0.08,0.037,0.492,0.207,1.085,0.207c0.825,0,2.37-0.343,3.482-2.64
					c0.006-0.008,0.087-0.146,0.193-0.414c-0.053,0.246-0.579,2.599-2.779,3.155c-0.367,0.093-0.735,0.14-1.098,0.14
					c-1.507,0-2.987-0.801-4.521-2.447c-1.347-1.45-3.44-5.908-3.65-10.874L6.545,2.746L5.693,3.151
					c-1.13,0.538-1.86,1.686-1.86,2.925v13.368l0.377,0.161c0.8,0.348,2.954,1.157,5.651,1.205l0.703,0.016
					c0.525,0.01,1.03,0.023,1.522,0.023c2.506-0.002,4.506-0.311,6.712-1.86c3.1-2.171,2.729-5.64,2.711-5.786
					c-0.009-0.4-0.053-0.797-0.128-1.183c1.72,3.537-0.255,6.445-0.364,6.6c-2.509,3.52-6.89,6.12-9.28,7.356l-2.278,1.178h15.456
					c1.792,0,3.248-1.456,3.248-3.246V6.078c0-0.058-0.006-0.113-0.016-0.169L28.054,5.27l-0.641,0.055L25.855,5.604z M27.538,6.078
					V23.91c0,1.446-1.174,2.624-2.622,2.624h-12.89c2.243-1.162,6.872-3.859,9.503-7.554c0,0,3.749-5.347-2.231-10.554
					c0,0,1.54,2.416,1.593,4.852c0,0,0.383,3.221-2.449,5.202c-2.829,1.985-5.306,1.767-8.566,1.708
					c-2.607-0.046-4.684-0.837-5.412-1.154V6.078c0-1.043,0.617-1.94,1.5-2.362c0.225,5.251,2.423,9.767,3.821,11.271
					c1.429,1.537,3.536,3.17,6.229,2.491c2.692-0.68,3.233-3.632,3.233-3.632c0.591-2.516-0.264-5.501-0.309-5.564
					c-0.044-0.062-0.451-0.132-0.451-0.132c0.43,3.959-0.601,5.713-0.601,5.713c-1.503,3.105-3.725,2.148-3.725,2.148
					c-2.471-1.258-2.362-4.813-2.362-4.813c-0.121-3.704,1.767-7.136,2.12-7.744h6.239c-1.282,0.872-3.827,3.403-3.827,3.403
					c-3.628,3.382-2.916,6.226-2.916,6.226c0.588,2.984,2.381,0.97,2.381,0.97c1.892-1.967,1.743-5.878,1.743-5.878
					c-0.768,0.126-1.252,0.552-1.252,0.552c-0.089,2.609-1.619,4.228-1.619,4.228c-0.597,0.661-1.021,0.032-1.021,0.032
					c-0.315-0.472,0.311-0.8,0.311-0.8c0.875-0.771,1.136-2.085,1.121-2.578c-0.012-0.493,0.249-0.629,0.249-0.629
					c1.236-0.96,2.474-1.526,2.474-1.526c1.658-0.852,4.621-0.996,4.621-0.996c1.866,0.062,3.541-0.24,3.541-0.24l1.557-0.281
					C27.526,5.986,27.538,6.029,27.538,6.078z M14.326,13.864c0.231-0.043,0.519-0.171,0.803-0.489
					c0.059-0.059,1.566-1.681,1.765-4.308l0,0c-0.071,1.193-0.371,3.336-1.546,4.556c-0.19,0.208-0.542,0.474-0.759,0.474
					C14.513,14.094,14.422,14.02,14.326,13.864z"/>
			</g>
			<g opacity="0.9" enable-background="new    ">
				<path fill="#FFFFFF" d="M27.536,23.91h-0.002V6.076c0-0.047-0.012-0.093-0.012-0.14l-1.557,0.281c0,0-1.675,0.302-3.541,0.24
					c0,0-2.962,0.145-4.621,0.996c0,0-1.238,0.566-2.474,1.526c0,0-0.261,0.135-0.249,0.629c0.015,0.493-0.246,1.807-1.121,2.578
					c0,0-0.626,0.328-0.311,0.8c0,0,0.424,0.629,1.021-0.032c0,0,1.53-1.619,1.619-4.228c0,0,0.483-0.426,1.252-0.552
					c0,0,0.148,3.912-1.743,5.878c0,0-1.793,2.014-2.381-0.97c0,0-0.712-2.844,2.916-6.226c0,0,2.545-2.531,3.827-3.403h-6.241
					c-0.352,0.609-2.241,4.041-2.12,7.744c0,0-0.109,3.555,2.362,4.813c0,0,2.222,0.957,3.725-2.148c0,0,1.031-1.753,0.601-5.713
					c0,0,0.407,0.07,0.451,0.132c0.044,0.064,0.899,3.048,0.309,5.564c0,0-0.54,2.952-3.233,3.632
					c-2.694,0.68-4.8-0.953-6.229-2.491C8.387,13.484,6.188,8.968,5.963,3.716c-0.884,0.421-1.5,1.318-1.5,2.361v12.958
					c0.729,0.318,2.805,1.108,5.412,1.154c3.26,0.059,5.738,0.276,8.566-1.708c2.832-1.982,2.449-5.202,2.449-5.202
					c-0.053-2.435-1.593-4.852-1.593-4.852c5.98,5.207,2.231,10.554,2.231,10.554c-2.632,3.694-7.261,6.391-9.504,7.552h12.89
					C26.363,26.535,27.537,25.356,27.536,23.91L27.536,23.91L27.536,23.91L27.536,23.91z"/>
			</g>
		</g>
	</g>
	<path fill="none" stroke="#FFFFFF" stroke-miterlimit="10" d="M5.712,27.901c-1.468,0-2.663-1.194-2.663-2.663V4.663
		C3.049,3.194,4.243,2,5.712,2h20.575c1.469,0,2.663,1.194,2.663,2.663v20.575c0,1.469-1.194,2.663-2.662,2.663H5.712z"/>
</g>
</svg>
