<?xml version="1.0" encoding="utf-8"?>
<!-- Generator: Adobe Illustrator 17.0.0, SVG Export Plug-In . SVG Version: 6.00 Build 0)  -->
<!DOCTYPE svg PUBLIC "-//W3C//DTD SVG 1.1//EN" "http://www.w3.org/Graphics/SVG/1.1/DTD/svg11.dtd">
<svg version="1.1" id="图层_1" xmlns="http://www.w3.org/2000/svg" xmlns:xlink="http://www.w3.org/1999/xlink" x="0px" y="0px"
	 width="32px" height="32px" viewBox="0 0 32 32" enable-background="new 0 0 32 32" xml:space="preserve">
<g>
	<g id="g151" opacity="0.5">
		<path id="path153" opacity="0.08" enable-background="new    " d="M27.059,29.57H4.96c-2.035,0-3.693-1.595-3.693-3.549v2.714
			c0,1.527,1.297,2.764,2.886,2.764h23.711c1.589,0,2.868-1.238,2.868-2.764v-2.714C30.733,27.977,29.093,29.57,27.059,29.57z"/>
		<path id="path155" opacity="0.1" enable-background="new    " d="M27.04,29.57H4.941c-2.034,0-3.674-1.566-3.674-3.519v1.42
			c0,1.527,0.7,3.387,3.538,3.387s19.496,0,22.371,0s3.557-1.86,3.557-3.387v-1.42C30.733,28.006,29.074,29.57,27.04,29.57z"/>
		<path id="path157" opacity="0.1" enable-background="new    " d="M27.04,29.57H4.941c-2.034,0-3.674-1.566-3.674-3.519v0.766
			c0,1.527,1.215,3.397,3.538,3.397s19.711,0,22.371,0c2.66,0,3.557-1.87,3.557-3.396v-0.766
			C30.733,28.006,29.074,29.57,27.04,29.57z"/>
		<rect id="rect159" x="4.615" y="29.57" opacity="0.05" enable-background="new    " width="22.769" height="0.643"/>
		<rect id="rect161" x="5.285" y="29.57" opacity="0.05" enable-background="new    " width="20.76" height="0.643"/>
		<rect id="rect163" x="5.285" y="30.214" opacity="0.05" enable-background="new    " width="20.76" height="0.643"/>
		<rect id="rect165" x="6.624" y="30.214" opacity="0.05" enable-background="new    " width="18.751" height="0.643"/>
		<rect id="rect167" x="8.633" y="30.214" opacity="0.05" enable-background="new    " width="14.733" height="0.643"/>
		<rect id="rect169" x="11.312" y="30.214" opacity="0.05" enable-background="new    " width="9.376" height="0.643"/>
		<rect id="rect171" x="6.624" y="29.57" opacity="0.05" enable-background="new    " width="18.751" height="0.643"/>
		<rect id="rect173" x="7.964" y="29.57" opacity="0.05" enable-background="new    " width="16.072" height="0.643"/>
		<rect id="rect175" x="8.633" y="29.57" opacity="0.05" enable-background="new    " width="14.733" height="0.643"/>
		<rect id="rect177" x="9.973" y="29.57" opacity="0.05" enable-background="new    " width="12.054" height="0.643"/>
		<rect id="rect179" x="9.973" y="29.57" opacity="0.05" enable-background="new    " width="12.054" height="0.643"/>
	</g>
	<path fill="#C4DCED" stroke="#9DBCD7" stroke-miterlimit="10" d="M30.466,25.625c0,2.104-1.706,3.809-3.809,3.809H5.342
		c-2.104,0-3.809-1.706-3.809-3.809V4.309c0-2.104,1.706-3.809,3.809-3.809h21.316c2.104,0,3.809,1.706,3.809,3.809L30.466,25.625
		L30.466,25.625z"/>
	<path opacity="0.6" fill="none" stroke="#FFFFFF" stroke-miterlimit="10" enable-background="new    " d="M5.342,28.434
		c-1.549,0-2.809-1.261-2.809-2.81V4.309c0-1.549,1.26-2.809,2.809-2.809h21.316c1.549,0,2.809,1.26,2.809,2.809v21.315
		c0,1.549-1.261,2.81-2.81,2.81C26.657,28.435,5.342,28.435,5.342,28.434z"/>
	<path opacity="0.05" fill="none" stroke="#000000" stroke-miterlimit="10" enable-background="new    " d="M30.569,8.482
		c0,0,0-1.28-1.264-1.28c-3.669,0-15.386,0.002-16.434,0.002c-1.275,0-1.264-1.262-1.264-1.262s0-1.27-1.264-1.27
		c-2.213,0-6.645,0-7.585,0c-1.245,0-1.264,1.224-1.264,1.263"/>
	
		<linearGradient id="SVGID_1_" gradientUnits="userSpaceOnUse" x1="1385.9995" y1="-1686.4335" x2="1385.9995" y2="-1662.5765" gradientTransform="matrix(1 0 0 -1 -1370 -1657)">
		<stop  offset="0" style="stop-color:#D1E0ED"/>
		<stop  offset="1" style="stop-color:#E4EEFB"/>
	</linearGradient>
	<path fill="url(#SVGID_1_)" stroke="#9DBCD7" stroke-miterlimit="10" d="M5.334,29.433h21.395c2.104,0,3.738-1.749,3.738-3.853V8.5
		c0-0.3-0.448-0.582-1.045-0.582c-3.685,0-15.435,0.002-16.488,0.002c-1.28,0-1.261-1.168-1.261-1.168s0.009-1.176-1.261-1.176
		c-2.222,0-6.674,0-7.618,0c-1.25,0-1.262,1.036-1.262,1.075v18.93C1.533,27.684,3.23,29.433,5.334,29.433z"/>
	<path opacity="0.8" fill="none" stroke="#FFFFFF" stroke-miterlimit="10" enable-background="new    " d="M5.333,28.434
		c-1.544,0-2.8-1.279-2.801-2.853V6.651c0.031-0.045,0.105-0.075,0.261-0.075h7.618c0.144,0,0.202,0.029,0.21,0.037
		c0.028,0.029,0.051,0.131,0.051,0.132c-0.002,0.142,0.016,0.928,0.618,1.541c0.285,0.29,0.8,0.634,1.642,0.634
		c0,0,16.519-0.001,16.533-0.001v16.662c0,1.573-1.229,2.853-2.738,2.853C26.727,28.435,5.333,28.435,5.333,28.434z"/>
	<g id="g27_1_">
		
			<linearGradient id="path36_2_" gradientUnits="userSpaceOnUse" x1="1784.7555" y1="-2475.4534" x2="1788.7751" y2="-2482.4158" gradientTransform="matrix(1 0 0 -1 -1782 -2475)">
			<stop  offset="0" style="stop-color:#FFFFFF"/>
			<stop  offset="0.5" style="stop-color:#FFFFFF;stop-opacity:0.6"/>
			<stop  offset="1" style="stop-color:#FFFFFF;stop-opacity:0.15"/>
		</linearGradient>
		<path id="path36_1_" fill="url(#path36_2_)" d="M6.07,8.598c0.449-0.93,0.998-1.802,1.627-2.607L6.552,3.48
			C5.574,4.404,4.781,5.424,4.147,6.412L6.07,8.598z"/>
		
			<linearGradient id="path45_2_" gradientUnits="userSpaceOnUse" x1="1788.3998" y1="-2474.4114" x2="1791.0304" y2="-2478.9678" gradientTransform="matrix(1 0 0 -1 -1782 -2475)">
			<stop  offset="0" style="stop-color:#FFFFFF"/>
			<stop  offset="0.5" style="stop-color:#FFFFFF;stop-opacity:0.6"/>
			<stop  offset="1" style="stop-color:#FFFFFF;stop-opacity:0.15"/>
		</linearGradient>
		<path id="path45_1_" fill="url(#path45_2_)" d="M6.189,1.067l0.598,1.311C7.363,1.9,7.994,1.736,8.682,1.067H6.189z"/>
		
			<linearGradient id="path54_2_" gradientUnits="userSpaceOnUse" x1="1789.2275" y1="-2473.5459" x2="1792.4418" y2="-2479.113" gradientTransform="matrix(1 0 0 -1 -1782 -2475)">
			<stop  offset="0" style="stop-color:#FFFFFF"/>
			<stop  offset="0.5" style="stop-color:#FFFFFF;stop-opacity:0.6"/>
			<stop  offset="1" style="stop-color:#FFFFFF;stop-opacity:0.15"/>
		</linearGradient>
		<path id="path54_1_" fill="url(#path54_2_)" d="M10.68,1.067h-0.473C9.013,1.736,7.969,2.247,7.074,3.009l1.097,2.408
			c0.937-1.083,2.025-2.032,3.243-2.798c0.009-0.008,0.016-0.016,0.026-0.024C12.804,1.416,11.449,1.067,10.68,1.067z"/>
		
			<linearGradient id="path63_2_" gradientUnits="userSpaceOnUse" x1="1782.4993" y1="-2478.6277" x2="1785.9874" y2="-2484.6692" gradientTransform="matrix(1 0 0 -1 -1782 -2475)">
			<stop  offset="0" style="stop-color:#FFFFFF"/>
			<stop  offset="0.5" style="stop-color:#FFFFFF;stop-opacity:0.6"/>
			<stop  offset="1" style="stop-color:#FFFFFF;stop-opacity:0.15"/>
		</linearGradient>
		<path id="path63_1_" fill="url(#path63_2_)" d="M3.782,7.01c-0.734,1.25-1.214,2.405-1.499,3.195
			c0.337,0.481,0.894,0.797,1.526,0.797c0.783,0,1.451-0.483,1.727-1.167c0.071-0.191,0.157-0.374,0.236-0.562L3.782,7.01z"/>
		
			<linearGradient id="path72_2_" gradientUnits="userSpaceOnUse" x1="1782.3423" y1="-2478.8752" x2="1786.208" y2="-2485.5708" gradientTransform="matrix(1 0 0 -1 -1782 -2475)">
			<stop  offset="0" style="stop-color:#FFFFFF"/>
			<stop  offset="0.5" style="stop-color:#FFFFFF;stop-opacity:0.6"/>
			<stop  offset="1" style="stop-color:#FFFFFF;stop-opacity:0.15"/>
		</linearGradient>
		<path id="path72_1_" fill="url(#path72_2_)" d="M1.959,4.937L1.945,9.135c0,0,0,0.001,0,0.003c0,0.026,0.006,0.051,0.008,0.077
			C2.272,8.438,2.718,7.49,3.322,6.486L1.959,4.937z"/>
		
			<linearGradient id="path149_2_" gradientUnits="userSpaceOnUse" x1="1785.2657" y1="-2476.7783" x2="1788.8955" y2="-2483.0654" gradientTransform="matrix(1 0 0 -1 -1782 -2475)">
			<stop  offset="0" style="stop-color:#FFFFFF"/>
			<stop  offset="0.5" style="stop-color:#FFFFFF;stop-opacity:0.6"/>
			<stop  offset="1" style="stop-color:#FFFFFF;stop-opacity:0.15"/>
		</linearGradient>
		<path id="path149_1_" fill="url(#path149_2_)" d="M5.391,1.076c-1.364-0.113-3.16,1.423-3.39,2.896l1.692,1.924
			c0.675-1.031,1.515-2.087,2.552-3.04L5.391,1.076z"/>
	</g>
	
		<radialGradient id="SVGID_2_" cx="1862.412" cy="1354.463" r="22.6588" gradientTransform="matrix(0.0197 0.9998 0.9109 -0.018 -1255.4794 -1826.5901)" gradientUnits="userSpaceOnUse">
		<stop  offset="0" style="stop-color:#FFFFFF;stop-opacity:0.6"/>
		<stop  offset="0.3783" style="stop-color:#FAFCFE;stop-opacity:0.4487"/>
		<stop  offset="0.829" style="stop-color:#EBF3FC;stop-opacity:0.2684"/>
		<stop  offset="1" style="stop-color:#E4EEFB;stop-opacity:0.2"/>
	</radialGradient>
	<path fill="url(#SVGID_2_)" d="M5.582,28.655c-1.774,0-3.216-1.465-3.216-3.267V6.9c0-0.023,0.004-0.221,0.151-0.369
		c0.123-0.123,0.32-0.186,0.585-0.186h7.441c0.294,0,0.443,0.035,0.532,0.125c0.198,0.199,0.206,0.501,0.206,0.505
		c-0.001,0.065,0.003,0.712,0.482,1.198c0.305,0.31,0.724,0.467,1.244,0.467c0,0,13.755-0.005,16.1-0.005
		c0.31,0,0.481,0.106,0.525,0.158v16.596c0,1.802-1.415,3.267-3.155,3.267L5.582,28.655L5.582,28.655L5.582,28.655z"/>
</g>
<g>
	<path opacity="0.3" fill="#FFFFFF" enable-background="new    " d="M17.715,10.007c-0.638,0.013-1.268,0.235-1.786,0.673
		c-0.816,0.69-0.936,1.472-0.995,2.098c-0.059,0.626-0.069,1.074-0.635,1.551c-0.565,0.478-1.035,0.424-1.678,0.39
		s-1.44-0.035-2.255,0.654c-0.372,0.316-0.638,0.712-0.8,1.132c0,0,0,0.009,0,0.011c-0.005,0.012-0.017,0.048-0.019,0.069
		c-0.022,0.058-0.048,0.112-0.069,0.185c-0.008,0.025-0.027,0.072-0.04,0.126c0,0.006,0.001,0.006,0,0.011
		c-0.017,0.081-0.028,0.168-0.039,0.254c-0.005,0.034,0,0.067,0,0.069c-0.001,0.022-0.009,0.048-0.011,0.069
		c0.001-0.011-0.006,0.017-0.009,0.088c-0.001,0.036,0,0.046,0,0.04c-0.001,0.029,0,0.037,0,0.02c0,0.037-0.001,0.079,0,0.116
		c0,0-0.001,0.017,0,0.058c0.003,0.07,0.011,0.098,0.009,0.088C9.392,17.74,9.394,17.79,9.4,17.845
		c0.011,0.085,0.021,0.172,0.039,0.254c0.001,0.005,0,0.005,0,0.01c0.013,0.053,0.032,0.1,0.04,0.127
		c0.027,0.1,0.059,0.179,0.088,0.254c0,0.003,0,0.007,0,0.01c0.151,0.392,0.402,0.745,0.731,1.044c0.003,0.003-0.001,0.008,0,0.01
		c0.003,0.003,0.006,0.007,0.011,0.01c0.016,0.022,0.037,0.043,0.058,0.058c0,0.003,0,0.008,0,0.01
		c0.816,0.69,1.612,0.687,2.255,0.654s1.113-0.088,1.678,0.39c0.567,0.479,0.576,0.926,0.635,1.551
		c0.059,0.626,0.179,1.409,0.995,2.098c1.186,1.002,2.976,0.871,4.001-0.293c1.026-1.165,0.894-2.939-0.293-3.942
		c-0.816-0.689-1.612-0.687-2.255-0.653c-0.642,0.034-1.113,0.088-1.678-0.391c-0.562-0.475-0.578-0.92-0.635-1.541
		c0.058-0.621,0.073-1.066,0.635-1.541c0.566-0.478,1.036-0.424,1.678-0.39c0.642,0.034,1.44,0.036,2.255-0.654
		c1.186-1.004,1.317-2.777,0.293-3.942C19.353,10.318,18.531,9.989,17.715,10.007z M17.725,10.319
		c0.726-0.015,1.456,0.276,1.97,0.859c0.911,1.035,0.793,2.599-0.263,3.494c-1.488,1.256-2.635-0.052-3.932,1.044
		c-0.655,0.553-0.682,1.158-0.742,1.786c0.059,0.627,0.086,1.231,0.742,1.786c1.297,1.095,2.444-0.213,3.932,1.044
		c1.056,0.893,1.175,2.458,0.263,3.494c-0.91,1.035-2.503,1.146-3.56,0.254c-1.487-1.256-0.333-2.553-1.631-3.649
		c-1.297-1.096-2.444,0.212-3.932-1.045v-0.009c-0.329-0.279-0.567-0.622-0.712-0.995c-0.001-0.003,0.001-0.008,0-0.011
		c-0.028-0.076-0.056-0.146-0.079-0.225c-0.009-0.034-0.021-0.072-0.028-0.107c-0.001-0.004,0.001-0.007,0-0.01
		c-0.016-0.074-0.03-0.15-0.04-0.225c-0.005-0.039-0.006-0.079-0.009-0.117c-0.001-0.026-0.009-0.052-0.011-0.079
		c0-0.017,0-0.041,0-0.058c0-0.036,0-0.062,0-0.098c0-0.004,0-0.015,0-0.019c0-0.013,0-0.025,0-0.039
		c0.001-0.027,0.009-0.052,0.011-0.079c0.003-0.034,0.006-0.073,0.009-0.107c0.001-0.005,0-0.006,0-0.011
		c0.011-0.074,0.023-0.15,0.04-0.224c0-0.004-0.001-0.006,0-0.011c0.008-0.034,0.019-0.072,0.028-0.107
		c0.022-0.079,0.05-0.148,0.079-0.224c0.001-0.003-0.001-0.008,0-0.011c0.143-0.374,0.383-0.726,0.712-1.005
		c1.488-1.256,2.635,0.052,3.932-1.044c1.298-1.096,0.143-2.393,1.631-3.65C16.595,10.533,17.157,10.332,17.725,10.319z"/>
	<path opacity="0.3" fill="#669CCC" enable-background="new    " d="M17.727,10.32c-0.567,0.012-1.133,0.208-1.596,0.599
		c-1.487,1.257-0.331,2.563-1.629,3.659c-1.297,1.096-2.446-0.215-3.932,1.042v0.003c-0.331,0.279-0.569,0.625-0.713,0.999
		c0,0.001,0,0.005-0.001,0.008c-0.03,0.076-0.053,0.152-0.076,0.23c-0.009,0.035-0.019,0.07-0.027,0.105
		c-0.001,0.004-0.001,0.008-0.003,0.012c-0.016,0.074-0.027,0.147-0.037,0.223c0,0.001,0,0.001,0,0.003
		c0,0.003-0.001,0.008-0.001,0.011c-0.005,0.035-0.008,0.069-0.011,0.105c-0.001,0.027-0.005,0.053-0.006,0.079
		c0,0.013-0.001,0.027-0.001,0.041c0,0.005,0,0.009,0,0.013c-0.001,0.035-0.001,0.069,0,0.104c0,0.018,0.001,0.037,0.001,0.055
		C9.696,17.636,9.7,17.663,9.7,17.689c0.003,0.04,0.008,0.077,0.012,0.117v0.001c0.011,0.074,0.021,0.148,0.037,0.223
		c0.001,0.004,0.001,0.008,0.003,0.012c0.008,0.035,0.017,0.069,0.027,0.104c0.022,0.079,0.046,0.155,0.076,0.23
		c0.001,0.003,0.001,0.005,0.001,0.008c0.143,0.374,0.383,0.719,0.713,0.998v0.003c1.487,1.256,2.635-0.053,3.932,1.042
		c1.298,1.095,0.143,2.401,1.629,3.657c1.058,0.893,2.652,0.776,3.564-0.26c0.91-1.035,0.793-2.599-0.263-3.492
		c-1.487-1.257-2.635,0.056-3.934-1.04c-0.654-0.553-0.684-1.162-0.743-1.789c0.059-0.627,0.089-1.236,0.743-1.788
		c1.298-1.096,2.448,0.216,3.934-1.041c1.056-0.893,1.173-2.456,0.263-3.492C19.182,10.596,18.455,10.304,17.727,10.32
		C17.727,10.319,17.727,10.319,17.727,10.32z"/>
	<path opacity="0.3" fill="#669CCC" enable-background="new    " d="M17.725,10.319c-0.567,0.013-1.129,0.215-1.592,0.606
		c-1.487,1.257-0.333,2.553-1.631,3.65c-1.297,1.096-2.444-0.213-3.932,1.044c-0.329,0.279-0.567,0.631-0.712,1.005
		c-0.001,0.003,0.001,0.008,0,0.011C9.83,16.71,9.802,16.779,9.78,16.858c-0.009,0.035-0.021,0.073-0.028,0.107
		c-0.001,0.005,0,0.007,0,0.011c-0.016,0.074-0.03,0.15-0.04,0.224c0,0.005,0.001,0.006,0,0.011
		c-0.003,0.034-0.006,0.073-0.009,0.107c-0.001,0.027-0.009,0.052-0.011,0.079c0,0.013,0,0.025,0,0.039c0,0.005,0,0.016,0,0.019
		c0,0.036,0,0.062,0,0.098c0,0.017,0,0.041,0,0.058c0.001,0.016,0.009,0.032,0.011,0.048c0.001-0.01-0.001-0.02,0-0.029
		c0.003-0.036,0.006-0.073,0.009-0.109c0.001-0.003,0-0.006,0-0.009c0.011-0.075,0.023-0.151,0.04-0.225c0-0.004-0.001-0.007,0-0.01
		c0.008-0.035,0.019-0.073,0.028-0.108c0.022-0.079,0.05-0.148,0.079-0.225c0.001-0.003-0.001-0.008,0-0.009
		c0.143-0.374,0.383-0.726,0.712-1.005c1.488-1.256,2.635,0.052,3.932-1.044c1.298-1.096,0.143-2.393,1.631-3.65
		c0.463-0.391,1.026-0.592,1.592-0.604c0.726-0.016,1.456,0.276,1.97,0.859c0.374,0.423,0.571,0.936,0.606,1.454
		c0.039-0.623-0.156-1.256-0.606-1.765C19.181,10.596,18.451,10.304,17.725,10.319z M14.777,17.657
		c-0.005,0.052-0.015,0.103-0.019,0.156c0.059,0.626,0.086,1.231,0.742,1.786c1.297,1.096,2.444-0.213,3.932,1.044
		c0.527,0.447,0.82,1.056,0.868,1.688c0.039-0.736-0.255-1.481-0.868-2c-1.488-1.257-2.635,0.051-3.932-1.044
		C14.898,18.779,14.832,18.228,14.777,17.657z"/>
	<path opacity="0.3" fill="#669CCC" enable-background="new    " d="M17.725,10.319c-0.567,0.013-1.129,0.215-1.592,0.606
		c-1.487,1.257-0.333,2.553-1.631,3.65c-1.297,1.096-2.444-0.213-3.932,1.044c-0.329,0.279-0.567,0.631-0.712,1.005
		c-0.001,0.003,0.001,0.008,0,0.011C9.83,16.71,9.802,16.779,9.78,16.858c-0.009,0.035-0.021,0.073-0.028,0.107
		c-0.001,0.005,0,0.007,0,0.011c-0.016,0.074-0.03,0.15-0.04,0.224c0,0.005,0.001,0.006,0,0.011
		c-0.003,0.034-0.006,0.073-0.009,0.107c-0.001,0.027-0.009,0.052-0.011,0.079c0,0.013,0,0.025,0,0.039c0,0.005,0,0.016,0,0.019
		c0,0.036,0,0.062,0,0.098c0,0.017,0,0.041,0,0.058c0.001,0.026,0.009,0.052,0.011,0.079c0.003,0.04,0.005,0.079,0.009,0.117
		c0.011,0.075,0.023,0.151,0.04,0.225c0.001,0.003-0.001,0.006,0,0.01c0.008,0.036,0.019,0.073,0.028,0.107
		c0.022,0.079,0.05,0.149,0.079,0.225c0.001,0.003-0.001,0.008,0,0.011c0.143,0.373,0.383,0.715,0.712,0.995v0.009
		c1.488,1.257,2.635-0.051,3.932,1.045c1.298,1.095,0.143,2.392,1.631,3.649c1.058,0.893,2.65,0.781,3.56-0.254
		c0.911-1.035,0.793-2.601-0.263-3.494c-1.488-1.257-2.635,0.051-3.932-1.044c-0.655-0.553-0.682-1.158-0.742-1.786
		c0.059-0.627,0.086-1.231,0.742-1.786c1.297-1.096,2.444,0.213,3.932-1.044c1.056-0.893,1.175-2.458,0.263-3.494
		C19.181,10.596,18.451,10.304,17.725,10.319z M17.734,10.651c0.635-0.013,1.263,0.235,1.707,0.741
		c0.792,0.901,0.696,2.247-0.224,3.025c-0.668,0.564-1.178,0.54-1.805,0.507c-0.627-0.032-1.393-0.084-2.127,0.537
		c-0.743,0.628-0.8,1.393-0.859,2.01c-0.001,0.019-0.001,0.04,0,0.058c0.059,0.616,0.116,1.381,0.859,2.01
		c0.734,0.621,1.5,0.569,2.127,0.537s1.137-0.057,1.805,0.507c0.92,0.778,1.016,2.124,0.224,3.024
		c-0.792,0.901-2.171,0.993-3.092,0.215c-0.669-0.564-0.712-1.049-0.771-1.66c-0.058-0.61-0.123-1.37-0.859-1.991
		c-0.734-0.621-1.5-0.569-2.127-0.536c-0.621,0.032-1.129,0.048-1.786-0.498c-0.006-0.004-0.012-0.007-0.019-0.011
		c0-0.003,0-0.007,0-0.01c-0.286-0.241-0.49-0.529-0.614-0.849c-0.001-0.003,0-0.008,0-0.01c-0.001-0.003,0-0.01,0-0.01
		c-0.03-0.079-0.053-0.14-0.069-0.196c-0.012-0.039-0.025-0.07-0.03-0.088c0-0.005,0.001-0.005,0-0.01
		c-0.013-0.064-0.022-0.132-0.03-0.195c-0.003-0.022-0.006-0.062-0.009-0.108c-0.005-0.056-0.009-0.064-0.011-0.058
		c0,0.001,0-0.009,0-0.011s0.001-0.017,0-0.048c0-0.032,0-0.048,0-0.079c0.001-0.028,0.001-0.042,0-0.019c0.001-0.025,0-0.03,0-0.03
		c0,0.003,0-0.011,0-0.01c0.001,0.007,0.006-0.004,0.011-0.058c0.001-0.034,0.006-0.072,0.009-0.098c0.001-0.005,0-0.005,0-0.01
		c0.008-0.063,0.016-0.131,0.03-0.195c0-0.003,0-0.007,0-0.01c0.003-0.015,0.016-0.044,0.03-0.088
		c0.015-0.056,0.039-0.117,0.069-0.195c0,0,0-0.008,0-0.01c0.124-0.325,0.329-0.627,0.614-0.869c0.669-0.564,1.178-0.54,1.805-0.507
		c0.627,0.032,1.393,0.084,2.127-0.537c0.736-0.62,0.801-1.38,0.859-1.991c0.059-0.61,0.103-1.094,0.771-1.659
		C16.752,10.836,17.241,10.662,17.734,10.651z"/>
	<path opacity="0.3" fill="#669CCC" enable-background="new    " d="M17.725,10.319c-0.567,0.013-1.129,0.215-1.592,0.606
		c-1.487,1.257-0.333,2.553-1.631,3.65c-1.297,1.096-2.444-0.213-3.932,1.044c-0.329,0.279-0.567,0.631-0.712,1.005
		c-0.001,0.003,0.001,0.008,0,0.011C9.83,16.71,9.802,16.779,9.78,16.858c-0.009,0.035-0.021,0.073-0.028,0.107
		c-0.001,0.005,0,0.007,0,0.011c-0.016,0.074-0.03,0.15-0.04,0.224c0,0.005,0.001,0.006,0,0.011
		c-0.003,0.034-0.006,0.073-0.009,0.107c-0.001,0.027-0.009,0.052-0.011,0.079c0,0.013,0,0.025,0,0.039c0,0.005,0,0.016,0,0.019
		c0,0.036,0,0.062,0,0.098c0,0.017,0,0.041,0,0.058c0.001,0.026,0.009,0.052,0.011,0.079c0.003,0.04,0.005,0.079,0.009,0.117
		c0.011,0.075,0.023,0.151,0.04,0.225c0.001,0.003-0.001,0.006,0,0.01c0.008,0.036,0.019,0.073,0.028,0.107
		c0.022,0.079,0.05,0.149,0.079,0.225c0.001,0.003-0.001,0.008,0,0.011c0.143,0.373,0.383,0.715,0.712,0.995v0.009
		c1.488,1.257,2.635-0.051,3.932,1.045c1.298,1.095,0.143,2.392,1.631,3.649c1.058,0.893,2.65,0.781,3.56-0.254
		c0.911-1.035,0.793-2.601-0.263-3.494c-1.488-1.257-2.635,0.051-3.932-1.044c-0.655-0.553-0.682-1.158-0.742-1.786
		c0.059-0.627,0.086-1.231,0.742-1.786c1.297-1.096,2.444,0.213,3.932-1.044c1.056-0.893,1.175-2.458,0.263-3.494
		C19.181,10.596,18.451,10.304,17.725,10.319z M17.734,10.933c0.554-0.011,1.105,0.213,1.494,0.654
		c0.69,0.785,0.607,1.937-0.196,2.615c-0.604,0.51-0.989,0.461-1.611,0.429c-0.62-0.032-1.511-0.069-2.322,0.615
		c-0.819,0.692-0.898,1.589-0.957,2.196c-0.003,0.039-0.003,0.077,0,0.116c0.059,0.607,0.138,1.504,0.957,2.196
		c0.81,0.685,1.702,0.647,2.322,0.615c0.621-0.032,1.007-0.079,1.611,0.429c0.803,0.679,0.885,1.831,0.196,2.615
		c-0.691,0.785-1.89,0.874-2.694,0.195c-0.604-0.51-0.616-0.87-0.673-1.472c-0.058-0.604-0.147-1.493-0.957-2.176
		c-0.81-0.684-1.7-0.647-2.322-0.615c-0.614,0.032-1.001,0.072-1.592-0.42c-0.006-0.006-0.012-0.003-0.019-0.01
		c0-0.003,0-0.007,0-0.01c-0.249-0.211-0.428-0.465-0.537-0.742c0-0.003,0.001-0.008,0-0.01c0-0.001,0-0.011,0-0.011
		c-0.03-0.079-0.048-0.129-0.058-0.166c-0.015-0.051-0.019-0.079-0.019-0.079c-0.001-0.005,0-0.005,0-0.01
		c-0.013-0.057-0.022-0.113-0.03-0.166c-0.001-0.008-0.006-0.037-0.011-0.088c-0.006-0.097-0.012-0.116-0.009-0.058
		c0.001,0.028,0.001,0.013,0-0.04c-0.001-0.028-0.001-0.05,0-0.079c0.001-0.048,0.001-0.054,0-0.011c0.001-0.05,0.001-0.059,0-0.029
		c-0.003,0.058,0.003,0.04,0.009-0.058c0.003-0.03,0.009-0.06,0.011-0.079c0-0.003,0-0.008,0-0.01
		c0.008-0.053,0.016-0.109,0.03-0.166c0-0.003,0-0.007,0-0.01c-0.001,0.004,0.005-0.025,0.019-0.079
		c0.011-0.037,0.028-0.086,0.058-0.166c0,0,0-0.009,0-0.01v-0.006c0.11-0.28,0.294-0.546,0.537-0.752
		c0.604-0.508,0.989-0.461,1.611-0.429c0.621,0.032,1.511,0.07,2.322-0.614c0.81-0.684,0.899-1.572,0.957-2.176
		c0.058-0.604,0.07-0.964,0.673-1.473C16.888,11.093,17.305,10.943,17.734,10.933z"/>
	<path opacity="0.3" fill="#FFFFFF" enable-background="new    " d="M20.299,12.973c-0.048,0.632-0.339,1.252-0.868,1.699
		c-1.488,1.256-2.635-0.052-3.932,1.044c-0.655,0.553-0.682,1.158-0.742,1.786c0.005,0.053,0.015,0.104,0.019,0.156
		c0.055-0.572,0.121-1.122,0.722-1.63c1.297-1.096,2.444,0.212,3.932-1.044C20.047,14.461,20.341,13.713,20.299,12.973z
		 M9.703,17.657c-0.001,0.017-0.009,0.032-0.011,0.048c0,0.013,0,0.027,0,0.04c0,0.005,0,0.015,0,0.019c0,0.035,0,0.062,0,0.097
		c0,0.018,0,0.041,0,0.058c0.001,0.026,0.009,0.052,0.011,0.079c0.003,0.04,0.005,0.079,0.009,0.117
		c0.011,0.075,0.023,0.15,0.04,0.225c0.001,0.004-0.001,0.006,0,0.01c0.008,0.036,0.019,0.073,0.028,0.108
		c0.022,0.079,0.05,0.148,0.079,0.224c0.001,0.003-0.001,0.008,0,0.011c0.143,0.374,0.383,0.715,0.712,0.995v0.01
		c1.488,1.256,2.635-0.051,3.932,1.044c1.298,1.096,0.143,2.392,1.631,3.65c1.058,0.893,2.65,0.781,3.56-0.254
		c0.449-0.51,0.646-1.153,0.606-1.776c-0.032,0.522-0.23,1.037-0.606,1.464c-0.91,1.035-2.503,1.146-3.56,0.254
		c-1.487-1.256-0.333-2.553-1.631-3.649c-1.297-1.096-2.444,0.212-3.932-1.045v-0.01c-0.329-0.279-0.567-0.622-0.712-0.995
		c-0.001-0.003,0.001-0.008,0-0.011c-0.028-0.076-0.056-0.146-0.079-0.225c-0.009-0.034-0.021-0.072-0.028-0.107
		c-0.001-0.004,0.001-0.007,0-0.01c-0.016-0.074-0.03-0.15-0.04-0.225c-0.005-0.039-0.006-0.079-0.009-0.117
		C9.702,17.676,9.705,17.666,9.703,17.657z"/>
</g>
</svg>
