<?xml version="1.0" encoding="utf-8"?>
<!-- Generator: Adobe Illustrator 17.0.0, SVG Export Plug-In . SVG Version: 6.00 Build 0)  -->
<!DOCTYPE svg PUBLIC "-//W3C//DTD SVG 1.1//EN" "http://www.w3.org/Graphics/SVG/1.1/DTD/svg11.dtd">
<svg version="1.1" id="图层_1" xmlns="http://www.w3.org/2000/svg" xmlns:xlink="http://www.w3.org/1999/xlink" x="0px" y="0px"
	 width="32px" height="32px" viewBox="0 0 32 32" enable-background="new 0 0 32 32" xml:space="preserve">
<g>
	<g id="g151" opacity="0.5">
		<path id="path153" opacity="0.08" enable-background="new    " d="M27.059,29.57H4.96c-2.035,0-3.693-1.595-3.693-3.549v2.714
			c0,1.527,1.297,2.764,2.886,2.764h23.711c1.589,0,2.868-1.238,2.868-2.764v-2.714C30.733,27.977,29.093,29.57,27.059,29.57z"/>
		<path id="path155" opacity="0.1" enable-background="new    " d="M27.04,29.57H4.941c-2.034,0-3.674-1.566-3.674-3.519v1.42
			c0,1.527,0.7,3.387,3.538,3.387s19.496,0,22.371,0s3.557-1.86,3.557-3.387v-1.42C30.733,28.006,29.074,29.57,27.04,29.57z"/>
		<path id="path157" opacity="0.1" enable-background="new    " d="M27.04,29.57H4.941c-2.034,0-3.674-1.566-3.674-3.519v0.766
			c0,1.527,1.215,3.397,3.538,3.397s19.711,0,22.371,0c2.66,0,3.557-1.87,3.557-3.396v-0.766
			C30.733,28.006,29.074,29.57,27.04,29.57z"/>
		<rect id="rect159" x="4.615" y="29.57" opacity="0.05" enable-background="new    " width="22.769" height="0.643"/>
		<rect id="rect161" x="5.285" y="29.57" opacity="0.05" enable-background="new    " width="20.76" height="0.643"/>
		<rect id="rect163" x="5.285" y="30.214" opacity="0.05" enable-background="new    " width="20.76" height="0.643"/>
		<rect id="rect165" x="6.624" y="30.214" opacity="0.05" enable-background="new    " width="18.751" height="0.643"/>
		<rect id="rect167" x="8.633" y="30.214" opacity="0.05" enable-background="new    " width="14.733" height="0.643"/>
		<rect id="rect169" x="11.312" y="30.214" opacity="0.05" enable-background="new    " width="9.376" height="0.643"/>
		<rect id="rect171" x="6.624" y="29.57" opacity="0.05" enable-background="new    " width="18.751" height="0.643"/>
		<rect id="rect173" x="7.964" y="29.57" opacity="0.05" enable-background="new    " width="16.072" height="0.643"/>
		<rect id="rect175" x="8.633" y="29.57" opacity="0.05" enable-background="new    " width="14.733" height="0.643"/>
		<rect id="rect177" x="9.973" y="29.57" opacity="0.05" enable-background="new    " width="12.054" height="0.643"/>
		<rect id="rect179" x="9.973" y="29.57" opacity="0.05" enable-background="new    " width="12.054" height="0.643"/>
	</g>
	<path fill="#C4DCED" stroke="#9DBCD7" stroke-miterlimit="10" d="M30.466,25.625c0,2.104-1.706,3.809-3.809,3.809H5.342
		c-2.104,0-3.809-1.706-3.809-3.809V4.309c0-2.104,1.706-3.809,3.809-3.809h21.316c2.104,0,3.809,1.706,3.809,3.809L30.466,25.625
		L30.466,25.625z"/>
	<path opacity="0.6" fill="none" stroke="#FFFFFF" stroke-miterlimit="10" enable-background="new    " d="M5.342,28.434
		c-1.549,0-2.809-1.261-2.809-2.81V4.309c0-1.549,1.26-2.809,2.809-2.809h21.316c1.549,0,2.809,1.26,2.809,2.809v21.315
		c0,1.549-1.261,2.81-2.81,2.81C26.657,28.435,5.342,28.435,5.342,28.434z"/>
	<path opacity="0.05" fill="none" stroke="#000000" stroke-miterlimit="10" enable-background="new    " d="M30.569,8.482
		c0,0,0-1.28-1.264-1.28c-3.669,0-15.386,0.002-16.434,0.002c-1.275,0-1.264-1.262-1.264-1.262s0-1.27-1.264-1.27
		c-2.213,0-6.645,0-7.585,0c-1.245,0-1.264,1.224-1.264,1.263"/>
	
		<linearGradient id="SVGID_1_" gradientUnits="userSpaceOnUse" x1="1385.9995" y1="-1686.4335" x2="1385.9995" y2="-1662.5765" gradientTransform="matrix(1 0 0 -1 -1370 -1657)">
		<stop  offset="0" style="stop-color:#D1E0ED"/>
		<stop  offset="1" style="stop-color:#E4EEFB"/>
	</linearGradient>
	<path fill="url(#SVGID_1_)" stroke="#9DBCD7" stroke-miterlimit="10" d="M5.334,29.433h21.395c2.104,0,3.738-1.749,3.738-3.853V8.5
		c0-0.3-0.448-0.582-1.045-0.582c-3.685,0-15.435,0.002-16.488,0.002c-1.28,0-1.261-1.168-1.261-1.168s0.009-1.176-1.261-1.176
		c-2.222,0-6.674,0-7.618,0c-1.25,0-1.262,1.036-1.262,1.075v18.93C1.533,27.684,3.23,29.433,5.334,29.433z"/>
	<path opacity="0.8" fill="none" stroke="#FFFFFF" stroke-miterlimit="10" enable-background="new    " d="M5.333,28.434
		c-1.544,0-2.8-1.279-2.801-2.853V6.651c0.031-0.045,0.105-0.075,0.261-0.075h7.618c0.144,0,0.202,0.029,0.21,0.037
		c0.028,0.029,0.051,0.131,0.051,0.132c-0.002,0.142,0.016,0.928,0.618,1.541c0.285,0.29,0.8,0.634,1.642,0.634
		c0,0,16.519-0.001,16.533-0.001v16.662c0,1.573-1.229,2.853-2.738,2.853C26.727,28.435,5.333,28.435,5.333,28.434z"/>
	<g id="g27_1_">
		
			<linearGradient id="path36_2_" gradientUnits="userSpaceOnUse" x1="1784.7555" y1="-2475.4534" x2="1788.7751" y2="-2482.4158" gradientTransform="matrix(1 0 0 -1 -1782 -2475)">
			<stop  offset="0" style="stop-color:#FFFFFF"/>
			<stop  offset="0.5" style="stop-color:#FFFFFF;stop-opacity:0.6"/>
			<stop  offset="1" style="stop-color:#FFFFFF;stop-opacity:0.15"/>
		</linearGradient>
		<path id="path36_1_" fill="url(#path36_2_)" d="M6.07,8.598c0.449-0.93,0.998-1.802,1.627-2.607L6.552,3.48
			C5.574,4.404,4.781,5.424,4.147,6.412L6.07,8.598z"/>
		
			<linearGradient id="path45_2_" gradientUnits="userSpaceOnUse" x1="1788.3998" y1="-2474.4114" x2="1791.0304" y2="-2478.9678" gradientTransform="matrix(1 0 0 -1 -1782 -2475)">
			<stop  offset="0" style="stop-color:#FFFFFF"/>
			<stop  offset="0.5" style="stop-color:#FFFFFF;stop-opacity:0.6"/>
			<stop  offset="1" style="stop-color:#FFFFFF;stop-opacity:0.15"/>
		</linearGradient>
		<path id="path45_1_" fill="url(#path45_2_)" d="M6.189,1.067l0.598,1.311C7.363,1.9,7.994,1.736,8.682,1.067H6.189z"/>
		
			<linearGradient id="path54_2_" gradientUnits="userSpaceOnUse" x1="1789.2275" y1="-2473.5459" x2="1792.4418" y2="-2479.113" gradientTransform="matrix(1 0 0 -1 -1782 -2475)">
			<stop  offset="0" style="stop-color:#FFFFFF"/>
			<stop  offset="0.5" style="stop-color:#FFFFFF;stop-opacity:0.6"/>
			<stop  offset="1" style="stop-color:#FFFFFF;stop-opacity:0.15"/>
		</linearGradient>
		<path id="path54_1_" fill="url(#path54_2_)" d="M10.68,1.067h-0.473C9.013,1.736,7.969,2.247,7.074,3.009l1.097,2.408
			c0.937-1.083,2.025-2.032,3.243-2.798c0.009-0.008,0.016-0.016,0.026-0.024C12.804,1.416,11.449,1.067,10.68,1.067z"/>
		
			<linearGradient id="path63_2_" gradientUnits="userSpaceOnUse" x1="1782.4993" y1="-2478.6277" x2="1785.9874" y2="-2484.6692" gradientTransform="matrix(1 0 0 -1 -1782 -2475)">
			<stop  offset="0" style="stop-color:#FFFFFF"/>
			<stop  offset="0.5" style="stop-color:#FFFFFF;stop-opacity:0.6"/>
			<stop  offset="1" style="stop-color:#FFFFFF;stop-opacity:0.15"/>
		</linearGradient>
		<path id="path63_1_" fill="url(#path63_2_)" d="M3.782,7.01c-0.734,1.25-1.214,2.405-1.499,3.195
			c0.337,0.481,0.894,0.797,1.526,0.797c0.783,0,1.451-0.483,1.727-1.167c0.071-0.191,0.157-0.374,0.236-0.562L3.782,7.01z"/>
		
			<linearGradient id="path72_2_" gradientUnits="userSpaceOnUse" x1="1782.3423" y1="-2478.8752" x2="1786.208" y2="-2485.5708" gradientTransform="matrix(1 0 0 -1 -1782 -2475)">
			<stop  offset="0" style="stop-color:#FFFFFF"/>
			<stop  offset="0.5" style="stop-color:#FFFFFF;stop-opacity:0.6"/>
			<stop  offset="1" style="stop-color:#FFFFFF;stop-opacity:0.15"/>
		</linearGradient>
		<path id="path72_1_" fill="url(#path72_2_)" d="M1.959,4.937L1.945,9.135c0,0,0,0.001,0,0.003c0,0.026,0.006,0.051,0.008,0.077
			C2.272,8.438,2.718,7.49,3.322,6.486L1.959,4.937z"/>
		
			<linearGradient id="path149_2_" gradientUnits="userSpaceOnUse" x1="1785.2657" y1="-2476.7783" x2="1788.8955" y2="-2483.0654" gradientTransform="matrix(1 0 0 -1 -1782 -2475)">
			<stop  offset="0" style="stop-color:#FFFFFF"/>
			<stop  offset="0.5" style="stop-color:#FFFFFF;stop-opacity:0.6"/>
			<stop  offset="1" style="stop-color:#FFFFFF;stop-opacity:0.15"/>
		</linearGradient>
		<path id="path149_1_" fill="url(#path149_2_)" d="M5.391,1.076c-1.364-0.113-3.16,1.423-3.39,2.896l1.692,1.924
			c0.675-1.031,1.515-2.087,2.552-3.04L5.391,1.076z"/>
	</g>
	
		<radialGradient id="SVGID_2_" cx="1862.412" cy="1354.463" r="22.6588" gradientTransform="matrix(0.0197 0.9998 0.9109 -0.018 -1255.4794 -1826.5901)" gradientUnits="userSpaceOnUse">
		<stop  offset="0" style="stop-color:#FFFFFF;stop-opacity:0.6"/>
		<stop  offset="0.3783" style="stop-color:#FAFCFE;stop-opacity:0.4487"/>
		<stop  offset="0.829" style="stop-color:#EBF3FC;stop-opacity:0.2684"/>
		<stop  offset="1" style="stop-color:#E4EEFB;stop-opacity:0.2"/>
	</radialGradient>
	<path fill="url(#SVGID_2_)" d="M5.582,28.655c-1.774,0-3.216-1.465-3.216-3.267V6.9c0-0.023,0.004-0.221,0.151-0.369
		c0.123-0.123,0.32-0.186,0.585-0.186h7.441c0.294,0,0.443,0.035,0.532,0.125c0.198,0.199,0.206,0.501,0.206,0.505
		c-0.001,0.065,0.003,0.712,0.482,1.198c0.305,0.31,0.724,0.467,1.244,0.467c0,0,13.755-0.005,16.1-0.005
		c0.31,0,0.481,0.106,0.525,0.158v16.596c0,1.802-1.415,3.267-3.155,3.267L5.582,28.655L5.582,28.655L5.582,28.655z"/>
</g>
<g>
	<path opacity="0.3" fill="#FFFFFF" enable-background="new    " d="M14.949,9.686c-0.68,0-1.233,0.573-1.233,1.245v0.618
		c-0.23,0.082-0.446,0.177-0.661,0.282l-0.432-0.443c-0.004,0-0.007,0-0.011,0c-0.468-0.468-1.263-0.492-1.742-0.012L9.376,12.87
		c-0.482,0.48-0.458,1.274,0.009,1.743c0,0.003,0,0.007,0,0.011l0.446,0.434c-0.104,0.215-0.201,0.432-0.283,0.66H8.93
		c-0.67,0-1.245,0.554-1.245,1.233v2.1c0,0.683,0.576,1.235,1.245,1.235h0.617c0.083,0.227,0.18,0.445,0.283,0.661l-0.446,0.432
		c0,0.004,0,0.007,0,0.011c-0.466,0.468-0.491,1.262-0.009,1.742l1.494,1.495c0.256,0.256,0.589,0.358,0.887,0.357
		c0.314-0.004,0.629-0.142,0.857-0.369c0.004,0,0.007,0,0.011,0l0.432-0.445c0.215,0.104,0.432,0.201,0.661,0.282v0.617
		c0,0.673,0.554,1.245,1.234,1.245h2.1c0.681,0,1.235-0.572,1.235-1.245v-0.617c0.227-0.082,0.445-0.177,0.661-0.282l0.432,0.445
		c0.004,0,0.007,0,0.012,0c0.468,0.47,1.261,0.492,1.742,0.012l1.494-1.495c0.481-0.481,0.458-1.274-0.012-1.742
		c0-0.004,0-0.007,0-0.011l-0.442-0.432c0.102-0.217,0.201-0.434,0.282-0.661h0.617c0.67,0,1.244-0.552,1.244-1.235v-2.099
		c0-0.68-0.574-1.233-1.244-1.233h-0.617c-0.082-0.228-0.18-0.445-0.282-0.66l0.442-0.434c0-0.004,0-0.007,0-0.011
		c0.47-0.468,0.492-1.262,0.012-1.743l-1.494-1.494c-0.482-0.481-1.274-0.458-1.742,0.012c-0.005,0-0.009,0-0.012,0l-0.433,0.443
		c-0.217-0.105-0.434-0.201-0.661-0.282v-0.618c0-0.671-0.554-1.245-1.235-1.245C17.049,9.686,14.949,9.686,14.949,9.686z
		 M14.949,10.378h2.1c0.301,0,0.542,0.248,0.542,0.552v1.072c0.537,0.143,1.058,0.366,1.527,0.639l0.759-0.768
		c0.216-0.216,0.556-0.222,0.767-0.012l1.495,1.494c0.212,0.212,0.205,0.552-0.012,0.769l-0.769,0.757
		c0.273,0.468,0.495,0.989,0.64,1.526h1.072c0.305,0,0.552,0.243,0.552,0.542v2.1c0,0.301-0.248,0.543-0.552,0.543h-1.072
		c-0.146,0.537-0.367,1.058-0.64,1.526l0.769,0.757c0.217,0.215,0.224,0.558,0.012,0.769l-1.496,1.495
		c-0.212,0.212-0.552,0.205-0.767-0.011l-0.759-0.771c-0.47,0.273-0.991,0.497-1.527,0.639v1.072c0,0.306-0.241,0.554-0.542,0.554
		h-2.1c-0.299,0-0.542-0.248-0.542-0.554v-1.072c-0.536-0.142-1.056-0.366-1.526-0.639l-0.759,0.771
		c-0.107,0.107-0.239,0.159-0.378,0.161c-0.14,0.002-0.283-0.045-0.39-0.151l-1.495-1.495c-0.212-0.212-0.203-0.554,0.012-0.769
		l0.767-0.757c-0.272-0.468-0.493-0.989-0.639-1.526H8.929c-0.305,0-0.55-0.243-0.55-0.543v-2.1c0-0.299,0.245-0.542,0.55-0.542
		h1.072c0.146-0.535,0.367-1.056,0.639-1.526l-0.767-0.757c-0.215-0.216-0.224-0.556-0.012-0.769l1.495-1.494
		c0.212-0.212,0.554-0.205,0.767,0.012l0.759,0.768c0.47-0.273,0.989-0.496,1.526-0.639v-1.07
		C14.407,10.626,14.65,10.378,14.949,10.378z M16,15.694c-1.271,0-2.305,1.035-2.305,2.306c0,1.271,1.034,2.307,2.305,2.307
		s2.306-1.035,2.306-2.307C18.305,16.729,17.27,15.694,16,15.694z M16,16.388c0.895,0,1.612,0.716,1.612,1.613
		c0,0.895-0.718,1.613-1.612,1.613c-0.895,0-1.613-0.718-1.613-1.613C14.386,17.104,15.104,16.388,16,16.388z"/>
	<path opacity="0.3" fill="#FFFFFF" enable-background="new    " d="M14.949,10.033c-0.489,0-0.887,0.411-0.887,0.899v0.845
		c-0.384,0.121-0.755,0.269-1.106,0.454l-0.582-0.596c0-0.004,0-0.007,0-0.011c-0.344-0.343-0.921-0.357-1.268-0.011l-1.493,1.493
		c-0.346,0.346-0.332,0.925,0.011,1.266c0.004,0,0.007,0,0.011,0l0.597,0.584c-0.185,0.349-0.333,0.72-0.455,1.105H8.93
		c-0.487,0-0.899,0.396-0.899,0.887v2.1c0,0.491,0.412,0.888,0.899,0.888h0.846c0.122,0.384,0.271,0.757,0.455,1.104l-0.597,0.586
		c-0.004,0-0.007,0-0.011,0c-0.342,0.342-0.357,0.92-0.011,1.266l1.493,1.493c0.181,0.181,0.42,0.253,0.639,0.249
		c0.227-0.002,0.461-0.092,0.629-0.26c0-0.004,0-0.009,0-0.012l0.582-0.593c0.35,0.183,0.721,0.332,1.106,0.453v0.844
		c0,0.489,0.398,0.9,0.887,0.9h2.1c0.492,0,0.888-0.412,0.888-0.9v-0.844c0.384-0.122,0.755-0.271,1.106-0.453l0.584,0.593
		c0,0.004,0,0.009,0,0.012c0.342,0.342,0.92,0.357,1.266,0.011l1.495-1.493c0.345-0.346,0.332-0.925-0.012-1.266
		c-0.004,0-0.007,0-0.011,0l-0.597-0.586c0.187-0.346,0.335-0.719,0.455-1.104h0.846c0.487,0,0.899-0.398,0.899-0.888v-2.1
		c0-0.491-0.412-0.887-0.899-0.887h-0.845c-0.119-0.384-0.269-0.756-0.455-1.105l0.597-0.584c0.004,0,0.007,0,0.011,0
		c0.343-0.342,0.357-0.92,0.012-1.266l-1.495-1.494c-0.346-0.346-0.925-0.332-1.266,0.011c0,0.004,0,0.007,0,0.011l-0.584,0.596
		c-0.35-0.185-0.721-0.333-1.106-0.454V10.93c0-0.487-0.396-0.899-0.888-0.899L14.949,10.033L14.949,10.033L14.949,10.033
		L14.949,10.033z M14.949,10.378h2.1c0.301,0,0.542,0.248,0.542,0.552v1.072c0.537,0.143,1.058,0.366,1.527,0.639l0.759-0.768
		c0.216-0.216,0.556-0.222,0.767-0.012l1.495,1.494c0.212,0.212,0.204,0.552-0.012,0.769l-0.769,0.757
		c0.273,0.468,0.495,0.989,0.64,1.526h1.072c0.305,0,0.552,0.243,0.552,0.542v2.1c0,0.301-0.248,0.543-0.552,0.543h-1.072
		c-0.146,0.537-0.367,1.058-0.64,1.526l0.769,0.757c0.217,0.215,0.224,0.558,0.012,0.769l-1.496,1.495
		c-0.212,0.212-0.552,0.205-0.767-0.011l-0.759-0.771c-0.47,0.273-0.991,0.497-1.527,0.639v1.072c0,0.306-0.241,0.554-0.542,0.554
		h-2.1c-0.299,0-0.542-0.248-0.542-0.554v-1.072c-0.537-0.142-1.056-0.366-1.526-0.639l-0.758,0.771
		c-0.107,0.107-0.239,0.159-0.378,0.161c-0.14,0.002-0.283-0.045-0.39-0.151L9.86,22.641c-0.212-0.212-0.203-0.554,0.012-0.769
		l0.767-0.757c-0.272-0.468-0.493-0.989-0.639-1.526H8.93c-0.305,0-0.55-0.243-0.55-0.543v-2.1c0-0.299,0.245-0.542,0.55-0.542
		h1.072c0.146-0.535,0.367-1.056,0.639-1.526l-0.767-0.757c-0.215-0.216-0.224-0.556-0.012-0.769l1.495-1.494
		c0.212-0.212,0.554-0.205,0.767,0.012l0.759,0.768c0.47-0.273,0.989-0.496,1.526-0.639v-1.07
		C14.407,10.626,14.65,10.378,14.949,10.378z M15.999,15.694c-1.271,0-2.305,1.035-2.305,2.306c0,1.271,1.034,2.307,2.305,2.307
		s2.306-1.035,2.306-2.307C18.305,16.729,17.27,15.694,15.999,15.694z M15.999,16.04c1.085,0,1.96,0.875,1.96,1.96
		c0,1.083-0.875,1.96-1.96,1.96c-1.085,0-1.958-0.877-1.958-1.96C14.042,16.915,14.915,16.04,15.999,16.04z"/>
	<path opacity="0.3" fill="#669CCC" enable-background="new    " d="M14.947,25.622c-0.299,0-0.543-0.249-0.543-0.556v-1.074
		c-0.534-0.142-1.049-0.358-1.517-0.631l-0.766,0.766c-0.107,0.106-0.236,0.162-0.377,0.164c-0.138,0.002-0.279-0.048-0.387-0.156
		L9.863,22.64c-0.212-0.21-0.205-0.548,0.012-0.764l0.764-0.764c-0.273-0.468-0.487-0.98-0.632-1.517H8.932
		c-0.304,0-0.552-0.243-0.552-0.543v-2.105c0-0.301,0.248-0.542,0.552-0.542h1.075c0.146-0.537,0.358-1.05,0.632-1.518l-0.764-0.765
		c-0.217-0.216-0.224-0.552-0.012-0.764l1.495-1.496c0.214-0.212,0.551-0.203,0.764,0.012l0.766,0.765
		c0.468-0.273,0.983-0.489,1.517-0.631v-1.075c0-0.306,0.244-0.555,0.543-0.555h2.105c0.3,0,0.544,0.249,0.544,0.555v1.075
		c0.536,0.143,1.049,0.358,1.515,0.631l0.767-0.765c0.216-0.215,0.552-0.223,0.764-0.012l1.495,1.496
		c0.212,0.212,0.205,0.547-0.011,0.764l-0.765,0.765c0.273,0.468,0.489,0.982,0.632,1.518h1.075c0.305,0,0.554,0.241,0.554,0.542
		v2.105c0,0.301-0.249,0.543-0.554,0.543h-1.075c-0.143,0.537-0.358,1.049-0.632,1.517l0.765,0.764
		c0.216,0.215,0.222,0.554,0.011,0.764l-1.495,1.495c-0.212,0.215-0.548,0.206-0.764-0.009l-0.767-0.766
		c-0.466,0.272-0.979,0.489-1.515,0.631v1.075c0,0.306-0.244,0.556-0.544,0.556L14.947,25.622L14.947,25.622L14.947,25.622z
		 M16,20.305c1.271,0,2.304-1.034,2.304-2.305c0-1.271-1.034-2.305-2.304-2.305c-1.271,0-2.304,1.034-2.304,2.305
		C13.696,19.271,14.729,20.305,16,20.305z"/>
	<path opacity="0.3" fill="#669CCC" enable-background="new    " d="M14.949,10.378c-0.299,0-0.542,0.248-0.542,0.552v1.072
		c-0.537,0.143-1.056,0.366-1.526,0.639l-0.759-0.768c-0.214-0.216-0.556-0.222-0.767-0.012L9.86,13.355
		c-0.212,0.212-0.203,0.552,0.012,0.769l0.767,0.757c-0.272,0.468-0.493,0.989-0.639,1.526H8.93c-0.305,0-0.55,0.243-0.55,0.542v2.1
		c0,0.301,0.245,0.543,0.55,0.543h1.072c0.146,0.537,0.367,1.058,0.639,1.526l-0.767,0.757c-0.215,0.215-0.224,0.558-0.012,0.769
		l1.495,1.495c0.106,0.106,0.25,0.152,0.39,0.151c0.138-0.002,0.271-0.053,0.378-0.161l0.759-0.771
		c0.47,0.273,0.989,0.497,1.526,0.639v1.072c0,0.306,0.243,0.554,0.542,0.554h2.1c0.301,0,0.542-0.248,0.542-0.554v-1.072
		c0.537-0.142,1.058-0.366,1.528-0.639l0.759,0.771c0.215,0.215,0.556,0.222,0.767,0.011l1.495-1.495
		c0.212-0.212,0.205-0.554-0.012-0.769l-0.77-0.757c0.273-0.468,0.495-0.989,0.64-1.526h1.072c0.305,0,0.552-0.243,0.552-0.543v-2.1
		c0-0.299-0.248-0.542-0.552-0.542h-1.072c-0.146-0.535-0.367-1.056-0.64-1.526l0.769-0.757c0.217-0.216,0.224-0.556,0.012-0.769
		l-1.495-1.494c-0.212-0.212-0.552-0.205-0.767,0.012l-0.759,0.768c-0.47-0.273-0.991-0.496-1.528-0.639V10.93
		c0-0.306-0.241-0.552-0.542-0.552C17.048,10.378,14.949,10.378,14.949,10.378z M15.101,11.072h1.797v0.93
		c0,0.316,0.214,0.592,0.518,0.671c0.474,0.126,0.936,0.321,1.355,0.563c0.273,0.161,0.622,0.117,0.844-0.109l0.661-0.66
		l1.256,1.256l-0.66,0.66c-0.226,0.224-0.271,0.572-0.109,0.845c0.243,0.418,0.437,0.883,0.565,1.353
		c0.078,0.306,0.355,0.52,0.672,0.52h0.929v1.798h-0.929c-0.316,0-0.593,0.214-0.672,0.52c-0.127,0.47-0.321,0.936-0.565,1.353
		c-0.161,0.272-0.117,0.621,0.109,0.844l0.66,0.661l-1.256,1.255l-0.661-0.66c-0.222-0.226-0.571-0.269-0.844-0.107
		c-0.418,0.243-0.882,0.437-1.355,0.563c-0.305,0.078-0.518,0.355-0.518,0.672v0.93h-1.797V24c0-0.316-0.214-0.593-0.519-0.672
		c-0.472-0.125-0.934-0.319-1.353-0.563c-0.273-0.161-0.621-0.118-0.844,0.107l-0.661,0.66l-1.256-1.255l0.661-0.661
		c0.224-0.224,0.269-0.572,0.107-0.844c-0.243-0.417-0.437-0.883-0.563-1.353c-0.08-0.306-0.357-0.52-0.674-0.52H9.07v-1.799h0.929
		c0.316,0,0.593-0.214,0.674-0.52c0.125-0.471,0.319-0.934,0.563-1.353c0.161-0.273,0.117-0.621-0.107-0.845l-0.661-0.66
		l1.256-1.256l0.661,0.66c0.224,0.226,0.571,0.269,0.844,0.109c0.419-0.243,0.882-0.437,1.353-0.563
		c0.306-0.079,0.519-0.355,0.519-0.671C15.101,12.002,15.101,11.072,15.101,11.072z M16,15.002c-1.647,0-2.998,1.352-2.998,2.998
		c0,1.649,1.352,3,2.998,3c1.646,0,2.998-1.352,2.998-3C18.998,16.353,17.646,15.002,16,15.002z M16,15.694
		c1.271,0,2.306,1.035,2.306,2.306c0,1.271-1.035,2.307-2.306,2.307c-1.271,0-2.305-1.035-2.305-2.307
		C13.694,16.729,14.729,15.694,16,15.694z"/>
	<path opacity="0.3" fill="#669CCC" enable-background="new    " d="M14.949,10.378c-0.299,0-0.542,0.248-0.542,0.552v1.072
		c-0.537,0.143-1.056,0.366-1.526,0.639l-0.759-0.768c-0.214-0.216-0.556-0.222-0.767-0.012L9.86,13.355
		c-0.212,0.212-0.203,0.552,0.012,0.769l0.767,0.757c-0.272,0.468-0.493,0.989-0.639,1.526H8.93c-0.305,0-0.55,0.243-0.55,0.542v2.1
		c0,0.301,0.245,0.543,0.55,0.543h1.072c0.146,0.537,0.367,1.058,0.639,1.526l-0.767,0.757c-0.215,0.215-0.224,0.558-0.012,0.769
		l1.495,1.495c0.106,0.106,0.25,0.152,0.39,0.151c0.138-0.002,0.271-0.053,0.378-0.161l0.759-0.771
		c0.47,0.273,0.989,0.497,1.526,0.639v1.072c0,0.306,0.243,0.554,0.542,0.554h2.1c0.301,0,0.542-0.248,0.542-0.554v-1.072
		c0.537-0.142,1.058-0.366,1.528-0.639l0.759,0.771c0.215,0.215,0.556,0.222,0.767,0.011l1.495-1.495
		c0.212-0.212,0.205-0.554-0.012-0.769l-0.77-0.757c0.273-0.468,0.495-0.989,0.64-1.526h1.072c0.305,0,0.552-0.243,0.552-0.543v-2.1
		c0-0.299-0.248-0.542-0.552-0.542h-1.072c-0.146-0.535-0.367-1.056-0.64-1.526l0.769-0.757c0.217-0.216,0.224-0.556,0.012-0.769
		l-1.495-1.494c-0.212-0.212-0.552-0.205-0.767,0.012l-0.759,0.768c-0.47-0.273-0.991-0.496-1.528-0.639V10.93
		c0-0.306-0.241-0.552-0.542-0.552C17.048,10.378,14.949,10.378,14.949,10.378z M14.949,10.726h2.1c0.111,0,0.197,0.083,0.197,0.205
		v1.072c0,0.157,0.106,0.296,0.26,0.335c0.502,0.135,0.996,0.348,1.439,0.606c0.137,0.078,0.312,0.052,0.422-0.064l0.757-0.757
		c0.089-0.091,0.193-0.089,0.271-0.012l1.495,1.494c0.077,0.078,0.077,0.181-0.011,0.272l-0.759,0.757
		c-0.116,0.109-0.143,0.283-0.064,0.422c0.258,0.443,0.472,0.935,0.606,1.439c0.039,0.153,0.177,0.26,0.337,0.26h1.072
		c0.122,0,0.206,0.085,0.206,0.195v2.1c0,0.111-0.085,0.197-0.206,0.197h-1.072c-0.159,0-0.298,0.106-0.337,0.258
		c-0.135,0.504-0.348,0.998-0.606,1.442c-0.078,0.138-0.051,0.312,0.064,0.42l0.759,0.759c0.088,0.091,0.088,0.192,0.011,0.271
		l-1.495,1.495c-0.077,0.078-0.181,0.078-0.271-0.011l-0.757-0.759c-0.109-0.117-0.285-0.143-0.422-0.064
		c-0.445,0.258-0.938,0.472-1.439,0.606c-0.154,0.039-0.26,0.177-0.26,0.335v1.072c0,0.123-0.085,0.206-0.197,0.206h-2.1
		c-0.109,0-0.195-0.084-0.195-0.206v-1.072c0-0.157-0.106-0.296-0.26-0.335c-0.503-0.135-0.996-0.348-1.439-0.606
		c-0.138-0.079-0.312-0.052-0.422,0.064l-0.757,0.759c-0.048,0.048-0.077,0.063-0.13,0.063c-0.062,0.002-0.111-0.022-0.14-0.053
		l-1.495-1.495c-0.079-0.078-0.079-0.18,0.012-0.271l0.757-0.759c0.118-0.107,0.143-0.282,0.064-0.42
		c-0.258-0.445-0.474-0.938-0.606-1.442c-0.04-0.152-0.177-0.258-0.337-0.258H8.93c-0.122,0-0.203-0.085-0.203-0.197v-2.1
		c0-0.109,0.082-0.195,0.203-0.195h1.072c0.159,0,0.298-0.106,0.337-0.26c0.133-0.504,0.348-0.996,0.606-1.439
		c0.078-0.139,0.053-0.313-0.064-0.422l-0.757-0.757c-0.091-0.091-0.091-0.193-0.012-0.272l1.495-1.494
		c0.077-0.078,0.18-0.078,0.27,0.012l0.757,0.757c0.109,0.117,0.283,0.143,0.422,0.064c0.445-0.258,0.936-0.472,1.44-0.606
		c0.153-0.039,0.26-0.177,0.26-0.335V10.93C14.754,10.81,14.84,10.726,14.949,10.726z M16,15.348c-1.459,0-2.651,1.193-2.651,2.652
		c0,1.459,1.192,2.651,2.651,2.651c1.458,0,2.651-1.192,2.651-2.651C18.651,16.54,17.459,15.348,16,15.348z M16,15.694
		c1.271,0,2.306,1.035,2.306,2.306c0,1.271-1.035,2.307-2.306,2.307c-1.271,0-2.305-1.035-2.305-2.307
		C13.694,16.729,14.729,15.694,16,15.694z"/>
	<path opacity="0.3" fill="#669CCC" enable-background="new    " d="M14.949,10.378c-0.299,0-0.542,0.248-0.542,0.552v0.346
		c0-0.306,0.243-0.552,0.542-0.552h2.1c0.301,0,0.542,0.247,0.542,0.552V10.93c0-0.306-0.241-0.552-0.542-0.552H14.949z
		 M11.735,11.71c-0.138-0.003-0.273,0.046-0.379,0.151L9.86,13.356c-0.143,0.146-0.174,0.348-0.119,0.53
		c0.025-0.064,0.066-0.13,0.119-0.183l1.495-1.494c0.212-0.212,0.553-0.205,0.767,0.012l0.759,0.769
		c0.47-0.273,0.989-0.497,1.526-0.639v-0.346c-0.537,0.143-1.056,0.366-1.526,0.639l-0.759-0.768
		C12.016,11.765,11.872,11.713,11.735,11.71z M20.266,11.71c-0.138,0.003-0.282,0.054-0.39,0.162l-0.759,0.768
		c-0.47-0.273-0.991-0.496-1.528-0.639v0.346c0.537,0.143,1.058,0.366,1.528,0.639l0.759-0.769c0.215-0.216,0.555-0.224,0.767-0.012
		l1.495,1.494c0.054,0.053,0.093,0.119,0.118,0.183c0.058-0.182,0.025-0.385-0.118-0.53l-1.495-1.494
		C20.537,11.756,20.402,11.708,20.266,11.71z M10.523,15.11c-0.215,0.408-0.398,0.845-0.521,1.298H8.93
		c-0.304,0-0.55,0.243-0.55,0.542v0.346c0-0.299,0.246-0.542,0.55-0.542h1.072c0.146-0.537,0.367-1.056,0.639-1.526L10.523,15.11z
		 M21.477,15.11l-0.119,0.119c0.273,0.468,0.495,0.989,0.64,1.526h1.072c0.305,0,0.552,0.243,0.552,0.542v-0.346
		c0-0.299-0.248-0.542-0.552-0.542h-1.072C21.876,15.955,21.692,15.517,21.477,15.11z M13.703,18.174
		c-0.002,0.056-0.009,0.114-0.009,0.171c0,1.273,1.034,2.307,2.305,2.307s2.306-1.034,2.306-2.307c0-0.056-0.007-0.114-0.012-0.171
		c-0.088,1.19-1.08,2.132-2.294,2.132C14.785,20.307,13.792,19.366,13.703,18.174z M10.523,21.238l-0.649,0.638
		c-0.159,0.161-0.201,0.382-0.131,0.576c0.027-0.084,0.064-0.162,0.131-0.23l0.767-0.757C10.599,21.391,10.561,21.313,10.523,21.238
		z M21.477,21.238c-0.039,0.075-0.077,0.153-0.119,0.227l0.769,0.757c0.067,0.067,0.104,0.146,0.13,0.23
		c0.073-0.195,0.028-0.416-0.13-0.576L21.477,21.238z"/>
	<path opacity="0.3" fill="#FFFFFF" enable-background="new    " d="M9.741,13.897c-0.07,0.192-0.028,0.415,0.132,0.573l0.649,0.639
		c0.04-0.075,0.077-0.155,0.118-0.227l-0.767-0.757C9.806,14.058,9.768,13.977,9.741,13.897z M22.256,13.897
		c-0.025,0.08-0.063,0.161-0.13,0.227l-0.769,0.757c0.043,0.072,0.08,0.153,0.12,0.227l0.649-0.639
		C22.285,14.312,22.33,14.089,22.256,13.897z M16,15.694c-1.271,0-2.305,1.035-2.305,2.306c0,0.058,0.007,0.117,0.009,0.174
		c0.089-1.192,1.081-2.134,2.297-2.134c1.214,0,2.207,0.941,2.294,2.134c0.005-0.058,0.012-0.117,0.012-0.174
		C18.305,16.729,17.27,15.694,16,15.694z M8.379,19.049v0.346c0,0.301,0.246,0.542,0.55,0.542h1.072
		c0.123,0.453,0.306,0.892,0.521,1.3l0.118-0.119c-0.272-0.468-0.493-0.989-0.639-1.526H8.93C8.626,19.593,8.379,19.35,8.379,19.049
		z M23.621,19.049c0,0.301-0.248,0.543-0.552,0.543h-1.072c-0.146,0.537-0.367,1.058-0.64,1.526l0.12,0.119
		c0.215-0.408,0.398-0.848,0.521-1.3h1.072c0.305,0,0.552-0.241,0.552-0.542v-0.348L23.621,19.049L23.621,19.049z M9.741,22.46
		c-0.054,0.185-0.023,0.387,0.12,0.531l1.495,1.493c0.106,0.107,0.249,0.153,0.39,0.152c0.138-0.002,0.271-0.053,0.378-0.162
		l0.759-0.769c0.47,0.272,0.989,0.497,1.526,0.639v-0.346c-0.537-0.142-1.056-0.366-1.526-0.639l-0.759,0.771
		c-0.107,0.107-0.239,0.159-0.378,0.161c-0.14,0.002-0.283-0.045-0.39-0.151l-1.495-1.495C9.807,22.59,9.767,22.525,9.741,22.46z
		 M17.59,23.997v0.346c0.537-0.142,1.058-0.367,1.528-0.639l0.759,0.769c0.215,0.217,0.556,0.222,0.767,0.011l1.495-1.493
		c0.143-0.143,0.176-0.346,0.118-0.531c-0.023,0.064-0.064,0.132-0.118,0.185l-1.495,1.495c-0.212,0.212-0.552,0.205-0.767-0.011
		l-0.759-0.771C18.647,23.631,18.127,23.855,17.59,23.997 M14.407,25.068v0.346c0,0.306,0.243,0.554,0.542,0.554h2.1
		c0.301,0,0.542-0.248,0.542-0.554v-0.346c0,0.306-0.241,0.554-0.542,0.554h-2.1C14.65,25.622,14.407,25.375,14.407,25.068z"/>
</g>
</svg>
