<?xml version="1.0" encoding="utf-8"?>
<!-- Generator: Adobe Illustrator 17.0.0, SVG Export Plug-In . SVG Version: 6.00 Build 0)  -->
<!DOCTYPE svg PUBLIC "-//W3C//DTD SVG 1.1//EN" "http://www.w3.org/Graphics/SVG/1.1/DTD/svg11.dtd">
<svg version="1.1" id="图层_1" xmlns="http://www.w3.org/2000/svg" xmlns:xlink="http://www.w3.org/1999/xlink" x="0px" y="0px"
	 width="32px" height="32px" viewBox="0 0 32 32" enable-background="new 0 0 32 32" xml:space="preserve">
<g>
	<g id="g151" opacity="0.5">
		<path id="path153" opacity="0.08" enable-background="new    " d="M27.059,29.57H4.96c-2.035,0-3.693-1.595-3.693-3.549v2.714
			c0,1.527,1.297,2.764,2.886,2.764h23.711c1.589,0,2.868-1.238,2.868-2.764v-2.714C30.733,27.977,29.093,29.57,27.059,29.57z"/>
		<path id="path155" opacity="0.1" enable-background="new    " d="M27.04,29.57H4.941c-2.034,0-3.674-1.566-3.674-3.519v1.42
			c0,1.527,0.7,3.387,3.538,3.387s19.496,0,22.371,0s3.557-1.86,3.557-3.387v-1.42C30.733,28.006,29.074,29.57,27.04,29.57z"/>
		<path id="path157" opacity="0.1" enable-background="new    " d="M27.04,29.57H4.941c-2.034,0-3.674-1.566-3.674-3.519v0.766
			c0,1.527,1.215,3.397,3.538,3.397s19.711,0,22.371,0c2.66,0,3.557-1.87,3.557-3.396v-0.766
			C30.733,28.006,29.074,29.57,27.04,29.57z"/>
		<rect id="rect159" x="4.615" y="29.57" opacity="0.05" enable-background="new    " width="22.769" height="0.643"/>
		<rect id="rect161" x="5.285" y="29.57" opacity="0.05" enable-background="new    " width="20.76" height="0.643"/>
		<rect id="rect163" x="5.285" y="30.214" opacity="0.05" enable-background="new    " width="20.76" height="0.643"/>
		<rect id="rect165" x="6.624" y="30.214" opacity="0.05" enable-background="new    " width="18.751" height="0.643"/>
		<rect id="rect167" x="8.633" y="30.214" opacity="0.05" enable-background="new    " width="14.733" height="0.643"/>
		<rect id="rect169" x="11.312" y="30.214" opacity="0.05" enable-background="new    " width="9.376" height="0.643"/>
		<rect id="rect171" x="6.624" y="29.57" opacity="0.05" enable-background="new    " width="18.751" height="0.643"/>
		<rect id="rect173" x="7.964" y="29.57" opacity="0.05" enable-background="new    " width="16.072" height="0.643"/>
		<rect id="rect175" x="8.633" y="29.57" opacity="0.05" enable-background="new    " width="14.733" height="0.643"/>
		<rect id="rect177" x="9.973" y="29.57" opacity="0.05" enable-background="new    " width="12.054" height="0.643"/>
		<rect id="rect179" x="9.973" y="29.57" opacity="0.05" enable-background="new    " width="12.054" height="0.643"/>
	</g>
	<path fill="#C4DCED" stroke="#9DBCD7" stroke-miterlimit="10" d="M30.466,25.625c0,2.104-1.706,3.809-3.809,3.809H5.342
		c-2.104,0-3.809-1.706-3.809-3.809V4.309c0-2.104,1.706-3.809,3.809-3.809h21.316c2.104,0,3.809,1.706,3.809,3.809L30.466,25.625
		L30.466,25.625z"/>
	<path opacity="0.6" fill="none" stroke="#FFFFFF" stroke-miterlimit="10" enable-background="new    " d="M5.342,28.434
		c-1.549,0-2.809-1.261-2.809-2.81V4.309c0-1.549,1.26-2.809,2.809-2.809h21.316c1.549,0,2.809,1.26,2.809,2.809v21.315
		c0,1.549-1.261,2.81-2.81,2.81C26.657,28.435,5.342,28.435,5.342,28.434z"/>
	<path opacity="0.05" fill="none" stroke="#000000" stroke-miterlimit="10" enable-background="new    " d="M30.569,8.482
		c0,0,0-1.28-1.264-1.28c-3.669,0-15.386,0.002-16.434,0.002c-1.275,0-1.264-1.262-1.264-1.262s0-1.27-1.264-1.27
		c-2.213,0-6.645,0-7.585,0c-1.245,0-1.264,1.224-1.264,1.263"/>
	
		<linearGradient id="SVGID_1_" gradientUnits="userSpaceOnUse" x1="1385.9995" y1="-1686.4335" x2="1385.9995" y2="-1662.5765" gradientTransform="matrix(1 0 0 -1 -1370 -1657)">
		<stop  offset="0" style="stop-color:#D1E0ED"/>
		<stop  offset="1" style="stop-color:#E4EEFB"/>
	</linearGradient>
	<path fill="url(#SVGID_1_)" stroke="#9DBCD7" stroke-miterlimit="10" d="M5.334,29.433h21.395c2.104,0,3.738-1.749,3.738-3.853V8.5
		c0-0.3-0.448-0.582-1.045-0.582c-3.685,0-15.435,0.002-16.488,0.002c-1.28,0-1.261-1.168-1.261-1.168s0.009-1.176-1.261-1.176
		c-2.222,0-6.674,0-7.618,0c-1.25,0-1.262,1.036-1.262,1.075v18.93C1.533,27.684,3.23,29.433,5.334,29.433z"/>
	<path opacity="0.8" fill="none" stroke="#FFFFFF" stroke-miterlimit="10" enable-background="new    " d="M5.333,28.434
		c-1.544,0-2.8-1.279-2.801-2.853V6.651c0.031-0.045,0.105-0.075,0.261-0.075h7.618c0.144,0,0.202,0.029,0.21,0.037
		c0.028,0.029,0.051,0.131,0.051,0.132c-0.002,0.142,0.016,0.928,0.618,1.541c0.285,0.29,0.8,0.634,1.642,0.634
		c0,0,16.519-0.001,16.533-0.001v16.662c0,1.573-1.229,2.853-2.738,2.853C26.727,28.435,5.333,28.435,5.333,28.434z"/>
	<g id="g27_1_">
		
			<linearGradient id="path36_2_" gradientUnits="userSpaceOnUse" x1="1784.7555" y1="-2475.4534" x2="1788.7751" y2="-2482.4158" gradientTransform="matrix(1 0 0 -1 -1782 -2475)">
			<stop  offset="0" style="stop-color:#FFFFFF"/>
			<stop  offset="0.5" style="stop-color:#FFFFFF;stop-opacity:0.6"/>
			<stop  offset="1" style="stop-color:#FFFFFF;stop-opacity:0.15"/>
		</linearGradient>
		<path id="path36_1_" fill="url(#path36_2_)" d="M6.07,8.598c0.449-0.93,0.998-1.802,1.627-2.607L6.552,3.48
			C5.574,4.404,4.781,5.424,4.147,6.412L6.07,8.598z"/>
		
			<linearGradient id="path45_2_" gradientUnits="userSpaceOnUse" x1="1788.3998" y1="-2474.4114" x2="1791.0304" y2="-2478.9678" gradientTransform="matrix(1 0 0 -1 -1782 -2475)">
			<stop  offset="0" style="stop-color:#FFFFFF"/>
			<stop  offset="0.5" style="stop-color:#FFFFFF;stop-opacity:0.6"/>
			<stop  offset="1" style="stop-color:#FFFFFF;stop-opacity:0.15"/>
		</linearGradient>
		<path id="path45_1_" fill="url(#path45_2_)" d="M6.189,1.067l0.598,1.311C7.363,1.9,7.994,1.736,8.682,1.067H6.189z"/>
		
			<linearGradient id="path54_2_" gradientUnits="userSpaceOnUse" x1="1789.2275" y1="-2473.5459" x2="1792.4418" y2="-2479.113" gradientTransform="matrix(1 0 0 -1 -1782 -2475)">
			<stop  offset="0" style="stop-color:#FFFFFF"/>
			<stop  offset="0.5" style="stop-color:#FFFFFF;stop-opacity:0.6"/>
			<stop  offset="1" style="stop-color:#FFFFFF;stop-opacity:0.15"/>
		</linearGradient>
		<path id="path54_1_" fill="url(#path54_2_)" d="M10.68,1.067h-0.473C9.013,1.736,7.969,2.247,7.074,3.009l1.097,2.408
			c0.937-1.083,2.025-2.032,3.243-2.798c0.009-0.008,0.016-0.016,0.026-0.024C12.804,1.416,11.449,1.067,10.68,1.067z"/>
		
			<linearGradient id="path63_2_" gradientUnits="userSpaceOnUse" x1="1782.4993" y1="-2478.6277" x2="1785.9874" y2="-2484.6692" gradientTransform="matrix(1 0 0 -1 -1782 -2475)">
			<stop  offset="0" style="stop-color:#FFFFFF"/>
			<stop  offset="0.5" style="stop-color:#FFFFFF;stop-opacity:0.6"/>
			<stop  offset="1" style="stop-color:#FFFFFF;stop-opacity:0.15"/>
		</linearGradient>
		<path id="path63_1_" fill="url(#path63_2_)" d="M3.782,7.01c-0.734,1.25-1.214,2.405-1.499,3.195
			c0.337,0.481,0.894,0.797,1.526,0.797c0.783,0,1.451-0.483,1.727-1.167c0.071-0.191,0.157-0.374,0.236-0.562L3.782,7.01z"/>
		
			<linearGradient id="path72_2_" gradientUnits="userSpaceOnUse" x1="1782.3423" y1="-2478.8752" x2="1786.208" y2="-2485.5708" gradientTransform="matrix(1 0 0 -1 -1782 -2475)">
			<stop  offset="0" style="stop-color:#FFFFFF"/>
			<stop  offset="0.5" style="stop-color:#FFFFFF;stop-opacity:0.6"/>
			<stop  offset="1" style="stop-color:#FFFFFF;stop-opacity:0.15"/>
		</linearGradient>
		<path id="path72_1_" fill="url(#path72_2_)" d="M1.959,4.937L1.945,9.135c0,0,0,0.001,0,0.003c0,0.026,0.006,0.051,0.008,0.077
			C2.272,8.438,2.718,7.49,3.322,6.486L1.959,4.937z"/>
		
			<linearGradient id="path149_2_" gradientUnits="userSpaceOnUse" x1="1785.2657" y1="-2476.7783" x2="1788.8955" y2="-2483.0654" gradientTransform="matrix(1 0 0 -1 -1782 -2475)">
			<stop  offset="0" style="stop-color:#FFFFFF"/>
			<stop  offset="0.5" style="stop-color:#FFFFFF;stop-opacity:0.6"/>
			<stop  offset="1" style="stop-color:#FFFFFF;stop-opacity:0.15"/>
		</linearGradient>
		<path id="path149_1_" fill="url(#path149_2_)" d="M5.391,1.076c-1.364-0.113-3.16,1.423-3.39,2.896l1.692,1.924
			c0.675-1.031,1.515-2.087,2.552-3.04L5.391,1.076z"/>
	</g>
	
		<radialGradient id="SVGID_2_" cx="1862.412" cy="1354.463" r="22.6588" gradientTransform="matrix(0.0197 0.9998 0.9109 -0.018 -1255.4794 -1826.5901)" gradientUnits="userSpaceOnUse">
		<stop  offset="0" style="stop-color:#FFFFFF;stop-opacity:0.6"/>
		<stop  offset="0.3783" style="stop-color:#FAFCFE;stop-opacity:0.4487"/>
		<stop  offset="0.829" style="stop-color:#EBF3FC;stop-opacity:0.2684"/>
		<stop  offset="1" style="stop-color:#E4EEFB;stop-opacity:0.2"/>
	</radialGradient>
	<path fill="url(#SVGID_2_)" d="M5.582,28.655c-1.774,0-3.216-1.465-3.216-3.267V6.9c0-0.023,0.004-0.221,0.151-0.369
		c0.123-0.123,0.32-0.186,0.585-0.186h7.441c0.294,0,0.443,0.035,0.532,0.125c0.198,0.199,0.206,0.501,0.206,0.505
		c-0.001,0.065,0.003,0.712,0.482,1.198c0.305,0.31,0.724,0.467,1.244,0.467c0,0,13.755-0.005,16.1-0.005
		c0.31,0,0.481,0.106,0.525,0.158v16.596c0,1.802-1.415,3.267-3.155,3.267L5.582,28.655L5.582,28.655L5.582,28.655z"/>
</g>
<g>
	<g opacity="0.3" enable-background="new    ">
		<g opacity="0.5">
			<circle fill="#FFFFFF" cx="21.634" cy="16.474" r="1.141"/>
		</g>
		<g>
			<circle fill="#669CCC" cx="21.634" cy="15.927" r="1.141"/>
		</g>
	</g>
	<path opacity="0.3" fill="#669CCC" enable-background="new    " d="M21.634,14.786c-0.63,0-1.141,0.51-1.141,1.141
		s0.51,1.141,1.141,1.141c0.63,0,1.141-0.51,1.141-1.141C22.775,15.297,22.264,14.786,21.634,14.786z M21.634,16.782
		c-0.472,0-0.856-0.384-0.856-0.856c0-0.472,0.384-0.856,0.856-0.856s0.856,0.384,0.856,0.856
		C22.489,16.398,22.106,16.782,21.634,16.782z"/>
	<g>
		<path opacity="0.1" fill="#669CCC" enable-background="new    " d="M25.073,24.481c0,0.302-0.245,0.547-0.547,0.547H7.467
			c-0.302,0-0.547-0.245-0.547-0.547V12.04c0-0.302,0.245-0.547,0.547-0.547h17.06c0.302,0,0.547,0.245,0.547,0.547V24.481
			L25.073,24.481z"/>
		<path opacity="0.3" fill="#669CCC" enable-background="new    " d="M24.527,11.494H7.467c-0.302,0-0.547,0.245-0.547,0.547v12.44
			c0,0.302,0.245,0.547,0.547,0.547h17.06c0.302,0,0.547-0.245,0.547-0.547V12.04C25.073,11.739,24.828,11.494,24.527,11.494z
			 M24.8,24.481c0,0.151-0.123,0.273-0.273,0.273H7.468c-0.151,0-0.273-0.123-0.273-0.273V12.04c0-0.151,0.123-0.273,0.273-0.273
			h17.06c0.151,0,0.273,0.123,0.273,0.273L24.8,24.481L24.8,24.481z"/>
	</g>
	<g>
		<g opacity="0.1" enable-background="new    ">
			<g>
				<path fill="#FFFFFF" d="M14.958,17.201c0,0-1.097-0.672-1.175-0.878c-0.078-0.207-1.207-0.388-1.207-0.388l-0.401,0.258
					l-0.452,0.749v-0.052c0,0-0.099-0.212-0.28-0.393c-0.299-0.112-1.136,2.242-2.218,2.242H9.121l-0.335-0.046l-0.258-0.256
					l-0.465-0.541l-0.31,0.259c0,0-0.388,0.207-0.49,0.31c-0.103,0.103-0.329,0.181-0.329,0.181L6.887,18.59v6.37
					c0,0.302,0.245,0.547,0.547,0.547h17.06c0.302,0,0.547-0.245,0.547-0.547v-2.858C21.765,21.56,17.243,19.997,14.958,17.201z"/>
			</g>
			<g>
				<path fill="#669CCC" d="M14.958,16.655c0,0-1.097-0.672-1.175-0.878c-0.078-0.207-1.207-0.388-1.207-0.388l-0.401,0.258
					l-0.452,0.749v-0.052c0,0-0.099-0.212-0.28-0.393c-0.299-0.112-1.136,2.242-2.218,2.242H9.121l-0.335-0.046l-0.258-0.256
					L8.062,17.35l-0.31,0.259c0,0-0.388,0.207-0.49,0.31c-0.103,0.103-0.329,0.181-0.329,0.181l-0.046-0.058v6.37
					c0,0.302,0.245,0.547,0.547,0.547h17.06c0.302,0,0.547-0.245,0.547-0.547v-2.858C21.765,21.014,17.243,19.45,14.958,16.655z"/>
			</g>
		</g>
		<path opacity="0.3" fill="#669CCC" enable-background="new    " d="M14.958,16.655c0,0-1.097-0.672-1.175-0.878
			c-0.078-0.207-1.207-0.388-1.207-0.388l-0.401,0.258l-0.452,0.749v-0.052c0,0-0.099-0.212-0.28-0.393
			c-0.299-0.112-1.136,2.242-2.218,2.242H9.121l-0.335-0.046l-0.258-0.256L8.062,17.35l-0.31,0.259c0,0-0.388,0.207-0.49,0.31
			c-0.103,0.103-0.329,0.181-0.329,0.181l-0.046-0.058v6.37c0,0.302,0.245,0.547,0.547,0.547h17.06c0.302,0,0.547-0.245,0.547-0.547
			v-2.858C21.765,21.014,17.243,19.45,14.958,16.655z M24.766,24.413c0,0.151-0.123,0.273-0.273,0.273H7.434
			c-0.151,0-0.273-0.123-0.273-0.273v-6.11c0.093-0.042,0.212-0.108,0.295-0.19c0.041-0.041,0.241-0.163,0.426-0.263l0.025-0.013
			l0.124-0.104l0.29,0.337l0.338,0.336l0.444,0.061h0.122c0.834,0,1.458-0.999,1.913-1.729c0.086-0.136,0.184-0.294,0.261-0.405
			c0.02,0.031,0.037,0.059,0.05,0.08v0.965l0.927-1.535l0.258-0.167c0.404,0.071,0.803,0.178,0.916,0.246
			c0.061,0.109,0.278,0.358,1.226,0.941c2.26,2.731,6.592,4.323,9.99,4.923L24.766,24.413L24.766,24.413z"/>
	</g>
	<path opacity="0.1" fill="#669CCC" enable-background="new    " d="M17.676,21.911c-3.533,0.12-9.035,1.144-10.716,1.469v1.033
		c0,0.302,0.245,0.547,0.547,0.547h17.059c0.302,0,0.547-0.245,0.547-0.547v-4.436C23.931,20.316,21.552,21.779,17.676,21.911z"/>
	<path opacity="0.3" fill="#669CCC" enable-background="new    " d="M17.67,21.911c-3.533,0.12-9.035,1.144-10.716,1.469v1.033
		c0,0.302,0.245,0.547,0.547,0.547H24.56c0.302,0,0.547-0.245,0.547-0.547v-4.436C23.926,20.316,21.547,21.779,17.67,21.911z
		 M24.833,24.413c0,0.151-0.123,0.273-0.273,0.273H7.501c-0.151,0-0.273-0.123-0.273-0.273v-0.807
		c2.209-0.422,7.18-1.311,10.452-1.422c2.987-0.101,5.076-0.969,6.458-1.544c0.256-0.107,0.49-0.203,0.695-0.281
		C24.833,20.358,24.833,24.413,24.833,24.413z"/>
</g>
</svg>
