<?xml version="1.0" encoding="utf-8"?>
<!-- Generator: Adobe Illustrator 17.0.0, SVG Export Plug-In . SVG Version: 6.00 Build 0)  -->
<!DOCTYPE svg PUBLIC "-//W3C//DTD SVG 1.1//EN" "http://www.w3.org/Graphics/SVG/1.1/DTD/svg11.dtd">
<svg version="1.1" id="图层_1" xmlns="http://www.w3.org/2000/svg" xmlns:xlink="http://www.w3.org/1999/xlink" x="0px" y="0px"
	 width="32px" height="32px" viewBox="0 0 32 32" enable-background="new 0 0 32 32" xml:space="preserve">
<g>
	<g id="g151" opacity="0.5">
		<path id="path153" opacity="0.08" enable-background="new    " d="M27.059,29.57H4.96c-2.035,0-3.693-1.595-3.693-3.549v2.714
			c0,1.527,1.297,2.764,2.886,2.764h23.711c1.589,0,2.868-1.238,2.868-2.764v-2.714C30.733,27.977,29.093,29.57,27.059,29.57z"/>
		<path id="path155" opacity="0.1" enable-background="new    " d="M27.04,29.57H4.941c-2.034,0-3.674-1.566-3.674-3.519v1.42
			c0,1.527,0.7,3.387,3.538,3.387s19.496,0,22.371,0s3.557-1.86,3.557-3.387v-1.42C30.733,28.006,29.074,29.57,27.04,29.57z"/>
		<path id="path157" opacity="0.1" enable-background="new    " d="M27.04,29.57H4.941c-2.034,0-3.674-1.566-3.674-3.519v0.766
			c0,1.527,1.215,3.397,3.538,3.397s19.711,0,22.371,0c2.66,0,3.557-1.87,3.557-3.396v-0.766
			C30.733,28.006,29.074,29.57,27.04,29.57z"/>
		<rect id="rect159" x="4.615" y="29.57" opacity="0.05" enable-background="new    " width="22.769" height="0.643"/>
		<rect id="rect161" x="5.285" y="29.57" opacity="0.05" enable-background="new    " width="20.76" height="0.643"/>
		<rect id="rect163" x="5.285" y="30.214" opacity="0.05" enable-background="new    " width="20.76" height="0.643"/>
		<rect id="rect165" x="6.624" y="30.214" opacity="0.05" enable-background="new    " width="18.751" height="0.643"/>
		<rect id="rect167" x="8.633" y="30.214" opacity="0.05" enable-background="new    " width="14.733" height="0.643"/>
		<rect id="rect169" x="11.312" y="30.214" opacity="0.05" enable-background="new    " width="9.376" height="0.643"/>
		<rect id="rect171" x="6.624" y="29.57" opacity="0.05" enable-background="new    " width="18.751" height="0.643"/>
		<rect id="rect173" x="7.964" y="29.57" opacity="0.05" enable-background="new    " width="16.072" height="0.643"/>
		<rect id="rect175" x="8.633" y="29.57" opacity="0.05" enable-background="new    " width="14.733" height="0.643"/>
		<rect id="rect177" x="9.973" y="29.57" opacity="0.05" enable-background="new    " width="12.054" height="0.643"/>
		<rect id="rect179" x="9.973" y="29.57" opacity="0.05" enable-background="new    " width="12.054" height="0.643"/>
	</g>
	<path fill="#C4DCED" stroke="#9DBCD7" stroke-miterlimit="10" d="M30.466,25.625c0,2.104-1.706,3.809-3.809,3.809H5.342
		c-2.104,0-3.809-1.706-3.809-3.809V4.309c0-2.104,1.706-3.809,3.809-3.809h21.316c2.104,0,3.809,1.706,3.809,3.809L30.466,25.625
		L30.466,25.625z"/>
	<path opacity="0.6" fill="none" stroke="#FFFFFF" stroke-miterlimit="10" enable-background="new    " d="M5.342,28.434
		c-1.549,0-2.809-1.261-2.809-2.81V4.309c0-1.549,1.26-2.809,2.809-2.809h21.316c1.549,0,2.809,1.26,2.809,2.809v21.315
		c0,1.549-1.261,2.81-2.81,2.81C26.657,28.435,5.342,28.435,5.342,28.434z"/>
	<path opacity="0.05" fill="none" stroke="#000000" stroke-miterlimit="10" enable-background="new    " d="M30.569,8.482
		c0,0,0-1.28-1.264-1.28c-3.669,0-15.386,0.002-16.434,0.002c-1.275,0-1.264-1.262-1.264-1.262s0-1.27-1.264-1.27
		c-2.213,0-6.645,0-7.585,0c-1.245,0-1.264,1.224-1.264,1.263"/>
	
		<linearGradient id="SVGID_1_" gradientUnits="userSpaceOnUse" x1="1385.9995" y1="-1686.4335" x2="1385.9995" y2="-1662.5765" gradientTransform="matrix(1 0 0 -1 -1370 -1657)">
		<stop  offset="0" style="stop-color:#D1E0ED"/>
		<stop  offset="1" style="stop-color:#E4EEFB"/>
	</linearGradient>
	<path fill="url(#SVGID_1_)" stroke="#9DBCD7" stroke-miterlimit="10" d="M5.334,29.433h21.395c2.104,0,3.738-1.749,3.738-3.853V8.5
		c0-0.3-0.448-0.582-1.045-0.582c-3.685,0-15.435,0.002-16.488,0.002c-1.28,0-1.261-1.168-1.261-1.168s0.009-1.176-1.261-1.176
		c-2.222,0-6.674,0-7.618,0c-1.25,0-1.262,1.036-1.262,1.075v18.93C1.533,27.684,3.23,29.433,5.334,29.433z"/>
	<path opacity="0.8" fill="none" stroke="#FFFFFF" stroke-miterlimit="10" enable-background="new    " d="M5.333,28.434
		c-1.544,0-2.8-1.279-2.801-2.853V6.651c0.031-0.045,0.105-0.075,0.261-0.075h7.618c0.144,0,0.202,0.029,0.21,0.037
		c0.028,0.029,0.051,0.131,0.051,0.132c-0.002,0.142,0.016,0.928,0.618,1.541c0.285,0.29,0.8,0.634,1.642,0.634
		c0,0,16.519-0.001,16.533-0.001v16.662c0,1.573-1.229,2.853-2.738,2.853C26.727,28.435,5.333,28.435,5.333,28.434z"/>
	<g id="g27_1_">
		
			<linearGradient id="path36_2_" gradientUnits="userSpaceOnUse" x1="1784.7555" y1="-2475.4534" x2="1788.7751" y2="-2482.4158" gradientTransform="matrix(1 0 0 -1 -1782 -2475)">
			<stop  offset="0" style="stop-color:#FFFFFF"/>
			<stop  offset="0.5" style="stop-color:#FFFFFF;stop-opacity:0.6"/>
			<stop  offset="1" style="stop-color:#FFFFFF;stop-opacity:0.15"/>
		</linearGradient>
		<path id="path36_1_" fill="url(#path36_2_)" d="M6.07,8.598c0.449-0.93,0.998-1.802,1.627-2.607L6.552,3.48
			C5.574,4.404,4.781,5.424,4.147,6.412L6.07,8.598z"/>
		
			<linearGradient id="path45_2_" gradientUnits="userSpaceOnUse" x1="1788.3998" y1="-2474.4114" x2="1791.0304" y2="-2478.9678" gradientTransform="matrix(1 0 0 -1 -1782 -2475)">
			<stop  offset="0" style="stop-color:#FFFFFF"/>
			<stop  offset="0.5" style="stop-color:#FFFFFF;stop-opacity:0.6"/>
			<stop  offset="1" style="stop-color:#FFFFFF;stop-opacity:0.15"/>
		</linearGradient>
		<path id="path45_1_" fill="url(#path45_2_)" d="M6.189,1.067l0.598,1.311C7.363,1.9,7.994,1.736,8.682,1.067H6.189z"/>
		
			<linearGradient id="path54_2_" gradientUnits="userSpaceOnUse" x1="1789.2275" y1="-2473.5459" x2="1792.4418" y2="-2479.113" gradientTransform="matrix(1 0 0 -1 -1782 -2475)">
			<stop  offset="0" style="stop-color:#FFFFFF"/>
			<stop  offset="0.5" style="stop-color:#FFFFFF;stop-opacity:0.6"/>
			<stop  offset="1" style="stop-color:#FFFFFF;stop-opacity:0.15"/>
		</linearGradient>
		<path id="path54_1_" fill="url(#path54_2_)" d="M10.68,1.067h-0.473C9.013,1.736,7.969,2.247,7.074,3.009l1.097,2.408
			c0.937-1.083,2.025-2.032,3.243-2.798c0.009-0.008,0.016-0.016,0.026-0.024C12.804,1.416,11.449,1.067,10.68,1.067z"/>
		
			<linearGradient id="path63_2_" gradientUnits="userSpaceOnUse" x1="1782.4993" y1="-2478.6277" x2="1785.9874" y2="-2484.6692" gradientTransform="matrix(1 0 0 -1 -1782 -2475)">
			<stop  offset="0" style="stop-color:#FFFFFF"/>
			<stop  offset="0.5" style="stop-color:#FFFFFF;stop-opacity:0.6"/>
			<stop  offset="1" style="stop-color:#FFFFFF;stop-opacity:0.15"/>
		</linearGradient>
		<path id="path63_1_" fill="url(#path63_2_)" d="M3.782,7.01c-0.734,1.25-1.214,2.405-1.499,3.195
			c0.337,0.481,0.894,0.797,1.526,0.797c0.783,0,1.451-0.483,1.727-1.167c0.071-0.191,0.157-0.374,0.236-0.562L3.782,7.01z"/>
		
			<linearGradient id="path72_2_" gradientUnits="userSpaceOnUse" x1="1782.3423" y1="-2478.8752" x2="1786.208" y2="-2485.5708" gradientTransform="matrix(1 0 0 -1 -1782 -2475)">
			<stop  offset="0" style="stop-color:#FFFFFF"/>
			<stop  offset="0.5" style="stop-color:#FFFFFF;stop-opacity:0.6"/>
			<stop  offset="1" style="stop-color:#FFFFFF;stop-opacity:0.15"/>
		</linearGradient>
		<path id="path72_1_" fill="url(#path72_2_)" d="M1.959,4.937L1.945,9.135c0,0,0,0.001,0,0.003c0,0.026,0.006,0.051,0.008,0.077
			C2.272,8.438,2.718,7.49,3.322,6.486L1.959,4.937z"/>
		
			<linearGradient id="path149_2_" gradientUnits="userSpaceOnUse" x1="1785.2657" y1="-2476.7783" x2="1788.8955" y2="-2483.0654" gradientTransform="matrix(1 0 0 -1 -1782 -2475)">
			<stop  offset="0" style="stop-color:#FFFFFF"/>
			<stop  offset="0.5" style="stop-color:#FFFFFF;stop-opacity:0.6"/>
			<stop  offset="1" style="stop-color:#FFFFFF;stop-opacity:0.15"/>
		</linearGradient>
		<path id="path149_1_" fill="url(#path149_2_)" d="M5.391,1.076c-1.364-0.113-3.16,1.423-3.39,2.896l1.692,1.924
			c0.675-1.031,1.515-2.087,2.552-3.04L5.391,1.076z"/>
	</g>
	
		<radialGradient id="SVGID_2_" cx="1862.412" cy="1354.463" r="22.6588" gradientTransform="matrix(0.0197 0.9998 0.9109 -0.018 -1255.4794 -1826.5901)" gradientUnits="userSpaceOnUse">
		<stop  offset="0" style="stop-color:#FFFFFF;stop-opacity:0.6"/>
		<stop  offset="0.3783" style="stop-color:#FAFCFE;stop-opacity:0.4487"/>
		<stop  offset="0.829" style="stop-color:#EBF3FC;stop-opacity:0.2684"/>
		<stop  offset="1" style="stop-color:#E4EEFB;stop-opacity:0.2"/>
	</radialGradient>
	<path fill="url(#SVGID_2_)" d="M5.582,28.655c-1.774,0-3.216-1.465-3.216-3.267V6.9c0-0.023,0.004-0.221,0.151-0.369
		c0.123-0.123,0.32-0.186,0.585-0.186h7.441c0.294,0,0.443,0.035,0.532,0.125c0.198,0.199,0.206,0.501,0.206,0.505
		c-0.001,0.065,0.003,0.712,0.482,1.198c0.305,0.31,0.724,0.467,1.244,0.467c0,0,13.755-0.005,16.1-0.005
		c0.31,0,0.481,0.106,0.525,0.158v16.596c0,1.802-1.415,3.267-3.155,3.267L5.582,28.655L5.582,28.655L5.582,28.655z"/>
</g>
<g>
	<path opacity="0.3" fill="#FFFFFF" enable-background="new    " d="M16.668,9.81c-4.193,0-7.604,3.246-7.956,7.349h-0.73
		c-0.373,0-0.678,0.301-0.681,0.676c0,0.122,0.032,0.244,0.096,0.35l1.17,2.004l1.17,2.005c0.189,0.323,0.604,0.43,0.926,0.242
		c0.099-0.059,0.183-0.142,0.24-0.242l1.172-2.005l1.17-2.004c0.19-0.323,0.084-0.738-0.237-0.93
		c-0.105-0.06-0.227-0.095-0.348-0.095h-0.585c0.268-1.835,1.587-3.31,3.34-3.798c-0.055,0.147-0.094,0.304-0.094,0.471v3.789h0.021
		c-0.053,0.337,0.012,0.676,0.197,0.95h-0.012c0.009,0.01,0.005,0.01,0.012,0.021c0.005,0.005,0.007,0.004,0.012,0.01
		c0.074,0.104,0.153,0.173,0.168,0.189l2.358,2.369c0.419,0.42,1.101,0.545,1.618,0.209c-0.816,0.702-1.864,1.139-3.028,1.139
		c-0.853,0-1.638-0.228-2.327-0.627c-0.323-0.187-0.738-0.078-0.926,0.245c-0.001,0.001-0.004,0.005-0.004,0.007l-1.003,1.743
		c-0.181,0.323-0.071,0.733,0.252,0.918c1.179,0.684,2.55,1.075,4.008,1.075c4.426,0,8.03-3.603,8.03-8.03
		C24.697,13.413,21.093,9.81,16.668,9.81z M16.668,10.489c4.059,0,7.35,3.29,7.35,7.348c0,4.059-3.29,7.35-7.35,7.35
		c-1.336,0-2.593-0.358-3.676-0.981l1.004-1.743c0.786,0.457,1.697,0.72,2.672,0.72c2.953,0,5.345-2.392,5.345-5.345
		c0-2.952-2.392-5.344-5.345-5.344c-2.951,0-5.344,2.393-5.344,5.344h1.336l-1.168,2.005l-1.172,2.005l-1.17-2.005l-1.168-2.005
		h1.336C9.319,13.779,12.609,10.489,16.668,10.489z M16.668,13.162c0.371,0,0.669,0.299,0.669,0.669v3.737l2.171,2.161
		c0.263,0.263,0.297,0.645,0.084,0.857l-0.178,0.178c-0.213,0.213-0.595,0.178-0.857-0.084l-2.358-2.369
		c-0.035-0.032-0.069-0.064-0.094-0.104c-0.135-0.189-0.171-0.407-0.105-0.586v-3.789C16,13.459,16.299,13.162,16.668,13.162z
		 M17.921,13.36c1.969,0.548,3.414,2.331,3.414,4.478c0,1.166-0.439,2.213-1.139,3.028c0.336-0.517,0.213-1.2-0.207-1.618
		l-1.974-1.962v-3.455C18.016,13.664,17.978,13.507,17.921,13.36z"/>
	<path opacity="0.3" fill="#FFFFFF" enable-background="new    " d="M16.668,10.154c-4.124,0-7.473,3.269-7.652,7.349H7.982
		c-0.185,0-0.336,0.148-0.337,0.333c0,0.059,0.017,0.117,0.046,0.17l1.168,2.004l1.168,2.005c0.091,0.161,0.295,0.221,0.455,0.13
		c0.054-0.03,0.101-0.076,0.13-0.13l1.17-2.005l1.17-2.004c0.092-0.161,0.036-0.364-0.123-0.457
		c-0.052-0.03-0.109-0.046-0.168-0.046h-0.973c0.175-2.612,2.323-4.676,4.979-4.676c2.771,0,5.012,2.241,5.012,5.011
		c0,2.773-2.241,5.012-5.012,5.012c-0.914,0-1.766-0.25-2.505-0.679c-0.16-0.092-0.364-0.038-0.457,0.12
		c-0.002,0.004-0.004,0.005-0.004,0.005L12.7,24.04c-0.092,0.16-0.04,0.364,0.12,0.457c0.001,0.001,0.004,0.004,0.005,0.004
		c1.129,0.652,2.445,1.023,3.841,1.023c4.241,0,7.684-3.444,7.684-7.684C24.353,13.599,20.908,10.154,16.668,10.154z M16.668,12.826
		c-0.548,0-1.002,0.453-1.002,1.003v3.788h0.01c-0.055,0.26-0.01,0.535,0.147,0.763c0.006,0.01,0.005,0.012,0.01,0.019
		c0.053,0.072,0.105,0.125,0.127,0.147l2.358,2.371c0.368,0.366,0.972,0.45,1.338,0.083l0.176-0.178
		c0.368-0.366,0.283-0.968-0.083-1.335l-2.076-2.068v-3.591C17.671,13.28,17.22,12.826,16.668,12.826z M16.668,10.489
		c4.059,0,7.35,3.29,7.35,7.349c0,4.059-3.29,7.35-7.35,7.35c-1.336,0-2.593-0.358-3.676-0.981l1.004-1.743
		c0.786,0.457,1.697,0.72,2.672,0.72c2.953,0,5.345-2.392,5.345-5.345c0-2.952-2.392-5.344-5.345-5.344
		c-2.951,0-5.344,2.393-5.344,5.344h1.336l-1.168,2.005l-1.172,2.005l-1.17-2.005l-1.168-2.005h1.336
		C9.319,13.779,12.609,10.489,16.668,10.489z M16.668,13.162c0.371,0,0.669,0.299,0.669,0.669v3.737l2.171,2.161
		c0.263,0.263,0.297,0.645,0.084,0.857l-0.178,0.178c-0.213,0.213-0.595,0.178-0.857-0.084l-2.358-2.369
		c-0.034-0.032-0.069-0.064-0.094-0.104c-0.135-0.189-0.171-0.407-0.105-0.586v-3.788C16,13.459,16.299,13.162,16.668,13.162z"/>
	<path opacity="0.3" fill="#669CCC" enable-background="new    " d="M16.668,10.489c-4.059,0-7.349,3.29-7.349,7.349H7.983
		l1.168,2.005l1.17,2.005l1.172-2.005l1.168-2.005h-1.336c0-2.952,2.392-5.344,5.344-5.344c2.953,0,5.345,2.393,5.345,5.344
		c0,2.953-2.392,5.345-5.345,5.345c-0.973,0-1.884-0.263-2.672-0.72l-1.005,1.743c1.083,0.625,2.339,0.982,3.676,0.982
		c4.059,0,7.35-3.29,7.35-7.35C24.018,13.779,20.727,10.489,16.668,10.489z M16.668,13.162c-0.369,0-0.668,0.299-0.668,0.669v3.789
		c-0.065,0.18-0.03,0.399,0.105,0.586c0.024,0.04,0.059,0.071,0.094,0.104l2.358,2.369c0.263,0.263,0.645,0.297,0.857,0.084
		l0.178-0.178c0.213-0.213,0.178-0.595-0.084-0.857l-2.171-2.161V13.83C17.337,13.459,17.038,13.162,16.668,13.162z"/>
	<path opacity="0.3" fill="#669CCC" enable-background="new    " d="M16.668,10.489c-4.059,0-7.349,3.29-7.349,7.349H7.983
		l1.168,2.005l1.17,2.005l1.172-2.005l1.168-2.005h-1.336c0-2.952,2.392-5.344,5.344-5.344c2.953,0,5.345,2.393,5.345,5.344
		c0,2.953-2.392,5.345-5.345,5.345c-0.973,0-1.884-0.263-2.672-0.72l-1.005,1.743c1.083,0.625,2.339,0.982,3.676,0.982
		c4.059,0,7.35-3.29,7.35-7.35C24.018,13.779,20.727,10.489,16.668,10.489z M16.668,11.146c3.703,0,6.693,2.991,6.693,6.691
		c0,3.703-2.991,6.694-6.693,6.694c-0.98,0-1.887-0.259-2.724-0.638l0.345-0.594c0.736,0.322,1.525,0.543,2.379,0.543
		c3.31,0,6.004-2.694,6.004-6.004c0-3.308-2.694-6.001-6.004-6.001c-3.309,0-6.001,2.693-6.001,6.001
		c0.001,0.364,0.294,0.655,0.658,0.659h0.187l-0.596,1.012l-0.595,1.023l-0.594-1.023l-0.595-1.012H9.32
		c0.363-0.004,0.655-0.295,0.658-0.659C9.976,14.136,12.967,11.146,16.668,11.146z M16.668,13.162c-0.369,0-0.668,0.299-0.668,0.669
		v3.789c-0.065,0.18-0.03,0.399,0.105,0.586c0.024,0.04,0.059,0.071,0.094,0.104l2.358,2.369c0.263,0.263,0.645,0.297,0.857,0.084
		l0.178-0.178c0.213-0.213,0.178-0.595-0.084-0.857l-2.171-2.161V13.83C17.337,13.459,17.038,13.162,16.668,13.162z M16.668,13.819
		c0.017,0,0.012-0.005,0.012,0.012v3.737c0,0.152,0.05,0.299,0.145,0.417l-0.157-0.147c-0.024-0.024-0.04-0.032-0.04-0.031
		c-0.001-0.001-0.001-0.012,0-0.009c0.017-0.059,0.028-0.119,0.03-0.18v-3.789C16.658,13.814,16.653,13.819,16.668,13.819z
		 M16.867,18.038l2.17,2.161l-0.01,0.01C19.026,20.208,16.867,18.038,16.867,18.038z"/>
	<path opacity="0.3" fill="#669CCC" enable-background="new    " d="M16.668,10.489c-4.059,0-7.349,3.29-7.349,7.349H7.983
		l0.197,0.334h1.139c0-4.059,3.29-7.349,7.349-7.349c4.003,0,7.261,3.202,7.35,7.183c0.001-0.055,0-0.112,0-0.168
		C24.018,13.779,20.727,10.489,16.668,10.489z M16.668,13.162c-0.369,0-0.668,0.299-0.668,0.669v0.333
		c0-0.369,0.299-0.668,0.668-0.668c0.371,0,0.669,0.298,0.669,0.668v-0.333C17.337,13.459,17.038,13.162,16.668,13.162z
		 M17.337,17.567v0.334l2.171,2.16c0.097,0.099,0.165,0.218,0.197,0.334c0.067-0.211-0.001-0.472-0.197-0.669
		C19.508,19.727,17.337,17.567,17.337,17.567z M16,17.619c-0.041,0.109-0.035,0.232,0,0.356c0.001-0.007-0.004-0.015,0-0.021V17.619
		z M11.344,17.838c-0.007,0.112-0.019,0.221-0.019,0.334h1.137l0.199-0.334H11.344z M22.004,18.005
		c-0.091,2.874-2.441,5.178-5.335,5.178c-0.973,0-1.884-0.263-2.672-0.72l-1.005,1.743c0.05,0.027,0.101,0.047,0.148,0.072
		l0.857-1.481c0.786,0.456,1.697,0.72,2.672,0.72c2.953,0,5.345-2.392,5.345-5.345C22.013,18.116,22.004,18.062,22.004,18.005z"/>
	<path opacity="0.3" fill="#669CCC" enable-background="new    " d="M16.668,10.489c-4.059,0-7.349,3.29-7.349,7.349H7.983
		l1.168,2.005l1.17,2.005l1.172-2.005l1.168-2.005h-1.336c0-2.952,2.392-5.344,5.344-5.344c2.953,0,5.345,2.393,5.345,5.344
		c0,2.953-2.392,5.345-5.345,5.345c-0.973,0-1.884-0.263-2.672-0.72l-1.005,1.743c1.083,0.625,2.339,0.982,3.676,0.982
		c4.059,0,7.35-3.29,7.35-7.35C24.018,13.779,20.727,10.489,16.668,10.489z M16.668,10.802c3.888,0,7.037,3.148,7.037,7.036
		c0,3.89-3.149,7.037-7.037,7.037c-1.168,0-2.256-0.312-3.224-0.814l0.689-1.201c0.766,0.389,1.618,0.636,2.536,0.636
		c3.123,0,5.658-2.534,5.658-5.658c0-3.123-2.536-5.658-5.658-5.658s-5.657,2.536-5.657,5.658c0,0.173,0.14,0.312,0.313,0.313h0.792
		l-0.897,1.535l-0.897,1.534l-0.897-1.534l-0.897-1.535h0.794c0.171-0.001,0.312-0.14,0.313-0.313
		C9.632,13.95,12.781,10.802,16.668,10.802z M16.668,13.162c-0.369,0-0.668,0.299-0.668,0.669v3.789
		c-0.065,0.18-0.03,0.399,0.105,0.586c0.024,0.04,0.059,0.071,0.094,0.104l2.358,2.369c0.263,0.263,0.645,0.297,0.857,0.084
		l0.178-0.178c0.213-0.213,0.178-0.595-0.084-0.857l-2.171-2.161V13.83C17.337,13.459,17.038,13.162,16.668,13.162z M16.668,13.474
		c0.201,0,0.356,0.155,0.356,0.356v3.737c0.001,0.083,0.036,0.16,0.094,0.219l2.171,2.161c0.161,0.161,0.15,0.35,0.083,0.417
		l-0.176,0.178c-0.067,0.065-0.255,0.079-0.419-0.084l-2.359-2.371c-0.041-0.042-0.055-0.058-0.052-0.052c0-0.009,0-0.014,0-0.021
		c-0.083-0.114-0.097-0.218-0.074-0.282c0.015-0.036,0.021-0.076,0.021-0.115v-3.79C16.314,13.629,16.468,13.474,16.668,13.474z"/>
	<path opacity="0.3" fill="#FFFFFF" enable-background="new    " d="M16.668,12.493c-2.951,0-5.344,2.393-5.344,5.344h0.019
		c0.175-2.793,2.486-5.011,5.324-5.011c2.895,0,5.245,2.305,5.335,5.179c0.001-0.055,0.01-0.11,0.01-0.168
		C22.013,14.886,19.621,12.493,16.668,12.493z M16,17.974c-0.055,0.175-0.024,0.383,0.105,0.563c0.024,0.04,0.059,0.071,0.094,0.105
		l2.358,2.369c0.263,0.263,0.645,0.295,0.857,0.083l0.178-0.176c0.132-0.134,0.17-0.33,0.114-0.522
		c-0.022,0.069-0.06,0.134-0.114,0.189l-0.178,0.178c-0.213,0.213-0.595,0.178-0.857-0.084l-2.358-2.369
		c-0.034-0.032-0.069-0.064-0.094-0.104C16.052,18.131,16.023,18.054,16,17.974z M24.018,18.005
		c-0.089,3.981-3.349,7.183-7.35,7.183c-1.279,0-2.479-0.333-3.528-0.909l-0.148,0.263c1.083,0.625,2.339,0.981,3.676,0.981
		c4.059,0,7.35-3.29,7.35-7.35C24.018,18.116,24.02,18.06,24.018,18.005z M7.983,18.172l1.168,2.005l1.17,2.005l1.172-2.005
		l1.168-2.005h-0.199l-0.968,1.671l-1.172,2.005l-1.17-2.005l-0.97-1.671H7.983z"/>
</g>
</svg>
