<?xml version="1.0" encoding="utf-8"?>
<!-- Generator: Adobe Illustrator 17.0.0, SVG Export Plug-In . SVG Version: 6.00 Build 0)  -->
<!DOCTYPE svg PUBLIC "-//W3C//DTD SVG 1.1//EN" "http://www.w3.org/Graphics/SVG/1.1/DTD/svg11.dtd">
<svg version="1.1" id="图层_1" xmlns="http://www.w3.org/2000/svg" xmlns:xlink="http://www.w3.org/1999/xlink" x="0px" y="0px"
	 width="32px" height="32px" viewBox="0 0 32 32" enable-background="new 0 0 32 32" xml:space="preserve">
<g>
	<g id="g151" opacity="0.5">
		<path id="path153" opacity="0.08" enable-background="new    " d="M27.059,29.57H4.96c-2.035,0-3.693-1.595-3.693-3.549v2.714
			c0,1.527,1.297,2.764,2.886,2.764h23.711c1.589,0,2.868-1.238,2.868-2.764v-2.714C30.733,27.977,29.093,29.57,27.059,29.57z"/>
		<path id="path155" opacity="0.1" enable-background="new    " d="M27.04,29.57H4.941c-2.034,0-3.674-1.566-3.674-3.519v1.42
			c0,1.527,0.7,3.387,3.538,3.387s19.496,0,22.371,0s3.557-1.86,3.557-3.387v-1.42C30.733,28.006,29.074,29.57,27.04,29.57z"/>
		<path id="path157" opacity="0.1" enable-background="new    " d="M27.04,29.57H4.941c-2.034,0-3.674-1.566-3.674-3.519v0.766
			c0,1.527,1.215,3.397,3.538,3.397s19.711,0,22.371,0c2.66,0,3.557-1.87,3.557-3.396v-0.766
			C30.733,28.006,29.074,29.57,27.04,29.57z"/>
		<rect id="rect159" x="4.615" y="29.57" opacity="0.05" enable-background="new    " width="22.769" height="0.643"/>
		<rect id="rect161" x="5.285" y="29.57" opacity="0.05" enable-background="new    " width="20.76" height="0.643"/>
		<rect id="rect163" x="5.285" y="30.214" opacity="0.05" enable-background="new    " width="20.76" height="0.643"/>
		<rect id="rect165" x="6.624" y="30.214" opacity="0.05" enable-background="new    " width="18.751" height="0.643"/>
		<rect id="rect167" x="8.633" y="30.214" opacity="0.05" enable-background="new    " width="14.733" height="0.643"/>
		<rect id="rect169" x="11.312" y="30.214" opacity="0.05" enable-background="new    " width="9.376" height="0.643"/>
		<rect id="rect171" x="6.624" y="29.57" opacity="0.05" enable-background="new    " width="18.751" height="0.643"/>
		<rect id="rect173" x="7.964" y="29.57" opacity="0.05" enable-background="new    " width="16.072" height="0.643"/>
		<rect id="rect175" x="8.633" y="29.57" opacity="0.05" enable-background="new    " width="14.733" height="0.643"/>
		<rect id="rect177" x="9.973" y="29.57" opacity="0.05" enable-background="new    " width="12.054" height="0.643"/>
		<rect id="rect179" x="9.973" y="29.57" opacity="0.05" enable-background="new    " width="12.054" height="0.643"/>
	</g>
	<path fill="#C4DCED" stroke="#9DBCD7" stroke-miterlimit="10" d="M30.466,25.625c0,2.104-1.706,3.809-3.809,3.809H5.342
		c-2.104,0-3.809-1.706-3.809-3.809V4.309c0-2.104,1.706-3.809,3.809-3.809h21.316c2.104,0,3.809,1.706,3.809,3.809L30.466,25.625
		L30.466,25.625z"/>
	<path opacity="0.6" fill="none" stroke="#FFFFFF" stroke-miterlimit="10" enable-background="new    " d="M5.342,28.434
		c-1.549,0-2.809-1.261-2.809-2.81V4.309c0-1.549,1.26-2.809,2.809-2.809h21.316c1.549,0,2.809,1.26,2.809,2.809v21.315
		c0,1.549-1.261,2.81-2.81,2.81C26.657,28.435,5.342,28.435,5.342,28.434z"/>
	<path opacity="0.05" fill="none" stroke="#000000" stroke-miterlimit="10" enable-background="new    " d="M30.569,8.482
		c0,0,0-1.28-1.264-1.28c-3.669,0-15.386,0.002-16.434,0.002c-1.275,0-1.264-1.262-1.264-1.262s0-1.27-1.264-1.27
		c-2.213,0-6.645,0-7.585,0c-1.245,0-1.264,1.224-1.264,1.263"/>
	
		<linearGradient id="SVGID_1_" gradientUnits="userSpaceOnUse" x1="1385.9995" y1="-1686.4335" x2="1385.9995" y2="-1662.5765" gradientTransform="matrix(1 0 0 -1 -1370 -1657)">
		<stop  offset="0" style="stop-color:#D1E0ED"/>
		<stop  offset="1" style="stop-color:#E4EEFB"/>
	</linearGradient>
	<path fill="url(#SVGID_1_)" stroke="#9DBCD7" stroke-miterlimit="10" d="M5.334,29.433h21.395c2.104,0,3.738-1.749,3.738-3.853V8.5
		c0-0.3-0.448-0.582-1.045-0.582c-3.685,0-15.435,0.002-16.488,0.002c-1.28,0-1.261-1.168-1.261-1.168s0.009-1.176-1.261-1.176
		c-2.222,0-6.674,0-7.618,0c-1.25,0-1.262,1.036-1.262,1.075v18.93C1.533,27.684,3.23,29.433,5.334,29.433z"/>
	<path opacity="0.8" fill="none" stroke="#FFFFFF" stroke-miterlimit="10" enable-background="new    " d="M5.333,28.434
		c-1.544,0-2.8-1.279-2.801-2.853V6.651c0.031-0.045,0.105-0.075,0.261-0.075h7.618c0.144,0,0.202,0.029,0.21,0.037
		c0.028,0.029,0.051,0.131,0.051,0.132c-0.002,0.142,0.016,0.928,0.618,1.541c0.285,0.29,0.8,0.634,1.642,0.634
		c0,0,16.519-0.001,16.533-0.001v16.662c0,1.573-1.229,2.853-2.738,2.853C26.727,28.435,5.333,28.435,5.333,28.434z"/>
	<g id="g27_1_">
		
			<linearGradient id="path36_2_" gradientUnits="userSpaceOnUse" x1="1784.7555" y1="-2475.4534" x2="1788.7751" y2="-2482.4158" gradientTransform="matrix(1 0 0 -1 -1782 -2475)">
			<stop  offset="0" style="stop-color:#FFFFFF"/>
			<stop  offset="0.5" style="stop-color:#FFFFFF;stop-opacity:0.6"/>
			<stop  offset="1" style="stop-color:#FFFFFF;stop-opacity:0.15"/>
		</linearGradient>
		<path id="path36_1_" fill="url(#path36_2_)" d="M6.07,8.598c0.449-0.93,0.998-1.802,1.627-2.607L6.552,3.48
			C5.574,4.404,4.781,5.424,4.147,6.412L6.07,8.598z"/>
		
			<linearGradient id="path45_2_" gradientUnits="userSpaceOnUse" x1="1788.3998" y1="-2474.4114" x2="1791.0304" y2="-2478.9678" gradientTransform="matrix(1 0 0 -1 -1782 -2475)">
			<stop  offset="0" style="stop-color:#FFFFFF"/>
			<stop  offset="0.5" style="stop-color:#FFFFFF;stop-opacity:0.6"/>
			<stop  offset="1" style="stop-color:#FFFFFF;stop-opacity:0.15"/>
		</linearGradient>
		<path id="path45_1_" fill="url(#path45_2_)" d="M6.189,1.067l0.598,1.311C7.363,1.9,7.994,1.736,8.682,1.067H6.189z"/>
		
			<linearGradient id="path54_2_" gradientUnits="userSpaceOnUse" x1="1789.2275" y1="-2473.5459" x2="1792.4418" y2="-2479.113" gradientTransform="matrix(1 0 0 -1 -1782 -2475)">
			<stop  offset="0" style="stop-color:#FFFFFF"/>
			<stop  offset="0.5" style="stop-color:#FFFFFF;stop-opacity:0.6"/>
			<stop  offset="1" style="stop-color:#FFFFFF;stop-opacity:0.15"/>
		</linearGradient>
		<path id="path54_1_" fill="url(#path54_2_)" d="M10.68,1.067h-0.473C9.013,1.736,7.969,2.247,7.074,3.009l1.097,2.408
			c0.937-1.083,2.025-2.032,3.243-2.798c0.009-0.008,0.016-0.016,0.026-0.024C12.804,1.416,11.449,1.067,10.68,1.067z"/>
		
			<linearGradient id="path63_2_" gradientUnits="userSpaceOnUse" x1="1782.4993" y1="-2478.6277" x2="1785.9874" y2="-2484.6692" gradientTransform="matrix(1 0 0 -1 -1782 -2475)">
			<stop  offset="0" style="stop-color:#FFFFFF"/>
			<stop  offset="0.5" style="stop-color:#FFFFFF;stop-opacity:0.6"/>
			<stop  offset="1" style="stop-color:#FFFFFF;stop-opacity:0.15"/>
		</linearGradient>
		<path id="path63_1_" fill="url(#path63_2_)" d="M3.782,7.01c-0.734,1.25-1.214,2.405-1.499,3.195
			c0.337,0.481,0.894,0.797,1.526,0.797c0.783,0,1.451-0.483,1.727-1.167c0.071-0.191,0.157-0.374,0.236-0.562L3.782,7.01z"/>
		
			<linearGradient id="path72_2_" gradientUnits="userSpaceOnUse" x1="1782.3423" y1="-2478.8752" x2="1786.208" y2="-2485.5708" gradientTransform="matrix(1 0 0 -1 -1782 -2475)">
			<stop  offset="0" style="stop-color:#FFFFFF"/>
			<stop  offset="0.5" style="stop-color:#FFFFFF;stop-opacity:0.6"/>
			<stop  offset="1" style="stop-color:#FFFFFF;stop-opacity:0.15"/>
		</linearGradient>
		<path id="path72_1_" fill="url(#path72_2_)" d="M1.959,4.937L1.945,9.135c0,0,0,0.001,0,0.003c0,0.026,0.006,0.051,0.008,0.077
			C2.272,8.438,2.718,7.49,3.322,6.486L1.959,4.937z"/>
		
			<linearGradient id="path149_2_" gradientUnits="userSpaceOnUse" x1="1785.2657" y1="-2476.7783" x2="1788.8955" y2="-2483.0654" gradientTransform="matrix(1 0 0 -1 -1782 -2475)">
			<stop  offset="0" style="stop-color:#FFFFFF"/>
			<stop  offset="0.5" style="stop-color:#FFFFFF;stop-opacity:0.6"/>
			<stop  offset="1" style="stop-color:#FFFFFF;stop-opacity:0.15"/>
		</linearGradient>
		<path id="path149_1_" fill="url(#path149_2_)" d="M5.391,1.076c-1.364-0.113-3.16,1.423-3.39,2.896l1.692,1.924
			c0.675-1.031,1.515-2.087,2.552-3.04L5.391,1.076z"/>
	</g>
	
		<radialGradient id="SVGID_2_" cx="1862.412" cy="1354.463" r="22.6588" gradientTransform="matrix(0.0197 0.9998 0.9109 -0.018 -1255.4794 -1826.5901)" gradientUnits="userSpaceOnUse">
		<stop  offset="0" style="stop-color:#FFFFFF;stop-opacity:0.6"/>
		<stop  offset="0.3783" style="stop-color:#FAFCFE;stop-opacity:0.4487"/>
		<stop  offset="0.829" style="stop-color:#EBF3FC;stop-opacity:0.2684"/>
		<stop  offset="1" style="stop-color:#E4EEFB;stop-opacity:0.2"/>
	</radialGradient>
	<path fill="url(#SVGID_2_)" d="M5.582,28.655c-1.774,0-3.216-1.465-3.216-3.267V6.9c0-0.023,0.004-0.221,0.151-0.369
		c0.123-0.123,0.32-0.186,0.585-0.186h7.441c0.294,0,0.443,0.035,0.532,0.125c0.198,0.199,0.206,0.501,0.206,0.505
		c-0.001,0.065,0.003,0.712,0.482,1.198c0.305,0.31,0.724,0.467,1.244,0.467c0,0,13.755-0.005,16.1-0.005
		c0.31,0,0.481,0.106,0.525,0.158v16.596c0,1.802-1.415,3.267-3.155,3.267L5.582,28.655L5.582,28.655L5.582,28.655z"/>
</g>
<g>
	<path opacity="0.3" fill="#FFFFFF" enable-background="new    " d="M13.431,10.182c-0.36,0.027-0.638,0.328-0.638,0.69v7.721
		c-0.538-0.057-1.102-0.046-1.685,0.111c-0.876,0.237-1.614,0.686-2.131,1.269c-0.516,0.582-0.826,1.354-0.619,2.131
		c0.205,0.774,0.855,1.303,1.592,1.551c0.737,0.248,1.608,0.269,2.485,0.03c1.374-0.372,2.444-1.256,2.71-2.415
		c0.064-0.108,0.1-0.228,0.1-0.356v-5.498l4.017,0.508v4.637c-0.539-0.062-1.108-0.057-1.695,0.1
		c-0.875,0.236-1.615,0.683-2.13,1.268c-0.516,0.584-0.825,1.364-0.62,2.139c0.207,0.776,0.856,1.303,1.594,1.553
		c0.738,0.25,1.608,0.269,2.485,0.032c1.377-0.373,2.443-1.265,2.708-2.425c0.067-0.108,0.1-0.228,0.102-0.356V11.886
		c0.001-0.347-0.255-0.643-0.598-0.69l-7.537-1.015C13.525,10.178,13.478,10.178,13.431,10.182z M13.482,10.872l7.538,1.015v10.987
		h-0.013c-0.085,0.873-1.006,1.762-2.291,2.11c-1.515,0.41-2.959-0.08-3.227-1.085c-0.267-1.004,0.749-2.157,2.262-2.567
		c0.811-0.22,1.602-0.174,2.203,0.061v-6.087l-5.398-0.679v6.29h-0.009c-0.085,0.874-1.007,1.752-2.293,2.1
		c-1.514,0.409-2.96-0.08-3.227-1.085c-0.267-1.006,0.747-2.147,2.262-2.557c0.811-0.22,1.59-0.184,2.193,0.051L13.482,10.872
		L13.482,10.872z M14.556,12.932v0.782l5.398,0.679v-0.69L14.556,12.932z"/>
	<path opacity="0.3" fill="#FFFFFF" enable-background="new    " d="M13.42,10.488c-0.189,0.029-0.327,0.193-0.324,0.384v8.096
		c-0.587-0.123-1.23-0.143-1.907,0.04c-0.824,0.223-1.52,0.638-1.99,1.166c-0.467,0.531-0.711,1.204-0.536,1.86
		c0.173,0.652,0.72,1.112,1.388,1.339c0.669,0.226,1.48,0.232,2.304,0.009c1.326-0.359,2.332-1.223,2.526-2.262
		c0.026-0.043,0.043-0.091,0.05-0.143c0.001-0.007,0.001-0.013,0-0.019c0.005-0.015,0.009-0.027,0.011-0.042v-5.864l4.625,0.588
		v5.287c-0.586-0.127-1.236-0.146-1.916,0.04c-0.825,0.222-1.52,0.645-1.989,1.177c-0.469,0.533-0.711,1.203-0.538,1.856
		c0.173,0.654,0.721,1.114,1.389,1.34c0.669,0.226,1.479,0.232,2.305,0.009c1.327-0.359,2.33-1.233,2.524-2.271
		c0.026-0.043,0.042-0.092,0.051-0.143c0-0.007,0-0.013,0-0.019c0.003-0.015,0.007-0.027,0.009-0.042V11.886
		c-0.003-0.191-0.146-0.351-0.335-0.376l-7.537-1.015c-0.023-0.006-0.048-0.008-0.071-0.009
		C13.447,10.486,13.435,10.486,13.42,10.488z M13.482,10.872l7.538,1.015v10.987h-0.013c-0.085,0.873-1.006,1.762-2.291,2.11
		c-1.515,0.41-2.959-0.08-3.227-1.085c-0.267-1.004,0.749-2.157,2.262-2.567c0.811-0.22,1.602-0.174,2.203,0.061v-6.087
		l-5.398-0.679v6.29h-0.009c-0.085,0.874-1.007,1.752-2.293,2.1c-1.514,0.409-2.96-0.08-3.227-1.085
		c-0.267-1.006,0.747-2.147,2.262-2.557c0.811-0.22,1.59-0.184,2.193,0.051L13.482,10.872L13.482,10.872z M14.556,12.932v0.782
		l5.398,0.679v-0.69L14.556,12.932z M14.942,13.368l0.609,0.091l-0.609-0.081V13.368z"/>
	<path opacity="0.3" fill="#669CCC" enable-background="new    " d="M13.483,10.874v8.554c-0.601-0.236-1.386-0.275-2.195-0.057
		c-1.514,0.41-2.53,1.561-2.262,2.565c0.265,1.004,1.709,1.489,3.225,1.081c1.284-0.349,2.207-1.232,2.292-2.104h0.009v-6.291
		l5.4,0.68v6.091c-0.598-0.236-1.384-0.275-2.194-0.056c-1.514,0.409-2.53,1.559-2.262,2.563c0.267,1.006,1.71,1.489,3.224,1.081
		c1.287-0.347,2.208-1.23,2.293-2.104h0.011V11.887L13.483,10.874L13.483,10.874z M14.551,12.932l5.4,0.773v0.691l-5.4-0.68V12.932z
		"/>
	<path opacity="0.3" fill="#669CCC" enable-background="new    " d="M13.482,10.872v8.554c-0.601-0.236-1.382-0.271-2.193-0.051
		c-1.514,0.41-2.528,1.551-2.262,2.557c0.265,1.006,1.712,1.494,3.227,1.085c1.285-0.349,2.207-1.226,2.293-2.1h0.009v-6.291
		l5.398,0.679v6.088c-0.6-0.236-1.391-0.28-2.203-0.061c-1.513,0.41-2.53,1.562-2.262,2.567c0.267,1.006,1.712,1.496,3.227,1.085
		c1.285-0.347,2.206-1.238,2.291-2.11h0.013V11.886L13.482,10.872z M14.049,11.511l6.402,0.862v1.065
		c-0.085-0.158-0.238-0.267-0.417-0.294l-5.396-0.771c-0.241-0.035-0.477,0.087-0.589,0.304
		C14.049,12.678,14.049,11.511,14.049,11.511z M14.556,12.932l5.398,0.771v0.69l-5.398-0.679
		C14.556,13.712,14.556,12.932,14.556,12.932z M14.049,13.957c0.04,0.083,0.099,0.158,0.173,0.213
		c-0.072,0.053-0.131,0.122-0.173,0.203V13.957z M20.45,14.666v0.376c-0.038-0.075-0.094-0.142-0.162-0.193
		C20.355,14.8,20.411,14.739,20.45,14.666z M13.988,19.679v1.127c-0.003,0.02-0.007,0.04-0.009,0.059
		c-0.05,0.517-0.758,1.302-1.877,1.604c-0.659,0.178-1.287,0.154-1.745,0c-0.457-0.155-0.708-0.4-0.782-0.68
		c-0.074-0.279,0.024-0.62,0.344-0.982c0.322-0.363,0.863-0.704,1.522-0.883c0.706-0.19,1.374-0.152,1.836,0.03
		C13.55,20.056,13.856,19.937,13.988,19.679z M20.45,21.666v1.096c-0.003,0.019-0.008,0.04-0.009,0.059
		c-0.05,0.517-0.759,1.312-1.877,1.614c-0.659,0.178-1.289,0.154-1.746,0c-0.459-0.154-0.706-0.402-0.78-0.68
		c-0.075-0.277,0.022-0.628,0.344-0.993c0.323-0.367,0.863-0.706,1.522-0.883c0.7-0.189,1.38-0.141,1.847,0.04
		C20.015,22.022,20.312,21.915,20.45,21.666z"/>
	<path opacity="0.3" fill="#669CCC" enable-background="new    " d="M13.482,10.872v0.325l7.538,1.014v-0.325L13.482,10.872z
		 M14.556,13.712v0.326l5.398,0.679v-0.325L14.556,13.712z M12.182,19.234c-0.288,0.013-0.589,0.059-0.894,0.141
		c-1.44,0.389-2.429,1.448-2.292,2.415c0.092-0.87,1.013-1.743,2.292-2.089c0.811-0.22,1.59-0.184,2.193,0.05v-0.324
		C13.105,19.278,12.662,19.211,12.182,19.234z M18.928,21.189c-0.37-0.011-0.77,0.032-1.176,0.143
		c-1.418,0.384-2.395,1.417-2.293,2.374c0.123-0.853,1.039-1.71,2.293-2.049c0.811-0.22,1.602-0.174,2.203,0.061v-0.325
		C19.653,21.276,19.303,21.204,18.928,21.189z"/>
	<path opacity="0.3" fill="#669CCC" enable-background="new    " d="M13.482,10.872v8.554c-0.601-0.236-1.382-0.271-2.193-0.051
		c-1.514,0.41-2.528,1.551-2.262,2.557c0.265,1.006,1.712,1.494,3.227,1.085c1.285-0.349,2.207-1.226,2.293-2.1h0.009v-6.291
		l5.398,0.679v6.088c-0.6-0.236-1.391-0.28-2.203-0.061c-1.513,0.41-2.53,1.562-2.262,2.567c0.267,1.006,1.712,1.496,3.227,1.085
		c1.285-0.347,2.206-1.238,2.291-2.11h0.013V11.886L13.482,10.872z M13.735,11.166l7.031,0.943v10.694
		c-0.005,0.017-0.009,0.034-0.011,0.05c-0.069,0.711-0.9,1.559-2.108,1.887c-0.713,0.193-1.402,0.166-1.93-0.011
		c-0.526-0.176-0.876-0.492-0.982-0.89c-0.106-0.402,0.046-0.859,0.417-1.28c0.37-0.42,0.962-0.791,1.673-0.982
		c0.762-0.207,1.501-0.152,2.04,0.062c0.133,0.046,0.28-0.022,0.33-0.154c0.009-0.029,0.015-0.061,0.015-0.091v-6.088
		c0-0.129-0.096-0.238-0.222-0.254l-5.398-0.679c-0.141-0.015-0.267,0.087-0.282,0.228c-0.001,0.008-0.001,0.018-0.001,0.026v6.219
		c-0.005,0.018-0.009,0.034-0.011,0.051c-0.069,0.712-0.899,1.549-2.11,1.877c-0.712,0.193-1.401,0.166-1.927-0.009
		c-0.527-0.178-0.877-0.494-0.984-0.896c-0.106-0.4,0.046-0.85,0.417-1.267c0.368-0.417,0.961-0.793,1.674-0.984
		c0.762-0.207,1.489-0.16,2.028,0.051c0.134,0.05,0.281-0.019,0.33-0.154c0.011-0.029,0.017-0.059,0.017-0.09v-8.257H13.735z
		 M14.516,12.678c-0.123,0.022-0.213,0.129-0.213,0.253v0.782c0,0.129,0.096,0.238,0.222,0.254l5.398,0.679
		c0.141,0.015,0.267-0.087,0.282-0.228c0.001-0.008,0.001-0.018,0.001-0.026v-0.69c0-0.125-0.088-0.232-0.213-0.253l-5.398-0.771
		C14.571,12.674,14.542,12.674,14.516,12.678z M14.556,12.932l5.398,0.771v0.69l-5.398-0.679
		C14.556,13.712,14.556,12.932,14.556,12.932z"/>
	<path opacity="0.3" fill="#FFFFFF" enable-background="new    " d="M14.556,12.932v0.325l5.398,0.771v-0.325L14.556,12.932z
		 M14.556,14.626v0.325l5.398,0.68v-0.325L14.556,14.626z M14.546,20.916c-0.085,0.874-1.007,1.752-2.293,2.1
		c-1.514,0.409-2.96-0.08-3.227-1.085c-0.013-0.05-0.024-0.092-0.03-0.143c-0.018,0.16-0.011,0.312,0.03,0.466
		c0.265,1.006,1.712,1.497,3.227,1.087c1.285-0.349,2.207-1.226,2.293-2.1h0.009v-0.325H14.546z M21.007,22.874
		c-0.085,0.873-1.006,1.762-2.291,2.11c-1.515,0.41-2.959-0.08-3.227-1.085c-0.015-0.056-0.022-0.116-0.03-0.171
		c-0.022,0.168-0.014,0.331,0.03,0.495c0.267,1.006,1.712,1.497,3.227,1.087c1.285-0.347,2.206-1.238,2.291-2.108h0.013v-0.327
		L21.007,22.874L21.007,22.874z"/>
</g>
</svg>
