<?xml version="1.0" encoding="utf-8"?>
<!-- Generator: Adobe Illustrator 17.0.0, SVG Export Plug-In . SVG Version: 6.00 Build 0)  -->
<!DOCTYPE svg PUBLIC "-//W3C//DTD SVG 1.1//EN" "http://www.w3.org/Graphics/SVG/1.1/DTD/svg11.dtd">
<svg version="1.1" id="图层_1" xmlns="http://www.w3.org/2000/svg" xmlns:xlink="http://www.w3.org/1999/xlink" x="0px" y="0px"
	 width="32px" height="32px" viewBox="0 0 32 32" enable-background="new 0 0 32 32" xml:space="preserve">
<g>
	<g id="g151" opacity="0.5">
		<path id="path153" opacity="0.08" enable-background="new    " d="M27.059,29.57H4.96c-2.035,0-3.693-1.595-3.693-3.549v2.714
			c0,1.527,1.297,2.764,2.886,2.764h23.711c1.589,0,2.868-1.238,2.868-2.764v-2.714C30.733,27.977,29.093,29.57,27.059,29.57z"/>
		<path id="path155" opacity="0.1" enable-background="new    " d="M27.04,29.57H4.941c-2.034,0-3.674-1.566-3.674-3.519v1.42
			c0,1.527,0.7,3.387,3.538,3.387s19.496,0,22.371,0s3.557-1.86,3.557-3.387v-1.42C30.733,28.006,29.074,29.57,27.04,29.57z"/>
		<path id="path157" opacity="0.1" enable-background="new    " d="M27.04,29.57H4.941c-2.034,0-3.674-1.566-3.674-3.519v0.766
			c0,1.527,1.215,3.397,3.538,3.397s19.711,0,22.371,0c2.66,0,3.557-1.87,3.557-3.396v-0.766
			C30.733,28.006,29.074,29.57,27.04,29.57z"/>
		<rect id="rect159" x="4.615" y="29.57" opacity="0.05" enable-background="new    " width="22.769" height="0.643"/>
		<rect id="rect161" x="5.285" y="29.57" opacity="0.05" enable-background="new    " width="20.76" height="0.643"/>
		<rect id="rect163" x="5.285" y="30.214" opacity="0.05" enable-background="new    " width="20.76" height="0.643"/>
		<rect id="rect165" x="6.624" y="30.214" opacity="0.05" enable-background="new    " width="18.751" height="0.643"/>
		<rect id="rect167" x="8.633" y="30.214" opacity="0.05" enable-background="new    " width="14.733" height="0.643"/>
		<rect id="rect169" x="11.312" y="30.214" opacity="0.05" enable-background="new    " width="9.376" height="0.643"/>
		<rect id="rect171" x="6.624" y="29.57" opacity="0.05" enable-background="new    " width="18.751" height="0.643"/>
		<rect id="rect173" x="7.964" y="29.57" opacity="0.05" enable-background="new    " width="16.072" height="0.643"/>
		<rect id="rect175" x="8.633" y="29.57" opacity="0.05" enable-background="new    " width="14.733" height="0.643"/>
		<rect id="rect177" x="9.973" y="29.57" opacity="0.05" enable-background="new    " width="12.054" height="0.643"/>
		<rect id="rect179" x="9.973" y="29.57" opacity="0.05" enable-background="new    " width="12.054" height="0.643"/>
	</g>
	<path fill="#C4DCED" stroke="#9DBCD7" stroke-miterlimit="10" d="M30.466,25.625c0,2.104-1.706,3.809-3.809,3.809H5.342
		c-2.104,0-3.809-1.706-3.809-3.809V4.309c0-2.104,1.706-3.809,3.809-3.809h21.316c2.104,0,3.809,1.706,3.809,3.809L30.466,25.625
		L30.466,25.625z"/>
	<path opacity="0.6" fill="none" stroke="#FFFFFF" stroke-miterlimit="10" enable-background="new    " d="M5.342,28.434
		c-1.549,0-2.809-1.261-2.809-2.81V4.309c0-1.549,1.26-2.809,2.809-2.809h21.316c1.549,0,2.809,1.26,2.809,2.809v21.315
		c0,1.549-1.261,2.81-2.81,2.81C26.657,28.435,5.342,28.435,5.342,28.434z"/>
	<path opacity="0.05" fill="none" stroke="#000000" stroke-miterlimit="10" enable-background="new    " d="M30.569,8.482
		c0,0,0-1.28-1.264-1.28c-3.669,0-15.386,0.002-16.434,0.002c-1.275,0-1.264-1.262-1.264-1.262s0-1.27-1.264-1.27
		c-2.213,0-6.645,0-7.585,0c-1.245,0-1.264,1.224-1.264,1.263"/>
	
		<linearGradient id="SVGID_1_" gradientUnits="userSpaceOnUse" x1="1385.9995" y1="-1686.4335" x2="1385.9995" y2="-1662.5765" gradientTransform="matrix(1 0 0 -1 -1370 -1657)">
		<stop  offset="0" style="stop-color:#D1E0ED"/>
		<stop  offset="1" style="stop-color:#E4EEFB"/>
	</linearGradient>
	<path fill="url(#SVGID_1_)" stroke="#9DBCD7" stroke-miterlimit="10" d="M5.334,29.433h21.395c2.104,0,3.738-1.749,3.738-3.853V8.5
		c0-0.3-0.448-0.582-1.045-0.582c-3.685,0-15.435,0.002-16.488,0.002c-1.28,0-1.261-1.168-1.261-1.168s0.009-1.176-1.261-1.176
		c-2.222,0-6.674,0-7.618,0c-1.25,0-1.262,1.036-1.262,1.075v18.93C1.533,27.684,3.23,29.433,5.334,29.433z"/>
	<path opacity="0.8" fill="none" stroke="#FFFFFF" stroke-miterlimit="10" enable-background="new    " d="M5.333,28.434
		c-1.544,0-2.8-1.279-2.801-2.853V6.651c0.031-0.045,0.105-0.075,0.261-0.075h7.618c0.144,0,0.202,0.029,0.21,0.037
		c0.028,0.029,0.051,0.131,0.051,0.132c-0.002,0.142,0.016,0.928,0.618,1.541c0.285,0.29,0.8,0.634,1.642,0.634
		c0,0,16.519-0.001,16.533-0.001v16.662c0,1.573-1.229,2.853-2.738,2.853C26.727,28.435,5.333,28.435,5.333,28.434z"/>
	<g id="g27_1_">
		
			<linearGradient id="path36_2_" gradientUnits="userSpaceOnUse" x1="1784.7555" y1="-2475.4534" x2="1788.7751" y2="-2482.4158" gradientTransform="matrix(1 0 0 -1 -1782 -2475)">
			<stop  offset="0" style="stop-color:#FFFFFF"/>
			<stop  offset="0.5" style="stop-color:#FFFFFF;stop-opacity:0.6"/>
			<stop  offset="1" style="stop-color:#FFFFFF;stop-opacity:0.15"/>
		</linearGradient>
		<path id="path36_1_" fill="url(#path36_2_)" d="M6.07,8.598c0.449-0.93,0.998-1.802,1.627-2.607L6.552,3.48
			C5.574,4.404,4.781,5.424,4.147,6.412L6.07,8.598z"/>
		
			<linearGradient id="path45_2_" gradientUnits="userSpaceOnUse" x1="1788.3998" y1="-2474.4114" x2="1791.0304" y2="-2478.9678" gradientTransform="matrix(1 0 0 -1 -1782 -2475)">
			<stop  offset="0" style="stop-color:#FFFFFF"/>
			<stop  offset="0.5" style="stop-color:#FFFFFF;stop-opacity:0.6"/>
			<stop  offset="1" style="stop-color:#FFFFFF;stop-opacity:0.15"/>
		</linearGradient>
		<path id="path45_1_" fill="url(#path45_2_)" d="M6.189,1.067l0.598,1.311C7.363,1.9,7.994,1.736,8.682,1.067H6.189z"/>
		
			<linearGradient id="path54_2_" gradientUnits="userSpaceOnUse" x1="1789.2275" y1="-2473.5459" x2="1792.4418" y2="-2479.113" gradientTransform="matrix(1 0 0 -1 -1782 -2475)">
			<stop  offset="0" style="stop-color:#FFFFFF"/>
			<stop  offset="0.5" style="stop-color:#FFFFFF;stop-opacity:0.6"/>
			<stop  offset="1" style="stop-color:#FFFFFF;stop-opacity:0.15"/>
		</linearGradient>
		<path id="path54_1_" fill="url(#path54_2_)" d="M10.68,1.067h-0.473C9.013,1.736,7.969,2.247,7.074,3.009l1.097,2.408
			c0.937-1.083,2.025-2.032,3.243-2.798c0.009-0.008,0.016-0.016,0.026-0.024C12.804,1.416,11.449,1.067,10.68,1.067z"/>
		
			<linearGradient id="path63_2_" gradientUnits="userSpaceOnUse" x1="1782.4993" y1="-2478.6277" x2="1785.9874" y2="-2484.6692" gradientTransform="matrix(1 0 0 -1 -1782 -2475)">
			<stop  offset="0" style="stop-color:#FFFFFF"/>
			<stop  offset="0.5" style="stop-color:#FFFFFF;stop-opacity:0.6"/>
			<stop  offset="1" style="stop-color:#FFFFFF;stop-opacity:0.15"/>
		</linearGradient>
		<path id="path63_1_" fill="url(#path63_2_)" d="M3.782,7.01c-0.734,1.25-1.214,2.405-1.499,3.195
			c0.337,0.481,0.894,0.797,1.526,0.797c0.783,0,1.451-0.483,1.727-1.167c0.071-0.191,0.157-0.374,0.236-0.562L3.782,7.01z"/>
		
			<linearGradient id="path72_2_" gradientUnits="userSpaceOnUse" x1="1782.3423" y1="-2478.8752" x2="1786.208" y2="-2485.5708" gradientTransform="matrix(1 0 0 -1 -1782 -2475)">
			<stop  offset="0" style="stop-color:#FFFFFF"/>
			<stop  offset="0.5" style="stop-color:#FFFFFF;stop-opacity:0.6"/>
			<stop  offset="1" style="stop-color:#FFFFFF;stop-opacity:0.15"/>
		</linearGradient>
		<path id="path72_1_" fill="url(#path72_2_)" d="M1.959,4.937L1.945,9.135c0,0,0,0.001,0,0.003c0,0.026,0.006,0.051,0.008,0.077
			C2.272,8.438,2.718,7.49,3.322,6.486L1.959,4.937z"/>
		
			<linearGradient id="path149_2_" gradientUnits="userSpaceOnUse" x1="1785.2657" y1="-2476.7783" x2="1788.8955" y2="-2483.0654" gradientTransform="matrix(1 0 0 -1 -1782 -2475)">
			<stop  offset="0" style="stop-color:#FFFFFF"/>
			<stop  offset="0.5" style="stop-color:#FFFFFF;stop-opacity:0.6"/>
			<stop  offset="1" style="stop-color:#FFFFFF;stop-opacity:0.15"/>
		</linearGradient>
		<path id="path149_1_" fill="url(#path149_2_)" d="M5.391,1.076c-1.364-0.113-3.16,1.423-3.39,2.896l1.692,1.924
			c0.675-1.031,1.515-2.087,2.552-3.04L5.391,1.076z"/>
	</g>
	
		<radialGradient id="SVGID_2_" cx="1862.412" cy="1354.463" r="22.6588" gradientTransform="matrix(0.0197 0.9998 0.9109 -0.018 -1255.4794 -1826.5901)" gradientUnits="userSpaceOnUse">
		<stop  offset="0" style="stop-color:#FFFFFF;stop-opacity:0.6"/>
		<stop  offset="0.3783" style="stop-color:#FAFCFE;stop-opacity:0.4487"/>
		<stop  offset="0.829" style="stop-color:#EBF3FC;stop-opacity:0.2684"/>
		<stop  offset="1" style="stop-color:#E4EEFB;stop-opacity:0.2"/>
	</radialGradient>
	<path fill="url(#SVGID_2_)" d="M5.582,28.655c-1.774,0-3.216-1.465-3.216-3.267V6.9c0-0.023,0.004-0.221,0.151-0.369
		c0.123-0.123,0.32-0.186,0.585-0.186h7.441c0.294,0,0.443,0.035,0.532,0.125c0.198,0.199,0.206,0.501,0.206,0.505
		c-0.001,0.065,0.003,0.712,0.482,1.198c0.305,0.31,0.724,0.467,1.244,0.467c0,0,13.755-0.005,16.1-0.005
		c0.31,0,0.481,0.106,0.525,0.158v16.596c0,1.802-1.415,3.267-3.155,3.267L5.582,28.655L5.582,28.655L5.582,28.655z"/>
</g>
<g>
	<g opacity="0.3" enable-background="new    ">
		<g>
			<path fill="#FFFFFF" d="M21.798,15.964l-0.004-3.981h-2.837v0.942l-2.969-2.804l-1.376,1.372l-6.18,6.177l1.438,1.354
				l0.317-0.256v6.626h11.607v-6.725l0.388,0.374l1.385-1.372L21.798,15.964z M19.869,12.828h1v2.131l-1-1V12.828z M16.869,24.603
				h-1.778v-2.889h1.778V24.603z M20.869,24.603l-2.943,0.019V21.01h-3.869v3.611h-3.095l0.021-6.705l5.049-5.049l4.837,4.838
				C20.869,17.705,20.869,24.603,20.869,24.603z"/>
		</g>
		<g>
			<g>
				<g>
					<path fill="#669CCC" d="M21.798,15.448l-0.004-3.981h-2.837v0.942l-2.969-2.804l-1.376,1.372l-6.18,6.178L9.87,18.51
						l0.317-0.256v6.626h11.607v-6.726l0.388,0.374l1.385-1.372L21.798,15.448z M19.869,12.313h1v2.131l-1-1V12.313z M16.869,24.088
						h-1.778V21.2h1.778V24.088z M20.869,24.088l-2.943,0.019v-3.611h-3.869v3.611h-3.095l0.021-6.705l5.049-5.049l4.837,4.838
						C20.869,17.189,20.869,24.088,20.869,24.088z"/>
				</g>
			</g>
		</g>
	</g>
	<path opacity="0.3" fill="#669CCC" enable-background="new    " d="M21.798,15.448l-0.004-3.981h-2.837v0.942l-2.969-2.804
		l-1.376,1.372l-6.18,6.178L9.87,18.51l0.317-0.256v6.626h11.607v-6.726l0.388,0.374l1.385-1.372L21.798,15.448z M19.869,12.313h1
		v2.131l-1-1V12.313z M14.572,24.364v-3.353h0.004L14.572,24.364z M16.869,24.088h-1.778V21.2h1.778V24.088z M17.385,24.364v-3.353
		h0.024L17.385,24.364z M20.869,24.088l-2.943,0.019v-3.611h-3.869v3.611h-3.095l0.021-6.705l5.049-5.049l4.837,4.838
		C20.869,17.19,20.869,24.088,20.869,24.088z M22.177,17.807l-6.146-6.186l-6.135,6.205l-0.724-0.681l6.824-6.82l6.832,6.835
		L22.177,17.807z"/>
	<g opacity="0.3">
		<path fill="#669CCC" d="M14.834,24.346h2.293v-3.404h-2.293C14.834,20.942,14.834,24.346,14.834,24.346z M15.092,21.2h1.778v2.889
			h-1.778C15.092,24.088,15.092,21.2,15.092,21.2z"/>
		<path fill="#669CCC" d="M21.798,15.448l-0.004-3.981h-2.837v0.942l-2.969-2.804l-1.376,1.372l-6.18,6.178L9.87,18.51l0.317-0.256
			v6.626h11.607v-6.726l0.388,0.374l1.385-1.372L21.798,15.448z M22.18,18.168l-0.644-0.619v7.074H10.446v-6.907l-0.562,0.454
			l-1.08-1.018l5.991-5.99l1.198-1.195l3.222,3.042v-1.282h2.322l0.004,3.833l1.659,1.601L22.18,18.168z"/>
		<path fill="#669CCC" d="M10.725,17.293l-0.021,7.071h3.611v-3.611h3.353v3.613l3.459-0.021v-7.262l-5.096-5.096L10.725,17.293z
			 M20.869,24.088l-2.943,0.019v-3.611h-3.869v3.611h-3.095l0.021-6.705l5.049-5.049l4.837,4.838
			C20.869,17.19,20.869,24.088,20.869,24.088z"/>
		<path fill="#669CCC" d="M19.611,13.55l1.516,1.516v-3.011h-1.516V13.55z M19.869,12.313h1v2.131l-1-1V12.313z"/>
	</g>
</g>
</svg>
