<?xml version="1.0" encoding="utf-8"?>
<!-- Generator: Adobe Illustrator 17.0.0, SVG Export Plug-In . SVG Version: 6.00 Build 0)  -->
<!DOCTYPE svg PUBLIC "-//W3C//DTD SVG 1.1//EN" "http://www.w3.org/Graphics/SVG/1.1/DTD/svg11.dtd">
<svg version="1.1" id="图层_1" xmlns="http://www.w3.org/2000/svg" xmlns:xlink="http://www.w3.org/1999/xlink" x="0px" y="0px"
	 width="32px" height="32px" viewBox="0 0 32 32" enable-background="new 0 0 32 32" xml:space="preserve">
<g>
	<g id="g151" opacity="0.5">
		<path id="path153" opacity="0.08" enable-background="new    " d="M27.059,29.57H4.96c-2.035,0-3.693-1.595-3.693-3.549v2.714
			c0,1.527,1.297,2.764,2.886,2.764h23.711c1.589,0,2.868-1.238,2.868-2.764v-2.714C30.733,27.977,29.093,29.57,27.059,29.57z"/>
		<path id="path155" opacity="0.1" enable-background="new    " d="M27.04,29.57H4.941c-2.034,0-3.674-1.566-3.674-3.519v1.42
			c0,1.527,0.7,3.387,3.538,3.387s19.496,0,22.371,0s3.557-1.86,3.557-3.387v-1.42C30.733,28.006,29.074,29.57,27.04,29.57z"/>
		<path id="path157" opacity="0.1" enable-background="new    " d="M27.04,29.57H4.941c-2.034,0-3.674-1.566-3.674-3.519v0.766
			c0,1.527,1.215,3.397,3.538,3.397s19.711,0,22.371,0c2.66,0,3.557-1.87,3.557-3.396v-0.766
			C30.733,28.006,29.074,29.57,27.04,29.57z"/>
		<rect id="rect159" x="4.615" y="29.57" opacity="0.05" enable-background="new    " width="22.769" height="0.643"/>
		<rect id="rect161" x="5.285" y="29.57" opacity="0.05" enable-background="new    " width="20.76" height="0.643"/>
		<rect id="rect163" x="5.285" y="30.214" opacity="0.05" enable-background="new    " width="20.76" height="0.643"/>
		<rect id="rect165" x="6.624" y="30.214" opacity="0.05" enable-background="new    " width="18.751" height="0.643"/>
		<rect id="rect167" x="8.633" y="30.214" opacity="0.05" enable-background="new    " width="14.733" height="0.643"/>
		<rect id="rect169" x="11.312" y="30.214" opacity="0.05" enable-background="new    " width="9.376" height="0.643"/>
		<rect id="rect171" x="6.624" y="29.57" opacity="0.05" enable-background="new    " width="18.751" height="0.643"/>
		<rect id="rect173" x="7.964" y="29.57" opacity="0.05" enable-background="new    " width="16.072" height="0.643"/>
		<rect id="rect175" x="8.633" y="29.57" opacity="0.05" enable-background="new    " width="14.733" height="0.643"/>
		<rect id="rect177" x="9.973" y="29.57" opacity="0.05" enable-background="new    " width="12.054" height="0.643"/>
		<rect id="rect179" x="9.973" y="29.57" opacity="0.05" enable-background="new    " width="12.054" height="0.643"/>
	</g>
	<path fill="#C4DCED" stroke="#9DBCD7" stroke-miterlimit="10" d="M30.466,25.625c0,2.104-1.706,3.809-3.809,3.809H5.342
		c-2.104,0-3.809-1.706-3.809-3.809V4.309c0-2.104,1.706-3.809,3.809-3.809h21.316c2.104,0,3.809,1.706,3.809,3.809L30.466,25.625
		L30.466,25.625z"/>
	<path opacity="0.6" fill="none" stroke="#FFFFFF" stroke-miterlimit="10" enable-background="new    " d="M5.342,28.434
		c-1.549,0-2.809-1.261-2.809-2.81V4.309c0-1.549,1.26-2.809,2.809-2.809h21.316c1.549,0,2.809,1.26,2.809,2.809v21.315
		c0,1.549-1.261,2.81-2.81,2.81C26.657,28.435,5.342,28.435,5.342,28.434z"/>
	<path opacity="0.05" fill="none" stroke="#000000" stroke-miterlimit="10" enable-background="new    " d="M30.569,8.482
		c0,0,0-1.28-1.264-1.28c-3.669,0-15.386,0.002-16.434,0.002c-1.275,0-1.264-1.262-1.264-1.262s0-1.27-1.264-1.27
		c-2.213,0-6.645,0-7.585,0c-1.245,0-1.264,1.224-1.264,1.263"/>
	
		<linearGradient id="SVGID_1_" gradientUnits="userSpaceOnUse" x1="1385.9995" y1="-1686.4335" x2="1385.9995" y2="-1662.5765" gradientTransform="matrix(1 0 0 -1 -1370 -1657)">
		<stop  offset="0" style="stop-color:#D1E0ED"/>
		<stop  offset="1" style="stop-color:#E4EEFB"/>
	</linearGradient>
	<path fill="url(#SVGID_1_)" stroke="#9DBCD7" stroke-miterlimit="10" d="M5.334,29.433h21.395c2.104,0,3.738-1.749,3.738-3.853V8.5
		c0-0.3-0.448-0.582-1.045-0.582c-3.685,0-15.435,0.002-16.488,0.002c-1.28,0-1.261-1.168-1.261-1.168s0.009-1.176-1.261-1.176
		c-2.222,0-6.674,0-7.618,0c-1.25,0-1.262,1.036-1.262,1.075v18.93C1.533,27.684,3.23,29.433,5.334,29.433z"/>
	<path opacity="0.8" fill="none" stroke="#FFFFFF" stroke-miterlimit="10" enable-background="new    " d="M5.333,28.434
		c-1.544,0-2.8-1.279-2.801-2.853V6.651c0.031-0.045,0.105-0.075,0.261-0.075h7.618c0.144,0,0.202,0.029,0.21,0.037
		c0.028,0.029,0.051,0.131,0.051,0.132c-0.002,0.142,0.016,0.928,0.618,1.541c0.285,0.29,0.8,0.634,1.642,0.634
		c0,0,16.519-0.001,16.533-0.001v16.662c0,1.573-1.229,2.853-2.738,2.853C26.727,28.435,5.333,28.435,5.333,28.434z"/>
	<g id="g27_1_">
		
			<linearGradient id="path36_2_" gradientUnits="userSpaceOnUse" x1="1784.7555" y1="-2475.4534" x2="1788.7751" y2="-2482.4158" gradientTransform="matrix(1 0 0 -1 -1782 -2475)">
			<stop  offset="0" style="stop-color:#FFFFFF"/>
			<stop  offset="0.5" style="stop-color:#FFFFFF;stop-opacity:0.6"/>
			<stop  offset="1" style="stop-color:#FFFFFF;stop-opacity:0.15"/>
		</linearGradient>
		<path id="path36_1_" fill="url(#path36_2_)" d="M6.07,8.598c0.449-0.93,0.998-1.802,1.627-2.607L6.552,3.48
			C5.574,4.404,4.781,5.424,4.147,6.412L6.07,8.598z"/>
		
			<linearGradient id="path45_2_" gradientUnits="userSpaceOnUse" x1="1788.3998" y1="-2474.4114" x2="1791.0304" y2="-2478.9678" gradientTransform="matrix(1 0 0 -1 -1782 -2475)">
			<stop  offset="0" style="stop-color:#FFFFFF"/>
			<stop  offset="0.5" style="stop-color:#FFFFFF;stop-opacity:0.6"/>
			<stop  offset="1" style="stop-color:#FFFFFF;stop-opacity:0.15"/>
		</linearGradient>
		<path id="path45_1_" fill="url(#path45_2_)" d="M6.189,1.067l0.598,1.311C7.363,1.9,7.994,1.736,8.682,1.067H6.189z"/>
		
			<linearGradient id="path54_2_" gradientUnits="userSpaceOnUse" x1="1789.2275" y1="-2473.5459" x2="1792.4418" y2="-2479.113" gradientTransform="matrix(1 0 0 -1 -1782 -2475)">
			<stop  offset="0" style="stop-color:#FFFFFF"/>
			<stop  offset="0.5" style="stop-color:#FFFFFF;stop-opacity:0.6"/>
			<stop  offset="1" style="stop-color:#FFFFFF;stop-opacity:0.15"/>
		</linearGradient>
		<path id="path54_1_" fill="url(#path54_2_)" d="M10.68,1.067h-0.473C9.013,1.736,7.969,2.247,7.074,3.009l1.097,2.408
			c0.937-1.083,2.025-2.032,3.243-2.798c0.009-0.008,0.016-0.016,0.026-0.024C12.804,1.416,11.449,1.067,10.68,1.067z"/>
		
			<linearGradient id="path63_2_" gradientUnits="userSpaceOnUse" x1="1782.4993" y1="-2478.6277" x2="1785.9874" y2="-2484.6692" gradientTransform="matrix(1 0 0 -1 -1782 -2475)">
			<stop  offset="0" style="stop-color:#FFFFFF"/>
			<stop  offset="0.5" style="stop-color:#FFFFFF;stop-opacity:0.6"/>
			<stop  offset="1" style="stop-color:#FFFFFF;stop-opacity:0.15"/>
		</linearGradient>
		<path id="path63_1_" fill="url(#path63_2_)" d="M3.782,7.01c-0.734,1.25-1.214,2.405-1.499,3.195
			c0.337,0.481,0.894,0.797,1.526,0.797c0.783,0,1.451-0.483,1.727-1.167c0.071-0.191,0.157-0.374,0.236-0.562L3.782,7.01z"/>
		
			<linearGradient id="path72_2_" gradientUnits="userSpaceOnUse" x1="1782.3423" y1="-2478.8752" x2="1786.208" y2="-2485.5708" gradientTransform="matrix(1 0 0 -1 -1782 -2475)">
			<stop  offset="0" style="stop-color:#FFFFFF"/>
			<stop  offset="0.5" style="stop-color:#FFFFFF;stop-opacity:0.6"/>
			<stop  offset="1" style="stop-color:#FFFFFF;stop-opacity:0.15"/>
		</linearGradient>
		<path id="path72_1_" fill="url(#path72_2_)" d="M1.959,4.937L1.945,9.135c0,0,0,0.001,0,0.003c0,0.026,0.006,0.051,0.008,0.077
			C2.272,8.438,2.718,7.49,3.322,6.486L1.959,4.937z"/>
		
			<linearGradient id="path149_2_" gradientUnits="userSpaceOnUse" x1="1785.2657" y1="-2476.7783" x2="1788.8955" y2="-2483.0654" gradientTransform="matrix(1 0 0 -1 -1782 -2475)">
			<stop  offset="0" style="stop-color:#FFFFFF"/>
			<stop  offset="0.5" style="stop-color:#FFFFFF;stop-opacity:0.6"/>
			<stop  offset="1" style="stop-color:#FFFFFF;stop-opacity:0.15"/>
		</linearGradient>
		<path id="path149_1_" fill="url(#path149_2_)" d="M5.391,1.076c-1.364-0.113-3.16,1.423-3.39,2.896l1.692,1.924
			c0.675-1.031,1.515-2.087,2.552-3.04L5.391,1.076z"/>
	</g>
	
		<radialGradient id="SVGID_2_" cx="1862.412" cy="1354.463" r="22.6588" gradientTransform="matrix(0.0197 0.9998 0.9109 -0.018 -1255.4794 -1826.5901)" gradientUnits="userSpaceOnUse">
		<stop  offset="0" style="stop-color:#FFFFFF;stop-opacity:0.6"/>
		<stop  offset="0.3783" style="stop-color:#FAFCFE;stop-opacity:0.4487"/>
		<stop  offset="0.829" style="stop-color:#EBF3FC;stop-opacity:0.2684"/>
		<stop  offset="1" style="stop-color:#E4EEFB;stop-opacity:0.2"/>
	</radialGradient>
	<path fill="url(#SVGID_2_)" d="M5.582,28.655c-1.774,0-3.216-1.465-3.216-3.267V6.9c0-0.023,0.004-0.221,0.151-0.369
		c0.123-0.123,0.32-0.186,0.585-0.186h7.441c0.294,0,0.443,0.035,0.532,0.125c0.198,0.199,0.206,0.501,0.206,0.505
		c-0.001,0.065,0.003,0.712,0.482,1.198c0.305,0.31,0.724,0.467,1.244,0.467c0,0,13.755-0.005,16.1-0.005
		c0.31,0,0.481,0.106,0.525,0.158v16.596c0,1.802-1.415,3.267-3.155,3.267L5.582,28.655L5.582,28.655L5.582,28.655z"/>
</g>
<g>
	<path opacity="0.05" fill="#FFFFFF" enable-background="new    " d="M12.932,9.871c-0.095,0.01-0.186,0.04-0.268,0.089
		l-4.579,2.781c-0.301,0.183-0.397,0.574-0.215,0.875c0.036,0.06,0.081,0.113,0.136,0.159l2.493,2.106l-2.533,2.045
		c-0.276,0.218-0.321,0.619-0.103,0.895c0.043,0.054,0.095,0.101,0.152,0.138l2.92,1.867c-0.013,0.048-0.019,0.098-0.02,0.149v0.397
		c-0.002,0.209,0.098,0.406,0.268,0.526l4.47,3.119c0.218,0.151,0.507,0.151,0.725,0l4.53-3.119
		c0.174-0.119,0.278-0.315,0.278-0.526v-0.447c0-0.054-0.006-0.107-0.02-0.159l2.821-1.808c0.295-0.192,0.379-0.587,0.187-0.881
		c-0.037-0.058-0.084-0.109-0.138-0.152l-2.493-2.016l2.493-2.126c0.268-0.228,0.3-0.63,0.072-0.898
		c-0.045-0.054-0.1-0.099-0.161-0.136l-4.568-2.771c-0.235-0.143-0.536-0.119-0.745,0.06l-2.602,2.246l-2.622-2.265
		C13.276,9.908,13.104,9.854,12.932,9.871z M12.991,10.507l3.04,2.622l3.02-2.602l4.569,2.771l-3.079,2.622l3.099,2.503l-4.54,2.9
		l-3.098-2.632l-3.099,2.632l-4.54-2.9l3.119-2.514l4.52,2.782l4.51-2.771l-4.51-2.781l-4.49,2.771l-3.099-2.622L12.991,10.507z
		 M16.001,13.894l3.288,2.027l-3.288,2.016l-3.278-2.016L16.001,13.894z M16.001,19.219l3.099,2.632l1.45-0.924v0.447l-4.53,3.119
		l-4.47-3.119v-0.397l1.351,0.874L16.001,19.219z"/>
	<path opacity="0.1" fill="#FFFFFF" enable-background="new    " d="M12.961,10.188c-0.05,0.005-0.097,0.022-0.139,0.05l-4.58,2.781
		c-0.148,0.095-0.192,0.291-0.098,0.439c0.016,0.025,0.035,0.048,0.058,0.068l2.791,2.364l-2.83,2.285
		c-0.137,0.11-0.159,0.31-0.048,0.447c0.022,0.027,0.048,0.051,0.078,0.07l3.169,2.027c-0.081,0.06-0.13,0.156-0.129,0.259v0.397
		c0.001,0.104,0.054,0.201,0.139,0.259l4.47,3.119c0.108,0.074,0.25,0.074,0.358,0l4.53-3.119c0.086-0.058,0.138-0.154,0.139-0.259
		v-0.447c0.001-0.107-0.051-0.208-0.139-0.268l3.079-1.966c0.148-0.093,0.193-0.29,0.099-0.439c-0.019-0.029-0.042-0.056-0.07-0.078
		l-2.801-2.265l2.791-2.374c0.131-0.116,0.144-0.317,0.028-0.449c-0.02-0.022-0.042-0.042-0.068-0.058l-4.569-2.771
		c-0.119-0.075-0.272-0.063-0.377,0.029l-2.812,2.424l-2.83-2.444C13.134,10.21,13.049,10.182,12.961,10.188z M12.991,10.507
		l3.04,2.622l3.02-2.602l4.569,2.771l-3.079,2.622l3.099,2.503l-4.54,2.9l-3.098-2.632l-3.099,2.632l-4.54-2.9l3.119-2.514
		l4.52,2.782l4.51-2.771l-4.51-2.781l-4.49,2.771l-3.099-2.622C8.412,13.288,12.991,10.507,12.991,10.507z M16.001,13.507
		l3.904,2.414l-3.904,2.404l-3.904-2.404L16.001,13.507z M16.001,19.219l3.099,2.632l1.45-0.924v0.447l-4.53,3.119l-4.47-3.119
		v-0.397l1.351,0.874L16.001,19.219z"/>
	<path opacity="0.3" fill="#669CCC" enable-background="new    " d="M12.99,10.507l-4.574,2.784l3.099,2.619l4.49-2.768l4.508,2.776
		l-4.508,2.776l3.099,2.626l4.541-2.9l-3.107-2.502l3.082-2.619l-4.574-2.776l-3.016,2.602L12.99,10.507L12.99,10.507z
		 M11.481,15.91l-3.123,2.51l4.549,2.9l3.091-2.626C15.997,18.693,11.481,15.91,11.481,15.91z M15.997,19.224l-3.091,2.626
		l-1.359-0.87v0.398l4.475,3.116l4.524-3.116v-0.447l-1.442,0.921C19.104,21.851,15.997,19.224,15.997,19.224z"/>
	<path opacity="0.3" fill="#669CCC" enable-background="new    " d="M12.991,10.507l-4.58,2.781l3.099,2.622L16,13.14l4.51,2.781
		L16,18.692l3.099,2.632l4.54-2.9L20.54,15.92l3.079-2.622l-4.569-2.771l-3.02,2.602L12.991,10.507z M16.001,18.692l-4.52-2.781
		l-3.119,2.514l4.54,2.9L16.001,18.692z M12.942,11.122l2.246,1.937l-3.635,2.235l-2.295-1.937L12.942,11.122z M19.1,11.143
		l3.675,2.225l-2.285,1.947l-3.635-2.235C16.856,13.079,19.1,11.143,19.1,11.143z M11.521,16.516l3.635,2.246l-2.295,1.947
		l-3.656-2.334L11.521,16.516z M20.491,16.516l2.304,1.858l-3.656,2.335l-2.295-1.947L20.491,16.516z M16.001,19.219l-3.099,2.632
		l-1.351-0.874v0.397l4.47,3.119l4.53-3.119v-0.447l-1.45,0.924L16.001,19.219z M16.001,19.864l2.632,2.235l-2.602,1.788
		l-2.622-1.818L16.001,19.864z"/>
	<path opacity="0.5" fill="#669CCC" enable-background="new    " d="M12.991,10.507l-4.58,2.781l0.218,0.189l4.361-2.651
		l2.821,2.434L16,13.14l0.228,0.139l2.821-2.434l4.35,2.643l0.218-0.189l-4.569-2.771l-3.02,2.602L12.991,10.507z M11.302,16.05
		l-2.941,2.374l0.218,0.139l2.9-2.334l4.301,2.651l0.22-0.189L11.75,16.08l-0.239,0.149L11.302,16.05z M16.001,18.692l0.218,0.189
		l4.291-2.643l-0.259-0.159L16.001,18.692z M20.729,16.08l-0.189,0.159l2.881,2.325l0.218-0.139L20.729,16.08z M16.001,19.219
		l-3.099,2.632l-1.351-0.874v0.318l1.351,0.874l3.099-2.632L19.1,22.17l1.45-0.924v-0.318l-1.45,0.924L16.001,19.219z"/>
	<path opacity="0.3" fill="#669CCC" enable-background="new    " d="M12.991,10.507l-4.58,2.781l3.099,2.622L16,13.14l4.51,2.781
		L16,18.692l3.099,2.632l4.54-2.9L20.54,15.92l3.079-2.622l-4.569-2.771l-3.02,2.602L12.991,10.507z M16.001,18.692l-4.52-2.781
		l-3.119,2.514l4.54,2.9L16.001,18.692z M12.961,10.815l2.632,2.275l-4.063,2.514l-2.692-2.275
		C8.838,13.329,12.961,10.815,12.961,10.815z M19.081,10.835l4.113,2.503l-2.692,2.285l-4.063-2.514
		C16.438,13.11,19.081,10.835,19.081,10.835z M11.501,16.218l4.073,2.514l-2.692,2.285l-4.093-2.613L11.501,16.218z M20.511,16.218
		l2.702,2.186l-4.093,2.613l-2.692-2.285L20.511,16.218z M16.001,19.219l-3.099,2.632l-1.351-0.874v0.397l4.47,3.119l4.53-3.119
		v-0.447l-1.45,0.924L16.001,19.219z M16.001,19.547l2.941,2.493c0.031,0.029,0.068,0.048,0.109,0.059l-3.02,2.086l-3.03-2.106
		c0.022-0.01,0.042-0.024,0.06-0.04L16.001,19.547z"/>
	<path opacity="0.2" fill="#FFFFFF" enable-background="new    " d="M15.813,13.258l-4.301,2.652L8.63,13.477l-0.218,0.129
		l2.891,2.444l0.179-0.139l0.268,0.168L16,13.457l4.251,2.622l0.259-0.159l-4.282-2.643l-0.198,0.168L15.813,13.258z M23.402,13.487
		l-2.862,2.434l0.189,0.159l2.891-2.463L23.402,13.487z M8.58,18.563l-0.218,0.179l4.54,2.9l3.1-2.632l-0.218-0.129l-2.881,2.444
		L8.58,18.563z M16.001,19.01l3.099,2.632l4.54-2.9l-0.218-0.179l-4.32,2.762l-2.881-2.444L16.001,19.01z M11.551,21.374v0.318
		l4.47,3.119l4.53-3.119v-0.318l-4.53,3.119L11.551,21.374z"/>
</g>
</svg>
