<?xml version="1.0" encoding="utf-8"?>
<!-- Generator: Adobe Illustrator 17.0.0, SVG Export Plug-In . SVG Version: 6.00 Build 0)  -->
<!DOCTYPE svg PUBLIC "-//W3C//DTD SVG 1.1//EN" "http://www.w3.org/Graphics/SVG/1.1/DTD/svg11.dtd">
<svg version="1.1" id="图层_1" xmlns="http://www.w3.org/2000/svg" xmlns:xlink="http://www.w3.org/1999/xlink" x="0px" y="0px"
	 width="32px" height="32px" viewBox="0 0 32 32" enable-background="new 0 0 32 32" xml:space="preserve">
<g>
	<g id="g151" opacity="0.5">
		<path id="path153" opacity="0.08" enable-background="new    " d="M27.059,29.57H4.96c-2.035,0-3.693-1.595-3.693-3.549v2.714
			c0,1.527,1.297,2.764,2.886,2.764h23.711c1.589,0,2.868-1.238,2.868-2.764v-2.714C30.733,27.977,29.093,29.57,27.059,29.57z"/>
		<path id="path155" opacity="0.1" enable-background="new    " d="M27.04,29.57H4.941c-2.034,0-3.674-1.566-3.674-3.519v1.42
			c0,1.527,0.7,3.387,3.538,3.387s19.496,0,22.371,0s3.557-1.86,3.557-3.387v-1.42C30.733,28.006,29.074,29.57,27.04,29.57z"/>
		<path id="path157" opacity="0.1" enable-background="new    " d="M27.04,29.57H4.941c-2.034,0-3.674-1.566-3.674-3.519v0.766
			c0,1.527,1.215,3.397,3.538,3.397s19.711,0,22.371,0c2.66,0,3.557-1.87,3.557-3.396v-0.766
			C30.733,28.006,29.074,29.57,27.04,29.57z"/>
		<rect id="rect159" x="4.615" y="29.57" opacity="0.05" enable-background="new    " width="22.769" height="0.643"/>
		<rect id="rect161" x="5.285" y="29.57" opacity="0.05" enable-background="new    " width="20.76" height="0.643"/>
		<rect id="rect163" x="5.285" y="30.214" opacity="0.05" enable-background="new    " width="20.76" height="0.643"/>
		<rect id="rect165" x="6.624" y="30.214" opacity="0.05" enable-background="new    " width="18.751" height="0.643"/>
		<rect id="rect167" x="8.633" y="30.214" opacity="0.05" enable-background="new    " width="14.733" height="0.643"/>
		<rect id="rect169" x="11.312" y="30.214" opacity="0.05" enable-background="new    " width="9.376" height="0.643"/>
		<rect id="rect171" x="6.624" y="29.57" opacity="0.05" enable-background="new    " width="18.751" height="0.643"/>
		<rect id="rect173" x="7.964" y="29.57" opacity="0.05" enable-background="new    " width="16.072" height="0.643"/>
		<rect id="rect175" x="8.633" y="29.57" opacity="0.05" enable-background="new    " width="14.733" height="0.643"/>
		<rect id="rect177" x="9.973" y="29.57" opacity="0.05" enable-background="new    " width="12.054" height="0.643"/>
		<rect id="rect179" x="9.973" y="29.57" opacity="0.05" enable-background="new    " width="12.054" height="0.643"/>
	</g>
	<path fill="#C4DCED" stroke="#9DBCD7" stroke-miterlimit="10" d="M30.466,25.625c0,2.104-1.706,3.809-3.809,3.809H5.342
		c-2.104,0-3.809-1.706-3.809-3.809V4.309c0-2.104,1.706-3.809,3.809-3.809h21.316c2.104,0,3.809,1.706,3.809,3.809L30.466,25.625
		L30.466,25.625z"/>
	<path opacity="0.6" fill="none" stroke="#FFFFFF" stroke-miterlimit="10" enable-background="new    " d="M5.342,28.434
		c-1.549,0-2.809-1.261-2.809-2.81V4.309c0-1.549,1.26-2.809,2.809-2.809h21.316c1.549,0,2.809,1.26,2.809,2.809v21.315
		c0,1.549-1.261,2.81-2.81,2.81C26.657,28.435,5.342,28.435,5.342,28.434z"/>
	<path opacity="0.05" fill="none" stroke="#000000" stroke-miterlimit="10" enable-background="new    " d="M30.569,8.482
		c0,0,0-1.28-1.264-1.28c-3.669,0-15.386,0.002-16.434,0.002c-1.275,0-1.264-1.262-1.264-1.262s0-1.27-1.264-1.27
		c-2.213,0-6.645,0-7.585,0c-1.245,0-1.264,1.224-1.264,1.263"/>
	
		<linearGradient id="SVGID_1_" gradientUnits="userSpaceOnUse" x1="1385.9995" y1="-1686.4335" x2="1385.9995" y2="-1662.5765" gradientTransform="matrix(1 0 0 -1 -1370 -1657)">
		<stop  offset="0" style="stop-color:#D1E0ED"/>
		<stop  offset="1" style="stop-color:#E4EEFB"/>
	</linearGradient>
	<path fill="url(#SVGID_1_)" stroke="#9DBCD7" stroke-miterlimit="10" d="M5.334,29.433h21.395c2.104,0,3.738-1.749,3.738-3.853V8.5
		c0-0.3-0.448-0.582-1.045-0.582c-3.685,0-15.435,0.002-16.488,0.002c-1.28,0-1.261-1.168-1.261-1.168s0.009-1.176-1.261-1.176
		c-2.222,0-6.674,0-7.618,0c-1.25,0-1.262,1.036-1.262,1.075v18.93C1.533,27.684,3.23,29.433,5.334,29.433z"/>
	<path opacity="0.8" fill="none" stroke="#FFFFFF" stroke-miterlimit="10" enable-background="new    " d="M5.333,28.434
		c-1.544,0-2.8-1.279-2.801-2.853V6.651c0.031-0.045,0.105-0.075,0.261-0.075h7.618c0.144,0,0.202,0.029,0.21,0.037
		c0.028,0.029,0.051,0.131,0.051,0.132c-0.002,0.142,0.016,0.928,0.618,1.541c0.285,0.29,0.8,0.634,1.642,0.634
		c0,0,16.519-0.001,16.533-0.001v16.662c0,1.573-1.229,2.853-2.738,2.853C26.727,28.435,5.333,28.435,5.333,28.434z"/>
	<g id="g27_1_">
		
			<linearGradient id="path36_2_" gradientUnits="userSpaceOnUse" x1="1784.7555" y1="-2475.4534" x2="1788.7751" y2="-2482.4158" gradientTransform="matrix(1 0 0 -1 -1782 -2475)">
			<stop  offset="0" style="stop-color:#FFFFFF"/>
			<stop  offset="0.5" style="stop-color:#FFFFFF;stop-opacity:0.6"/>
			<stop  offset="1" style="stop-color:#FFFFFF;stop-opacity:0.15"/>
		</linearGradient>
		<path id="path36_1_" fill="url(#path36_2_)" d="M6.07,8.598c0.449-0.93,0.998-1.802,1.627-2.607L6.552,3.48
			C5.574,4.404,4.781,5.424,4.147,6.412L6.07,8.598z"/>
		
			<linearGradient id="path45_2_" gradientUnits="userSpaceOnUse" x1="1788.3998" y1="-2474.4114" x2="1791.0304" y2="-2478.9678" gradientTransform="matrix(1 0 0 -1 -1782 -2475)">
			<stop  offset="0" style="stop-color:#FFFFFF"/>
			<stop  offset="0.5" style="stop-color:#FFFFFF;stop-opacity:0.6"/>
			<stop  offset="1" style="stop-color:#FFFFFF;stop-opacity:0.15"/>
		</linearGradient>
		<path id="path45_1_" fill="url(#path45_2_)" d="M6.189,1.067l0.598,1.311C7.363,1.9,7.994,1.736,8.682,1.067H6.189z"/>
		
			<linearGradient id="path54_2_" gradientUnits="userSpaceOnUse" x1="1789.2275" y1="-2473.5459" x2="1792.4418" y2="-2479.113" gradientTransform="matrix(1 0 0 -1 -1782 -2475)">
			<stop  offset="0" style="stop-color:#FFFFFF"/>
			<stop  offset="0.5" style="stop-color:#FFFFFF;stop-opacity:0.6"/>
			<stop  offset="1" style="stop-color:#FFFFFF;stop-opacity:0.15"/>
		</linearGradient>
		<path id="path54_1_" fill="url(#path54_2_)" d="M10.68,1.067h-0.473C9.013,1.736,7.969,2.247,7.074,3.009l1.097,2.408
			c0.937-1.083,2.025-2.032,3.243-2.798c0.009-0.008,0.016-0.016,0.026-0.024C12.804,1.416,11.449,1.067,10.68,1.067z"/>
		
			<linearGradient id="path63_2_" gradientUnits="userSpaceOnUse" x1="1782.4993" y1="-2478.6277" x2="1785.9874" y2="-2484.6692" gradientTransform="matrix(1 0 0 -1 -1782 -2475)">
			<stop  offset="0" style="stop-color:#FFFFFF"/>
			<stop  offset="0.5" style="stop-color:#FFFFFF;stop-opacity:0.6"/>
			<stop  offset="1" style="stop-color:#FFFFFF;stop-opacity:0.15"/>
		</linearGradient>
		<path id="path63_1_" fill="url(#path63_2_)" d="M3.782,7.01c-0.734,1.25-1.214,2.405-1.499,3.195
			c0.337,0.481,0.894,0.797,1.526,0.797c0.783,0,1.451-0.483,1.727-1.167c0.071-0.191,0.157-0.374,0.236-0.562L3.782,7.01z"/>
		
			<linearGradient id="path72_2_" gradientUnits="userSpaceOnUse" x1="1782.3423" y1="-2478.8752" x2="1786.208" y2="-2485.5708" gradientTransform="matrix(1 0 0 -1 -1782 -2475)">
			<stop  offset="0" style="stop-color:#FFFFFF"/>
			<stop  offset="0.5" style="stop-color:#FFFFFF;stop-opacity:0.6"/>
			<stop  offset="1" style="stop-color:#FFFFFF;stop-opacity:0.15"/>
		</linearGradient>
		<path id="path72_1_" fill="url(#path72_2_)" d="M1.959,4.937L1.945,9.135c0,0,0,0.001,0,0.003c0,0.026,0.006,0.051,0.008,0.077
			C2.272,8.438,2.718,7.49,3.322,6.486L1.959,4.937z"/>
		
			<linearGradient id="path149_2_" gradientUnits="userSpaceOnUse" x1="1785.2657" y1="-2476.7783" x2="1788.8955" y2="-2483.0654" gradientTransform="matrix(1 0 0 -1 -1782 -2475)">
			<stop  offset="0" style="stop-color:#FFFFFF"/>
			<stop  offset="0.5" style="stop-color:#FFFFFF;stop-opacity:0.6"/>
			<stop  offset="1" style="stop-color:#FFFFFF;stop-opacity:0.15"/>
		</linearGradient>
		<path id="path149_1_" fill="url(#path149_2_)" d="M5.391,1.076c-1.364-0.113-3.16,1.423-3.39,2.896l1.692,1.924
			c0.675-1.031,1.515-2.087,2.552-3.04L5.391,1.076z"/>
	</g>
	
		<radialGradient id="SVGID_2_" cx="1862.412" cy="1354.463" r="22.6588" gradientTransform="matrix(0.0197 0.9998 0.9109 -0.018 -1255.4794 -1826.5901)" gradientUnits="userSpaceOnUse">
		<stop  offset="0" style="stop-color:#FFFFFF;stop-opacity:0.6"/>
		<stop  offset="0.3783" style="stop-color:#FAFCFE;stop-opacity:0.4487"/>
		<stop  offset="0.829" style="stop-color:#EBF3FC;stop-opacity:0.2684"/>
		<stop  offset="1" style="stop-color:#E4EEFB;stop-opacity:0.2"/>
	</radialGradient>
	<path fill="url(#SVGID_2_)" d="M5.582,28.655c-1.774,0-3.216-1.465-3.216-3.267V6.9c0-0.023,0.004-0.221,0.151-0.369
		c0.123-0.123,0.32-0.186,0.585-0.186h7.441c0.294,0,0.443,0.035,0.532,0.125c0.198,0.199,0.206,0.501,0.206,0.505
		c-0.001,0.065,0.003,0.712,0.482,1.198c0.305,0.31,0.724,0.467,1.244,0.467c0,0,13.755-0.005,16.1-0.005
		c0.31,0,0.481,0.106,0.525,0.158v16.596c0,1.802-1.415,3.267-3.155,3.267L5.582,28.655L5.582,28.655L5.582,28.655z"/>
</g>
<g>
	<path opacity="0.3" fill="#FFFFFF" enable-background="new    " d="M15.708,9.727c-0.468,0-0.863,0.396-0.863,0.864v1.783
		c-0.682,0.402-1.153,1.121-1.153,1.963c0,0.377,0.118,0.722,0.279,1.035l-0.55,1.847H12.54c-0.468,0-0.865,0.396-0.865,0.863
		c0,0.468,0.396,0.864,0.865,0.864h0.369l-0.424,1.405c-0.332,1.113-0.503,2.153-0.513,2.99c-0.004,0.418,0.022,0.78,0.128,1.108
		c0.102,0.327,0.317,0.688,0.728,0.81c0.304,0.088,0.621-0.085,0.712-0.388l1.765-5.926h1.396l1.765,5.926
		c0.091,0.303,0.409,0.476,0.712,0.388c0.411-0.123,0.625-0.483,0.73-0.81c0.104-0.328,0.13-0.69,0.126-1.108
		c-0.008-0.836-0.181-1.876-0.513-2.99l-0.424-1.405h0.361c0.468,0,0.865-0.396,0.865-0.864s-0.396-0.863-0.865-0.863h-0.875
		l-0.548-1.855c0.158-0.312,0.27-0.654,0.27-1.027c0-0.842-0.471-1.561-1.153-1.963v-1.783c0-0.468-0.396-0.864-0.865-0.864H15.708
		L15.708,9.727z M15.708,10.303h0.576c0.161,0,0.289,0.128,0.289,0.288v2.117c0.672,0.237,1.153,0.877,1.153,1.63
		c0,0.365-0.113,0.703-0.307,0.982l0.739,2.476h1.297c0.161,0,0.287,0.128,0.287,0.287c0,0.161-0.128,0.289-0.287,0.289h-1.125
		l0.639,2.144c0.638,2.142,0.657,4.015,0.045,4.196l-1.891-6.34h-2.242l-1.891,6.339c-0.612-0.182-0.594-2.055,0.045-4.196
		l0.639-2.144H12.54c-0.161,0-0.289-0.129-0.289-0.289c0-0.16,0.129-0.287,0.289-0.287h1.306l0.738-2.468
		c-0.197-0.28-0.314-0.62-0.314-0.99c0-0.753,0.481-1.393,1.153-1.63V10.59C15.421,10.431,15.549,10.303,15.708,10.303z
		 M15.997,13.185c-0.636,0-1.153,0.516-1.153,1.153c0,0.093,0.015,0.184,0.035,0.27c0.012,0.053,0.026,0.102,0.045,0.153
		c0.02,0.052,0.044,0.104,0.073,0.153c0.007,0.014,0.018,0.022,0.027,0.035c0.005,0.012,0.01,0.025,0.018,0.035
		c0.014,0.02,0.03,0.035,0.045,0.055c0.031,0.042,0.07,0.089,0.106,0.126c0.03,0.028,0.059,0.055,0.09,0.08
		c0.012,0.01,0.023,0.018,0.035,0.027c0.018,0.012,0.037,0.025,0.055,0.035c0.048,0.03,0.102,0.058,0.153,0.08
		c0.005,0.003,0.012,0.007,0.018,0.01c0.066,0.027,0.136,0.048,0.207,0.063c0.078,0.016,0.161,0.027,0.244,0.027
		c0.086,0,0.171-0.018,0.252-0.037c0.053-0.012,0.102-0.026,0.153-0.044c0.1-0.038,0.194-0.09,0.279-0.153
		c0.043-0.031,0.089-0.063,0.126-0.1c0.037-0.037,0.068-0.075,0.099-0.117c0.03-0.039,0.056-0.084,0.08-0.126
		c0.003-0.004,0.008-0.005,0.01-0.01c0.025-0.044,0.053-0.087,0.073-0.134c0.02-0.051,0.031-0.106,0.044-0.162
		c0.022-0.086,0.037-0.177,0.037-0.27C17.15,13.701,16.633,13.185,15.997,13.185z M15.997,13.762c0.326,0,0.576,0.25,0.576,0.575
		c0,0.029-0.004,0.074-0.018,0.134c-0.016,0.071-0.025,0.096-0.018,0.081c0.005-0.017-0.01,0.008-0.037,0.054
		c-0.003,0.004,0.003,0.004,0,0.01c-0.004,0.008-0.004,0.001-0.008,0.01c-0.025,0.041-0.04,0.068-0.037,0.063
		c-0.035,0.044-0.053,0.055-0.053,0.055c0.015-0.015-0.007,0.012-0.063,0.053c-0.046,0.035-0.09,0.055-0.136,0.073
		c-0.023,0.01-0.049,0.019-0.08,0.027c-0.076,0.017-0.119,0.018-0.126,0.018c-0.035,0-0.08,0-0.126-0.01
		c-0.027-0.005-0.044-0.01-0.063-0.018c0.001-0.001-0.008-0.006-0.035-0.018c-0.005-0.002-0.004,0.001-0.01,0
		c-0.031-0.014-0.063-0.035-0.082-0.045c-0.015-0.01-0.023-0.016-0.026-0.018c-0.008-0.007-0.015-0.006-0.018-0.01
		c-0.001,0-0.018-0.018-0.037-0.035c-0.001-0.003,0.003-0.007,0-0.01c-0.001-0.002-0.027-0.029-0.053-0.063
		c-0.014-0.018-0.019-0.016-0.027-0.027c-0.01-0.014-0.005-0.012-0.008-0.018c-0.005-0.006-0.005-0.003-0.01-0.008
		c-0.004-0.008-0.005-0.003-0.01-0.01c-0.003-0.005-0.012-0.018-0.018-0.027c-0.001-0.002,0.001-0.008,0-0.01
		c-0.004-0.007-0.018-0.027-0.018-0.027c-0.001-0.003,0.001-0.005,0-0.01c-0.003-0.008-0.005-0.031-0.018-0.081
		c-0.014-0.06-0.018-0.105-0.018-0.134C15.421,14.012,15.671,13.762,15.997,13.762z M15.591,16.012l-0.531,1.784h1.89l-0.531-1.784
		c-0.136,0.035-0.278,0.055-0.424,0.055C15.858,16.067,15.721,16.044,15.591,16.012z M15.997,16.644c0.003,0,0.005,0,0.008,0
		l0.181,0.576h-0.361L15.997,16.644z"/>
	<path opacity="0.3" fill="#FFFFFF" enable-background="new    " d="M15.708,10.006c-0.321,0-0.585,0.264-0.585,0.586v1.945
		c-0.678,0.329-1.153,1.001-1.153,1.801c0,0.371,0.113,0.709,0.287,1.008l-0.639,2.152h-1.08c-0.321,0-0.586,0.264-0.586,0.585
		s0.266,0.586,0.586,0.586h0.728l-0.522,1.756c-0.326,1.093-0.495,2.117-0.503,2.917c-0.004,0.4,0.027,0.743,0.117,1.027
		c0.09,0.283,0.252,0.544,0.54,0.63c0.158,0.05,0.327-0.037,0.378-0.196c0-0.001,0-0.001,0-0.002l1.829-6.133h1.793l1.827,6.133
		c0.049,0.159,0.216,0.248,0.375,0.198c0.001,0,0.003,0,0.003,0c0.289-0.086,0.452-0.348,0.54-0.631
		c0.09-0.283,0.122-0.628,0.118-1.027c-0.01-0.8-0.179-1.825-0.505-2.917l-0.521-1.756h0.72c0.321,0,0.586-0.265,0.586-0.586
		c0-0.321-0.266-0.585-0.586-0.585h-1.072l-0.639-2.162c0.17-0.297,0.279-0.634,0.279-1c0-0.8-0.475-1.472-1.153-1.801V10.59
		c0-0.321-0.264-0.586-0.586-0.586H15.71v0.001L15.708,10.006L15.708,10.006z M15.708,10.303h0.576c0.161,0,0.289,0.128,0.289,0.288
		v2.117c0.672,0.237,1.153,0.877,1.153,1.63c0,0.365-0.113,0.703-0.307,0.982l0.739,2.476h1.297c0.161,0,0.287,0.128,0.287,0.287
		c0,0.161-0.128,0.289-0.287,0.289h-1.125l0.639,2.144c0.638,2.142,0.657,4.015,0.045,4.196l-1.891-6.34h-2.242l-1.891,6.339
		c-0.612-0.182-0.594-2.055,0.045-4.196l0.639-2.144H12.54c-0.161,0-0.289-0.129-0.289-0.289c0-0.16,0.129-0.287,0.289-0.287h1.306
		l0.738-2.468c-0.197-0.28-0.314-0.62-0.314-0.99c0-0.753,0.481-1.393,1.153-1.63V10.59C15.421,10.431,15.549,10.303,15.708,10.303z
		 M15.997,13.185c-0.636,0-1.153,0.516-1.153,1.153c0,0.093,0.015,0.184,0.035,0.27c0.012,0.053,0.026,0.102,0.045,0.153
		c0.02,0.052,0.044,0.104,0.073,0.153c0.007,0.014,0.018,0.022,0.027,0.035c0.005,0.012,0.01,0.025,0.018,0.035
		c0.014,0.02,0.03,0.035,0.045,0.055c0.031,0.042,0.07,0.089,0.106,0.126c0.03,0.028,0.059,0.055,0.09,0.08
		c0.012,0.01,0.023,0.018,0.035,0.027c0.018,0.012,0.037,0.025,0.055,0.035c0.048,0.03,0.102,0.058,0.153,0.08
		c0.005,0.003,0.012,0.007,0.018,0.01c0.066,0.027,0.136,0.048,0.207,0.063c0.078,0.016,0.161,0.027,0.244,0.027
		c0.086,0,0.171-0.018,0.252-0.037c0.053-0.012,0.102-0.026,0.153-0.044c0.1-0.038,0.194-0.09,0.279-0.153
		c0.043-0.031,0.089-0.063,0.126-0.1c0.037-0.037,0.068-0.075,0.099-0.117c0.03-0.039,0.056-0.084,0.08-0.126
		c0.003-0.004,0.008-0.005,0.01-0.01c0.025-0.044,0.053-0.087,0.073-0.134c0.02-0.051,0.031-0.106,0.044-0.162
		c0.022-0.086,0.037-0.177,0.037-0.27C17.15,13.701,16.633,13.185,15.997,13.185z M15.997,13.483c0.474,0,0.856,0.381,0.856,0.855
		c0,0.06-0.01,0.126-0.027,0.198c-0.015,0.063-0.029,0.108-0.035,0.126c-0.005,0.012-0.025,0.038-0.055,0.089
		c-0.003,0.004,0.003,0.005,0,0.01c-0.003,0.003-0.005-0.004-0.008,0c-0.025,0.041-0.041,0.082-0.055,0.099
		c-0.033,0.044-0.053,0.064-0.072,0.081c-0.012,0.01-0.049,0.035-0.1,0.072c-0.064,0.048-0.136,0.09-0.207,0.117
		c-0.037,0.014-0.066,0.017-0.108,0.027c-0.079,0.018-0.144,0.037-0.189,0.037c-0.057,0-0.121-0.015-0.181-0.027
		c-0.049-0.012-0.095-0.021-0.136-0.037c0.001-0.001-0.004-0.003-0.016-0.01c-0.004-0.001-0.004,0.003-0.01,0
		c-0.041-0.018-0.085-0.043-0.118-0.063c-0.014-0.01-0.026-0.02-0.035-0.027c-0.003-0.001-0.007,0.002-0.01,0
		c-0.007-0.005-0.012-0.014-0.018-0.018c-0.015-0.012-0.043-0.035-0.072-0.063c-0.019-0.019-0.053-0.052-0.082-0.09
		c-0.035-0.046-0.04-0.064-0.026-0.045c0.033,0.049,0.023,0.04-0.018-0.027c-0.012-0.017-0.014-0.019-0.019-0.027
		c-0.018-0.031-0.037-0.065-0.053-0.108c-0.012-0.028-0.023-0.066-0.035-0.117c-0.018-0.073-0.027-0.138-0.027-0.198
		C15.141,13.863,15.521,13.483,15.997,13.483z M15.591,16.012l-0.531,1.784h1.89l-0.531-1.784c-0.136,0.035-0.278,0.055-0.424,0.055
		C15.858,16.067,15.721,16.044,15.591,16.012z M15.807,16.337c0.064,0.008,0.121,0.027,0.189,0.027c0.073,0,0.136-0.019,0.207-0.027
		l0.342,1.162h-1.08L15.807,16.337z"/>
	<path opacity="0.3" fill="#669CCC" enable-background="new    " d="M15.708,10.303c-0.159,0-0.287,0.128-0.287,0.288v2.117
		c-0.672,0.237-1.153,0.877-1.153,1.63c0,0.37,0.118,0.709,0.314,0.99l-0.738,2.468h-1.306c-0.161,0-0.289,0.128-0.289,0.287
		c0,0.161,0.129,0.289,0.289,0.289h1.134l-0.639,2.144c-0.639,2.142-0.657,4.015-0.045,4.196l1.89-6.34h2.242l1.891,6.34
		c0.612-0.182,0.593-2.055-0.045-4.196l-0.639-2.144h1.125c0.161,0,0.287-0.129,0.287-0.289s-0.128-0.287-0.287-0.287h-1.297
		l-0.739-2.476c0.192-0.279,0.307-0.617,0.307-0.982c0-0.753-0.481-1.393-1.153-1.63v-2.117c0-0.16-0.129-0.288-0.289-0.288
		C16.283,10.303,15.708,10.303,15.708,10.303z M15.997,13.185c0.636,0,1.153,0.516,1.153,1.153c0,0.093-0.015,0.184-0.037,0.27
		c-0.012,0.055-0.023,0.111-0.044,0.162c-0.019,0.047-0.048,0.091-0.073,0.134c-0.001,0.004-0.007,0.005-0.01,0.01
		c-0.025,0.042-0.05,0.087-0.08,0.126c-0.031,0.041-0.062,0.08-0.099,0.117c-0.037,0.037-0.083,0.069-0.126,0.1
		c-0.085,0.062-0.179,0.115-0.279,0.153c-0.05,0.018-0.1,0.033-0.153,0.044c-0.08,0.018-0.165,0.037-0.252,0.037
		c-0.083,0-0.165-0.012-0.244-0.027c-0.072-0.015-0.141-0.035-0.207-0.063c-0.007-0.003-0.012-0.007-0.018-0.01
		c-0.052-0.023-0.105-0.05-0.153-0.08c-0.018-0.012-0.037-0.023-0.055-0.035c-0.012-0.01-0.023-0.018-0.035-0.027
		c-0.031-0.025-0.06-0.053-0.09-0.08c-0.037-0.037-0.075-0.084-0.106-0.126c-0.015-0.019-0.031-0.035-0.045-0.055
		c-0.008-0.012-0.012-0.025-0.018-0.035c-0.01-0.014-0.02-0.023-0.027-0.035c-0.029-0.049-0.052-0.102-0.073-0.153
		c-0.019-0.05-0.033-0.1-0.045-0.153c-0.02-0.086-0.035-0.177-0.035-0.27C14.844,13.701,15.36,13.185,15.997,13.185z M15.591,16.012
		c0.13,0.031,0.266,0.055,0.405,0.055c0.145,0,0.287-0.02,0.424-0.055l0.531,1.784h-1.89L15.591,16.012z"/>
	<path opacity="0.3" fill="#669CCC" enable-background="new    " d="M15.708,10.303c-0.159,0-0.287,0.128-0.287,0.288v2.117
		c-0.672,0.237-1.153,0.877-1.153,1.63c0,0.37,0.118,0.709,0.314,0.99l-0.738,2.468h-1.306c-0.161,0-0.289,0.128-0.289,0.287
		c0,0.161,0.129,0.289,0.289,0.289h1.134l-0.639,2.144c-0.639,2.142-0.657,4.015-0.045,4.196l1.89-6.34h2.242l1.891,6.34
		c0.612-0.182,0.593-2.055-0.045-4.196l-0.639-2.144h1.125c0.161,0,0.287-0.129,0.287-0.289s-0.128-0.287-0.287-0.287h-1.297
		l-0.739-2.476c0.192-0.279,0.307-0.617,0.307-0.982c0-0.753-0.481-1.393-1.153-1.63v-2.117c0-0.16-0.129-0.288-0.289-0.288
		C16.283,10.303,15.708,10.303,15.708,10.303z M15.997,13.185c0.636,0,1.153,0.516,1.153,1.153c0,0.093-0.015,0.184-0.037,0.27
		c-0.012,0.055-0.023,0.111-0.044,0.162c-0.019,0.047-0.048,0.091-0.073,0.134c-0.001,0.004-0.007,0.005-0.01,0.01
		c-0.025,0.042-0.05,0.087-0.08,0.126c-0.031,0.041-0.062,0.08-0.099,0.117c-0.037,0.037-0.083,0.069-0.126,0.1
		c-0.085,0.062-0.179,0.115-0.279,0.153c-0.05,0.018-0.1,0.033-0.153,0.044c-0.08,0.018-0.165,0.037-0.252,0.037
		c-0.083,0-0.165-0.012-0.244-0.027c-0.072-0.015-0.141-0.035-0.207-0.063c-0.007-0.003-0.012-0.007-0.018-0.01
		c-0.052-0.023-0.105-0.05-0.153-0.08c-0.018-0.012-0.037-0.023-0.055-0.035c-0.012-0.01-0.023-0.018-0.035-0.027
		c-0.031-0.025-0.06-0.053-0.09-0.08c-0.037-0.037-0.075-0.084-0.106-0.126c-0.015-0.019-0.031-0.035-0.045-0.055
		c-0.008-0.012-0.012-0.025-0.018-0.035c-0.01-0.014-0.02-0.023-0.027-0.035c-0.029-0.049-0.052-0.102-0.073-0.153
		c-0.019-0.05-0.033-0.1-0.045-0.153c-0.02-0.086-0.035-0.177-0.035-0.27C14.844,13.701,15.36,13.185,15.997,13.185z M16.951,15.76
		l0.018,0.054c-0.008-0.016-0.018-0.03-0.027-0.045C16.946,15.768,16.948,15.763,16.951,15.76z M15.043,15.778
		c0.005,0.004,0.012,0.015,0.018,0.018c-0.007,0.018-0.014,0.037-0.018,0.055l-0.533,1.782c-0.03,0.1-0.033,0.205-0.008,0.307
		c0,0.003,0,0.006,0,0.01c-0.08,0.071-0.14,0.16-0.171,0.262l-0.793,2.638c0.016-0.059,0.027-0.111,0.045-0.171l0.639-2.144
		c0.031-0.102,0.035-0.211,0.01-0.314c0.076-0.072,0.132-0.161,0.161-0.262L15.043,15.778z M16.969,15.851l0.639,2.107
		c0.03,0.101,0.086,0.19,0.163,0.262c-0.026,0.104-0.023,0.214,0.008,0.314l0.639,2.144c0.018,0.06,0.029,0.111,0.045,0.171
		l-0.793-2.638c-0.029-0.101-0.085-0.19-0.161-0.262c0.026-0.103,0.023-0.214-0.01-0.315L16.969,15.851z M15.591,16.012
		c0.13,0.031,0.266,0.055,0.405,0.055c0.145,0,0.287-0.02,0.424-0.055l0.531,1.784h-1.89L15.591,16.012z"/>
	<path opacity="0.3" fill="#669CCC" enable-background="new    " d="M15.708,10.303c-0.159,0-0.287,0.128-0.287,0.288v0.288
		c0-0.16,0.129-0.288,0.287-0.288h0.576c0.161,0,0.289,0.128,0.289,0.288v-0.288c0-0.16-0.129-0.288-0.289-0.288H15.708z
		 M15.421,12.707c-0.672,0.237-1.153,0.877-1.153,1.63c0,0.05,0.005,0.097,0.01,0.145c0.056-0.69,0.514-1.265,1.143-1.486V12.707
		L15.421,12.707z M16.573,12.707v0.288c0.628,0.222,1.087,0.796,1.143,1.486c0.004-0.048,0.01-0.096,0.01-0.145
		C17.726,13.585,17.245,12.944,16.573,12.707z M14.862,14.5c-0.004,0.042-0.018,0.083-0.018,0.126c0,0.093,0.015,0.184,0.035,0.27
		c0.012,0.054,0.026,0.102,0.045,0.153c0.02,0.053,0.044,0.105,0.073,0.153c0.007,0.014,0.018,0.023,0.027,0.037
		c0.005,0.012,0.01,0.025,0.018,0.037c0.014,0.02,0.03,0.035,0.045,0.053c0.031,0.043,0.07,0.089,0.106,0.126
		c0.03,0.029,0.059,0.056,0.09,0.081c0.012,0.01,0.023,0.018,0.035,0.027c0.018,0.014,0.037,0.025,0.055,0.037
		c0.048,0.03,0.102,0.057,0.153,0.08c0.005,0.003,0.012,0.006,0.018,0.01c0.066,0.027,0.136,0.047,0.207,0.063
		c0.078,0.016,0.161,0.027,0.244,0.027c0.086,0,0.171-0.018,0.252-0.035c0.053-0.012,0.102-0.026,0.153-0.045
		c0.1-0.038,0.194-0.09,0.279-0.153c0.043-0.031,0.089-0.062,0.126-0.099c0.037-0.037,0.068-0.075,0.099-0.118
		c0.03-0.038,0.056-0.083,0.08-0.126c0.003-0.003,0.008-0.005,0.01-0.008c0.025-0.044,0.053-0.088,0.073-0.136
		c0.02-0.052,0.031-0.106,0.044-0.162c0.022-0.086,0.037-0.177,0.037-0.27c0-0.043-0.014-0.084-0.018-0.126
		c-0.007,0.035-0.012,0.074-0.019,0.108c-0.012,0.055-0.023,0.111-0.044,0.162c-0.019,0.047-0.048,0.091-0.073,0.134
		c-0.001,0.004-0.007,0.005-0.01,0.01c-0.025,0.042-0.05,0.087-0.08,0.126c-0.031,0.041-0.062,0.08-0.099,0.117
		c-0.037,0.037-0.083,0.069-0.126,0.1c-0.085,0.062-0.179,0.115-0.279,0.153c-0.05,0.018-0.1,0.033-0.153,0.044
		c-0.08,0.018-0.165,0.037-0.252,0.037c-0.083,0-0.165-0.012-0.244-0.027c-0.072-0.015-0.141-0.035-0.207-0.063
		c-0.007-0.003-0.012-0.007-0.018-0.01c-0.052-0.023-0.105-0.05-0.153-0.08c-0.018-0.012-0.037-0.023-0.055-0.035
		c-0.012-0.01-0.023-0.018-0.035-0.027c-0.031-0.025-0.06-0.053-0.09-0.08c-0.037-0.037-0.075-0.084-0.106-0.126
		c-0.015-0.019-0.031-0.035-0.045-0.055c-0.008-0.012-0.012-0.025-0.018-0.035c-0.01-0.014-0.02-0.023-0.027-0.035
		c-0.029-0.049-0.052-0.102-0.073-0.153c-0.019-0.05-0.033-0.1-0.045-0.153C14.872,14.574,14.867,14.535,14.862,14.5z
		 M17.474,15.509c-0.02,0.033-0.033,0.068-0.055,0.099l0.739,2.476h1.297c0.105,0,0.192,0.06,0.244,0.145
		c0.026-0.044,0.044-0.089,0.044-0.145c0-0.16-0.128-0.287-0.287-0.287h-1.297L17.474,15.509z M14.529,15.518l-0.684,2.278h-1.306
		c-0.161,0-0.289,0.128-0.289,0.287c0,0.055,0.019,0.102,0.045,0.145c0.05-0.084,0.138-0.145,0.244-0.145h1.306l0.738-2.467
		C14.56,15.587,14.547,15.549,14.529,15.518z M15.15,17.796l-0.09,0.287h1.89l-0.09-0.287H15.15z M13.584,18.661l-0.548,1.855
		c-0.346,1.16-0.507,2.24-0.487,3.016c0.022-0.746,0.182-1.705,0.487-2.728l0.639-2.144h-0.09L13.584,18.661L13.584,18.661z
		 M18.329,18.661l0.639,2.144c0.306,1.023,0.466,1.983,0.486,2.728c0.019-0.776-0.141-1.856-0.486-3.016l-0.55-1.855h-0.089V18.661
		L18.329,18.661z"/>
	<path opacity="0.3" fill="#669CCC" enable-background="new    " d="M15.708,10.303c-0.159,0-0.287,0.128-0.287,0.288v2.117
		c-0.672,0.237-1.153,0.877-1.153,1.63c0,0.37,0.118,0.709,0.314,0.99l-0.738,2.468h-1.306c-0.161,0-0.289,0.128-0.289,0.287
		c0,0.161,0.129,0.289,0.289,0.289h1.134l-0.639,2.144c-0.639,2.142-0.657,4.015-0.045,4.196l1.89-6.34h2.242l1.891,6.34
		c0.612-0.182,0.593-2.055-0.045-4.196l-0.639-2.144h1.125c0.161,0,0.287-0.129,0.287-0.289s-0.128-0.287-0.287-0.287h-1.297
		l-0.739-2.476c0.192-0.279,0.307-0.617,0.307-0.982c0-0.753-0.481-1.393-1.153-1.63v-2.117c0-0.16-0.129-0.288-0.289-0.288
		C16.283,10.303,15.708,10.303,15.708,10.303z M15.708,10.591h0.576v2.117c0,0.121,0.076,0.229,0.19,0.27
		c0.014,0.005,0.022,0.022,0.035,0.027c-0.161-0.063-0.332-0.108-0.513-0.108c-0.181,0-0.353,0.045-0.513,0.108
		c0.014-0.005,0.02-0.022,0.035-0.027c0.113-0.041,0.189-0.149,0.189-0.27L15.708,10.591L15.708,10.591z M15.997,13.185
		c0.636,0,1.153,0.516,1.153,1.153c0,0.093-0.015,0.184-0.037,0.27c-0.012,0.055-0.023,0.111-0.044,0.162
		c-0.019,0.047-0.048,0.091-0.073,0.134c-0.001,0.004-0.007,0.005-0.01,0.01c-0.025,0.042-0.05,0.087-0.08,0.126
		c-0.031,0.041-0.062,0.08-0.099,0.117c-0.037,0.037-0.083,0.069-0.126,0.1c-0.085,0.062-0.179,0.115-0.279,0.153
		c-0.05,0.018-0.1,0.033-0.153,0.044c-0.08,0.018-0.165,0.037-0.252,0.037c-0.083,0-0.165-0.012-0.244-0.027
		c-0.072-0.015-0.141-0.035-0.207-0.063c-0.007-0.003-0.012-0.007-0.018-0.01c-0.052-0.023-0.105-0.05-0.153-0.08
		c-0.018-0.012-0.037-0.023-0.055-0.035c-0.012-0.01-0.023-0.018-0.035-0.027c-0.031-0.025-0.06-0.053-0.09-0.08
		c-0.037-0.037-0.075-0.084-0.106-0.126c-0.015-0.019-0.031-0.035-0.045-0.055c-0.008-0.012-0.012-0.025-0.018-0.035
		c-0.01-0.014-0.02-0.023-0.027-0.035c-0.029-0.049-0.052-0.102-0.073-0.153c-0.019-0.05-0.033-0.1-0.045-0.153
		c-0.02-0.086-0.035-0.177-0.035-0.27C14.844,13.701,15.36,13.185,15.997,13.185z M17.195,15.121
		c-0.007,0.01-0.003,0.026-0.01,0.035c-0.005,0.006-0.012,0.012-0.018,0.018C17.18,15.158,17.185,15.137,17.195,15.121z
		 M14.835,15.184c0.007,0.008,0.03,0.03,0.027,0.027c0.035,0.046,0.079,0.107,0.136,0.161c0.029,0.029,0.06,0.062,0.108,0.1
		c0.015,0.014,0.03,0.026,0.045,0.037c0.025,0.018,0.052,0.033,0.072,0.045c0.063,0.04,0.126,0.071,0.189,0.099
		c-0.022-0.01-0.01-0.007,0.027,0.01c0,0.003,0,0.005,0,0.008c0.062,0.026,0.119,0.04,0.179,0.055
		c-0.138-0.015-0.267,0.073-0.306,0.207l-0.531,1.783c-0.048,0.152,0.037,0.313,0.189,0.361c0.012,0.004,0.025,0.007,0.035,0.008
		H14.88c-0.129-0.001-0.243,0.083-0.279,0.208l-1.702,5.689c-0.035-0.179-0.075-0.359-0.073-0.63
		c0.008-0.72,0.174-1.707,0.486-2.756l0.641-2.144c0.046-0.152-0.039-0.313-0.19-0.361c-0.012-0.003-0.023-0.006-0.035-0.01h0.118
		c0.129,0.001,0.243-0.083,0.278-0.207l0.739-2.468C14.884,15.333,14.874,15.253,14.835,15.184z M17.15,15.203
		c-0.026,0.063-0.03,0.134-0.01,0.198l0.739,2.476c0.035,0.124,0.149,0.208,0.279,0.207h0.117c-0.156,0.028-0.262,0.178-0.233,0.334
		c0.001,0.012,0.004,0.025,0.008,0.035l0.639,2.144c0.313,1.05,0.48,2.037,0.486,2.756c0.003,0.27-0.037,0.451-0.073,0.63
		l-1.702-5.691c-0.035-0.125-0.151-0.209-0.279-0.208h-0.117c0.156-0.027,0.262-0.177,0.233-0.334
		c-0.001-0.012-0.004-0.024-0.008-0.035l-0.531-1.783c-0.044-0.151-0.2-0.239-0.352-0.198c-0.012,0.003-0.023-0.003-0.035,0
		c0.064-0.014,0.126-0.03,0.189-0.053c0.129-0.048,0.248-0.113,0.352-0.189c0.035-0.027,0.089-0.064,0.153-0.127
		c0.056-0.055,0.095-0.103,0.126-0.145C17.137,15.213,17.144,15.209,17.15,15.203z M15.591,16.012
		c0.13,0.031,0.266,0.055,0.405,0.055c0.145,0,0.287-0.02,0.424-0.055l0.531,1.784h-1.89L15.591,16.012z"/>
	<path opacity="0.3" fill="#FFFFFF" enable-background="new    " d="M15.997,13.185c-0.636,0-1.153,0.516-1.153,1.153
		c0,0.056,0.008,0.108,0.018,0.162c0.063-0.577,0.54-1.027,1.134-1.027c0.594,0,1.07,0.45,1.134,1.027
		c0.008-0.053,0.018-0.106,0.018-0.162C17.15,13.701,16.633,13.185,15.997,13.185z M14.277,14.482
		c-0.004,0.047-0.01,0.096-0.01,0.144c0,0.33,0.1,0.63,0.262,0.892l0.053-0.19C14.412,15.084,14.303,14.795,14.277,14.482z
		 M17.716,14.482c-0.025,0.309-0.13,0.596-0.297,0.838l0.055,0.189c0.155-0.259,0.252-0.559,0.252-0.883
		C17.726,14.578,17.72,14.529,17.716,14.482z M15.591,16.012l-0.531,1.784h0.09l0.441-1.495c0.13,0.031,0.266,0.053,0.405,0.053
		c0.145,0,0.287-0.02,0.424-0.053l0.441,1.495h0.09l-0.531-1.784c-0.136,0.035-0.278,0.055-0.424,0.055
		C15.858,16.067,15.721,16.044,15.591,16.012z M12.295,18.228c-0.026,0.044-0.045,0.089-0.045,0.145
		c0,0.161,0.129,0.288,0.289,0.288h1.044l0.09-0.288h-1.134C12.434,18.372,12.346,18.312,12.295,18.228z M19.698,18.228
		c-0.05,0.084-0.138,0.145-0.244,0.145H18.33l0.089,0.287h1.037c0.161,0,0.287-0.128,0.287-0.288
		C19.742,18.318,19.724,18.271,19.698,18.228z M14.88,18.372l-1.89,6.34c-0.28-0.084-0.424-0.522-0.443-1.181
		c-0.022,0.814,0.122,1.373,0.443,1.469l1.89-6.34h2.242L19.013,25c0.319-0.095,0.462-0.654,0.441-1.469
		c-0.016,0.657-0.161,1.095-0.441,1.181l-1.891-6.34H14.88z"/>
</g>
</svg>
