<?xml version="1.0" encoding="utf-8"?>
<!-- Generator: Adobe Illustrator 17.0.0, SVG Export Plug-In . SVG Version: 6.00 Build 0)  -->
<!DOCTYPE svg PUBLIC "-//W3C//DTD SVG 1.1//EN" "http://www.w3.org/Graphics/SVG/1.1/DTD/svg11.dtd">
<svg version="1.1" id="图层_1" xmlns="http://www.w3.org/2000/svg" xmlns:xlink="http://www.w3.org/1999/xlink" x="0px" y="0px"
	 width="32px" height="32px" viewBox="0 0 32 32" enable-background="new 0 0 32 32" xml:space="preserve">
<g>
	<g id="g151" opacity="0.5">
		<path id="path153" opacity="0.08" enable-background="new    " d="M27.059,29.57H4.96c-2.035,0-3.693-1.595-3.693-3.549v2.714
			c0,1.527,1.297,2.764,2.886,2.764h23.711c1.589,0,2.868-1.238,2.868-2.764v-2.714C30.733,27.977,29.093,29.57,27.059,29.57z"/>
		<path id="path155" opacity="0.1" enable-background="new    " d="M27.04,29.57H4.941c-2.034,0-3.674-1.566-3.674-3.519v1.42
			c0,1.527,0.7,3.387,3.538,3.387s19.496,0,22.371,0s3.557-1.86,3.557-3.387v-1.42C30.733,28.006,29.074,29.57,27.04,29.57z"/>
		<path id="path157" opacity="0.1" enable-background="new    " d="M27.04,29.57H4.941c-2.034,0-3.674-1.566-3.674-3.519v0.766
			c0,1.527,1.215,3.397,3.538,3.397s19.711,0,22.371,0c2.66,0,3.557-1.87,3.557-3.396v-0.766
			C30.733,28.006,29.074,29.57,27.04,29.57z"/>
		<rect id="rect159" x="4.615" y="29.57" opacity="0.05" enable-background="new    " width="22.769" height="0.643"/>
		<rect id="rect161" x="5.285" y="29.57" opacity="0.05" enable-background="new    " width="20.76" height="0.643"/>
		<rect id="rect163" x="5.285" y="30.214" opacity="0.05" enable-background="new    " width="20.76" height="0.643"/>
		<rect id="rect165" x="6.624" y="30.214" opacity="0.05" enable-background="new    " width="18.751" height="0.643"/>
		<rect id="rect167" x="8.633" y="30.214" opacity="0.05" enable-background="new    " width="14.733" height="0.643"/>
		<rect id="rect169" x="11.312" y="30.214" opacity="0.05" enable-background="new    " width="9.376" height="0.643"/>
		<rect id="rect171" x="6.624" y="29.57" opacity="0.05" enable-background="new    " width="18.751" height="0.643"/>
		<rect id="rect173" x="7.964" y="29.57" opacity="0.05" enable-background="new    " width="16.072" height="0.643"/>
		<rect id="rect175" x="8.633" y="29.57" opacity="0.05" enable-background="new    " width="14.733" height="0.643"/>
		<rect id="rect177" x="9.973" y="29.57" opacity="0.05" enable-background="new    " width="12.054" height="0.643"/>
		<rect id="rect179" x="9.973" y="29.57" opacity="0.05" enable-background="new    " width="12.054" height="0.643"/>
	</g>
	<path fill="#C4DCED" stroke="#9DBCD7" stroke-miterlimit="10" d="M30.466,25.625c0,2.104-1.706,3.809-3.809,3.809H5.342
		c-2.104,0-3.809-1.706-3.809-3.809V4.309c0-2.104,1.706-3.809,3.809-3.809h21.316c2.104,0,3.809,1.706,3.809,3.809L30.466,25.625
		L30.466,25.625z"/>
	<path opacity="0.6" fill="none" stroke="#FFFFFF" stroke-miterlimit="10" enable-background="new    " d="M5.342,28.434
		c-1.549,0-2.809-1.261-2.809-2.81V4.309c0-1.549,1.26-2.809,2.809-2.809h21.316c1.549,0,2.809,1.26,2.809,2.809v21.315
		c0,1.549-1.261,2.81-2.81,2.81C26.657,28.435,5.342,28.435,5.342,28.434z"/>
	<path opacity="0.05" fill="none" stroke="#000000" stroke-miterlimit="10" enable-background="new    " d="M30.569,8.482
		c0,0,0-1.28-1.264-1.28c-3.669,0-15.386,0.002-16.434,0.002c-1.275,0-1.264-1.262-1.264-1.262s0-1.27-1.264-1.27
		c-2.213,0-6.645,0-7.585,0c-1.245,0-1.264,1.224-1.264,1.263"/>
	
		<linearGradient id="SVGID_1_" gradientUnits="userSpaceOnUse" x1="1385.9995" y1="-1686.4335" x2="1385.9995" y2="-1662.5765" gradientTransform="matrix(1 0 0 -1 -1370 -1657)">
		<stop  offset="0" style="stop-color:#D1E0ED"/>
		<stop  offset="1" style="stop-color:#E4EEFB"/>
	</linearGradient>
	<path fill="url(#SVGID_1_)" stroke="#9DBCD7" stroke-miterlimit="10" d="M5.334,29.433h21.395c2.104,0,3.738-1.749,3.738-3.853V8.5
		c0-0.3-0.448-0.582-1.045-0.582c-3.685,0-15.435,0.002-16.488,0.002c-1.28,0-1.261-1.168-1.261-1.168s0.009-1.176-1.261-1.176
		c-2.222,0-6.674,0-7.618,0c-1.25,0-1.262,1.036-1.262,1.075v18.93C1.533,27.684,3.23,29.433,5.334,29.433z"/>
	<path opacity="0.8" fill="none" stroke="#FFFFFF" stroke-miterlimit="10" enable-background="new    " d="M5.333,28.434
		c-1.544,0-2.8-1.279-2.801-2.853V6.651c0.031-0.045,0.105-0.075,0.261-0.075h7.618c0.144,0,0.202,0.029,0.21,0.037
		c0.028,0.029,0.051,0.131,0.051,0.132c-0.002,0.142,0.016,0.928,0.618,1.541c0.285,0.29,0.8,0.634,1.642,0.634
		c0,0,16.519-0.001,16.533-0.001v16.662c0,1.573-1.229,2.853-2.738,2.853C26.727,28.435,5.333,28.435,5.333,28.434z"/>
	<g id="g27_1_">
		
			<linearGradient id="path36_2_" gradientUnits="userSpaceOnUse" x1="1784.7555" y1="-2475.4534" x2="1788.7751" y2="-2482.4158" gradientTransform="matrix(1 0 0 -1 -1782 -2475)">
			<stop  offset="0" style="stop-color:#FFFFFF"/>
			<stop  offset="0.5" style="stop-color:#FFFFFF;stop-opacity:0.6"/>
			<stop  offset="1" style="stop-color:#FFFFFF;stop-opacity:0.15"/>
		</linearGradient>
		<path id="path36_1_" fill="url(#path36_2_)" d="M6.07,8.598c0.449-0.93,0.998-1.802,1.627-2.607L6.552,3.48
			C5.574,4.404,4.781,5.424,4.147,6.412L6.07,8.598z"/>
		
			<linearGradient id="path45_2_" gradientUnits="userSpaceOnUse" x1="1788.3998" y1="-2474.4114" x2="1791.0304" y2="-2478.9678" gradientTransform="matrix(1 0 0 -1 -1782 -2475)">
			<stop  offset="0" style="stop-color:#FFFFFF"/>
			<stop  offset="0.5" style="stop-color:#FFFFFF;stop-opacity:0.6"/>
			<stop  offset="1" style="stop-color:#FFFFFF;stop-opacity:0.15"/>
		</linearGradient>
		<path id="path45_1_" fill="url(#path45_2_)" d="M6.189,1.067l0.598,1.311C7.363,1.9,7.994,1.736,8.682,1.067H6.189z"/>
		
			<linearGradient id="path54_2_" gradientUnits="userSpaceOnUse" x1="1789.2275" y1="-2473.5459" x2="1792.4418" y2="-2479.113" gradientTransform="matrix(1 0 0 -1 -1782 -2475)">
			<stop  offset="0" style="stop-color:#FFFFFF"/>
			<stop  offset="0.5" style="stop-color:#FFFFFF;stop-opacity:0.6"/>
			<stop  offset="1" style="stop-color:#FFFFFF;stop-opacity:0.15"/>
		</linearGradient>
		<path id="path54_1_" fill="url(#path54_2_)" d="M10.68,1.067h-0.473C9.013,1.736,7.969,2.247,7.074,3.009l1.097,2.408
			c0.937-1.083,2.025-2.032,3.243-2.798c0.009-0.008,0.016-0.016,0.026-0.024C12.804,1.416,11.449,1.067,10.68,1.067z"/>
		
			<linearGradient id="path63_2_" gradientUnits="userSpaceOnUse" x1="1782.4993" y1="-2478.6277" x2="1785.9874" y2="-2484.6692" gradientTransform="matrix(1 0 0 -1 -1782 -2475)">
			<stop  offset="0" style="stop-color:#FFFFFF"/>
			<stop  offset="0.5" style="stop-color:#FFFFFF;stop-opacity:0.6"/>
			<stop  offset="1" style="stop-color:#FFFFFF;stop-opacity:0.15"/>
		</linearGradient>
		<path id="path63_1_" fill="url(#path63_2_)" d="M3.782,7.01c-0.734,1.25-1.214,2.405-1.499,3.195
			c0.337,0.481,0.894,0.797,1.526,0.797c0.783,0,1.451-0.483,1.727-1.167c0.071-0.191,0.157-0.374,0.236-0.562L3.782,7.01z"/>
		
			<linearGradient id="path72_2_" gradientUnits="userSpaceOnUse" x1="1782.3423" y1="-2478.8752" x2="1786.208" y2="-2485.5708" gradientTransform="matrix(1 0 0 -1 -1782 -2475)">
			<stop  offset="0" style="stop-color:#FFFFFF"/>
			<stop  offset="0.5" style="stop-color:#FFFFFF;stop-opacity:0.6"/>
			<stop  offset="1" style="stop-color:#FFFFFF;stop-opacity:0.15"/>
		</linearGradient>
		<path id="path72_1_" fill="url(#path72_2_)" d="M1.959,4.937L1.945,9.135c0,0,0,0.001,0,0.003c0,0.026,0.006,0.051,0.008,0.077
			C2.272,8.438,2.718,7.49,3.322,6.486L1.959,4.937z"/>
		
			<linearGradient id="path149_2_" gradientUnits="userSpaceOnUse" x1="1785.2657" y1="-2476.7783" x2="1788.8955" y2="-2483.0654" gradientTransform="matrix(1 0 0 -1 -1782 -2475)">
			<stop  offset="0" style="stop-color:#FFFFFF"/>
			<stop  offset="0.5" style="stop-color:#FFFFFF;stop-opacity:0.6"/>
			<stop  offset="1" style="stop-color:#FFFFFF;stop-opacity:0.15"/>
		</linearGradient>
		<path id="path149_1_" fill="url(#path149_2_)" d="M5.391,1.076c-1.364-0.113-3.16,1.423-3.39,2.896l1.692,1.924
			c0.675-1.031,1.515-2.087,2.552-3.04L5.391,1.076z"/>
	</g>
	
		<radialGradient id="SVGID_2_" cx="1862.412" cy="1354.463" r="22.6588" gradientTransform="matrix(0.0197 0.9998 0.9109 -0.018 -1255.4794 -1826.5901)" gradientUnits="userSpaceOnUse">
		<stop  offset="0" style="stop-color:#FFFFFF;stop-opacity:0.6"/>
		<stop  offset="0.3783" style="stop-color:#FAFCFE;stop-opacity:0.4487"/>
		<stop  offset="0.829" style="stop-color:#EBF3FC;stop-opacity:0.2684"/>
		<stop  offset="1" style="stop-color:#E4EEFB;stop-opacity:0.2"/>
	</radialGradient>
	<path fill="url(#SVGID_2_)" d="M5.582,28.655c-1.774,0-3.216-1.465-3.216-3.267V6.9c0-0.023,0.004-0.221,0.151-0.369
		c0.123-0.123,0.32-0.186,0.585-0.186h7.441c0.294,0,0.443,0.035,0.532,0.125c0.198,0.199,0.206,0.501,0.206,0.505
		c-0.001,0.065,0.003,0.712,0.482,1.198c0.305,0.31,0.724,0.467,1.244,0.467c0,0,13.755-0.005,16.1-0.005
		c0.31,0,0.481,0.106,0.525,0.158v16.596c0,1.802-1.415,3.267-3.155,3.267L5.582,28.655L5.582,28.655L5.582,28.655z"/>
</g>
<g>
	<path opacity="0.3" fill="#669CCC" enable-background="new    " d="M16.007,11.442c-3.17,0-6.338,1.213-8.757,3.632l1.455,1.457
		c4.032-4.032,10.57-4.032,14.602,0l1.457-1.457C22.345,12.654,19.177,11.442,16.007,11.442z M16.007,15.571
		c-2.113,0-4.232,0.802-5.843,2.415l1.465,1.465c2.419-2.419,6.339-2.419,8.757,0l1.465-1.465
		C20.239,16.374,18.121,15.571,16.007,15.571z M16.007,19.702c-1.057,0-2.114,0.401-2.921,1.207l2.921,2.921l2.922-2.921
		C18.122,20.102,17.063,19.702,16.007,19.702z"/>
	<path opacity="0.3" fill="#669CCC" enable-background="new    " d="M16.007,11.442c-3.17,0-6.338,1.213-8.757,3.632l1.455,1.457
		c4.032-4.032,10.57-4.032,14.602,0l1.457-1.457C22.345,12.654,19.177,11.442,16.007,11.442z M16.007,12.013
		c2.842,0,5.662,1.058,7.909,3.097l-0.645,0.645c-4.131-3.714-10.397-3.714-14.528,0l-0.646-0.645
		C10.345,13.071,13.164,12.013,16.007,12.013z M16.007,15.571c-2.113,0-4.232,0.802-5.843,2.415l1.465,1.465
		c2.419-2.419,6.339-2.419,8.757,0l1.465-1.465C20.239,16.374,18.121,15.571,16.007,15.571z M16.007,16.144
		c1.788,0,3.56,0.643,4.997,1.88l-0.654,0.654c-2.51-2.113-6.176-2.113-8.684,0l-0.654-0.654
		C12.449,16.787,14.22,16.144,16.007,16.144z M16.007,19.702c-1.057,0-2.114,0.401-2.921,1.207l2.921,2.921l2.922-2.921
		C18.122,20.102,17.063,19.702,16.007,19.702z M16.007,20.273c0.724,0,1.415,0.282,2.03,0.719l-2.03,2.028l-2.027-2.028
		C14.593,20.556,15.283,20.273,16.007,20.273z"/>
	<path opacity="0.3" fill="#669CCC" enable-background="new    " d="M16.007,11.442c-3.17,0-6.338,1.213-8.757,3.632l1.455,1.457
		c4.032-4.032,10.57-4.032,14.602,0l1.457-1.457C22.345,12.654,19.177,11.442,16.007,11.442z M16.007,11.746
		c3,0,5.985,1.128,8.316,3.346l-1.032,1.032c-4.089-3.863-10.477-3.863-14.564,0l-1.034-1.032
		C10.024,12.875,13.008,11.746,16.007,11.746z M16.007,15.571c-2.113,0-4.232,0.802-5.843,2.415l1.465,1.465
		c2.419-2.419,6.339-2.419,8.757,0l1.465-1.465C20.239,16.374,18.121,15.571,16.007,15.571z M16.007,15.876
		c1.943,0,3.879,0.717,5.402,2.129l-1.042,1.042c-2.473-2.253-6.249-2.253-8.72,0l-1.042-1.042
		C12.128,16.593,14.064,15.876,16.007,15.876z M16.007,19.702c-1.057,0-2.114,0.401-2.921,1.207l2.921,2.921l2.922-2.921
		C18.122,20.102,17.063,19.702,16.007,19.702z M16.007,20.006c0.886,0,1.768,0.314,2.481,0.922l-2.481,2.479l-2.479-2.479
		C14.241,20.319,15.121,20.006,16.007,20.006z"/>
	<path opacity="0.3" fill="#669CCC" enable-background="new    " d="M16.007,11.442c-3.17,0-6.338,1.213-8.757,3.632l0.147,0.148
		c2.4-2.321,5.504-3.484,8.609-3.484c3.107,0,6.211,1.163,8.612,3.484l0.147-0.148C22.345,12.654,19.177,11.442,16.007,11.442z
		 M16.007,15.571c-2.113,0-4.232,0.802-5.843,2.415l0.147,0.147c1.594-1.514,3.648-2.267,5.696-2.267
		c2.049,0,4.105,0.753,5.698,2.267l0.147-0.147C20.239,16.374,18.121,15.571,16.007,15.571z M16.007,19.702
		c-1.057,0-2.114,0.401-2.921,1.207l0.157,0.156c0.784-0.709,1.774-1.069,2.765-1.069c0.993,0,1.983,0.36,2.766,1.069l0.156-0.156
		C18.122,20.102,17.063,19.702,16.007,19.702z"/>
	<path opacity="0.3" fill="#FFFFFF" enable-background="new    " d="M16.007,10.851c-3.32,0-6.641,1.276-9.171,3.807
		c-0.001,0-0.018,0.018-0.018,0.018c-0.001,0-0.018,0.028-0.018,0.028c-0.001,0.001-0.02,0.018-0.02,0.018
		c0,0.001-0.018,0.028-0.018,0.028c0,0.001-0.018,0.018-0.018,0.018c0,0.001-0.009,0.028-0.009,0.029
		c-0.001,0-0.02,0.028-0.02,0.028l-0.009,0.028c0,0.001-0.01,0.028-0.01,0.028s-0.01,0.017-0.01,0.018s-0.009,0.028-0.009,0.028
		c0,0.001-0.009,0.037-0.009,0.037c0,0.001,0,0.028,0,0.028c0,0.001-0.01,0.028-0.01,0.028v0.028c0,0.001,0,0.028,0,0.028V15.1
		c0,0.001,0,0.028,0,0.028c0,0.001,0.01,0.028,0.01,0.028v0.028c0,0.001,0.009,0.037,0.009,0.038l0.009,0.028
		c0,0.001,0.01,0.018,0.01,0.018c0,0.001,0.01,0.028,0.01,0.029l0.009,0.028c0,0.001,0.018,0.028,0.02,0.028
		c0,0.001,0.009,0.028,0.009,0.028l0.018,0.018c0,0.001,0.018,0.028,0.018,0.028s0.018,0.018,0.02,0.018
		c0,0,0.017,0.028,0.018,0.028c0,0.001,0.017,0.018,0.018,0.018l1.455,1.457c0.001,0,0.018,0.017,0.018,0.018
		c0.001,0,0.028,0.017,0.028,0.018c0,0.001,0.018,0.018,0.018,0.018c0.001,0,0.026,0.018,0.028,0.018
		c0,0.001,0.018,0.018,0.018,0.018s0.026,0.009,0.028,0.009c0,0,0.026,0.018,0.028,0.018l0.026,0.01
		c0.001,0,0.026,0.009,0.028,0.009s0.018,0.01,0.02,0.01L8.554,17.1c0.001,0,0.037,0.009,0.038,0.009h0.026
		c0.001,0,0.026,0.01,0.028,0.01c0,0,0.026,0,0.028,0H8.7c0.001,0,0.028,0,0.028,0s0.026,0,0.028,0c0,0,0.026-0.01,0.028-0.01h0.026
		c0.001,0,0.037-0.009,0.038-0.009l0.026-0.009c0.001,0,0.018-0.01,0.018-0.01c0.001,0,0.028-0.009,0.028-0.009l0.028-0.01
		c0,0,0.026-0.018,0.028-0.018L9,17.035c0.001-0.001,0.018-0.018,0.018-0.018c0.001,0,0.028-0.018,0.028-0.018
		s0.018-0.017,0.018-0.018c0.001-0.001,0.028-0.018,0.028-0.018c0-0.001,0.018-0.018,0.018-0.018c3.807-3.807,9.966-3.807,13.774,0
		c0,0,0.017,0.017,0.017,0.018c0.001,0,0.028,0.017,0.028,0.018c0.001,0.001,0.018,0.018,0.02,0.018l0.028,0.018
		c0.001,0.001,0.018,0.018,0.018,0.018c0.001,0.001,0.026,0.009,0.028,0.009l0.028,0.018c0,0,0.026,0.01,0.028,0.01l0.026,0.009
		c0.001,0,0.018,0.01,0.018,0.01c0.001,0,0.028,0.009,0.028,0.009l0.037,0.009c0.001,0,0.028,0,0.028,0l0.028,0.01
		c0,0,0.026,0,0.028,0h0.026c0.001,0,0.028,0,0.028,0c0.001,0,0.026,0,0.028,0l0.026-0.01c0.001,0,0.028,0,0.028,0
		c0.001,0,0.037-0.009,0.037-0.009c0.001,0,0.028-0.009,0.028-0.009c0.001,0,0.018-0.01,0.018-0.01c0.001,0,0.028-0.009,0.028-0.009
		c0.001,0,0.026-0.01,0.028-0.01l0.026-0.018c0.001,0,0.028-0.009,0.028-0.009c0.001-0.001,0.018-0.018,0.02-0.02l0.026-0.018
		c0.001,0,0.018-0.017,0.02-0.018c0-0.001,0.026-0.018,0.026-0.018c0.001-0.001,0.018-0.018,0.018-0.018l1.455-1.457
		c0.001,0,0.018-0.018,0.02-0.018s0.017-0.028,0.018-0.028c0-0.001,0.018-0.018,0.018-0.018c0.001-0.001,0.018-0.028,0.018-0.028
		c0.001,0,0.02-0.018,0.02-0.018c0-0.001,0.009-0.028,0.009-0.029l0.018-0.028c0.001,0,0.01-0.028,0.01-0.028
		c0-0.001,0.009-0.028,0.009-0.028l0.01-0.018c0-0.001,0.01-0.028,0.01-0.028c0-0.001,0.009-0.035,0.009-0.038v-0.028
		c0-0.001,0.01-0.028,0.01-0.028v-0.028v-0.028c0-0.001,0-0.028,0-0.028v-0.028l-0.01-0.028v-0.028c0,0-0.009-0.035-0.009-0.037
		l-0.01-0.028l-0.01-0.018c0-0.001-0.009-0.028-0.009-0.029c0,0-0.009-0.028-0.01-0.028c0-0.001-0.018-0.028-0.018-0.028
		l-0.009-0.028c0,0-0.018-0.017-0.02-0.018c0-0.001-0.017-0.028-0.018-0.028l-0.018-0.018c-0.001,0-0.017-0.028-0.018-0.028
		c-0.001-0.001-0.018-0.018-0.02-0.018C22.647,12.128,19.327,10.851,16.007,10.851L16.007,10.851z M16.007,11.442
		c3.172,0,6.339,1.213,8.759,3.632l-1.457,1.457c-4.031-4.032-10.569-4.032-14.602,0l-1.455-1.457
		C9.668,12.654,12.837,11.442,16.007,11.442z M16.007,14.982c-2.261,0-4.532,0.863-6.26,2.59L9.73,17.591
		c-0.001,0.001-0.018,0.028-0.02,0.028c0,0.001-0.017,0.017-0.018,0.018l-0.018,0.026c0,0.001-0.018,0.018-0.018,0.019
		c0,0.001-0.01,0.026-0.01,0.028l-0.018,0.028c0,0.001-0.009,0.027-0.01,0.028c0,0-0.009,0.026-0.009,0.028
		c0,0.001-0.01,0.017-0.01,0.018c0,0.001-0.009,0.028-0.009,0.028c0,0-0.01,0.035-0.01,0.037s0,0.028,0,0.028l-0.009,0.028
		c0,0.001,0,0.026,0,0.028c0,0.001,0,0.026,0,0.028c0,0.001,0,0.028,0,0.028c0,0.001,0,0.028,0,0.029l0.009,0.026
		c0,0.001,0,0.028,0,0.028c0,0.001,0.01,0.037,0.01,0.037c0,0.001,0.009,0.028,0.009,0.028s0.01,0.018,0.01,0.018
		c0,0.001,0.009,0.028,0.009,0.028c0.001,0.001,0.01,0.026,0.01,0.028l0.018,0.026c0,0.001,0.01,0.028,0.01,0.028
		c0,0.001,0.018,0.018,0.018,0.018l0.018,0.028c0,0.001,0.018,0.018,0.018,0.018c0.001,0.001,0.018,0.028,0.02,0.028
		c0,0.001,0.017,0.018,0.017,0.018l1.465,1.465c0.001,0.001,0.018,0.018,0.02,0.018c0,0.001,0.026,0.018,0.026,0.019
		c0.001,0,0.018,0.017,0.018,0.018c0.001,0.001,0.028,0.018,0.028,0.018c0.001,0.001,0.018,0.018,0.02,0.018l0.026,0.009
		c0.001,0,0.026,0.018,0.028,0.018c0,0.001,0.026,0.009,0.028,0.009c0,0.001,0.026,0.009,0.026,0.009c0.001,0,0.018,0.01,0.02,0.01
		l0.026,0.009c0.001,0,0.037,0.009,0.038,0.009h0.026c0.001,0,0.026,0.009,0.028,0.009s0.026,0,0.028,0c0,0,0.026,0,0.028,0
		c0,0,0.026,0,0.028,0h0.026c0.001,0,0.026-0.009,0.028-0.009c0,0,0.026,0,0.028,0c0,0,0.035-0.009,0.037-0.009
		c0,0,0.026-0.009,0.028-0.009c0,0,0.017-0.01,0.018-0.01c0,0,0.026-0.009,0.028-0.009l0.026-0.009c0.001,0,0.026-0.018,0.028-0.018
		c0,0,0.026-0.009,0.028-0.009c0-0.001,0.018-0.018,0.018-0.018s0.026-0.017,0.028-0.018c0-0.001,0.017-0.018,0.018-0.018
		c0-0.001,0.026-0.018,0.026-0.019c0.001,0,0.018-0.017,0.02-0.018c2.195-2.195,5.733-2.195,7.927,0
		c0,0.001,0.018,0.018,0.018,0.018c0.001,0.001,0.026,0.018,0.028,0.019c0,0,0.017,0.017,0.018,0.018
		c0,0.001,0.028,0.018,0.028,0.018c0,0.001,0.018,0.018,0.018,0.018s0.026,0.009,0.028,0.009l0.026,0.018
		c0.001,0.001,0.028,0.009,0.028,0.009c0,0.001,0.028,0.009,0.028,0.009l0.018,0.01c0,0,0.026,0.009,0.028,0.009l0.037,0.009
		c0.001,0,0.026,0,0.028,0l0.026,0.009c0.001,0,0.028,0,0.028,0c0.001,0,0.028,0,0.028,0s0.026,0,0.028,0h0.026
		c0.001,0,0.028-0.009,0.028-0.009c0.001,0,0.026,0,0.028,0l0.037-0.009c0.001,0,0.026-0.009,0.028-0.009l0.018-0.01
		c0,0,0.026-0.009,0.028-0.009c0.001,0,0.026-0.009,0.028-0.009l0.026-0.018c0.001,0,0.026-0.009,0.028-0.009
		c0.001-0.001,0.018-0.018,0.018-0.018c0.001,0,0.026-0.017,0.028-0.018c0.001-0.001,0.017-0.018,0.018-0.018
		c0.001-0.001,0.026-0.018,0.028-0.019c0,0,0.018-0.017,0.018-0.018l1.465-1.465c0.001,0,0.017-0.017,0.018-0.018
		c0.001-0.001,0.018-0.028,0.018-0.028c0.001,0,0.018-0.017,0.018-0.018c0.001,0,0.02-0.028,0.02-0.028
		c0-0.001,0.018-0.018,0.018-0.018c0-0.001,0.009-0.026,0.009-0.028c0.001,0,0.018-0.026,0.018-0.026
		c0.001-0.001,0.01-0.028,0.01-0.028s0.01-0.028,0.01-0.028s0.009-0.017,0.009-0.018c0-0.001,0.01-0.027,0.01-0.028
		c0,0,0.01-0.035,0.01-0.037c0-0.001,0-0.026,0-0.028l0.009-0.026c0-0.001,0-0.028,0-0.029c0,0,0-0.027,0-0.028
		c0-0.001,0-0.026,0-0.028s0-0.028,0-0.028l-0.009-0.028c0-0.001,0-0.028,0-0.028c0-0.001-0.01-0.037-0.01-0.037
		c0-0.001-0.01-0.028-0.01-0.028s-0.009-0.017-0.009-0.018c0-0.001-0.01-0.028-0.01-0.028c0-0.001-0.009-0.028-0.01-0.028
		c0,0-0.017-0.028-0.018-0.028c0-0.001-0.009-0.028-0.009-0.028c0-0.001-0.018-0.017-0.018-0.019c0,0-0.018-0.026-0.02-0.026
		c0-0.001-0.017-0.018-0.018-0.018c0-0.001-0.017-0.028-0.018-0.028c-0.001,0-0.017-0.018-0.018-0.018
		C20.54,15.846,18.27,14.982,16.007,14.982L16.007,14.982z M16.007,15.571c2.115,0,4.232,0.802,5.845,2.415l-1.465,1.465
		c-2.419-2.419-6.339-2.419-8.757,0l-1.465-1.465C11.774,16.374,13.892,15.571,16.007,15.571z M16.007,19.111
		c-1.205,0-2.417,0.464-3.336,1.383c0,0-0.018,0.017-0.018,0.018c-0.001,0.001-0.018,0.028-0.018,0.028
		c-0.001,0.001-0.018,0.018-0.02,0.018c0,0.001-0.017,0.028-0.018,0.028c0,0.001-0.018,0.018-0.018,0.018
		c0,0.001-0.009,0.028-0.009,0.029c0,0-0.018,0.026-0.02,0.026c0,0.001-0.009,0.028-0.009,0.028c0,0.001-0.01,0.028-0.01,0.028
		l-0.009,0.018c0,0.001-0.01,0.026-0.01,0.028l-0.009,0.037c0,0.001,0,0.026,0,0.028c0,0-0.01,0.026-0.01,0.028
		c0,0.001,0,0.028,0,0.028c0,0.001,0,0.028,0,0.028c0,0,0,0.026,0,0.028s0,0.028,0,0.028l0.01,0.028c0,0.001,0,0.026,0,0.028
		c0,0.001,0.009,0.036,0.009,0.036c0,0.001,0.01,0.028,0.01,0.028c0,0.001,0.009,0.017,0.009,0.018l0.01,0.026
		c0,0.001,0.009,0.028,0.009,0.028c0.001,0.001,0.02,0.028,0.02,0.028c0,0,0.009,0.026,0.009,0.028c0,0.001,0.018,0.017,0.018,0.018
		c0.001,0,0.018,0.026,0.018,0.026c0.001,0.001,0.018,0.018,0.02,0.019c0,0.001,0.017,0.028,0.018,0.028
		c0,0.001,0.018,0.018,0.018,0.018l2.921,2.923c0.001,0.001,0.018,0.017,0.018,0.018c0.001,0.001,0.026,0.017,0.028,0.018
		c0,0.001,0.018,0.018,0.018,0.018c0.001,0.001,0.028,0.018,0.028,0.018c0.001,0.001,0.018,0.018,0.018,0.018
		c0.001,0,0.028,0.009,0.028,0.01c0,0,0.026,0.017,0.028,0.018c0,0,0.026,0.009,0.026,0.009c0.001,0.001,0.028,0.009,0.028,0.009
		c0.001,0,0.018,0.01,0.018,0.01c0.001,0,0.028,0.009,0.028,0.009l0.037,0.01c0.001,0,0.028,0,0.028,0s0.026,0.009,0.028,0.009
		c0,0,0.026,0,0.028,0h0.03c0.001,0,0.026,0,0.028,0c0,0,0.026,0,0.028,0l0.026-0.009c0.001,0,0.028,0,0.028,0l0.037-0.01
		c0.001,0,0.028-0.009,0.028-0.009l0.018-0.01c0.001,0,0.026-0.008,0.028-0.009c0.001-0.001,0.026-0.009,0.028-0.009
		c0-0.001,0.026-0.018,0.028-0.018c0-0.001,0.026-0.01,0.028-0.01c0,0,0.017-0.018,0.018-0.018c0,0,0.026-0.017,0.026-0.018
		c0.001,0,0.018-0.017,0.02-0.018c0-0.001,0.026-0.017,0.026-0.018c0.001-0.001,0.018-0.017,0.018-0.018l2.923-2.923
		c0,0,0.017-0.017,0.018-0.018c0,0,0.018-0.026,0.018-0.028s0.018-0.017,0.018-0.019l0.018-0.026c0-0.001,0.018-0.018,0.02-0.018
		c0-0.001,0.009-0.028,0.009-0.028c0-0.001,0.018-0.028,0.018-0.028c0-0.001,0.01-0.026,0.01-0.028l0.009-0.027
		c0-0.001,0.01-0.018,0.01-0.018c0-0.001,0.01-0.028,0.01-0.028c0,0,0.009-0.035,0.009-0.036c0-0.001,0-0.028,0-0.028l0.01-0.028
		c0-0.001,0-0.026,0-0.028c0-0.001,0-0.028,0-0.028c0-0.001,0-0.028,0-0.028c0,0,0-0.026,0-0.028s-0.01-0.028-0.01-0.028
		c0-0.001,0-0.028,0-0.028l-0.009-0.037c0-0.001-0.01-0.028-0.01-0.028l-0.01-0.017c0-0.001-0.009-0.028-0.009-0.028
		s-0.01-0.027-0.01-0.028l-0.018-0.026c0-0.001-0.009-0.028-0.009-0.029c-0.001,0-0.02-0.017-0.02-0.018
		c0,0-0.018-0.027-0.018-0.028c0,0-0.018-0.017-0.018-0.018c0,0-0.018-0.026-0.018-0.028c-0.001-0.001-0.018-0.018-0.018-0.018
		C18.424,19.575,17.213,19.111,16.007,19.111z M16.007,19.702c1.058,0,2.117,0.401,2.922,1.207l-2.922,2.921l-2.921-2.921
		C13.891,20.102,14.95,19.702,16.007,19.702z"/>
	<path opacity="0.3" fill="#FFFFFF" enable-background="new    " d="M16.007,11.129c-3.249,0-6.5,1.246-8.978,3.724
		c-0.122,0.122-0.122,0.321,0,0.443l1.455,1.457c0.124,0.122,0.321,0.122,0.443,0c3.912-3.912,10.248-3.912,14.16,0
		c0.12,0.122,0.319,0.122,0.441,0l1.455-1.457c0.124-0.122,0.124-0.32,0-0.443C22.507,12.374,19.257,11.129,16.007,11.129z
		 M16.007,11.442c3.172,0,6.339,1.213,8.759,3.632l-1.457,1.457c-4.031-4.032-10.569-4.032-14.602,0l-1.455-1.457
		C9.668,12.654,12.837,11.442,16.007,11.442z M16.007,15.258c-2.193,0-4.392,0.834-6.065,2.508c-0.122,0.121-0.122,0.32,0,0.442
		l1.465,1.465c0.122,0.122,0.319,0.122,0.443,0c2.299-2.299,6.015-2.299,8.315,0c0.122,0.122,0.321,0.122,0.443,0l1.465-1.465
		c0.122-0.122,0.122-0.32,0-0.442C20.4,16.092,18.199,15.258,16.007,15.258z M16.007,15.571c2.115,0,4.232,0.802,5.845,2.415
		l-1.465,1.465c-2.419-2.419-6.339-2.419-8.757,0l-1.465-1.465C11.774,16.374,13.892,15.571,16.007,15.571z M16.007,19.388
		c-1.137,0-2.277,0.434-3.143,1.3c-0.122,0.122-0.122,0.321,0,0.442l2.921,2.922c0.124,0.122,0.321,0.122,0.443,0l2.922-2.922
		c0.124-0.121,0.124-0.32,0-0.442C18.284,19.822,17.143,19.388,16.007,19.388z M16.007,19.702c1.058,0,2.117,0.401,2.922,1.207
		l-2.922,2.921l-2.921-2.921C13.891,20.102,14.95,19.702,16.007,19.702z"/>
	<path opacity="0.3" fill="#FFFFFF" enable-background="new    " d="M16.007,13.505c-2.642,0-5.284,1.008-7.301,3.024l-1.309-1.31
		c-0.05,0.048-0.099,0.099-0.147,0.148l1.455,1.457c4.032-4.032,10.57-4.032,14.602,0l1.457-1.457
		c-0.05-0.049-0.099-0.099-0.147-0.148l-1.31,1.31C21.293,14.514,18.65,13.505,16.007,13.505z M16.007,17.637
		c-1.583,0-3.168,0.606-4.378,1.815l-1.318-1.318c-0.05,0.048-0.099,0.099-0.147,0.148l1.465,1.465c2.419-2.419,6.339-2.419,8.757,0
		l1.465-1.465c-0.049-0.049-0.097-0.1-0.147-0.148l-1.318,1.318C19.176,18.243,17.591,17.637,16.007,17.637z M13.241,21.066
		c-0.051,0.046-0.108,0.089-0.157,0.138l2.921,2.921l2.922-2.921c-0.049-0.049-0.105-0.092-0.156-0.138l-2.766,2.766
		C16.006,23.83,13.241,21.066,13.241,21.066z"/>
</g>
</svg>
