<?xml version="1.0" encoding="utf-8"?>
<!-- Generator: Adobe Illustrator 17.0.0, SVG Export Plug-In . SVG Version: 6.00 Build 0)  -->
<!DOCTYPE svg PUBLIC "-//W3C//DTD SVG 1.1//EN" "http://www.w3.org/Graphics/SVG/1.1/DTD/svg11.dtd">
<svg version="1.1" id="图层_1" xmlns="http://www.w3.org/2000/svg" xmlns:xlink="http://www.w3.org/1999/xlink" x="0px" y="0px"
	 width="32px" height="32px" viewBox="0 0 32 32" enable-background="new 0 0 32 32" xml:space="preserve">
<g>
	<g id="g151" opacity="0.5">
		<path id="path153" opacity="0.08" enable-background="new    " d="M27.059,29.57H4.96c-2.035,0-3.693-1.595-3.693-3.549v2.714
			c0,1.527,1.297,2.764,2.886,2.764h23.711c1.589,0,2.868-1.238,2.868-2.764v-2.714C30.733,27.977,29.093,29.57,27.059,29.57z"/>
		<path id="path155" opacity="0.1" enable-background="new    " d="M27.04,29.57H4.941c-2.034,0-3.674-1.566-3.674-3.519v1.42
			c0,1.527,0.7,3.387,3.538,3.387s19.496,0,22.371,0s3.557-1.86,3.557-3.387v-1.42C30.733,28.006,29.074,29.57,27.04,29.57z"/>
		<path id="path157" opacity="0.1" enable-background="new    " d="M27.04,29.57H4.941c-2.034,0-3.674-1.566-3.674-3.519v0.766
			c0,1.527,1.215,3.397,3.538,3.397s19.711,0,22.371,0c2.66,0,3.557-1.87,3.557-3.396v-0.766
			C30.733,28.006,29.074,29.57,27.04,29.57z"/>
		<rect id="rect159" x="4.615" y="29.57" opacity="0.05" enable-background="new    " width="22.769" height="0.643"/>
		<rect id="rect161" x="5.285" y="29.57" opacity="0.05" enable-background="new    " width="20.76" height="0.643"/>
		<rect id="rect163" x="5.285" y="30.214" opacity="0.05" enable-background="new    " width="20.76" height="0.643"/>
		<rect id="rect165" x="6.624" y="30.214" opacity="0.05" enable-background="new    " width="18.751" height="0.643"/>
		<rect id="rect167" x="8.633" y="30.214" opacity="0.05" enable-background="new    " width="14.733" height="0.643"/>
		<rect id="rect169" x="11.312" y="30.214" opacity="0.05" enable-background="new    " width="9.376" height="0.643"/>
		<rect id="rect171" x="6.624" y="29.57" opacity="0.05" enable-background="new    " width="18.751" height="0.643"/>
		<rect id="rect173" x="7.964" y="29.57" opacity="0.05" enable-background="new    " width="16.072" height="0.643"/>
		<rect id="rect175" x="8.633" y="29.57" opacity="0.05" enable-background="new    " width="14.733" height="0.643"/>
		<rect id="rect177" x="9.973" y="29.57" opacity="0.05" enable-background="new    " width="12.054" height="0.643"/>
		<rect id="rect179" x="9.973" y="29.57" opacity="0.05" enable-background="new    " width="12.054" height="0.643"/>
	</g>
	<path fill="#C4DCED" stroke="#9DBCD7" stroke-miterlimit="10" d="M30.466,25.625c0,2.104-1.706,3.809-3.809,3.809H5.342
		c-2.104,0-3.809-1.706-3.809-3.809V4.309c0-2.104,1.706-3.809,3.809-3.809h21.316c2.104,0,3.809,1.706,3.809,3.809L30.466,25.625
		L30.466,25.625z"/>
	<path opacity="0.6" fill="none" stroke="#FFFFFF" stroke-miterlimit="10" enable-background="new    " d="M5.342,28.434
		c-1.549,0-2.809-1.261-2.809-2.81V4.309c0-1.549,1.26-2.809,2.809-2.809h21.316c1.549,0,2.809,1.26,2.809,2.809v21.315
		c0,1.549-1.261,2.81-2.81,2.81C26.657,28.435,5.342,28.435,5.342,28.434z"/>
	<path opacity="0.05" fill="none" stroke="#000000" stroke-miterlimit="10" enable-background="new    " d="M30.569,8.482
		c0,0,0-1.28-1.264-1.28c-3.669,0-15.386,0.002-16.434,0.002c-1.275,0-1.264-1.262-1.264-1.262s0-1.27-1.264-1.27
		c-2.213,0-6.645,0-7.585,0c-1.245,0-1.264,1.224-1.264,1.263"/>
	
		<linearGradient id="SVGID_1_" gradientUnits="userSpaceOnUse" x1="1385.9995" y1="-1686.4335" x2="1385.9995" y2="-1662.5765" gradientTransform="matrix(1 0 0 -1 -1370 -1657)">
		<stop  offset="0" style="stop-color:#D1E0ED"/>
		<stop  offset="1" style="stop-color:#E4EEFB"/>
	</linearGradient>
	<path fill="url(#SVGID_1_)" stroke="#9DBCD7" stroke-miterlimit="10" d="M5.334,29.433h21.395c2.104,0,3.738-1.749,3.738-3.853V8.5
		c0-0.3-0.448-0.582-1.045-0.582c-3.685,0-15.435,0.002-16.488,0.002c-1.28,0-1.261-1.168-1.261-1.168s0.009-1.176-1.261-1.176
		c-2.222,0-6.674,0-7.618,0c-1.25,0-1.262,1.036-1.262,1.075v18.93C1.533,27.684,3.23,29.433,5.334,29.433z"/>
	<path opacity="0.8" fill="none" stroke="#FFFFFF" stroke-miterlimit="10" enable-background="new    " d="M5.333,28.434
		c-1.544,0-2.8-1.279-2.801-2.853V6.651c0.031-0.045,0.105-0.075,0.261-0.075h7.618c0.144,0,0.202,0.029,0.21,0.037
		c0.028,0.029,0.051,0.131,0.051,0.132c-0.002,0.142,0.016,0.928,0.618,1.541c0.285,0.29,0.8,0.634,1.642,0.634
		c0,0,16.519-0.001,16.533-0.001v16.662c0,1.573-1.229,2.853-2.738,2.853C26.727,28.435,5.333,28.435,5.333,28.434z"/>
	<g id="g27_1_">
		
			<linearGradient id="path36_2_" gradientUnits="userSpaceOnUse" x1="1784.7555" y1="-2475.4534" x2="1788.7751" y2="-2482.4158" gradientTransform="matrix(1 0 0 -1 -1782 -2475)">
			<stop  offset="0" style="stop-color:#FFFFFF"/>
			<stop  offset="0.5" style="stop-color:#FFFFFF;stop-opacity:0.6"/>
			<stop  offset="1" style="stop-color:#FFFFFF;stop-opacity:0.15"/>
		</linearGradient>
		<path id="path36_1_" fill="url(#path36_2_)" d="M6.07,8.598c0.449-0.93,0.998-1.802,1.627-2.607L6.552,3.48
			C5.574,4.404,4.781,5.424,4.147,6.412L6.07,8.598z"/>
		
			<linearGradient id="path45_2_" gradientUnits="userSpaceOnUse" x1="1788.3998" y1="-2474.4114" x2="1791.0304" y2="-2478.9678" gradientTransform="matrix(1 0 0 -1 -1782 -2475)">
			<stop  offset="0" style="stop-color:#FFFFFF"/>
			<stop  offset="0.5" style="stop-color:#FFFFFF;stop-opacity:0.6"/>
			<stop  offset="1" style="stop-color:#FFFFFF;stop-opacity:0.15"/>
		</linearGradient>
		<path id="path45_1_" fill="url(#path45_2_)" d="M6.189,1.067l0.598,1.311C7.363,1.9,7.994,1.736,8.682,1.067H6.189z"/>
		
			<linearGradient id="path54_2_" gradientUnits="userSpaceOnUse" x1="1789.2275" y1="-2473.5459" x2="1792.4418" y2="-2479.113" gradientTransform="matrix(1 0 0 -1 -1782 -2475)">
			<stop  offset="0" style="stop-color:#FFFFFF"/>
			<stop  offset="0.5" style="stop-color:#FFFFFF;stop-opacity:0.6"/>
			<stop  offset="1" style="stop-color:#FFFFFF;stop-opacity:0.15"/>
		</linearGradient>
		<path id="path54_1_" fill="url(#path54_2_)" d="M10.68,1.067h-0.473C9.013,1.736,7.969,2.247,7.074,3.009l1.097,2.408
			c0.937-1.083,2.025-2.032,3.243-2.798c0.009-0.008,0.016-0.016,0.026-0.024C12.804,1.416,11.449,1.067,10.68,1.067z"/>
		
			<linearGradient id="path63_2_" gradientUnits="userSpaceOnUse" x1="1782.4993" y1="-2478.6277" x2="1785.9874" y2="-2484.6692" gradientTransform="matrix(1 0 0 -1 -1782 -2475)">
			<stop  offset="0" style="stop-color:#FFFFFF"/>
			<stop  offset="0.5" style="stop-color:#FFFFFF;stop-opacity:0.6"/>
			<stop  offset="1" style="stop-color:#FFFFFF;stop-opacity:0.15"/>
		</linearGradient>
		<path id="path63_1_" fill="url(#path63_2_)" d="M3.782,7.01c-0.734,1.25-1.214,2.405-1.499,3.195
			c0.337,0.481,0.894,0.797,1.526,0.797c0.783,0,1.451-0.483,1.727-1.167c0.071-0.191,0.157-0.374,0.236-0.562L3.782,7.01z"/>
		
			<linearGradient id="path72_2_" gradientUnits="userSpaceOnUse" x1="1782.3423" y1="-2478.8752" x2="1786.208" y2="-2485.5708" gradientTransform="matrix(1 0 0 -1 -1782 -2475)">
			<stop  offset="0" style="stop-color:#FFFFFF"/>
			<stop  offset="0.5" style="stop-color:#FFFFFF;stop-opacity:0.6"/>
			<stop  offset="1" style="stop-color:#FFFFFF;stop-opacity:0.15"/>
		</linearGradient>
		<path id="path72_1_" fill="url(#path72_2_)" d="M1.959,4.937L1.945,9.135c0,0,0,0.001,0,0.003c0,0.026,0.006,0.051,0.008,0.077
			C2.272,8.438,2.718,7.49,3.322,6.486L1.959,4.937z"/>
		
			<linearGradient id="path149_2_" gradientUnits="userSpaceOnUse" x1="1785.2657" y1="-2476.7783" x2="1788.8955" y2="-2483.0654" gradientTransform="matrix(1 0 0 -1 -1782 -2475)">
			<stop  offset="0" style="stop-color:#FFFFFF"/>
			<stop  offset="0.5" style="stop-color:#FFFFFF;stop-opacity:0.6"/>
			<stop  offset="1" style="stop-color:#FFFFFF;stop-opacity:0.15"/>
		</linearGradient>
		<path id="path149_1_" fill="url(#path149_2_)" d="M5.391,1.076c-1.364-0.113-3.16,1.423-3.39,2.896l1.692,1.924
			c0.675-1.031,1.515-2.087,2.552-3.04L5.391,1.076z"/>
	</g>
	
		<radialGradient id="SVGID_2_" cx="1862.412" cy="1354.463" r="22.6588" gradientTransform="matrix(0.0197 0.9998 0.9109 -0.018 -1255.4794 -1826.5901)" gradientUnits="userSpaceOnUse">
		<stop  offset="0" style="stop-color:#FFFFFF;stop-opacity:0.6"/>
		<stop  offset="0.3783" style="stop-color:#FAFCFE;stop-opacity:0.4487"/>
		<stop  offset="0.829" style="stop-color:#EBF3FC;stop-opacity:0.2684"/>
		<stop  offset="1" style="stop-color:#E4EEFB;stop-opacity:0.2"/>
	</radialGradient>
	<path fill="url(#SVGID_2_)" d="M5.582,28.655c-1.774,0-3.216-1.465-3.216-3.267V6.9c0-0.023,0.004-0.221,0.151-0.369
		c0.123-0.123,0.32-0.186,0.585-0.186h7.441c0.294,0,0.443,0.035,0.532,0.125c0.198,0.199,0.206,0.501,0.206,0.505
		c-0.001,0.065,0.003,0.712,0.482,1.198c0.305,0.31,0.724,0.467,1.244,0.467c0,0,13.755-0.005,16.1-0.005
		c0.31,0,0.481,0.106,0.525,0.158v16.596c0,1.802-1.415,3.267-3.155,3.267L5.582,28.655L5.582,28.655L5.582,28.655z"/>
</g>
<g>
	<path opacity="0.3" fill="#FFFFFF" enable-background="new    " d="M15.795,8.83c-1.526,0-3.059,0.576-4.221,1.734
		c-2.325,2.317-2.325,6.104,0,8.421c1.96,1.952,4.95,2.26,7.241,0.914c0.118,0.009,0.243,0.012,0.34,0.032
		c0.065,0.013,0.028-0.012,0.053,0c0.001,0.064-0.002,0.132,0,0.255c0.006,0.319,0.092,0.862,0.51,1.266l-0.011,0.011l0.032,0.032
		l3.201,3.243c0,0,0.01,0.01,0.011,0.011c0.016,0.017,0.321,0.328,0.798,0.404c0.489,0.078,1.137-0.119,1.712-0.691
		c0.576-0.573,0.77-1.222,0.691-1.712c-0.074-0.465-0.363-0.756-0.394-0.787l-0.021-0.021l-3.201-3.242
		c-0.008-0.008-0.014-0.013-0.021-0.021c-0.407-0.43-0.975-0.497-1.297-0.5c-0.118-0.001-0.18,0.001-0.244,0
		c-0.012-0.025,0.015,0.009,0-0.064c-0.02-0.097-0.032-0.214-0.042-0.33c1.35-2.283,1.057-5.266-0.904-7.219
		C18.863,9.404,17.322,8.83,15.795,8.83z M15.795,9.511c1.353,0,2.711,0.514,3.743,1.541c1.799,1.792,2.028,4.551,0.691,6.592
		c0.018,0.347,0.071,0.907,0.298,1.106c0.308,0.27,1.029-0.116,1.499,0.404l3.243,3.286c0,0,0.639,0.598-0.298,1.531
		c-0.937,0.933-1.531,0.298-1.531,0.298l-3.243-3.286c-0.521-0.468-0.143-1.192-0.415-1.499c-0.199-0.225-0.758-0.27-1.106-0.287
		c-2.05,1.333-4.815,1.09-6.614-0.702c-2.063-2.055-2.063-5.387,0-7.443C13.094,10.025,14.443,9.511,15.795,9.511z M15.817,11.265
		c-0.973,0-1.85,0.375-2.488,1.01c-0.638,0.635-1.042,1.53-1.042,2.498c0,1.938,1.585,3.509,3.53,3.509s3.519-1.571,3.519-3.509
		S17.761,11.265,15.817,11.265z M15.817,11.946c1.577,0,2.839,1.262,2.839,2.829s-1.263,2.828-2.839,2.828s-2.849-1.264-2.849-2.828
		c0-0.778,0.338-1.499,0.851-2.01C14.328,12.256,15.02,11.946,15.817,11.946z"/>
	<path opacity="0.3" fill="#FFFFFF" enable-background="new    " d="M15.795,9.161c-1.443,0-2.888,0.542-3.987,1.637
		c-2.198,2.191-2.198,5.762,0,7.953c1.878,1.871,4.748,2.136,6.922,0.808c0.155,0.009,0.336,0.023,0.489,0.053
		c0.176,0.035,0.299,0.108,0.298,0.106c-0.005-0.006,0.014,0.012,0.021,0.096c0.008,0.083-0.003,0.21,0,0.361
		c0.005,0.297,0.065,0.731,0.404,1.053c0.008,0.008,0.013,0.014,0.021,0.021l3.221,3.264c0,0,0.235,0.247,0.616,0.309
		c0.382,0.061,0.902-0.074,1.425-0.596c0.523-0.522,0.656-1.042,0.596-1.425c-0.059-0.368-0.281-0.589-0.298-0.606l-0.011-0.011
		l-3.221-3.265c-0.003-0.004-0.007-0.007-0.011-0.011c-0.324-0.348-0.763-0.401-1.064-0.404c-0.152-0.001-0.279,0.007-0.361,0
		c-0.083-0.007-0.101-0.027-0.096-0.021c0.001,0.001-0.08-0.132-0.117-0.309c-0.032-0.152-0.043-0.326-0.053-0.478
		c1.333-2.165,1.081-5.029-0.798-6.901C18.693,9.702,17.238,9.161,15.795,9.161z M15.795,9.511c1.353,0,2.711,0.514,3.743,1.541
		c1.799,1.792,2.028,4.551,0.691,6.592c0.018,0.347,0.071,0.907,0.298,1.106c0.308,0.27,1.029-0.116,1.499,0.404l3.243,3.286
		c0,0,0.639,0.598-0.298,1.531c-0.937,0.933-1.531,0.298-1.531,0.298l-3.243-3.286c-0.521-0.468-0.143-1.192-0.415-1.499
		c-0.199-0.225-0.758-0.27-1.106-0.287c-2.05,1.333-4.815,1.09-6.614-0.702c-2.063-2.055-2.063-5.387,0-7.443
		C13.094,10.025,14.443,9.511,15.795,9.511z M15.817,11.265c-0.973,0-1.85,0.375-2.488,1.01c-0.638,0.635-1.042,1.53-1.042,2.498
		c0,1.938,1.585,3.509,3.53,3.509s3.519-1.571,3.519-3.509S17.761,11.265,15.817,11.265z M15.817,11.617
		c1.754,0,3.168,1.412,3.168,3.158s-1.415,3.158-3.168,3.158s-3.179-1.413-3.179-3.158c0-0.871,0.374-1.672,0.947-2.243
		C14.155,11.961,14.935,11.617,15.817,11.617z"/>
	<path opacity="0.3" fill="#669CCC" enable-background="new    " d="M12.057,11.053c-2.063,2.055-2.063,5.392,0,7.447
		c1.799,1.792,4.569,2.031,6.619,0.698c0.349,0.018,0.91,0.065,1.109,0.291c0.272,0.307-0.112,1.026,0.409,1.493l3.241,3.284
		c0,0,0.602,0.642,1.538-0.291c0.937-0.933,0.292-1.532,0.292-1.532l-3.241-3.284c-0.47-0.519-1.191-0.136-1.499-0.407
		c-0.226-0.199-0.274-0.758-0.292-1.105c1.337-2.041,1.097-4.802-0.7-6.594C17.47,8.997,14.121,8.997,12.057,11.053z M13.323,12.275
		c0.638-0.635,1.519-1.009,2.491-1.009c1.945,0,3.523,1.572,3.523,3.51s-1.579,3.51-3.523,3.51s-3.523-1.572-3.523-3.51
		C12.291,13.808,12.685,12.91,13.323,12.275z"/>
	<path opacity="0.3" fill="#669CCC" enable-background="new    " d="M15.795,9.511c-1.353,0-2.701,0.514-3.732,1.541
		c-1.074,1.071-1.586,2.488-1.541,3.892c0.042-1.291,0.554-2.568,1.541-3.552c2.063-2.055,5.412-2.055,7.475,0
		c0.982,0.978,1.482,2.249,1.531,3.53c0.037-1.395-0.462-2.805-1.531-3.871C18.507,10.025,17.148,9.511,15.795,9.511z
		 M12.297,14.944c-0.003,0.056-0.011,0.113-0.011,0.17c0,1.938,1.585,3.509,3.53,3.509s3.519-1.571,3.519-3.509
		c0-0.057-0.008-0.113-0.011-0.17c-0.09,1.859-1.621,3.339-3.509,3.339C13.928,18.283,12.386,16.804,12.297,14.944z M20.25,17.943
		c-0.008,0.013-0.012,0.03-0.021,0.042c0.018,0.347,0.071,0.907,0.298,1.106c0.308,0.27,1.029-0.116,1.499,0.404l3.243,3.286
		c0,0,0.142,0.143,0.192,0.394c0.094-0.461-0.192-0.733-0.192-0.733l-3.243-3.286c-0.47-0.519-1.191-0.134-1.499-0.404
		C20.357,18.602,20.282,18.256,20.25,17.943z"/>
	<path opacity="0.3" fill="#669CCC" enable-background="new    " d="M15.795,9.511c-1.353,0-2.701,0.514-3.732,1.541
		c-2.063,2.055-2.063,5.387,0,7.443c1.799,1.792,4.564,2.034,6.614,0.702c0.349,0.018,0.907,0.061,1.106,0.287
		c0.272,0.307-0.106,1.031,0.415,1.499l3.243,3.286c0,0,0.594,0.635,1.531-0.298c0.936-0.933,0.298-1.531,0.298-1.531l-3.243-3.286
		c-0.47-0.519-1.191-0.134-1.499-0.404c-0.226-0.199-0.28-0.759-0.298-1.106c1.337-2.041,1.107-4.8-0.691-6.592
		C18.507,10.025,17.148,9.511,15.795,9.511z M15.795,9.852c1.266,0,2.533,0.485,3.498,1.446c1.683,1.677,1.898,4.249,0.649,6.156
		c-0.041,0.063-0.059,0.138-0.053,0.213c0.009,0.182,0.024,0.421,0.074,0.659c0.05,0.239,0.117,0.484,0.34,0.68
		c0.158,0.139,0.336,0.179,0.489,0.192c0.153,0.013,0.299,0.01,0.425,0.011c0.252,0.002,0.405,0.018,0.553,0.181
		c0.003,0.003,0.007,0.008,0.011,0.011l3.243,3.286c0.003,0.003,0.007,0.008,0.011,0.011c0,0,0.071,0.059,0.096,0.213
		c0.025,0.154,0.01,0.406-0.404,0.818c-0.414,0.414-0.666,0.428-0.818,0.404c-0.153-0.024-0.213-0.096-0.213-0.096
		c-0.003-0.003-0.007-0.008-0.011-0.011l-3.244-3.285c-0.003-0.003-0.007-0.008-0.011-0.011c-0.164-0.148-0.187-0.311-0.192-0.563
		c-0.002-0.126,0.003-0.262-0.011-0.415c-0.014-0.153-0.052-0.332-0.192-0.489c-0.199-0.224-0.442-0.293-0.68-0.34
		c-0.239-0.048-0.48-0.054-0.659-0.064c-0.075-0.006-0.149,0.013-0.213,0.053c-1.914,1.244-4.493,1.019-6.177-0.659
		c-1.931-1.924-1.931-5.03,0-6.954C13.274,10.335,14.53,9.852,15.795,9.852z M15.817,10.925c-1.061,0-2.031,0.406-2.733,1.106
		c-0.7,0.698-1.138,1.679-1.138,2.743c0,2.126,1.74,3.849,3.871,3.849s3.86-1.724,3.86-3.849S17.947,10.925,15.817,10.925z
		 M15.817,11.265c1.945,0,3.519,1.571,3.519,3.509s-1.575,3.509-3.519,3.509c-1.945,0-3.53-1.571-3.53-3.509
		c0-0.969,0.404-1.863,1.042-2.498C13.966,11.64,14.844,11.265,15.817,11.265z"/>
	<path opacity="0.3" fill="#FFFFFF" enable-background="new    " d="M15.817,11.265c-0.973,0-1.85,0.375-2.488,1.01
		c-0.638,0.635-1.042,1.53-1.042,2.498c0,0.057,0.008,0.113,0.011,0.17c0.043-0.903,0.432-1.73,1.031-2.329
		c0.638-0.635,1.515-1.01,2.488-1.01c1.888,0,3.42,1.48,3.509,3.339c0.003-0.056,0.011-0.113,0.011-0.17
		C19.336,12.836,17.761,11.265,15.817,11.265z M21.069,14.923c-0.025,0.952-0.298,1.894-0.84,2.722
		c0.004,0.087,0.011,0.194,0.021,0.298C20.839,17.025,21.11,15.974,21.069,14.923z M10.522,14.944
		c-0.046,1.405,0.466,2.82,1.541,3.892c1.799,1.792,4.564,2.034,6.614,0.702c0.349,0.018,0.907,0.061,1.106,0.287
		c0.272,0.307-0.106,1.031,0.415,1.499l3.243,3.286c0,0,0.594,0.635,1.531-0.298c0.484-0.482,0.542-0.871,0.489-1.138
		c-0.046,0.225-0.182,0.492-0.489,0.798c-0.937,0.933-1.531,0.298-1.531,0.298l-3.243-3.286c-0.521-0.468-0.143-1.192-0.415-1.499
		c-0.199-0.225-0.758-0.27-1.106-0.287c-2.05,1.333-4.815,1.09-6.614-0.702C11.074,17.511,10.562,16.236,10.522,14.944z"/>
</g>
</svg>
