<?xml version="1.0" encoding="utf-8"?>
<!-- Generator: Adobe Illustrator 17.0.0, SVG Export Plug-In . SVG Version: 6.00 Build 0)  -->
<!DOCTYPE svg PUBLIC "-//W3C//DTD SVG 1.1//EN" "http://www.w3.org/Graphics/SVG/1.1/DTD/svg11.dtd">
<svg version="1.1" id="图层_1" xmlns="http://www.w3.org/2000/svg" xmlns:xlink="http://www.w3.org/1999/xlink" x="0px" y="0px"
	 width="32px" height="32px" viewBox="16 16 32 32" enable-background="new 16 16 32 32" xml:space="preserve">
<g id="g151" opacity="0.5">
	<path id="path153" opacity="0.08" enable-background="new    " d="M43.059,45.57H20.96c-2.035,0-3.693-1.595-3.693-3.549v2.714
		c0,1.527,1.297,2.764,2.886,2.764h23.711c1.589,0,2.868-1.238,2.868-2.764v-2.714C46.733,43.976,45.093,45.57,43.059,45.57z"/>
	<path id="path155" opacity="0.1" enable-background="new    " d="M43.04,45.57H20.941c-2.034,0-3.674-1.566-3.674-3.519v1.42
		c0,1.527,0.7,3.387,3.538,3.387s19.496,0,22.371,0s3.557-1.86,3.557-3.387v-1.42C46.733,44.005,45.074,45.57,43.04,45.57z"/>
	<path id="path157" opacity="0.1" enable-background="new    " d="M43.04,45.57H20.941c-2.034,0-3.674-1.566-3.674-3.519v0.766
		c0,1.527,1.215,3.397,3.538,3.397s19.711,0,22.371,0c2.66,0,3.557-1.87,3.557-3.396v-0.766C46.733,44.005,45.074,45.57,43.04,45.57
		z"/>
	<rect id="rect159" x="20.615" y="45.57" opacity="0.05" enable-background="new    " width="22.769" height="0.643"/>
	<rect id="rect161" x="21.285" y="45.57" opacity="0.05" enable-background="new    " width="20.76" height="0.643"/>
	<rect id="rect163" x="21.285" y="46.213" opacity="0.05" enable-background="new    " width="20.76" height="0.643"/>
	<rect id="rect165" x="22.624" y="46.213" opacity="0.05" enable-background="new    " width="18.751" height="0.643"/>
	<rect id="rect167" x="24.633" y="46.213" opacity="0.05" enable-background="new    " width="14.733" height="0.643"/>
	<rect id="rect169" x="27.312" y="46.213" opacity="0.05" enable-background="new    " width="9.376" height="0.643"/>
	<rect id="rect171" x="22.624" y="45.57" opacity="0.05" enable-background="new    " width="18.751" height="0.643"/>
	<rect id="rect173" x="23.964" y="45.57" opacity="0.05" enable-background="new    " width="16.072" height="0.643"/>
	<rect id="rect175" x="24.633" y="45.57" opacity="0.05" enable-background="new    " width="14.733" height="0.643"/>
	<rect id="rect177" x="25.973" y="45.57" opacity="0.05" enable-background="new    " width="12.054" height="0.643"/>
	<rect id="rect179" x="25.973" y="45.57" opacity="0.05" enable-background="new    " width="12.054" height="0.643"/>
</g>
<path fill="#C4DCED" stroke="#9DBCD7" stroke-miterlimit="10" d="M46.466,41.624c0,2.104-1.706,3.809-3.809,3.809H21.342
	c-2.104,0-3.809-1.706-3.809-3.809V20.309c0-2.104,1.706-3.809,3.809-3.809h21.316c2.104,0,3.809,1.706,3.809,3.809L46.466,41.624
	L46.466,41.624z"/>
<path opacity="0.6" fill="none" stroke="#FFFFFF" stroke-miterlimit="10" d="M21.342,44.434c-1.549,0-2.809-1.261-2.809-2.81V20.309
	c0-1.549,1.26-2.809,2.809-2.809h21.316c1.549,0,2.809,1.26,2.809,2.809v21.315c0,1.549-1.261,2.81-2.81,2.81H21.342z"/>
<path opacity="0.05" fill="none" stroke="#000000" stroke-miterlimit="10" enable-background="new    " d="M46.569,24.481
	c0,0,0-1.28-1.264-1.28c-3.669,0-15.386,0.002-16.434,0.002c-1.275,0-1.264-1.262-1.264-1.262s0-1.27-1.264-1.27
	c-2.213,0-6.645,0-7.585,0c-1.245,0-1.264,1.224-1.264,1.263"/>
<linearGradient id="SVGID_1_" gradientUnits="userSpaceOnUse" x1="1127.9995" y1="1371.4333" x2="1127.9995" y2="1347.576" gradientTransform="matrix(1 0 0 1 -1096 -1326)">
	<stop  offset="0" style="stop-color:#D1E0ED"/>
	<stop  offset="1" style="stop-color:#E4EEFB"/>
</linearGradient>
<path fill="url(#SVGID_1_)" stroke="#9DBCD7" stroke-miterlimit="10" d="M21.334,45.433h21.395c2.104,0,3.738-1.749,3.738-3.853
	V24.5c0-0.3-0.448-0.582-1.045-0.582c-3.685,0-15.435,0.002-16.488,0.002c-1.28,0-1.261-1.168-1.261-1.168s0.009-1.176-1.261-1.176
	c-2.222,0-6.674,0-7.618,0c-1.25,0-1.262,1.036-1.262,1.075v18.93C17.533,43.684,19.23,45.433,21.334,45.433z"/>
<path opacity="0.8" fill="none" stroke="#FFFFFF" stroke-miterlimit="10" d="M21.333,44.434c-1.544,0-2.8-1.279-2.801-2.853v-18.93
	c0.031-0.045,0.105-0.075,0.261-0.075h7.618c0.144,0,0.202,0.029,0.21,0.037c0.028,0.029,0.051,0.131,0.051,0.132
	c-0.002,0.142,0.016,0.928,0.618,1.541c0.285,0.29,0.8,0.634,1.642,0.634c0,0,16.519-0.001,16.533-0.001v16.662
	c0,1.573-1.229,2.853-2.738,2.853H21.333z"/>
<g id="g27_1_">
	
		<linearGradient id="path36_2_" gradientUnits="userSpaceOnUse" x1="1526.7552" y1="2160.4531" x2="1530.7749" y2="2167.4155" gradientTransform="matrix(1 0 0 1 -1508 -2144)">
		<stop  offset="0" style="stop-color:#FFFFFF"/>
		<stop  offset="0.5" style="stop-color:#FFFFFF;stop-opacity:0.6"/>
		<stop  offset="1" style="stop-color:#FFFFFF;stop-opacity:0.15"/>
	</linearGradient>
	<path id="path36_1_" fill="url(#path36_2_)" d="M22.07,24.598c0.449-0.93,0.998-1.802,1.627-2.607l-1.145-2.511
		c-0.978,0.924-1.771,1.943-2.405,2.932L22.07,24.598z"/>
	
		<linearGradient id="path45_2_" gradientUnits="userSpaceOnUse" x1="1530.4" y1="2159.4106" x2="1533.0306" y2="2163.967" gradientTransform="matrix(1 0 0 1 -1508 -2144)">
		<stop  offset="0" style="stop-color:#FFFFFF"/>
		<stop  offset="0.5" style="stop-color:#FFFFFF;stop-opacity:0.6"/>
		<stop  offset="1" style="stop-color:#FFFFFF;stop-opacity:0.15"/>
	</linearGradient>
	<path id="path45_1_" fill="url(#path45_2_)" d="M22.189,17.067l0.598,1.311c0.576-0.478,1.207-0.643,1.895-1.311H22.189z"/>
	
		<linearGradient id="path54_2_" gradientUnits="userSpaceOnUse" x1="1531.2273" y1="2158.5454" x2="1534.4415" y2="2164.1125" gradientTransform="matrix(1 0 0 1 -1508 -2144)">
		<stop  offset="0" style="stop-color:#FFFFFF"/>
		<stop  offset="0.5" style="stop-color:#FFFFFF;stop-opacity:0.6"/>
		<stop  offset="1" style="stop-color:#FFFFFF;stop-opacity:0.15"/>
	</linearGradient>
	<path id="path54_1_" fill="url(#path54_2_)" d="M26.68,17.067h-0.473c-1.194,0.669-2.238,1.179-3.133,1.942l1.097,2.408
		c0.937-1.083,2.025-2.032,3.243-2.798c0.009-0.008,0.016-0.016,0.026-0.024C28.804,17.415,27.449,17.067,26.68,17.067z"/>
	
		<linearGradient id="path63_2_" gradientUnits="userSpaceOnUse" x1="1524.4996" y1="2163.627" x2="1527.9878" y2="2169.6685" gradientTransform="matrix(1 0 0 1 -1508 -2144)">
		<stop  offset="0" style="stop-color:#FFFFFF"/>
		<stop  offset="0.5" style="stop-color:#FFFFFF;stop-opacity:0.6"/>
		<stop  offset="1" style="stop-color:#FFFFFF;stop-opacity:0.15"/>
	</linearGradient>
	<path id="path63_1_" fill="url(#path63_2_)" d="M19.782,23.009c-0.734,1.25-1.214,2.405-1.499,3.195
		c0.337,0.481,0.894,0.797,1.526,0.797c0.783,0,1.451-0.483,1.727-1.167c0.071-0.191,0.157-0.374,0.236-0.562L19.782,23.009z"/>
	
		<linearGradient id="path72_2_" gradientUnits="userSpaceOnUse" x1="1524.3427" y1="2163.8745" x2="1528.2084" y2="2170.5701" gradientTransform="matrix(1 0 0 1 -1508 -2144)">
		<stop  offset="0" style="stop-color:#FFFFFF"/>
		<stop  offset="0.5" style="stop-color:#FFFFFF;stop-opacity:0.6"/>
		<stop  offset="1" style="stop-color:#FFFFFF;stop-opacity:0.15"/>
	</linearGradient>
	<path id="path72_1_" fill="url(#path72_2_)" d="M17.959,20.936l-0.014,4.198c0,0,0,0.001,0,0.003c0,0.026,0.006,0.051,0.008,0.077
		c0.319-0.777,0.765-1.725,1.369-2.728L17.959,20.936z"/>
	
		<linearGradient id="path149_2_" gradientUnits="userSpaceOnUse" x1="1527.266" y1="2161.7776" x2="1530.8958" y2="2168.0647" gradientTransform="matrix(1 0 0 1 -1508 -2144)">
		<stop  offset="0" style="stop-color:#FFFFFF"/>
		<stop  offset="0.5" style="stop-color:#FFFFFF;stop-opacity:0.6"/>
		<stop  offset="1" style="stop-color:#FFFFFF;stop-opacity:0.15"/>
	</linearGradient>
	<path id="path149_1_" fill="url(#path149_2_)" d="M21.391,17.075c-1.364-0.113-3.16,1.423-3.39,2.896l1.692,1.924
		c0.675-1.031,1.515-2.087,2.552-3.04L21.391,17.075z"/>
</g>
<radialGradient id="SVGID_2_" cx="1509.0768" cy="-1013.6873" r="22.6588" gradientTransform="matrix(0.0197 0.9998 -0.9109 0.018 -922.1061 -1463.46)" gradientUnits="userSpaceOnUse">
	<stop  offset="0" style="stop-color:#FFFFFF;stop-opacity:0.6"/>
	<stop  offset="0.3783" style="stop-color:#FAFCFE;stop-opacity:0.4487"/>
	<stop  offset="0.829" style="stop-color:#EBF3FC;stop-opacity:0.2684"/>
	<stop  offset="1" style="stop-color:#E4EEFB;stop-opacity:0.2"/>
</radialGradient>
<path fill="url(#SVGID_2_)" d="M21.582,44.655c-1.774,0-3.216-1.465-3.216-3.267V22.9c0-0.023,0.004-0.221,0.151-0.369
	c0.123-0.123,0.32-0.186,0.585-0.186h7.441c0.294,0,0.443,0.035,0.532,0.125c0.198,0.199,0.206,0.501,0.206,0.505
	c-0.001,0.065,0.003,0.712,0.482,1.198c0.305,0.31,0.724,0.467,1.244,0.467c0,0,13.755-0.005,16.1-0.005
	c0.31,0,0.481,0.106,0.525,0.158v16.596c0,1.802-1.415,3.267-3.155,3.267H21.582L21.582,44.655L21.582,44.655z"/>
</svg>
