<?xml version="1.0" encoding="utf-8"?>
<!-- Generator: Adobe Illustrator 17.0.0, SVG Export Plug-In . SVG Version: 6.00 Build 0)  -->
<!DOCTYPE svg PUBLIC "-//W3C//DTD SVG 1.1//EN" "http://www.w3.org/Graphics/SVG/1.1/DTD/svg11.dtd">
<svg version="1.1" id="图层_1" xmlns="http://www.w3.org/2000/svg" xmlns:xlink="http://www.w3.org/1999/xlink" x="0px" y="0px"
	 width="32px" height="32px" viewBox="0 0 32 32" enable-background="new 0 0 32 32" xml:space="preserve">
<g>
	<g id="g151" opacity="0.5">
		<path id="path153" opacity="0.08" enable-background="new    " d="M27.059,29.57H4.96c-2.035,0-3.693-1.595-3.693-3.549v2.714
			c0,1.527,1.297,2.764,2.886,2.764h23.711c1.589,0,2.868-1.238,2.868-2.764v-2.714C30.733,27.977,29.093,29.57,27.059,29.57z"/>
		<path id="path155" opacity="0.1" enable-background="new    " d="M27.04,29.57H4.941c-2.034,0-3.674-1.566-3.674-3.519v1.42
			c0,1.527,0.7,3.387,3.538,3.387s19.496,0,22.371,0s3.557-1.86,3.557-3.387v-1.42C30.733,28.006,29.074,29.57,27.04,29.57z"/>
		<path id="path157" opacity="0.1" enable-background="new    " d="M27.04,29.57H4.941c-2.034,0-3.674-1.566-3.674-3.519v0.766
			c0,1.527,1.215,3.397,3.538,3.397s19.711,0,22.371,0c2.66,0,3.557-1.87,3.557-3.396v-0.766
			C30.733,28.006,29.074,29.57,27.04,29.57z"/>
		<rect id="rect159" x="4.615" y="29.57" opacity="0.05" enable-background="new    " width="22.769" height="0.643"/>
		<rect id="rect161" x="5.285" y="29.57" opacity="0.05" enable-background="new    " width="20.76" height="0.643"/>
		<rect id="rect163" x="5.285" y="30.214" opacity="0.05" enable-background="new    " width="20.76" height="0.643"/>
		<rect id="rect165" x="6.624" y="30.214" opacity="0.05" enable-background="new    " width="18.751" height="0.643"/>
		<rect id="rect167" x="8.633" y="30.214" opacity="0.05" enable-background="new    " width="14.733" height="0.643"/>
		<rect id="rect169" x="11.312" y="30.214" opacity="0.05" enable-background="new    " width="9.376" height="0.643"/>
		<rect id="rect171" x="6.624" y="29.57" opacity="0.05" enable-background="new    " width="18.751" height="0.643"/>
		<rect id="rect173" x="7.964" y="29.57" opacity="0.05" enable-background="new    " width="16.072" height="0.643"/>
		<rect id="rect175" x="8.633" y="29.57" opacity="0.05" enable-background="new    " width="14.733" height="0.643"/>
		<rect id="rect177" x="9.973" y="29.57" opacity="0.05" enable-background="new    " width="12.054" height="0.643"/>
		<rect id="rect179" x="9.973" y="29.57" opacity="0.05" enable-background="new    " width="12.054" height="0.643"/>
	</g>
	<path fill="#C4DCED" stroke="#9DBCD7" stroke-miterlimit="10" d="M30.466,25.625c0,2.104-1.706,3.809-3.809,3.809H5.342
		c-2.104,0-3.809-1.706-3.809-3.809V4.309c0-2.104,1.706-3.809,3.809-3.809h21.316c2.104,0,3.809,1.706,3.809,3.809L30.466,25.625
		L30.466,25.625z"/>
	<path opacity="0.6" fill="none" stroke="#FFFFFF" stroke-miterlimit="10" enable-background="new    " d="M5.342,28.434
		c-1.549,0-2.809-1.261-2.809-2.81V4.309c0-1.549,1.26-2.809,2.809-2.809h21.316c1.549,0,2.809,1.26,2.809,2.809v21.315
		c0,1.549-1.261,2.81-2.81,2.81C26.657,28.435,5.342,28.435,5.342,28.434z"/>
	<path opacity="0.05" fill="none" stroke="#000000" stroke-miterlimit="10" enable-background="new    " d="M30.569,8.482
		c0,0,0-1.28-1.264-1.28c-3.669,0-15.386,0.002-16.434,0.002c-1.275,0-1.264-1.262-1.264-1.262s0-1.27-1.264-1.27
		c-2.213,0-6.645,0-7.585,0c-1.245,0-1.264,1.224-1.264,1.263"/>
	
		<linearGradient id="SVGID_1_" gradientUnits="userSpaceOnUse" x1="1385.9995" y1="-1686.4335" x2="1385.9995" y2="-1662.5765" gradientTransform="matrix(1 0 0 -1 -1370 -1657)">
		<stop  offset="0" style="stop-color:#D1E0ED"/>
		<stop  offset="1" style="stop-color:#E4EEFB"/>
	</linearGradient>
	<path fill="url(#SVGID_1_)" stroke="#9DBCD7" stroke-miterlimit="10" d="M5.334,29.433h21.395c2.104,0,3.738-1.749,3.738-3.853V8.5
		c0-0.3-0.448-0.582-1.045-0.582c-3.685,0-15.435,0.002-16.488,0.002c-1.28,0-1.261-1.168-1.261-1.168s0.009-1.176-1.261-1.176
		c-2.222,0-6.674,0-7.618,0c-1.25,0-1.262,1.036-1.262,1.075v18.93C1.533,27.684,3.23,29.433,5.334,29.433z"/>
	<path opacity="0.8" fill="none" stroke="#FFFFFF" stroke-miterlimit="10" enable-background="new    " d="M5.333,28.434
		c-1.544,0-2.8-1.279-2.801-2.853V6.651c0.031-0.045,0.105-0.075,0.261-0.075h7.618c0.144,0,0.202,0.029,0.21,0.037
		c0.028,0.029,0.051,0.131,0.051,0.132c-0.002,0.142,0.016,0.928,0.618,1.541c0.285,0.29,0.8,0.634,1.642,0.634
		c0,0,16.519-0.001,16.533-0.001v16.662c0,1.573-1.229,2.853-2.738,2.853C26.727,28.435,5.333,28.435,5.333,28.434z"/>
	<g id="g27_1_">
		
			<linearGradient id="path36_2_" gradientUnits="userSpaceOnUse" x1="1784.7555" y1="-2475.4534" x2="1788.7751" y2="-2482.4158" gradientTransform="matrix(1 0 0 -1 -1782 -2475)">
			<stop  offset="0" style="stop-color:#FFFFFF"/>
			<stop  offset="0.5" style="stop-color:#FFFFFF;stop-opacity:0.6"/>
			<stop  offset="1" style="stop-color:#FFFFFF;stop-opacity:0.15"/>
		</linearGradient>
		<path id="path36_1_" fill="url(#path36_2_)" d="M6.07,8.598c0.449-0.93,0.998-1.802,1.627-2.607L6.552,3.48
			C5.574,4.404,4.781,5.424,4.147,6.412L6.07,8.598z"/>
		
			<linearGradient id="path45_2_" gradientUnits="userSpaceOnUse" x1="1788.3998" y1="-2474.4114" x2="1791.0304" y2="-2478.9678" gradientTransform="matrix(1 0 0 -1 -1782 -2475)">
			<stop  offset="0" style="stop-color:#FFFFFF"/>
			<stop  offset="0.5" style="stop-color:#FFFFFF;stop-opacity:0.6"/>
			<stop  offset="1" style="stop-color:#FFFFFF;stop-opacity:0.15"/>
		</linearGradient>
		<path id="path45_1_" fill="url(#path45_2_)" d="M6.189,1.067l0.598,1.311C7.363,1.9,7.994,1.736,8.682,1.067H6.189z"/>
		
			<linearGradient id="path54_2_" gradientUnits="userSpaceOnUse" x1="1789.2275" y1="-2473.5459" x2="1792.4418" y2="-2479.113" gradientTransform="matrix(1 0 0 -1 -1782 -2475)">
			<stop  offset="0" style="stop-color:#FFFFFF"/>
			<stop  offset="0.5" style="stop-color:#FFFFFF;stop-opacity:0.6"/>
			<stop  offset="1" style="stop-color:#FFFFFF;stop-opacity:0.15"/>
		</linearGradient>
		<path id="path54_1_" fill="url(#path54_2_)" d="M10.68,1.067h-0.473C9.013,1.736,7.969,2.247,7.074,3.009l1.097,2.408
			c0.937-1.083,2.025-2.032,3.243-2.798c0.009-0.008,0.016-0.016,0.026-0.024C12.804,1.416,11.449,1.067,10.68,1.067z"/>
		
			<linearGradient id="path63_2_" gradientUnits="userSpaceOnUse" x1="1782.4993" y1="-2478.6277" x2="1785.9874" y2="-2484.6692" gradientTransform="matrix(1 0 0 -1 -1782 -2475)">
			<stop  offset="0" style="stop-color:#FFFFFF"/>
			<stop  offset="0.5" style="stop-color:#FFFFFF;stop-opacity:0.6"/>
			<stop  offset="1" style="stop-color:#FFFFFF;stop-opacity:0.15"/>
		</linearGradient>
		<path id="path63_1_" fill="url(#path63_2_)" d="M3.782,7.01c-0.734,1.25-1.214,2.405-1.499,3.195
			c0.337,0.481,0.894,0.797,1.526,0.797c0.783,0,1.451-0.483,1.727-1.167c0.071-0.191,0.157-0.374,0.236-0.562L3.782,7.01z"/>
		
			<linearGradient id="path72_2_" gradientUnits="userSpaceOnUse" x1="1782.3423" y1="-2478.8752" x2="1786.208" y2="-2485.5708" gradientTransform="matrix(1 0 0 -1 -1782 -2475)">
			<stop  offset="0" style="stop-color:#FFFFFF"/>
			<stop  offset="0.5" style="stop-color:#FFFFFF;stop-opacity:0.6"/>
			<stop  offset="1" style="stop-color:#FFFFFF;stop-opacity:0.15"/>
		</linearGradient>
		<path id="path72_1_" fill="url(#path72_2_)" d="M1.959,4.937L1.945,9.135c0,0,0,0.001,0,0.003c0,0.026,0.006,0.051,0.008,0.077
			C2.272,8.438,2.718,7.49,3.322,6.486L1.959,4.937z"/>
		
			<linearGradient id="path149_2_" gradientUnits="userSpaceOnUse" x1="1785.2657" y1="-2476.7783" x2="1788.8955" y2="-2483.0654" gradientTransform="matrix(1 0 0 -1 -1782 -2475)">
			<stop  offset="0" style="stop-color:#FFFFFF"/>
			<stop  offset="0.5" style="stop-color:#FFFFFF;stop-opacity:0.6"/>
			<stop  offset="1" style="stop-color:#FFFFFF;stop-opacity:0.15"/>
		</linearGradient>
		<path id="path149_1_" fill="url(#path149_2_)" d="M5.391,1.076c-1.364-0.113-3.16,1.423-3.39,2.896l1.692,1.924
			c0.675-1.031,1.515-2.087,2.552-3.04L5.391,1.076z"/>
	</g>
	
		<radialGradient id="SVGID_2_" cx="1862.412" cy="1354.463" r="22.6588" gradientTransform="matrix(0.0197 0.9998 0.9109 -0.018 -1255.4794 -1826.5901)" gradientUnits="userSpaceOnUse">
		<stop  offset="0" style="stop-color:#FFFFFF;stop-opacity:0.6"/>
		<stop  offset="0.3783" style="stop-color:#FAFCFE;stop-opacity:0.4487"/>
		<stop  offset="0.829" style="stop-color:#EBF3FC;stop-opacity:0.2684"/>
		<stop  offset="1" style="stop-color:#E4EEFB;stop-opacity:0.2"/>
	</radialGradient>
	<path fill="url(#SVGID_2_)" d="M5.582,28.655c-1.774,0-3.216-1.465-3.216-3.267V6.9c0-0.023,0.004-0.221,0.151-0.369
		c0.123-0.123,0.32-0.186,0.585-0.186h7.441c0.294,0,0.443,0.035,0.532,0.125c0.198,0.199,0.206,0.501,0.206,0.505
		c-0.001,0.065,0.003,0.712,0.482,1.198c0.305,0.31,0.724,0.467,1.244,0.467c0,0,13.755-0.005,16.1-0.005
		c0.31,0,0.481,0.106,0.525,0.158v16.596c0,1.802-1.415,3.267-3.155,3.267L5.582,28.655L5.582,28.655L5.582,28.655z"/>
</g>
<g>
	<path opacity="0.3" fill="#FFFFFF" enable-background="new    " d="M10.972,26.247c-1.499,0-2.718-1.22-2.718-2.718V13.472
		c0-1.499,1.22-2.718,2.718-2.718h10.056c1.499,0,2.718,1.22,2.718,2.718v10.057c0,1.499-1.22,2.718-2.718,2.718L10.972,26.247
		L10.972,26.247z M21.028,24.655c0.621,0,1.127-0.506,1.127-1.126v-9.717l-0.472,0.085c-0.033,0.006-0.821,0.146-1.771,0.146
		c-0.099,0-0.199-0.002-0.299-0.004c0.01,0-1.048,0.056-1.901,0.315c0.111,0.037,0.177,0.086,0.228,0.156
		c0.014,0.018,0.03,0.054,0.051,0.107l0.1-0.087c3.572,3.109,1.338,6.388,1.317,6.421c-1.141,1.6-2.899,2.869-4.295,3.704
		L21.028,24.655L21.028,24.655z M9.844,20.543c0.517,0.199,1.508,0.513,2.707,0.535l0.4,0.009c0.291,0.006,0.571,0.013,0.843,0.013
		c1.31,0,2.283-0.15,3.38-0.92c1.397-0.979,1.241-2.54,1.233-2.605c-0.005-0.273-0.047-0.546-0.107-0.805
		c-0.002,0.386-0.037,0.786-0.127,1.166c-0.01,0.06-0.363,1.875-2.081,2.31c-0.263,0.065-0.528,0.099-0.792,0.099
		c-1.055,0-2.059-0.524-3.064-1.605c-0.79-0.848-1.925-3.172-2.198-5.889c-0.124,0.181-0.195,0.398-0.195,0.623v7.072L9.844,20.543
		L9.844,20.543z M15.118,18.759c0.005,0,0.127,0.041,0.296,0.041c0.525,0,0.983-0.377,1.33-1.09
		c0.014-0.023,0.286-0.521,0.351-1.576c-0.135,0.704-0.409,1.513-0.955,2.081c-0.035,0.04-0.445,0.482-0.936,0.482
		c-0.084,0-0.174-0.013-0.265-0.044C14.996,18.691,15.056,18.727,15.118,18.759L15.118,18.759z M15.031,12.345
		c-0.321,0.596-1.107,2.247-1.051,4.004c0,0.025-0.015,0.794,0.304,1.49c-0.033-0.103-0.062-0.22-0.089-0.349
		c-0.015-0.055-0.423-1.81,1.75-3.836c0.037-0.036,0.731-0.724,1.399-1.309L15.031,12.345L15.031,12.345z"/>
	<path opacity="0.3" fill="#669CCC" enable-background="new    " d="M21.028,11.104H10.972c-1.306,0-2.367,1.06-2.367,2.366v10.057
		c0,1.306,1.06,2.366,2.367,2.366h10.056c1.308,0,2.367-1.06,2.367-2.366V13.472C23.396,12.165,22.336,11.104,21.028,11.104z
		 M22.507,23.528c0,0.815-0.662,1.48-1.479,1.48h-7.27c1.265-0.655,3.876-2.176,5.36-4.26c0,0,2.114-3.015-1.258-5.953
		c0,0,0.868,1.363,0.898,2.736c0,0,0.216,1.817-1.382,2.934c-1.595,1.119-2.993,0.997-4.831,0.963
		c-1.47-0.026-2.641-0.472-3.052-0.651V13.47c0-0.589,0.348-1.094,0.846-1.332c0.127,2.961,1.367,5.509,2.155,6.356
		c0.805,0.867,1.994,1.788,3.513,1.405c1.519-0.384,1.824-2.049,1.824-2.049c0.333-1.419-0.149-3.103-0.174-3.139
		c-0.025-0.035-0.254-0.074-0.254-0.074c0.242,2.233-0.339,3.222-0.339,3.222c-0.848,1.751-2.101,1.212-2.101,1.212
		c-1.393-0.709-1.332-2.714-1.332-2.714c-0.069-2.089,0.997-4.024,1.195-4.368h3.519c-0.722,0.492-2.158,1.919-2.158,1.919
		c-2.046,1.907-1.644,3.511-1.644,3.511c0.332,1.683,1.343,0.547,1.343,0.547c1.067-1.109,0.983-3.315,0.983-3.315
		c-0.434,0.071-0.706,0.312-0.706,0.312c-0.051,1.471-0.913,2.384-0.913,2.384c-0.337,0.373-0.576,0.018-0.576,0.018
		c-0.177-0.266,0.175-0.452,0.175-0.452c0.493-0.435,0.641-1.176,0.632-1.454c-0.007-0.278,0.141-0.355,0.141-0.355
		c0.697-0.542,1.396-0.861,1.396-0.861c0.936-0.481,2.606-0.562,2.606-0.562c1.053,0.035,1.997-0.135,1.997-0.135l0.878-0.159
		c0,0.026,0.007,0.052,0.007,0.079v10.058L22.507,23.528L22.507,23.528L22.507,23.528z"/>
	<g opacity="0.3">
		<path opacity="0.5" fill="#669CCC" enable-background="new    " d="M21.558,13.204c-0.007,0.001-0.761,0.134-1.646,0.134
			c-0.09,0-0.184-0.001-0.276-0.004c-0.1,0.003-1.787,0.091-2.779,0.6c-0.007,0.003-0.167,0.077-0.409,0.211
			c0.189-0.185,1.454-1.428,2.092-1.863l0.944-0.643h-4.862l-0.102,0.175c-0.221,0.378-1.314,2.381-1.242,4.556
			c-0.003,0.069-0.051,2.215,1.524,3.015c0.045,0.021,0.277,0.116,0.612,0.116c0.465,0,1.337-0.193,1.963-1.489
			c0.003-0.004,0.049-0.082,0.109-0.234c-0.03,0.139-0.326,1.465-1.567,1.779c-0.207,0.052-0.414,0.079-0.619,0.079
			c-0.85,0-1.685-0.452-2.549-1.381c-0.76-0.818-1.941-3.333-2.059-6.133l-0.023-0.532l-0.481,0.229
			c-0.637,0.303-1.049,0.951-1.049,1.65v7.539l0.212,0.091c0.452,0.196,1.666,0.652,3.187,0.679l0.397,0.009
			c0.296,0.006,0.581,0.013,0.858,0.013c1.413-0.001,2.541-0.175,3.786-1.049c1.748-1.224,1.539-3.181,1.528-3.263
			c-0.005-0.225-0.03-0.449-0.072-0.667c0.97,1.995-0.144,3.635-0.206,3.722c-1.415,1.985-3.885,3.452-5.234,4.148l-1.284,0.665
			h8.717c1.01,0,1.832-0.821,1.832-1.831V13.47c0-0.033-0.003-0.064-0.009-0.095l-0.053-0.36l-0.362,0.031L21.558,13.204z
			 M22.507,13.472v10.057c0,0.815-0.662,1.48-1.479,1.48h-7.27c1.265-0.655,3.876-2.176,5.36-4.26c0,0,2.114-3.015-1.258-5.953
			c0,0,0.868,1.363,0.898,2.736c0,0,0.216,1.817-1.382,2.934c-1.595,1.119-2.993,0.997-4.831,0.963
			c-1.47-0.026-2.641-0.472-3.052-0.651v-7.307c0-0.589,0.348-1.094,0.846-1.332c0.127,2.961,1.367,5.509,2.155,6.356
			c0.805,0.867,1.994,1.788,3.513,1.405c1.519-0.384,1.824-2.049,1.824-2.049c0.333-1.419-0.149-3.103-0.174-3.139
			c-0.025-0.035-0.254-0.074-0.254-0.074c0.242,2.233-0.339,3.222-0.339,3.222c-0.848,1.751-2.101,1.212-2.101,1.212
			c-1.393-0.709-1.332-2.714-1.332-2.714c-0.069-2.089,0.997-4.024,1.195-4.368h3.519c-0.722,0.492-2.158,1.919-2.158,1.919
			c-2.046,1.907-1.644,3.511-1.644,3.511c0.332,1.683,1.343,0.547,1.343,0.547c1.067-1.109,0.983-3.315,0.983-3.315
			c-0.434,0.071-0.706,0.312-0.706,0.312c-0.051,1.471-0.913,2.384-0.913,2.384c-0.337,0.373-0.576,0.018-0.576,0.018
			c-0.177-0.266,0.175-0.452,0.175-0.452c0.493-0.435,0.641-1.176,0.632-1.454c-0.007-0.278,0.141-0.355,0.141-0.355
			c0.697-0.542,1.396-0.861,1.396-0.861c0.936-0.481,2.606-0.562,2.606-0.562c1.053,0.035,1.997-0.135,1.997-0.135L22.5,13.39
			C22.5,13.419,22.507,13.444,22.507,13.472z M15.056,17.862c0.13-0.024,0.293-0.097,0.453-0.276
			c0.033-0.033,0.883-0.948,0.995-2.43l0,0c-0.04,0.673-0.209,1.882-0.872,2.569c-0.107,0.117-0.306,0.267-0.428,0.267
			C15.161,17.992,15.11,17.951,15.056,17.862z"/>
		<path opacity="0.5" fill="#669CCC" enable-background="new    " d="M21.028,11.104H10.972c-1.306,0-2.367,1.06-2.367,2.366v10.057
			c0,1.306,1.06,2.366,2.367,2.366h10.056c1.308,0,2.367-1.06,2.367-2.366V13.472C23.396,12.165,22.336,11.104,21.028,11.104z
			 M23.043,23.528c0,1.111-0.904,2.014-2.014,2.014H10.972c-1.111,0-2.014-0.904-2.014-2.014V13.472
			c0-1.111,0.904-2.014,2.014-2.014h10.056c1.111,0,2.014,0.904,2.014,2.014L23.043,23.528L23.043,23.528z"/>
	</g>
	<g opacity="0.3">
		<path opacity="0.05" fill="#FFFFFF" enable-background="new    " d="M21.622,13.551c0,0-0.945,0.17-1.997,0.135
			c0,0-1.671,0.081-2.606,0.562c0,0-0.697,0.32-1.396,0.861c0,0-0.148,0.076-0.141,0.355c0.009,0.278-0.139,1.019-0.632,1.454
			c0,0-0.353,0.186-0.175,0.452c0,0,0.239,0.354,0.576-0.018c0,0,0.864-0.913,0.913-2.384c0,0,0.273-0.24,0.706-0.312
			c0,0,0.084,2.207-0.983,3.315c0,0-1.012,1.136-1.343-0.547c0,0-0.402-1.604,1.644-3.511c0,0,1.435-1.428,2.158-1.919h-3.519
			c-0.199,0.344-1.265,2.279-1.195,4.368c0,0-0.062,2.005,1.332,2.714c0,0,1.253,0.54,2.101-1.212c0,0,0.582-0.988,0.339-3.222
			c0,0,0.229,0.039,0.254,0.074c0.025,0.036,0.507,1.718,0.174,3.139c0,0-0.304,1.664-1.824,2.049
			c-1.519,0.382-2.707-0.538-3.513-1.405c-0.788-0.848-2.027-3.395-2.155-6.356c-0.499,0.238-0.846,0.743-0.846,1.332v7.308
			c0.411,0.179,1.583,0.625,3.052,0.651c1.838,0.033,3.235,0.156,4.831-0.963c1.597-1.118,1.382-2.934,1.382-2.934
			c-0.03-1.374-0.898-2.736-0.898-2.736c3.372,2.936,1.258,5.953,1.258,5.953c-1.483,2.083-4.095,3.604-5.36,4.259h7.27
			c0.817,0,1.479-0.663,1.479-1.48V13.472c0-0.027-0.007-0.052-0.007-0.079L21.622,13.551z M14.464,14.896
			c0.193-0.933,0.546-1.732,0.781-2.2h1.188c-0.405,0.38-0.713,0.686-0.728,0.699C15.147,13.918,14.749,14.425,14.464,14.896z
			 M13.793,20.746c-0.269,0-0.547-0.006-0.835-0.013l-0.402-0.009c-0.997-0.018-1.845-0.249-2.36-0.428v-4.877
			c0.475,1.587,1.172,2.902,1.781,3.558c0.977,1.049,1.962,1.609,3.004,1.703C14.618,20.73,14.228,20.746,13.793,20.746z
			 M21.802,23.528c0,0.427-0.348,0.775-0.774,0.775h-4.712c1.162-0.794,2.462-1.866,3.379-3.151c0.023-0.035,2.317-3.4-1.098-6.64
			c0.455-0.078,0.865-0.111,1.024-0.122c0.099,0.002,0.196,0.004,0.293,0.004c0.987,0,1.8-0.146,1.835-0.152l0.055-0.01
			C21.802,14.233,21.802,23.528,21.802,23.528z"/>
		<path opacity="0.05" fill="#FFFFFF" enable-background="new    " d="M21.028,10.401H10.972c-1.693,0-3.071,1.377-3.071,3.071
			V23.53c0,1.693,1.378,3.071,3.071,3.071h10.056c1.693,0,3.071-1.377,3.071-3.071V13.472C24.1,11.778,22.721,10.401,21.028,10.401z
			 M23.396,23.528c0,1.306-1.059,2.366-2.367,2.366H10.972c-1.306,0-2.367-1.06-2.367-2.366V13.472c0-1.307,1.06-2.366,2.367-2.366
			h10.056c1.308,0,2.367,1.06,2.367,2.366L23.396,23.528L23.396,23.528z"/>
	</g>
	<g opacity="0.3">
		<path opacity="0.9" fill="#FFFFFF" enable-background="new    " d="M19.119,21.101c0,0,0.706-1.01,0.649-2.43
			c-0.057,1.231-0.649,2.077-0.649,2.077c-1.483,2.084-4.094,3.605-5.36,4.26h0.651C15.78,24.236,17.855,22.872,19.119,21.101z"/>
		<path opacity="0.9" fill="#FFFFFF" enable-background="new    " d="M14.543,17.774c0.332,1.683,1.343,0.549,1.343,0.549
			c1.067-1.109,0.983-3.316,0.983-3.316c-0.002,0-0.003,0.001-0.003,0.001c-0.025,0.668-0.175,2.127-0.981,2.961
			c0,0-1.012,1.136-1.343-0.547c0,0-0.015-0.062-0.025-0.175C14.496,17.578,14.543,17.774,14.543,17.774z"/>
		<path opacity="0.9" fill="#FFFFFF" enable-background="new    " d="M13.629,16.425c0-0.02,0-0.039,0-0.059
			C13.629,16.371,13.629,16.391,13.629,16.425z"/>
		<path opacity="0.9" fill="#FFFFFF" enable-background="new    " d="M17.434,14.997c-0.018-0.003-0.032-0.006-0.032-0.006
			c0.035,0.314,0.052,0.601,0.055,0.868C17.463,15.6,17.456,15.314,17.434,14.997z"/>
		<path opacity="0.9" fill="#FFFFFF" enable-background="new    " d="M14.826,11.992c-0.197,0.341-1.251,2.254-1.195,4.329
			c0.062-1.936,1.009-3.655,1.195-3.977h3.061c0.167-0.139,0.324-0.262,0.458-0.353L14.826,11.992L14.826,11.992z"/>
		<path opacity="0.9" fill="#FFFFFF" enable-background="new    " d="M21.028,25.894H10.972c-1.306,0-2.367-1.06-2.367-2.366v0.351
			c0,1.308,1.06,2.367,2.367,2.367h10.056c1.308,0,2.367-1.059,2.367-2.367v-0.35C23.396,24.835,22.336,25.894,21.028,25.894z"/>
		<path opacity="0.9" fill="#FFFFFF" enable-background="new    " d="M22.5,13.391l-0.878,0.159c0,0-0.945,0.17-1.997,0.135
			c0,0-1.671,0.081-2.606,0.562c0,0-0.697,0.32-1.396,0.861c0,0-0.148,0.076-0.141,0.355c0.009,0.278-0.139,1.019-0.632,1.454
			c0,0-0.353,0.186-0.175,0.452c0,0,0.009,0.012,0.02,0.026c0.067-0.08,0.156-0.126,0.156-0.126
			c0.493-0.436,0.641-1.176,0.632-1.454c-0.007-0.278,0.141-0.355,0.141-0.355c0.182-0.141,0.363-0.265,0.532-0.375
			c0.002-0.04,0.007-0.079,0.009-0.12c0,0,0.273-0.24,0.706-0.312c0,0,0,0.01,0,0.019c0.092-0.047,0.149-0.073,0.149-0.073
			c0.936-0.481,2.606-0.561,2.606-0.561c1.053,0.034,1.997-0.136,1.997-0.136l0.878-0.159c0,0.026,0.007,0.052,0.007,0.079V13.47
			C22.507,13.444,22.5,13.419,22.5,13.391z"/>
		<path opacity="0.9" fill="#FFFFFF" enable-background="new    " d="M12.494,18.496c-0.788-0.848-2.027-3.395-2.155-6.356
			c-0.499,0.238-0.846,0.743-0.846,1.332v0.352c0-0.589,0.348-1.094,0.846-1.332c0.127,2.961,1.367,5.511,2.155,6.358
			c0.805,0.866,1.994,1.787,3.513,1.403c1.519-0.382,1.824-2.049,1.824-2.049c0.1-0.425,0.125-0.875,0.114-1.295
			c-0.009,0.313-0.04,0.634-0.114,0.944c0,0-0.304,1.664-1.824,2.049C14.487,20.284,13.3,19.363,12.494,18.496z"/>
	</g>
	<g opacity="0.3">
		<path opacity="0.5" fill="#669CCC" enable-background="new    " d="M14.518,17.236c0.038-0.622,0.324-1.741,1.67-2.995
			c0,0,1.435-1.428,2.158-1.919h-0.432c-0.747,0.616-1.727,1.589-1.727,1.589C14.552,15.436,14.482,16.763,14.518,17.236z"/>
		<path opacity="0.5" fill="#669CCC" enable-background="new    " d="M17.86,14.795c0,0,0.162,0.255,0.348,0.655
			c1.152,1.136,1.525,2.266,1.56,3.212C19.817,17.571,19.443,16.174,17.86,14.795z"/>
		<path opacity="0.5" fill="#669CCC" enable-background="new    " d="M17.657,14.715c-0.025-0.035-0.254-0.074-0.254-0.074
			c0.014,0.116,0.021,0.227,0.03,0.335c0.062,0.012,0.204,0.042,0.224,0.069c0.018,0.026,0.26,0.866,0.287,1.855
			C17.972,15.774,17.676,14.743,17.657,14.715z"/>
		<path opacity="0.5" fill="#669CCC" enable-background="new    " d="M13.629,16.3c-0.002,0.021,0,0.044,0,0.065V16.36
			C13.627,16.34,13.629,16.32,13.629,16.3z"/>
		<path opacity="0.5" fill="#669CCC" enable-background="new    " d="M15.251,17.351c-0.291,0.323-0.508,0.101-0.562,0.035
			c-0.06,0.08-0.099,0.188-0.014,0.313c0,0,0.239,0.354,0.576-0.018c0,0,0.864-0.915,0.913-2.385c0,0,0.273-0.239,0.702-0.31
			c0.007-0.204,0.003-0.332,0.003-0.332c-0.003,0.001-0.007,0.002-0.01,0.002c-0.156,0.08-0.409,0.216-0.704,0.407
			C16.073,16.477,15.251,17.351,15.251,17.351z"/>
		<path opacity="0.5" fill="#669CCC" enable-background="new    " d="M21.028,11.104H10.972c-1.306,0-2.367,1.06-2.367,2.366v0.331
			c0-1.307,1.06-2.366,2.367-2.366h10.056c1.308,0,2.367,1.06,2.367,2.366v-0.331C23.396,12.165,22.336,11.104,21.028,11.104z"/>
		<path opacity="0.5" fill="#669CCC" enable-background="new    " d="M12.546,21.76c1.838,0.033,3.235,0.156,4.831-0.963
			c1.435-1.005,1.407-2.569,1.387-2.876c-0.03,0.594-0.246,1.746-1.387,2.546c-1.595,1.119-2.993,0.997-4.831,0.963
			c-1.47-0.026-2.641-0.472-3.052-0.651v0.331C9.904,21.288,11.076,21.734,12.546,21.76z"/>
		<path opacity="0.5" fill="#669CCC" enable-background="new    " d="M14.961,19.404c0,0,1.253,0.54,2.101-1.212
			c0,0,0.425-0.728,0.395-2.338c-0.028,1.38-0.395,2.008-0.395,2.008c-0.848,1.751-2.101,1.212-2.101,1.212
			c-1.248-0.636-1.328-2.306-1.332-2.648c-0.002,0.089-0.003,0.175,0,0.265C13.629,16.69,13.568,18.695,14.961,19.404z"/>
		<path opacity="0.5" fill="#669CCC" enable-background="new    " d="M21.028,25.337c0.817,0,1.479-0.663,1.479-1.479v-0.331
			c0,0.815-0.662,1.48-1.479,1.48H14.37c-0.226,0.125-0.434,0.238-0.612,0.33C13.758,25.337,21.028,25.337,21.028,25.337z"/>
	</g>
</g>
</svg>
