<?xml version="1.0" encoding="utf-8"?>
<!-- Generator: Adobe Illustrator 17.0.0, SVG Export Plug-In . SVG Version: 6.00 Build 0)  -->
<!DOCTYPE svg PUBLIC "-//W3C//DTD SVG 1.1//EN" "http://www.w3.org/Graphics/SVG/1.1/DTD/svg11.dtd">
<svg version="1.1" id="图层_1" xmlns="http://www.w3.org/2000/svg" xmlns:xlink="http://www.w3.org/1999/xlink" x="0px" y="0px"
	 width="32px" height="32px" viewBox="0 0 32 32" enable-background="new 0 0 32 32" xml:space="preserve">
<g>
	<g id="g151" opacity="0.5">
		<path id="path153" opacity="0.08" enable-background="new    " d="M27.059,29.57H4.96c-2.035,0-3.693-1.595-3.693-3.549v2.714
			c0,1.527,1.297,2.764,2.886,2.764h23.711c1.589,0,2.868-1.238,2.868-2.764v-2.714C30.733,27.977,29.093,29.57,27.059,29.57z"/>
		<path id="path155" opacity="0.1" enable-background="new    " d="M27.04,29.57H4.941c-2.034,0-3.674-1.566-3.674-3.519v1.42
			c0,1.527,0.7,3.387,3.538,3.387s19.496,0,22.371,0s3.557-1.86,3.557-3.387v-1.42C30.733,28.006,29.074,29.57,27.04,29.57z"/>
		<path id="path157" opacity="0.1" enable-background="new    " d="M27.04,29.57H4.941c-2.034,0-3.674-1.566-3.674-3.519v0.766
			c0,1.527,1.215,3.397,3.538,3.397s19.711,0,22.371,0c2.66,0,3.557-1.87,3.557-3.396v-0.766
			C30.733,28.006,29.074,29.57,27.04,29.57z"/>
		<rect id="rect159" x="4.615" y="29.57" opacity="0.05" enable-background="new    " width="22.769" height="0.643"/>
		<rect id="rect161" x="5.285" y="29.57" opacity="0.05" enable-background="new    " width="20.76" height="0.643"/>
		<rect id="rect163" x="5.285" y="30.214" opacity="0.05" enable-background="new    " width="20.76" height="0.643"/>
		<rect id="rect165" x="6.624" y="30.214" opacity="0.05" enable-background="new    " width="18.751" height="0.643"/>
		<rect id="rect167" x="8.633" y="30.214" opacity="0.05" enable-background="new    " width="14.733" height="0.643"/>
		<rect id="rect169" x="11.312" y="30.214" opacity="0.05" enable-background="new    " width="9.376" height="0.643"/>
		<rect id="rect171" x="6.624" y="29.57" opacity="0.05" enable-background="new    " width="18.751" height="0.643"/>
		<rect id="rect173" x="7.964" y="29.57" opacity="0.05" enable-background="new    " width="16.072" height="0.643"/>
		<rect id="rect175" x="8.633" y="29.57" opacity="0.05" enable-background="new    " width="14.733" height="0.643"/>
		<rect id="rect177" x="9.973" y="29.57" opacity="0.05" enable-background="new    " width="12.054" height="0.643"/>
		<rect id="rect179" x="9.973" y="29.57" opacity="0.05" enable-background="new    " width="12.054" height="0.643"/>
	</g>
	<path fill="#C4DCED" stroke="#9DBCD7" stroke-miterlimit="10" d="M30.466,25.625c0,2.104-1.706,3.809-3.809,3.809H5.342
		c-2.104,0-3.809-1.706-3.809-3.809V4.309c0-2.104,1.706-3.809,3.809-3.809h21.316c2.104,0,3.809,1.706,3.809,3.809L30.466,25.625
		L30.466,25.625z"/>
	<path opacity="0.6" fill="none" stroke="#FFFFFF" stroke-miterlimit="10" enable-background="new    " d="M5.342,28.434
		c-1.549,0-2.809-1.261-2.809-2.81V4.309c0-1.549,1.26-2.809,2.809-2.809h21.316c1.549,0,2.809,1.26,2.809,2.809v21.315
		c0,1.549-1.261,2.81-2.81,2.81C26.657,28.435,5.342,28.435,5.342,28.434z"/>
	<path opacity="0.05" fill="none" stroke="#000000" stroke-miterlimit="10" enable-background="new    " d="M30.569,8.482
		c0,0,0-1.28-1.264-1.28c-3.669,0-15.386,0.002-16.434,0.002c-1.275,0-1.264-1.262-1.264-1.262s0-1.27-1.264-1.27
		c-2.213,0-6.645,0-7.585,0c-1.245,0-1.264,1.224-1.264,1.263"/>
	
		<linearGradient id="SVGID_1_" gradientUnits="userSpaceOnUse" x1="1385.9995" y1="-1686.4335" x2="1385.9995" y2="-1662.5765" gradientTransform="matrix(1 0 0 -1 -1370 -1657)">
		<stop  offset="0" style="stop-color:#D1E0ED"/>
		<stop  offset="1" style="stop-color:#E4EEFB"/>
	</linearGradient>
	<path fill="url(#SVGID_1_)" stroke="#9DBCD7" stroke-miterlimit="10" d="M5.334,29.433h21.395c2.104,0,3.738-1.749,3.738-3.853V8.5
		c0-0.3-0.448-0.582-1.045-0.582c-3.685,0-15.435,0.002-16.488,0.002c-1.28,0-1.261-1.168-1.261-1.168s0.009-1.176-1.261-1.176
		c-2.222,0-6.674,0-7.618,0c-1.25,0-1.262,1.036-1.262,1.075v18.93C1.533,27.684,3.23,29.433,5.334,29.433z"/>
	<path opacity="0.8" fill="none" stroke="#FFFFFF" stroke-miterlimit="10" enable-background="new    " d="M5.333,28.434
		c-1.544,0-2.8-1.279-2.801-2.853V6.651c0.031-0.045,0.105-0.075,0.261-0.075h7.618c0.144,0,0.202,0.029,0.21,0.037
		c0.028,0.029,0.051,0.131,0.051,0.132c-0.002,0.142,0.016,0.928,0.618,1.541c0.285,0.29,0.8,0.634,1.642,0.634
		c0,0,16.519-0.001,16.533-0.001v16.662c0,1.573-1.229,2.853-2.738,2.853C26.727,28.435,5.333,28.435,5.333,28.434z"/>
	<g id="g27_1_">
		
			<linearGradient id="path36_2_" gradientUnits="userSpaceOnUse" x1="1784.7555" y1="-2475.4534" x2="1788.7751" y2="-2482.4158" gradientTransform="matrix(1 0 0 -1 -1782 -2475)">
			<stop  offset="0" style="stop-color:#FFFFFF"/>
			<stop  offset="0.5" style="stop-color:#FFFFFF;stop-opacity:0.6"/>
			<stop  offset="1" style="stop-color:#FFFFFF;stop-opacity:0.15"/>
		</linearGradient>
		<path id="path36_1_" fill="url(#path36_2_)" d="M6.07,8.598c0.449-0.93,0.998-1.802,1.627-2.607L6.552,3.48
			C5.574,4.404,4.781,5.424,4.147,6.412L6.07,8.598z"/>
		
			<linearGradient id="path45_2_" gradientUnits="userSpaceOnUse" x1="1788.3998" y1="-2474.4114" x2="1791.0304" y2="-2478.9678" gradientTransform="matrix(1 0 0 -1 -1782 -2475)">
			<stop  offset="0" style="stop-color:#FFFFFF"/>
			<stop  offset="0.5" style="stop-color:#FFFFFF;stop-opacity:0.6"/>
			<stop  offset="1" style="stop-color:#FFFFFF;stop-opacity:0.15"/>
		</linearGradient>
		<path id="path45_1_" fill="url(#path45_2_)" d="M6.189,1.067l0.598,1.311C7.363,1.9,7.994,1.736,8.682,1.067H6.189z"/>
		
			<linearGradient id="path54_2_" gradientUnits="userSpaceOnUse" x1="1789.2275" y1="-2473.5459" x2="1792.4418" y2="-2479.113" gradientTransform="matrix(1 0 0 -1 -1782 -2475)">
			<stop  offset="0" style="stop-color:#FFFFFF"/>
			<stop  offset="0.5" style="stop-color:#FFFFFF;stop-opacity:0.6"/>
			<stop  offset="1" style="stop-color:#FFFFFF;stop-opacity:0.15"/>
		</linearGradient>
		<path id="path54_1_" fill="url(#path54_2_)" d="M10.68,1.067h-0.473C9.013,1.736,7.969,2.247,7.074,3.009l1.097,2.408
			c0.937-1.083,2.025-2.032,3.243-2.798c0.009-0.008,0.016-0.016,0.026-0.024C12.804,1.416,11.449,1.067,10.68,1.067z"/>
		
			<linearGradient id="path63_2_" gradientUnits="userSpaceOnUse" x1="1782.4993" y1="-2478.6277" x2="1785.9874" y2="-2484.6692" gradientTransform="matrix(1 0 0 -1 -1782 -2475)">
			<stop  offset="0" style="stop-color:#FFFFFF"/>
			<stop  offset="0.5" style="stop-color:#FFFFFF;stop-opacity:0.6"/>
			<stop  offset="1" style="stop-color:#FFFFFF;stop-opacity:0.15"/>
		</linearGradient>
		<path id="path63_1_" fill="url(#path63_2_)" d="M3.782,7.01c-0.734,1.25-1.214,2.405-1.499,3.195
			c0.337,0.481,0.894,0.797,1.526,0.797c0.783,0,1.451-0.483,1.727-1.167c0.071-0.191,0.157-0.374,0.236-0.562L3.782,7.01z"/>
		
			<linearGradient id="path72_2_" gradientUnits="userSpaceOnUse" x1="1782.3423" y1="-2478.8752" x2="1786.208" y2="-2485.5708" gradientTransform="matrix(1 0 0 -1 -1782 -2475)">
			<stop  offset="0" style="stop-color:#FFFFFF"/>
			<stop  offset="0.5" style="stop-color:#FFFFFF;stop-opacity:0.6"/>
			<stop  offset="1" style="stop-color:#FFFFFF;stop-opacity:0.15"/>
		</linearGradient>
		<path id="path72_1_" fill="url(#path72_2_)" d="M1.959,4.937L1.945,9.135c0,0,0,0.001,0,0.003c0,0.026,0.006,0.051,0.008,0.077
			C2.272,8.438,2.718,7.49,3.322,6.486L1.959,4.937z"/>
		
			<linearGradient id="path149_2_" gradientUnits="userSpaceOnUse" x1="1785.2657" y1="-2476.7783" x2="1788.8955" y2="-2483.0654" gradientTransform="matrix(1 0 0 -1 -1782 -2475)">
			<stop  offset="0" style="stop-color:#FFFFFF"/>
			<stop  offset="0.5" style="stop-color:#FFFFFF;stop-opacity:0.6"/>
			<stop  offset="1" style="stop-color:#FFFFFF;stop-opacity:0.15"/>
		</linearGradient>
		<path id="path149_1_" fill="url(#path149_2_)" d="M5.391,1.076c-1.364-0.113-3.16,1.423-3.39,2.896l1.692,1.924
			c0.675-1.031,1.515-2.087,2.552-3.04L5.391,1.076z"/>
	</g>
	
		<radialGradient id="SVGID_2_" cx="1862.412" cy="1354.463" r="22.6588" gradientTransform="matrix(0.0197 0.9998 0.9109 -0.018 -1255.4794 -1826.5901)" gradientUnits="userSpaceOnUse">
		<stop  offset="0" style="stop-color:#FFFFFF;stop-opacity:0.6"/>
		<stop  offset="0.3783" style="stop-color:#FAFCFE;stop-opacity:0.4487"/>
		<stop  offset="0.829" style="stop-color:#EBF3FC;stop-opacity:0.2684"/>
		<stop  offset="1" style="stop-color:#E4EEFB;stop-opacity:0.2"/>
	</radialGradient>
	<path fill="url(#SVGID_2_)" d="M5.582,28.655c-1.774,0-3.216-1.465-3.216-3.267V6.9c0-0.023,0.004-0.221,0.151-0.369
		c0.123-0.123,0.32-0.186,0.585-0.186h7.441c0.294,0,0.443,0.035,0.532,0.125c0.198,0.199,0.206,0.501,0.206,0.505
		c-0.001,0.065,0.003,0.712,0.482,1.198c0.305,0.31,0.724,0.467,1.244,0.467c0,0,13.755-0.005,16.1-0.005
		c0.31,0,0.481,0.106,0.525,0.158v16.596c0,1.802-1.415,3.267-3.155,3.267L5.582,28.655L5.582,28.655L5.582,28.655z"/>
</g>
<g>
	<g opacity="0.3" enable-background="new    ">
		<g>
			<path fill="#FFFFFF" d="M16,26.91c-4.623,0-8.383-3.761-8.383-8.383s3.761-8.383,8.383-8.383s8.383,3.761,8.383,8.383
				S20.623,26.91,16,26.91z M16,11.192c-4.045,0-7.335,3.291-7.335,7.335s3.291,7.335,7.335,7.335s7.335-3.292,7.335-7.335
				C23.335,14.482,20.044,11.192,16,11.192z"/>
		</g>
		<g>
			<path fill="#669CCC" d="M16,26.404c-4.623,0-8.383-3.761-8.383-8.383S11.377,9.637,16,9.637s8.383,3.761,8.383,8.383
				S20.623,26.404,16,26.404z M16,10.685c-4.045,0-7.335,3.291-7.335,7.335s3.291,7.335,7.335,7.335s7.335-3.292,7.335-7.335
				C23.335,13.975,20.044,10.685,16,10.685z"/>
		</g>
	</g>
	<g>
		<path opacity="0.3" fill="#669CCC" enable-background="new    " d="M16,10.422c-4.189,0-7.598,3.408-7.598,7.598
			s3.409,7.597,7.598,7.597s7.598-3.409,7.598-7.598S20.189,10.422,16,10.422z M16,25.355c-4.045,0-7.335-3.292-7.335-7.335
			c0-4.045,3.291-7.335,7.335-7.335s7.335,3.291,7.335,7.335S20.044,25.355,16,25.355z"/>
		<path opacity="0.3" fill="#669CCC" enable-background="new    " d="M16,9.637c-4.623,0-8.383,3.761-8.383,8.383
			s3.761,8.384,8.383,8.384s8.383-3.761,8.383-8.383S20.623,9.637,16,9.637z M16,26.141c-4.477,0-8.12-3.643-8.12-8.12
			S11.522,9.899,16,9.899c4.477,0,8.12,3.643,8.12,8.12C24.12,22.498,20.477,26.141,16,26.141z"/>
	</g>
	<g>
		<g>
			<g>
				<g>
					<g>
						<g>
							<defs>
								<circle id="SVGID_7_" cx="16" cy="18.527" r="6.976"/>
							</defs>
							<clipPath id="SVGID_3_">
								<use xlink:href="#SVGID_7_"  overflow="visible"/>
							</clipPath>
							<path opacity="0.3" clip-path="url(#SVGID_3_)" fill="#FFFFFF" enable-background="new    " d="M14.019,11.737
								c0.273,0.366,0.018,0.98,0.432,0.973c0.2,0.285-0.401,0.085,0.033,0.304c0.25,0.196-0.264,0.309,0.045,0.485
								c-0.355,0.183,0.059,0.96,0.324,1.154c0.436,0.366,0.192-0.776,0.679-0.835c0.264-0.301,0.728-0.494,1.058-0.798
								c-0.323-0.025-0.51-0.226-0.205-0.35c0.562,0.574,0.141-0.272-0.17-0.405c0.301-0.096,0.594-0.025,0.552-0.273
								c0.318-0.233-0.306-0.307-0.528-0.255C15.498,11.737,14.758,11.737,14.019,11.737z M9.407,11.977
								C9,12.093,8.971,13.062,9.38,12.524C9.48,12.304,9.943,12.036,9.407,11.977z M11.305,12.011
								c-0.234,0.366,0.035,0.66,0.228,0.213C11.672,12.038,11.431,12.018,11.305,12.011z M11.891,12.094
								c-0.453,0.209-0.111,0.698-0.1,0.807c0.477,0.165,0.742-0.108,0.923,0.358c0.454,0.261-0.01,0.714-0.18,0.832
								c0.307-0.268,0.897,0.723,0.741,0.2c-0.184-0.134,0.496,0.216,0.144-0.22c-0.325-0.522,0.027-0.233,0.163-0.111
								c0.465-0.416-0.527-0.467-0.279-0.895c-0.217-0.176-0.502-0.707-0.885-0.603c-0.258,0.331-0.037-0.725-0.413-0.196
								c-0.02,0.295-0.007,0.67-0.117,0.158C11.813,12.334,12.013,12.125,11.891,12.094z M10.967,12.097
								c-0.303,0.1-0.287,0.51,0.087,0.555C11.182,12.506,11.104,12.125,10.967,12.097z M9.781,12.228
								c-0.394,0.094-0.233,0.411-0.113,0.501c-0.488,0.122,0.746,0.156,0.131,0.233c-0.51,0.204,0.493,0.444,0.658,0.203
								c0.63,0.155,0.022-0.504-0.032-0.861c-0.268-0.287-0.01,0.66-0.253,0.031C10.087,12.521,9.82,12.361,9.781,12.228z
								 M22.323,12.27c-0.53,0.206,0.329,0.988,0.116,0.277C22.417,12.461,22.487,12.234,22.323,12.27z M11.264,12.584
								c-0.381,0.356,0.483,0.652-0.11,0.918c-0.088-0.332-0.242,0.166-0.58-0.102c-0.583,0.242-0.882-0.127-1.37-0.379
								c-0.293-0.037-0.183,0.278-0.203,0.572c0,0.814,0,1.628,0,2.442c0.287,0.303,0.113,0.133,0,0.05
								c0.158,0.537-0.07,1.321,0.552,1.632c0.106,0.195,0.549,1.03,0.571,0.781c-0.222-0.233-0.451-0.93-0.074-0.308
								c0.338,0.591,0.793,0.974,1.457,1.114c0.364,0.122,0.662,0.547,0.981,0.454c0.18,0.475-0.536,0.932,0.024,1.375
								c0.292,0.449,0.782,0.743,0.517,1.373c-0.186,0.616-0.106,1.285-0.267,1.86c-0.05,0.349,0.488,1.234,0.44,0.526
								c0.157-0.493,0.152-1.036,0.522-1.384c0.505,0.004,0.096-0.543,0.598-0.471c0.306-0.401,0.396-0.878,0.912-1.037
								c0.061-0.486,0.86-1.231,0.035-1.42c-0.224-0.11-0.8-0.15-0.756-0.204c0.09-0.483-0.745-0.621-1.1-0.818
								c-0.466-0.33-1.167,0.549-1.331-0.208c-0.098-0.238-0.457-0.242-0.292-0.61c-0.297,0.295-0.877,0.205-0.725-0.364
								c0.231-0.479,1.117-0.502,1.268,0.074c-0.21-0.636,0.405-1.131,0.747-1.584c0.069-0.217,0.482-0.403,0.34-0.116
								c0.242-0.009,0.61-0.444,0.18-0.244c-0.007-0.398-0.377-0.285-0.499-0.228c0.223-0.354,1.368-0.16,0.888-0.738
								c-0.371-0.15-0.34-1.027-0.717-0.538c0.032-0.301-0.765-0.89-0.747-0.385c0.096,0.451,0.018,0.971-0.189,1.268
								c-0.043-0.662-1.174-0.516-1.029-1.22c0.21-0.337,0.457-0.801,0.479-0.759c0.377-0.144,0.681-0.562,0.244-0.837
								c-0.024,0.239-0.329,0.734-0.286,0.136C11.464,13.542,11.529,12.673,11.264,12.584z M20.298,12.815
								c-0.663,0.161-0.926,0.793-1.254,1.317c-0.483,0.217-0.465,1.152,0.075,0.853c0.144,0.253-0.102,0.649,0.32,0.32
								c0.34-0.449,0.06-1.174,0.637-1.457c0.042,0.219-0.533,1.041,0.138,0.906c0.608,0.024-0.442,0.06-0.146,0.447
								c-0.307-0.181-0.148,0.496-0.548,0.339c-0.347,0.189-0.575-0.088-0.494-0.39c-0.273,0.159,0.085,0.608-0.388,0.634
								c-0.106,0.377-0.98,0.32-0.483,0.702c0.22,0.571-0.821,0.035-0.526,0.72c0.253,0.676,0.783-0.224,0.999-0.398
								c0.415-0.321,1.03,0.548,0.656,0.58c0.418-0.056,0.333-0.454-0.003-0.608c-0.181-0.468,0.574,0.23,0.532,0.465
								c0.266,0.497,0.156-0.51,0.428-0.063c-0.032,0.471,1.09,0.111,0.555,0.711c-0.46,0.094-0.915-0.118-1.311,0.017
								c-0.369-0.004-0.351-0.397-0.485-0.496c-0.47,0.038-1.05,0.033-1.364,0.412c-0.34,0.465-0.83,1.116-0.46,1.71
								c0.371,0.881,1.29,0.046,1.819,0.566c0.157,0.217-0.136,0.474,0.215,0.71c0.133,0.501-0.15,0.976,0.175,1.454
								c0.167,0.45,0.272,1.122,0.897,0.712c0.661-0.397,0.485-1.129,1.03-1.535c-0.432-0.834,0.528-1.199,0.767-1.876
								c-0.523,0.077-0.989-0.444-1.116-0.969c-0.219-0.255-0.163-0.63,0.082-0.152c0.338,0.327,0.345,1.295,0.969,0.796
								c0.286-0.119,1.065-0.574,0.444-0.781c-0.4,0.289-0.842-0.865-0.254-0.195c0.427,0.181,0.726,0.288,0.726-0.312
								c0-1.617,0-3.255,0-4.882c-0.133,0.136-0.475,0.386-0.647,0.219c-0.297,0.041-0.689,0.618-0.595,0.06
								c-0.259-0.017-0.046,0.499-0.401,0.515c-0.035,0.266-0.358,0.049-0.237,0.301c-0.249-0.176-0.46-0.733,0.031-0.383
								c0.728-0.217-0.479-0.71-0.574-0.829C20.664,12.924,20.337,12.762,20.298,12.815z M17.115,13.748
								c-0.241,0.276-0.558-0.072-0.564,0.166c0.043,0.071,0.217,0.584,0.601,0.205C17.358,14.032,17.276,13.815,17.115,13.748z
								 M11.996,13.914c-0.455,0.397,0.775,0.435,0.096,0.046L11.996,13.914z M18.012,15.013c-0.328,0.214,0.157,0.668-0.007,0.881
								c-0.205,0.358,0.765-0.025,0.246-0.311C18.213,15.339,17.947,15.039,18.012,15.013z M17.791,15.445
								c-0.457,0.129-0.105,0.795,0.059,0.167C17.858,15.576,17.869,15.443,17.791,15.445z M14.128,15.927
								c-0.425,0.289-0.066,0.579,0.245,0.449C14.31,16.201,14.13,16.091,14.128,15.927z M22.166,16.414
								c0.212,0.107-0.389,0.289-0.009,0.478c0.222,0.261,0.138,0.819-0.222,0.423C22.002,16.874,21.447,16.544,22.166,16.414z
								 M21.074,16.417c-0.029,0.284,0.613,0.723-0.079,0.58c-0.366,0.043-0.913-0.011-0.453-0.466
								c0.146-0.088,0.527,0.301,0.329-0.063C20.942,16.466,21.007,16.438,21.074,16.417z M12.262,18.63
								c-0.045,0.15,0.843,0.301,0.231,0.061l-0.091-0.032L12.262,18.63z M21.967,21.349c-0.586,0.015-0.508,1.523-0.1,0.63
								C21.906,21.786,22.061,21.53,21.967,21.349z"/>
						</g>
					</g>
				</g>
			</g>
		</g>
		<g>
			<g>
				<g>
					<g>
						<g>
							<defs>
								<circle id="SVGID_9_" cx="16" cy="18.02" r="6.976"/>
							</defs>
							<clipPath id="SVGID_4_">
								<use xlink:href="#SVGID_9_"  overflow="visible"/>
							</clipPath>
							<path opacity="0.3" clip-path="url(#SVGID_4_)" fill="#669CCC" enable-background="new    " d="M14.019,11.23
								c0.273,0.366,0.018,0.98,0.432,0.973c0.2,0.285-0.401,0.085,0.033,0.304c0.25,0.196-0.264,0.309,0.045,0.485
								c-0.355,0.183,0.059,0.96,0.324,1.154c0.436,0.366,0.192-0.776,0.679-0.835c0.264-0.301,0.728-0.494,1.058-0.798
								c-0.323-0.025-0.51-0.226-0.205-0.35c0.562,0.574,0.141-0.272-0.17-0.405c0.301-0.096,0.594-0.025,0.552-0.273
								c0.318-0.233-0.306-0.307-0.528-0.255C15.498,11.23,14.758,11.23,14.019,11.23z M9.407,11.47
								C9,11.586,8.971,12.555,9.38,12.017C9.48,11.796,9.943,11.529,9.407,11.47z M11.305,11.504
								c-0.234,0.366,0.035,0.66,0.228,0.213C11.672,11.531,11.431,11.51,11.305,11.504z M11.891,11.587
								c-0.453,0.209-0.111,0.698-0.1,0.807c0.477,0.165,0.742-0.108,0.923,0.358c0.454,0.261-0.01,0.714-0.18,0.832
								c0.307-0.268,0.897,0.723,0.741,0.2c-0.184-0.134,0.496,0.216,0.144-0.22c-0.325-0.522,0.027-0.233,0.163-0.111
								c0.465-0.416-0.527-0.467-0.279-0.895c-0.217-0.176-0.502-0.707-0.885-0.603c-0.258,0.331-0.037-0.725-0.413-0.196
								c-0.02,0.295-0.007,0.67-0.117,0.158C11.813,11.826,12.013,11.619,11.891,11.587z M10.967,11.591
								c-0.303,0.1-0.287,0.51,0.087,0.555C11.182,11.999,11.104,11.617,10.967,11.591z M9.781,11.721
								c-0.394,0.094-0.233,0.411-0.113,0.501c-0.488,0.122,0.746,0.156,0.131,0.233c-0.51,0.204,0.493,0.444,0.658,0.203
								c0.63,0.155,0.022-0.504-0.032-0.861c-0.268-0.287-0.01,0.66-0.253,0.031C10.087,12.013,9.82,11.854,9.781,11.721z
								 M22.323,11.762c-0.53,0.206,0.329,0.988,0.116,0.277C22.417,11.954,22.487,11.728,22.323,11.762z M11.264,12.077
								c-0.381,0.356,0.483,0.652-0.11,0.918c-0.088-0.332-0.242,0.166-0.58-0.102c-0.583,0.242-0.882-0.127-1.37-0.379
								c-0.293-0.037-0.183,0.278-0.203,0.572c0,0.814,0,1.628,0,2.442c0.287,0.303,0.113,0.133,0,0.05
								c0.158,0.537-0.07,1.321,0.552,1.632c0.106,0.195,0.549,1.03,0.571,0.781c-0.222-0.233-0.451-0.93-0.074-0.308
								c0.338,0.591,0.793,0.974,1.457,1.114c0.364,0.122,0.662,0.547,0.981,0.454c0.18,0.475-0.536,0.932,0.024,1.375
								c0.292,0.449,0.782,0.743,0.517,1.373c-0.186,0.616-0.106,1.285-0.267,1.86c-0.05,0.349,0.488,1.234,0.44,0.526
								c0.157-0.493,0.152-1.036,0.522-1.384c0.505,0.004,0.096-0.543,0.598-0.471c0.306-0.401,0.396-0.878,0.912-1.037
								c0.061-0.486,0.86-1.231,0.035-1.42c-0.224-0.11-0.8-0.15-0.756-0.204c0.09-0.483-0.745-0.621-1.1-0.818
								c-0.466-0.331-1.167,0.549-1.331-0.208c-0.098-0.238-0.457-0.242-0.292-0.61c-0.297,0.295-0.877,0.205-0.725-0.364
								c0.231-0.479,1.117-0.502,1.268,0.074c-0.21-0.636,0.405-1.131,0.747-1.584c0.069-0.217,0.482-0.403,0.34-0.116
								c0.242-0.009,0.61-0.444,0.18-0.244c-0.007-0.398-0.377-0.285-0.499-0.228c0.223-0.354,1.368-0.16,0.888-0.738
								c-0.371-0.15-0.34-1.027-0.717-0.538c0.032-0.301-0.765-0.89-0.747-0.385c0.096,0.451,0.018,0.971-0.189,1.268
								c-0.043-0.662-1.174-0.516-1.029-1.22c0.21-0.337,0.457-0.801,0.479-0.759c0.377-0.144,0.681-0.562,0.244-0.837
								c-0.024,0.239-0.329,0.734-0.286,0.136C11.464,13.034,11.529,12.166,11.264,12.077z M20.298,12.309
								c-0.663,0.161-0.926,0.793-1.254,1.317c-0.483,0.217-0.465,1.152,0.075,0.853c0.144,0.253-0.102,0.649,0.32,0.32
								c0.34-0.449,0.06-1.174,0.637-1.457c0.042,0.219-0.533,1.041,0.138,0.906c0.608,0.024-0.442,0.06-0.146,0.447
								c-0.307-0.181-0.148,0.496-0.548,0.339c-0.346,0.189-0.575-0.088-0.494-0.39c-0.273,0.159,0.085,0.608-0.388,0.634
								c-0.106,0.377-0.98,0.32-0.483,0.702c0.22,0.571-0.821,0.035-0.526,0.72c0.253,0.676,0.783-0.224,0.999-0.398
								c0.415-0.321,1.03,0.548,0.656,0.58c0.418-0.056,0.333-0.454-0.003-0.608c-0.181-0.468,0.574,0.23,0.532,0.465
								c0.266,0.498,0.156-0.51,0.428-0.063c-0.032,0.471,1.09,0.111,0.555,0.711c-0.46,0.094-0.915-0.118-1.311,0.017
								c-0.369-0.004-0.351-0.397-0.485-0.496c-0.47,0.038-1.05,0.033-1.364,0.412c-0.34,0.465-0.83,1.116-0.46,1.71
								c0.371,0.881,1.29,0.046,1.819,0.566c0.157,0.217-0.136,0.474,0.215,0.71c0.133,0.501-0.15,0.976,0.175,1.454
								c0.167,0.45,0.272,1.122,0.897,0.712c0.661-0.397,0.485-1.129,1.03-1.535c-0.432-0.834,0.528-1.199,0.767-1.876
								c-0.523,0.077-0.989-0.444-1.116-0.969c-0.219-0.255-0.163-0.63,0.082-0.152c0.338,0.327,0.345,1.295,0.969,0.796
								c0.286-0.119,1.065-0.574,0.444-0.781c-0.4,0.289-0.842-0.865-0.254-0.195c0.427,0.181,0.726,0.288,0.726-0.312
								c0-1.617,0-3.255,0-4.882c-0.133,0.136-0.475,0.386-0.647,0.219c-0.297,0.041-0.689,0.618-0.595,0.06
								c-0.259-0.017-0.046,0.499-0.401,0.515c-0.035,0.266-0.358,0.049-0.237,0.301c-0.249-0.176-0.46-0.733,0.031-0.383
								c0.728-0.217-0.479-0.71-0.574-0.829C20.664,12.418,20.337,12.255,20.298,12.309z M17.115,13.24
								c-0.241,0.276-0.558-0.072-0.564,0.166c0.043,0.071,0.217,0.584,0.601,0.205C17.358,13.525,17.276,13.307,17.115,13.24z
								 M11.996,13.406c-0.455,0.397,0.775,0.435,0.096,0.046L11.996,13.406z M18.012,14.506c-0.328,0.214,0.157,0.668-0.007,0.881
								c-0.205,0.358,0.765-0.025,0.246-0.311C18.213,14.831,17.947,14.532,18.012,14.506z M17.791,14.937
								c-0.457,0.129-0.105,0.795,0.059,0.167C17.858,15.068,17.869,14.935,17.791,14.937z M14.128,15.42
								c-0.425,0.289-0.066,0.579,0.245,0.449C14.31,15.693,14.13,15.584,14.128,15.42z M22.166,15.907
								c0.212,0.107-0.389,0.289-0.009,0.478c0.222,0.261,0.138,0.819-0.222,0.423C22.002,16.367,21.447,16.037,22.166,15.907z
								 M21.074,15.91c-0.029,0.284,0.613,0.723-0.079,0.58c-0.366,0.043-0.913-0.011-0.453-0.466
								c0.146-0.088,0.527,0.301,0.329-0.063C20.942,15.958,21.007,15.932,21.074,15.91z M12.262,18.123
								c-0.045,0.15,0.843,0.301,0.231,0.061l-0.091-0.032L12.262,18.123z M21.967,20.841c-0.586,0.015-0.508,1.523-0.1,0.63
								C21.906,21.279,22.061,21.023,21.967,20.841z"/>
						</g>
					</g>
				</g>
			</g>
		</g>
	</g>
	<g>
		<g>
			<g>
				<g>
					<defs>
						<path id="SVGID_11_" d="M16,24.699c-3.683,0-6.679-2.996-6.679-6.679s2.996-6.68,6.679-6.68s6.679,2.996,6.679,6.679
							S19.683,24.699,16,24.699z"/>
					</defs>
					<clipPath id="SVGID_5_">
						<use xlink:href="#SVGID_11_"  overflow="visible"/>
					</clipPath>
					<g clip-path="url(#SVGID_5_)">
						<path opacity="0.3" fill="#669CCC" enable-background="new    " d="M14.373,15.868c-0.063-0.175-0.242-0.285-0.245-0.449
							C13.702,15.709,14.061,15.998,14.373,15.868z"/>
						<path opacity="0.3" fill="#669CCC" enable-background="new    " d="M11.054,12.144c0.127-0.146,0.05-0.527-0.087-0.555
							C10.664,11.691,10.68,12.101,11.054,12.144z"/>
						<path opacity="0.3" fill="#669CCC" enable-background="new    " d="M9.381,12.016c0.099-0.22,0.563-0.488,0.027-0.547
							C9,11.586,8.971,12.555,9.381,12.016z"/>
						<path opacity="0.3" fill="#669CCC" enable-background="new    " d="M9.669,12.221c-0.488,0.122,0.746,0.156,0.131,0.233
							c-0.51,0.204,0.493,0.444,0.658,0.203c0.63,0.155,0.022-0.504-0.032-0.861c-0.268-0.287-0.01,0.66-0.253,0.031
							c-0.085,0.187-0.354,0.027-0.392-0.106C9.387,11.814,9.548,12.132,9.669,12.221z M10.279,12.345
							c0.017,0,0.034-0.001,0.051-0.004c0,0,0.014,0.026,0.021,0.04c-0.028,0.01-0.054,0.026-0.077,0.044c0-0.001,0-0.002,0-0.003
							c0.001-0.028-0.001-0.053-0.005-0.077C10.271,12.345,10.279,12.345,10.279,12.345z"/>
						<path opacity="0.3" fill="#669CCC" enable-background="new    " d="M12.714,12.751c0.454,0.261-0.01,0.714-0.18,0.832
							c0.307-0.268,0.897,0.723,0.741,0.2c-0.184-0.134,0.496,0.216,0.144-0.22c-0.325-0.522,0.027-0.233,0.163-0.111
							c0.465-0.416-0.527-0.467-0.279-0.895c-0.217-0.176-0.502-0.707-0.885-0.603c-0.258,0.331-0.037-0.725-0.413-0.196
							c-0.02,0.295-0.007,0.67-0.117,0.158c-0.074-0.089,0.127-0.298,0.004-0.329c-0.453,0.209-0.111,0.698-0.1,0.807
							C12.268,12.558,12.533,12.285,12.714,12.751z"/>
						<path opacity="0.3" fill="#669CCC" enable-background="new    " d="M17.849,15.105c0.009-0.037,0.021-0.169-0.059-0.167
							C17.332,15.066,17.686,15.732,17.849,15.105z"/>
						<path opacity="0.3" fill="#669CCC" enable-background="new    " d="M11.996,13.406c-0.455,0.397,0.775,0.435,0.096,0.046
							L11.996,13.406z"/>
						<path opacity="0.3" fill="#669CCC" enable-background="new    " d="M11.534,11.716c0.138-0.186-0.102-0.206-0.228-0.213
							C11.071,11.87,11.339,12.164,11.534,11.716z"/>
						<path opacity="0.3" fill="#669CCC" enable-background="new    " d="M14.45,12.238c0.2,0.285-0.401,0.068,0.033,0.287
							c0.25,0.196-0.264,0.3,0.045,0.476c-0.355,0.183,0.059,0.955,0.324,1.15c0.436,0.366,0.192-0.779,0.679-0.837
							c0.264-0.301,0.728-0.496,1.058-0.798c-0.323-0.025-0.51-0.226-0.205-0.35c0.562,0.574,0.141-0.272-0.17-0.406
							c0.301-0.096,0.594,0.01,0.552-0.239c0.318-0.233-0.306-0.22-0.528-0.22c-0.739,0-1.479,0-2.218,0
							C14.292,11.807,14.037,12.245,14.45,12.238z M16.027,11.807c-0.064,0-0.105-0.01-0.11,0.077
							c-0.006,0.113,0.053,0.147,0.149,0.202c-0.146,0.138-0.137,0.264-0.129,0.322c0.011,0.071,0.041,0.119,0.086,0.176
							c-0.031,0.021-0.062,0.032-0.094,0.052c-0.193,0.125-0.392,0.249-0.553,0.41c-0.326,0.108-0.423,0.465-0.479,0.715
							c-0.118-0.169-0.223-0.415-0.209-0.518c0.084-0.053,0.136-0.145,0.138-0.246c0.001-0.055-0.013-0.108-0.039-0.153
							c0.041-0.068,0.076-0.158,0.063-0.271c-0.008-0.066-0.032-0.127-0.071-0.184c0.022-0.088,0.018-0.212-0.086-0.359
							c-0.048-0.068-0.122-0.113-0.204-0.123c-0.009-0.046-0.015,0.025-0.021-0.025c-0.007-0.066-0.014-0.077-0.027-0.077
							C14.442,11.807,16.027,11.807,16.027,11.807z"/>
						<path opacity="0.3" fill="#669CCC" enable-background="new    " d="M18.004,15.387c-0.205,0.358,0.765-0.025,0.246-0.311
							c-0.038-0.245-0.304-0.545-0.239-0.571C17.683,14.721,18.169,15.175,18.004,15.387z"/>
						<path opacity="0.3" fill="#669CCC" enable-background="new    " d="M21.867,21.472c0.039-0.194,0.194-0.449,0.1-0.63
							C21.38,20.856,21.459,22.364,21.867,21.472z"/>
						<path opacity="0.3" fill="#669CCC" enable-background="new    " d="M22.306,12.789c-0.297,0.041-0.699,0.618-0.605,0.06
							c-0.259-0.017-0.052,0.499-0.406,0.515c-0.035,0.266-0.361,0.049-0.239,0.301c-0.249-0.176-0.46-0.733,0.029-0.383
							c0.728-0.217-0.48-0.71-0.574-0.829c0.155-0.037-0.173-0.199-0.212-0.145c-0.663,0.161-0.926,0.793-1.254,1.317
							c-0.483,0.217-0.465,1.152,0.075,0.853c0.144,0.253-0.102,0.649,0.32,0.32c0.34-0.449,0.06-1.174,0.637-1.457
							c0.042,0.219-0.533,1.041,0.138,0.906c0.608,0.024-0.442,0.06-0.146,0.447c-0.307-0.181-0.148,0.496-0.548,0.339
							c-0.347,0.189-0.575-0.088-0.495-0.39c-0.273,0.159,0.085,0.608-0.388,0.634c-0.106,0.377-0.98,0.32-0.483,0.702
							c0.22,0.571-0.821,0.035-0.526,0.72c0.253,0.676,0.783-0.224,0.999-0.398c0.415-0.321,1.03,0.548,0.656,0.58
							c0.418-0.056,0.333-0.454-0.003-0.608c-0.181-0.468,0.574,0.23,0.532,0.465c0.266,0.497,0.156-0.51,0.428-0.063
							c-0.032,0.471,1.09,0.111,0.555,0.711c-0.46,0.094-0.915-0.118-1.311,0.017c-0.369-0.004-0.351-0.397-0.485-0.496
							c-0.47,0.038-1.05,0.033-1.364,0.412c-0.34,0.465-0.83,1.116-0.46,1.71c0.371,0.881,1.29,0.046,1.819,0.566
							c0.157,0.217-0.136,0.474,0.215,0.71c0.133,0.501-0.15,0.976,0.175,1.454c0.167,0.45,0.272,1.122,0.897,0.712
							c0.661-0.397,0.485-1.129,1.03-1.535c-0.432-0.834,0.528-1.199,0.767-1.876c-0.523,0.077-0.989-0.444-1.116-0.969
							c-0.219-0.255-0.163-0.63,0.082-0.152c0.338,0.327,0.345,1.295,0.969,0.796c0.286-0.119,1.065-0.574,0.444-0.781
							c-0.4,0.289-0.822-0.865-0.233-0.195c0.427,0.181,0.746,0.288,0.746-0.312c0-1.617,0-3.255,0-4.882
							C22.719,12.706,22.478,12.956,22.306,12.789z M17.918,16.622c-0.003-0.007-0.011-0.028-0.012-0.029
							c0.007-0.001,0.042-0.005,0.054-0.007C17.945,16.6,17.931,16.612,17.918,16.622z M21.601,19.287
							c-0.055,0.069-0.115,0.144-0.177,0.214c-0.282,0.323-0.658,0.754-0.465,1.356c-0.197,0.214-0.29,0.465-0.374,0.691
							c-0.107,0.286-0.191,0.463-0.454,0.621c-0.124,0.082-0.178,0.036-0.188,0.036H19.94c-0.068,0-0.16-0.261-0.205-0.396
							c-0.023-0.069-0.046-0.113-0.069-0.176c-0.009-0.022-0.019-0.032-0.033-0.051c-0.134-0.198-0.119-0.398-0.1-0.658
							c0.015-0.208,0.033-0.443-0.033-0.695c-0.018-0.07-0.062-0.129-0.122-0.169c-0.041-0.027-0.049-0.043-0.049-0.043
							c-0.005-0.014,0.002-0.068,0.006-0.102c0.014-0.116,0.037-0.309-0.096-0.492c-0.01-0.013-0.021-0.026-0.032-0.038
							c-0.186-0.183-0.423-0.271-0.728-0.271c-0.124,0-0.246,0.014-0.363,0.027c-0.103,0.012-0.201,0.023-0.289,0.023
							c-0.182,0-0.284-0.037-0.373-0.247c-0.006-0.015-0.013-0.029-0.022-0.042c-0.238-0.382,0.054-0.839,0.429-1.353l0.013-0.017
							c0.195-0.228,0.586-0.164,0.968-0.19c0.072,0.169,0.221,0.579,0.643,0.579c0.001,0,0.002,0,0.003,0
							c0.032,0,0.065-0.101,0.096-0.111c0.061-0.021,0.131-0.079,0.22-0.079c0.098,0,0.205,0.08,0.318,0.092
							c0.131,0.015,0.267,0.097,0.412,0.097c0.001,0,0.003,0,0.004,0c-0.025,0,0.049,0.277,0.157,0.427
							C20.821,18.766,21.154,19.116,21.601,19.287z M20.995,16.491c-0.366,0.043-0.913-0.011-0.453-0.466
							c0.146-0.088,0.527,0.301,0.329-0.063c0.071-0.004,0.136-0.031,0.203-0.052C21.045,16.194,21.687,16.634,20.995,16.491z
							 M22.719,17.451c0,0.071-0.047,0.119-0.053,0.15c-0.068-0.015-0.186-0.054-0.263-0.086c-0.173-0.187-0.308-0.261-0.443-0.261
							c-0.118,0-0.228,0.06-0.287,0.161c-0.074,0.128-0.059,0.294,0.048,0.479c0.049,0.085,0.218,0.343,0.494,0.398
							c-0.092,0.063-0.205,0.126-0.314,0.172c-0.026,0.01-0.05,0.025-0.071,0.042c-0.049,0.04-0.084,0.059-0.103,0.067
							c-0.046-0.056-0.109-0.204-0.149-0.296c-0.074-0.172-0.157-0.366-0.288-0.511c-0.055-0.102-0.119-0.2-0.2-0.267
							c0.088-0.114,0.194-0.296,0.127-0.493c-0.031-0.092-0.087-0.157-0.153-0.203c0.053,0.007,0.099,0.011,0.141,0.011
							c0.228,0,0.327-0.119,0.366-0.191c0.013-0.024,0.023-0.048,0.03-0.072c0.028,0.077,0.049,0.148,0.039,0.21
							c-0.014,0.088,0.014,0.178,0.074,0.245c0.144,0.158,0.287,0.234,0.436,0.234c0.161,0,0.301-0.092,0.373-0.247
							c0.103-0.222,0.051-0.556-0.116-0.776c0.06-0.074,0.121-0.178,0.099-0.314c-0.011-0.066-0.052-0.188-0.205-0.265
							c-0.042-0.021-0.088-0.032-0.134-0.032c-0.018,0-0.035,0.001-0.053,0.005c-0.199,0.036-0.442,0.104-0.558,0.311
							c-0.04,0.072-0.057,0.144-0.059,0.213c-0.01-0.015-0.02-0.03-0.029-0.045c-0.03-0.046-0.085-0.13-0.096-0.169
							c0.004-0.094-0.037-0.185-0.11-0.245c-0.054-0.043-0.12-0.066-0.188-0.066c-0.03,0-0.061,0.004-0.09,0.014l-0.045,0.015
							c-0.032,0.01-0.067,0.023-0.083,0.024c-0.06,0.003-0.116,0.024-0.163,0.059c-0.032-0.007-0.064-0.01-0.098-0.01
							c-0.075,0-0.145,0.018-0.206,0.055c-0.021,0.013-0.04,0.027-0.056,0.043c-0.159,0.158-0.247,0.309-0.262,0.454
							c-0.046,0.007-0.085,0.022-0.119,0.042c-0.024-0.033-0.05-0.067-0.08-0.102c-0.148-0.176-0.369-0.387-0.581-0.387
							c-0.11,0-0.211,0.053-0.273,0.141c-0.061-0.018-0.123-0.027-0.186-0.027c-0.127,0-0.248,0.038-0.354,0.11
							c-0.007-0.055-0.023-0.111-0.046-0.171c-0.004-0.011-0.009-0.021-0.015-0.032c0.136-0.061,0.303-0.147,0.413-0.295
							c0.133-0.038,0.219-0.108,0.274-0.189c0.063,0.023,0.13,0.035,0.199,0.035c0.08,0,0.161-0.015,0.241-0.045
							c0.029,0.005,0.057,0.007,0.084,0.007c0.291,0,0.41-0.227,0.465-0.365c0.073-0.007,0.142-0.041,0.194-0.098
							c0.068-0.077,0.091-0.18,0.066-0.275c0.03-0.013,0.061-0.024,0.078-0.03c0.204-0.075,0.295-0.256,0.268-0.421
							c-0.041-0.256-0.292-0.33-0.475-0.33c-0.004,0-0.013,0-0.014,0c0.019,0,0.045-0.075,0.063-0.122
							c0.066-0.18,0.122-0.308,0.095-0.456c-0.018-0.091-0.077-0.155-0.159-0.196c-0.042-0.021-0.088-0.024-0.133-0.024
							c-0.045,0-0.09,0.014-0.13,0.034c-0.478,0.234-0.541,0.676-0.592,1.03c-0.008,0.056-0.016,0.112-0.025,0.165
							c-0.056-0.056-0.132-0.085-0.209-0.085c-0.042,0-0.085,0.009-0.124,0.028c0.001-0.035,0.007-0.079,0.024-0.128
							c0.031-0.088,0.085-0.155,0.148-0.184c0.054-0.024,0.099-0.063,0.13-0.113c0.055-0.087,0.107-0.176,0.16-0.265
							c0.236-0.402,0.443-0.754,0.814-0.89c0.002,0.004,0.005,0.007,0.007,0.01c0.058,0.074,0.147,0.124,0.306,0.217
							c0.027,0.015,0.061,0.035,0.098,0.057c-0.081,0.041-0.144,0.114-0.173,0.206c-0.085,0.267,0.161,0.64,0.374,0.791
							c0.052,0.037,0.111,0.055,0.172,0.055c0.068,0,0.137-0.024,0.192-0.071c0.042-0.035,0.072-0.08,0.089-0.13
							c0.08-0.038,0.136-0.09,0.175-0.147c0.114-0.051,0.186-0.138,0.232-0.227c0.141-0.004,0.256-0.087,0.377-0.175
							c0.038-0.027,0.096-0.069,0.144-0.098c0.053,0.018,0.151,0.027,0.21,0.027c0.07,0-0.006-0.013,0.247-0.035v4.343h0.001
							C22.719,17.45,22.719,17.451,22.719,17.451z M22.157,16.385c0.222,0.261,0.138,0.819-0.222,0.423
							c0.067-0.44-0.488-0.771,0.231-0.902C22.378,16.013,21.777,16.196,22.157,16.385z"/>
						<path opacity="0.3" fill="#669CCC" enable-background="new    " d="M22.439,12.039c-0.021-0.085,0.049-0.312-0.116-0.277
							C21.794,11.969,22.652,12.75,22.439,12.039z"/>
						<path opacity="0.3" fill="#669CCC" enable-background="new    " d="M15.269,20.072c-0.224-0.11-0.8-0.15-0.756-0.204
							c0.09-0.483-0.745-0.621-1.1-0.818c-0.466-0.331-1.167,0.549-1.331-0.208c-0.098-0.238-0.457-0.242-0.292-0.61
							c-0.296,0.295-0.877,0.205-0.725-0.364c0.231-0.479,1.117-0.502,1.268,0.074c-0.21-0.636,0.405-1.131,0.747-1.584
							c0.07-0.216,0.483-0.401,0.34-0.114c0.242-0.009,0.61-0.444,0.18-0.244c-0.007-0.398-0.377-0.285-0.499-0.228
							c0.223-0.354,1.368-0.16,0.888-0.738c-0.371-0.15-0.34-1.027-0.717-0.538c0.032-0.301-0.765-0.89-0.747-0.385
							c0.096,0.451,0.018,0.971-0.189,1.268c-0.043-0.662-1.174-0.516-1.029-1.22c0.21-0.337,0.457-0.801,0.479-0.759
							c0.377-0.144,0.681-0.562,0.244-0.837c-0.024,0.239-0.329,0.734-0.286,0.136c-0.284,0.335-0.218-0.533-0.483-0.622
							c-0.381,0.356,0.483,0.652-0.11,0.918c-0.088-0.332-0.242,0.166-0.58-0.102c-0.583,0.242-0.996-0.127-1.484-0.379
							c-0.293-0.037-0.317,0.278-0.317,0.572c0,0.814,0,1.628,0,2.442c0.507,0.303,0.226,0.133,0.114,0.05
							c0.158,0.537-0.013,1.321,0.61,1.632c0.106,0.195,0.578,1.03,0.599,0.781c-0.222-0.233-0.437-0.93-0.06-0.308
							c0.338,0.591,0.799,0.974,1.463,1.114c0.364,0.122,0.666,0.547,0.985,0.454c0.18,0.475-0.534,0.932,0.026,1.375
							c0.292,0.449,0.783,0.743,0.519,1.373c-0.186,0.616-0.105,1.285-0.267,1.86c-0.05,0.349,0.488,1.234,0.441,0.526
							c0.157-0.493,0.152-1.036,0.522-1.384c0.505,0.004,0.096-0.543,0.598-0.471c0.306-0.401,0.396-0.878,0.912-1.037
							C15.296,21.006,16.094,20.262,15.269,20.072z M10.797,17.739c-0.008,0.017-0.015,0.035-0.02,0.053
							c-0.031,0.115-0.04,0.215-0.033,0.303c-0.163-0.148-0.308-0.334-0.437-0.56c-0.153-0.253-0.257-0.402-0.449-0.402
							c-0.003,0-0.006,0-0.008,0c-0.006,0-0.035-0.065-0.035-0.065c-0.029-0.054-0.074-0.096-0.128-0.124
							c-0.261-0.13-0.289-0.4-0.316-0.829c-0.004-0.064-0.008-0.13-0.013-0.195c0.031-0.029,0.047-0.063,0.064-0.103
							C9.49,15.659,9.28,15.566,9.28,15.41v-2.314c0-0.064,0.013-0.126,0.01-0.183c0.021,0.013,0.045,0.025,0.064,0.037
							c0.25,0.157,0.512,0.32,0.855,0.32c0.109,0,0.219-0.016,0.331-0.049c0.077,0.035,0.158,0.053,0.239,0.053
							c0.077,0,0.145-0.016,0.201-0.037c0.015,0.01,0.03,0.019,0.046,0.027c0.041,0.019,0.084,0.029,0.128,0.029
							c0.041,0,0.083-0.009,0.122-0.027c0.046-0.021,0.149-0.067,0.238-0.152c0.013,0.021,0.027,0.041,0.045,0.06
							c0.004,0.004,0.008,0.009,0.013,0.013c-0.077,0.077-0.158,0.217-0.298,0.455c-0.069,0.118-0.144,0.247-0.215,0.361
							c-0.018,0.03-0.032,0.063-0.039,0.098c-0.122,0.594,0.356,0.831,0.642,0.972c0.259,0.127,0.373,0.197,0.381,0.328
							c0.009,0.126,0.095,0.233,0.217,0.267c0.027,0.007,0.053,0.011,0.08,0.011c0.096,0,0.188-0.046,0.244-0.127
							c0.209-0.3,0.311-0.759,0.278-1.209c0.055,0.052,0.102,0.108,0.117,0.148c-0.004,0.124,0.071,0.238,0.187,0.284
							c0.036,0.015,0.074,0.021,0.11,0.021c0.049,0,0.096-0.013,0.139-0.035c0.065,0.144,0.149,0.323,0.295,0.447
							c-0.044,0.011-0.09,0.022-0.128,0.03c-0.27,0.062-0.575,0.132-0.73,0.376c-0.071,0.112-0.059,0.257,0.029,0.356
							c0.02,0.023,0.043,0.041,0.067,0.057c-0.052,0.056-0.096,0.118-0.126,0.183c-0.057,0.074-0.124,0.15-0.194,0.231
							c-0.205,0.238-0.44,0.511-0.558,0.83c-0.11-0.039-0.231-0.06-0.359-0.06C11.31,17.212,10.951,17.419,10.797,17.739z
							 M15.17,20.852c-0.071,0.137-0.143,0.278-0.189,0.42c-0.358,0.169-0.53,0.47-0.683,0.74c-0.043,0.075-0.084,0.147-0.129,0.217
							c-0.238,0.025-0.385,0.178-0.438,0.457c-0.001,0.005-0.002,0.01-0.003,0.016c-0.076,0-0.154,0.029-0.208,0.081
							c-0.189,0.179-0.3,0.393-0.374,0.614c0.014-0.131,0.024-0.262,0.033-0.392c0.024-0.32,0.046-0.622,0.13-0.908
							c0.259-0.636-0.071-1.037-0.338-1.36c-0.077-0.094-0.15-0.182-0.211-0.275c-0.018-0.027-0.04-0.051-0.065-0.071
							c-0.137-0.108-0.138-0.15-0.017-0.444c0.069-0.168,0.151-0.368,0.135-0.588c0.006-0.002,0.011-0.004,0.017-0.006
							c0.118-0.041,0.239-0.084,0.328-0.084c0.046,0,0.068,0.012,0.084,0.023c0.009,0.007,0.018,0.013,0.027,0.017
							c0.11,0.061,0.244,0.112,0.385,0.166c0.204,0.077,0.583,0.222,0.567,0.335c-0.012,0.056-0.009,0.116,0.011,0.169
							c0.067,0.181,0.227,0.211,0.492,0.259c0.134,0.024,0.336,0.061,0.414,0.1c0.021,0.01,0.042,0.018,0.064,0.023
							c0.114,0.027,0.144,0.057,0.144,0.057C15.359,20.483,15.236,20.723,15.17,20.852z"/>
						<path opacity="0.3" fill="#669CCC" enable-background="new    " d="M12.402,18.152l-0.139-0.029
							c-0.045,0.15,0.843,0.301,0.231,0.061L12.402,18.152z"/>
						<path opacity="0.3" fill="#669CCC" enable-background="new    " d="M17.115,13.24c-0.241,0.276-0.558-0.072-0.564,0.166
							c0.043,0.071,0.217,0.584,0.601,0.205C17.358,13.525,17.276,13.307,17.115,13.24z"/>
					</g>
				</g>
			</g>
		</g>
	</g>
</g>
</svg>
