<?xml version="1.0" encoding="utf-8"?>
<!-- Generator: Adobe Illustrator 17.0.0, SVG Export Plug-In . SVG Version: 6.00 Build 0)  -->
<!DOCTYPE svg PUBLIC "-//W3C//DTD SVG 1.1//EN" "http://www.w3.org/Graphics/SVG/1.1/DTD/svg11.dtd">
<svg version="1.1" id="图层_1" xmlns="http://www.w3.org/2000/svg" xmlns:xlink="http://www.w3.org/1999/xlink" x="0px" y="0px"
	 width="32px" height="32px" viewBox="0 0 32 32" enable-background="new 0 0 32 32" xml:space="preserve">
<g>
	<g id="g151" opacity="0.5">
		<path id="path153" opacity="0.08" enable-background="new    " d="M27.059,29.57H4.96c-2.035,0-3.693-1.595-3.693-3.549v2.714
			c0,1.527,1.297,2.764,2.886,2.764h23.711c1.589,0,2.868-1.238,2.868-2.764v-2.714C30.733,27.977,29.093,29.57,27.059,29.57z"/>
		<path id="path155" opacity="0.1" enable-background="new    " d="M27.04,29.57H4.941c-2.034,0-3.674-1.566-3.674-3.519v1.42
			c0,1.527,0.7,3.387,3.538,3.387s19.496,0,22.371,0s3.557-1.86,3.557-3.387v-1.42C30.733,28.006,29.074,29.57,27.04,29.57z"/>
		<path id="path157" opacity="0.1" enable-background="new    " d="M27.04,29.57H4.941c-2.034,0-3.674-1.566-3.674-3.519v0.766
			c0,1.527,1.215,3.397,3.538,3.397s19.711,0,22.371,0c2.66,0,3.557-1.87,3.557-3.396v-0.766
			C30.733,28.006,29.074,29.57,27.04,29.57z"/>
		<rect id="rect159" x="4.615" y="29.57" opacity="0.05" enable-background="new    " width="22.769" height="0.643"/>
		<rect id="rect161" x="5.285" y="29.57" opacity="0.05" enable-background="new    " width="20.76" height="0.643"/>
		<rect id="rect163" x="5.285" y="30.214" opacity="0.05" enable-background="new    " width="20.76" height="0.643"/>
		<rect id="rect165" x="6.624" y="30.214" opacity="0.05" enable-background="new    " width="18.751" height="0.643"/>
		<rect id="rect167" x="8.633" y="30.214" opacity="0.05" enable-background="new    " width="14.733" height="0.643"/>
		<rect id="rect169" x="11.312" y="30.214" opacity="0.05" enable-background="new    " width="9.376" height="0.643"/>
		<rect id="rect171" x="6.624" y="29.57" opacity="0.05" enable-background="new    " width="18.751" height="0.643"/>
		<rect id="rect173" x="7.964" y="29.57" opacity="0.05" enable-background="new    " width="16.072" height="0.643"/>
		<rect id="rect175" x="8.633" y="29.57" opacity="0.05" enable-background="new    " width="14.733" height="0.643"/>
		<rect id="rect177" x="9.973" y="29.57" opacity="0.05" enable-background="new    " width="12.054" height="0.643"/>
		<rect id="rect179" x="9.973" y="29.57" opacity="0.05" enable-background="new    " width="12.054" height="0.643"/>
	</g>
	<path fill="#C4DCED" stroke="#9DBCD7" stroke-miterlimit="10" d="M30.466,25.625c0,2.104-1.706,3.809-3.809,3.809H5.342
		c-2.104,0-3.809-1.706-3.809-3.809V4.309c0-2.104,1.706-3.809,3.809-3.809h21.316c2.104,0,3.809,1.706,3.809,3.809L30.466,25.625
		L30.466,25.625z"/>
	<path opacity="0.6" fill="none" stroke="#FFFFFF" stroke-miterlimit="10" enable-background="new    " d="M5.342,28.434
		c-1.549,0-2.809-1.261-2.809-2.81V4.309c0-1.549,1.26-2.809,2.809-2.809h21.316c1.549,0,2.809,1.26,2.809,2.809v21.315
		c0,1.549-1.261,2.81-2.81,2.81C26.657,28.435,5.342,28.435,5.342,28.434z"/>
	<path opacity="0.05" fill="none" stroke="#000000" stroke-miterlimit="10" enable-background="new    " d="M30.569,8.482
		c0,0,0-1.28-1.264-1.28c-3.669,0-15.386,0.002-16.434,0.002c-1.275,0-1.264-1.262-1.264-1.262s0-1.27-1.264-1.27
		c-2.213,0-6.645,0-7.585,0c-1.245,0-1.264,1.224-1.264,1.263"/>
	
		<linearGradient id="SVGID_1_" gradientUnits="userSpaceOnUse" x1="1385.9995" y1="-1686.4335" x2="1385.9995" y2="-1662.5765" gradientTransform="matrix(1 0 0 -1 -1370 -1657)">
		<stop  offset="0" style="stop-color:#D1E0ED"/>
		<stop  offset="1" style="stop-color:#E4EEFB"/>
	</linearGradient>
	<path fill="url(#SVGID_1_)" stroke="#9DBCD7" stroke-miterlimit="10" d="M5.334,29.433h21.395c2.104,0,3.738-1.749,3.738-3.853V8.5
		c0-0.3-0.448-0.582-1.045-0.582c-3.685,0-15.435,0.002-16.488,0.002c-1.28,0-1.261-1.168-1.261-1.168s0.009-1.176-1.261-1.176
		c-2.222,0-6.674,0-7.618,0c-1.25,0-1.262,1.036-1.262,1.075v18.93C1.533,27.684,3.23,29.433,5.334,29.433z"/>
	<path opacity="0.8" fill="none" stroke="#FFFFFF" stroke-miterlimit="10" enable-background="new    " d="M5.333,28.434
		c-1.544,0-2.8-1.279-2.801-2.853V6.651c0.031-0.045,0.105-0.075,0.261-0.075h7.618c0.144,0,0.202,0.029,0.21,0.037
		c0.028,0.029,0.051,0.131,0.051,0.132c-0.002,0.142,0.016,0.928,0.618,1.541c0.285,0.29,0.8,0.634,1.642,0.634
		c0,0,16.519-0.001,16.533-0.001v16.662c0,1.573-1.229,2.853-2.738,2.853C26.727,28.435,5.333,28.435,5.333,28.434z"/>
	<g id="g27_1_">
		
			<linearGradient id="path36_2_" gradientUnits="userSpaceOnUse" x1="1784.7555" y1="-2475.4534" x2="1788.7751" y2="-2482.4158" gradientTransform="matrix(1 0 0 -1 -1782 -2475)">
			<stop  offset="0" style="stop-color:#FFFFFF"/>
			<stop  offset="0.5" style="stop-color:#FFFFFF;stop-opacity:0.6"/>
			<stop  offset="1" style="stop-color:#FFFFFF;stop-opacity:0.15"/>
		</linearGradient>
		<path id="path36_1_" fill="url(#path36_2_)" d="M6.07,8.598c0.449-0.93,0.998-1.802,1.627-2.607L6.552,3.48
			C5.574,4.404,4.781,5.424,4.147,6.412L6.07,8.598z"/>
		
			<linearGradient id="path45_2_" gradientUnits="userSpaceOnUse" x1="1788.3998" y1="-2474.4114" x2="1791.0304" y2="-2478.9678" gradientTransform="matrix(1 0 0 -1 -1782 -2475)">
			<stop  offset="0" style="stop-color:#FFFFFF"/>
			<stop  offset="0.5" style="stop-color:#FFFFFF;stop-opacity:0.6"/>
			<stop  offset="1" style="stop-color:#FFFFFF;stop-opacity:0.15"/>
		</linearGradient>
		<path id="path45_1_" fill="url(#path45_2_)" d="M6.189,1.067l0.598,1.311C7.363,1.9,7.994,1.736,8.682,1.067H6.189z"/>
		
			<linearGradient id="path54_2_" gradientUnits="userSpaceOnUse" x1="1789.2275" y1="-2473.5459" x2="1792.4418" y2="-2479.113" gradientTransform="matrix(1 0 0 -1 -1782 -2475)">
			<stop  offset="0" style="stop-color:#FFFFFF"/>
			<stop  offset="0.5" style="stop-color:#FFFFFF;stop-opacity:0.6"/>
			<stop  offset="1" style="stop-color:#FFFFFF;stop-opacity:0.15"/>
		</linearGradient>
		<path id="path54_1_" fill="url(#path54_2_)" d="M10.68,1.067h-0.473C9.013,1.736,7.969,2.247,7.074,3.009l1.097,2.408
			c0.937-1.083,2.025-2.032,3.243-2.798c0.009-0.008,0.016-0.016,0.026-0.024C12.804,1.416,11.449,1.067,10.68,1.067z"/>
		
			<linearGradient id="path63_2_" gradientUnits="userSpaceOnUse" x1="1782.4993" y1="-2478.6277" x2="1785.9874" y2="-2484.6692" gradientTransform="matrix(1 0 0 -1 -1782 -2475)">
			<stop  offset="0" style="stop-color:#FFFFFF"/>
			<stop  offset="0.5" style="stop-color:#FFFFFF;stop-opacity:0.6"/>
			<stop  offset="1" style="stop-color:#FFFFFF;stop-opacity:0.15"/>
		</linearGradient>
		<path id="path63_1_" fill="url(#path63_2_)" d="M3.782,7.01c-0.734,1.25-1.214,2.405-1.499,3.195
			c0.337,0.481,0.894,0.797,1.526,0.797c0.783,0,1.451-0.483,1.727-1.167c0.071-0.191,0.157-0.374,0.236-0.562L3.782,7.01z"/>
		
			<linearGradient id="path72_2_" gradientUnits="userSpaceOnUse" x1="1782.3423" y1="-2478.8752" x2="1786.208" y2="-2485.5708" gradientTransform="matrix(1 0 0 -1 -1782 -2475)">
			<stop  offset="0" style="stop-color:#FFFFFF"/>
			<stop  offset="0.5" style="stop-color:#FFFFFF;stop-opacity:0.6"/>
			<stop  offset="1" style="stop-color:#FFFFFF;stop-opacity:0.15"/>
		</linearGradient>
		<path id="path72_1_" fill="url(#path72_2_)" d="M1.959,4.937L1.945,9.135c0,0,0,0.001,0,0.003c0,0.026,0.006,0.051,0.008,0.077
			C2.272,8.438,2.718,7.49,3.322,6.486L1.959,4.937z"/>
		
			<linearGradient id="path149_2_" gradientUnits="userSpaceOnUse" x1="1785.2657" y1="-2476.7783" x2="1788.8955" y2="-2483.0654" gradientTransform="matrix(1 0 0 -1 -1782 -2475)">
			<stop  offset="0" style="stop-color:#FFFFFF"/>
			<stop  offset="0.5" style="stop-color:#FFFFFF;stop-opacity:0.6"/>
			<stop  offset="1" style="stop-color:#FFFFFF;stop-opacity:0.15"/>
		</linearGradient>
		<path id="path149_1_" fill="url(#path149_2_)" d="M5.391,1.076c-1.364-0.113-3.16,1.423-3.39,2.896l1.692,1.924
			c0.675-1.031,1.515-2.087,2.552-3.04L5.391,1.076z"/>
	</g>
	
		<radialGradient id="SVGID_2_" cx="1862.412" cy="1354.463" r="22.6588" gradientTransform="matrix(0.0197 0.9998 0.9109 -0.018 -1255.4794 -1826.5901)" gradientUnits="userSpaceOnUse">
		<stop  offset="0" style="stop-color:#FFFFFF;stop-opacity:0.6"/>
		<stop  offset="0.3783" style="stop-color:#FAFCFE;stop-opacity:0.4487"/>
		<stop  offset="0.829" style="stop-color:#EBF3FC;stop-opacity:0.2684"/>
		<stop  offset="1" style="stop-color:#E4EEFB;stop-opacity:0.2"/>
	</radialGradient>
	<path fill="url(#SVGID_2_)" d="M5.582,28.655c-1.774,0-3.216-1.465-3.216-3.267V6.9c0-0.023,0.004-0.221,0.151-0.369
		c0.123-0.123,0.32-0.186,0.585-0.186h7.441c0.294,0,0.443,0.035,0.532,0.125c0.198,0.199,0.206,0.501,0.206,0.505
		c-0.001,0.065,0.003,0.712,0.482,1.198c0.305,0.31,0.724,0.467,1.244,0.467c0,0,13.755-0.005,16.1-0.005
		c0.31,0,0.481,0.106,0.525,0.158v16.596c0,1.802-1.415,3.267-3.155,3.267L5.582,28.655L5.582,28.655L5.582,28.655z"/>
</g>
<g>
	<g opacity="0.3">
		<g opacity="0.5">
			<path fill="#FFFFFF" d="M24.437,18.386c0-1.288-1.124-2.423-2.924-3.183c0.241-1.938-0.179-3.478-1.295-4.123
				c-0.354-0.205-0.759-0.308-1.202-0.308c-0.924,0-1.971,0.448-3.016,1.241c-1.045-0.793-2.092-1.241-3.016-1.241
				c-0.444,0-0.848,0.104-1.203,0.308c-1.116,0.645-1.535,2.185-1.295,4.123c-1.799,0.76-2.924,1.895-2.924,3.183
				c0,1.288,1.124,2.423,2.922,3.183c-0.015,0.119-0.028,0.236-0.038,0.353c-0.161,1.842,0.314,3.181,1.335,3.771
				C12.137,25.897,12.542,26,12.985,26c0.924,0,1.97-0.448,3.016-1.241C17.046,25.552,18.092,26,19.016,26
				c0.444,0,0.848-0.104,1.203-0.308c1.022-0.589,1.495-1.928,1.335-3.771c-0.011-0.116-0.023-0.234-0.038-0.353
				C23.313,20.808,24.437,19.674,24.437,18.386z M19.016,11.665c0.285,0,0.539,0.063,0.756,0.189
				c0.704,0.406,1.033,1.519,0.884,3.032c-0.707-0.228-1.492-0.404-2.333-0.519c-0.517-0.667-1.06-1.259-1.611-1.76
				C17.537,12.007,18.338,11.665,19.016,11.665z M18.842,20.027c-0.314,0.545-0.655,1.061-1.012,1.542
				c-0.578,0.063-1.188,0.099-1.83,0.099s-1.253-0.035-1.83-0.099c-0.357-0.481-0.698-0.997-1.012-1.542
				c-0.322-0.557-0.597-1.105-0.831-1.639c0.239-0.548,0.517-1.1,0.831-1.644c0.314-0.545,0.655-1.061,1.012-1.542
				c0.578-0.063,1.188-0.099,1.83-0.099c0.642,0,1.253,0.035,1.83,0.099c0.357,0.481,0.698,0.997,1.012,1.542
				c0.314,0.544,0.592,1.095,0.831,1.644C19.439,18.921,19.164,19.469,18.842,20.027z M20.119,19.537
				c0.168,0.498,0.302,0.987,0.397,1.461c-0.446,0.15-0.935,0.281-1.462,0.385c0.194-0.293,0.381-0.597,0.561-0.91
				C19.796,20.161,19.963,19.848,20.119,19.537z M16,23.592c-0.354-0.314-0.709-0.671-1.054-1.063
				c0.345,0.02,0.696,0.032,1.054,0.032c0.358,0,0.709-0.012,1.054-0.032C16.708,22.921,16.354,23.278,16,23.592z M12.946,21.383
				c-0.528-0.105-1.015-0.235-1.462-0.385c0.095-0.474,0.228-0.964,0.397-1.461c0.156,0.312,0.322,0.624,0.503,0.936
				C12.565,20.787,12.753,21.09,12.946,21.383z M11.878,17.241c-0.174-0.512-0.306-1.002-0.399-1.466
				c0.448-0.151,0.938-0.282,1.467-0.387c-0.194,0.293-0.381,0.597-0.562,0.909C12.203,16.61,12.036,16.925,11.878,17.241z
				 M16,13.179c0.354,0.314,0.708,0.67,1.054,1.062c-0.345-0.02-0.696-0.032-1.054-0.032c-0.358,0-0.709,0.012-1.054,0.032
				C15.291,13.85,15.646,13.494,16,13.179z M19.616,16.298c-0.18-0.314-0.368-0.617-0.561-0.909
				c0.529,0.105,1.019,0.236,1.467,0.387c-0.093,0.464-0.225,0.954-0.399,1.466C19.964,16.925,19.796,16.61,19.616,16.298z
				 M12.228,11.853c0.217-0.125,0.471-0.189,0.756-0.189c0.678,0,1.479,0.342,2.305,0.941c-0.552,0.502-1.094,1.093-1.611,1.76
				c-0.841,0.115-1.626,0.291-2.333,0.519C11.195,13.372,11.525,12.259,12.228,11.853z M8.457,18.386
				c0-0.813,0.799-1.655,2.183-2.282c0.156,0.728,0.397,1.495,0.718,2.283c-0.316,0.775-0.558,1.543-0.717,2.281
				C9.256,20.04,8.457,19.198,8.457,18.386z M12.984,25.107c-0.285,0-0.54-0.063-0.757-0.189c-0.693-0.4-1.018-1.464-0.891-2.919
				c0.004-0.036,0.008-0.074,0.012-0.111c0.707,0.227,1.49,0.403,2.329,0.518c0.517,0.667,1.06,1.259,1.611,1.76
				C14.463,24.764,13.662,25.107,12.984,25.107z M20.663,21.999c0.127,1.455-0.198,2.519-0.891,2.919
				c-0.217,0.125-0.472,0.189-0.757,0.189c-0.677,0-1.479-0.342-2.304-0.941c0.552-0.502,1.095-1.093,1.611-1.76
				c0.839-0.115,1.622-0.291,2.329-0.518C20.655,21.925,20.66,21.963,20.663,21.999z M21.359,20.668
				c-0.16-0.738-0.401-1.507-0.717-2.281c0.321-0.787,0.561-1.555,0.718-2.283c1.385,0.628,2.184,1.47,2.184,2.282
				C23.543,19.198,22.744,20.04,21.359,20.668z"/>
		</g>
		<g>
			<path fill="#669CCC" d="M24.437,17.902c0-1.288-1.124-2.423-2.924-3.183c0.241-1.938-0.179-3.478-1.295-4.123
				c-0.354-0.205-0.759-0.308-1.202-0.308c-0.924,0-1.971,0.448-3.016,1.241c-1.045-0.793-2.092-1.241-3.016-1.241
				c-0.444,0-0.848,0.104-1.203,0.308c-1.116,0.645-1.535,2.185-1.295,4.123c-1.799,0.76-2.924,1.895-2.924,3.183
				c0,1.288,1.124,2.423,2.922,3.183c-0.015,0.119-0.028,0.236-0.038,0.353c-0.161,1.842,0.314,3.181,1.335,3.771
				c0.354,0.205,0.759,0.308,1.203,0.308c0.924,0,1.97-0.448,3.016-1.241c1.045,0.793,2.091,1.241,3.016,1.241
				c0.444,0,0.848-0.104,1.203-0.308c1.022-0.589,1.495-1.928,1.335-3.771c-0.011-0.116-0.023-0.234-0.038-0.353
				C23.313,20.325,24.437,19.191,24.437,17.902z M19.016,11.181c0.285,0,0.539,0.063,0.756,0.189
				c0.704,0.406,1.033,1.519,0.884,3.032c-0.707-0.228-1.492-0.404-2.333-0.519c-0.517-0.667-1.06-1.259-1.611-1.76
				C17.537,11.524,18.338,11.181,19.016,11.181z M18.842,19.543c-0.314,0.545-0.655,1.061-1.012,1.542
				c-0.578,0.063-1.188,0.099-1.83,0.099s-1.253-0.035-1.83-0.099c-0.357-0.481-0.698-0.997-1.012-1.542
				c-0.322-0.557-0.597-1.105-0.831-1.639c0.239-0.548,0.517-1.1,0.831-1.644c0.314-0.545,0.655-1.061,1.012-1.542
				c0.578-0.063,1.188-0.099,1.83-0.099c0.642,0,1.253,0.035,1.83,0.099c0.357,0.481,0.698,0.997,1.012,1.542
				c0.314,0.544,0.592,1.095,0.831,1.644C19.439,18.438,19.164,18.986,18.842,19.543z M20.119,19.054
				c0.168,0.498,0.302,0.987,0.397,1.461c-0.446,0.15-0.935,0.281-1.462,0.385c0.194-0.293,0.381-0.597,0.561-0.909
				C19.796,19.678,19.963,19.365,20.119,19.054z M16,23.109c-0.354-0.314-0.709-0.67-1.054-1.063
				c0.345,0.02,0.696,0.032,1.054,0.032c0.358,0,0.709-0.012,1.054-0.032C16.708,22.438,16.354,22.794,16,23.109z M12.946,20.9
				c-0.528-0.105-1.015-0.235-1.462-0.385c0.095-0.474,0.228-0.964,0.397-1.461c0.156,0.312,0.322,0.624,0.503,0.936
				C12.565,20.303,12.753,20.607,12.946,20.9z M11.878,16.758c-0.174-0.512-0.306-1.002-0.399-1.466
				c0.448-0.151,0.938-0.282,1.467-0.387c-0.194,0.293-0.381,0.597-0.562,0.909C12.203,16.127,12.036,16.442,11.878,16.758z
				 M16,12.696c0.354,0.314,0.708,0.671,1.054,1.062c-0.345-0.02-0.696-0.032-1.054-0.032c-0.358,0-0.709,0.012-1.054,0.032
				C15.291,13.367,15.646,13.01,16,12.696z M19.616,15.814c-0.18-0.314-0.368-0.617-0.561-0.909
				c0.529,0.105,1.019,0.236,1.467,0.387c-0.093,0.464-0.225,0.954-0.399,1.466C19.964,16.442,19.796,16.127,19.616,15.814z
				 M12.228,11.37c0.217-0.125,0.471-0.189,0.756-0.189c0.678,0,1.479,0.342,2.305,0.941c-0.552,0.502-1.094,1.093-1.611,1.76
				c-0.841,0.115-1.626,0.291-2.333,0.519C11.195,12.888,11.525,11.776,12.228,11.37z M8.457,17.902
				c0-0.813,0.799-1.655,2.183-2.282c0.156,0.728,0.397,1.495,0.718,2.283c-0.316,0.775-0.558,1.543-0.717,2.281
				C9.256,19.556,8.457,18.715,8.457,17.902z M12.984,24.624c-0.285,0-0.54-0.063-0.757-0.189c-0.693-0.4-1.018-1.464-0.891-2.919
				c0.004-0.036,0.008-0.074,0.012-0.111c0.707,0.227,1.49,0.403,2.329,0.518c0.517,0.667,1.06,1.259,1.611,1.76
				C14.463,24.281,13.662,24.624,12.984,24.624z M20.663,21.516c0.127,1.455-0.198,2.519-0.891,2.919
				c-0.217,0.125-0.472,0.189-0.757,0.189c-0.677,0-1.479-0.342-2.304-0.941c0.552-0.502,1.095-1.093,1.611-1.76
				c0.839-0.115,1.622-0.291,2.329-0.518C20.655,21.441,20.66,21.479,20.663,21.516z M21.359,20.184
				c-0.16-0.738-0.401-1.507-0.717-2.281c0.321-0.787,0.561-1.555,0.718-2.283c1.385,0.628,2.184,1.47,2.184,2.282
				C23.543,18.715,22.744,19.556,21.359,20.184z"/>
		</g>
	</g>
	<g>
		<path opacity="0.3" fill="#669CCC" enable-background="new    " d="M21.451,15.417c-0.029-0.013-0.06-0.02-0.092-0.02
			c-0.034,0-0.069,0.008-0.1,0.024c-0.06,0.031-0.104,0.086-0.118,0.152c-0.156,0.724-0.393,1.479-0.706,2.245
			c-0.022,0.054-0.022,0.115,0,0.168c0.312,0.764,0.549,1.519,0.706,2.244c0.014,0.066,0.058,0.122,0.118,0.152
			c0.032,0.015,0.066,0.024,0.1,0.024c0.032,0,0.063-0.007,0.092-0.02c1.471-0.667,2.315-1.573,2.315-2.486
			C23.767,16.989,22.922,16.083,21.451,15.417z M21.359,20.184c-0.16-0.738-0.401-1.507-0.717-2.281
			c0.321-0.787,0.561-1.555,0.718-2.283c1.385,0.628,2.184,1.47,2.184,2.282C23.543,18.715,22.744,19.556,21.359,20.184z"/>
		<path opacity="0.3" fill="#669CCC" enable-background="new    " d="M14.145,21.307c0.604,0.067,1.228,0.1,1.855,0.1
			c0.625,0,1.25-0.034,1.855-0.1c0.062-0.007,0.118-0.039,0.155-0.089c0.368-0.496,0.714-1.022,1.026-1.564
			c0.314-0.543,0.597-1.102,0.842-1.66c0.025-0.057,0.025-0.122,0.001-0.179c-0.245-0.561-0.528-1.121-0.842-1.666
			c-0.312-0.541-0.658-1.067-1.026-1.564c-0.037-0.05-0.093-0.082-0.155-0.089c-0.605-0.067-1.229-0.1-1.855-0.1
			c-0.625,0-1.25,0.034-1.855,0.1c-0.062,0.007-0.118,0.039-0.155,0.089c-0.368,0.496-0.714,1.022-1.026,1.564
			c-0.314,0.544-0.597,1.105-0.843,1.666c-0.025,0.057-0.025,0.122,0.001,0.179c0.245,0.558,0.528,1.117,0.842,1.66
			c0.312,0.542,0.658,1.068,1.026,1.564C14.027,21.268,14.083,21.301,14.145,21.307z M12.326,17.904
			c0.239-0.548,0.517-1.1,0.831-1.644c0.314-0.545,0.655-1.061,1.012-1.542c0.578-0.063,1.188-0.099,1.83-0.099
			s1.253,0.035,1.83,0.099c0.357,0.481,0.698,0.997,1.012,1.542c0.314,0.544,0.592,1.095,0.831,1.644
			c-0.234,0.533-0.509,1.081-0.831,1.639c-0.314,0.545-0.655,1.061-1.012,1.542c-0.578,0.063-1.188,0.099-1.83,0.099
			c-0.642,0-1.253-0.035-1.83-0.099c-0.357-0.481-0.698-0.997-1.012-1.542C12.836,18.986,12.561,18.438,12.326,17.904z"/>
		<path opacity="0.3" fill="#669CCC" enable-background="new    " d="M11.863,16.981c0.005,0.001,0.011,0.001,0.015,0.001
			c0.084,0,0.161-0.048,0.2-0.124c0.161-0.322,0.329-0.635,0.5-0.931c0.176-0.305,0.363-0.607,0.555-0.898
			c0.05-0.075,0.049-0.173-0.001-0.248c-0.042-0.062-0.112-0.099-0.185-0.099c-0.014,0-0.029,0.001-0.044,0.004
			c-0.524,0.103-1.026,0.236-1.495,0.394c-0.107,0.036-0.17,0.145-0.148,0.255c0.098,0.486,0.234,0.988,0.406,1.494
			C11.695,16.915,11.773,16.974,11.863,16.981z M11.479,15.292c0.448-0.151,0.938-0.282,1.467-0.387
			c-0.194,0.293-0.381,0.597-0.562,0.909c-0.18,0.312-0.349,0.627-0.506,0.943C11.704,16.246,11.572,15.756,11.479,15.292z"/>
		<path opacity="0.3" fill="#669CCC" enable-background="new    " d="M18.145,14.019c0.036,0.046,0.088,0.076,0.147,0.085
			c0.82,0.112,1.592,0.284,2.295,0.51c0.022,0.008,0.046,0.011,0.069,0.011c0.043,0,0.086-0.013,0.123-0.036
			c0.057-0.037,0.093-0.098,0.1-0.165c0.158-1.607-0.205-2.79-0.995-3.247c-0.251-0.145-0.542-0.218-0.867-0.218
			c-0.706,0-1.547,0.34-2.435,0.984c-0.054,0.039-0.088,0.102-0.092,0.168c-0.004,0.067,0.023,0.133,0.073,0.178
			C17.107,12.784,17.641,13.367,18.145,14.019z M19.016,11.181c0.285,0,0.539,0.063,0.756,0.189
			c0.704,0.406,1.033,1.519,0.884,3.032c-0.707-0.228-1.492-0.404-2.333-0.519c-0.517-0.667-1.06-1.259-1.611-1.76
			C17.537,11.524,18.338,11.181,19.016,11.181z"/>
		<path opacity="0.3" fill="#669CCC" enable-background="new    " d="M11.413,20.726c0.467,0.157,0.968,0.289,1.49,0.393
			c0.014,0.003,0.029,0.004,0.044,0.004c0.074,0,0.144-0.036,0.185-0.099c0.051-0.075,0.051-0.172,0.001-0.248
			c-0.192-0.291-0.379-0.593-0.555-0.898c-0.171-0.296-0.333-0.599-0.497-0.925c-0.038-0.076-0.116-0.124-0.199-0.124
			c-0.005,0-0.011,0.001-0.015,0.001c-0.09,0.006-0.167,0.066-0.196,0.151c-0.172,0.507-0.308,1.008-0.404,1.488
			C11.243,20.58,11.307,20.69,11.413,20.726z M11.881,19.054c0.156,0.312,0.322,0.624,0.503,0.936
			c0.18,0.314,0.368,0.617,0.561,0.91c-0.528-0.105-1.015-0.235-1.462-0.385C11.58,20.041,11.712,19.551,11.881,19.054z"/>
		<path opacity="0.3" fill="#669CCC" enable-background="new    " d="M24.437,17.902c0-1.288-1.124-2.423-2.924-3.183
			c0.241-1.938-0.179-3.478-1.295-4.123c-0.354-0.205-0.759-0.308-1.202-0.308c-0.924,0-1.971,0.448-3.016,1.241
			c-1.045-0.793-2.092-1.241-3.016-1.241c-0.444,0-0.848,0.104-1.203,0.308c-1.116,0.645-1.535,2.185-1.295,4.123
			c-1.799,0.76-2.924,1.895-2.924,3.183c0,1.288,1.124,2.423,2.922,3.183c-0.015,0.119-0.028,0.236-0.038,0.353
			c-0.161,1.842,0.314,3.181,1.335,3.771c0.354,0.205,0.759,0.308,1.203,0.308c0.924,0,1.97-0.448,3.016-1.241
			c1.045,0.793,2.091,1.241,3.016,1.241c0.444,0,0.848-0.104,1.203-0.308c1.022-0.589,1.495-1.928,1.335-3.771
			c-0.011-0.116-0.023-0.234-0.038-0.353C23.313,20.325,24.437,19.191,24.437,17.902z M21.428,20.879
			c-0.092,0.039-0.147,0.134-0.135,0.234c0.015,0.116,0.028,0.231,0.037,0.345c0.152,1.75-0.282,3.014-1.224,3.557
			c-0.32,0.185-0.687,0.279-1.091,0.279c-0.853,0-1.848-0.413-2.88-1.196c-0.04-0.03-0.088-0.046-0.135-0.046
			c-0.048,0-0.095,0.015-0.135,0.046c-1.032,0.782-2.028,1.196-2.88,1.196c-0.404,0-0.771-0.094-1.091-0.279
			c-0.942-0.544-1.376-1.807-1.224-3.557c0.01-0.114,0.022-0.229,0.037-0.345c0.013-0.1-0.043-0.194-0.135-0.234
			c-1.771-0.748-2.785-1.833-2.785-2.977c0-1.144,1.015-2.229,2.787-2.978c0.092-0.039,0.147-0.134,0.135-0.234
			c-0.238-1.907,0.194-3.33,1.185-3.902c0.32-0.185,0.687-0.279,1.091-0.279c0.853,0,1.848,0.413,2.881,1.196
			c0.04,0.03,0.088,0.046,0.135,0.046c0.048,0,0.095-0.015,0.135-0.046c1.032-0.782,2.028-1.196,2.881-1.196
			c0.404,0,0.771,0.093,1.091,0.279c0.99,0.572,1.422,1.994,1.185,3.902c-0.013,0.099,0.043,0.194,0.135,0.234
			c1.771,0.748,2.787,1.833,2.787,2.978C24.214,19.045,23.198,20.131,21.428,20.879z"/>
		<path opacity="0.3" fill="#669CCC" enable-background="new    " d="M14.778,13.612c-0.06,0.067-0.073,0.164-0.034,0.246
			c0.037,0.077,0.116,0.126,0.201,0.126c0.004,0,0.009,0,0.013-0.001c0.356-0.021,0.706-0.032,1.041-0.032
			c0.335,0,0.685,0.011,1.041,0.032c0.004,0.001,0.009,0.001,0.013,0.001c0.085,0,0.163-0.048,0.201-0.126
			c0.039-0.081,0.027-0.178-0.034-0.246c-0.348-0.395-0.709-0.759-1.074-1.082c-0.042-0.037-0.095-0.057-0.148-0.057
			c-0.053,0-0.106,0.019-0.148,0.057C15.488,12.852,15.126,13.216,14.778,13.612z M16,12.696c0.354,0.314,0.708,0.671,1.054,1.062
			c-0.345-0.02-0.696-0.032-1.054-0.032c-0.358,0-0.709,0.012-1.054,0.032C15.291,13.367,15.646,13.01,16,12.696z"/>
		<path opacity="0.3" fill="#669CCC" enable-background="new    " d="M13.854,21.785c-0.036-0.046-0.088-0.076-0.147-0.085
			c-0.818-0.112-1.589-0.284-2.291-0.509c-0.022-0.008-0.046-0.011-0.069-0.011c-0.043,0-0.086,0.013-0.122,0.036
			c-0.057,0.037-0.093,0.098-0.1,0.164l-0.005,0.041c-0.003,0.025-0.006,0.048-0.008,0.073c-0.135,1.545,0.231,2.687,1.002,3.132
			c0.251,0.145,0.543,0.218,0.868,0.218c0.706,0,1.547-0.34,2.435-0.984c0.054-0.039,0.088-0.102,0.092-0.168
			c0.004-0.067-0.023-0.133-0.073-0.178C14.892,23.02,14.359,22.438,13.854,21.785z M12.984,24.624c-0.285,0-0.54-0.063-0.757-0.189
			c-0.693-0.4-1.018-1.464-0.891-2.919c0.004-0.036,0.008-0.074,0.012-0.111c0.707,0.227,1.49,0.403,2.329,0.518
			c0.517,0.667,1.06,1.259,1.611,1.76C14.463,24.281,13.662,24.624,12.984,24.624z"/>
		<path opacity="0.3" fill="#669CCC" enable-background="new    " d="M17.222,22.193c0.06-0.067,0.073-0.164,0.034-0.246
			c-0.037-0.077-0.116-0.126-0.201-0.126c-0.005,0-0.009,0-0.013,0.001c-0.361,0.021-0.702,0.032-1.041,0.032
			c-0.338,0-0.679-0.011-1.041-0.032c-0.004-0.001-0.009-0.001-0.013-0.001c-0.085,0-0.163,0.048-0.201,0.126
			c-0.039,0.081-0.027,0.178,0.034,0.246c0.348,0.394,0.709,0.759,1.074,1.083c0.042,0.037,0.095,0.057,0.148,0.057
			s0.106-0.019,0.149-0.057C16.512,22.952,16.874,22.588,17.222,22.193z M16,23.109c-0.354-0.314-0.709-0.67-1.054-1.063
			c0.345,0.02,0.696,0.032,1.054,0.032c0.358,0,0.709-0.012,1.054-0.032C16.708,22.438,16.354,22.794,16,23.109z"/>
		<path opacity="0.3" fill="#669CCC" enable-background="new    " d="M11.222,14.588c0.037,0.024,0.079,0.036,0.123,0.036
			c0.023,0,0.046-0.004,0.069-0.011c0.704-0.227,1.476-0.398,2.295-0.51c0.058-0.008,0.111-0.038,0.147-0.085
			c0.505-0.652,1.038-1.234,1.585-1.731c0.05-0.046,0.076-0.111,0.073-0.178c-0.004-0.067-0.037-0.129-0.092-0.168
			c-0.888-0.644-1.73-0.984-2.435-0.984c-0.325,0-0.616,0.074-0.867,0.218c-0.79,0.457-1.152,1.64-0.995,3.247
			C11.128,14.49,11.165,14.551,11.222,14.588z M12.228,11.37c0.217-0.125,0.471-0.189,0.756-0.189c0.678,0,1.479,0.342,2.305,0.941
			c-0.552,0.502-1.094,1.093-1.611,1.76c-0.841,0.115-1.626,0.291-2.333,0.519C11.195,12.888,11.524,11.776,12.228,11.37z"/>
		<path opacity="0.3" fill="#669CCC" enable-background="new    " d="M19.053,21.123c0.014,0,0.029-0.001,0.044-0.004
			c0.521-0.102,1.022-0.235,1.49-0.392c0.107-0.036,0.17-0.145,0.147-0.255c-0.097-0.481-0.233-0.981-0.404-1.489
			c-0.029-0.085-0.107-0.145-0.196-0.151c-0.005-0.001-0.011-0.001-0.015-0.001c-0.084,0-0.161,0.047-0.199,0.124
			c-0.161,0.321-0.328,0.632-0.496,0.925c-0.176,0.305-0.363,0.607-0.555,0.898c-0.05,0.075-0.049,0.173,0.001,0.248
			C18.91,21.087,18.98,21.123,19.053,21.123z M19.616,19.99c0.18-0.312,0.347-0.625,0.503-0.936
			c0.168,0.498,0.302,0.987,0.397,1.461c-0.446,0.15-0.935,0.281-1.462,0.385C19.247,20.607,19.435,20.303,19.616,19.99z"/>
		<path opacity="0.3" fill="#669CCC" enable-background="new    " d="M11.565,17.818c-0.313-0.766-0.551-1.521-0.706-2.245
			c-0.014-0.066-0.058-0.122-0.118-0.152c-0.032-0.015-0.066-0.024-0.1-0.024c-0.032,0-0.063,0.006-0.092,0.02
			c-1.471,0.667-2.315,1.573-2.315,2.486c0,0.913,0.844,1.819,2.315,2.486c0.029,0.013,0.061,0.02,0.092,0.02
			c0.034,0,0.069-0.008,0.1-0.024c0.06-0.03,0.104-0.086,0.118-0.152c0.156-0.725,0.394-1.48,0.706-2.244
			C11.587,17.933,11.587,17.872,11.565,17.818z M10.641,20.184c-1.385-0.628-2.184-1.47-2.184-2.282
			c0-0.813,0.799-1.655,2.183-2.282c0.156,0.728,0.397,1.495,0.718,2.283C11.042,18.678,10.8,19.446,10.641,20.184z"/>
		<path opacity="0.3" fill="#669CCC" enable-background="new    " d="M20.877,21.424l-0.005-0.043
			c-0.007-0.067-0.044-0.128-0.1-0.164c-0.036-0.024-0.079-0.036-0.122-0.036c-0.023,0-0.046,0.004-0.069,0.011
			c-0.702,0.226-1.473,0.397-2.291,0.509c-0.058,0.008-0.111,0.038-0.147,0.085c-0.505,0.653-1.038,1.235-1.585,1.732
			c-0.05,0.046-0.076,0.111-0.073,0.178c0.004,0.067,0.037,0.129,0.092,0.168c0.887,0.644,1.73,0.984,2.435,0.984
			c0.325,0,0.617-0.074,0.868-0.218c0.771-0.446,1.138-1.587,1.002-3.132C20.883,21.472,20.881,21.448,20.877,21.424z
			 M19.771,24.435c-0.217,0.125-0.472,0.189-0.757,0.189c-0.677,0-1.479-0.342-2.304-0.941c0.552-0.502,1.095-1.093,1.611-1.76
			c0.839-0.115,1.622-0.291,2.329-0.518c0.004,0.037,0.008,0.074,0.012,0.111C20.79,22.97,20.465,24.034,19.771,24.435z"/>
		<path opacity="0.3" fill="#669CCC" enable-background="new    " d="M20.592,15.08c-0.469-0.158-0.972-0.291-1.495-0.394
			c-0.014-0.003-0.029-0.004-0.043-0.004c-0.074,0-0.144,0.036-0.185,0.099c-0.051,0.074-0.051,0.172-0.001,0.248
			c0.193,0.292,0.38,0.594,0.555,0.898c0.17,0.295,0.338,0.608,0.5,0.931c0.038,0.076,0.116,0.124,0.199,0.124
			c0.005,0,0.011-0.001,0.015-0.001c0.09-0.006,0.167-0.065,0.196-0.151c0.172-0.506,0.309-1.008,0.406-1.494
			C20.762,15.226,20.699,15.116,20.592,15.08z M20.122,16.758c-0.157-0.316-0.326-0.631-0.506-0.943
			c-0.18-0.314-0.368-0.617-0.561-0.909c0.529,0.105,1.019,0.236,1.467,0.387C20.427,15.756,20.296,16.246,20.122,16.758z"/>
	</g>
</g>
</svg>
