<?xml version="1.0" encoding="utf-8"?>
<!-- Generator: Adobe Illustrator 17.0.0, SVG Export Plug-In . SVG Version: 6.00 Build 0)  -->
<!DOCTYPE svg PUBLIC "-//W3C//DTD SVG 1.1//EN" "http://www.w3.org/Graphics/SVG/1.1/DTD/svg11.dtd">
<svg version="1.1" id="图层_1" xmlns="http://www.w3.org/2000/svg" xmlns:xlink="http://www.w3.org/1999/xlink" x="0px" y="0px"
	 width="32px" height="32px" viewBox="0 0 32 32" enable-background="new 0 0 32 32" xml:space="preserve">
<g id="g151" opacity="0.5">
	<path id="path153" opacity="0.08" enable-background="new    " d="M27.059,29.57H4.96c-2.035,0-3.693-1.595-3.693-3.549v2.714
		c0,1.527,1.297,2.764,2.886,2.764h23.711c1.589,0,2.868-1.238,2.868-2.764v-2.714C30.733,27.977,29.093,29.57,27.059,29.57z"/>
	<path id="path155" opacity="0.1" enable-background="new    " d="M27.04,29.57H4.941c-2.034,0-3.674-1.566-3.674-3.519v1.42
		c0,1.527,0.7,3.387,3.538,3.387s19.496,0,22.371,0s3.557-1.86,3.557-3.387v-1.42C30.733,28.006,29.074,29.57,27.04,29.57z"/>
	<path id="path157" opacity="0.1" enable-background="new    " d="M27.04,29.57H4.941c-2.034,0-3.674-1.566-3.674-3.519v0.766
		c0,1.527,1.215,3.397,3.538,3.397s19.711,0,22.371,0c2.66,0,3.557-1.87,3.557-3.396v-0.766C30.733,28.006,29.074,29.57,27.04,29.57
		z"/>
	<rect id="rect159" x="4.615" y="29.57" opacity="0.05" enable-background="new    " width="22.769" height="0.643"/>
	<rect id="rect161" x="5.285" y="29.57" opacity="0.05" enable-background="new    " width="20.76" height="0.643"/>
	<rect id="rect163" x="5.285" y="30.214" opacity="0.05" enable-background="new    " width="20.76" height="0.643"/>
	<rect id="rect165" x="6.624" y="30.214" opacity="0.05" enable-background="new    " width="18.751" height="0.643"/>
	<rect id="rect167" x="8.633" y="30.214" opacity="0.05" enable-background="new    " width="14.733" height="0.643"/>
	<rect id="rect169" x="11.312" y="30.214" opacity="0.05" enable-background="new    " width="9.376" height="0.643"/>
	<rect id="rect171" x="6.624" y="29.57" opacity="0.05" enable-background="new    " width="18.751" height="0.643"/>
	<rect id="rect173" x="7.964" y="29.57" opacity="0.05" enable-background="new    " width="16.072" height="0.643"/>
	<rect id="rect175" x="8.633" y="29.57" opacity="0.05" enable-background="new    " width="14.733" height="0.643"/>
	<rect id="rect177" x="9.973" y="29.57" opacity="0.05" enable-background="new    " width="12.054" height="0.643"/>
	<rect id="rect179" x="9.973" y="29.57" opacity="0.05" enable-background="new    " width="12.054" height="0.643"/>
</g>
<path fill="#C4DCED" stroke="#9DBCD7" stroke-miterlimit="10" d="M30.466,25.625c0,2.104-1.706,3.809-3.809,3.809H5.342
	c-2.104,0-3.809-1.706-3.809-3.809V4.309c0-2.104,1.706-3.809,3.809-3.809h21.316c2.104,0,3.809,1.706,3.809,3.809L30.466,25.625
	L30.466,25.625z"/>
<path opacity="0.6" fill="none" stroke="#FFFFFF" stroke-miterlimit="10" enable-background="new    " d="M5.342,28.434
	c-1.549,0-2.809-1.261-2.809-2.81V4.309c0-1.549,1.26-2.809,2.809-2.809h21.316c1.549,0,2.809,1.26,2.809,2.809v21.315
	c0,1.549-1.261,2.81-2.81,2.81C26.657,28.435,5.342,28.435,5.342,28.434z"/>
<g id="g27_1_">
	
		<linearGradient id="path36_2_" gradientUnits="userSpaceOnUse" x1="1784.7555" y1="-2475.4534" x2="1788.7751" y2="-2482.4158" gradientTransform="matrix(1 0 0 -1 -1782 -2475)">
		<stop  offset="0" style="stop-color:#FFFFFF"/>
		<stop  offset="0.5" style="stop-color:#FFFFFF;stop-opacity:0.6"/>
		<stop  offset="1" style="stop-color:#FFFFFF;stop-opacity:0.15"/>
	</linearGradient>
	<path id="path36_1_" fill="url(#path36_2_)" d="M6.07,8.598c0.449-0.93,0.998-1.802,1.627-2.607L6.552,3.48
		C5.574,4.404,4.781,5.424,4.147,6.412L6.07,8.598z"/>
	
		<linearGradient id="path45_2_" gradientUnits="userSpaceOnUse" x1="1788.3998" y1="-2474.4114" x2="1791.0304" y2="-2478.9678" gradientTransform="matrix(1 0 0 -1 -1782 -2475)">
		<stop  offset="0" style="stop-color:#FFFFFF"/>
		<stop  offset="0.5" style="stop-color:#FFFFFF;stop-opacity:0.6"/>
		<stop  offset="1" style="stop-color:#FFFFFF;stop-opacity:0.15"/>
	</linearGradient>
	<path id="path45_1_" fill="url(#path45_2_)" d="M6.189,1.067l0.598,1.311C7.363,1.9,7.994,1.736,8.682,1.067H6.189z"/>
	
		<linearGradient id="path54_2_" gradientUnits="userSpaceOnUse" x1="1789.2275" y1="-2473.5459" x2="1792.4418" y2="-2479.113" gradientTransform="matrix(1 0 0 -1 -1782 -2475)">
		<stop  offset="0" style="stop-color:#FFFFFF"/>
		<stop  offset="0.5" style="stop-color:#FFFFFF;stop-opacity:0.6"/>
		<stop  offset="1" style="stop-color:#FFFFFF;stop-opacity:0.15"/>
	</linearGradient>
	<path id="path54_1_" fill="url(#path54_2_)" d="M10.68,1.067h-0.473C9.013,1.736,7.969,2.247,7.074,3.009l1.097,2.408
		c0.937-1.083,2.025-2.032,3.243-2.798c0.009-0.008,0.016-0.016,0.026-0.024C12.804,1.416,11.449,1.067,10.68,1.067z"/>
	
		<linearGradient id="path63_2_" gradientUnits="userSpaceOnUse" x1="1782.4993" y1="-2478.6277" x2="1785.9874" y2="-2484.6692" gradientTransform="matrix(1 0 0 -1 -1782 -2475)">
		<stop  offset="0" style="stop-color:#FFFFFF"/>
		<stop  offset="0.5" style="stop-color:#FFFFFF;stop-opacity:0.6"/>
		<stop  offset="1" style="stop-color:#FFFFFF;stop-opacity:0.15"/>
	</linearGradient>
	<path id="path63_1_" fill="url(#path63_2_)" d="M3.782,7.01c-0.734,1.25-1.214,2.405-1.499,3.195
		c0.337,0.481,0.894,0.797,1.526,0.797c0.783,0,1.451-0.483,1.727-1.167c0.071-0.191,0.157-0.374,0.236-0.562L3.782,7.01z"/>
	
		<linearGradient id="path72_2_" gradientUnits="userSpaceOnUse" x1="1782.3423" y1="-2478.8752" x2="1786.208" y2="-2485.5708" gradientTransform="matrix(1 0 0 -1 -1782 -2475)">
		<stop  offset="0" style="stop-color:#FFFFFF"/>
		<stop  offset="0.5" style="stop-color:#FFFFFF;stop-opacity:0.6"/>
		<stop  offset="1" style="stop-color:#FFFFFF;stop-opacity:0.15"/>
	</linearGradient>
	<path id="path72_1_" fill="url(#path72_2_)" d="M1.959,4.937L1.945,9.135c0,0,0,0.001,0,0.003c0,0.026,0.006,0.051,0.008,0.077
		C2.272,8.438,2.718,7.49,3.322,6.486L1.959,4.937z"/>
	
		<linearGradient id="path149_2_" gradientUnits="userSpaceOnUse" x1="1785.2657" y1="-2476.7783" x2="1788.8955" y2="-2483.0654" gradientTransform="matrix(1 0 0 -1 -1782 -2475)">
		<stop  offset="0" style="stop-color:#FFFFFF"/>
		<stop  offset="0.5" style="stop-color:#FFFFFF;stop-opacity:0.6"/>
		<stop  offset="1" style="stop-color:#FFFFFF;stop-opacity:0.15"/>
	</linearGradient>
	<path id="path149_1_" fill="url(#path149_2_)" d="M5.391,1.076c-1.364-0.113-3.16,1.423-3.39,2.896l1.692,1.924
		c0.675-1.031,1.515-2.087,2.552-3.04L5.391,1.076z"/>
</g>
<g>
	<g>
		
			<rect x="7.1" y="3.846" transform="matrix(-0.9291 0.3699 -0.3699 -0.9291 27.3183 13.0663)" opacity="0.5" fill="#669CCC" enable-background="new    " width="10.613" height="10.613"/>
		
			<rect x="7.219" y="3.571" transform="matrix(-0.9291 0.3699 -0.3699 -0.9291 27.4451 12.4916)" opacity="0.2" fill="#669CCC" enable-background="new    " width="10.613" height="10.613"/>
		
			<rect x="7.338" y="3.294" transform="matrix(-0.9291 0.3699 -0.3699 -0.9291 27.5726 11.9148)" opacity="0.1" fill="#669CCC" enable-background="new    " width="10.613" height="10.613"/>
	</g>
	
		<rect x="7.053" y="4.088" transform="matrix(-0.9291 0.3699 -0.3699 -0.9291 26.7152 12.0737)" fill="#FFFFFF" width="10.294" height="9.021"/>
</g>
<g>
	<g>
		
			<rect x="14.22" y="4.098" transform="matrix(-1 0.0012 -0.0012 -1 39.5961 19.3153)" opacity="0.5" fill="#669CCC" enable-background="new    " width="11.144" height="11.144"/>
		
			<rect x="14.443" y="3.874" transform="matrix(-1 0.0012 -0.0012 -1 40.0415 18.868)" opacity="0.2" fill="#669CCC" enable-background="new    " width="11.144" height="11.144"/>
		
			<rect x="14.666" y="3.651" transform="matrix(-1 0.0012 -0.0012 -1 40.4868 18.4221)" opacity="0.1" fill="#669CCC" enable-background="new    " width="11.144" height="11.144"/>
	</g>
	
		<rect x="14.443" y="4.315" transform="matrix(-1 0.0012 -0.0012 -1 39.7064 18.0786)" fill="#FFFFFF" width="10.809" height="9.472"/>
</g>
<g>
	<path opacity="0.05" fill="none" stroke="#000000" stroke-miterlimit="10" enable-background="new    " d="M30.569,11.482
		c0,0,0-1.28-1.264-1.28c-3.669,0-15.386,0.002-16.434,0.002c-1.275,0-1.264-1.262-1.264-1.262s0-1.27-1.264-1.27
		c-2.213,0-6.645,0-7.585,0c-1.245,0-1.264,1.224-1.264,1.263"/>
	
		<linearGradient id="SVGID_1_" gradientUnits="userSpaceOnUse" x1="1385.9995" y1="-1686.4335" x2="1385.9995" y2="-1665.5765" gradientTransform="matrix(1 0 0 -1 -1370 -1657)">
		<stop  offset="0" style="stop-color:#D1E0ED"/>
		<stop  offset="1" style="stop-color:#E4EEFB"/>
	</linearGradient>
	<path fill="url(#SVGID_1_)" stroke="#9DBCD7" stroke-miterlimit="10" d="M5.334,29.433h21.395c2.104,0,3.738-1.749,3.738-3.853
		V11.5c0-0.3-0.448-0.582-1.045-0.582c-3.685,0-15.435,0.002-16.488,0.002c-1.28,0-1.261-1.168-1.261-1.168s0.009-1.176-1.261-1.176
		c-2.222,0-6.674,0-7.618,0c-1.25,0-1.262,1.036-1.262,1.075v15.93C1.533,27.684,3.23,29.433,5.334,29.433z"/>
	<path opacity="0.8" fill="none" stroke="#FFFFFF" stroke-miterlimit="10" enable-background="new    " d="M5.333,28.434
		c-1.544,0-2.8-1.279-2.801-2.853V9.651c0.031-0.045,0.105-0.075,0.261-0.075h7.618c0.144,0,0.202,0.029,0.21,0.037
		c0.028,0.029,0.051,0.131,0.051,0.132c-0.002,0.142,0.016,0.928,0.618,1.541c0.285,0.29,0.8,0.634,1.642,0.634
		c0,0,16.519-0.001,16.533-0.001v13.662c0,1.573-1.229,2.853-2.738,2.853C26.727,28.435,5.333,28.435,5.333,28.434z"/>
	
		<radialGradient id="SVGID_2_" cx="1864.7583" cy="1354.4327" r="21.0465" gradientTransform="matrix(0.0197 0.9998 0.9109 -0.018 -1255.4794 -1826.5901)" gradientUnits="userSpaceOnUse">
		<stop  offset="0" style="stop-color:#FFFFFF;stop-opacity:0.6"/>
		<stop  offset="0.3783" style="stop-color:#FAFCFE;stop-opacity:0.4487"/>
		<stop  offset="0.829" style="stop-color:#EBF3FC;stop-opacity:0.2684"/>
		<stop  offset="1" style="stop-color:#E4EEFB;stop-opacity:0.2"/>
	</radialGradient>
	<path fill="url(#SVGID_2_)" d="M5.582,28.655c-1.774,0-3.216-1.465-3.216-3.267V9.9c0-0.023,0.004-0.221,0.151-0.369
		c0.123-0.123,0.32-0.186,0.585-0.186h7.441c0.294,0,0.443,0.035,0.532,0.125c0.198,0.199,0.206,0.501,0.206,0.505
		c-0.001,0.065,0.003,0.712,0.482,1.198c0.305,0.31,0.724,0.467,1.244,0.467c0,0,13.755-0.005,16.1-0.005
		c0.31,0,0.481,0.106,0.525,0.158v13.596c0,1.802-1.415,3.267-3.155,3.267L5.582,28.655L5.582,28.655L5.582,28.655z"/>
</g>
<g>
	<path opacity="0.1" fill="#FFFFFF" enable-background="new    " d="M11.685,25.607c-1.286,0-2.333-1.047-2.333-2.333v-8.63
		c0-1.286,1.047-2.333,2.333-2.333h8.63c1.286,0,2.333,1.047,2.333,2.333v8.632c0,1.286-1.047,2.333-2.333,2.333h-8.63V25.607z
		 M20.315,24.242c0.533,0,0.967-0.434,0.967-0.967v-8.339l-0.405,0.073c-0.029,0.005-0.705,0.125-1.52,0.125
		c-0.085,0-0.17-0.001-0.257-0.003c0.009,0-0.899,0.048-1.631,0.271c0.095,0.032,0.152,0.073,0.196,0.134
		c0.012,0.015,0.026,0.046,0.043,0.092l0.086-0.075c3.065,2.668,1.148,5.483,1.13,5.511c-0.979,1.373-2.488,2.462-3.686,3.179
		H20.315L20.315,24.242z M10.716,20.712c0.444,0.172,1.293,0.44,2.323,0.458l0.343,0.007c0.25,0.005,0.489,0.011,0.724,0.011
		c1.124,0,1.96-0.129,2.901-0.79c1.199-0.84,1.065-2.18,1.058-2.236c-0.005-0.234-0.04-0.469-0.092-0.692
		c-0.001,0.332-0.032,0.675-0.108,1c-0.009,0.051-0.312,1.609-1.786,1.982c-0.226,0.056-0.454,0.085-0.679,0.085
		c-0.905,0-1.767-0.45-2.63-1.377c-0.678-0.728-1.653-2.722-1.886-5.054c-0.107,0.156-0.166,0.342-0.166,0.535L10.716,20.712
		L10.716,20.712L10.716,20.712z M15.243,19.181c0.005,0,0.108,0.036,0.254,0.036c0.45,0,0.844-0.323,1.142-0.936
		c0.012-0.02,0.246-0.447,0.302-1.352c-0.116,0.605-0.351,1.298-0.819,1.786c-0.03,0.034-0.382,0.414-0.802,0.414
		c-0.072,0-0.149-0.011-0.228-0.037C15.138,19.124,15.189,19.154,15.243,19.181L15.243,19.181z M15.169,13.676
		c-0.275,0.512-0.951,1.928-0.902,3.436c0,0.022-0.013,0.682,0.261,1.279c-0.029-0.089-0.053-0.189-0.077-0.3
		c-0.013-0.047-0.364-1.553,1.502-3.292c0.032-0.031,0.627-0.622,1.2-1.123L15.169,13.676L15.169,13.676z"/>
	<path opacity="0.3" fill="#669CCC" enable-background="new    " d="M20.315,12.612h-8.63c-1.121,0-2.032,0.909-2.032,2.031v8.631
		c0,1.121,0.91,2.031,2.032,2.031h8.63c1.122,0,2.032-0.909,2.032-2.031v-8.631C22.347,13.522,21.438,12.612,20.315,12.612z
		 M21.585,23.274c0,0.699-0.568,1.27-1.269,1.27h-6.239c1.085-0.563,3.326-1.867,4.6-3.656c0,0,1.814-2.588-1.08-5.109
		c0,0,0.745,1.169,0.771,2.348c0,0,0.185,1.559-1.186,2.518c-1.369,0.961-2.568,0.856-4.146,0.827
		c-1.262-0.022-2.267-0.405-2.62-0.559v-6.272c0-0.505,0.299-0.938,0.726-1.143c0.108,2.542,1.173,4.728,1.849,5.455
		c0.692,0.744,1.711,1.534,3.015,1.206c1.303-0.329,1.565-1.758,1.565-1.758c0.285-1.218-0.128-2.662-0.149-2.693
		c-0.022-0.03-0.218-0.064-0.218-0.064c0.208,1.917-0.291,2.765-0.291,2.765c-0.728,1.503-1.803,1.04-1.803,1.04
		c-1.196-0.609-1.143-2.329-1.143-2.329c-0.059-1.793,0.856-3.454,1.026-3.748h3.021c-0.621,0.421-1.852,1.647-1.852,1.647
		c-1.756,1.636-1.412,3.014-1.412,3.014c0.284,1.444,1.152,0.47,1.152,0.47c0.916-0.952,0.844-2.846,0.844-2.846
		c-0.372,0.061-0.606,0.267-0.606,0.267c-0.043,1.263-0.784,2.046-0.784,2.046c-0.289,0.32-0.494,0.015-0.494,0.015
		c-0.152-0.229,0.151-0.387,0.151-0.387c0.423-0.374,0.55-1.009,0.543-1.248c-0.006-0.239,0.12-0.304,0.12-0.304
		c0.598-0.464,1.198-0.739,1.198-0.739c0.802-0.413,2.236-0.482,2.236-0.482c0.903,0.03,1.714-0.116,1.714-0.116l0.753-0.137
		c0,0.023,0.006,0.044,0.006,0.068v8.632L21.585,23.274L21.585,23.274L21.585,23.274z"/>
	<g opacity="0.5">
		<path opacity="0.5" fill="#669CCC" enable-background="new    " d="M20.77,14.414c-0.006,0.001-0.654,0.115-1.413,0.115
			c-0.077,0-0.158-0.001-0.236-0.003c-0.086,0.003-1.533,0.078-2.384,0.515c-0.006,0.003-0.143,0.066-0.351,0.182
			c0.163-0.159,1.247-1.225,1.796-1.599l0.81-0.552h-4.174l-0.088,0.151c-0.19,0.324-1.128,2.044-1.067,3.91
			c-0.003,0.059-0.043,1.901,1.308,2.588c0.039,0.018,0.238,0.1,0.525,0.1c0.399,0,1.147-0.166,1.686-1.278
			c0.003-0.003,0.042-0.071,0.094-0.201c-0.026,0.119-0.28,1.257-1.345,1.527c-0.178,0.044-0.355,0.068-0.532,0.068
			c-0.729,0-1.446-0.388-2.188-1.185c-0.652-0.702-1.665-2.86-1.767-5.264l-0.02-0.456l-0.413,0.197
			c-0.547,0.261-0.901,0.816-0.901,1.416v6.471l0.182,0.078c0.387,0.168,1.43,0.56,2.735,0.584l0.34,0.007
			c0.254,0.005,0.498,0.011,0.736,0.011c1.213-0.001,2.181-0.151,3.249-0.901c1.5-1.051,1.321-2.73,1.312-2.8
			c-0.005-0.194-0.026-0.386-0.061-0.573c0.833,1.712-0.124,3.119-0.176,3.194c-1.214,1.704-3.335,2.962-4.492,3.56l-1.103,0.57
			h7.482c0.867,0,1.572-0.705,1.572-1.571v-8.63c0-0.028-0.003-0.055-0.007-0.081l-0.046-0.309l-0.31,0.026L20.77,14.414z
			 M21.585,14.644v8.632c0,0.699-0.568,1.27-1.269,1.27h-6.239c1.085-0.563,3.326-1.867,4.6-3.656c0,0,1.814-2.588-1.08-5.109
			c0,0,0.745,1.169,0.771,2.348c0,0,0.185,1.559-1.186,2.518c-1.369,0.961-2.568,0.856-4.146,0.827
			c-1.262-0.022-2.267-0.405-2.62-0.559v-6.273c0-0.505,0.299-0.938,0.726-1.143c0.108,2.542,1.173,4.728,1.849,5.455
			c0.692,0.744,1.711,1.534,3.015,1.206c1.303-0.33,1.565-1.759,1.565-1.759c0.285-1.218-0.128-2.662-0.149-2.693
			c-0.022-0.03-0.218-0.064-0.218-0.064c0.208,1.917-0.291,2.765-0.291,2.765c-0.728,1.503-1.803,1.04-1.803,1.04
			c-1.196-0.609-1.143-2.329-1.143-2.329c-0.059-1.793,0.856-3.454,1.026-3.748h3.021c-0.621,0.421-1.852,1.647-1.852,1.647
			c-1.756,1.636-1.412,3.014-1.412,3.014c0.284,1.444,1.152,0.47,1.152,0.47c0.916-0.952,0.844-2.846,0.844-2.846
			c-0.372,0.061-0.606,0.267-0.606,0.267c-0.043,1.263-0.784,2.046-0.784,2.046c-0.289,0.32-0.494,0.015-0.494,0.015
			c-0.152-0.229,0.151-0.387,0.151-0.387c0.423-0.374,0.55-1.009,0.543-1.248c-0.006-0.239,0.12-0.304,0.12-0.304
			c0.598-0.464,1.198-0.739,1.198-0.739c0.802-0.413,2.236-0.482,2.236-0.482c0.903,0.03,1.714-0.116,1.714-0.116l0.753-0.137
			C21.579,14.598,21.585,14.62,21.585,14.644z M15.189,18.412c0.112-0.02,0.251-0.083,0.389-0.236
			c0.029-0.029,0.758-0.814,0.854-2.085l0,0c-0.034,0.578-0.18,1.615-0.748,2.205c-0.092,0.101-0.263,0.23-0.368,0.23
			C15.28,18.523,15.236,18.488,15.189,18.412z"/>
		<path opacity="0.5" fill="#669CCC" enable-background="new    " d="M20.315,12.612h-8.63c-1.121,0-2.032,0.909-2.032,2.031v8.631
			c0,1.121,0.91,2.031,2.032,2.031h8.63c1.122,0,2.032-0.909,2.032-2.031v-8.631C22.347,13.522,21.438,12.612,20.315,12.612z
			 M22.044,23.274c0,0.953-0.775,1.729-1.729,1.729h-8.63c-0.953,0-1.729-0.775-1.729-1.729v-8.631c0-0.953,0.775-1.729,1.729-1.729
			h8.63c0.953,0,1.729,0.775,1.729,1.729V23.274z"/>
	</g>
	<g>
		<path opacity="0.05" fill="#FFFFFF" enable-background="new    " d="M20.825,14.711c0,0-0.812,0.146-1.714,0.116
			c0,0-1.435,0.07-2.236,0.482c0,0-0.598,0.275-1.198,0.739c0,0-0.127,0.065-0.12,0.304c0.007,0.239-0.119,0.874-0.543,1.248
			c0,0-0.302,0.16-0.151,0.387c0,0,0.205,0.304,0.494-0.015c0,0,0.741-0.784,0.784-2.046c0,0,0.234-0.207,0.606-0.267
			c0,0,0.072,1.893-0.844,2.846c0,0-0.868,0.975-1.152-0.47c0,0-0.345-1.377,1.412-3.014c0,0,1.232-1.225,1.852-1.647h-3.021
			c-0.17,0.295-1.085,1.956-1.026,3.748c0,0-0.053,1.721,1.143,2.329c0,0,1.075,0.463,1.803-1.04c0,0,0.499-0.848,0.291-2.765
			c0,0,0.197,0.034,0.218,0.064c0.022,0.031,0.435,1.475,0.149,2.693c0,0-0.261,1.428-1.565,1.758
			c-1.303,0.329-2.323-0.462-3.015-1.206c-0.676-0.728-1.74-2.913-1.849-5.455c-0.427,0.204-0.726,0.638-0.726,1.143v6.272
			c0.353,0.153,1.358,0.536,2.62,0.559c1.577,0.029,2.776,0.134,4.146-0.827c1.371-0.959,1.186-2.518,1.186-2.518
			c-0.026-1.179-0.771-2.348-0.771-2.348c2.895,2.52,1.08,5.109,1.08,5.109c-1.273,1.789-3.514,3.094-4.6,3.656h6.239
			c0.7,0,1.269-0.57,1.269-1.27v-8.63c0-0.024-0.006-0.044-0.006-0.068L20.825,14.711z M14.682,15.866
			c0.165-0.8,0.469-1.486,0.67-1.888h1.02c-0.348,0.326-0.611,0.589-0.625,0.6C15.268,15.027,14.926,15.462,14.682,15.866z
			 M14.106,20.887c-0.231,0-0.47-0.005-0.717-0.011l-0.345-0.007c-0.856-0.015-1.583-0.213-2.026-0.368v-4.186
			c0.408,1.362,1.006,2.491,1.529,3.054c0.839,0.901,1.684,1.381,2.578,1.461C14.815,20.874,14.48,20.887,14.106,20.887z
			 M20.979,23.274c0,0.367-0.299,0.665-0.664,0.665h-4.044c0.997-0.681,2.114-1.601,2.9-2.704c0.02-0.03,1.988-2.917-0.943-5.698
			c0.39-0.067,0.743-0.095,0.878-0.104c0.085,0.002,0.168,0.003,0.251,0.003c0.847,0,1.545-0.125,1.575-0.13l0.047-0.009
			L20.979,23.274z"/>
		<path opacity="0.05" fill="#FFFFFF" enable-background="new    " d="M20.315,12.008h-8.63c-1.453,0-2.635,1.182-2.635,2.635v8.632
			c0,1.453,1.183,2.635,2.635,2.635h8.63c1.453,0,2.635-1.182,2.635-2.635v-8.631C22.951,13.19,21.768,12.008,20.315,12.008z
			 M22.347,23.274c0,1.121-0.909,2.031-2.032,2.031h-8.63c-1.121,0-2.032-0.909-2.032-2.031v-8.631c0-1.122,0.91-2.031,2.032-2.031
			h8.63c1.122,0,2.032,0.909,2.032,2.031V23.274z"/>
	</g>
	<g opacity="0.2">
		<path opacity="0.9" fill="#FFFFFF" enable-background="new    " d="M18.676,21.191c0,0,0.606-0.867,0.557-2.085
			c-0.048,1.057-0.557,1.783-0.557,1.783c-1.273,1.789-3.514,3.094-4.6,3.656h0.559C15.812,23.882,17.592,22.712,18.676,21.191z"/>
		<path opacity="0.9" fill="#FFFFFF" enable-background="new    " d="M14.75,18.337c0.284,1.444,1.152,0.471,1.152,0.471
			c0.916-0.952,0.844-2.846,0.844-2.846c-0.001,0-0.003,0.001-0.003,0.001c-0.022,0.574-0.151,1.825-0.841,2.542
			c0,0-0.868,0.975-1.152-0.47c0,0-0.013-0.054-0.022-0.149C14.709,18.168,14.75,18.337,14.75,18.337z"/>
		<path opacity="0.9" fill="#FFFFFF" enable-background="new    " d="M13.965,17.178c0-0.017,0-0.034,0-0.051
			C13.965,17.132,13.965,17.148,13.965,17.178z"/>
		<path opacity="0.9" fill="#FFFFFF" enable-background="new    " d="M17.231,15.954c-0.015-0.003-0.027-0.005-0.027-0.005
			c0.03,0.27,0.044,0.516,0.047,0.745C17.256,16.47,17.25,16.225,17.231,15.954z"/>
		<path opacity="0.9" fill="#FFFFFF" enable-background="new    " d="M14.992,13.374c-0.169,0.292-1.074,1.935-1.026,3.716
			c0.053-1.661,0.866-3.137,1.026-3.413h2.627c0.143-0.12,0.279-0.225,0.393-0.302L14.992,13.374L14.992,13.374z"/>
		<path opacity="0.9" fill="#FFFFFF" enable-background="new    " d="M20.315,25.305h-8.63c-1.121,0-2.032-0.909-2.032-2.031v0.302
			c0,1.122,0.91,2.032,2.032,2.032h8.63c1.122,0,2.032-0.909,2.032-2.032v-0.302C22.347,24.396,21.438,25.305,20.315,25.305z"/>
		<path opacity="0.9" fill="#FFFFFF" enable-background="new    " d="M21.579,14.575l-0.753,0.136c0,0-0.812,0.146-1.714,0.116
			c0,0-1.435,0.07-2.236,0.482c0,0-0.598,0.275-1.198,0.739c0,0-0.127,0.065-0.12,0.304c0.007,0.239-0.119,0.874-0.543,1.248
			c0,0-0.302,0.16-0.151,0.387c0,0,0.007,0.01,0.017,0.023c0.057-0.069,0.134-0.108,0.134-0.108c0.423-0.374,0.55-1.009,0.543-1.248
			c-0.006-0.239,0.12-0.304,0.12-0.304c0.156-0.12,0.312-0.228,0.456-0.322c0.001-0.034,0.006-0.068,0.007-0.103
			c0,0,0.234-0.207,0.606-0.267c0,0,0,0.008,0,0.016c0.078-0.04,0.128-0.063,0.128-0.063c0.802-0.413,2.236-0.481,2.236-0.481
			c0.903,0.03,1.714-0.117,1.714-0.117l0.753-0.136c0,0.023,0.006,0.044,0.006,0.068v-0.302
			C21.585,14.62,21.579,14.598,21.579,14.575z"/>
		<path opacity="0.9" fill="#FFFFFF" enable-background="new    " d="M12.991,18.956c-0.676-0.728-1.74-2.913-1.849-5.455
			c-0.427,0.204-0.726,0.638-0.726,1.143v0.302c0-0.505,0.299-0.938,0.726-1.143c0.108,2.542,1.173,4.729,1.849,5.457
			c0.692,0.743,1.711,1.533,3.015,1.204c1.303-0.329,1.565-1.758,1.565-1.758c0.086-0.365,0.107-0.751,0.098-1.111
			c-0.007,0.269-0.034,0.544-0.098,0.811c0,0-0.261,1.428-1.565,1.758C14.702,20.489,13.683,19.7,12.991,18.956z"/>
	</g>
	<g>
		<path opacity="0.5" fill="#669CCC" enable-background="new    " d="M14.728,17.875c0.033-0.534,0.279-1.494,1.433-2.571
			c0,0,1.232-1.225,1.852-1.647h-0.37C17,14.185,16.16,15.02,16.16,15.02C14.757,16.33,14.697,17.469,14.728,17.875z"/>
		<path opacity="0.5" fill="#669CCC" enable-background="new    " d="M17.596,15.78c0,0,0.139,0.219,0.299,0.563
			c0.99,0.975,1.309,1.945,1.339,2.757C19.276,18.162,18.955,16.962,17.596,15.78z"/>
		<path opacity="0.5" fill="#669CCC" enable-background="new    " d="M17.421,15.711c-0.022-0.03-0.218-0.064-0.218-0.064
			c0.012,0.099,0.018,0.195,0.026,0.288c0.053,0.01,0.175,0.036,0.193,0.059c0.015,0.022,0.223,0.743,0.247,1.592
			C17.692,16.62,17.438,15.735,17.421,15.711z"/>
		<path opacity="0.5" fill="#669CCC" enable-background="new    " d="M13.965,17.07c-0.001,0.018,0,0.037,0,0.056v-0.005
			C13.964,17.105,13.965,17.088,13.965,17.07z"/>
		<path opacity="0.5" fill="#669CCC" enable-background="new    " d="M15.356,17.972c-0.25,0.277-0.437,0.087-0.482,0.03
			c-0.051,0.069-0.085,0.161-0.012,0.269c0,0,0.205,0.304,0.494-0.015c0,0,0.741-0.785,0.784-2.047c0,0,0.234-0.205,0.603-0.267
			c0.006-0.175,0.003-0.284,0.003-0.284c-0.003,0.001-0.006,0.001-0.009,0.001c-0.134,0.068-0.351,0.186-0.605,0.349
			C16.063,17.222,15.356,17.972,15.356,17.972z"/>
		<path opacity="0.5" fill="#669CCC" enable-background="new    " d="M20.315,12.612h-8.63c-1.121,0-2.032,0.909-2.032,2.031v0.284
			c0-1.122,0.91-2.031,2.032-2.031h8.63c1.122,0,2.032,0.909,2.032,2.031v-0.284C22.347,13.522,21.438,12.612,20.315,12.612z"/>
		<path opacity="0.5" fill="#669CCC" enable-background="new    " d="M13.035,21.757c1.577,0.029,2.776,0.134,4.146-0.827
			c1.232-0.862,1.208-2.205,1.19-2.469c-0.026,0.51-0.211,1.498-1.19,2.185c-1.369,0.961-2.568,0.856-4.146,0.827
			c-1.262-0.022-2.267-0.405-2.62-0.559v0.284C10.769,21.352,11.773,21.735,13.035,21.757z"/>
		<path opacity="0.5" fill="#669CCC" enable-background="new    " d="M15.108,19.735c0,0,1.075,0.463,1.803-1.04
			c0,0,0.365-0.625,0.339-2.007c-0.024,1.184-0.339,1.723-0.339,1.723c-0.728,1.503-1.803,1.04-1.803,1.04
			c-1.071-0.545-1.14-1.98-1.143-2.273c-0.001,0.077-0.003,0.151,0,0.228C13.965,17.406,13.912,19.126,15.108,19.735z"/>
		<path opacity="0.5" fill="#669CCC" enable-background="new    " d="M20.315,24.827c0.7,0,1.269-0.569,1.269-1.269v-0.284
			c0,0.699-0.568,1.27-1.269,1.27h-5.714c-0.194,0.107-0.372,0.204-0.525,0.283H20.315z"/>
	</g>
</g>
</svg>
