<?xml version="1.0" encoding="utf-8"?>
<!-- Generator: Adobe Illustrator 17.0.0, SVG Export Plug-In . SVG Version: 6.00 Build 0)  -->
<!DOCTYPE svg PUBLIC "-//W3C//DTD SVG 1.1//EN" "http://www.w3.org/Graphics/SVG/1.1/DTD/svg11.dtd">
<svg version="1.1" id="图层_1" xmlns="http://www.w3.org/2000/svg" xmlns:xlink="http://www.w3.org/1999/xlink" x="0px" y="0px"
	 width="32px" height="32px" viewBox="0 0 32 32" enable-background="new 0 0 32 32" xml:space="preserve">
<g id="g151" opacity="0.5">
	<path id="path153" opacity="0.08" enable-background="new    " d="M27.059,29.57H4.96c-2.035,0-3.693-1.595-3.693-3.549v2.714
		c0,1.527,1.297,2.764,2.886,2.764h23.711c1.589,0,2.868-1.238,2.868-2.764v-2.714C30.733,27.977,29.093,29.57,27.059,29.57z"/>
	<path id="path155" opacity="0.1" enable-background="new    " d="M27.04,29.57H4.941c-2.034,0-3.674-1.566-3.674-3.519v1.42
		c0,1.527,0.7,3.387,3.538,3.387s19.496,0,22.371,0s3.557-1.86,3.557-3.387v-1.42C30.733,28.006,29.074,29.57,27.04,29.57z"/>
	<path id="path157" opacity="0.1" enable-background="new    " d="M27.04,29.57H4.941c-2.034,0-3.674-1.566-3.674-3.519v0.766
		c0,1.527,1.215,3.397,3.538,3.397s19.711,0,22.371,0c2.66,0,3.557-1.87,3.557-3.396v-0.766C30.733,28.006,29.074,29.57,27.04,29.57
		z"/>
	<rect id="rect159" x="4.615" y="29.57" opacity="0.05" enable-background="new    " width="22.769" height="0.643"/>
	<rect id="rect161" x="5.285" y="29.57" opacity="0.05" enable-background="new    " width="20.76" height="0.643"/>
	<rect id="rect163" x="5.285" y="30.214" opacity="0.05" enable-background="new    " width="20.76" height="0.643"/>
	<rect id="rect165" x="6.624" y="30.214" opacity="0.05" enable-background="new    " width="18.751" height="0.643"/>
	<rect id="rect167" x="8.633" y="30.214" opacity="0.05" enable-background="new    " width="14.733" height="0.643"/>
	<rect id="rect169" x="11.312" y="30.214" opacity="0.05" enable-background="new    " width="9.376" height="0.643"/>
	<rect id="rect171" x="6.624" y="29.57" opacity="0.05" enable-background="new    " width="18.751" height="0.643"/>
	<rect id="rect173" x="7.964" y="29.57" opacity="0.05" enable-background="new    " width="16.072" height="0.643"/>
	<rect id="rect175" x="8.633" y="29.57" opacity="0.05" enable-background="new    " width="14.733" height="0.643"/>
	<rect id="rect177" x="9.973" y="29.57" opacity="0.05" enable-background="new    " width="12.054" height="0.643"/>
	<rect id="rect179" x="9.973" y="29.57" opacity="0.05" enable-background="new    " width="12.054" height="0.643"/>
</g>
<path fill="#C4DCED" stroke="#9DBCD7" stroke-miterlimit="10" d="M30.466,25.625c0,2.104-1.706,3.809-3.809,3.809H5.342
	c-2.104,0-3.809-1.706-3.809-3.809V4.309c0-2.104,1.706-3.809,3.809-3.809h21.316c2.104,0,3.809,1.706,3.809,3.809L30.466,25.625
	L30.466,25.625z"/>
<path opacity="0.6" fill="none" stroke="#FFFFFF" stroke-miterlimit="10" enable-background="new    " d="M5.342,28.434
	c-1.549,0-2.809-1.261-2.809-2.81V4.309c0-1.549,1.26-2.809,2.809-2.809h21.316c1.549,0,2.809,1.26,2.809,2.809v21.315
	c0,1.549-1.261,2.81-2.81,2.81C26.657,28.435,5.342,28.435,5.342,28.434z"/>
<g id="g27_1_">
	
		<linearGradient id="path36_2_" gradientUnits="userSpaceOnUse" x1="1784.7555" y1="-2475.4534" x2="1788.7751" y2="-2482.4158" gradientTransform="matrix(1 0 0 -1 -1782 -2475)">
		<stop  offset="0" style="stop-color:#FFFFFF"/>
		<stop  offset="0.5" style="stop-color:#FFFFFF;stop-opacity:0.6"/>
		<stop  offset="1" style="stop-color:#FFFFFF;stop-opacity:0.15"/>
	</linearGradient>
	<path id="path36_1_" fill="url(#path36_2_)" d="M6.07,8.598c0.449-0.93,0.998-1.802,1.627-2.607L6.552,3.48
		C5.574,4.404,4.781,5.424,4.147,6.412L6.07,8.598z"/>
	
		<linearGradient id="path45_2_" gradientUnits="userSpaceOnUse" x1="1788.3998" y1="-2474.4114" x2="1791.0304" y2="-2478.9678" gradientTransform="matrix(1 0 0 -1 -1782 -2475)">
		<stop  offset="0" style="stop-color:#FFFFFF"/>
		<stop  offset="0.5" style="stop-color:#FFFFFF;stop-opacity:0.6"/>
		<stop  offset="1" style="stop-color:#FFFFFF;stop-opacity:0.15"/>
	</linearGradient>
	<path id="path45_1_" fill="url(#path45_2_)" d="M6.189,1.067l0.598,1.311C7.363,1.9,7.994,1.736,8.682,1.067H6.189z"/>
	
		<linearGradient id="path54_2_" gradientUnits="userSpaceOnUse" x1="1789.2275" y1="-2473.5459" x2="1792.4418" y2="-2479.113" gradientTransform="matrix(1 0 0 -1 -1782 -2475)">
		<stop  offset="0" style="stop-color:#FFFFFF"/>
		<stop  offset="0.5" style="stop-color:#FFFFFF;stop-opacity:0.6"/>
		<stop  offset="1" style="stop-color:#FFFFFF;stop-opacity:0.15"/>
	</linearGradient>
	<path id="path54_1_" fill="url(#path54_2_)" d="M10.68,1.067h-0.473C9.013,1.736,7.969,2.247,7.074,3.009l1.097,2.408
		c0.937-1.083,2.025-2.032,3.243-2.798c0.009-0.008,0.016-0.016,0.026-0.024C12.804,1.416,11.449,1.067,10.68,1.067z"/>
	
		<linearGradient id="path63_2_" gradientUnits="userSpaceOnUse" x1="1782.4993" y1="-2478.6277" x2="1785.9874" y2="-2484.6692" gradientTransform="matrix(1 0 0 -1 -1782 -2475)">
		<stop  offset="0" style="stop-color:#FFFFFF"/>
		<stop  offset="0.5" style="stop-color:#FFFFFF;stop-opacity:0.6"/>
		<stop  offset="1" style="stop-color:#FFFFFF;stop-opacity:0.15"/>
	</linearGradient>
	<path id="path63_1_" fill="url(#path63_2_)" d="M3.782,7.01c-0.734,1.25-1.214,2.405-1.499,3.195
		c0.337,0.481,0.894,0.797,1.526,0.797c0.783,0,1.451-0.483,1.727-1.167c0.071-0.191,0.157-0.374,0.236-0.562L3.782,7.01z"/>
	
		<linearGradient id="path72_2_" gradientUnits="userSpaceOnUse" x1="1782.3423" y1="-2478.8752" x2="1786.208" y2="-2485.5708" gradientTransform="matrix(1 0 0 -1 -1782 -2475)">
		<stop  offset="0" style="stop-color:#FFFFFF"/>
		<stop  offset="0.5" style="stop-color:#FFFFFF;stop-opacity:0.6"/>
		<stop  offset="1" style="stop-color:#FFFFFF;stop-opacity:0.15"/>
	</linearGradient>
	<path id="path72_1_" fill="url(#path72_2_)" d="M1.959,4.937L1.945,9.135c0,0,0,0.001,0,0.003c0,0.026,0.006,0.051,0.008,0.077
		C2.272,8.438,2.718,7.49,3.322,6.486L1.959,4.937z"/>
	
		<linearGradient id="path149_2_" gradientUnits="userSpaceOnUse" x1="1785.2657" y1="-2476.7783" x2="1788.8955" y2="-2483.0654" gradientTransform="matrix(1 0 0 -1 -1782 -2475)">
		<stop  offset="0" style="stop-color:#FFFFFF"/>
		<stop  offset="0.5" style="stop-color:#FFFFFF;stop-opacity:0.6"/>
		<stop  offset="1" style="stop-color:#FFFFFF;stop-opacity:0.15"/>
	</linearGradient>
	<path id="path149_1_" fill="url(#path149_2_)" d="M5.391,1.076c-1.364-0.113-3.16,1.423-3.39,2.896l1.692,1.924
		c0.675-1.031,1.515-2.087,2.552-3.04L5.391,1.076z"/>
</g>
<g>
	<g>
		
			<rect x="4.64" y="3.269" transform="matrix(-0.986 0.1666 -0.1666 -0.986 22.0802 16.1338)" opacity="0.5" fill="#669CCC" enable-background="new    " width="11.447" height="11.447"/>
		
			<rect x="4.827" y="3.005" transform="matrix(-0.986 0.1666 -0.1666 -0.986 22.4088 15.5774)" opacity="0.2" fill="#669CCC" enable-background="new    " width="11.447" height="11.447"/>
		
			<rect x="5.015" y="2.741" transform="matrix(-0.986 0.1666 -0.1666 -0.986 22.7377 15.0226)" opacity="0.1" fill="#669CCC" enable-background="new    " width="11.447" height="11.447"/>
	</g>
	
		<rect x="4.744" y="3.493" transform="matrix(-0.986 0.1666 -0.1666 -0.986 21.8408 14.8844)" fill="#FFFFFF" width="11.104" height="9.73"/>
</g>
<g>
	<g>
		
			<rect x="14.757" y="3.034" transform="matrix(-0.9967 0.0814 -0.0814 -0.9967 41.6073 15.8206)" opacity="0.5" fill="#669CCC" enable-background="new    " width="11.449" height="11.449"/>
		
			<rect x="14.967" y="2.787" transform="matrix(-0.9967 0.0814 -0.0814 -0.9967 42.0062 15.3107)" opacity="0.2" fill="#669CCC" enable-background="new    " width="11.449" height="11.449"/>
		
			<rect x="15.176" y="2.54" transform="matrix(-0.9967 0.0814 -0.0814 -0.9967 42.4038 14.8007)" opacity="0.1" fill="#669CCC" enable-background="new    " width="11.449" height="11.449"/>
	</g>
	
		<rect x="14.924" y="3.256" transform="matrix(-0.9967 0.0814 -0.0814 -0.9967 41.5475 14.5499)" fill="#FFFFFF" width="11.105" height="9.731"/>
</g>
<g>
	<g>
		
			<rect x="8.203" y="4.332" transform="matrix(-0.9995 0.0321 -0.0321 -0.9995 28.1705 19.6597)" opacity="0.5" fill="#669CCC" enable-background="new    " width="11.449" height="11.449"/>
		
			<rect x="8.424" y="4.096" transform="matrix(-0.9995 0.0321 -0.0321 -0.9995 28.6054 19.1805)" opacity="0.2" fill="#669CCC" enable-background="new    " width="11.449" height="11.449"/>
		
			<rect x="8.646" y="3.859" transform="matrix(-0.9995 0.0321 -0.0321 -0.9995 29.0416 18.6999)" opacity="0.1" fill="#669CCC" enable-background="new    " width="11.449" height="11.449"/>
	</g>
	
		<rect x="8.408" y="4.554" transform="matrix(-0.9995 0.0321 -0.0321 -0.9995 28.2173 18.3857)" fill="#FFFFFF" width="11.105" height="9.731"/>
</g>
<g>
	<g>
		
			<rect x="16.373" y="5.415" transform="matrix(-1 0.0034 -0.0034 -1 44.2321 22.2037)" opacity="0.5" fill="#669CCC" enable-background="new    " width="11.448" height="11.448"/>
		
			<rect x="16.601" y="5.186" transform="matrix(-1 0.0034 -0.0034 -1 44.6874 21.7443)" opacity="0.2" fill="#669CCC" enable-background="new    " width="11.448" height="11.448"/>
		
			<rect x="16.829" y="4.956" transform="matrix(-1 0.0034 -0.0034 -1 45.1427 21.2833)" opacity="0.1" fill="#669CCC" enable-background="new    " width="11.448" height="11.448"/>
	</g>
	
		<rect x="16.6" y="5.639" transform="matrix(-1 0.0034 -0.0034 -1 44.3395 20.9329)" fill="#FFFFFF" width="11.105" height="9.731"/>
</g>
<g>
	<path opacity="0.05" fill="none" stroke="#000000" stroke-miterlimit="10" enable-background="new    " d="M30.569,11.482
		c0,0,0-1.28-1.264-1.28c-3.669,0-15.386,0.002-16.434,0.002c-1.275,0-1.264-1.262-1.264-1.262s0-1.27-1.264-1.27
		c-2.213,0-6.645,0-7.585,0c-1.245,0-1.264,1.224-1.264,1.263"/>
	
		<linearGradient id="SVGID_1_" gradientUnits="userSpaceOnUse" x1="1385.9995" y1="-1686.4335" x2="1385.9995" y2="-1665.5765" gradientTransform="matrix(1 0 0 -1 -1370 -1657)">
		<stop  offset="0" style="stop-color:#D1E0ED"/>
		<stop  offset="1" style="stop-color:#E4EEFB"/>
	</linearGradient>
	<path fill="url(#SVGID_1_)" stroke="#9DBCD7" stroke-miterlimit="10" d="M5.334,29.433h21.395c2.104,0,3.738-1.749,3.738-3.853
		V11.5c0-0.3-0.448-0.582-1.045-0.582c-3.685,0-15.435,0.002-16.488,0.002c-1.28,0-1.261-1.168-1.261-1.168s0.009-1.176-1.261-1.176
		c-2.222,0-6.674,0-7.618,0c-1.25,0-1.262,1.036-1.262,1.075v15.93C1.533,27.684,3.23,29.433,5.334,29.433z"/>
	<path opacity="0.8" fill="none" stroke="#FFFFFF" stroke-miterlimit="10" enable-background="new    " d="M5.333,28.434
		c-1.544,0-2.8-1.279-2.801-2.853V9.651c0.031-0.045,0.105-0.075,0.261-0.075h7.618c0.144,0,0.202,0.029,0.21,0.037
		c0.028,0.029,0.051,0.131,0.051,0.132c-0.002,0.142,0.016,0.928,0.618,1.541c0.285,0.29,0.8,0.634,1.642,0.634
		c0,0,16.519-0.001,16.533-0.001v13.662c0,1.573-1.229,2.853-2.738,2.853C26.727,28.435,5.333,28.435,5.333,28.434z"/>
	
		<radialGradient id="SVGID_2_" cx="1864.7583" cy="1354.4327" r="21.0465" gradientTransform="matrix(0.0197 0.9998 0.9109 -0.018 -1255.4794 -1826.5901)" gradientUnits="userSpaceOnUse">
		<stop  offset="0" style="stop-color:#FFFFFF;stop-opacity:0.6"/>
		<stop  offset="0.3783" style="stop-color:#FAFCFE;stop-opacity:0.4487"/>
		<stop  offset="0.829" style="stop-color:#EBF3FC;stop-opacity:0.2684"/>
		<stop  offset="1" style="stop-color:#E4EEFB;stop-opacity:0.2"/>
	</radialGradient>
	<path fill="url(#SVGID_2_)" d="M5.582,28.655c-1.774,0-3.216-1.465-3.216-3.267V9.9c0-0.023,0.004-0.221,0.151-0.369
		c0.123-0.123,0.32-0.186,0.585-0.186h7.441c0.294,0,0.443,0.035,0.532,0.125c0.198,0.199,0.206,0.501,0.206,0.505
		c-0.001,0.065,0.003,0.712,0.482,1.198c0.305,0.31,0.724,0.467,1.244,0.467c0,0,13.755-0.005,16.1-0.005
		c0.31,0,0.481,0.106,0.525,0.158v13.596c0,1.802-1.415,3.267-3.155,3.267L5.582,28.655L5.582,28.655L5.582,28.655z"/>
</g>
<g id="Symbol">
	<path opacity="0.05" fill="#FFFFFF" enable-background="new    " d="M18.369,11.817c-1.287,0.013-2.591-0.022-3.891,0.017
		c-0.065,0.001-0.126,0.025-0.174,0.069c-0.126,0.129-0.223,0.13-0.426,0.113c-0.19-0.016-0.455-0.053-0.747,0.009v-0.009
		c-0.009,0.001-0.017,0.008-0.026,0.009c-0.01,0.003-0.015-0.003-0.026,0v0.009c-0.44,0.04-0.854,0.267-1.059,0.686l-0.009-0.009
		c-0.007,0.01-0.01,0.024-0.017,0.034c-0.448,0.692-0.938,1.376-1.372,2.102c-0.011,0.017-0.02,0.034-0.026,0.052
		c-0.102,0.298,0.017,0.586,0.182,0.764c0.163,0.175,0.363,0.287,0.521,0.373c0.003,0.002,0.005,0.007,0.009,0.009
		c0.246,0.15,0.502,0.296,0.747,0.451c-0.088-0.008-0.182-0.015-0.26-0.009c-0.228,0.016-0.428,0.054-0.573,0.044
		c-0.011-0.001-0.024-0.001-0.034,0c-0.816,0.055-1.655,0.064-2.493,0.148c-0.011,0.002-0.024,0.005-0.034,0.009
		c-0.699,0.185-0.718,1.202-0.087,1.476l-0.009,0.009c0.039,0.031,0.05,0.024,0.087,0.043c0.078,0.042,0.134,0.079,0.182,0.096
		c-0.644,1.205-0.574,2.72,0.217,3.848c0.001,0.002-0.001,0.007,0,0.009c0.578,0.88,1.265,1.672,1.911,2.458
		c0.048,0.055,0.118,0.087,0.191,0.087c0.219,0.011,0.317,0.083,0.469,0.217c0.152,0.135,0.33,0.338,0.616,0.504
		c0.024,0.015,0.05,0.028,0.078,0.034c0.595,0.114,1.183,0.018,1.694,0.043c0.005,0.001,0.011,0.001,0.017,0
		c0.605-0.015,1.238,0.039,1.885-0.017c0.015-0.001,0.03-0.005,0.043-0.009c0.172-0.046,0.316-0.145,0.408-0.269
		c0.092-0.124,0.134-0.26,0.156-0.391c0.015-0.086,0.005-0.143,0.009-0.225c0.354,0.624,0.688,1.261,1.086,1.876
		c0.007,0.012,0.017,0.024,0.026,0.034c0.49,0.533,1.42,0.065,1.346-0.634h0.009c0.001-0.022-0.001-0.023,0-0.043
		c0.001-0.112,0.007-0.187,0.009-0.235c0.007,0.002,0.001-0.003,0.009,0c0.026,0.007,0.052,0.009,0.078,0.009
		c1.338,0.018,2.615-0.725,3.257-1.902c0.002-0.003,0.007-0.005,0.009-0.009c0.53-0.914,0.938-1.883,1.355-2.822
		c0.025-0.061,0.025-0.13,0-0.192c-0.074-0.195-0.069-0.317-0.034-0.478c0.034-0.161,0.115-0.361,0.191-0.626
		c0.006-0.023,0.009-0.046,0.009-0.069c-0.007-0.562-0.376-0.948-0.504-1.277c-0.003-0.005-0.005-0.011-0.009-0.017
		c-0.359-0.693-0.689-1.413-1.076-2.111c-0.01-0.015-0.022-0.03-0.035-0.044c-0.182-0.206-0.451-0.28-0.677-0.252
		c-0.212,0.026-0.393,0.122-0.548,0.243l-0.009,0.009c-0.007,0.005-0.019,0.003-0.026,0.009l-0.165,0.105
		c0.354-0.624,0.708-1.245,1.051-1.876c0.003-0.011,0.007-0.024,0.009-0.035c0.268-0.702-0.633-1.368-1.216-0.895
		c-0.009,0.005-0.017,0.011-0.026,0.017c-0.069,0.068-0.061,0.065-0.061,0.069c-0.009-0.019-0.023-0.028-0.034-0.069
		c-0.006-0.022-0.015-0.042-0.026-0.061C20.084,12.581,19.388,11.824,18.369,11.817z M15.928,15.439
		c0.079,0.116,0.164,0.258,0.209,0.347c0.049,0.099,0.041,0.155,0.044,0.148c0.003-0.007,0.01,0.025-0.139,0.061
		c-0.005,0-0.011,0-0.017,0c-0.233,0.077-0.434,0.235-0.556,0.451c-0.122,0.217-0.147,0.519,0,0.774
		c0.182,0.305,0.508,0.398,0.774,0.408c0.265,0.01,0.515-0.026,0.669-0.009c0.009,0.001,0.017,0.001,0.026,0l1.546-0.009
		c-0.128,0.085-0.26,0.163-0.373,0.287c-0.01,0.013-0.019,0.028-0.026,0.043c-0.179,0.308-0.108,0.646,0.009,0.886
		c0.118,0.24,0.271,0.443,0.33,0.591c0.003,0.009,0.005,0.017,0.009,0.026l0.174,0.322c-0.048-0.031-0.081-0.076-0.139-0.096
		c-0.002-0.001,0.001-0.008,0-0.009c-0.003-0.001-0.005,0.001-0.009,0c-0.26-0.092-0.528-0.016-0.712,0.122
		c-0.177,0.133-0.289,0.316-0.365,0.504l-0.009-0.009l-0.842,1.519c0.001-0.24,0.024-0.463-0.017-0.712
		c-0.004-0.018-0.009-0.036-0.017-0.052c-0.07-0.167-0.194-0.305-0.33-0.382c-0.136-0.077-0.274-0.096-0.408-0.104
		c-0.268-0.017-0.528,0.025-0.686,0.017c-0.005-0.001-0.011-0.001-0.017,0l-0.895,0.026c0.069-0.033,0.141-0.054,0.2-0.113
		l0.009,0.009c0.005-0.005,0.003-0.013,0.009-0.017c0.217-0.208,0.266-0.512,0.209-0.747c-0.057-0.233-0.19-0.42-0.322-0.573h0.009
		c-0.005-0.007-0.013-0.011-0.017-0.017c-0.509-0.728-0.999-1.484-1.528-2.214c0.421,0.266,0.834,0.535,1.268,0.782
		c0.016,0.011,0.034,0.02,0.052,0.026c0.318,0.09,0.62-0.054,0.79-0.243c0.168-0.185,0.262-0.405,0.339-0.573l0.009-0.009
		L15.928,15.439z M18.985,20.459l0.105,0.191h-0.096C18.994,20.588,18.99,20.528,18.985,20.459z M13.27,20.52
		c0.065,0.033,0.124,0.057,0.2,0.087l-0.243,0.009L13.27,20.52z"/>
	<path opacity="0.1" fill="#FFFFFF" enable-background="new    " d="M18.371,12.065c-1.293,0.013-2.591-0.015-3.882,0.024
		c-0.377,0.385-0.85,0.049-1.345,0.18c-0.397,0.022-0.75,0.221-0.915,0.585c-0.457,0.71-0.957,1.398-1.39,2.123
		c-0.145,0.426,0.276,0.673,0.589,0.844c0.895,0.546,1.77,1.139,2.679,1.655c0.459,0.129,0.681-0.344,0.834-0.682
		c0.322-0.622,0.645-1.243,0.967-1.864c0.175,0.44,0.967,1.121,0.193,1.31c-0.342,0.113-0.622,0.496-0.418,0.848
		c0.26,0.439,0.83,0.231,1.246,0.278c0.812-0.002,1.623-0.004,2.434-0.005c-0.348,0.246-0.775,0.399-1.063,0.714
		c-0.258,0.445,0.199,0.851,0.358,1.245c0.285,0.524,0.569,1.048,0.854,1.573c-0.254,0.003-0.507,0.005-0.761,0.007
		c-0.003-0.356,0.059-0.856-0.373-0.993c-0.364-0.133-0.665,0.176-0.783,0.492c-0.435,0.781-0.87,1.561-1.306,2.342
		c-0.021-0.537,0.055-1.086-0.031-1.615c-0.205-0.488-0.792-0.295-1.2-0.314c-0.749,0.022-1.498,0.044-2.247,0.066
		c0.114-0.23,0.228-0.461,0.342-0.691c0.313,0.162,0.73,0.435,1.041,0.108c0.324-0.292,0.096-0.736-0.136-1.003
		c-0.562-0.803-1.092-1.637-1.673-2.42c-0.339-0.261-0.795-0.061-1.185-0.089c-0.825,0.055-1.657,0.068-2.479,0.151
		c-0.492,0.13-0.494,0.901-0.003,1.039c0.161,0.126,0.61,0.153,0.36,0.421c-0.621,1.127-0.567,2.572,0.177,3.628
		c0.566,0.863,1.252,1.651,1.904,2.443c0.568,0.028,0.718,0.468,1.211,0.753c0.537,0.103,1.1,0.02,1.647,0.047
		c0.623-0.015,1.252,0.03,1.87-0.024c0.498-0.135,0.377-0.718,0.392-1.109c-0.011-0.318-0.015-0.604,0.17-0.167
		c0.466,0.788,0.883,1.612,1.378,2.378c0.335,0.365,1,0.024,0.917-0.461c0.003-0.289-0.084-0.665,0.342-0.527
		c1.245,0.017,2.447-0.679,3.04-1.775c0.522-0.899,0.926-1.865,1.345-2.812c-0.18-0.476,0.006-0.754,0.148-1.252
		c-0.005-0.435-0.333-0.786-0.486-1.181c-0.363-0.7-0.693-1.423-1.075-2.108c-0.25-0.283-0.648-0.165-0.899,0.044
		c-0.342,0.205-0.684,0.411-1.026,0.615c0.504-0.904,1.028-1.801,1.522-2.709c0.179-0.469-0.443-0.921-0.831-0.605
		c-0.24,0.238-0.422,0.23-0.523-0.11C19.884,12.75,19.265,12.072,18.371,12.065z"/>
	<path opacity="0.2" fill="#FFFFFF" enable-background="new    " d="M18.387,12.361l-3.75,0.007
		c-0.092-0.001-0.176,0.05-0.219,0.133c-0.042,0.082-0.036,0.18,0.017,0.256c-0.251-0.124-0.523-0.219-0.839-0.225
		c-0.259-0.005-0.541,0.036-0.839,0.148c-0.047,0.018-0.088,0.05-0.116,0.093L11.159,15c-0.039,0.055-0.053,0.124-0.04,0.19
		c0.013,0.067,0.052,0.124,0.11,0.159l2.888,1.809c0.059,0.036,0.129,0.047,0.195,0.03c0.067-0.017,0.122-0.063,0.155-0.123
		l1.397-2.686c0.017-0.028,0.027-0.06,0.031-0.093c0.407,0.591,0.749,1.248,1.017,1.856l-0.862,0.465
		c-0.102,0.052-0.155,0.167-0.127,0.28c0.028,0.111,0.129,0.188,0.243,0.186l3.385-0.007c0.089,0.001,0.173-0.046,0.217-0.124
		l1.576-2.795c0.063-0.099,0.047-0.229-0.038-0.31c-0.085-0.081-0.216-0.091-0.312-0.024l-0.613,0.389l-0.411-0.722
		c-0.005-0.005-0.01-0.01-0.015-0.015c-0.183-0.275-0.368-0.529-0.613-0.73c-0.246-0.2-0.55-0.339-0.932-0.373
		C18.402,12.36,18.395,12.36,18.387,12.361z M21.64,16.351c-0.036,0.005-0.071,0.018-0.101,0.039l-2.904,1.762
		c-0.113,0.067-0.154,0.21-0.093,0.326l1.436,2.648c0.012,0.024,0.028,0.044,0.047,0.063l-1.569,0.007l-0.008-0.769
		c0.003-0.114-0.075-0.216-0.187-0.243s-0.227,0.025-0.28,0.127l-1.552,2.779c-0.042,0.075-0.042,0.166,0,0.241l1.552,2.732
		c0.052,0.104,0.171,0.157,0.283,0.126c0.113-0.03,0.188-0.135,0.182-0.251l0.007-0.877h0.504c1.281-0.001,2.084-0.484,2.655-1.258
		c0.571-0.774,0.953-1.809,1.537-3.005c0.049-0.097,0.03-0.215-0.049-0.29c-0.079-0.075-0.198-0.09-0.292-0.036
		c0.297-0.313,0.537-0.673,0.512-1.072c-0.004-0.033-0.015-0.065-0.031-0.093l-1.413-2.818
		C21.837,16.399,21.741,16.344,21.64,16.351z M12.013,17.035l-3.145,0.171c-0.11,0.008-0.202,0.089-0.223,0.198
		c-0.022,0.108,0.032,0.219,0.13,0.268l0.792,0.396l-0.225,0.458c-0.571,1.147-0.498,2.085-0.062,2.943
		c0.437,0.858,1.193,1.653,2.003,2.709c0.077,0.094,0.212,0.118,0.317,0.057c0.105-0.063,0.148-0.192,0.102-0.305
		c-0.015-0.033-0.011-0.067-0.024-0.101c0.143,0.483,0.388,0.938,0.815,1.118c0.03,0.013,0.061,0.022,0.093,0.024h3.145
		c0.067,0.001,0.13-0.025,0.176-0.072c0.047-0.047,0.073-0.11,0.072-0.176l0.024-3.385c0.001-0.067-0.026-0.133-0.075-0.18
		s-0.114-0.072-0.182-0.069l-3.315,0.1c-0.044,0.001-0.087,0.015-0.124,0.039l0.714-1.436l0.691,0.342
		c0.1,0.046,0.217,0.021,0.289-0.062c0.072-0.083,0.081-0.202,0.022-0.295l-1.793-2.631C12.182,17.071,12.1,17.03,12.013,17.035z
		 M11.563,23.136c0.009,0.172,0.036,0.347,0.078,0.52C11.596,23.484,11.555,23.314,11.563,23.136z"/>
	<path opacity="0.3" fill="#669CCC" enable-background="new    " d="M18.387,12.61l-3.75,0.007c0.409,0.244,0.943,0.794,1.39,1.421
		c0.499,0.7,0.905,1.509,1.203,2.213l-1.063,0.574l3.385-0.007l1.576-2.795l-0.839,0.528l-0.536-0.947
		C19.396,13.066,19.061,12.669,18.387,12.61z M13.589,12.78c-0.23-0.005-0.476,0.031-0.745,0.133l-1.483,2.228l2.888,1.809
		l1.397-2.686C15.219,13.67,14.583,12.8,13.589,12.78z M21.663,16.6l-2.904,1.762l1.436,2.648l1.157,0.015
		c0.676,0.007,1.766-0.932,1.723-1.607L21.663,16.6z M12.028,17.283l-3.145,0.171l1.01,0.504l-0.334,0.675
		c-1.092,2.192,0.283,3.262,1.918,5.395c-0.233-0.529-0.221-1.097-0.015-1.645l1.452-2.919l0.908,0.45L12.028,17.283z M18.2,20.427
		l-1.552,2.779l1.552,2.732l0.007-1.126h0.753c2.449-0.001,2.787-1.708,3.967-4.123c-0.37,0.445-0.877,0.683-1.46,0.745l-3.26,0.007
		L18.2,20.427z M15.755,21.336l-3.315,0.101l-0.528,1.025c-0.308,0.602,0.052,1.996,0.675,2.259h3.145L15.755,21.336z"/>
	<path opacity="0.3" fill="#669CCC" enable-background="new    " d="M18.387,12.61l-3.75,0.007c0.409,0.244,0.943,0.794,1.39,1.421
		c0.499,0.7,0.905,1.509,1.203,2.213l-1.063,0.574l3.385-0.007l1.576-2.795l-0.839,0.528l-0.536-0.947
		C19.396,13.066,19.061,12.669,18.387,12.61z M13.589,12.78c-0.23-0.005-0.476,0.031-0.745,0.133l-1.483,2.228l2.888,1.809
		l1.397-2.686C15.219,13.67,14.583,12.8,13.589,12.78z M18.348,13.083c0.253,0.023,0.395,0.088,0.543,0.209
		c0.149,0.122,0.295,0.317,0.465,0.574l0.52,0.916c0.042,0.075,0.104,0.136,0.179,0.179l-0.784,1.382l-1.576,0.007
		c0.02-0.097,0.009-0.197-0.031-0.287c-0.308-0.726-0.721-1.556-1.25-2.298c-0.176-0.248-0.369-0.462-0.559-0.675L18.348,13.083z
		 M13.581,13.253c0.631,0.013,1.1,0.546,1.498,1.072l-1.009,1.949L12.029,15l1.11-1.669C13.294,13.288,13.448,13.251,13.581,13.253z
		 M21.663,16.6l-2.904,1.762l1.436,2.648l1.157,0.015c0.676,0.007,1.766-0.932,1.723-1.607L21.663,16.6z M21.469,17.276l1.118,2.22
		c-0.02,0.105-0.153,0.389-0.419,0.629c-0.291,0.264-0.691,0.428-0.807,0.427l-0.877-0.015l-1.087-2.003L21.469,17.276z
		 M12.028,17.283l-3.145,0.171l1.01,0.504l-0.334,0.675c-1.092,2.192,0.283,3.262,1.918,5.396c-0.233-0.53-0.221-1.097-0.015-1.646
		l1.452-2.919l0.908,0.45L12.028,17.283z M11.796,17.772l0.878,1.289c-0.08,0.045-0.144,0.113-0.187,0.194l-1.452,2.919
		c-0.006,0.015-0.011,0.031-0.015,0.047c-0.046,0.122-0.041,0.254-0.07,0.381c-0.433-0.54-0.813-1.028-1.033-1.46
		c-0.363-0.713-0.426-1.3,0.07-2.298l0.334-0.675c0.049-0.099,0.063-0.211,0.039-0.318L11.796,17.772z M18.2,20.427l-1.552,2.779
		l1.552,2.732l0.007-1.126h0.753c2.449-0.001,2.787-1.708,3.967-4.123c-0.37,0.445-0.877,0.683-1.46,0.745l-3.26,0.007L18.2,20.427z
		 M15.755,21.336l-3.315,0.101l-0.528,1.025c-0.308,0.602,0.052,1.996,0.675,2.259h3.145L15.755,21.336z M21.888,21.801
		c-0.289,0.628-0.559,1.187-0.846,1.576c-0.475,0.642-0.966,0.963-2.08,0.963h-0.753c-0.114,0-0.224,0.041-0.31,0.116l-0.706-1.25
		l0.761-1.367c0.076,0.05,0.165,0.077,0.256,0.078l3.26-0.007c0.015,0.001,0.031,0.001,0.047,0
		C21.646,21.896,21.762,21.831,21.888,21.801z M15.281,21.825l-0.024,2.422h-2.515c-0.085-0.065-0.29-0.314-0.389-0.66
		c-0.107-0.377-0.075-0.806-0.024-0.908l0.404-0.776L15.281,21.825z"/>
	<path opacity="0.3" fill="#669CCC" enable-background="new    " d="M18.387,12.61l-3.75,0.007c0.409,0.244,0.943,0.794,1.39,1.421
		c0.499,0.7,0.905,1.509,1.203,2.213l-1.063,0.574l3.385-0.007l1.576-2.795l-0.839,0.528l-0.536-0.947
		C19.396,13.066,19.061,12.669,18.387,12.61z M13.589,12.78c-0.23-0.005-0.476,0.031-0.745,0.133l-1.483,2.228l2.888,1.809
		l1.397-2.686C15.219,13.67,14.583,12.8,13.589,12.78z M18.364,12.85c0.294,0.026,0.488,0.117,0.668,0.264
		c0.176,0.144,0.342,0.35,0.513,0.605l0.007,0.015l0.528,0.932c0.032,0.059,0.086,0.102,0.151,0.12
		c0.065,0.017,0.133,0.008,0.19-0.026l0.024-0.015l-1.033,1.832l-2.275,0.007l0.21-0.116c0.111-0.06,0.158-0.194,0.108-0.31
		c-0.304-0.716-0.712-1.538-1.227-2.259c-0.291-0.408-0.61-0.749-0.924-1.041L18.364,12.85z M13.581,13.021
		c0.802,0.016,1.351,0.7,1.77,1.273L14.157,16.6l-2.454-1.536l1.289-1.933C13.206,13.058,13.4,13.017,13.581,13.021z M21.663,16.6
		l-2.904,1.762l1.436,2.648l1.157,0.015c0.676,0.007,1.766-0.932,1.723-1.607L21.663,16.6z M21.562,16.941l1.266,2.523
		c-0.003,0.204-0.196,0.552-0.504,0.831c-0.321,0.29-0.747,0.491-0.971,0.489l-1.009-0.015l-1.258-2.322L21.562,16.941z
		 M12.028,17.283l-3.145,0.171l1.01,0.504l-0.334,0.675c-1.092,2.192,0.283,3.262,1.918,5.395c-0.233-0.529-0.221-1.097-0.015-1.645
		l1.452-2.919l0.908,0.45L12.028,17.283z M11.905,17.531l1.188,1.754l-0.07-0.039c-0.12-0.059-0.266-0.011-0.326,0.108l-1.452,2.919
		c-0.003,0.007-0.005,0.015-0.007,0.024c-0.101,0.271-0.153,0.551-0.163,0.831c-0.564-0.7-1.074-1.326-1.359-1.887
		c-0.387-0.759-0.458-1.454,0.063-2.5l0.334-0.675c0.059-0.12,0.01-0.266-0.108-0.326l-0.194-0.093L11.905,17.531z M18.2,20.427
		l-1.552,2.779l1.552,2.732l0.007-1.126h0.753c2.449-0.001,2.787-1.708,3.967-4.123c-0.37,0.445-0.877,0.683-1.46,0.745l-3.26,0.007
		L18.2,20.427z M15.755,21.336l-3.315,0.101l-0.528,1.025c-0.308,0.602,0.052,1.996,0.675,2.259h3.145L15.755,21.336z
		 M17.968,21.336v0.108c0.002,0.133,0.108,0.238,0.241,0.241l3.26-0.007c0.007,0.001,0.015,0.001,0.024,0
		c0.289-0.031,0.56-0.116,0.815-0.233c-0.377,0.823-0.712,1.557-1.087,2.065c-0.505,0.684-1.091,1.063-2.259,1.063h-0.753
		c-0.133,0.002-0.239,0.108-0.241,0.241v0.217l-1.041-1.832L17.968,21.336z M15.515,21.585l-0.024,2.896h-2.826
		c-0.182-0.089-0.413-0.426-0.528-0.831c-0.118-0.416-0.109-0.881-0.007-1.08l0.465-0.901L15.515,21.585z"/>
</g>
</svg>
