<?xml version="1.0" encoding="utf-8"?>
<!-- Generator: Adobe Illustrator 17.0.0, SVG Export Plug-In . SVG Version: 6.00 Build 0)  -->
<!DOCTYPE svg PUBLIC "-//W3C//DTD SVG 1.1//EN" "http://www.w3.org/Graphics/SVG/1.1/DTD/svg11.dtd">
<svg version="1.1" id="图层_1" xmlns="http://www.w3.org/2000/svg" xmlns:xlink="http://www.w3.org/1999/xlink" x="0px" y="0px"
	 width="32px" height="32px" viewBox="0 0 32 32" enable-background="new 0 0 32 32" xml:space="preserve">
<g>
	<g id="g151" opacity="0.5">
		<path id="path153" opacity="0.08" enable-background="new    " d="M27.059,29.57H4.96c-2.035,0-3.693-1.595-3.693-3.549v2.714
			c0,1.527,1.297,2.764,2.886,2.764h23.711c1.589,0,2.868-1.238,2.868-2.764v-2.714C30.733,27.977,29.093,29.57,27.059,29.57z"/>
		<path id="path155" opacity="0.1" enable-background="new    " d="M27.04,29.57H4.941c-2.034,0-3.674-1.566-3.674-3.519v1.42
			c0,1.527,0.7,3.387,3.538,3.387s19.496,0,22.371,0s3.557-1.86,3.557-3.387v-1.42C30.733,28.006,29.074,29.57,27.04,29.57z"/>
		<path id="path157" opacity="0.1" enable-background="new    " d="M27.04,29.57H4.941c-2.034,0-3.674-1.566-3.674-3.519v0.766
			c0,1.527,1.215,3.397,3.538,3.397s19.711,0,22.371,0c2.66,0,3.557-1.87,3.557-3.396v-0.766
			C30.733,28.006,29.074,29.57,27.04,29.57z"/>
		<rect id="rect159" x="4.615" y="29.57" opacity="0.05" enable-background="new    " width="22.769" height="0.643"/>
		<rect id="rect161" x="5.285" y="29.57" opacity="0.05" enable-background="new    " width="20.76" height="0.643"/>
		<rect id="rect163" x="5.285" y="30.214" opacity="0.05" enable-background="new    " width="20.76" height="0.643"/>
		<rect id="rect165" x="6.624" y="30.214" opacity="0.05" enable-background="new    " width="18.751" height="0.643"/>
		<rect id="rect167" x="8.633" y="30.214" opacity="0.05" enable-background="new    " width="14.733" height="0.643"/>
		<rect id="rect169" x="11.312" y="30.214" opacity="0.05" enable-background="new    " width="9.376" height="0.643"/>
		<rect id="rect171" x="6.624" y="29.57" opacity="0.05" enable-background="new    " width="18.751" height="0.643"/>
		<rect id="rect173" x="7.964" y="29.57" opacity="0.05" enable-background="new    " width="16.072" height="0.643"/>
		<rect id="rect175" x="8.633" y="29.57" opacity="0.05" enable-background="new    " width="14.733" height="0.643"/>
		<rect id="rect177" x="9.973" y="29.57" opacity="0.05" enable-background="new    " width="12.054" height="0.643"/>
		<rect id="rect179" x="9.973" y="29.57" opacity="0.05" enable-background="new    " width="12.054" height="0.643"/>
	</g>
	<path fill="#C4DCED" stroke="#9DBCD7" stroke-miterlimit="10" d="M30.466,25.625c0,2.104-1.706,3.809-3.809,3.809H5.342
		c-2.104,0-3.809-1.706-3.809-3.809V4.309c0-2.104,1.706-3.809,3.809-3.809h21.316c2.104,0,3.809,1.706,3.809,3.809L30.466,25.625
		L30.466,25.625z"/>
	<path opacity="0.6" fill="none" stroke="#FFFFFF" stroke-miterlimit="10" enable-background="new    " d="M5.342,28.434
		c-1.549,0-2.809-1.261-2.809-2.81V4.309c0-1.549,1.26-2.809,2.809-2.809h21.316c1.549,0,2.809,1.26,2.809,2.809v21.315
		c0,1.549-1.261,2.81-2.81,2.81C26.657,28.435,5.342,28.435,5.342,28.434z"/>
	<path opacity="0.05" fill="none" stroke="#000000" stroke-miterlimit="10" enable-background="new    " d="M30.569,8.482
		c0,0,0-1.28-1.264-1.28c-3.669,0-15.386,0.002-16.434,0.002c-1.275,0-1.264-1.262-1.264-1.262s0-1.27-1.264-1.27
		c-2.213,0-6.645,0-7.585,0c-1.245,0-1.264,1.224-1.264,1.263"/>
	
		<linearGradient id="SVGID_1_" gradientUnits="userSpaceOnUse" x1="1385.9995" y1="-1686.4335" x2="1385.9995" y2="-1662.5765" gradientTransform="matrix(1 0 0 -1 -1370 -1657)">
		<stop  offset="0" style="stop-color:#D1E0ED"/>
		<stop  offset="1" style="stop-color:#E4EEFB"/>
	</linearGradient>
	<path fill="url(#SVGID_1_)" stroke="#9DBCD7" stroke-miterlimit="10" d="M5.334,29.433h21.395c2.104,0,3.738-1.749,3.738-3.853V8.5
		c0-0.3-0.448-0.582-1.045-0.582c-3.685,0-15.435,0.002-16.488,0.002c-1.28,0-1.261-1.168-1.261-1.168s0.009-1.176-1.261-1.176
		c-2.222,0-6.674,0-7.618,0c-1.25,0-1.262,1.036-1.262,1.075v18.93C1.533,27.684,3.23,29.433,5.334,29.433z"/>
	<path opacity="0.8" fill="none" stroke="#FFFFFF" stroke-miterlimit="10" enable-background="new    " d="M5.333,28.434
		c-1.544,0-2.8-1.279-2.801-2.853V6.651c0.031-0.045,0.105-0.075,0.261-0.075h7.618c0.144,0,0.202,0.029,0.21,0.037
		c0.028,0.029,0.051,0.131,0.051,0.132c-0.002,0.142,0.016,0.928,0.618,1.541c0.285,0.29,0.8,0.634,1.642,0.634
		c0,0,16.519-0.001,16.533-0.001v16.662c0,1.573-1.229,2.853-2.738,2.853C26.727,28.435,5.333,28.435,5.333,28.434z"/>
	<g id="g27_1_">
		
			<linearGradient id="path36_2_" gradientUnits="userSpaceOnUse" x1="1784.7555" y1="-2475.4534" x2="1788.7751" y2="-2482.4158" gradientTransform="matrix(1 0 0 -1 -1782 -2475)">
			<stop  offset="0" style="stop-color:#FFFFFF"/>
			<stop  offset="0.5" style="stop-color:#FFFFFF;stop-opacity:0.6"/>
			<stop  offset="1" style="stop-color:#FFFFFF;stop-opacity:0.15"/>
		</linearGradient>
		<path id="path36_1_" fill="url(#path36_2_)" d="M6.07,8.598c0.449-0.93,0.998-1.802,1.627-2.607L6.552,3.48
			C5.574,4.404,4.781,5.424,4.147,6.412L6.07,8.598z"/>
		
			<linearGradient id="path45_2_" gradientUnits="userSpaceOnUse" x1="1788.3998" y1="-2474.4114" x2="1791.0304" y2="-2478.9678" gradientTransform="matrix(1 0 0 -1 -1782 -2475)">
			<stop  offset="0" style="stop-color:#FFFFFF"/>
			<stop  offset="0.5" style="stop-color:#FFFFFF;stop-opacity:0.6"/>
			<stop  offset="1" style="stop-color:#FFFFFF;stop-opacity:0.15"/>
		</linearGradient>
		<path id="path45_1_" fill="url(#path45_2_)" d="M6.189,1.067l0.598,1.311C7.363,1.9,7.994,1.736,8.682,1.067H6.189z"/>
		
			<linearGradient id="path54_2_" gradientUnits="userSpaceOnUse" x1="1789.2275" y1="-2473.5459" x2="1792.4418" y2="-2479.113" gradientTransform="matrix(1 0 0 -1 -1782 -2475)">
			<stop  offset="0" style="stop-color:#FFFFFF"/>
			<stop  offset="0.5" style="stop-color:#FFFFFF;stop-opacity:0.6"/>
			<stop  offset="1" style="stop-color:#FFFFFF;stop-opacity:0.15"/>
		</linearGradient>
		<path id="path54_1_" fill="url(#path54_2_)" d="M10.68,1.067h-0.473C9.013,1.736,7.969,2.247,7.074,3.009l1.097,2.408
			c0.937-1.083,2.025-2.032,3.243-2.798c0.009-0.008,0.016-0.016,0.026-0.024C12.804,1.416,11.449,1.067,10.68,1.067z"/>
		
			<linearGradient id="path63_2_" gradientUnits="userSpaceOnUse" x1="1782.4993" y1="-2478.6277" x2="1785.9874" y2="-2484.6692" gradientTransform="matrix(1 0 0 -1 -1782 -2475)">
			<stop  offset="0" style="stop-color:#FFFFFF"/>
			<stop  offset="0.5" style="stop-color:#FFFFFF;stop-opacity:0.6"/>
			<stop  offset="1" style="stop-color:#FFFFFF;stop-opacity:0.15"/>
		</linearGradient>
		<path id="path63_1_" fill="url(#path63_2_)" d="M3.782,7.01c-0.734,1.25-1.214,2.405-1.499,3.195
			c0.337,0.481,0.894,0.797,1.526,0.797c0.783,0,1.451-0.483,1.727-1.167c0.071-0.191,0.157-0.374,0.236-0.562L3.782,7.01z"/>
		
			<linearGradient id="path72_2_" gradientUnits="userSpaceOnUse" x1="1782.3423" y1="-2478.8752" x2="1786.208" y2="-2485.5708" gradientTransform="matrix(1 0 0 -1 -1782 -2475)">
			<stop  offset="0" style="stop-color:#FFFFFF"/>
			<stop  offset="0.5" style="stop-color:#FFFFFF;stop-opacity:0.6"/>
			<stop  offset="1" style="stop-color:#FFFFFF;stop-opacity:0.15"/>
		</linearGradient>
		<path id="path72_1_" fill="url(#path72_2_)" d="M1.959,4.937L1.945,9.135c0,0,0,0.001,0,0.003c0,0.026,0.006,0.051,0.008,0.077
			C2.272,8.438,2.718,7.49,3.322,6.486L1.959,4.937z"/>
		
			<linearGradient id="path149_2_" gradientUnits="userSpaceOnUse" x1="1785.2657" y1="-2476.7783" x2="1788.8955" y2="-2483.0654" gradientTransform="matrix(1 0 0 -1 -1782 -2475)">
			<stop  offset="0" style="stop-color:#FFFFFF"/>
			<stop  offset="0.5" style="stop-color:#FFFFFF;stop-opacity:0.6"/>
			<stop  offset="1" style="stop-color:#FFFFFF;stop-opacity:0.15"/>
		</linearGradient>
		<path id="path149_1_" fill="url(#path149_2_)" d="M5.391,1.076c-1.364-0.113-3.16,1.423-3.39,2.896l1.692,1.924
			c0.675-1.031,1.515-2.087,2.552-3.04L5.391,1.076z"/>
	</g>
	
		<radialGradient id="SVGID_2_" cx="1862.412" cy="1354.463" r="22.6588" gradientTransform="matrix(0.0197 0.9998 0.9109 -0.018 -1255.4794 -1826.5901)" gradientUnits="userSpaceOnUse">
		<stop  offset="0" style="stop-color:#FFFFFF;stop-opacity:0.6"/>
		<stop  offset="0.3783" style="stop-color:#FAFCFE;stop-opacity:0.4487"/>
		<stop  offset="0.829" style="stop-color:#EBF3FC;stop-opacity:0.2684"/>
		<stop  offset="1" style="stop-color:#E4EEFB;stop-opacity:0.2"/>
	</radialGradient>
	<path fill="url(#SVGID_2_)" d="M5.582,28.655c-1.774,0-3.216-1.465-3.216-3.267V6.9c0-0.023,0.004-0.221,0.151-0.369
		c0.123-0.123,0.32-0.186,0.585-0.186h7.441c0.294,0,0.443,0.035,0.532,0.125c0.198,0.199,0.206,0.501,0.206,0.505
		c-0.001,0.065,0.003,0.712,0.482,1.198c0.305,0.31,0.724,0.467,1.244,0.467c0,0,13.755-0.005,16.1-0.005
		c0.31,0,0.481,0.106,0.525,0.158v16.596c0,1.802-1.415,3.267-3.155,3.267L5.582,28.655L5.582,28.655L5.582,28.655z"/>
</g>
<g id="Symbol">
	<path opacity="0.05" fill="#FFFFFF" enable-background="new    " d="M18.435,10.344c-1.321,0.014-2.658-0.022-3.992,0.017
		c-0.067,0.001-0.13,0.026-0.178,0.071c-0.13,0.133-0.229,0.133-0.436,0.116c-0.194-0.017-0.466-0.054-0.767,0.009v-0.009
		c-0.01,0.001-0.017,0.008-0.027,0.009c-0.01,0.003-0.016-0.003-0.027,0v0.009c-0.451,0.041-0.876,0.274-1.087,0.704l-0.009-0.009
		c-0.007,0.011-0.011,0.025-0.018,0.036c-0.459,0.71-0.963,1.412-1.408,2.156c-0.011,0.017-0.02,0.035-0.027,0.054
		c-0.104,0.306,0.017,0.601,0.187,0.784c0.167,0.18,0.373,0.295,0.534,0.383c0.003,0.002,0.006,0.006,0.009,0.009
		c0.251,0.153,0.515,0.304,0.766,0.463c-0.091-0.008-0.186-0.015-0.267-0.009c-0.234,0.017-0.44,0.056-0.588,0.045
		c-0.012-0.001-0.024-0.001-0.036,0c-0.837,0.056-1.698,0.065-2.558,0.152c-0.012,0.002-0.024,0.005-0.036,0.009
		c-0.717,0.19-0.737,1.233-0.089,1.515l-0.009,0.009c0.04,0.031,0.052,0.024,0.089,0.044c0.08,0.044,0.137,0.082,0.187,0.098
		c-0.66,1.236-0.589,2.791,0.223,3.948c0.001,0.002-0.001,0.007,0,0.009c0.593,0.903,1.298,1.715,1.961,2.522
		c0.049,0.056,0.121,0.089,0.196,0.089c0.225,0.012,0.325,0.085,0.481,0.223c0.156,0.138,0.339,0.346,0.633,0.517
		c0.025,0.016,0.052,0.028,0.08,0.036c0.611,0.117,1.213,0.019,1.737,0.044c0.006,0.001,0.012,0.001,0.018,0
		c0.62-0.015,1.27,0.04,1.933-0.017c0.015-0.001,0.03-0.005,0.044-0.009c0.176-0.047,0.324-0.15,0.419-0.276
		s0.138-0.266,0.161-0.401c0.015-0.089,0.006-0.148,0.009-0.232c0.363,0.64,0.706,1.293,1.114,1.925
		c0.008,0.012,0.017,0.025,0.027,0.036c0.502,0.547,1.457,0.067,1.381-0.651h0.009c0.001-0.022-0.001-0.023,0-0.044
		c0.001-0.115,0.007-0.192,0.009-0.241c0.007,0.002,0.001-0.003,0.009,0c0.026,0.007,0.053,0.01,0.08,0.009
		c1.373,0.019,2.683-0.744,3.341-1.952c0.002-0.003,0.007-0.006,0.009-0.009c0.543-0.938,0.963-1.932,1.39-2.896
		c0.026-0.063,0.026-0.133,0-0.196c-0.076-0.2-0.071-0.325-0.035-0.49c0.035-0.164,0.118-0.37,0.196-0.642
		c0.006-0.023,0.009-0.047,0.009-0.071c-0.006-0.576-0.386-0.973-0.517-1.31c-0.003-0.006-0.006-0.012-0.009-0.018
		c-0.368-0.712-0.707-1.45-1.105-2.165c-0.01-0.016-0.023-0.031-0.036-0.045c-0.186-0.21-0.463-0.287-0.695-0.258
		c-0.218,0.027-0.403,0.126-0.561,0.25l-0.009,0.009c-0.007,0.006-0.019,0.003-0.027,0.009l-0.169,0.107
		c0.363-0.64,0.726-1.278,1.079-1.925c0.004-0.012,0.007-0.024,0.009-0.036c0.275-0.72-0.649-1.404-1.248-0.918
		c-0.01,0.006-0.018,0.012-0.027,0.017c-0.071,0.07-0.063,0.067-0.062,0.071c-0.01-0.019-0.023-0.029-0.035-0.071
		c-0.006-0.022-0.016-0.043-0.027-0.062C20.195,11.128,19.482,10.351,18.435,10.344z M15.93,14.06
		c0.082,0.118,0.169,0.264,0.214,0.357c0.051,0.102,0.042,0.159,0.045,0.152c0.003-0.007,0.011,0.025-0.142,0.062
		c-0.006,0-0.012,0-0.018,0c-0.24,0.08-0.445,0.241-0.57,0.463c-0.124,0.222-0.152,0.532,0,0.793
		c0.186,0.313,0.521,0.409,0.793,0.418c0.272,0.01,0.529-0.027,0.686-0.009c0.009,0.001,0.017,0.001,0.027,0l1.586-0.009
		c-0.131,0.088-0.267,0.167-0.383,0.295c-0.01,0.014-0.019,0.028-0.027,0.044c-0.183,0.316-0.111,0.662,0.009,0.909
		c0.12,0.247,0.278,0.455,0.339,0.606c0.003,0.009,0.006,0.018,0.009,0.027l0.178,0.33c-0.049-0.032-0.084-0.078-0.142-0.098
		c-0.002-0.001,0.001-0.008,0-0.009c-0.003-0.001-0.006,0.001-0.009,0c-0.267-0.094-0.542-0.017-0.73,0.124
		c-0.182,0.136-0.297,0.324-0.374,0.517l-0.009-0.009l-0.864,1.559c0.001-0.246,0.024-0.475-0.018-0.73
		c-0.004-0.019-0.01-0.037-0.017-0.054c-0.072-0.172-0.199-0.313-0.339-0.392c-0.14-0.078-0.281-0.098-0.418-0.107
		c-0.276-0.018-0.542,0.026-0.704,0.018c-0.006-0.001-0.012-0.001-0.018,0l-0.918,0.027c0.071-0.034,0.144-0.054,0.205-0.116
		l0.009,0.009c0.005-0.005,0.004-0.014,0.009-0.018c0.223-0.213,0.273-0.525,0.214-0.766c-0.059-0.24-0.196-0.431-0.33-0.588h0.009
		c-0.005-0.007-0.014-0.011-0.018-0.018c-0.522-0.747-1.025-1.522-1.568-2.272c0.433,0.273,0.856,0.549,1.301,0.802
		c0.017,0.011,0.035,0.02,0.053,0.027c0.327,0.092,0.635-0.056,0.811-0.25c0.173-0.19,0.269-0.415,0.348-0.588l0.009-0.009
		L15.93,14.06z M19.067,19.21l0.107,0.196h-0.098C19.077,19.343,19.072,19.281,19.067,19.21z M13.204,19.273
		c0.066,0.034,0.128,0.059,0.205,0.089l-0.25,0.009L13.204,19.273z"/>
	<path opacity="0.1" fill="#FFFFFF" enable-background="new    " d="M18.438,10.599c-1.327,0.014-2.658-0.016-3.983,0.024
		c-0.388,0.395-0.873,0.051-1.379,0.185c-0.407,0.022-0.77,0.227-0.938,0.601c-0.47,0.729-0.982,1.435-1.426,2.178
		c-0.148,0.436,0.284,0.69,0.604,0.866c0.919,0.56,1.816,1.168,2.749,1.698c0.47,0.133,0.699-0.354,0.856-0.7
		c0.331-0.638,0.662-1.275,0.993-1.913c0.18,0.452,0.993,1.15,0.198,1.344c-0.352,0.117-0.638,0.51-0.429,0.87
		c0.267,0.451,0.851,0.237,1.278,0.285c0.833-0.002,1.665-0.004,2.497-0.006c-0.357,0.253-0.796,0.409-1.091,0.733
		c-0.265,0.457,0.204,0.873,0.367,1.278c0.292,0.538,0.584,1.076,0.876,1.614c-0.26,0.003-0.52,0.006-0.781,0.008
		c-0.003-0.365,0.06-0.878-0.382-1.019c-0.374-0.137-0.681,0.181-0.803,0.504c-0.447,0.801-0.893,1.601-1.34,2.403
		c-0.021-0.551,0.057-1.115-0.032-1.657c-0.21-0.501-0.813-0.303-1.232-0.322c-0.768,0.023-1.537,0.045-2.305,0.067
		c0.117-0.236,0.234-0.473,0.35-0.709c0.321,0.166,0.749,0.446,1.068,0.111c0.332-0.3,0.098-0.754-0.139-1.03
		c-0.577-0.824-1.121-1.679-1.717-2.484c-0.348-0.267-0.815-0.062-1.217-0.091c-0.847,0.057-1.7,0.07-2.543,0.155
		c-0.505,0.133-0.508,0.925-0.003,1.066c0.166,0.13,0.626,0.157,0.369,0.431c-0.637,1.156-0.582,2.638,0.182,3.723
		c0.581,0.885,1.285,1.695,1.953,2.506c0.583,0.03,0.737,0.48,1.243,0.772c0.55,0.106,1.129,0.02,1.689,0.048
		c0.638-0.015,1.285,0.031,1.919-0.024c0.511-0.138,0.387-0.737,0.403-1.138c-0.012-0.327-0.016-0.62,0.174-0.172
		c0.479,0.809,0.907,1.653,1.414,2.44c0.344,0.374,1.026,0.024,0.941-0.473c0.003-0.297-0.087-0.682,0.352-0.54
		c1.277,0.017,2.51-0.696,3.119-1.821c0.535-0.922,0.95-1.914,1.38-2.885c-0.185-0.488,0.006-0.774,0.152-1.285
		c-0.005-0.446-0.341-0.806-0.499-1.212c-0.372-0.717-0.712-1.459-1.103-2.163c-0.257-0.291-0.664-0.169-0.923,0.045
		c-0.351,0.21-0.702,0.422-1.053,0.631c0.518-0.928,1.055-1.848,1.561-2.78c0.183-0.48-0.455-0.945-0.852-0.622
		c-0.247,0.245-0.433,0.236-0.536-0.113C19.99,11.301,19.355,10.605,18.438,10.599z"/>
	<path opacity="0.2" fill="#FFFFFF" enable-background="new    " d="M18.454,10.902l-3.847,0.008
		c-0.094-0.001-0.181,0.052-0.225,0.136c-0.044,0.084-0.037,0.185,0.017,0.262c-0.257-0.128-0.536-0.225-0.86-0.231
		c-0.265-0.005-0.554,0.038-0.86,0.152c-0.049,0.019-0.091,0.052-0.119,0.096l-1.521,2.286c-0.04,0.056-0.054,0.127-0.041,0.194
		c0.014,0.068,0.054,0.127,0.112,0.164l2.963,1.856c0.06,0.037,0.132,0.049,0.2,0.03c0.068-0.018,0.126-0.064,0.159-0.126
		l1.434-2.756c0.017-0.03,0.028-0.062,0.032-0.096c0.418,0.606,0.768,1.28,1.043,1.904l-0.884,0.478
		c-0.105,0.054-0.159,0.172-0.13,0.287c0.028,0.114,0.133,0.194,0.25,0.191l3.473-0.008c0.092,0.001,0.177-0.047,0.223-0.128
		l1.617-2.867c0.065-0.102,0.049-0.235-0.039-0.318c-0.087-0.084-0.221-0.094-0.319-0.025l-0.629,0.398l-0.422-0.741
		c-0.005-0.006-0.01-0.011-0.016-0.016c-0.188-0.282-0.377-0.543-0.629-0.749c-0.252-0.206-0.565-0.348-0.956-0.382
		C18.47,10.902,18.462,10.902,18.454,10.902z M21.791,14.996c-0.037,0.006-0.073,0.019-0.104,0.04l-2.979,1.808
		c-0.115,0.069-0.158,0.216-0.096,0.334l1.474,2.716c0.012,0.024,0.028,0.045,0.048,0.064l-1.609,0.008l-0.008-0.789
		c0.003-0.117-0.077-0.221-0.192-0.25c-0.114-0.028-0.233,0.026-0.287,0.13l-1.593,2.852c-0.043,0.076-0.043,0.17,0,0.247
		l1.593,2.804c0.054,0.107,0.175,0.161,0.291,0.13s0.194-0.139,0.187-0.257l0.008-0.9h0.518c1.315-0.001,2.138-0.497,2.724-1.29
		c0.586-0.793,0.978-1.856,1.577-3.083c0.051-0.099,0.03-0.221-0.051-0.298c-0.08-0.077-0.203-0.092-0.3-0.037
		c0.305-0.321,0.552-0.69,0.525-1.099c-0.004-0.034-0.015-0.066-0.032-0.096l-1.449-2.892
		C21.993,15.045,21.895,14.989,21.791,14.996z M11.914,15.697l-3.226,0.175c-0.113,0.008-0.207,0.091-0.23,0.203
		c-0.023,0.111,0.032,0.224,0.134,0.275l0.813,0.407l-0.231,0.47c-0.586,1.177-0.512,2.139-0.063,3.019
		c0.448,0.88,1.225,1.696,2.055,2.78c0.079,0.097,0.218,0.122,0.325,0.058c0.107-0.064,0.152-0.197,0.105-0.313
		c-0.015-0.034-0.011-0.069-0.024-0.104c0.147,0.495,0.398,0.962,0.837,1.147c0.03,0.014,0.062,0.023,0.096,0.024h3.226
		c0.068,0.001,0.133-0.026,0.181-0.074c0.048-0.048,0.074-0.113,0.074-0.181l0.024-3.473c0.001-0.069-0.027-0.135-0.076-0.184
		s-0.117-0.074-0.186-0.071l-3.401,0.103c-0.045,0.001-0.089,0.015-0.128,0.04l0.733-1.474l0.709,0.35
		c0.102,0.047,0.223,0.021,0.297-0.063c0.074-0.085,0.083-0.208,0.022-0.303l-1.84-2.7C12.088,15.735,12.003,15.693,11.914,15.697z
		 M11.453,21.958c0.009,0.176,0.037,0.355,0.08,0.534C11.486,22.315,11.445,22.14,11.453,21.958z"/>
	<path opacity="0.3" fill="#669CCC" enable-background="new    " d="M18.454,11.157l-3.847,0.008
		c0.42,0.251,0.967,0.815,1.426,1.458c0.512,0.719,0.928,1.548,1.235,2.27l-1.091,0.589l3.473-0.008l1.617-2.867l-0.86,0.542
		l-0.55-0.972C19.489,11.625,19.146,11.219,18.454,11.157z M13.532,11.332c-0.236-0.005-0.488,0.032-0.765,0.135l-1.521,2.286
		l2.963,1.856l1.434-2.756C15.204,12.245,14.552,11.352,13.532,11.332z M21.815,15.251l-2.979,1.808l1.474,2.716l1.187,0.016
		c0.693,0.008,1.812-0.957,1.768-1.649L21.815,15.251z M11.931,15.952l-3.226,0.175l1.035,0.518l-0.343,0.693
		c-1.12,2.249,0.29,3.347,1.968,5.536c-0.24-0.543-0.226-1.125-0.016-1.689l1.49-2.995l0.932,0.462L11.931,15.952z M18.262,19.178
		L16.67,22.03l1.593,2.804l0.008-1.155h0.772c2.513-0.001,2.859-1.753,4.07-4.23c-0.379,0.457-0.9,0.701-1.498,0.765l-3.345,0.008
		L18.262,19.178z M15.753,20.11l-3.401,0.104l-0.542,1.052c-0.316,0.618,0.054,2.049,0.693,2.318h3.226L15.753,20.11z"/>
	<path opacity="0.3" fill="#669CCC" enable-background="new    " d="M18.454,11.157l-3.847,0.008
		c0.42,0.251,0.967,0.815,1.426,1.458c0.512,0.719,0.928,1.548,1.235,2.27l-1.091,0.589l3.473-0.008l1.617-2.867l-0.86,0.541
		l-0.55-0.972C19.489,11.625,19.146,11.219,18.454,11.157z M13.532,11.332c-0.236-0.005-0.488,0.032-0.765,0.135l-1.521,2.286
		l2.963,1.856l1.434-2.756C15.204,12.245,14.552,11.352,13.532,11.332z M18.414,11.643c0.26,0.023,0.405,0.091,0.558,0.215
		c0.153,0.125,0.303,0.326,0.478,0.589l0.534,0.94c0.043,0.076,0.107,0.14,0.183,0.183l-0.805,1.418l-1.617,0.008
		c0.02-0.099,0.009-0.202-0.032-0.295c-0.316-0.745-0.74-1.597-1.283-2.358c-0.181-0.254-0.379-0.474-0.574-0.693L18.414,11.643z
		 M13.523,11.818c0.647,0.013,1.129,0.559,1.537,1.099l-1.035,1.999L11.93,13.61l1.14-1.712
		C13.229,11.853,13.387,11.815,13.523,11.818z M21.815,15.251l-2.979,1.808l1.474,2.716l1.187,0.016
		c0.693,0.008,1.812-0.957,1.768-1.649L21.815,15.251z M21.616,15.944l1.147,2.278c-0.021,0.107-0.157,0.398-0.431,0.646
		c-0.298,0.27-0.71,0.44-0.828,0.438l-0.9-0.016l-1.115-2.055L21.616,15.944z M11.931,15.952l-3.226,0.175l1.035,0.518l-0.343,0.693
		c-1.12,2.249,0.29,3.347,1.968,5.536c-0.24-0.543-0.226-1.125-0.016-1.689l1.49-2.995l0.932,0.462L11.931,15.952z M11.692,16.453
		l0.9,1.322c-0.082,0.046-0.148,0.116-0.192,0.199l-1.489,2.995c-0.006,0.016-0.012,0.032-0.016,0.048
		c-0.047,0.126-0.042,0.26-0.071,0.39c-0.444-0.554-0.834-1.055-1.06-1.498c-0.372-0.731-0.438-1.334,0.072-2.358l0.343-0.693
		c0.051-0.101,0.065-0.216,0.04-0.326L11.692,16.453z M18.262,19.178L16.67,22.03l1.593,2.804l0.008-1.155h0.772
		c2.513-0.001,2.859-1.753,4.07-4.23c-0.379,0.457-0.9,0.701-1.498,0.765l-3.345,0.008L18.262,19.178z M15.753,20.11l-3.401,0.104
		l-0.542,1.052c-0.316,0.618,0.054,2.049,0.693,2.318h3.226L15.753,20.11z M22.046,20.588c-0.297,0.644-0.574,1.218-0.868,1.617
		c-0.487,0.66-0.991,0.987-2.135,0.987h-0.772c-0.117,0-0.23,0.042-0.319,0.119l-0.725-1.283l0.78-1.402
		c0.078,0.051,0.169,0.079,0.263,0.08l3.345-0.008c0.016,0.001,0.032,0.001,0.048,0C21.797,20.685,21.916,20.619,22.046,20.588z
		 M15.268,20.612l-0.024,2.486h-2.58c-0.087-0.067-0.298-0.322-0.398-0.677c-0.11-0.388-0.077-0.828-0.024-0.932l0.414-0.796
		L15.268,20.612z"/>
	<path opacity="0.3" fill="#669CCC" enable-background="new    " d="M18.454,11.157l-3.847,0.008
		c0.42,0.251,0.967,0.815,1.426,1.458c0.512,0.719,0.928,1.548,1.235,2.27l-1.091,0.589l3.473-0.008l1.617-2.867l-0.86,0.542
		l-0.55-0.972C19.489,11.625,19.146,11.219,18.454,11.157z M13.532,11.332c-0.236-0.005-0.488,0.032-0.765,0.135l-1.521,2.286
		l2.963,1.856l1.434-2.756C15.204,12.245,14.552,11.352,13.532,11.332z M18.43,11.403c0.302,0.027,0.501,0.12,0.685,0.271
		c0.18,0.148,0.35,0.359,0.526,0.622l0.008,0.016l0.541,0.956c0.032,0.06,0.089,0.105,0.155,0.122
		c0.066,0.018,0.137,0.008,0.196-0.027l0.024-0.016l-1.059,1.88l-2.334,0.008l0.216-0.119c0.114-0.062,0.162-0.199,0.111-0.319
		c-0.311-0.734-0.731-1.578-1.259-2.317c-0.298-0.418-0.626-0.769-0.948-1.068L18.43,11.403z M13.523,11.579
		c0.823,0.017,1.386,0.718,1.816,1.306l-1.227,2.365l-2.517-1.577l1.322-1.983C13.138,11.617,13.337,11.575,13.523,11.579z
		 M21.815,15.251l-2.979,1.808l1.474,2.716l1.187,0.016c0.693,0.008,1.812-0.957,1.768-1.649L21.815,15.251z M21.712,15.601
		l1.299,2.589c-0.004,0.209-0.201,0.567-0.517,0.852c-0.329,0.297-0.767,0.504-0.996,0.502l-1.035-0.016l-1.29-2.382L21.712,15.601z
		 M11.931,15.952l-3.226,0.175l1.035,0.518l-0.343,0.693c-1.12,2.249,0.29,3.347,1.968,5.536c-0.24-0.543-0.226-1.125-0.016-1.689
		l1.49-2.995l0.932,0.462L11.931,15.952z M11.803,16.207l1.219,1.8l-0.071-0.04c-0.123-0.061-0.273-0.011-0.334,0.111l-1.49,2.995
		c-0.003,0.008-0.006,0.016-0.008,0.024c-0.104,0.278-0.157,0.565-0.167,0.852c-0.579-0.718-1.101-1.361-1.393-1.936
		c-0.396-0.779-0.47-1.492,0.064-2.565l0.343-0.693c0.061-0.123,0.011-0.273-0.111-0.334l-0.2-0.095L11.803,16.207z M18.262,19.178
		L16.67,22.03l1.593,2.804l0.008-1.155h0.772c2.513-0.001,2.859-1.753,4.07-4.23c-0.379,0.457-0.9,0.701-1.498,0.765l-3.345,0.008
		L18.262,19.178z M15.753,20.11l-3.401,0.104l-0.542,1.052c-0.316,0.618,0.054,2.049,0.693,2.318h3.226L15.753,20.11z M18.024,20.11
		v0.111c0.002,0.135,0.111,0.245,0.247,0.247l3.345-0.008c0.008,0.001,0.016,0.001,0.024,0c0.297-0.031,0.575-0.119,0.837-0.239
		c-0.387,0.844-0.731,1.598-1.115,2.119c-0.518,0.703-1.12,1.091-2.317,1.091h-0.772c-0.135,0.002-0.245,0.111-0.247,0.247V23.9
		l-1.068-1.88L18.024,20.11z M15.507,20.365l-0.024,2.971h-2.899c-0.187-0.092-0.423-0.436-0.542-0.852
		c-0.121-0.427-0.112-0.904-0.008-1.107l0.478-0.924L15.507,20.365z"/>
</g>
</svg>
