<?xml version="1.0" encoding="UTF-8" standalone="no"?>
<!-- Created with Inkscape (http://www.inkscape.org/) -->

<svg
   xmlns:dc="http://purl.org/dc/elements/1.1/"
   xmlns:cc="http://creativecommons.org/ns#"
   xmlns:rdf="http://www.w3.org/1999/02/22-rdf-syntax-ns#"
   xmlns:svg="http://www.w3.org/2000/svg"
   xmlns="http://www.w3.org/2000/svg"
   xmlns:xlink="http://www.w3.org/1999/xlink"
   xmlns:sodipodi="http://sodipodi.sourceforge.net/DTD/sodipodi-0.dtd"
   xmlns:inkscape="http://www.inkscape.org/namespaces/inkscape"
   width="48"
   height="48"
   id="svg3022"
   version="1.1"
   inkscape:version="0.48+devel r12474"
   sodipodi:docname="distributor-logo.svg"
   inkscape:export-filename="/home/uri/avatar.png"
   inkscape:export-xdpi="480"
   inkscape:export-ydpi="480">
  <defs
     id="defs3024">
    <linearGradient
       inkscape:collect="always"
       id="linearGradient839">
      <stop
         style="stop-color:#262b37;stop-opacity:1"
         offset="0"
         id="stop841" />
      <stop
         style="stop-color:#242e51;stop-opacity:1"
         offset="1"
         id="stop843" />
    </linearGradient>
    <linearGradient
       inkscape:collect="always"
       id="linearGradient1052">
      <stop
         style="stop-color:#000000;stop-opacity:1;"
         offset="0"
         id="stop1054" />
      <stop
         style="stop-color:#000000;stop-opacity:0;"
         offset="1"
         id="stop1056" />
    </linearGradient>
    <linearGradient
       inkscape:collect="always"
       xlink:href="#linearGradient839"
       id="linearGradient1429"
       x1="75.875"
       y1="-1051.6122"
       x2="75.875"
       y2="-1003.6122"
       gradientUnits="userSpaceOnUse"
       gradientTransform="translate(-52.000013,-0.75003476)" />
    <linearGradient
       id="linearGradient1351-5"
       inkscape:collect="always">
      <stop
         id="stop1353-3"
         offset="0"
         style="stop-color:#6037dd;stop-opacity:1" />
      <stop
         id="stop1355-1"
         offset="1"
         style="stop-color:#0397dd;stop-opacity:1" />
    </linearGradient>
    <linearGradient
       inkscape:collect="always"
       xlink:href="#linearGradient1351-5"
       id="linearGradient4740"
       gradientUnits="userSpaceOnUse"
       x1="5.5794435"
       y1="30.566097"
       x2="5.672287"
       y2="12.884295" />
    <linearGradient
       inkscape:collect="always"
       xlink:href="#linearGradient1052"
       id="linearGradient4758"
       x1="-21.492188"
       y1="1012.9559"
       x2="-28.129953"
       y2="1036.4052"
       gradientUnits="userSpaceOnUse"
       gradientTransform="matrix(1,0,0,0.99997403,38.628048,0.02679679)" />
    <linearGradient
       inkscape:collect="always"
       xlink:href="#linearGradient1052"
       id="linearGradient4783"
       x1="-31.382812"
       y1="32.111328"
       x2="-22.564491"
       y2="33.605621"
       gradientUnits="userSpaceOnUse"
       gradientTransform="translate(38.628048,1004.3622)" />
    <linearGradient
       inkscape:collect="always"
       xlink:href="#linearGradient1052"
       id="linearGradient4817"
       x1="2.7695312"
       y1="36.882812"
       x2="-9.3125"
       y2="15.96875"
       gradientUnits="userSpaceOnUse"
       gradientTransform="translate(38.628048,1004.3622)" />
  </defs>
  <sodipodi:namedview
     id="base"
     pagecolor="#ffffff"
     bordercolor="#666666"
     borderopacity="1.0"
     inkscape:pageopacity="0.0"
     inkscape:pageshadow="2"
     inkscape:zoom="8.46875"
     inkscape:cx="44.704256"
     inkscape:cy="27.843284"
     inkscape:document-units="px"
     inkscape:current-layer="layer1"
     showgrid="false"
     inkscape:window-width="1366"
     inkscape:window-height="718"
     inkscape:window-x="0"
     inkscape:window-y="30"
     inkscape:window-maximized="1"
     showguides="true"
     inkscape:showpageshadow="false"
     borderlayer="true"
     inkscape:guide-bbox="true" />
  <metadata
     id="metadata3027">
    <rdf:RDF>
      <cc:Work
         rdf:about="">
        <dc:format>image/svg+xml</dc:format>
        <dc:type
           rdf:resource="http://purl.org/dc/dcmitype/StillImage" />
        <dc:title />
      </cc:Work>
    </rdf:RDF>
  </metadata>
  <g
     inkscape:label="Capa 1"
     inkscape:groupmode="layer"
     id="layer1"
     transform="translate(0,-1004.3622)">
    <rect
       style="fill:url(#linearGradient1429);fill-opacity:1;stroke:none"
       id="rect2991-1-7"
       width="48"
       height="48"
       x="0"
       y="-1052.3622"
       ry="1.9445436"
       transform="scale(1,-1)" />
    <path
       transform="matrix(0.99437481,-0.57828906,0.57410287,1.001626,10.220267,1004.4294)"
       d="m 9.5144416,30.585209 -26.6302816,0 L -3.8006989,7.5227089 Z"
       inkscape:randomized="0"
       inkscape:rounded="0"
       inkscape:flatsided="true"
       sodipodi:arg2="1.5707963"
       sodipodi:arg1="0.52359878"
       sodipodi:r2="13.315141"
       sodipodi:r1="15.375"
       sodipodi:cy="22.897709"
       sodipodi:cx="-3.800699"
       sodipodi:sides="3"
       id="path4862"
       style="fill:#000000;fill-opacity:0.05882353;stroke:none"
       sodipodi:type="star" />
    <path
       sodipodi:type="star"
       style="fill:#000000;fill-opacity:0.11764706;stroke:none"
       id="path4860"
       sodipodi:sides="3"
       sodipodi:cx="-3.800699"
       sodipodi:cy="22.897709"
       sodipodi:r1="15.375"
       sodipodi:r2="13.315141"
       sodipodi:arg1="0.52359878"
       sodipodi:arg2="1.5707963"
       inkscape:flatsided="true"
       inkscape:rounded="0"
       inkscape:randomized="0"
       d="m 9.5144416,30.585209 -26.6302816,0 L -3.8006989,7.5227089 Z"
       transform="matrix(0.99437481,-0.57828906,0.57410287,1.001626,10.220267,1004.0294)" />
    <path
       transform="matrix(0.99437481,-0.57828906,0.57410287,1.001626,10.220267,1003.6294)"
       d="m 9.5144416,30.585209 -26.6302816,0 L -3.8006989,7.5227089 Z"
       inkscape:randomized="0"
       inkscape:rounded="0"
       inkscape:flatsided="true"
       sodipodi:arg2="1.5707963"
       sodipodi:arg1="0.52359878"
       sodipodi:r2="13.315141"
       sodipodi:r1="15.375"
       sodipodi:cy="22.897709"
       sodipodi:cx="-3.800699"
       sodipodi:sides="3"
       id="path4856"
       style="fill:#000000;fill-opacity:0.23529412;stroke:none"
       sodipodi:type="star" />
    <path
       inkscape:connector-curvature="0"
       style="fill:#000000;fill-opacity:1;stroke:none"
       d="m -6.8146973e-6,1049.3622 0,1.0625 c 0,1.0773 0.8602200046973,1.9375 1.9375000146973,1.9375 l 44.1249998,0 c 1.07728,0 1.9375,-0.8602 1.9375,-1.9375 l 0,-1.0625 c 0,1.0773 -0.86022,1.9375 -1.9375,1.9375 l -44.1249998,0 C 0.86021319,1051.2997 -6.8146973e-6,1050.4395 -6.8146973e-6,1049.3622 Z"
       id="rect846" />
    <path
       inkscape:connector-curvature="0"
       style="fill:#ffffff;fill-opacity:0.5372549;stroke:none"
       d="m 2.5312432,1005.0185 c -0.91709,0 -1.67115001,0.6395 -1.84375001,1.5 0.33561001,-0.2799 0.77451001,-0.4375 1.25000001,-0.4375 l 44.1249998,0 c 0.47549,0 0.91439,0.1576 1.25,0.4375 -0.1726,-0.8605 -0.92666,-1.5 -1.84375,-1.5 L 2.5312432,1005.0185 Z"
       id="path7515" />
    <path
       inkscape:connector-curvature="0"
       style="fill:#000000;fill-opacity:0.39215686;stroke:none"
       d="m 1.9374932,1004.3622 c -1.07728001,0 -1.9375000146973,0.8602 -1.9375000146973,1.9375 l 0,43.0625 c 0,0.7934 0.4800200046973,1.449 1.1562500146973,1.75 -0.30934001,-0.3333 -0.50000001,-0.7824 -0.50000001,-1.2812 l 0,-42.9375 c 0,-1.0482 0.82690001,-1.875 1.87500001,-1.875 l 42.9374998,0 c 1.0481,0 1.875,0.8268 1.875,1.875 l 0,42.9375 c 0,0.4988 -0.19066,0.9479 -0.5,1.2812 0.67623,-0.301 1.15625,-0.9566 1.15625,-1.75 l 0,-43.0625 c 0,-1.0773 -0.86022,-1.9375 -1.9375,-1.9375 L 1.9374932,1004.3622 Z"
       id="rect4280" />
    <path
       transform="matrix(1.0138834,-0.57828905,0.58536585,1.001626,9.9499289,1003.2294)"
       d="m 9.5144416,30.585209 -26.6302816,0 L -3.8006989,7.5227089 Z"
       inkscape:randomized="0"
       inkscape:rounded="0"
       inkscape:flatsided="true"
       sodipodi:arg2="1.5707963"
       sodipodi:arg1="0.52359878"
       sodipodi:r2="13.315141"
       sodipodi:r1="15.375"
       sodipodi:cy="22.897709"
       sodipodi:cx="-3.800699"
       sodipodi:sides="3"
       id="path4730"
       style="fill:url(#linearGradient4740);fill-opacity:1;stroke:none"
       sodipodi:type="star" />
    <path
       id="path4738"
       d="m 10.5,1012.9622 0,30.8 0.878906,-0.5 c 6.18e-4,-7e-4 0.0013,0 0.002,0 3.57576,-3.9351 5.753907,-9.1621 5.753907,-14.898 0,-5.7359 -2.178147,-10.9629 -5.753907,-14.898 l -0.002,0 L 10.5,1012.9622 Z"
       style="fill:url(#linearGradient4758);fill-opacity:1;stroke:none"
       inkscape:connector-curvature="0" />
    <path
       style="fill:url(#linearGradient4817);fill-opacity:1;stroke:none"
       d="m 24.905392,1021.1786 c 1.203016,4.1354 3.577728,7.7686 6.742187,10.5215 l 5.851563,-3.3379 L 24.905392,1021.1786 Z"
       id="path4785"
       inkscape:connector-curvature="0" />
    <path
       style="fill:url(#linearGradient4783);fill-opacity:1;stroke:none"
       d="m 17.139767,1029.206 c -3.812377,3.7434 -6.281263,8.849 -6.601563,14.5351 l 6.601563,-3.7656 L 17.139767,1029.206 Z"
       id="path4768"
       inkscape:connector-curvature="0" />
  </g>
</svg>
