<?xml version="1.0" encoding="UTF-8" standalone="no"?>
<!-- Created with Inkscape (http://www.inkscape.org/) -->

<svg
   xmlns:dc="http://purl.org/dc/elements/1.1/"
   xmlns:cc="http://creativecommons.org/ns#"
   xmlns:rdf="http://www.w3.org/1999/02/22-rdf-syntax-ns#"
   xmlns:svg="http://www.w3.org/2000/svg"
   xmlns="http://www.w3.org/2000/svg"
   xmlns:xlink="http://www.w3.org/1999/xlink"
   xmlns:sodipodi="http://sodipodi.sourceforge.net/DTD/sodipodi-0.dtd"
   xmlns:inkscape="http://www.inkscape.org/namespaces/inkscape"
   width="48"
   height="48"
   id="svg3066"
   version="1.1"
   inkscape:version="0.48.3.1 r9886"
   sodipodi:docname="preferences-desktop.svg">
  <defs
     id="defs3068">
    <linearGradient
       inkscape:collect="always"
       id="linearGradient912">
      <stop
         style="stop-color:#000000;stop-opacity:0.94901961"
         offset="0"
         id="stop914" />
      <stop
         style="stop-color:#000000;stop-opacity:0"
         offset="1"
         id="stop916" />
    </linearGradient>
    <linearGradient
       id="linearGradient902"
       inkscape:collect="always">
      <stop
         id="stop904"
         offset="0"
         style="stop-color:#000000;stop-opacity:1;" />
      <stop
         id="stop906"
         offset="1"
         style="stop-color:#1c1c1c;stop-opacity:1" />
    </linearGradient>
    <linearGradient
       id="linearGradient894"
       inkscape:collect="always">
      <stop
         id="stop896"
         offset="0"
         style="stop-color:#303030;stop-opacity:0.94901961" />
      <stop
         id="stop898"
         offset="1"
         style="stop-color:#777777;stop-opacity:0" />
    </linearGradient>
    <linearGradient
       inkscape:collect="always"
       id="linearGradient877">
      <stop
         style="stop-color:#ffffff;stop-opacity:1;"
         offset="0"
         id="stop879" />
      <stop
         style="stop-color:#ffffff;stop-opacity:0;"
         offset="1"
         id="stop881" />
    </linearGradient>
    <linearGradient
       inkscape:collect="always"
       id="linearGradient863">
      <stop
         style="stop-color:#ffffff;stop-opacity:1;"
         offset="0"
         id="stop865" />
      <stop
         style="stop-color:#ffffff;stop-opacity:0;"
         offset="1"
         id="stop867" />
    </linearGradient>
    <linearGradient
       inkscape:collect="always"
       id="linearGradient852">
      <stop
         style="stop-color:#000000;stop-opacity:1;"
         offset="0"
         id="stop854" />
      <stop
         style="stop-color:#333333;stop-opacity:1"
         offset="1"
         id="stop857" />
    </linearGradient>
    <linearGradient
       id="linearGradient3795">
      <stop
         style="stop-color:#c0c4c8;stop-opacity:1"
         offset="0"
         id="stop3797" />
      <stop
         style="stop-color:#e9ecee;stop-opacity:1"
         offset="1"
         id="stop3799" />
    </linearGradient>
    <linearGradient
       y2="1005.8494"
       x2="23.204165"
       y1="1053.158"
       x1="23.204165"
       gradientUnits="userSpaceOnUse"
       id="linearGradient3064"
       xlink:href="#linearGradient3795"
       inkscape:collect="always"
       gradientTransform="translate(0,2.9e-5)" />
    <linearGradient
       inkscape:collect="always"
       xlink:href="#linearGradient852"
       id="linearGradient859"
       x1="25.357143"
       y1="1045.5765"
       x2="25.357143"
       y2="1010.5765"
       gradientUnits="userSpaceOnUse" />
    <linearGradient
       inkscape:collect="always"
       xlink:href="#linearGradient863"
       id="linearGradient869"
       x1="23.928572"
       y1="1012.3622"
       x2="23.928572"
       y2="1042.005"
       gradientUnits="userSpaceOnUse"
       gradientTransform="matrix(1,0,0,0.52083332,0,484.54265)" />
    <linearGradient
       inkscape:collect="always"
       xlink:href="#linearGradient902"
       id="linearGradient873"
       gradientUnits="userSpaceOnUse"
       x1="25.357143"
       y1="1045.5765"
       x2="25.357143"
       y2="1010.5765"
       gradientTransform="matrix(0.82499999,0,0,0.82499999,4.2000001,179.9634)" />
    <linearGradient
       inkscape:collect="always"
       xlink:href="#linearGradient877"
       id="linearGradient883"
       x1="25.001276"
       y1="1012.9662"
       x2="25.001276"
       y2="1031.4015"
       gradientUnits="userSpaceOnUse"
       gradientTransform="matrix(0.91016084,0,0,1.1299578,2.1561396,-130.80569)" />
    <linearGradient
       inkscape:collect="always"
       xlink:href="#linearGradient894"
       id="linearGradient887"
       gradientUnits="userSpaceOnUse"
       x1="25.001276"
       y1="1015.4597"
       x2="25.001276"
       y2="1027.5654"
       gradientTransform="matrix(0.89873418,0,0,-0.32915975,2.4303797,1376.0128)" />
    <linearGradient
       inkscape:collect="always"
       xlink:href="#linearGradient912"
       id="linearGradient910"
       gradientUnits="userSpaceOnUse"
       gradientTransform="matrix(0.91016084,0,0,0.41874737,2.1561396,590.51772)"
       x1="25.001276"
       y1="1012.9662"
       x2="25.001276"
       y2="1037.1307" />
  </defs>
  <sodipodi:namedview
     id="base"
     pagecolor="#ffffff"
     bordercolor="#666666"
     borderopacity="1.0"
     inkscape:pageopacity="0.0"
     inkscape:pageshadow="2"
     inkscape:zoom="3.959798"
     inkscape:cx="8.2649002"
     inkscape:cy="35.411387"
     inkscape:document-units="px"
     inkscape:current-layer="layer1"
     showgrid="false"
     inkscape:window-width="1366"
     inkscape:window-height="716"
     inkscape:window-x="0"
     inkscape:window-y="28"
     inkscape:window-maximized="1"
     showguides="false" />
  <metadata
     id="metadata3071">
    <rdf:RDF>
      <cc:Work
         rdf:about="">
        <dc:format>image/svg+xml</dc:format>
        <dc:type
           rdf:resource="http://purl.org/dc/dcmitype/StillImage" />
        <dc:title />
      </cc:Work>
    </rdf:RDF>
  </metadata>
  <g
     inkscape:label="Capa 1"
     inkscape:groupmode="layer"
     id="layer1"
     transform="translate(0,-1004.3622)">
    <path
       style="fill:url(#linearGradient3064);fill-opacity:1;stroke:none"
       d="m 1.9375,1004.3622 c -1.07728,0 -1.9375,0.8602 -1.9375,1.9375 l 0,44.125 c 0,1.0773 0.86022,1.9375 1.9375,1.9375 l 44.125,0 c 1.07727,0 1.9375,-0.8602 1.9375,-1.9375 l 0,-44.125 C 48,1005.2224 47.13977,1004.3622 46.0625,1004.3622 Z"
       id="rect4069"
       inkscape:connector-curvature="0"
       sodipodi:nodetypes="sssssssss" />
    <g
       id="g954">
      <rect
         ry="2.4612496"
         y="1011.2194"
         x="12.035714"
         height="34.285713"
         width="23.928572"
         id="rect850"
         style="color:#000000;fill:url(#linearGradient859);fill-opacity:1;fill-rule:nonzero;stroke:none;stroke-width:0.40000001;marker:none;visibility:visible;display:inline;overflow:visible;enable-background:accumulate" />
      <rect
         style="opacity:0.37878789;color:#000000;fill:url(#linearGradient869);fill-opacity:1;fill-rule:nonzero;stroke:none;stroke-width:0.40000001;marker:none;visibility:visible;display:inline;overflow:visible;enable-background:accumulate"
         id="rect861"
         width="23.928572"
         height="17.857141"
         x="12.035714"
         y="1011.2194"
         ry="1.2819008" />
      <path
         sodipodi:nodetypes="ccccccccc"
         inkscape:connector-curvature="0"
         id="rect871"
         d="m 14.129465,1014.2194 19.74107,0 0,22.3434 -0.536644,1.0101 -0.803571,4.9322 -17.127604,0 -0.768175,-4.4744 L 14.129465,1036.6101 Z"
         style="color:#000000;fill:url(#linearGradient873);fill-opacity:1;fill-rule:nonzero;stroke:none;stroke-width:0.40000001;marker:none;visibility:visible;display:inline;overflow:visible;enable-background:accumulate" />
      <rect
         ry="0"
         y="1015.2194"
         x="15.016226"
         height="20.262007"
         width="17.967548"
         id="rect875"
         style="opacity:0.31499999;color:#000000;fill:url(#linearGradient883);fill-opacity:1;fill-rule:nonzero;stroke:none;stroke-width:0.40000001;marker:none;visibility:visible;display:inline;overflow:visible;enable-background:accumulate" />
      <path
         sodipodi:nodetypes="ccccc"
         inkscape:connector-curvature="0"
         id="rect885"
         d="m 15.663088,1042.1726 16.60686,0 0.601039,-5.9024 L 15.129013,1036.2702 Z"
         style="opacity:0.56999966;color:#000000;fill:url(#linearGradient887);fill-opacity:1;fill-rule:nonzero;stroke:none;stroke-width:0.40000001;marker:none;visibility:visible;display:inline;overflow:visible;enable-background:accumulate" />
      <path
         sodipodi:nodetypes="ccccc"
         inkscape:connector-curvature="0"
         id="rect889"
         d="m 15.125,1036.8283 0.111183,0.9188 17.505523,0 L 32.875,1036.8283 Z"
         style="opacity:0.2;color:#000000;fill:#ffffff;fill-opacity:1;fill-rule:nonzero;stroke:none;stroke-width:0.40000001;marker:none;visibility:visible;display:inline;overflow:visible;enable-background:accumulate" />
      <rect
         style="opacity:0.81212122;color:#000000;fill:url(#linearGradient910);fill-opacity:1;fill-rule:nonzero;stroke:none;stroke-width:0.40000001;marker:none;visibility:visible;display:inline;overflow:visible;enable-background:accumulate"
         id="rect908"
         width="17.967546"
         height="12.054537"
         x="15.016226"
         y="1015.2194"
         ry="0" />
      <path
         id="path920"
         transform="translate(0,1004.3622)"
         d="M 15.03125 10.84375 L 15.03125 11.78125 L 32.96875 11.78125 L 32.96875 10.84375 L 15.03125 10.84375 z "
         style="opacity:0.173;color:#000000;fill:#ffffff;fill-opacity:1;fill-rule:nonzero;stroke:none;stroke-width:0.40000001;marker:none;visibility:visible;display:inline;overflow:visible;enable-background:accumulate" />
      <path
         id="path925"
         transform="translate(0,1004.3622)"
         d="M 15.5625 36.875 L 15.65625 37.8125 L 32.28125 37.8125 L 32.375 36.875 L 15.5625 36.875 z "
         style="opacity:0.515;color:#000000;fill:#000000;fill-opacity:1;fill-rule:nonzero;stroke:none;stroke-width:0.40000001;marker:none;visibility:visible;display:inline;overflow:visible;enable-background:accumulate" />
      <path
         style="opacity:0.2;color:#000000;fill:#ffffff;fill-opacity:1;fill-rule:nonzero;stroke:none;stroke-width:0.40000001;marker:none;visibility:visible;display:inline;overflow:visible;enable-background:accumulate"
         d="m 15.125,1037.3018 0.111183,0.4453 17.505523,0 L 32.875,1037.3018 Z"
         id="path930"
         inkscape:connector-curvature="0"
         sodipodi:nodetypes="ccccc" />
      <rect
         y="1020.0408"
         x="23.107141"
         height="5.7142859"
         width="1.7857143"
         id="rect932"
         style="color:#000000;fill:#ffffff;fill-opacity:0.8101266;fill-rule:nonzero;stroke:none;stroke-width:0.40000001;marker:none;visibility:visible;display:inline;overflow:visible;enable-background:accumulate" />
      <path
         inkscape:connector-curvature="0"
         id="path934"
         d="m 23.999999,1031.1818 c -2.021757,0 -3.65625,1.0177 -3.65625,2.2529 0,1.2351 1.634493,2.2337 3.65625,2.2337 2.021757,0 3.65625,-0.9986 3.65625,-2.2337 C 27.656249,1032.1995 26.021756,1031.1818 23.999999,1031.1818 z m 0,0.611 c 1.469472,0 2.65625,0.7441 2.65625,1.6419 0,0.8977 -1.186778,1.6228 -2.65625,1.6228 -1.469472,0 -2.65625,-0.7251 -2.65625,-1.6228 C 21.343749,1032.5369 22.530527,1031.7928 23.999999,1031.7928 Z"
         style="color:#000000;fill:#999999;fill-opacity:0.54852319;fill-rule:nonzero;stroke:none;stroke-width:0.40000001;marker:none;visibility:visible;display:inline;overflow:visible;enable-background:accumulate" />
    </g>
    <g
       transform="translate(-384.57143,504.56421)"
       id="g13027">
      <path
         id="rect846"
         d="m 384.57143,544.79799 0,1.0625 c 0,1.0773 0.86022,1.9375 1.9375,1.9375 l 44.125,0 c 1.07728,0 1.9375,-0.8602 1.9375,-1.9375 l 0,-1.0625 c 0,1.0773 -0.86022,1.9375 -1.9375,1.9375 l -44.125,0 c -1.07728,0 -1.9375,-0.8602 -1.9375,-1.9375 z"
         style="fill:#000000;fill-opacity:1;stroke:none"
         inkscape:connector-curvature="0" />
      <path
         id="path7515"
         d="m 387.10268,500.45429 c -0.91709,0 -1.67115,0.6395 -1.84375,1.5 0.33561,-0.2799 0.77451,-0.4375 1.25,-0.4375 l 44.125,0 c 0.47549,0 0.91439,0.1576 1.25,0.4375 -0.1726,-0.8605 -0.92666,-1.5 -1.84375,-1.5 l -42.9375,0 z"
         style="fill:#ffffff;fill-opacity:0.5372549;stroke:none"
         inkscape:connector-curvature="0" />
      <path
         id="rect4280"
         d="m 386.50893,499.79799 c -1.07728,0 -1.9375,0.8602 -1.9375,1.9375 l 0,43.0625 c 0,0.7934 0.48002,1.449 1.15625,1.75 -0.30934,-0.3333 -0.5,-0.7824 -0.5,-1.2812 l 0,-42.9375 c 0,-1.0482 0.8269,-1.875 1.875,-1.875 l 42.9375,0 c 1.0481,0 1.875,0.8268 1.875,1.875 l 0,42.9375 c 0,0.4988 -0.19066,0.9479 -0.5,1.2812 0.67623,-0.301 1.15625,-0.9566 1.15625,-1.75 l 0,-43.0625 c 0,-1.0773 -0.86022,-1.9375 -1.9375,-1.9375 l -44.125,0 z"
         style="fill:#000000;fill-opacity:0.39215686;stroke:none"
         inkscape:connector-curvature="0" />
    </g>
  </g>
</svg>
