<?xml version="1.0" encoding="UTF-8" standalone="no"?>
<svg
   xmlns:dc="http://purl.org/dc/elements/1.1/"
   xmlns:cc="http://creativecommons.org/ns#"
   xmlns:rdf="http://www.w3.org/1999/02/22-rdf-syntax-ns#"
   xmlns:svg="http://www.w3.org/2000/svg"
   xmlns="http://www.w3.org/2000/svg"
   xmlns:sodipodi="http://sodipodi.sourceforge.net/DTD/sodipodi-0.dtd"
   xmlns:inkscape="http://www.inkscape.org/namespaces/inkscape"
   viewBox="0 0 16 16.0176"
   id="svg2"
   version="1.1"
   inkscape:version="0.91pre2 r"
   sodipodi:docname="document-properties-symbolic.svg">
  <metadata
     id="metadata14">
    <rdf:RDF>
      <cc:Work
         rdf:about="">
        <dc:format>image/svg+xml</dc:format>
        <dc:type
           rdf:resource="http://purl.org/dc/dcmitype/StillImage" />
        <dc:title />
      </cc:Work>
    </rdf:RDF>
  </metadata>
  <defs
     id="defs12" />
  <sodipodi:namedview
     pagecolor="#ffffff"
     bordercolor="#666666"
     borderopacity="1"
     objecttolerance="10"
     gridtolerance="10"
     guidetolerance="10"
     inkscape:pageopacity="0"
     inkscape:pageshadow="2"
     inkscape:window-width="1366"
     inkscape:window-height="672"
     id="namedview10"
     showgrid="true"
     inkscape:showpageshadow="false"
     borderlayer="true"
     inkscape:zoom="29.467587"
     inkscape:cx="6.5612005"
     inkscape:cy="9.2648718"
     inkscape:window-x="-4"
     inkscape:window-y="25"
     inkscape:window-maximized="1"
     inkscape:current-layer="svg2">
    <inkscape:grid
       type="xygrid"
       id="grid4143" />
    <sodipodi:guide
       position="8.0550813e-15,16"
       orientation="15.999999,0"
       id="guide4149" />
    <sodipodi:guide
       position="8.0550813e-15,8.9416499e-07"
       orientation="0,16"
       id="guide4151" />
    <sodipodi:guide
       position="16,8.9416499e-07"
       orientation="-15.999999,0"
       id="guide4153" />
    <sodipodi:guide
       position="16,16"
       orientation="0,-16"
       id="guide4155" />
    <sodipodi:guide
       position="2,14"
       orientation="11.999999,0"
       id="guide4157" />
    <sodipodi:guide
       position="2,2.0000008"
       orientation="0,12"
       id="guide4159" />
    <sodipodi:guide
       position="14,2.0000008"
       orientation="-11.999999,0"
       id="guide4161" />
    <sodipodi:guide
       position="14,14"
       orientation="0,-12"
       id="guide4163" />
  </sodipodi:namedview>
  <path
     inkscape:connector-curvature="0"
     style="opacity:1;fill:#bebebe;fill-opacity:1;stroke:none"
     d="M 2,0.0088 2,2.0595812 C 0.8559283,2.2897777 0,3.2949397 0,4.5088 0,5.7226603 0.8559283,6.7278223 2,6.9580188 l 0,9.0507812 1,0 0,-9.0507812 C 4.1440717,6.7278223 5,5.7226603 5,4.5088 5,3.2949397 4.1440717,2.2897777 3,2.0595812 L 3,0.0088 l -1,0 z m 7,0 0,1.0507812 C 7.855928,1.2897777 7,2.2949397 7,3.5088 7,4.7226603 7.855928,5.7278223 9,5.9580188 L 9,9.0088 l 1,0 0,-3.0507812 C 11.144072,5.7278223 12,4.7226603 12,3.5088 12,2.2949397 11.144072,1.2897777 10,1.0595812 L 10,0.0088 l -1,0 z m 4,0 0,8.050781 c -1.144072,0.230197 -2,1.235359 -2,2.449219 0,1.21386 0.855928,2.219022 2,2.449219 l 0,3.050781 1,0 0,-3.050781 C 15.144072,12.727822 16,11.72266 16,10.5088 16,9.29494 15.144072,8.289778 14,8.059581 l 0,-8.050781 -1,0 z m -3.5,2 c 0.831,0 1.5,0.669 1.5,1.5 0,0.831 -0.669,1.5 -1.5,1.5 -0.831,0 -1.5,-0.669 -1.5,-1.5 0,-0.831 0.669,-1.5 1.5,-1.5 z m -7,1 c 0.831,0 1.5,0.669 1.5,1.5 0,0.831 -0.669,1.5 -1.5,1.5 -0.831,0 -1.5,-0.669 -1.5,-1.5 0,-0.831 0.669,-1.5 1.5,-1.5 z m 3.5,4 0,3.050781 C 4.8559283,10.289778 4,11.29494 4,12.5088 c 0,1.21386 0.8559283,2.219022 2,2.449219 l 0,1.050781 1,0 0,-1.050781 C 8.144072,14.727822 9,13.72266 9,12.5088 9,11.29494 8.144072,10.289778 7,10.059581 L 7,7.0088 l -1,0 z m 7.5,2 c 0.831,0 1.5,0.669 1.5,1.5 0,0.831 -0.669,1.5 -1.5,1.5 -0.831,0 -1.5,-0.669 -1.5,-1.5 0,-0.831 0.669,-1.5 1.5,-1.5 z m -7,2 c 0.831,0 1.5,0.669 1.5,1.5 0,0.831 -0.669,1.5 -1.5,1.5 -0.831,0 -1.5,-0.669 -1.5,-1.5 0,-0.831 0.669,-1.5 1.5,-1.5 z"
     id="rect4141" />
</svg>
