<?xml version="1.0" encoding="utf-8"?>
<!-- Generator: Adobe Illustrator 17.0.0, SVG Export Plug-In . SVG Version: 6.00 Build 0)  -->
<!DOCTYPE svg PUBLIC "-//W3C//DTD SVG 1.1//EN" "http://www.w3.org/Graphics/SVG/1.1/DTD/svg11.dtd">
<svg version="1.1" id="图层_1" xmlns="http://www.w3.org/2000/svg" xmlns:xlink="http://www.w3.org/1999/xlink" x="0px" y="0px"
	 width="64px" height="64px" viewBox="32 32 64 64" enable-background="new 32 32 64 64" xml:space="preserve">
<g id="g151" opacity="0.5">
	<path id="path153" opacity="0.08" enable-background="new    " d="M86.149,92.208h-44.25c-4.074,0-7.394-3.194-7.394-7.106v5.435
		c0,3.057,2.597,5.535,5.779,5.535h47.478c3.182,0,5.743-2.478,5.743-5.535v-5.435C93.505,89.015,90.221,92.208,86.149,92.208z"/>
	<path id="path155" opacity="0.1" enable-background="new    " d="M86.112,92.208h-44.25c-4.072,0-7.356-3.135-7.356-7.047v2.843
		c0,3.057,1.402,6.781,7.084,6.781s39.037,0,44.793,0c5.756,0,7.123-3.724,7.123-6.781v-2.843
		C93.505,89.073,90.184,92.208,86.112,92.208z"/>
	<path id="path157" opacity="0.1" enable-background="new    " d="M86.112,92.208h-44.25c-4.072,0-7.356-3.135-7.356-7.047v1.534
		c0,3.058,2.432,6.802,7.084,6.802s39.468,0,44.793,0c5.326,0,7.123-3.744,7.123-6.8v-1.534
		C93.505,89.073,90.184,92.208,86.112,92.208z"/>
	<rect id="rect159" x="41.21" y="92.208" opacity="0.05" enable-background="new    " width="45.591" height="1.288"/>
	<rect id="rect161" x="42.551" y="92.208" opacity="0.05" enable-background="new    " width="41.568" height="1.288"/>
	<rect id="rect163" x="42.551" y="93.496" opacity="0.05" enable-background="new    " width="41.568" height="1.288"/>
	<rect id="rect165" x="45.232" y="93.496" opacity="0.05" enable-background="new    " width="37.546" height="1.288"/>
	<rect id="rect167" x="49.255" y="93.496" opacity="0.05" enable-background="new    " width="29.5" height="1.288"/>
	<rect id="rect169" x="54.619" y="93.496" opacity="0.05" enable-background="new    " width="18.773" height="1.288"/>
	<rect id="rect171" x="45.232" y="92.208" opacity="0.05" enable-background="new    " width="37.546" height="1.288"/>
	<rect id="rect173" x="47.914" y="92.208" opacity="0.05" enable-background="new    " width="32.182" height="1.288"/>
	<rect id="rect175" x="49.255" y="92.208" opacity="0.05" enable-background="new    " width="29.5" height="1.288"/>
	<rect id="rect177" x="51.937" y="92.208" opacity="0.05" enable-background="new    " width="24.136" height="1.288"/>
	<rect id="rect179" x="51.937" y="92.208" opacity="0.05" enable-background="new    " width="24.136" height="1.288"/>
</g>
<path fill="#C4DCED" stroke="#9DBCD7" stroke-miterlimit="10" d="M92.972,84.307c0,4.212-3.415,7.627-7.627,7.627h-42.68
	c-4.212,0-7.627-3.415-7.627-7.627v-42.68c0-4.212,3.415-7.627,7.627-7.627h42.681c4.212,0,7.627,3.415,7.627,7.627V84.307z"/>
<path opacity="0.5" fill="none" stroke="#FFFFFF" stroke-miterlimit="10" enable-background="new    " d="M91.956,84.307
	c0,3.651-2.96,6.611-6.611,6.611h-42.68c-3.651,0-6.611-2.96-6.611-6.611v-42.68c0-3.651,2.96-6.611,6.611-6.611h42.68
	c3.651,0,6.611,2.96,6.611,6.611V84.307z"/>
<path opacity="0.08" fill="none" stroke="#000000" stroke-miterlimit="10" enable-background="new    " d="M93.189,50.997
	c0,0,0-2.563-2.531-2.563c-7.347,0-30.807,0.004-32.907,0.004c-2.552,0-2.531-2.526-2.531-2.526s0-2.543-2.531-2.543
	c-4.431,0-13.306,0-15.188,0c-2.492,0-2.531,2.451-2.531,2.528"/>
<path opacity="0.05" fill="none" stroke="#000000" stroke-miterlimit="10" enable-background="new    " d="M93.178,50.488
	c0,0,0-2.563-2.531-2.563c-7.347,0-30.807,0.004-32.907,0.004c-2.552,0-2.531-2.526-2.531-2.526s0-2.543-2.531-2.543
	c-4.431,0-13.306,0-15.188,0c-2.492,0-2.531,2.451-2.531,2.528"/>
<path opacity="0.03" fill="none" stroke="#000000" stroke-miterlimit="10" enable-background="new    " d="M93.178,50.002
	c0,0,0-2.563-2.531-2.563c-7.347,0-30.807,0.004-32.907,0.004c-2.552,0-2.531-2.526-2.531-2.526s0-2.543-2.531-2.543
	c-4.431,0-13.306,0-15.188,0c-2.492,0-2.531,2.451-2.531,2.528"/>
<linearGradient id="SVGID_1_" gradientUnits="userSpaceOnUse" x1="886.0052" y1="-989.9344" x2="886.0052" y2="-942.1639" gradientTransform="matrix(1 0 0 -1 -822 -898)">
	<stop  offset="0" style="stop-color:#D1E0ED"/>
	<stop  offset="1" style="stop-color:#E4EEFB"/>
</linearGradient>
<path fill="url(#SVGID_1_)" stroke="#9DBCD7" stroke-miterlimit="10" d="M42.648,91.934h42.84c4.212,0,7.484-3.502,7.484-7.714
	V50.019c0-0.6-0.897-1.166-2.092-1.166c-7.379,0-30.905,0.004-33.014,0.004c-2.563,0-2.524-2.338-2.524-2.338
	s0.018-2.355-2.525-2.355c-4.45,0-13.364,0-15.254,0c-2.503,0-2.526,2.075-2.526,2.153v37.903
	C35.038,88.432,38.436,91.934,42.648,91.934z"/>
<path fill="none" stroke="#FFFFFF" stroke-miterlimit="10" d="M42.648,90.918c-3.636,0-6.594-3.004-6.594-6.698V46.317
	c0-0.048,0.008-0.454,0.309-0.756c0.252-0.253,0.656-0.381,1.2-0.381h15.254c0.602,0,0.908,0.072,1.091,0.256
	c0.405,0.407,0.423,1.028,0.423,1.035c-0.002,0.133,0.006,1.459,0.988,2.456c0.626,0.635,1.484,0.957,2.551,0.957
	c0,0,28.2-0.011,33.008-0.011c0.635,0,0.987,0.218,1.077,0.323v34.024c0,3.694-2.901,6.698-6.468,6.698h-42.84V90.918z"/>
<radialGradient id="SVGID_2_" cx="1168.1434" cy="819.2701" r="46.4534" gradientTransform="matrix(0.0197 0.9998 0.9109 -0.018 -707.3493 -1098.2991)" gradientUnits="userSpaceOnUse">
	<stop  offset="0" style="stop-color:#FFFFFF;stop-opacity:0.6"/>
	<stop  offset="0.3783" style="stop-color:#FAFCFE;stop-opacity:0.4487"/>
	<stop  offset="0.829" style="stop-color:#EBF3FC;stop-opacity:0.2684"/>
	<stop  offset="1" style="stop-color:#E4EEFB;stop-opacity:0.2"/>
</radialGradient>
<path fill="url(#SVGID_2_)" d="M42.648,90.918c-3.636,0-6.594-3.004-6.594-6.698V46.317c0-0.048,0.008-0.454,0.309-0.756
	c0.252-0.253,0.656-0.381,1.2-0.381h15.254c0.602,0,0.908,0.072,1.091,0.256c0.405,0.407,0.423,1.028,0.423,1.035
	c-0.002,0.133,0.006,1.459,0.988,2.456c0.626,0.635,1.484,0.957,2.551,0.957c0,0,28.2-0.011,33.008-0.011
	c0.635,0,0.987,0.218,1.077,0.323v34.024c0,3.694-2.901,6.698-6.468,6.698h-42.84V90.918z"/>
<g id="g27_1_">
	
		<linearGradient id="path36_2_" gradientUnits="userSpaceOnUse" x1="1270.9509" y1="-1749.3695" x2="1278.9996" y2="-1763.3102" gradientTransform="matrix(1 0 0 -1 -1234 -1716)">
		<stop  offset="0" style="stop-color:#FFFFFF"/>
		<stop  offset="0.5" style="stop-color:#FFFFFF;stop-opacity:0.6"/>
		<stop  offset="1" style="stop-color:#FFFFFF;stop-opacity:0.15"/>
	</linearGradient>
	<path id="path36_1_" fill="url(#path36_2_)" d="M43.587,49.679c0.9-1.863,1.998-3.608,3.258-5.221l-2.292-5.027
		c-1.958,1.851-3.547,3.89-4.816,5.871L43.587,49.679z"/>
	
		<linearGradient id="path45_2_" gradientUnits="userSpaceOnUse" x1="1278.2488" y1="-1747.282" x2="1283.5162" y2="-1756.4056" gradientTransform="matrix(1 0 0 -1 -1234 -1716)">
		<stop  offset="0" style="stop-color:#FFFFFF"/>
		<stop  offset="0.5" style="stop-color:#FFFFFF;stop-opacity:0.6"/>
		<stop  offset="1" style="stop-color:#FFFFFF;stop-opacity:0.15"/>
	</linearGradient>
	<path id="path45_1_" fill="url(#path45_2_)" d="M43.826,34.599l1.198,2.626c1.153-0.957,2.417-1.287,3.795-2.626H43.826z"/>
	
		<linearGradient id="path54_2_" gradientUnits="userSpaceOnUse" x1="1279.9055" y1="-1745.5494" x2="1286.3414" y2="-1756.6967" gradientTransform="matrix(1 0 0 -1 -1234 -1716)">
		<stop  offset="0" style="stop-color:#FFFFFF"/>
		<stop  offset="0.5" style="stop-color:#FFFFFF;stop-opacity:0.6"/>
		<stop  offset="1" style="stop-color:#FFFFFF;stop-opacity:0.15"/>
	</linearGradient>
	<path id="path54_1_" fill="url(#path54_2_)" d="M52.818,34.599H51.87c-2.391,1.339-4.481,2.361-6.274,3.888l2.197,4.821
		c1.877-2.168,4.055-4.068,6.494-5.603c0.019-0.017,0.032-0.032,0.052-0.049C57.072,35.295,54.358,34.599,52.818,34.599z"/>
	
		<linearGradient id="path63_2_" gradientUnits="userSpaceOnUse" x1="1266.434" y1="-1755.7246" x2="1273.4182" y2="-1767.8217" gradientTransform="matrix(1 0 0 -1 -1234 -1716)">
		<stop  offset="0" style="stop-color:#FFFFFF"/>
		<stop  offset="0.5" style="stop-color:#FFFFFF;stop-opacity:0.6"/>
		<stop  offset="1" style="stop-color:#FFFFFF;stop-opacity:0.15"/>
	</linearGradient>
	<path id="path63_1_" fill="url(#path63_2_)" d="M39.006,46.497c-1.47,2.503-2.431,4.816-3.001,6.397
		c0.675,0.963,1.79,1.595,3.056,1.595c1.567,0,2.905-0.968,3.459-2.336c0.142-0.382,0.315-0.749,0.473-1.125L39.006,46.497z"/>
	
		<linearGradient id="path72_2_" gradientUnits="userSpaceOnUse" x1="1266.12" y1="-1756.2202" x2="1273.8602" y2="-1769.627" gradientTransform="matrix(1 0 0 -1 -1234 -1716)">
		<stop  offset="0" style="stop-color:#FFFFFF"/>
		<stop  offset="0.5" style="stop-color:#FFFFFF;stop-opacity:0.6"/>
		<stop  offset="1" style="stop-color:#FFFFFF;stop-opacity:0.15"/>
	</linearGradient>
	<path id="path72_1_" fill="url(#path72_2_)" d="M35.357,42.345l-0.029,8.405c0,0,0,0.003,0,0.006c0,0.052,0.013,0.102,0.016,0.154
		c0.639-1.555,1.531-3.455,2.741-5.463L35.357,42.345z"/>
	
		<linearGradient id="path149_2_" gradientUnits="userSpaceOnUse" x1="1271.9735" y1="-1752.0216" x2="1279.2416" y2="-1764.6104" gradientTransform="matrix(1 0 0 -1 -1234 -1716)">
		<stop  offset="0" style="stop-color:#FFFFFF"/>
		<stop  offset="0.5" style="stop-color:#FFFFFF;stop-opacity:0.6"/>
		<stop  offset="1" style="stop-color:#FFFFFF;stop-opacity:0.15"/>
	</linearGradient>
	<path id="path149_1_" fill="url(#path149_2_)" d="M42.229,34.615c-2.731-0.227-6.327,2.849-6.788,5.799l3.388,3.853
		c1.352-2.064,3.034-4.178,5.109-6.088L42.229,34.615z"/>
</g>
<g>
	<g opacity="0.3" enable-background="new    ">
		<g>
			<rect x="41.743" y="55.681" fill="#FFFFFF" width="44.513" height="27.415"/>
		</g>
		<g>
			<rect x="41.743" y="54.489" fill="#669CCC" width="44.513" height="27.415"/>
		</g>
	</g>
	<path opacity="0.3" fill="#669CCC" enable-background="new    " d="M41.743,54.489v27.415h44.513V54.489H41.743z M85.962,81.609
		H42.038V54.783h43.923L85.962,81.609L85.962,81.609z"/>
	<path opacity="0.3" fill="#669CCC" enable-background="new    " d="M41.743,54.489v27.415h44.513V54.489H41.743z M85.667,81.314
		H42.333V55.078h43.334V81.314z"/>
	<rect x="77.118" y="54.489" opacity="0.3" fill="#669CCC" enable-background="new    " width="9.138" height="27.415"/>
	<path opacity="0.3" fill="#669CCC" enable-background="new    " d="M77.118,54.489v27.415h9.138V54.489H77.118z M85.667,81.314
		h-7.96V55.078h7.959L85.667,81.314L85.667,81.314z"/>
	<polygon opacity="0.3" fill="#669CCC" enable-background="new    " points="74.039,79.791 53.96,79.791 53.371,81.904 
		74.629,81.904 	"/>
	<rect x="77.118" y="54.489" opacity="0.3" fill="#669CCC" enable-background="new    " width="0.295" height="27.415"/>
	<rect x="77.265" y="57.216" opacity="0.3" fill="#669CCC" enable-background="new    " width="8.991" height="0.295"/>
	<path opacity="0.3" fill="#669CCC" enable-background="new    " d="M79.433,55.324h-1.062c-0.138,0-0.25,0.112-0.25,0.25v1.062
		c0,0.138,0.112,0.25,0.25,0.25h1.062c0.138,0,0.25-0.112,0.25-0.25v-1.062C79.683,55.436,79.571,55.324,79.433,55.324z
		 M79.589,56.636c0,0.086-0.07,0.156-0.156,0.156h-0.767c0.133-0.069,0.409-0.23,0.566-0.45c0,0,0.223-0.318-0.133-0.629
		c0,0,0.092,0.144,0.095,0.289c0,0,0.023,0.192-0.146,0.31c-0.169,0.118-0.316,0.105-0.51,0.102
		c-0.156-0.003-0.279-0.05-0.322-0.069v-0.772c0-0.062,0.037-0.116,0.089-0.141c0.013,0.313,0.144,0.582,0.228,0.672
		c0.085,0.092,0.21,0.189,0.371,0.148c0.16-0.041,0.192-0.216,0.192-0.216c0.035-0.15-0.015-0.328-0.018-0.331
		c-0.002-0.004-0.027-0.008-0.027-0.008c0.026,0.236-0.036,0.34-0.036,0.34c-0.089,0.185-0.222,0.128-0.222,0.128
		c-0.147-0.075-0.141-0.287-0.141-0.287c-0.007-0.22,0.105-0.425,0.126-0.461h0.372c-0.076,0.052-0.228,0.203-0.228,0.203
		c-0.216,0.201-0.173,0.371-0.173,0.371c0.035,0.178,0.142,0.058,0.142,0.058c0.113-0.117,0.104-0.35,0.104-0.35
		c-0.046,0.008-0.074,0.033-0.074,0.033c-0.005,0.156-0.097,0.252-0.097,0.252c-0.036,0.039-0.061,0.002-0.061,0.002
		c-0.018-0.028,0.018-0.048,0.018-0.048c0.052-0.046,0.068-0.124,0.067-0.154c-0.001-0.029,0.015-0.038,0.015-0.038
		c0.074-0.057,0.147-0.091,0.147-0.091c0.099-0.051,0.275-0.06,0.275-0.06c0.111,0.004,0.211-0.014,0.211-0.014l0.093-0.017
		c0,0.003,0.001,0.005,0.001,0.008L79.589,56.636L79.589,56.636L79.589,56.636z"/>
	<g opacity="0.3">
		<path opacity="0.5" fill="#669CCC" enable-background="new    " d="M79.489,55.545c-0.001,0-0.08,0.014-0.174,0.014
			c-0.01,0-0.02,0-0.029-0.001c-0.011,0.001-0.189,0.01-0.293,0.063c-0.001,0.001-0.018,0.008-0.043,0.022
			c0.02-0.02,0.154-0.151,0.221-0.197l0.1-0.068h-0.514l-0.011,0.018c-0.023,0.04-0.139,0.251-0.131,0.481
			c-0.001,0.007-0.005,0.234,0.161,0.318c0.005,0.002,0.029,0.013,0.065,0.013c0.049,0,0.141-0.02,0.207-0.157
			c0.001-0.001,0.005-0.009,0.011-0.024c-0.003,0.015-0.035,0.155-0.166,0.188c-0.022,0.005-0.044,0.008-0.066,0.008
			c-0.09,0-0.178-0.048-0.269-0.146c-0.08-0.086-0.205-0.352-0.217-0.648l-0.002-0.056l-0.051,0.024
			c-0.067,0.032-0.111,0.1-0.111,0.174v0.796l0.023,0.01c0.048,0.021,0.176,0.069,0.337,0.072l0.042,0.001
			c0.032,0.001,0.061,0.001,0.091,0.001c0.149,0,0.268-0.018,0.4-0.111c0.185-0.129,0.163-0.336,0.161-0.344
			c-0.001-0.024-0.003-0.048-0.008-0.07c0.102,0.211-0.015,0.384-0.021,0.393c-0.15,0.21-0.411,0.365-0.553,0.438l-0.136,0.07h0.921
			c0.107,0,0.194-0.087,0.194-0.194v-1.062c0-0.004-0.001-0.007-0.001-0.01l-0.005-0.038l-0.038,0.003L79.489,55.545z
			 M79.589,55.573v1.062c0,0.086-0.07,0.156-0.156,0.156h-0.767c0.133-0.069,0.409-0.23,0.566-0.45c0,0,0.223-0.318-0.133-0.629
			c0,0,0.092,0.144,0.095,0.289c0,0,0.023,0.192-0.146,0.31c-0.169,0.118-0.316,0.105-0.51,0.102
			c-0.156-0.003-0.279-0.05-0.322-0.069v-0.772c0-0.062,0.037-0.116,0.089-0.141c0.013,0.313,0.144,0.582,0.228,0.672
			c0.085,0.092,0.21,0.189,0.371,0.148c0.16-0.041,0.192-0.216,0.192-0.216c0.035-0.15-0.015-0.328-0.018-0.331
			c-0.002-0.004-0.027-0.008-0.027-0.008c0.026,0.236-0.036,0.34-0.036,0.34c-0.089,0.185-0.222,0.128-0.222,0.128
			c-0.147-0.075-0.141-0.287-0.141-0.287c-0.007-0.22,0.105-0.425,0.126-0.461h0.372c-0.076,0.052-0.228,0.203-0.228,0.203
			c-0.216,0.201-0.173,0.371-0.173,0.371c0.035,0.178,0.142,0.058,0.142,0.058c0.113-0.117,0.104-0.35,0.104-0.35
			c-0.046,0.008-0.074,0.033-0.074,0.033c-0.005,0.156-0.097,0.252-0.097,0.252c-0.036,0.039-0.061,0.002-0.061,0.002
			c-0.018-0.028,0.018-0.048,0.018-0.048c0.052-0.046,0.068-0.124,0.067-0.154c-0.001-0.029,0.015-0.038,0.015-0.038
			c0.074-0.057,0.147-0.091,0.147-0.091c0.099-0.051,0.275-0.06,0.275-0.06c0.111,0.004,0.211-0.014,0.211-0.014l0.093-0.017
			C79.588,55.568,79.589,55.571,79.589,55.573z M78.802,56.038c0.014-0.002,0.031-0.01,0.048-0.029
			c0.004-0.004,0.093-0.1,0.105-0.257l0,0c-0.004,0.071-0.022,0.198-0.092,0.271c-0.011,0.013-0.032,0.028-0.045,0.028
			C78.813,56.051,78.808,56.047,78.802,56.038z"/>
		<path opacity="0.5" fill="#669CCC" enable-background="new    " d="M79.433,55.324h-1.062c-0.138,0-0.25,0.112-0.25,0.25v1.062
			c0,0.138,0.112,0.25,0.25,0.25h1.062c0.138,0,0.25-0.112,0.25-0.25v-1.062C79.683,55.436,79.571,55.324,79.433,55.324z
			 M79.645,56.636c0,0.117-0.095,0.213-0.213,0.213h-1.062c-0.117,0-0.213-0.095-0.213-0.213v-1.062
			c0-0.117,0.095-0.213,0.213-0.213h1.062c0.117,0,0.213,0.095,0.213,0.213V56.636z"/>
	</g>
	<g opacity="0.3">
		<path opacity="0.5" fill="#669CCC" enable-background="new    " d="M78.745,55.971c0.004-0.066,0.035-0.184,0.176-0.316
			c0,0,0.151-0.151,0.228-0.203h-0.046c-0.079,0.065-0.182,0.168-0.182,0.168C78.749,55.781,78.741,55.921,78.745,55.971z"/>
		<path opacity="0.5" fill="#669CCC" enable-background="new    " d="M79.098,55.713c0,0,0.017,0.027,0.037,0.069
			c0.122,0.12,0.161,0.24,0.165,0.339C79.305,56.007,79.265,55.859,79.098,55.713z"/>
		<path opacity="0.5" fill="#669CCC" enable-background="new    " d="M79.076,55.705c-0.002-0.004-0.027-0.008-0.027-0.008
			c0.001,0.012,0.002,0.024,0.003,0.035c0.007,0.001,0.021,0.004,0.024,0.007c0.002,0.003,0.027,0.091,0.03,0.196
			C79.11,55.817,79.079,55.708,79.076,55.705z"/>
		<path opacity="0.5" fill="#669CCC" enable-background="new    " d="M78.652,55.873c0,0.002,0,0.005,0,0.007v-0.001
			C78.651,55.877,78.652,55.874,78.652,55.873z"/>
		<path opacity="0.5" fill="#669CCC" enable-background="new    " d="M78.823,55.983c-0.031,0.034-0.054,0.011-0.06,0.004
			c-0.007,0.008-0.01,0.02-0.001,0.033c0,0,0.025,0.038,0.061-0.002c0,0,0.091-0.097,0.097-0.252c0,0,0.029-0.025,0.074-0.033
			c0.001-0.021,0.001-0.035,0.001-0.035c-0.001,0-0.001,0-0.001,0c-0.017,0.008-0.043,0.023-0.074,0.043
			C78.91,55.891,78.823,55.983,78.823,55.983z"/>
		<path opacity="0.5" fill="#669CCC" enable-background="new    " d="M79.433,55.324h-1.062c-0.138,0-0.25,0.112-0.25,0.25v0.035
			c0-0.138,0.112-0.25,0.25-0.25h1.062c0.138,0,0.25,0.112,0.25,0.25v-0.035C79.683,55.436,79.571,55.324,79.433,55.324z"/>
		<path opacity="0.5" fill="#669CCC" enable-background="new    " d="M78.537,56.449c0.194,0.004,0.341,0.017,0.51-0.102
			c0.151-0.106,0.148-0.271,0.147-0.304c-0.003,0.063-0.026,0.185-0.147,0.269c-0.169,0.118-0.316,0.105-0.51,0.102
			c-0.156-0.003-0.279-0.05-0.322-0.069v0.035C78.258,56.399,78.382,56.446,78.537,56.449z"/>
		<path opacity="0.5" fill="#669CCC" enable-background="new    " d="M78.792,56.2c0,0,0.132,0.057,0.222-0.128
			c0,0,0.045-0.077,0.042-0.247c-0.003,0.146-0.042,0.212-0.042,0.212c-0.089,0.185-0.222,0.128-0.222,0.128
			c-0.132-0.067-0.14-0.244-0.141-0.279c0,0.01-0.001,0.018,0,0.028C78.652,55.914,78.645,56.125,78.792,56.2z"/>
		<path opacity="0.5" fill="#669CCC" enable-background="new    " d="M79.433,56.827c0.086,0,0.156-0.07,0.156-0.156v-0.035
			c0,0.086-0.07,0.156-0.156,0.156H78.73c-0.024,0.013-0.046,0.025-0.065,0.035C78.665,56.827,79.433,56.827,79.433,56.827z"/>
	</g>
</g>
</svg>
