<?xml version="1.0" encoding="utf-8"?>
<!-- Generator: Adobe Illustrator 17.0.0, SVG Export Plug-In . SVG Version: 6.00 Build 0)  -->
<!DOCTYPE svg PUBLIC "-//W3C//DTD SVG 1.1//EN" "http://www.w3.org/Graphics/SVG/1.1/DTD/svg11.dtd">
<svg version="1.1" id="图层_1" xmlns="http://www.w3.org/2000/svg" xmlns:xlink="http://www.w3.org/1999/xlink" x="0px" y="0px"
	 width="64px" height="64px" viewBox="32 32 64 64" enable-background="new 32 32 64 64" xml:space="preserve">
<path fill="#EBF2FB" stroke="#9DBCD7" stroke-miterlimit="10" d="M92.781,83.369c0,4.204-3.408,7.612-7.612,7.612H42.412
	c-4.204,0-7.612-3.408-7.612-7.612V40.612c0-4.204,3.408-7.612,7.612-7.612h42.757c4.204,0,7.612,3.408,7.612,7.612V83.369z"/>
<path opacity="0.3" fill="#669CCC" enable-background="new    " d="M92.781,83.369c0,4.204-3.408,7.612-7.612,7.612H42.412
	c-4.204,0-7.612-3.408-7.612-7.612V40.612c0-4.204,3.408-7.612,7.612-7.612h42.757c4.204,0,7.612,3.408,7.612,7.612V83.369z"/>
<g id="g151" opacity="0.5">
	<path id="path153" opacity="0.08" enable-background="new    " d="M85.966,91.194H42.072c-4.041,0-7.334-3.145-7.334-6.998v5.352
		c0,3.011,2.577,5.451,5.732,5.451h47.096c3.156,0,5.697-2.441,5.697-5.451v-5.352C93.263,88.049,90.005,91.194,85.966,91.194z"/>
	<path id="path155" opacity="0.1" enable-background="new    " d="M85.928,91.194H42.034c-4.04,0-7.297-3.088-7.297-6.941v2.8
		c0,3.011,1.391,6.678,7.027,6.678s38.723,0,44.433,0c5.711,0,7.065-3.668,7.065-6.678v-2.8
		C93.263,88.106,89.968,91.194,85.928,91.194z"/>
	<path id="path157" opacity="0.1" enable-background="new    " d="M85.928,91.194H42.034c-4.04,0-7.297-3.088-7.297-6.941v1.511
		c0,3.012,2.413,6.699,7.027,6.699s39.15,0,44.433,0c5.283,0,7.065-3.687,7.065-6.698v-1.511
		C93.263,88.106,89.968,91.194,85.928,91.194z"/>
	<rect id="rect159" x="41.388" y="91.194" opacity="0.05" enable-background="new    " width="45.224" height="1.269"/>
	<rect id="rect161" x="42.718" y="91.194" opacity="0.05" enable-background="new    " width="41.234" height="1.269"/>
	<rect id="rect163" x="42.718" y="92.463" opacity="0.05" enable-background="new    " width="41.234" height="1.269"/>
	<rect id="rect165" x="45.378" y="92.463" opacity="0.05" enable-background="new    " width="37.243" height="1.269"/>
	<rect id="rect167" x="49.369" y="92.463" opacity="0.05" enable-background="new    " width="29.262" height="1.269"/>
	<rect id="rect169" x="54.689" y="92.463" opacity="0.05" enable-background="new    " width="18.621" height="1.269"/>
	<rect id="rect171" x="45.378" y="91.194" opacity="0.05" enable-background="new    " width="37.243" height="1.269"/>
	<rect id="rect173" x="48.039" y="91.194" opacity="0.05" enable-background="new    " width="31.923" height="1.269"/>
	<rect id="rect175" x="49.369" y="91.194" opacity="0.05" enable-background="new    " width="29.262" height="1.269"/>
	<rect id="rect177" x="52.029" y="91.194" opacity="0.05" enable-background="new    " width="23.942" height="1.269"/>
	<rect id="rect179" x="52.029" y="91.194" opacity="0.05" enable-background="new    " width="23.942" height="1.269"/>
</g>
<path opacity="0.6" fill="none" stroke="#FFFFFF" stroke-miterlimit="10" enable-background="new    " d="M42.412,89.969
	c-3.639,0-6.599-2.96-6.599-6.599V40.612c0-3.639,2.96-6.599,6.599-6.599h42.757c3.639,0,6.599,2.961,6.599,6.599v42.757
	c0,3.639-2.96,6.6-6.599,6.6H42.412z"/>
<g id="g27_1_">
	
		<linearGradient id="path36_2_" gradientUnits="userSpaceOnUse" x1="996.9438" y1="1385.364" x2="1004.9769" y2="1399.2776" gradientTransform="matrix(1 0 0 1 -960 -1353)">
		<stop  offset="0" style="stop-color:#FFFFFF"/>
		<stop  offset="0.5" style="stop-color:#FFFFFF;stop-opacity:0.6"/>
		<stop  offset="1" style="stop-color:#FFFFFF;stop-opacity:0.15"/>
	</linearGradient>
	<path id="path36_1_" fill="url(#path36_2_)" d="M43.568,48.642c0.898-1.859,1.994-3.601,3.252-5.211l-2.288-5.017
		c-1.954,1.847-3.541,3.883-4.807,5.86L43.568,48.642z"/>
	
		<linearGradient id="path45_2_" gradientUnits="userSpaceOnUse" x1="1004.2281" y1="1383.2802" x2="1009.4854" y2="1392.3861" gradientTransform="matrix(1 0 0 1 -960 -1353)">
		<stop  offset="0" style="stop-color:#FFFFFF"/>
		<stop  offset="0.5" style="stop-color:#FFFFFF;stop-opacity:0.6"/>
		<stop  offset="1" style="stop-color:#FFFFFF;stop-opacity:0.15"/>
	</linearGradient>
	<path id="path45_1_" fill="url(#path45_2_)" d="M43.806,33.591l1.196,2.621c1.151-0.956,2.412-1.284,3.788-2.621H43.806z"/>
	
		<linearGradient id="path54_2_" gradientUnits="userSpaceOnUse" x1="1005.8817" y1="1381.5509" x2="1012.3051" y2="1392.6765" gradientTransform="matrix(1 0 0 1 -960 -1353)">
		<stop  offset="0" style="stop-color:#FFFFFF"/>
		<stop  offset="0.5" style="stop-color:#FFFFFF;stop-opacity:0.6"/>
		<stop  offset="1" style="stop-color:#FFFFFF;stop-opacity:0.15"/>
	</linearGradient>
	<path id="path54_1_" fill="url(#path54_2_)" d="M52.78,33.591h-0.946c-2.386,1.337-4.472,2.357-6.261,3.88l2.193,4.812
		c1.874-2.164,4.047-4.06,6.481-5.592c0.019-0.017,0.032-0.032,0.052-0.049C57.027,34.286,54.318,33.591,52.78,33.591z"/>
	
		<linearGradient id="path63_2_" gradientUnits="userSpaceOnUse" x1="992.4357" y1="1391.7065" x2="999.4064" y2="1403.7802" gradientTransform="matrix(1 0 0 1 -960 -1353)">
		<stop  offset="0" style="stop-color:#FFFFFF"/>
		<stop  offset="0.5" style="stop-color:#FFFFFF;stop-opacity:0.6"/>
		<stop  offset="1" style="stop-color:#FFFFFF;stop-opacity:0.15"/>
	</linearGradient>
	<path id="path63_1_" fill="url(#path63_2_)" d="M38.995,45.466c-1.468,2.498-2.426,4.807-2.995,6.385
		c0.673,0.961,1.787,1.592,3.05,1.592c1.564,0,2.899-0.966,3.452-2.331c0.142-0.381,0.314-0.747,0.472-1.123L38.995,45.466z"/>
	
		<linearGradient id="path72_2_" gradientUnits="userSpaceOnUse" x1="992.123" y1="1392.2009" x2="999.8483" y2="1405.5817" gradientTransform="matrix(1 0 0 1 -960 -1353)">
		<stop  offset="0" style="stop-color:#FFFFFF"/>
		<stop  offset="0.5" style="stop-color:#FFFFFF;stop-opacity:0.6"/>
		<stop  offset="1" style="stop-color:#FFFFFF;stop-opacity:0.15"/>
	</linearGradient>
	<path id="path72_1_" fill="url(#path72_2_)" d="M35.353,41.321l-0.029,8.388c0,0,0,0.003,0,0.005c0,0.052,0.013,0.102,0.016,0.154
		c0.638-1.552,1.528-3.448,2.736-5.452L35.353,41.321z"/>
	
		<linearGradient id="path149_2_" gradientUnits="userSpaceOnUse" x1="997.965" y1="1388.0105" x2="1005.2191" y2="1400.5747" gradientTransform="matrix(1 0 0 1 -960 -1353)">
		<stop  offset="0" style="stop-color:#FFFFFF"/>
		<stop  offset="0.5" style="stop-color:#FFFFFF;stop-opacity:0.6"/>
		<stop  offset="1" style="stop-color:#FFFFFF;stop-opacity:0.15"/>
	</linearGradient>
	<path id="path149_1_" fill="url(#path149_2_)" d="M42.212,33.606c-2.725-0.226-6.314,2.844-6.775,5.787l3.382,3.846
		c1.35-2.06,3.029-4.17,5.099-6.076L42.212,33.606z"/>
</g>
<g>
	<path opacity="0.9" fill="#FFFFFF" enable-background="new    " d="M76.205,72.444c0,0,2.81-4.023,2.584-9.673
		c-0.226,4.903-2.584,8.269-2.584,8.269C70.3,79.336,59.904,85.391,54.867,88h2.592C62.919,84.927,71.177,79.499,76.205,72.444z"/>
	<path opacity="0.9" fill="#FFFFFF" enable-background="new    " d="M57.992,59.201c1.32,6.7,5.346,2.186,5.346,2.186
		c4.248-4.416,3.915-13.202,3.915-13.202c-0.007,0-0.014,0.004-0.014,0.004c-0.099,2.66-0.699,8.467-3.904,11.791
		c0,0-4.029,4.521-5.346-2.179c0,0-0.061-0.249-0.099-0.695C57.804,58.42,57.992,59.201,57.992,59.201z"/>
	<path opacity="0.9" fill="#FFFFFF" enable-background="new    " d="M54.354,53.828c0-0.078,0-0.157,0-0.235
		C54.354,53.613,54.354,53.692,54.354,53.828z"/>
	<path opacity="0.9" fill="#FFFFFF" enable-background="new    " d="M69.499,48.147c-0.071-0.014-0.126-0.023-0.126-0.023
		c0.14,1.252,0.208,2.393,0.218,3.454C69.618,50.544,69.591,49.406,69.499,48.147z"/>
	<path opacity="0.9" fill="#FFFFFF" enable-background="new    " d="M59.117,36.183c-0.785,1.357-4.982,8.974-4.759,17.235
		c0.245-7.706,4.016-14.552,4.759-15.83h12.186c0.664-0.555,1.292-1.043,1.824-1.405H59.117L59.117,36.183z"/>
	<path opacity="0.9" fill="#FFFFFF" enable-background="new    " d="M89.671,41.754l-3.495,0.63c0,0-3.765,0.678-7.951,0.538
		c0,0-6.652,0.324-10.375,2.237c0,0-2.776,1.275-5.555,3.426c0,0-0.586,0.303-0.559,1.412c0.035,1.108-0.553,4.056-2.517,5.789
		c0,0-1.405,0.74-0.699,1.797c0,0,0.035,0.048,0.078,0.105c0.266-0.32,0.621-0.502,0.621-0.502c1.964-1.736,2.55-4.682,2.517-5.789
		c-0.027-1.108,0.559-1.412,0.559-1.412c0.726-0.559,1.445-1.057,2.117-1.493c0.007-0.161,0.027-0.314,0.035-0.477
		c0,0,1.085-0.957,2.81-1.241c0,0,0,0.038,0,0.075c0.365-0.188,0.594-0.293,0.594-0.293c3.723-1.912,10.375-2.234,10.375-2.234
		c4.19,0.136,7.951-0.542,7.951-0.542l3.495-0.63c0,0.105,0.027,0.208,0.027,0.314v-1.401
		C89.698,41.962,89.671,41.864,89.671,41.754z"/>
	<path opacity="0.9" fill="#FFFFFF" enable-background="new    " d="M49.833,62.076c-3.137-3.375-8.07-13.516-8.579-25.306
		c-1.985,0.945-3.369,2.959-3.369,5.302v1.401c0-2.343,1.384-4.355,3.369-5.302c0.505,11.791,5.442,21.938,8.579,25.313
		c3.208,3.447,7.938,7.113,13.986,5.586c6.045-1.524,7.259-8.156,7.259-8.156c0.398-1.692,0.498-3.482,0.454-5.155
		c-0.035,1.248-0.161,2.523-0.454,3.758c0,0-1.21,6.625-7.259,8.156C57.77,69.191,53.045,65.526,49.833,62.076z"/>
	<g>
		<g opacity="0.3">
			<path opacity="0.5" fill="#669CCC" enable-background="new    " d="M85.92,41.007c-0.027,0.004-3.032,0.535-6.554,0.535
				c-0.358,0-0.733-0.004-1.097-0.017c-0.398,0.014-7.113,0.362-11.06,2.387c-0.027,0.014-0.664,0.306-1.627,0.842
				c0.754-0.737,5.786-5.684,8.329-7.416l3.758-2.561H58.309l-0.406,0.699c-0.88,1.507-5.233,9.479-4.947,18.136
				c-0.014,0.276-0.201,8.817,6.066,12.006c0.18,0.082,1.105,0.463,2.437,0.463c1.851,0,5.322-0.77,7.818-5.926
				c0.014-0.017,0.195-0.327,0.433-0.931c-0.119,0.553-1.299,5.834-6.239,7.082c-0.825,0.208-1.65,0.314-2.465,0.314
				c-3.383,0-6.707-1.8-10.151-5.496c-3.024-3.256-7.726-13.267-8.197-24.416l-0.092-2.118l-1.912,0.91
				c-2.536,1.207-4.177,3.785-4.177,6.567v30.015l0.846,0.362c1.797,0.781,6.632,2.598,12.687,2.707l1.579,0.035
				c1.18,0.023,2.312,0.051,3.417,0.051c5.626-0.004,10.117-0.699,15.071-4.177c6.96-4.876,6.127-12.664,6.087-12.991
				c-0.021-0.897-0.119-1.79-0.287-2.657c3.863,7.942-0.573,14.471-0.818,14.818c-5.633,7.903-15.469,13.742-20.836,16.516
				l-5.114,2.646h34.703c4.023,0,7.293-3.27,7.293-7.29V42.071c0-0.13-0.014-0.255-0.035-0.379l-0.211-1.436l-1.439,0.122
				L85.92,41.007z M89.698,42.071V82.11c0,3.246-2.636,5.892-5.888,5.892H54.868c5.036-2.609,15.428-8.664,21.338-16.96
				c0,0,8.418-12.006-5.009-23.697c0,0,3.457,5.425,3.577,10.894c0,0,0.859,7.232-5.5,11.681
				c-6.351,4.456-11.914,3.969-19.234,3.836c-5.854-0.103-10.515-1.878-12.151-2.592V42.071c0-2.343,1.384-4.355,3.369-5.302
				C41.763,48.56,46.7,58.7,49.837,62.074c3.208,3.451,7.938,7.117,13.986,5.592c6.045-1.528,7.259-8.156,7.259-8.156
				c1.326-5.649-0.594-12.35-0.693-12.494c-0.099-0.14-1.013-0.297-1.013-0.297c0.965,8.889-1.35,12.827-1.35,12.827
				c-3.375,6.973-8.364,4.824-8.364,4.824c-5.547-2.824-5.302-10.805-5.302-10.805c-0.272-8.317,3.969-16.022,4.759-17.388h14.01
				c-2.877,1.958-8.593,7.641-8.593,7.641c-8.145,7.593-6.547,13.979-6.547,13.979c1.32,6.7,5.346,2.179,5.346,2.179
				c4.248-4.416,3.915-13.198,3.915-13.198c-1.725,0.283-2.81,1.241-2.81,1.241c-0.201,5.857-3.635,9.493-3.635,9.493
				c-1.34,1.483-2.291,0.071-2.291,0.071c-0.706-1.061,0.699-1.797,0.699-1.797c1.964-1.732,2.55-4.682,2.517-5.789
				c-0.027-1.108,0.559-1.412,0.559-1.412c2.776-2.155,5.555-3.426,5.555-3.426c3.723-1.912,10.375-2.237,10.375-2.237
				c4.19,0.14,7.951-0.538,7.951-0.538l3.495-0.63C89.671,41.864,89.698,41.962,89.698,42.071z M60.034,59.552
				c0.518-0.096,1.166-0.385,1.804-1.097c0.133-0.133,3.515-3.775,3.962-9.673l0,0c-0.161,2.68-0.832,7.49-3.47,10.229
				c-0.426,0.467-1.217,1.064-1.706,1.064C60.453,60.067,60.249,59.903,60.034,59.552z"/>
		</g>
		<g opacity="0.9" enable-background="new    ">
			<path fill="#FFFFFF" d="M89.694,82.11h-0.005V42.067c0-0.105-0.027-0.208-0.027-0.314l-3.495,0.63c0,0-3.761,0.678-7.951,0.538
				c0,0-6.652,0.325-10.375,2.237c0,0-2.779,1.272-5.555,3.426c0,0-0.586,0.304-0.559,1.412c0.033,1.107-0.553,4.056-2.517,5.789
				c0,0-1.405,0.737-0.699,1.797c0,0,0.951,1.412,2.291-0.071c0,0,3.434-3.635,3.635-9.493c0,0,1.085-0.957,2.81-1.241
				c0,0,0.333,8.783-3.915,13.198c0,0-4.026,4.521-5.346-2.179c0,0-1.599-6.386,6.547-13.979c0,0,5.715-5.684,8.593-7.641h-14.01
				c-0.791,1.367-5.031,9.072-4.759,17.388c0,0-0.245,7.982,5.302,10.805c0,0,4.989,2.149,8.364-4.824c0,0,2.314-3.938,1.35-12.827
				c0,0,0.913,0.157,1.013,0.297c0.099,0.143,2.019,6.844,0.693,12.494c0,0-1.214,6.628-7.259,8.156
				c-6.048,1.525-10.777-2.141-13.986-5.592C46.697,58.7,41.76,48.56,41.255,36.769c-1.985,0.948-3.369,2.959-3.369,5.302v29.094
				c1.636,0.714,6.298,2.489,12.151,2.592c7.32,0.133,12.882,0.621,19.234-3.836c6.359-4.449,5.5-11.681,5.5-11.681
				c-0.12-5.469-3.577-10.894-3.577-10.894c13.428,11.692,5.009,23.697,5.009,23.697c-5.909,8.296-16.301,14.351-21.338,16.96
				h28.942c3.252,0,5.888-2.646,5.888-5.892h-0.001L89.694,82.11L89.694,82.11z"/>
		</g>
	</g>
</g>
</svg>
