<?xml version="1.0" encoding="utf-8"?>
<!-- Generator: Adobe Illustrator 17.0.0, SVG Export Plug-In . SVG Version: 6.00 Build 0)  -->
<!DOCTYPE svg PUBLIC "-//W3C//DTD SVG 1.1//EN" "http://www.w3.org/Graphics/SVG/1.1/DTD/svg11.dtd">
<svg version="1.1" id="图层_1" xmlns="http://www.w3.org/2000/svg" xmlns:xlink="http://www.w3.org/1999/xlink" x="0px" y="0px"
	 width="64px" height="64px" viewBox="32 32 64 64" enable-background="new 32 32 64 64" xml:space="preserve">
<g id="g151" opacity="0.5">
	<path id="path153" opacity="0.08" enable-background="new    " d="M86.149,92.208h-44.25c-4.074,0-7.394-3.194-7.394-7.106v5.435
		c0,3.057,2.597,5.535,5.779,5.535h47.478c3.182,0,5.743-2.478,5.743-5.535v-5.435C93.505,89.015,90.221,92.208,86.149,92.208z"/>
	<path id="path155" opacity="0.1" enable-background="new    " d="M86.112,92.208h-44.25c-4.072,0-7.356-3.135-7.356-7.047v2.843
		c0,3.057,1.402,6.781,7.084,6.781s39.037,0,44.793,0c5.756,0,7.123-3.724,7.123-6.781v-2.843
		C93.505,89.073,90.184,92.208,86.112,92.208z"/>
	<path id="path157" opacity="0.1" enable-background="new    " d="M86.112,92.208h-44.25c-4.072,0-7.356-3.135-7.356-7.047v1.534
		c0,3.058,2.432,6.802,7.084,6.802s39.468,0,44.793,0c5.326,0,7.123-3.744,7.123-6.8v-1.534
		C93.505,89.073,90.184,92.208,86.112,92.208z"/>
	<rect id="rect159" x="41.21" y="92.208" opacity="0.05" enable-background="new    " width="45.591" height="1.288"/>
	<rect id="rect161" x="42.551" y="92.208" opacity="0.05" enable-background="new    " width="41.568" height="1.288"/>
	<rect id="rect163" x="42.551" y="93.496" opacity="0.05" enable-background="new    " width="41.568" height="1.288"/>
	<rect id="rect165" x="45.232" y="93.496" opacity="0.05" enable-background="new    " width="37.546" height="1.288"/>
	<rect id="rect167" x="49.255" y="93.496" opacity="0.05" enable-background="new    " width="29.5" height="1.288"/>
	<rect id="rect169" x="54.619" y="93.496" opacity="0.05" enable-background="new    " width="18.773" height="1.288"/>
	<rect id="rect171" x="45.232" y="92.208" opacity="0.05" enable-background="new    " width="37.546" height="1.288"/>
	<rect id="rect173" x="47.914" y="92.208" opacity="0.05" enable-background="new    " width="32.182" height="1.288"/>
	<rect id="rect175" x="49.255" y="92.208" opacity="0.05" enable-background="new    " width="29.5" height="1.288"/>
	<rect id="rect177" x="51.937" y="92.208" opacity="0.05" enable-background="new    " width="24.136" height="1.288"/>
	<rect id="rect179" x="51.937" y="92.208" opacity="0.05" enable-background="new    " width="24.136" height="1.288"/>
</g>
<path fill="#C4DCED" stroke="#9DBCD7" stroke-miterlimit="10" d="M92.972,84.307c0,4.212-3.415,7.627-7.627,7.627h-42.68
	c-4.212,0-7.627-3.415-7.627-7.627v-42.68c0-4.212,3.415-7.627,7.627-7.627h42.681c4.212,0,7.627,3.415,7.627,7.627V84.307z"/>
<path opacity="0.5" fill="none" stroke="#FFFFFF" stroke-miterlimit="10" enable-background="new    " d="M91.956,84.307
	c0,3.651-2.96,6.611-6.611,6.611h-42.68c-3.651,0-6.611-2.96-6.611-6.611v-42.68c0-3.651,2.96-6.611,6.611-6.611h42.68
	c3.651,0,6.611,2.96,6.611,6.611V84.307z"/>
<path opacity="0.08" fill="none" stroke="#000000" stroke-miterlimit="10" enable-background="new    " d="M93.189,50.997
	c0,0,0-2.563-2.531-2.563c-7.347,0-30.807,0.004-32.907,0.004c-2.552,0-2.531-2.526-2.531-2.526s0-2.543-2.531-2.543
	c-4.431,0-13.306,0-15.188,0c-2.492,0-2.531,2.451-2.531,2.528"/>
<path opacity="0.05" fill="none" stroke="#000000" stroke-miterlimit="10" enable-background="new    " d="M93.178,50.488
	c0,0,0-2.563-2.531-2.563c-7.347,0-30.807,0.004-32.907,0.004c-2.552,0-2.531-2.526-2.531-2.526s0-2.543-2.531-2.543
	c-4.431,0-13.306,0-15.188,0c-2.492,0-2.531,2.451-2.531,2.528"/>
<path opacity="0.03" fill="none" stroke="#000000" stroke-miterlimit="10" enable-background="new    " d="M93.178,50.002
	c0,0,0-2.563-2.531-2.563c-7.347,0-30.807,0.004-32.907,0.004c-2.552,0-2.531-2.526-2.531-2.526s0-2.543-2.531-2.543
	c-4.431,0-13.306,0-15.188,0c-2.492,0-2.531,2.451-2.531,2.528"/>
<linearGradient id="SVGID_1_" gradientUnits="userSpaceOnUse" x1="886.0052" y1="-989.9344" x2="886.0052" y2="-942.1639" gradientTransform="matrix(1 0 0 -1 -822 -898)">
	<stop  offset="0" style="stop-color:#D1E0ED"/>
	<stop  offset="1" style="stop-color:#E4EEFB"/>
</linearGradient>
<path fill="url(#SVGID_1_)" stroke="#9DBCD7" stroke-miterlimit="10" d="M42.648,91.934h42.84c4.212,0,7.484-3.502,7.484-7.714
	V50.019c0-0.6-0.897-1.166-2.092-1.166c-7.379,0-30.905,0.004-33.014,0.004c-2.563,0-2.524-2.338-2.524-2.338
	s0.018-2.355-2.525-2.355c-4.45,0-13.364,0-15.254,0c-2.503,0-2.526,2.075-2.526,2.153v37.903
	C35.038,88.432,38.436,91.934,42.648,91.934z"/>
<path fill="none" stroke="#FFFFFF" stroke-miterlimit="10" d="M42.648,90.918c-3.636,0-6.594-3.004-6.594-6.698V46.317
	c0-0.048,0.008-0.454,0.309-0.756c0.252-0.253,0.656-0.381,1.2-0.381h15.254c0.602,0,0.908,0.072,1.091,0.256
	c0.405,0.407,0.423,1.028,0.423,1.035c-0.002,0.133,0.006,1.459,0.988,2.456c0.626,0.635,1.484,0.957,2.551,0.957
	c0,0,28.2-0.011,33.008-0.011c0.635,0,0.987,0.218,1.077,0.323v34.024c0,3.694-2.901,6.698-6.468,6.698h-42.84V90.918z"/>
<radialGradient id="SVGID_2_" cx="1168.1434" cy="819.2701" r="46.4534" gradientTransform="matrix(0.0197 0.9998 0.9109 -0.018 -707.3493 -1098.2991)" gradientUnits="userSpaceOnUse">
	<stop  offset="0" style="stop-color:#FFFFFF;stop-opacity:0.6"/>
	<stop  offset="0.3783" style="stop-color:#FAFCFE;stop-opacity:0.4487"/>
	<stop  offset="0.829" style="stop-color:#EBF3FC;stop-opacity:0.2684"/>
	<stop  offset="1" style="stop-color:#E4EEFB;stop-opacity:0.2"/>
</radialGradient>
<path fill="url(#SVGID_2_)" d="M42.648,90.918c-3.636,0-6.594-3.004-6.594-6.698V46.317c0-0.048,0.008-0.454,0.309-0.756
	c0.252-0.253,0.656-0.381,1.2-0.381h15.254c0.602,0,0.908,0.072,1.091,0.256c0.405,0.407,0.423,1.028,0.423,1.035
	c-0.002,0.133,0.006,1.459,0.988,2.456c0.626,0.635,1.484,0.957,2.551,0.957c0,0,28.2-0.011,33.008-0.011
	c0.635,0,0.987,0.218,1.077,0.323v34.024c0,3.694-2.901,6.698-6.468,6.698h-42.84V90.918z"/>
<g id="g27_1_">
	
		<linearGradient id="path36_2_" gradientUnits="userSpaceOnUse" x1="1270.9509" y1="-1749.3695" x2="1278.9996" y2="-1763.3102" gradientTransform="matrix(1 0 0 -1 -1234 -1716)">
		<stop  offset="0" style="stop-color:#FFFFFF"/>
		<stop  offset="0.5" style="stop-color:#FFFFFF;stop-opacity:0.6"/>
		<stop  offset="1" style="stop-color:#FFFFFF;stop-opacity:0.15"/>
	</linearGradient>
	<path id="path36_1_" fill="url(#path36_2_)" d="M43.587,49.679c0.9-1.863,1.998-3.608,3.258-5.221l-2.292-5.027
		c-1.958,1.851-3.547,3.89-4.816,5.871L43.587,49.679z"/>
	
		<linearGradient id="path45_2_" gradientUnits="userSpaceOnUse" x1="1278.2488" y1="-1747.282" x2="1283.5162" y2="-1756.4056" gradientTransform="matrix(1 0 0 -1 -1234 -1716)">
		<stop  offset="0" style="stop-color:#FFFFFF"/>
		<stop  offset="0.5" style="stop-color:#FFFFFF;stop-opacity:0.6"/>
		<stop  offset="1" style="stop-color:#FFFFFF;stop-opacity:0.15"/>
	</linearGradient>
	<path id="path45_1_" fill="url(#path45_2_)" d="M43.826,34.599l1.198,2.626c1.153-0.957,2.417-1.287,3.795-2.626H43.826z"/>
	
		<linearGradient id="path54_2_" gradientUnits="userSpaceOnUse" x1="1279.9055" y1="-1745.5494" x2="1286.3414" y2="-1756.6967" gradientTransform="matrix(1 0 0 -1 -1234 -1716)">
		<stop  offset="0" style="stop-color:#FFFFFF"/>
		<stop  offset="0.5" style="stop-color:#FFFFFF;stop-opacity:0.6"/>
		<stop  offset="1" style="stop-color:#FFFFFF;stop-opacity:0.15"/>
	</linearGradient>
	<path id="path54_1_" fill="url(#path54_2_)" d="M52.818,34.599H51.87c-2.391,1.339-4.481,2.361-6.274,3.888l2.197,4.821
		c1.877-2.168,4.055-4.068,6.494-5.603c0.019-0.017,0.032-0.032,0.052-0.049C57.072,35.295,54.358,34.599,52.818,34.599z"/>
	
		<linearGradient id="path63_2_" gradientUnits="userSpaceOnUse" x1="1266.434" y1="-1755.7246" x2="1273.4182" y2="-1767.8217" gradientTransform="matrix(1 0 0 -1 -1234 -1716)">
		<stop  offset="0" style="stop-color:#FFFFFF"/>
		<stop  offset="0.5" style="stop-color:#FFFFFF;stop-opacity:0.6"/>
		<stop  offset="1" style="stop-color:#FFFFFF;stop-opacity:0.15"/>
	</linearGradient>
	<path id="path63_1_" fill="url(#path63_2_)" d="M39.006,46.497c-1.47,2.503-2.431,4.816-3.001,6.397
		c0.675,0.963,1.79,1.595,3.056,1.595c1.567,0,2.905-0.968,3.459-2.336c0.142-0.382,0.315-0.749,0.473-1.125L39.006,46.497z"/>
	
		<linearGradient id="path72_2_" gradientUnits="userSpaceOnUse" x1="1266.12" y1="-1756.2202" x2="1273.8602" y2="-1769.627" gradientTransform="matrix(1 0 0 -1 -1234 -1716)">
		<stop  offset="0" style="stop-color:#FFFFFF"/>
		<stop  offset="0.5" style="stop-color:#FFFFFF;stop-opacity:0.6"/>
		<stop  offset="1" style="stop-color:#FFFFFF;stop-opacity:0.15"/>
	</linearGradient>
	<path id="path72_1_" fill="url(#path72_2_)" d="M35.357,42.345l-0.029,8.405c0,0,0,0.003,0,0.006c0,0.052,0.013,0.102,0.016,0.154
		c0.639-1.555,1.531-3.455,2.741-5.463L35.357,42.345z"/>
	
		<linearGradient id="path149_2_" gradientUnits="userSpaceOnUse" x1="1271.9735" y1="-1752.0216" x2="1279.2416" y2="-1764.6104" gradientTransform="matrix(1 0 0 -1 -1234 -1716)">
		<stop  offset="0" style="stop-color:#FFFFFF"/>
		<stop  offset="0.5" style="stop-color:#FFFFFF;stop-opacity:0.6"/>
		<stop  offset="1" style="stop-color:#FFFFFF;stop-opacity:0.15"/>
	</linearGradient>
	<path id="path149_1_" fill="url(#path149_2_)" d="M42.229,34.615c-2.731-0.227-6.327,2.849-6.788,5.799l3.388,3.853
		c1.352-2.064,3.034-4.178,5.109-6.088L42.229,34.615z"/>
</g>
<g>
	<path opacity="0.3" fill="#669CCC" enable-background="new    " d="M64.001,56.271c-6.39,0-12.776,2.444-17.651,7.321l2.934,2.937
		c8.129-8.129,21.307-8.129,29.435,0l2.937-2.937C76.777,58.715,70.393,56.271,64.001,56.271z M64.001,64.595
		c-4.259,0-8.53,1.617-11.779,4.868l2.954,2.954c4.875-4.875,12.777-4.875,17.652,0l2.954-2.954
		C72.533,66.212,68.264,64.595,64.001,64.595z M64.001,72.921c-2.13,0-4.262,0.807-5.889,2.434l5.889,5.889l5.89-5.889
		C68.267,73.727,66.131,72.921,64.001,72.921z"/>
	<path opacity="0.3" fill="#669CCC" enable-background="new    " d="M64.001,56.271c-6.39,0-12.776,2.444-17.651,7.321l2.934,2.937
		c8.129-8.129,21.307-8.129,29.435,0l2.937-2.937C76.777,58.715,70.393,56.271,64.001,56.271z M64.001,57.422
		c5.73,0,11.413,2.132,15.943,6.243l-1.299,1.3c-8.327-7.486-20.957-7.486-29.284,0l-1.302-1.3
		C52.589,59.554,58.272,57.422,64.001,57.422z M64.001,64.595c-4.259,0-8.53,1.617-11.779,4.868l2.954,2.954
		c4.875-4.875,12.777-4.875,17.652,0l2.954-2.954C72.533,66.212,68.264,64.595,64.001,64.595z M64.001,65.748
		c3.603,0,7.176,1.297,10.074,3.791l-1.319,1.319c-5.059-4.259-12.449-4.259-17.505,0l-1.319-1.319
		C56.83,67.045,60.401,65.748,64.001,65.748z M64.001,72.921c-2.13,0-4.262,0.807-5.889,2.434l5.889,5.889l5.89-5.889
		C68.267,73.727,66.131,72.921,64.001,72.921z M64.001,74.072c1.459,0,2.852,0.57,4.092,1.449l-4.092,4.088l-4.087-4.088
		C61.153,74.641,62.543,74.072,64.001,74.072z"/>
	<path opacity="0.3" fill="#669CCC" enable-background="new    " d="M64.001,56.271c-6.39,0-12.776,2.444-17.651,7.321l2.934,2.937
		c8.129-8.129,21.307-8.129,29.435,0l2.937-2.937C76.777,58.715,70.393,56.271,64.001,56.271z M64.001,56.884
		c6.046,0,12.063,2.274,16.763,6.745l-2.081,2.08c-8.242-7.787-21.119-7.787-29.358,0l-2.084-2.08
		C51.942,59.158,57.958,56.884,64.001,56.884z M64.001,64.595c-4.259,0-8.53,1.617-11.779,4.868l2.954,2.954
		c4.875-4.875,12.777-4.875,17.652,0l2.954-2.954C72.533,66.212,68.264,64.595,64.001,64.595z M64.001,65.209
		c3.916,0,7.819,1.445,10.89,4.292l-2.099,2.1c-4.985-4.541-12.597-4.541-17.579,0l-2.101-2.1
		C56.184,66.653,60.085,65.209,64.001,65.209z M64.001,72.921c-2.13,0-4.262,0.807-5.889,2.434l5.889,5.889l5.89-5.889
		C68.267,73.727,66.131,72.921,64.001,72.921z M64.001,73.533c1.786,0,3.564,0.632,5.001,1.858l-5.001,4.998l-4.997-4.998
		C60.442,74.164,62.218,73.533,64.001,73.533z"/>
	<path opacity="0.3" fill="#669CCC" enable-background="new    " d="M64.001,56.271c-6.39,0-12.776,2.444-17.651,7.321l0.296,0.298
		c4.839-4.678,11.095-7.023,17.354-7.023c6.264,0,12.52,2.345,17.359,7.023l0.296-0.298C76.777,58.715,70.393,56.271,64.001,56.271z
		 M64.001,64.595c-4.259,0-8.53,1.617-11.779,4.868l0.296,0.296c3.212-3.051,7.353-4.57,11.482-4.57
		c4.131,0,8.275,1.519,11.486,4.57l0.296-0.296C72.533,66.212,68.264,64.595,64.001,64.595z M64.001,72.921
		c-2.13,0-4.262,0.807-5.889,2.434l0.317,0.315c1.582-1.429,3.576-2.155,5.573-2.155c2.002,0,3.996,0.726,5.576,2.155l0.314-0.315
		C68.267,73.727,66.131,72.921,64.001,72.921z"/>
	<path opacity="0.3" fill="#FFFFFF" enable-background="new    " d="M64.001,55.081c-6.692,0-13.386,2.572-18.487,7.675
		c-0.003,0-0.036,0.036-0.036,0.037c-0.003,0-0.036,0.055-0.036,0.055c-0.003,0.002-0.039,0.036-0.039,0.036
		c0,0.002-0.036,0.055-0.036,0.056c0,0.002-0.036,0.036-0.036,0.036c0,0.003-0.017,0.056-0.017,0.058
		c-0.003,0-0.039,0.055-0.039,0.056l-0.017,0.055c0,0.002-0.02,0.055-0.02,0.056c0,0-0.02,0.035-0.02,0.036
		c0,0.002-0.017,0.055-0.017,0.055c0,0.002-0.017,0.074-0.017,0.074c0,0.002,0,0.056,0,0.056c0,0.002-0.02,0.055-0.02,0.056
		s0,0.055,0,0.055c0,0.002,0,0.055,0,0.056c0,0,0,0.055,0,0.056c0,0.002,0,0.055,0,0.056c0,0.002,0.02,0.055,0.02,0.056v0.055
		c0,0.003,0.017,0.074,0.017,0.076c0,0,0.017,0.055,0.017,0.056c0,0.002,0.02,0.036,0.02,0.036c0,0.003,0.02,0.057,0.02,0.058
		l0.017,0.055c0,0.002,0.036,0.056,0.039,0.056c0,0.002,0.017,0.055,0.017,0.057l0.036,0.036c0,0.002,0.036,0.055,0.036,0.056
		c0,0,0.036,0.036,0.039,0.037c0,0,0.033,0.055,0.036,0.055c0,0.002,0.033,0.036,0.036,0.037l2.934,2.937
		c0.003,0,0.036,0.034,0.036,0.036c0.003,0,0.056,0.034,0.056,0.036c0,0.002,0.036,0.036,0.036,0.036
		c0.003,0,0.053,0.036,0.056,0.036c0,0.002,0.036,0.036,0.036,0.037c0,0,0.053,0.019,0.056,0.019c0,0,0.053,0.036,0.056,0.036
		l0.053,0.02c0.003,0,0.053,0.017,0.056,0.017s0.036,0.02,0.039,0.02l0.053,0.019c0.003,0,0.074,0.018,0.077,0.018h0.053
		c0.003,0,0.053,0.021,0.056,0.021c0,0,0.053,0,0.056,0h0.053c0.003,0,0.056,0,0.056,0s0.053,0,0.056,0c0,0,0.053-0.021,0.056-0.021
		h0.053c0.003,0,0.074-0.018,0.077-0.018l0.053-0.019c0.003,0,0.036-0.02,0.036-0.02c0.003,0,0.056-0.017,0.056-0.017l0.056-0.02
		c0,0,0.053-0.036,0.056-0.036l0.053-0.019c0.003-0.002,0.036-0.036,0.036-0.037c0.003,0,0.056-0.036,0.056-0.036
		s0.036-0.035,0.036-0.036c0.003-0.002,0.056-0.036,0.056-0.036c0-0.002,0.036-0.036,0.036-0.036c7.675-7.675,20.088-7.675,27.765,0
		c0,0,0.033,0.034,0.033,0.036c0.003,0,0.057,0.034,0.057,0.036c0.003,0.002,0.036,0.036,0.039,0.036l0.053,0.036
		c0.003,0.002,0.036,0.036,0.036,0.037c0.003,0.001,0.053,0.019,0.057,0.019l0.056,0.036c0,0,0.053,0.02,0.057,0.02l0.053,0.017
		c0.003,0,0.036,0.02,0.036,0.02c0.003,0,0.056,0.019,0.056,0.019l0.074,0.018c0.003,0,0.057,0,0.057,0l0.056,0.021
		c0,0,0.053,0,0.057,0h0.053c0.003,0,0.056,0,0.056,0c0.003,0,0.053,0,0.057,0l0.053-0.021c0.003,0,0.056,0,0.056,0
		c0.003,0,0.074-0.018,0.074-0.018c0.003,0,0.056-0.019,0.056-0.019c0.003,0,0.036-0.02,0.036-0.02c0.003,0,0.056-0.017,0.056-0.017
		c0.003,0,0.053-0.02,0.057-0.02l0.053-0.036c0.003,0,0.056-0.017,0.056-0.017c0.003-0.003,0.036-0.037,0.039-0.039l0.053-0.036
		c0.003,0,0.036-0.035,0.039-0.036c0-0.002,0.053-0.036,0.053-0.036c0.003-0.002,0.036-0.036,0.036-0.036l2.934-2.937
		c0.003,0,0.036-0.036,0.039-0.037c0.003,0,0.033-0.055,0.036-0.055c0-0.002,0.036-0.036,0.036-0.036
		c0.003-0.002,0.036-0.055,0.036-0.056c0.003,0,0.039-0.036,0.039-0.036c0-0.002,0.017-0.057,0.017-0.058
		c0,0,0.036-0.055,0.036-0.056c0.003,0,0.02-0.055,0.02-0.055c0-0.002,0.017-0.055,0.017-0.057c0,0,0.02-0.036,0.02-0.037
		c0-0.002,0.02-0.055,0.02-0.056c0-0.002,0.017-0.072,0.017-0.076v-0.055c0-0.002,0.02-0.055,0.02-0.056c0,0,0-0.055,0-0.056
		s0-0.055,0-0.055c0-0.002,0-0.055,0-0.056c0,0,0-0.055,0-0.056s-0.02-0.055-0.02-0.056c0,0,0-0.055,0-0.056
		c0,0-0.017-0.072-0.017-0.074c0,0-0.02-0.055-0.02-0.056s-0.02-0.036-0.02-0.036c0-0.002-0.017-0.056-0.017-0.058
		c0,0-0.017-0.055-0.02-0.055c0-0.002-0.036-0.055-0.036-0.056s-0.017-0.055-0.017-0.056c0,0-0.036-0.035-0.039-0.036
		c0-0.002-0.033-0.055-0.036-0.056c0,0-0.036-0.036-0.036-0.037c-0.003,0-0.033-0.055-0.036-0.055
		c-0.003-0.002-0.036-0.036-0.039-0.037C77.387,57.654,70.695,55.081,64.001,55.081L64.001,55.081z M64.001,56.271
		c6.394,0,12.777,2.444,17.655,7.321l-2.937,2.937c-8.126-8.129-21.304-8.129-29.435,0l-2.934-2.937
		C51.225,58.715,57.612,56.271,64.001,56.271z M64.001,63.407c-4.558,0-9.134,1.741-12.618,5.221l-0.033,0.036
		c-0.003,0.002-0.036,0.055-0.039,0.057c0,0.002-0.033,0.035-0.036,0.037l-0.036,0.053c0,0.003-0.036,0.036-0.036,0.038
		s-0.02,0.053-0.02,0.056l-0.036,0.055c0,0.002-0.017,0.054-0.02,0.057c0,0-0.017,0.053-0.017,0.055c0,0.001-0.02,0.035-0.02,0.036
		c0,0.001-0.017,0.055-0.017,0.057c0,0-0.02,0.072-0.02,0.074s0,0.055,0,0.056l-0.017,0.055c0,0.002,0,0.053,0,0.056
		c0,0.002,0,0.053,0,0.055c0,0.001,0,0.055,0,0.055c0,0.003,0,0.055,0,0.058l0.017,0.053c0,0.003,0,0.055,0,0.056
		c0,0.002,0.02,0.074,0.02,0.074c0,0.003,0.017,0.055,0.017,0.057s0.02,0.036,0.02,0.036c0,0.002,0.017,0.055,0.017,0.056
		c0.003,0.002,0.02,0.053,0.02,0.057l0.036,0.053c0,0.003,0.02,0.055,0.02,0.056c0,0.002,0.036,0.036,0.036,0.037l0.036,0.055
		c0,0.002,0.036,0.036,0.036,0.036c0.003,0.002,0.036,0.055,0.039,0.056c0,0.002,0.033,0.036,0.033,0.036l2.954,2.954
		c0.003,0.002,0.036,0.036,0.039,0.036c0,0.002,0.053,0.036,0.053,0.038c0.003,0,0.036,0.034,0.036,0.036
		c0.003,0.002,0.056,0.036,0.056,0.036c0.003,0.002,0.036,0.036,0.039,0.037l0.053,0.019c0.003,0,0.053,0.036,0.056,0.036
		c0,0.002,0.053,0.018,0.056,0.018c0,0.002,0.053,0.019,0.053,0.019c0.003,0,0.036,0.02,0.039,0.02l0.053,0.019
		c0.003,0,0.074,0.019,0.077,0.019h0.053c0.003,0,0.053,0.018,0.056,0.018s0.053,0,0.056,0c0,0,0.053,0,0.056,0c0,0,0.053,0,0.056,0
		h0.053c0.003,0,0.053-0.018,0.056-0.018c0,0,0.053,0,0.056,0c0,0,0.071-0.019,0.074-0.019c0,0,0.053-0.019,0.056-0.019
		c0,0,0.033-0.02,0.036-0.02c0,0,0.053-0.017,0.056-0.019c0,0,0.053-0.017,0.053-0.018c0.003,0,0.053-0.036,0.056-0.036
		c0,0,0.053-0.019,0.056-0.019c0-0.002,0.036-0.036,0.036-0.037c0,0,0.053-0.035,0.056-0.036c0-0.002,0.033-0.036,0.036-0.036
		c0-0.002,0.053-0.036,0.053-0.038c0.003,0,0.036-0.034,0.039-0.036c4.424-4.424,11.557-4.424,15.98,0
		c0,0.002,0.036,0.036,0.036,0.036c0.003,0.002,0.053,0.036,0.056,0.038c0,0,0.033,0.034,0.036,0.036
		c0,0.002,0.056,0.036,0.056,0.036c0,0.002,0.036,0.036,0.036,0.037c0,0,0.053,0.019,0.057,0.019l0.053,0.036
		c0.003,0.002,0.056,0.018,0.056,0.018c0,0.002,0.057,0.019,0.057,0.019l0.036,0.02c0,0,0.053,0.019,0.057,0.019l0.074,0.019
		c0.003,0,0.053,0,0.057,0l0.053,0.018c0.003,0,0.056,0,0.056,0c0.003,0,0.057,0,0.057,0s0.053,0,0.056,0h0.053
		c0.003,0,0.057-0.018,0.057-0.018c0.003,0,0.053,0,0.056,0l0.074-0.019c0.003,0,0.053-0.019,0.057-0.019l0.036-0.02
		c0,0,0.053-0.017,0.056-0.019c0.003,0,0.053-0.017,0.057-0.018l0.053-0.036c0.003,0,0.053-0.019,0.056-0.019
		c0.003-0.002,0.036-0.036,0.036-0.037c0.003,0,0.053-0.035,0.057-0.036c0.003-0.002,0.033-0.036,0.036-0.036
		c0.003-0.002,0.053-0.036,0.057-0.038c0,0,0.036-0.034,0.036-0.036l2.954-2.954c0.003,0,0.033-0.034,0.036-0.036
		c0.003-0.001,0.036-0.055,0.036-0.056c0.003,0,0.036-0.035,0.036-0.036c0.003,0,0.039-0.055,0.039-0.055
		c0-0.002,0.036-0.036,0.036-0.037c0-0.002,0.017-0.053,0.017-0.056c0.003,0,0.036-0.053,0.036-0.053
		c0.003-0.003,0.02-0.055,0.02-0.057s0.02-0.055,0.02-0.056c0,0,0.017-0.035,0.017-0.036s0.02-0.054,0.02-0.057
		c0,0,0.02-0.072,0.02-0.074c0-0.001,0-0.053,0-0.056l0.017-0.053c0-0.003,0-0.055,0-0.058c0,0,0-0.054,0-0.055
		c0-0.002,0-0.053,0-0.055c0-0.003,0-0.055,0-0.056l-0.017-0.055c0-0.002,0-0.055,0-0.056s-0.02-0.074-0.02-0.074
		c0-0.002-0.02-0.055-0.02-0.057c0-0.002-0.017-0.035-0.017-0.036c0-0.002-0.02-0.055-0.02-0.055c0-0.003-0.017-0.055-0.02-0.057
		c0,0-0.033-0.055-0.036-0.055c0-0.003-0.017-0.055-0.017-0.056s-0.036-0.035-0.036-0.038c0,0-0.036-0.053-0.039-0.053
		c0-0.003-0.033-0.036-0.036-0.037c0-0.002-0.033-0.055-0.036-0.057c-0.003,0-0.033-0.036-0.036-0.036
		C73.14,65.148,68.564,63.407,64.001,63.407L64.001,63.407z M64.001,64.595c4.264,0,8.531,1.617,11.783,4.868l-2.954,2.954
		c-4.875-4.875-12.777-4.875-17.652,0l-2.954-2.954C55.47,66.212,59.74,64.595,64.001,64.595z M64.001,71.73
		c-2.43,0-4.872,0.934-6.725,2.788c0,0-0.036,0.035-0.036,0.036c-0.003,0.002-0.036,0.055-0.036,0.055
		c-0.003,0.003-0.036,0.036-0.039,0.037c0,0.001-0.033,0.055-0.036,0.055c0,0.002-0.036,0.036-0.036,0.036
		c0,0.003-0.017,0.055-0.017,0.058c0,0-0.036,0.053-0.039,0.053c0,0.003-0.017,0.055-0.017,0.056s-0.02,0.055-0.02,0.057
		l-0.017,0.036c0,0.002-0.02,0.053-0.02,0.056l-0.017,0.074c0,0.002,0,0.053,0,0.057c0,0-0.02,0.053-0.02,0.055
		c0,0.002,0,0.055,0,0.055c0,0.002,0,0.055,0,0.057c0,0,0,0.053,0,0.055c0,0.003,0,0.055,0,0.057l0.02,0.055
		c0,0.002,0,0.053,0,0.057c0,0.001,0.017,0.073,0.017,0.073c0,0.002,0.02,0.055,0.02,0.057s0.017,0.035,0.017,0.037l0.02,0.053
		c0,0.003,0.017,0.055,0.017,0.056c0.003,0.002,0.039,0.055,0.039,0.057c0,0,0.017,0.053,0.017,0.055s0.036,0.035,0.036,0.037
		c0.003,0,0.036,0.053,0.036,0.053c0.003,0.003,0.036,0.036,0.039,0.038c0,0.002,0.033,0.055,0.036,0.055
		c0,0.002,0.036,0.036,0.036,0.036l5.889,5.892c0.003,0.002,0.036,0.035,0.036,0.036c0.003,0.002,0.053,0.035,0.056,0.036
		c0,0.002,0.036,0.036,0.036,0.036c0.003,0.002,0.056,0.036,0.056,0.036c0.003,0.002,0.036,0.037,0.036,0.037
		c0.003,0,0.056,0.018,0.056,0.02c0,0,0.053,0.034,0.056,0.036c0,0,0.053,0.017,0.053,0.019c0.003,0.002,0.056,0.017,0.056,0.017
		c0.003,0,0.036,0.02,0.036,0.02c0.003,0,0.056,0.018,0.056,0.018l0.074,0.021c0.003,0,0.056,0,0.056,0s0.053,0.019,0.056,0.019
		c0,0,0.053,0,0.056,0H64c0.003,0,0.053,0,0.056,0c0,0,0.053,0,0.057,0l0.053-0.019c0.003,0,0.056,0,0.056,0l0.074-0.021
		c0.003,0,0.056-0.018,0.056-0.018l0.036-0.02c0.003,0,0.053-0.016,0.056-0.017s0.053-0.019,0.057-0.019
		c0-0.002,0.053-0.036,0.056-0.036c0-0.002,0.053-0.02,0.057-0.02c0,0,0.033-0.036,0.036-0.037c0,0,0.053-0.035,0.053-0.036
		c0.003,0,0.037-0.035,0.041-0.036c0-0.002,0.053-0.035,0.053-0.036c0.003-0.002,0.036-0.035,0.036-0.036l5.893-5.892
		c0,0,0.033-0.035,0.036-0.036c0,0,0.036-0.053,0.036-0.055s0.036-0.035,0.036-0.038l0.036-0.053c0-0.003,0.036-0.036,0.039-0.037
		c0-0.002,0.017-0.055,0.017-0.055c0-0.002,0.036-0.055,0.036-0.056c0-0.002,0.02-0.053,0.02-0.057l0.017-0.053
		c0-0.003,0.02-0.036,0.02-0.037c0-0.002,0.02-0.055,0.02-0.057c0,0,0.017-0.072,0.017-0.073c0-0.003,0-0.055,0-0.057l0.02-0.055
		c0-0.002,0-0.053,0-0.057c0-0.002,0-0.055,0-0.055c0-0.002,0-0.055,0-0.057c0,0,0-0.053,0-0.055c0-0.002-0.02-0.055-0.02-0.055
		c0-0.003,0-0.055,0-0.057l-0.017-0.074c0-0.003-0.02-0.055-0.02-0.056l-0.02-0.036c0-0.002-0.017-0.055-0.017-0.057
		c0-0.002-0.02-0.054-0.02-0.056l-0.036-0.053c0-0.003-0.017-0.055-0.017-0.058c-0.003,0-0.039-0.035-0.039-0.036
		c0,0-0.036-0.054-0.036-0.055c0,0-0.036-0.035-0.036-0.037c0,0-0.036-0.053-0.036-0.055c-0.003-0.002-0.036-0.036-0.036-0.036
		C68.875,72.665,66.433,71.73,64.001,71.73z M64.001,72.921c2.132,0,4.266,0.807,5.89,2.434l-5.89,5.889l-5.889-5.889
		C59.738,73.727,61.871,72.921,64.001,72.921z"/>
	<path opacity="0.3" fill="#FFFFFF" enable-background="new    " d="M64.001,55.639c-6.55,0-13.101,2.511-18.098,7.506
		c-0.246,0.247-0.246,0.647,0,0.892l2.934,2.936c0.249,0.247,0.647,0.247,0.892,0c7.886-7.886,20.658-7.886,28.544,0
		c0.243,0.247,0.644,0.247,0.889,0l2.934-2.936c0.249-0.246,0.249-0.645,0-0.892C77.105,58.15,70.555,55.639,64.001,55.639z
		 M64.001,56.271c6.394,0,12.777,2.444,17.655,7.321l-2.937,2.937c-8.126-8.129-21.304-8.129-29.435,0l-2.934-2.937
		C51.225,58.715,57.612,56.271,64.001,56.271z M64.001,63.963c-4.421,0-8.852,1.682-12.225,5.056c-0.246,0.244-0.246,0.645,0,0.891
		l2.954,2.954c0.246,0.246,0.644,0.246,0.892,0c4.635-4.635,12.125-4.635,16.76,0c0.246,0.246,0.647,0.246,0.892,0l2.954-2.954
		c0.246-0.246,0.246-0.646,0-0.891C72.858,65.644,68.422,63.963,64.001,63.963z M64.001,64.595c4.264,0,8.531,1.617,11.783,4.868
		l-2.954,2.954c-4.875-4.875-12.777-4.875-17.652,0l-2.954-2.954C55.47,66.212,59.74,64.595,64.001,64.595z M64.001,72.288
		c-2.291,0-4.59,0.874-6.336,2.621c-0.246,0.246-0.246,0.647,0,0.891l5.889,5.89c0.249,0.247,0.647,0.247,0.892,0l5.89-5.89
		c0.249-0.244,0.249-0.645,0-0.891C68.592,73.162,66.292,72.288,64.001,72.288z M64.001,72.921c2.132,0,4.266,0.807,5.89,2.434
		l-5.89,5.889l-5.889-5.889C59.738,73.727,61.871,72.921,64.001,72.921z"/>
	<path opacity="0.3" fill="#FFFFFF" enable-background="new    " d="M64.001,60.431c-5.325,0-10.652,2.032-14.716,6.096l-2.638-2.64
		c-0.101,0.097-0.198,0.198-0.296,0.298l2.934,2.936c8.129-8.128,21.307-8.128,29.435,0l2.937-2.936
		c-0.101-0.1-0.198-0.2-0.296-0.298l-2.641,2.64C74.657,62.463,69.329,60.431,64.001,60.431z M64.001,68.759
		c-3.192,0-6.386,1.222-8.825,3.659l-2.658-2.658c-0.101,0.097-0.198,0.2-0.296,0.298l2.954,2.954
		c4.875-4.877,12.777-4.877,17.652,0l2.954-2.954c-0.098-0.098-0.195-0.201-0.296-0.298l-2.658,2.658
		C70.39,69.979,67.196,68.759,64.001,68.759z M58.427,75.669c-0.104,0.094-0.217,0.179-0.317,0.279l5.889,5.889l5.89-5.889
		c-0.098-0.1-0.211-0.185-0.314-0.279l-5.576,5.574C64,81.242,58.427,75.669,58.427,75.669z"/>
</g>
</svg>
