<?xml version="1.0" encoding="utf-8"?>
<!-- Generator: Adobe Illustrator 17.0.0, SVG Export Plug-In . SVG Version: 6.00 Build 0)  -->
<!DOCTYPE svg PUBLIC "-//W3C//DTD SVG 1.1//EN" "http://www.w3.org/Graphics/SVG/1.1/DTD/svg11.dtd">
<svg version="1.1" id="图层_1" xmlns="http://www.w3.org/2000/svg" xmlns:xlink="http://www.w3.org/1999/xlink" x="0px" y="0px"
	 width="64px" height="64px" viewBox="32 32 64 64" enable-background="new 32 32 64 64" xml:space="preserve">
<g id="g151" opacity="0.5">
	<path id="path153" opacity="0.08" enable-background="new    " d="M86.149,92.208h-44.25c-4.074,0-7.394-3.194-7.394-7.106v5.435
		c0,3.057,2.597,5.535,5.779,5.535h47.478c3.182,0,5.743-2.478,5.743-5.535v-5.435C93.505,89.015,90.221,92.208,86.149,92.208z"/>
	<path id="path155" opacity="0.1" enable-background="new    " d="M86.112,92.208h-44.25c-4.072,0-7.356-3.135-7.356-7.047v2.843
		c0,3.057,1.402,6.781,7.084,6.781s39.037,0,44.793,0c5.756,0,7.123-3.724,7.123-6.781v-2.843
		C93.505,89.073,90.184,92.208,86.112,92.208z"/>
	<path id="path157" opacity="0.1" enable-background="new    " d="M86.112,92.208h-44.25c-4.072,0-7.356-3.135-7.356-7.047v1.534
		c0,3.058,2.432,6.802,7.084,6.802s39.468,0,44.793,0c5.326,0,7.123-3.744,7.123-6.8v-1.534
		C93.505,89.073,90.184,92.208,86.112,92.208z"/>
	<rect id="rect159" x="41.21" y="92.208" opacity="0.05" enable-background="new    " width="45.591" height="1.288"/>
	<rect id="rect161" x="42.551" y="92.208" opacity="0.05" enable-background="new    " width="41.568" height="1.288"/>
	<rect id="rect163" x="42.551" y="93.496" opacity="0.05" enable-background="new    " width="41.568" height="1.288"/>
	<rect id="rect165" x="45.232" y="93.496" opacity="0.05" enable-background="new    " width="37.546" height="1.288"/>
	<rect id="rect167" x="49.255" y="93.496" opacity="0.05" enable-background="new    " width="29.5" height="1.288"/>
	<rect id="rect169" x="54.619" y="93.496" opacity="0.05" enable-background="new    " width="18.773" height="1.288"/>
	<rect id="rect171" x="45.232" y="92.208" opacity="0.05" enable-background="new    " width="37.546" height="1.288"/>
	<rect id="rect173" x="47.914" y="92.208" opacity="0.05" enable-background="new    " width="32.182" height="1.288"/>
	<rect id="rect175" x="49.255" y="92.208" opacity="0.05" enable-background="new    " width="29.5" height="1.288"/>
	<rect id="rect177" x="51.937" y="92.208" opacity="0.05" enable-background="new    " width="24.136" height="1.288"/>
	<rect id="rect179" x="51.937" y="92.208" opacity="0.05" enable-background="new    " width="24.136" height="1.288"/>
</g>
<path fill="#C4DCED" stroke="#9DBCD7" stroke-miterlimit="10" d="M92.972,84.307c0,4.212-3.415,7.627-7.627,7.627h-42.68
	c-4.212,0-7.627-3.415-7.627-7.627v-42.68c0-4.212,3.415-7.627,7.627-7.627h42.681c4.212,0,7.627,3.415,7.627,7.627V84.307z"/>
<path opacity="0.5" fill="none" stroke="#FFFFFF" stroke-miterlimit="10" enable-background="new    " d="M91.956,84.307
	c0,3.651-2.96,6.611-6.611,6.611h-42.68c-3.651,0-6.611-2.96-6.611-6.611v-42.68c0-3.651,2.96-6.611,6.611-6.611h42.68
	c3.651,0,6.611,2.96,6.611,6.611V84.307z"/>
<path opacity="0.08" fill="none" stroke="#000000" stroke-miterlimit="10" enable-background="new    " d="M93.189,50.997
	c0,0,0-2.563-2.531-2.563c-7.347,0-30.807,0.004-32.907,0.004c-2.552,0-2.531-2.526-2.531-2.526s0-2.543-2.531-2.543
	c-4.431,0-13.306,0-15.188,0c-2.492,0-2.531,2.451-2.531,2.528"/>
<path opacity="0.05" fill="none" stroke="#000000" stroke-miterlimit="10" enable-background="new    " d="M93.178,50.488
	c0,0,0-2.563-2.531-2.563c-7.347,0-30.807,0.004-32.907,0.004c-2.552,0-2.531-2.526-2.531-2.526s0-2.543-2.531-2.543
	c-4.431,0-13.306,0-15.188,0c-2.492,0-2.531,2.451-2.531,2.528"/>
<path opacity="0.03" fill="none" stroke="#000000" stroke-miterlimit="10" enable-background="new    " d="M93.178,50.002
	c0,0,0-2.563-2.531-2.563c-7.347,0-30.807,0.004-32.907,0.004c-2.552,0-2.531-2.526-2.531-2.526s0-2.543-2.531-2.543
	c-4.431,0-13.306,0-15.188,0c-2.492,0-2.531,2.451-2.531,2.528"/>
<linearGradient id="SVGID_1_" gradientUnits="userSpaceOnUse" x1="886.0052" y1="-989.9344" x2="886.0052" y2="-942.1639" gradientTransform="matrix(1 0 0 -1 -822 -898)">
	<stop  offset="0" style="stop-color:#D1E0ED"/>
	<stop  offset="1" style="stop-color:#E4EEFB"/>
</linearGradient>
<path fill="url(#SVGID_1_)" stroke="#9DBCD7" stroke-miterlimit="10" d="M42.648,91.934h42.84c4.212,0,7.484-3.502,7.484-7.714
	V50.019c0-0.6-0.897-1.166-2.092-1.166c-7.379,0-30.905,0.004-33.014,0.004c-2.563,0-2.524-2.338-2.524-2.338
	s0.018-2.355-2.525-2.355c-4.45,0-13.364,0-15.254,0c-2.503,0-2.526,2.075-2.526,2.153v37.903
	C35.038,88.432,38.436,91.934,42.648,91.934z"/>
<path fill="none" stroke="#FFFFFF" stroke-miterlimit="10" d="M42.648,90.918c-3.636,0-6.594-3.004-6.594-6.698V46.317
	c0-0.048,0.008-0.454,0.309-0.756c0.252-0.253,0.656-0.381,1.2-0.381h15.254c0.602,0,0.908,0.072,1.091,0.256
	c0.405,0.407,0.423,1.028,0.423,1.035c-0.002,0.133,0.006,1.459,0.988,2.456c0.626,0.635,1.484,0.957,2.551,0.957
	c0,0,28.2-0.011,33.008-0.011c0.635,0,0.987,0.218,1.077,0.323v34.024c0,3.694-2.901,6.698-6.468,6.698h-42.84V90.918z"/>
<radialGradient id="SVGID_2_" cx="1168.1434" cy="819.2701" r="46.4534" gradientTransform="matrix(0.0197 0.9998 0.9109 -0.018 -707.3493 -1098.2991)" gradientUnits="userSpaceOnUse">
	<stop  offset="0" style="stop-color:#FFFFFF;stop-opacity:0.6"/>
	<stop  offset="0.3783" style="stop-color:#FAFCFE;stop-opacity:0.4487"/>
	<stop  offset="0.829" style="stop-color:#EBF3FC;stop-opacity:0.2684"/>
	<stop  offset="1" style="stop-color:#E4EEFB;stop-opacity:0.2"/>
</radialGradient>
<path fill="url(#SVGID_2_)" d="M42.648,90.918c-3.636,0-6.594-3.004-6.594-6.698V46.317c0-0.048,0.008-0.454,0.309-0.756
	c0.252-0.253,0.656-0.381,1.2-0.381h15.254c0.602,0,0.908,0.072,1.091,0.256c0.405,0.407,0.423,1.028,0.423,1.035
	c-0.002,0.133,0.006,1.459,0.988,2.456c0.626,0.635,1.484,0.957,2.551,0.957c0,0,28.2-0.011,33.008-0.011
	c0.635,0,0.987,0.218,1.077,0.323v34.024c0,3.694-2.901,6.698-6.468,6.698h-42.84V90.918z"/>
<g id="g27_1_">
	
		<linearGradient id="path36_2_" gradientUnits="userSpaceOnUse" x1="1270.9509" y1="-1749.3695" x2="1278.9996" y2="-1763.3102" gradientTransform="matrix(1 0 0 -1 -1234 -1716)">
		<stop  offset="0" style="stop-color:#FFFFFF"/>
		<stop  offset="0.5" style="stop-color:#FFFFFF;stop-opacity:0.6"/>
		<stop  offset="1" style="stop-color:#FFFFFF;stop-opacity:0.15"/>
	</linearGradient>
	<path id="path36_1_" fill="url(#path36_2_)" d="M43.587,49.679c0.9-1.863,1.998-3.608,3.258-5.221l-2.292-5.027
		c-1.958,1.851-3.547,3.89-4.816,5.871L43.587,49.679z"/>
	
		<linearGradient id="path45_2_" gradientUnits="userSpaceOnUse" x1="1278.2488" y1="-1747.282" x2="1283.5162" y2="-1756.4056" gradientTransform="matrix(1 0 0 -1 -1234 -1716)">
		<stop  offset="0" style="stop-color:#FFFFFF"/>
		<stop  offset="0.5" style="stop-color:#FFFFFF;stop-opacity:0.6"/>
		<stop  offset="1" style="stop-color:#FFFFFF;stop-opacity:0.15"/>
	</linearGradient>
	<path id="path45_1_" fill="url(#path45_2_)" d="M43.826,34.599l1.198,2.626c1.153-0.957,2.417-1.287,3.795-2.626H43.826z"/>
	
		<linearGradient id="path54_2_" gradientUnits="userSpaceOnUse" x1="1279.9055" y1="-1745.5494" x2="1286.3414" y2="-1756.6967" gradientTransform="matrix(1 0 0 -1 -1234 -1716)">
		<stop  offset="0" style="stop-color:#FFFFFF"/>
		<stop  offset="0.5" style="stop-color:#FFFFFF;stop-opacity:0.6"/>
		<stop  offset="1" style="stop-color:#FFFFFF;stop-opacity:0.15"/>
	</linearGradient>
	<path id="path54_1_" fill="url(#path54_2_)" d="M52.818,34.599H51.87c-2.391,1.339-4.481,2.361-6.274,3.888l2.197,4.821
		c1.877-2.168,4.055-4.068,6.494-5.603c0.019-0.017,0.032-0.032,0.052-0.049C57.072,35.295,54.358,34.599,52.818,34.599z"/>
	
		<linearGradient id="path63_2_" gradientUnits="userSpaceOnUse" x1="1266.434" y1="-1755.7246" x2="1273.4182" y2="-1767.8217" gradientTransform="matrix(1 0 0 -1 -1234 -1716)">
		<stop  offset="0" style="stop-color:#FFFFFF"/>
		<stop  offset="0.5" style="stop-color:#FFFFFF;stop-opacity:0.6"/>
		<stop  offset="1" style="stop-color:#FFFFFF;stop-opacity:0.15"/>
	</linearGradient>
	<path id="path63_1_" fill="url(#path63_2_)" d="M39.006,46.497c-1.47,2.503-2.431,4.816-3.001,6.397
		c0.675,0.963,1.79,1.595,3.056,1.595c1.567,0,2.905-0.968,3.459-2.336c0.142-0.382,0.315-0.749,0.473-1.125L39.006,46.497z"/>
	
		<linearGradient id="path72_2_" gradientUnits="userSpaceOnUse" x1="1266.12" y1="-1756.2202" x2="1273.8602" y2="-1769.627" gradientTransform="matrix(1 0 0 -1 -1234 -1716)">
		<stop  offset="0" style="stop-color:#FFFFFF"/>
		<stop  offset="0.5" style="stop-color:#FFFFFF;stop-opacity:0.6"/>
		<stop  offset="1" style="stop-color:#FFFFFF;stop-opacity:0.15"/>
	</linearGradient>
	<path id="path72_1_" fill="url(#path72_2_)" d="M35.357,42.345l-0.029,8.405c0,0,0,0.003,0,0.006c0,0.052,0.013,0.102,0.016,0.154
		c0.639-1.555,1.531-3.455,2.741-5.463L35.357,42.345z"/>
	
		<linearGradient id="path149_2_" gradientUnits="userSpaceOnUse" x1="1271.9735" y1="-1752.0216" x2="1279.2416" y2="-1764.6104" gradientTransform="matrix(1 0 0 -1 -1234 -1716)">
		<stop  offset="0" style="stop-color:#FFFFFF"/>
		<stop  offset="0.5" style="stop-color:#FFFFFF;stop-opacity:0.6"/>
		<stop  offset="1" style="stop-color:#FFFFFF;stop-opacity:0.15"/>
	</linearGradient>
	<path id="path149_1_" fill="url(#path149_2_)" d="M42.229,34.615c-2.731-0.227-6.327,2.849-6.788,5.799l3.388,3.853
		c1.352-2.064,3.034-4.178,5.109-6.088L42.229,34.615z"/>
</g>
<g>
	<path opacity="0.3" fill="#FFFFFF" enable-background="new    " d="M65.33,52.052c-8.355,0-15.151,6.468-15.85,14.642h-1.454
		c-0.744,0-1.35,0.601-1.356,1.347c0,0.244,0.065,0.486,0.19,0.696l2.331,3.992l2.331,3.995c0.375,0.644,1.202,0.857,1.845,0.483
		c0.197-0.117,0.365-0.283,0.479-0.483l2.335-3.995l2.331-3.992c0.378-0.644,0.168-1.471-0.472-1.853
		c-0.21-0.121-0.451-0.189-0.693-0.189h-1.166c0.535-3.657,3.162-6.596,6.654-7.568c-0.111,0.294-0.187,0.607-0.187,0.938v7.549
		h0.042c-0.104,0.672,0.024,1.346,0.393,1.894h-0.024c0.017,0.02,0.01,0.02,0.024,0.042c0.01,0.01,0.014,0.007,0.024,0.02
		c0.148,0.207,0.306,0.345,0.334,0.375l4.698,4.721c0.834,0.837,2.193,1.086,3.224,0.417c-1.625,1.399-3.713,2.269-6.034,2.269
		c-1.698,0-3.263-0.454-4.636-1.25c-0.644-0.372-1.471-0.155-1.845,0.489c-0.003,0.003-0.007,0.01-0.007,0.014l-1.999,3.473
		c-0.361,0.644-0.142,1.461,0.502,1.829c2.349,1.363,5.081,2.142,7.984,2.142c8.818,0,15.998-7.178,15.998-15.998
		C81.328,59.233,74.147,52.052,65.33,52.052z M65.33,53.405c8.088,0,14.645,6.555,14.645,14.641c0,8.088-6.555,14.645-14.645,14.645
		c-2.662,0-5.166-0.712-7.324-1.956l2.001-3.472c1.567,0.91,3.382,1.435,5.322,1.435c5.883,0,10.65-4.767,10.65-10.65
		c0-5.881-4.767-10.648-10.65-10.648c-5.879,0-10.646,4.768-10.646,10.648h2.662l-2.328,3.995l-2.335,3.995l-2.331-3.995
		l-2.328-3.995h2.662C50.688,59.96,57.243,53.405,65.33,53.405z M65.33,58.73c0.738,0,1.333,0.595,1.333,1.333v7.446l4.326,4.305
		c0.523,0.523,0.592,1.284,0.168,1.708l-0.355,0.355c-0.424,0.424-1.185,0.355-1.708-0.168l-4.698-4.721
		c-0.069-0.065-0.138-0.127-0.187-0.206c-0.269-0.375-0.341-0.81-0.21-1.168v-7.549C64,59.323,64.594,58.73,65.33,58.73z
		 M67.827,59.125c3.923,1.092,6.802,4.644,6.802,8.922c0,2.324-0.874,4.409-2.269,6.034c0.669-1.03,0.424-2.391-0.413-3.224
		l-3.933-3.909v-6.884C68.016,59.731,67.94,59.419,67.827,59.125z"/>
	<path opacity="0.3" fill="#FFFFFF" enable-background="new    " d="M65.33,52.738c-8.217,0-14.89,6.513-15.245,14.642h-2.06
		c-0.368,0-0.669,0.296-0.672,0.664c0,0.117,0.034,0.233,0.092,0.338l2.328,3.992l2.328,3.995c0.18,0.321,0.588,0.44,0.906,0.259
		c0.108-0.059,0.2-0.151,0.259-0.259l2.331-3.995l2.331-3.992c0.183-0.321,0.072-0.726-0.245-0.91
		c-0.103-0.059-0.217-0.092-0.335-0.092h-1.939c0.348-5.204,4.629-9.317,9.92-9.317c5.521,0,9.986,4.464,9.986,9.984
		c0,5.525-4.464,9.986-9.986,9.986c-1.822,0-3.519-0.499-4.99-1.353c-0.318-0.183-0.726-0.076-0.91,0.24
		c-0.004,0.007-0.007,0.01-0.007,0.01l-1.996,3.473c-0.183,0.318-0.079,0.726,0.24,0.91c0.003,0.003,0.007,0.007,0.01,0.007
		c2.249,1.299,4.871,2.039,7.652,2.039c8.449,0,15.31-6.861,15.31-15.31C80.641,59.602,73.779,52.738,65.33,52.738z M65.33,58.062
		c-1.093,0-1.997,0.902-1.997,1.999v7.548h0.02c-0.111,0.519-0.02,1.067,0.293,1.519c0.013,0.02,0.01,0.024,0.02,0.039
		c0.104,0.144,0.21,0.249,0.252,0.293l4.698,4.725c0.733,0.729,1.937,0.896,2.666,0.165l0.351-0.354
		c0.733-0.73,0.565-1.929-0.167-2.659l-4.137-4.12v-7.154C67.328,58.965,66.429,58.062,65.33,58.062z M65.33,53.405
		c8.088,0,14.645,6.555,14.645,14.642c0,8.088-6.555,14.645-14.645,14.645c-2.662,0-5.166-0.713-7.324-1.956l2.001-3.473
		c1.567,0.91,3.382,1.435,5.322,1.435c5.883,0,10.65-4.767,10.65-10.65c0-5.881-4.767-10.648-10.65-10.648
		c-5.879,0-10.646,4.768-10.646,10.648h2.662l-2.327,3.995l-2.335,3.995l-2.331-3.995l-2.328-3.995h2.662
		C50.688,59.96,57.243,53.405,65.33,53.405z M65.33,58.73c0.738,0,1.333,0.595,1.333,1.333v7.446l4.327,4.305
		c0.523,0.523,0.592,1.284,0.168,1.708l-0.355,0.354c-0.424,0.424-1.185,0.355-1.708-0.168l-4.698-4.721
		c-0.068-0.065-0.138-0.127-0.186-0.206c-0.269-0.375-0.341-0.81-0.21-1.168v-7.548C64,59.323,64.594,58.73,65.33,58.73z"/>
	<path opacity="0.3" fill="#669CCC" enable-background="new    " d="M65.33,53.405c-8.087,0-14.642,6.555-14.642,14.642h-2.662
		l2.328,3.995l2.331,3.995l2.335-3.995l2.328-3.995h-2.662c0-5.881,4.767-10.648,10.646-10.648c5.883,0,10.65,4.768,10.65,10.648
		c0,5.883-4.767,10.65-10.65,10.65c-1.94,0-3.755-0.524-5.322-1.435l-2.002,3.473c2.157,1.244,4.661,1.957,7.324,1.957
		c8.088,0,14.645-6.555,14.645-14.645C79.975,59.96,73.418,53.405,65.33,53.405z M65.33,58.73c-0.736,0-1.33,0.595-1.33,1.333v7.549
		c-0.131,0.358-0.059,0.795,0.21,1.168c0.049,0.079,0.117,0.142,0.186,0.206l4.698,4.721c0.523,0.523,1.284,0.592,1.708,0.168
		l0.355-0.355c0.424-0.424,0.355-1.185-0.168-1.708l-4.326-4.305v-7.445C66.663,59.323,66.068,58.73,65.33,58.73z"/>
	<path opacity="0.3" fill="#669CCC" enable-background="new    " d="M65.33,53.405c-8.087,0-14.642,6.555-14.642,14.642h-2.662
		l2.328,3.995l2.331,3.995l2.335-3.995l2.328-3.995h-2.662c0-5.881,4.767-10.648,10.646-10.648c5.883,0,10.65,4.768,10.65,10.648
		c0,5.883-4.767,10.65-10.65,10.65c-1.94,0-3.755-0.524-5.322-1.435l-2.002,3.473c2.157,1.244,4.661,1.957,7.324,1.957
		c8.088,0,14.645-6.555,14.645-14.645C79.975,59.96,73.418,53.405,65.33,53.405z M65.33,54.714c7.377,0,13.335,5.959,13.335,13.332
		c0,7.377-5.959,13.336-13.335,13.336c-1.953,0-3.758-0.516-5.427-1.271l0.686-1.182c1.467,0.641,3.038,1.081,4.74,1.081
		c6.596,0,11.962-5.367,11.962-11.962c0-6.59-5.367-11.957-11.962-11.957c-6.592,0-11.955,5.365-11.955,11.957
		c0.003,0.726,0.585,1.306,1.31,1.313h0.372l-1.187,2.015l-1.185,2.039l-1.184-2.039l-1.185-2.016h0.375
		c0.723-0.007,1.306-0.588,1.31-1.313C51.997,60.672,57.956,54.714,65.33,54.714z M65.33,58.73c-0.736,0-1.33,0.595-1.33,1.333
		v7.549c-0.131,0.358-0.059,0.795,0.21,1.168c0.049,0.079,0.117,0.142,0.186,0.206l4.698,4.721c0.523,0.523,1.284,0.592,1.708,0.168
		l0.355-0.355c0.424-0.424,0.355-1.185-0.168-1.708l-4.326-4.305v-7.445C66.663,59.323,66.068,58.73,65.33,58.73z M65.33,60.039
		c0.034,0,0.024-0.01,0.024,0.024v7.446c0,0.303,0.099,0.595,0.289,0.83l-0.313-0.293c-0.049-0.049-0.079-0.065-0.079-0.062
		c-0.003-0.003-0.003-0.024,0-0.017c0.034-0.117,0.056-0.237,0.059-0.358v-7.549C65.31,60.029,65.3,60.039,65.33,60.039z
		 M65.727,68.445l4.323,4.306l-0.02,0.02C70.029,72.771,65.727,68.445,65.727,68.445z"/>
	<path opacity="0.3" fill="#669CCC" enable-background="new    " d="M65.33,53.405c-8.087,0-14.642,6.555-14.642,14.642h-2.662
		l0.393,0.665h2.269c0-8.087,6.555-14.642,14.642-14.642c7.974,0,14.467,6.379,14.645,14.31c0.003-0.111,0-0.223,0-0.334
		C79.975,59.96,73.418,53.405,65.33,53.405z M65.33,58.73c-0.736,0-1.33,0.595-1.33,1.333v0.664c0-0.736,0.595-1.33,1.33-1.33
		c0.738,0,1.333,0.593,1.333,1.33v-0.664C66.663,59.323,66.068,58.73,65.33,58.73z M66.663,67.508v0.665l4.327,4.304
		c0.193,0.197,0.328,0.434,0.393,0.665c0.134-0.42-0.003-0.94-0.393-1.333C70.989,71.811,66.663,67.508,66.663,67.508z M64,67.611
		c-0.082,0.217-0.069,0.462,0,0.709c0.003-0.014-0.007-0.03,0-0.042V67.611z M54.723,68.047c-0.014,0.223-0.039,0.44-0.039,0.665
		h2.265l0.396-0.665H54.723z M75.96,68.381c-0.18,5.725-4.862,10.315-10.63,10.315c-1.939,0-3.755-0.524-5.322-1.435l-2.002,3.473
		c0.099,0.055,0.2,0.095,0.296,0.144l1.708-2.951c1.567,0.909,3.382,1.435,5.322,1.435c5.883,0,10.65-4.767,10.65-10.65
		C75.979,68.601,75.962,68.494,75.96,68.381z"/>
	<path opacity="0.3" fill="#669CCC" enable-background="new    " d="M65.33,53.405c-8.087,0-14.642,6.555-14.642,14.642h-2.662
		l2.328,3.995l2.331,3.995l2.335-3.995l2.328-3.995h-2.662c0-5.881,4.767-10.648,10.646-10.648c5.883,0,10.65,4.768,10.65,10.648
		c0,5.883-4.767,10.65-10.65,10.65c-1.94,0-3.755-0.524-5.322-1.435l-2.002,3.473c2.157,1.244,4.661,1.957,7.324,1.957
		c8.088,0,14.645-6.555,14.645-14.645C79.975,59.96,73.418,53.405,65.33,53.405z M65.33,54.028c7.747,0,14.021,6.272,14.021,14.018
		c0,7.75-6.273,14.021-14.021,14.021c-2.328,0-4.495-0.62-6.424-1.622l1.372-2.393c1.526,0.775,3.224,1.267,5.053,1.267
		c6.221,0,11.273-5.049,11.273-11.273c0-6.222-5.053-11.273-11.273-11.273s-11.27,5.051-11.27,11.273
		c0,0.345,0.279,0.62,0.624,0.624h1.579l-1.788,3.059l-1.788,3.056l-1.788-3.056l-1.788-3.059h1.581
		c0.341-0.003,0.62-0.279,0.624-0.624C51.312,60.301,57.586,54.028,65.33,54.028z M65.33,58.73c-0.736,0-1.33,0.595-1.33,1.333
		v7.549c-0.131,0.358-0.059,0.795,0.21,1.168c0.049,0.079,0.117,0.142,0.186,0.206l4.698,4.721c0.523,0.523,1.284,0.592,1.708,0.168
		l0.355-0.355c0.424-0.424,0.355-1.185-0.168-1.708l-4.326-4.305v-7.445C66.663,59.323,66.068,58.73,65.33,58.73z M65.33,59.353
		c0.4,0,0.709,0.309,0.709,0.709v7.446c0.003,0.165,0.072,0.318,0.187,0.437l4.326,4.306c0.321,0.321,0.299,0.696,0.165,0.83
		l-0.351,0.355c-0.134,0.131-0.509,0.158-0.834-0.168l-4.701-4.724c-0.082-0.083-0.111-0.114-0.103-0.103c0-0.017,0-0.027,0-0.042
		c-0.165-0.227-0.193-0.434-0.148-0.562c0.03-0.072,0.042-0.151,0.042-0.23v-7.55C64.624,59.661,64.933,59.353,65.33,59.353z"/>
	<path opacity="0.3" fill="#FFFFFF" enable-background="new    " d="M65.33,57.399c-5.879,0-10.646,4.768-10.646,10.648h0.039
		c0.348-5.565,4.953-9.984,10.608-9.984c5.768,0,10.45,4.592,10.63,10.318c0.003-0.111,0.02-0.22,0.02-0.334
		C75.979,62.167,71.213,57.399,65.33,57.399z M64,68.319c-0.111,0.348-0.049,0.762,0.21,1.123c0.049,0.079,0.117,0.142,0.186,0.21
		l4.698,4.721c0.523,0.523,1.284,0.588,1.708,0.165l0.355-0.351c0.262-0.266,0.338-0.658,0.227-1.041
		c-0.045,0.138-0.121,0.266-0.227,0.375l-0.355,0.355c-0.424,0.424-1.185,0.355-1.708-0.168l-4.698-4.721
		c-0.068-0.065-0.138-0.127-0.186-0.206C64.103,68.631,64.046,68.477,64,68.319z M79.975,68.381
		c-0.176,7.932-6.671,14.31-14.645,14.31c-2.548,0-4.94-0.664-7.029-1.812l-0.296,0.523c2.157,1.244,4.661,1.956,7.324,1.956
		c8.088,0,14.645-6.556,14.645-14.645C79.975,68.601,79.978,68.49,79.975,68.381z M48.026,68.714l2.328,3.995l2.331,3.995
		l2.335-3.995l2.327-3.995h-0.396l-1.929,3.328l-2.335,3.995l-2.331-3.995l-1.933-3.328C48.423,68.714,48.026,68.714,48.026,68.714z
		"/>
</g>
</svg>
