<?xml version="1.0" encoding="utf-8"?>
<!-- Generator: Adobe Illustrator 17.0.0, SVG Export Plug-In . SVG Version: 6.00 Build 0)  -->
<!DOCTYPE svg PUBLIC "-//W3C//DTD SVG 1.1//EN" "http://www.w3.org/Graphics/SVG/1.1/DTD/svg11.dtd">
<svg version="1.1" id="图层_1" xmlns="http://www.w3.org/2000/svg" xmlns:xlink="http://www.w3.org/1999/xlink" x="0px" y="0px"
	 width="64px" height="64px" viewBox="32 32 64 64" enable-background="new 32 32 64 64" xml:space="preserve">
<g id="g151" opacity="0.5">
	<path id="path153" opacity="0.08" enable-background="new    " d="M86.149,92.208h-44.25c-4.074,0-7.394-3.194-7.394-7.106v5.435
		c0,3.057,2.597,5.535,5.779,5.535h47.478c3.182,0,5.743-2.478,5.743-5.535v-5.435C93.505,89.015,90.221,92.208,86.149,92.208z"/>
	<path id="path155" opacity="0.1" enable-background="new    " d="M86.112,92.208h-44.25c-4.072,0-7.356-3.135-7.356-7.047v2.843
		c0,3.057,1.402,6.781,7.084,6.781s39.037,0,44.793,0c5.756,0,7.123-3.724,7.123-6.781v-2.843
		C93.505,89.073,90.184,92.208,86.112,92.208z"/>
	<path id="path157" opacity="0.1" enable-background="new    " d="M86.112,92.208h-44.25c-4.072,0-7.356-3.135-7.356-7.047v1.534
		c0,3.058,2.432,6.802,7.084,6.802s39.468,0,44.793,0c5.326,0,7.123-3.744,7.123-6.8v-1.534
		C93.505,89.073,90.184,92.208,86.112,92.208z"/>
	<rect id="rect159" x="41.21" y="92.208" opacity="0.05" enable-background="new    " width="45.591" height="1.288"/>
	<rect id="rect161" x="42.551" y="92.208" opacity="0.05" enable-background="new    " width="41.568" height="1.288"/>
	<rect id="rect163" x="42.551" y="93.496" opacity="0.05" enable-background="new    " width="41.568" height="1.288"/>
	<rect id="rect165" x="45.232" y="93.496" opacity="0.05" enable-background="new    " width="37.546" height="1.288"/>
	<rect id="rect167" x="49.255" y="93.496" opacity="0.05" enable-background="new    " width="29.5" height="1.288"/>
	<rect id="rect169" x="54.619" y="93.496" opacity="0.05" enable-background="new    " width="18.773" height="1.288"/>
	<rect id="rect171" x="45.232" y="92.208" opacity="0.05" enable-background="new    " width="37.546" height="1.288"/>
	<rect id="rect173" x="47.914" y="92.208" opacity="0.05" enable-background="new    " width="32.182" height="1.288"/>
	<rect id="rect175" x="49.255" y="92.208" opacity="0.05" enable-background="new    " width="29.5" height="1.288"/>
	<rect id="rect177" x="51.937" y="92.208" opacity="0.05" enable-background="new    " width="24.136" height="1.288"/>
	<rect id="rect179" x="51.937" y="92.208" opacity="0.05" enable-background="new    " width="24.136" height="1.288"/>
</g>
<path fill="#C4DCED" stroke="#9DBCD7" stroke-miterlimit="10" d="M92.972,84.307c0,4.212-3.415,7.627-7.627,7.627h-42.68
	c-4.212,0-7.627-3.415-7.627-7.627v-42.68c0-4.212,3.415-7.627,7.627-7.627h42.681c4.212,0,7.627,3.415,7.627,7.627V84.307z"/>
<path opacity="0.5" fill="none" stroke="#FFFFFF" stroke-miterlimit="10" enable-background="new    " d="M91.956,84.307
	c0,3.651-2.96,6.611-6.611,6.611h-42.68c-3.651,0-6.611-2.96-6.611-6.611v-42.68c0-3.651,2.96-6.611,6.611-6.611h42.68
	c3.651,0,6.611,2.96,6.611,6.611V84.307z"/>
<path opacity="0.08" fill="none" stroke="#000000" stroke-miterlimit="10" enable-background="new    " d="M93.189,50.997
	c0,0,0-2.563-2.531-2.563c-7.347,0-30.807,0.004-32.907,0.004c-2.552,0-2.531-2.526-2.531-2.526s0-2.543-2.531-2.543
	c-4.431,0-13.306,0-15.188,0c-2.492,0-2.531,2.451-2.531,2.528"/>
<path opacity="0.05" fill="none" stroke="#000000" stroke-miterlimit="10" enable-background="new    " d="M93.178,50.488
	c0,0,0-2.563-2.531-2.563c-7.347,0-30.807,0.004-32.907,0.004c-2.552,0-2.531-2.526-2.531-2.526s0-2.543-2.531-2.543
	c-4.431,0-13.306,0-15.188,0c-2.492,0-2.531,2.451-2.531,2.528"/>
<path opacity="0.03" fill="none" stroke="#000000" stroke-miterlimit="10" enable-background="new    " d="M93.178,50.002
	c0,0,0-2.563-2.531-2.563c-7.347,0-30.807,0.004-32.907,0.004c-2.552,0-2.531-2.526-2.531-2.526s0-2.543-2.531-2.543
	c-4.431,0-13.306,0-15.188,0c-2.492,0-2.531,2.451-2.531,2.528"/>
<linearGradient id="SVGID_1_" gradientUnits="userSpaceOnUse" x1="886.0052" y1="-989.9344" x2="886.0052" y2="-942.1639" gradientTransform="matrix(1 0 0 -1 -822 -898)">
	<stop  offset="0" style="stop-color:#D1E0ED"/>
	<stop  offset="1" style="stop-color:#E4EEFB"/>
</linearGradient>
<path fill="url(#SVGID_1_)" stroke="#9DBCD7" stroke-miterlimit="10" d="M42.648,91.934h42.84c4.212,0,7.484-3.502,7.484-7.714
	V50.019c0-0.6-0.897-1.166-2.092-1.166c-7.379,0-30.905,0.004-33.014,0.004c-2.563,0-2.524-2.338-2.524-2.338
	s0.018-2.355-2.525-2.355c-4.45,0-13.364,0-15.254,0c-2.503,0-2.526,2.075-2.526,2.153v37.903
	C35.038,88.432,38.436,91.934,42.648,91.934z"/>
<path fill="none" stroke="#FFFFFF" stroke-miterlimit="10" d="M42.648,90.918c-3.636,0-6.594-3.004-6.594-6.698V46.317
	c0-0.048,0.008-0.454,0.309-0.756c0.252-0.253,0.656-0.381,1.2-0.381h15.254c0.602,0,0.908,0.072,1.091,0.256
	c0.405,0.407,0.423,1.028,0.423,1.035c-0.002,0.133,0.006,1.459,0.988,2.456c0.626,0.635,1.484,0.957,2.551,0.957
	c0,0,28.2-0.011,33.008-0.011c0.635,0,0.987,0.218,1.077,0.323v34.024c0,3.694-2.901,6.698-6.468,6.698h-42.84V90.918z"/>
<radialGradient id="SVGID_2_" cx="1168.1434" cy="819.2701" r="46.4534" gradientTransform="matrix(0.0197 0.9998 0.9109 -0.018 -707.3493 -1098.2991)" gradientUnits="userSpaceOnUse">
	<stop  offset="0" style="stop-color:#FFFFFF;stop-opacity:0.6"/>
	<stop  offset="0.3783" style="stop-color:#FAFCFE;stop-opacity:0.4487"/>
	<stop  offset="0.829" style="stop-color:#EBF3FC;stop-opacity:0.2684"/>
	<stop  offset="1" style="stop-color:#E4EEFB;stop-opacity:0.2"/>
</radialGradient>
<path fill="url(#SVGID_2_)" d="M42.648,90.918c-3.636,0-6.594-3.004-6.594-6.698V46.317c0-0.048,0.008-0.454,0.309-0.756
	c0.252-0.253,0.656-0.381,1.2-0.381h15.254c0.602,0,0.908,0.072,1.091,0.256c0.405,0.407,0.423,1.028,0.423,1.035
	c-0.002,0.133,0.006,1.459,0.988,2.456c0.626,0.635,1.484,0.957,2.551,0.957c0,0,28.2-0.011,33.008-0.011
	c0.635,0,0.987,0.218,1.077,0.323v34.024c0,3.694-2.901,6.698-6.468,6.698h-42.84V90.918z"/>
<g id="g27_1_">
	
		<linearGradient id="path36_2_" gradientUnits="userSpaceOnUse" x1="1270.9509" y1="-1749.3695" x2="1278.9996" y2="-1763.3102" gradientTransform="matrix(1 0 0 -1 -1234 -1716)">
		<stop  offset="0" style="stop-color:#FFFFFF"/>
		<stop  offset="0.5" style="stop-color:#FFFFFF;stop-opacity:0.6"/>
		<stop  offset="1" style="stop-color:#FFFFFF;stop-opacity:0.15"/>
	</linearGradient>
	<path id="path36_1_" fill="url(#path36_2_)" d="M43.587,49.679c0.9-1.863,1.998-3.608,3.258-5.221l-2.292-5.027
		c-1.958,1.851-3.547,3.89-4.816,5.871L43.587,49.679z"/>
	
		<linearGradient id="path45_2_" gradientUnits="userSpaceOnUse" x1="1278.2488" y1="-1747.282" x2="1283.5162" y2="-1756.4056" gradientTransform="matrix(1 0 0 -1 -1234 -1716)">
		<stop  offset="0" style="stop-color:#FFFFFF"/>
		<stop  offset="0.5" style="stop-color:#FFFFFF;stop-opacity:0.6"/>
		<stop  offset="1" style="stop-color:#FFFFFF;stop-opacity:0.15"/>
	</linearGradient>
	<path id="path45_1_" fill="url(#path45_2_)" d="M43.826,34.599l1.198,2.626c1.153-0.957,2.417-1.287,3.795-2.626H43.826z"/>
	
		<linearGradient id="path54_2_" gradientUnits="userSpaceOnUse" x1="1279.9055" y1="-1745.5494" x2="1286.3414" y2="-1756.6967" gradientTransform="matrix(1 0 0 -1 -1234 -1716)">
		<stop  offset="0" style="stop-color:#FFFFFF"/>
		<stop  offset="0.5" style="stop-color:#FFFFFF;stop-opacity:0.6"/>
		<stop  offset="1" style="stop-color:#FFFFFF;stop-opacity:0.15"/>
	</linearGradient>
	<path id="path54_1_" fill="url(#path54_2_)" d="M52.818,34.599H51.87c-2.391,1.339-4.481,2.361-6.274,3.888l2.197,4.821
		c1.877-2.168,4.055-4.068,6.494-5.603c0.019-0.017,0.032-0.032,0.052-0.049C57.072,35.295,54.358,34.599,52.818,34.599z"/>
	
		<linearGradient id="path63_2_" gradientUnits="userSpaceOnUse" x1="1266.434" y1="-1755.7246" x2="1273.4182" y2="-1767.8217" gradientTransform="matrix(1 0 0 -1 -1234 -1716)">
		<stop  offset="0" style="stop-color:#FFFFFF"/>
		<stop  offset="0.5" style="stop-color:#FFFFFF;stop-opacity:0.6"/>
		<stop  offset="1" style="stop-color:#FFFFFF;stop-opacity:0.15"/>
	</linearGradient>
	<path id="path63_1_" fill="url(#path63_2_)" d="M39.006,46.497c-1.47,2.503-2.431,4.816-3.001,6.397
		c0.675,0.963,1.79,1.595,3.056,1.595c1.567,0,2.905-0.968,3.459-2.336c0.142-0.382,0.315-0.749,0.473-1.125L39.006,46.497z"/>
	
		<linearGradient id="path72_2_" gradientUnits="userSpaceOnUse" x1="1266.12" y1="-1756.2202" x2="1273.8602" y2="-1769.627" gradientTransform="matrix(1 0 0 -1 -1234 -1716)">
		<stop  offset="0" style="stop-color:#FFFFFF"/>
		<stop  offset="0.5" style="stop-color:#FFFFFF;stop-opacity:0.6"/>
		<stop  offset="1" style="stop-color:#FFFFFF;stop-opacity:0.15"/>
	</linearGradient>
	<path id="path72_1_" fill="url(#path72_2_)" d="M35.357,42.345l-0.029,8.405c0,0,0,0.003,0,0.006c0,0.052,0.013,0.102,0.016,0.154
		c0.639-1.555,1.531-3.455,2.741-5.463L35.357,42.345z"/>
	
		<linearGradient id="path149_2_" gradientUnits="userSpaceOnUse" x1="1271.9735" y1="-1752.0216" x2="1279.2416" y2="-1764.6104" gradientTransform="matrix(1 0 0 -1 -1234 -1716)">
		<stop  offset="0" style="stop-color:#FFFFFF"/>
		<stop  offset="0.5" style="stop-color:#FFFFFF;stop-opacity:0.6"/>
		<stop  offset="1" style="stop-color:#FFFFFF;stop-opacity:0.15"/>
	</linearGradient>
	<path id="path149_1_" fill="url(#path149_2_)" d="M42.229,34.615c-2.731-0.227-6.327,2.849-6.788,5.799l3.388,3.853
		c1.352-2.064,3.034-4.178,5.109-6.088L42.229,34.615z"/>
</g>
<g>
	<path opacity="0.3" fill="#FFFFFF" enable-background="new    " d="M56.887,51.971c-0.74,0.056-1.313,0.675-1.313,1.418v15.878
		c-1.106-0.118-2.267-0.096-3.464,0.228c-1.801,0.487-3.319,1.411-4.381,2.609s-1.697,2.785-1.273,4.383
		c0.421,1.593,1.758,2.68,3.274,3.191c1.515,0.511,3.307,0.553,5.11,0.062c2.825-0.764,5.025-2.584,5.573-4.965
		c0.132-0.221,0.207-0.47,0.207-0.732V62.737l8.262,1.045v9.536c-1.109-0.128-2.279-0.118-3.486,0.207
		c-1.799,0.484-3.321,1.406-4.38,2.608c-1.062,1.202-1.696,2.805-1.275,4.398c0.426,1.597,1.76,2.68,3.277,3.195
		c1.517,0.514,3.307,0.553,5.111,0.066c2.832-0.767,5.024-2.601,5.568-4.988c0.138-0.221,0.207-0.47,0.211-0.732V55.476
		c0.003-0.715-0.524-1.323-1.23-1.418l-15.499-2.087C57.082,51.961,56.983,51.961,56.887,51.971z M56.992,53.389l15.502,2.087V78.07
		h-0.027c-0.175,1.794-2.069,3.624-4.712,4.339c-3.115,0.843-6.086-0.165-6.637-2.232c-0.55-2.065,1.54-4.435,4.653-5.278
		c1.667-0.452,3.294-0.359,4.53,0.125V62.506l-11.1-1.397v12.935h-0.02c-0.175,1.797-2.072,3.603-4.715,4.319
		c-3.113,0.84-6.087-0.165-6.635-2.232c-0.548-2.069,1.537-4.415,4.651-5.258c1.667-0.452,3.27-0.379,4.51,0.104V53.389H56.992z
		 M59.201,57.624v1.607l11.1,1.397V59.21L59.201,57.624z"/>
	<path opacity="0.3" fill="#FFFFFF" enable-background="new    " d="M56.864,52.599c-0.388,0.059-0.672,0.398-0.666,0.791v16.648
		c-1.207-0.253-2.53-0.293-3.921,0.083c-1.693,0.458-3.125,1.311-4.093,2.399c-0.961,1.093-1.462,2.476-1.102,3.824
		c0.356,1.34,1.482,2.287,2.856,2.753c1.377,0.464,3.043,0.477,4.737,0.02c2.726-0.738,4.796-2.515,5.196-4.653
		c0.052-0.089,0.089-0.187,0.103-0.293c0.003-0.014,0.003-0.027,0-0.039c0.01-0.03,0.02-0.056,0.024-0.086V61.986l9.511,1.209
		v10.873c-1.205-0.26-2.542-0.3-3.939,0.083c-1.696,0.457-3.125,1.326-4.09,2.421s-1.462,2.473-1.106,3.817
		c0.356,1.344,1.483,2.291,2.857,2.756c1.376,0.464,3.041,0.477,4.74,0.02c2.729-0.738,4.791-2.535,5.192-4.671
		c0.052-0.089,0.086-0.19,0.104-0.293c0-0.014,0-0.027,0-0.039c0.007-0.03,0.014-0.056,0.02-0.086V55.476
		c-0.007-0.393-0.3-0.722-0.688-0.772l-15.5-2.087c-0.047-0.012-0.098-0.017-0.146-0.02C56.919,52.595,56.894,52.595,56.864,52.599z
		 M56.992,53.389l15.502,2.087V78.07h-0.027c-0.175,1.794-2.069,3.624-4.712,4.339c-3.115,0.843-6.086-0.165-6.637-2.232
		c-0.55-2.065,1.54-4.435,4.653-5.278c1.667-0.452,3.294-0.359,4.53,0.125V62.506l-11.1-1.397v12.935h-0.02
		c-0.175,1.797-2.072,3.603-4.715,4.319c-3.113,0.84-6.087-0.165-6.635-2.232c-0.548-2.069,1.537-4.415,4.651-5.258
		c1.667-0.452,3.27-0.379,4.51,0.104V53.389H56.992z M59.201,57.624v1.607l11.1,1.397V59.21L59.201,57.624z M59.995,58.522
		l1.253,0.187l-1.253-0.167V58.522z"/>
	<path opacity="0.3" fill="#669CCC" enable-background="new    " d="M56.995,53.394v17.591c-1.236-0.484-2.851-0.566-4.514-0.118
		c-3.113,0.843-5.202,3.21-4.653,5.275c0.546,2.065,3.515,3.061,6.632,2.222c2.64-0.718,4.538-2.532,4.713-4.326h0.018V61.101
		L70.295,62.5v12.525c-1.23-0.484-2.847-0.566-4.513-0.115c-3.113,0.84-5.202,3.206-4.653,5.271c0.548,2.069,3.517,3.061,6.63,2.222
		c2.647-0.715,4.54-2.529,4.715-4.326h0.024v-22.6L56.995,53.394L56.995,53.394z M59.191,57.625l11.104,1.59v1.421l-11.104-1.399
		V57.625z"/>
	<path opacity="0.3" fill="#669CCC" enable-background="new    " d="M56.992,53.389v17.59c-1.237-0.484-2.842-0.556-4.51-0.104
		c-3.113,0.843-5.199,3.191-4.651,5.258c0.546,2.069,3.521,3.071,6.635,2.232c2.643-0.718,4.538-2.522,4.715-4.319h0.02V61.11
		l11.1,1.397v12.519c-1.234-0.484-2.861-0.576-4.53-0.125c-3.112,0.843-5.202,3.213-4.653,5.278c0.55,2.069,3.521,3.075,6.637,2.232
		c2.643-0.715,4.536-2.545,4.712-4.339h0.027V55.476L56.992,53.389z M58.158,54.704l13.166,1.773v2.19
		c-0.175-0.325-0.49-0.55-0.857-0.605L59.37,56.477c-0.496-0.072-0.981,0.179-1.212,0.625V54.704z M59.201,57.624l11.1,1.586v1.418
		l-11.1-1.397C59.201,59.23,59.201,57.624,59.201,57.624z M58.158,59.733c0.083,0.172,0.204,0.324,0.356,0.438
		c-0.148,0.108-0.27,0.251-0.356,0.418V59.733z M71.322,61.191v0.772c-0.079-0.155-0.194-0.292-0.332-0.396
		C71.125,61.467,71.241,61.341,71.322,61.191z M58.033,71.499v2.318c-0.007,0.042-0.014,0.083-0.02,0.121
		c-0.103,1.064-1.558,2.677-3.859,3.299c-1.354,0.366-2.648,0.317-3.589,0c-0.939-0.318-1.455-0.822-1.607-1.399
		c-0.152-0.573,0.049-1.275,0.708-2.021c0.662-0.747,1.775-1.448,3.13-1.817c1.451-0.391,2.825-0.311,3.776,0.062
		C57.133,72.276,57.762,72.032,58.033,71.499z M71.322,75.587v2.255c-0.007,0.039-0.017,0.083-0.02,0.121
		c-0.103,1.064-1.561,2.697-3.859,3.319c-1.355,0.366-2.65,0.317-3.591,0c-0.943-0.317-1.451-0.826-1.603-1.399
		c-0.155-0.57,0.044-1.291,0.708-2.041c0.664-0.754,1.775-1.451,3.129-1.817c1.44-0.388,2.839-0.29,3.799,0.083
		C70.427,76.319,71.039,76.098,71.322,75.587z"/>
	<path opacity="0.3" fill="#669CCC" enable-background="new    " d="M56.992,53.389v0.668l15.502,2.085v-0.668L56.992,53.389z
		 M59.201,59.23V59.9l11.1,1.396v-0.668L59.201,59.23z M54.319,70.584c-0.593,0.027-1.211,0.121-1.838,0.29
		c-2.961,0.801-4.996,2.977-4.713,4.965c0.19-1.789,2.083-3.585,4.714-4.297c1.667-0.452,3.27-0.379,4.51,0.103v-0.666
		C56.217,70.675,55.307,70.537,54.319,70.584z M68.192,74.606c-0.76-0.024-1.583,0.066-2.419,0.293
		c-2.916,0.791-4.926,2.915-4.715,4.882c0.253-1.755,2.136-3.517,4.715-4.214c1.667-0.452,3.294-0.359,4.53,0.125v-0.668
		C69.683,74.785,68.962,74.636,68.192,74.606z"/>
	<path opacity="0.3" fill="#669CCC" enable-background="new    " d="M56.992,53.389v17.59c-1.237-0.484-2.842-0.556-4.51-0.104
		c-3.113,0.843-5.199,3.191-4.651,5.258c0.546,2.069,3.521,3.071,6.635,2.232c2.643-0.718,4.538-2.522,4.715-4.319h0.02V61.11
		l11.1,1.397v12.519c-1.234-0.484-2.861-0.576-4.53-0.125c-3.112,0.843-5.202,3.213-4.653,5.278c0.55,2.069,3.521,3.075,6.637,2.232
		c2.643-0.715,4.536-2.545,4.712-4.339h0.027V55.476L56.992,53.389z M57.512,53.994l14.459,1.94v21.991
		c-0.01,0.034-0.02,0.069-0.024,0.103c-0.142,1.462-1.851,3.206-4.336,3.882c-1.466,0.398-2.883,0.342-3.968-0.024
		c-1.082-0.362-1.802-1.011-2.021-1.83c-0.218-0.826,0.096-1.765,0.857-2.633c0.762-0.863,1.979-1.626,3.441-2.021
		c1.566-0.425,3.087-0.311,4.196,0.128c0.273,0.096,0.576-0.046,0.678-0.317c0.02-0.059,0.03-0.125,0.03-0.187V62.507
		c0-0.265-0.197-0.489-0.457-0.522l-11.1-1.397c-0.29-0.032-0.548,0.179-0.58,0.469c-0.003,0.017-0.003,0.036-0.003,0.052v12.79
		c-0.01,0.036-0.02,0.069-0.024,0.104c-0.142,1.465-1.848,3.185-4.338,3.859c-1.463,0.398-2.881,0.342-3.963-0.02
		c-1.084-0.366-1.804-1.015-2.025-1.841c-0.218-0.822,0.096-1.748,0.857-2.605c0.758-0.857,1.976-1.63,3.442-2.025
		c1.568-0.425,3.063-0.329,4.171,0.104c0.275,0.103,0.578-0.039,0.678-0.317c0.024-0.059,0.034-0.121,0.034-0.184V53.994H57.512z
		 M59.119,57.102c-0.254,0.044-0.438,0.265-0.438,0.521v1.607c0,0.265,0.196,0.489,0.457,0.522l11.1,1.397
		c0.29,0.032,0.55-0.179,0.58-0.469c0.003-0.017,0.003-0.036,0.003-0.054v-1.418c0-0.256-0.18-0.477-0.438-0.521l-11.1-1.586
		C59.232,57.095,59.173,57.095,59.119,57.102z M59.201,57.624l11.1,1.586v1.418l-11.1-1.397
		C59.201,59.23,59.201,57.624,59.201,57.624z"/>
	<path opacity="0.3" fill="#FFFFFF" enable-background="new    " d="M59.201,57.624v0.668l11.1,1.586V59.21L59.201,57.624z
		 M59.201,61.11v0.668l11.1,1.399v-0.668L59.201,61.11z M59.181,74.043c-0.175,1.797-2.072,3.603-4.715,4.319
		c-3.113,0.84-6.087-0.165-6.635-2.232c-0.027-0.103-0.049-0.19-0.062-0.293c-0.036,0.329-0.024,0.642,0.062,0.958
		c0.546,2.069,3.521,3.078,6.635,2.235c2.643-0.718,4.538-2.522,4.715-4.319h0.02v-0.668H59.181z M72.468,78.07
		c-0.175,1.794-2.069,3.624-4.712,4.339c-3.115,0.843-6.086-0.165-6.637-2.232c-0.03-0.115-0.046-0.238-0.062-0.352
		c-0.044,0.346-0.029,0.681,0.062,1.018c0.55,2.069,3.521,3.078,6.637,2.235c2.643-0.715,4.536-2.545,4.712-4.336h0.027v-0.671
		h-0.027V78.07z"/>
</g>
</svg>
