<?xml version="1.0" encoding="utf-8"?>
<!-- Generator: Adobe Illustrator 17.0.0, SVG Export Plug-In . SVG Version: 6.00 Build 0)  -->
<!DOCTYPE svg PUBLIC "-//W3C//DTD SVG 1.1//EN" "http://www.w3.org/Graphics/SVG/1.1/DTD/svg11.dtd">
<svg version="1.1" id="图层_1" xmlns="http://www.w3.org/2000/svg" xmlns:xlink="http://www.w3.org/1999/xlink" x="0px" y="0px"
	 width="64px" height="64px" viewBox="32 32 64 64" enable-background="new 32 32 64 64" xml:space="preserve">
<g id="g151" opacity="0.5">
	<path id="path153" opacity="0.08" enable-background="new    " d="M86.149,92.208h-44.25c-4.074,0-7.394-3.194-7.394-7.106v5.435
		c0,3.057,2.597,5.535,5.779,5.535h47.478c3.182,0,5.743-2.478,5.743-5.535v-5.435C93.505,89.015,90.221,92.208,86.149,92.208z"/>
	<path id="path155" opacity="0.1" enable-background="new    " d="M86.112,92.208h-44.25c-4.072,0-7.356-3.135-7.356-7.047v2.843
		c0,3.057,1.402,6.781,7.084,6.781s39.037,0,44.793,0c5.756,0,7.123-3.724,7.123-6.781v-2.843
		C93.505,89.073,90.184,92.208,86.112,92.208z"/>
	<path id="path157" opacity="0.1" enable-background="new    " d="M86.112,92.208h-44.25c-4.072,0-7.356-3.135-7.356-7.047v1.534
		c0,3.058,2.432,6.802,7.084,6.802s39.468,0,44.793,0c5.326,0,7.123-3.744,7.123-6.8v-1.534
		C93.505,89.073,90.184,92.208,86.112,92.208z"/>
	<rect id="rect159" x="41.21" y="92.208" opacity="0.05" enable-background="new    " width="45.591" height="1.288"/>
	<rect id="rect161" x="42.551" y="92.208" opacity="0.05" enable-background="new    " width="41.568" height="1.288"/>
	<rect id="rect163" x="42.551" y="93.496" opacity="0.05" enable-background="new    " width="41.568" height="1.288"/>
	<rect id="rect165" x="45.232" y="93.496" opacity="0.05" enable-background="new    " width="37.546" height="1.288"/>
	<rect id="rect167" x="49.255" y="93.496" opacity="0.05" enable-background="new    " width="29.5" height="1.288"/>
	<rect id="rect169" x="54.619" y="93.496" opacity="0.05" enable-background="new    " width="18.773" height="1.288"/>
	<rect id="rect171" x="45.232" y="92.208" opacity="0.05" enable-background="new    " width="37.546" height="1.288"/>
	<rect id="rect173" x="47.914" y="92.208" opacity="0.05" enable-background="new    " width="32.182" height="1.288"/>
	<rect id="rect175" x="49.255" y="92.208" opacity="0.05" enable-background="new    " width="29.5" height="1.288"/>
	<rect id="rect177" x="51.937" y="92.208" opacity="0.05" enable-background="new    " width="24.136" height="1.288"/>
	<rect id="rect179" x="51.937" y="92.208" opacity="0.05" enable-background="new    " width="24.136" height="1.288"/>
</g>
<path fill="#C4DCED" stroke="#9DBCD7" stroke-miterlimit="10" d="M92.972,84.307c0,4.212-3.415,7.627-7.627,7.627h-42.68
	c-4.212,0-7.627-3.415-7.627-7.627v-42.68c0-4.212,3.415-7.627,7.627-7.627h42.681c4.212,0,7.627,3.415,7.627,7.627V84.307z"/>
<path opacity="0.5" fill="none" stroke="#FFFFFF" stroke-miterlimit="10" enable-background="new    " d="M91.956,84.307
	c0,3.651-2.96,6.611-6.611,6.611h-42.68c-3.651,0-6.611-2.96-6.611-6.611v-42.68c0-3.651,2.96-6.611,6.611-6.611h42.68
	c3.651,0,6.611,2.96,6.611,6.611V84.307z"/>
<path opacity="0.08" fill="none" stroke="#000000" stroke-miterlimit="10" enable-background="new    " d="M93.189,50.997
	c0,0,0-2.563-2.531-2.563c-7.347,0-30.807,0.004-32.907,0.004c-2.552,0-2.531-2.526-2.531-2.526s0-2.543-2.531-2.543
	c-4.431,0-13.306,0-15.188,0c-2.492,0-2.531,2.451-2.531,2.528"/>
<path opacity="0.05" fill="none" stroke="#000000" stroke-miterlimit="10" enable-background="new    " d="M93.178,50.488
	c0,0,0-2.563-2.531-2.563c-7.347,0-30.807,0.004-32.907,0.004c-2.552,0-2.531-2.526-2.531-2.526s0-2.543-2.531-2.543
	c-4.431,0-13.306,0-15.188,0c-2.492,0-2.531,2.451-2.531,2.528"/>
<path opacity="0.03" fill="none" stroke="#000000" stroke-miterlimit="10" enable-background="new    " d="M93.178,50.002
	c0,0,0-2.563-2.531-2.563c-7.347,0-30.807,0.004-32.907,0.004c-2.552,0-2.531-2.526-2.531-2.526s0-2.543-2.531-2.543
	c-4.431,0-13.306,0-15.188,0c-2.492,0-2.531,2.451-2.531,2.528"/>
<linearGradient id="SVGID_1_" gradientUnits="userSpaceOnUse" x1="886.0052" y1="-989.9344" x2="886.0052" y2="-942.1639" gradientTransform="matrix(1 0 0 -1 -822 -898)">
	<stop  offset="0" style="stop-color:#D1E0ED"/>
	<stop  offset="1" style="stop-color:#E4EEFB"/>
</linearGradient>
<path fill="url(#SVGID_1_)" stroke="#9DBCD7" stroke-miterlimit="10" d="M42.648,91.934h42.84c4.212,0,7.484-3.502,7.484-7.714
	V50.019c0-0.6-0.897-1.166-2.092-1.166c-7.379,0-30.905,0.004-33.014,0.004c-2.563,0-2.524-2.338-2.524-2.338
	s0.018-2.355-2.525-2.355c-4.45,0-13.364,0-15.254,0c-2.503,0-2.526,2.075-2.526,2.153v37.903
	C35.038,88.432,38.436,91.934,42.648,91.934z"/>
<path fill="none" stroke="#FFFFFF" stroke-miterlimit="10" d="M42.648,90.918c-3.636,0-6.594-3.004-6.594-6.698V46.317
	c0-0.048,0.008-0.454,0.309-0.756c0.252-0.253,0.656-0.381,1.2-0.381h15.254c0.602,0,0.908,0.072,1.091,0.256
	c0.405,0.407,0.423,1.028,0.423,1.035c-0.002,0.133,0.006,1.459,0.988,2.456c0.626,0.635,1.484,0.957,2.551,0.957
	c0,0,28.2-0.011,33.008-0.011c0.635,0,0.987,0.218,1.077,0.323v34.024c0,3.694-2.901,6.698-6.468,6.698h-42.84V90.918z"/>
<radialGradient id="SVGID_2_" cx="1168.1434" cy="819.2701" r="46.4534" gradientTransform="matrix(0.0197 0.9998 0.9109 -0.018 -707.3493 -1098.2991)" gradientUnits="userSpaceOnUse">
	<stop  offset="0" style="stop-color:#FFFFFF;stop-opacity:0.6"/>
	<stop  offset="0.3783" style="stop-color:#FAFCFE;stop-opacity:0.4487"/>
	<stop  offset="0.829" style="stop-color:#EBF3FC;stop-opacity:0.2684"/>
	<stop  offset="1" style="stop-color:#E4EEFB;stop-opacity:0.2"/>
</radialGradient>
<path fill="url(#SVGID_2_)" d="M42.648,90.918c-3.636,0-6.594-3.004-6.594-6.698V46.317c0-0.048,0.008-0.454,0.309-0.756
	c0.252-0.253,0.656-0.381,1.2-0.381h15.254c0.602,0,0.908,0.072,1.091,0.256c0.405,0.407,0.423,1.028,0.423,1.035
	c-0.002,0.133,0.006,1.459,0.988,2.456c0.626,0.635,1.484,0.957,2.551,0.957c0,0,28.2-0.011,33.008-0.011
	c0.635,0,0.987,0.218,1.077,0.323v34.024c0,3.694-2.901,6.698-6.468,6.698h-42.84V90.918z"/>
<g id="g27_1_">
	
		<linearGradient id="path36_2_" gradientUnits="userSpaceOnUse" x1="1270.9509" y1="-1749.3695" x2="1278.9996" y2="-1763.3102" gradientTransform="matrix(1 0 0 -1 -1234 -1716)">
		<stop  offset="0" style="stop-color:#FFFFFF"/>
		<stop  offset="0.5" style="stop-color:#FFFFFF;stop-opacity:0.6"/>
		<stop  offset="1" style="stop-color:#FFFFFF;stop-opacity:0.15"/>
	</linearGradient>
	<path id="path36_1_" fill="url(#path36_2_)" d="M43.587,49.679c0.9-1.863,1.998-3.608,3.258-5.221l-2.292-5.027
		c-1.958,1.851-3.547,3.89-4.816,5.871L43.587,49.679z"/>
	
		<linearGradient id="path45_2_" gradientUnits="userSpaceOnUse" x1="1278.2488" y1="-1747.282" x2="1283.5162" y2="-1756.4056" gradientTransform="matrix(1 0 0 -1 -1234 -1716)">
		<stop  offset="0" style="stop-color:#FFFFFF"/>
		<stop  offset="0.5" style="stop-color:#FFFFFF;stop-opacity:0.6"/>
		<stop  offset="1" style="stop-color:#FFFFFF;stop-opacity:0.15"/>
	</linearGradient>
	<path id="path45_1_" fill="url(#path45_2_)" d="M43.826,34.599l1.198,2.626c1.153-0.957,2.417-1.287,3.795-2.626H43.826z"/>
	
		<linearGradient id="path54_2_" gradientUnits="userSpaceOnUse" x1="1279.9055" y1="-1745.5494" x2="1286.3414" y2="-1756.6967" gradientTransform="matrix(1 0 0 -1 -1234 -1716)">
		<stop  offset="0" style="stop-color:#FFFFFF"/>
		<stop  offset="0.5" style="stop-color:#FFFFFF;stop-opacity:0.6"/>
		<stop  offset="1" style="stop-color:#FFFFFF;stop-opacity:0.15"/>
	</linearGradient>
	<path id="path54_1_" fill="url(#path54_2_)" d="M52.818,34.599H51.87c-2.391,1.339-4.481,2.361-6.274,3.888l2.197,4.821
		c1.877-2.168,4.055-4.068,6.494-5.603c0.019-0.017,0.032-0.032,0.052-0.049C57.072,35.295,54.358,34.599,52.818,34.599z"/>
	
		<linearGradient id="path63_2_" gradientUnits="userSpaceOnUse" x1="1266.434" y1="-1755.7246" x2="1273.4182" y2="-1767.8217" gradientTransform="matrix(1 0 0 -1 -1234 -1716)">
		<stop  offset="0" style="stop-color:#FFFFFF"/>
		<stop  offset="0.5" style="stop-color:#FFFFFF;stop-opacity:0.6"/>
		<stop  offset="1" style="stop-color:#FFFFFF;stop-opacity:0.15"/>
	</linearGradient>
	<path id="path63_1_" fill="url(#path63_2_)" d="M39.006,46.497c-1.47,2.503-2.431,4.816-3.001,6.397
		c0.675,0.963,1.79,1.595,3.056,1.595c1.567,0,2.905-0.968,3.459-2.336c0.142-0.382,0.315-0.749,0.473-1.125L39.006,46.497z"/>
	
		<linearGradient id="path72_2_" gradientUnits="userSpaceOnUse" x1="1266.12" y1="-1756.2202" x2="1273.8602" y2="-1769.627" gradientTransform="matrix(1 0 0 -1 -1234 -1716)">
		<stop  offset="0" style="stop-color:#FFFFFF"/>
		<stop  offset="0.5" style="stop-color:#FFFFFF;stop-opacity:0.6"/>
		<stop  offset="1" style="stop-color:#FFFFFF;stop-opacity:0.15"/>
	</linearGradient>
	<path id="path72_1_" fill="url(#path72_2_)" d="M35.357,42.345l-0.029,8.405c0,0,0,0.003,0,0.006c0,0.052,0.013,0.102,0.016,0.154
		c0.639-1.555,1.531-3.455,2.741-5.463L35.357,42.345z"/>
	
		<linearGradient id="path149_2_" gradientUnits="userSpaceOnUse" x1="1271.9735" y1="-1752.0216" x2="1279.2416" y2="-1764.6104" gradientTransform="matrix(1 0 0 -1 -1234 -1716)">
		<stop  offset="0" style="stop-color:#FFFFFF"/>
		<stop  offset="0.5" style="stop-color:#FFFFFF;stop-opacity:0.6"/>
		<stop  offset="1" style="stop-color:#FFFFFF;stop-opacity:0.15"/>
	</linearGradient>
	<path id="path149_1_" fill="url(#path149_2_)" d="M42.229,34.615c-2.731-0.227-6.327,2.849-6.788,5.799l3.388,3.853
		c1.352-2.064,3.034-4.178,5.109-6.088L42.229,34.615z"/>
</g>
<g>
	<path opacity="0.3" fill="#FFFFFF" enable-background="new    " d="M53.104,86.286c-3.248,0-5.891-2.643-5.891-5.891V58.602
		c0-3.248,2.643-5.891,5.891-5.891h21.793c3.248,0,5.891,2.643,5.891,5.891v21.795c0,3.248-2.643,5.891-5.891,5.891H53.104V86.286z
		 M74.897,82.838c1.346,0,2.442-1.095,2.442-2.44V59.341l-1.022,0.184c-0.072,0.013-1.78,0.316-3.838,0.316
		c-0.214,0-0.43-0.004-0.649-0.009c0.022,0-2.27,0.121-4.119,0.683c0.24,0.081,0.384,0.186,0.494,0.338
		c0.03,0.039,0.065,0.117,0.109,0.232l0.217-0.188c7.74,6.737,2.899,13.844,2.853,13.914c-2.472,3.467-6.282,6.217-9.306,8.027
		H74.897z M50.66,73.927c1.121,0.432,3.267,1.112,5.865,1.158l0.867,0.019c0.631,0.013,1.236,0.028,1.826,0.028
		c2.838,0,4.948-0.326,7.326-1.995c3.027-2.121,2.689-5.503,2.671-5.644c-0.011-0.592-0.102-1.184-0.232-1.746
		c-0.004,0.837-0.08,1.704-0.275,2.526c-0.022,0.13-0.787,4.063-4.51,5.006c-0.57,0.141-1.145,0.214-1.715,0.214
		c-2.286,0-4.462-1.136-6.64-3.478c-1.711-1.839-4.172-6.873-4.763-12.762c-0.269,0.393-0.421,0.863-0.421,1.351v15.325
		L50.66,73.927L50.66,73.927z M62.09,70.059c0.011,0,0.275,0.089,0.642,0.089c1.138,0,2.131-0.817,2.882-2.362
		c0.03-0.05,0.62-1.128,0.761-3.415c-0.293,1.525-0.886,3.278-2.069,4.51c-0.076,0.087-0.965,1.045-2.027,1.045
		c-0.182,0-0.377-0.028-0.573-0.095C61.825,69.914,61.955,69.99,62.09,70.059L62.09,70.059z M61.901,56.16
		c-0.696,1.292-2.4,4.868-2.278,8.676c0,0.054-0.033,1.722,0.659,3.229c-0.072-0.224-0.133-0.477-0.193-0.757
		c-0.033-0.119-0.917-3.922,3.792-8.313c0.08-0.078,1.585-1.57,3.031-2.836L61.901,56.16L61.901,56.16z"/>
	<path opacity="0.3" fill="#669CCC" enable-background="new    " d="M74.897,53.472H53.104c-2.83,0-5.13,2.296-5.13,5.128v21.795
		c0,2.83,2.298,5.128,5.13,5.128h21.793c2.834,0,5.13-2.296,5.13-5.128V58.602C80.027,55.77,77.731,53.472,74.897,53.472z
		 M78.102,80.395c0,1.767-1.435,3.207-3.205,3.207H59.143c2.741-1.42,8.398-4.716,11.615-9.232c0,0,4.582-6.535-2.727-12.899
		c0,0,1.882,2.953,1.947,5.93c0,0,0.468,3.937-2.994,6.358c-3.457,2.426-6.485,2.16-10.47,2.088
		c-3.186-0.056-5.724-1.022-6.614-1.411V58.6c0-1.275,0.753-2.37,1.834-2.886c0.275,6.418,2.962,11.938,4.67,13.775
		c1.746,1.879,4.321,3.874,7.613,3.044c3.291-0.831,3.951-4.44,3.951-4.44c0.722-3.075-0.323-6.723-0.377-6.801
		c-0.054-0.076-0.551-0.161-0.551-0.161c0.525,4.839-0.735,6.982-0.735,6.982c-1.837,3.796-4.553,2.626-4.553,2.626
		c-3.02-1.537-2.886-5.882-2.886-5.882c-0.148-4.527,2.16-8.721,2.591-9.465h7.626c-1.566,1.066-4.677,4.159-4.677,4.159
		c-4.434,4.133-3.563,7.609-3.563,7.609c0.719,3.647,2.91,1.186,2.91,1.186c2.312-2.404,2.131-7.184,2.131-7.184
		c-0.939,0.154-1.53,0.675-1.53,0.675c-0.109,3.188-1.979,5.167-1.979,5.167c-0.729,0.807-1.247,0.039-1.247,0.039
		c-0.384-0.577,0.38-0.978,0.38-0.978c1.069-0.943,1.388-2.548,1.37-3.151c-0.015-0.603,0.304-0.769,0.304-0.769
		c1.511-1.173,3.024-1.865,3.024-1.865c2.027-1.041,5.648-1.218,5.648-1.218c2.281,0.076,4.328-0.293,4.328-0.293l1.903-0.343
		c0,0.057,0.015,0.113,0.015,0.171v21.797h0.003L78.102,80.395L78.102,80.395z"/>
	<g opacity="0.3">
		<path opacity="0.5" fill="#669CCC" enable-background="new    " d="M76.045,58.023c-0.015,0.002-1.65,0.291-3.567,0.291
			c-0.195,0-0.399-0.002-0.597-0.009c-0.217,0.007-3.872,0.197-6.021,1.299c-0.015,0.007-0.362,0.167-0.886,0.458
			c0.41-0.401,3.15-3.094,4.534-4.037l2.045-1.394H61.016l-0.221,0.38c-0.479,0.82-2.849,5.16-2.693,9.872
			c-0.007,0.15-0.109,4.799,3.302,6.535c0.098,0.045,0.601,0.252,1.327,0.252c1.008,0,2.897-0.419,4.255-3.226
			c0.007-0.009,0.106-0.178,0.236-0.507c-0.065,0.301-0.707,3.176-3.396,3.855c-0.449,0.113-0.898,0.171-1.342,0.171
			c-1.841,0-3.651-0.98-5.525-2.992c-1.646-1.772-4.205-7.222-4.462-13.29l-0.05-1.152l-1.041,0.495
			c-1.381,0.657-2.274,2.06-2.274,3.575v16.338l0.46,0.197c0.978,0.425,3.61,1.414,6.906,1.473l0.86,0.019
			c0.642,0.013,1.259,0.028,1.86,0.028c3.062-0.002,5.507-0.38,8.203-2.274c3.788-2.654,3.335-6.893,3.313-7.072
			c-0.011-0.488-0.065-0.974-0.156-1.446c2.103,4.323-0.312,7.877-0.445,8.066c-3.066,4.302-8.42,7.48-11.342,8.99l-2.784,1.44
			h18.89c2.19,0,3.97-1.78,3.97-3.968v-21.79c0-0.071-0.007-0.139-0.019-0.206l-0.115-0.781l-0.783,0.067L76.045,58.023z
			 M78.102,58.602v21.795c0,1.767-1.435,3.207-3.205,3.207H59.143c2.741-1.42,8.398-4.716,11.615-9.232
			c0,0,4.582-6.535-2.727-12.899c0,0,1.882,2.953,1.947,5.93c0,0,0.468,3.937-2.994,6.358c-3.457,2.426-6.485,2.16-10.47,2.088
			c-3.186-0.056-5.724-1.022-6.614-1.411V58.602c0-1.275,0.753-2.37,1.834-2.886c0.275,6.418,2.962,11.938,4.67,13.775
			c1.746,1.879,4.321,3.874,7.613,3.044c3.291-0.831,3.951-4.44,3.951-4.44c0.722-3.075-0.323-6.723-0.377-6.801
			c-0.054-0.076-0.551-0.161-0.551-0.161c0.525,4.839-0.735,6.982-0.735,6.982c-1.837,3.796-4.553,2.626-4.553,2.626
			c-3.02-1.537-2.886-5.882-2.886-5.882c-0.148-4.527,2.16-8.721,2.591-9.465h7.626c-1.566,1.066-4.677,4.159-4.677,4.159
			c-4.434,4.133-3.563,7.609-3.563,7.609c0.719,3.647,2.91,1.186,2.91,1.186c2.312-2.404,2.131-7.184,2.131-7.184
			c-0.939,0.154-1.53,0.675-1.53,0.675c-0.109,3.188-1.979,5.167-1.979,5.167c-0.729,0.807-1.247,0.039-1.247,0.039
			c-0.384-0.577,0.38-0.978,0.38-0.978c1.069-0.943,1.388-2.548,1.37-3.151c-0.015-0.603,0.304-0.769,0.304-0.769
			c1.511-1.173,3.024-1.865,3.024-1.865c2.027-1.041,5.648-1.218,5.648-1.218c2.281,0.076,4.328-0.293,4.328-0.293l1.903-0.343
			C78.087,58.489,78.102,58.543,78.102,58.602z M61.955,68.117c0.282-0.052,0.635-0.21,0.982-0.597
			c0.072-0.072,1.913-2.055,2.157-5.265l0,0c-0.087,1.459-0.453,4.077-1.889,5.568c-0.232,0.254-0.663,0.579-0.928,0.579
			C62.183,68.398,62.072,68.309,61.955,68.117z"/>
		<path opacity="0.5" fill="#669CCC" enable-background="new    " d="M74.897,53.472H53.104c-2.83,0-5.13,2.296-5.13,5.128v21.795
			c0,2.83,2.298,5.128,5.13,5.128h21.793c2.834,0,5.13-2.296,5.13-5.128V58.602C80.027,55.77,77.731,53.472,74.897,53.472z
			 M79.262,80.395c0,2.407-1.958,4.365-4.365,4.365H53.104c-2.407,0-4.365-1.958-4.365-4.365V58.602
			c0-2.407,1.958-4.365,4.365-4.365h21.793c2.407,0,4.365,1.958,4.365,4.365L79.262,80.395L79.262,80.395z"/>
	</g>
	<g opacity="0.3">
		<path opacity="0.05" fill="#FFFFFF" enable-background="new    " d="M76.183,58.773c0,0-2.049,0.369-4.328,0.293
			c0,0-3.621,0.176-5.648,1.218c0,0-1.511,0.694-3.024,1.865c0,0-0.319,0.165-0.304,0.769c0.019,0.603-0.301,2.208-1.37,3.151
			c0,0-0.765,0.403-0.38,0.978c0,0,0.518,0.767,1.247-0.039c0,0,1.871-1.979,1.979-5.167c0,0,0.591-0.521,1.529-0.675
			c0,0,0.182,4.781-2.131,7.184c0,0-2.193,2.461-2.91-1.186c0,0-0.871-3.476,3.563-7.609c0,0,3.11-3.094,4.677-4.159h-7.626
			c-0.43,0.744-2.741,4.937-2.591,9.465c0,0-0.133,4.345,2.886,5.882c0,0,2.715,1.169,4.553-2.626c0,0,1.262-2.141,0.735-6.982
			c0,0,0.497,0.085,0.551,0.161c0.054,0.078,1.098,3.723,0.377,6.801c0,0-0.659,3.606-3.951,4.44
			c-3.291,0.829-5.865-1.166-7.613-3.044c-1.708-1.837-4.393-7.357-4.67-13.775c-1.08,0.515-1.834,1.611-1.834,2.886v15.837
			c0.891,0.388,3.43,1.353,6.614,1.411c3.983,0.072,7.01,0.338,10.47-2.088c3.461-2.422,2.994-6.358,2.994-6.358
			c-0.065-2.977-1.947-5.93-1.947-5.93c7.308,6.364,2.727,12.899,2.727,12.899c-3.215,4.514-8.874,7.81-11.615,9.23h15.753
			c1.769,0,3.205-1.438,3.205-3.207V58.602c0-0.059-0.015-0.113-0.015-0.171L76.183,58.773z M60.672,61.688
			c0.418-2.021,1.182-3.753,1.693-4.766h2.575c-0.878,0.822-1.544,1.487-1.578,1.516C62.152,59.571,61.288,60.669,60.672,61.688z
			 M59.219,74.367c-0.583,0-1.186-0.013-1.81-0.028l-0.871-0.019c-2.16-0.039-3.998-0.539-5.115-0.928V62.823
			c1.03,3.439,2.54,6.288,3.86,7.71c2.117,2.274,4.252,3.487,6.511,3.69C61.007,74.333,60.162,74.367,59.219,74.367z M76.575,80.395
			c0,0.926-0.753,1.68-1.678,1.68H64.685c2.518-1.72,5.336-4.043,7.322-6.828c0.05-0.076,5.02-7.367-2.381-14.389
			c0.986-0.169,1.875-0.24,2.218-0.264c0.214,0.005,0.425,0.009,0.635,0.009c2.138,0,3.901-0.316,3.977-0.328l0.119-0.022V80.395z"
			/>
		<path opacity="0.05" fill="#FFFFFF" enable-background="new    " d="M74.897,51.949H53.104c-3.67,0-6.655,2.984-6.655,6.654
			v21.795c0,3.67,2.986,6.654,6.655,6.654h21.793c3.67,0,6.655-2.984,6.655-6.654V58.602C81.552,54.933,78.566,51.949,74.897,51.949
			z M80.027,80.395c0,2.83-2.294,5.128-5.13,5.128H53.104c-2.83,0-5.13-2.296-5.13-5.128V58.602c0-2.832,2.298-5.128,5.13-5.128
			h21.793c2.834,0,5.13,2.296,5.13,5.128L80.027,80.395L80.027,80.395z"/>
	</g>
	<g opacity="0.3">
		<path opacity="0.9" fill="#FFFFFF" enable-background="new    " d="M70.758,75.135c0,0,1.529-2.19,1.407-5.265
			c-0.123,2.669-1.407,4.501-1.407,4.501c-3.214,4.516-8.873,7.812-11.615,9.232h1.411C63.525,81.93,68.02,78.975,70.758,75.135z"/>
		<path opacity="0.9" fill="#FFFFFF" enable-background="new    " d="M60.843,67.926c0.719,3.647,2.91,1.19,2.91,1.19
			c2.312-2.404,2.131-7.186,2.131-7.186c-0.004,0-0.007,0.002-0.007,0.002c-0.054,1.448-0.38,4.609-2.125,6.418
			c0,0-2.193,2.461-2.91-1.186c0,0-0.033-0.135-0.054-0.378C60.741,67.501,60.843,67.926,60.843,67.926z"/>
		<path opacity="0.9" fill="#FFFFFF" enable-background="new    " d="M58.863,65.002c0-0.043,0-0.085,0-0.128
			C58.863,64.885,58.863,64.928,58.863,65.002z"/>
		<path opacity="0.9" fill="#FFFFFF" enable-background="new    " d="M67.107,61.909c-0.039-0.007-0.069-0.013-0.069-0.013
			c0.076,0.681,0.113,1.303,0.119,1.88C67.172,63.215,67.157,62.595,67.107,61.909z"/>
		<path opacity="0.9" fill="#FFFFFF" enable-background="new    " d="M61.456,55.397c-0.427,0.739-2.712,4.885-2.591,9.382
			c0.133-4.195,2.186-7.921,2.591-8.617h6.633c0.362-0.302,0.703-0.568,0.993-0.765H61.456L61.456,55.397z"/>
		<path opacity="0.9" fill="#FFFFFF" enable-background="new    " d="M74.897,85.523H53.104c-2.83,0-5.13-2.296-5.13-5.128v0.761
			c0,2.834,2.298,5.13,5.13,5.13h21.793c2.834,0,5.13-2.294,5.13-5.13v-0.761C80.027,83.227,77.731,85.523,74.897,85.523z"/>
		<path opacity="0.9" fill="#FFFFFF" enable-background="new    " d="M78.087,58.429l-1.903,0.343c0,0-2.049,0.369-4.328,0.293
			c0,0-3.621,0.176-5.648,1.218c0,0-1.511,0.694-3.024,1.865c0,0-0.319,0.165-0.304,0.769c0.019,0.603-0.301,2.208-1.37,3.151
			c0,0-0.765,0.403-0.38,0.978c0,0,0.019,0.026,0.043,0.057c0.145-0.174,0.338-0.273,0.338-0.273
			c1.069-0.945,1.388-2.548,1.37-3.151c-0.015-0.603,0.304-0.769,0.304-0.769c0.395-0.304,0.787-0.575,1.152-0.813
			c0.004-0.087,0.015-0.171,0.019-0.26c0,0,0.591-0.521,1.529-0.675c0,0,0,0.021,0,0.041c0.199-0.102,0.323-0.159,0.323-0.159
			c2.027-1.041,5.648-1.216,5.648-1.216c2.281,0.074,4.328-0.295,4.328-0.295l1.903-0.343c0,0.057,0.015,0.113,0.015,0.171v-0.763
			C78.102,58.543,78.087,58.489,78.087,58.429z"/>
		<path opacity="0.9" fill="#FFFFFF" enable-background="new    " d="M56.402,69.491c-1.708-1.837-4.393-7.357-4.67-13.775
			c-1.08,0.515-1.834,1.611-1.834,2.886v0.763c0-1.275,0.753-2.37,1.834-2.886c0.275,6.418,2.962,11.942,4.67,13.779
			c1.746,1.877,4.321,3.872,7.613,3.04c3.291-0.829,3.951-4.44,3.951-4.44c0.217-0.921,0.271-1.895,0.247-2.806
			c-0.019,0.679-0.087,1.373-0.247,2.045c0,0-0.659,3.606-3.951,4.44C60.722,73.364,58.151,71.369,56.402,69.491z"/>
	</g>
	<g opacity="0.3">
		<path opacity="0.5" fill="#669CCC" enable-background="new    " d="M60.789,66.761c0.083-1.347,0.703-3.773,3.618-6.49
			c0,0,3.11-3.094,4.677-4.159h-0.936c-1.62,1.335-3.742,3.443-3.742,3.443C60.862,62.86,60.71,65.736,60.789,66.761z"/>
		<path opacity="0.5" fill="#669CCC" enable-background="new    " d="M68.032,61.471c0,0,0.351,0.553,0.753,1.42
			c2.498,2.463,3.305,4.911,3.381,6.961C72.272,67.485,71.463,64.458,68.032,61.471z"/>
		<path opacity="0.5" fill="#669CCC" enable-background="new    " d="M67.59,61.297c-0.054-0.076-0.551-0.161-0.551-0.161
			c0.03,0.25,0.046,0.492,0.065,0.727c0.133,0.026,0.442,0.091,0.486,0.15c0.039,0.056,0.563,1.877,0.623,4.02
			C68.275,63.593,67.633,61.358,67.59,61.297z"/>
		<path opacity="0.5" fill="#669CCC" enable-background="new    " d="M58.863,64.731c-0.004,0.046,0,0.095,0,0.141V64.86
			C58.859,64.818,58.863,64.775,58.863,64.731z"/>
		<path opacity="0.5" fill="#669CCC" enable-background="new    " d="M62.376,67.008c-0.631,0.699-1.102,0.219-1.218,0.076
			c-0.13,0.174-0.214,0.406-0.03,0.679c0,0,0.518,0.767,1.247-0.039c0,0,1.871-1.982,1.979-5.169c0,0,0.591-0.518,1.522-0.673
			c0.015-0.442,0.007-0.719,0.007-0.719c-0.007,0.002-0.015,0.004-0.022,0.004c-0.338,0.173-0.886,0.469-1.525,0.882
			C64.16,65.114,62.376,67.008,62.376,67.008z"/>
		<path opacity="0.5" fill="#669CCC" enable-background="new    " d="M74.897,53.472H53.104c-2.83,0-5.13,2.296-5.13,5.128v0.717
			c0-2.832,2.298-5.128,5.13-5.128h21.793c2.834,0,5.13,2.296,5.13,5.128v-0.717C80.027,55.77,77.731,53.472,74.897,53.472z"/>
		<path opacity="0.5" fill="#669CCC" enable-background="new    " d="M56.515,76.564c3.983,0.072,7.01,0.338,10.47-2.088
			c3.11-2.177,3.049-5.568,3.005-6.232c-0.065,1.286-0.533,3.784-3.005,5.517c-3.457,2.426-6.485,2.16-10.47,2.088
			c-3.186-0.056-5.724-1.022-6.614-1.411v0.717C50.791,75.541,53.329,76.507,56.515,76.564z"/>
		<path opacity="0.5" fill="#669CCC" enable-background="new    " d="M61.749,71.459c0,0,2.715,1.169,4.553-2.626
			c0,0,0.921-1.578,0.855-5.067c-0.061,2.99-0.855,4.352-0.855,4.352c-1.837,3.796-4.553,2.626-4.553,2.626
			c-2.704-1.377-2.879-4.998-2.886-5.739c-0.004,0.193-0.007,0.38,0,0.573C58.863,65.577,58.729,69.922,61.749,71.459z"/>
		<path opacity="0.5" fill="#669CCC" enable-background="new    " d="M74.897,84.316c1.769,0,3.205-1.437,3.205-3.205v-0.717
			c0,1.767-1.435,3.207-3.205,3.207H60.47c-0.49,0.271-0.939,0.515-1.327,0.715C59.143,84.316,74.897,84.316,74.897,84.316z"/>
	</g>
</g>
</svg>
