<?xml version="1.0" encoding="utf-8"?>
<!-- Generator: Adobe Illustrator 17.0.0, SVG Export Plug-In . SVG Version: 6.00 Build 0)  -->
<!DOCTYPE svg PUBLIC "-//W3C//DTD SVG 1.1//EN" "http://www.w3.org/Graphics/SVG/1.1/DTD/svg11.dtd">
<svg version="1.1" id="图层_1" xmlns="http://www.w3.org/2000/svg" xmlns:xlink="http://www.w3.org/1999/xlink" x="0px" y="0px"
	 width="64px" height="64px" viewBox="32 32 64 64" enable-background="new 32 32 64 64" xml:space="preserve">
<g id="g151" opacity="0.5">
	<path id="path153" opacity="0.08" enable-background="new    " d="M86.149,92.208h-44.25c-4.074,0-7.394-3.194-7.394-7.106v5.435
		c0,3.057,2.597,5.535,5.779,5.535h47.478c3.182,0,5.743-2.478,5.743-5.535v-5.435C93.505,89.015,90.221,92.208,86.149,92.208z"/>
	<path id="path155" opacity="0.1" enable-background="new    " d="M86.112,92.208h-44.25c-4.072,0-7.356-3.135-7.356-7.047v2.843
		c0,3.057,1.402,6.781,7.084,6.781s39.037,0,44.793,0c5.756,0,7.123-3.724,7.123-6.781v-2.843
		C93.505,89.073,90.184,92.208,86.112,92.208z"/>
	<path id="path157" opacity="0.1" enable-background="new    " d="M86.112,92.208h-44.25c-4.072,0-7.356-3.135-7.356-7.047v1.534
		c0,3.058,2.432,6.802,7.084,6.802s39.468,0,44.793,0c5.326,0,7.123-3.744,7.123-6.8v-1.534
		C93.505,89.073,90.184,92.208,86.112,92.208z"/>
	<rect id="rect159" x="41.21" y="92.208" opacity="0.05" enable-background="new    " width="45.591" height="1.288"/>
	<rect id="rect161" x="42.551" y="92.208" opacity="0.05" enable-background="new    " width="41.568" height="1.288"/>
	<rect id="rect163" x="42.551" y="93.496" opacity="0.05" enable-background="new    " width="41.568" height="1.288"/>
	<rect id="rect165" x="45.232" y="93.496" opacity="0.05" enable-background="new    " width="37.546" height="1.288"/>
	<rect id="rect167" x="49.255" y="93.496" opacity="0.05" enable-background="new    " width="29.5" height="1.288"/>
	<rect id="rect169" x="54.619" y="93.496" opacity="0.05" enable-background="new    " width="18.773" height="1.288"/>
	<rect id="rect171" x="45.232" y="92.208" opacity="0.05" enable-background="new    " width="37.546" height="1.288"/>
	<rect id="rect173" x="47.914" y="92.208" opacity="0.05" enable-background="new    " width="32.182" height="1.288"/>
	<rect id="rect175" x="49.255" y="92.208" opacity="0.05" enable-background="new    " width="29.5" height="1.288"/>
	<rect id="rect177" x="51.937" y="92.208" opacity="0.05" enable-background="new    " width="24.136" height="1.288"/>
	<rect id="rect179" x="51.937" y="92.208" opacity="0.05" enable-background="new    " width="24.136" height="1.288"/>
</g>
<path fill="#C4DCED" stroke="#9DBCD7" stroke-miterlimit="10" d="M92.972,84.307c0,4.212-3.415,7.627-7.627,7.627h-42.68
	c-4.212,0-7.627-3.415-7.627-7.627v-42.68c0-4.212,3.415-7.627,7.627-7.627h42.681c4.212,0,7.627,3.415,7.627,7.627V84.307z"/>
<path opacity="0.5" fill="none" stroke="#FFFFFF" stroke-miterlimit="10" enable-background="new    " d="M91.956,84.307
	c0,3.651-2.96,6.611-6.611,6.611h-42.68c-3.651,0-6.611-2.96-6.611-6.611v-42.68c0-3.651,2.96-6.611,6.611-6.611h42.68
	c3.651,0,6.611,2.96,6.611,6.611V84.307z"/>
<path opacity="0.08" fill="none" stroke="#000000" stroke-miterlimit="10" enable-background="new    " d="M93.189,50.997
	c0,0,0-2.563-2.531-2.563c-7.347,0-30.807,0.004-32.907,0.004c-2.552,0-2.531-2.526-2.531-2.526s0-2.543-2.531-2.543
	c-4.431,0-13.306,0-15.188,0c-2.492,0-2.531,2.451-2.531,2.528"/>
<path opacity="0.05" fill="none" stroke="#000000" stroke-miterlimit="10" enable-background="new    " d="M93.178,50.488
	c0,0,0-2.563-2.531-2.563c-7.347,0-30.807,0.004-32.907,0.004c-2.552,0-2.531-2.526-2.531-2.526s0-2.543-2.531-2.543
	c-4.431,0-13.306,0-15.188,0c-2.492,0-2.531,2.451-2.531,2.528"/>
<path opacity="0.03" fill="none" stroke="#000000" stroke-miterlimit="10" enable-background="new    " d="M93.178,50.002
	c0,0,0-2.563-2.531-2.563c-7.347,0-30.807,0.004-32.907,0.004c-2.552,0-2.531-2.526-2.531-2.526s0-2.543-2.531-2.543
	c-4.431,0-13.306,0-15.188,0c-2.492,0-2.531,2.451-2.531,2.528"/>
<linearGradient id="SVGID_1_" gradientUnits="userSpaceOnUse" x1="886.0052" y1="-989.9344" x2="886.0052" y2="-942.1639" gradientTransform="matrix(1 0 0 -1 -822 -898)">
	<stop  offset="0" style="stop-color:#D1E0ED"/>
	<stop  offset="1" style="stop-color:#E4EEFB"/>
</linearGradient>
<path fill="url(#SVGID_1_)" stroke="#9DBCD7" stroke-miterlimit="10" d="M42.648,91.934h42.84c4.212,0,7.484-3.502,7.484-7.714
	V50.019c0-0.6-0.897-1.166-2.092-1.166c-7.379,0-30.905,0.004-33.014,0.004c-2.563,0-2.524-2.338-2.524-2.338
	s0.018-2.355-2.525-2.355c-4.45,0-13.364,0-15.254,0c-2.503,0-2.526,2.075-2.526,2.153v37.903
	C35.038,88.432,38.436,91.934,42.648,91.934z"/>
<path fill="none" stroke="#FFFFFF" stroke-miterlimit="10" d="M42.648,90.918c-3.636,0-6.594-3.004-6.594-6.698V46.317
	c0-0.048,0.008-0.454,0.309-0.756c0.252-0.253,0.656-0.381,1.2-0.381h15.254c0.602,0,0.908,0.072,1.091,0.256
	c0.405,0.407,0.423,1.028,0.423,1.035c-0.002,0.133,0.006,1.459,0.988,2.456c0.626,0.635,1.484,0.957,2.551,0.957
	c0,0,28.2-0.011,33.008-0.011c0.635,0,0.987,0.218,1.077,0.323v34.024c0,3.694-2.901,6.698-6.468,6.698h-42.84V90.918z"/>
<radialGradient id="SVGID_2_" cx="1168.1434" cy="819.2701" r="46.4534" gradientTransform="matrix(0.0197 0.9998 0.9109 -0.018 -707.3493 -1098.2991)" gradientUnits="userSpaceOnUse">
	<stop  offset="0" style="stop-color:#FFFFFF;stop-opacity:0.6"/>
	<stop  offset="0.3783" style="stop-color:#FAFCFE;stop-opacity:0.4487"/>
	<stop  offset="0.829" style="stop-color:#EBF3FC;stop-opacity:0.2684"/>
	<stop  offset="1" style="stop-color:#E4EEFB;stop-opacity:0.2"/>
</radialGradient>
<path fill="url(#SVGID_2_)" d="M42.648,90.918c-3.636,0-6.594-3.004-6.594-6.698V46.317c0-0.048,0.008-0.454,0.309-0.756
	c0.252-0.253,0.656-0.381,1.2-0.381h15.254c0.602,0,0.908,0.072,1.091,0.256c0.405,0.407,0.423,1.028,0.423,1.035
	c-0.002,0.133,0.006,1.459,0.988,2.456c0.626,0.635,1.484,0.957,2.551,0.957c0,0,28.2-0.011,33.008-0.011
	c0.635,0,0.987,0.218,1.077,0.323v34.024c0,3.694-2.901,6.698-6.468,6.698h-42.84V90.918z"/>
<g id="g27_1_">
	
		<linearGradient id="path36_2_" gradientUnits="userSpaceOnUse" x1="1270.9509" y1="-1749.3695" x2="1278.9996" y2="-1763.3102" gradientTransform="matrix(1 0 0 -1 -1234 -1716)">
		<stop  offset="0" style="stop-color:#FFFFFF"/>
		<stop  offset="0.5" style="stop-color:#FFFFFF;stop-opacity:0.6"/>
		<stop  offset="1" style="stop-color:#FFFFFF;stop-opacity:0.15"/>
	</linearGradient>
	<path id="path36_1_" fill="url(#path36_2_)" d="M43.587,49.679c0.9-1.863,1.998-3.608,3.258-5.221l-2.292-5.027
		c-1.958,1.851-3.547,3.89-4.816,5.871L43.587,49.679z"/>
	
		<linearGradient id="path45_2_" gradientUnits="userSpaceOnUse" x1="1278.2488" y1="-1747.282" x2="1283.5162" y2="-1756.4056" gradientTransform="matrix(1 0 0 -1 -1234 -1716)">
		<stop  offset="0" style="stop-color:#FFFFFF"/>
		<stop  offset="0.5" style="stop-color:#FFFFFF;stop-opacity:0.6"/>
		<stop  offset="1" style="stop-color:#FFFFFF;stop-opacity:0.15"/>
	</linearGradient>
	<path id="path45_1_" fill="url(#path45_2_)" d="M43.826,34.599l1.198,2.626c1.153-0.957,2.417-1.287,3.795-2.626H43.826z"/>
	
		<linearGradient id="path54_2_" gradientUnits="userSpaceOnUse" x1="1279.9055" y1="-1745.5494" x2="1286.3414" y2="-1756.6967" gradientTransform="matrix(1 0 0 -1 -1234 -1716)">
		<stop  offset="0" style="stop-color:#FFFFFF"/>
		<stop  offset="0.5" style="stop-color:#FFFFFF;stop-opacity:0.6"/>
		<stop  offset="1" style="stop-color:#FFFFFF;stop-opacity:0.15"/>
	</linearGradient>
	<path id="path54_1_" fill="url(#path54_2_)" d="M52.818,34.599H51.87c-2.391,1.339-4.481,2.361-6.274,3.888l2.197,4.821
		c1.877-2.168,4.055-4.068,6.494-5.603c0.019-0.017,0.032-0.032,0.052-0.049C57.072,35.295,54.358,34.599,52.818,34.599z"/>
	
		<linearGradient id="path63_2_" gradientUnits="userSpaceOnUse" x1="1266.434" y1="-1755.7246" x2="1273.4182" y2="-1767.8217" gradientTransform="matrix(1 0 0 -1 -1234 -1716)">
		<stop  offset="0" style="stop-color:#FFFFFF"/>
		<stop  offset="0.5" style="stop-color:#FFFFFF;stop-opacity:0.6"/>
		<stop  offset="1" style="stop-color:#FFFFFF;stop-opacity:0.15"/>
	</linearGradient>
	<path id="path63_1_" fill="url(#path63_2_)" d="M39.006,46.497c-1.47,2.503-2.431,4.816-3.001,6.397
		c0.675,0.963,1.79,1.595,3.056,1.595c1.567,0,2.905-0.968,3.459-2.336c0.142-0.382,0.315-0.749,0.473-1.125L39.006,46.497z"/>
	
		<linearGradient id="path72_2_" gradientUnits="userSpaceOnUse" x1="1266.12" y1="-1756.2202" x2="1273.8602" y2="-1769.627" gradientTransform="matrix(1 0 0 -1 -1234 -1716)">
		<stop  offset="0" style="stop-color:#FFFFFF"/>
		<stop  offset="0.5" style="stop-color:#FFFFFF;stop-opacity:0.6"/>
		<stop  offset="1" style="stop-color:#FFFFFF;stop-opacity:0.15"/>
	</linearGradient>
	<path id="path72_1_" fill="url(#path72_2_)" d="M35.357,42.345l-0.029,8.405c0,0,0,0.003,0,0.006c0,0.052,0.013,0.102,0.016,0.154
		c0.639-1.555,1.531-3.455,2.741-5.463L35.357,42.345z"/>
	
		<linearGradient id="path149_2_" gradientUnits="userSpaceOnUse" x1="1271.9735" y1="-1752.0216" x2="1279.2416" y2="-1764.6104" gradientTransform="matrix(1 0 0 -1 -1234 -1716)">
		<stop  offset="0" style="stop-color:#FFFFFF"/>
		<stop  offset="0.5" style="stop-color:#FFFFFF;stop-opacity:0.6"/>
		<stop  offset="1" style="stop-color:#FFFFFF;stop-opacity:0.15"/>
	</linearGradient>
	<path id="path149_1_" fill="url(#path149_2_)" d="M42.229,34.615c-2.731-0.227-6.327,2.849-6.788,5.799l3.388,3.853
		c1.352-2.064,3.034-4.178,5.109-6.088L42.229,34.615z"/>
</g>
<g>
	<path opacity="0.3" fill="#FFFFFF" enable-background="new    " d="M66.101,53.621c-1.318,0.028-2.62,0.487-3.691,1.391
		c-1.687,1.425-1.934,3.042-2.057,4.335c-0.122,1.293-0.141,2.219-1.312,3.205c-1.167,0.987-2.139,0.876-3.466,0.806
		c-1.327-0.069-2.974-0.072-4.659,1.351c-0.769,0.653-1.318,1.472-1.652,2.338c0,0,0,0.019,0,0.022
		c-0.01,0.025-0.036,0.1-0.039,0.141c-0.045,0.119-0.1,0.231-0.141,0.383c-0.016,0.052-0.055,0.149-0.083,0.261
		c0,0.012,0.003,0.012,0,0.022c-0.036,0.168-0.058,0.347-0.08,0.524c-0.01,0.071,0,0.138,0,0.141
		c-0.003,0.045-0.019,0.1-0.022,0.141c0.003-0.022-0.012,0.036-0.019,0.181c-0.003,0.074,0,0.094,0,0.082
		c-0.003,0.06,0,0.077,0,0.041c0,0.078-0.003,0.162,0,0.24c0,0-0.003,0.034,0,0.121c0.006,0.144,0.022,0.202,0.019,0.181
		c0.006,0.067,0.01,0.171,0.022,0.284c0.022,0.176,0.043,0.355,0.08,0.524c0.003,0.01,0,0.01,0,0.021
		c0.028,0.11,0.067,0.207,0.083,0.262c0.055,0.206,0.122,0.37,0.181,0.524c0,0.006,0,0.014,0,0.021
		c0.312,0.81,0.83,1.538,1.511,2.158c0.006,0.005-0.003,0.017,0,0.021c0.006,0.006,0.012,0.014,0.022,0.021
		c0.033,0.045,0.077,0.088,0.119,0.121c0,0.006,0,0.016,0,0.021c1.685,1.425,3.331,1.42,4.659,1.351
		c1.327-0.069,2.299-0.182,3.466,0.806c1.171,0.989,1.189,1.914,1.312,3.205c0.122,1.293,0.37,2.911,2.057,4.335
		c2.451,2.071,6.148,1.8,8.266-0.604c2.119-2.407,1.848-6.073-0.604-8.145c-1.685-1.423-3.331-1.42-4.659-1.349
		c-1.327,0.069-2.299,0.181-3.466-0.808c-1.161-0.981-1.193-1.9-1.312-3.185c0.12-1.283,0.151-2.203,1.312-3.185
		c1.169-0.987,2.14-0.876,3.466-0.806c1.327,0.069,2.974,0.074,4.659-1.351c2.451-2.073,2.721-5.738,0.604-8.144
		C69.487,54.264,67.789,53.585,66.101,53.621z M66.123,54.266c1.501-0.032,3.009,0.571,4.07,1.775
		c1.884,2.139,1.64,5.371-0.543,7.218c-3.074,2.596-5.446-0.107-8.125,2.158c-1.354,1.144-1.409,2.393-1.533,3.689
		c0.122,1.296,0.177,2.545,1.533,3.691c2.68,2.263,5.051-0.439,8.125,2.158c2.183,1.845,2.427,5.078,0.543,7.218
		c-1.881,2.139-5.173,2.369-7.357,0.524c-3.073-2.596-0.687-5.275-3.369-7.54c-2.679-2.264-5.051,0.438-8.125-2.159v-0.019
		c-0.681-0.577-1.173-1.285-1.472-2.057c-0.003-0.005,0.003-0.017,0-0.022c-0.058-0.157-0.116-0.301-0.163-0.465
		c-0.019-0.071-0.043-0.148-0.058-0.221c-0.003-0.008,0.003-0.014,0-0.021c-0.033-0.152-0.061-0.309-0.083-0.465
		c-0.01-0.08-0.012-0.162-0.019-0.241c-0.003-0.054-0.019-0.107-0.022-0.162c0-0.036,0-0.085,0-0.121c0-0.074,0-0.129,0-0.202
		c0-0.008,0-0.032,0-0.039c0-0.028,0-0.052,0-0.08c0.003-0.055,0.019-0.107,0.022-0.163c0.006-0.071,0.012-0.151,0.019-0.221
		c0.003-0.01,0-0.012,0-0.022c0.022-0.154,0.049-0.311,0.083-0.463c0-0.008-0.003-0.012,0-0.022
		c0.016-0.071,0.039-0.149,0.058-0.221c0.045-0.163,0.104-0.306,0.163-0.463c0.003-0.006-0.003-0.016,0-0.022
		c0.296-0.772,0.791-1.5,1.472-2.076c3.074-2.596,5.446,0.107,8.125-2.158c2.682-2.264,0.296-4.944,3.369-7.541
		C63.789,54.708,64.95,54.293,66.123,54.266z"/>
	<path opacity="0.3" fill="#669CCC" enable-background="new    " d="M66.127,54.268c-1.171,0.025-2.341,0.43-3.298,1.238
		c-3.073,2.597-0.684,5.296-3.366,7.559c-2.679,2.264-5.054-0.443-8.125,2.154v0.005c-0.684,0.577-1.177,1.292-1.473,2.064
		c0,0.003,0,0.01-0.003,0.016c-0.061,0.157-0.11,0.314-0.157,0.476c-0.019,0.072-0.039,0.144-0.055,0.217
		c-0.003,0.008-0.003,0.017-0.006,0.025c-0.033,0.152-0.055,0.304-0.077,0.46c0,0.001,0,0.001,0,0.005
		c0,0.006-0.003,0.016-0.003,0.023c-0.01,0.072-0.016,0.143-0.022,0.217c-0.003,0.055-0.01,0.109-0.012,0.163
		c0,0.027-0.003,0.056-0.003,0.085c0,0.01,0,0.019,0,0.028c-0.003,0.072-0.003,0.143,0,0.215c0,0.038,0.003,0.077,0.003,0.113
		c0.003,0.054,0.01,0.109,0.012,0.163c0.006,0.082,0.016,0.16,0.025,0.241c0,0,0,0.002,0,0.003c0.022,0.154,0.043,0.306,0.077,0.46
		c0.003,0.008,0.003,0.016,0.006,0.025c0.016,0.072,0.036,0.143,0.055,0.215c0.045,0.163,0.096,0.32,0.157,0.476
		c0.003,0.006,0.003,0.011,0.003,0.017c0.296,0.772,0.791,1.484,1.473,2.062v0.005c3.071,2.596,5.446-0.11,8.125,2.154
		c2.682,2.263,0.295,4.962,3.366,7.557c2.186,1.845,5.479,1.604,7.364-0.537c1.881-2.139,1.64-5.37-0.543-7.215
		c-3.071-2.597-5.446,0.115-8.128-2.15c-1.351-1.144-1.412-2.401-1.536-3.697c0.122-1.296,0.184-2.553,1.536-3.695
		c2.682-2.264,5.057,0.446,8.128-2.151c2.183-1.845,2.424-5.074,0.543-7.215C69.134,54.838,67.632,54.235,66.127,54.268
		C66.127,54.267,66.127,54.267,66.127,54.268z"/>
	<path opacity="0.3" fill="#669CCC" enable-background="new    " d="M66.123,54.266c-1.171,0.027-2.332,0.443-3.289,1.251
		c-3.073,2.597-0.688,5.275-3.369,7.541c-2.679,2.264-5.051-0.439-8.125,2.158c-0.681,0.577-1.173,1.304-1.472,2.076
		c-0.003,0.006,0.003,0.016,0,0.022c-0.058,0.157-0.116,0.3-0.163,0.463c-0.019,0.072-0.043,0.151-0.058,0.221
		c-0.003,0.01,0,0.014,0,0.022c-0.033,0.152-0.061,0.309-0.083,0.463c0,0.01,0.003,0.012,0,0.022
		c-0.006,0.071-0.012,0.151-0.019,0.221c-0.003,0.055-0.019,0.107-0.022,0.163c0,0.028,0,0.052,0,0.08c0,0.01,0,0.033,0,0.039
		c0,0.074,0,0.129,0,0.202c0,0.036,0,0.085,0,0.121c0.003,0.033,0.019,0.066,0.022,0.1c0.003-0.021-0.003-0.041,0-0.06
		c0.006-0.074,0.012-0.151,0.019-0.224c0.003-0.006,0-0.012,0-0.019c0.022-0.155,0.049-0.312,0.083-0.465
		c0-0.008-0.003-0.014,0-0.021c0.016-0.072,0.039-0.151,0.058-0.223c0.045-0.162,0.104-0.306,0.163-0.465
		c0.003-0.005-0.003-0.016,0-0.019c0.296-0.772,0.791-1.501,1.472-2.077c3.074-2.596,5.446,0.107,8.125-2.158
		c2.682-2.264,0.296-4.944,3.369-7.541c0.956-0.808,2.119-1.224,3.289-1.249c1.501-0.033,3.009,0.571,4.07,1.775
		c0.772,0.874,1.18,1.933,1.251,3.003c0.08-1.287-0.322-2.596-1.251-3.648C69.132,54.837,67.624,54.235,66.123,54.266z
		 M60.031,69.428c-0.01,0.107-0.032,0.213-0.039,0.323c0.122,1.294,0.177,2.545,1.533,3.689c2.68,2.264,5.051-0.439,8.125,2.158
		c1.09,0.923,1.695,2.183,1.793,3.488c0.08-1.522-0.527-3.06-1.793-4.133c-3.074-2.597-5.446,0.105-8.125-2.158
		C60.282,71.746,60.144,70.607,60.031,69.428z"/>
	<path opacity="0.3" fill="#669CCC" enable-background="new    " d="M66.123,54.266c-1.171,0.027-2.332,0.443-3.289,1.251
		c-3.073,2.597-0.688,5.275-3.369,7.541c-2.679,2.264-5.051-0.439-8.125,2.158c-0.681,0.577-1.173,1.304-1.472,2.076
		c-0.003,0.006,0.003,0.016,0,0.022c-0.058,0.157-0.116,0.3-0.163,0.463c-0.019,0.072-0.043,0.151-0.058,0.221
		c-0.003,0.01,0,0.014,0,0.022c-0.033,0.152-0.061,0.309-0.083,0.463c0,0.01,0.003,0.012,0,0.022
		c-0.006,0.071-0.012,0.151-0.019,0.221c-0.003,0.055-0.019,0.107-0.022,0.163c0,0.028,0,0.052,0,0.08c0,0.01,0,0.033,0,0.039
		c0,0.074,0,0.129,0,0.202c0,0.036,0,0.085,0,0.121c0.003,0.054,0.019,0.107,0.022,0.162c0.006,0.082,0.01,0.163,0.019,0.241
		c0.022,0.155,0.049,0.312,0.083,0.465c0.003,0.006-0.003,0.012,0,0.021c0.016,0.074,0.039,0.151,0.058,0.221
		c0.045,0.163,0.104,0.307,0.163,0.465c0.003,0.005-0.003,0.017,0,0.022c0.296,0.771,0.791,1.478,1.472,2.057v0.019
		c3.074,2.597,5.446-0.105,8.125,2.159c2.682,2.263,0.296,4.943,3.369,7.54c2.186,1.845,5.476,1.615,7.357-0.524
		c1.884-2.139,1.64-5.373-0.543-7.218c-3.074-2.597-5.446,0.105-8.125-2.158c-1.354-1.144-1.409-2.393-1.533-3.691
		c0.122-1.296,0.177-2.545,1.533-3.689c2.68-2.264,5.051,0.439,8.125-2.158c2.183-1.845,2.427-5.078,0.543-7.218
		C69.132,54.837,67.624,54.235,66.123,54.266z M66.14,54.952c1.312-0.028,2.608,0.487,3.527,1.532
		c1.637,1.861,1.437,4.643-0.463,6.25c-1.38,1.166-2.434,1.116-3.73,1.048c-1.296-0.067-2.878-0.174-4.395,1.109
		c-1.536,1.298-1.652,2.879-1.775,4.153c-0.003,0.039-0.003,0.082,0,0.121c0.122,1.272,0.239,2.854,1.775,4.152
		c1.517,1.283,3.099,1.177,4.395,1.109s2.35-0.118,3.73,1.048c1.9,1.607,2.099,4.39,0.463,6.248
		c-1.637,1.861-4.486,2.052-6.389,0.444c-1.382-1.166-1.472-2.167-1.594-3.429c-0.12-1.26-0.254-2.831-1.775-4.113
		c-1.517-1.283-3.099-1.175-4.395-1.108c-1.283,0.066-2.332,0.099-3.691-1.028c-0.012-0.008-0.025-0.014-0.039-0.022
		c0-0.005,0-0.014,0-0.021c-0.592-0.498-1.012-1.094-1.27-1.753c-0.003-0.006,0-0.016,0-0.021c-0.003-0.005,0-0.021,0-0.021
		c-0.061-0.163-0.11-0.29-0.141-0.405c-0.025-0.08-0.052-0.144-0.061-0.181c0-0.011,0.003-0.011,0-0.021
		c-0.028-0.133-0.045-0.273-0.061-0.403c-0.006-0.045-0.012-0.129-0.019-0.223c-0.01-0.115-0.019-0.133-0.022-0.121
		c0,0.003,0-0.019,0-0.022c0-0.003,0.003-0.036,0-0.099c0-0.065,0-0.098,0-0.162c0.003-0.058,0.003-0.087,0-0.039
		c0.003-0.052,0-0.061,0-0.061c0,0.006,0-0.022,0-0.021c0.003,0.014,0.012-0.008,0.022-0.121c0.003-0.071,0.012-0.149,0.019-0.202
		c0.003-0.01,0-0.01,0-0.021c0.016-0.131,0.033-0.27,0.061-0.403c0-0.006,0-0.014,0-0.021c0.006-0.03,0.033-0.091,0.061-0.182
		c0.032-0.115,0.08-0.241,0.141-0.403c0,0,0-0.017,0-0.021c0.257-0.672,0.681-1.296,1.27-1.795c1.382-1.166,2.434-1.116,3.73-1.048
		c1.296,0.067,2.878,0.174,4.395-1.109c1.521-1.282,1.655-2.851,1.775-4.113c0.122-1.26,0.212-2.26,1.594-3.427
		C64.111,55.335,65.123,54.974,66.14,54.952z"/>
	<path opacity="0.3" fill="#669CCC" enable-background="new    " d="M66.123,54.266c-1.171,0.027-2.332,0.443-3.289,1.251
		c-3.073,2.597-0.688,5.275-3.369,7.541c-2.679,2.264-5.051-0.439-8.125,2.158c-0.681,0.577-1.173,1.304-1.472,2.076
		c-0.003,0.006,0.003,0.016,0,0.022c-0.058,0.157-0.116,0.3-0.163,0.463c-0.019,0.072-0.043,0.151-0.058,0.221
		c-0.003,0.01,0,0.014,0,0.022c-0.033,0.152-0.061,0.309-0.083,0.463c0,0.01,0.003,0.012,0,0.022
		c-0.006,0.071-0.012,0.151-0.019,0.221c-0.003,0.055-0.019,0.107-0.022,0.163c0,0.028,0,0.052,0,0.08c0,0.01,0,0.033,0,0.039
		c0,0.074,0,0.129,0,0.202c0,0.036,0,0.085,0,0.121c0.003,0.054,0.019,0.107,0.022,0.162c0.006,0.082,0.01,0.163,0.019,0.241
		c0.022,0.155,0.049,0.312,0.083,0.465c0.003,0.006-0.003,0.012,0,0.021c0.016,0.074,0.039,0.151,0.058,0.221
		c0.045,0.163,0.104,0.307,0.163,0.465c0.003,0.005-0.003,0.017,0,0.022c0.296,0.771,0.791,1.478,1.472,2.057v0.019
		c3.074,2.597,5.446-0.105,8.125,2.159c2.682,2.263,0.296,4.943,3.369,7.54c2.186,1.845,5.476,1.615,7.357-0.524
		c1.884-2.139,1.64-5.373-0.543-7.218c-3.074-2.597-5.446,0.105-8.125-2.158c-1.354-1.144-1.409-2.393-1.533-3.691
		c0.122-1.296,0.177-2.545,1.533-3.689c2.68-2.264,5.051,0.439,8.125-2.158c2.183-1.845,2.427-5.078,0.543-7.218
		C69.132,54.837,67.624,54.235,66.123,54.266z M66.14,55.535c1.145-0.023,2.283,0.441,3.086,1.351
		c1.425,1.621,1.254,4.003-0.405,5.404c-1.248,1.053-2.044,0.954-3.328,0.887c-1.281-0.066-3.122-0.143-4.797,1.271
		c-1.692,1.43-1.855,3.284-1.977,4.538c-0.006,0.08-0.006,0.16,0,0.24c0.122,1.254,0.285,3.107,1.977,4.536
		c1.674,1.415,3.516,1.338,4.797,1.271c1.283-0.067,2.081-0.163,3.328,0.887c1.659,1.403,1.83,3.783,0.405,5.402
		c-1.428,1.621-3.904,1.806-5.566,0.403c-1.248-1.053-1.272-1.797-1.392-3.042c-0.119-1.249-0.304-3.085-1.977-4.496
		c-1.673-1.414-3.512-1.337-4.797-1.271c-1.27,0.066-2.068,0.148-3.289-0.868c-0.012-0.012-0.025-0.006-0.039-0.021
		c0-0.006,0-0.014,0-0.021c-0.515-0.435-0.885-0.96-1.109-1.533c0-0.005,0.003-0.016,0-0.021c0-0.002,0-0.022,0-0.022
		c-0.061-0.163-0.098-0.267-0.12-0.342c-0.032-0.105-0.039-0.162-0.039-0.162c-0.003-0.011,0-0.011,0-0.021
		c-0.028-0.118-0.045-0.234-0.061-0.344c-0.003-0.016-0.012-0.076-0.022-0.182c-0.012-0.201-0.025-0.239-0.019-0.119
		c0.003,0.058,0.003,0.028,0-0.082c-0.003-0.058-0.003-0.102,0-0.162c0.003-0.098,0.003-0.111,0-0.022
		c0.003-0.104,0.003-0.122,0-0.06c-0.006,0.121,0.006,0.082,0.019-0.121c0.006-0.061,0.019-0.124,0.022-0.162
		c0-0.005,0-0.017,0-0.021c0.016-0.11,0.033-0.224,0.061-0.344c0-0.006,0-0.014,0-0.021c-0.003,0.008,0.01-0.052,0.039-0.162
		c0.022-0.077,0.058-0.177,0.12-0.344c0,0,0-0.019,0-0.021v-0.018c0.228-0.579,0.607-1.128,1.109-1.554
		c1.248-1.051,2.044-0.953,3.328-0.887c1.283,0.067,3.122,0.144,4.797-1.27c1.673-1.412,1.858-3.248,1.977-4.496
		c0.119-1.248,0.144-1.991,1.392-3.044C64.394,55.865,65.255,55.556,66.14,55.535z"/>
	<path opacity="0.3" fill="#FFFFFF" enable-background="new    " d="M71.442,59.75c-0.098,1.305-0.701,2.586-1.793,3.509
		c-3.074,2.596-5.446-0.107-8.125,2.158c-1.354,1.144-1.409,2.393-1.533,3.689c0.01,0.109,0.032,0.215,0.039,0.323
		c0.113-1.182,0.251-2.319,1.492-3.368c2.68-2.264,5.051,0.438,8.125-2.158C70.921,62.825,71.528,61.278,71.442,59.75z
		 M49.548,69.428c-0.003,0.034-0.019,0.066-0.022,0.099c0,0.028,0,0.055,0,0.083c0,0.01,0,0.032,0,0.039c0,0.072,0,0.129,0,0.201
		c0,0.038,0,0.085,0,0.121c0.003,0.054,0.019,0.107,0.022,0.162c0.006,0.082,0.01,0.163,0.019,0.241
		c0.022,0.155,0.049,0.311,0.083,0.465c0.003,0.008-0.003,0.012,0,0.021c0.016,0.074,0.039,0.151,0.058,0.223
		c0.045,0.162,0.104,0.306,0.163,0.463c0.003,0.006-0.003,0.016,0,0.022c0.296,0.772,0.791,1.478,1.472,2.055v0.021
		c3.074,2.596,5.446-0.105,8.125,2.158c2.682,2.264,0.296,4.943,3.369,7.541c2.186,1.845,5.476,1.615,7.357-0.524
		c0.929-1.054,1.334-2.383,1.251-3.67c-0.067,1.079-0.476,2.143-1.251,3.025c-1.881,2.139-5.173,2.369-7.357,0.524
		c-3.073-2.596-0.687-5.275-3.369-7.54c-2.679-2.264-5.051,0.438-8.125-2.159V72.98c-0.681-0.577-1.173-1.285-1.472-2.057
		c-0.003-0.005,0.003-0.017,0-0.022c-0.058-0.157-0.116-0.301-0.163-0.465c-0.019-0.071-0.043-0.148-0.058-0.221
		c-0.003-0.008,0.003-0.014,0-0.021c-0.033-0.152-0.061-0.309-0.083-0.465c-0.01-0.08-0.012-0.162-0.019-0.241
		C49.545,69.468,49.551,69.447,49.548,69.428z"/>
</g>
</svg>
