<?xml version="1.0" encoding="utf-8"?>
<!-- Generator: Adobe Illustrator 17.0.0, SVG Export Plug-In . SVG Version: 6.00 Build 0)  -->
<!DOCTYPE svg PUBLIC "-//W3C//DTD SVG 1.1//EN" "http://www.w3.org/Graphics/SVG/1.1/DTD/svg11.dtd">
<svg version="1.1" id="图层_1" xmlns="http://www.w3.org/2000/svg" xmlns:xlink="http://www.w3.org/1999/xlink" x="0px" y="0px"
	 width="64px" height="64px" viewBox="0 0 64 64" enable-background="new 0 0 64 64" xml:space="preserve">
<g>
	<g id="g151" opacity="0.5">
		<path id="path153" opacity="0.08" enable-background="new    " d="M54.144,59.172H9.894c-4.074,0-7.394-3.194-7.394-7.106v5.435
			c0,3.057,2.597,5.535,5.779,5.535h47.478c3.182,0,5.743-2.478,5.743-5.535v-5.435C61.499,55.979,58.215,59.172,54.144,59.172z"/>
		<path id="path155" opacity="0.1" enable-background="new    " d="M54.106,59.172H9.857c-4.072,0-7.356-3.135-7.356-7.047v2.843
			c0,3.057,1.402,6.781,7.084,6.781s39.037,0,44.793,0s7.123-3.724,7.123-6.781v-2.843C61.499,56.037,58.178,59.172,54.106,59.172z"
			/>
		<path id="path157" opacity="0.1" enable-background="new    " d="M54.106,59.172H9.857c-4.072,0-7.356-3.135-7.356-7.047v1.534
			c0,3.058,2.432,6.802,7.084,6.802s39.468,0,44.793,0c5.326,0,7.123-3.744,7.123-6.8v-1.534
			C61.499,56.037,58.178,59.172,54.106,59.172z"/>
		<rect id="rect159" x="9.205" y="59.172" opacity="0.05" enable-background="new    " width="45.591" height="1.288"/>
		<rect id="rect161" x="10.545" y="59.172" opacity="0.05" enable-background="new    " width="41.568" height="1.288"/>
		<rect id="rect163" x="10.545" y="60.46" opacity="0.05" enable-background="new    " width="41.568" height="1.288"/>
		<rect id="rect165" x="13.226" y="60.46" opacity="0.05" enable-background="new    " width="37.546" height="1.288"/>
		<rect id="rect167" x="17.25" y="60.46" opacity="0.05" enable-background="new    " width="29.5" height="1.288"/>
		<rect id="rect169" x="22.614" y="60.46" opacity="0.05" enable-background="new    " width="18.773" height="1.288"/>
		<rect id="rect171" x="13.226" y="59.172" opacity="0.05" enable-background="new    " width="37.546" height="1.288"/>
		<rect id="rect173" x="15.909" y="59.172" opacity="0.05" enable-background="new    " width="32.182" height="1.288"/>
		<rect id="rect175" x="17.25" y="59.172" opacity="0.05" enable-background="new    " width="29.5" height="1.288"/>
		<rect id="rect177" x="19.932" y="59.172" opacity="0.05" enable-background="new    " width="24.136" height="1.288"/>
		<rect id="rect179" x="19.932" y="59.172" opacity="0.05" enable-background="new    " width="24.136" height="1.288"/>
	</g>
	<path fill="#C4DCED" stroke="#9DBCD7" stroke-miterlimit="10" d="M60.966,51.271c0,4.212-3.415,7.627-7.627,7.627H10.66
		c-4.212,0-7.627-3.415-7.627-7.627V8.591c0-4.212,3.415-7.627,7.627-7.627H53.34c4.212,0,7.627,3.415,7.627,7.627L60.966,51.271
		L60.966,51.271z"/>
	<path opacity="0.5" fill="none" stroke="#FFFFFF" stroke-miterlimit="10" enable-background="new    " d="M59.951,51.271
		c0,3.651-2.96,6.611-6.611,6.611H10.66c-3.651,0-6.611-2.96-6.611-6.611V8.591c0-3.651,2.96-6.611,6.611-6.611h42.68
		c3.651,0,6.611,2.96,6.611,6.611V51.271z"/>
	<path opacity="0.08" fill="none" stroke="#000000" stroke-miterlimit="10" enable-background="new    " d="M61.184,17.961
		c0,0,0-2.563-2.531-2.563c-7.347,0-30.807,0.004-32.907,0.004c-2.552,0-2.531-2.526-2.531-2.526s0-2.543-2.531-2.543
		c-4.431,0-13.306,0-15.188,0c-2.492,0-2.531,2.451-2.531,2.528"/>
	<path opacity="0.05" fill="none" stroke="#000000" stroke-miterlimit="10" enable-background="new    " d="M61.173,17.452
		c0,0,0-2.563-2.531-2.563c-7.347,0-30.807,0.004-32.907,0.004c-2.552,0-2.531-2.526-2.531-2.526s0-2.543-2.531-2.543
		c-4.431,0-13.306,0-15.188,0c-2.492,0-2.531,2.451-2.531,2.528"/>
	<path opacity="0.03" fill="none" stroke="#000000" stroke-miterlimit="10" enable-background="new    " d="M61.173,16.966
		c0,0,0-2.563-2.531-2.563c-7.347,0-30.807,0.004-32.907,0.004c-2.552,0-2.531-2.526-2.531-2.526s0-2.543-2.531-2.543
		c-4.431,0-13.306,0-15.188,0c-2.492,0-2.531,2.451-2.531,2.528"/>
	
		<linearGradient id="SVGID_1_" gradientUnits="userSpaceOnUse" x1="1127.999" y1="1384.8979" x2="1127.999" y2="1337.1281" gradientTransform="matrix(1 0 0 1 -1096 -1326)">
		<stop  offset="0" style="stop-color:#D1E0ED"/>
		<stop  offset="1" style="stop-color:#E4EEFB"/>
	</linearGradient>
	<path fill="url(#SVGID_1_)" stroke="#9DBCD7" stroke-miterlimit="10" d="M10.642,58.898h42.84c4.212,0,7.484-3.502,7.484-7.714
		V16.983c0-0.6-0.897-1.166-2.092-1.166c-7.379,0-30.905,0.004-33.014,0.004c-2.563,0-2.524-2.338-2.524-2.338
		s0.018-2.355-2.525-2.355c-4.45,0-13.364,0-15.254,0c-2.503,0-2.526,2.075-2.526,2.153v37.903
		C3.032,55.396,6.431,58.898,10.642,58.898z"/>
	<path fill="none" stroke="#FFFFFF" stroke-miterlimit="10" d="M10.642,57.882c-3.636,0-6.594-3.004-6.594-6.698V13.281
		c0-0.048,0.008-0.454,0.309-0.756c0.252-0.253,0.656-0.381,1.2-0.381h15.254c0.602,0,0.908,0.072,1.091,0.256
		c0.405,0.407,0.423,1.028,0.423,1.035c-0.002,0.133,0.006,1.459,0.988,2.456c0.626,0.635,1.484,0.957,2.551,0.957
		c0,0,28.2-0.011,33.008-0.011c0.635,0,0.987,0.218,1.077,0.323v34.024c0,3.694-2.901,6.698-6.468,6.698H10.642L10.642,57.882
		L10.642,57.882z"/>
	
		<radialGradient id="SVGID_2_" cx="1503.816" cy="-1012.6377" r="46.4534" gradientTransform="matrix(0.0197 0.9998 -0.9109 0.018 -922.1061 -1463.46)" gradientUnits="userSpaceOnUse">
		<stop  offset="0" style="stop-color:#FFFFFF;stop-opacity:0.6"/>
		<stop  offset="0.3783" style="stop-color:#FAFCFE;stop-opacity:0.4487"/>
		<stop  offset="0.829" style="stop-color:#EBF3FC;stop-opacity:0.2684"/>
		<stop  offset="1" style="stop-color:#E4EEFB;stop-opacity:0.2"/>
	</radialGradient>
	<path fill="url(#SVGID_2_)" d="M10.642,57.882c-3.636,0-6.594-3.004-6.594-6.698V13.281c0-0.048,0.008-0.454,0.309-0.756
		c0.252-0.253,0.656-0.381,1.2-0.381h15.254c0.602,0,0.908,0.072,1.091,0.256c0.405,0.407,0.423,1.028,0.423,1.035
		c-0.002,0.133,0.006,1.459,0.988,2.456c0.626,0.635,1.484,0.957,2.551,0.957c0,0,28.2-0.011,33.008-0.011
		c0.635,0,0.987,0.218,1.077,0.323v34.024c0,3.694-2.901,6.698-6.468,6.698H10.642L10.642,57.882L10.642,57.882z"/>
	<g id="g27_1_">
		
			<linearGradient id="path36_2_" gradientUnits="userSpaceOnUse" x1="1512.9452" y1="2144.3337" x2="1520.9939" y2="2158.2744" gradientTransform="matrix(1 0 0 1 -1508 -2144)">
			<stop  offset="0" style="stop-color:#FFFFFF"/>
			<stop  offset="0.5" style="stop-color:#FFFFFF;stop-opacity:0.6"/>
			<stop  offset="1" style="stop-color:#FFFFFF;stop-opacity:0.15"/>
		</linearGradient>
		<path id="path36_1_" fill="url(#path36_2_)" d="M11.582,16.643c0.9-1.863,1.998-3.608,3.258-5.221l-2.292-5.027
			c-1.958,1.851-3.547,3.89-4.816,5.871L11.582,16.643z"/>
		
			<linearGradient id="path45_2_" gradientUnits="userSpaceOnUse" x1="1520.243" y1="2142.2461" x2="1525.5105" y2="2151.3699" gradientTransform="matrix(1 0 0 1 -1508 -2144)">
			<stop  offset="0" style="stop-color:#FFFFFF"/>
			<stop  offset="0.5" style="stop-color:#FFFFFF;stop-opacity:0.6"/>
			<stop  offset="1" style="stop-color:#FFFFFF;stop-opacity:0.15"/>
		</linearGradient>
		<path id="path45_1_" fill="url(#path45_2_)" d="M11.821,1.563l1.198,2.626c1.153-0.957,2.417-1.287,3.795-2.626H11.821z"/>
		
			<linearGradient id="path54_2_" gradientUnits="userSpaceOnUse" x1="1521.8997" y1="2140.5137" x2="1528.3356" y2="2151.6609" gradientTransform="matrix(1 0 0 1 -1508 -2144)">
			<stop  offset="0" style="stop-color:#FFFFFF"/>
			<stop  offset="0.5" style="stop-color:#FFFFFF;stop-opacity:0.6"/>
			<stop  offset="1" style="stop-color:#FFFFFF;stop-opacity:0.15"/>
		</linearGradient>
		<path id="path54_1_" fill="url(#path54_2_)" d="M20.813,1.563h-0.948c-2.391,1.339-4.481,2.361-6.274,3.888l2.197,4.821
			c1.877-2.168,4.055-4.068,6.494-5.603c0.019-0.017,0.032-0.032,0.052-0.049C25.066,2.259,22.353,1.563,20.813,1.563z"/>
		
			<linearGradient id="path63_2_" gradientUnits="userSpaceOnUse" x1="1508.4287" y1="2150.6885" x2="1515.413" y2="2162.7854" gradientTransform="matrix(1 0 0 1 -1508 -2144)">
			<stop  offset="0" style="stop-color:#FFFFFF"/>
			<stop  offset="0.5" style="stop-color:#FFFFFF;stop-opacity:0.6"/>
			<stop  offset="1" style="stop-color:#FFFFFF;stop-opacity:0.15"/>
		</linearGradient>
		<path id="path63_1_" fill="url(#path63_2_)" d="M7.001,13.461C5.531,15.964,4.57,18.277,4,19.858
			c0.675,0.963,1.79,1.595,3.056,1.595c1.567,0,2.905-0.968,3.459-2.336c0.142-0.382,0.315-0.749,0.473-1.125L7.001,13.461z"/>
		
			<linearGradient id="path72_2_" gradientUnits="userSpaceOnUse" x1="1508.1144" y1="2151.1843" x2="1515.8546" y2="2164.5911" gradientTransform="matrix(1 0 0 1 -1508 -2144)">
			<stop  offset="0" style="stop-color:#FFFFFF"/>
			<stop  offset="0.5" style="stop-color:#FFFFFF;stop-opacity:0.6"/>
			<stop  offset="1" style="stop-color:#FFFFFF;stop-opacity:0.15"/>
		</linearGradient>
		<path id="path72_1_" fill="url(#path72_2_)" d="M3.351,9.309l-0.029,8.405c0,0,0,0.003,0,0.006c0,0.052,0.013,0.102,0.016,0.154
			c0.639-1.555,1.531-3.455,2.741-5.463L3.351,9.309z"/>
		
			<linearGradient id="path149_2_" gradientUnits="userSpaceOnUse" x1="1513.9677" y1="2146.9858" x2="1521.2357" y2="2159.5745" gradientTransform="matrix(1 0 0 1 -1508 -2144)">
			<stop  offset="0" style="stop-color:#FFFFFF"/>
			<stop  offset="0.5" style="stop-color:#FFFFFF;stop-opacity:0.6"/>
			<stop  offset="1" style="stop-color:#FFFFFF;stop-opacity:0.15"/>
		</linearGradient>
		<path id="path149_1_" fill="url(#path149_2_)" d="M10.224,1.579C7.493,1.352,3.897,4.428,3.436,7.378l3.388,3.853
			c1.352-2.064,3.034-4.178,5.109-6.088L10.224,1.579z"/>
	</g>
	<g>
		<g opacity="0.3" enable-background="new    ">
			<g>
				<path fill="#FFFFFF" d="M38.812,20.538H25.257h-7.741v6.334v1.479v4.19v1.479v4.683v1.479v4.69v1.479v6.188h7.741h13.556h7.671
					v-6.188v-1.479v-4.69v-1.479V34.02v-1.479v-4.19v-1.479v-6.333h-7.671V20.538z M23.615,51.013H19.04v-4.574h4.574V51.013z
					 M23.615,44.915H19.04v-4.566h4.574V44.915z M23.615,38.825H19.04v-4.574h4.574V38.825z M23.615,32.726H19.04v-4.574h4.574
					V32.726z M23.615,27.136H19.04v-5.074h4.574V27.136z M38.86,38.702v1.479v4.69v1.479v4.664H25.14V46.35v-1.479v-4.69v-1.479
					V37.3H38.86V38.702z M38.86,26.871v1.479v4.19v1.479v1.756H25.14v-1.757v-1.479v-4.19V26.87v-4.808H38.86V26.871z
					 M44.958,51.013h-4.574v-4.574h4.574V51.013z M44.958,44.915h-4.574v-4.566h4.574V44.915z M44.958,38.825h-4.574v-4.574h4.574
					V38.825z M44.958,32.726h-4.574v-4.574h4.574V32.726z M44.958,27.136h-4.574v-5.074h4.574V27.136z"/>
			</g>
			<g>
				<path fill="#669CCC" d="M38.812,19.521H25.257h-7.741v5.834v1.979v4.19v1.479v4.683v1.479v4.69v1.479v6.188h7.741h13.556h7.671
					v-6.188v-1.48v-4.69v-1.479v-4.683v-1.479v-4.19v-1.979v-5.833H38.812z M23.615,49.997H19.04v-4.574h4.574V49.997z
					 M23.615,43.898H19.04v-4.566h4.574V43.898z M23.615,37.808H19.04v-4.574h4.574V37.808z M23.615,31.71H19.04v-4.574h4.574V31.71
					z M23.615,25.62H19.04v-4.574h4.574V25.62z M38.86,37.685v1.479v4.69v1.479v4.664H25.14v-4.664v-1.479v-4.69v-1.479v-1.401
					H38.86V37.685z M38.86,25.355v1.979v4.19v1.479v1.756H25.14v-1.757v-1.479v-4.19v-1.979v-4.308H38.86V25.355z M44.958,49.997
					h-4.574v-4.574h4.574V49.997z M44.958,43.898h-4.574v-4.566h4.574V43.898z M44.958,37.808h-4.574v-4.574h4.574V37.808z
					 M44.958,31.71h-4.574v-4.574h4.574V31.71z M44.958,25.62h-4.574v-4.574h4.574V25.62z"/>
			</g>
		</g>
		<path opacity="0.3" fill="#669CCC" enable-background="new    " d="M24.122,44.915h-5.59v5.59h5.59V44.915z M23.615,49.997H19.04
			v-4.574h4.574V49.997z"/>
		<path opacity="0.3" fill="#669CCC" enable-background="new    " d="M45.466,32.726h-5.59v5.59h5.59V32.726z M44.958,37.808h-4.574
			v-4.574h4.574V37.808z"/>
		<path opacity="0.3" fill="#669CCC" enable-background="new    " d="M38.565,19.521H25.01h-7.493V25.1v1.979v4.19v1.479v4.683
			v1.479v4.69v1.479v6.442h7.493h13.556h7.918v-6.442V43.6v-4.69v-1.479v-4.683v-1.479v-4.19V25.1v-5.579
			C46.483,19.521,38.565,19.521,38.565,19.521z M45.976,51.013H18.024V20.03h27.951V51.013z"/>
		<path opacity="0.3" fill="#669CCC" enable-background="new    " d="M45.466,38.825h-5.59v5.582h5.59V38.825z M44.958,43.898
			h-4.574v-4.566h4.574V43.898z"/>
		<path opacity="0.3" fill="#669CCC" enable-background="new    " d="M39.368,20.538H24.631v14.73h14.738V20.538z M38.86,25.101
			v1.979v4.19v1.479v2.01H25.14v-2.011v-1.479v-4.19V25.1v-4.054H38.86V25.101z"/>
		<path opacity="0.3" fill="#669CCC" enable-background="new    " d="M39.368,35.775H24.631v14.73h14.738V35.775z M38.86,37.431
			v1.479v4.69v1.479v4.918H25.14v-4.918V43.6v-4.69v-1.479v-1.147H38.86V37.431z"/>
		<path opacity="0.3" fill="#669CCC" enable-background="new    " d="M45.466,44.915h-5.59v5.59h5.59V44.915z M44.958,49.997h-4.574
			v-4.574h4.574V49.997z"/>
		<path opacity="0.3" fill="#669CCC" enable-background="new    " d="M24.122,32.726h-5.59v5.59h5.59V32.726z M23.615,37.808H19.04
			v-4.574h4.574V37.808z"/>
		<path opacity="0.3" fill="#669CCC" enable-background="new    " d="M24.122,38.825h-5.59v5.582h5.59V38.825z M23.615,43.898H19.04
			v-4.566h4.574V43.898z"/>
		<path opacity="0.3" fill="#669CCC" enable-background="new    " d="M45.466,26.65h-5.59v5.582h5.59V26.65z M44.958,31.724h-4.574
			v-4.566h4.574V31.724z"/>
		<path opacity="0.3" fill="#669CCC" enable-background="new    " d="M24.122,26.65h-5.59v5.582h5.59V26.65z M23.615,31.724H19.04
			v-4.566h4.574V31.724z"/>
		<path opacity="0.3" fill="#669CCC" enable-background="new    " d="M45.466,20.538h-5.59v5.59h5.59V20.538z M44.958,25.62h-4.574
			v-4.574h4.574V25.62z"/>
		<path opacity="0.3" fill="#669CCC" enable-background="new    " d="M24.122,20.538h-5.59v5.59h5.59V20.538z M23.615,25.62H19.04
			v-4.574h4.574V25.62z"/>
		<rect x="25.14" y="21.046" opacity="0.3" fill="#669CCC" enable-background="new    " width="13.721" height="13.713"/>
		<rect x="25.14" y="36.284" opacity="0.3" fill="#669CCC" enable-background="new    " width="13.721" height="13.713"/>
	</g>
</g>
</svg>
