<?xml version="1.0" encoding="utf-8"?>
<!-- Generator: Adobe Illustrator 17.0.0, SVG Export Plug-In . SVG Version: 6.00 Build 0)  -->
<!DOCTYPE svg PUBLIC "-//W3C//DTD SVG 1.1//EN" "http://www.w3.org/Graphics/SVG/1.1/DTD/svg11.dtd">
<svg version="1.1" id="图层_1" xmlns="http://www.w3.org/2000/svg" xmlns:xlink="http://www.w3.org/1999/xlink" x="0px" y="0px"
	 width="64px" height="64px" viewBox="32 32 64 64" enable-background="new 32 32 64 64" xml:space="preserve">
<g id="g151" opacity="0.5">
	<path id="path153" opacity="0.08" enable-background="new    " d="M86.149,92.208h-44.25c-4.074,0-7.394-3.194-7.394-7.106v5.435
		c0,3.057,2.597,5.535,5.779,5.535h47.478c3.182,0,5.743-2.478,5.743-5.535v-5.435C93.505,89.015,90.221,92.208,86.149,92.208z"/>
	<path id="path155" opacity="0.1" enable-background="new    " d="M86.112,92.208h-44.25c-4.072,0-7.356-3.135-7.356-7.047v2.843
		c0,3.057,1.402,6.781,7.084,6.781s39.037,0,44.793,0c5.756,0,7.123-3.724,7.123-6.781v-2.843
		C93.505,89.073,90.184,92.208,86.112,92.208z"/>
	<path id="path157" opacity="0.1" enable-background="new    " d="M86.112,92.208h-44.25c-4.072,0-7.356-3.135-7.356-7.047v1.534
		c0,3.058,2.432,6.802,7.084,6.802s39.468,0,44.793,0c5.326,0,7.123-3.744,7.123-6.8v-1.534
		C93.505,89.073,90.184,92.208,86.112,92.208z"/>
	<rect id="rect159" x="41.21" y="92.208" opacity="0.05" enable-background="new    " width="45.591" height="1.288"/>
	<rect id="rect161" x="42.551" y="92.208" opacity="0.05" enable-background="new    " width="41.568" height="1.288"/>
	<rect id="rect163" x="42.551" y="93.496" opacity="0.05" enable-background="new    " width="41.568" height="1.288"/>
	<rect id="rect165" x="45.232" y="93.496" opacity="0.05" enable-background="new    " width="37.546" height="1.288"/>
	<rect id="rect167" x="49.255" y="93.496" opacity="0.05" enable-background="new    " width="29.5" height="1.288"/>
	<rect id="rect169" x="54.619" y="93.496" opacity="0.05" enable-background="new    " width="18.773" height="1.288"/>
	<rect id="rect171" x="45.232" y="92.208" opacity="0.05" enable-background="new    " width="37.546" height="1.288"/>
	<rect id="rect173" x="47.914" y="92.208" opacity="0.05" enable-background="new    " width="32.182" height="1.288"/>
	<rect id="rect175" x="49.255" y="92.208" opacity="0.05" enable-background="new    " width="29.5" height="1.288"/>
	<rect id="rect177" x="51.937" y="92.208" opacity="0.05" enable-background="new    " width="24.136" height="1.288"/>
	<rect id="rect179" x="51.937" y="92.208" opacity="0.05" enable-background="new    " width="24.136" height="1.288"/>
</g>
<path fill="#C4DCED" stroke="#9DBCD7" stroke-miterlimit="10" d="M92.972,84.307c0,4.212-3.415,7.627-7.627,7.627h-42.68
	c-4.212,0-7.627-3.415-7.627-7.627v-42.68c0-4.212,3.415-7.627,7.627-7.627h42.681c4.212,0,7.627,3.415,7.627,7.627V84.307z"/>
<path opacity="0.5" fill="none" stroke="#FFFFFF" stroke-miterlimit="10" enable-background="new    " d="M91.956,84.307
	c0,3.651-2.96,6.611-6.611,6.611h-42.68c-3.651,0-6.611-2.96-6.611-6.611v-42.68c0-3.651,2.96-6.611,6.611-6.611h42.68
	c3.651,0,6.611,2.96,6.611,6.611V84.307z"/>
<path opacity="0.08" fill="none" stroke="#000000" stroke-miterlimit="10" enable-background="new    " d="M93.189,50.997
	c0,0,0-2.563-2.531-2.563c-7.347,0-30.807,0.004-32.907,0.004c-2.552,0-2.531-2.526-2.531-2.526s0-2.543-2.531-2.543
	c-4.431,0-13.306,0-15.188,0c-2.492,0-2.531,2.451-2.531,2.528"/>
<path opacity="0.05" fill="none" stroke="#000000" stroke-miterlimit="10" enable-background="new    " d="M93.178,50.488
	c0,0,0-2.563-2.531-2.563c-7.347,0-30.807,0.004-32.907,0.004c-2.552,0-2.531-2.526-2.531-2.526s0-2.543-2.531-2.543
	c-4.431,0-13.306,0-15.188,0c-2.492,0-2.531,2.451-2.531,2.528"/>
<path opacity="0.03" fill="none" stroke="#000000" stroke-miterlimit="10" enable-background="new    " d="M93.178,50.002
	c0,0,0-2.563-2.531-2.563c-7.347,0-30.807,0.004-32.907,0.004c-2.552,0-2.531-2.526-2.531-2.526s0-2.543-2.531-2.543
	c-4.431,0-13.306,0-15.188,0c-2.492,0-2.531,2.451-2.531,2.528"/>
<linearGradient id="SVGID_1_" gradientUnits="userSpaceOnUse" x1="886.0052" y1="-989.9344" x2="886.0052" y2="-942.1639" gradientTransform="matrix(1 0 0 -1 -822 -898)">
	<stop  offset="0" style="stop-color:#D1E0ED"/>
	<stop  offset="1" style="stop-color:#E4EEFB"/>
</linearGradient>
<path fill="url(#SVGID_1_)" stroke="#9DBCD7" stroke-miterlimit="10" d="M42.648,91.934h42.84c4.212,0,7.484-3.502,7.484-7.714
	V50.019c0-0.6-0.897-1.166-2.092-1.166c-7.379,0-30.905,0.004-33.014,0.004c-2.563,0-2.524-2.338-2.524-2.338
	s0.018-2.355-2.525-2.355c-4.45,0-13.364,0-15.254,0c-2.503,0-2.526,2.075-2.526,2.153v37.903
	C35.038,88.432,38.436,91.934,42.648,91.934z"/>
<path fill="none" stroke="#FFFFFF" stroke-miterlimit="10" d="M42.648,90.918c-3.636,0-6.594-3.004-6.594-6.698V46.317
	c0-0.048,0.008-0.454,0.309-0.756c0.252-0.253,0.656-0.381,1.2-0.381h15.254c0.602,0,0.908,0.072,1.091,0.256
	c0.405,0.407,0.423,1.028,0.423,1.035c-0.002,0.133,0.006,1.459,0.988,2.456c0.626,0.635,1.484,0.957,2.551,0.957
	c0,0,28.2-0.011,33.008-0.011c0.635,0,0.987,0.218,1.077,0.323v34.024c0,3.694-2.901,6.698-6.468,6.698h-42.84V90.918z"/>
<radialGradient id="SVGID_2_" cx="1168.1434" cy="819.2701" r="46.4534" gradientTransform="matrix(0.0197 0.9998 0.9109 -0.018 -707.3493 -1098.2991)" gradientUnits="userSpaceOnUse">
	<stop  offset="0" style="stop-color:#FFFFFF;stop-opacity:0.6"/>
	<stop  offset="0.3783" style="stop-color:#FAFCFE;stop-opacity:0.4487"/>
	<stop  offset="0.829" style="stop-color:#EBF3FC;stop-opacity:0.2684"/>
	<stop  offset="1" style="stop-color:#E4EEFB;stop-opacity:0.2"/>
</radialGradient>
<path fill="url(#SVGID_2_)" d="M42.648,90.918c-3.636,0-6.594-3.004-6.594-6.698V46.317c0-0.048,0.008-0.454,0.309-0.756
	c0.252-0.253,0.656-0.381,1.2-0.381h15.254c0.602,0,0.908,0.072,1.091,0.256c0.405,0.407,0.423,1.028,0.423,1.035
	c-0.002,0.133,0.006,1.459,0.988,2.456c0.626,0.635,1.484,0.957,2.551,0.957c0,0,28.2-0.011,33.008-0.011
	c0.635,0,0.987,0.218,1.077,0.323v34.024c0,3.694-2.901,6.698-6.468,6.698h-42.84V90.918z"/>
<g id="g27_1_">
	
		<linearGradient id="path36_2_" gradientUnits="userSpaceOnUse" x1="1270.9509" y1="-1749.3695" x2="1278.9996" y2="-1763.3102" gradientTransform="matrix(1 0 0 -1 -1234 -1716)">
		<stop  offset="0" style="stop-color:#FFFFFF"/>
		<stop  offset="0.5" style="stop-color:#FFFFFF;stop-opacity:0.6"/>
		<stop  offset="1" style="stop-color:#FFFFFF;stop-opacity:0.15"/>
	</linearGradient>
	<path id="path36_1_" fill="url(#path36_2_)" d="M43.587,49.679c0.9-1.863,1.998-3.608,3.258-5.221l-2.292-5.027
		c-1.958,1.851-3.547,3.89-4.816,5.871L43.587,49.679z"/>
	
		<linearGradient id="path45_2_" gradientUnits="userSpaceOnUse" x1="1278.2488" y1="-1747.282" x2="1283.5162" y2="-1756.4056" gradientTransform="matrix(1 0 0 -1 -1234 -1716)">
		<stop  offset="0" style="stop-color:#FFFFFF"/>
		<stop  offset="0.5" style="stop-color:#FFFFFF;stop-opacity:0.6"/>
		<stop  offset="1" style="stop-color:#FFFFFF;stop-opacity:0.15"/>
	</linearGradient>
	<path id="path45_1_" fill="url(#path45_2_)" d="M43.826,34.599l1.198,2.626c1.153-0.957,2.417-1.287,3.795-2.626H43.826z"/>
	
		<linearGradient id="path54_2_" gradientUnits="userSpaceOnUse" x1="1279.9055" y1="-1745.5494" x2="1286.3414" y2="-1756.6967" gradientTransform="matrix(1 0 0 -1 -1234 -1716)">
		<stop  offset="0" style="stop-color:#FFFFFF"/>
		<stop  offset="0.5" style="stop-color:#FFFFFF;stop-opacity:0.6"/>
		<stop  offset="1" style="stop-color:#FFFFFF;stop-opacity:0.15"/>
	</linearGradient>
	<path id="path54_1_" fill="url(#path54_2_)" d="M52.818,34.599H51.87c-2.391,1.339-4.481,2.361-6.274,3.888l2.197,4.821
		c1.877-2.168,4.055-4.068,6.494-5.603c0.019-0.017,0.032-0.032,0.052-0.049C57.072,35.295,54.358,34.599,52.818,34.599z"/>
	
		<linearGradient id="path63_2_" gradientUnits="userSpaceOnUse" x1="1266.434" y1="-1755.7246" x2="1273.4182" y2="-1767.8217" gradientTransform="matrix(1 0 0 -1 -1234 -1716)">
		<stop  offset="0" style="stop-color:#FFFFFF"/>
		<stop  offset="0.5" style="stop-color:#FFFFFF;stop-opacity:0.6"/>
		<stop  offset="1" style="stop-color:#FFFFFF;stop-opacity:0.15"/>
	</linearGradient>
	<path id="path63_1_" fill="url(#path63_2_)" d="M39.006,46.497c-1.47,2.503-2.431,4.816-3.001,6.397
		c0.675,0.963,1.79,1.595,3.056,1.595c1.567,0,2.905-0.968,3.459-2.336c0.142-0.382,0.315-0.749,0.473-1.125L39.006,46.497z"/>
	
		<linearGradient id="path72_2_" gradientUnits="userSpaceOnUse" x1="1266.12" y1="-1756.2202" x2="1273.8602" y2="-1769.627" gradientTransform="matrix(1 0 0 -1 -1234 -1716)">
		<stop  offset="0" style="stop-color:#FFFFFF"/>
		<stop  offset="0.5" style="stop-color:#FFFFFF;stop-opacity:0.6"/>
		<stop  offset="1" style="stop-color:#FFFFFF;stop-opacity:0.15"/>
	</linearGradient>
	<path id="path72_1_" fill="url(#path72_2_)" d="M35.357,42.345l-0.029,8.405c0,0,0,0.003,0,0.006c0,0.052,0.013,0.102,0.016,0.154
		c0.639-1.555,1.531-3.455,2.741-5.463L35.357,42.345z"/>
	
		<linearGradient id="path149_2_" gradientUnits="userSpaceOnUse" x1="1271.9735" y1="-1752.0216" x2="1279.2416" y2="-1764.6104" gradientTransform="matrix(1 0 0 -1 -1234 -1716)">
		<stop  offset="0" style="stop-color:#FFFFFF"/>
		<stop  offset="0.5" style="stop-color:#FFFFFF;stop-opacity:0.6"/>
		<stop  offset="1" style="stop-color:#FFFFFF;stop-opacity:0.15"/>
	</linearGradient>
	<path id="path149_1_" fill="url(#path149_2_)" d="M42.229,34.615c-2.731-0.227-6.327,2.849-6.788,5.799l3.388,3.853
		c1.352-2.064,3.034-4.178,5.109-6.088L42.229,34.615z"/>
</g>
<g>
	<path opacity="0.3" fill="#FFFFFF" enable-background="new    " d="M63.438,52.946c-0.909,0-1.676,0.77-1.676,1.678v3.462
		c-1.324,0.78-2.238,2.177-2.238,3.812c0,0.732,0.229,1.402,0.542,2.011l-1.068,3.586h-1.712c-0.909,0-1.679,0.769-1.679,1.676
		c0,0.909,0.77,1.678,1.679,1.678h0.717l-0.823,2.728c-0.644,2.162-0.978,4.181-0.996,5.805c-0.008,0.812,0.042,1.515,0.248,2.152
		c0.199,0.636,0.616,1.335,1.414,1.573c0.591,0.171,1.207-0.165,1.382-0.753l3.427-11.506h2.711l3.427,11.506
		c0.178,0.588,0.795,0.924,1.382,0.753c0.798-0.238,1.215-0.938,1.417-1.573c0.201-0.637,0.253-1.339,0.245-2.152
		c-0.016-1.623-0.351-3.643-0.996-5.805l-0.822-2.728h0.7c0.909,0,1.679-0.769,1.679-1.678c0-0.908-0.77-1.676-1.679-1.676H69.02
		l-1.065-3.602c0.306-0.607,0.524-1.27,0.524-1.994c0-1.634-0.914-3.032-2.238-3.812v-3.462c0-0.908-0.77-1.678-1.679-1.678
		L63.438,52.946L63.438,52.946z M63.438,54.064h1.119c0.312,0,0.561,0.249,0.561,0.559v4.11c1.305,0.46,2.238,1.703,2.238,3.164
		c0,0.709-0.22,1.365-0.596,1.907l1.436,4.808h2.518c0.312,0,0.558,0.249,0.558,0.558c0,0.312-0.248,0.561-0.558,0.561h-2.184
		l1.241,4.162c1.239,4.159,1.276,7.795,0.087,8.148l-3.673-12.309h-4.353L58.16,82.04c-1.188-0.354-1.154-3.99,0.087-8.148
		l1.241-4.162h-2.203c-0.312,0-0.561-0.25-0.561-0.561s0.25-0.558,0.561-0.558h2.535l1.433-4.792
		c-0.383-0.544-0.611-1.204-0.611-1.923c0-1.462,0.934-2.704,2.238-3.164v-4.11C62.88,54.313,63.129,54.064,63.438,54.064z
		 M63.998,59.659c-1.236,0-2.238,1.003-2.238,2.238c0,0.181,0.029,0.358,0.069,0.525c0.024,0.103,0.05,0.199,0.087,0.298
		c0.04,0.101,0.085,0.201,0.142,0.298c0.013,0.026,0.034,0.042,0.053,0.069c0.011,0.022,0.019,0.048,0.034,0.069
		c0.027,0.04,0.058,0.069,0.087,0.106c0.061,0.082,0.136,0.173,0.207,0.245c0.058,0.054,0.114,0.107,0.175,0.156
		c0.024,0.019,0.045,0.034,0.069,0.053c0.034,0.024,0.072,0.048,0.106,0.069c0.093,0.058,0.197,0.113,0.298,0.156
		c0.011,0.005,0.022,0.013,0.034,0.019c0.128,0.053,0.263,0.093,0.401,0.122c0.151,0.031,0.312,0.053,0.473,0.053
		c0.167,0,0.332-0.036,0.489-0.072c0.103-0.022,0.199-0.05,0.298-0.086c0.195-0.073,0.377-0.175,0.542-0.297
		c0.083-0.061,0.173-0.122,0.245-0.195c0.072-0.071,0.131-0.146,0.192-0.226c0.058-0.075,0.109-0.163,0.156-0.245
		c0.005-0.008,0.016-0.011,0.019-0.019c0.048-0.085,0.103-0.17,0.142-0.261c0.04-0.099,0.061-0.207,0.085-0.314
		c0.042-0.167,0.072-0.344,0.072-0.525C66.237,60.662,65.234,59.659,63.998,59.659z M63.998,60.779c0.633,0,1.119,0.486,1.119,1.117
		c0,0.057-0.008,0.144-0.034,0.261c-0.031,0.138-0.048,0.187-0.034,0.158c0.011-0.033-0.019,0.015-0.072,0.105
		c-0.005,0.008,0.005,0.008,0,0.018c-0.008,0.015-0.008,0.001-0.016,0.018c-0.048,0.08-0.078,0.131-0.072,0.122
		c-0.067,0.086-0.103,0.106-0.103,0.106c0.029-0.029-0.013,0.024-0.122,0.103c-0.09,0.067-0.175,0.107-0.263,0.142
		c-0.045,0.018-0.095,0.037-0.156,0.052c-0.148,0.033-0.232,0.036-0.245,0.036c-0.067,0-0.156,0-0.245-0.019
		c-0.053-0.011-0.085-0.019-0.122-0.034c0.003-0.001-0.016-0.012-0.069-0.034c-0.011-0.004-0.008,0.003-0.019,0
		c-0.061-0.027-0.122-0.067-0.159-0.087c-0.029-0.02-0.045-0.031-0.05-0.034c-0.016-0.013-0.029-0.012-0.034-0.019
		c-0.003,0-0.034-0.034-0.072-0.069c-0.003-0.005,0.005-0.013,0-0.019c-0.003-0.004-0.053-0.057-0.103-0.122
		c-0.027-0.034-0.037-0.031-0.053-0.052c-0.019-0.027-0.011-0.024-0.016-0.036c-0.011-0.012-0.011-0.005-0.019-0.016
		c-0.008-0.015-0.011-0.005-0.019-0.019c-0.005-0.011-0.024-0.034-0.034-0.052c-0.003-0.004,0.003-0.015,0-0.018
		c-0.008-0.013-0.034-0.053-0.034-0.053c-0.003-0.005,0.003-0.011,0-0.018c-0.005-0.015-0.011-0.06-0.034-0.158
		c-0.027-0.117-0.034-0.204-0.034-0.261C62.88,61.266,63.365,60.779,63.998,60.779z M63.211,65.149l-1.031,3.464h3.67l-1.031-3.464
		c-0.263,0.067-0.539,0.106-0.822,0.106C63.728,65.255,63.463,65.21,63.211,65.149z M63.998,66.375c0.005,0,0.011,0,0.016,0
		l0.351,1.119h-0.7L63.998,66.375z"/>
	<path opacity="0.3" fill="#FFFFFF" enable-background="new    " d="M63.438,53.488c-0.622,0-1.135,0.513-1.135,1.137v3.776
		c-1.316,0.64-2.238,1.944-2.238,3.496c0,0.721,0.22,1.378,0.558,1.958l-1.241,4.179h-2.097c-0.622,0-1.138,0.513-1.138,1.135
		c0,0.623,0.516,1.138,1.138,1.138H58.7l-1.015,3.41c-0.633,2.122-0.962,4.111-0.978,5.664c-0.008,0.776,0.053,1.444,0.226,1.994
		c0.175,0.55,0.489,1.057,1.049,1.223c0.306,0.098,0.636-0.072,0.734-0.38c0-0.001,0-0.003,0-0.004l3.551-11.907h3.48l3.548,11.907
		c0.095,0.309,0.42,0.481,0.728,0.385c0.003,0,0.005,0,0.005,0c0.561-0.167,0.878-0.675,1.049-1.225
		c0.175-0.55,0.237-1.218,0.229-1.994c-0.019-1.553-0.348-3.544-0.981-5.664l-1.012-3.41h1.398c0.622,0,1.138-0.514,1.138-1.138
		c0-0.622-0.516-1.135-1.138-1.135h-2.081l-1.241-4.197c0.33-0.577,0.542-1.23,0.542-1.942c0-1.554-0.923-2.858-2.238-3.496v-3.776
		c0-0.623-0.513-1.137-1.138-1.137h-1.115V53.488z M63.438,54.064h1.119c0.312,0,0.561,0.249,0.561,0.559v4.11
		c1.305,0.46,2.238,1.703,2.238,3.164c0,0.709-0.22,1.365-0.596,1.907l1.436,4.808h2.518c0.312,0,0.558,0.249,0.558,0.558
		c0,0.312-0.248,0.561-0.558,0.561h-2.184l1.241,4.162c1.239,4.159,1.276,7.795,0.087,8.148l-3.673-12.309h-4.353L58.16,82.04
		c-1.188-0.354-1.154-3.99,0.087-8.148l1.241-4.162h-2.203c-0.312,0-0.561-0.25-0.561-0.561s0.25-0.558,0.561-0.558h2.535
		l1.433-4.792c-0.383-0.544-0.611-1.204-0.611-1.923c0-1.462,0.934-2.704,2.238-3.164v-4.11
		C62.88,54.313,63.129,54.064,63.438,54.064z M63.998,59.659c-1.236,0-2.238,1.003-2.238,2.238c0,0.181,0.029,0.358,0.069,0.525
		c0.024,0.103,0.05,0.199,0.087,0.298c0.04,0.101,0.085,0.201,0.142,0.298c0.013,0.026,0.034,0.042,0.053,0.069
		c0.011,0.022,0.019,0.048,0.034,0.069c0.027,0.04,0.058,0.069,0.087,0.106c0.061,0.082,0.136,0.173,0.207,0.245
		c0.058,0.054,0.114,0.107,0.175,0.156c0.024,0.019,0.045,0.034,0.069,0.053c0.034,0.024,0.072,0.048,0.106,0.069
		c0.093,0.058,0.197,0.113,0.298,0.156c0.011,0.005,0.022,0.013,0.034,0.019c0.128,0.053,0.263,0.093,0.401,0.122
		c0.151,0.031,0.312,0.053,0.473,0.053c0.167,0,0.332-0.036,0.489-0.072c0.103-0.022,0.199-0.05,0.298-0.086
		c0.195-0.073,0.377-0.175,0.542-0.297c0.083-0.061,0.173-0.122,0.245-0.195c0.072-0.071,0.131-0.146,0.192-0.226
		c0.058-0.075,0.109-0.163,0.156-0.245c0.005-0.008,0.016-0.011,0.019-0.019c0.048-0.085,0.103-0.17,0.142-0.261
		c0.04-0.099,0.061-0.207,0.085-0.314c0.042-0.167,0.072-0.344,0.072-0.525C66.237,60.662,65.234,59.659,63.998,59.659z
		 M63.998,60.238c0.92,0,1.662,0.739,1.662,1.66c0,0.116-0.019,0.244-0.053,0.385c-0.029,0.122-0.056,0.211-0.069,0.245
		c-0.011,0.024-0.048,0.073-0.106,0.174c-0.005,0.008,0.005,0.011,0,0.019c-0.005,0.005-0.011-0.008-0.016,0
		c-0.048,0.08-0.08,0.159-0.106,0.192c-0.064,0.085-0.103,0.124-0.139,0.158c-0.022,0.02-0.095,0.069-0.195,0.14
		c-0.125,0.093-0.263,0.175-0.401,0.227c-0.072,0.027-0.128,0.033-0.21,0.052c-0.154,0.034-0.279,0.072-0.367,0.072
		c-0.111,0-0.234-0.029-0.351-0.053c-0.095-0.022-0.184-0.041-0.263-0.071c0.003-0.001-0.008-0.007-0.031-0.018
		c-0.008-0.003-0.008,0.005-0.019,0c-0.08-0.036-0.165-0.083-0.229-0.122c-0.027-0.019-0.05-0.04-0.069-0.053
		c-0.005-0.003-0.013,0.004-0.019,0c-0.013-0.011-0.022-0.027-0.034-0.034c-0.029-0.024-0.083-0.067-0.139-0.122
		c-0.037-0.037-0.103-0.101-0.159-0.175c-0.069-0.09-0.078-0.125-0.05-0.087c0.064,0.095,0.045,0.078-0.034-0.052
		c-0.024-0.033-0.027-0.037-0.037-0.052c-0.034-0.061-0.072-0.127-0.103-0.21c-0.022-0.054-0.045-0.128-0.069-0.227
		c-0.034-0.142-0.053-0.269-0.053-0.385C62.337,60.976,63.076,60.238,63.998,60.238z M63.211,65.149l-1.031,3.464h3.67l-1.031-3.464
		c-0.263,0.067-0.539,0.106-0.822,0.106C63.728,65.255,63.463,65.21,63.211,65.149z M63.631,65.779
		c0.125,0.015,0.234,0.053,0.367,0.053c0.142,0,0.265-0.037,0.401-0.053l0.664,2.256h-2.097L63.631,65.779z"/>
	<path opacity="0.3" fill="#669CCC" enable-background="new    " d="M63.438,54.064c-0.309,0-0.558,0.249-0.558,0.559v4.11
		c-1.305,0.46-2.238,1.703-2.238,3.164c0,0.718,0.229,1.378,0.611,1.923l-1.433,4.792h-2.535c-0.312,0-0.561,0.249-0.561,0.558
		c0,0.312,0.25,0.561,0.561,0.561h2.203l-1.241,4.162c-1.241,4.159-1.276,7.795-0.087,8.148l3.67-12.309h4.353l3.673,12.309
		c1.188-0.354,1.151-3.99-0.087-8.148l-1.241-4.162h2.184c0.312,0,0.558-0.25,0.558-0.561s-0.248-0.558-0.558-0.558h-2.518
		l-1.436-4.808c0.374-0.542,0.596-1.198,0.596-1.907c0-1.462-0.934-2.704-2.238-3.164v-4.11c0-0.31-0.25-0.559-0.561-0.559
		C64.555,54.064,63.438,54.064,63.438,54.064z M63.998,59.659c1.236,0,2.238,1.003,2.238,2.238c0,0.181-0.029,0.358-0.072,0.525
		c-0.024,0.107-0.045,0.215-0.085,0.314c-0.037,0.091-0.093,0.177-0.142,0.261c-0.003,0.008-0.013,0.011-0.019,0.019
		c-0.048,0.082-0.098,0.17-0.156,0.245c-0.061,0.08-0.12,0.155-0.192,0.226c-0.072,0.072-0.162,0.134-0.245,0.195
		c-0.165,0.121-0.348,0.223-0.542,0.297c-0.098,0.036-0.195,0.065-0.298,0.086c-0.156,0.036-0.321,0.072-0.489,0.072
		c-0.162,0-0.321-0.022-0.473-0.053c-0.139-0.029-0.273-0.069-0.401-0.122c-0.013-0.005-0.024-0.013-0.034-0.019
		c-0.101-0.044-0.204-0.098-0.298-0.156c-0.034-0.022-0.072-0.045-0.106-0.069c-0.024-0.019-0.045-0.034-0.069-0.053
		c-0.061-0.049-0.117-0.102-0.175-0.156c-0.072-0.072-0.146-0.163-0.207-0.245c-0.029-0.037-0.061-0.067-0.087-0.106
		c-0.016-0.022-0.024-0.048-0.034-0.069c-0.019-0.027-0.04-0.044-0.053-0.069c-0.056-0.095-0.101-0.197-0.142-0.298
		c-0.037-0.098-0.064-0.195-0.087-0.298c-0.04-0.167-0.069-0.344-0.069-0.525C61.76,60.662,62.762,59.659,63.998,59.659z
		 M63.211,65.149c0.253,0.061,0.516,0.106,0.787,0.106c0.282,0,0.558-0.04,0.822-0.106l1.031,3.464h-3.67L63.211,65.149z"/>
	<path opacity="0.3" fill="#669CCC" enable-background="new    " d="M63.438,54.064c-0.309,0-0.558,0.249-0.558,0.559v4.11
		c-1.305,0.46-2.238,1.703-2.238,3.164c0,0.718,0.229,1.378,0.611,1.923l-1.433,4.792h-2.535c-0.312,0-0.561,0.249-0.561,0.558
		c0,0.312,0.25,0.561,0.561,0.561h2.203l-1.241,4.162c-1.241,4.159-1.276,7.795-0.087,8.148l3.67-12.309h4.353l3.673,12.309
		c1.188-0.354,1.151-3.99-0.087-8.148l-1.241-4.162h2.184c0.312,0,0.558-0.25,0.558-0.561s-0.248-0.558-0.558-0.558h-2.518
		l-1.436-4.808c0.374-0.542,0.596-1.198,0.596-1.907c0-1.462-0.934-2.704-2.238-3.164v-4.11c0-0.31-0.25-0.559-0.561-0.559
		C64.555,54.064,63.438,54.064,63.438,54.064z M63.998,59.659c1.236,0,2.238,1.003,2.238,2.238c0,0.181-0.029,0.358-0.072,0.525
		c-0.024,0.107-0.045,0.215-0.085,0.314c-0.037,0.091-0.093,0.177-0.142,0.261c-0.003,0.008-0.013,0.011-0.019,0.019
		c-0.048,0.082-0.098,0.17-0.156,0.245c-0.061,0.08-0.12,0.155-0.192,0.226c-0.072,0.072-0.162,0.134-0.245,0.195
		c-0.165,0.121-0.348,0.223-0.542,0.297c-0.098,0.036-0.195,0.065-0.298,0.086c-0.156,0.036-0.321,0.072-0.489,0.072
		c-0.162,0-0.321-0.022-0.473-0.053c-0.139-0.029-0.273-0.069-0.401-0.122c-0.013-0.005-0.024-0.013-0.034-0.019
		c-0.101-0.044-0.204-0.098-0.298-0.156c-0.034-0.022-0.072-0.045-0.106-0.069c-0.024-0.019-0.045-0.034-0.069-0.053
		c-0.061-0.049-0.117-0.102-0.175-0.156c-0.072-0.072-0.146-0.163-0.207-0.245c-0.029-0.037-0.061-0.067-0.087-0.106
		c-0.016-0.022-0.024-0.048-0.034-0.069c-0.019-0.027-0.04-0.044-0.053-0.069c-0.056-0.095-0.101-0.197-0.142-0.298
		c-0.037-0.098-0.064-0.195-0.087-0.298c-0.04-0.167-0.069-0.344-0.069-0.525C61.76,60.662,62.762,59.659,63.998,59.659z
		 M65.85,64.66l0.034,0.105c-0.016-0.03-0.034-0.058-0.053-0.087C65.841,64.674,65.845,64.664,65.85,64.66z M62.146,64.694
		c0.011,0.008,0.022,0.029,0.034,0.034c-0.013,0.034-0.027,0.071-0.034,0.106l-1.034,3.461c-0.058,0.195-0.064,0.399-0.016,0.596
		c0,0.005,0,0.012,0,0.018c-0.156,0.138-0.271,0.31-0.332,0.508l-1.539,5.122c0.031-0.114,0.053-0.215,0.087-0.331l1.241-4.163
		c0.061-0.199,0.069-0.41,0.019-0.611c0.148-0.139,0.256-0.312,0.313-0.508L62.146,64.694z M65.886,64.836l1.241,4.091
		c0.058,0.196,0.167,0.369,0.316,0.508c-0.05,0.201-0.045,0.414,0.016,0.611l1.241,4.163c0.034,0.116,0.056,0.216,0.087,0.331
		l-1.539-5.122c-0.056-0.196-0.165-0.369-0.313-0.508c0.05-0.2,0.045-0.414-0.019-0.612L65.886,64.836z M63.211,65.149
		c0.253,0.061,0.516,0.106,0.787,0.106c0.282,0,0.558-0.04,0.822-0.106l1.031,3.464h-3.67L63.211,65.149z"/>
	<path opacity="0.3" fill="#669CCC" enable-background="new    " d="M63.438,54.064c-0.309,0-0.558,0.249-0.558,0.559v0.559
		c0-0.31,0.25-0.559,0.558-0.559h1.119c0.312,0,0.561,0.249,0.561,0.559v-0.559c0-0.31-0.25-0.559-0.561-0.559H63.438z
		 M62.88,58.732c-1.305,0.46-2.238,1.703-2.238,3.164c0,0.097,0.011,0.188,0.019,0.281c0.109-1.339,0.999-2.455,2.22-2.885V58.732z
		 M65.117,58.732v0.559c1.219,0.43,2.111,1.546,2.22,2.885c0.008-0.093,0.019-0.187,0.019-0.281
		C67.356,60.435,66.422,59.192,65.117,58.732z M61.795,62.212c-0.008,0.082-0.034,0.162-0.034,0.245
		c0,0.181,0.029,0.358,0.069,0.525c0.024,0.105,0.05,0.199,0.087,0.297c0.04,0.102,0.085,0.204,0.142,0.298
		c0.013,0.027,0.034,0.045,0.053,0.071c0.011,0.023,0.019,0.049,0.034,0.071c0.027,0.038,0.058,0.067,0.087,0.103
		c0.061,0.083,0.136,0.173,0.207,0.245c0.058,0.056,0.114,0.109,0.175,0.158c0.024,0.019,0.045,0.036,0.069,0.052
		c0.034,0.026,0.072,0.048,0.106,0.072c0.093,0.058,0.197,0.111,0.298,0.156c0.011,0.005,0.022,0.012,0.034,0.018
		c0.128,0.052,0.263,0.091,0.401,0.122c0.151,0.03,0.312,0.052,0.473,0.052c0.167,0,0.332-0.034,0.489-0.069
		c0.103-0.024,0.199-0.05,0.298-0.087c0.195-0.073,0.377-0.175,0.542-0.298c0.083-0.061,0.173-0.121,0.245-0.192
		c0.072-0.072,0.131-0.146,0.192-0.229c0.058-0.073,0.109-0.162,0.156-0.245c0.005-0.005,0.016-0.011,0.019-0.016
		c0.048-0.085,0.103-0.171,0.142-0.263c0.04-0.101,0.061-0.207,0.085-0.314c0.042-0.167,0.072-0.344,0.072-0.525
		c0-0.083-0.027-0.163-0.034-0.245c-0.013,0.069-0.022,0.143-0.037,0.21c-0.024,0.107-0.045,0.215-0.085,0.314
		c-0.037,0.091-0.093,0.177-0.142,0.261c-0.003,0.008-0.013,0.011-0.019,0.019c-0.048,0.082-0.098,0.17-0.156,0.245
		c-0.061,0.08-0.12,0.155-0.192,0.226c-0.072,0.072-0.162,0.134-0.245,0.195c-0.165,0.121-0.348,0.223-0.542,0.297
		c-0.098,0.036-0.195,0.065-0.298,0.086c-0.156,0.036-0.321,0.072-0.489,0.072c-0.162,0-0.321-0.022-0.473-0.053
		c-0.139-0.029-0.273-0.069-0.401-0.122c-0.013-0.005-0.024-0.013-0.034-0.019c-0.101-0.044-0.204-0.098-0.298-0.156
		c-0.034-0.022-0.072-0.045-0.106-0.069c-0.024-0.019-0.045-0.034-0.069-0.053c-0.061-0.049-0.117-0.102-0.175-0.156
		c-0.072-0.072-0.146-0.163-0.207-0.245c-0.029-0.037-0.061-0.067-0.087-0.106c-0.016-0.022-0.024-0.048-0.034-0.069
		c-0.019-0.027-0.04-0.044-0.053-0.069c-0.056-0.095-0.101-0.197-0.142-0.298c-0.037-0.098-0.064-0.195-0.087-0.298
		C61.814,62.356,61.806,62.281,61.795,62.212z M66.866,64.172c-0.04,0.064-0.064,0.131-0.106,0.192l1.436,4.808h2.518
		c0.204,0,0.374,0.117,0.473,0.281c0.05-0.085,0.085-0.174,0.085-0.281c0-0.31-0.248-0.558-0.558-0.558h-2.518L66.866,64.172z
		 M61.148,64.188l-1.329,4.424h-2.535c-0.312,0-0.561,0.249-0.561,0.558c0,0.106,0.037,0.197,0.087,0.281
		c0.098-0.163,0.268-0.281,0.473-0.281h2.535l1.433-4.79C61.21,64.323,61.184,64.249,61.148,64.188z M62.355,68.612L62.18,69.17
		h3.67l-0.175-0.558H62.355z M59.313,70.291l-1.065,3.601c-0.672,2.252-0.984,4.349-0.946,5.857
		c0.042-1.447,0.354-3.311,0.946-5.298l1.241-4.162h-0.175L59.313,70.291L59.313,70.291z M68.527,70.291l1.241,4.162
		c0.593,1.987,0.904,3.85,0.943,5.298c0.037-1.507-0.273-3.604-0.943-5.857L68.7,70.293h-0.173L68.527,70.291L68.527,70.291z"/>
	<path opacity="0.3" fill="#669CCC" enable-background="new    " d="M63.438,54.064c-0.309,0-0.558,0.249-0.558,0.559v4.11
		c-1.305,0.46-2.238,1.703-2.238,3.164c0,0.718,0.229,1.378,0.611,1.923l-1.433,4.792h-2.535c-0.312,0-0.561,0.249-0.561,0.558
		c0,0.312,0.25,0.561,0.561,0.561h2.203l-1.241,4.162c-1.241,4.159-1.276,7.795-0.087,8.148l3.67-12.309h4.353l3.673,12.309
		c1.188-0.354,1.151-3.99-0.087-8.148l-1.241-4.162h2.184c0.312,0,0.558-0.25,0.558-0.561s-0.248-0.558-0.558-0.558h-2.518
		l-1.436-4.808c0.374-0.542,0.596-1.198,0.596-1.907c0-1.462-0.934-2.704-2.238-3.164v-4.11c0-0.31-0.25-0.559-0.561-0.559
		C64.555,54.064,63.438,54.064,63.438,54.064z M63.438,54.624h1.119v4.11c0,0.234,0.148,0.444,0.369,0.524
		c0.027,0.011,0.042,0.042,0.069,0.053c-0.313-0.122-0.644-0.209-0.996-0.209s-0.686,0.087-0.996,0.209
		c0.027-0.011,0.04-0.042,0.069-0.053c0.22-0.08,0.367-0.29,0.367-0.524L63.438,54.624L63.438,54.624z M63.998,59.659
		c1.236,0,2.238,1.003,2.238,2.238c0,0.181-0.029,0.358-0.072,0.525c-0.024,0.107-0.045,0.215-0.085,0.314
		c-0.037,0.091-0.093,0.177-0.142,0.261c-0.003,0.008-0.013,0.011-0.019,0.019c-0.048,0.082-0.098,0.17-0.156,0.245
		c-0.061,0.08-0.12,0.155-0.192,0.226c-0.072,0.072-0.162,0.134-0.245,0.195c-0.165,0.121-0.348,0.223-0.542,0.297
		c-0.098,0.036-0.195,0.065-0.298,0.086c-0.156,0.036-0.321,0.072-0.489,0.072c-0.162,0-0.321-0.022-0.473-0.053
		c-0.139-0.029-0.273-0.069-0.401-0.122c-0.013-0.005-0.024-0.013-0.034-0.019c-0.101-0.044-0.204-0.098-0.298-0.156
		c-0.034-0.022-0.072-0.045-0.106-0.069c-0.024-0.019-0.045-0.034-0.069-0.053c-0.061-0.049-0.117-0.102-0.175-0.156
		c-0.072-0.072-0.146-0.163-0.207-0.245c-0.029-0.037-0.061-0.067-0.087-0.106c-0.016-0.022-0.024-0.048-0.034-0.069
		c-0.019-0.027-0.04-0.044-0.053-0.069c-0.056-0.095-0.101-0.197-0.142-0.298c-0.037-0.098-0.064-0.195-0.087-0.298
		c-0.04-0.167-0.069-0.344-0.069-0.525C61.76,60.662,62.762,59.659,63.998,59.659z M66.324,63.419
		c-0.013,0.02-0.005,0.05-0.019,0.069c-0.011,0.012-0.024,0.024-0.034,0.036C66.296,63.491,66.305,63.449,66.324,63.419z
		 M61.742,63.541c0.013,0.015,0.058,0.058,0.053,0.053c0.069,0.09,0.154,0.208,0.263,0.313c0.056,0.056,0.117,0.12,0.209,0.193
		c0.029,0.026,0.058,0.05,0.087,0.071c0.048,0.034,0.101,0.064,0.139,0.087c0.122,0.078,0.245,0.138,0.367,0.192
		c-0.042-0.019-0.019-0.013,0.053,0.019c0,0.005,0,0.011,0,0.016c0.12,0.05,0.232,0.078,0.348,0.106
		c-0.268-0.029-0.518,0.142-0.593,0.401l-1.031,3.462c-0.093,0.295,0.072,0.608,0.367,0.701c0.024,0.008,0.048,0.013,0.069,0.016
		h-0.245c-0.25-0.001-0.471,0.162-0.542,0.404l-3.304,11.046c-0.069-0.347-0.146-0.698-0.142-1.222
		c0.016-1.398,0.338-3.314,0.943-5.352l1.244-4.162c0.09-0.295-0.075-0.608-0.369-0.701c-0.024-0.007-0.045-0.012-0.069-0.018h0.229
		c0.25,0.003,0.471-0.16,0.539-0.401l1.436-4.792C61.837,63.831,61.818,63.674,61.742,63.541z M66.237,63.576
		c-0.05,0.122-0.058,0.259-0.019,0.385l1.436,4.808c0.069,0.241,0.29,0.404,0.542,0.401h0.226c-0.303,0.054-0.508,0.346-0.452,0.649
		c0.003,0.024,0.008,0.048,0.016,0.069l1.241,4.162c0.608,2.038,0.931,3.954,0.943,5.352c0.005,0.525-0.072,0.876-0.142,1.222
		l-3.304-11.049c-0.069-0.242-0.293-0.406-0.542-0.404h-0.226c0.303-0.053,0.508-0.343,0.452-0.648
		c-0.003-0.024-0.008-0.046-0.016-0.069l-1.031-3.462c-0.085-0.293-0.388-0.463-0.683-0.385c-0.022,0.005-0.045-0.005-0.069,0
		c0.125-0.027,0.245-0.058,0.367-0.103c0.25-0.093,0.482-0.219,0.683-0.367c0.069-0.052,0.173-0.125,0.298-0.246
		c0.109-0.107,0.184-0.2,0.245-0.281C66.212,63.596,66.226,63.589,66.237,63.576z M63.211,65.149
		c0.253,0.061,0.516,0.106,0.787,0.106c0.282,0,0.558-0.04,0.822-0.106l1.031,3.464h-3.67L63.211,65.149z"/>
	<path opacity="0.3" fill="#FFFFFF" enable-background="new    " d="M63.998,59.659c-1.236,0-2.238,1.003-2.238,2.238
		c0,0.109,0.016,0.211,0.034,0.314c0.122-1.12,1.049-1.994,2.203-1.994s2.078,0.874,2.203,1.994
		c0.016-0.103,0.034-0.205,0.034-0.314C66.237,60.662,65.234,59.659,63.998,59.659z M60.66,62.178
		c-0.008,0.091-0.019,0.187-0.019,0.279c0,0.641,0.195,1.222,0.508,1.731l0.103-0.369C60.92,63.347,60.71,62.785,60.66,62.178z
		 M67.336,62.178c-0.048,0.6-0.253,1.157-0.577,1.626l0.106,0.367c0.301-0.502,0.489-1.085,0.489-1.715
		C67.356,62.363,67.344,62.269,67.336,62.178z M63.211,65.149l-1.031,3.464h0.175l0.856-2.903c0.253,0.06,0.516,0.103,0.787,0.103
		c0.282,0,0.558-0.04,0.822-0.103l0.856,2.903h0.175l-1.031-3.464c-0.263,0.067-0.539,0.106-0.822,0.106
		C63.728,65.255,63.463,65.21,63.211,65.149z M56.811,69.451c-0.05,0.085-0.087,0.174-0.087,0.281c0,0.312,0.25,0.559,0.561,0.559
		h2.028l0.175-0.559h-2.203C57.08,69.731,56.909,69.615,56.811,69.451z M71.185,69.451c-0.098,0.163-0.268,0.281-0.473,0.281h-2.184
		L68.7,70.29h2.013c0.312,0,0.558-0.249,0.558-0.559C71.271,69.625,71.235,69.535,71.185,69.451z M61.829,69.731l-3.67,12.309
		c-0.544-0.163-0.823-1.015-0.859-2.292c-0.042,1.581,0.237,2.666,0.859,2.851l3.67-12.309h4.353l3.673,12.309
		c0.619-0.185,0.898-1.27,0.856-2.851c-0.031,1.276-0.313,2.127-0.856,2.292l-3.673-12.309H61.829z"/>
</g>
</svg>
