<?xml version="1.0" encoding="utf-8"?>
<!-- Generator: Adobe Illustrator 17.0.0, SVG Export Plug-In . SVG Version: 6.00 Build 0)  -->
<!DOCTYPE svg PUBLIC "-//W3C//DTD SVG 1.1//EN" "http://www.w3.org/Graphics/SVG/1.1/DTD/svg11.dtd">
<svg version="1.1" id="图层_1" xmlns="http://www.w3.org/2000/svg" xmlns:xlink="http://www.w3.org/1999/xlink" x="0px" y="0px"
	 width="64px" height="64px" viewBox="32 32 64 64" enable-background="new 32 32 64 64" xml:space="preserve">
<g id="g151" opacity="0.5">
	<path id="path153" opacity="0.08" enable-background="new    " d="M86.149,92.208h-44.25c-4.074,0-7.394-3.194-7.394-7.106v5.435
		c0,3.057,2.597,5.535,5.779,5.535h47.478c3.182,0,5.743-2.478,5.743-5.535v-5.435C93.505,89.015,90.221,92.208,86.149,92.208z"/>
	<path id="path155" opacity="0.1" enable-background="new    " d="M86.112,92.208h-44.25c-4.072,0-7.356-3.135-7.356-7.047v2.843
		c0,3.057,1.402,6.781,7.084,6.781s39.037,0,44.793,0c5.756,0,7.123-3.724,7.123-6.781v-2.843
		C93.505,89.073,90.184,92.208,86.112,92.208z"/>
	<path id="path157" opacity="0.1" enable-background="new    " d="M86.112,92.208h-44.25c-4.072,0-7.356-3.135-7.356-7.047v1.534
		c0,3.058,2.432,6.802,7.084,6.802s39.468,0,44.793,0c5.326,0,7.123-3.744,7.123-6.8v-1.534
		C93.505,89.073,90.184,92.208,86.112,92.208z"/>
	<rect id="rect159" x="41.21" y="92.208" opacity="0.05" enable-background="new    " width="45.591" height="1.288"/>
	<rect id="rect161" x="42.551" y="92.208" opacity="0.05" enable-background="new    " width="41.568" height="1.288"/>
	<rect id="rect163" x="42.551" y="93.496" opacity="0.05" enable-background="new    " width="41.568" height="1.288"/>
	<rect id="rect165" x="45.232" y="93.496" opacity="0.05" enable-background="new    " width="37.546" height="1.288"/>
	<rect id="rect167" x="49.255" y="93.496" opacity="0.05" enable-background="new    " width="29.5" height="1.288"/>
	<rect id="rect169" x="54.619" y="93.496" opacity="0.05" enable-background="new    " width="18.773" height="1.288"/>
	<rect id="rect171" x="45.232" y="92.208" opacity="0.05" enable-background="new    " width="37.546" height="1.288"/>
	<rect id="rect173" x="47.914" y="92.208" opacity="0.05" enable-background="new    " width="32.182" height="1.288"/>
	<rect id="rect175" x="49.255" y="92.208" opacity="0.05" enable-background="new    " width="29.5" height="1.288"/>
	<rect id="rect177" x="51.937" y="92.208" opacity="0.05" enable-background="new    " width="24.136" height="1.288"/>
	<rect id="rect179" x="51.937" y="92.208" opacity="0.05" enable-background="new    " width="24.136" height="1.288"/>
</g>
<path fill="#C4DCED" stroke="#9DBCD7" stroke-miterlimit="10" d="M92.972,84.307c0,4.212-3.415,7.627-7.627,7.627h-42.68
	c-4.212,0-7.627-3.415-7.627-7.627v-42.68c0-4.212,3.415-7.627,7.627-7.627h42.681c4.212,0,7.627,3.415,7.627,7.627V84.307z"/>
<path opacity="0.5" fill="none" stroke="#FFFFFF" stroke-miterlimit="10" enable-background="new    " d="M91.956,84.307
	c0,3.651-2.96,6.611-6.611,6.611h-42.68c-3.651,0-6.611-2.96-6.611-6.611v-42.68c0-3.651,2.96-6.611,6.611-6.611h42.68
	c3.651,0,6.611,2.96,6.611,6.611V84.307z"/>
<path opacity="0.08" fill="none" stroke="#000000" stroke-miterlimit="10" enable-background="new    " d="M93.189,50.997
	c0,0,0-2.563-2.531-2.563c-7.347,0-30.807,0.004-32.907,0.004c-2.552,0-2.531-2.526-2.531-2.526s0-2.543-2.531-2.543
	c-4.431,0-13.306,0-15.188,0c-2.492,0-2.531,2.451-2.531,2.528"/>
<path opacity="0.05" fill="none" stroke="#000000" stroke-miterlimit="10" enable-background="new    " d="M93.178,50.488
	c0,0,0-2.563-2.531-2.563c-7.347,0-30.807,0.004-32.907,0.004c-2.552,0-2.531-2.526-2.531-2.526s0-2.543-2.531-2.543
	c-4.431,0-13.306,0-15.188,0c-2.492,0-2.531,2.451-2.531,2.528"/>
<path opacity="0.03" fill="none" stroke="#000000" stroke-miterlimit="10" enable-background="new    " d="M93.178,50.002
	c0,0,0-2.563-2.531-2.563c-7.347,0-30.807,0.004-32.907,0.004c-2.552,0-2.531-2.526-2.531-2.526s0-2.543-2.531-2.543
	c-4.431,0-13.306,0-15.188,0c-2.492,0-2.531,2.451-2.531,2.528"/>
<linearGradient id="SVGID_1_" gradientUnits="userSpaceOnUse" x1="886.0052" y1="-989.9344" x2="886.0052" y2="-942.1639" gradientTransform="matrix(1 0 0 -1 -822 -898)">
	<stop  offset="0" style="stop-color:#D1E0ED"/>
	<stop  offset="1" style="stop-color:#E4EEFB"/>
</linearGradient>
<path fill="url(#SVGID_1_)" stroke="#9DBCD7" stroke-miterlimit="10" d="M42.648,91.934h42.84c4.212,0,7.484-3.502,7.484-7.714
	V50.019c0-0.6-0.897-1.166-2.092-1.166c-7.379,0-30.905,0.004-33.014,0.004c-2.563,0-2.524-2.338-2.524-2.338
	s0.018-2.355-2.525-2.355c-4.45,0-13.364,0-15.254,0c-2.503,0-2.526,2.075-2.526,2.153v37.903
	C35.038,88.432,38.436,91.934,42.648,91.934z"/>
<path fill="none" stroke="#FFFFFF" stroke-miterlimit="10" d="M42.648,90.918c-3.636,0-6.594-3.004-6.594-6.698V46.317
	c0-0.048,0.008-0.454,0.309-0.756c0.252-0.253,0.656-0.381,1.2-0.381h15.254c0.602,0,0.908,0.072,1.091,0.256
	c0.405,0.407,0.423,1.028,0.423,1.035c-0.002,0.133,0.006,1.459,0.988,2.456c0.626,0.635,1.484,0.957,2.551,0.957
	c0,0,28.2-0.011,33.008-0.011c0.635,0,0.987,0.218,1.077,0.323v34.024c0,3.694-2.901,6.698-6.468,6.698h-42.84V90.918z"/>
<radialGradient id="SVGID_2_" cx="1168.1434" cy="819.2701" r="46.4534" gradientTransform="matrix(0.0197 0.9998 0.9109 -0.018 -707.3493 -1098.2991)" gradientUnits="userSpaceOnUse">
	<stop  offset="0" style="stop-color:#FFFFFF;stop-opacity:0.6"/>
	<stop  offset="0.3783" style="stop-color:#FAFCFE;stop-opacity:0.4487"/>
	<stop  offset="0.829" style="stop-color:#EBF3FC;stop-opacity:0.2684"/>
	<stop  offset="1" style="stop-color:#E4EEFB;stop-opacity:0.2"/>
</radialGradient>
<path fill="url(#SVGID_2_)" d="M42.648,90.918c-3.636,0-6.594-3.004-6.594-6.698V46.317c0-0.048,0.008-0.454,0.309-0.756
	c0.252-0.253,0.656-0.381,1.2-0.381h15.254c0.602,0,0.908,0.072,1.091,0.256c0.405,0.407,0.423,1.028,0.423,1.035
	c-0.002,0.133,0.006,1.459,0.988,2.456c0.626,0.635,1.484,0.957,2.551,0.957c0,0,28.2-0.011,33.008-0.011
	c0.635,0,0.987,0.218,1.077,0.323v34.024c0,3.694-2.901,6.698-6.468,6.698h-42.84V90.918z"/>
<g id="g27_1_">
	
		<linearGradient id="path36_2_" gradientUnits="userSpaceOnUse" x1="1270.9509" y1="-1749.3695" x2="1278.9996" y2="-1763.3102" gradientTransform="matrix(1 0 0 -1 -1234 -1716)">
		<stop  offset="0" style="stop-color:#FFFFFF"/>
		<stop  offset="0.5" style="stop-color:#FFFFFF;stop-opacity:0.6"/>
		<stop  offset="1" style="stop-color:#FFFFFF;stop-opacity:0.15"/>
	</linearGradient>
	<path id="path36_1_" fill="url(#path36_2_)" d="M43.587,49.679c0.9-1.863,1.998-3.608,3.258-5.221l-2.292-5.027
		c-1.958,1.851-3.547,3.89-4.816,5.871L43.587,49.679z"/>
	
		<linearGradient id="path45_2_" gradientUnits="userSpaceOnUse" x1="1278.2488" y1="-1747.282" x2="1283.5162" y2="-1756.4056" gradientTransform="matrix(1 0 0 -1 -1234 -1716)">
		<stop  offset="0" style="stop-color:#FFFFFF"/>
		<stop  offset="0.5" style="stop-color:#FFFFFF;stop-opacity:0.6"/>
		<stop  offset="1" style="stop-color:#FFFFFF;stop-opacity:0.15"/>
	</linearGradient>
	<path id="path45_1_" fill="url(#path45_2_)" d="M43.826,34.599l1.198,2.626c1.153-0.957,2.417-1.287,3.795-2.626H43.826z"/>
	
		<linearGradient id="path54_2_" gradientUnits="userSpaceOnUse" x1="1279.9055" y1="-1745.5494" x2="1286.3414" y2="-1756.6967" gradientTransform="matrix(1 0 0 -1 -1234 -1716)">
		<stop  offset="0" style="stop-color:#FFFFFF"/>
		<stop  offset="0.5" style="stop-color:#FFFFFF;stop-opacity:0.6"/>
		<stop  offset="1" style="stop-color:#FFFFFF;stop-opacity:0.15"/>
	</linearGradient>
	<path id="path54_1_" fill="url(#path54_2_)" d="M52.818,34.599H51.87c-2.391,1.339-4.481,2.361-6.274,3.888l2.197,4.821
		c1.877-2.168,4.055-4.068,6.494-5.603c0.019-0.017,0.032-0.032,0.052-0.049C57.072,35.295,54.358,34.599,52.818,34.599z"/>
	
		<linearGradient id="path63_2_" gradientUnits="userSpaceOnUse" x1="1266.434" y1="-1755.7246" x2="1273.4182" y2="-1767.8217" gradientTransform="matrix(1 0 0 -1 -1234 -1716)">
		<stop  offset="0" style="stop-color:#FFFFFF"/>
		<stop  offset="0.5" style="stop-color:#FFFFFF;stop-opacity:0.6"/>
		<stop  offset="1" style="stop-color:#FFFFFF;stop-opacity:0.15"/>
	</linearGradient>
	<path id="path63_1_" fill="url(#path63_2_)" d="M39.006,46.497c-1.47,2.503-2.431,4.816-3.001,6.397
		c0.675,0.963,1.79,1.595,3.056,1.595c1.567,0,2.905-0.968,3.459-2.336c0.142-0.382,0.315-0.749,0.473-1.125L39.006,46.497z"/>
	
		<linearGradient id="path72_2_" gradientUnits="userSpaceOnUse" x1="1266.12" y1="-1756.2202" x2="1273.8602" y2="-1769.627" gradientTransform="matrix(1 0 0 -1 -1234 -1716)">
		<stop  offset="0" style="stop-color:#FFFFFF"/>
		<stop  offset="0.5" style="stop-color:#FFFFFF;stop-opacity:0.6"/>
		<stop  offset="1" style="stop-color:#FFFFFF;stop-opacity:0.15"/>
	</linearGradient>
	<path id="path72_1_" fill="url(#path72_2_)" d="M35.357,42.345l-0.029,8.405c0,0,0,0.003,0,0.006c0,0.052,0.013,0.102,0.016,0.154
		c0.639-1.555,1.531-3.455,2.741-5.463L35.357,42.345z"/>
	
		<linearGradient id="path149_2_" gradientUnits="userSpaceOnUse" x1="1271.9735" y1="-1752.0216" x2="1279.2416" y2="-1764.6104" gradientTransform="matrix(1 0 0 -1 -1234 -1716)">
		<stop  offset="0" style="stop-color:#FFFFFF"/>
		<stop  offset="0.5" style="stop-color:#FFFFFF;stop-opacity:0.6"/>
		<stop  offset="1" style="stop-color:#FFFFFF;stop-opacity:0.15"/>
	</linearGradient>
	<path id="path149_1_" fill="url(#path149_2_)" d="M42.229,34.615c-2.731-0.227-6.327,2.849-6.788,5.799l3.388,3.853
		c1.352-2.064,3.034-4.178,5.109-6.088L42.229,34.615z"/>
</g>
<g>
	<path opacity="0.3" fill="#FFFFFF" enable-background="new    " d="M61.938,52.104c-1.334,0-2.421,1.126-2.421,2.444v1.212
		c-0.45,0.161-0.876,0.348-1.298,0.553l-0.848-0.87c-0.007,0-0.014,0-0.021,0c-0.919-0.92-2.478-0.965-3.42-0.023l-2.932,2.933
		c-0.946,0.943-0.898,2.502,0.017,3.422c0,0.005,0,0.014,0,0.021l0.876,0.852c-0.204,0.422-0.393,0.848-0.556,1.295h-1.211
		c-1.316,0-2.445,1.087-2.445,2.421v4.121c0,1.341,1.13,2.425,2.445,2.425h1.211c0.164,0.446,0.352,0.872,0.556,1.298l-0.876,0.848
		c0,0.007,0,0.014,0,0.021c-0.915,0.918-0.963,2.477-0.017,3.42l2.932,2.935c0.503,0.503,1.157,0.704,1.741,0.701
		c0.617-0.007,1.235-0.278,1.681-0.725c0.007,0,0.014,0,0.021,0l0.848-0.872c0.422,0.204,0.848,0.393,1.298,0.553v1.211
		c0,1.322,1.087,2.445,2.422,2.445h4.121c1.337,0,2.424-1.123,2.424-2.445v-1.211c0.446-0.161,0.872-0.348,1.298-0.553l0.848,0.872
		c0.007,0,0.014,0,0.024,0c0.918,0.922,2.475,0.965,3.42,0.024l2.932-2.935c0.943-0.943,0.898-2.502-0.024-3.42
		c0-0.007,0-0.014,0-0.021l-0.869-0.848c0.201-0.426,0.393-0.852,0.553-1.298h1.211c1.316,0,2.442-1.083,2.442-2.425v-4.12
		c0-1.334-1.127-2.421-2.442-2.421h-1.211c-0.161-0.448-0.352-0.874-0.553-1.295l0.869-0.852c0-0.007,0-0.014,0-0.021
		c0.922-0.92,0.965-2.477,0.024-3.422l-2.932-2.933c-0.946-0.943-2.502-0.898-3.42,0.023c-0.01,0-0.017,0-0.024,0l-0.85,0.87
		c-0.426-0.206-0.852-0.393-1.298-0.553v-1.212c0-1.317-1.087-2.444-2.424-2.444C66.061,52.104,61.938,52.104,61.938,52.104z
		 M61.938,53.462h4.121c0.591,0,1.063,0.486,1.063,1.083v2.105c1.053,0.28,2.076,0.718,2.998,1.253l1.489-1.508
		c0.423-0.424,1.091-0.436,1.506-0.023l2.935,2.933c0.416,0.417,0.402,1.085-0.024,1.509l-1.509,1.487
		c0.536,0.92,0.972,1.942,1.257,2.995h2.103c0.598,0,1.083,0.476,1.083,1.063v4.122c0,0.591-0.486,1.066-1.083,1.066h-2.103
		c-0.285,1.053-0.721,2.076-1.257,2.995l1.509,1.485c0.426,0.422,0.44,1.094,0.024,1.509l-2.935,2.935
		c-0.416,0.416-1.083,0.402-1.506-0.021l-1.489-1.513c-0.922,0.536-1.946,0.975-2.998,1.253v2.103c0,0.601-0.473,1.087-1.063,1.087
		h-4.121c-0.587,0-1.063-0.486-1.063-1.087v-2.103c-1.052-0.278-2.073-0.718-2.995-1.253l-1.489,1.513
		c-0.211,0.211-0.469,0.313-0.742,0.316c-0.275,0.004-0.556-0.088-0.764-0.295l-2.935-2.935c-0.416-0.416-0.399-1.087,0.024-1.509
		l1.506-1.485c-0.534-0.918-0.968-1.942-1.253-2.995h-2.103c-0.598,0-1.08-0.476-1.08-1.066v-4.121c0-0.587,0.482-1.063,1.08-1.063
		h2.103c0.285-1.051,0.721-2.074,1.253-2.995l-1.506-1.487c-0.422-0.424-0.44-1.092-0.024-1.509l2.935-2.933
		c0.416-0.416,1.087-0.402,1.506,0.023l1.489,1.508c0.922-0.536,1.942-0.974,2.995-1.253v-2.105
		C60.875,53.948,61.351,53.462,61.938,53.462z M64.001,63.897c-2.495,0-4.525,2.031-4.525,4.526c0,2.495,2.03,4.528,4.525,4.528
		s4.526-2.033,4.526-4.528C68.527,65.929,66.495,63.897,64.001,63.897z M64.001,65.258c1.756,0,3.164,1.405,3.164,3.166
		c0,1.757-1.408,3.166-3.164,3.166c-1.757,0-3.167-1.408-3.167-3.166C60.834,66.664,62.244,65.258,64.001,65.258z"/>
	<path opacity="0.3" fill="#FFFFFF" enable-background="new    " d="M61.938,52.784c-0.96,0-1.741,0.807-1.741,1.764v1.659
		c-0.754,0.237-1.482,0.529-2.171,0.891l-1.143-1.17c0-0.007,0-0.014,0-0.021c-0.675-0.673-1.808-0.701-2.488-0.021l-2.931,2.931
		c-0.68,0.68-0.651,1.815,0.021,2.486c0.007,0,0.014,0,0.021,0l1.171,1.147c-0.362,0.685-0.654,1.413-0.893,2.169h-1.661
		c-0.956,0-1.764,0.778-1.764,1.741v4.121c0,0.964,0.809,1.744,1.764,1.744h1.661c0.239,0.754,0.531,1.485,0.893,2.167l-1.171,1.151
		c-0.007,0-0.014,0-0.021,0c-0.671,0.671-0.701,1.805-0.021,2.485l2.931,2.931c0.356,0.356,0.824,0.496,1.253,0.489
		c0.446-0.004,0.905-0.18,1.235-0.51c0-0.007,0-0.017,0-0.024l1.143-1.164c0.687,0.359,1.415,0.651,2.171,0.889v1.657
		c0,0.96,0.781,1.767,1.741,1.767h4.121c0.965,0,1.744-0.809,1.744-1.767V80.64c0.754-0.239,1.482-0.531,2.171-0.889l1.146,1.164
		c0,0.007,0,0.017,0,0.024c0.671,0.671,1.805,0.701,2.485,0.021l2.935-2.931c0.678-0.68,0.651-1.815-0.024-2.485
		c-0.007,0-0.014,0-0.021,0l-1.171-1.151c0.366-0.68,0.658-1.412,0.893-2.167h1.66c0.956,0,1.764-0.781,1.764-1.744v-4.121
		c0-0.964-0.809-1.741-1.764-1.741h-1.659c-0.235-0.754-0.528-1.484-0.893-2.169l1.171-1.147c0.007,0,0.014,0,0.021,0
		c0.674-0.671,0.701-1.807,0.024-2.486l-2.935-2.933c-0.68-0.68-1.815-0.651-2.485,0.021c0,0.007,0,0.014,0,0.021l-1.146,1.17
		c-0.687-0.362-1.415-0.654-2.171-0.891v-1.659c0-0.956-0.778-1.764-1.744-1.764h-4.121v0.002H61.938z M61.938,53.462h4.121
		c0.591,0,1.063,0.486,1.063,1.083v2.105c1.053,0.28,2.076,0.718,2.998,1.253l1.489-1.508c0.423-0.424,1.091-0.436,1.506-0.023
		l2.935,2.933c0.416,0.417,0.401,1.085-0.024,1.509l-1.509,1.487c0.536,0.92,0.972,1.942,1.257,2.995h2.103
		c0.598,0,1.083,0.476,1.083,1.063v4.122c0,0.591-0.486,1.066-1.083,1.066h-2.103c-0.285,1.053-0.721,2.076-1.257,2.995l1.509,1.485
		c0.426,0.422,0.44,1.094,0.024,1.509l-2.935,2.935c-0.416,0.416-1.083,0.402-1.506-0.021l-1.489-1.513
		c-0.922,0.536-1.946,0.975-2.998,1.253v2.103c0,0.601-0.473,1.087-1.063,1.087h-4.121c-0.587,0-1.063-0.486-1.063-1.087v-2.103
		c-1.053-0.278-2.073-0.718-2.995-1.253l-1.488,1.513c-0.211,0.211-0.469,0.313-0.742,0.316c-0.275,0.004-0.556-0.088-0.764-0.295
		l-2.935-2.935c-0.416-0.416-0.398-1.087,0.024-1.509l1.506-1.485c-0.534-0.918-0.968-1.942-1.253-2.995h-2.104
		c-0.598,0-1.08-0.476-1.08-1.066v-4.121c0-0.587,0.482-1.063,1.08-1.063h2.104c0.285-1.051,0.721-2.074,1.253-2.995l-1.506-1.487
		c-0.422-0.424-0.44-1.092-0.024-1.509l2.935-2.933c0.416-0.416,1.087-0.402,1.506,0.023l1.489,1.508
		c0.922-0.536,1.942-0.974,2.995-1.253v-2.105C60.875,53.948,61.351,53.462,61.938,53.462z M64,63.897
		c-2.495,0-4.525,2.031-4.525,4.526c0,2.495,2.03,4.528,4.525,4.528c2.495,0,4.526-2.033,4.526-4.528
		C68.526,65.929,66.495,63.897,64,63.897z M64,64.577c2.129,0,3.847,1.717,3.847,3.847c0,2.126-1.717,3.847-3.847,3.847
		c-2.129,0-3.843-1.721-3.843-3.847C60.158,66.295,61.871,64.577,64,64.577z"/>
	<path opacity="0.3" fill="#669CCC" enable-background="new    " d="M61.935,83.385c-0.587,0-1.066-0.489-1.066-1.091v-2.109
		c-1.049-0.278-2.059-0.704-2.977-1.238l-1.503,1.503c-0.211,0.208-0.464,0.319-0.739,0.323c-0.271,0.004-0.549-0.094-0.761-0.306
		l-2.934-2.935c-0.416-0.412-0.402-1.076,0.024-1.499l1.499-1.499c-0.536-0.918-0.956-1.925-1.241-2.977h-2.111
		c-0.597,0-1.083-0.476-1.083-1.066V66.36c0-0.591,0.486-1.063,1.083-1.063h2.111c0.285-1.054,0.704-2.061,1.241-2.981l-1.499-1.501
		c-0.426-0.424-0.44-1.083-0.024-1.499l2.935-2.936c0.419-0.416,1.081-0.4,1.499,0.023l1.503,1.501
		c0.918-0.536,1.928-0.96,2.977-1.24v-2.111c0-0.6,0.479-1.089,1.066-1.089h4.131c0.588,0,1.067,0.489,1.067,1.089v2.111
		c1.052,0.28,2.059,0.704,2.974,1.24l1.506-1.501c0.423-0.422,1.083-0.438,1.499-0.023l2.935,2.936
		c0.416,0.416,0.402,1.075-0.021,1.499l-1.502,1.501c0.536,0.92,0.96,1.927,1.241,2.981h2.111c0.598,0,1.087,0.473,1.087,1.063
		v4.132c0,0.591-0.489,1.066-1.087,1.066h-2.111c-0.281,1.053-0.704,2.059-1.241,2.977l1.502,1.499
		c0.423,0.422,0.436,1.087,0.021,1.499l-2.935,2.935c-0.416,0.422-1.076,0.405-1.499-0.017l-1.506-1.503
		c-0.915,0.534-1.922,0.96-2.974,1.238v2.111c0,0.601-0.479,1.091-1.067,1.091h-4.131L61.935,83.385L61.935,83.385z M64.001,72.948
		c2.495,0,4.523-2.03,4.523-4.525c0-2.495-2.03-4.525-4.523-4.525c-2.495,0-4.522,2.03-4.522,4.525
		C59.479,70.919,61.505,72.948,64.001,72.948z"/>
	<path opacity="0.3" fill="#669CCC" enable-background="new    " d="M61.938,53.462c-0.587,0-1.063,0.486-1.063,1.083v2.105
		c-1.053,0.28-2.073,0.718-2.995,1.253l-1.489-1.508c-0.419-0.424-1.091-0.436-1.506-0.023l-2.935,2.933
		c-0.416,0.417-0.399,1.085,0.024,1.509l1.506,1.487c-0.534,0.92-0.968,1.942-1.253,2.995h-2.103c-0.598,0-1.08,0.476-1.08,1.063
		v4.122c0,0.591,0.482,1.066,1.08,1.066h2.103c0.285,1.053,0.721,2.076,1.253,2.995l-1.506,1.485
		c-0.422,0.422-0.44,1.094-0.024,1.509l2.935,2.935c0.208,0.208,0.49,0.299,0.764,0.295c0.271-0.004,0.531-0.104,0.742-0.316
		l1.489-1.513c0.922,0.536,1.942,0.975,2.995,1.253v2.103c0,0.601,0.476,1.087,1.063,1.087h4.121c0.591,0,1.063-0.486,1.063-1.087
		v-2.103c1.053-0.278,2.076-0.718,2.999-1.253l1.489,1.513c0.422,0.422,1.091,0.436,1.506,0.021l2.935-2.935
		c0.416-0.416,0.402-1.087-0.024-1.509l-1.51-1.485c0.536-0.918,0.972-1.942,1.257-2.995h2.104c0.598,0,1.083-0.476,1.083-1.066
		v-4.121c0-0.587-0.486-1.063-1.083-1.063h-2.104c-0.285-1.051-0.721-2.074-1.257-2.995l1.51-1.487
		c0.426-0.424,0.44-1.092,0.024-1.509l-2.935-2.933c-0.416-0.416-1.083-0.402-1.506,0.023l-1.489,1.508
		c-0.922-0.536-1.946-0.974-2.999-1.253v-2.105c0-0.6-0.473-1.083-1.063-1.083C66.06,53.462,61.938,53.462,61.938,53.462z
		 M62.237,54.824h3.527v1.827c0,0.62,0.419,1.162,1.016,1.317c0.929,0.248,1.837,0.629,2.66,1.106
		c0.536,0.316,1.221,0.23,1.657-0.215l1.298-1.295l2.466,2.466l-1.295,1.295c-0.443,0.44-0.531,1.123-0.215,1.659
		c0.476,0.822,0.858,1.732,1.108,2.657c0.154,0.601,0.697,1.02,1.319,1.02h1.824v3.529h-1.824c-0.62,0-1.164,0.419-1.319,1.02
		c-0.249,0.922-0.631,1.837-1.108,2.657c-0.316,0.534-0.229,1.218,0.215,1.657l1.295,1.298l-2.466,2.463l-1.298-1.295
		c-0.436-0.443-1.12-0.527-1.657-0.211c-0.822,0.476-1.731,0.858-2.66,1.104c-0.598,0.154-1.016,0.697-1.016,1.319v1.827h-3.527
		v-1.827c0-0.62-0.419-1.164-1.019-1.319c-0.926-0.246-1.834-0.627-2.657-1.104c-0.536-0.316-1.218-0.232-1.657,0.211l-1.298,1.295
		l-2.466-2.463l1.298-1.298c0.44-0.44,0.527-1.123,0.211-1.657c-0.476-0.819-0.858-1.734-1.104-2.657
		c-0.158-0.601-0.701-1.02-1.323-1.02h-1.823v-3.53h1.823c0.62,0,1.164-0.419,1.323-1.02c0.246-0.924,0.626-1.834,1.104-2.657
		c0.316-0.536,0.229-1.219-0.211-1.659l-1.298-1.295l2.466-2.466l1.298,1.295c0.44,0.443,1.12,0.529,1.657,0.215
		c0.823-0.477,1.731-0.858,2.657-1.106c0.601-0.155,1.019-0.697,1.019-1.317V54.824z M64.001,62.539
		c-3.233,0-5.886,2.653-5.886,5.886c0,3.237,2.653,5.89,5.886,5.89c3.231,0,5.885-2.653,5.885-5.89
		C69.885,65.191,67.234,62.539,64.001,62.539z M64.001,63.897c2.495,0,4.526,2.031,4.526,4.526c0,2.495-2.033,4.528-4.526,4.528
		c-2.495,0-4.525-2.033-4.525-4.528C59.475,65.929,61.505,63.897,64.001,63.897z"/>
	<path opacity="0.3" fill="#669CCC" enable-background="new    " d="M61.938,53.462c-0.587,0-1.063,0.486-1.063,1.083v2.105
		c-1.053,0.28-2.073,0.718-2.995,1.253l-1.489-1.508c-0.419-0.424-1.091-0.436-1.506-0.023l-2.935,2.933
		c-0.416,0.417-0.399,1.085,0.024,1.509l1.506,1.487c-0.534,0.92-0.968,1.942-1.253,2.995h-2.103c-0.598,0-1.08,0.476-1.08,1.063
		v4.122c0,0.591,0.482,1.066,1.08,1.066h2.103c0.285,1.053,0.721,2.076,1.253,2.995l-1.506,1.485
		c-0.422,0.422-0.44,1.094-0.024,1.509l2.935,2.935c0.208,0.208,0.49,0.299,0.764,0.295c0.271-0.004,0.531-0.104,0.742-0.316
		l1.489-1.513c0.922,0.536,1.942,0.975,2.995,1.253v2.103c0,0.601,0.476,1.087,1.063,1.087h4.121c0.591,0,1.063-0.486,1.063-1.087
		v-2.103c1.053-0.278,2.076-0.718,2.999-1.253l1.489,1.513c0.422,0.422,1.091,0.436,1.506,0.021l2.935-2.935
		c0.416-0.416,0.402-1.087-0.024-1.509l-1.51-1.485c0.536-0.918,0.972-1.942,1.257-2.995h2.104c0.598,0,1.083-0.476,1.083-1.066
		v-4.121c0-0.587-0.486-1.063-1.083-1.063h-2.104c-0.285-1.051-0.721-2.074-1.257-2.995l1.51-1.487
		c0.426-0.424,0.44-1.092,0.024-1.509l-2.935-2.933c-0.416-0.416-1.083-0.402-1.506,0.023l-1.489,1.508
		c-0.922-0.536-1.946-0.974-2.999-1.253v-2.105c0-0.6-0.473-1.083-1.063-1.083C66.06,53.462,61.938,53.462,61.938,53.462z
		 M61.938,54.144h4.121c0.218,0,0.386,0.163,0.386,0.402v2.105c0,0.309,0.208,0.581,0.51,0.658c0.986,0.264,1.956,0.683,2.826,1.19
		c0.268,0.153,0.613,0.103,0.828-0.127l1.485-1.487c0.175-0.177,0.379-0.175,0.531-0.023l2.935,2.933
		c0.151,0.153,0.151,0.356-0.021,0.533l-1.489,1.487c-0.228,0.215-0.281,0.556-0.127,0.829c0.506,0.87,0.926,1.836,1.19,2.825
		c0.077,0.302,0.348,0.51,0.661,0.51h2.103c0.239,0,0.405,0.168,0.405,0.383v4.121c0,0.218-0.168,0.386-0.405,0.386h-2.103
		c-0.313,0-0.584,0.208-0.661,0.506c-0.264,0.989-0.683,1.959-1.19,2.83c-0.154,0.271-0.101,0.613,0.127,0.824l1.489,1.489
		c0.172,0.179,0.172,0.376,0.021,0.531l-2.935,2.935c-0.151,0.154-0.356,0.154-0.531-0.021l-1.485-1.489
		c-0.215-0.229-0.56-0.282-0.828-0.127c-0.872,0.506-1.84,0.926-2.826,1.19c-0.303,0.077-0.51,0.348-0.51,0.658v2.103
		c0,0.242-0.168,0.405-0.386,0.405h-4.121c-0.215,0-0.383-0.165-0.383-0.405v-2.103c0-0.309-0.208-0.581-0.51-0.658
		c-0.988-0.264-1.956-0.683-2.826-1.19c-0.271-0.155-0.613-0.102-0.828,0.127l-1.485,1.489c-0.094,0.094-0.151,0.123-0.254,0.123
		c-0.121,0.004-0.218-0.043-0.275-0.104l-2.935-2.935c-0.155-0.154-0.155-0.352,0.024-0.531l1.485-1.489
		c0.232-0.211,0.282-0.553,0.127-0.824c-0.506-0.872-0.929-1.84-1.19-2.83c-0.078-0.299-0.348-0.506-0.661-0.506h-2.103
		c-0.239,0-0.398-0.168-0.398-0.386v-4.121c0-0.215,0.161-0.383,0.398-0.383h2.103c0.313,0,0.584-0.208,0.661-0.51
		c0.261-0.989,0.683-1.954,1.19-2.825c0.154-0.273,0.104-0.614-0.127-0.829l-1.485-1.487c-0.179-0.177-0.179-0.378-0.024-0.533
		l2.935-2.933c0.151-0.153,0.352-0.154,0.53,0.023l1.485,1.487c0.215,0.229,0.556,0.28,0.828,0.127
		c0.873-0.506,1.837-0.926,2.827-1.19c0.302-0.077,0.51-0.348,0.51-0.658v-2.105C61.555,54.309,61.724,54.144,61.938,54.144z
		 M64.001,63.218c-2.864,0-5.205,2.342-5.205,5.206c0,2.864,2.341,5.205,5.205,5.205c2.862,0,5.204-2.34,5.204-5.205
		C69.205,65.559,66.865,63.218,64.001,63.218z M64.001,63.897c2.495,0,4.526,2.031,4.526,4.526c0,2.495-2.033,4.528-4.526,4.528
		c-2.495,0-4.525-2.033-4.525-4.528C59.475,65.929,61.505,63.897,64.001,63.897z"/>
	<path opacity="0.3" fill="#669CCC" enable-background="new    " d="M61.938,53.462c-0.587,0-1.063,0.486-1.063,1.083v0.68
		c0-0.6,0.476-1.083,1.063-1.083h4.121c0.591,0,1.063,0.484,1.063,1.083v-0.68c0-0.6-0.473-1.083-1.063-1.083H61.938z
		 M55.629,56.078c-0.271-0.005-0.536,0.09-0.745,0.297l-2.935,2.933c-0.282,0.285-0.342,0.682-0.235,1.041
		c0.05-0.127,0.13-0.256,0.235-0.36l2.935-2.933c0.416-0.417,1.086-0.402,1.506,0.023l1.489,1.509
		c0.922-0.536,1.942-0.975,2.995-1.255v-0.68c-1.053,0.28-2.073,0.718-2.995,1.253l-1.489-1.508
		C56.18,56.184,55.897,56.083,55.629,56.078z M72.375,56.078c-0.272,0.005-0.553,0.106-0.764,0.319l-1.489,1.508
		c-0.922-0.536-1.946-0.974-2.999-1.253v0.68c1.053,0.28,2.076,0.718,2.999,1.255l1.489-1.509c0.422-0.424,1.09-0.44,1.506-0.023
		l2.935,2.933c0.105,0.104,0.184,0.233,0.232,0.36c0.113-0.357,0.049-0.756-0.232-1.041l-2.935-2.933
		C72.907,56.167,72.643,56.073,72.375,56.078z M53.249,62.75c-0.422,0.8-0.781,1.659-1.024,2.548h-2.103
		c-0.597,0-1.08,0.476-1.08,1.063v0.68c0-0.587,0.483-1.063,1.08-1.063h2.103c0.285-1.053,0.721-2.074,1.254-2.995L53.249,62.75z
		 M74.752,62.75l-0.235,0.233c0.536,0.92,0.972,1.942,1.257,2.995h2.103c0.598,0,1.083,0.476,1.083,1.063v-0.68
		c0-0.587-0.486-1.063-1.083-1.063h-2.103C75.535,64.409,75.176,63.551,74.752,62.75z M59.493,68.766
		c-0.004,0.11-0.017,0.225-0.017,0.335c0,2.499,2.03,4.528,4.525,4.528c2.495,0,4.526-2.03,4.526-4.528
		c0-0.11-0.014-0.225-0.024-0.335c-0.172,2.337-2.119,4.186-4.504,4.186C61.617,72.952,59.668,71.104,59.493,68.766z M53.249,74.779
		l-1.274,1.252c-0.312,0.316-0.395,0.749-0.257,1.13c0.053-0.165,0.127-0.319,0.257-0.45l1.506-1.485
		C53.399,75.081,53.325,74.927,53.249,74.779z M74.752,74.779c-0.077,0.148-0.151,0.302-0.235,0.446l1.509,1.485
		c0.131,0.131,0.205,0.285,0.254,0.45c0.144-0.383,0.056-0.816-0.254-1.13L74.752,74.779z"/>
	<path opacity="0.3" fill="#FFFFFF" enable-background="new    " d="M51.716,60.37c-0.137,0.376-0.056,0.814,0.258,1.126
		l1.274,1.253c0.078-0.146,0.151-0.304,0.232-0.446l-1.506-1.487C51.843,60.686,51.769,60.528,51.716,60.37z M76.282,60.37
		c-0.05,0.158-0.123,0.316-0.254,0.446l-1.509,1.487c0.084,0.142,0.158,0.3,0.236,0.446l1.274-1.253
		C76.338,61.184,76.426,60.748,76.282,60.37z M64.001,63.897c-2.495,0-4.525,2.031-4.525,4.526c0,0.113,0.014,0.229,0.017,0.342
		c0.175-2.34,2.122-4.188,4.508-4.188c2.383,0,4.332,1.848,4.504,4.188c0.01-0.113,0.024-0.229,0.024-0.342
		C68.527,65.929,66.495,63.897,64.001,63.897z M49.042,70.483v0.68c0,0.591,0.483,1.063,1.08,1.063h2.103
		c0.242,0.889,0.601,1.751,1.024,2.552l0.232-0.235c-0.534-0.918-0.968-1.942-1.253-2.995h-2.103
		C49.526,71.551,49.042,71.073,49.042,70.483z M78.962,70.483c0,0.591-0.486,1.066-1.083,1.066h-2.103
		c-0.285,1.053-0.721,2.076-1.257,2.995l0.236,0.235c0.422-0.802,0.781-1.664,1.023-2.552h2.104c0.598,0,1.083-0.473,1.083-1.063
		v-0.682H78.962z M51.716,77.178c-0.106,0.362-0.046,0.761,0.236,1.043l2.935,2.931c0.208,0.211,0.489,0.302,0.764,0.299
		c0.271-0.004,0.531-0.104,0.742-0.319l1.489-1.509c0.922,0.534,1.942,0.975,2.995,1.253v-0.68
		c-1.053-0.278-2.073-0.718-2.995-1.253l-1.489,1.513c-0.211,0.211-0.469,0.313-0.742,0.316c-0.275,0.004-0.556-0.088-0.764-0.295
		l-2.935-2.935C51.846,77.435,51.766,77.305,51.716,77.178z M67.122,80.195v0.68c1.053-0.278,2.076-0.721,2.999-1.253l1.489,1.509
		c0.422,0.426,1.091,0.436,1.506,0.021l2.935-2.931c0.282-0.282,0.346-0.68,0.232-1.043c-0.046,0.127-0.127,0.258-0.232,0.362
		l-2.935,2.935c-0.416,0.416-1.083,0.402-1.506-0.021l-1.489-1.513C69.198,79.477,68.175,79.917,67.122,80.195 M60.875,82.298v0.68
		c0,0.601,0.476,1.087,1.063,1.087h4.121c0.591,0,1.063-0.486,1.063-1.087v-0.68c0,0.601-0.473,1.087-1.063,1.087h-4.121
		C61.351,83.385,60.875,82.9,60.875,82.298z"/>
</g>
</svg>
