<?xml version="1.0" encoding="utf-8"?>
<!-- Generator: Adobe Illustrator 17.0.0, SVG Export Plug-In . SVG Version: 6.00 Build 0)  -->
<!DOCTYPE svg PUBLIC "-//W3C//DTD SVG 1.1//EN" "http://www.w3.org/Graphics/SVG/1.1/DTD/svg11.dtd">
<svg version="1.1" id="图层_1" xmlns="http://www.w3.org/2000/svg" xmlns:xlink="http://www.w3.org/1999/xlink" x="0px" y="0px"
	 width="64px" height="64px" viewBox="32 32 64 64" enable-background="new 32 32 64 64" xml:space="preserve">
<g id="g151" opacity="0.5">
	<path id="path153" opacity="0.08" enable-background="new    " d="M86.149,92.208h-44.25c-4.074,0-7.394-3.194-7.394-7.106v5.435
		c0,3.057,2.597,5.535,5.779,5.535h47.478c3.182,0,5.743-2.478,5.743-5.535v-5.435C93.505,89.015,90.221,92.208,86.149,92.208z"/>
	<path id="path155" opacity="0.1" enable-background="new    " d="M86.112,92.208h-44.25c-4.072,0-7.356-3.135-7.356-7.047v2.843
		c0,3.057,1.402,6.781,7.084,6.781s39.037,0,44.793,0c5.756,0,7.123-3.724,7.123-6.781v-2.843
		C93.505,89.073,90.184,92.208,86.112,92.208z"/>
	<path id="path157" opacity="0.1" enable-background="new    " d="M86.112,92.208h-44.25c-4.072,0-7.356-3.135-7.356-7.047v1.534
		c0,3.058,2.432,6.802,7.084,6.802s39.468,0,44.793,0c5.326,0,7.123-3.744,7.123-6.8v-1.534
		C93.505,89.073,90.184,92.208,86.112,92.208z"/>
	<rect id="rect159" x="41.21" y="92.208" opacity="0.05" enable-background="new    " width="45.591" height="1.288"/>
	<rect id="rect161" x="42.551" y="92.208" opacity="0.05" enable-background="new    " width="41.568" height="1.288"/>
	<rect id="rect163" x="42.551" y="93.496" opacity="0.05" enable-background="new    " width="41.568" height="1.288"/>
	<rect id="rect165" x="45.232" y="93.496" opacity="0.05" enable-background="new    " width="37.546" height="1.288"/>
	<rect id="rect167" x="49.255" y="93.496" opacity="0.05" enable-background="new    " width="29.5" height="1.288"/>
	<rect id="rect169" x="54.619" y="93.496" opacity="0.05" enable-background="new    " width="18.773" height="1.288"/>
	<rect id="rect171" x="45.232" y="92.208" opacity="0.05" enable-background="new    " width="37.546" height="1.288"/>
	<rect id="rect173" x="47.914" y="92.208" opacity="0.05" enable-background="new    " width="32.182" height="1.288"/>
	<rect id="rect175" x="49.255" y="92.208" opacity="0.05" enable-background="new    " width="29.5" height="1.288"/>
	<rect id="rect177" x="51.937" y="92.208" opacity="0.05" enable-background="new    " width="24.136" height="1.288"/>
	<rect id="rect179" x="51.937" y="92.208" opacity="0.05" enable-background="new    " width="24.136" height="1.288"/>
</g>
<path fill="#C4DCED" stroke="#9DBCD7" stroke-miterlimit="10" d="M92.972,84.307c0,4.212-3.415,7.627-7.627,7.627h-42.68
	c-4.212,0-7.627-3.415-7.627-7.627v-42.68c0-4.212,3.415-7.627,7.627-7.627h42.681c4.212,0,7.627,3.415,7.627,7.627V84.307z"/>
<path opacity="0.5" fill="none" stroke="#FFFFFF" stroke-miterlimit="10" enable-background="new    " d="M91.956,84.307
	c0,3.651-2.96,6.611-6.611,6.611h-42.68c-3.651,0-6.611-2.96-6.611-6.611v-42.68c0-3.651,2.96-6.611,6.611-6.611h42.68
	c3.651,0,6.611,2.96,6.611,6.611V84.307z"/>
<path opacity="0.08" fill="none" stroke="#000000" stroke-miterlimit="10" enable-background="new    " d="M93.189,50.997
	c0,0,0-2.563-2.531-2.563c-7.347,0-30.807,0.004-32.907,0.004c-2.552,0-2.531-2.526-2.531-2.526s0-2.543-2.531-2.543
	c-4.431,0-13.306,0-15.188,0c-2.492,0-2.531,2.451-2.531,2.528"/>
<path opacity="0.05" fill="none" stroke="#000000" stroke-miterlimit="10" enable-background="new    " d="M93.178,50.488
	c0,0,0-2.563-2.531-2.563c-7.347,0-30.807,0.004-32.907,0.004c-2.552,0-2.531-2.526-2.531-2.526s0-2.543-2.531-2.543
	c-4.431,0-13.306,0-15.188,0c-2.492,0-2.531,2.451-2.531,2.528"/>
<path opacity="0.03" fill="none" stroke="#000000" stroke-miterlimit="10" enable-background="new    " d="M93.178,50.002
	c0,0,0-2.563-2.531-2.563c-7.347,0-30.807,0.004-32.907,0.004c-2.552,0-2.531-2.526-2.531-2.526s0-2.543-2.531-2.543
	c-4.431,0-13.306,0-15.188,0c-2.492,0-2.531,2.451-2.531,2.528"/>
<linearGradient id="SVGID_1_" gradientUnits="userSpaceOnUse" x1="886.0052" y1="-989.9344" x2="886.0052" y2="-942.1639" gradientTransform="matrix(1 0 0 -1 -822 -898)">
	<stop  offset="0" style="stop-color:#D1E0ED"/>
	<stop  offset="1" style="stop-color:#E4EEFB"/>
</linearGradient>
<path fill="url(#SVGID_1_)" stroke="#9DBCD7" stroke-miterlimit="10" d="M42.648,91.934h42.84c4.212,0,7.484-3.502,7.484-7.714
	V50.019c0-0.6-0.897-1.166-2.092-1.166c-7.379,0-30.905,0.004-33.014,0.004c-2.563,0-2.524-2.338-2.524-2.338
	s0.018-2.355-2.525-2.355c-4.45,0-13.364,0-15.254,0c-2.503,0-2.526,2.075-2.526,2.153v37.903
	C35.038,88.432,38.436,91.934,42.648,91.934z"/>
<path fill="none" stroke="#FFFFFF" stroke-miterlimit="10" d="M42.648,90.918c-3.636,0-6.594-3.004-6.594-6.698V46.317
	c0-0.048,0.008-0.454,0.309-0.756c0.252-0.253,0.656-0.381,1.2-0.381h15.254c0.602,0,0.908,0.072,1.091,0.256
	c0.405,0.407,0.423,1.028,0.423,1.035c-0.002,0.133,0.006,1.459,0.988,2.456c0.626,0.635,1.484,0.957,2.551,0.957
	c0,0,28.2-0.011,33.008-0.011c0.635,0,0.987,0.218,1.077,0.323v34.024c0,3.694-2.901,6.698-6.468,6.698h-42.84V90.918z"/>
<radialGradient id="SVGID_2_" cx="1168.1434" cy="819.2701" r="46.4534" gradientTransform="matrix(0.0197 0.9998 0.9109 -0.018 -707.3493 -1098.2991)" gradientUnits="userSpaceOnUse">
	<stop  offset="0" style="stop-color:#FFFFFF;stop-opacity:0.6"/>
	<stop  offset="0.3783" style="stop-color:#FAFCFE;stop-opacity:0.4487"/>
	<stop  offset="0.829" style="stop-color:#EBF3FC;stop-opacity:0.2684"/>
	<stop  offset="1" style="stop-color:#E4EEFB;stop-opacity:0.2"/>
</radialGradient>
<path fill="url(#SVGID_2_)" d="M42.648,90.918c-3.636,0-6.594-3.004-6.594-6.698V46.317c0-0.048,0.008-0.454,0.309-0.756
	c0.252-0.253,0.656-0.381,1.2-0.381h15.254c0.602,0,0.908,0.072,1.091,0.256c0.405,0.407,0.423,1.028,0.423,1.035
	c-0.002,0.133,0.006,1.459,0.988,2.456c0.626,0.635,1.484,0.957,2.551,0.957c0,0,28.2-0.011,33.008-0.011
	c0.635,0,0.987,0.218,1.077,0.323v34.024c0,3.694-2.901,6.698-6.468,6.698h-42.84V90.918z"/>
<g id="g27_1_">
	
		<linearGradient id="path36_2_" gradientUnits="userSpaceOnUse" x1="1270.9509" y1="-1749.3695" x2="1278.9996" y2="-1763.3102" gradientTransform="matrix(1 0 0 -1 -1234 -1716)">
		<stop  offset="0" style="stop-color:#FFFFFF"/>
		<stop  offset="0.5" style="stop-color:#FFFFFF;stop-opacity:0.6"/>
		<stop  offset="1" style="stop-color:#FFFFFF;stop-opacity:0.15"/>
	</linearGradient>
	<path id="path36_1_" fill="url(#path36_2_)" d="M43.587,49.679c0.9-1.863,1.998-3.608,3.258-5.221l-2.292-5.027
		c-1.958,1.851-3.547,3.89-4.816,5.871L43.587,49.679z"/>
	
		<linearGradient id="path45_2_" gradientUnits="userSpaceOnUse" x1="1278.2488" y1="-1747.282" x2="1283.5162" y2="-1756.4056" gradientTransform="matrix(1 0 0 -1 -1234 -1716)">
		<stop  offset="0" style="stop-color:#FFFFFF"/>
		<stop  offset="0.5" style="stop-color:#FFFFFF;stop-opacity:0.6"/>
		<stop  offset="1" style="stop-color:#FFFFFF;stop-opacity:0.15"/>
	</linearGradient>
	<path id="path45_1_" fill="url(#path45_2_)" d="M43.826,34.599l1.198,2.626c1.153-0.957,2.417-1.287,3.795-2.626H43.826z"/>
	
		<linearGradient id="path54_2_" gradientUnits="userSpaceOnUse" x1="1279.9055" y1="-1745.5494" x2="1286.3414" y2="-1756.6967" gradientTransform="matrix(1 0 0 -1 -1234 -1716)">
		<stop  offset="0" style="stop-color:#FFFFFF"/>
		<stop  offset="0.5" style="stop-color:#FFFFFF;stop-opacity:0.6"/>
		<stop  offset="1" style="stop-color:#FFFFFF;stop-opacity:0.15"/>
	</linearGradient>
	<path id="path54_1_" fill="url(#path54_2_)" d="M52.818,34.599H51.87c-2.391,1.339-4.481,2.361-6.274,3.888l2.197,4.821
		c1.877-2.168,4.055-4.068,6.494-5.603c0.019-0.017,0.032-0.032,0.052-0.049C57.072,35.295,54.358,34.599,52.818,34.599z"/>
	
		<linearGradient id="path63_2_" gradientUnits="userSpaceOnUse" x1="1266.434" y1="-1755.7246" x2="1273.4182" y2="-1767.8217" gradientTransform="matrix(1 0 0 -1 -1234 -1716)">
		<stop  offset="0" style="stop-color:#FFFFFF"/>
		<stop  offset="0.5" style="stop-color:#FFFFFF;stop-opacity:0.6"/>
		<stop  offset="1" style="stop-color:#FFFFFF;stop-opacity:0.15"/>
	</linearGradient>
	<path id="path63_1_" fill="url(#path63_2_)" d="M39.006,46.497c-1.47,2.503-2.431,4.816-3.001,6.397
		c0.675,0.963,1.79,1.595,3.056,1.595c1.567,0,2.905-0.968,3.459-2.336c0.142-0.382,0.315-0.749,0.473-1.125L39.006,46.497z"/>
	
		<linearGradient id="path72_2_" gradientUnits="userSpaceOnUse" x1="1266.12" y1="-1756.2202" x2="1273.8602" y2="-1769.627" gradientTransform="matrix(1 0 0 -1 -1234 -1716)">
		<stop  offset="0" style="stop-color:#FFFFFF"/>
		<stop  offset="0.5" style="stop-color:#FFFFFF;stop-opacity:0.6"/>
		<stop  offset="1" style="stop-color:#FFFFFF;stop-opacity:0.15"/>
	</linearGradient>
	<path id="path72_1_" fill="url(#path72_2_)" d="M35.357,42.345l-0.029,8.405c0,0,0,0.003,0,0.006c0,0.052,0.013,0.102,0.016,0.154
		c0.639-1.555,1.531-3.455,2.741-5.463L35.357,42.345z"/>
	
		<linearGradient id="path149_2_" gradientUnits="userSpaceOnUse" x1="1271.9735" y1="-1752.0216" x2="1279.2416" y2="-1764.6104" gradientTransform="matrix(1 0 0 -1 -1234 -1716)">
		<stop  offset="0" style="stop-color:#FFFFFF"/>
		<stop  offset="0.5" style="stop-color:#FFFFFF;stop-opacity:0.6"/>
		<stop  offset="1" style="stop-color:#FFFFFF;stop-opacity:0.15"/>
	</linearGradient>
	<path id="path149_1_" fill="url(#path149_2_)" d="M42.229,34.615c-2.731-0.227-6.327,2.849-6.788,5.799l3.388,3.853
		c1.352-2.064,3.034-4.178,5.109-6.088L42.229,34.615z"/>
</g>
<g>
	<path opacity="0.3" fill="#FFFFFF" enable-background="new    " d="M61.709,52.694c-2.855,0-5.721,1.076-7.895,3.242
		c-4.349,4.333-4.349,11.416,0,15.749c3.665,3.651,9.258,4.226,13.543,1.71c0.221,0.017,0.454,0.023,0.636,0.06
		c0.123,0.025,0.051-0.023,0.099,0c0.003,0.12-0.004,0.247,0,0.477c0.01,0.597,0.173,1.611,0.954,2.367l-0.02,0.02l0.06,0.06
		l5.986,6.065c0,0,0.019,0.019,0.02,0.02c0.03,0.031,0.599,0.614,1.492,0.755c0.916,0.146,2.126-0.222,3.202-1.293
		c1.076-1.072,1.44-2.284,1.293-3.202c-0.139-0.87-0.678-1.414-0.736-1.472l-0.04-0.04l-5.986-6.064
		c-0.014-0.015-0.026-0.025-0.04-0.04c-0.761-0.805-1.823-0.93-2.426-0.935c-0.221-0.002-0.337,0.001-0.457,0
		c-0.022-0.046,0.029,0.017,0-0.12c-0.038-0.181-0.061-0.401-0.079-0.617c2.524-4.269,1.976-9.849-1.69-13.502
		C67.447,53.767,64.564,52.694,61.709,52.694z M61.709,53.967c2.53,0,5.071,0.961,7,2.883c3.364,3.351,3.793,8.511,1.293,12.329
		c0.033,0.649,0.133,1.696,0.557,2.068c0.576,0.506,1.925-0.216,2.804,0.755l6.065,6.145c0,0,1.195,1.119-0.557,2.864
		c-1.752,1.745-2.864,0.557-2.864,0.557l-6.065-6.145c-0.975-0.876-0.267-2.229-0.776-2.804c-0.373-0.422-1.417-0.504-2.068-0.537
		c-3.833,2.492-9.005,2.039-12.369-1.312c-3.859-3.844-3.859-10.076,0-13.92C56.658,54.928,59.179,53.967,61.709,53.967z
		 M61.749,57.248c-1.819,0-3.46,0.701-4.653,1.889c-1.193,1.188-1.949,2.861-1.949,4.673c0,3.624,2.964,6.562,6.602,6.562
		c3.638,0,6.582-2.938,6.582-6.562S65.386,57.248,61.749,57.248z M61.749,58.521c2.948,0,5.309,2.36,5.309,5.29
		c0,2.93-2.362,5.29-5.309,5.29s-5.329-2.364-5.329-5.29c0-1.456,0.632-2.804,1.591-3.758
		C58.965,59.101,60.259,58.521,61.749,58.521z"/>
	<path opacity="0.3" fill="#FFFFFF" enable-background="new    " d="M61.709,53.311c-2.698,0-5.402,1.014-7.457,3.062
		c-4.112,4.097-4.112,10.777,0,14.874c3.512,3.499,8.881,3.996,12.946,1.511c0.29,0.017,0.629,0.042,0.915,0.099
		c0.329,0.066,0.559,0.202,0.557,0.199c-0.009-0.01,0.026,0.023,0.04,0.179c0.014,0.156-0.005,0.392,0,0.676
		c0.009,0.556,0.123,1.368,0.755,1.969c0.015,0.014,0.025,0.026,0.04,0.04l6.025,6.105c0,0,0.44,0.463,1.153,0.577
		c0.714,0.113,1.686-0.138,2.665-1.114c0.979-0.976,1.228-1.949,1.114-2.665c-0.11-0.689-0.525-1.103-0.557-1.133l-0.02-0.02
		l-6.025-6.106c-0.007-0.008-0.013-0.013-0.02-0.02c-0.606-0.651-1.427-0.751-1.989-0.755c-0.284-0.003-0.522,0.013-0.676,0
		c-0.155-0.013-0.19-0.05-0.179-0.04c0.001,0.001-0.149-0.247-0.219-0.577c-0.06-0.285-0.081-0.61-0.099-0.895
		c2.494-4.05,2.021-9.406-1.492-12.906C67.129,54.324,64.407,53.311,61.709,53.311z M61.709,53.967c2.53,0,5.071,0.961,7,2.883
		c3.364,3.351,3.793,8.511,1.293,12.329c0.033,0.649,0.133,1.696,0.557,2.068c0.576,0.506,1.925-0.216,2.804,0.755l6.065,6.145
		c0,0,1.195,1.119-0.557,2.864c-1.752,1.745-2.864,0.557-2.864,0.557l-6.065-6.145c-0.975-0.876-0.267-2.229-0.776-2.804
		c-0.373-0.422-1.417-0.504-2.068-0.537c-3.833,2.492-9.005,2.039-12.369-1.312c-3.859-3.844-3.859-10.076,0-13.92
		C56.658,54.928,59.179,53.967,61.709,53.967z M61.749,57.248c-1.819,0-3.46,0.701-4.653,1.889
		c-1.193,1.188-1.949,2.861-1.949,4.673c0,3.624,2.964,6.562,6.602,6.562c3.638,0,6.582-2.938,6.582-6.562
		S65.386,57.248,61.749,57.248z M61.749,57.905c3.281,0,5.926,2.641,5.926,5.906c0,3.265-2.646,5.906-5.926,5.906
		s-5.946-2.643-5.946-5.906c0-1.628,0.699-3.128,1.77-4.196C58.642,58.549,60.1,57.905,61.749,57.905z"/>
	<path opacity="0.3" fill="#669CCC" enable-background="new    " d="M54.719,56.85c-3.859,3.844-3.859,10.084,0,13.928
		c3.364,3.351,8.545,3.798,12.378,1.306c0.652,0.033,1.702,0.122,2.075,0.544c0.508,0.574-0.21,1.918,0.765,2.793l6.062,6.142
		c0,0,1.125,1.201,2.876-0.544c1.752-1.745,0.546-2.865,0.546-2.865l-6.062-6.142c-0.879-0.971-2.227-0.255-2.803-0.762
		c-0.423-0.372-0.513-1.418-0.546-2.067c2.501-3.818,2.053-8.981-1.31-12.332C64.841,53.006,58.578,53.006,54.719,56.85z
		 M57.086,59.136c1.193-1.188,2.841-1.886,4.66-1.886c3.638,0,6.59,2.941,6.59,6.565s-2.952,6.565-6.59,6.565
		s-6.59-2.941-6.59-6.565C55.156,62.002,55.893,60.324,57.086,59.136z"/>
	<path opacity="0.3" fill="#669CCC" enable-background="new    " d="M61.709,53.967c-2.53,0-5.051,0.961-6.98,2.883
		c-2.009,2.002-2.967,4.653-2.883,7.278c0.079-2.413,1.036-4.802,2.883-6.642c3.859-3.844,10.121-3.844,13.98,0
		c1.837,1.83,2.772,4.206,2.864,6.602c0.068-2.61-0.864-5.246-2.864-7.239C66.78,54.928,64.239,53.967,61.709,53.967z
		 M55.167,64.129c-0.005,0.105-0.02,0.211-0.02,0.318c0,3.624,2.964,6.562,6.602,6.562s6.582-2.938,6.582-6.562
		c0-0.106-0.015-0.212-0.02-0.318c-0.167,3.476-3.032,6.244-6.562,6.244C58.218,70.373,55.333,67.606,55.167,64.129z M70.041,69.737
		c-0.016,0.025-0.023,0.055-0.04,0.079c0.033,0.649,0.133,1.696,0.557,2.068c0.576,0.506,1.925-0.216,2.804,0.755l6.065,6.145
		c0,0,0.265,0.268,0.358,0.736c0.175-0.862-0.358-1.372-0.358-1.372l-6.065-6.145c-0.879-0.971-2.227-0.25-2.804-0.755
		C70.24,70.969,70.1,70.322,70.041,69.737z"/>
	<path opacity="0.3" fill="#669CCC" enable-background="new    " d="M61.709,53.967c-2.53,0-5.051,0.961-6.98,2.883
		c-3.859,3.844-3.859,10.076,0,13.92c3.364,3.351,8.537,3.804,12.369,1.312c0.652,0.033,1.695,0.115,2.068,0.537
		c0.508,0.574-0.199,1.929,0.776,2.804l6.065,6.145c0,0,1.112,1.188,2.864-0.557c1.751-1.745,0.557-2.864,0.557-2.864l-6.065-6.145
		c-0.879-0.971-2.227-0.25-2.804-0.755c-0.423-0.372-0.524-1.419-0.557-2.068c2.501-3.818,2.071-8.978-1.293-12.329
		C66.78,54.928,64.239,53.967,61.709,53.967z M61.709,54.604c2.367,0,4.738,0.906,6.542,2.704c3.149,3.137,3.55,7.947,1.213,11.514
		c-0.076,0.118-0.111,0.258-0.099,0.398c0.017,0.34,0.045,0.786,0.139,1.233s0.218,0.905,0.636,1.273
		c0.295,0.259,0.629,0.334,0.915,0.358c0.286,0.025,0.56,0.018,0.795,0.02c0.471,0.004,0.758,0.033,1.034,0.338
		c0.007,0.007,0.013,0.014,0.02,0.02l6.065,6.145c0.007,0.007,0.013,0.014,0.02,0.02c0,0,0.133,0.111,0.179,0.398
		c0.046,0.287,0.019,0.759-0.755,1.531c-0.775,0.773-1.245,0.801-1.531,0.755c-0.286-0.045-0.398-0.179-0.398-0.179
		c-0.007-0.007-0.013-0.014-0.02-0.02l-6.066-6.144c-0.007-0.007-0.013-0.014-0.02-0.02c-0.307-0.276-0.35-0.582-0.358-1.054
		c-0.004-0.236,0.006-0.49-0.02-0.776c-0.026-0.286-0.098-0.621-0.358-0.915c-0.371-0.419-0.826-0.548-1.273-0.636
		c-0.447-0.089-0.897-0.102-1.233-0.12c-0.14-0.011-0.279,0.024-0.398,0.099c-3.58,2.327-8.404,1.906-11.554-1.233
		c-3.611-3.598-3.611-9.407,0-13.005C56.993,55.508,59.342,54.604,61.709,54.604z M61.749,56.612c-1.984,0-3.798,0.76-5.111,2.068
		c-1.31,1.306-2.128,3.139-2.128,5.13c0,3.976,3.254,7.198,7.239,7.198s7.219-3.225,7.219-7.198S65.734,56.612,61.749,56.612z
		 M61.749,57.248c3.638,0,6.582,2.938,6.582,6.562c0,3.624-2.945,6.562-6.582,6.562c-3.638,0-6.602-2.938-6.602-6.562
		c0-1.812,0.756-3.485,1.949-4.673C58.288,57.949,59.93,57.248,61.749,57.248z"/>
	<path opacity="0.3" fill="#FFFFFF" enable-background="new    " d="M61.749,57.248c-1.819,0-3.46,0.701-4.653,1.889
		c-1.193,1.188-1.949,2.861-1.949,4.673c0,0.107,0.015,0.212,0.02,0.318c0.08-1.689,0.807-3.236,1.929-4.355
		c1.193-1.188,2.834-1.889,4.653-1.889c3.531,0,6.396,2.768,6.562,6.244c0.005-0.105,0.02-0.211,0.02-0.318
		C68.331,60.186,65.386,57.248,61.749,57.248z M71.572,64.089c-0.046,1.78-0.557,3.543-1.571,5.091
		c0.008,0.162,0.02,0.362,0.04,0.557C71.143,68.02,71.648,66.053,71.572,64.089z M51.846,64.129
		c-0.086,2.627,0.872,5.275,2.883,7.278c3.364,3.351,8.537,3.804,12.369,1.312c0.652,0.033,1.695,0.115,2.068,0.537
		c0.508,0.574-0.199,1.929,0.776,2.804l6.065,6.145c0,0,1.112,1.188,2.864-0.557c0.905-0.901,1.014-1.628,0.915-2.128
		c-0.085,0.42-0.341,0.919-0.915,1.492c-1.752,1.745-2.864,0.557-2.864,0.557l-6.065-6.145c-0.975-0.876-0.267-2.229-0.776-2.804
		c-0.373-0.422-1.417-0.504-2.068-0.537c-3.833,2.492-9.005,2.039-12.369-1.312C52.88,68.929,51.922,66.544,51.846,64.129z"/>
</g>
</svg>
