<?xml version="1.0" encoding="utf-8"?>
<!-- Generator: Adobe Illustrator 17.0.0, SVG Export Plug-In . SVG Version: 6.00 Build 0)  -->
<!DOCTYPE svg PUBLIC "-//W3C//DTD SVG 1.1//EN" "http://www.w3.org/Graphics/SVG/1.1/DTD/svg11.dtd">
<svg version="1.1" id="图层_1" xmlns="http://www.w3.org/2000/svg" xmlns:xlink="http://www.w3.org/1999/xlink" x="0px" y="0px"
	 width="64px" height="64px" viewBox="32 32 64 64" enable-background="new 32 32 64 64" xml:space="preserve">
<g id="g151" opacity="0.5">
	<path id="path153" opacity="0.08" enable-background="new    " d="M86.149,92.208h-44.25c-4.074,0-7.394-3.194-7.394-7.106v5.435
		c0,3.057,2.597,5.535,5.779,5.535h47.478c3.182,0,5.743-2.478,5.743-5.535v-5.435C93.505,89.015,90.221,92.208,86.149,92.208z"/>
	<path id="path155" opacity="0.1" enable-background="new    " d="M86.112,92.208h-44.25c-4.072,0-7.356-3.135-7.356-7.047v2.843
		c0,3.057,1.402,6.781,7.084,6.781s39.037,0,44.793,0c5.756,0,7.123-3.724,7.123-6.781v-2.843
		C93.505,89.073,90.184,92.208,86.112,92.208z"/>
	<path id="path157" opacity="0.1" enable-background="new    " d="M86.112,92.208h-44.25c-4.072,0-7.356-3.135-7.356-7.047v1.534
		c0,3.058,2.432,6.802,7.084,6.802s39.468,0,44.793,0c5.326,0,7.123-3.744,7.123-6.8v-1.534
		C93.505,89.073,90.184,92.208,86.112,92.208z"/>
	<rect id="rect159" x="41.21" y="92.208" opacity="0.05" enable-background="new    " width="45.591" height="1.288"/>
	<rect id="rect161" x="42.551" y="92.208" opacity="0.05" enable-background="new    " width="41.568" height="1.288"/>
	<rect id="rect163" x="42.551" y="93.496" opacity="0.05" enable-background="new    " width="41.568" height="1.288"/>
	<rect id="rect165" x="45.232" y="93.496" opacity="0.05" enable-background="new    " width="37.546" height="1.288"/>
	<rect id="rect167" x="49.255" y="93.496" opacity="0.05" enable-background="new    " width="29.5" height="1.288"/>
	<rect id="rect169" x="54.619" y="93.496" opacity="0.05" enable-background="new    " width="18.773" height="1.288"/>
	<rect id="rect171" x="45.232" y="92.208" opacity="0.05" enable-background="new    " width="37.546" height="1.288"/>
	<rect id="rect173" x="47.914" y="92.208" opacity="0.05" enable-background="new    " width="32.182" height="1.288"/>
	<rect id="rect175" x="49.255" y="92.208" opacity="0.05" enable-background="new    " width="29.5" height="1.288"/>
	<rect id="rect177" x="51.937" y="92.208" opacity="0.05" enable-background="new    " width="24.136" height="1.288"/>
	<rect id="rect179" x="51.937" y="92.208" opacity="0.05" enable-background="new    " width="24.136" height="1.288"/>
</g>
<path fill="#C4DCED" stroke="#9DBCD7" stroke-miterlimit="10" d="M92.972,84.307c0,4.212-3.415,7.627-7.627,7.627h-42.68
	c-4.212,0-7.627-3.415-7.627-7.627v-42.68c0-4.212,3.415-7.627,7.627-7.627h42.681c4.212,0,7.627,3.415,7.627,7.627V84.307z"/>
<path opacity="0.5" fill="none" stroke="#FFFFFF" stroke-miterlimit="10" enable-background="new    " d="M91.956,84.307
	c0,3.651-2.96,6.611-6.611,6.611h-42.68c-3.651,0-6.611-2.96-6.611-6.611v-42.68c0-3.651,2.96-6.611,6.611-6.611h42.68
	c3.651,0,6.611,2.96,6.611,6.611V84.307z"/>
<path opacity="0.08" fill="none" stroke="#000000" stroke-miterlimit="10" enable-background="new    " d="M93.189,50.997
	c0,0,0-2.563-2.531-2.563c-7.347,0-30.807,0.004-32.907,0.004c-2.552,0-2.531-2.526-2.531-2.526s0-2.543-2.531-2.543
	c-4.431,0-13.306,0-15.188,0c-2.492,0-2.531,2.451-2.531,2.528"/>
<path opacity="0.05" fill="none" stroke="#000000" stroke-miterlimit="10" enable-background="new    " d="M93.178,50.488
	c0,0,0-2.563-2.531-2.563c-7.347,0-30.807,0.004-32.907,0.004c-2.552,0-2.531-2.526-2.531-2.526s0-2.543-2.531-2.543
	c-4.431,0-13.306,0-15.188,0c-2.492,0-2.531,2.451-2.531,2.528"/>
<path opacity="0.03" fill="none" stroke="#000000" stroke-miterlimit="10" enable-background="new    " d="M93.178,50.002
	c0,0,0-2.563-2.531-2.563c-7.347,0-30.807,0.004-32.907,0.004c-2.552,0-2.531-2.526-2.531-2.526s0-2.543-2.531-2.543
	c-4.431,0-13.306,0-15.188,0c-2.492,0-2.531,2.451-2.531,2.528"/>
<linearGradient id="SVGID_1_" gradientUnits="userSpaceOnUse" x1="886.0052" y1="-989.9344" x2="886.0052" y2="-942.1639" gradientTransform="matrix(1 0 0 -1 -822 -898)">
	<stop  offset="0" style="stop-color:#D1E0ED"/>
	<stop  offset="1" style="stop-color:#E4EEFB"/>
</linearGradient>
<path fill="url(#SVGID_1_)" stroke="#9DBCD7" stroke-miterlimit="10" d="M42.648,91.934h42.84c4.212,0,7.484-3.502,7.484-7.714
	V50.019c0-0.6-0.897-1.166-2.092-1.166c-7.379,0-30.905,0.004-33.014,0.004c-2.563,0-2.524-2.338-2.524-2.338
	s0.018-2.355-2.525-2.355c-4.45,0-13.364,0-15.254,0c-2.503,0-2.526,2.075-2.526,2.153v37.903
	C35.038,88.432,38.436,91.934,42.648,91.934z"/>
<path fill="none" stroke="#FFFFFF" stroke-miterlimit="10" d="M42.648,90.918c-3.636,0-6.594-3.004-6.594-6.698V46.317
	c0-0.048,0.008-0.454,0.309-0.756c0.252-0.253,0.656-0.381,1.2-0.381h15.254c0.602,0,0.908,0.072,1.091,0.256
	c0.405,0.407,0.423,1.028,0.423,1.035c-0.002,0.133,0.006,1.459,0.988,2.456c0.626,0.635,1.484,0.957,2.551,0.957
	c0,0,28.2-0.011,33.008-0.011c0.635,0,0.987,0.218,1.077,0.323v34.024c0,3.694-2.901,6.698-6.468,6.698h-42.84V90.918z"/>
<radialGradient id="SVGID_2_" cx="1168.1434" cy="819.2701" r="46.4534" gradientTransform="matrix(0.0197 0.9998 0.9109 -0.018 -707.3493 -1098.2991)" gradientUnits="userSpaceOnUse">
	<stop  offset="0" style="stop-color:#FFFFFF;stop-opacity:0.6"/>
	<stop  offset="0.3783" style="stop-color:#FAFCFE;stop-opacity:0.4487"/>
	<stop  offset="0.829" style="stop-color:#EBF3FC;stop-opacity:0.2684"/>
	<stop  offset="1" style="stop-color:#E4EEFB;stop-opacity:0.2"/>
</radialGradient>
<path fill="url(#SVGID_2_)" d="M42.648,90.918c-3.636,0-6.594-3.004-6.594-6.698V46.317c0-0.048,0.008-0.454,0.309-0.756
	c0.252-0.253,0.656-0.381,1.2-0.381h15.254c0.602,0,0.908,0.072,1.091,0.256c0.405,0.407,0.423,1.028,0.423,1.035
	c-0.002,0.133,0.006,1.459,0.988,2.456c0.626,0.635,1.484,0.957,2.551,0.957c0,0,28.2-0.011,33.008-0.011
	c0.635,0,0.987,0.218,1.077,0.323v34.024c0,3.694-2.901,6.698-6.468,6.698h-42.84V90.918z"/>
<g id="g27_1_">
	
		<linearGradient id="path36_2_" gradientUnits="userSpaceOnUse" x1="1270.9509" y1="-1749.3695" x2="1278.9996" y2="-1763.3102" gradientTransform="matrix(1 0 0 -1 -1234 -1716)">
		<stop  offset="0" style="stop-color:#FFFFFF"/>
		<stop  offset="0.5" style="stop-color:#FFFFFF;stop-opacity:0.6"/>
		<stop  offset="1" style="stop-color:#FFFFFF;stop-opacity:0.15"/>
	</linearGradient>
	<path id="path36_1_" fill="url(#path36_2_)" d="M43.587,49.679c0.9-1.863,1.998-3.608,3.258-5.221l-2.292-5.027
		c-1.958,1.851-3.547,3.89-4.816,5.871L43.587,49.679z"/>
	
		<linearGradient id="path45_2_" gradientUnits="userSpaceOnUse" x1="1278.2488" y1="-1747.282" x2="1283.5162" y2="-1756.4056" gradientTransform="matrix(1 0 0 -1 -1234 -1716)">
		<stop  offset="0" style="stop-color:#FFFFFF"/>
		<stop  offset="0.5" style="stop-color:#FFFFFF;stop-opacity:0.6"/>
		<stop  offset="1" style="stop-color:#FFFFFF;stop-opacity:0.15"/>
	</linearGradient>
	<path id="path45_1_" fill="url(#path45_2_)" d="M43.826,34.599l1.198,2.626c1.153-0.957,2.417-1.287,3.795-2.626H43.826z"/>
	
		<linearGradient id="path54_2_" gradientUnits="userSpaceOnUse" x1="1279.9055" y1="-1745.5494" x2="1286.3414" y2="-1756.6967" gradientTransform="matrix(1 0 0 -1 -1234 -1716)">
		<stop  offset="0" style="stop-color:#FFFFFF"/>
		<stop  offset="0.5" style="stop-color:#FFFFFF;stop-opacity:0.6"/>
		<stop  offset="1" style="stop-color:#FFFFFF;stop-opacity:0.15"/>
	</linearGradient>
	<path id="path54_1_" fill="url(#path54_2_)" d="M52.818,34.599H51.87c-2.391,1.339-4.481,2.361-6.274,3.888l2.197,4.821
		c1.877-2.168,4.055-4.068,6.494-5.603c0.019-0.017,0.032-0.032,0.052-0.049C57.072,35.295,54.358,34.599,52.818,34.599z"/>
	
		<linearGradient id="path63_2_" gradientUnits="userSpaceOnUse" x1="1266.434" y1="-1755.7246" x2="1273.4182" y2="-1767.8217" gradientTransform="matrix(1 0 0 -1 -1234 -1716)">
		<stop  offset="0" style="stop-color:#FFFFFF"/>
		<stop  offset="0.5" style="stop-color:#FFFFFF;stop-opacity:0.6"/>
		<stop  offset="1" style="stop-color:#FFFFFF;stop-opacity:0.15"/>
	</linearGradient>
	<path id="path63_1_" fill="url(#path63_2_)" d="M39.006,46.497c-1.47,2.503-2.431,4.816-3.001,6.397
		c0.675,0.963,1.79,1.595,3.056,1.595c1.567,0,2.905-0.968,3.459-2.336c0.142-0.382,0.315-0.749,0.473-1.125L39.006,46.497z"/>
	
		<linearGradient id="path72_2_" gradientUnits="userSpaceOnUse" x1="1266.12" y1="-1756.2202" x2="1273.8602" y2="-1769.627" gradientTransform="matrix(1 0 0 -1 -1234 -1716)">
		<stop  offset="0" style="stop-color:#FFFFFF"/>
		<stop  offset="0.5" style="stop-color:#FFFFFF;stop-opacity:0.6"/>
		<stop  offset="1" style="stop-color:#FFFFFF;stop-opacity:0.15"/>
	</linearGradient>
	<path id="path72_1_" fill="url(#path72_2_)" d="M35.357,42.345l-0.029,8.405c0,0,0,0.003,0,0.006c0,0.052,0.013,0.102,0.016,0.154
		c0.639-1.555,1.531-3.455,2.741-5.463L35.357,42.345z"/>
	
		<linearGradient id="path149_2_" gradientUnits="userSpaceOnUse" x1="1271.9735" y1="-1752.0216" x2="1279.2416" y2="-1764.6104" gradientTransform="matrix(1 0 0 -1 -1234 -1716)">
		<stop  offset="0" style="stop-color:#FFFFFF"/>
		<stop  offset="0.5" style="stop-color:#FFFFFF;stop-opacity:0.6"/>
		<stop  offset="1" style="stop-color:#FFFFFF;stop-opacity:0.15"/>
	</linearGradient>
	<path id="path149_1_" fill="url(#path149_2_)" d="M42.229,34.615c-2.731-0.227-6.327,2.849-6.788,5.799l3.388,3.853
		c1.352-2.064,3.034-4.178,5.109-6.088L42.229,34.615z"/>
</g>
<g>
	<path opacity="0.05" fill="#FFFFFF" enable-background="new    " d="M57.63,54.165c-0.198,0.02-0.387,0.083-0.557,0.186
		l-9.504,5.772c-0.625,0.379-0.824,1.192-0.447,1.816c0.074,0.125,0.169,0.234,0.281,0.329l5.175,4.371l-5.257,4.246
		c-0.572,0.454-0.666,1.286-0.213,1.858c0.09,0.111,0.196,0.209,0.316,0.286l6.061,3.876c-0.027,0.101-0.04,0.204-0.042,0.309v0.824
		c-0.005,0.434,0.203,0.841,0.557,1.092l9.277,6.474c0.452,0.314,1.052,0.314,1.506,0l9.402-6.474
		c0.361-0.246,0.577-0.655,0.577-1.092v-0.928c0-0.111-0.013-0.223-0.042-0.329l5.855-3.753c0.613-0.397,0.787-1.217,0.389-1.828
		c-0.078-0.12-0.175-0.226-0.286-0.316l-5.175-4.185l5.175-4.412c0.555-0.474,0.622-1.308,0.148-1.865
		c-0.095-0.111-0.208-0.206-0.334-0.281l-9.483-5.752c-0.488-0.297-1.112-0.248-1.546,0.123l-5.401,4.661l-5.443-4.7
		C58.345,54.242,57.988,54.13,57.63,54.165z M57.753,55.485l6.309,5.443l6.268-5.401l9.484,5.752l-6.392,5.443l6.432,5.195
		l-9.422,6.019l-6.43-5.463l-6.432,5.463l-9.422-6.02l6.474-5.217l9.38,5.774l9.36-5.752l-9.36-5.772l-9.319,5.752l-6.432-5.443
		L57.753,55.485z M64.001,62.515l6.824,4.207l-6.824,4.185l-6.804-4.185L64.001,62.515z M64.001,73.568l6.432,5.463l3.01-1.918
		v0.928l-9.402,6.474l-9.277-6.474v-0.824l2.804,1.815L64.001,73.568z"/>
	<path opacity="0.1" fill="#FFFFFF" enable-background="new    " d="M57.692,54.825c-0.103,0.011-0.201,0.047-0.289,0.103
		L47.898,60.7c-0.308,0.196-0.399,0.603-0.203,0.911c0.033,0.051,0.073,0.1,0.12,0.141l5.793,4.906L47.734,71.4
		c-0.284,0.228-0.329,0.643-0.1,0.928c0.045,0.056,0.1,0.105,0.163,0.145l6.577,4.207c-0.169,0.125-0.269,0.324-0.268,0.537v0.824
		c0.003,0.215,0.111,0.416,0.289,0.537l9.277,6.473c0.225,0.153,0.519,0.153,0.743,0l9.402-6.474
		c0.178-0.121,0.286-0.321,0.289-0.537v-0.928c0.003-0.223-0.105-0.432-0.289-0.557l6.392-4.081
		c0.308-0.194,0.401-0.602,0.206-0.911c-0.038-0.061-0.088-0.116-0.145-0.163l-5.814-4.7l5.793-4.928
		c0.273-0.241,0.299-0.658,0.058-0.931c-0.042-0.047-0.088-0.087-0.141-0.12l-9.483-5.752c-0.246-0.155-0.565-0.13-0.783,0.061
		l-5.836,5.031l-5.875-5.072C58.051,54.87,57.873,54.81,57.692,54.825z M57.753,55.485l6.309,5.443l6.268-5.401l9.484,5.752
		l-6.392,5.443l6.432,5.195l-9.422,6.019l-6.43-5.463l-6.432,5.463l-9.422-6.02l6.474-5.217l9.38,5.774l9.36-5.752l-9.36-5.772
		l-9.319,5.752l-6.432-5.443C48.25,61.258,57.753,55.485,57.753,55.485z M64.001,61.712l8.102,5.009l-8.102,4.99l-8.102-4.99
		L64.001,61.712z M64.001,73.568l6.432,5.463l3.01-1.918v0.928l-9.402,6.474l-9.277-6.474v-0.824l2.804,1.815L64.001,73.568z"/>
	<path opacity="0.3" fill="#669CCC" enable-background="new    " d="M57.75,55.485l-9.494,5.779l6.432,5.435l9.32-5.744l9.356,5.761
		l-9.356,5.761l6.432,5.451l9.425-6.02l-6.449-5.194l6.397-5.435l-9.494-5.761l-6.26,5.4L57.75,55.485L57.75,55.485z M54.619,66.699
		l-6.483,5.21l9.441,6.02l6.416-5.451C63.993,72.476,54.619,66.699,54.619,66.699z M63.993,73.577l-6.416,5.451l-2.821-1.806v0.826
		l9.288,6.467l9.39-6.467V77.12l-2.993,1.91C70.441,79.029,63.993,73.577,63.993,73.577z"/>
	<path opacity="0.3" fill="#669CCC" enable-background="new    " d="M57.753,55.485l-9.505,5.772L54.68,66.7l9.32-5.751l9.36,5.772
		l-9.36,5.752l6.432,5.463l9.422-6.02l-6.432-5.195l6.392-5.443l-9.483-5.752l-6.268,5.401L57.753,55.485z M64.001,72.474
		l-9.38-5.772l-6.474,5.217l9.422,6.02L64.001,72.474z M57.651,56.763l4.661,4.02l-7.546,4.639l-4.763-4.02L57.651,56.763z
		 M70.433,56.805l7.628,4.619l-4.742,4.041l-7.546-4.639C65.775,60.825,70.433,56.805,70.433,56.805z M54.702,67.958l7.546,4.661
		l-4.764,4.041l-7.587-4.844L54.702,67.958z M73.32,67.958l4.783,3.856l-7.587,4.845l-4.763-4.041L73.32,67.958z M64.001,73.568
		l-6.432,5.463l-2.804-1.815v0.824l9.277,6.474l9.402-6.474v-0.928l-3.01,1.918L64.001,73.568z M64.001,74.907l5.463,4.639
		l-5.401,3.712l-5.443-3.773L64.001,74.907z"/>
	<path opacity="0.5" fill="#669CCC" enable-background="new    " d="M57.753,55.485l-9.505,5.772l0.454,0.392l9.052-5.504
		l5.855,5.051l0.392-0.246l0.473,0.289l5.855-5.051l9.03,5.485l0.454-0.392l-9.484-5.752l-6.268,5.401L57.753,55.485z
		 M54.248,66.989l-6.103,4.928l0.454,0.289l6.02-4.844l8.927,5.504l0.456-0.392l-8.824-5.423l-0.496,0.309L54.248,66.989z
		 M64.001,72.474l0.454,0.392l8.906-5.485l-0.537-0.329L64.001,72.474z M73.815,67.052l-0.392,0.329l5.98,4.825l0.454-0.289
		L73.815,67.052z M64.001,73.568l-6.432,5.463l-2.804-1.815v0.66l2.804,1.815l6.432-5.463l6.432,5.463l3.01-1.918v-0.66l-3.01,1.918
		L64.001,73.568z"/>
	<path opacity="0.3" fill="#669CCC" enable-background="new    " d="M57.753,55.485l-9.505,5.772L54.68,66.7l9.32-5.751l9.36,5.772
		l-9.36,5.752l6.432,5.463l9.422-6.02l-6.432-5.195l6.392-5.443l-9.483-5.752l-6.268,5.401L57.753,55.485z M64.001,72.474
		l-9.38-5.772l-6.474,5.217l9.422,6.02L64.001,72.474z M57.692,56.125l5.463,4.722l-8.433,5.217l-5.588-4.722
		C49.134,61.342,57.692,56.125,57.692,56.125z M70.393,56.166l8.536,5.195l-5.588,4.742l-8.433-5.217
		C64.908,60.887,70.393,56.166,70.393,56.166z M54.661,67.34l8.453,5.217l-5.588,4.742l-8.495-5.423L54.661,67.34z M73.361,67.34
		l5.608,4.536l-8.495,5.423l-5.588-4.742L73.361,67.34z M64.001,73.568l-6.432,5.463l-2.804-1.815v0.824l9.277,6.474l9.402-6.474
		v-0.928l-3.01,1.918L64.001,73.568z M64.001,74.247l6.103,5.175c0.065,0.06,0.141,0.101,0.226,0.123l-6.268,4.33l-6.289-4.371
		c0.045-0.021,0.087-0.05,0.123-0.083L64.001,74.247z"/>
	<path opacity="0.2" fill="#FFFFFF" enable-background="new    " d="M63.609,61.195L54.682,66.7l-5.98-5.051l-0.454,0.268l6,5.072
		l0.371-0.289l0.557,0.35L64,61.609l8.824,5.443l0.537-0.329l-8.887-5.485l-0.412,0.35L63.609,61.195z M79.361,61.671l-5.939,5.051
		l0.392,0.329l6-5.112L79.361,61.671z M48.599,72.206l-0.454,0.371l9.422,6.02l6.434-5.463l-0.454-0.268l-5.98,5.072L48.599,72.206z
		 M64.001,73.134l6.432,5.463l9.422-6.02l-0.454-0.371l-8.968,5.732l-5.98-5.072L64.001,73.134z M54.764,78.041v0.66l9.277,6.474
		l9.402-6.474v-0.66l-9.402,6.474L54.764,78.041z"/>
</g>
</svg>
