<?xml version="1.0" encoding="utf-8"?>
<!-- Generator: Adobe Illustrator 17.0.0, SVG Export Plug-In . SVG Version: 6.00 Build 0)  -->
<!DOCTYPE svg PUBLIC "-//W3C//DTD SVG 1.1//EN" "http://www.w3.org/Graphics/SVG/1.1/DTD/svg11.dtd">
<svg version="1.1" id="图层_1" xmlns="http://www.w3.org/2000/svg" xmlns:xlink="http://www.w3.org/1999/xlink" x="0px" y="0px"
	 width="64px" height="64px" viewBox="0 0 64 64" enable-background="new 0 0 64 64" xml:space="preserve">
<g id="g151" opacity="0.5">
	<path id="path153" opacity="0.08" enable-background="new    " d="M54.144,59.172H9.894c-4.074,0-7.394-3.194-7.394-7.106v5.435
		c0,3.057,2.597,5.535,5.779,5.535h47.478c3.182,0,5.743-2.478,5.743-5.535v-5.435C61.499,55.979,58.215,59.172,54.144,59.172z"/>
	<path id="path155" opacity="0.1" enable-background="new    " d="M54.106,59.172H9.857c-4.072,0-7.356-3.135-7.356-7.047v2.843
		c0,3.057,1.402,6.781,7.084,6.781s39.037,0,44.793,0s7.123-3.724,7.123-6.781v-2.843C61.499,56.037,58.178,59.172,54.106,59.172z"
		/>
	<path id="path157" opacity="0.1" enable-background="new    " d="M54.106,59.172H9.857c-4.072,0-7.356-3.135-7.356-7.047v1.534
		c0,3.058,2.432,6.802,7.084,6.802s39.468,0,44.793,0c5.326,0,7.123-3.744,7.123-6.8v-1.534
		C61.499,56.037,58.178,59.172,54.106,59.172z"/>
	<rect id="rect159" x="9.205" y="59.172" opacity="0.05" enable-background="new    " width="45.591" height="1.288"/>
	<rect id="rect161" x="10.545" y="59.172" opacity="0.05" enable-background="new    " width="41.568" height="1.288"/>
	<rect id="rect163" x="10.545" y="60.46" opacity="0.05" enable-background="new    " width="41.568" height="1.288"/>
	<rect id="rect165" x="13.226" y="60.46" opacity="0.05" enable-background="new    " width="37.546" height="1.288"/>
	<rect id="rect167" x="17.25" y="60.46" opacity="0.05" enable-background="new    " width="29.5" height="1.288"/>
	<rect id="rect169" x="22.614" y="60.46" opacity="0.05" enable-background="new    " width="18.773" height="1.288"/>
	<rect id="rect171" x="13.226" y="59.172" opacity="0.05" enable-background="new    " width="37.546" height="1.288"/>
	<rect id="rect173" x="15.909" y="59.172" opacity="0.05" enable-background="new    " width="32.182" height="1.288"/>
	<rect id="rect175" x="17.25" y="59.172" opacity="0.05" enable-background="new    " width="29.5" height="1.288"/>
	<rect id="rect177" x="19.932" y="59.172" opacity="0.05" enable-background="new    " width="24.136" height="1.288"/>
	<rect id="rect179" x="19.932" y="59.172" opacity="0.05" enable-background="new    " width="24.136" height="1.288"/>
</g>
<path fill="#C4DCED" stroke="#9DBCD7" stroke-miterlimit="10" d="M60.966,51.271c0,4.212-3.415,7.627-7.627,7.627H10.66
	c-4.212,0-7.627-3.415-7.627-7.627V8.591c0-4.212,3.415-7.627,7.627-7.627h42.68c4.212,0,7.627,3.415,7.627,7.627L60.966,51.271
	L60.966,51.271z"/>
<path opacity="0.5" fill="none" stroke="#FFFFFF" stroke-miterlimit="10" enable-background="new    " d="M59.951,51.271
	c0,3.651-2.96,6.611-6.611,6.611H10.66c-3.651,0-6.611-2.96-6.611-6.611V8.591c0-3.651,2.96-6.611,6.611-6.611h42.68
	c3.651,0,6.611,2.96,6.611,6.611V51.271z"/>
<path opacity="0.08" fill="none" stroke="#000000" stroke-miterlimit="10" enable-background="new    " d="M61.184,17.961
	c0,0,0-2.563-2.531-2.563c-7.347,0-30.807,0.004-32.907,0.004c-2.552,0-2.531-2.526-2.531-2.526s0-2.543-2.531-2.543
	c-4.431,0-13.306,0-15.188,0c-2.492,0-2.531,2.451-2.531,2.528"/>
<path opacity="0.05" fill="none" stroke="#000000" stroke-miterlimit="10" enable-background="new    " d="M61.173,17.452
	c0,0,0-2.563-2.531-2.563c-7.347,0-30.807,0.004-32.907,0.004c-2.552,0-2.531-2.526-2.531-2.526s0-2.543-2.531-2.543
	c-4.431,0-13.306,0-15.188,0c-2.492,0-2.531,2.451-2.531,2.528"/>
<path opacity="0.03" fill="none" stroke="#000000" stroke-miterlimit="10" enable-background="new    " d="M61.173,16.966
	c0,0,0-2.563-2.531-2.563c-7.347,0-30.807,0.004-32.907,0.004c-2.552,0-2.531-2.526-2.531-2.526s0-2.543-2.531-2.543
	c-4.431,0-13.306,0-15.188,0c-2.492,0-2.531,2.451-2.531,2.528"/>
<linearGradient id="SVGID_1_" gradientUnits="userSpaceOnUse" x1="1401.9985" y1="-1683.8979" x2="1401.9985" y2="-1636.1281" gradientTransform="matrix(1 0 0 -1 -1370 -1625)">
	<stop  offset="0" style="stop-color:#D1E0ED"/>
	<stop  offset="1" style="stop-color:#E4EEFB"/>
</linearGradient>
<path fill="url(#SVGID_1_)" stroke="#9DBCD7" stroke-miterlimit="10" d="M10.642,58.898h42.84c4.212,0,7.484-3.502,7.484-7.714
	V16.983c0-0.6-0.897-1.166-2.092-1.166c-7.379,0-30.905,0.004-33.014,0.004c-2.563,0-2.524-2.338-2.524-2.338
	s0.018-2.355-2.525-2.355c-4.45,0-13.364,0-15.254,0c-2.503,0-2.526,2.075-2.526,2.153v37.903
	C3.032,55.396,6.431,58.898,10.642,58.898z"/>
<path fill="none" stroke="#FFFFFF" stroke-miterlimit="10" d="M10.642,57.882c-3.636,0-6.594-3.004-6.594-6.698V13.281
	c0-0.048,0.008-0.454,0.309-0.756c0.252-0.253,0.656-0.381,1.2-0.381h15.254c0.602,0,0.908,0.072,1.091,0.256
	c0.405,0.407,0.423,1.028,0.423,1.035c-0.002,0.133,0.006,1.459,0.988,2.456c0.626,0.635,1.484,0.957,2.551,0.957
	c0,0,28.2-0.011,33.008-0.011c0.635,0,0.987,0.218,1.077,0.323v34.024c0,3.694-2.901,6.698-6.468,6.698L10.642,57.882L10.642,57.882
	L10.642,57.882z"/>
<radialGradient id="SVGID_2_" cx="1873.1508" cy="1369.4135" r="46.4534" gradientTransform="matrix(0.0197 0.9998 0.9109 -0.018 -1254.369 -1826.2988)" gradientUnits="userSpaceOnUse">
	<stop  offset="0" style="stop-color:#FFFFFF;stop-opacity:0.6"/>
	<stop  offset="0.3783" style="stop-color:#FAFCFE;stop-opacity:0.4487"/>
	<stop  offset="0.829" style="stop-color:#EBF3FC;stop-opacity:0.2684"/>
	<stop  offset="1" style="stop-color:#E4EEFB;stop-opacity:0.2"/>
</radialGradient>
<path fill="url(#SVGID_2_)" d="M10.642,57.882c-3.636,0-6.594-3.004-6.594-6.698V13.281c0-0.048,0.008-0.454,0.309-0.756
	c0.252-0.253,0.656-0.381,1.2-0.381h15.254c0.602,0,0.908,0.072,1.091,0.256c0.405,0.407,0.423,1.028,0.423,1.035
	c-0.002,0.133,0.006,1.459,0.988,2.456c0.626,0.635,1.484,0.957,2.551,0.957c0,0,28.2-0.011,33.008-0.011
	c0.635,0,0.987,0.218,1.077,0.323v34.024c0,3.694-2.901,6.698-6.468,6.698L10.642,57.882L10.642,57.882L10.642,57.882z"/>
<g id="g27_1_">
	
		<linearGradient id="path36_2_" gradientUnits="userSpaceOnUse" x1="1786.9456" y1="-2443.3335" x2="1794.9943" y2="-2457.2742" gradientTransform="matrix(1 0 0 -1 -1782 -2443)">
		<stop  offset="0" style="stop-color:#FFFFFF"/>
		<stop  offset="0.5" style="stop-color:#FFFFFF;stop-opacity:0.6"/>
		<stop  offset="1" style="stop-color:#FFFFFF;stop-opacity:0.15"/>
	</linearGradient>
	<path id="path36_1_" fill="url(#path36_2_)" d="M11.582,16.643c0.9-1.863,1.998-3.608,3.258-5.221l-2.292-5.027
		c-1.958,1.851-3.547,3.89-4.816,5.871L11.582,16.643z"/>
	
		<linearGradient id="path45_2_" gradientUnits="userSpaceOnUse" x1="1794.2434" y1="-2441.2458" x2="1799.5109" y2="-2450.3696" gradientTransform="matrix(1 0 0 -1 -1782 -2443)">
		<stop  offset="0" style="stop-color:#FFFFFF"/>
		<stop  offset="0.5" style="stop-color:#FFFFFF;stop-opacity:0.6"/>
		<stop  offset="1" style="stop-color:#FFFFFF;stop-opacity:0.15"/>
	</linearGradient>
	<path id="path45_1_" fill="url(#path45_2_)" d="M11.821,1.563l1.198,2.626c1.153-0.957,2.417-1.287,3.795-2.626
		C16.814,1.563,11.821,1.563,11.821,1.563z"/>
	
		<linearGradient id="path54_2_" gradientUnits="userSpaceOnUse" x1="1795.8999" y1="-2439.5137" x2="1802.3358" y2="-2450.6609" gradientTransform="matrix(1 0 0 -1 -1782 -2443)">
		<stop  offset="0" style="stop-color:#FFFFFF"/>
		<stop  offset="0.5" style="stop-color:#FFFFFF;stop-opacity:0.6"/>
		<stop  offset="1" style="stop-color:#FFFFFF;stop-opacity:0.15"/>
	</linearGradient>
	<path id="path54_1_" fill="url(#path54_2_)" d="M20.813,1.563h-0.948c-2.391,1.339-4.481,2.361-6.274,3.888l2.197,4.821
		c1.877-2.168,4.055-4.068,6.494-5.603c0.019-0.017,0.032-0.032,0.052-0.049C25.066,2.259,22.353,1.563,20.813,1.563z"/>
	
		<linearGradient id="path63_2_" gradientUnits="userSpaceOnUse" x1="1782.4291" y1="-2449.6882" x2="1789.4133" y2="-2461.7852" gradientTransform="matrix(1 0 0 -1 -1782 -2443)">
		<stop  offset="0" style="stop-color:#FFFFFF"/>
		<stop  offset="0.5" style="stop-color:#FFFFFF;stop-opacity:0.6"/>
		<stop  offset="1" style="stop-color:#FFFFFF;stop-opacity:0.15"/>
	</linearGradient>
	<path id="path63_1_" fill="url(#path63_2_)" d="M7.001,13.461C5.531,15.964,4.57,18.277,4,19.858
		c0.675,0.963,1.79,1.595,3.056,1.595c1.567,0,2.905-0.968,3.459-2.336c0.142-0.382,0.315-0.749,0.473-1.125L7.001,13.461z"/>
	
		<linearGradient id="path72_2_" gradientUnits="userSpaceOnUse" x1="1782.114" y1="-2450.1846" x2="1789.8542" y2="-2463.5913" gradientTransform="matrix(1 0 0 -1 -1782 -2443)">
		<stop  offset="0" style="stop-color:#FFFFFF"/>
		<stop  offset="0.5" style="stop-color:#FFFFFF;stop-opacity:0.6"/>
		<stop  offset="1" style="stop-color:#FFFFFF;stop-opacity:0.15"/>
	</linearGradient>
	<path id="path72_1_" fill="url(#path72_2_)" d="M3.351,9.309l-0.029,8.405c0,0,0,0.003,0,0.006c0,0.052,0.013,0.102,0.016,0.154
		c0.639-1.555,1.531-3.455,2.741-5.463L3.351,9.309z"/>
	
		<linearGradient id="path149_2_" gradientUnits="userSpaceOnUse" x1="1787.968" y1="-2445.9856" x2="1795.2361" y2="-2458.5742" gradientTransform="matrix(1 0 0 -1 -1782 -2443)">
		<stop  offset="0" style="stop-color:#FFFFFF"/>
		<stop  offset="0.5" style="stop-color:#FFFFFF;stop-opacity:0.6"/>
		<stop  offset="1" style="stop-color:#FFFFFF;stop-opacity:0.15"/>
	</linearGradient>
	<path id="path149_1_" fill="url(#path149_2_)" d="M10.224,1.579C7.493,1.352,3.897,4.428,3.436,7.378l3.388,3.853
		c1.352-2.064,3.034-4.178,5.109-6.088L10.224,1.579z"/>
</g>
<g>
	<g opacity="0.3">
		<g opacity="0.5">
			<path fill="#FFFFFF" d="M22.198,23.014c3.669-1.216,7.876-0.459,10.891,1.962c-0.58,3.224-1.161,6.448-1.742,9.672
				c-3.014-2.42-7.222-3.178-10.891-1.962C21.036,29.462,21.617,26.238,22.198,23.014z"/>
		</g>
		<g>
			<path fill="#669CCC" d="M22.198,22.119c3.669-1.216,7.876-0.459,10.891,1.962c-0.58,3.224-1.161,6.448-1.742,9.672
				c-3.014-2.42-7.222-3.178-10.891-1.962C21.036,28.567,21.617,25.343,22.198,22.119z"/>
		</g>
	</g>
	<g opacity="0.3">
		<g opacity="0.5">
			<path fill="#FFFFFF" d="M34.644,25.256c3.041,2.369,7.215,3.12,10.891,1.962c-0.58,3.224-1.161,6.448-1.742,9.672
				c-3.676,1.159-7.85,0.407-10.891-1.962C33.483,31.704,34.063,28.48,34.644,25.256z"/>
		</g>
		<g>
			<path fill="#669CCC" d="M34.644,24.361c3.041,2.369,7.215,3.12,10.891,1.962c-0.58,3.224-1.161,6.448-1.742,9.672
				c-3.676,1.159-7.85,0.407-10.891-1.962C33.483,30.808,34.063,27.585,34.644,24.361z"/>
		</g>
	</g>
	<g opacity="0.3">
		<g opacity="0.5">
			<path fill="#FFFFFF" d="M20.207,34.068c3.669-1.216,7.876-0.459,10.891,1.962c-0.58,3.224-1.161,6.448-1.742,9.672
				c-3.014-2.42-7.222-3.178-10.891-1.962C19.046,40.515,19.626,37.291,20.207,34.068z"/>
		</g>
		<g>
			<path fill="#669CCC" d="M20.207,33.172c3.669-1.216,7.876-0.459,10.891,1.962c-0.58,3.224-1.161,6.448-1.742,9.672
				c-3.014-2.42-7.222-3.178-10.891-1.962C19.046,39.62,19.626,36.396,20.207,33.172z"/>
		</g>
	</g>
	<g opacity="0.3">
		<g opacity="0.5">
			<path fill="#FFFFFF" d="M32.653,36.309c3.041,2.369,7.215,3.12,10.891,1.962c-0.58,3.224-1.161,6.448-1.742,9.672
				c-3.676,1.159-7.85,0.407-10.891-1.962C31.492,42.757,32.073,39.533,32.653,36.309z"/>
		</g>
		<g>
			<path fill="#669CCC" d="M32.653,35.414c3.041,2.369,7.215,3.12,10.891,1.962c-0.58,3.224-1.161,6.448-1.742,9.672
				c-3.676,1.159-7.85,0.407-10.891-1.962C31.492,41.862,32.073,38.638,32.653,35.414z"/>
		</g>
	</g>
	<path opacity="0.1" fill="#669CCC" enable-background="new    " d="M22.198,22.119c-0.58,3.224-1.161,6.448-1.742,9.672
		c3.669-1.216,7.876-0.459,10.891,1.962c0.58-3.224,1.161-6.448,1.742-9.672C30.074,21.661,25.867,20.903,22.198,22.119z
		 M30.712,32.204c-1.971-1.223-4.292-1.884-6.671-1.884c-0.831,0-1.651,0.081-2.45,0.242l1.395-7.742
		c0.901-0.248,1.839-0.373,2.798-0.373c2.292,0,4.518,0.713,6.324,2.016L30.712,32.204z"/>
	<path opacity="0.1" fill="#669CCC" enable-background="new    " d="M34.644,24.361c-0.58,3.224-1.161,6.448-1.742,9.672
		c3.041,2.369,7.215,3.12,10.891,1.962c0.58-3.224,1.161-6.448,1.742-9.672C41.858,27.481,37.685,26.73,34.644,24.361z
		 M43.007,35.285c-0.884,0.23-1.802,0.346-2.736,0.346c-2.302,0-4.548-0.703-6.385-1.989l1.396-7.752
		c1.998,1.212,4.34,1.867,6.731,1.867c0.809,0,1.609-0.075,2.39-0.224L43.007,35.285z"/>
	<path opacity="0.1" fill="#669CCC" enable-background="new    " d="M20.207,33.172c-0.58,3.224-1.161,6.448-1.742,9.672
		c3.669-1.216,7.876-0.459,10.891,1.962c0.58-3.224,1.161-6.448,1.742-9.672C28.083,32.714,23.876,31.956,20.207,33.172z
		 M28.721,43.258c-1.971-1.223-4.292-1.884-6.671-1.884c-0.831,0-1.651,0.081-2.45,0.242l1.395-7.742
		c0.901-0.248,1.839-0.373,2.798-0.373c2.292,0,4.518,0.713,6.324,2.016L28.721,43.258z"/>
	<path opacity="0.1" fill="#669CCC" enable-background="new    " d="M32.653,35.414c-0.58,3.224-1.161,6.448-1.742,9.672
		c3.041,2.369,7.215,3.12,10.891,1.962c0.58-3.224,1.161-6.448,1.742-9.672C39.868,38.535,35.694,37.783,32.653,35.414z
		 M41.016,46.338c-0.884,0.23-1.802,0.346-2.736,0.346c-2.302,0-4.548-0.703-6.385-1.989l1.396-7.752
		c1.998,1.212,4.34,1.867,6.731,1.867c0.809,0,1.609-0.075,2.391-0.224L41.016,46.338z"/>
	<g opacity="0.5">
		<path opacity="0.3" fill="#669CCC" enable-background="new    " d="M22.198,22.119c-0.58,3.224-1.161,6.448-1.742,9.672
			c3.669-1.216,7.876-0.459,10.891,1.962c0.58-3.224,1.161-6.448,1.742-9.672C30.074,21.661,25.867,20.903,22.198,22.119z
			 M31.033,32.955c-2.013-1.414-4.468-2.185-6.993-2.185c-1.029,0-2.039,0.129-3.013,0.384l1.565-8.687
			c1.023-0.311,2.095-0.469,3.19-0.469c2.484,0,4.894,0.805,6.816,2.27L31.033,32.955z"/>
		<path opacity="0.3" fill="#669CCC" enable-background="new    " d="M34.644,24.361c-0.58,3.224-1.161,6.448-1.742,9.672
			c3.041,2.369,7.215,3.12,10.891,1.962c0.58-3.224,1.161-6.448,1.742-9.672C41.858,27.481,37.685,26.73,34.644,24.361z
			 M43.399,35.643c-1.006,0.29-2.057,0.437-3.128,0.437c-2.493,0-4.924-0.794-6.878-2.24l1.566-8.694
			c2.042,1.398,4.52,2.16,7.054,2.16c1.006,0,1.996-0.12,2.952-0.358L43.399,35.643z"/>
		<path opacity="0.3" fill="#669CCC" enable-background="new    " d="M20.207,33.172c-0.58,3.224-1.161,6.448-1.742,9.672
			c3.669-1.216,7.876-0.459,10.891,1.962c0.58-3.224,1.161-6.448,1.742-9.672C28.083,32.714,23.876,31.956,20.207,33.172z
			 M29.042,44.009c-2.013-1.414-4.468-2.186-6.993-2.186c-1.029,0-2.039,0.129-3.013,0.384l1.565-8.687
			c1.023-0.311,2.095-0.469,3.191-0.469c2.484,0,4.894,0.805,6.815,2.271L29.042,44.009z"/>
		<path opacity="0.3" fill="#669CCC" enable-background="new    " d="M32.653,35.414c-0.58,3.224-1.161,6.448-1.742,9.672
			c3.041,2.369,7.215,3.12,10.891,1.962c0.58-3.224,1.161-6.448,1.742-9.672C39.868,38.535,35.694,37.783,32.653,35.414z
			 M41.408,46.697c-1.006,0.29-2.057,0.437-3.128,0.437c-2.493,0-4.924-0.794-6.878-2.239l1.566-8.694
			c2.042,1.398,4.519,2.16,7.053,2.16c1.006,0,1.996-0.12,2.952-0.358L41.408,46.697z"/>
	</g>
</g>
</svg>
