<?xml version="1.0" encoding="utf-8"?>
<!-- Generator: Adobe Illustrator 17.0.0, SVG Export Plug-In . SVG Version: 6.00 Build 0)  -->
<!DOCTYPE svg PUBLIC "-//W3C//DTD SVG 1.1//EN" "http://www.w3.org/Graphics/SVG/1.1/DTD/svg11.dtd">
<svg version="1.1" id="图层_1" xmlns="http://www.w3.org/2000/svg" xmlns:xlink="http://www.w3.org/1999/xlink" x="0px" y="0px"
	 width="64px" height="64px" viewBox="0 0 64 64" enable-background="new 0 0 64 64" xml:space="preserve">
<g id="g151" opacity="0.5">
	<path id="path153" opacity="0.08" enable-background="new    " d="M54.144,59.172H9.894c-4.074,0-7.394-3.194-7.394-7.106v5.435
		c0,3.057,2.597,5.535,5.779,5.535h47.478c3.182,0,5.743-2.478,5.743-5.535v-5.435C61.499,55.979,58.215,59.172,54.144,59.172z"/>
	<path id="path155" opacity="0.1" enable-background="new    " d="M54.106,59.172H9.857c-4.072,0-7.356-3.135-7.356-7.047v2.843
		c0,3.057,1.402,6.781,7.084,6.781s39.037,0,44.793,0s7.123-3.724,7.123-6.781v-2.843C61.499,56.037,58.178,59.172,54.106,59.172z"
		/>
	<path id="path157" opacity="0.1" enable-background="new    " d="M54.106,59.172H9.857c-4.072,0-7.356-3.135-7.356-7.047v1.534
		c0,3.058,2.432,6.802,7.084,6.802s39.468,0,44.793,0c5.326,0,7.123-3.744,7.123-6.8v-1.534
		C61.499,56.037,58.178,59.172,54.106,59.172z"/>
	<rect id="rect159" x="9.205" y="59.172" opacity="0.05" enable-background="new    " width="45.591" height="1.288"/>
	<rect id="rect161" x="10.545" y="59.172" opacity="0.05" enable-background="new    " width="41.568" height="1.288"/>
	<rect id="rect163" x="10.545" y="60.46" opacity="0.05" enable-background="new    " width="41.568" height="1.288"/>
	<rect id="rect165" x="13.226" y="60.46" opacity="0.05" enable-background="new    " width="37.546" height="1.288"/>
	<rect id="rect167" x="17.25" y="60.46" opacity="0.05" enable-background="new    " width="29.5" height="1.288"/>
	<rect id="rect169" x="22.614" y="60.46" opacity="0.05" enable-background="new    " width="18.773" height="1.288"/>
	<rect id="rect171" x="13.226" y="59.172" opacity="0.05" enable-background="new    " width="37.546" height="1.288"/>
	<rect id="rect173" x="15.909" y="59.172" opacity="0.05" enable-background="new    " width="32.182" height="1.288"/>
	<rect id="rect175" x="17.25" y="59.172" opacity="0.05" enable-background="new    " width="29.5" height="1.288"/>
	<rect id="rect177" x="19.932" y="59.172" opacity="0.05" enable-background="new    " width="24.136" height="1.288"/>
	<rect id="rect179" x="19.932" y="59.172" opacity="0.05" enable-background="new    " width="24.136" height="1.288"/>
</g>
<path fill="#C4DCED" stroke="#9DBCD7" stroke-miterlimit="10" d="M60.966,51.271c0,4.212-3.415,7.627-7.627,7.627H10.66
	c-4.212,0-7.627-3.415-7.627-7.627V8.591c0-4.212,3.415-7.627,7.627-7.627h42.68c4.212,0,7.627,3.415,7.627,7.627L60.966,51.271
	L60.966,51.271z"/>
<path opacity="0.5" fill="none" stroke="#FFFFFF" stroke-miterlimit="10" enable-background="new    " d="M59.951,51.271
	c0,3.651-2.96,6.611-6.611,6.611H10.66c-3.651,0-6.611-2.96-6.611-6.611V8.591c0-3.651,2.96-6.611,6.611-6.611h42.68
	c3.651,0,6.611,2.96,6.611,6.611V51.271z"/>
<path opacity="0.08" fill="none" stroke="#000000" stroke-miterlimit="10" enable-background="new    " d="M61.184,17.961
	c0,0,0-2.563-2.531-2.563c-7.347,0-30.807,0.004-32.907,0.004c-2.552,0-2.531-2.526-2.531-2.526s0-2.543-2.531-2.543
	c-4.431,0-13.306,0-15.188,0c-2.492,0-2.531,2.451-2.531,2.528"/>
<path opacity="0.05" fill="none" stroke="#000000" stroke-miterlimit="10" enable-background="new    " d="M61.173,17.452
	c0,0,0-2.563-2.531-2.563c-7.347,0-30.807,0.004-32.907,0.004c-2.552,0-2.531-2.526-2.531-2.526s0-2.543-2.531-2.543
	c-4.431,0-13.306,0-15.188,0c-2.492,0-2.531,2.451-2.531,2.528"/>
<path opacity="0.03" fill="none" stroke="#000000" stroke-miterlimit="10" enable-background="new    " d="M61.173,16.966
	c0,0,0-2.563-2.531-2.563c-7.347,0-30.807,0.004-32.907,0.004c-2.552,0-2.531-2.526-2.531-2.526s0-2.543-2.531-2.543
	c-4.431,0-13.306,0-15.188,0c-2.492,0-2.531,2.451-2.531,2.528"/>
<linearGradient id="SVGID_1_" gradientUnits="userSpaceOnUse" x1="1401.9985" y1="-1683.8979" x2="1401.9985" y2="-1636.1281" gradientTransform="matrix(1 0 0 -1 -1370 -1625)">
	<stop  offset="0" style="stop-color:#D1E0ED"/>
	<stop  offset="1" style="stop-color:#E4EEFB"/>
</linearGradient>
<path fill="url(#SVGID_1_)" stroke="#9DBCD7" stroke-miterlimit="10" d="M10.642,58.898h42.84c4.212,0,7.484-3.502,7.484-7.714
	V16.983c0-0.6-0.897-1.166-2.092-1.166c-7.379,0-30.905,0.004-33.014,0.004c-2.563,0-2.524-2.338-2.524-2.338
	s0.018-2.355-2.525-2.355c-4.45,0-13.364,0-15.254,0c-2.503,0-2.526,2.075-2.526,2.153v37.903
	C3.032,55.396,6.431,58.898,10.642,58.898z"/>
<path fill="none" stroke="#FFFFFF" stroke-miterlimit="10" d="M10.642,57.882c-3.636,0-6.594-3.004-6.594-6.698V13.281
	c0-0.048,0.008-0.454,0.309-0.756c0.252-0.253,0.656-0.381,1.2-0.381h15.254c0.602,0,0.908,0.072,1.091,0.256
	c0.405,0.407,0.423,1.028,0.423,1.035c-0.002,0.133,0.006,1.459,0.988,2.456c0.626,0.635,1.484,0.957,2.551,0.957
	c0,0,28.2-0.011,33.008-0.011c0.635,0,0.987,0.218,1.077,0.323v34.024c0,3.694-2.901,6.698-6.468,6.698L10.642,57.882L10.642,57.882
	L10.642,57.882z"/>
<radialGradient id="SVGID_2_" cx="1873.1508" cy="1369.4135" r="46.4534" gradientTransform="matrix(0.0197 0.9998 0.9109 -0.018 -1254.369 -1826.2988)" gradientUnits="userSpaceOnUse">
	<stop  offset="0" style="stop-color:#FFFFFF;stop-opacity:0.6"/>
	<stop  offset="0.3783" style="stop-color:#FAFCFE;stop-opacity:0.4487"/>
	<stop  offset="0.829" style="stop-color:#EBF3FC;stop-opacity:0.2684"/>
	<stop  offset="1" style="stop-color:#E4EEFB;stop-opacity:0.2"/>
</radialGradient>
<path fill="url(#SVGID_2_)" d="M10.642,57.882c-3.636,0-6.594-3.004-6.594-6.698V13.281c0-0.048,0.008-0.454,0.309-0.756
	c0.252-0.253,0.656-0.381,1.2-0.381h15.254c0.602,0,0.908,0.072,1.091,0.256c0.405,0.407,0.423,1.028,0.423,1.035
	c-0.002,0.133,0.006,1.459,0.988,2.456c0.626,0.635,1.484,0.957,2.551,0.957c0,0,28.2-0.011,33.008-0.011
	c0.635,0,0.987,0.218,1.077,0.323v34.024c0,3.694-2.901,6.698-6.468,6.698L10.642,57.882L10.642,57.882L10.642,57.882z"/>
<g id="g27_1_">
	
		<linearGradient id="path36_2_" gradientUnits="userSpaceOnUse" x1="1786.9456" y1="-2443.3335" x2="1794.9943" y2="-2457.2742" gradientTransform="matrix(1 0 0 -1 -1782 -2443)">
		<stop  offset="0" style="stop-color:#FFFFFF"/>
		<stop  offset="0.5" style="stop-color:#FFFFFF;stop-opacity:0.6"/>
		<stop  offset="1" style="stop-color:#FFFFFF;stop-opacity:0.15"/>
	</linearGradient>
	<path id="path36_1_" fill="url(#path36_2_)" d="M11.582,16.643c0.9-1.863,1.998-3.608,3.258-5.221l-2.292-5.027
		c-1.958,1.851-3.547,3.89-4.816,5.871L11.582,16.643z"/>
	
		<linearGradient id="path45_2_" gradientUnits="userSpaceOnUse" x1="1794.2434" y1="-2441.2458" x2="1799.5109" y2="-2450.3696" gradientTransform="matrix(1 0 0 -1 -1782 -2443)">
		<stop  offset="0" style="stop-color:#FFFFFF"/>
		<stop  offset="0.5" style="stop-color:#FFFFFF;stop-opacity:0.6"/>
		<stop  offset="1" style="stop-color:#FFFFFF;stop-opacity:0.15"/>
	</linearGradient>
	<path id="path45_1_" fill="url(#path45_2_)" d="M11.821,1.563l1.198,2.626c1.153-0.957,2.417-1.287,3.795-2.626
		C16.814,1.563,11.821,1.563,11.821,1.563z"/>
	
		<linearGradient id="path54_2_" gradientUnits="userSpaceOnUse" x1="1795.8999" y1="-2439.5137" x2="1802.3358" y2="-2450.6609" gradientTransform="matrix(1 0 0 -1 -1782 -2443)">
		<stop  offset="0" style="stop-color:#FFFFFF"/>
		<stop  offset="0.5" style="stop-color:#FFFFFF;stop-opacity:0.6"/>
		<stop  offset="1" style="stop-color:#FFFFFF;stop-opacity:0.15"/>
	</linearGradient>
	<path id="path54_1_" fill="url(#path54_2_)" d="M20.813,1.563h-0.948c-2.391,1.339-4.481,2.361-6.274,3.888l2.197,4.821
		c1.877-2.168,4.055-4.068,6.494-5.603c0.019-0.017,0.032-0.032,0.052-0.049C25.066,2.259,22.353,1.563,20.813,1.563z"/>
	
		<linearGradient id="path63_2_" gradientUnits="userSpaceOnUse" x1="1782.4291" y1="-2449.6882" x2="1789.4133" y2="-2461.7852" gradientTransform="matrix(1 0 0 -1 -1782 -2443)">
		<stop  offset="0" style="stop-color:#FFFFFF"/>
		<stop  offset="0.5" style="stop-color:#FFFFFF;stop-opacity:0.6"/>
		<stop  offset="1" style="stop-color:#FFFFFF;stop-opacity:0.15"/>
	</linearGradient>
	<path id="path63_1_" fill="url(#path63_2_)" d="M7.001,13.461C5.531,15.964,4.57,18.277,4,19.858
		c0.675,0.963,1.79,1.595,3.056,1.595c1.567,0,2.905-0.968,3.459-2.336c0.142-0.382,0.315-0.749,0.473-1.125L7.001,13.461z"/>
	
		<linearGradient id="path72_2_" gradientUnits="userSpaceOnUse" x1="1782.114" y1="-2450.1846" x2="1789.8542" y2="-2463.5913" gradientTransform="matrix(1 0 0 -1 -1782 -2443)">
		<stop  offset="0" style="stop-color:#FFFFFF"/>
		<stop  offset="0.5" style="stop-color:#FFFFFF;stop-opacity:0.6"/>
		<stop  offset="1" style="stop-color:#FFFFFF;stop-opacity:0.15"/>
	</linearGradient>
	<path id="path72_1_" fill="url(#path72_2_)" d="M3.351,9.309l-0.029,8.405c0,0,0,0.003,0,0.006c0,0.052,0.013,0.102,0.016,0.154
		c0.639-1.555,1.531-3.455,2.741-5.463L3.351,9.309z"/>
	
		<linearGradient id="path149_2_" gradientUnits="userSpaceOnUse" x1="1787.968" y1="-2445.9856" x2="1795.2361" y2="-2458.5742" gradientTransform="matrix(1 0 0 -1 -1782 -2443)">
		<stop  offset="0" style="stop-color:#FFFFFF"/>
		<stop  offset="0.5" style="stop-color:#FFFFFF;stop-opacity:0.6"/>
		<stop  offset="1" style="stop-color:#FFFFFF;stop-opacity:0.15"/>
	</linearGradient>
	<path id="path149_1_" fill="url(#path149_2_)" d="M10.224,1.579C7.493,1.352,3.897,4.428,3.436,7.378l3.388,3.853
		c1.352-2.064,3.034-4.178,5.109-6.088L10.224,1.579z"/>
</g>
<g>
	<g opacity="0.3">
		<g opacity="0.5">
			<path fill="#FFFFFF" d="M50.218,37.522c0-2.783-2.428-5.233-6.313-6.874c0.52-4.184-0.387-7.511-2.796-8.903
				c-0.765-0.442-1.639-0.666-2.596-0.666c-1.995,0-4.255,0.969-6.512,2.681c-2.257-1.712-4.517-2.681-6.513-2.681
				c-0.958,0-1.831,0.224-2.597,0.666c-2.41,1.392-3.316,4.719-2.796,8.903c-3.884,1.641-6.313,4.091-6.313,6.874
				c0,2.782,2.427,5.232,6.31,6.873c-0.032,0.257-0.061,0.511-0.082,0.763c-0.347,3.978,0.677,6.869,2.882,8.142
				c0.766,0.442,1.64,0.666,2.598,0.666c1.995,0,4.254-0.969,6.512-2.681c2.257,1.712,4.516,2.681,6.512,2.681
				c0.958,0,1.832-0.224,2.598-0.666c2.206-1.273,3.23-4.165,2.883-8.142c-0.022-0.252-0.05-0.506-0.082-0.763
				C47.792,42.754,50.218,40.305,50.218,37.522z M38.512,23.009c0.615,0,1.164,0.137,1.632,0.407c1.52,0.877,2.231,3.28,1.91,6.547
				c-1.528-0.493-3.222-0.873-5.039-1.121c-1.116-1.441-2.288-2.718-3.479-3.801C35.319,23.749,37.048,23.009,38.512,23.009z
				 M38.137,41.066c-0.679,1.176-1.415,2.292-2.185,3.33C34.705,44.533,33.386,44.61,32,44.61c-1.386,0-2.705-0.076-3.952-0.213
				c-0.771-1.038-1.507-2.154-2.185-3.33c-0.695-1.204-1.289-2.387-1.795-3.539c0.517-1.183,1.117-2.374,1.795-3.549
				c0.679-1.176,1.415-2.292,2.186-3.33c1.247-0.137,2.566-0.214,3.952-0.214c1.386,0,2.705,0.076,3.952,0.214
				c0.771,1.038,1.507,2.154,2.186,3.33c0.679,1.175,1.278,2.365,1.795,3.549C39.426,38.679,38.832,39.862,38.137,41.066z
				 M40.894,40.009c0.364,1.075,0.651,2.131,0.857,3.155c-0.964,0.325-2.018,0.606-3.157,0.832c0.418-0.632,0.823-1.288,1.213-1.964
				C40.197,41.356,40.558,40.681,40.894,40.009z M32,48.765c-0.766-0.679-1.53-1.448-2.276-2.296
				c0.745,0.044,1.503,0.069,2.276,0.069c0.773,0,1.532-0.026,2.276-0.069C33.529,47.317,32.765,48.086,32,48.765z M25.405,43.995
				c-1.139-0.226-2.193-0.507-3.157-0.832c0.206-1.023,0.493-2.08,0.857-3.155c0.337,0.673,0.696,1.347,1.086,2.022
				C24.582,42.707,24.988,43.363,25.405,43.995z M23.098,35.051c-0.376-1.105-0.66-2.164-0.862-3.165
				c0.967-0.326,2.025-0.609,3.168-0.835c-0.418,0.632-0.823,1.288-1.214,1.964C23.802,33.689,23.439,34.369,23.098,35.051z
				 M32,26.28c0.765,0.679,1.529,1.448,2.276,2.295c-0.745-0.044-1.503-0.069-2.276-0.069c-0.773,0-1.531,0.026-2.276,0.069
				C30.47,27.728,31.234,26.959,32,26.28z M39.808,33.014c-0.39-0.677-0.796-1.332-1.213-1.964c1.143,0.226,2.201,0.509,3.168,0.835
				c-0.201,1.002-0.485,2.061-0.862,3.165C40.56,34.369,40.197,33.689,39.808,33.014z M23.855,23.416
				c0.468-0.27,1.017-0.407,1.632-0.407c1.464,0,3.193,0.74,4.976,2.032c-1.191,1.083-2.363,2.36-3.479,3.801
				c-1.817,0.248-3.511,0.629-5.039,1.121C21.624,26.695,22.336,24.293,23.855,23.416z M15.71,37.522
				c0-1.755,1.725-3.573,4.715-4.928c0.338,1.571,0.856,3.23,1.55,4.929c-0.683,1.674-1.205,3.333-1.549,4.927
				C17.436,41.095,15.71,39.277,15.71,37.522z M25.488,52.037c-0.615,0-1.165-0.137-1.633-0.408
				c-1.497-0.864-2.199-3.161-1.925-6.303c0.007-0.079,0.017-0.16,0.026-0.24c1.526,0.491,3.217,0.87,5.029,1.118
				c1.116,1.441,2.288,2.719,3.479,3.801C28.681,51.297,26.952,52.037,25.488,52.037z M42.069,45.325
				c0.274,3.142-0.428,5.439-1.925,6.304c-0.468,0.27-1.018,0.408-1.633,0.408c-1.463,0-3.193-0.74-4.975-2.032
				c1.191-1.083,2.364-2.361,3.479-3.801c1.813-0.248,3.503-0.627,5.029-1.118C42.052,45.165,42.063,45.246,42.069,45.325z
				 M43.573,42.451c-0.345-1.594-0.867-3.253-1.549-4.927c0.694-1.699,1.212-3.358,1.55-4.929c2.991,1.356,4.716,3.173,4.716,4.928
				C48.289,39.277,46.564,41.095,43.573,42.451z"/>
		</g>
		<g>
			<path fill="#669CCC" d="M50.218,36.478c0-2.783-2.428-5.233-6.313-6.874c0.52-4.184-0.387-7.511-2.796-8.903
				c-0.765-0.442-1.639-0.666-2.596-0.666c-1.995,0-4.255,0.969-6.512,2.681c-2.257-1.712-4.517-2.681-6.513-2.681
				c-0.958,0-1.831,0.224-2.597,0.666c-2.41,1.392-3.316,4.719-2.796,8.903c-3.884,1.641-6.313,4.091-6.313,6.874
				c0,2.782,2.427,5.232,6.31,6.873c-0.032,0.257-0.061,0.511-0.082,0.763c-0.347,3.978,0.677,6.869,2.882,8.142
				c0.766,0.442,1.64,0.666,2.598,0.666c1.995,0,4.254-0.969,6.512-2.681c2.257,1.712,4.516,2.681,6.512,2.681
				c0.958,0,1.832-0.224,2.598-0.666c2.206-1.273,3.23-4.165,2.883-8.142c-0.022-0.252-0.05-0.506-0.082-0.763
				C47.792,41.71,50.218,39.261,50.218,36.478z M38.512,21.965c0.615,0,1.164,0.137,1.632,0.407c1.52,0.878,2.231,3.28,1.91,6.547
				c-1.528-0.493-3.222-0.873-5.039-1.121c-1.116-1.441-2.288-2.718-3.479-3.801C35.319,22.704,37.048,21.965,38.512,21.965z
				 M38.137,40.022c-0.679,1.176-1.415,2.292-2.185,3.33c-1.247,0.137-2.566,0.214-3.952,0.214c-1.386,0-2.705-0.076-3.952-0.214
				c-0.771-1.038-1.507-2.154-2.185-3.33c-0.695-1.204-1.289-2.387-1.795-3.539c0.517-1.183,1.117-2.374,1.795-3.549
				c0.679-1.176,1.415-2.292,2.186-3.33c1.247-0.137,2.566-0.214,3.952-0.214c1.386,0,2.705,0.076,3.952,0.214
				c0.771,1.038,1.507,2.154,2.186,3.33c0.679,1.175,1.278,2.365,1.795,3.549C39.426,37.635,38.832,38.818,38.137,40.022z
				 M40.894,38.965c0.364,1.075,0.651,2.131,0.857,3.155c-0.964,0.325-2.018,0.606-3.157,0.832c0.418-0.632,0.823-1.288,1.213-1.964
				C40.197,40.312,40.558,39.637,40.894,38.965z M32,47.721c-0.766-0.679-1.53-1.448-2.276-2.296
				c0.745,0.044,1.503,0.069,2.276,0.069c0.773,0,1.532-0.026,2.276-0.069C33.529,46.273,32.765,47.042,32,47.721z M25.405,42.951
				c-1.139-0.226-2.193-0.507-3.157-0.832c0.206-1.023,0.493-2.08,0.857-3.155c0.337,0.673,0.696,1.347,1.086,2.022
				C24.582,41.663,24.988,42.319,25.405,42.951z M23.098,34.007c-0.376-1.105-0.66-2.164-0.862-3.165
				c0.967-0.326,2.025-0.609,3.168-0.835c-0.418,0.632-0.823,1.288-1.214,1.964C23.802,32.645,23.439,33.325,23.098,34.007z
				 M32,25.236c0.765,0.679,1.529,1.448,2.276,2.295c-0.745-0.044-1.503-0.069-2.276-0.069c-0.773,0-1.531,0.026-2.276,0.069
				C30.47,26.684,31.234,25.915,32,25.236z M39.808,31.97c-0.39-0.677-0.796-1.332-1.213-1.964c1.143,0.226,2.201,0.509,3.168,0.835
				c-0.201,1.002-0.485,2.061-0.862,3.165C40.56,33.325,40.197,32.645,39.808,31.97z M23.855,22.372
				c0.468-0.27,1.017-0.407,1.632-0.407c1.464,0,3.193,0.74,4.976,2.032c-1.191,1.083-2.363,2.36-3.479,3.801
				c-1.817,0.248-3.511,0.629-5.039,1.121C21.624,25.651,22.336,23.249,23.855,22.372z M15.71,36.478
				c0-1.755,1.725-3.573,4.715-4.928c0.338,1.571,0.856,3.23,1.55,4.929c-0.683,1.674-1.205,3.333-1.549,4.927
				C17.436,40.051,15.71,38.233,15.71,36.478z M25.488,50.993c-0.615,0-1.165-0.137-1.633-0.408
				c-1.497-0.864-2.199-3.161-1.925-6.303c0.007-0.079,0.017-0.16,0.026-0.24c1.526,0.491,3.217,0.87,5.029,1.118
				c1.116,1.441,2.288,2.719,3.479,3.801C28.681,50.253,26.952,50.993,25.488,50.993z M42.069,44.281
				c0.274,3.142-0.428,5.439-1.925,6.304c-0.468,0.27-1.018,0.408-1.633,0.408c-1.463,0-3.193-0.74-4.975-2.032
				c1.191-1.083,2.364-2.361,3.479-3.801c1.813-0.248,3.503-0.627,5.029-1.118C42.052,44.121,42.063,44.202,42.069,44.281z
				 M43.573,41.407c-0.345-1.594-0.867-3.253-1.549-4.927c0.694-1.699,1.212-3.358,1.55-4.929c2.991,1.356,4.716,3.173,4.716,4.928
				C48.289,38.233,46.564,40.051,43.573,41.407z"/>
		</g>
	</g>
	<g>
		<path opacity="0.3" fill="#669CCC" enable-background="new    " d="M43.772,31.111c-0.063-0.029-0.131-0.043-0.199-0.043
			c-0.075,0-0.149,0.017-0.217,0.052c-0.131,0.066-0.224,0.187-0.254,0.329c-0.336,1.562-0.849,3.193-1.525,4.848
			c-0.048,0.117-0.048,0.248,0,0.364c0.673,1.65,1.186,3.28,1.524,4.847c0.031,0.143,0.124,0.264,0.255,0.329
			c0.068,0.034,0.143,0.052,0.217,0.052c0.068,0,0.136-0.015,0.199-0.043c3.177-1.44,5-3.397,5-5.368
			C48.772,34.507,46.949,32.551,43.772,31.111z M43.573,41.407c-0.345-1.594-0.867-3.253-1.549-4.927
			c0.694-1.699,1.212-3.358,1.55-4.929c2.991,1.356,4.716,3.173,4.716,4.928C48.289,38.233,46.564,40.051,43.573,41.407z"/>
		<path opacity="0.3" fill="#669CCC" enable-background="new    " d="M27.995,43.831c1.305,0.144,2.652,0.217,4.005,0.217
			c1.351,0,2.699-0.073,4.005-0.216c0.133-0.015,0.255-0.085,0.335-0.192c0.796-1.072,1.541-2.208,2.215-3.376
			c0.678-1.173,1.289-2.379,1.819-3.586c0.054-0.123,0.054-0.263,0.001-0.387c-0.529-1.212-1.141-2.422-1.819-3.597
			c-0.674-1.168-1.42-2.304-2.216-3.376c-0.08-0.108-0.201-0.177-0.335-0.192c-1.307-0.144-2.654-0.217-4.005-0.217
			c-1.351,0-2.699,0.073-4.005,0.217c-0.133,0.015-0.255,0.084-0.335,0.192c-0.796,1.071-1.541,2.208-2.216,3.376
			c-0.679,1.175-1.29,2.385-1.82,3.597c-0.054,0.123-0.054,0.264,0.001,0.387c0.529,1.205,1.141,2.412,1.819,3.586
			c0.675,1.17,1.421,2.306,2.216,3.376C27.74,43.747,27.861,43.817,27.995,43.831z M24.067,36.483
			c0.517-1.183,1.117-2.374,1.795-3.549c0.679-1.176,1.415-2.292,2.186-3.33c1.247-0.137,2.566-0.214,3.952-0.214
			c1.386,0,2.705,0.076,3.952,0.214c0.771,1.038,1.507,2.154,2.186,3.33c0.679,1.175,1.278,2.365,1.795,3.549
			c-0.506,1.152-1.1,2.335-1.795,3.539c-0.679,1.176-1.415,2.292-2.185,3.33c-1.247,0.137-2.566,0.214-3.952,0.214
			s-2.705-0.076-3.952-0.214c-0.771-1.038-1.507-2.154-2.185-3.33C25.167,38.818,24.573,37.635,24.067,36.483z"/>
		<path opacity="0.3" fill="#669CCC" enable-background="new    " d="M23.066,34.488c0.011,0.001,0.022,0.001,0.032,0.001
			c0.182,0,0.349-0.103,0.432-0.267c0.348-0.696,0.71-1.372,1.079-2.011c0.381-0.659,0.784-1.311,1.198-1.939
			c0.107-0.162,0.106-0.373-0.002-0.535c-0.091-0.135-0.242-0.214-0.4-0.214c-0.031,0-0.063,0.003-0.094,0.009
			c-1.13,0.223-2.216,0.51-3.229,0.851c-0.23,0.077-0.366,0.314-0.319,0.552c0.21,1.048,0.506,2.133,0.878,3.226
			C22.704,34.346,22.872,34.475,23.066,34.488z M22.237,30.841c0.967-0.326,2.025-0.609,3.168-0.835
			c-0.418,0.632-0.823,1.288-1.214,1.964c-0.389,0.674-0.753,1.355-1.093,2.037C22.722,32.902,22.438,31.843,22.237,30.841z"/>
		<path opacity="0.3" fill="#669CCC" enable-background="new    " d="M36.633,28.093c0.077,0.1,0.191,0.165,0.316,0.183
			c1.77,0.242,3.438,0.613,4.956,1.102c0.048,0.016,0.098,0.023,0.148,0.023c0.093,0,0.185-0.027,0.265-0.079
			c0.122-0.08,0.201-0.211,0.216-0.356c0.341-3.47-0.442-6.026-2.149-7.012c-0.542-0.313-1.172-0.472-1.873-0.472
			c-1.524,0-3.342,0.734-5.259,2.124c-0.117,0.085-0.191,0.219-0.198,0.364c-0.008,0.145,0.05,0.286,0.157,0.384
			C34.392,25.426,35.543,26.684,36.633,28.093z M38.512,21.965c0.615,0,1.164,0.137,1.632,0.407c1.52,0.878,2.231,3.28,1.91,6.547
			c-1.528-0.493-3.222-0.873-5.039-1.121c-1.116-1.441-2.288-2.718-3.479-3.801C35.319,22.704,37.048,21.965,38.512,21.965z"/>
		<path opacity="0.3" fill="#669CCC" enable-background="new    " d="M22.094,42.576c1.009,0.34,2.091,0.625,3.217,0.848
			c0.031,0.006,0.063,0.009,0.094,0.009c0.159,0,0.31-0.078,0.4-0.214c0.109-0.162,0.109-0.372,0.002-0.535
			c-0.415-0.629-0.818-1.281-1.198-1.94c-0.369-0.639-0.72-1.293-1.073-1.997c-0.082-0.164-0.25-0.266-0.431-0.266
			c-0.011,0-0.022,0.001-0.033,0.001c-0.194,0.014-0.361,0.143-0.424,0.326c-0.371,1.096-0.665,2.177-0.873,3.214
			C21.727,42.262,21.864,42.499,22.094,42.576z M23.105,38.965c0.337,0.673,0.696,1.347,1.086,2.022
			c0.39,0.677,0.796,1.332,1.213,1.964c-1.139-0.226-2.193-0.507-3.157-0.832C22.454,41.096,22.741,40.039,23.105,38.965z"/>
		<path opacity="0.3" fill="#669CCC" enable-background="new    " d="M50.218,36.478c0-2.783-2.428-5.233-6.313-6.874
			c0.52-4.184-0.387-7.511-2.796-8.903c-0.765-0.442-1.639-0.666-2.596-0.666c-1.995,0-4.255,0.969-6.512,2.681
			c-2.257-1.712-4.517-2.681-6.513-2.681c-0.958,0-1.831,0.224-2.597,0.666c-2.41,1.392-3.316,4.719-2.796,8.903
			c-3.884,1.641-6.313,4.091-6.313,6.874c0,2.782,2.427,5.232,6.31,6.873c-0.032,0.257-0.061,0.511-0.082,0.763
			c-0.347,3.978,0.677,6.869,2.882,8.142c0.766,0.442,1.64,0.666,2.598,0.666c1.995,0,4.254-0.969,6.512-2.681
			c2.257,1.712,4.516,2.681,6.512,2.681c0.958,0,1.832-0.224,2.598-0.666c2.206-1.273,3.23-4.165,2.883-8.142
			c-0.022-0.252-0.05-0.506-0.082-0.763C47.792,41.71,50.218,39.261,50.218,36.478z M43.721,42.907
			c-0.199,0.084-0.318,0.29-0.291,0.505c0.032,0.251,0.06,0.499,0.081,0.744c0.329,3.78-0.609,6.509-2.643,7.682
			c-0.691,0.399-1.484,0.601-2.356,0.601c-1.841,0-3.991-0.893-6.22-2.583c-0.086-0.065-0.189-0.098-0.291-0.098
			c-0.103,0-0.205,0.033-0.291,0.098c-2.228,1.69-4.379,2.583-6.22,2.583c-0.872,0-1.666-0.203-2.357-0.602
			c-2.034-1.174-2.972-3.902-2.643-7.682c0.021-0.245,0.049-0.494,0.08-0.744c0.027-0.215-0.092-0.42-0.291-0.504
			c-3.823-1.616-6.015-3.959-6.015-6.429c0-2.47,2.193-4.813,6.018-6.43c0.199-0.084,0.317-0.29,0.291-0.504
			c-0.513-4.119,0.42-7.19,2.559-8.426c0.691-0.399,1.484-0.601,2.356-0.601c1.841,0,3.992,0.893,6.221,2.583
			c0.086,0.065,0.189,0.098,0.291,0.098c0.103,0,0.205-0.032,0.291-0.098c2.228-1.69,4.38-2.583,6.221-2.583
			c0.872,0,1.665,0.202,2.355,0.601c2.139,1.235,3.072,4.307,2.559,8.426c-0.027,0.214,0.092,0.42,0.291,0.504
			c3.825,1.616,6.018,3.959,6.018,6.43C49.736,38.947,47.544,41.291,43.721,42.907z"/>
		<path opacity="0.3" fill="#669CCC" enable-background="new    " d="M29.361,27.213c-0.129,0.146-0.157,0.355-0.072,0.53
			c0.081,0.167,0.25,0.271,0.433,0.271c0.009,0,0.019,0,0.029-0.001c0.768-0.045,1.525-0.069,2.248-0.069
			c0.723,0,1.479,0.023,2.248,0.069c0.009,0.001,0.019,0.001,0.029,0.001c0.184,0,0.352-0.104,0.434-0.271
			c0.085-0.175,0.057-0.384-0.072-0.53c-0.752-0.853-1.532-1.639-2.318-2.337c-0.091-0.081-0.206-0.122-0.32-0.122
			c-0.114,0-0.229,0.041-0.32,0.122C30.893,25.573,30.113,26.36,29.361,27.213z M32,25.236c0.765,0.679,1.529,1.448,2.276,2.295
			c-0.745-0.044-1.503-0.069-2.276-0.069c-0.773,0-1.531,0.026-2.276,0.069C30.47,26.684,31.234,25.915,32,25.236z"/>
		<path opacity="0.3" fill="#669CCC" enable-background="new    " d="M27.366,44.864c-0.077-0.1-0.191-0.165-0.316-0.183
			c-1.766-0.242-3.431-0.612-4.947-1.1c-0.048-0.016-0.098-0.023-0.148-0.023c-0.093,0-0.185,0.027-0.264,0.079
			c-0.122,0.08-0.201,0.21-0.216,0.355l-0.01,0.09c-0.006,0.053-0.012,0.105-0.016,0.157c-0.291,3.337,0.498,5.802,2.164,6.763
			c0.542,0.314,1.173,0.472,1.875,0.472c1.524,0,3.342-0.734,5.259-2.124c0.117-0.085,0.191-0.219,0.198-0.364
			c0.008-0.145-0.05-0.286-0.157-0.384C29.607,47.53,28.456,46.272,27.366,44.864z M25.488,50.993c-0.615,0-1.165-0.137-1.633-0.408
			c-1.497-0.864-2.199-3.161-1.925-6.303c0.007-0.079,0.017-0.16,0.026-0.24c1.526,0.491,3.217,0.87,5.029,1.118
			c1.116,1.441,2.288,2.719,3.479,3.801C28.681,50.253,26.951,50.993,25.488,50.993z"/>
		<path opacity="0.3" fill="#669CCC" enable-background="new    " d="M34.638,45.744c0.129-0.146,0.157-0.355,0.072-0.53
			c-0.081-0.167-0.25-0.271-0.433-0.271c-0.01,0-0.019,0-0.029,0.001c-0.781,0.046-1.517,0.068-2.248,0.068
			c-0.731,0-1.467-0.022-2.248-0.068c-0.009-0.001-0.019-0.001-0.029-0.001c-0.183,0-0.352,0.104-0.433,0.271
			c-0.085,0.175-0.057,0.384,0.072,0.53c0.751,0.852,1.531,1.639,2.318,2.338c0.091,0.081,0.206,0.122,0.32,0.122
			c0.114,0,0.229-0.041,0.321-0.122C33.107,47.383,33.887,46.597,34.638,45.744z M32,47.721c-0.766-0.679-1.53-1.448-2.276-2.296
			c0.745,0.044,1.503,0.069,2.276,0.069c0.773,0,1.532-0.026,2.276-0.069C33.529,46.273,32.765,47.042,32,47.721z"/>
		<path opacity="0.3" fill="#669CCC" enable-background="new    " d="M21.681,29.322c0.08,0.052,0.172,0.079,0.265,0.079
			c0.05,0,0.1-0.008,0.148-0.023c1.52-0.49,3.187-0.86,4.957-1.102c0.125-0.017,0.239-0.082,0.316-0.183
			c1.09-1.408,2.241-2.666,3.422-3.739c0.108-0.098,0.165-0.239,0.157-0.384c-0.008-0.145-0.081-0.279-0.198-0.364
			c-1.917-1.389-3.736-2.124-5.259-2.124c-0.701,0-1.331,0.159-1.873,0.472c-1.706,0.986-2.489,3.542-2.149,7.012
			C21.48,29.111,21.559,29.242,21.681,29.322z M23.855,22.372c0.468-0.27,1.017-0.407,1.632-0.407c1.464,0,3.193,0.74,4.976,2.032
			c-1.191,1.083-2.363,2.36-3.479,3.801c-1.817,0.248-3.511,0.629-5.039,1.121C21.624,25.651,22.335,23.249,23.855,22.372z"/>
		<path opacity="0.3" fill="#669CCC" enable-background="new    " d="M38.594,43.433c0.031,0,0.063-0.003,0.094-0.009
			c1.125-0.222,2.207-0.508,3.217-0.847c0.23-0.077,0.367-0.314,0.319-0.552c-0.209-1.038-0.503-2.119-0.873-3.215
			c-0.063-0.184-0.23-0.313-0.424-0.326c-0.011-0.001-0.022-0.001-0.033-0.001c-0.182,0-0.349,0.102-0.431,0.267
			c-0.347,0.694-0.708,1.366-1.072,1.997c-0.381,0.659-0.784,1.311-1.198,1.939c-0.107,0.162-0.106,0.373,0.002,0.535
			C38.285,43.355,38.436,43.433,38.594,43.433z M39.808,40.987c0.389-0.675,0.75-1.349,1.086-2.022
			c0.364,1.075,0.651,2.131,0.857,3.155c-0.964,0.325-2.018,0.606-3.157,0.832C39.012,42.319,39.418,41.663,39.808,40.987z"/>
		<path opacity="0.3" fill="#669CCC" enable-background="new    " d="M22.422,36.297c-0.676-1.655-1.189-3.286-1.525-4.848
			c-0.031-0.143-0.124-0.264-0.255-0.329c-0.068-0.034-0.143-0.052-0.217-0.052c-0.068,0-0.136,0.014-0.199,0.043
			c-3.177,1.44-4.999,3.396-4.999,5.367c0,1.972,1.822,3.928,4.999,5.368c0.063,0.029,0.132,0.043,0.199,0.043
			c0.075,0,0.149-0.017,0.217-0.052c0.131-0.065,0.224-0.186,0.255-0.329c0.338-1.566,0.851-3.196,1.524-4.847
			C22.47,36.545,22.47,36.414,22.422,36.297z M20.427,41.407c-2.992-1.356-4.716-3.173-4.716-4.928c0-1.755,1.725-3.573,4.715-4.928
			c0.338,1.571,0.856,3.23,1.55,4.929C21.293,38.153,20.771,39.813,20.427,41.407z"/>
		<path opacity="0.3" fill="#669CCC" enable-background="new    " d="M42.533,44.084l-0.01-0.092
			c-0.015-0.145-0.094-0.276-0.216-0.355c-0.079-0.052-0.171-0.079-0.264-0.079c-0.05,0-0.099,0.007-0.148,0.023
			c-1.516,0.488-3.181,0.858-4.947,1.099c-0.125,0.017-0.239,0.082-0.316,0.183c-1.09,1.409-2.242,2.667-3.422,3.74
			c-0.108,0.098-0.165,0.239-0.157,0.384c0.008,0.145,0.081,0.279,0.198,0.364c1.916,1.39,3.735,2.124,5.258,2.124
			c0.702,0,1.332-0.159,1.875-0.472c1.666-0.962,2.456-3.426,2.164-6.763C42.545,44.188,42.54,44.136,42.533,44.084z M40.144,50.585
			c-0.468,0.27-1.018,0.408-1.633,0.408c-1.463,0-3.193-0.74-4.975-2.032c1.191-1.083,2.364-2.361,3.479-3.801
			c1.813-0.248,3.503-0.627,5.029-1.118c0.008,0.08,0.018,0.161,0.026,0.24C42.343,47.423,41.642,49.721,40.144,50.585z"/>
		<path opacity="0.3" fill="#669CCC" enable-background="new    " d="M41.917,30.384c-1.012-0.341-2.099-0.628-3.229-0.851
			c-0.031-0.006-0.063-0.009-0.093-0.009c-0.159,0-0.31,0.078-0.4,0.214c-0.109,0.161-0.109,0.372-0.002,0.535
			c0.416,0.631,0.82,1.283,1.198,1.94c0.367,0.636,0.731,1.313,1.08,2.011c0.082,0.164,0.25,0.267,0.431,0.267
			c0.011,0,0.022-0.001,0.033-0.001c0.194-0.013,0.361-0.141,0.424-0.326c0.372-1.093,0.667-2.178,0.878-3.226
			C42.283,30.698,42.147,30.462,41.917,30.384z M40.901,34.007c-0.34-0.682-0.704-1.362-1.093-2.037
			c-0.39-0.677-0.796-1.332-1.213-1.964c1.143,0.226,2.201,0.509,3.168,0.835C41.561,31.843,41.277,32.902,40.901,34.007z"/>
	</g>
</g>
</svg>
