<?xml version="1.0" encoding="utf-8"?>
<!-- Generator: Adobe Illustrator 17.0.0, SVG Export Plug-In . SVG Version: 6.00 Build 0)  -->
<!DOCTYPE svg PUBLIC "-//W3C//DTD SVG 1.1//EN" "http://www.w3.org/Graphics/SVG/1.1/DTD/svg11.dtd">
<svg version="1.1" id="图层_1" xmlns="http://www.w3.org/2000/svg" xmlns:xlink="http://www.w3.org/1999/xlink" x="0px" y="0px"
	 width="64px" height="64px" viewBox="0 0 64 64" enable-background="new 0 0 64 64" xml:space="preserve">
<g id="g151" opacity="0.5">
	<path id="path153" opacity="0.08" enable-background="new    " d="M54.144,59.172H9.894c-4.074,0-7.394-3.194-7.394-7.106v5.435
		c0,3.057,2.597,5.535,5.779,5.535h47.478c3.182,0,5.743-2.478,5.743-5.535v-5.435C61.499,55.979,58.215,59.172,54.144,59.172z"/>
	<path id="path155" opacity="0.1" enable-background="new    " d="M54.106,59.172H9.857c-4.072,0-7.356-3.135-7.356-7.047v2.843
		c0,3.057,1.402,6.781,7.084,6.781s39.037,0,44.793,0s7.123-3.724,7.123-6.781v-2.843C61.499,56.037,58.178,59.172,54.106,59.172z"
		/>
	<path id="path157" opacity="0.1" enable-background="new    " d="M54.106,59.172H9.857c-4.072,0-7.356-3.135-7.356-7.047v1.534
		c0,3.058,2.432,6.802,7.084,6.802s39.468,0,44.793,0c5.326,0,7.123-3.744,7.123-6.8v-1.534
		C61.499,56.037,58.178,59.172,54.106,59.172z"/>
	<rect id="rect159" x="9.205" y="59.172" opacity="0.05" enable-background="new    " width="45.591" height="1.288"/>
	<rect id="rect161" x="10.545" y="59.172" opacity="0.05" enable-background="new    " width="41.568" height="1.288"/>
	<rect id="rect163" x="10.545" y="60.46" opacity="0.05" enable-background="new    " width="41.568" height="1.288"/>
	<rect id="rect165" x="13.226" y="60.46" opacity="0.05" enable-background="new    " width="37.546" height="1.288"/>
	<rect id="rect167" x="17.25" y="60.46" opacity="0.05" enable-background="new    " width="29.5" height="1.288"/>
	<rect id="rect169" x="22.614" y="60.46" opacity="0.05" enable-background="new    " width="18.773" height="1.288"/>
	<rect id="rect171" x="13.226" y="59.172" opacity="0.05" enable-background="new    " width="37.546" height="1.288"/>
	<rect id="rect173" x="15.909" y="59.172" opacity="0.05" enable-background="new    " width="32.182" height="1.288"/>
	<rect id="rect175" x="17.25" y="59.172" opacity="0.05" enable-background="new    " width="29.5" height="1.288"/>
	<rect id="rect177" x="19.932" y="59.172" opacity="0.05" enable-background="new    " width="24.136" height="1.288"/>
	<rect id="rect179" x="19.932" y="59.172" opacity="0.05" enable-background="new    " width="24.136" height="1.288"/>
</g>
<path fill="#C4DCED" stroke="#9DBCD7" stroke-miterlimit="10" d="M60.966,51.271c0,4.212-3.415,7.627-7.627,7.627H10.66
	c-4.212,0-7.627-3.415-7.627-7.627V8.591c0-4.212,3.415-7.627,7.627-7.627h42.68c4.212,0,7.627,3.415,7.627,7.627L60.966,51.271
	L60.966,51.271z"/>
<path opacity="0.5" fill="none" stroke="#FFFFFF" stroke-miterlimit="10" enable-background="new    " d="M59.951,51.271
	c0,3.651-2.96,6.611-6.611,6.611H10.66c-3.651,0-6.611-2.96-6.611-6.611V8.591c0-3.651,2.96-6.611,6.611-6.611h42.68
	c3.651,0,6.611,2.96,6.611,6.611V51.271z"/>
<path opacity="0.08" fill="none" stroke="#000000" stroke-miterlimit="10" enable-background="new    " d="M61.184,17.961
	c0,0,0-2.563-2.531-2.563c-7.347,0-30.807,0.004-32.907,0.004c-2.552,0-2.531-2.526-2.531-2.526s0-2.543-2.531-2.543
	c-4.431,0-13.306,0-15.188,0c-2.492,0-2.531,2.451-2.531,2.528"/>
<path opacity="0.05" fill="none" stroke="#000000" stroke-miterlimit="10" enable-background="new    " d="M61.173,17.452
	c0,0,0-2.563-2.531-2.563c-7.347,0-30.807,0.004-32.907,0.004c-2.552,0-2.531-2.526-2.531-2.526s0-2.543-2.531-2.543
	c-4.431,0-13.306,0-15.188,0c-2.492,0-2.531,2.451-2.531,2.528"/>
<path opacity="0.03" fill="none" stroke="#000000" stroke-miterlimit="10" enable-background="new    " d="M61.173,16.966
	c0,0,0-2.563-2.531-2.563c-7.347,0-30.807,0.004-32.907,0.004c-2.552,0-2.531-2.526-2.531-2.526s0-2.543-2.531-2.543
	c-4.431,0-13.306,0-15.188,0c-2.492,0-2.531,2.451-2.531,2.528"/>
<linearGradient id="SVGID_1_" gradientUnits="userSpaceOnUse" x1="1401.9985" y1="-1683.8979" x2="1401.9985" y2="-1636.1281" gradientTransform="matrix(1 0 0 -1 -1370 -1625)">
	<stop  offset="0" style="stop-color:#D1E0ED"/>
	<stop  offset="1" style="stop-color:#E4EEFB"/>
</linearGradient>
<path fill="url(#SVGID_1_)" stroke="#9DBCD7" stroke-miterlimit="10" d="M10.642,58.898h42.84c4.212,0,7.484-3.502,7.484-7.714
	V16.983c0-0.6-0.897-1.166-2.092-1.166c-7.379,0-30.905,0.004-33.014,0.004c-2.563,0-2.524-2.338-2.524-2.338
	s0.018-2.355-2.525-2.355c-4.45,0-13.364,0-15.254,0c-2.503,0-2.526,2.075-2.526,2.153v37.903
	C3.032,55.396,6.431,58.898,10.642,58.898z"/>
<path fill="none" stroke="#FFFFFF" stroke-miterlimit="10" d="M10.642,57.882c-3.636,0-6.594-3.004-6.594-6.698V13.281
	c0-0.048,0.008-0.454,0.309-0.756c0.252-0.253,0.656-0.381,1.2-0.381h15.254c0.602,0,0.908,0.072,1.091,0.256
	c0.405,0.407,0.423,1.028,0.423,1.035c-0.002,0.133,0.006,1.459,0.988,2.456c0.626,0.635,1.484,0.957,2.551,0.957
	c0,0,28.2-0.011,33.008-0.011c0.635,0,0.987,0.218,1.077,0.323v34.024c0,3.694-2.901,6.698-6.468,6.698L10.642,57.882L10.642,57.882
	L10.642,57.882z"/>
<radialGradient id="SVGID_2_" cx="1873.1508" cy="1369.4135" r="46.4534" gradientTransform="matrix(0.0197 0.9998 0.9109 -0.018 -1254.369 -1826.2988)" gradientUnits="userSpaceOnUse">
	<stop  offset="0" style="stop-color:#FFFFFF;stop-opacity:0.6"/>
	<stop  offset="0.3783" style="stop-color:#FAFCFE;stop-opacity:0.4487"/>
	<stop  offset="0.829" style="stop-color:#EBF3FC;stop-opacity:0.2684"/>
	<stop  offset="1" style="stop-color:#E4EEFB;stop-opacity:0.2"/>
</radialGradient>
<path fill="url(#SVGID_2_)" d="M10.642,57.882c-3.636,0-6.594-3.004-6.594-6.698V13.281c0-0.048,0.008-0.454,0.309-0.756
	c0.252-0.253,0.656-0.381,1.2-0.381h15.254c0.602,0,0.908,0.072,1.091,0.256c0.405,0.407,0.423,1.028,0.423,1.035
	c-0.002,0.133,0.006,1.459,0.988,2.456c0.626,0.635,1.484,0.957,2.551,0.957c0,0,28.2-0.011,33.008-0.011
	c0.635,0,0.987,0.218,1.077,0.323v34.024c0,3.694-2.901,6.698-6.468,6.698L10.642,57.882L10.642,57.882L10.642,57.882z"/>
<g id="g27_1_">
	
		<linearGradient id="path36_2_" gradientUnits="userSpaceOnUse" x1="1786.9456" y1="-2443.3335" x2="1794.9943" y2="-2457.2742" gradientTransform="matrix(1 0 0 -1 -1782 -2443)">
		<stop  offset="0" style="stop-color:#FFFFFF"/>
		<stop  offset="0.5" style="stop-color:#FFFFFF;stop-opacity:0.6"/>
		<stop  offset="1" style="stop-color:#FFFFFF;stop-opacity:0.15"/>
	</linearGradient>
	<path id="path36_1_" fill="url(#path36_2_)" d="M11.582,16.643c0.9-1.863,1.998-3.608,3.258-5.221l-2.292-5.027
		c-1.958,1.851-3.547,3.89-4.816,5.871L11.582,16.643z"/>
	
		<linearGradient id="path45_2_" gradientUnits="userSpaceOnUse" x1="1794.2434" y1="-2441.2458" x2="1799.5109" y2="-2450.3696" gradientTransform="matrix(1 0 0 -1 -1782 -2443)">
		<stop  offset="0" style="stop-color:#FFFFFF"/>
		<stop  offset="0.5" style="stop-color:#FFFFFF;stop-opacity:0.6"/>
		<stop  offset="1" style="stop-color:#FFFFFF;stop-opacity:0.15"/>
	</linearGradient>
	<path id="path45_1_" fill="url(#path45_2_)" d="M11.821,1.563l1.198,2.626c1.153-0.957,2.417-1.287,3.795-2.626
		C16.814,1.563,11.821,1.563,11.821,1.563z"/>
	
		<linearGradient id="path54_2_" gradientUnits="userSpaceOnUse" x1="1795.8999" y1="-2439.5137" x2="1802.3358" y2="-2450.6609" gradientTransform="matrix(1 0 0 -1 -1782 -2443)">
		<stop  offset="0" style="stop-color:#FFFFFF"/>
		<stop  offset="0.5" style="stop-color:#FFFFFF;stop-opacity:0.6"/>
		<stop  offset="1" style="stop-color:#FFFFFF;stop-opacity:0.15"/>
	</linearGradient>
	<path id="path54_1_" fill="url(#path54_2_)" d="M20.813,1.563h-0.948c-2.391,1.339-4.481,2.361-6.274,3.888l2.197,4.821
		c1.877-2.168,4.055-4.068,6.494-5.603c0.019-0.017,0.032-0.032,0.052-0.049C25.066,2.259,22.353,1.563,20.813,1.563z"/>
	
		<linearGradient id="path63_2_" gradientUnits="userSpaceOnUse" x1="1782.4291" y1="-2449.6882" x2="1789.4133" y2="-2461.7852" gradientTransform="matrix(1 0 0 -1 -1782 -2443)">
		<stop  offset="0" style="stop-color:#FFFFFF"/>
		<stop  offset="0.5" style="stop-color:#FFFFFF;stop-opacity:0.6"/>
		<stop  offset="1" style="stop-color:#FFFFFF;stop-opacity:0.15"/>
	</linearGradient>
	<path id="path63_1_" fill="url(#path63_2_)" d="M7.001,13.461C5.531,15.964,4.57,18.277,4,19.858
		c0.675,0.963,1.79,1.595,3.056,1.595c1.567,0,2.905-0.968,3.459-2.336c0.142-0.382,0.315-0.749,0.473-1.125L7.001,13.461z"/>
	
		<linearGradient id="path72_2_" gradientUnits="userSpaceOnUse" x1="1782.114" y1="-2450.1846" x2="1789.8542" y2="-2463.5913" gradientTransform="matrix(1 0 0 -1 -1782 -2443)">
		<stop  offset="0" style="stop-color:#FFFFFF"/>
		<stop  offset="0.5" style="stop-color:#FFFFFF;stop-opacity:0.6"/>
		<stop  offset="1" style="stop-color:#FFFFFF;stop-opacity:0.15"/>
	</linearGradient>
	<path id="path72_1_" fill="url(#path72_2_)" d="M3.351,9.309l-0.029,8.405c0,0,0,0.003,0,0.006c0,0.052,0.013,0.102,0.016,0.154
		c0.639-1.555,1.531-3.455,2.741-5.463L3.351,9.309z"/>
	
		<linearGradient id="path149_2_" gradientUnits="userSpaceOnUse" x1="1787.968" y1="-2445.9856" x2="1795.2361" y2="-2458.5742" gradientTransform="matrix(1 0 0 -1 -1782 -2443)">
		<stop  offset="0" style="stop-color:#FFFFFF"/>
		<stop  offset="0.5" style="stop-color:#FFFFFF;stop-opacity:0.6"/>
		<stop  offset="1" style="stop-color:#FFFFFF;stop-opacity:0.15"/>
	</linearGradient>
	<path id="path149_1_" fill="url(#path149_2_)" d="M10.224,1.579C7.493,1.352,3.897,4.428,3.436,7.378l3.388,3.853
		c1.352-2.064,3.034-4.178,5.109-6.088L10.224,1.579z"/>
</g>
<g>
	<g opacity="0.3" enable-background="new    ">
		<g>
			<path fill="#FFFFFF" d="M32,53.547c-9.123,0-16.546-7.423-16.546-16.546S22.877,20.454,32,20.454s16.546,7.423,16.546,16.546
				S41.123,53.547,32,53.547z M32,22.523c-7.984,0-14.478,6.495-14.478,14.478c0,7.982,6.495,14.478,14.478,14.478
				c7.982,0,14.478-6.497,14.478-14.478C46.478,29.017,39.982,22.523,32,22.523z"/>
		</g>
		<g>
			<path fill="#669CCC" d="M32,52.546c-9.123,0-16.546-7.423-16.546-16.546S22.877,19.453,32,19.453s16.546,7.423,16.546,16.546
				S41.123,52.546,32,52.546z M32,21.522c-7.984,0-14.478,6.495-14.478,14.478c0,7.982,6.495,14.478,14.478,14.478
				c7.982,0,14.478-6.497,14.478-14.478C46.478,28.016,39.982,21.522,32,21.522z"/>
		</g>
	</g>
	<g>
		<path opacity="0.3" fill="#669CCC" enable-background="new    " d="M32,21.003c-8.269,0-14.997,6.727-14.997,14.997
			S23.731,50.996,32,50.996s14.997-6.728,14.997-14.997S40.269,21.003,32,21.003z M32,50.477c-7.984,0-14.478-6.497-14.478-14.478
			c0-7.984,6.495-14.478,14.478-14.478c7.982,0,14.478,6.495,14.478,14.478C46.478,43.981,39.982,50.477,32,50.477z"/>
		<path opacity="0.3" fill="#669CCC" enable-background="new    " d="M32,19.453c-9.123,0-16.546,7.423-16.546,16.546
			S22.877,52.546,32,52.546s16.546-7.423,16.546-16.546S41.123,19.453,32,19.453z M32,52.027c-8.837,0-16.028-7.19-16.028-16.028
			S23.162,19.972,32,19.972c8.837,0,16.028,7.19,16.028,16.028C48.028,44.837,40.837,52.027,32,52.027z"/>
	</g>
	<g>
		<g>
			<g>
				<g>
					<defs>
						<circle id="SVGID_7_" cx="32" cy="37.001" r="13.77"/>
					</defs>
					<clipPath id="SVGID_3_">
						<use xlink:href="#SVGID_7_"  overflow="visible"/>
					</clipPath>
					<path opacity="0.3" clip-path="url(#SVGID_3_)" fill="#FFFFFF" enable-background="new    " d="M28.089,23.599
						c0.54,0.723,0.037,1.933,0.852,1.92c0.396,0.562-0.791,0.169,0.066,0.601c0.494,0.387-0.522,0.61,0.088,0.956
						c-0.701,0.362,0.116,1.895,0.639,2.278c0.861,0.723,0.38-1.531,1.34-1.649c0.522-0.595,1.437-0.976,2.089-1.574
						c-0.637-0.05-1.008-0.446-0.406-0.69c1.109,1.133,0.277-0.536-0.336-0.8c0.593-0.189,1.171-0.05,1.089-0.54
						c0.628-0.459-0.604-0.606-1.043-0.503C31.008,23.599,29.549,23.599,28.089,23.599z M18.986,24.073
						c-0.802,0.228-0.859,2.141-0.052,1.078C19.131,24.716,20.045,24.188,18.986,24.073z M22.733,24.139
						c-0.462,0.723,0.068,1.303,0.451,0.42C23.458,24.192,22.983,24.152,22.733,24.139z M23.89,24.303
						c-0.894,0.413-0.22,1.377-0.198,1.592c0.942,0.325,1.465-0.213,1.821,0.707c0.896,0.516-0.019,1.41-0.354,1.643
						c0.606-0.529,1.77,1.428,1.463,0.395c-0.363-0.264,0.978,0.426,0.283-0.435c-0.641-1.03,0.052-0.461,0.321-0.22
						c0.918-0.822-1.039-0.921-0.551-1.766c-0.428-0.347-0.99-1.395-1.748-1.19c-0.509,0.654-0.072-1.43-0.815-0.387
						c-0.039,0.582-0.015,1.322-0.231,0.312C23.736,24.776,24.131,24.365,23.89,24.303z M22.067,24.31
						c-0.599,0.198-0.567,1.008,0.171,1.094C22.489,25.116,22.337,24.363,22.067,24.31z M19.726,24.567
						c-0.778,0.184-0.461,0.811-0.222,0.988c-0.964,0.242,1.472,0.308,0.259,0.461c-1.008,0.402,0.973,0.876,1.298,0.4
						c1.245,0.305,0.044-0.995-0.064-1.7c-0.529-0.566-0.02,1.303-0.498,0.061C20.33,25.145,19.801,24.83,19.726,24.567z
						 M44.48,24.649c-1.045,0.407,0.65,1.95,0.228,0.547C44.667,25.028,44.804,24.58,44.48,24.649z M22.653,25.27
						c-0.751,0.703,0.954,1.287-0.217,1.812c-0.174-0.656-0.477,0.327-1.146-0.202c-1.151,0.479-1.74-0.25-2.704-0.747
						c-0.578-0.072-0.362,0.549-0.4,1.129c0,1.607,0,3.213,0,4.819c0.567,0.597,0.222,0.263,0,0.099
						c0.312,1.06-0.138,2.607,1.091,3.222c0.209,0.385,1.085,2.033,1.126,1.541c-0.439-0.459-0.89-1.834-0.147-0.608
						c0.667,1.166,1.564,1.922,2.875,2.2c0.718,0.242,1.307,1.08,1.937,0.896c0.356,0.938-1.058,1.84,0.048,2.714
						c0.577,0.885,1.544,1.467,1.021,2.71c-0.367,1.215-0.209,2.537-0.527,3.67c-0.099,0.689,0.962,2.436,0.87,1.038
						c0.31-0.973,0.301-2.044,1.03-2.732c0.997,0.008,0.191-1.071,1.181-0.929c0.604-0.791,0.78-1.733,1.799-2.047
						c0.121-0.96,1.696-2.429,0.07-2.803c-0.442-0.217-1.579-0.296-1.493-0.402c0.178-0.953-1.47-1.225-2.17-1.614
						c-0.92-0.652-2.304,1.083-2.627-0.411c-0.193-0.47-0.901-0.477-0.577-1.204c-0.586,0.582-1.731,0.404-1.432-0.718
						c0.455-0.945,2.205-0.992,2.504,0.147c-0.415-1.256,0.799-2.233,1.474-3.125c0.137-0.428,0.952-0.795,0.671-0.228
						c0.477-0.017,1.203-0.877,0.354-0.481c-0.013-0.786-0.745-0.562-0.984-0.45c0.44-0.698,2.699-0.316,1.753-1.456
						c-0.733-0.296-0.672-2.027-1.414-1.063c0.063-0.593-1.509-1.757-1.474-0.76c0.191,0.89,0.035,1.918-0.373,2.503
						c-0.086-1.307-2.317-1.017-2.031-2.409c0.415-0.665,0.901-1.581,0.947-1.498c0.745-0.285,1.344-1.109,0.481-1.652
						c-0.046,0.473-0.65,1.448-0.564,0.268C23.047,27.16,23.176,25.446,22.653,25.27z M40.482,25.727
						c-1.309,0.319-1.827,1.566-2.475,2.6c-0.954,0.429-0.918,2.273,0.149,1.684c0.285,0.498-0.2,1.281,0.632,0.632
						c0.67-0.885,0.118-2.317,1.258-2.875c0.083,0.433-1.052,2.055,0.274,1.788c1.199,0.046-0.872,0.119-0.288,0.883
						c-0.606-0.358-0.292,0.98-1.082,0.668c-0.685,0.373-1.135-0.173-0.976-0.769c-0.54,0.314,0.169,1.199-0.766,1.252
						c-0.209,0.744-1.933,0.632-0.953,1.386c0.435,1.126-1.621,0.07-1.038,1.421c0.5,1.335,1.546-0.442,1.972-0.786
						c0.819-0.634,2.034,1.082,1.296,1.146c0.826-0.11,0.657-0.896-0.006-1.199c-0.358-0.925,1.133,0.453,1.05,0.918
						c0.525,0.982,0.308-1.006,0.844-0.125c-0.063,0.929,2.152,0.219,1.094,1.403c-0.909,0.184-1.805-0.233-2.587,0.033
						c-0.729-0.008-0.692-0.784-0.956-0.978c-0.927,0.075-2.073,0.066-2.692,0.813c-0.67,0.918-1.638,2.203-0.907,3.376
						c0.733,1.739,2.547,0.09,3.589,1.116c0.31,0.428-0.268,0.936,0.424,1.401c0.261,0.988-0.296,1.926,0.345,2.869
						c0.33,0.888,0.536,2.216,1.77,1.406c1.305-0.784,0.958-2.229,2.034-3.03c-0.852-1.645,1.043-2.366,1.515-3.703
						c-1.032,0.151-1.953-0.876-2.203-1.911c-0.433-0.503-0.321-1.243,0.163-0.299c0.667,0.645,0.681,2.556,1.913,1.572
						c0.564-0.235,2.102-1.133,0.876-1.541c-0.789,0.571-1.662-1.706-0.501-0.385c0.843,0.358,1.434,0.569,1.434-0.615
						c0-3.191,0-6.424,0-9.635c-0.263,0.268-0.938,0.762-1.278,0.433c-0.586,0.081-1.36,1.219-1.175,0.119
						c-0.511-0.033-0.092,0.986-0.791,1.016c-0.07,0.525-0.707,0.097-0.468,0.595c-0.492-0.347-0.907-1.447,0.061-0.756
						c1.437-0.429-0.947-1.401-1.133-1.636C41.205,25.942,40.559,25.621,40.482,25.727z M34.201,27.567
						c-0.475,0.545-1.102-0.143-1.113,0.327c0.086,0.141,0.429,1.153,1.186,0.406C34.68,28.128,34.52,27.699,34.201,27.567z
						 M24.097,27.894c-0.899,0.784,1.53,0.857,0.191,0.09L24.097,27.894z M35.971,30.065c-0.648,0.422,0.31,1.318-0.015,1.739
						c-0.406,0.707,1.509-0.05,0.486-0.613C36.369,30.707,35.842,30.115,35.971,30.065z M35.534,30.916
						c-0.903,0.255-0.206,1.57,0.116,0.33C35.666,31.175,35.69,30.912,35.534,30.916z M28.304,31.868
						c-0.839,0.571-0.13,1.142,0.484,0.885C28.664,32.408,28.309,32.192,28.304,31.868z M44.17,32.829
						c0.418,0.211-0.767,0.571-0.017,0.943c0.437,0.514,0.272,1.616-0.439,0.835C43.847,33.738,42.751,33.086,44.17,32.829z
						 M42.015,32.836c-0.057,0.56,1.21,1.428-0.156,1.146c-0.722,0.085-1.803-0.022-0.894-0.92c0.288-0.173,1.041,0.595,0.65-0.123
						C41.754,32.931,41.883,32.878,42.015,32.836z M24.623,37.204c-0.088,0.296,1.665,0.595,0.455,0.121l-0.18-0.064L24.623,37.204z
						 M43.777,42.569c-1.157,0.03-1.003,3.006-0.197,1.245C43.658,43.432,43.963,42.927,43.777,42.569z"/>
				</g>
			</g>
		</g>
		<g>
			<g>
				<g>
					<defs>
						<circle id="SVGID_9_" cx="32" cy="35.999" r="13.77"/>
					</defs>
					<clipPath id="SVGID_4_">
						<use xlink:href="#SVGID_9_"  overflow="visible"/>
					</clipPath>
					<path opacity="0.3" clip-path="url(#SVGID_4_)" fill="#669CCC" enable-background="new    " d="M28.089,22.598
						c0.54,0.723,0.037,1.933,0.852,1.92c0.396,0.562-0.791,0.169,0.066,0.601c0.494,0.387-0.522,0.61,0.088,0.956
						c-0.701,0.362,0.116,1.895,0.639,2.278c0.861,0.723,0.38-1.531,1.34-1.649c0.522-0.595,1.437-0.976,2.089-1.574
						c-0.637-0.05-1.008-0.446-0.406-0.69c1.109,1.133,0.277-0.536-0.336-0.8c0.593-0.189,1.171-0.05,1.089-0.54
						c0.628-0.459-0.604-0.606-1.043-0.503C31.008,22.598,29.549,22.598,28.089,22.598z M18.986,23.072
						c-0.802,0.228-0.859,2.141-0.052,1.078C19.131,23.715,20.045,23.187,18.986,23.072z M22.733,23.138
						c-0.462,0.723,0.068,1.303,0.451,0.42C23.458,23.191,22.983,23.151,22.733,23.138z M23.89,23.302
						c-0.894,0.413-0.22,1.377-0.198,1.592c0.942,0.325,1.465-0.213,1.821,0.707c0.896,0.516-0.019,1.41-0.354,1.643
						c0.606-0.529,1.77,1.428,1.463,0.395c-0.363-0.264,0.978,0.426,0.283-0.435c-0.641-1.03,0.052-0.461,0.321-0.22
						c0.918-0.822-1.039-0.921-0.551-1.766c-0.428-0.347-0.99-1.395-1.748-1.19c-0.509,0.654-0.072-1.43-0.815-0.387
						c-0.039,0.582-0.015,1.322-0.231,0.312C23.736,23.775,24.131,23.364,23.89,23.302z M22.067,23.309
						c-0.599,0.198-0.567,1.008,0.171,1.094C22.489,24.115,22.337,23.362,22.067,23.309z M19.726,23.566
						c-0.778,0.184-0.461,0.811-0.222,0.988c-0.964,0.242,1.472,0.308,0.259,0.461c-1.008,0.402,0.973,0.876,1.298,0.4
						c1.245,0.305,0.044-0.995-0.064-1.7c-0.529-0.566-0.02,1.303-0.498,0.061C20.33,24.144,19.801,23.829,19.726,23.566z
						 M44.48,23.648c-1.045,0.407,0.65,1.95,0.228,0.547C44.667,24.027,44.804,23.579,44.48,23.648z M22.653,24.269
						c-0.751,0.703,0.954,1.287-0.217,1.812c-0.174-0.656-0.477,0.327-1.146-0.202c-1.151,0.479-1.74-0.25-2.704-0.747
						c-0.578-0.072-0.362,0.549-0.4,1.129c0,1.607,0,3.213,0,4.819c0.567,0.597,0.222,0.263,0,0.099
						c0.312,1.06-0.138,2.607,1.091,3.222c0.209,0.385,1.085,2.033,1.126,1.541c-0.439-0.459-0.89-1.834-0.147-0.608
						c0.667,1.166,1.564,1.922,2.875,2.2c0.718,0.242,1.307,1.08,1.937,0.896c0.356,0.938-1.058,1.84,0.048,2.714
						c0.577,0.885,1.544,1.467,1.021,2.71c-0.367,1.215-0.209,2.537-0.527,3.67c-0.099,0.689,0.962,2.436,0.87,1.038
						c0.31-0.973,0.301-2.044,1.03-2.732c0.997,0.008,0.191-1.071,1.181-0.929c0.604-0.791,0.78-1.733,1.799-2.047
						c0.121-0.96,1.696-2.429,0.07-2.803c-0.442-0.217-1.579-0.296-1.493-0.402c0.178-0.953-1.47-1.225-2.17-1.614
						c-0.92-0.652-2.304,1.083-2.627-0.411c-0.193-0.47-0.901-0.477-0.577-1.204c-0.586,0.582-1.731,0.404-1.432-0.718
						c0.455-0.945,2.205-0.992,2.504,0.147c-0.415-1.256,0.799-2.233,1.474-3.125c0.137-0.428,0.952-0.795,0.671-0.228
						c0.477-0.017,1.203-0.877,0.354-0.481c-0.013-0.786-0.745-0.562-0.984-0.45c0.44-0.698,2.699-0.316,1.753-1.456
						c-0.733-0.296-0.672-2.027-1.414-1.063c0.063-0.593-1.509-1.757-1.474-0.76c0.191,0.89,0.035,1.918-0.373,2.503
						c-0.086-1.307-2.317-1.017-2.031-2.409c0.415-0.665,0.901-1.581,0.947-1.498c0.745-0.285,1.344-1.109,0.481-1.652
						c-0.046,0.473-0.65,1.448-0.564,0.268C23.047,26.158,23.176,24.445,22.653,24.269z M40.482,24.726
						c-1.309,0.319-1.827,1.566-2.475,2.6c-0.954,0.429-0.918,2.273,0.149,1.684c0.285,0.498-0.2,1.281,0.632,0.632
						c0.67-0.885,0.118-2.317,1.258-2.875c0.083,0.433-1.052,2.055,0.274,1.788c1.199,0.046-0.872,0.119-0.288,0.883
						c-0.606-0.358-0.292,0.98-1.082,0.668c-0.685,0.373-1.135-0.173-0.976-0.769c-0.54,0.314,0.169,1.199-0.766,1.252
						c-0.209,0.744-1.933,0.632-0.953,1.386c0.435,1.126-1.621,0.07-1.038,1.421c0.5,1.335,1.546-0.442,1.972-0.786
						c0.819-0.634,2.034,1.082,1.296,1.146c0.826-0.11,0.657-0.896-0.006-1.199c-0.358-0.925,1.133,0.453,1.05,0.918
						c0.525,0.982,0.308-1.006,0.844-0.125c-0.063,0.929,2.152,0.219,1.094,1.403c-0.909,0.184-1.805-0.233-2.587,0.033
						c-0.729-0.008-0.692-0.784-0.956-0.978c-0.927,0.075-2.073,0.066-2.692,0.813c-0.67,0.918-1.638,2.203-0.907,3.376
						c0.733,1.739,2.547,0.09,3.589,1.116c0.31,0.428-0.268,0.936,0.424,1.401c0.261,0.988-0.296,1.926,0.345,2.869
						c0.33,0.888,0.536,2.216,1.77,1.406c1.305-0.784,0.958-2.229,2.034-3.03c-0.852-1.645,1.043-2.366,1.515-3.703
						c-1.032,0.151-1.953-0.876-2.203-1.911c-0.433-0.503-0.321-1.243,0.163-0.299c0.667,0.645,0.681,2.556,1.913,1.572
						c0.564-0.235,2.102-1.133,0.876-1.541c-0.789,0.571-1.662-1.706-0.501-0.385c0.843,0.358,1.434,0.569,1.434-0.615
						c0-3.191,0-6.424,0-9.635c-0.263,0.268-0.938,0.762-1.278,0.433c-0.586,0.081-1.36,1.219-1.175,0.119
						c-0.511-0.033-0.092,0.986-0.791,1.016c-0.07,0.525-0.707,0.097-0.468,0.595c-0.492-0.347-0.907-1.447,0.061-0.756
						c1.437-0.429-0.947-1.401-1.133-1.636C41.205,24.941,40.559,24.62,40.482,24.726z M34.201,26.566
						c-0.475,0.545-1.102-0.143-1.113,0.327c0.086,0.141,0.429,1.153,1.186,0.406C34.68,27.127,34.52,26.698,34.201,26.566z
						 M24.097,26.893c-0.899,0.784,1.53,0.857,0.191,0.09L24.097,26.893z M35.971,29.064c-0.648,0.422,0.31,1.318-0.015,1.739
						c-0.406,0.707,1.509-0.05,0.486-0.613C36.369,29.706,35.842,29.114,35.971,29.064z M35.534,29.915
						c-0.903,0.255-0.206,1.57,0.116,0.33C35.666,30.174,35.69,29.911,35.534,29.915z M28.304,30.867
						c-0.839,0.571-0.13,1.142,0.484,0.885C28.664,31.407,28.309,31.191,28.304,30.867z M44.17,31.828
						c0.418,0.211-0.767,0.571-0.017,0.943c0.437,0.514,0.272,1.616-0.439,0.835C43.847,32.737,42.751,32.085,44.17,31.828z
						 M42.015,31.835c-0.057,0.56,1.21,1.428-0.156,1.146c-0.722,0.085-1.803-0.022-0.894-0.92c0.288-0.173,1.041,0.595,0.65-0.123
						C41.754,31.93,41.883,31.877,42.015,31.835z M24.623,36.203c-0.088,0.296,1.665,0.595,0.455,0.121l-0.18-0.064L24.623,36.203z
						 M43.777,41.568c-1.157,0.03-1.003,3.006-0.197,1.245C43.658,42.431,43.963,41.926,43.777,41.568z"/>
				</g>
			</g>
		</g>
	</g>
	<g>
		<g>
			<defs>
				<path id="SVGID_11_" d="M32,49.182c-7.269,0-13.183-5.914-13.183-13.183c0-7.269,5.914-13.182,13.183-13.182
					s13.183,5.914,13.183,13.182S39.269,49.182,32,49.182z"/>
			</defs>
			<clipPath id="SVGID_5_">
				<use xlink:href="#SVGID_11_"  overflow="visible"/>
			</clipPath>
			<g clip-path="url(#SVGID_5_)">
				<path opacity="0.3" fill="#669CCC" enable-background="new    " d="M28.788,31.753c-0.125-0.345-0.479-0.562-0.484-0.885
					C27.464,31.438,28.173,32.009,28.788,31.753z"/>
				<path opacity="0.3" fill="#669CCC" enable-background="new    " d="M22.238,24.403c0.252-0.288,0.099-1.041-0.171-1.094
					C21.468,23.507,21.499,24.317,22.238,24.403z"/>
				<path opacity="0.3" fill="#669CCC" enable-background="new    " d="M18.935,24.15c0.196-0.435,1.111-0.962,0.052-1.078
					C18.183,23.3,18.127,25.213,18.935,24.15z"/>
				<path opacity="0.3" fill="#669CCC" enable-background="new    " d="M19.504,24.554c-0.964,0.242,1.472,0.308,0.259,0.461
					c-1.008,0.402,0.973,0.876,1.298,0.4c1.245,0.305,0.044-0.995-0.064-1.7c-0.529-0.566-0.02,1.303-0.498,0.061
					c-0.169,0.369-0.698,0.053-0.773-0.209C18.947,23.75,19.265,24.377,19.504,24.554z M20.708,24.798
					c0.034,0,0.067-0.003,0.1-0.009c0,0,0.027,0.051,0.041,0.078c-0.055,0.021-0.106,0.051-0.152,0.087c0-0.002,0-0.004,0-0.006
					c0.002-0.055-0.002-0.105-0.01-0.151C20.693,24.798,20.708,24.798,20.708,24.798z"/>
				<path opacity="0.3" fill="#669CCC" enable-background="new    " d="M25.513,25.6c0.896,0.516-0.019,1.41-0.354,1.643
					c0.606-0.529,1.77,1.428,1.463,0.395c-0.363-0.264,0.978,0.426,0.283-0.435c-0.641-1.03,0.052-0.461,0.321-0.22
					c0.918-0.822-1.039-0.921-0.551-1.766c-0.428-0.347-0.99-1.395-1.748-1.19c-0.509,0.654-0.072-1.43-0.815-0.387
					c-0.039,0.582-0.015,1.322-0.231,0.312c-0.145-0.176,0.25-0.588,0.009-0.65c-0.894,0.413-0.22,1.377-0.198,1.592
					C24.634,25.219,25.157,24.68,25.513,25.6z"/>
				<path opacity="0.3" fill="#669CCC" enable-background="new    " d="M35.649,30.245c0.017-0.072,0.041-0.334-0.116-0.33
					C34.63,30.17,35.328,31.484,35.649,30.245z"/>
				<path opacity="0.3" fill="#669CCC" enable-background="new    " d="M24.097,26.893c-0.899,0.784,1.53,0.857,0.191,0.09
					L24.097,26.893z"/>
				<path opacity="0.3" fill="#669CCC" enable-background="new    " d="M23.185,23.558c0.274-0.367-0.202-0.407-0.451-0.42
					C22.271,23.862,22.801,24.442,23.185,23.558z"/>
				<path opacity="0.3" fill="#669CCC" enable-background="new    " d="M28.941,24.587c0.396,0.562-0.791,0.135,0.066,0.566
					c0.494,0.387-0.522,0.592,0.088,0.939c-0.701,0.362,0.116,1.886,0.639,2.27c0.861,0.723,0.38-1.536,1.34-1.653
					c0.522-0.595,1.437-0.979,2.089-1.576c-0.637-0.05-1.008-0.447-0.406-0.691c1.109,1.133,0.277-0.537-0.336-0.801
					c0.593-0.189,1.171,0.019,1.089-0.471c0.628-0.459-0.604-0.434-1.043-0.434c-1.459,0-2.919,0-4.379,0
					C28.629,23.737,28.126,24.6,28.941,24.587z M32.052,23.737c-0.127,0-0.208-0.019-0.216,0.151
					c-0.011,0.222,0.104,0.29,0.293,0.399c-0.288,0.273-0.271,0.522-0.254,0.636c0.022,0.14,0.08,0.234,0.17,0.347
					c-0.061,0.04-0.122,0.063-0.185,0.103c-0.381,0.247-0.773,0.492-1.092,0.81c-0.643,0.213-0.835,0.918-0.946,1.412
					c-0.233-0.333-0.441-0.818-0.413-1.022c0.166-0.105,0.269-0.287,0.273-0.485c0.003-0.108-0.025-0.213-0.077-0.303
					c0.081-0.134,0.15-0.313,0.124-0.535c-0.016-0.131-0.062-0.252-0.139-0.363c0.044-0.174,0.035-0.418-0.17-0.708
					c-0.095-0.135-0.241-0.222-0.402-0.243c-0.017-0.091-0.03,0.05-0.04-0.049c-0.013-0.129-0.027-0.152-0.052-0.152
					C28.926,23.737,32.052,23.737,32.052,23.737z"/>
				<path opacity="0.3" fill="#669CCC" enable-background="new    " d="M35.956,30.803c-0.406,0.707,1.509-0.05,0.486-0.613
					c-0.074-0.484-0.601-1.076-0.472-1.126C35.322,29.487,36.281,30.383,35.956,30.803z"/>
				<path opacity="0.3" fill="#669CCC" enable-background="new    " d="M43.581,42.812c0.077-0.382,0.382-0.887,0.197-1.245
					C42.62,41.597,42.775,44.573,43.581,42.812z"/>
				<path opacity="0.3" fill="#669CCC" enable-background="new    " d="M44.447,25.675c-0.586,0.081-1.38,1.219-1.195,0.119
					c-0.511-0.033-0.102,0.986-0.801,1.016c-0.07,0.525-0.712,0.097-0.473,0.595c-0.492-0.347-0.909-1.447,0.058-0.756
					c1.437-0.429-0.948-1.401-1.134-1.636c0.305-0.072-0.342-0.393-0.419-0.286c-1.309,0.319-1.827,1.566-2.475,2.6
					c-0.954,0.429-0.918,2.273,0.149,1.684c0.285,0.498-0.2,1.281,0.632,0.632c0.67-0.885,0.118-2.317,1.258-2.875
					c0.083,0.433-1.052,2.055,0.274,1.788c1.199,0.046-0.872,0.119-0.288,0.883c-0.606-0.358-0.292,0.98-1.082,0.668
					c-0.685,0.373-1.135-0.173-0.977-0.769c-0.54,0.314,0.169,1.199-0.766,1.252c-0.209,0.744-1.933,0.632-0.953,1.386
					c0.435,1.126-1.621,0.07-1.038,1.421c0.5,1.335,1.546-0.442,1.972-0.786c0.819-0.634,2.034,1.082,1.296,1.146
					c0.826-0.11,0.657-0.896-0.006-1.199c-0.358-0.925,1.133,0.453,1.05,0.918c0.525,0.982,0.308-1.006,0.844-0.125
					c-0.063,0.929,2.152,0.219,1.094,1.403c-0.909,0.184-1.805-0.233-2.587,0.033c-0.729-0.008-0.692-0.784-0.956-0.978
					c-0.927,0.075-2.073,0.066-2.692,0.813c-0.67,0.918-1.638,2.203-0.907,3.376c0.733,1.739,2.547,0.09,3.589,1.116
					c0.31,0.428-0.268,0.936,0.424,1.401c0.261,0.988-0.296,1.926,0.345,2.869c0.33,0.888,0.536,2.216,1.77,1.406
					c1.305-0.784,0.958-2.229,2.034-3.03c-0.852-1.645,1.043-2.366,1.515-3.703c-1.032,0.151-1.953-0.876-2.203-1.911
					c-0.433-0.503-0.321-1.243,0.163-0.299c0.667,0.645,0.681,2.556,1.913,1.572c0.564-0.235,2.102-1.133,0.876-1.541
					c-0.789,0.571-1.622-1.706-0.461-0.385c0.843,0.358,1.473,0.569,1.473-0.615c0-3.191,0-6.424,0-9.635
					C45.263,25.51,44.786,26.004,44.447,25.675z M35.785,33.239c-0.006-0.015-0.022-0.055-0.023-0.057
					c0.013-0.002,0.083-0.01,0.106-0.013C35.839,33.196,35.811,33.219,35.785,33.239z M43.055,38.499
					c-0.108,0.136-0.227,0.283-0.349,0.423c-0.557,0.637-1.298,1.489-0.917,2.677c-0.389,0.423-0.573,0.918-0.739,1.363
					c-0.211,0.564-0.377,0.913-0.897,1.225c-0.245,0.161-0.351,0.071-0.37,0.071h-0.007c-0.134,0-0.316-0.515-0.404-0.78
					c-0.045-0.137-0.09-0.222-0.137-0.348c-0.017-0.044-0.038-0.062-0.065-0.101c-0.265-0.391-0.235-0.785-0.197-1.3
					c0.031-0.412,0.065-0.874-0.066-1.371c-0.037-0.138-0.122-0.255-0.241-0.335c-0.08-0.054-0.097-0.084-0.097-0.084
					c-0.01-0.027,0.004-0.135,0.011-0.2c0.027-0.228,0.072-0.61-0.191-0.971c-0.019-0.026-0.04-0.051-0.063-0.074
					c-0.366-0.36-0.835-0.535-1.436-0.535c-0.246,0-0.485,0.027-0.717,0.053c-0.204,0.023-0.397,0.045-0.571,0.045
					c-0.359,0-0.561-0.073-0.736-0.489c-0.012-0.029-0.026-0.056-0.043-0.083c-0.47-0.754,0.106-1.656,0.847-2.671l0.024-0.033
					c0.385-0.45,1.157-0.323,1.91-0.375c0.143,0.334,0.436,1.142,1.269,1.142c0.002,0,0.004,0,0.006,0
					c0.064,0,0.128-0.199,0.189-0.22c0.121-0.041,0.259-0.155,0.434-0.155c0.193,0,0.404,0.157,0.628,0.182
					c0.259,0.029,0.528,0.192,0.813,0.192c0.002,0,0.006,0,0.009,0c-0.05,0,0.096,0.547,0.31,0.843
					C41.515,37.472,42.173,38.163,43.055,38.499z M41.859,32.981c-0.722,0.085-1.803-0.022-0.894-0.92
					c0.288-0.173,1.041,0.595,0.65-0.123c0.14-0.008,0.268-0.061,0.4-0.103C41.958,32.395,43.224,33.264,41.859,32.981z
					 M45.263,34.877c0,0.141-0.093,0.234-0.104,0.295c-0.134-0.031-0.366-0.106-0.519-0.17c-0.342-0.369-0.608-0.516-0.875-0.516
					c-0.232,0-0.449,0.119-0.565,0.318c-0.146,0.253-0.117,0.58,0.094,0.946c0.098,0.169,0.43,0.678,0.975,0.787
					c-0.182,0.123-0.406,0.249-0.62,0.338c-0.051,0.021-0.099,0.049-0.141,0.083c-0.098,0.078-0.165,0.116-0.204,0.133
					c-0.09-0.111-0.215-0.402-0.293-0.584c-0.146-0.34-0.309-0.722-0.569-1.009c-0.108-0.2-0.234-0.394-0.396-0.527
					c0.175-0.226,0.382-0.585,0.252-0.972c-0.061-0.182-0.171-0.309-0.303-0.4c0.105,0.015,0.196,0.022,0.278,0.022
					c0.45,0,0.646-0.236,0.723-0.377c0.026-0.048,0.045-0.095,0.059-0.142c0.055,0.151,0.096,0.292,0.077,0.415
					c-0.027,0.175,0.027,0.352,0.147,0.483c0.283,0.311,0.565,0.462,0.86,0.462c0.319,0,0.594-0.182,0.735-0.488
					c0.203-0.439,0.101-1.097-0.23-1.531c0.119-0.145,0.239-0.351,0.195-0.619c-0.022-0.13-0.103-0.371-0.406-0.524
					c-0.083-0.042-0.173-0.063-0.264-0.063c-0.035,0-0.07,0.003-0.105,0.01c-0.392,0.071-0.872,0.205-1.102,0.614
					c-0.079,0.142-0.112,0.283-0.116,0.42c-0.019-0.031-0.039-0.06-0.057-0.089c-0.06-0.092-0.167-0.258-0.19-0.334
					c0.009-0.186-0.072-0.365-0.216-0.482c-0.106-0.086-0.237-0.131-0.37-0.131c-0.06,0-0.12,0.009-0.178,0.028l-0.089,0.029
					c-0.062,0.021-0.133,0.045-0.164,0.047c-0.118,0.006-0.229,0.048-0.321,0.116c-0.062-0.013-0.127-0.02-0.193-0.02
					c-0.149,0-0.286,0.037-0.407,0.109c-0.04,0.024-0.078,0.053-0.111,0.086c-0.314,0.311-0.487,0.61-0.518,0.895
					c-0.091,0.013-0.169,0.043-0.236,0.083c-0.047-0.066-0.099-0.133-0.157-0.201c-0.292-0.348-0.728-0.763-1.147-0.763
					c-0.217,0-0.417,0.104-0.539,0.279c-0.12-0.035-0.243-0.053-0.366-0.053c-0.25,0-0.49,0.075-0.699,0.218
					c-0.015-0.107-0.045-0.22-0.09-0.337c-0.009-0.022-0.018-0.042-0.029-0.063c0.267-0.121,0.599-0.289,0.816-0.582
					c0.263-0.075,0.432-0.213,0.541-0.372c0.124,0.045,0.256,0.068,0.393,0.068c0.157,0,0.317-0.03,0.476-0.088
					c0.057,0.01,0.112,0.014,0.166,0.014c0.574,0,0.809-0.448,0.919-0.721c0.144-0.014,0.281-0.08,0.383-0.194
					c0.135-0.152,0.179-0.356,0.129-0.543c0.06-0.025,0.12-0.048,0.154-0.06c0.403-0.149,0.581-0.504,0.529-0.831
					c-0.08-0.505-0.576-0.651-0.937-0.651c-0.008,0-0.026,0-0.028,0c0.038,0,0.088-0.148,0.123-0.242
					c0.13-0.356,0.242-0.608,0.187-0.9c-0.035-0.18-0.151-0.305-0.314-0.387c-0.083-0.041-0.173-0.048-0.263-0.048
					c-0.088,0-0.177,0.027-0.258,0.067c-0.943,0.462-1.069,1.334-1.169,2.033c-0.016,0.111-0.032,0.221-0.05,0.326
					c-0.111-0.11-0.26-0.168-0.413-0.168c-0.083,0-0.167,0.018-0.246,0.055c0.001-0.068,0.013-0.155,0.048-0.253
					c0.061-0.175,0.167-0.307,0.292-0.363c0.106-0.048,0.195-0.125,0.256-0.223c0.107-0.171,0.211-0.347,0.315-0.524
					c0.466-0.794,0.874-1.489,1.606-1.757c0.005,0.007,0.01,0.014,0.015,0.02c0.115,0.146,0.289,0.246,0.604,0.427
					c0.052,0.03,0.12,0.069,0.194,0.113c-0.16,0.082-0.283,0.225-0.341,0.407c-0.167,0.527,0.317,1.264,0.738,1.561
					c0.102,0.072,0.22,0.107,0.338,0.107c0.135,0,0.27-0.047,0.379-0.139c0.083-0.07,0.142-0.159,0.176-0.256
					c0.158-0.075,0.268-0.178,0.344-0.291c0.225-0.101,0.367-0.272,0.458-0.448c0.278-0.007,0.505-0.171,0.745-0.345
					c0.074-0.054,0.189-0.137,0.284-0.194c0.104,0.035,0.298,0.053,0.415,0.053c0.138,0-0.012-0.026,0.488-0.068v8.572H45.263z
					 M44.153,32.772c0.437,0.514,0.272,1.616-0.439,0.835c0.132-0.87-0.964-1.522,0.455-1.779
					C44.589,32.039,43.403,32.399,44.153,32.772z"/>
				<path opacity="0.3" fill="#669CCC" enable-background="new    " d="M44.708,24.195c-0.041-0.169,0.096-0.617-0.228-0.547
					C43.436,24.056,45.13,25.598,44.708,24.195z"/>
				<path opacity="0.3" fill="#669CCC" enable-background="new    " d="M30.558,40.049c-0.442-0.217-1.579-0.296-1.493-0.402
					c0.178-0.953-1.47-1.225-2.17-1.614c-0.92-0.652-2.304,1.083-2.627-0.411c-0.193-0.47-0.901-0.477-0.577-1.204
					C23.106,37,21.96,36.822,22.26,35.7c0.455-0.945,2.205-0.992,2.504,0.147c-0.415-1.256,0.799-2.233,1.474-3.125
					c0.138-0.426,0.953-0.793,0.672-0.226c0.477-0.017,1.203-0.877,0.354-0.481c-0.013-0.786-0.745-0.562-0.984-0.45
					c0.44-0.698,2.699-0.316,1.753-1.456c-0.733-0.296-0.672-2.027-1.414-1.063c0.063-0.593-1.509-1.757-1.474-0.76
					c0.191,0.89,0.035,1.918-0.373,2.503c-0.086-1.307-2.317-1.017-2.031-2.409c0.415-0.665,0.901-1.581,0.947-1.498
					c0.745-0.285,1.344-1.109,0.481-1.652c-0.046,0.473-0.65,1.448-0.564,0.268c-0.56,0.661-0.431-1.052-0.954-1.228
					c-0.751,0.703,0.954,1.287-0.217,1.812c-0.174-0.656-0.477,0.327-1.146-0.202c-1.151,0.479-1.965-0.25-2.929-0.747
					c-0.578-0.072-0.625,0.549-0.625,1.129c0,1.607,0,3.213,0,4.819c1.001,0.597,0.447,0.263,0.225,0.099
					c0.312,1.06-0.025,2.607,1.203,3.222c0.209,0.385,1.141,2.033,1.182,1.541c-0.439-0.459-0.862-1.834-0.119-0.608
					c0.667,1.166,1.578,1.922,2.889,2.2c0.718,0.242,1.314,1.08,1.944,0.896c0.356,0.938-1.054,1.84,0.051,2.714
					c0.577,0.885,1.546,1.467,1.023,2.71c-0.367,1.215-0.208,2.537-0.526,3.67c-0.099,0.689,0.962,2.436,0.871,1.038
					c0.31-0.973,0.301-2.044,1.03-2.732c0.997,0.008,0.191-1.071,1.181-0.929c0.604-0.791,0.78-1.733,1.799-2.047
					C30.61,41.892,32.185,40.424,30.558,40.049z M21.731,35.445c-0.016,0.033-0.029,0.068-0.039,0.104
					c-0.061,0.227-0.078,0.425-0.066,0.598c-0.322-0.292-0.607-0.659-0.862-1.105c-0.302-0.498-0.508-0.794-0.886-0.794
					c-0.006,0-0.011,0-0.016,0c-0.012,0-0.07-0.128-0.07-0.128c-0.058-0.106-0.146-0.19-0.253-0.244
					c-0.515-0.258-0.572-0.789-0.623-1.636c-0.008-0.127-0.016-0.256-0.026-0.385c0.061-0.056,0.093-0.124,0.127-0.203
					c0.134-0.312-0.28-0.497-0.28-0.804V26.28c0-0.126,0.024-0.248,0.02-0.36c0.04,0.025,0.088,0.049,0.126,0.073
					c0.494,0.31,1.01,0.631,1.688,0.631c0.215,0,0.432-0.032,0.653-0.098c0.153,0.07,0.312,0.105,0.472,0.105
					c0.152,0,0.286-0.032,0.397-0.072c0.029,0.021,0.059,0.038,0.091,0.054c0.08,0.038,0.166,0.057,0.253,0.057
					c0.082,0,0.164-0.017,0.24-0.052c0.091-0.041,0.294-0.132,0.469-0.3c0.025,0.042,0.054,0.081,0.089,0.118
					c0.008,0.009,0.016,0.017,0.024,0.025c-0.152,0.153-0.313,0.428-0.589,0.898c-0.136,0.233-0.285,0.487-0.425,0.712
					c-0.037,0.059-0.063,0.124-0.077,0.193c-0.242,1.173,0.703,1.64,1.268,1.919c0.51,0.252,0.735,0.389,0.752,0.647
					c0.017,0.249,0.188,0.46,0.428,0.527c0.053,0.015,0.105,0.022,0.158,0.022c0.189,0,0.37-0.091,0.481-0.251
					c0.413-0.592,0.613-1.499,0.548-2.386c0.109,0.102,0.202,0.214,0.231,0.292c-0.007,0.244,0.139,0.469,0.369,0.561
					c0.071,0.029,0.145,0.042,0.218,0.042c0.096,0,0.191-0.024,0.275-0.069c0.128,0.285,0.294,0.638,0.582,0.883
					c-0.087,0.022-0.177,0.043-0.253,0.06c-0.533,0.122-1.136,0.26-1.441,0.743c-0.139,0.221-0.117,0.507,0.057,0.702
					c0.039,0.045,0.084,0.082,0.133,0.112c-0.103,0.11-0.19,0.233-0.249,0.361c-0.114,0.145-0.245,0.297-0.382,0.457
					c-0.405,0.47-0.869,1.009-1.102,1.638c-0.216-0.077-0.455-0.118-0.709-0.118C22.742,34.404,22.035,34.813,21.731,35.445z
					 M30.361,41.589c-0.139,0.271-0.282,0.549-0.372,0.829c-0.707,0.333-1.046,0.928-1.348,1.461
					c-0.085,0.149-0.166,0.291-0.254,0.428c-0.47,0.049-0.76,0.352-0.863,0.903c-0.002,0.01-0.004,0.021-0.006,0.032
					c-0.15,0-0.304,0.058-0.412,0.16c-0.374,0.353-0.591,0.777-0.739,1.213c0.028-0.259,0.047-0.518,0.066-0.773
					c0.047-0.632,0.09-1.228,0.256-1.792c0.512-1.255-0.141-2.047-0.667-2.684c-0.152-0.185-0.296-0.359-0.416-0.544
					c-0.035-0.054-0.078-0.101-0.128-0.14c-0.27-0.214-0.274-0.296-0.034-0.877c0.136-0.331,0.298-0.725,0.266-1.162
					c0.011-0.004,0.022-0.008,0.033-0.011c0.232-0.081,0.472-0.165,0.648-0.165c0.09,0,0.134,0.023,0.165,0.045
					c0.018,0.013,0.036,0.024,0.054,0.034c0.218,0.121,0.481,0.221,0.76,0.327c0.403,0.153,1.151,0.437,1.12,0.661
					c-0.023,0.111-0.017,0.228,0.022,0.333c0.133,0.358,0.448,0.416,0.971,0.512c0.264,0.048,0.663,0.121,0.817,0.197
					c0.041,0.02,0.083,0.035,0.127,0.045c0.225,0.052,0.283,0.113,0.283,0.113C30.735,40.861,30.492,41.334,30.361,41.589z"/>
				<path opacity="0.3" fill="#669CCC" enable-background="new    " d="M24.898,36.26l-0.275-0.057
					c-0.088,0.296,1.665,0.595,0.455,0.121L24.898,36.26z"/>
				<path opacity="0.3" fill="#669CCC" enable-background="new    " d="M34.201,26.566c-0.475,0.545-1.102-0.143-1.113,0.327
					c0.086,0.141,0.429,1.153,1.186,0.406C34.68,27.127,34.52,26.698,34.201,26.566z"/>
			</g>
		</g>
	</g>
</g>
</svg>
