<?xml version="1.0" encoding="utf-8"?>
<!-- Generator: Adobe Illustrator 17.0.0, SVG Export Plug-In . SVG Version: 6.00 Build 0)  -->
<!DOCTYPE svg PUBLIC "-//W3C//DTD SVG 1.1//EN" "http://www.w3.org/Graphics/SVG/1.1/DTD/svg11.dtd">
<svg version="1.1" id="图层_1" xmlns="http://www.w3.org/2000/svg" xmlns:xlink="http://www.w3.org/1999/xlink" x="0px" y="0px"
	 width="64px" height="64px" viewBox="32 32 64 64" enable-background="new 32 32 64 64" xml:space="preserve">
<g>
	<path fill="#EBF2FB" stroke="#9DBCD7" stroke-miterlimit="10" d="M92.781,83.369c0,4.204-3.408,7.612-7.612,7.612H42.412
		c-4.204,0-7.612-3.408-7.612-7.612V40.612c0-4.204,3.408-7.612,7.612-7.612h42.757c4.204,0,7.612,3.408,7.612,7.612V83.369z"/>
	<g id="g27_1_">
		
			<linearGradient id="path36_2_" gradientUnits="userSpaceOnUse" x1="996.9438" y1="1385.364" x2="1004.9769" y2="1399.2776" gradientTransform="matrix(1 0 0 1 -960 -1353)">
			<stop  offset="0" style="stop-color:#FFFFFF"/>
			<stop  offset="0.5" style="stop-color:#FFFFFF;stop-opacity:0.6"/>
			<stop  offset="1" style="stop-color:#FFFFFF;stop-opacity:0.15"/>
		</linearGradient>
		<path id="path36_1_" fill="url(#path36_2_)" d="M43.568,48.642c0.898-1.859,1.994-3.601,3.252-5.211l-2.288-5.017
			c-1.954,1.847-3.541,3.883-4.807,5.86L43.568,48.642z"/>
		
			<linearGradient id="path45_2_" gradientUnits="userSpaceOnUse" x1="1004.2281" y1="1383.2802" x2="1009.4854" y2="1392.3861" gradientTransform="matrix(1 0 0 1 -960 -1353)">
			<stop  offset="0" style="stop-color:#FFFFFF"/>
			<stop  offset="0.5" style="stop-color:#FFFFFF;stop-opacity:0.6"/>
			<stop  offset="1" style="stop-color:#FFFFFF;stop-opacity:0.15"/>
		</linearGradient>
		<path id="path45_1_" fill="url(#path45_2_)" d="M43.806,33.591l1.196,2.621c1.151-0.956,2.412-1.284,3.788-2.621H43.806z"/>
		
			<linearGradient id="path54_2_" gradientUnits="userSpaceOnUse" x1="1005.8817" y1="1381.5509" x2="1012.3051" y2="1392.6765" gradientTransform="matrix(1 0 0 1 -960 -1353)">
			<stop  offset="0" style="stop-color:#FFFFFF"/>
			<stop  offset="0.5" style="stop-color:#FFFFFF;stop-opacity:0.6"/>
			<stop  offset="1" style="stop-color:#FFFFFF;stop-opacity:0.15"/>
		</linearGradient>
		<path id="path54_1_" fill="url(#path54_2_)" d="M52.78,33.591h-0.946c-2.386,1.337-4.472,2.357-6.261,3.88l2.193,4.812
			c1.874-2.164,4.047-4.06,6.481-5.592c0.019-0.017,0.032-0.032,0.052-0.049C57.027,34.286,54.318,33.591,52.78,33.591z"/>
		
			<linearGradient id="path63_2_" gradientUnits="userSpaceOnUse" x1="992.4357" y1="1391.7065" x2="999.4064" y2="1403.7802" gradientTransform="matrix(1 0 0 1 -960 -1353)">
			<stop  offset="0" style="stop-color:#FFFFFF"/>
			<stop  offset="0.5" style="stop-color:#FFFFFF;stop-opacity:0.6"/>
			<stop  offset="1" style="stop-color:#FFFFFF;stop-opacity:0.15"/>
		</linearGradient>
		<path id="path63_1_" fill="url(#path63_2_)" d="M38.995,45.466c-1.468,2.498-2.426,4.807-2.995,6.385
			c0.673,0.961,1.787,1.592,3.05,1.592c1.564,0,2.899-0.966,3.452-2.331c0.142-0.381,0.314-0.747,0.472-1.123L38.995,45.466z"/>
		
			<linearGradient id="path72_2_" gradientUnits="userSpaceOnUse" x1="992.123" y1="1392.2009" x2="999.8483" y2="1405.5817" gradientTransform="matrix(1 0 0 1 -960 -1353)">
			<stop  offset="0" style="stop-color:#FFFFFF"/>
			<stop  offset="0.5" style="stop-color:#FFFFFF;stop-opacity:0.6"/>
			<stop  offset="1" style="stop-color:#FFFFFF;stop-opacity:0.15"/>
		</linearGradient>
		<path id="path72_1_" fill="url(#path72_2_)" d="M35.353,41.321l-0.029,8.388c0,0,0,0.003,0,0.005c0,0.052,0.013,0.102,0.016,0.154
			c0.638-1.552,1.528-3.448,2.736-5.452L35.353,41.321z"/>
		
			<linearGradient id="path149_2_" gradientUnits="userSpaceOnUse" x1="997.965" y1="1388.0105" x2="1005.2191" y2="1400.5747" gradientTransform="matrix(1 0 0 1 -960 -1353)">
			<stop  offset="0" style="stop-color:#FFFFFF"/>
			<stop  offset="0.5" style="stop-color:#FFFFFF;stop-opacity:0.6"/>
			<stop  offset="1" style="stop-color:#FFFFFF;stop-opacity:0.15"/>
		</linearGradient>
		<path id="path149_1_" fill="url(#path149_2_)" d="M42.212,33.606c-2.725-0.226-6.314,2.844-6.775,5.787l3.382,3.846
			c1.35-2.06,3.029-4.17,5.099-6.076L42.212,33.606z"/>
	</g>
	<g id="g151" opacity="0.5">
		<path id="path153" opacity="0.08" enable-background="new    " d="M85.966,91.194H42.072c-4.041,0-7.334-3.145-7.334-6.998v5.352
			c0,3.011,2.577,5.451,5.732,5.451h47.096c3.156,0,5.697-2.441,5.697-5.451v-5.352C93.263,88.049,90.005,91.194,85.966,91.194z"/>
		<path id="path155" opacity="0.1" enable-background="new    " d="M85.928,91.194H42.034c-4.04,0-7.297-3.088-7.297-6.941v2.8
			c0,3.011,1.391,6.678,7.027,6.678s38.723,0,44.433,0c5.711,0,7.065-3.668,7.065-6.678v-2.8
			C93.263,88.106,89.968,91.194,85.928,91.194z"/>
		<path id="path157" opacity="0.1" enable-background="new    " d="M85.928,91.194H42.034c-4.04,0-7.297-3.088-7.297-6.941v1.511
			c0,3.012,2.413,6.699,7.027,6.699s39.15,0,44.433,0c5.283,0,7.065-3.687,7.065-6.698v-1.511
			C93.263,88.106,89.968,91.194,85.928,91.194z"/>
		<rect id="rect159" x="41.388" y="91.194" opacity="0.05" enable-background="new    " width="45.224" height="1.269"/>
		<rect id="rect161" x="42.718" y="91.194" opacity="0.05" enable-background="new    " width="41.234" height="1.269"/>
		<rect id="rect163" x="42.718" y="92.463" opacity="0.05" enable-background="new    " width="41.234" height="1.269"/>
		<rect id="rect165" x="45.378" y="92.463" opacity="0.05" enable-background="new    " width="37.243" height="1.269"/>
		<rect id="rect167" x="49.369" y="92.463" opacity="0.05" enable-background="new    " width="29.262" height="1.269"/>
		<rect id="rect169" x="54.689" y="92.463" opacity="0.05" enable-background="new    " width="18.621" height="1.269"/>
		<rect id="rect171" x="45.378" y="91.194" opacity="0.05" enable-background="new    " width="37.243" height="1.269"/>
		<rect id="rect173" x="48.039" y="91.194" opacity="0.05" enable-background="new    " width="31.923" height="1.269"/>
		<rect id="rect175" x="49.369" y="91.194" opacity="0.05" enable-background="new    " width="29.262" height="1.269"/>
		<rect id="rect177" x="52.029" y="91.194" opacity="0.05" enable-background="new    " width="23.942" height="1.269"/>
		<rect id="rect179" x="52.029" y="91.194" opacity="0.05" enable-background="new    " width="23.942" height="1.269"/>
	</g>
	<g>
		<path opacity="0.3" fill="#669CCC" enable-background="new    " d="M87.109,61.99c0,6.01-10.44,10.882-23.319,10.882
			S40.472,68,40.472,61.99s10.44-10.882,23.319-10.882S87.109,55.98,87.109,61.99z"/>
		<path opacity="0.3" fill="#669CCC" enable-background="new    " d="M75.45,41.796c5.204,3.006,4.204,14.483-2.236,25.635
			S57.336,85.191,52.131,82.184c-5.204-3.003-4.204-14.483,2.236-25.635S70.245,38.793,75.45,41.796z"/>
		<path opacity="0.3" fill="#669CCC" enable-background="new    " d="M52.132,41.796c5.204-3.003,14.644,3.601,21.083,14.753
			c6.439,11.152,7.44,22.632,2.236,25.635c-5.204,3.006-14.644-3.601-21.083-14.752S46.927,44.803,52.132,41.796z"/>
	</g>
	<path opacity="0.6" fill="none" stroke="#FFFFFF" stroke-miterlimit="10" enable-background="new    " d="M42.412,89.969
		c-3.639,0-6.599-2.96-6.599-6.599V40.612c0-3.639,2.96-6.599,6.599-6.599h42.757c3.639,0,6.599,2.961,6.599,6.599v42.757
		c0,3.639-2.96,6.6-6.599,6.6H42.412z"/>
</g>
</svg>
