<?xml version="1.0" encoding="utf-8"?>
<!-- Generator: Adobe Illustrator 17.0.0, SVG Export Plug-In . SVG Version: 6.00 Build 0)  -->
<!DOCTYPE svg PUBLIC "-//W3C//DTD SVG 1.1//EN" "http://www.w3.org/Graphics/SVG/1.1/DTD/svg11.dtd">
<svg version="1.1" id="图层_1" xmlns="http://www.w3.org/2000/svg" xmlns:xlink="http://www.w3.org/1999/xlink" x="0px" y="0px"
	 width="64px" height="64px" viewBox="0 0 64 64" enable-background="new 0 0 64 64" xml:space="preserve">
<g id="g151" opacity="0.5">
	<path id="path153" opacity="0.08" enable-background="new    " d="M54.144,59.172H9.894c-4.074,0-7.394-3.194-7.394-7.106v5.435
		c0,3.057,2.597,5.535,5.779,5.535h47.478c3.182,0,5.743-2.478,5.743-5.535v-5.435C61.499,55.979,58.215,59.172,54.144,59.172z"/>
	<path id="path155" opacity="0.1" enable-background="new    " d="M54.106,59.172H9.857c-4.072,0-7.356-3.135-7.356-7.047v2.843
		c0,3.057,1.402,6.781,7.084,6.781s39.037,0,44.793,0s7.123-3.724,7.123-6.781v-2.843C61.499,56.037,58.178,59.172,54.106,59.172z"
		/>
	<path id="path157" opacity="0.1" enable-background="new    " d="M54.106,59.172H9.857c-4.072,0-7.356-3.135-7.356-7.047v1.534
		c0,3.058,2.432,6.802,7.084,6.802s39.468,0,44.793,0c5.326,0,7.123-3.744,7.123-6.8v-1.534
		C61.499,56.037,58.178,59.172,54.106,59.172z"/>
	<rect id="rect159" x="9.205" y="59.172" opacity="0.05" enable-background="new    " width="45.591" height="1.288"/>
	<rect id="rect161" x="10.545" y="59.172" opacity="0.05" enable-background="new    " width="41.568" height="1.288"/>
	<rect id="rect163" x="10.545" y="60.46" opacity="0.05" enable-background="new    " width="41.568" height="1.288"/>
	<rect id="rect165" x="13.226" y="60.46" opacity="0.05" enable-background="new    " width="37.546" height="1.288"/>
	<rect id="rect167" x="17.25" y="60.46" opacity="0.05" enable-background="new    " width="29.5" height="1.288"/>
	<rect id="rect169" x="22.614" y="60.46" opacity="0.05" enable-background="new    " width="18.773" height="1.288"/>
	<rect id="rect171" x="13.226" y="59.172" opacity="0.05" enable-background="new    " width="37.546" height="1.288"/>
	<rect id="rect173" x="15.909" y="59.172" opacity="0.05" enable-background="new    " width="32.182" height="1.288"/>
	<rect id="rect175" x="17.25" y="59.172" opacity="0.05" enable-background="new    " width="29.5" height="1.288"/>
	<rect id="rect177" x="19.932" y="59.172" opacity="0.05" enable-background="new    " width="24.136" height="1.288"/>
	<rect id="rect179" x="19.932" y="59.172" opacity="0.05" enable-background="new    " width="24.136" height="1.288"/>
</g>
<path fill="#C4DCED" stroke="#9DBCD7" stroke-miterlimit="10" d="M60.966,51.271c0,4.212-3.415,7.627-7.627,7.627H10.66
	c-4.212,0-7.627-3.415-7.627-7.627V8.591c0-4.212,3.415-7.627,7.627-7.627h42.68c4.212,0,7.627,3.415,7.627,7.627L60.966,51.271
	L60.966,51.271z"/>
<path opacity="0.5" fill="none" stroke="#FFFFFF" stroke-miterlimit="10" enable-background="new    " d="M59.951,51.271
	c0,3.651-2.96,6.611-6.611,6.611H10.66c-3.651,0-6.611-2.96-6.611-6.611V8.591c0-3.651,2.96-6.611,6.611-6.611h42.68
	c3.651,0,6.611,2.96,6.611,6.611V51.271z"/>
<g>
	<g>
		
			<rect x="11.664" y="5.79" transform="matrix(-0.9291 0.3699 -0.3699 -0.9291 52.179 25.5302)" opacity="0.5" fill="#669CCC" enable-background="new    " width="23.956" height="23.956"/>
		
			<rect x="11.931" y="5.167" transform="matrix(-0.9291 0.3699 -0.3699 -0.9291 52.4651 24.2311)" opacity="0.2" fill="#669CCC" enable-background="new    " width="23.956" height="23.956"/>
		
			<rect x="12.199" y="4.545" transform="matrix(-0.9291 0.3699 -0.3699 -0.9291 52.7519 22.9314)" opacity="0.1" fill="#669CCC" enable-background="new    " width="23.956" height="23.956"/>
	</g>
	
		<rect x="11.558" y="6.335" transform="matrix(-0.9291 0.3699 -0.3699 -0.9291 50.8197 23.2888)" fill="#FFFFFF" width="23.238" height="20.363"/>
</g>
<g>
	<g>
		
			<rect x="27.739" y="6.357" transform="matrix(-1 0.0012 -0.0012 -1 80.6562 37.8226)" opacity="0.5" fill="#669CCC" enable-background="new    " width="25.156" height="25.156"/>
		
			<rect x="28.241" y="5.854" transform="matrix(-1 0.0012 -0.0012 -1 81.66 36.8146)" opacity="0.2" fill="#669CCC" enable-background="new    " width="25.156" height="25.156"/>
		
			<rect x="28.744" y="5.349" transform="matrix(-1 0.0012 -0.0012 -1 82.6649 35.8056)" opacity="0.1" fill="#669CCC" enable-background="new    " width="25.156" height="25.156"/>
	</g>
	
		<rect x="28.24" y="6.848" transform="matrix(-1 0.0012 -0.0012 -1 80.9022 35.0303)" fill="#FFFFFF" width="24.401" height="21.383"/>
</g>
<g>
	<path opacity="0.08" fill="none" stroke="#000000" stroke-miterlimit="10" enable-background="new    " d="M61.184,22.461
		c0,0,0-2.563-2.531-2.563c-7.347,0-30.807,0.004-32.907,0.004c-2.552,0-2.531-2.526-2.531-2.526s0-2.543-2.531-2.543
		c-4.431,0-13.306,0-15.188,0c-2.492,0-2.531,2.451-2.531,2.528"/>
	<path opacity="0.05" fill="none" stroke="#000000" stroke-miterlimit="10" enable-background="new    " d="M61.173,21.952
		c0,0,0-2.563-2.531-2.563c-7.347,0-30.807,0.004-32.907,0.004c-2.552,0-2.531-2.526-2.531-2.526s0-2.543-2.531-2.543
		c-4.431,0-13.306,0-15.188,0c-2.492,0-2.531,2.451-2.531,2.528"/>
	<path opacity="0.03" fill="none" stroke="#000000" stroke-miterlimit="10" enable-background="new    " d="M61.173,21.466
		c0,0,0-2.563-2.531-2.563c-7.347,0-30.807,0.004-32.907,0.004c-2.552,0-2.531-2.526-2.531-2.526s0-2.543-2.531-2.543
		c-4.431,0-13.306,0-15.188,0c-2.492,0-2.531,2.451-2.531,2.528"/>
	
		<linearGradient id="SVGID_1_" gradientUnits="userSpaceOnUse" x1="1401.9985" y1="-1683.8979" x2="1401.9985" y2="-1640.6281" gradientTransform="matrix(1 0 0 -1 -1370 -1625)">
		<stop  offset="0" style="stop-color:#D1E0ED"/>
		<stop  offset="1" style="stop-color:#E4EEFB"/>
	</linearGradient>
	<path fill="url(#SVGID_1_)" stroke="#9DBCD7" stroke-miterlimit="10" d="M10.642,58.898h42.84c4.212,0,7.484-3.502,7.484-7.714
		V21.483c0-0.6-0.897-1.166-2.092-1.166c-7.379,0-30.905,0.004-33.014,0.004c-2.563,0-2.524-2.338-2.524-2.338
		s0.018-2.355-2.525-2.355c-4.45,0-13.364,0-15.254,0c-2.503,0-2.526,2.075-2.526,2.153v33.403
		C3.032,55.396,6.431,58.898,10.642,58.898z"/>
	<path fill="none" stroke="#FFFFFF" stroke-miterlimit="10" d="M10.642,57.882c-3.636,0-6.594-3.004-6.594-6.698V17.781
		c0-0.048,0.008-0.454,0.309-0.756c0.252-0.253,0.656-0.381,1.2-0.381h15.254c0.602,0,0.908,0.072,1.091,0.256
		c0.405,0.407,0.423,1.028,0.423,1.035c-0.002,0.133,0.006,1.459,0.988,2.456c0.626,0.635,1.484,0.957,2.551,0.957
		c0,0,28.2-0.011,33.008-0.011c0.635,0,0.987,0.218,1.077,0.323v29.524c0,3.694-2.901,6.698-6.468,6.698L10.642,57.882
		L10.642,57.882L10.642,57.882z"/>
	
		<radialGradient id="SVGID_2_" cx="1876.6702" cy="1369.3679" r="44.0136" gradientTransform="matrix(0.0197 0.9998 0.9109 -0.018 -1254.369 -1826.2988)" gradientUnits="userSpaceOnUse">
		<stop  offset="0" style="stop-color:#FFFFFF;stop-opacity:0.6"/>
		<stop  offset="0.3783" style="stop-color:#FAFCFE;stop-opacity:0.4487"/>
		<stop  offset="0.829" style="stop-color:#EBF3FC;stop-opacity:0.2684"/>
		<stop  offset="1" style="stop-color:#E4EEFB;stop-opacity:0.2"/>
	</radialGradient>
	<path fill="url(#SVGID_2_)" d="M10.642,57.882c-3.636,0-6.594-3.004-6.594-6.698V17.781c0-0.048,0.008-0.454,0.309-0.756
		c0.252-0.253,0.656-0.381,1.2-0.381h15.254c0.602,0,0.908,0.072,1.091,0.256c0.405,0.407,0.423,1.028,0.423,1.035
		c-0.002,0.133,0.006,1.459,0.988,2.456c0.626,0.635,1.484,0.957,2.551,0.957c0,0,28.2-0.011,33.008-0.011
		c0.635,0,0.987,0.218,1.077,0.323v29.524c0,3.694-2.901,6.698-6.468,6.698L10.642,57.882L10.642,57.882L10.642,57.882z"/>
</g>
<g>
	<path opacity="0.1" fill="#FFFFFF" enable-background="new    " d="M23.032,52.634c-2.904,0-5.267-2.363-5.267-5.267V27.884
		c0-2.904,2.363-5.267,5.267-5.267h19.483c2.904,0,5.267,2.363,5.267,5.267V47.37c0,2.904-2.363,5.267-5.267,5.267H23.032V52.634z
		 M42.515,49.552c1.203,0,2.183-0.979,2.183-2.182V28.545l-0.914,0.164c-0.065,0.012-1.591,0.282-3.431,0.282
		c-0.191,0-0.385-0.003-0.581-0.008c0.02,0-2.029,0.108-3.682,0.611c0.214,0.073,0.344,0.166,0.442,0.302
		c0.027,0.035,0.058,0.105,0.098,0.207l0.194-0.168c6.919,6.023,2.592,12.377,2.55,12.44c-2.21,3.1-5.617,5.559-8.32,7.176H42.515z
		 M20.846,41.585c1.003,0.387,2.92,0.994,5.244,1.035l0.775,0.016c0.564,0.012,1.105,0.025,1.633,0.025
		c2.537,0,4.424-0.292,6.549-1.784c2.706-1.897,2.404-4.92,2.388-5.046c-0.01-0.529-0.091-1.058-0.207-1.562
		c-0.003,0.749-0.071,1.523-0.245,2.258c-0.02,0.116-0.704,3.632-4.032,4.475c-0.509,0.126-1.024,0.191-1.533,0.191
		c-2.044,0-3.989-1.016-5.937-3.109c-1.53-1.645-3.73-6.144-4.257-11.409c-0.241,0.352-0.376,0.772-0.376,1.208L20.846,41.585
		L20.846,41.585L20.846,41.585z M31.066,38.127c0.01,0,0.245,0.08,0.574,0.08c1.017,0,1.905-0.73,2.577-2.112
		c0.027-0.045,0.554-1.009,0.681-3.053c-0.262,1.364-0.791,2.93-1.85,4.032c-0.068,0.078-0.863,0.934-1.812,0.934
		c-0.162,0-0.337-0.025-0.513-0.084C30.828,37.998,30.944,38.066,31.066,38.127L31.066,38.127z M30.896,25.701
		c-0.622,1.155-2.145,4.352-2.036,7.757c0,0.048-0.03,1.54,0.589,2.887c-0.065-0.201-0.12-0.427-0.173-0.677
		c-0.03-0.106-0.82-3.506,3.39-7.432c0.071-0.07,1.417-1.404,2.71-2.535L30.896,25.701L30.896,25.701z"/>
	<path opacity="0.3" fill="#669CCC" enable-background="new    " d="M42.515,23.298H23.032c-2.53,0-4.586,2.052-4.586,4.585v19.485
		c0,2.53,2.054,4.585,4.586,4.585h19.483c2.534,0,4.586-2.052,4.586-4.585V27.885C47.101,25.353,45.049,23.298,42.515,23.298z
		 M45.38,47.368c0,1.579-1.283,2.867-2.865,2.867H28.431c2.45-1.27,7.508-4.216,10.384-8.253c0,0,4.096-5.842-2.437-11.532
		c0,0,1.683,2.64,1.74,5.301c0,0,0.418,3.52-2.677,5.685c-3.091,2.168-5.797,1.931-9.36,1.867c-2.849-0.05-5.117-0.914-5.914-1.261
		V27.883c0-1.14,0.674-2.119,1.639-2.58c0.245,5.738,2.648,10.673,4.175,12.315c1.562,1.679,3.863,3.463,6.806,2.721
		c2.942-0.743,3.533-3.969,3.533-3.969c0.645-2.749-0.289-6.01-0.337-6.08c-0.048-0.068-0.493-0.145-0.493-0.145
		c0.469,4.326-0.657,6.242-0.657,6.242c-1.643,3.393-4.07,2.348-4.07,2.348c-2.7-1.374-2.58-5.258-2.58-5.258
		c-0.133-4.047,1.931-7.797,2.316-8.462h6.818c-1.401,0.952-4.181,3.719-4.181,3.719c-3.964,3.695-3.186,6.803-3.186,6.803
		c0.642,3.26,2.602,1.06,2.602,1.06c2.067-2.149,1.905-6.423,1.905-6.423c-0.84,0.138-1.367,0.604-1.367,0.604
		c-0.098,2.851-1.769,4.619-1.769,4.619c-0.652,0.722-1.115,0.035-1.115,0.035c-0.344-0.516,0.34-0.874,0.34-0.874
		c0.956-0.843,1.241-2.278,1.225-2.817c-0.013-0.539,0.272-0.687,0.272-0.687c1.351-1.049,2.703-1.668,2.703-1.668
		c1.812-0.931,5.049-1.088,5.049-1.088c2.039,0.068,3.869-0.262,3.869-0.262l1.699-0.308c0,0.052,0.013,0.101,0.013,0.153v19.487
		L45.38,47.368L45.38,47.368L45.38,47.368z"/>
	<g opacity="0.5">
		<path opacity="0.5" fill="#669CCC" enable-background="new    " d="M43.542,27.367c-0.013,0.001-1.475,0.26-3.189,0.26
			c-0.174,0-0.357-0.001-0.534-0.008c-0.194,0.007-3.461,0.176-5.382,1.162c-0.013,0.007-0.323,0.149-0.791,0.41
			c0.367-0.359,2.816-2.766,4.054-3.609l1.829-1.246h-9.422l-0.198,0.34c-0.428,0.733-2.547,4.613-2.408,8.826
			c-0.007,0.134-0.098,4.291,2.952,5.842c0.088,0.04,0.537,0.226,1.186,0.226c0.901,0,2.59-0.375,3.805-2.884
			c0.007-0.008,0.094-0.16,0.211-0.453c-0.058,0.269-0.632,2.839-3.037,3.446c-0.402,0.101-0.803,0.153-1.2,0.153
			c-1.646,0-3.264-0.876-4.939-2.675c-1.472-1.585-3.76-6.456-3.989-11.882l-0.045-1.031l-0.931,0.443
			c-1.234,0.588-2.033,1.842-2.033,3.196v14.607l0.412,0.176c0.874,0.38,3.227,1.264,6.174,1.318l0.768,0.016
			c0.574,0.012,1.125,0.025,1.662,0.025c2.738-0.001,4.923-0.34,7.334-2.033c3.386-2.373,2.982-6.163,2.962-6.322
			c-0.01-0.437-0.058-0.871-0.139-1.293c1.88,3.865-0.279,7.042-0.398,7.211c-2.741,3.846-7.528,6.687-10.14,8.038l-2.489,1.287
			h16.888c1.958,0,3.549-1.591,3.549-3.547V27.884c0-0.063-0.007-0.124-0.016-0.184l-0.103-0.698l-0.7,0.06L43.542,27.367z
			 M45.38,27.884V47.37c0,1.579-1.283,2.867-2.865,2.867H28.431c2.45-1.27,7.508-4.216,10.384-8.253c0,0,4.096-5.842-2.437-11.532
			c0,0,1.683,2.64,1.74,5.301c0,0,0.418,3.52-2.677,5.685c-3.091,2.168-5.797,1.931-9.36,1.867c-2.849-0.05-5.117-0.914-5.914-1.261
			V27.884c0-1.14,0.674-2.119,1.639-2.58c0.245,5.738,2.648,10.673,4.175,12.315c1.562,1.679,3.863,3.463,6.806,2.721
			c2.942-0.743,3.533-3.969,3.533-3.969c0.645-2.749-0.289-6.01-0.337-6.08c-0.048-0.068-0.493-0.145-0.493-0.145
			c0.469,4.326-0.657,6.242-0.657,6.242c-1.643,3.393-4.07,2.348-4.07,2.348c-2.7-1.374-2.58-5.258-2.58-5.258
			c-0.133-4.047,1.931-7.797,2.316-8.462h6.818c-1.401,0.952-4.181,3.719-4.181,3.719c-3.964,3.695-3.186,6.803-3.186,6.803
			c0.642,3.26,2.602,1.06,2.602,1.06c2.067-2.149,1.905-6.423,1.905-6.423c-0.84,0.138-1.367,0.604-1.367,0.604
			c-0.098,2.851-1.769,4.619-1.769,4.619c-0.652,0.722-1.115,0.035-1.115,0.035c-0.344-0.516,0.34-0.874,0.34-0.874
			c0.956-0.843,1.241-2.278,1.225-2.817c-0.013-0.539,0.272-0.687,0.272-0.687c1.351-1.049,2.703-1.668,2.703-1.668
			c1.812-0.931,5.049-1.088,5.049-1.088c2.039,0.068,3.869-0.262,3.869-0.262l1.699-0.308C45.367,27.783,45.38,27.831,45.38,27.884z
			 M30.944,36.392c0.252-0.046,0.567-0.187,0.878-0.534c0.065-0.065,1.711-1.837,1.928-4.707l0,0
			c-0.078,1.304-0.405,3.645-1.689,4.978c-0.207,0.228-0.592,0.518-0.83,0.518C31.148,36.642,31.049,36.563,30.944,36.392z"/>
		<path opacity="0.5" fill="#669CCC" enable-background="new    " d="M42.515,23.298H23.032c-2.53,0-4.586,2.052-4.586,4.585v19.485
			c0,2.53,2.054,4.585,4.586,4.585h19.483c2.534,0,4.586-2.052,4.586-4.585V27.885C47.101,25.353,45.049,23.298,42.515,23.298z
			 M46.417,47.368c0,2.152-1.751,3.903-3.903,3.903H23.032c-2.152,0-3.903-1.751-3.903-3.903V27.885
			c0-2.152,1.751-3.903,3.903-3.903h19.483c2.152,0,3.903,1.751,3.903,3.903C46.417,27.885,46.417,47.368,46.417,47.368z"/>
	</g>
	<g>
		<path opacity="0.05" fill="#FFFFFF" enable-background="new    " d="M43.665,28.037c0,0-1.832,0.33-3.869,0.262
			c0,0-3.238,0.158-5.049,1.088c0,0-1.351,0.62-2.703,1.668c0,0-0.285,0.147-0.272,0.687c0.016,0.539-0.269,1.974-1.225,2.817
			c0,0-0.683,0.36-0.34,0.874c0,0,0.463,0.685,1.115-0.035c0,0,1.673-1.769,1.769-4.619c0,0,0.528-0.466,1.367-0.604
			c0,0,0.162,4.274-1.905,6.423c0,0-1.961,2.2-2.602-1.06c0,0-0.778-3.108,3.186-6.803c0,0,2.781-2.766,4.181-3.719H30.5
			c-0.385,0.665-2.45,4.414-2.316,8.462c0,0-0.12,3.884,2.58,5.258c0,0,2.427,1.045,4.07-2.348c0,0,1.128-1.915,0.657-6.242
			c0,0,0.444,0.077,0.493,0.145c0.048,0.07,0.982,3.329,0.337,6.08c0,0-0.589,3.224-3.533,3.969
			c-2.942,0.742-5.244-1.042-6.806-2.721c-1.526-1.643-3.928-6.577-4.175-12.315c-0.965,0.46-1.639,1.44-1.639,2.58v14.159
			c0.797,0.347,3.066,1.209,5.914,1.261c3.561,0.065,6.267,0.302,9.36-1.867c3.094-2.166,2.677-5.685,2.677-5.685
			c-0.058-2.662-1.74-5.301-1.74-5.301c6.534,5.69,2.437,11.532,2.437,11.532c-2.874,4.037-7.933,6.984-10.384,8.253h14.084
			c1.581,0,2.865-1.286,2.865-2.867V27.884c0-0.053-0.013-0.101-0.013-0.153L43.665,28.037z M29.798,30.644
			c0.373-1.807,1.057-3.355,1.513-4.261h2.302c-0.785,0.735-1.38,1.329-1.41,1.356C31.12,28.751,30.349,29.733,29.798,30.644z
			 M28.499,41.978c-0.521,0-1.06-0.012-1.618-0.025l-0.778-0.016c-1.931-0.035-3.574-0.482-4.573-0.83v-9.45
			c0.921,3.075,2.272,5.622,3.451,6.893c1.893,2.033,3.801,3.118,5.821,3.299C30.097,41.949,29.342,41.978,28.499,41.978z
			 M44.015,47.368c0,0.828-0.674,1.501-1.5,1.501h-9.129c2.251-1.538,4.771-3.614,6.546-6.104c0.045-0.068,4.488-6.585-2.129-12.864
			c0.881-0.151,1.676-0.214,1.983-0.236c0.191,0.005,0.38,0.008,0.567,0.008c1.912,0,3.488-0.282,3.556-0.294l0.106-0.02
			L44.015,47.368z"/>
		<path opacity="0.05" fill="#FFFFFF" enable-background="new    " d="M42.515,21.936H23.032c-3.28,0-5.95,2.668-5.95,5.948V47.37
			c0,3.28,2.67,5.948,5.95,5.948h19.483c3.28,0,5.95-2.668,5.95-5.948V27.884C48.465,24.604,45.795,21.936,42.515,21.936z
			 M47.101,47.368c0,2.53-2.051,4.585-4.586,4.585H23.032c-2.53,0-4.586-2.052-4.586-4.585V27.885c0-2.532,2.054-4.585,4.586-4.585
			h19.483c2.534,0,4.586,2.052,4.586,4.585C47.101,27.885,47.101,47.368,47.101,47.368z"/>
	</g>
	<g opacity="0.2">
		<path opacity="0.9" fill="#FFFFFF" enable-background="new    " d="M38.814,42.665c0,0,1.367-1.958,1.258-4.707
			c-0.109,2.386-1.258,4.024-1.258,4.024c-2.874,4.037-7.933,6.984-10.384,8.253h1.261C32.348,48.74,36.367,46.099,38.814,42.665z"
			/>
		<path opacity="0.9" fill="#FFFFFF" enable-background="new    " d="M29.951,36.221c0.642,3.26,2.602,1.064,2.602,1.064
			c2.067-2.149,1.905-6.425,1.905-6.425c-0.003,0-0.007,0.001-0.007,0.001c-0.048,1.294-0.34,4.12-1.9,5.738
			c0,0-1.961,2.2-2.602-1.06c0,0-0.03-0.121-0.048-0.338C29.859,35.841,29.951,36.221,29.951,36.221z"/>
		<path opacity="0.9" fill="#FFFFFF" enable-background="new    " d="M28.18,33.606c0-0.038,0-0.077,0-0.115
			C28.18,33.501,28.18,33.54,28.18,33.606z"/>
		<path opacity="0.9" fill="#FFFFFF" enable-background="new    " d="M35.551,30.842c-0.035-0.007-0.061-0.012-0.061-0.012
			c0.068,0.609,0.101,1.164,0.106,1.681C35.609,32.008,35.596,31.454,35.551,30.842z"/>
		<path opacity="0.9" fill="#FFFFFF" enable-background="new    " d="M30.498,25.019c-0.382,0.66-2.424,4.367-2.316,8.388
			c0.12-3.75,1.954-7.082,2.316-7.704h5.93c0.323-0.27,0.629-0.508,0.888-0.683H30.498L30.498,25.019z"/>
		<path opacity="0.9" fill="#FFFFFF" enable-background="new    " d="M42.515,51.953H23.032c-2.53,0-4.586-2.052-4.586-4.585v0.681
			c0,2.534,2.054,4.586,4.586,4.586h19.483c2.534,0,4.586-2.051,4.586-4.586v-0.681C47.101,49.9,45.049,51.953,42.515,51.953z"/>
		<path opacity="0.9" fill="#FFFFFF" enable-background="new    " d="M45.367,27.73l-1.701,0.307c0,0-1.832,0.33-3.869,0.262
			c0,0-3.238,0.158-5.049,1.088c0,0-1.351,0.62-2.703,1.668c0,0-0.285,0.147-0.272,0.687c0.016,0.539-0.269,1.974-1.225,2.817
			c0,0-0.683,0.36-0.34,0.874c0,0,0.016,0.023,0.038,0.052c0.129-0.156,0.302-0.244,0.302-0.244
			c0.956-0.844,1.241-2.278,1.225-2.817c-0.013-0.539,0.272-0.687,0.272-0.687c0.353-0.272,0.704-0.514,1.031-0.727
			c0.003-0.078,0.013-0.153,0.016-0.232c0,0,0.528-0.466,1.367-0.604c0,0,0,0.018,0,0.037c0.177-0.091,0.289-0.143,0.289-0.143
			c1.812-0.931,5.049-1.087,5.049-1.087c2.039,0.067,3.869-0.264,3.869-0.264l1.701-0.307c0,0.052,0.013,0.101,0.013,0.153v-0.682
			C45.38,27.831,45.367,27.783,45.367,27.73z"/>
		<path opacity="0.9" fill="#FFFFFF" enable-background="new    " d="M25.98,37.62c-1.526-1.643-3.928-6.577-4.175-12.315
			c-0.965,0.46-1.639,1.44-1.639,2.58v0.682c0-1.14,0.674-2.119,1.639-2.58c0.245,5.738,2.648,10.676,4.175,12.319
			c1.562,1.678,3.863,3.461,6.806,2.718c2.942-0.742,3.533-3.969,3.533-3.969c0.194-0.823,0.242-1.694,0.221-2.509
			c-0.016,0.607-0.078,1.228-0.221,1.829c0,0-0.589,3.224-3.533,3.969C29.843,41.082,27.543,39.299,25.98,37.62z"/>
	</g>
	<g>
		<path opacity="0.5" fill="#669CCC" enable-background="new    " d="M29.902,35.179c0.075-1.205,0.629-3.373,3.234-5.803
			c0,0,2.781-2.766,4.181-3.719h-0.836c-1.448,1.193-3.345,3.078-3.345,3.078C29.967,31.691,29.831,34.263,29.902,35.179z"/>
		<path opacity="0.5" fill="#669CCC" enable-background="new    " d="M36.377,30.45c0,0,0.314,0.495,0.674,1.27
			c2.234,2.202,2.955,4.39,3.023,6.224C40.168,35.826,39.445,33.119,36.377,30.45z"/>
		<path opacity="0.5" fill="#669CCC" enable-background="new    " d="M35.982,30.294c-0.048-0.068-0.493-0.145-0.493-0.145
			c0.027,0.224,0.041,0.44,0.058,0.65c0.12,0.023,0.395,0.081,0.435,0.134c0.035,0.05,0.503,1.678,0.558,3.594
			C36.594,32.346,36.02,30.348,35.982,30.294z"/>
		<path opacity="0.5" fill="#669CCC" enable-background="new    " d="M28.18,33.363c-0.003,0.041,0,0.084,0,0.126v-0.01
			C28.177,33.441,28.18,33.403,28.18,33.363z"/>
		<path opacity="0.5" fill="#669CCC" enable-background="new    " d="M31.321,35.399c-0.564,0.626-0.986,0.196-1.088,0.068
			c-0.116,0.156-0.191,0.363-0.027,0.607c0,0,0.463,0.685,1.115-0.035c0,0,1.673-1.772,1.769-4.621c0,0,0.528-0.463,1.361-0.602
			c0.013-0.395,0.007-0.642,0.007-0.642c-0.007,0.001-0.013,0.003-0.02,0.003c-0.302,0.154-0.791,0.42-1.364,0.788
			C32.916,33.707,31.321,35.399,31.321,35.399z"/>
		<path opacity="0.5" fill="#669CCC" enable-background="new    " d="M42.515,23.298H23.032c-2.53,0-4.586,2.052-4.586,4.585v0.641
			c0-2.532,2.054-4.585,4.586-4.585h19.483c2.534,0,4.586,2.052,4.586,4.585v-0.641C47.101,25.353,45.049,23.298,42.515,23.298z"/>
		<path opacity="0.5" fill="#669CCC" enable-background="new    " d="M26.081,43.943c3.561,0.065,6.267,0.302,9.36-1.867
			c2.781-1.946,2.726-4.978,2.687-5.572c-0.058,1.15-0.476,3.383-2.687,4.933c-3.091,2.168-5.797,1.931-9.36,1.867
			c-2.849-0.05-5.117-0.914-5.914-1.261v0.641C20.964,43.029,23.232,43.892,26.081,43.943z"/>
		<path opacity="0.5" fill="#669CCC" enable-background="new    " d="M30.76,39.379c0,0,2.427,1.045,4.07-2.348
			c0,0,0.823-1.41,0.765-4.53c-0.055,2.673-0.765,3.891-0.765,3.891c-1.643,3.393-4.07,2.348-4.07,2.348
			c-2.418-1.231-2.573-4.469-2.58-5.131c-0.003,0.173-0.007,0.34,0,0.513C28.18,34.12,28.061,38.004,30.76,39.379z"/>
		<path opacity="0.5" fill="#669CCC" enable-background="new    " d="M42.515,50.874c1.581,0,2.865-1.284,2.865-2.865v-0.641
			c0,1.579-1.283,2.867-2.865,2.867H29.617c-0.438,0.242-0.84,0.46-1.186,0.639C28.43,50.874,42.515,50.874,42.515,50.874z"/>
	</g>
</g>
<g id="g27_1_">
	
		<linearGradient id="path36_2_" gradientUnits="userSpaceOnUse" x1="1786.9456" y1="-2443.3335" x2="1794.9943" y2="-2457.2742" gradientTransform="matrix(1 0 0 -1 -1782 -2443)">
		<stop  offset="0" style="stop-color:#FFFFFF"/>
		<stop  offset="0.5" style="stop-color:#FFFFFF;stop-opacity:0.6"/>
		<stop  offset="1" style="stop-color:#FFFFFF;stop-opacity:0.15"/>
	</linearGradient>
	<path id="path36_1_" fill="url(#path36_2_)" d="M11.582,16.643c0.9-1.863,1.998-3.608,3.258-5.221l-2.292-5.027
		c-1.958,1.851-3.547,3.89-4.816,5.871L11.582,16.643z"/>
	
		<linearGradient id="path45_2_" gradientUnits="userSpaceOnUse" x1="1794.2434" y1="-2441.2458" x2="1799.5109" y2="-2450.3696" gradientTransform="matrix(1 0 0 -1 -1782 -2443)">
		<stop  offset="0" style="stop-color:#FFFFFF"/>
		<stop  offset="0.5" style="stop-color:#FFFFFF;stop-opacity:0.6"/>
		<stop  offset="1" style="stop-color:#FFFFFF;stop-opacity:0.15"/>
	</linearGradient>
	<path id="path45_1_" fill="url(#path45_2_)" d="M11.821,1.563l1.198,2.626c1.153-0.957,2.417-1.287,3.795-2.626
		C16.814,1.563,11.821,1.563,11.821,1.563z"/>
	
		<linearGradient id="path54_2_" gradientUnits="userSpaceOnUse" x1="1795.8999" y1="-2439.5137" x2="1802.3358" y2="-2450.6609" gradientTransform="matrix(1 0 0 -1 -1782 -2443)">
		<stop  offset="0" style="stop-color:#FFFFFF"/>
		<stop  offset="0.5" style="stop-color:#FFFFFF;stop-opacity:0.6"/>
		<stop  offset="1" style="stop-color:#FFFFFF;stop-opacity:0.15"/>
	</linearGradient>
	<path id="path54_1_" fill="url(#path54_2_)" d="M20.813,1.563h-0.948c-2.391,1.339-4.481,2.361-6.274,3.888l2.197,4.821
		c1.877-2.168,4.055-4.068,6.494-5.603c0.019-0.017,0.032-0.032,0.052-0.049C25.066,2.259,22.353,1.563,20.813,1.563z"/>
	
		<linearGradient id="path63_2_" gradientUnits="userSpaceOnUse" x1="1782.4291" y1="-2449.6882" x2="1789.4133" y2="-2461.7852" gradientTransform="matrix(1 0 0 -1 -1782 -2443)">
		<stop  offset="0" style="stop-color:#FFFFFF"/>
		<stop  offset="0.5" style="stop-color:#FFFFFF;stop-opacity:0.6"/>
		<stop  offset="1" style="stop-color:#FFFFFF;stop-opacity:0.15"/>
	</linearGradient>
	<path id="path63_1_" fill="url(#path63_2_)" d="M7.001,13.461C5.531,15.964,4.57,18.277,4,19.858
		c0.675,0.963,1.79,1.595,3.056,1.595c1.567,0,2.905-0.968,3.459-2.336c0.142-0.382,0.315-0.749,0.473-1.125L7.001,13.461z"/>
	
		<linearGradient id="path72_2_" gradientUnits="userSpaceOnUse" x1="1782.114" y1="-2450.1846" x2="1789.8542" y2="-2463.5913" gradientTransform="matrix(1 0 0 -1 -1782 -2443)">
		<stop  offset="0" style="stop-color:#FFFFFF"/>
		<stop  offset="0.5" style="stop-color:#FFFFFF;stop-opacity:0.6"/>
		<stop  offset="1" style="stop-color:#FFFFFF;stop-opacity:0.15"/>
	</linearGradient>
	<path id="path72_1_" fill="url(#path72_2_)" d="M3.351,9.309l-0.029,8.405c0,0,0,0.003,0,0.006c0,0.052,0.013,0.102,0.016,0.154
		c0.639-1.555,1.531-3.455,2.741-5.463L3.351,9.309z"/>
	
		<linearGradient id="path149_2_" gradientUnits="userSpaceOnUse" x1="1787.968" y1="-2445.9856" x2="1795.2361" y2="-2458.5742" gradientTransform="matrix(1 0 0 -1 -1782 -2443)">
		<stop  offset="0" style="stop-color:#FFFFFF"/>
		<stop  offset="0.5" style="stop-color:#FFFFFF;stop-opacity:0.6"/>
		<stop  offset="1" style="stop-color:#FFFFFF;stop-opacity:0.15"/>
	</linearGradient>
	<path id="path149_1_" fill="url(#path149_2_)" d="M10.224,1.579C7.493,1.352,3.897,4.428,3.436,7.378l3.388,3.853
		c1.352-2.064,3.034-4.178,5.109-6.088L10.224,1.579z"/>
</g>
</svg>
