<?xml version="1.0" encoding="utf-8"?>
<!-- Generator: Adobe Illustrator 17.0.0, SVG Export Plug-In . SVG Version: 6.00 Build 0)  -->
<!DOCTYPE svg PUBLIC "-//W3C//DTD SVG 1.1//EN" "http://www.w3.org/Graphics/SVG/1.1/DTD/svg11.dtd">
<svg version="1.1" id="图层_1" xmlns="http://www.w3.org/2000/svg" xmlns:xlink="http://www.w3.org/1999/xlink" x="0px" y="0px"
	 width="64px" height="64px" viewBox="0 0 64 64" enable-background="new 0 0 64 64" xml:space="preserve">
<g id="g151" opacity="0.5">
	<path id="path153" opacity="0.08" enable-background="new    " d="M54.144,59.172H9.894c-4.074,0-7.394-3.194-7.394-7.106v5.435
		c0,3.057,2.597,5.535,5.779,5.535h47.478c3.182,0,5.743-2.478,5.743-5.535v-5.435C61.499,55.979,58.215,59.172,54.144,59.172z"/>
	<path id="path155" opacity="0.1" enable-background="new    " d="M54.106,59.172H9.857c-4.072,0-7.356-3.135-7.356-7.047v2.843
		c0,3.057,1.402,6.781,7.084,6.781s39.037,0,44.793,0s7.123-3.724,7.123-6.781v-2.843C61.499,56.037,58.178,59.172,54.106,59.172z"
		/>
	<path id="path157" opacity="0.1" enable-background="new    " d="M54.106,59.172H9.857c-4.072,0-7.356-3.135-7.356-7.047v1.534
		c0,3.058,2.432,6.802,7.084,6.802s39.468,0,44.793,0c5.326,0,7.123-3.744,7.123-6.8v-1.534
		C61.499,56.037,58.178,59.172,54.106,59.172z"/>
	<rect id="rect159" x="9.205" y="59.172" opacity="0.05" enable-background="new    " width="45.591" height="1.288"/>
	<rect id="rect161" x="10.545" y="59.172" opacity="0.05" enable-background="new    " width="41.568" height="1.288"/>
	<rect id="rect163" x="10.545" y="60.46" opacity="0.05" enable-background="new    " width="41.568" height="1.288"/>
	<rect id="rect165" x="13.226" y="60.46" opacity="0.05" enable-background="new    " width="37.546" height="1.288"/>
	<rect id="rect167" x="17.25" y="60.46" opacity="0.05" enable-background="new    " width="29.5" height="1.288"/>
	<rect id="rect169" x="22.614" y="60.46" opacity="0.05" enable-background="new    " width="18.773" height="1.288"/>
	<rect id="rect171" x="13.226" y="59.172" opacity="0.05" enable-background="new    " width="37.546" height="1.288"/>
	<rect id="rect173" x="15.909" y="59.172" opacity="0.05" enable-background="new    " width="32.182" height="1.288"/>
	<rect id="rect175" x="17.25" y="59.172" opacity="0.05" enable-background="new    " width="29.5" height="1.288"/>
	<rect id="rect177" x="19.932" y="59.172" opacity="0.05" enable-background="new    " width="24.136" height="1.288"/>
	<rect id="rect179" x="19.932" y="59.172" opacity="0.05" enable-background="new    " width="24.136" height="1.288"/>
</g>
<path fill="#C4DCED" stroke="#9DBCD7" stroke-miterlimit="10" d="M60.966,51.271c0,4.212-3.415,7.627-7.627,7.627H10.66
	c-4.212,0-7.627-3.415-7.627-7.627V8.591c0-4.212,3.415-7.627,7.627-7.627h42.68c4.212,0,7.627,3.415,7.627,7.627L60.966,51.271
	L60.966,51.271z"/>
<path opacity="0.5" fill="none" stroke="#FFFFFF" stroke-miterlimit="10" enable-background="new    " d="M59.951,51.271
	c0,3.651-2.96,6.611-6.611,6.611H10.66c-3.651,0-6.611-2.96-6.611-6.611V8.591c0-3.651,2.96-6.611,6.611-6.611h42.68
	c3.651,0,6.611,2.96,6.611,6.611V51.271z"/>
<path opacity="0.08" fill="none" stroke="#000000" stroke-miterlimit="10" enable-background="new    " d="M61.184,17.961
	c0,0,0-2.563-2.531-2.563c-7.347,0-30.807,0.004-32.907,0.004c-2.552,0-2.531-2.526-2.531-2.526s0-2.543-2.531-2.543
	c-4.431,0-13.306,0-15.188,0c-2.492,0-2.531,2.451-2.531,2.528"/>
<path opacity="0.05" fill="none" stroke="#000000" stroke-miterlimit="10" enable-background="new    " d="M61.173,17.452
	c0,0,0-2.563-2.531-2.563c-7.347,0-30.807,0.004-32.907,0.004c-2.552,0-2.531-2.526-2.531-2.526s0-2.543-2.531-2.543
	c-4.431,0-13.306,0-15.188,0c-2.492,0-2.531,2.451-2.531,2.528"/>
<path opacity="0.03" fill="none" stroke="#000000" stroke-miterlimit="10" enable-background="new    " d="M61.173,16.966
	c0,0,0-2.563-2.531-2.563c-7.347,0-30.807,0.004-32.907,0.004c-2.552,0-2.531-2.526-2.531-2.526s0-2.543-2.531-2.543
	c-4.431,0-13.306,0-15.188,0c-2.492,0-2.531,2.451-2.531,2.528"/>
<linearGradient id="SVGID_1_" gradientUnits="userSpaceOnUse" x1="1401.9985" y1="-1683.8979" x2="1401.9985" y2="-1636.1281" gradientTransform="matrix(1 0 0 -1 -1370 -1625)">
	<stop  offset="0" style="stop-color:#D1E0ED"/>
	<stop  offset="1" style="stop-color:#E4EEFB"/>
</linearGradient>
<path fill="url(#SVGID_1_)" stroke="#9DBCD7" stroke-miterlimit="10" d="M10.642,58.898h42.84c4.212,0,7.484-3.502,7.484-7.714
	V16.983c0-0.6-0.897-1.166-2.092-1.166c-7.379,0-30.905,0.004-33.014,0.004c-2.563,0-2.524-2.338-2.524-2.338
	s0.018-2.355-2.525-2.355c-4.45,0-13.364,0-15.254,0c-2.503,0-2.526,2.075-2.526,2.153v37.903
	C3.032,55.396,6.431,58.898,10.642,58.898z"/>
<path fill="none" stroke="#FFFFFF" stroke-miterlimit="10" d="M10.642,57.882c-3.636,0-6.594-3.004-6.594-6.698V13.281
	c0-0.048,0.008-0.454,0.309-0.756c0.252-0.253,0.656-0.381,1.2-0.381h15.254c0.602,0,0.908,0.072,1.091,0.256
	c0.405,0.407,0.423,1.028,0.423,1.035c-0.002,0.133,0.006,1.459,0.988,2.456c0.626,0.635,1.484,0.957,2.551,0.957
	c0,0,28.2-0.011,33.008-0.011c0.635,0,0.987,0.218,1.077,0.323v34.024c0,3.694-2.901,6.698-6.468,6.698L10.642,57.882L10.642,57.882
	L10.642,57.882z"/>
<radialGradient id="SVGID_2_" cx="1873.1508" cy="1369.4135" r="46.4534" gradientTransform="matrix(0.0197 0.9998 0.9109 -0.018 -1254.369 -1826.2988)" gradientUnits="userSpaceOnUse">
	<stop  offset="0" style="stop-color:#FFFFFF;stop-opacity:0.6"/>
	<stop  offset="0.3783" style="stop-color:#FAFCFE;stop-opacity:0.4487"/>
	<stop  offset="0.829" style="stop-color:#EBF3FC;stop-opacity:0.2684"/>
	<stop  offset="1" style="stop-color:#E4EEFB;stop-opacity:0.2"/>
</radialGradient>
<path fill="url(#SVGID_2_)" d="M10.642,57.882c-3.636,0-6.594-3.004-6.594-6.698V13.281c0-0.048,0.008-0.454,0.309-0.756
	c0.252-0.253,0.656-0.381,1.2-0.381h15.254c0.602,0,0.908,0.072,1.091,0.256c0.405,0.407,0.423,1.028,0.423,1.035
	c-0.002,0.133,0.006,1.459,0.988,2.456c0.626,0.635,1.484,0.957,2.551,0.957c0,0,28.2-0.011,33.008-0.011
	c0.635,0,0.987,0.218,1.077,0.323v34.024c0,3.694-2.901,6.698-6.468,6.698L10.642,57.882L10.642,57.882L10.642,57.882z"/>
<g id="g27_1_">
	
		<linearGradient id="path36_2_" gradientUnits="userSpaceOnUse" x1="1786.9456" y1="-2443.3335" x2="1794.9943" y2="-2457.2742" gradientTransform="matrix(1 0 0 -1 -1782 -2443)">
		<stop  offset="0" style="stop-color:#FFFFFF"/>
		<stop  offset="0.5" style="stop-color:#FFFFFF;stop-opacity:0.6"/>
		<stop  offset="1" style="stop-color:#FFFFFF;stop-opacity:0.15"/>
	</linearGradient>
	<path id="path36_1_" fill="url(#path36_2_)" d="M11.582,16.643c0.9-1.863,1.998-3.608,3.258-5.221l-2.292-5.027
		c-1.958,1.851-3.547,3.89-4.816,5.871L11.582,16.643z"/>
	
		<linearGradient id="path45_2_" gradientUnits="userSpaceOnUse" x1="1794.2434" y1="-2441.2458" x2="1799.5109" y2="-2450.3696" gradientTransform="matrix(1 0 0 -1 -1782 -2443)">
		<stop  offset="0" style="stop-color:#FFFFFF"/>
		<stop  offset="0.5" style="stop-color:#FFFFFF;stop-opacity:0.6"/>
		<stop  offset="1" style="stop-color:#FFFFFF;stop-opacity:0.15"/>
	</linearGradient>
	<path id="path45_1_" fill="url(#path45_2_)" d="M11.821,1.563l1.198,2.626c1.153-0.957,2.417-1.287,3.795-2.626
		C16.814,1.563,11.821,1.563,11.821,1.563z"/>
	
		<linearGradient id="path54_2_" gradientUnits="userSpaceOnUse" x1="1795.8999" y1="-2439.5137" x2="1802.3358" y2="-2450.6609" gradientTransform="matrix(1 0 0 -1 -1782 -2443)">
		<stop  offset="0" style="stop-color:#FFFFFF"/>
		<stop  offset="0.5" style="stop-color:#FFFFFF;stop-opacity:0.6"/>
		<stop  offset="1" style="stop-color:#FFFFFF;stop-opacity:0.15"/>
	</linearGradient>
	<path id="path54_1_" fill="url(#path54_2_)" d="M20.813,1.563h-0.948c-2.391,1.339-4.481,2.361-6.274,3.888l2.197,4.821
		c1.877-2.168,4.055-4.068,6.494-5.603c0.019-0.017,0.032-0.032,0.052-0.049C25.066,2.259,22.353,1.563,20.813,1.563z"/>
	
		<linearGradient id="path63_2_" gradientUnits="userSpaceOnUse" x1="1782.4291" y1="-2449.6882" x2="1789.4133" y2="-2461.7852" gradientTransform="matrix(1 0 0 -1 -1782 -2443)">
		<stop  offset="0" style="stop-color:#FFFFFF"/>
		<stop  offset="0.5" style="stop-color:#FFFFFF;stop-opacity:0.6"/>
		<stop  offset="1" style="stop-color:#FFFFFF;stop-opacity:0.15"/>
	</linearGradient>
	<path id="path63_1_" fill="url(#path63_2_)" d="M7.001,13.461C5.531,15.964,4.57,18.277,4,19.858
		c0.675,0.963,1.79,1.595,3.056,1.595c1.567,0,2.905-0.968,3.459-2.336c0.142-0.382,0.315-0.749,0.473-1.125L7.001,13.461z"/>
	
		<linearGradient id="path72_2_" gradientUnits="userSpaceOnUse" x1="1782.114" y1="-2450.1846" x2="1789.8542" y2="-2463.5913" gradientTransform="matrix(1 0 0 -1 -1782 -2443)">
		<stop  offset="0" style="stop-color:#FFFFFF"/>
		<stop  offset="0.5" style="stop-color:#FFFFFF;stop-opacity:0.6"/>
		<stop  offset="1" style="stop-color:#FFFFFF;stop-opacity:0.15"/>
	</linearGradient>
	<path id="path72_1_" fill="url(#path72_2_)" d="M3.351,9.309l-0.029,8.405c0,0,0,0.003,0,0.006c0,0.052,0.013,0.102,0.016,0.154
		c0.639-1.555,1.531-3.455,2.741-5.463L3.351,9.309z"/>
	
		<linearGradient id="path149_2_" gradientUnits="userSpaceOnUse" x1="1787.968" y1="-2445.9856" x2="1795.2361" y2="-2458.5742" gradientTransform="matrix(1 0 0 -1 -1782 -2443)">
		<stop  offset="0" style="stop-color:#FFFFFF"/>
		<stop  offset="0.5" style="stop-color:#FFFFFF;stop-opacity:0.6"/>
		<stop  offset="1" style="stop-color:#FFFFFF;stop-opacity:0.15"/>
	</linearGradient>
	<path id="path149_1_" fill="url(#path149_2_)" d="M10.224,1.579C7.493,1.352,3.897,4.428,3.436,7.378l3.388,3.853
		c1.352-2.064,3.034-4.178,5.109-6.088L10.224,1.579z"/>
</g>
<g id="Symbol">
	<path opacity="0.05" fill="#FFFFFF" enable-background="new    " d="M37.121,20.4c-2.778,0.028-5.59-0.046-8.395,0.037
		c-0.14,0.001-0.273,0.055-0.375,0.15c-0.273,0.279-0.481,0.281-0.918,0.244c-0.409-0.035-0.981-0.114-1.612,0.019v-0.019
		c-0.02,0.001-0.036,0.017-0.056,0.019c-0.022,0.005-0.034-0.006-0.056,0v0.019c-0.949,0.086-1.842,0.576-2.286,1.481l-0.019-0.019
		c-0.015,0.023-0.023,0.052-0.038,0.075c-0.966,1.493-2.025,2.97-2.961,4.535c-0.023,0.035-0.042,0.073-0.056,0.113
		c-0.219,0.643,0.035,1.264,0.393,1.649c0.352,0.378,0.784,0.619,1.124,0.806c0.007,0.004,0.012,0.014,0.019,0.019
		c0.529,0.323,1.083,0.639,1.611,0.974c-0.19-0.017-0.391-0.031-0.562-0.019c-0.491,0.035-0.924,0.117-1.237,0.094
		c-0.025-0.002-0.05-0.002-0.075,0c-1.76,0.119-3.572,0.138-5.379,0.319c-0.025,0.004-0.05,0.011-0.075,0.019
		c-1.508,0.399-1.549,2.594-0.187,3.186l-0.019,0.019c0.085,0.066,0.109,0.05,0.187,0.093c0.168,0.092,0.288,0.172,0.393,0.207
		c-1.388,2.6-1.238,5.87,0.468,8.302c0.003,0.004-0.002,0.015,0,0.019c1.248,1.899,2.729,3.607,4.124,5.304
		c0.104,0.119,0.254,0.187,0.412,0.187c0.473,0.024,0.684,0.178,1.012,0.469c0.328,0.29,0.713,0.729,1.33,1.087
		c0.052,0.034,0.109,0.059,0.168,0.075c1.285,0.247,2.551,0.039,3.654,0.093c0.013,0.001,0.025,0.001,0.038,0
		c1.304-0.031,2.671,0.084,4.066-0.037c0.032-0.003,0.063-0.01,0.093-0.019c0.371-0.1,0.682-0.314,0.881-0.581
		c0.199-0.267,0.29-0.56,0.338-0.844c0.031-0.186,0.013-0.31,0.019-0.487c0.764,1.347,1.485,2.72,2.342,4.048
		c0.017,0.026,0.035,0.052,0.056,0.075c1.057,1.15,3.064,0.14,2.904-1.368h0.019c0.001-0.046-0.001-0.049,0-0.093
		c0.001-0.242,0.015-0.403,0.019-0.506c0.015,0.004,0.001-0.006,0.019,0c0.055,0.015,0.112,0.021,0.169,0.019
		c2.887,0.039,5.643-1.565,7.027-4.105c0.004-0.007,0.015-0.012,0.019-0.019c1.143-1.972,2.025-4.062,2.923-6.091
		c0.054-0.132,0.054-0.28,0-0.413c-0.159-0.421-0.149-0.684-0.074-1.03c0.074-0.346,0.249-0.779,0.412-1.349
		c0.013-0.049,0.019-0.1,0.019-0.15c-0.014-1.212-0.812-2.046-1.087-2.755c-0.006-0.013-0.012-0.025-0.019-0.038
		c-0.775-1.496-1.487-3.05-2.323-4.554c-0.021-0.034-0.047-0.066-0.075-0.094c-0.391-0.443-0.974-0.603-1.462-0.543
		c-0.457,0.056-0.848,0.265-1.181,0.525l-0.019,0.019c-0.015,0.012-0.041,0.006-0.056,0.019l-0.356,0.226
		c0.762-1.346,1.527-2.686,2.268-4.048c0.008-0.024,0.015-0.05,0.019-0.075c0.577-1.514-1.366-2.953-2.624-1.93
		c-0.02,0.012-0.038,0.024-0.056,0.037c-0.148,0.147-0.132,0.14-0.131,0.15c-0.02-0.041-0.049-0.061-0.074-0.15
		c-0.013-0.046-0.032-0.09-0.056-0.131C40.822,22.049,39.322,20.415,37.121,20.4z M31.854,28.214c0.171,0.249,0.355,0.555,0.45,0.75
		c0.106,0.214,0.089,0.334,0.094,0.319c0.005-0.015,0.023,0.053-0.3,0.131c-0.013,0-0.025,0-0.038,0
		c-0.504,0.167-0.936,0.507-1.199,0.974c-0.262,0.467-0.318,1.12,0,1.668c0.391,0.659,1.096,0.859,1.668,0.88
		c0.572,0.022,1.112-0.056,1.443-0.019c0.019,0.001,0.037,0.001,0.056,0l3.336-0.019c-0.276,0.185-0.561,0.351-0.806,0.619
		c-0.021,0.03-0.041,0.06-0.056,0.093c-0.386,0.665-0.234,1.393,0.019,1.912s0.584,0.956,0.712,1.274
		c0.005,0.019,0.012,0.038,0.019,0.056l0.375,0.693c-0.104-0.067-0.175-0.164-0.3-0.207c-0.004-0.001,0.003-0.017,0-0.019
		c-0.006-0.002-0.013,0.002-0.019,0c-0.562-0.198-1.14-0.035-1.536,0.262c-0.382,0.286-0.624,0.682-0.787,1.087l-0.019-0.019
		l-1.818,3.279c0.003-0.518,0.05-0.998-0.038-1.536c-0.008-0.039-0.021-0.077-0.037-0.113c-0.151-0.361-0.418-0.659-0.713-0.824
		c-0.294-0.165-0.591-0.206-0.88-0.225c-0.58-0.038-1.14,0.054-1.481,0.038c-0.013-0.001-0.025-0.001-0.038,0l-1.93,0.056
		c0.149-0.071,0.302-0.115,0.431-0.244l0.019,0.019c0.011-0.011,0.008-0.028,0.019-0.038c0.468-0.448,0.574-1.105,0.45-1.611
		c-0.124-0.504-0.411-0.906-0.694-1.237h0.019c-0.01-0.015-0.028-0.023-0.038-0.038c-1.098-1.571-2.156-3.202-3.298-4.778
		c0.909,0.574,1.8,1.155,2.736,1.686c0.035,0.023,0.073,0.042,0.112,0.056c0.687,0.194,1.336-0.118,1.705-0.525
		c0.363-0.4,0.566-0.873,0.731-1.237l0.019-0.019L31.854,28.214z M38.451,39.046l0.226,0.412H38.47
		C38.471,39.324,38.462,39.194,38.451,39.046z M26.121,39.177c0.139,0.072,0.269,0.124,0.431,0.187l-0.525,0.019L26.121,39.177z"/>
	<path opacity="0.1" fill="#FFFFFF" enable-background="new    " d="M37.127,20.936c-2.791,0.028-5.59-0.032-8.376,0.05
		c-0.815,0.831-1.835,0.106-2.901,0.389c-0.856,0.046-1.619,0.476-1.973,1.263c-0.988,1.533-2.065,3.018-2.999,4.58
		c-0.312,0.918,0.596,1.451,1.271,1.822c1.933,1.178,3.82,2.457,5.781,3.572c0.989,0.279,1.469-0.743,1.8-1.472
		c0.696-1.341,1.391-2.681,2.087-4.022c0.378,0.95,2.087,2.419,0.417,2.827c-0.739,0.245-1.342,1.071-0.902,1.829
		c0.562,0.948,1.791,0.498,2.688,0.599c1.751-0.004,3.502-0.008,5.252-0.013c-0.75,0.532-1.673,0.861-2.295,1.541
		c-0.558,0.961,0.429,1.836,0.772,2.687c0.614,1.131,1.228,2.262,1.842,3.393c-0.548,0.006-1.094,0.012-1.642,0.017
		c-0.005-0.768,0.126-1.847-0.804-2.144c-0.786-0.287-1.433,0.38-1.689,1.061c-0.939,1.684-1.878,3.368-2.817,5.053
		c-0.045-1.159,0.12-2.345-0.067-3.485c-0.443-1.052-1.709-0.637-2.59-0.678c-1.615,0.048-3.232,0.095-4.848,0.142
		c0.246-0.497,0.491-0.995,0.737-1.491c0.676,0.35,1.576,0.938,2.245,0.234c0.699-0.63,0.207-1.587-0.293-2.165
		c-1.213-1.733-2.357-3.531-3.61-5.223c-0.732-0.563-1.715-0.131-2.558-0.191c-1.781,0.12-3.574,0.147-5.348,0.325
		c-1.062,0.281-1.067,1.944-0.005,2.242c0.348,0.272,1.317,0.331,0.776,0.907c-1.34,2.432-1.224,5.548,0.382,7.828
		c1.221,1.862,2.702,3.563,4.107,5.271c1.225,0.062,1.549,1.01,2.613,1.625c1.158,0.222,2.373,0.042,3.553,0.101
		c1.343-0.032,2.702,0.065,4.035-0.05c1.075-0.29,0.813-1.55,0.847-2.392c-0.025-0.687-0.032-1.303,0.366-0.361
		c1.006,1.701,1.906,3.477,2.974,5.132c0.723,0.787,2.157,0.051,1.979-0.996c0.006-0.623-0.182-1.435,0.739-1.136
		c2.685,0.036,5.279-1.464,6.559-3.829c1.126-1.939,1.998-4.025,2.902-6.066c-0.389-1.027,0.013-1.628,0.32-2.702
		c-0.011-0.938-0.718-1.696-1.049-2.549c-0.783-1.509-1.496-3.069-2.32-4.548c-0.54-0.612-1.397-0.356-1.941,0.095
		c-0.738,0.443-1.476,0.886-2.214,1.328c1.089-1.951,2.218-3.887,3.283-5.846c0.386-1.011-0.956-1.987-1.792-1.307
		c-0.519,0.515-0.91,0.497-1.128-0.238C40.391,22.412,39.056,20.949,37.127,20.936z"/>
	<path opacity="0.2" fill="#FFFFFF" enable-background="new    " d="M37.161,21.573L29.07,21.59
		c-0.198-0.001-0.381,0.11-0.472,0.286c-0.092,0.176-0.077,0.389,0.037,0.551c-0.541-0.268-1.127-0.472-1.809-0.486
		c-0.558-0.011-1.166,0.079-1.809,0.319c-0.103,0.039-0.19,0.11-0.251,0.201l-3.199,4.808c-0.084,0.119-0.114,0.267-0.086,0.409
		c0.028,0.143,0.114,0.267,0.236,0.345l6.231,3.903c0.125,0.078,0.278,0.102,0.421,0.064c0.143-0.038,0.264-0.135,0.333-0.266
		l3.015-5.796c0.036-0.062,0.059-0.13,0.067-0.201c0.878,1.275,1.615,2.692,2.194,4.004l-1.859,1.005
		c-0.22,0.113-0.335,0.362-0.274,0.603c0.06,0.24,0.279,0.407,0.526,0.402l7.303-0.017c0.193,0.003,0.373-0.1,0.469-0.268l3.4-6.03
		c0.136-0.214,0.102-0.494-0.082-0.668c-0.183-0.175-0.465-0.197-0.672-0.052l-1.323,0.838l-0.888-1.558
		c-0.011-0.012-0.021-0.023-0.034-0.034c-0.395-0.594-0.793-1.142-1.323-1.574c-0.53-0.433-1.187-0.731-2.01-0.804
		C37.194,21.572,37.178,21.572,37.161,21.573z M44.18,30.183c-0.078,0.012-0.153,0.04-0.218,0.084l-6.265,3.803
		c-0.243,0.144-0.332,0.453-0.201,0.703l3.099,5.712c0.026,0.05,0.06,0.095,0.101,0.135l-3.384,0.017l-0.017-1.659
		c0.005-0.247-0.162-0.465-0.403-0.525c-0.24-0.06-0.49,0.054-0.603,0.274l-3.35,5.997c-0.09,0.161-0.09,0.358,0,0.519l3.35,5.896
		c0.113,0.225,0.368,0.338,0.611,0.273c0.243-0.065,0.407-0.291,0.394-0.541l0.017-1.893H38.4c2.766-0.001,4.496-1.045,5.729-2.714
		c1.232-1.668,2.056-3.904,3.317-6.483c0.107-0.209,0.064-0.464-0.107-0.626c-0.169-0.162-0.426-0.194-0.63-0.077
		c0.641-0.676,1.16-1.451,1.105-2.312c-0.008-0.071-0.031-0.139-0.067-0.201l-3.048-6.081C44.604,30.286,44.398,30.167,44.18,30.183
		z M23.408,31.657l-6.784,0.368c-0.238,0.017-0.436,0.191-0.483,0.426c-0.048,0.234,0.068,0.471,0.282,0.578l1.709,0.855
		l-0.486,0.988c-1.232,2.475-1.076,4.498-0.133,6.349c0.942,1.85,2.576,3.567,4.322,5.846c0.166,0.204,0.457,0.256,0.683,0.122
		c0.226-0.135,0.32-0.414,0.221-0.658c-0.031-0.071-0.023-0.146-0.05-0.218c0.309,1.042,0.837,2.023,1.759,2.413
		c0.063,0.03,0.131,0.047,0.201,0.05h6.784c0.143,0.001,0.28-0.055,0.381-0.155c0.101-0.101,0.157-0.238,0.156-0.38l0.05-7.303
		c0.001-0.146-0.057-0.285-0.161-0.387c-0.104-0.102-0.246-0.155-0.392-0.149l-7.152,0.217c-0.095,0.003-0.187,0.032-0.268,0.084
		l1.541-3.099l1.491,0.737c0.215,0.1,0.469,0.045,0.624-0.133c0.156-0.178,0.174-0.437,0.046-0.637l-3.869-5.679
		C23.773,31.736,23.595,31.647,23.408,31.657z M22.437,44.823c0.019,0.371,0.077,0.748,0.168,1.123
		C22.507,45.574,22.421,45.206,22.437,44.823z"/>
	<path opacity="0.3" fill="#669CCC" enable-background="new    " d="M37.161,22.109l-8.091,0.017
		c0.882,0.527,2.034,1.713,2.999,3.065c1.077,1.511,1.952,3.255,2.597,4.774l-2.295,1.239l7.303-0.017l3.4-6.03l-1.809,1.14
		l-1.156-2.044C39.338,23.093,38.617,22.24,37.161,22.109z M26.809,22.478c-0.496-0.01-1.025,0.068-1.608,0.285l-3.199,4.808
		l6.231,3.903l3.015-5.796C30.325,24.398,28.954,22.52,26.809,22.478z M44.229,30.719l-6.265,3.803l3.099,5.712l2.496,0.034
		c1.459,0.016,3.811-2.012,3.719-3.467L44.229,30.719z M23.442,32.193l-6.784,0.369l2.178,1.089l-0.721,1.457
		c-2.355,4.731,0.61,7.039,4.138,11.642c-0.504-1.142-0.475-2.367-0.034-3.551l3.133-6.298l1.96,0.971L23.442,32.193z
		 M36.759,38.977l-3.35,5.997l3.35,5.896l0.017-2.429h1.625c5.285-0.002,6.012-3.686,8.56-8.895
		c-0.798,0.961-1.893,1.475-3.149,1.608l-7.035,0.017L36.759,38.977z M31.482,40.937l-7.152,0.218l-1.14,2.211
		c-0.664,1.299,0.114,4.308,1.457,4.875h6.784L31.482,40.937z"/>
	<path opacity="0.3" fill="#669CCC" enable-background="new    " d="M37.161,22.109l-8.091,0.017
		c0.882,0.527,2.034,1.713,2.999,3.065c1.077,1.511,1.952,3.255,2.597,4.774l-2.295,1.239l7.303-0.017l3.4-6.03l-1.809,1.139
		l-1.156-2.044C39.338,23.093,38.617,22.24,37.161,22.109z M26.809,22.478c-0.496-0.01-1.025,0.068-1.608,0.285l-3.199,4.808
		l6.231,3.903l3.015-5.796C30.325,24.398,28.954,22.52,26.809,22.478z M37.077,23.131c0.546,0.049,0.851,0.19,1.173,0.452
		c0.322,0.263,0.637,0.685,1.005,1.239l1.123,1.977c0.091,0.161,0.225,0.294,0.385,0.385l-1.692,2.982l-3.4,0.016
		c0.042-0.208,0.019-0.425-0.067-0.62c-0.664-1.567-1.556-3.358-2.697-4.958c-0.381-0.534-0.798-0.997-1.206-1.457L37.077,23.131z
		 M26.792,23.499c1.361,0.027,2.375,1.177,3.233,2.312l-2.178,4.204l-4.406-2.747l2.396-3.601
		C26.173,23.573,26.504,23.494,26.792,23.499z M44.229,30.719l-6.265,3.803l3.099,5.712l2.496,0.034
		c1.459,0.016,3.811-2.012,3.719-3.467L44.229,30.719z M43.811,32.177l2.412,4.79c-0.043,0.226-0.33,0.838-0.905,1.357
		c-0.627,0.568-1.492,0.924-1.742,0.921l-1.893-0.033l-2.345-4.322L43.811,32.177z M23.442,32.193l-6.784,0.369l2.178,1.089
		l-0.721,1.457c-2.355,4.731,0.61,7.039,4.138,11.642c-0.504-1.143-0.475-2.367-0.034-3.552l3.133-6.298l1.96,0.971L23.442,32.193z
		 M22.939,33.248l1.893,2.78c-0.172,0.097-0.311,0.244-0.403,0.419l-3.132,6.298c-0.013,0.033-0.024,0.067-0.034,0.101
		c-0.099,0.265-0.088,0.547-0.15,0.821c-0.934-1.166-1.754-2.219-2.229-3.149c-0.783-1.538-0.92-2.805,0.151-4.958l0.72-1.457
		c0.107-0.212,0.137-0.455,0.084-0.686L22.939,33.248z M36.759,38.977l-3.35,5.997l3.35,5.896l0.017-2.429h1.625
		c5.285-0.002,6.012-3.686,8.56-8.895c-0.798,0.961-1.893,1.475-3.149,1.608l-7.035,0.017L36.759,38.977z M31.482,40.937
		l-7.152,0.218l-1.14,2.211c-0.664,1.299,0.114,4.308,1.457,4.875h6.784L31.482,40.937z M44.716,41.942
		c-0.625,1.354-1.206,2.562-1.825,3.4c-1.024,1.387-2.085,2.076-4.489,2.077h-1.625c-0.247,0-0.484,0.089-0.67,0.251l-1.524-2.697
		l1.641-2.949c0.164,0.108,0.356,0.166,0.553,0.168l7.035-0.016c0.034,0.001,0.067,0.001,0.101,0
		C44.192,42.147,44.443,42.008,44.716,41.942z M30.46,41.992l-0.05,5.227h-5.427c-0.183-0.14-0.626-0.678-0.838-1.424
		c-0.231-0.815-0.162-1.74-0.05-1.96l0.871-1.675L30.46,41.992z"/>
	<path opacity="0.3" fill="#669CCC" enable-background="new    " d="M37.161,22.109l-8.091,0.017
		c0.882,0.527,2.034,1.713,2.999,3.065c1.077,1.511,1.952,3.255,2.597,4.774l-2.295,1.239l7.303-0.017l3.4-6.03l-1.809,1.14
		l-1.156-2.044C39.338,23.093,38.617,22.24,37.161,22.109z M26.809,22.478c-0.496-0.01-1.025,0.068-1.608,0.285l-3.199,4.808
		l6.231,3.903l3.015-5.796C30.325,24.398,28.954,22.52,26.809,22.478z M37.111,22.628c0.634,0.056,1.053,0.252,1.441,0.569
		c0.379,0.31,0.737,0.756,1.106,1.307l0.017,0.034l1.139,2.01c0.068,0.127,0.186,0.22,0.326,0.258
		c0.139,0.038,0.288,0.017,0.411-0.057l0.05-0.034l-2.228,3.954l-4.909,0.017l0.453-0.251c0.239-0.129,0.341-0.419,0.234-0.67
		c-0.655-1.543-1.537-3.318-2.647-4.874c-0.627-0.88-1.317-1.617-1.993-2.245L37.111,22.628z M26.792,22.997
		c1.731,0.035,2.914,1.51,3.82,2.747l-2.58,4.975l-5.293-3.316l2.78-4.171C25.982,23.076,26.4,22.989,26.792,22.997z M44.229,30.719
		l-6.265,3.803l3.099,5.712l2.496,0.034c1.459,0.016,3.811-2.012,3.719-3.467L44.229,30.719z M44.012,31.456l2.731,5.444
		c-0.008,0.44-0.424,1.191-1.088,1.792c-0.692,0.625-1.612,1.06-2.094,1.055l-2.178-0.033l-2.714-5.009L44.012,31.456z
		 M23.442,32.193l-6.784,0.369l2.178,1.089l-0.721,1.457c-2.355,4.731,0.61,7.039,4.138,11.642
		c-0.504-1.142-0.475-2.367-0.034-3.551l3.133-6.298l1.96,0.971L23.442,32.193z M23.174,32.729l2.563,3.786l-0.15-0.084
		c-0.259-0.128-0.573-0.023-0.703,0.234l-3.133,6.298c-0.006,0.016-0.012,0.033-0.017,0.05c-0.218,0.585-0.331,1.188-0.352,1.792
		c-1.217-1.51-2.316-2.862-2.931-4.071c-0.834-1.638-0.989-3.138,0.135-5.394l0.72-1.457c0.128-0.259,0.023-0.573-0.234-0.703
		l-0.419-0.201L23.174,32.729z M36.759,38.977l-3.35,5.997l3.35,5.896l0.017-2.429h1.625c5.285-0.002,6.012-3.686,8.56-8.895
		c-0.798,0.961-1.893,1.475-3.149,1.608l-7.035,0.017L36.759,38.977z M31.482,40.937l-7.152,0.218l-1.14,2.211
		c-0.664,1.299,0.114,4.308,1.457,4.875h6.784L31.482,40.937z M36.257,40.937v0.234c0.004,0.285,0.234,0.515,0.519,0.519
		l7.035-0.017c0.017,0.001,0.034,0.001,0.05,0c0.624-0.066,1.209-0.25,1.759-0.502c-0.813,1.774-1.537,3.361-2.345,4.456
		c-1.09,1.477-2.355,2.294-4.874,2.295h-1.625c-0.285,0.004-0.515,0.234-0.519,0.519v0.469l-2.245-3.953L36.257,40.937z
		 M30.963,41.474l-0.05,6.248h-6.097c-0.393-0.193-0.891-0.918-1.14-1.792c-0.254-0.898-0.236-1.901-0.017-2.328l1.005-1.943
		L30.963,41.474z"/>
</g>
</svg>
