<?xml version="1.0" encoding="utf-8"?>
<!-- Generator: Adobe Illustrator 17.0.0, SVG Export Plug-In . SVG Version: 6.00 Build 0)  -->
<!DOCTYPE svg PUBLIC "-//W3C//DTD SVG 1.1//EN" "http://www.w3.org/Graphics/SVG/1.1/DTD/svg11.dtd">
<svg version="1.1" id="图层_1" xmlns="http://www.w3.org/2000/svg" xmlns:xlink="http://www.w3.org/1999/xlink" x="0px" y="0px"
	 width="64px" height="64px" viewBox="0 0 64 64" enable-background="new 0 0 64 64" xml:space="preserve">
<g id="g151" opacity="0.5">
	<path id="path153" opacity="0.08" enable-background="new    " d="M54.144,59.172H9.894c-4.074,0-7.394-3.194-7.394-7.106v5.435
		c0,3.057,2.597,5.535,5.779,5.535h47.478c3.182,0,5.743-2.478,5.743-5.535v-5.435C61.499,55.979,58.215,59.172,54.144,59.172z"/>
	<path id="path155" opacity="0.1" enable-background="new    " d="M54.106,59.172H9.857c-4.072,0-7.356-3.135-7.356-7.047v2.843
		c0,3.057,1.402,6.781,7.084,6.781s39.037,0,44.793,0s7.123-3.724,7.123-6.781v-2.843C61.499,56.037,58.178,59.172,54.106,59.172z"
		/>
	<path id="path157" opacity="0.1" enable-background="new    " d="M54.106,59.172H9.857c-4.072,0-7.356-3.135-7.356-7.047v1.534
		c0,3.058,2.432,6.802,7.084,6.802s39.468,0,44.793,0c5.326,0,7.123-3.744,7.123-6.8v-1.534
		C61.499,56.037,58.178,59.172,54.106,59.172z"/>
	<rect id="rect159" x="9.205" y="59.172" opacity="0.05" enable-background="new    " width="45.591" height="1.288"/>
	<rect id="rect161" x="10.545" y="59.172" opacity="0.05" enable-background="new    " width="41.568" height="1.288"/>
	<rect id="rect163" x="10.545" y="60.46" opacity="0.05" enable-background="new    " width="41.568" height="1.288"/>
	<rect id="rect165" x="13.226" y="60.46" opacity="0.05" enable-background="new    " width="37.546" height="1.288"/>
	<rect id="rect167" x="17.25" y="60.46" opacity="0.05" enable-background="new    " width="29.5" height="1.288"/>
	<rect id="rect169" x="22.614" y="60.46" opacity="0.05" enable-background="new    " width="18.773" height="1.288"/>
	<rect id="rect171" x="13.226" y="59.172" opacity="0.05" enable-background="new    " width="37.546" height="1.288"/>
	<rect id="rect173" x="15.909" y="59.172" opacity="0.05" enable-background="new    " width="32.182" height="1.288"/>
	<rect id="rect175" x="17.25" y="59.172" opacity="0.05" enable-background="new    " width="29.5" height="1.288"/>
	<rect id="rect177" x="19.932" y="59.172" opacity="0.05" enable-background="new    " width="24.136" height="1.288"/>
	<rect id="rect179" x="19.932" y="59.172" opacity="0.05" enable-background="new    " width="24.136" height="1.288"/>
</g>
<path fill="#C4DCED" stroke="#9DBCD7" stroke-miterlimit="10" d="M60.966,51.271c0,4.212-3.415,7.627-7.627,7.627H10.66
	c-4.212,0-7.627-3.415-7.627-7.627V8.591c0-4.212,3.415-7.627,7.627-7.627h42.68c4.212,0,7.627,3.415,7.627,7.627L60.966,51.271
	L60.966,51.271z"/>
<path opacity="0.5" fill="none" stroke="#FFFFFF" stroke-miterlimit="10" enable-background="new    " d="M59.951,51.271
	c0,3.651-2.96,6.611-6.611,6.611H10.66c-3.651,0-6.611-2.96-6.611-6.611V8.591c0-3.651,2.96-6.611,6.611-6.611h42.68
	c3.651,0,6.611,2.96,6.611,6.611V51.271z"/>
<g id="g27_1_">
	
		<linearGradient id="path36_2_" gradientUnits="userSpaceOnUse" x1="1786.9456" y1="-2443.3335" x2="1794.9943" y2="-2457.2742" gradientTransform="matrix(1 0 0 -1 -1782 -2443)">
		<stop  offset="0" style="stop-color:#FFFFFF"/>
		<stop  offset="0.5" style="stop-color:#FFFFFF;stop-opacity:0.6"/>
		<stop  offset="1" style="stop-color:#FFFFFF;stop-opacity:0.15"/>
	</linearGradient>
	<path id="path36_1_" fill="url(#path36_2_)" d="M11.582,16.643c0.9-1.863,1.998-3.608,3.258-5.221l-2.292-5.027
		c-1.958,1.851-3.547,3.89-4.816,5.871L11.582,16.643z"/>
	
		<linearGradient id="path45_2_" gradientUnits="userSpaceOnUse" x1="1794.2434" y1="-2441.2458" x2="1799.5109" y2="-2450.3696" gradientTransform="matrix(1 0 0 -1 -1782 -2443)">
		<stop  offset="0" style="stop-color:#FFFFFF"/>
		<stop  offset="0.5" style="stop-color:#FFFFFF;stop-opacity:0.6"/>
		<stop  offset="1" style="stop-color:#FFFFFF;stop-opacity:0.15"/>
	</linearGradient>
	<path id="path45_1_" fill="url(#path45_2_)" d="M11.821,1.563l1.198,2.626c1.153-0.957,2.417-1.287,3.795-2.626
		C16.814,1.563,11.821,1.563,11.821,1.563z"/>
	
		<linearGradient id="path54_2_" gradientUnits="userSpaceOnUse" x1="1795.8999" y1="-2439.5137" x2="1802.3358" y2="-2450.6609" gradientTransform="matrix(1 0 0 -1 -1782 -2443)">
		<stop  offset="0" style="stop-color:#FFFFFF"/>
		<stop  offset="0.5" style="stop-color:#FFFFFF;stop-opacity:0.6"/>
		<stop  offset="1" style="stop-color:#FFFFFF;stop-opacity:0.15"/>
	</linearGradient>
	<path id="path54_1_" fill="url(#path54_2_)" d="M20.813,1.563h-0.948c-2.391,1.339-4.481,2.361-6.274,3.888l2.197,4.821
		c1.877-2.168,4.055-4.068,6.494-5.603c0.019-0.017,0.032-0.032,0.052-0.049C25.066,2.259,22.353,1.563,20.813,1.563z"/>
	
		<linearGradient id="path63_2_" gradientUnits="userSpaceOnUse" x1="1782.4291" y1="-2449.6882" x2="1789.4133" y2="-2461.7852" gradientTransform="matrix(1 0 0 -1 -1782 -2443)">
		<stop  offset="0" style="stop-color:#FFFFFF"/>
		<stop  offset="0.5" style="stop-color:#FFFFFF;stop-opacity:0.6"/>
		<stop  offset="1" style="stop-color:#FFFFFF;stop-opacity:0.15"/>
	</linearGradient>
	<path id="path63_1_" fill="url(#path63_2_)" d="M7.001,13.461C5.531,15.964,4.57,18.277,4,19.858
		c0.675,0.963,1.79,1.595,3.056,1.595c1.567,0,2.905-0.968,3.459-2.336c0.142-0.382,0.315-0.749,0.473-1.125L7.001,13.461z"/>
	
		<linearGradient id="path72_2_" gradientUnits="userSpaceOnUse" x1="1782.114" y1="-2450.1846" x2="1789.8542" y2="-2463.5913" gradientTransform="matrix(1 0 0 -1 -1782 -2443)">
		<stop  offset="0" style="stop-color:#FFFFFF"/>
		<stop  offset="0.5" style="stop-color:#FFFFFF;stop-opacity:0.6"/>
		<stop  offset="1" style="stop-color:#FFFFFF;stop-opacity:0.15"/>
	</linearGradient>
	<path id="path72_1_" fill="url(#path72_2_)" d="M3.351,9.309l-0.029,8.405c0,0,0,0.003,0,0.006c0,0.052,0.013,0.102,0.016,0.154
		c0.639-1.555,1.531-3.455,2.741-5.463L3.351,9.309z"/>
	
		<linearGradient id="path149_2_" gradientUnits="userSpaceOnUse" x1="1787.968" y1="-2445.9856" x2="1795.2361" y2="-2458.5742" gradientTransform="matrix(1 0 0 -1 -1782 -2443)">
		<stop  offset="0" style="stop-color:#FFFFFF"/>
		<stop  offset="0.5" style="stop-color:#FFFFFF;stop-opacity:0.6"/>
		<stop  offset="1" style="stop-color:#FFFFFF;stop-opacity:0.15"/>
	</linearGradient>
	<path id="path149_1_" fill="url(#path149_2_)" d="M10.224,1.579C7.493,1.352,3.897,4.428,3.436,7.378l3.388,3.853
		c1.352-2.064,3.034-4.178,5.109-6.088L10.224,1.579z"/>
</g>
<g>
	<g>
		
			<rect x="8.032" y="6.534" transform="matrix(-0.986 0.1666 -0.1666 -0.986 43.0448 33.618)" opacity="0.5" fill="#669CCC" enable-background="new    " width="24.16" height="24.16"/>
		
			<rect x="8.428" y="5.977" transform="matrix(-0.986 0.1666 -0.1666 -0.986 43.7383 32.4452)" opacity="0.2" fill="#669CCC" enable-background="new    " width="24.16" height="24.16"/>
		
			<rect x="8.824" y="5.42" transform="matrix(-0.986 0.1666 -0.1666 -0.986 44.4321 31.2734)" opacity="0.1" fill="#669CCC" enable-background="new    " width="24.16" height="24.16"/>
	</g>
	
		<rect x="8.252" y="7.008" transform="matrix(-0.986 0.1666 -0.1666 -0.986 42.5387 30.9833)" fill="#FFFFFF" width="23.436" height="20.536"/>
</g>
<g>
	<g>
		
			<rect x="29.384" y="6.04" transform="matrix(-0.9967 0.0814 -0.0814 -0.9967 84.2667 32.8049)" opacity="0.5" fill="#669CCC" enable-background="new    " width="24.161" height="24.161"/>
		
			<rect x="29.826" y="5.518" transform="matrix(-0.9967 0.0814 -0.0814 -0.9967 85.1072 31.7279)" opacity="0.2" fill="#669CCC" enable-background="new    " width="24.161" height="24.161"/>
		
			<rect x="30.268" y="4.997" transform="matrix(-0.9967 0.0814 -0.0814 -0.9967 85.9476 30.652)" opacity="0.1" fill="#669CCC" enable-background="new    " width="24.161" height="24.161"/>
	</g>
	
		<rect x="29.739" y="6.506" transform="matrix(-0.9967 0.0814 -0.0814 -0.9967 84.1423 30.12)" fill="#FFFFFF" width="23.437" height="20.537"/>
</g>
<g>
	<g>
		
			<rect x="15.553" y="8.778" transform="matrix(-0.9995 0.0321 -0.0321 -0.9995 55.923 40.8184)" opacity="0.5" fill="#669CCC" enable-background="new    " width="24.161" height="24.161"/>
		
			<rect x="16.021" y="8.279" transform="matrix(-0.9995 0.0321 -0.0321 -0.9995 56.8417 39.8066)" opacity="0.2" fill="#669CCC" enable-background="new    " width="24.161" height="24.161"/>
		
			<rect x="16.488" y="7.781" transform="matrix(-0.9995 0.0321 -0.0321 -0.9995 57.7604 38.7949)" opacity="0.1" fill="#669CCC" enable-background="new    " width="24.161" height="24.161"/>
	</g>
	
		<rect x="15.986" y="9.246" transform="matrix(-0.9995 0.0321 -0.0321 -0.9995 56.0214 38.1299)" fill="#FFFFFF" width="23.437" height="20.537"/>
</g>
<g>
	<g>
		
			<rect x="32.796" y="11.065" transform="matrix(-1 0.0034 -0.0034 -1 89.8305 46.1375)" opacity="0.5" fill="#669CCC" enable-background="new    " width="24.161" height="24.161"/>
		
			<rect x="33.277" y="10.58" transform="matrix(-1 0.0034 -0.0034 -1 90.7918 45.1661)" opacity="0.2" fill="#669CCC" enable-background="new    " width="24.161" height="24.161"/>
		
			<rect x="33.759" y="10.095" transform="matrix(-1 0.0034 -0.0034 -1 91.7532 44.1946)" opacity="0.1" fill="#669CCC" enable-background="new    " width="24.161" height="24.161"/>
	</g>
	
		<rect x="33.273" y="11.536" transform="matrix(-1 0.0034 -0.0034 -1 90.0567 43.456)" fill="#FFFFFF" width="23.436" height="20.537"/>
</g>
<g>
	<path opacity="0.08" fill="none" stroke="#000000" stroke-miterlimit="10" enable-background="new    " d="M61.184,22.461
		c0,0,0-2.563-2.531-2.563c-7.347,0-30.807,0.004-32.907,0.004c-2.552,0-2.531-2.526-2.531-2.526s0-2.543-2.531-2.543
		c-4.431,0-13.306,0-15.188,0c-2.492,0-2.531,2.451-2.531,2.528"/>
	<path opacity="0.05" fill="none" stroke="#000000" stroke-miterlimit="10" enable-background="new    " d="M61.173,21.952
		c0,0,0-2.563-2.531-2.563c-7.347,0-30.807,0.004-32.907,0.004c-2.552,0-2.531-2.526-2.531-2.526s0-2.543-2.531-2.543
		c-4.431,0-13.306,0-15.188,0c-2.492,0-2.531,2.451-2.531,2.528"/>
	<path opacity="0.03" fill="none" stroke="#000000" stroke-miterlimit="10" enable-background="new    " d="M61.173,21.466
		c0,0,0-2.563-2.531-2.563c-7.347,0-30.807,0.004-32.907,0.004c-2.552,0-2.531-2.526-2.531-2.526s0-2.543-2.531-2.543
		c-4.431,0-13.306,0-15.188,0c-2.492,0-2.531,2.451-2.531,2.528"/>
	
		<linearGradient id="SVGID_1_" gradientUnits="userSpaceOnUse" x1="1401.9985" y1="-1683.8979" x2="1401.9985" y2="-1640.6281" gradientTransform="matrix(1 0 0 -1 -1370 -1625)">
		<stop  offset="0" style="stop-color:#D1E0ED"/>
		<stop  offset="1" style="stop-color:#E4EEFB"/>
	</linearGradient>
	<path fill="url(#SVGID_1_)" stroke="#9DBCD7" stroke-miterlimit="10" d="M10.642,58.898h42.84c4.212,0,7.484-3.502,7.484-7.714
		V21.483c0-0.6-0.897-1.166-2.092-1.166c-7.379,0-30.905,0.004-33.014,0.004c-2.563,0-2.524-2.338-2.524-2.338
		s0.018-2.355-2.525-2.355c-4.45,0-13.364,0-15.254,0c-2.503,0-2.526,2.075-2.526,2.153v33.403
		C3.032,55.396,6.431,58.898,10.642,58.898z"/>
	<path fill="none" stroke="#FFFFFF" stroke-miterlimit="10" d="M10.642,57.882c-3.636,0-6.594-3.004-6.594-6.698V17.781
		c0-0.048,0.008-0.454,0.309-0.756c0.252-0.253,0.656-0.381,1.2-0.381h15.254c0.602,0,0.908,0.072,1.091,0.256
		c0.405,0.407,0.423,1.028,0.423,1.035c-0.002,0.133,0.006,1.459,0.988,2.456c0.626,0.635,1.484,0.957,2.551,0.957
		c0,0,28.2-0.011,33.008-0.011c0.635,0,0.987,0.218,1.077,0.323v29.524c0,3.694-2.901,6.698-6.468,6.698L10.642,57.882
		L10.642,57.882L10.642,57.882z"/>
	
		<radialGradient id="SVGID_2_" cx="1876.6702" cy="1369.3679" r="44.0136" gradientTransform="matrix(0.0197 0.9998 0.9109 -0.018 -1254.369 -1826.2988)" gradientUnits="userSpaceOnUse">
		<stop  offset="0" style="stop-color:#FFFFFF;stop-opacity:0.6"/>
		<stop  offset="0.3783" style="stop-color:#FAFCFE;stop-opacity:0.4487"/>
		<stop  offset="0.829" style="stop-color:#EBF3FC;stop-opacity:0.2684"/>
		<stop  offset="1" style="stop-color:#E4EEFB;stop-opacity:0.2"/>
	</radialGradient>
	<path fill="url(#SVGID_2_)" d="M10.642,57.882c-3.636,0-6.594-3.004-6.594-6.698V17.781c0-0.048,0.008-0.454,0.309-0.756
		c0.252-0.253,0.656-0.381,1.2-0.381h15.254c0.602,0,0.908,0.072,1.091,0.256c0.405,0.407,0.423,1.028,0.423,1.035
		c-0.002,0.133,0.006,1.459,0.988,2.456c0.626,0.635,1.484,0.957,2.551,0.957c0,0,28.2-0.011,33.008-0.011
		c0.635,0,0.987,0.218,1.077,0.323v29.524c0,3.694-2.901,6.698-6.468,6.698L10.642,57.882L10.642,57.882L10.642,57.882z"/>
</g>
<g id="Symbol">
	<path opacity="0.05" fill="#FFFFFF" enable-background="new    " d="M37.009,22.465c-2.717,0.027-5.468-0.045-8.212,0.036
		c-0.137,0.001-0.267,0.053-0.367,0.146c-0.267,0.273-0.47,0.275-0.898,0.239c-0.4-0.034-0.96-0.112-1.577,0.018v-0.018
		c-0.019,0.001-0.035,0.017-0.055,0.018c-0.022,0.005-0.033-0.006-0.055,0v0.018c-0.928,0.084-1.801,0.563-2.236,1.448l-0.018-0.018
		c-0.015,0.022-0.022,0.051-0.037,0.073c-0.945,1.461-1.981,2.905-2.896,4.436c-0.023,0.035-0.041,0.072-0.055,0.11
		c-0.214,0.629,0.035,1.237,0.385,1.613c0.344,0.369,0.767,0.606,1.1,0.788c0.007,0.004,0.011,0.014,0.019,0.018
		c0.518,0.316,1.059,0.625,1.576,0.953c-0.186-0.017-0.383-0.031-0.549-0.019c-0.481,0.034-0.904,0.114-1.21,0.092
		c-0.024-0.002-0.049-0.002-0.073,0c-1.722,0.116-3.494,0.135-5.261,0.312c-0.024,0.004-0.049,0.011-0.073,0.018
		c-1.475,0.39-1.515,2.537-0.183,3.116l-0.019,0.018c0.083,0.065,0.106,0.049,0.183,0.091c0.164,0.09,0.282,0.168,0.385,0.202
		c-1.358,2.543-1.211,5.741,0.458,8.12c0.003,0.004-0.002,0.014,0,0.018c1.221,1.858,2.669,3.528,4.033,5.188
		c0.102,0.116,0.249,0.183,0.403,0.183c0.463,0.023,0.669,0.174,0.99,0.459c0.321,0.284,0.697,0.713,1.301,1.063
		c0.051,0.033,0.106,0.058,0.165,0.073c1.257,0.241,2.495,0.039,3.574,0.091c0.012,0.001,0.024,0.001,0.037,0
		c1.276-0.031,2.613,0.082,3.977-0.036c0.031-0.003,0.062-0.01,0.091-0.018c0.363-0.098,0.667-0.307,0.862-0.568
		c0.195-0.262,0.283-0.548,0.33-0.825c0.031-0.182,0.012-0.303,0.018-0.476c0.747,1.318,1.452,2.661,2.291,3.959
		c0.016,0.026,0.035,0.051,0.055,0.073c1.033,1.125,2.997,0.137,2.841-1.338h0.019c0.001-0.045-0.001-0.048,0-0.091
		c0.001-0.237,0.014-0.394,0.018-0.495c0.015,0.004,0.001-0.006,0.018,0c0.054,0.015,0.11,0.02,0.165,0.018
		c2.823,0.038,5.519-1.531,6.873-4.015c0.004-0.007,0.014-0.011,0.019-0.018c1.118-1.929,1.981-3.973,2.859-5.957
		c0.053-0.129,0.053-0.274,0-0.404c-0.156-0.412-0.146-0.669-0.073-1.008c0.073-0.339,0.243-0.762,0.403-1.32
		c0.013-0.048,0.019-0.098,0.018-0.146c-0.014-1.186-0.794-2.002-1.063-2.695c-0.006-0.012-0.012-0.024-0.019-0.037
		c-0.758-1.463-1.454-2.983-2.272-4.454c-0.021-0.033-0.046-0.064-0.074-0.092c-0.383-0.434-0.953-0.59-1.43-0.531
		c-0.447,0.055-0.83,0.259-1.155,0.513l-0.018,0.018c-0.015,0.012-0.04,0.006-0.055,0.018l-0.348,0.221
		c0.746-1.317,1.493-2.627,2.218-3.959c0.007-0.024,0.014-0.049,0.018-0.074c0.565-1.481-1.336-2.888-2.566-1.888
		c-0.019,0.011-0.037,0.023-0.055,0.036c-0.145,0.144-0.129,0.137-0.128,0.146c-0.02-0.04-0.048-0.06-0.073-0.146
		c-0.013-0.045-0.032-0.088-0.055-0.128C40.629,24.078,39.162,22.479,37.009,22.465z M31.858,30.108
		c0.167,0.244,0.347,0.543,0.44,0.733c0.103,0.209,0.087,0.327,0.092,0.312c0.005-0.015,0.022,0.052-0.293,0.128
		c-0.012,0-0.024,0-0.037,0c-0.493,0.163-0.916,0.496-1.173,0.953c-0.257,0.457-0.311,1.095,0,1.632
		c0.383,0.644,1.072,0.84,1.632,0.861c0.559,0.022,1.088-0.054,1.411-0.018c0.018,0.001,0.036,0.001,0.055,0l3.263-0.018
		c-0.27,0.18-0.549,0.343-0.788,0.605c-0.021,0.029-0.04,0.059-0.055,0.091c-0.377,0.65-0.229,1.363,0.019,1.87
		c0.248,0.507,0.572,0.935,0.696,1.246c0.005,0.019,0.011,0.037,0.018,0.055l0.367,0.678c-0.102-0.066-0.171-0.16-0.293-0.202
		c-0.004-0.001,0.003-0.017,0-0.018c-0.006-0.002-0.012,0.002-0.019,0c-0.55-0.194-1.115-0.034-1.503,0.257
		c-0.374,0.28-0.611,0.667-0.77,1.064l-0.018-0.018l-1.778,3.207c0.003-0.507,0.049-0.976-0.037-1.503
		c-0.008-0.038-0.02-0.075-0.036-0.11c-0.148-0.353-0.409-0.645-0.697-0.806c-0.287-0.162-0.578-0.201-0.861-0.22
		c-0.567-0.037-1.115,0.053-1.448,0.037c-0.012-0.001-0.024-0.001-0.037,0l-1.888,0.054c0.146-0.07,0.296-0.113,0.421-0.238
		l0.019,0.019c0.011-0.011,0.007-0.027,0.018-0.037c0.458-0.438,0.561-1.081,0.44-1.576c-0.121-0.493-0.402-0.886-0.679-1.21h0.019
		c-0.01-0.014-0.027-0.023-0.037-0.037c-1.074-1.537-2.108-3.132-3.226-4.674c0.889,0.561,1.761,1.129,2.676,1.649
		c0.034,0.023,0.071,0.041,0.11,0.055c0.672,0.19,1.307-0.115,1.668-0.513c0.355-0.391,0.553-0.854,0.715-1.21l0.018-0.018
		L31.858,30.108z M38.31,40.704l0.221,0.403h-0.202C38.329,40.975,38.321,40.848,38.31,40.704z M26.249,40.831
		c0.136,0.07,0.263,0.121,0.422,0.183l-0.513,0.018L26.249,40.831z"/>
	<path opacity="0.1" fill="#FFFFFF" enable-background="new    " d="M37.015,22.989c-2.73,0.028-5.468-0.032-8.192,0.049
		c-0.797,0.813-1.795,0.104-2.838,0.381c-0.837,0.045-1.583,0.466-1.93,1.235c-0.966,1.499-2.02,2.952-2.934,4.48
		c-0.305,0.898,0.583,1.419,1.243,1.782c1.89,1.152,3.736,2.404,5.654,3.494c0.968,0.273,1.436-0.727,1.76-1.44
		c0.68-1.312,1.361-2.623,2.041-3.934c0.369,0.929,2.041,2.366,0.407,2.766c-0.723,0.239-1.313,1.048-0.883,1.789
		c0.549,0.927,1.752,0.488,2.629,0.586c1.713-0.004,3.425-0.008,5.137-0.012c-0.734,0.52-1.636,0.842-2.245,1.507
		c-0.545,0.94,0.42,1.796,0.755,2.628c0.6,1.106,1.201,2.212,1.801,3.319c-0.536,0.006-1.07,0.011-1.606,0.016
		c-0.005-0.751,0.123-1.806-0.786-2.097c-0.768-0.281-1.402,0.372-1.652,1.038c-0.919,1.648-1.837,3.295-2.755,4.943
		c-0.044-1.133,0.117-2.293-0.066-3.409c-0.433-1.029-1.672-0.623-2.533-0.663c-1.58,0.047-3.161,0.093-4.742,0.139
		c0.241-0.486,0.481-0.973,0.721-1.458c0.661,0.342,1.542,0.918,2.196,0.229c0.683-0.616,0.203-1.553-0.287-2.117
		c-1.186-1.695-2.306-3.454-3.531-5.108c-0.716-0.551-1.678-0.128-2.502-0.187c-1.742,0.117-3.496,0.144-5.231,0.318
		c-1.039,0.275-1.044,1.902-0.005,2.193c0.34,0.266,1.288,0.324,0.759,0.888c-1.31,2.379-1.197,5.427,0.374,7.657
		c1.195,1.821,2.643,3.485,4.017,5.156c1.199,0.06,1.515,0.988,2.556,1.589c1.133,0.217,2.321,0.041,3.476,0.099
		c1.314-0.032,2.643,0.064,3.947-0.049c1.052-0.284,0.795-1.516,0.828-2.34c-0.024-0.672-0.032-1.275,0.358-0.353
		c0.984,1.663,1.864,3.401,2.909,5.02c0.707,0.77,2.11,0.05,1.935-0.974c0.006-0.609-0.178-1.404,0.723-1.111
		c2.627,0.035,5.164-1.432,6.415-3.746c1.102-1.896,1.955-3.937,2.838-5.934c-0.38-1.005,0.013-1.592,0.313-2.643
		c-0.011-0.918-0.702-1.659-1.026-2.493c-0.766-1.476-1.463-3.002-2.269-4.449c-0.528-0.598-1.367-0.348-1.898,0.093
		c-0.722,0.433-1.444,0.867-2.165,1.299c1.065-1.908,2.17-3.802,3.211-5.718c0.378-0.989-0.935-1.943-1.753-1.278
		c-0.507,0.503-0.89,0.486-1.103-0.233C40.208,24.433,38.901,23.002,37.015,22.989z"/>
	<path opacity="0.2" fill="#FFFFFF" enable-background="new    " d="M37.048,23.612l-7.914,0.016
		c-0.194-0.001-0.372,0.107-0.462,0.28s-0.075,0.381,0.036,0.539c-0.53-0.262-1.103-0.461-1.77-0.475
		c-0.546-0.011-1.141,0.077-1.77,0.312c-0.1,0.039-0.186,0.107-0.246,0.196l-3.129,4.703c-0.082,0.116-0.112,0.261-0.084,0.4
		c0.028,0.14,0.111,0.261,0.231,0.337l6.095,3.818c0.123,0.077,0.272,0.1,0.412,0.063c0.14-0.037,0.258-0.132,0.326-0.26
		l2.949-5.669c0.035-0.06,0.057-0.127,0.066-0.196c0.859,1.247,1.58,2.633,2.146,3.916l-1.818,0.983
		c-0.216,0.11-0.327,0.354-0.268,0.59c0.059,0.234,0.272,0.398,0.514,0.393l7.143-0.016c0.189,0.003,0.365-0.098,0.459-0.262
		l3.326-5.898c0.133-0.209,0.1-0.484-0.08-0.654c-0.179-0.171-0.455-0.192-0.658-0.051l-1.295,0.82l-0.868-1.524
		c-0.011-0.011-0.021-0.022-0.033-0.033c-0.386-0.581-0.776-1.117-1.295-1.54c-0.518-0.423-1.161-0.715-1.966-0.787
		C37.081,23.611,37.065,23.611,37.048,23.612z M43.914,32.034c-0.076,0.012-0.149,0.039-0.213,0.082l-6.128,3.72
		c-0.238,0.141-0.325,0.443-0.196,0.688l3.031,5.587c0.026,0.049,0.058,0.093,0.099,0.132l-3.31,0.016l-0.017-1.623
		c0.005-0.242-0.159-0.455-0.394-0.514c-0.235-0.058-0.479,0.053-0.59,0.268l-3.277,5.866c-0.088,0.158-0.088,0.35,0,0.508
		l3.277,5.767c0.111,0.22,0.36,0.331,0.598,0.267c0.238-0.064,0.398-0.284,0.385-0.53l0.016-1.851h1.065
		c2.705-0.001,4.398-1.022,5.603-2.655c1.205-1.632,2.011-3.818,3.244-6.341c0.104-0.205,0.062-0.454-0.104-0.612
		c-0.166-0.159-0.417-0.19-0.616-0.075c0.627-0.661,1.134-1.419,1.081-2.261c-0.008-0.069-0.031-0.136-0.066-0.196l-2.981-5.948
		C44.329,32.135,44.127,32.018,43.914,32.034z M23.596,33.476l-6.636,0.36c-0.233,0.017-0.426,0.187-0.472,0.417
		c-0.047,0.229,0.067,0.461,0.276,0.566l1.671,0.836l-0.475,0.967c-1.205,2.421-1.052,4.4-0.131,6.21
		c0.922,1.81,2.519,3.489,4.228,5.718c0.162,0.199,0.447,0.25,0.668,0.119c0.221-0.132,0.313-0.405,0.216-0.644
		c-0.031-0.07-0.023-0.142-0.049-0.213c0.302,1.019,0.819,1.979,1.72,2.36c0.062,0.029,0.128,0.046,0.196,0.049h6.636
		c0.14,0.001,0.274-0.053,0.372-0.152c0.099-0.099,0.153-0.233,0.152-0.372l0.049-7.144c0.001-0.142-0.056-0.279-0.158-0.379
		c-0.102-0.099-0.241-0.152-0.383-0.146l-6.996,0.212c-0.093,0.003-0.183,0.032-0.262,0.082l1.507-3.031l1.458,0.721
		c0.21,0.098,0.459,0.044,0.611-0.131c0.152-0.174,0.17-0.428,0.045-0.623l-3.784-5.554C23.953,33.553,23.779,33.466,23.596,33.476z
		 M22.646,46.354c0.018,0.363,0.075,0.732,0.164,1.098C22.715,47.088,22.631,46.728,22.646,46.354z"/>
	<path opacity="0.3" fill="#669CCC" enable-background="new    " d="M37.048,24.137l-7.914,0.016
		c0.863,0.515,1.99,1.675,2.933,2.998c1.053,1.478,1.909,3.184,2.54,4.67l-2.245,1.212l7.144-0.016l3.326-5.898l-1.77,1.115
		l-1.131-1.999C39.177,25.099,38.472,24.264,37.048,24.137z M26.922,24.497c-0.485-0.01-1.003,0.066-1.573,0.279l-3.129,4.703
		l6.095,3.817l2.949-5.669C30.362,26.375,29.02,24.538,26.922,24.497z M43.962,32.558l-6.128,3.72l3.031,5.587l2.442,0.033
		c1.427,0.016,3.728-1.968,3.637-3.392L43.962,32.558z M23.629,34l-6.636,0.361l2.131,1.065l-0.705,1.425
		c-2.304,4.627,0.597,6.885,4.047,11.387c-0.493-1.117-0.465-2.315-0.033-3.473l3.064-6.161l1.917,0.95L23.629,34z M36.655,40.635
		l-3.276,5.866l3.276,5.767l0.016-2.376h1.59c5.169-0.002,5.881-3.605,8.373-8.7c-0.781,0.94-1.851,1.443-3.081,1.573l-6.881,0.016
		L36.655,40.635z M31.494,42.553l-6.996,0.213l-1.115,2.163c-0.65,1.27,0.111,4.213,1.425,4.768h6.636L31.494,42.553z"/>
	<path opacity="0.3" fill="#669CCC" enable-background="new    " d="M37.048,24.137l-7.914,0.016
		c0.863,0.515,1.99,1.675,2.933,2.998c1.053,1.478,1.909,3.184,2.54,4.67l-2.245,1.212l7.144-0.016l3.326-5.898l-1.77,1.114
		l-1.131-1.999C39.177,25.099,38.472,24.264,37.048,24.137z M26.922,24.497c-0.485-0.01-1.003,0.066-1.573,0.279l-3.129,4.703
		l6.095,3.817l2.949-5.669C30.362,26.375,29.02,24.538,26.922,24.497z M36.966,25.136c0.534,0.048,0.833,0.186,1.147,0.442
		c0.315,0.257,0.623,0.67,0.983,1.212l1.098,1.934c0.089,0.157,0.22,0.287,0.377,0.377l-1.655,2.917l-3.326,0.016
		c0.041-0.204,0.019-0.416-0.066-0.606c-0.65-1.532-1.522-3.284-2.638-4.85c-0.372-0.522-0.78-0.975-1.18-1.425L36.966,25.136z
		 M26.906,25.496c1.331,0.027,2.323,1.152,3.162,2.261l-2.13,4.112l-4.309-2.687l2.343-3.523
		C26.3,25.569,26.624,25.491,26.906,25.496z M43.962,32.558l-6.128,3.72l3.031,5.587l2.442,0.033
		c1.427,0.016,3.728-1.968,3.637-3.392L43.962,32.558z M43.553,33.984l2.359,4.686c-0.042,0.221-0.323,0.82-0.885,1.327
		c-0.614,0.556-1.46,0.904-1.704,0.901l-1.851-0.032l-2.294-4.228L43.553,33.984z M23.629,34l-6.636,0.361l2.131,1.065l-0.705,1.425
		c-2.304,4.627,0.597,6.885,4.047,11.388c-0.493-1.118-0.465-2.315-0.033-3.474l3.064-6.161l1.917,0.95L23.629,34z M23.137,35.032
		l1.852,2.72c-0.169,0.095-0.304,0.238-0.394,0.41l-3.064,6.16c-0.013,0.032-0.023,0.065-0.033,0.099
		c-0.097,0.259-0.086,0.535-0.147,0.803c-0.913-1.14-1.716-2.17-2.18-3.081c-0.766-1.505-0.9-2.744,0.148-4.85l0.704-1.425
		c0.104-0.208,0.134-0.445,0.082-0.671L23.137,35.032z M36.655,40.635l-3.276,5.866l3.276,5.767l0.016-2.376h1.59
		c5.169-0.002,5.881-3.605,8.373-8.7c-0.781,0.94-1.851,1.443-3.081,1.573l-6.881,0.016L36.655,40.635z M31.494,42.553l-6.996,0.213
		l-1.115,2.163c-0.65,1.27,0.111,4.214,1.425,4.768h6.636L31.494,42.553z M44.437,43.536c-0.611,1.325-1.18,2.506-1.785,3.326
		c-1.002,1.356-2.039,2.031-4.391,2.032h-1.59c-0.241,0-0.473,0.087-0.655,0.246l-1.491-2.638l1.606-2.884
		c0.161,0.106,0.348,0.162,0.541,0.164l6.881-0.016c0.033,0.001,0.066,0.001,0.099,0C43.925,43.736,44.171,43.6,44.437,43.536z
		 M30.494,43.585l-0.049,5.112h-5.308c-0.179-0.137-0.612-0.663-0.82-1.393c-0.226-0.797-0.159-1.701-0.049-1.917l0.852-1.638
		L30.494,43.585z"/>
	<path opacity="0.3" fill="#669CCC" enable-background="new    " d="M37.048,24.137l-7.914,0.016
		c0.863,0.515,1.99,1.675,2.933,2.998c1.053,1.478,1.909,3.184,2.54,4.67l-2.245,1.212l7.144-0.016l3.326-5.898l-1.77,1.115
		l-1.131-1.999C39.177,25.099,38.472,24.264,37.048,24.137z M26.922,24.497c-0.485-0.01-1.003,0.066-1.573,0.279l-3.129,4.703
		l6.095,3.817l2.949-5.669C30.362,26.375,29.02,24.538,26.922,24.497z M36.999,24.645c0.62,0.055,1.03,0.247,1.409,0.557
		c0.371,0.304,0.721,0.739,1.082,1.278l0.016,0.033l1.114,1.966c0.067,0.124,0.182,0.216,0.318,0.253
		c0.136,0.037,0.281,0.017,0.402-0.056l0.049-0.033l-2.179,3.867l-4.801,0.016l0.443-0.246c0.234-0.126,0.333-0.41,0.229-0.655
		c-0.641-1.51-1.503-3.245-2.589-4.768c-0.613-0.86-1.288-1.582-1.949-2.196L36.999,24.645z M26.906,25.005
		c1.693,0.034,2.851,1.477,3.736,2.687l-2.523,4.866l-5.178-3.243l2.72-4.08C26.114,25.083,26.523,24.997,26.906,25.005z
		 M43.962,32.558l-6.128,3.72l3.031,5.587l2.442,0.033c1.427,0.016,3.728-1.968,3.637-3.392L43.962,32.558z M43.749,33.279
		l2.671,5.325c-0.007,0.431-0.415,1.165-1.065,1.753c-0.677,0.612-1.577,1.037-2.048,1.032l-2.13-0.032l-2.654-4.9L43.749,33.279z
		 M23.629,34l-6.636,0.361l2.131,1.065l-0.705,1.425c-2.304,4.627,0.597,6.885,4.047,11.387c-0.493-1.117-0.465-2.315-0.033-3.473
		l3.064-6.161l1.917,0.95L23.629,34z M23.367,34.524l2.507,3.703l-0.147-0.082c-0.253-0.125-0.561-0.023-0.688,0.229l-3.064,6.161
		c-0.006,0.016-0.012,0.032-0.016,0.049c-0.213,0.572-0.324,1.162-0.344,1.753c-1.19-1.477-2.266-2.799-2.867-3.982
		c-0.816-1.602-0.967-3.069,0.132-5.276l0.704-1.425c0.125-0.253,0.022-0.561-0.229-0.688l-0.41-0.197L23.367,34.524z
		 M36.655,40.635l-3.276,5.866l3.276,5.767l0.016-2.376h1.59c5.169-0.002,5.881-3.605,8.373-8.7
		c-0.781,0.94-1.851,1.443-3.081,1.573l-6.881,0.016L36.655,40.635z M31.494,42.553l-6.996,0.213l-1.115,2.163
		c-0.65,1.27,0.111,4.213,1.425,4.768h6.636L31.494,42.553z M36.163,42.553v0.229c0.004,0.279,0.229,0.503,0.508,0.508l6.881-0.016
		c0.016,0.001,0.033,0.001,0.049,0c0.61-0.065,1.182-0.245,1.72-0.491c-0.796,1.736-1.503,3.287-2.294,4.358
		c-1.066,1.444-2.303,2.243-4.768,2.245h-1.59c-0.279,0.004-0.504,0.229-0.508,0.508v0.459l-2.196-3.867L36.163,42.553z
		 M30.986,43.078l-0.049,6.111h-5.964c-0.385-0.189-0.872-0.898-1.115-1.753c-0.249-0.878-0.23-1.859-0.016-2.278l0.983-1.901
		L30.986,43.078z"/>
</g>
</svg>
