<?xml version="1.0" encoding="utf-8"?>
<!-- Generator: Adobe Illustrator 16.0.0, SVG Export Plug-In . SVG Version: 6.00 Build 0)  -->
<!DOCTYPE svg PUBLIC "-//W3C//DTD SVG 1.1//EN" "http://www.w3.org/Graphics/SVG/1.1/DTD/svg11.dtd" [
	<!ENTITY ns_flows "http://ns.adobe.com/Flows/1.0/">
	<!ENTITY ns_extend "http://ns.adobe.com/Extensibility/1.0/">
	<!ENTITY ns_ai "http://ns.adobe.com/AdobeIllustrator/10.0/">
	<!ENTITY ns_graphs "http://ns.adobe.com/Graphs/1.0/">
]>
<svg version="1.1" id="图层_1" xmlns:x="&ns_extend;" xmlns:i="&ns_ai;" xmlns:graph="&ns_graphs;"
	 xmlns="http://www.w3.org/2000/svg" xmlns:xlink="http://www.w3.org/1999/xlink" xmlns:a="http://ns.adobe.com/AdobeSVGViewerExtensions/3.0/"
	 x="0px" y="0px" width="48px" height="48px" viewBox="0 0 48 48" style="enable-background:new 0 0 48 48;" xml:space="preserve">
<style type="text/css">
<![CDATA[
	.st0{opacity:0.1;fill-opacity:0.8;enable-background:new    ;}
	.st1{opacity:0.4;fill-opacity:0.8;enable-background:new    ;}
	.st2{fill:#E0E6E4;}
	.st3{opacity:0.05;enable-background:new    ;}
	.st4{display:inline;opacity:0.3;fill-opacity:0.6;enable-background:new    ;}
	.st5{opacity:0.5;fill:#9FA0A0;enable-background:new    ;}
	.st6{display:inline;fill:#F7F8F8;}
	.st7{opacity:0.3;fill-opacity:0.8;enable-background:new    ;}
	.st8{opacity:0.7;fill:#FCFCFC;enable-background:new    ;}
	.st9{fill:url(#SVGID_2_);}
	.st10{fill:url(#SVGID_3_);}
	.st11{fill:url(#SVGID_4_);}
	.st12{fill:url(#SVGID_5_);}
	.st13{fill:url(#SVGID_6_);}
	.st14{fill:url(#SVGID_7_);}
	.st15{fill:url(#SVGID_8_);}
	.st16{fill:#FAFBFC;}
	.st17{display:inline;opacity:0.2;fill-opacity:0.4;enable-background:new    ;}
	.st18{fill:#9FA0A0;}
	.st19{opacity:0.08;enable-background:new    ;}
	.st20{opacity:0.2;fill-opacity:0.8;enable-background:new    ;}
	.st21{opacity:0.5;fill-opacity:0.8;enable-background:new    ;}
	.st22{opacity:0.6;fill:url(#SVGID_9_);enable-background:new    ;}
	.st23{fill:url(#SVGID_10_);}
	.st24{display:none;}
	.st25{opacity:0.1;enable-background:new    ;}
	.st26{display:inline;opacity:0.1;fill-opacity:0.2;enable-background:new    ;}
	.st27{display:inline;fill:url(#SVGID_1_);}
	.st28{opacity:0.15;enable-background:new    ;}
]]>
</style>
<g class="st24">
	<path class="st26" d="M397.7832031,31.5234375c0,12.5117188-10.1445313,22.65625-22.6572266,22.65625H188.4404297
		c-12.5136719,0-22.6582031-10.1445313-22.6582031-22.65625v-186.6933594c0-12.5136719,10.1445313-22.65625,22.6582031-22.65625
		h186.6855469c12.5126953,0,22.6572266,10.1425781,22.6572266,22.65625V31.5234375z"/>
	<path class="st17" d="M397.7832031,27.0039063c0,12.5117188-10.1445313,22.65625-22.6572266,22.65625H188.4404297
		c-12.5136719,0-22.6582031-10.1445313-22.6582031-22.65625V-159.6875c0-12.5136719,10.1445313-22.65625,22.6582031-22.65625
		h186.6855469c12.5126953,0,22.6572266,10.1425781,22.6572266,22.65625V27.0039063z"/>
	<path class="st4" d="M397.7832031,23.0449219c0,12.5117188-10.1445313,22.65625-22.6572266,22.65625H188.4404297
		c-12.5136719,0-22.6582031-10.1445313-22.6582031-22.65625v-186.6914063c0-12.5117188,10.1445313-22.65625,22.6582031-22.65625
		h186.6855469c12.5126953,0,22.6572266,10.1445313,22.6572266,22.65625V23.0449219z"/>
</g>
<g class="st24">
	<path class="st6" d="M374.6376953-186.2949219H188.9267578c-10.6835938,0-19.34375,8.6601563-19.34375,19.34375V18.7617188
		c0,10.6835938,8.6601563,19.34375,19.34375,19.34375h185.7109375c10.6845703,0,19.3466797-8.6601563,19.3466797-19.34375
		v-185.7128906C393.984375-177.6347656,385.3222656-186.2949219,374.6376953-186.2949219z M390,17.2558594
		c0,9.265625-7.5117188,16.7773438-16.7783203,16.7773438H190.5224609c-9.2675781,0-16.7773438-7.5117188-16.7773438-16.7773438
		v-182.7011719c0-9.265625,7.5097656-16.7773438,16.7773438-16.7773438h182.6992188
		c9.2666016,0,16.7783203,7.5117188,16.7783203,16.7773438V17.2558594z"/>
	
		<linearGradient id="SVGID_1_" gradientUnits="userSpaceOnUse" x1="555.609375" y1="-157.8173828" x2="555.609375" y2="-389.8198242" gradientTransform="matrix(1 0 0 -1 -273.6601563 -347.9599609)">
		<stop  offset="0" style="stop-color:#C9CACA"/>
		<stop  offset="1" style="stop-color:#9FA0A0"/>
		<a:midPointStop  offset="0" style="stop-color:#C9CACA"/>
		<a:midPointStop  offset="0.5" style="stop-color:#C9CACA"/>
		<a:midPointStop  offset="1" style="stop-color:#9FA0A0"/>
	</linearGradient>
	<path class="st27" d="M375.2939453-190.1425781H188.6083984c-12.5136719,0-22.6582031,10.1445313-22.6582031,22.65625V19.203125
		c0,12.5117188,10.1445313,22.65625,22.6582031,22.65625h186.6855469c12.5126953,0,22.6572266-10.1445313,22.6572266-22.65625
		v-186.6894531C397.9511719-179.9980469,387.8066406-190.1425781,375.2939453-190.1425781z M394.0625,18.7148438
		c0,10.6835938-8.6621094,19.34375-19.3466797,19.34375H189.0048828c-10.6835938,0-19.34375-8.6601563-19.34375-19.34375
		v-185.7128906c0-10.6835938,8.6601563-19.34375,19.34375-19.34375h185.7109375
		c10.6845703,0,19.3466797,8.6601563,19.3466797,19.34375V18.7148438z"/>
</g>
<path class="st5" d="M46,39.5087891c0,3.0371094-2.4628906,5.5-5.5,5.5h-33c-3.0371094,0-5.5-2.4628906-5.5-5.5v-33
	c0-3.0371094,2.4628906-5.5,5.5-5.5h33c3.0371094,0,5.5,2.4628906,5.5,5.5V39.5087891z"/>
<g>
	
		<linearGradient id="SVGID_2_" gradientUnits="userSpaceOnUse" x1="571.3203125" y1="810.1582031" x2="571.3203125" y2="790.7172852" gradientTransform="matrix(1 0 0 1 -547.3203125 -791.9199219)">
		<stop  offset="0.4726" style="stop-color:#FFFFFF;stop-opacity:0.2"/>
		<stop  offset="1" style="stop-color:#FFFFFF"/>
		<a:midPointStop  offset="0.4726" style="stop-color:#FFFFFF;stop-opacity:0.2"/>
		<a:midPointStop  offset="0.5" style="stop-color:#FFFFFF;stop-opacity:0.2"/>
		<a:midPointStop  offset="1" style="stop-color:#FFFFFF"/>
	</linearGradient>
	<path class="st9" d="M43.9667969,13.7294922c0,2.4902344-1.6835938,4.5078125-3.9609375,4.5078125H7.9926758
		c-2.2792969,0-3.9589844-2.0175781-3.9589844-4.5078125L3.5375977,6.3530273c0-2.4892578,1.6816406-4.34375,3.9589844-4.34375H40.5
		c2.2792969,0,3.9628906,1.8544922,3.9628906,4.34375L43.9667969,13.7294922z"/>
	<g>
		
			<radialGradient id="SVGID_3_" cx="579.6884766" cy="805.8232422" r="16.818367" gradientTransform="matrix(0.9738 0 0 1 -547.1895142 -791.9199219)" gradientUnits="userSpaceOnUse">
			<stop  offset="0.4051" style="stop-color:#FFFFFF;stop-opacity:0"/>
			<stop  offset="1" style="stop-color:#FFFFFF"/>
			<a:midPointStop  offset="0.4051" style="stop-color:#FFFFFF;stop-opacity:0"/>
			<a:midPointStop  offset="0.5" style="stop-color:#FFFFFF;stop-opacity:0"/>
			<a:midPointStop  offset="1" style="stop-color:#FFFFFF"/>
		</radialGradient>
		<path class="st10" d="M13.7348633,2.0092773H9.9516602c0.2773438,0.8183594,0.5,1.7011719,0.75,2.5332031
			C11.6079102,3.675293,12.7836914,2.7924805,13.7348633,2.0092773z M6.0356445,10.9111328
			c-0.6015625,0.8925781-1.4326172,1.9257813-1.9570313,2.8046875c0.8535156,3.4785156,3.0488281,3.6015625,3.0488281,3.6015625
			s1.5537109,0.2792969,2.4892578-1.1914063c0.125-0.2324219,0.2480469-0.4648438,0.3691406-0.6972656
			C8.6313477,14.0830078,7.2758789,12.4365234,6.0356445,10.9111328z M6.5375977,10.2783203
			c1.1982422,1.4707031,2.5390625,3.0742188,3.8505859,4.3710938c0.4296875-0.8476563,0.9873047-1.9160156,1.4169922-2.7617188
			c-0.4443359-1.9335938-1.0244141-4.0766602-1.5507813-5.949707C9.0708008,7.222168,7.7563477,8.8154297,6.5375977,10.2783203z
			 M14.8442383,2.0092773c-0.2597656,0.2011719-0.5019531,0.4023438-0.7539063,0.609375
			c-1.0800781,0.8828125-2.1269531,1.7314453-3.1992188,2.7714844c0.4863281,1.7128906,0.9970703,3.737793,1.421875,5.4897461
			c1.7910156-3.3686523,3.9970703-6.6479492,8.0976563-8.8706055H14.8442383z M10.0844727,5.0893555
			C9.7680664,4.0249023,9.4692383,3.0483398,9.1118164,2.0092773H7.5532227c-2.1816406,0-3.8222656,1.8183594-4,4.1953125
			C4.3598633,7.4067383,5.199707,8.4755859,6.074707,9.5888672C7.3383789,8.0185547,8.699707,6.4663086,10.0844727,5.0893555z
			 M3.6147461,7.7348633l0.3076172,4.715332c0.5039063-0.7148438,1.1230469-1.4785156,1.6533203-2.1621094
			C4.940918,9.4814453,4.2133789,8.5888672,3.6147461,7.7348633z"/>
	</g>
</g>
<path class="st8" d="M40.5,2.0068359h-33c-2.4814453,0-4.5,2.0185547-4.5,4.5v33c0,2.4814453,2.0185547,4.5,4.5,4.5h33
	c2.4814453,0,4.5-2.0185547,4.5-4.5v-33C45,4.0253906,42.9814453,2.0068359,40.5,2.0068359z M44,39.5068359
	c0,1.9296875-1.5703125,3.5-3.5,3.5h-33c-1.9296875,0-3.5-1.5703125-3.5-3.5v-33c0-1.9296875,1.5703125-3.5,3.5-3.5h33
	c1.9296875,0,3.5,1.5703125,3.5,3.5V39.5068359z"/>
<linearGradient id="SVGID_4_" gradientUnits="userSpaceOnUse" x1="297.6601563" y1="-392.9663086" x2="297.6601563" y2="-348.9667969" gradientTransform="matrix(1 0 0 -1 -273.6601563 -347.9599609)">
	<stop  offset="0" style="stop-color:#000000;stop-opacity:0.2"/>
	<stop  offset="0.7722" style="stop-color:#231815;stop-opacity:0"/>
	<a:midPointStop  offset="0" style="stop-color:#000000;stop-opacity:0.2"/>
	<a:midPointStop  offset="0.5" style="stop-color:#000000;stop-opacity:0.2"/>
	<a:midPointStop  offset="0.7722" style="stop-color:#231815;stop-opacity:0"/>
</linearGradient>
<path class="st11" d="M40.5,1.0068359h-33c-3.0371094,0-5.5,2.4628906-5.5,5.5v33c0,3.0371094,2.4628906,5.5,5.5,5.5h33
	c3.0371094,0,5.5-2.4628906,5.5-5.5v-33C46,3.4697266,43.5371094,1.0068359,40.5,1.0068359z M45,39.5068359
	c0,2.4814453-2.0185547,4.5-4.5,4.5h-33c-2.4814453,0-4.5-2.0185547-4.5-4.5v-33c0-2.4814453,2.0185547-4.5,4.5-4.5h33
	c2.4814453,0,4.5,2.0185547,4.5,4.5V39.5068359z"/>
<g>
	<path class="st18" d="M28.6933594,33.9765625h-4.7006836h-0.0751953h-4.7006836c0,0,0.3291016,4.2285156-2.0625,5.4433594
		h6.7631836h0.0751953h6.7631836C28.3652344,38.2050781,28.6933594,33.9765625,28.6933594,33.9765625z"/>
	
		<linearGradient id="SVGID_5_" gradientUnits="userSpaceOnUse" x1="297.6162109" y1="-387.3793945" x2="297.6162109" y2="-381.9360352" gradientTransform="matrix(1 0 0 -1 -273.6601563 -347.9599609)">
		<stop  offset="0" style="stop-color:#727171"/>
		<stop  offset="0.377637" style="stop-color:#F7F8F8"/>
		<stop  offset="0.852321" style="stop-color:#595257"/>
		<a:midPointStop  offset="0" style="stop-color:#727171"/>
		<a:midPointStop  offset="0.5" style="stop-color:#727171"/>
		<a:midPointStop  offset="0.377637" style="stop-color:#F7F8F8"/>
		<a:midPointStop  offset="0.5" style="stop-color:#F7F8F8"/>
		<a:midPointStop  offset="0.852321" style="stop-color:#595257"/>
	</linearGradient>
	<path class="st12" d="M28.5820313,33.9765625h-4.590332H23.918457h-4.590332c0,0,0.3217773,4.2285156-2.0131836,5.4433594
		h6.6035156h0.0732422h6.6040039C28.2597656,38.2050781,28.5820313,33.9765625,28.5820313,33.9765625z"/>
	<path class="st2" d="M31.1601563,39.7167969c0,0.265625-0.2070313,0.4804688-0.4648438,0.4804688h-13.40625
		c-0.2558594,0-0.4633789-0.2148438-0.4633789-0.4804688l0,0c0-0.2675781,0.2075195-0.4824219,0.4633789-0.4824219h13.40625
		C30.953125,39.234375,31.1601563,39.4492188,31.1601563,39.7167969L31.1601563,39.7167969z"/>
	<path class="st0" d="M31.1601563,40.5390625c0,0.2675781-0.2070313,0.4824219-0.4648438,0.4824219h-13.40625
		c-0.2558594,0-0.4633789-0.2148438-0.4633789-0.4824219l0,0c0-0.265625,0.2075195-0.4804688,0.4633789-0.4804688h13.40625
		C30.953125,40.0585938,31.1601563,40.2734375,31.1601563,40.5390625L31.1601563,40.5390625z"/>
	<path class="st20" d="M31.1601563,40.3632813c0,0.265625-0.2070313,0.4804688-0.4648438,0.4804688h-13.40625
		c-0.2558594,0-0.4633789-0.2148438-0.4633789-0.4804688l0,0c0-0.265625,0.2075195-0.4824219,0.4633789-0.4824219h13.40625
		C30.953125,39.8808594,31.1601563,40.0976563,31.1601563,40.3632813L31.1601563,40.3632813z"/>
	<path class="st7" d="M31.1601563,40.1875c0,0.265625-0.2070313,0.4804688-0.4648438,0.4804688h-13.40625
		c-0.2558594,0-0.4633789-0.2148438-0.4633789-0.4804688l0,0c0-0.2675781,0.2075195-0.4824219,0.4633789-0.4824219h13.40625
		C30.953125,39.7050781,31.1601563,39.9199219,31.1601563,40.1875L31.1601563,40.1875z"/>
	<path class="st1" d="M31.1601563,40.0097656c0,0.265625-0.2070313,0.4804688-0.4648438,0.4804688h-13.40625
		c-0.2558594,0-0.4633789-0.2148438-0.4633789-0.4804688l0,0c0-0.265625,0.2075195-0.4824219,0.4633789-0.4824219h13.40625
		C30.953125,39.5273438,31.1601563,39.7441406,31.1601563,40.0097656L31.1601563,40.0097656z"/>
	<path class="st21" d="M31.1582031,39.8710938c0,0.265625-0.2089844,0.4804688-0.4648438,0.4804688H17.2861328
		c-0.2558594,0-0.4628906-0.2148438-0.4628906-0.4804688l0,0c0-0.265625,0.2070313-0.4804688,0.4628906-0.4804688h13.4072266
		C30.9492188,39.390625,31.1582031,39.6054688,31.1582031,39.8710938L31.1582031,39.8710938z"/>
	
		<linearGradient id="SVGID_6_" gradientUnits="userSpaceOnUse" x1="297.6523438" y1="-387.1948242" x2="297.6523438" y2="-388.1577148" gradientTransform="matrix(1 0 0 -1 -273.6601563 -347.9599609)">
		<stop  offset="0" style="stop-color:#B5B5B6"/>
		<stop  offset="1" style="stop-color:#898989"/>
		<a:midPointStop  offset="0" style="stop-color:#B5B5B6"/>
		<a:midPointStop  offset="0.5" style="stop-color:#B5B5B6"/>
		<a:midPointStop  offset="1" style="stop-color:#898989"/>
	</linearGradient>
	<path class="st13" d="M31.1601563,39.7167969c0,0.265625-0.2070313,0.4804688-0.4648438,0.4804688h-13.40625
		c-0.2558594,0-0.4633789-0.2148438-0.4633789-0.4804688l0,0c0-0.2675781,0.2075195-0.4824219,0.4633789-0.4824219h13.40625
		C30.953125,39.234375,31.1601563,39.4492188,31.1601563,39.7167969L31.1601563,39.7167969z"/>
	
		<linearGradient id="SVGID_7_" gradientUnits="userSpaceOnUse" x1="297.6542969" y1="-387.8813477" x2="297.6542969" y2="-387.3110352" gradientTransform="matrix(1 0 0 -1 -273.6601563 -347.9599609)">
		<stop  offset="0" style="stop-color:#FFFFFF;stop-opacity:0.15"/>
		<stop  offset="0.919831" style="stop-color:#FFFFFF"/>
		<a:midPointStop  offset="0" style="stop-color:#FFFFFF;stop-opacity:0.15"/>
		<a:midPointStop  offset="0.5" style="stop-color:#FFFFFF;stop-opacity:0.15"/>
		<a:midPointStop  offset="0.919831" style="stop-color:#FFFFFF"/>
	</linearGradient>
	<path class="st14" d="M17.2890625,39.921875c-0.1479492,0-0.2680664-0.1269531-0.2680664-0.2851563
		c0-0.15625,0.1201172-0.2851563,0.2680664-0.2851563h13.40625c0.1484375,0,0.2695313,0.1289063,0.2695313,0.2851563
		c0,0.1582031-0.1210938,0.2851563-0.2695313,0.2851563H17.2890625z"/>
	<path class="st16" d="M7.7680664,34.4414063c-0.9829102,0-1.7880859-0.7958984-1.7880859-1.7724609V6.7700195
		c0-0.9750977,0.8051758-1.7734375,1.7880859-1.7734375h32.4643555c0.9833984,0,1.7880859,0.7983398,1.7880859,1.7734375v25.8989258
		c0,0.9765625-0.8046875,1.7724609-1.7880859,1.7724609H7.7680664z"/>
	<path d="M41.6210938,32.2382813c0,0.9550781-0.7949219,1.7373047-1.765625,1.7373047H8.1445313
		c-0.9711914,0-1.7661133-0.7822266-1.7661133-1.7373047V7.1953125c0-0.9560547,0.7949219-1.7382813,1.7661133-1.7382813h31.7109375
		c0.9707031,0,1.765625,0.7822266,1.765625,1.7382813V32.2382813z"/>
	
		<linearGradient id="SVGID_8_" gradientUnits="userSpaceOnUse" x1="297.6611328" y1="-377.3110352" x2="297.6611328" y2="-355.2617188" gradientTransform="matrix(1 0 0 -1 -273.6601563 -347.9599609)">
		<stop  offset="0" style="stop-color:#58FFE9"/>
		<stop  offset="0.3801128" style="stop-color:#34CED5"/>
		<stop  offset="0.7936578" style="stop-color:#119EC2"/>
		<stop  offset="1" style="stop-color:#038CBB"/>
		<a:midPointStop  offset="0" style="stop-color:#58FFE9"/>
		<a:midPointStop  offset="0.5" style="stop-color:#58FFE9"/>
		<a:midPointStop  offset="0.3801128" style="stop-color:#34CED5"/>
		<a:midPointStop  offset="0.5" style="stop-color:#34CED5"/>
		<a:midPointStop  offset="0.7936578" style="stop-color:#119EC2"/>
		<a:midPointStop  offset="0.5" style="stop-color:#119EC2"/>
		<a:midPointStop  offset="1" style="stop-color:#038CBB"/>
	</linearGradient>
	<rect x="7.9223633" y="7.3017578" class="st15" width="32.1557617" height="22.0498047"/>
	
		<linearGradient id="SVGID_9_" gradientUnits="userSpaceOnUse" x1="289.8662109" y1="-355.2617188" x2="289.8662109" y2="-377.3120117" gradientTransform="matrix(1 0 0 -1 -273.6601563 -347.9599609)">
		<stop  offset="0" style="stop-color:#EFEFEF"/>
		<stop  offset="1" style="stop-color:#9FA0A0;stop-opacity:0"/>
		<a:midPointStop  offset="0" style="stop-color:#EFEFEF"/>
		<a:midPointStop  offset="0.5" style="stop-color:#EFEFEF"/>
		<a:midPointStop  offset="1" style="stop-color:#9FA0A0;stop-opacity:0"/>
	</linearGradient>
	<polygon class="st22" points="10.7080078,29.3515625 7.9223633,29.3515625 7.9223633,7.3017578 24.4916992,7.3017578 	"/>
	
		<radialGradient id="SVGID_10_" cx="-437.9365234" cy="-61.3447266" r="14.0890427" gradientTransform="matrix(-4.371139e-008 -0.8571 -1.6082699 6.025388e-008 -74.5369949 -346.0299377)" gradientUnits="userSpaceOnUse">
		<stop  offset="0" style="stop-color:#93FFE0"/>
		<stop  offset="1" style="stop-color:#2EA7E0;stop-opacity:0"/>
		<a:midPointStop  offset="0" style="stop-color:#93FFE0"/>
		<a:midPointStop  offset="0.5" style="stop-color:#93FFE0"/>
		<a:midPointStop  offset="1" style="stop-color:#2EA7E0;stop-opacity:0"/>
	</radialGradient>
	<rect x="8.7597656" y="12.1328125" class="st23" width="30.34375" height="17.21875"/>
</g>
<g>
	<path class="st19" d="M40.5283203,44.984375h-33c-3.0371094,0-5.5-2.4628906-5.5-5.5v4.21875
		C2.0283203,46.0761719,3.9521484,48,6.3251953,48h35.40625c2.3730469,0,4.296875-1.9238281,4.296875-4.296875v-4.21875
		C46.0283203,42.5214844,43.5654297,44.984375,40.5283203,44.984375z"/>
	<path class="st25" d="M40.5,45.0283203h-33c-3.0371094,0-5.5-2.4628906-5.5-5.5v2.2080078
		c0,2.3730469,1.0615234,5.2978516,5.2973633,5.2978516s29.1118164,0,33.4047852,0S46,44.109375,46,41.7363281v-2.2080078
		C46,42.5654297,43.5371094,45.0283203,40.5,45.0283203z"/>
	<path class="st28" d="M40.5,45.0283203h-33c-3.0371094,0-5.5-2.4628906-5.5-5.5v1.1923828
		c0,2.3730469,1.8291016,5.2978516,5.2973633,5.2978516s29.4331055,0,33.4047852,0S46,43.09375,46,40.7207031v-1.1923828
		C46,42.5654297,43.5371094,45.0283203,40.5,45.0283203z"/>
	<rect x="6.9472656" y="44.9970703" class="st3" width="33.9697266" height="1.0214844"/>
	<rect x="8.4892578" y="44.9970703" class="st3" width="30.8857422" height="1.0214844"/>
	<rect x="8.4873047" y="46.0185547" class="st3" width="30.8876953" height="1.0214844"/>
	<rect x="10.1533203" y="46.0185547" class="st3" width="27.5556641" height="1.0214844"/>
	<rect x="13.1953125" y="46.0185547" class="st3" width="21.4716797" height="1.0214844"/>
	<rect x="16.7021484" y="46.0185547" class="st3" width="14.4580078" height="1.0214844"/>
	<rect x="10.1533203" y="44.9970703" class="st3" width="27.5556641" height="1.0214844"/>
	<rect x="11.6953125" y="44.9970703" class="st3" width="24.4716797" height="1.0214844"/>
	<rect x="13.1953125" y="44.9970703" class="st3" width="21.4716797" height="1.0214844"/>
	<rect x="14.6542969" y="44.9970703" class="st3" width="18.5537109" height="1.0214844"/>
	<rect x="14.6542969" y="44.9970703" class="st3" width="18.5537109" height="1.0214844"/>
</g>
</svg>
