<?xml version="1.0" encoding="UTF-8" standalone="no"?>
<svg
   xmlns:dc="http://purl.org/dc/elements/1.1/"
   xmlns:cc="http://creativecommons.org/ns#"
   xmlns:rdf="http://www.w3.org/1999/02/22-rdf-syntax-ns#"
   xmlns:svg="http://www.w3.org/2000/svg"
   xmlns="http://www.w3.org/2000/svg"
   xmlns:sodipodi="http://sodipodi.sourceforge.net/DTD/sodipodi-0.dtd"
   xmlns:inkscape="http://www.inkscape.org/namespaces/inkscape"
   width="16"
   viewBox="0 0 16 16"
   height="16"
   id="svg2"
   version="1.1"
   inkscape:version="0.91pre2 r"
   sodipodi:docname="audio-volume-low-symbolic.svg">
  <metadata
     id="metadata34">
    <rdf:RDF>
      <cc:Work
         rdf:about="">
        <dc:format>image/svg+xml</dc:format>
        <dc:type
           rdf:resource="http://purl.org/dc/dcmitype/StillImage" />
        <dc:title />
      </cc:Work>
    </rdf:RDF>
  </metadata>
  <sodipodi:namedview
     pagecolor="#ffffff"
     bordercolor="#666666"
     borderopacity="1"
     objecttolerance="10"
     gridtolerance="10"
     guidetolerance="10"
     inkscape:pageopacity="0"
     inkscape:pageshadow="2"
     inkscape:window-width="1366"
     inkscape:window-height="672"
     id="namedview32"
     showgrid="true"
     inkscape:showpageshadow="false"
     borderlayer="true"
     inkscape:zoom="14.75"
     inkscape:cx="17.489762"
     inkscape:cy="8.8884131"
     inkscape:window-x="-4"
     inkscape:window-y="25"
     inkscape:window-maximized="1"
     inkscape:current-layer="svg2">
    <inkscape:grid
       type="xygrid"
       id="grid4190" />
    <sodipodi:guide
       position="0,16"
       orientation="16,0"
       id="guide4196" />
    <sodipodi:guide
       position="0,0"
       orientation="0,16"
       id="guide4198" />
    <sodipodi:guide
       position="16,0"
       orientation="-16,0"
       id="guide4200" />
    <sodipodi:guide
       position="16,16"
       orientation="0,-16"
       id="guide4202" />
    <sodipodi:guide
       position="2,14"
       orientation="12,0"
       id="guide4204" />
    <sodipodi:guide
       position="2,2"
       orientation="0,12"
       id="guide4206" />
    <sodipodi:guide
       position="14,2"
       orientation="-12,0"
       id="guide4208" />
    <sodipodi:guide
       position="14,14"
       orientation="0,-12"
       id="guide4210" />
  </sodipodi:namedview>
  <defs
     id="defs4">
    <clipPath
       id="clipPath6">
      <rect
         x="26.999"
         y="221.5"
         width="1.876"
         height="4.874"
         fill="#bebebe"
         color="#bebebe"
         id="rect8" />
    </clipPath>
    <clipPath
       id="clipPath10">
      <rect
         x="26.966"
         y="221.33"
         width="2.898"
         height="5.216"
         fill="#bebebe"
         color="#bebebe"
         id="rect12" />
    </clipPath>
    <clipPath
       id="clipPath14">
      <rect
         x="26.85"
         y="220.75"
         width="3.825"
         height="6.375"
         fill="#bebebe"
         color="#bebebe"
         id="rect16" />
    </clipPath>
    <clipPath
       id="clipPath6-3">
      <rect
         id="rect8-7"
         color="#bebebe"
         fill="#bebebe"
         height="4.874"
         width="1.876"
         y="221.5"
         x="26.999" />
    </clipPath>
    <clipPath
       id="clipPath10-3">
      <rect
         id="rect12-5"
         color="#bebebe"
         fill="#bebebe"
         height="5.216"
         width="2.898"
         y="221.33"
         x="26.966" />
    </clipPath>
    <clipPath
       id="clipPath14-5">
      <rect
         id="rect16-4"
         color="#bebebe"
         fill="#bebebe"
         height="6.375"
         width="3.825"
         y="220.75"
         x="26.85" />
    </clipPath>
  </defs>
  <path
     inkscape:connector-curvature="0"
     style="opacity:1;fill:#bebebe;fill-opacity:1;stroke:none"
     d="m 8.59375,0 -5,5 L 1,5 0,5 l 0,1 0,4 0,1 1,0 2.59375,0 5,5 0.0059,-0.0059 0,0.0059 L 11,16 11,15 11,0 8.599609,0 l 0,0.00586 L 8.59375,0 Z M 9.007812,1 10,1 10,15 9.007812,15 4.0078125,10 4,10.007812 4,10 4,5.9921875 4.0078125,6 9.007812,1 Z M 1,6 2,6 2,10 1,10 1,6 Z"
     id="rect4120" />
  <path
     inkscape:connector-curvature="0"
     style="opacity:0.3;fill:#bebebe;fill-opacity:1;stroke:none"
     d="M 12.246094,3.7539062 11.539062,4.4609375 C 12.442813,5.3646875 13,6.615 13,8 c 0,1.385 -0.557188,2.635312 -1.460938,3.539062 l 0.707032,0.707032 C 13.330594,11.161594 14,9.662 14,8 14,6.338 13.330594,4.8384062 12.246094,3.7539062 Z"
     id="rect4180" />
  <path
     inkscape:connector-curvature="0"
     style="opacity:0.3;fill:#bebebe;fill-opacity:1;stroke:none"
     d="M 13.662109,2.3378906 12.955078,3.0449219 C 14.220328,4.3101719 15,6.061 15,8 c 0,1.939 -0.779672,3.689828 -2.044922,4.955078 l 0.707031,0.707031 C 15.108109,12.216109 16,10.216 16,8 16,5.784 15.108109,3.7838906 13.662109,2.3378906 Z"
     id="rect4192" />
</svg>
