<?xml version="1.0" encoding="UTF-8" standalone="no"?>
<!-- Created with Inkscape (http://www.inkscape.org/) -->

<svg
   xmlns:dc="http://purl.org/dc/elements/1.1/"
   xmlns:cc="http://creativecommons.org/ns#"
   xmlns:rdf="http://www.w3.org/1999/02/22-rdf-syntax-ns#"
   xmlns:svg="http://www.w3.org/2000/svg"
   xmlns="http://www.w3.org/2000/svg"
   xmlns:sodipodi="http://sodipodi.sourceforge.net/DTD/sodipodi-0.dtd"
   xmlns:inkscape="http://www.inkscape.org/namespaces/inkscape"
   id="svg7384"
   height="16"
   width="16"
   version="1.1"
   inkscape:version="0.91pre2 r"
   sodipodi:docname="network-wired-disconnected-symbolic.svg">
  <defs
     id="defs13" />
  <sodipodi:namedview
     pagecolor="#ffffff"
     bordercolor="#666666"
     borderopacity="1"
     objecttolerance="10"
     gridtolerance="10"
     guidetolerance="10"
     inkscape:pageopacity="0"
     inkscape:pageshadow="2"
     inkscape:window-width="1366"
     inkscape:window-height="672"
     id="namedview11"
     showgrid="true"
     inkscape:zoom="20.898422"
     inkscape:cx="10.380466"
     inkscape:cy="13.53991"
     inkscape:window-x="-4"
     inkscape:window-y="25"
     inkscape:window-maximized="1"
     inkscape:current-layer="svg7384"
     inkscape:showpageshadow="false"
     borderlayer="true">
    <inkscape:grid
       type="xygrid"
       id="grid4135" />
    <sodipodi:guide
       position="0,16"
       orientation="16,0"
       id="guide4141" />
    <sodipodi:guide
       position="0,0"
       orientation="0,16"
       id="guide4143" />
    <sodipodi:guide
       position="16,0"
       orientation="-16,0"
       id="guide4145" />
    <sodipodi:guide
       position="16,16"
       orientation="0,-16"
       id="guide4147" />
    <sodipodi:guide
       position="2,14"
       orientation="12,0"
       id="guide4149" />
    <sodipodi:guide
       position="2,2"
       orientation="0,12"
       id="guide4151" />
    <sodipodi:guide
       position="14,2"
       orientation="-12,0"
       id="guide4153" />
    <sodipodi:guide
       position="14,14"
       orientation="0,-12"
       id="guide4155" />
  </sodipodi:namedview>
  <metadata
     id="metadata90">
    <rdf:RDF>
      <cc:Work
         rdf:about="">
        <dc:format>image/svg+xml</dc:format>
        <dc:type
           rdf:resource="http://purl.org/dc/dcmitype/StillImage" />
        <dc:title>Gnome Symbolic Icon Theme</dc:title>
      </cc:Work>
    </rdf:RDF>
  </metadata>
  <title
     id="title9167">Gnome Symbolic Icon Theme</title>
  <path
     style="color:#000000;text-decoration:none;text-decoration-line:none;text-decoration-style:solid;text-decoration-color:#000000;clip-rule:nonzero;display:inline;overflow:visible;visibility:visible;opacity:1;isolation:auto;mix-blend-mode:normal;color-interpolation:sRGB;color-interpolation-filters:linearRGB;solid-color:#000000;solid-opacity:1;fill:#f57900;fill-opacity:1;fill-rule:nonzero;stroke:none;stroke-width:1;stroke-linecap:butt;stroke-linejoin:miter;stroke-miterlimit:4;stroke-dasharray:none;stroke-dashoffset:0;stroke-opacity:1;color-rendering:auto;image-rendering:auto;shape-rendering:auto;text-rendering:auto;enable-background:accumulate"
     d="m 13,5 0,3 1,0 0,-3 -1,0 z m 0,4 0,1 1,0 0,-1 -1,0 z"
     id="rect4183"
     inkscape:connector-curvature="0" />
  <g
     style="fill:#bebebe;fill-opacity:1"
     inkscape:label="Capa 1"
     id="layer1"
     transform="translate(-556.72253,-586.11926)">
    <path
       id="rect4161"
       d="m 556.72253,586.11926 0,10 0,1 1,0 4,0 1,1 3,0 1,-1 0,-1 -9,0 0,-9 14,0 0,8 1,0 0,-9 -15,0 z m 11,11 0,2 -11,0 0,1 11,0 0,2 1,0 3,0 0,-1 -3,0 0,-3 3,0 0,-1 -3,0 z m 2,2 0,1 3,0 0,-1 z m -7,2 c -0.554,0 -1,0.446 -1,1 l 5,0 c 0,-0.554 -0.446,-1 -1,-1 z"
       style="opacity:1;fill:#bebebe;fill-opacity:1;stroke:none;stroke-width:0.1;stroke-miterlimit:4;stroke-dasharray:none;stroke-opacity:1"
       inkscape:connector-curvature="0"
       sodipodi:nodetypes="cccccccccccccccccccccccccccccccccccccsccss" />
  </g>
</svg>
