<?xml version="1.0" encoding="UTF-8" standalone="no"?>
<svg
   xmlns:dc="http://purl.org/dc/elements/1.1/"
   xmlns:cc="http://creativecommons.org/ns#"
   xmlns:rdf="http://www.w3.org/1999/02/22-rdf-syntax-ns#"
   xmlns:svg="http://www.w3.org/2000/svg"
   xmlns="http://www.w3.org/2000/svg"
   xmlns:sodipodi="http://sodipodi.sourceforge.net/DTD/sodipodi-0.dtd"
   xmlns:inkscape="http://www.inkscape.org/namespaces/inkscape"
   width="16"
   viewBox="0 0 16 16"
   height="16"
   id="svg2"
   version="1.1"
   inkscape:version="0.91pre2 r"
   sodipodi:docname="network-wired-symbolic.svg">
  <metadata
     id="metadata10">
    <rdf:RDF>
      <cc:Work
         rdf:about="">
        <dc:format>image/svg+xml</dc:format>
        <dc:type
           rdf:resource="http://purl.org/dc/dcmitype/StillImage" />
        <dc:title />
      </cc:Work>
    </rdf:RDF>
  </metadata>
  <defs
     id="defs8" />
  <sodipodi:namedview
     pagecolor="#ffffff"
     bordercolor="#666666"
     borderopacity="1"
     objecttolerance="10"
     gridtolerance="10"
     guidetolerance="10"
     inkscape:pageopacity="0"
     inkscape:pageshadow="2"
     inkscape:window-width="1366"
     inkscape:window-height="672"
     id="namedview6"
     showgrid="true"
     inkscape:showpageshadow="false"
     inkscape:zoom="14.75"
     inkscape:cx="-1.1846191"
     inkscape:cy="4.8963678"
     inkscape:window-x="-4"
     inkscape:window-y="25"
     inkscape:window-maximized="1"
     inkscape:current-layer="svg2">
    <inkscape:grid
       type="xygrid"
       id="grid4139" />
    <sodipodi:guide
       position="0,16"
       orientation="16,0"
       id="guide4145" />
    <sodipodi:guide
       position="16,0"
       orientation="-16,0"
       id="guide4149" />
    <sodipodi:guide
       position="16,16"
       orientation="0,-16"
       id="guide4151" />
    <sodipodi:guide
       position="2,14"
       orientation="12,0"
       id="guide4153" />
    <sodipodi:guide
       position="2,2"
       orientation="0,12"
       id="guide4155" />
    <sodipodi:guide
       position="14,2"
       orientation="-12,0"
       id="guide4157" />
    <sodipodi:guide
       position="14,14"
       orientation="0,-12"
       id="guide4159" />
  </sodipodi:namedview>
  <g
     transform="translate(-556.72253,-586.11926)"
     id="layer1"
     inkscape:label="Capa 1"
     style="fill:#bebebe;fill-opacity:1">
    <path
       sodipodi:nodetypes="cccccccccccccccccccccccccccccccccccccsccss"
       inkscape:connector-curvature="0"
       style="opacity:1;fill:#bebebe;fill-opacity:1;stroke:none;stroke-width:0.1;stroke-miterlimit:4;stroke-dasharray:none;stroke-opacity:1"
       d="m 556.72253,586.11926 0,10 0,1 1,0 4,0 1,1 3,0 1,-1 0,-1 -9,0 0,-9 14,0 0,8 1,0 0,-9 -15,0 z m 11,11 0,2 -11,0 0,1 11,0 0,2 1,0 3,0 0,-1 -3,0 0,-3 3,0 0,-1 -3,0 z m 2,2 0,1 3,0 0,-1 z m -7,2 c -0.554,0 -1,0.446 -1,1 l 5,0 c 0,-0.554 -0.446,-1 -1,-1 z"
       id="rect4161" />
  </g>
</svg>
