<?xml version="1.0" encoding="utf-8"?>
<!-- Generator: Adobe Illustrator 17.0.0, SVG Export Plug-In . SVG Version: 6.00 Build 0)  -->
<!DOCTYPE svg PUBLIC "-//W3C//DTD SVG 1.1//EN" "http://www.w3.org/Graphics/SVG/1.1/DTD/svg11.dtd">
<svg version="1.1" id="图层_1" xmlns="http://www.w3.org/2000/svg" xmlns:xlink="http://www.w3.org/1999/xlink" x="0px" y="0px"
	 width="48px" height="48px" viewBox="8 8 48 48" enable-background="new 8 8 48 48" xml:space="preserve">
<g id="g151" opacity="0.5">
	<path id="path153" opacity="0.08" enable-background="new    " d="M48.41,52.136H15.617c-3.019,0-5.48-2.367-5.48-5.266v4.028
		c0,2.265,1.925,4.102,4.283,4.102h35.185c2.358,0,4.256-1.836,4.256-4.102V46.87C53.861,49.77,51.428,52.136,48.41,52.136z"/>
	<path id="path155" opacity="0.1" enable-background="new    " d="M48.383,52.136H15.59c-3.018,0-5.451-2.323-5.451-5.222v2.107
		c0,2.265,1.039,5.025,5.25,5.025s28.929,0,33.195,0s5.279-2.76,5.279-5.025v-2.107C53.861,49.813,51.4,52.136,48.383,52.136z"/>
	<path id="path157" opacity="0.1" enable-background="new    " d="M48.383,52.136H15.59c-3.018,0-5.451-2.323-5.451-5.222v1.137
		c0,2.266,1.802,5.041,5.25,5.041s29.249,0,33.195,0c3.947,0,5.279-2.775,5.279-5.039v-1.137
		C53.861,49.813,51.4,52.136,48.383,52.136z"/>
	<rect id="rect159" x="15.107" y="52.136" opacity="0.05" enable-background="new    " width="33.786" height="0.955"/>
	<rect id="rect161" x="16.101" y="52.136" opacity="0.05" enable-background="new    " width="30.805" height="0.955"/>
	<rect id="rect163" x="16.101" y="53.091" opacity="0.05" enable-background="new    " width="30.805" height="0.955"/>
	<rect id="rect165" x="18.087" y="53.091" opacity="0.05" enable-background="new    " width="27.824" height="0.955"/>
	<rect id="rect167" x="21.069" y="53.091" opacity="0.05" enable-background="new    " width="21.862" height="0.955"/>
	<rect id="rect169" x="25.044" y="53.091" opacity="0.05" enable-background="new    " width="13.912" height="0.955"/>
	<rect id="rect171" x="18.087" y="52.136" opacity="0.05" enable-background="new    " width="27.824" height="0.955"/>
	<rect id="rect173" x="20.075" y="52.136" opacity="0.05" enable-background="new    " width="23.849" height="0.955"/>
	<rect id="rect175" x="21.069" y="52.136" opacity="0.05" enable-background="new    " width="21.862" height="0.955"/>
	<rect id="rect177" x="23.056" y="52.136" opacity="0.05" enable-background="new    " width="17.887" height="0.955"/>
	<rect id="rect179" x="23.056" y="52.136" opacity="0.05" enable-background="new    " width="17.887" height="0.955"/>
</g>
<path fill="#C4DCED" stroke="#9DBCD7" stroke-miterlimit="10" d="M53.466,46.281c0,3.121-2.531,5.652-5.652,5.652H16.185
	c-3.121,0-5.652-2.531-5.652-5.652V14.652c0-3.121,2.531-5.652,5.652-5.652h31.63c3.121,0,5.652,2.531,5.652,5.652L53.466,46.281
	L53.466,46.281z"/>
<path opacity="0.6" fill="none" stroke="#FFFFFF" stroke-miterlimit="10" d="M16.185,50.934c-2.565,0-4.652-2.087-4.652-4.652
	V14.652c0-2.565,2.087-4.652,4.652-4.652h31.629c2.565,0,4.652,2.087,4.652,4.652v31.629c0,2.565-2.087,4.652-4.652,4.652H16.185z"
	/>
<path opacity="0.08" fill="none" stroke="#000000" stroke-miterlimit="10" enable-background="new    " d="M53.627,21.193
	c0,0,0-1.899-1.876-1.899c-5.445,0-22.83,0.003-24.387,0.003c-1.891,0-1.876-1.872-1.876-1.872s0-1.885-1.876-1.885
	c-3.284,0-9.861,0-11.255,0c-1.847,0-1.876,1.816-1.876,1.873"/>
<path opacity="0.03" fill="none" stroke="#000000" stroke-miterlimit="10" enable-background="new    " d="M53.627,20.112
	c0,0,0-1.899-1.876-1.899c-5.445,0-22.83,0.003-24.387,0.003c-1.891,0-1.876-1.872-1.876-1.872s0-1.885-1.876-1.885
	c-3.284,0-9.861,0-11.255,0c-1.847,0-1.876,1.816-1.876,1.873"/>
<linearGradient id="SVGID_1_" gradientUnits="userSpaceOnUse" x1="1127.9993" y1="1377.9335" x2="1127.9993" y2="1342.5322" gradientTransform="matrix(1 0 0 1 -1096 -1326)">
	<stop  offset="0" style="stop-color:#D1E0ED"/>
	<stop  offset="1" style="stop-color:#E4EEFB"/>
</linearGradient>
<path fill="url(#SVGID_1_)" stroke="#9DBCD7" stroke-miterlimit="10" d="M16.172,51.933H47.92c3.121,0,5.546-2.595,5.546-5.717
	V20.871c0-0.445-0.665-0.864-1.55-0.864c-5.468,0-22.903,0.003-24.466,0.003c-1.899,0-1.87-1.733-1.87-1.733
	s0.013-1.745-1.871-1.745c-3.298,0-9.904,0-11.304,0c-1.855,0-1.872,1.538-1.872,1.596v28.089
	C10.533,49.338,13.051,51.933,16.172,51.933z"/>
<path opacity="0.8" fill="none" stroke="#FFFFFF" stroke-miterlimit="10" d="M16.172,50.934c-2.558,0-4.64-2.116-4.64-4.717V18.128
	c0.023-0.596,0.662-0.596,0.872-0.596h11.304c0.21,0,0.85,0,0.871,0.754c-0.002,0.091,0.003,1.14,0.779,1.928
	c0.357,0.363,1.01,0.796,2.092,0.796l24.466-0.003c0.263,0,0.446,0.055,0.551,0.102v25.107c0,2.601-2.04,4.717-4.547,4.717H16.172z"
	/>
<radialGradient id="SVGID_2_" cx="1506.46" cy="-1013.1687" r="34.4255" gradientTransform="matrix(0.0197 0.9998 -0.9109 0.018 -922.1061 -1463.46)" gradientUnits="userSpaceOnUse">
	<stop  offset="0" style="stop-color:#FFFFFF;stop-opacity:0.6"/>
	<stop  offset="0.3783" style="stop-color:#FAFCFE;stop-opacity:0.4487"/>
	<stop  offset="0.829" style="stop-color:#EBF3FC;stop-opacity:0.2684"/>
	<stop  offset="1" style="stop-color:#E4EEFB;stop-opacity:0.2"/>
</radialGradient>
<path fill="url(#SVGID_2_)" d="M16.172,51.181c-2.695,0-4.887-2.226-4.887-4.964V18.128c0-0.036,0.006-0.336,0.229-0.56
	c0.187-0.187,0.486-0.282,0.889-0.282h11.304c0.446,0,0.673,0.053,0.809,0.19c0.3,0.302,0.313,0.762,0.313,0.767
	c-0.001,0.099,0.004,1.081,0.732,1.82c0.464,0.471,1.1,0.709,1.89,0.709c0,0,20.898-0.008,24.461-0.008
	c0.471,0,0.731,0.162,0.798,0.239v25.214c0,2.738-2.15,4.964-4.793,4.964H16.172L16.172,51.181L16.172,51.181z"/>
<g id="g27_1_">
	
		<linearGradient id="path36_2_" gradientUnits="userSpaceOnUse" x1="1520.0824" y1="2152.541" x2="1526.0471" y2="2162.8721" gradientTransform="matrix(1 0 0 1 -1508 -2144)">
		<stop  offset="0" style="stop-color:#FFFFFF"/>
		<stop  offset="0.5" style="stop-color:#FFFFFF;stop-opacity:0.6"/>
		<stop  offset="1" style="stop-color:#FFFFFF;stop-opacity:0.15"/>
	</linearGradient>
	<path id="path36_1_" fill="url(#path36_2_)" d="M17,20.627c0.667-1.381,1.481-2.674,2.414-3.869l-1.699-3.725
		c-1.451,1.372-2.629,2.883-3.569,4.351L17,20.627z"/>
	
		<linearGradient id="path45_2_" gradientUnits="userSpaceOnUse" x1="1525.4906" y1="2150.9939" x2="1529.3943" y2="2157.7554" gradientTransform="matrix(1 0 0 1 -1508 -2144)">
		<stop  offset="0" style="stop-color:#FFFFFF"/>
		<stop  offset="0.5" style="stop-color:#FFFFFF;stop-opacity:0.6"/>
		<stop  offset="1" style="stop-color:#FFFFFF;stop-opacity:0.15"/>
	</linearGradient>
	<path id="path45_1_" fill="url(#path45_2_)" d="M17.178,9.452l0.888,1.946c0.854-0.709,1.791-0.954,2.812-1.946H17.178z"/>
	
		<linearGradient id="path54_2_" gradientUnits="userSpaceOnUse" x1="1526.7184" y1="2149.7102" x2="1531.4878" y2="2157.9709" gradientTransform="matrix(1 0 0 1 -1508 -2144)">
		<stop  offset="0" style="stop-color:#FFFFFF"/>
		<stop  offset="0.5" style="stop-color:#FFFFFF;stop-opacity:0.6"/>
		<stop  offset="1" style="stop-color:#FFFFFF;stop-opacity:0.15"/>
	</linearGradient>
	<path id="path54_1_" fill="url(#path54_2_)" d="M23.841,9.452h-0.703c-1.772,0.992-3.321,1.75-4.65,2.881l1.628,3.573
		c1.391-1.607,3.005-3.015,4.813-4.152c0.014-0.013,0.024-0.024,0.039-0.036C26.994,9.968,24.983,9.452,23.841,9.452z"/>
	
		<linearGradient id="path63_2_" gradientUnits="userSpaceOnUse" x1="1516.7354" y1="2157.2505" x2="1521.9113" y2="2166.2153" gradientTransform="matrix(1 0 0 1 -1508 -2144)">
		<stop  offset="0" style="stop-color:#FFFFFF"/>
		<stop  offset="0.5" style="stop-color:#FFFFFF;stop-opacity:0.6"/>
		<stop  offset="1" style="stop-color:#FFFFFF;stop-opacity:0.15"/>
	</linearGradient>
	<path id="path63_1_" fill="url(#path63_2_)" d="M13.606,18.269c-1.089,1.855-1.802,3.569-2.224,4.741
		c0.5,0.714,1.327,1.182,2.265,1.182c1.161,0,2.153-0.717,2.563-1.731c0.105-0.283,0.233-0.555,0.351-0.834L13.606,18.269z"/>
	
		<linearGradient id="path72_2_" gradientUnits="userSpaceOnUse" x1="1516.5024" y1="2157.6179" x2="1522.2385" y2="2167.5532" gradientTransform="matrix(1 0 0 1 -1508 -2144)">
		<stop  offset="0" style="stop-color:#FFFFFF"/>
		<stop  offset="0.5" style="stop-color:#FFFFFF;stop-opacity:0.6"/>
		<stop  offset="1" style="stop-color:#FFFFFF;stop-opacity:0.15"/>
	</linearGradient>
	<path id="path72_1_" fill="url(#path72_2_)" d="M10.901,15.192l-0.021,6.229c0,0,0,0.002,0,0.004c0,0.039,0.01,0.076,0.012,0.114
		c0.474-1.152,1.135-2.56,2.031-4.048L10.901,15.192z"/>
	
		<linearGradient id="path149_2_" gradientUnits="userSpaceOnUse" x1="1520.8402" y1="2154.5063" x2="1526.2263" y2="2163.8357" gradientTransform="matrix(1 0 0 1 -1508 -2144)">
		<stop  offset="0" style="stop-color:#FFFFFF"/>
		<stop  offset="0.5" style="stop-color:#FFFFFF;stop-opacity:0.6"/>
		<stop  offset="1" style="stop-color:#FFFFFF;stop-opacity:0.15"/>
	</linearGradient>
	<path id="path149_1_" fill="url(#path149_2_)" d="M15.994,9.464c-2.024-0.168-4.689,2.111-5.03,4.297l2.511,2.855
		c1.002-1.53,2.248-3.096,3.786-4.512L15.994,9.464z"/>
</g>
<g>
	<g opacity="0.3" enable-background="new    ">
		<g>
			<rect x="15.794" y="25.949" fill="#FFFFFF" width="32.412" height="19.962"/>
		</g>
		<g>
			<rect x="15.794" y="25.081" fill="#669CCC" width="32.412" height="19.962"/>
		</g>
	</g>
	<path opacity="0.3" fill="#669CCC" enable-background="new    " d="M15.794,25.081v19.962h32.412V25.081H15.794z M47.992,44.828
		H16.009V25.295h31.982L47.992,44.828L47.992,44.828z"/>
	<path opacity="0.3" fill="#669CCC" enable-background="new    " d="M15.794,25.081v19.962h32.412V25.081H15.794z M47.777,44.614
		H16.224V25.51h31.553V44.614z"/>
	<rect x="41.552" y="25.081" opacity="0.3" fill="#669CCC" enable-background="new    " width="6.654" height="19.962"/>
	<path opacity="0.3" fill="#669CCC" enable-background="new    " d="M41.552,25.081v19.962h6.654V25.081H41.552z M47.777,44.614
		h-5.796V25.51h5.795L47.777,44.614L47.777,44.614z"/>
	<polygon opacity="0.3" fill="#669CCC" enable-background="new    " points="39.31,43.505 24.69,43.505 24.261,45.043 39.74,45.043 
			"/>
	<rect x="41.552" y="25.081" opacity="0.3" fill="#669CCC" enable-background="new    " width="0.215" height="19.962"/>
	<rect x="41.659" y="27.067" opacity="0.3" fill="#669CCC" enable-background="new    " width="6.547" height="0.215"/>
	<path opacity="0.3" fill="#669CCC" enable-background="new    " d="M43.238,25.689h-0.773c-0.1,0-0.182,0.082-0.182,0.182v0.773
		c0,0.1,0.082,0.182,0.182,0.182h0.773c0.1,0,0.182-0.082,0.182-0.182v-0.773C43.42,25.771,43.338,25.689,43.238,25.689z
		 M43.351,26.644c0,0.063-0.051,0.114-0.114,0.114h-0.558c0.097-0.05,0.298-0.167,0.412-0.328c0,0,0.162-0.232-0.097-0.458
		c0,0,0.067,0.105,0.069,0.21c0,0,0.017,0.14-0.106,0.226c-0.123,0.086-0.23,0.076-0.371,0.074c-0.114-0.002-0.203-0.036-0.234-0.05
		V25.87c0-0.045,0.027-0.084,0.065-0.103c0.009,0.228,0.105,0.424,0.166,0.489c0.062,0.067,0.153,0.138,0.27,0.108
		c0.117-0.03,0.14-0.157,0.14-0.157c0.025-0.109-0.011-0.239-0.013-0.241c-0.001-0.003-0.02-0.006-0.02-0.006
		c0.019,0.172-0.026,0.248-0.026,0.248c-0.065,0.135-0.162,0.093-0.162,0.093c-0.107-0.055-0.103-0.209-0.103-0.209
		c-0.005-0.16,0.076-0.309,0.092-0.336h0.271c-0.055,0.038-0.166,0.148-0.166,0.148c-0.157,0.146-0.126,0.27-0.126,0.27
		c0.025,0.13,0.103,0.042,0.103,0.042c0.082-0.085,0.076-0.255,0.076-0.255c-0.033,0.006-0.054,0.024-0.054,0.024
		c-0.004,0.114-0.071,0.183-0.071,0.183c-0.026,0.028-0.044,0.001-0.044,0.001c-0.013-0.02,0.013-0.035,0.013-0.035
		c0.038-0.033,0.05-0.09,0.049-0.112c-0.001-0.021,0.011-0.028,0.011-0.028c0.054-0.042,0.107-0.066,0.107-0.066
		c0.072-0.037,0.2-0.044,0.2-0.044c0.081,0.003,0.154-0.01,0.154-0.01l0.068-0.012c0,0.002,0.001,0.004,0.001,0.006L43.351,26.644
		L43.351,26.644L43.351,26.644z"/>
	<g opacity="0.3">
		<path opacity="0.5" fill="#669CCC" enable-background="new    " d="M43.279,25.85c-0.001,0-0.058,0.01-0.127,0.01
			c-0.007,0-0.015,0-0.021-0.001c-0.008,0.001-0.138,0.007-0.213,0.046c-0.001,0.001-0.013,0.006-0.031,0.016
			c0.015-0.015,0.112-0.11,0.161-0.143l0.073-0.05h-0.374l-0.008,0.013c-0.017,0.029-0.101,0.183-0.095,0.35
			c-0.001,0.005-0.004,0.17,0.117,0.232c0.004,0.001,0.021,0.009,0.047,0.009c0.036,0,0.103-0.015,0.151-0.114
			c0.001-0.001,0.004-0.007,0.008-0.017c-0.002,0.011-0.025,0.113-0.121,0.137c-0.016,0.004-0.032,0.006-0.048,0.006
			c-0.066,0-0.13-0.035-0.196-0.106c-0.058-0.063-0.149-0.256-0.158-0.472l-0.001-0.041l-0.037,0.017
			c-0.049,0.023-0.081,0.073-0.081,0.127v0.58l0.017,0.007c0.035,0.015,0.128,0.05,0.245,0.052l0.031,0.001
			c0.023,0.001,0.044,0.001,0.066,0.001c0.108,0,0.195-0.013,0.291-0.081c0.135-0.094,0.119-0.245,0.117-0.25
			c-0.001-0.017-0.002-0.035-0.006-0.051c0.074,0.154-0.011,0.28-0.015,0.286c-0.109,0.153-0.299,0.266-0.403,0.319l-0.099,0.051
			h0.671c0.078,0,0.141-0.063,0.141-0.141v-0.773c0-0.003-0.001-0.005-0.001-0.007l-0.004-0.028l-0.028,0.002L43.279,25.85z
			 M43.351,25.87v0.773c0,0.063-0.051,0.114-0.114,0.114h-0.558c0.097-0.05,0.298-0.167,0.412-0.328c0,0,0.162-0.232-0.097-0.458
			c0,0,0.067,0.105,0.069,0.21c0,0,0.017,0.14-0.106,0.226c-0.123,0.086-0.23,0.076-0.371,0.074
			c-0.114-0.002-0.203-0.036-0.234-0.05V25.87c0-0.045,0.027-0.084,0.065-0.103c0.009,0.228,0.105,0.424,0.166,0.489
			c0.062,0.067,0.153,0.138,0.27,0.108c0.117-0.03,0.14-0.157,0.14-0.157c0.025-0.109-0.011-0.239-0.013-0.241
			c-0.001-0.003-0.02-0.006-0.02-0.006c0.019,0.172-0.026,0.248-0.026,0.248c-0.065,0.135-0.162,0.093-0.162,0.093
			c-0.107-0.055-0.103-0.209-0.103-0.209c-0.005-0.16,0.076-0.309,0.092-0.336h0.271c-0.055,0.038-0.166,0.148-0.166,0.148
			c-0.157,0.146-0.126,0.27-0.126,0.27c0.025,0.13,0.103,0.042,0.103,0.042c0.082-0.085,0.076-0.255,0.076-0.255
			c-0.033,0.006-0.054,0.024-0.054,0.024c-0.004,0.114-0.071,0.183-0.071,0.183c-0.026,0.028-0.044,0.001-0.044,0.001
			c-0.013-0.02,0.013-0.035,0.013-0.035c0.038-0.033,0.05-0.09,0.049-0.112c-0.001-0.021,0.011-0.028,0.011-0.028
			c0.054-0.042,0.107-0.066,0.107-0.066c0.072-0.037,0.2-0.044,0.2-0.044c0.081,0.003,0.154-0.01,0.154-0.01l0.068-0.012
			C43.351,25.867,43.351,25.869,43.351,25.87z M42.778,26.209c0.01-0.001,0.023-0.007,0.035-0.021
			c0.003-0.003,0.068-0.073,0.076-0.187l0,0c-0.003,0.052-0.016,0.144-0.067,0.197c-0.008,0.009-0.023,0.02-0.033,0.02
			C42.786,26.218,42.783,26.215,42.778,26.209z"/>
		<path opacity="0.5" fill="#669CCC" enable-background="new    " d="M43.238,25.689h-0.773c-0.1,0-0.182,0.082-0.182,0.182v0.773
			c0,0.1,0.082,0.182,0.182,0.182h0.773c0.1,0,0.182-0.082,0.182-0.182v-0.773C43.42,25.771,43.338,25.689,43.238,25.689z
			 M43.392,26.644c0,0.085-0.069,0.155-0.155,0.155h-0.773c-0.085,0-0.155-0.069-0.155-0.155v-0.773
			c0-0.085,0.069-0.155,0.155-0.155h0.773c0.085,0,0.155,0.069,0.155,0.155V26.644z"/>
	</g>
	<g opacity="0.3">
		<path opacity="0.5" fill="#669CCC" enable-background="new    " d="M42.737,26.16c0.003-0.048,0.025-0.134,0.128-0.23
			c0,0,0.11-0.11,0.166-0.148h-0.033c-0.058,0.047-0.133,0.122-0.133,0.122C42.74,26.022,42.734,26.124,42.737,26.16z"/>
		<path opacity="0.5" fill="#669CCC" enable-background="new    " d="M42.994,25.972c0,0,0.012,0.02,0.027,0.05
			c0.089,0.087,0.117,0.175,0.12,0.247C43.145,26.186,43.116,26.079,42.994,25.972z"/>
		<path opacity="0.5" fill="#669CCC" enable-background="new    " d="M42.978,25.966c-0.001-0.003-0.02-0.006-0.02-0.006
			c0.001,0.009,0.001,0.017,0.002,0.025c0.005,0.001,0.015,0.003,0.017,0.005c0.001,0.002,0.02,0.066,0.022,0.143
			C43.003,26.048,42.98,25.969,42.978,25.966z"/>
		<path opacity="0.5" fill="#669CCC" enable-background="new    " d="M42.669,26.089c0,0.001,0,0.004,0,0.005v-0.001
			C42.668,26.092,42.669,26.089,42.669,26.089z"/>
		<path opacity="0.5" fill="#669CCC" enable-background="new    " d="M42.794,26.169c-0.023,0.025-0.039,0.008-0.044,0.003
			c-0.005,0.006-0.007,0.015-0.001,0.024c0,0,0.018,0.028,0.044-0.001c0,0,0.066-0.071,0.071-0.183c0,0,0.021-0.018,0.054-0.024
			c0.001-0.015,0.001-0.025,0.001-0.025c-0.001,0-0.001,0-0.001,0c-0.012,0.006-0.031,0.017-0.054,0.031
			C42.857,26.102,42.794,26.169,42.794,26.169z"/>
		<path opacity="0.5" fill="#669CCC" enable-background="new    " d="M43.238,25.689h-0.773c-0.1,0-0.182,0.082-0.182,0.182v0.025
			c0-0.1,0.082-0.182,0.182-0.182h0.773c0.1,0,0.182,0.082,0.182,0.182v-0.025C43.42,25.771,43.338,25.689,43.238,25.689z"/>
		<path opacity="0.5" fill="#669CCC" enable-background="new    " d="M42.585,26.508c0.141,0.003,0.248,0.012,0.371-0.074
			c0.11-0.077,0.108-0.197,0.107-0.221c-0.002,0.046-0.019,0.135-0.107,0.196c-0.123,0.086-0.23,0.076-0.371,0.074
			c-0.114-0.002-0.203-0.036-0.234-0.05v0.025C42.382,26.472,42.473,26.506,42.585,26.508z"/>
		<path opacity="0.5" fill="#669CCC" enable-background="new    " d="M42.771,26.327c0,0,0.096,0.042,0.162-0.093
			c0,0,0.033-0.056,0.031-0.18c-0.002,0.106-0.031,0.154-0.031,0.154c-0.065,0.135-0.162,0.093-0.162,0.093
			c-0.096-0.049-0.102-0.178-0.103-0.203c0,0.007-0.001,0.013,0,0.02C42.669,26.119,42.664,26.272,42.771,26.327z"/>
		<path opacity="0.5" fill="#669CCC" enable-background="new    " d="M43.238,26.783c0.063,0,0.114-0.051,0.114-0.114v-0.025
			c0,0.063-0.051,0.114-0.114,0.114h-0.512c-0.017,0.009-0.033,0.018-0.047,0.025H43.238z"/>
	</g>
</g>
</svg>
