<?xml version="1.0" encoding="utf-8"?>
<!-- Generator: Adobe Illustrator 17.0.0, SVG Export Plug-In . SVG Version: 6.00 Build 0)  -->
<!DOCTYPE svg PUBLIC "-//W3C//DTD SVG 1.1//EN" "http://www.w3.org/Graphics/SVG/1.1/DTD/svg11.dtd">
<svg version="1.1" id="图层_1" xmlns="http://www.w3.org/2000/svg" xmlns:xlink="http://www.w3.org/1999/xlink" x="0px" y="0px"
	 width="48px" height="48px" viewBox="40 40 48 48" enable-background="new 40 40 48 48" xml:space="preserve">
<path fill="#EBF2FB" stroke="#9DBCD7" stroke-miterlimit="10" d="M85.354,78.371c0,3.119-2.528,5.647-5.647,5.647H47.983
	c-3.119,0-5.647-2.528-5.647-5.647V46.647c0-3.119,2.528-5.647,5.647-5.647h31.723c3.119,0,5.648,2.528,5.648,5.647V78.371z"/>
<path opacity="0.3" fill="#669CCC" enable-background="new    " d="M84.916,78.048c0,3.055-2.477,5.532-5.532,5.532H48.306
	c-3.055,0-5.532-2.477-5.532-5.532V46.971c0-3.055,2.477-5.532,5.532-5.532h31.077c3.056,0,5.533,2.477,5.533,5.532V78.048z"/>
<g id="g151" opacity="0.5">
	<path id="path153" opacity="0.08" enable-background="new    " d="M80.114,84.431h-32.51c-2.993,0-5.432-2.334-5.432-5.192v3.971
		c0,2.234,1.908,4.045,4.246,4.045h34.882c2.338,0,4.219-1.811,4.219-4.045v-3.971C85.519,82.097,83.106,84.431,80.114,84.431z"/>
	<path id="path155" opacity="0.1" enable-background="new    " d="M80.087,84.431h-32.51c-2.992,0-5.405-2.291-5.405-5.15v2.078
		c0,2.234,1.031,4.955,5.205,4.955s28.68,0,32.909,0c4.23,0,5.233-2.721,5.233-4.955v-2.078
		C85.519,82.14,83.079,84.431,80.087,84.431z"/>
	<path id="path157" opacity="0.1" enable-background="new    " d="M80.087,84.431h-32.51c-2.992,0-5.405-2.291-5.405-5.15v1.121
		c0,2.234,1.787,4.97,5.205,4.97s28.997,0,32.909,0c3.913,0,5.233-2.735,5.233-4.969v-1.121
		C85.519,82.14,83.079,84.431,80.087,84.431z"/>
	<rect id="rect159" x="47.098" y="84.431" opacity="0.05" enable-background="new    " width="33.495" height="0.941"/>
	<rect id="rect161" x="48.083" y="84.431" opacity="0.05" enable-background="new    " width="30.54" height="0.941"/>
	<rect id="rect163" x="48.083" y="85.372" opacity="0.05" enable-background="new    " width="30.54" height="0.941"/>
	<rect id="rect165" x="50.053" y="85.372" opacity="0.05" enable-background="new    " width="27.584" height="0.941"/>
	<rect id="rect167" x="53.009" y="85.372" opacity="0.05" enable-background="new    " width="21.673" height="0.941"/>
	<rect id="rect169" x="56.949" y="85.372" opacity="0.05" enable-background="new    " width="13.792" height="0.941"/>
	<rect id="rect171" x="50.053" y="84.431" opacity="0.05" enable-background="new    " width="27.584" height="0.941"/>
	<rect id="rect173" x="52.023" y="84.431" opacity="0.05" enable-background="new    " width="23.644" height="0.941"/>
	<rect id="rect175" x="53.009" y="84.431" opacity="0.05" enable-background="new    " width="21.673" height="0.941"/>
	<rect id="rect177" x="54.979" y="84.431" opacity="0.05" enable-background="new    " width="17.733" height="0.941"/>
	<rect id="rect179" x="54.979" y="84.431" opacity="0.05" enable-background="new    " width="17.733" height="0.941"/>
</g>
<path opacity="0.6" fill="none" stroke="#FFFFFF" stroke-width="0.9883" stroke-miterlimit="10" enable-background="new    " d="
	M48.168,83.025c-2.669,0-4.839-2.171-4.839-4.839V46.833c0-2.669,2.171-4.839,4.839-4.839h31.353c2.669,0,4.839,2.171,4.839,4.839
	v31.353c0,2.669-2.171,4.84-4.839,4.84H48.168z"/>
<g id="g27_1_">
	
		<linearGradient id="path36_2_" gradientUnits="userSpaceOnUse" x1="1004.0461" y1="1393.6154" x2="1010.0062" y2="1403.9384" gradientTransform="matrix(1 0 0 1 -960 -1353)">
		<stop  offset="0" style="stop-color:#FFFFFF"/>
		<stop  offset="0.5" style="stop-color:#FFFFFF;stop-opacity:0.6"/>
		<stop  offset="1" style="stop-color:#FFFFFF;stop-opacity:0.15"/>
	</linearGradient>
	<path id="path36_1_" fill="url(#path36_2_)" d="M48.961,52.692c0.666-1.379,1.48-2.671,2.413-3.866l-1.698-3.723
		c-1.45,1.371-2.627,2.881-3.566,4.347L48.961,52.692z"/>
	
		<linearGradient id="path45_2_" gradientUnits="userSpaceOnUse" x1="1009.4506" y1="1392.0693" x2="1013.3512" y2="1398.8253" gradientTransform="matrix(1 0 0 1 -960 -1353)">
		<stop  offset="0" style="stop-color:#FFFFFF"/>
		<stop  offset="0.5" style="stop-color:#FFFFFF;stop-opacity:0.6"/>
		<stop  offset="1" style="stop-color:#FFFFFF;stop-opacity:0.15"/>
	</linearGradient>
	<path id="path45_1_" fill="url(#path45_2_)" d="M49.137,41.525l0.888,1.944c0.854-0.709,1.79-0.953,2.811-1.944H49.137z"/>
	
		<linearGradient id="path54_2_" gradientUnits="userSpaceOnUse" x1="1010.6774" y1="1390.7863" x2="1015.4432" y2="1399.0409" gradientTransform="matrix(1 0 0 1 -960 -1353)">
		<stop  offset="0" style="stop-color:#FFFFFF"/>
		<stop  offset="0.5" style="stop-color:#FFFFFF;stop-opacity:0.6"/>
		<stop  offset="1" style="stop-color:#FFFFFF;stop-opacity:0.15"/>
	</linearGradient>
	<path id="path54_1_" fill="url(#path54_2_)" d="M55.796,41.525h-0.702c-1.77,0.992-3.318,1.748-4.646,2.879l1.627,3.57
		c1.39-1.605,3.003-3.013,4.809-4.149c0.014-0.013,0.024-0.024,0.039-0.037C58.946,42.041,56.936,41.525,55.796,41.525z"/>
	
		<linearGradient id="path63_2_" gradientUnits="userSpaceOnUse" x1="1000.7015" y1="1398.3212" x2="1005.8733" y2="1407.2789" gradientTransform="matrix(1 0 0 1 -960 -1353)">
		<stop  offset="0" style="stop-color:#FFFFFF"/>
		<stop  offset="0.5" style="stop-color:#FFFFFF;stop-opacity:0.6"/>
		<stop  offset="1" style="stop-color:#FFFFFF;stop-opacity:0.15"/>
	</linearGradient>
	<path id="path63_1_" fill="url(#path63_2_)" d="M45.568,50.336c-1.089,1.853-1.8,3.566-2.222,4.737
		c0.5,0.713,1.326,1.181,2.263,1.181c1.16,0,2.151-0.717,2.561-1.73c0.105-0.283,0.233-0.554,0.35-0.833L45.568,50.336z"/>
	
		<linearGradient id="path72_2_" gradientUnits="userSpaceOnUse" x1="1000.4694" y1="1398.688" x2="1006.201" y2="1408.6156" gradientTransform="matrix(1 0 0 1 -960 -1353)">
		<stop  offset="0" style="stop-color:#FFFFFF"/>
		<stop  offset="0.5" style="stop-color:#FFFFFF;stop-opacity:0.6"/>
		<stop  offset="1" style="stop-color:#FFFFFF;stop-opacity:0.15"/>
	</linearGradient>
	<path id="path72_1_" fill="url(#path72_2_)" d="M42.866,47.261l-0.022,6.224c0,0,0,0.002,0,0.004c0,0.039,0.01,0.075,0.012,0.114
		c0.473-1.151,1.133-2.558,2.03-4.045L42.866,47.261z"/>
	
		<linearGradient id="path149_2_" gradientUnits="userSpaceOnUse" x1="1004.8038" y1="1395.579" x2="1010.1859" y2="1404.9008" gradientTransform="matrix(1 0 0 1 -960 -1353)">
		<stop  offset="0" style="stop-color:#FFFFFF"/>
		<stop  offset="0.5" style="stop-color:#FFFFFF;stop-opacity:0.6"/>
		<stop  offset="1" style="stop-color:#FFFFFF;stop-opacity:0.15"/>
	</linearGradient>
	<path id="path149_1_" fill="url(#path149_2_)" d="M47.955,41.537c-2.022-0.168-4.684,2.11-5.026,4.294l2.509,2.853
		c1.001-1.528,2.247-3.094,3.783-4.508L47.955,41.537z"/>
</g>
<g>
	<path opacity="0.9" fill="#FFFFFF" enable-background="new    " d="M73.055,70.265c0,0,2.085-2.985,1.917-7.176
		c-0.167,3.637-1.917,6.135-1.917,6.135c-4.381,6.155-12.095,10.647-15.831,12.583h1.923C63.198,79.527,69.325,75.499,73.055,70.265
		z"/>
	<path opacity="0.9" fill="#FFFFFF" enable-background="new    " d="M59.542,60.44c0.98,4.971,3.967,1.622,3.967,1.622
		c3.152-3.276,2.904-9.795,2.904-9.795c-0.005,0-0.01,0.003-0.01,0.003c-0.074,1.974-0.518,6.282-2.897,8.748
		c0,0-2.99,3.355-3.967-1.616c0,0-0.046-0.185-0.074-0.516C59.403,59.86,59.542,60.44,59.542,60.44z"/>
	<path opacity="0.9" fill="#FFFFFF" enable-background="new    " d="M56.843,56.453c0-0.058,0-0.117,0-0.175
		C56.843,56.293,56.843,56.352,56.843,56.453z"/>
	<path opacity="0.9" fill="#FFFFFF" enable-background="new    " d="M68.08,52.238c-0.053-0.01-0.094-0.017-0.094-0.017
		c0.104,0.929,0.155,1.776,0.162,2.562C68.168,54.017,68.148,53.172,68.08,52.238z"/>
	<path opacity="0.9" fill="#FFFFFF" enable-background="new    " d="M60.377,43.361c-0.582,1.007-3.697,6.658-3.531,12.788
		c0.182-5.718,2.98-10.796,3.531-11.745h9.041c0.493-0.412,0.959-0.774,1.354-1.043H60.377L60.377,43.361z"/>
	<path opacity="0.9" fill="#FFFFFF" enable-background="new    " d="M83.046,47.495l-2.593,0.468c0,0-2.793,0.503-5.899,0.399
		c0,0-4.935,0.24-7.698,1.66c0,0-2.059,0.946-4.121,2.542c0,0-0.435,0.225-0.415,1.048c0.026,0.822-0.41,3.01-1.868,4.295
		c0,0-1.043,0.549-0.518,1.333c0,0,0.026,0.035,0.058,0.078c0.197-0.238,0.46-0.372,0.46-0.372c1.457-1.288,1.892-3.474,1.868-4.295
		c-0.02-0.822,0.415-1.048,0.415-1.048c0.538-0.415,1.072-0.784,1.571-1.108c0.005-0.119,0.02-0.233,0.026-0.354
		c0,0,0.805-0.71,2.085-0.92c0,0,0,0.028,0,0.055c0.271-0.139,0.44-0.218,0.44-0.218c2.762-1.419,7.698-1.657,7.698-1.657
		c3.109,0.101,5.899-0.402,5.899-0.402l2.593-0.468c0,0.078,0.02,0.155,0.02,0.233v-1.04C83.066,47.649,83.046,47.576,83.046,47.495
		z"/>
	<path opacity="0.9" fill="#FFFFFF" enable-background="new    " d="M53.489,62.572c-2.328-2.504-5.988-10.028-6.365-18.775
		c-1.473,0.701-2.499,2.196-2.499,3.934v1.04c0-1.738,1.027-3.231,2.499-3.934c0.375,8.748,4.037,16.277,6.365,18.781
		c2.38,2.558,5.89,5.277,10.376,4.144c4.485-1.131,5.385-6.051,5.385-6.051c0.296-1.255,0.369-2.583,0.337-3.825
		c-0.026,0.926-0.119,1.872-0.337,2.788c0,0-0.898,4.915-5.385,6.051C59.378,67.852,55.872,65.132,53.489,62.572z"/>
	<g>
		<g opacity="0.3">
			<path opacity="0.5" fill="#669CCC" enable-background="new    " d="M80.263,46.94c-0.02,0.003-2.249,0.397-4.862,0.397
				c-0.265,0-0.544-0.003-0.814-0.013c-0.296,0.01-5.277,0.268-8.206,1.771c-0.02,0.01-0.493,0.227-1.207,0.625
				c0.56-0.547,4.293-4.217,6.179-5.502l2.788-1.9H59.778l-0.301,0.518c-0.653,1.118-3.883,7.033-3.67,13.455
				c-0.01,0.205-0.149,6.541,4.5,8.907c0.134,0.061,0.82,0.344,1.808,0.344c1.374,0,3.948-0.571,5.8-4.397
				c0.01-0.013,0.145-0.243,0.321-0.69c-0.088,0.41-0.964,4.329-4.629,5.255c-0.612,0.155-1.224,0.233-1.829,0.233
				c-2.51,0-4.976-1.335-7.531-4.077c-2.244-2.416-5.732-9.843-6.081-18.115l-0.069-1.572l-1.419,0.675
				c-1.882,0.896-3.099,2.808-3.099,4.873v22.269l0.628,0.268c1.333,0.58,4.921,1.927,9.413,2.008l1.171,0.026
				c0.875,0.017,1.716,0.038,2.535,0.038c4.174-0.003,7.506-0.518,11.181-3.099c5.164-3.617,4.546-9.396,4.516-9.639
				c-0.015-0.666-0.088-1.328-0.213-1.971c2.866,5.892-0.425,10.736-0.607,10.994c-4.18,5.864-11.477,10.195-15.459,12.254
				l-3.795,1.963h25.747c2.985,0,5.411-2.426,5.411-5.408v-29.7c0-0.097-0.01-0.189-0.026-0.281l-0.156-1.065l-1.068,0.091
				L80.263,46.94z M83.066,47.73v29.707c0,2.409-1.956,4.372-4.368,4.372H57.225c3.737-1.935,11.447-6.428,15.831-12.583
				c0,0,6.246-8.907-3.717-17.582c0,0,2.565,4.025,2.654,8.082c0,0,0.638,5.365-4.08,8.666c-4.712,3.306-8.839,2.944-14.27,2.846
				c-4.343-0.077-7.802-1.394-9.016-1.923V47.73c0-1.738,1.027-3.231,2.499-3.934c0.375,8.748,4.037,16.271,6.365,18.775
				c2.38,2.561,5.89,5.28,10.376,4.149c4.485-1.133,5.385-6.051,5.385-6.051c0.984-4.191-0.44-9.163-0.514-9.269
				c-0.074-0.104-0.751-0.22-0.751-0.22c0.716,6.595-1.001,9.517-1.001,9.517c-2.504,5.173-6.206,3.579-6.206,3.579
				c-4.116-2.095-3.934-8.017-3.934-8.017c-0.202-6.17,2.944-11.887,3.531-12.901h10.394c-2.135,1.452-6.375,5.669-6.375,5.669
				c-6.043,5.634-4.857,10.372-4.857,10.372c0.98,4.971,3.967,1.616,3.967,1.616c3.152-3.276,2.904-9.792,2.904-9.792
				c-1.28,0.21-2.085,0.92-2.085,0.92c-0.149,4.346-2.697,7.043-2.697,7.043c-0.994,1.101-1.7,0.053-1.7,0.053
				c-0.524-0.787,0.518-1.333,0.518-1.333c1.457-1.285,1.892-3.474,1.868-4.295c-0.02-0.822,0.415-1.048,0.415-1.048
				c2.059-1.599,4.121-2.542,4.121-2.542c2.762-1.419,7.698-1.66,7.698-1.66c3.109,0.104,5.899-0.399,5.899-0.399l2.593-0.468
				C83.046,47.576,83.066,47.649,83.066,47.73z M61.057,60.7c0.385-0.071,0.865-0.285,1.338-0.814
				c0.098-0.098,2.608-2.801,2.94-7.176l0,0c-0.119,1.988-0.618,5.557-2.575,7.589c-0.316,0.347-0.903,0.79-1.265,0.79
				C61.368,61.082,61.217,60.961,61.057,60.7z"/>
		</g>
		<g opacity="0.9" enable-background="new    ">
			<path fill="#FFFFFF" d="M83.063,77.436H83.06V47.727c0-0.078-0.02-0.155-0.02-0.233l-2.593,0.468c0,0-2.791,0.503-5.899,0.399
				c0,0-4.935,0.241-7.698,1.66c0,0-2.062,0.943-4.121,2.542c0,0-0.435,0.225-0.415,1.048c0.025,0.821-0.41,3.01-1.867,4.295
				c0,0-1.043,0.547-0.518,1.333c0,0,0.706,1.048,1.7-0.053c0,0,2.548-2.697,2.697-7.043c0,0,0.805-0.71,2.085-0.92
				c0,0,0.247,6.516-2.904,9.792c0,0-2.987,3.355-3.967-1.616c0,0-1.186-4.738,4.857-10.372c0,0,4.24-4.217,6.375-5.669H60.376
				c-0.587,1.014-3.733,6.731-3.531,12.901c0,0-0.182,5.922,3.934,8.017c0,0,3.702,1.595,6.206-3.579c0,0,1.717-2.921,1.001-9.517
				c0,0,0.678,0.117,0.751,0.22c0.074,0.106,1.498,5.078,0.514,9.269c0,0-0.9,4.918-5.385,6.051
				c-4.487,1.132-7.996-1.588-10.376-4.149c-2.328-2.504-5.991-10.027-6.365-18.775c-1.473,0.703-2.499,2.196-2.499,3.934v21.586
				c1.214,0.529,4.672,1.846,9.016,1.923c5.431,0.098,9.558,0.46,14.27-2.846c4.718-3.301,4.08-8.666,4.08-8.666
				c-0.089-4.057-2.654-8.082-2.654-8.082c9.962,8.674,3.717,17.582,3.717,17.582C68.67,75.38,60.96,79.873,57.223,81.808h21.473
				c2.413,0,4.368-1.963,4.368-4.372L83.063,77.436L83.063,77.436L83.063,77.436z"/>
		</g>
	</g>
</g>
</svg>
