<?xml version="1.0" encoding="utf-8"?>
<!-- Generator: Adobe Illustrator 17.0.0, SVG Export Plug-In . SVG Version: 6.00 Build 0)  -->
<!DOCTYPE svg PUBLIC "-//W3C//DTD SVG 1.1//EN" "http://www.w3.org/Graphics/SVG/1.1/DTD/svg11.dtd">
<svg version="1.1" id="图层_1" xmlns="http://www.w3.org/2000/svg" xmlns:xlink="http://www.w3.org/1999/xlink" x="0px" y="0px"
	 width="48px" height="48px" viewBox="8 8 48 48" enable-background="new 8 8 48 48" xml:space="preserve">
<g id="g151" opacity="0.5">
	<path id="path153" opacity="0.08" enable-background="new    " d="M48.41,52.136H15.617c-3.019,0-5.48-2.367-5.48-5.266v4.028
		c0,2.265,1.925,4.102,4.283,4.102h35.185c2.358,0,4.256-1.836,4.256-4.102V46.87C53.861,49.77,51.428,52.136,48.41,52.136z"/>
	<path id="path155" opacity="0.1" enable-background="new    " d="M48.383,52.136H15.59c-3.018,0-5.451-2.323-5.451-5.222v2.107
		c0,2.265,1.039,5.025,5.25,5.025s28.929,0,33.195,0s5.279-2.76,5.279-5.025v-2.107C53.861,49.813,51.4,52.136,48.383,52.136z"/>
	<path id="path157" opacity="0.1" enable-background="new    " d="M48.383,52.136H15.59c-3.018,0-5.451-2.323-5.451-5.222v1.137
		c0,2.266,1.802,5.041,5.25,5.041s29.249,0,33.195,0c3.947,0,5.279-2.775,5.279-5.039v-1.137
		C53.861,49.813,51.4,52.136,48.383,52.136z"/>
	<rect id="rect159" x="15.107" y="52.136" opacity="0.05" enable-background="new    " width="33.786" height="0.955"/>
	<rect id="rect161" x="16.101" y="52.136" opacity="0.05" enable-background="new    " width="30.805" height="0.955"/>
	<rect id="rect163" x="16.101" y="53.091" opacity="0.05" enable-background="new    " width="30.805" height="0.955"/>
	<rect id="rect165" x="18.087" y="53.091" opacity="0.05" enable-background="new    " width="27.824" height="0.955"/>
	<rect id="rect167" x="21.069" y="53.091" opacity="0.05" enable-background="new    " width="21.862" height="0.955"/>
	<rect id="rect169" x="25.044" y="53.091" opacity="0.05" enable-background="new    " width="13.912" height="0.955"/>
	<rect id="rect171" x="18.087" y="52.136" opacity="0.05" enable-background="new    " width="27.824" height="0.955"/>
	<rect id="rect173" x="20.075" y="52.136" opacity="0.05" enable-background="new    " width="23.849" height="0.955"/>
	<rect id="rect175" x="21.069" y="52.136" opacity="0.05" enable-background="new    " width="21.862" height="0.955"/>
	<rect id="rect177" x="23.056" y="52.136" opacity="0.05" enable-background="new    " width="17.887" height="0.955"/>
	<rect id="rect179" x="23.056" y="52.136" opacity="0.05" enable-background="new    " width="17.887" height="0.955"/>
</g>
<path fill="#C4DCED" stroke="#9DBCD7" stroke-miterlimit="10" d="M53.466,46.281c0,3.121-2.531,5.652-5.652,5.652H16.185
	c-3.121,0-5.652-2.531-5.652-5.652V14.652c0-3.121,2.531-5.652,5.652-5.652h31.63c3.121,0,5.652,2.531,5.652,5.652L53.466,46.281
	L53.466,46.281z"/>
<path opacity="0.6" fill="none" stroke="#FFFFFF" stroke-miterlimit="10" d="M16.185,50.934c-2.565,0-4.652-2.087-4.652-4.652
	V14.652c0-2.565,2.087-4.652,4.652-4.652h31.629c2.565,0,4.652,2.087,4.652,4.652v31.629c0,2.565-2.087,4.652-4.652,4.652H16.185z"
	/>
<path opacity="0.08" fill="none" stroke="#000000" stroke-miterlimit="10" enable-background="new    " d="M53.627,21.193
	c0,0,0-1.899-1.876-1.899c-5.445,0-22.83,0.003-24.387,0.003c-1.891,0-1.876-1.872-1.876-1.872s0-1.885-1.876-1.885
	c-3.284,0-9.861,0-11.255,0c-1.847,0-1.876,1.816-1.876,1.873"/>
<path opacity="0.03" fill="none" stroke="#000000" stroke-miterlimit="10" enable-background="new    " d="M53.627,20.112
	c0,0,0-1.899-1.876-1.899c-5.445,0-22.83,0.003-24.387,0.003c-1.891,0-1.876-1.872-1.876-1.872s0-1.885-1.876-1.885
	c-3.284,0-9.861,0-11.255,0c-1.847,0-1.876,1.816-1.876,1.873"/>
<linearGradient id="SVGID_1_" gradientUnits="userSpaceOnUse" x1="1127.9993" y1="1377.9335" x2="1127.9993" y2="1342.5322" gradientTransform="matrix(1 0 0 1 -1096 -1326)">
	<stop  offset="0" style="stop-color:#D1E0ED"/>
	<stop  offset="1" style="stop-color:#E4EEFB"/>
</linearGradient>
<path fill="url(#SVGID_1_)" stroke="#9DBCD7" stroke-miterlimit="10" d="M16.172,51.933H47.92c3.121,0,5.546-2.595,5.546-5.717
	V20.871c0-0.445-0.665-0.864-1.55-0.864c-5.468,0-22.903,0.003-24.466,0.003c-1.899,0-1.87-1.733-1.87-1.733
	s0.013-1.745-1.871-1.745c-3.298,0-9.904,0-11.304,0c-1.855,0-1.872,1.538-1.872,1.596v28.089
	C10.533,49.338,13.051,51.933,16.172,51.933z"/>
<path opacity="0.8" fill="none" stroke="#FFFFFF" stroke-miterlimit="10" d="M16.172,50.934c-2.558,0-4.64-2.116-4.64-4.717V18.128
	c0.023-0.596,0.662-0.596,0.872-0.596h11.304c0.21,0,0.85,0,0.871,0.754c-0.002,0.091,0.003,1.14,0.779,1.928
	c0.357,0.363,1.01,0.796,2.092,0.796l24.466-0.003c0.263,0,0.446,0.055,0.551,0.102v25.107c0,2.601-2.04,4.717-4.547,4.717H16.172z"
	/>
<radialGradient id="SVGID_2_" cx="1506.46" cy="-1013.1687" r="34.4255" gradientTransform="matrix(0.0197 0.9998 -0.9109 0.018 -922.1061 -1463.46)" gradientUnits="userSpaceOnUse">
	<stop  offset="0" style="stop-color:#FFFFFF;stop-opacity:0.6"/>
	<stop  offset="0.3783" style="stop-color:#FAFCFE;stop-opacity:0.4487"/>
	<stop  offset="0.829" style="stop-color:#EBF3FC;stop-opacity:0.2684"/>
	<stop  offset="1" style="stop-color:#E4EEFB;stop-opacity:0.2"/>
</radialGradient>
<path fill="url(#SVGID_2_)" d="M16.172,51.181c-2.695,0-4.887-2.226-4.887-4.964V18.128c0-0.036,0.006-0.336,0.229-0.56
	c0.187-0.187,0.486-0.282,0.889-0.282h11.304c0.446,0,0.673,0.053,0.809,0.19c0.3,0.302,0.313,0.762,0.313,0.767
	c-0.001,0.099,0.004,1.081,0.732,1.82c0.464,0.471,1.1,0.709,1.89,0.709c0,0,20.898-0.008,24.461-0.008
	c0.471,0,0.731,0.162,0.798,0.239v25.214c0,2.738-2.15,4.964-4.793,4.964H16.172L16.172,51.181L16.172,51.181z"/>
<g id="g27_1_">
	
		<linearGradient id="path36_2_" gradientUnits="userSpaceOnUse" x1="1520.0824" y1="2152.541" x2="1526.0471" y2="2162.8721" gradientTransform="matrix(1 0 0 1 -1508 -2144)">
		<stop  offset="0" style="stop-color:#FFFFFF"/>
		<stop  offset="0.5" style="stop-color:#FFFFFF;stop-opacity:0.6"/>
		<stop  offset="1" style="stop-color:#FFFFFF;stop-opacity:0.15"/>
	</linearGradient>
	<path id="path36_1_" fill="url(#path36_2_)" d="M17,20.627c0.667-1.381,1.481-2.674,2.414-3.869l-1.699-3.725
		c-1.451,1.372-2.629,2.883-3.569,4.351L17,20.627z"/>
	
		<linearGradient id="path45_2_" gradientUnits="userSpaceOnUse" x1="1525.4906" y1="2150.9939" x2="1529.3943" y2="2157.7554" gradientTransform="matrix(1 0 0 1 -1508 -2144)">
		<stop  offset="0" style="stop-color:#FFFFFF"/>
		<stop  offset="0.5" style="stop-color:#FFFFFF;stop-opacity:0.6"/>
		<stop  offset="1" style="stop-color:#FFFFFF;stop-opacity:0.15"/>
	</linearGradient>
	<path id="path45_1_" fill="url(#path45_2_)" d="M17.178,9.452l0.888,1.946c0.854-0.709,1.791-0.954,2.812-1.946H17.178z"/>
	
		<linearGradient id="path54_2_" gradientUnits="userSpaceOnUse" x1="1526.7184" y1="2149.7102" x2="1531.4878" y2="2157.9709" gradientTransform="matrix(1 0 0 1 -1508 -2144)">
		<stop  offset="0" style="stop-color:#FFFFFF"/>
		<stop  offset="0.5" style="stop-color:#FFFFFF;stop-opacity:0.6"/>
		<stop  offset="1" style="stop-color:#FFFFFF;stop-opacity:0.15"/>
	</linearGradient>
	<path id="path54_1_" fill="url(#path54_2_)" d="M23.841,9.452h-0.703c-1.772,0.992-3.321,1.75-4.65,2.881l1.628,3.573
		c1.391-1.607,3.005-3.015,4.813-4.152c0.014-0.013,0.024-0.024,0.039-0.036C26.994,9.968,24.983,9.452,23.841,9.452z"/>
	
		<linearGradient id="path63_2_" gradientUnits="userSpaceOnUse" x1="1516.7354" y1="2157.2505" x2="1521.9113" y2="2166.2153" gradientTransform="matrix(1 0 0 1 -1508 -2144)">
		<stop  offset="0" style="stop-color:#FFFFFF"/>
		<stop  offset="0.5" style="stop-color:#FFFFFF;stop-opacity:0.6"/>
		<stop  offset="1" style="stop-color:#FFFFFF;stop-opacity:0.15"/>
	</linearGradient>
	<path id="path63_1_" fill="url(#path63_2_)" d="M13.606,18.269c-1.089,1.855-1.802,3.569-2.224,4.741
		c0.5,0.714,1.327,1.182,2.265,1.182c1.161,0,2.153-0.717,2.563-1.731c0.105-0.283,0.233-0.555,0.351-0.834L13.606,18.269z"/>
	
		<linearGradient id="path72_2_" gradientUnits="userSpaceOnUse" x1="1516.5024" y1="2157.6179" x2="1522.2385" y2="2167.5532" gradientTransform="matrix(1 0 0 1 -1508 -2144)">
		<stop  offset="0" style="stop-color:#FFFFFF"/>
		<stop  offset="0.5" style="stop-color:#FFFFFF;stop-opacity:0.6"/>
		<stop  offset="1" style="stop-color:#FFFFFF;stop-opacity:0.15"/>
	</linearGradient>
	<path id="path72_1_" fill="url(#path72_2_)" d="M10.901,15.192l-0.021,6.229c0,0,0,0.002,0,0.004c0,0.039,0.01,0.076,0.012,0.114
		c0.474-1.152,1.135-2.56,2.031-4.048L10.901,15.192z"/>
	
		<linearGradient id="path149_2_" gradientUnits="userSpaceOnUse" x1="1520.8402" y1="2154.5063" x2="1526.2263" y2="2163.8357" gradientTransform="matrix(1 0 0 1 -1508 -2144)">
		<stop  offset="0" style="stop-color:#FFFFFF"/>
		<stop  offset="0.5" style="stop-color:#FFFFFF;stop-opacity:0.6"/>
		<stop  offset="1" style="stop-color:#FFFFFF;stop-opacity:0.15"/>
	</linearGradient>
	<path id="path149_1_" fill="url(#path149_2_)" d="M15.994,9.464c-2.024-0.168-4.689,2.111-5.03,4.297l2.511,2.855
		c1.002-1.53,2.248-3.096,3.786-4.512L15.994,9.464z"/>
</g>
<g>
	<path opacity="0.3" fill="#FFFFFF" enable-background="new    " d="M27.668,22.438c-0.534,0.04-0.948,0.487-0.948,1.024v11.466
		c-0.799-0.085-1.637-0.069-2.502,0.165c-1.301,0.352-2.397,1.019-3.164,1.884c-0.767,0.865-1.226,2.011-0.919,3.165
		c0.304,1.15,1.27,1.935,2.364,2.304c1.094,0.369,2.388,0.399,3.69,0.045c2.04-0.552,3.629-1.866,4.025-3.586
		c0.095-0.16,0.149-0.339,0.149-0.529v-8.165l5.966,0.755v6.887c-0.801-0.092-1.646-0.085-2.517,0.149
		c-1.299,0.35-2.398,1.015-3.163,1.883c-0.767,0.868-1.225,2.026-0.921,3.176c0.308,1.153,1.271,1.935,2.367,2.307
		c1.096,0.371,2.388,0.399,3.691,0.048c2.045-0.554,3.628-1.878,4.021-3.602c0.1-0.16,0.149-0.339,0.152-0.529V24.969
		c0.002-0.516-0.378-0.955-0.888-1.024l-11.193-1.507C27.809,22.431,27.738,22.431,27.668,22.438z M27.744,23.462l11.195,1.507
		v16.316h-0.02c-0.126,1.296-1.494,2.617-3.403,3.133c-2.25,0.609-4.395-0.119-4.793-1.612c-0.397-1.491,1.112-3.203,3.36-3.812
		c1.204-0.326,2.379-0.259,3.271,0.09v-9.04l-8.016-1.009v9.341h-0.014c-0.126,1.298-1.496,2.602-3.405,3.119
		c-2.248,0.607-4.396-0.119-4.792-1.612c-0.396-1.494,1.11-3.188,3.359-3.797c1.204-0.326,2.361-0.274,3.257,0.075L27.744,23.462
		L27.744,23.462z M29.34,26.521v1.161l8.016,1.009v-1.024L29.34,26.521z"/>
	<path opacity="0.3" fill="#FFFFFF" enable-background="new    " d="M27.652,22.892c-0.28,0.043-0.485,0.287-0.481,0.571v12.023
		c-0.872-0.183-1.827-0.212-2.832,0.06c-1.223,0.331-2.257,0.947-2.956,1.732c-0.694,0.789-1.056,1.788-0.796,2.762
		c0.257,0.968,1.07,1.652,2.062,1.988c0.994,0.335,2.198,0.344,3.421,0.014c1.969-0.533,3.463-1.816,3.752-3.36
		c0.038-0.064,0.064-0.135,0.074-0.212c0.002-0.01,0.002-0.02,0-0.028c0.007-0.022,0.014-0.04,0.017-0.062v-8.709l6.868,0.873v7.852
		c-0.87-0.188-1.836-0.217-2.845,0.06c-1.225,0.33-2.257,0.958-2.954,1.748c-0.697,0.791-1.056,1.786-0.799,2.756
		c0.257,0.971,1.071,1.654,2.063,1.99c0.994,0.335,2.196,0.344,3.423,0.014c1.971-0.533,3.46-1.831,3.749-3.373
		c0.038-0.064,0.062-0.137,0.075-0.212c0-0.01,0-0.02,0-0.028c0.005-0.022,0.01-0.04,0.014-0.062V24.969
		c-0.005-0.284-0.217-0.521-0.497-0.558l-11.193-1.507c-0.034-0.009-0.071-0.012-0.105-0.014
		C27.692,22.889,27.674,22.889,27.652,22.892z M27.744,23.462l11.195,1.507v16.316h-0.02c-0.126,1.296-1.494,2.617-3.403,3.133
		c-2.25,0.609-4.395-0.119-4.793-1.612c-0.397-1.491,1.112-3.203,3.36-3.812c1.204-0.326,2.379-0.259,3.271,0.09v-9.04l-8.016-1.009
		v9.341h-0.014c-0.126,1.298-1.496,2.602-3.405,3.119c-2.248,0.607-4.396-0.119-4.792-1.612c-0.396-1.494,1.11-3.188,3.359-3.797
		c1.204-0.326,2.361-0.274,3.257,0.075L27.744,23.462L27.744,23.462z M29.34,26.521v1.161l8.016,1.009v-1.024L29.34,26.521z
		 M29.913,27.169l0.905,0.135l-0.905-0.121V27.169z"/>
	<path opacity="0.3" fill="#669CCC" enable-background="new    " d="M27.746,23.466v12.704c-0.893-0.35-2.059-0.409-3.26-0.085
		c-2.248,0.609-3.757,2.318-3.36,3.809c0.394,1.491,2.538,2.211,4.789,1.605c1.907-0.519,3.277-1.829,3.404-3.124h0.013v-9.343
		l8.019,1.01v9.045c-0.888-0.35-2.056-0.409-3.259-0.083c-2.248,0.607-3.757,2.315-3.36,3.807c0.396,1.494,2.54,2.211,4.788,1.605
		c1.912-0.516,3.279-1.826,3.405-3.124h0.017V24.97L27.746,23.466L27.746,23.466z M29.332,26.521l8.019,1.148v1.026l-8.019-1.01
		C29.332,27.685,29.332,26.521,29.332,26.521z"/>
	<path opacity="0.3" fill="#669CCC" enable-background="new    " d="M27.744,23.462v12.703c-0.893-0.35-2.052-0.402-3.257-0.075
		c-2.248,0.609-3.755,2.304-3.359,3.797c0.394,1.494,2.543,2.218,4.792,1.612c1.909-0.519,3.277-1.821,3.405-3.119h0.014v-9.342
		l8.016,1.009v9.041c-0.891-0.35-2.066-0.416-3.271-0.09c-2.247,0.609-3.757,2.32-3.36,3.812c0.397,1.494,2.543,2.221,4.793,1.612
		c1.909-0.516,3.276-1.838,3.403-3.133h0.02V24.969L27.744,23.462z M28.586,24.412l9.508,1.28v1.582
		c-0.126-0.235-0.354-0.397-0.619-0.437l-8.014-1.145c-0.358-0.052-0.708,0.129-0.875,0.451
		C28.586,26.144,28.586,24.412,28.586,24.412z M29.34,26.521l8.016,1.145v1.024l-8.016-1.009C29.34,27.68,29.34,26.521,29.34,26.521
		z M28.586,28.044c0.06,0.124,0.147,0.234,0.257,0.316c-0.107,0.078-0.195,0.181-0.257,0.302V28.044z M38.093,29.097v0.558
		c-0.057-0.112-0.14-0.211-0.24-0.286C37.951,29.296,38.034,29.205,38.093,29.097z M28.496,36.541v1.674
		c-0.005,0.03-0.01,0.06-0.014,0.087c-0.074,0.768-1.125,1.933-2.787,2.382c-0.978,0.264-1.912,0.229-2.592,0
		c-0.678-0.23-1.051-0.594-1.161-1.01c-0.11-0.414,0.035-0.921,0.511-1.459c0.478-0.539,1.282-1.046,2.26-1.312
		c1.048-0.282,2.04-0.225,2.727,0.045C27.846,37.102,28.3,36.925,28.496,36.541z M38.093,39.493v1.628
		c-0.005,0.028-0.012,0.06-0.014,0.087c-0.074,0.768-1.127,1.948-2.787,2.397c-0.979,0.264-1.914,0.229-2.593,0
		c-0.681-0.229-1.048-0.597-1.158-1.01c-0.112-0.412,0.032-0.932,0.511-1.474c0.48-0.545,1.282-1.048,2.26-1.312
		c1.04-0.28,2.05-0.209,2.743,0.06C37.447,40.021,37.888,39.862,38.093,39.493z"/>
	<path opacity="0.3" fill="#669CCC" enable-background="new    " d="M27.744,23.462v0.482l11.195,1.506v-0.482L27.744,23.462z
		 M29.34,27.68v0.484l8.016,1.008V28.69L29.34,27.68z M25.814,35.88c-0.428,0.02-0.875,0.087-1.327,0.209
		c-2.138,0.578-3.608,2.15-3.404,3.586c0.137-1.292,1.504-2.589,3.404-3.103c1.204-0.326,2.361-0.274,3.257,0.074v-0.481
		C27.185,35.946,26.527,35.846,25.814,35.88z M35.832,38.784c-0.549-0.017-1.143,0.048-1.747,0.212
		c-2.106,0.571-3.557,2.105-3.405,3.526c0.183-1.267,1.543-2.54,3.405-3.043c1.204-0.326,2.379-0.259,3.271,0.09v-0.482
		C36.909,38.914,36.389,38.806,35.832,38.784z"/>
	<path opacity="0.3" fill="#669CCC" enable-background="new    " d="M27.744,23.462v12.703c-0.893-0.35-2.052-0.402-3.257-0.075
		c-2.248,0.609-3.755,2.304-3.359,3.797c0.394,1.494,2.543,2.218,4.792,1.612c1.909-0.519,3.277-1.821,3.405-3.119h0.014v-9.342
		l8.016,1.009v9.041c-0.891-0.35-2.066-0.416-3.271-0.09c-2.247,0.609-3.757,2.32-3.36,3.812c0.397,1.494,2.543,2.221,4.793,1.612
		c1.909-0.516,3.276-1.838,3.403-3.133h0.02V24.969L27.744,23.462z M28.12,23.899L38.562,25.3v15.881
		c-0.007,0.025-0.014,0.05-0.017,0.074c-0.103,1.056-1.337,2.315-3.131,2.803c-1.059,0.287-2.082,0.247-2.866-0.017
		c-0.781-0.261-1.301-0.73-1.459-1.322c-0.157-0.597,0.069-1.275,0.619-1.901c0.55-0.623,1.429-1.174,2.485-1.459
		c1.131-0.307,2.229-0.225,3.03,0.092c0.197,0.069,0.416-0.033,0.49-0.229c0.014-0.043,0.022-0.09,0.022-0.135v-9.041
		c0-0.191-0.142-0.353-0.33-0.377l-8.016-1.009c-0.209-0.023-0.396,0.129-0.419,0.339c-0.002,0.012-0.002,0.026-0.002,0.038v9.236
		c-0.007,0.026-0.014,0.05-0.017,0.075c-0.103,1.058-1.335,2.3-3.133,2.787c-1.057,0.287-2.081,0.247-2.862-0.014
		c-0.783-0.264-1.303-0.733-1.462-1.33c-0.157-0.594,0.069-1.262,0.619-1.881c0.547-0.619,1.427-1.177,2.486-1.462
		c1.132-0.307,2.212-0.238,3.012,0.075c0.199,0.074,0.417-0.028,0.49-0.229c0.017-0.043,0.025-0.087,0.025-0.133V23.899H28.12z
		 M29.28,26.144c-0.183,0.032-0.316,0.191-0.316,0.376v1.161c0,0.191,0.142,0.353,0.33,0.377l8.016,1.009
		c0.209,0.023,0.397-0.129,0.419-0.339c0.002-0.012,0.002-0.026,0.002-0.039v-1.024c0-0.185-0.13-0.344-0.316-0.376l-8.016-1.145
		C29.362,26.139,29.319,26.139,29.28,26.144z M29.34,26.521l8.016,1.145v1.024l-8.016-1.009C29.34,27.68,29.34,26.521,29.34,26.521z
		"/>
	<path opacity="0.3" fill="#FFFFFF" enable-background="new    " d="M29.34,26.521v0.482l8.016,1.145v-0.482L29.34,26.521z
		 M29.34,29.038v0.482l8.016,1.01v-0.482L29.34,29.038z M29.325,38.378c-0.126,1.298-1.496,2.602-3.405,3.119
		c-2.248,0.607-4.396-0.119-4.792-1.612c-0.019-0.074-0.035-0.137-0.045-0.212c-0.026,0.238-0.017,0.464,0.045,0.692
		c0.394,1.494,2.543,2.223,4.792,1.614c1.909-0.519,3.277-1.821,3.405-3.119h0.014v-0.482H29.325z M38.92,41.286
		c-0.126,1.296-1.494,2.617-3.403,3.133c-2.25,0.609-4.395-0.119-4.793-1.612c-0.022-0.083-0.033-0.172-0.045-0.254
		c-0.032,0.25-0.021,0.492,0.045,0.735c0.397,1.494,2.543,2.223,4.793,1.614c1.909-0.516,3.276-1.838,3.403-3.131h0.02v-0.485
		L38.92,41.286L38.92,41.286z"/>
</g>
</svg>
