<?xml version="1.0" encoding="utf-8"?>
<!-- Generator: Adobe Illustrator 17.0.0, SVG Export Plug-In . SVG Version: 6.00 Build 0)  -->
<!DOCTYPE svg PUBLIC "-//W3C//DTD SVG 1.1//EN" "http://www.w3.org/Graphics/SVG/1.1/DTD/svg11.dtd">
<svg version="1.1" id="图层_1" xmlns="http://www.w3.org/2000/svg" xmlns:xlink="http://www.w3.org/1999/xlink" x="0px" y="0px"
	 width="48px" height="48px" viewBox="8 8 48 48" enable-background="new 8 8 48 48" xml:space="preserve">
<g id="g151" opacity="0.5">
	<path id="path153" opacity="0.08" enable-background="new    " d="M48.41,52.136H15.617c-3.019,0-5.48-2.367-5.48-5.266v4.028
		c0,2.265,1.925,4.102,4.283,4.102h35.185c2.358,0,4.256-1.836,4.256-4.102V46.87C53.861,49.77,51.428,52.136,48.41,52.136z"/>
	<path id="path155" opacity="0.1" enable-background="new    " d="M48.383,52.136H15.59c-3.018,0-5.451-2.323-5.451-5.222v2.107
		c0,2.265,1.039,5.025,5.25,5.025s28.929,0,33.195,0s5.279-2.76,5.279-5.025v-2.107C53.861,49.813,51.4,52.136,48.383,52.136z"/>
	<path id="path157" opacity="0.1" enable-background="new    " d="M48.383,52.136H15.59c-3.018,0-5.451-2.323-5.451-5.222v1.137
		c0,2.266,1.802,5.041,5.25,5.041s29.249,0,33.195,0c3.947,0,5.279-2.775,5.279-5.039v-1.137
		C53.861,49.813,51.4,52.136,48.383,52.136z"/>
	<rect id="rect159" x="15.107" y="52.136" opacity="0.05" enable-background="new    " width="33.786" height="0.955"/>
	<rect id="rect161" x="16.101" y="52.136" opacity="0.05" enable-background="new    " width="30.805" height="0.955"/>
	<rect id="rect163" x="16.101" y="53.091" opacity="0.05" enable-background="new    " width="30.805" height="0.955"/>
	<rect id="rect165" x="18.087" y="53.091" opacity="0.05" enable-background="new    " width="27.824" height="0.955"/>
	<rect id="rect167" x="21.069" y="53.091" opacity="0.05" enable-background="new    " width="21.862" height="0.955"/>
	<rect id="rect169" x="25.044" y="53.091" opacity="0.05" enable-background="new    " width="13.912" height="0.955"/>
	<rect id="rect171" x="18.087" y="52.136" opacity="0.05" enable-background="new    " width="27.824" height="0.955"/>
	<rect id="rect173" x="20.075" y="52.136" opacity="0.05" enable-background="new    " width="23.849" height="0.955"/>
	<rect id="rect175" x="21.069" y="52.136" opacity="0.05" enable-background="new    " width="21.862" height="0.955"/>
	<rect id="rect177" x="23.056" y="52.136" opacity="0.05" enable-background="new    " width="17.887" height="0.955"/>
	<rect id="rect179" x="23.056" y="52.136" opacity="0.05" enable-background="new    " width="17.887" height="0.955"/>
</g>
<path fill="#C4DCED" stroke="#9DBCD7" stroke-miterlimit="10" d="M53.466,46.281c0,3.121-2.531,5.652-5.652,5.652H16.185
	c-3.121,0-5.652-2.531-5.652-5.652V14.652c0-3.121,2.531-5.652,5.652-5.652h31.63c3.121,0,5.652,2.531,5.652,5.652L53.466,46.281
	L53.466,46.281z"/>
<path opacity="0.6" fill="none" stroke="#FFFFFF" stroke-miterlimit="10" d="M16.185,50.934c-2.565,0-4.652-2.087-4.652-4.652
	V14.652c0-2.565,2.087-4.652,4.652-4.652h31.629c2.565,0,4.652,2.087,4.652,4.652v31.629c0,2.565-2.087,4.652-4.652,4.652H16.185z"
	/>
<path opacity="0.08" fill="none" stroke="#000000" stroke-miterlimit="10" enable-background="new    " d="M53.627,21.193
	c0,0,0-1.899-1.876-1.899c-5.445,0-22.83,0.003-24.387,0.003c-1.891,0-1.876-1.872-1.876-1.872s0-1.885-1.876-1.885
	c-3.284,0-9.861,0-11.255,0c-1.847,0-1.876,1.816-1.876,1.873"/>
<path opacity="0.03" fill="none" stroke="#000000" stroke-miterlimit="10" enable-background="new    " d="M53.627,20.112
	c0,0,0-1.899-1.876-1.899c-5.445,0-22.83,0.003-24.387,0.003c-1.891,0-1.876-1.872-1.876-1.872s0-1.885-1.876-1.885
	c-3.284,0-9.861,0-11.255,0c-1.847,0-1.876,1.816-1.876,1.873"/>
<linearGradient id="SVGID_1_" gradientUnits="userSpaceOnUse" x1="1127.9993" y1="1377.9335" x2="1127.9993" y2="1342.5322" gradientTransform="matrix(1 0 0 1 -1096 -1326)">
	<stop  offset="0" style="stop-color:#D1E0ED"/>
	<stop  offset="1" style="stop-color:#E4EEFB"/>
</linearGradient>
<path fill="url(#SVGID_1_)" stroke="#9DBCD7" stroke-miterlimit="10" d="M16.172,51.933H47.92c3.121,0,5.546-2.595,5.546-5.717
	V20.871c0-0.445-0.665-0.864-1.55-0.864c-5.468,0-22.903,0.003-24.466,0.003c-1.899,0-1.87-1.733-1.87-1.733
	s0.013-1.745-1.871-1.745c-3.298,0-9.904,0-11.304,0c-1.855,0-1.872,1.538-1.872,1.596v28.089
	C10.533,49.338,13.051,51.933,16.172,51.933z"/>
<path opacity="0.8" fill="none" stroke="#FFFFFF" stroke-miterlimit="10" d="M16.172,50.934c-2.558,0-4.64-2.116-4.64-4.717V18.128
	c0.023-0.596,0.662-0.596,0.872-0.596h11.304c0.21,0,0.85,0,0.871,0.754c-0.002,0.091,0.003,1.14,0.779,1.928
	c0.357,0.363,1.01,0.796,2.092,0.796l24.466-0.003c0.263,0,0.446,0.055,0.551,0.102v25.107c0,2.601-2.04,4.717-4.547,4.717H16.172z"
	/>
<radialGradient id="SVGID_2_" cx="1506.46" cy="-1013.1687" r="34.4255" gradientTransform="matrix(0.0197 0.9998 -0.9109 0.018 -922.1061 -1463.46)" gradientUnits="userSpaceOnUse">
	<stop  offset="0" style="stop-color:#FFFFFF;stop-opacity:0.6"/>
	<stop  offset="0.3783" style="stop-color:#FAFCFE;stop-opacity:0.4487"/>
	<stop  offset="0.829" style="stop-color:#EBF3FC;stop-opacity:0.2684"/>
	<stop  offset="1" style="stop-color:#E4EEFB;stop-opacity:0.2"/>
</radialGradient>
<path fill="url(#SVGID_2_)" d="M16.172,51.181c-2.695,0-4.887-2.226-4.887-4.964V18.128c0-0.036,0.006-0.336,0.229-0.56
	c0.187-0.187,0.486-0.282,0.889-0.282h11.304c0.446,0,0.673,0.053,0.809,0.19c0.3,0.302,0.313,0.762,0.313,0.767
	c-0.001,0.099,0.004,1.081,0.732,1.82c0.464,0.471,1.1,0.709,1.89,0.709c0,0,20.898-0.008,24.461-0.008
	c0.471,0,0.731,0.162,0.798,0.239v25.214c0,2.738-2.15,4.964-4.793,4.964H16.172L16.172,51.181L16.172,51.181z"/>
<g id="g27_1_">
	
		<linearGradient id="path36_2_" gradientUnits="userSpaceOnUse" x1="1520.0824" y1="2152.541" x2="1526.0471" y2="2162.8721" gradientTransform="matrix(1 0 0 1 -1508 -2144)">
		<stop  offset="0" style="stop-color:#FFFFFF"/>
		<stop  offset="0.5" style="stop-color:#FFFFFF;stop-opacity:0.6"/>
		<stop  offset="1" style="stop-color:#FFFFFF;stop-opacity:0.15"/>
	</linearGradient>
	<path id="path36_1_" fill="url(#path36_2_)" d="M17,20.627c0.667-1.381,1.481-2.674,2.414-3.869l-1.699-3.725
		c-1.451,1.372-2.629,2.883-3.569,4.351L17,20.627z"/>
	
		<linearGradient id="path45_2_" gradientUnits="userSpaceOnUse" x1="1525.4906" y1="2150.9939" x2="1529.3943" y2="2157.7554" gradientTransform="matrix(1 0 0 1 -1508 -2144)">
		<stop  offset="0" style="stop-color:#FFFFFF"/>
		<stop  offset="0.5" style="stop-color:#FFFFFF;stop-opacity:0.6"/>
		<stop  offset="1" style="stop-color:#FFFFFF;stop-opacity:0.15"/>
	</linearGradient>
	<path id="path45_1_" fill="url(#path45_2_)" d="M17.178,9.452l0.888,1.946c0.854-0.709,1.791-0.954,2.812-1.946H17.178z"/>
	
		<linearGradient id="path54_2_" gradientUnits="userSpaceOnUse" x1="1526.7184" y1="2149.7102" x2="1531.4878" y2="2157.9709" gradientTransform="matrix(1 0 0 1 -1508 -2144)">
		<stop  offset="0" style="stop-color:#FFFFFF"/>
		<stop  offset="0.5" style="stop-color:#FFFFFF;stop-opacity:0.6"/>
		<stop  offset="1" style="stop-color:#FFFFFF;stop-opacity:0.15"/>
	</linearGradient>
	<path id="path54_1_" fill="url(#path54_2_)" d="M23.841,9.452h-0.703c-1.772,0.992-3.321,1.75-4.65,2.881l1.628,3.573
		c1.391-1.607,3.005-3.015,4.813-4.152c0.014-0.013,0.024-0.024,0.039-0.036C26.994,9.968,24.983,9.452,23.841,9.452z"/>
	
		<linearGradient id="path63_2_" gradientUnits="userSpaceOnUse" x1="1516.7354" y1="2157.2505" x2="1521.9113" y2="2166.2153" gradientTransform="matrix(1 0 0 1 -1508 -2144)">
		<stop  offset="0" style="stop-color:#FFFFFF"/>
		<stop  offset="0.5" style="stop-color:#FFFFFF;stop-opacity:0.6"/>
		<stop  offset="1" style="stop-color:#FFFFFF;stop-opacity:0.15"/>
	</linearGradient>
	<path id="path63_1_" fill="url(#path63_2_)" d="M13.606,18.269c-1.089,1.855-1.802,3.569-2.224,4.741
		c0.5,0.714,1.327,1.182,2.265,1.182c1.161,0,2.153-0.717,2.563-1.731c0.105-0.283,0.233-0.555,0.351-0.834L13.606,18.269z"/>
	
		<linearGradient id="path72_2_" gradientUnits="userSpaceOnUse" x1="1516.5024" y1="2157.6179" x2="1522.2385" y2="2167.5532" gradientTransform="matrix(1 0 0 1 -1508 -2144)">
		<stop  offset="0" style="stop-color:#FFFFFF"/>
		<stop  offset="0.5" style="stop-color:#FFFFFF;stop-opacity:0.6"/>
		<stop  offset="1" style="stop-color:#FFFFFF;stop-opacity:0.15"/>
	</linearGradient>
	<path id="path72_1_" fill="url(#path72_2_)" d="M10.901,15.192l-0.021,6.229c0,0,0,0.002,0,0.004c0,0.039,0.01,0.076,0.012,0.114
		c0.474-1.152,1.135-2.56,2.031-4.048L10.901,15.192z"/>
	
		<linearGradient id="path149_2_" gradientUnits="userSpaceOnUse" x1="1520.8402" y1="2154.5063" x2="1526.2263" y2="2163.8357" gradientTransform="matrix(1 0 0 1 -1508 -2144)">
		<stop  offset="0" style="stop-color:#FFFFFF"/>
		<stop  offset="0.5" style="stop-color:#FFFFFF;stop-opacity:0.6"/>
		<stop  offset="1" style="stop-color:#FFFFFF;stop-opacity:0.15"/>
	</linearGradient>
	<path id="path149_1_" fill="url(#path149_2_)" d="M15.994,9.464c-2.024-0.168-4.689,2.111-5.03,4.297l2.511,2.855
		c1.002-1.53,2.248-3.096,3.786-4.512L15.994,9.464z"/>
</g>
<g>
	<path opacity="0.3" fill="#FFFFFF" enable-background="new    " d="M32.929,23.89c-5.828,0-10.569,4.512-11.057,10.214h-1.014
		c-0.519,0-0.942,0.419-0.946,0.94c0,0.17,0.045,0.339,0.133,0.486l1.626,2.785l1.626,2.787c0.262,0.449,0.839,0.598,1.287,0.337
		c0.137-0.082,0.255-0.197,0.334-0.337l1.629-2.787l1.626-2.785c0.264-0.449,0.117-1.026-0.329-1.293
		c-0.146-0.084-0.315-0.132-0.483-0.132h-0.813c0.373-2.551,2.206-4.601,4.642-5.279c-0.077,0.205-0.13,0.423-0.13,0.654v5.266
		h0.029c-0.073,0.469,0.017,0.939,0.274,1.321h-0.017c0.012,0.014,0.007,0.014,0.017,0.029c0.007,0.007,0.01,0.005,0.017,0.014
		c0.103,0.144,0.213,0.241,0.233,0.262l3.277,3.293c0.582,0.584,1.53,0.758,2.249,0.291c-1.134,0.976-2.59,1.583-4.209,1.583
		c-1.185,0-2.276-0.317-3.234-0.872c-0.449-0.26-1.026-0.108-1.287,0.341c-0.002,0.002-0.005,0.007-0.005,0.01l-1.394,2.423
		c-0.252,0.449-0.099,1.019,0.35,1.276c1.639,0.951,3.544,1.494,5.57,1.494c6.151,0,11.16-5.007,11.16-11.16
		C44.089,28.899,39.08,23.89,32.929,23.89z M32.929,24.834c5.642,0,10.216,4.573,10.216,10.213c0,5.642-4.573,10.216-10.216,10.216
		c-1.857,0-3.604-0.497-5.109-1.364l1.396-2.422c1.093,0.635,2.359,1.001,3.713,1.001c4.104,0,7.429-3.325,7.429-7.429
		c0-4.103-3.325-7.428-7.429-7.428c-4.101,0-7.427,3.326-7.427,7.428h1.857l-1.624,2.787l-1.629,2.787l-1.626-2.787l-1.624-2.787
		h1.857C22.715,29.407,27.288,24.834,32.929,24.834z M32.929,28.549c0.515,0,0.93,0.415,0.93,0.93v5.194l3.018,3.003
		c0.365,0.365,0.413,0.896,0.117,1.191l-0.248,0.248c-0.296,0.296-0.827,0.248-1.191-0.117l-3.277-3.293
		c-0.048-0.045-0.096-0.089-0.13-0.144c-0.188-0.262-0.238-0.565-0.146-0.815V29.48C32.001,28.962,32.416,28.549,32.929,28.549z
		 M34.671,28.824c2.737,0.762,4.745,3.24,4.745,6.224c0,1.621-0.61,3.076-1.583,4.209c0.467-0.719,0.296-1.668-0.288-2.249
		l-2.744-2.727v-4.802C34.803,29.247,34.75,29.029,34.671,28.824z"/>
	<path opacity="0.3" fill="#FFFFFF" enable-background="new    " d="M32.929,24.369c-5.732,0-10.387,4.543-10.635,10.214h-1.437
		c-0.257,0-0.467,0.206-0.469,0.463c0,0.082,0.024,0.163,0.064,0.236l1.624,2.785l1.624,2.787c0.126,0.224,0.41,0.307,0.632,0.181
		c0.075-0.041,0.14-0.105,0.181-0.181l1.626-2.787l1.626-2.785c0.128-0.224,0.05-0.506-0.171-0.635
		c-0.072-0.041-0.151-0.064-0.234-0.064h-1.353c0.243-3.63,3.229-6.499,6.92-6.499c3.851,0,6.966,3.114,6.966,6.965
		c0,3.854-3.114,6.966-6.966,6.966c-1.271,0-2.455-0.348-3.481-0.944c-0.222-0.128-0.506-0.053-0.635,0.167
		c-0.003,0.005-0.005,0.007-0.005,0.007l-1.392,2.423c-0.128,0.222-0.055,0.506,0.167,0.635c0.002,0.002,0.005,0.005,0.007,0.005
		c1.569,0.906,3.398,1.422,5.338,1.422c5.894,0,10.68-4.786,10.68-10.68C43.61,29.157,38.823,24.369,32.929,24.369z M32.929,28.083
		c-0.762,0-1.393,0.629-1.393,1.394v5.265h0.014c-0.077,0.362-0.014,0.744,0.204,1.06c0.009,0.014,0.007,0.017,0.014,0.027
		c0.073,0.1,0.146,0.174,0.176,0.204l3.277,3.296c0.511,0.509,1.351,0.625,1.86,0.115l0.245-0.247
		c0.511-0.509,0.394-1.346-0.116-1.855l-2.886-2.874v-4.991C34.323,28.713,33.696,28.083,32.929,28.083z M32.929,24.834
		c5.642,0,10.216,4.573,10.216,10.214c0,5.642-4.573,10.216-10.216,10.216c-1.857,0-3.604-0.497-5.109-1.364l1.396-2.423
		c1.093,0.635,2.359,1.001,3.713,1.001c4.104,0,7.429-3.325,7.429-7.429c0-4.103-3.325-7.428-7.429-7.428
		c-4.101,0-7.427,3.326-7.427,7.428h1.857l-1.623,2.787l-1.629,2.787l-1.626-2.787l-1.624-2.787h1.857
		C22.715,29.407,27.288,24.834,32.929,24.834z M32.929,28.549c0.515,0,0.93,0.415,0.93,0.93v5.194l3.018,3.003
		c0.365,0.365,0.413,0.896,0.117,1.191l-0.248,0.247c-0.296,0.296-0.827,0.248-1.191-0.117l-3.277-3.293
		c-0.047-0.045-0.096-0.089-0.13-0.144c-0.188-0.262-0.238-0.565-0.146-0.815V29.48C32.001,28.962,32.416,28.549,32.929,28.549z"/>
	<path opacity="0.3" fill="#669CCC" enable-background="new    " d="M32.929,24.834c-5.641,0-10.214,4.573-10.214,10.214h-1.857
		l1.624,2.787l1.626,2.787l1.629-2.787l1.624-2.787h-1.857c0-4.103,3.325-7.428,7.427-7.428c4.104,0,7.429,3.326,7.429,7.428
		c0,4.104-3.325,7.429-7.429,7.429c-1.353,0-2.619-0.366-3.713-1.001l-1.397,2.423c1.505,0.868,3.251,1.365,5.109,1.365
		c5.642,0,10.216-4.573,10.216-10.216C43.145,29.407,38.571,24.834,32.929,24.834z M32.929,28.549c-0.513,0-0.928,0.415-0.928,0.93
		v5.266c-0.091,0.25-0.041,0.555,0.146,0.815c0.034,0.055,0.082,0.099,0.13,0.144l3.277,3.293c0.365,0.365,0.896,0.413,1.191,0.117
		l0.248-0.248c0.296-0.296,0.248-0.827-0.117-1.191l-3.018-3.003v-5.194C33.859,28.962,33.444,28.549,32.929,28.549z"/>
	<path opacity="0.3" fill="#669CCC" enable-background="new    " d="M32.929,24.834c-5.641,0-10.214,4.573-10.214,10.214h-1.857
		l1.624,2.787l1.626,2.787l1.629-2.787l1.624-2.787h-1.857c0-4.103,3.325-7.428,7.427-7.428c4.104,0,7.429,3.326,7.429,7.428
		c0,4.104-3.325,7.429-7.429,7.429c-1.353,0-2.619-0.366-3.713-1.001l-1.397,2.423c1.505,0.868,3.251,1.365,5.109,1.365
		c5.642,0,10.216-4.573,10.216-10.216C43.145,29.407,38.571,24.834,32.929,24.834z M32.929,25.747c5.146,0,9.302,4.157,9.302,9.3
		c0,5.146-4.157,9.303-9.302,9.303c-1.362,0-2.622-0.36-3.786-0.887l0.479-0.825c1.023,0.447,2.119,0.754,3.307,0.754
		c4.601,0,8.345-3.744,8.345-8.345c0-4.597-3.744-8.341-8.345-8.341c-4.599,0-8.34,3.743-8.34,8.341
		c0.002,0.506,0.408,0.911,0.914,0.916h0.26l-0.828,1.406l-0.827,1.422l-0.826-1.422l-0.827-1.406h0.262
		c0.504-0.005,0.911-0.41,0.914-0.916C23.628,29.903,27.785,25.747,32.929,25.747z M32.929,28.549c-0.513,0-0.928,0.415-0.928,0.93
		v5.266c-0.091,0.25-0.041,0.555,0.146,0.815c0.034,0.055,0.082,0.099,0.13,0.144l3.277,3.293c0.365,0.365,0.896,0.413,1.191,0.117
		l0.248-0.248c0.296-0.296,0.248-0.827-0.117-1.191l-3.018-3.003v-5.194C33.859,28.962,33.444,28.549,32.929,28.549z M32.929,29.462
		c0.024,0,0.017-0.007,0.017,0.017v5.194c0,0.211,0.069,0.415,0.202,0.579l-0.218-0.204c-0.034-0.034-0.055-0.045-0.055-0.043
		c-0.002-0.002-0.002-0.017,0-0.012c0.024-0.082,0.039-0.165,0.041-0.25v-5.266C32.915,29.455,32.908,29.462,32.929,29.462z
		 M33.206,35.326l3.016,3.004l-0.014,0.014C36.207,38.343,33.206,35.326,33.206,35.326z"/>
	<path opacity="0.3" fill="#669CCC" enable-background="new    " d="M32.929,24.834c-5.641,0-10.214,4.573-10.214,10.214h-1.857
		l0.274,0.464h1.583c0-5.641,4.573-10.214,10.214-10.214c5.563,0,10.092,4.45,10.216,9.983c0.002-0.077,0-0.156,0-0.233
		C43.145,29.407,38.571,24.834,32.929,24.834z M32.929,28.549c-0.513,0-0.928,0.415-0.928,0.93v0.463
		c0-0.513,0.415-0.928,0.928-0.928c0.515,0,0.93,0.414,0.93,0.928v-0.463C33.859,28.962,33.444,28.549,32.929,28.549z
		 M33.859,34.672v0.464l3.018,3.002c0.135,0.137,0.229,0.303,0.274,0.464c0.093-0.293-0.002-0.656-0.274-0.93
		C36.877,37.674,33.859,34.672,33.859,34.672z M32.001,34.744c-0.057,0.151-0.048,0.322,0,0.495c0.002-0.01-0.005-0.021,0-0.029
		V34.744z M25.53,35.048c-0.01,0.156-0.027,0.307-0.027,0.464h1.58l0.276-0.464H25.53z M40.345,35.281
		c-0.126,3.994-3.392,7.196-7.415,7.196c-1.353,0-2.619-0.366-3.713-1.001l-1.397,2.423c0.069,0.038,0.14,0.066,0.206,0.1
		l1.191-2.059c1.093,0.634,2.359,1.001,3.713,1.001c4.104,0,7.429-3.325,7.429-7.429C40.358,35.435,40.346,35.36,40.345,35.281z"/>
	<path opacity="0.3" fill="#669CCC" enable-background="new    " d="M32.929,24.834c-5.641,0-10.214,4.573-10.214,10.214h-1.857
		l1.624,2.787l1.626,2.787l1.629-2.787l1.624-2.787h-1.857c0-4.103,3.325-7.428,7.427-7.428c4.104,0,7.429,3.326,7.429,7.428
		c0,4.104-3.325,7.429-7.429,7.429c-1.353,0-2.619-0.366-3.713-1.001l-1.397,2.423c1.505,0.868,3.251,1.365,5.109,1.365
		c5.642,0,10.216-4.573,10.216-10.216C43.145,29.407,38.571,24.834,32.929,24.834z M32.929,25.269c5.404,0,9.781,4.375,9.781,9.779
		c0,5.406-4.376,9.781-9.781,9.781c-1.624,0-3.136-0.433-4.481-1.131l0.957-1.669c1.065,0.541,2.249,0.884,3.525,0.884
		c4.34,0,7.864-3.522,7.864-7.864c0-4.34-3.525-7.864-7.864-7.864s-7.862,3.524-7.862,7.864c0,0.241,0.195,0.433,0.435,0.435h1.101
		l-1.247,2.134l-1.247,2.132l-1.247-2.132l-1.247-2.134h1.103c0.238-0.002,0.433-0.195,0.435-0.435
		C23.15,29.645,27.527,25.269,32.929,25.269z M32.929,28.549c-0.513,0-0.928,0.415-0.928,0.93v5.266
		c-0.091,0.25-0.041,0.555,0.146,0.815c0.034,0.055,0.082,0.099,0.13,0.144l3.277,3.293c0.365,0.365,0.896,0.413,1.191,0.117
		l0.248-0.248c0.296-0.296,0.248-0.827-0.117-1.191l-3.018-3.003v-5.194C33.859,28.962,33.444,28.549,32.929,28.549z M32.929,28.983
		c0.279,0,0.495,0.216,0.495,0.495v5.194c0.002,0.115,0.05,0.222,0.13,0.305l3.018,3.004c0.224,0.224,0.209,0.486,0.115,0.579
		l-0.245,0.248c-0.093,0.091-0.355,0.11-0.582-0.117l-3.279-3.295c-0.057-0.058-0.077-0.08-0.072-0.072c0-0.012,0-0.019,0-0.029
		c-0.115-0.158-0.135-0.303-0.103-0.392c0.021-0.05,0.029-0.105,0.029-0.16v-5.267C32.437,29.198,32.652,28.983,32.929,28.983z"/>
	<path opacity="0.3" fill="#FFFFFF" enable-background="new    " d="M32.929,27.62c-4.101,0-7.427,3.326-7.427,7.428h0.027
		c0.243-3.882,3.455-6.965,7.4-6.965c4.024,0,7.29,3.203,7.415,7.198c0.002-0.077,0.014-0.153,0.014-0.233
		C40.358,30.946,37.033,27.62,32.929,27.62z M32.001,35.238c-0.077,0.243-0.034,0.532,0.146,0.783
		c0.034,0.055,0.082,0.099,0.13,0.146l3.277,3.293c0.365,0.365,0.896,0.41,1.191,0.115l0.248-0.245
		c0.183-0.186,0.236-0.459,0.158-0.726c-0.031,0.096-0.084,0.186-0.158,0.262l-0.248,0.248c-0.296,0.296-0.827,0.248-1.191-0.117
		l-3.277-3.293c-0.047-0.045-0.096-0.089-0.13-0.144C32.073,35.455,32.033,35.348,32.001,35.238z M43.145,35.281
		c-0.123,5.533-4.654,9.983-10.216,9.983c-1.777,0-3.446-0.463-4.903-1.264l-0.206,0.365c1.505,0.868,3.251,1.364,5.109,1.364
		c5.642,0,10.216-4.573,10.216-10.216C43.145,35.435,43.148,35.357,43.145,35.281z M20.858,35.513l1.624,2.787l1.626,2.787
		l1.629-2.787l1.623-2.787h-0.276l-1.346,2.322l-1.629,2.787l-1.626-2.787l-1.348-2.322H20.858z"/>
</g>
</svg>
