<?xml version="1.0" encoding="utf-8"?>
<!-- Generator: Adobe Illustrator 17.0.0, SVG Export Plug-In . SVG Version: 6.00 Build 0)  -->
<!DOCTYPE svg PUBLIC "-//W3C//DTD SVG 1.1//EN" "http://www.w3.org/Graphics/SVG/1.1/DTD/svg11.dtd">
<svg version="1.1" id="图层_1" xmlns="http://www.w3.org/2000/svg" xmlns:xlink="http://www.w3.org/1999/xlink" x="0px" y="0px"
	 width="48px" height="48px" viewBox="8 8 48 48" enable-background="new 8 8 48 48" xml:space="preserve">
<g id="g151" opacity="0.5">
	<path id="path153" opacity="0.08" enable-background="new    " d="M48.41,52.136H15.617c-3.019,0-5.48-2.367-5.48-5.266v4.028
		c0,2.265,1.925,4.102,4.283,4.102h35.185c2.358,0,4.256-1.836,4.256-4.102V46.87C53.861,49.77,51.428,52.136,48.41,52.136z"/>
	<path id="path155" opacity="0.1" enable-background="new    " d="M48.383,52.136H15.59c-3.018,0-5.451-2.323-5.451-5.222v2.107
		c0,2.265,1.039,5.025,5.25,5.025s28.929,0,33.195,0s5.279-2.76,5.279-5.025v-2.107C53.861,49.813,51.4,52.136,48.383,52.136z"/>
	<path id="path157" opacity="0.1" enable-background="new    " d="M48.383,52.136H15.59c-3.018,0-5.451-2.323-5.451-5.222v1.137
		c0,2.266,1.802,5.041,5.25,5.041s29.249,0,33.195,0c3.947,0,5.279-2.775,5.279-5.039v-1.137
		C53.861,49.813,51.4,52.136,48.383,52.136z"/>
	<rect id="rect159" x="15.107" y="52.136" opacity="0.05" enable-background="new    " width="33.786" height="0.955"/>
	<rect id="rect161" x="16.101" y="52.136" opacity="0.05" enable-background="new    " width="30.805" height="0.955"/>
	<rect id="rect163" x="16.101" y="53.091" opacity="0.05" enable-background="new    " width="30.805" height="0.955"/>
	<rect id="rect165" x="18.087" y="53.091" opacity="0.05" enable-background="new    " width="27.824" height="0.955"/>
	<rect id="rect167" x="21.069" y="53.091" opacity="0.05" enable-background="new    " width="21.862" height="0.955"/>
	<rect id="rect169" x="25.044" y="53.091" opacity="0.05" enable-background="new    " width="13.912" height="0.955"/>
	<rect id="rect171" x="18.087" y="52.136" opacity="0.05" enable-background="new    " width="27.824" height="0.955"/>
	<rect id="rect173" x="20.075" y="52.136" opacity="0.05" enable-background="new    " width="23.849" height="0.955"/>
	<rect id="rect175" x="21.069" y="52.136" opacity="0.05" enable-background="new    " width="21.862" height="0.955"/>
	<rect id="rect177" x="23.056" y="52.136" opacity="0.05" enable-background="new    " width="17.887" height="0.955"/>
	<rect id="rect179" x="23.056" y="52.136" opacity="0.05" enable-background="new    " width="17.887" height="0.955"/>
</g>
<path fill="#C4DCED" stroke="#9DBCD7" stroke-miterlimit="10" d="M53.466,46.281c0,3.121-2.531,5.652-5.652,5.652H16.185
	c-3.121,0-5.652-2.531-5.652-5.652V14.652c0-3.121,2.531-5.652,5.652-5.652h31.63c3.121,0,5.652,2.531,5.652,5.652L53.466,46.281
	L53.466,46.281z"/>
<path opacity="0.6" fill="none" stroke="#FFFFFF" stroke-miterlimit="10" d="M16.185,50.934c-2.565,0-4.652-2.087-4.652-4.652
	V14.652c0-2.565,2.087-4.652,4.652-4.652h31.629c2.565,0,4.652,2.087,4.652,4.652v31.629c0,2.565-2.087,4.652-4.652,4.652H16.185z"
	/>
<path opacity="0.08" fill="none" stroke="#000000" stroke-miterlimit="10" enable-background="new    " d="M53.627,21.193
	c0,0,0-1.899-1.876-1.899c-5.445,0-22.83,0.003-24.387,0.003c-1.891,0-1.876-1.872-1.876-1.872s0-1.885-1.876-1.885
	c-3.284,0-9.861,0-11.255,0c-1.847,0-1.876,1.816-1.876,1.873"/>
<path opacity="0.03" fill="none" stroke="#000000" stroke-miterlimit="10" enable-background="new    " d="M53.627,20.112
	c0,0,0-1.899-1.876-1.899c-5.445,0-22.83,0.003-24.387,0.003c-1.891,0-1.876-1.872-1.876-1.872s0-1.885-1.876-1.885
	c-3.284,0-9.861,0-11.255,0c-1.847,0-1.876,1.816-1.876,1.873"/>
<linearGradient id="SVGID_1_" gradientUnits="userSpaceOnUse" x1="1127.9993" y1="1377.9335" x2="1127.9993" y2="1342.5322" gradientTransform="matrix(1 0 0 1 -1096 -1326)">
	<stop  offset="0" style="stop-color:#D1E0ED"/>
	<stop  offset="1" style="stop-color:#E4EEFB"/>
</linearGradient>
<path fill="url(#SVGID_1_)" stroke="#9DBCD7" stroke-miterlimit="10" d="M16.172,51.933H47.92c3.121,0,5.546-2.595,5.546-5.717
	V20.871c0-0.445-0.665-0.864-1.55-0.864c-5.468,0-22.903,0.003-24.466,0.003c-1.899,0-1.87-1.733-1.87-1.733
	s0.013-1.745-1.871-1.745c-3.298,0-9.904,0-11.304,0c-1.855,0-1.872,1.538-1.872,1.596v28.089
	C10.533,49.338,13.051,51.933,16.172,51.933z"/>
<path opacity="0.8" fill="none" stroke="#FFFFFF" stroke-miterlimit="10" d="M16.172,50.934c-2.558,0-4.64-2.116-4.64-4.717V18.128
	c0.023-0.596,0.662-0.596,0.872-0.596h11.304c0.21,0,0.85,0,0.871,0.754c-0.002,0.091,0.003,1.14,0.779,1.928
	c0.357,0.363,1.01,0.796,2.092,0.796l24.466-0.003c0.263,0,0.446,0.055,0.551,0.102v25.107c0,2.601-2.04,4.717-4.547,4.717H16.172z"
	/>
<radialGradient id="SVGID_2_" cx="1506.46" cy="-1013.1687" r="34.4255" gradientTransform="matrix(0.0197 0.9998 -0.9109 0.018 -922.1061 -1463.46)" gradientUnits="userSpaceOnUse">
	<stop  offset="0" style="stop-color:#FFFFFF;stop-opacity:0.6"/>
	<stop  offset="0.3783" style="stop-color:#FAFCFE;stop-opacity:0.4487"/>
	<stop  offset="0.829" style="stop-color:#EBF3FC;stop-opacity:0.2684"/>
	<stop  offset="1" style="stop-color:#E4EEFB;stop-opacity:0.2"/>
</radialGradient>
<path fill="url(#SVGID_2_)" d="M16.172,51.181c-2.695,0-4.887-2.226-4.887-4.964V18.128c0-0.036,0.006-0.336,0.229-0.56
	c0.187-0.187,0.486-0.282,0.889-0.282h11.304c0.446,0,0.673,0.053,0.809,0.19c0.3,0.302,0.313,0.762,0.313,0.767
	c-0.001,0.099,0.004,1.081,0.732,1.82c0.464,0.471,1.1,0.709,1.89,0.709c0,0,20.898-0.008,24.461-0.008
	c0.471,0,0.731,0.162,0.798,0.239v25.214c0,2.738-2.15,4.964-4.793,4.964H16.172L16.172,51.181L16.172,51.181z"/>
<g id="g27_1_">
	
		<linearGradient id="path36_2_" gradientUnits="userSpaceOnUse" x1="1520.0824" y1="2152.541" x2="1526.0471" y2="2162.8721" gradientTransform="matrix(1 0 0 1 -1508 -2144)">
		<stop  offset="0" style="stop-color:#FFFFFF"/>
		<stop  offset="0.5" style="stop-color:#FFFFFF;stop-opacity:0.6"/>
		<stop  offset="1" style="stop-color:#FFFFFF;stop-opacity:0.15"/>
	</linearGradient>
	<path id="path36_1_" fill="url(#path36_2_)" d="M17,20.627c0.667-1.381,1.481-2.674,2.414-3.869l-1.699-3.725
		c-1.451,1.372-2.629,2.883-3.569,4.351L17,20.627z"/>
	
		<linearGradient id="path45_2_" gradientUnits="userSpaceOnUse" x1="1525.4906" y1="2150.9939" x2="1529.3943" y2="2157.7554" gradientTransform="matrix(1 0 0 1 -1508 -2144)">
		<stop  offset="0" style="stop-color:#FFFFFF"/>
		<stop  offset="0.5" style="stop-color:#FFFFFF;stop-opacity:0.6"/>
		<stop  offset="1" style="stop-color:#FFFFFF;stop-opacity:0.15"/>
	</linearGradient>
	<path id="path45_1_" fill="url(#path45_2_)" d="M17.178,9.452l0.888,1.946c0.854-0.709,1.791-0.954,2.812-1.946H17.178z"/>
	
		<linearGradient id="path54_2_" gradientUnits="userSpaceOnUse" x1="1526.7184" y1="2149.7102" x2="1531.4878" y2="2157.9709" gradientTransform="matrix(1 0 0 1 -1508 -2144)">
		<stop  offset="0" style="stop-color:#FFFFFF"/>
		<stop  offset="0.5" style="stop-color:#FFFFFF;stop-opacity:0.6"/>
		<stop  offset="1" style="stop-color:#FFFFFF;stop-opacity:0.15"/>
	</linearGradient>
	<path id="path54_1_" fill="url(#path54_2_)" d="M23.841,9.452h-0.703c-1.772,0.992-3.321,1.75-4.65,2.881l1.628,3.573
		c1.391-1.607,3.005-3.015,4.813-4.152c0.014-0.013,0.024-0.024,0.039-0.036C26.994,9.968,24.983,9.452,23.841,9.452z"/>
	
		<linearGradient id="path63_2_" gradientUnits="userSpaceOnUse" x1="1516.7354" y1="2157.2505" x2="1521.9113" y2="2166.2153" gradientTransform="matrix(1 0 0 1 -1508 -2144)">
		<stop  offset="0" style="stop-color:#FFFFFF"/>
		<stop  offset="0.5" style="stop-color:#FFFFFF;stop-opacity:0.6"/>
		<stop  offset="1" style="stop-color:#FFFFFF;stop-opacity:0.15"/>
	</linearGradient>
	<path id="path63_1_" fill="url(#path63_2_)" d="M13.606,18.269c-1.089,1.855-1.802,3.569-2.224,4.741
		c0.5,0.714,1.327,1.182,2.265,1.182c1.161,0,2.153-0.717,2.563-1.731c0.105-0.283,0.233-0.555,0.351-0.834L13.606,18.269z"/>
	
		<linearGradient id="path72_2_" gradientUnits="userSpaceOnUse" x1="1516.5024" y1="2157.6179" x2="1522.2385" y2="2167.5532" gradientTransform="matrix(1 0 0 1 -1508 -2144)">
		<stop  offset="0" style="stop-color:#FFFFFF"/>
		<stop  offset="0.5" style="stop-color:#FFFFFF;stop-opacity:0.6"/>
		<stop  offset="1" style="stop-color:#FFFFFF;stop-opacity:0.15"/>
	</linearGradient>
	<path id="path72_1_" fill="url(#path72_2_)" d="M10.901,15.192l-0.021,6.229c0,0,0,0.002,0,0.004c0,0.039,0.01,0.076,0.012,0.114
		c0.474-1.152,1.135-2.56,2.031-4.048L10.901,15.192z"/>
	
		<linearGradient id="path149_2_" gradientUnits="userSpaceOnUse" x1="1520.8402" y1="2154.5063" x2="1526.2263" y2="2163.8357" gradientTransform="matrix(1 0 0 1 -1508 -2144)">
		<stop  offset="0" style="stop-color:#FFFFFF"/>
		<stop  offset="0.5" style="stop-color:#FFFFFF;stop-opacity:0.6"/>
		<stop  offset="1" style="stop-color:#FFFFFF;stop-opacity:0.15"/>
	</linearGradient>
	<path id="path149_1_" fill="url(#path149_2_)" d="M15.994,9.464c-2.024-0.168-4.689,2.111-5.03,4.297l2.511,2.855
		c1.002-1.53,2.248-3.096,3.786-4.512L15.994,9.464z"/>
</g>
<g>
	<path opacity="0.3" fill="#FFFFFF" enable-background="new    " d="M31.574,23.145c-0.686,0-1.265,0.581-1.265,1.267v2.614
		c-1,0.589-1.69,1.644-1.69,2.878c0,0.553,0.173,1.059,0.409,1.518l-0.806,2.708h-1.293c-0.686,0-1.268,0.581-1.268,1.265
		c0,0.686,0.581,1.267,1.268,1.267h0.541l-0.621,2.06c-0.486,1.632-0.738,3.157-0.752,4.383c-0.006,0.613,0.032,1.144,0.187,1.625
		c0.15,0.48,0.465,1.008,1.068,1.188c0.446,0.129,0.911-0.125,1.044-0.569l2.588-8.688h2.047l2.588,8.688
		c0.134,0.444,0.6,0.698,1.044,0.569c0.603-0.18,0.917-0.708,1.07-1.188c0.152-0.481,0.191-1.011,0.185-1.625
		c-0.012-1.225-0.265-2.751-0.752-4.383l-0.621-2.06h0.529c0.686,0,1.268-0.581,1.268-1.267c0-0.686-0.581-1.265-1.268-1.265h-1.283
		l-0.804-2.72c0.231-0.458,0.396-0.959,0.396-1.506c0-1.234-0.69-2.289-1.69-2.878v-2.614c0-0.686-0.581-1.267-1.268-1.267
		L31.574,23.145L31.574,23.145z M31.574,23.989h0.845c0.236,0,0.424,0.188,0.424,0.422v3.103c0.985,0.347,1.69,1.286,1.69,2.389
		c0,0.535-0.166,1.031-0.45,1.44l1.084,3.63h1.901c0.236,0,0.421,0.188,0.421,0.421c0,0.236-0.187,0.424-0.421,0.424h-1.649
		l0.937,3.143c0.936,3.14,0.963,5.886,0.066,6.152l-2.773-9.294h-3.287l-2.773,9.293c-0.897-0.267-0.871-3.013,0.066-6.152
		l0.937-3.143h-1.663c-0.236,0-0.424-0.189-0.424-0.424c0-0.235,0.189-0.421,0.424-0.421h1.914l1.082-3.618
		c-0.289-0.411-0.461-0.909-0.461-1.452c0-1.104,0.705-2.042,1.69-2.389v-3.103C31.152,24.177,31.34,23.989,31.574,23.989z
		 M31.997,28.214c-0.933,0-1.69,0.757-1.69,1.69c0,0.137,0.022,0.27,0.052,0.396c0.018,0.078,0.038,0.15,0.066,0.225
		c0.03,0.076,0.064,0.152,0.107,0.225c0.01,0.02,0.026,0.032,0.04,0.052c0.008,0.017,0.014,0.036,0.026,0.052
		c0.02,0.03,0.044,0.052,0.066,0.08c0.046,0.062,0.103,0.131,0.156,0.185c0.044,0.041,0.086,0.081,0.132,0.118
		c0.018,0.014,0.034,0.026,0.052,0.04c0.026,0.018,0.054,0.036,0.08,0.052c0.07,0.044,0.149,0.085,0.225,0.118
		c0.008,0.004,0.017,0.01,0.026,0.014c0.097,0.04,0.199,0.07,0.303,0.092c0.114,0.023,0.236,0.04,0.357,0.04
		c0.126,0,0.251-0.027,0.369-0.054c0.078-0.017,0.15-0.038,0.225-0.065c0.147-0.055,0.285-0.132,0.409-0.224
		c0.063-0.046,0.131-0.092,0.185-0.147c0.054-0.054,0.099-0.11,0.145-0.171c0.044-0.057,0.082-0.123,0.118-0.185
		c0.004-0.006,0.012-0.008,0.014-0.014c0.036-0.064,0.078-0.128,0.107-0.197c0.03-0.075,0.046-0.156,0.064-0.237
		c0.032-0.126,0.054-0.26,0.054-0.396C33.687,28.971,32.93,28.214,31.997,28.214z M31.997,29.06c0.478,0,0.845,0.367,0.845,0.843
		c0,0.043-0.006,0.109-0.026,0.197c-0.023,0.104-0.036,0.141-0.026,0.119c0.008-0.025-0.014,0.011-0.054,0.079
		c-0.004,0.006,0.004,0.006,0,0.014c-0.006,0.011-0.006,0.001-0.012,0.014c-0.036,0.06-0.059,0.099-0.054,0.092
		c-0.051,0.065-0.078,0.08-0.078,0.08c0.022-0.022-0.01,0.018-0.092,0.078c-0.068,0.051-0.132,0.081-0.199,0.107
		c-0.034,0.014-0.072,0.028-0.118,0.039c-0.112,0.025-0.175,0.027-0.185,0.027c-0.051,0-0.118,0-0.185-0.014
		c-0.04-0.008-0.064-0.014-0.092-0.026c0.002-0.001-0.012-0.009-0.052-0.026c-0.008-0.003-0.006,0.002-0.014,0
		c-0.046-0.02-0.092-0.051-0.12-0.066c-0.022-0.015-0.034-0.023-0.038-0.026c-0.012-0.01-0.022-0.009-0.026-0.014
		c-0.002,0-0.026-0.026-0.054-0.052c-0.002-0.004,0.004-0.01,0-0.014c-0.002-0.003-0.04-0.043-0.078-0.092
		c-0.02-0.026-0.028-0.023-0.04-0.039c-0.014-0.02-0.008-0.018-0.012-0.027c-0.008-0.009-0.008-0.004-0.014-0.012
		c-0.006-0.011-0.008-0.004-0.014-0.014c-0.004-0.008-0.018-0.026-0.026-0.039c-0.002-0.003,0.002-0.011,0-0.014
		c-0.006-0.01-0.026-0.04-0.026-0.04c-0.002-0.004,0.002-0.008,0-0.014c-0.004-0.011-0.008-0.045-0.026-0.119
		c-0.02-0.088-0.026-0.154-0.026-0.197C31.152,29.427,31.519,29.06,31.997,29.06z M31.402,32.359l-0.778,2.616h2.771l-0.778-2.616
		c-0.199,0.051-0.407,0.08-0.621,0.08C31.793,32.439,31.593,32.405,31.402,32.359z M31.997,33.285c0.004,0,0.008,0,0.012,0
		l0.265,0.845h-0.529L31.997,33.285z"/>
	<path opacity="0.3" fill="#FFFFFF" enable-background="new    " d="M31.574,23.554c-0.47,0-0.857,0.387-0.857,0.859v2.851
		c-0.994,0.483-1.69,1.468-1.69,2.64c0,0.544,0.166,1.04,0.421,1.478l-0.937,3.155h-1.583c-0.47,0-0.859,0.387-0.859,0.857
		c0,0.47,0.39,0.859,0.859,0.859h1.068l-0.766,2.575c-0.478,1.602-0.726,3.104-0.738,4.277c-0.006,0.586,0.04,1.09,0.171,1.506
		c0.132,0.415,0.369,0.798,0.792,0.923c0.231,0.074,0.48-0.054,0.554-0.287c0-0.001,0-0.002,0-0.003l2.681-8.991h2.628l2.679,8.991
		c0.072,0.233,0.317,0.363,0.55,0.291c0.002,0,0.004,0,0.004,0c0.424-0.126,0.663-0.51,0.792-0.925
		c0.132-0.415,0.179-0.92,0.173-1.506c-0.014-1.173-0.263-2.676-0.741-4.277l-0.764-2.575h1.056c0.47,0,0.859-0.388,0.859-0.859
		c0-0.47-0.39-0.857-0.859-0.857h-1.571l-0.937-3.169c0.249-0.436,0.409-0.929,0.409-1.466c0-1.173-0.697-2.158-1.69-2.64v-2.851
		c0-0.47-0.387-0.859-0.859-0.859h-0.842v0.002H31.574z M31.574,23.989h0.845c0.236,0,0.424,0.188,0.424,0.422v3.103
		c0.985,0.347,1.69,1.286,1.69,2.389c0,0.535-0.166,1.031-0.45,1.44l1.084,3.63h1.901c0.236,0,0.421,0.188,0.421,0.421
		c0,0.236-0.187,0.424-0.421,0.424h-1.649l0.937,3.143c0.936,3.14,0.963,5.886,0.066,6.152l-2.773-9.294h-3.287l-2.773,9.293
		c-0.897-0.267-0.871-3.013,0.066-6.152l0.937-3.143h-1.663c-0.236,0-0.424-0.189-0.424-0.424c0-0.235,0.189-0.421,0.424-0.421
		h1.914l1.082-3.618c-0.289-0.411-0.461-0.909-0.461-1.452c0-1.104,0.705-2.042,1.69-2.389v-3.103
		C31.152,24.177,31.34,23.989,31.574,23.989z M31.997,28.214c-0.933,0-1.69,0.757-1.69,1.69c0,0.137,0.022,0.27,0.052,0.396
		c0.018,0.078,0.038,0.15,0.066,0.225c0.03,0.076,0.064,0.152,0.107,0.225c0.01,0.02,0.026,0.032,0.04,0.052
		c0.008,0.017,0.014,0.036,0.026,0.052c0.02,0.03,0.044,0.052,0.066,0.08c0.046,0.062,0.103,0.131,0.156,0.185
		c0.044,0.041,0.086,0.081,0.132,0.118c0.018,0.014,0.034,0.026,0.052,0.04c0.026,0.018,0.054,0.036,0.08,0.052
		c0.07,0.044,0.149,0.085,0.225,0.118c0.008,0.004,0.017,0.01,0.026,0.014c0.097,0.04,0.199,0.07,0.303,0.092
		c0.114,0.023,0.236,0.04,0.357,0.04c0.126,0,0.251-0.027,0.369-0.054c0.078-0.017,0.15-0.038,0.225-0.065
		c0.147-0.055,0.285-0.132,0.409-0.224c0.063-0.046,0.131-0.092,0.185-0.147c0.054-0.054,0.099-0.11,0.145-0.171
		c0.044-0.057,0.082-0.123,0.118-0.185c0.004-0.006,0.012-0.008,0.014-0.014c0.036-0.064,0.078-0.128,0.107-0.197
		c0.03-0.075,0.046-0.156,0.064-0.237c0.032-0.126,0.054-0.26,0.054-0.396C33.687,28.971,32.93,28.214,31.997,28.214z
		 M31.997,28.651c0.695,0,1.255,0.558,1.255,1.253c0,0.088-0.014,0.184-0.04,0.291c-0.022,0.092-0.042,0.159-0.052,0.185
		c-0.008,0.018-0.036,0.055-0.08,0.131c-0.004,0.006,0.004,0.008,0,0.014c-0.004,0.004-0.008-0.006-0.012,0
		c-0.036,0.06-0.06,0.12-0.08,0.145c-0.048,0.064-0.078,0.094-0.105,0.119c-0.017,0.015-0.072,0.052-0.147,0.106
		c-0.094,0.07-0.199,0.132-0.303,0.171c-0.054,0.02-0.097,0.025-0.159,0.039c-0.116,0.026-0.211,0.054-0.277,0.054
		c-0.084,0-0.177-0.022-0.265-0.04c-0.072-0.017-0.139-0.031-0.199-0.054c0.002-0.001-0.006-0.005-0.023-0.014
		c-0.006-0.002-0.006,0.004-0.014,0c-0.06-0.027-0.125-0.063-0.173-0.092c-0.02-0.014-0.038-0.03-0.052-0.04
		c-0.004-0.002-0.01,0.003-0.014,0c-0.01-0.008-0.017-0.02-0.026-0.026c-0.022-0.018-0.063-0.051-0.105-0.092
		c-0.028-0.028-0.078-0.076-0.12-0.132c-0.052-0.068-0.059-0.094-0.038-0.066c0.048,0.072,0.034,0.059-0.026-0.039
		c-0.018-0.025-0.02-0.028-0.028-0.039c-0.026-0.046-0.054-0.096-0.078-0.159c-0.017-0.041-0.034-0.097-0.052-0.171
		c-0.026-0.107-0.04-0.203-0.04-0.291C30.742,29.208,31.3,28.651,31.997,28.651z M31.402,32.359l-0.778,2.616h2.771l-0.778-2.616
		c-0.199,0.051-0.407,0.08-0.621,0.08C31.793,32.439,31.593,32.405,31.402,32.359z M31.719,32.835
		c0.094,0.011,0.177,0.04,0.277,0.04c0.107,0,0.2-0.028,0.303-0.04l0.501,1.703h-1.583L31.719,32.835z"/>
	<path opacity="0.3" fill="#669CCC" enable-background="new    " d="M31.574,23.989c-0.233,0-0.421,0.188-0.421,0.422v3.103
		c-0.985,0.347-1.69,1.286-1.69,2.389c0,0.542,0.173,1.04,0.461,1.452l-1.082,3.618h-1.914c-0.236,0-0.424,0.188-0.424,0.421
		c0,0.236,0.189,0.424,0.424,0.424h1.663l-0.937,3.143c-0.937,3.14-0.963,5.886-0.066,6.152l2.771-9.294h3.287l2.773,9.294
		c0.897-0.267,0.869-3.013-0.066-6.152l-0.937-3.143h1.649c0.236,0,0.421-0.189,0.421-0.424c0-0.235-0.187-0.421-0.421-0.421h-1.901
		l-1.084-3.63c0.282-0.409,0.45-0.905,0.45-1.44c0-1.104-0.705-2.042-1.69-2.389v-3.103c0-0.234-0.189-0.422-0.424-0.422
		C32.417,23.989,31.574,23.989,31.574,23.989z M31.997,28.214c0.933,0,1.69,0.757,1.69,1.69c0,0.137-0.022,0.27-0.054,0.396
		c-0.018,0.081-0.034,0.162-0.064,0.237c-0.028,0.069-0.07,0.134-0.107,0.197c-0.002,0.006-0.01,0.008-0.014,0.014
		c-0.036,0.062-0.074,0.128-0.118,0.185c-0.046,0.06-0.091,0.117-0.145,0.171c-0.054,0.054-0.122,0.101-0.185,0.147
		c-0.125,0.091-0.263,0.168-0.409,0.224c-0.074,0.027-0.147,0.049-0.225,0.065c-0.118,0.027-0.242,0.054-0.369,0.054
		c-0.122,0-0.242-0.017-0.357-0.04c-0.105-0.022-0.206-0.052-0.303-0.092c-0.01-0.004-0.018-0.01-0.026-0.014
		c-0.076-0.033-0.154-0.074-0.225-0.118c-0.026-0.017-0.054-0.034-0.08-0.052c-0.018-0.014-0.034-0.026-0.052-0.04
		c-0.046-0.037-0.088-0.077-0.132-0.118c-0.054-0.054-0.11-0.123-0.156-0.185c-0.022-0.028-0.046-0.051-0.066-0.08
		c-0.012-0.017-0.018-0.036-0.026-0.052c-0.014-0.02-0.03-0.033-0.04-0.052c-0.042-0.072-0.076-0.149-0.107-0.225
		c-0.028-0.074-0.048-0.147-0.066-0.225c-0.03-0.126-0.052-0.26-0.052-0.396C30.307,28.971,31.063,28.214,31.997,28.214z
		 M31.402,32.359c0.191,0.046,0.39,0.08,0.594,0.08c0.213,0,0.421-0.03,0.621-0.08l0.778,2.616h-2.771L31.402,32.359z"/>
	<path opacity="0.3" fill="#669CCC" enable-background="new    " d="M31.574,23.989c-0.233,0-0.421,0.188-0.421,0.422v3.103
		c-0.985,0.347-1.69,1.286-1.69,2.389c0,0.542,0.173,1.04,0.461,1.452l-1.082,3.618h-1.914c-0.236,0-0.424,0.188-0.424,0.421
		c0,0.236,0.189,0.424,0.424,0.424h1.663l-0.937,3.143c-0.937,3.14-0.963,5.886-0.066,6.152l2.771-9.294h3.287l2.773,9.294
		c0.897-0.267,0.869-3.013-0.066-6.152l-0.937-3.143h1.649c0.236,0,0.421-0.189,0.421-0.424c0-0.235-0.187-0.421-0.421-0.421h-1.901
		l-1.084-3.63c0.282-0.409,0.45-0.905,0.45-1.44c0-1.104-0.705-2.042-1.69-2.389v-3.103c0-0.234-0.189-0.422-0.424-0.422
		C32.417,23.989,31.574,23.989,31.574,23.989z M31.997,28.214c0.933,0,1.69,0.757,1.69,1.69c0,0.137-0.022,0.27-0.054,0.396
		c-0.018,0.081-0.034,0.162-0.064,0.237c-0.028,0.069-0.07,0.134-0.107,0.197c-0.002,0.006-0.01,0.008-0.014,0.014
		c-0.036,0.062-0.074,0.128-0.118,0.185c-0.046,0.06-0.091,0.117-0.145,0.171c-0.054,0.054-0.122,0.101-0.185,0.147
		c-0.125,0.091-0.263,0.168-0.409,0.224c-0.074,0.027-0.147,0.049-0.225,0.065c-0.118,0.027-0.242,0.054-0.369,0.054
		c-0.122,0-0.242-0.017-0.357-0.04c-0.105-0.022-0.206-0.052-0.303-0.092c-0.01-0.004-0.018-0.01-0.026-0.014
		c-0.076-0.033-0.154-0.074-0.225-0.118c-0.026-0.017-0.054-0.034-0.08-0.052c-0.018-0.014-0.034-0.026-0.052-0.04
		c-0.046-0.037-0.088-0.077-0.132-0.118c-0.054-0.054-0.11-0.123-0.156-0.185c-0.022-0.028-0.046-0.051-0.066-0.08
		c-0.012-0.017-0.018-0.036-0.026-0.052c-0.014-0.02-0.03-0.033-0.04-0.052c-0.042-0.072-0.076-0.149-0.107-0.225
		c-0.028-0.074-0.048-0.147-0.066-0.225c-0.03-0.126-0.052-0.26-0.052-0.396C30.307,28.971,31.063,28.214,31.997,28.214z
		 M33.395,31.99l0.026,0.079c-0.012-0.023-0.026-0.044-0.04-0.066C33.388,32.001,33.391,31.993,33.395,31.99z M30.598,32.016
		c0.008,0.006,0.017,0.022,0.026,0.026c-0.01,0.026-0.02,0.054-0.026,0.08l-0.781,2.613c-0.044,0.147-0.048,0.301-0.012,0.45
		c0,0.004,0,0.009,0,0.014c-0.118,0.104-0.205,0.234-0.251,0.384l-1.162,3.867c0.023-0.086,0.04-0.162,0.066-0.25l0.937-3.143
		c0.046-0.15,0.052-0.31,0.014-0.461c0.112-0.105,0.193-0.236,0.236-0.384L30.598,32.016z M33.422,32.123l0.937,3.089
		c0.044,0.148,0.126,0.279,0.239,0.384c-0.038,0.152-0.034,0.313,0.012,0.461l0.937,3.143c0.026,0.088,0.042,0.163,0.066,0.25
		l-1.162-3.867c-0.042-0.148-0.125-0.279-0.236-0.384c0.038-0.151,0.034-0.313-0.014-0.462L33.422,32.123z M31.402,32.359
		c0.191,0.046,0.39,0.08,0.594,0.08c0.213,0,0.421-0.03,0.621-0.08l0.778,2.616h-2.771L31.402,32.359z"/>
	<path opacity="0.3" fill="#669CCC" enable-background="new    " d="M31.574,23.989c-0.233,0-0.421,0.188-0.421,0.422v0.422
		c0-0.234,0.189-0.422,0.421-0.422h0.845c0.236,0,0.424,0.188,0.424,0.422v-0.422c0-0.234-0.189-0.422-0.424-0.422
		C32.419,23.989,31.574,23.989,31.574,23.989z M31.152,27.514c-0.985,0.347-1.69,1.286-1.69,2.389c0,0.073,0.008,0.142,0.014,0.212
		c0.082-1.011,0.754-1.854,1.676-2.178L31.152,27.514L31.152,27.514z M32.842,27.514v0.422c0.92,0.325,1.594,1.167,1.676,2.178
		c0.006-0.07,0.014-0.141,0.014-0.212C34.532,28.8,33.827,27.861,32.842,27.514z M30.333,30.142
		c-0.006,0.062-0.026,0.122-0.026,0.185c0,0.137,0.022,0.27,0.052,0.396c0.018,0.079,0.038,0.15,0.066,0.224
		c0.03,0.077,0.064,0.154,0.107,0.225c0.01,0.02,0.026,0.034,0.04,0.054c0.008,0.017,0.014,0.037,0.026,0.054
		c0.02,0.029,0.044,0.051,0.066,0.078c0.046,0.063,0.103,0.131,0.156,0.185c0.044,0.042,0.086,0.082,0.132,0.119
		c0.018,0.014,0.034,0.027,0.052,0.039c0.026,0.02,0.054,0.036,0.08,0.054c0.07,0.044,0.149,0.084,0.225,0.118
		c0.008,0.004,0.017,0.009,0.026,0.014c0.097,0.039,0.199,0.069,0.303,0.092c0.114,0.023,0.236,0.039,0.357,0.039
		c0.126,0,0.251-0.026,0.369-0.052c0.078-0.018,0.15-0.038,0.225-0.066c0.147-0.055,0.285-0.132,0.409-0.225
		c0.063-0.046,0.131-0.091,0.185-0.145c0.054-0.054,0.099-0.11,0.145-0.173c0.044-0.055,0.082-0.122,0.118-0.185
		c0.004-0.004,0.012-0.008,0.014-0.012c0.036-0.064,0.078-0.129,0.107-0.199c0.03-0.076,0.046-0.156,0.064-0.237
		c0.032-0.126,0.054-0.26,0.054-0.396c0-0.063-0.02-0.123-0.026-0.185c-0.01,0.052-0.017,0.108-0.028,0.159
		c-0.018,0.081-0.034,0.162-0.064,0.237c-0.028,0.069-0.07,0.134-0.107,0.197c-0.002,0.006-0.01,0.008-0.014,0.014
		c-0.036,0.062-0.074,0.128-0.118,0.185c-0.046,0.06-0.091,0.117-0.145,0.171c-0.054,0.054-0.122,0.101-0.185,0.147
		c-0.125,0.091-0.263,0.168-0.409,0.224c-0.074,0.027-0.147,0.049-0.225,0.065c-0.118,0.027-0.242,0.054-0.369,0.054
		c-0.122,0-0.242-0.017-0.357-0.04c-0.105-0.022-0.206-0.052-0.303-0.092c-0.01-0.004-0.018-0.01-0.026-0.014
		c-0.076-0.033-0.154-0.074-0.225-0.118c-0.026-0.017-0.054-0.034-0.08-0.052c-0.018-0.014-0.034-0.026-0.052-0.04
		c-0.046-0.037-0.088-0.077-0.132-0.118c-0.054-0.054-0.11-0.123-0.156-0.185c-0.022-0.028-0.046-0.051-0.066-0.08
		c-0.012-0.017-0.018-0.036-0.026-0.052c-0.014-0.02-0.03-0.033-0.04-0.052c-0.042-0.072-0.076-0.149-0.107-0.225
		c-0.028-0.074-0.048-0.147-0.066-0.225C30.348,30.25,30.341,30.194,30.333,30.142z M34.162,31.622
		c-0.03,0.048-0.048,0.099-0.08,0.145l1.084,3.63h1.901c0.154,0,0.282,0.088,0.357,0.212c0.038-0.064,0.064-0.131,0.064-0.212
		c0-0.234-0.187-0.421-0.421-0.421h-1.901L34.162,31.622z M29.845,31.634l-1.003,3.34h-1.914c-0.236,0-0.424,0.188-0.424,0.421
		c0,0.08,0.028,0.149,0.066,0.212c0.074-0.123,0.202-0.212,0.357-0.212h1.914l1.082-3.617C29.891,31.736,29.872,31.68,29.845,31.634
		z M30.756,34.974l-0.132,0.421h2.771l-0.132-0.421H30.756z M28.459,36.242l-0.804,2.719c-0.507,1.7-0.743,3.284-0.714,4.422
		c0.032-1.093,0.267-2.5,0.714-4l0.937-3.143H28.46L28.459,36.242L28.459,36.242z M35.416,36.242l0.937,3.143
		c0.448,1.5,0.683,2.907,0.712,4c0.028-1.138-0.206-2.721-0.712-4.422l-0.806-2.719h-0.131V36.242L35.416,36.242z"/>
	<path opacity="0.3" fill="#669CCC" enable-background="new    " d="M31.574,23.989c-0.233,0-0.421,0.188-0.421,0.422v3.103
		c-0.985,0.347-1.69,1.286-1.69,2.389c0,0.542,0.173,1.04,0.461,1.452l-1.082,3.618h-1.914c-0.236,0-0.424,0.188-0.424,0.421
		c0,0.236,0.189,0.424,0.424,0.424h1.663l-0.937,3.143c-0.937,3.14-0.963,5.886-0.066,6.152l2.771-9.294h3.287l2.773,9.294
		c0.897-0.267,0.869-3.013-0.066-6.152l-0.937-3.143h1.649c0.236,0,0.421-0.189,0.421-0.424c0-0.235-0.187-0.421-0.421-0.421h-1.901
		l-1.084-3.63c0.282-0.409,0.45-0.905,0.45-1.44c0-1.104-0.705-2.042-1.69-2.389v-3.103c0-0.234-0.189-0.422-0.424-0.422
		C32.417,23.989,31.574,23.989,31.574,23.989z M31.574,24.412h0.845v3.103c0,0.177,0.112,0.335,0.279,0.396
		c0.02,0.008,0.032,0.032,0.052,0.04c-0.236-0.092-0.486-0.158-0.752-0.158c-0.266,0-0.518,0.066-0.752,0.158
		c0.02-0.008,0.03-0.032,0.052-0.04c0.166-0.06,0.277-0.219,0.277-0.396L31.574,24.412L31.574,24.412z M31.997,28.214
		c0.933,0,1.69,0.757,1.69,1.69c0,0.137-0.022,0.27-0.054,0.396c-0.018,0.081-0.034,0.162-0.064,0.237
		c-0.028,0.069-0.07,0.134-0.107,0.197c-0.002,0.006-0.01,0.008-0.014,0.014c-0.036,0.062-0.074,0.128-0.118,0.185
		c-0.046,0.06-0.091,0.117-0.145,0.171c-0.054,0.054-0.122,0.101-0.185,0.147c-0.125,0.091-0.263,0.168-0.409,0.224
		c-0.074,0.027-0.147,0.049-0.225,0.065c-0.118,0.027-0.242,0.054-0.369,0.054c-0.122,0-0.242-0.017-0.357-0.04
		c-0.105-0.022-0.206-0.052-0.303-0.092c-0.01-0.004-0.018-0.01-0.026-0.014c-0.076-0.033-0.154-0.074-0.225-0.118
		c-0.026-0.017-0.054-0.034-0.08-0.052c-0.018-0.014-0.034-0.026-0.052-0.04c-0.046-0.037-0.088-0.077-0.132-0.118
		c-0.054-0.054-0.11-0.123-0.156-0.185c-0.022-0.028-0.046-0.051-0.066-0.08c-0.012-0.017-0.018-0.036-0.026-0.052
		c-0.014-0.02-0.03-0.033-0.04-0.052c-0.042-0.072-0.076-0.149-0.107-0.225c-0.028-0.074-0.048-0.147-0.066-0.225
		c-0.03-0.126-0.052-0.26-0.052-0.396C30.307,28.971,31.063,28.214,31.997,28.214z M33.753,31.053
		c-0.01,0.015-0.004,0.038-0.014,0.052c-0.008,0.009-0.018,0.018-0.026,0.027C33.732,31.107,33.739,31.076,33.753,31.053z
		 M30.293,31.145c0.01,0.011,0.044,0.044,0.04,0.04c0.052,0.068,0.116,0.157,0.199,0.236c0.042,0.042,0.088,0.091,0.158,0.146
		c0.022,0.02,0.044,0.038,0.066,0.054c0.036,0.026,0.076,0.048,0.105,0.066c0.092,0.059,0.185,0.104,0.277,0.145
		c-0.032-0.014-0.014-0.01,0.04,0.014c0,0.004,0,0.008,0,0.012c0.091,0.038,0.175,0.059,0.263,0.08
		c-0.202-0.022-0.391,0.107-0.448,0.303l-0.778,2.614c-0.07,0.223,0.054,0.459,0.277,0.529c0.018,0.006,0.036,0.01,0.052,0.012
		h-0.185c-0.189-0.001-0.356,0.122-0.409,0.305l-2.495,8.34c-0.052-0.262-0.11-0.527-0.107-0.923
		c0.012-1.056,0.255-2.502,0.712-4.041l0.939-3.143c0.068-0.223-0.057-0.459-0.279-0.529c-0.018-0.005-0.034-0.009-0.052-0.014
		h0.173c0.189,0.002,0.356-0.121,0.407-0.303l1.084-3.618C30.365,31.364,30.351,31.246,30.293,31.145z M33.687,31.172
		c-0.038,0.092-0.044,0.196-0.014,0.291l1.084,3.63c0.052,0.182,0.219,0.305,0.409,0.303h0.171c-0.229,0.041-0.384,0.261-0.341,0.49
		c0.002,0.018,0.006,0.036,0.012,0.052l0.937,3.143c0.459,1.539,0.703,2.986,0.712,4.041c0.004,0.396-0.054,0.661-0.107,0.923
		l-2.495-8.343c-0.052-0.183-0.221-0.307-0.409-0.305h-0.171c0.229-0.04,0.384-0.259,0.341-0.489
		c-0.002-0.018-0.006-0.035-0.012-0.052l-0.778-2.614c-0.064-0.221-0.293-0.35-0.516-0.291c-0.017,0.004-0.034-0.004-0.052,0
		c0.094-0.02,0.185-0.044,0.277-0.078c0.189-0.07,0.364-0.165,0.516-0.277c0.052-0.039,0.131-0.094,0.225-0.186
		c0.082-0.081,0.139-0.151,0.185-0.212C33.668,31.187,33.679,31.181,33.687,31.172z M31.402,32.359
		c0.191,0.046,0.39,0.08,0.594,0.08c0.213,0,0.421-0.03,0.621-0.08l0.778,2.616h-2.771L31.402,32.359z"/>
	<path opacity="0.3" fill="#FFFFFF" enable-background="new    " d="M31.997,28.214c-0.933,0-1.69,0.757-1.69,1.69
		c0,0.082,0.012,0.159,0.026,0.237c0.092-0.846,0.792-1.506,1.663-1.506c0.871,0,1.569,0.66,1.663,1.506
		c0.012-0.078,0.026-0.155,0.026-0.237C33.687,28.971,32.93,28.214,31.997,28.214z M29.476,30.116
		c-0.006,0.069-0.014,0.141-0.014,0.211c0,0.484,0.147,0.923,0.384,1.307l0.078-0.279C29.673,30.999,29.514,30.574,29.476,30.116z
		 M34.517,30.116c-0.036,0.453-0.191,0.874-0.436,1.228l0.08,0.277c0.227-0.379,0.369-0.819,0.369-1.295
		C34.532,30.256,34.523,30.185,34.517,30.116z M31.402,32.359l-0.778,2.616h0.132l0.646-2.192c0.191,0.045,0.39,0.078,0.594,0.078
		c0.213,0,0.421-0.03,0.621-0.078l0.646,2.192h0.132l-0.778-2.616c-0.199,0.051-0.407,0.08-0.621,0.08
		C31.793,32.439,31.593,32.405,31.402,32.359z M26.57,35.608c-0.038,0.064-0.066,0.131-0.066,0.212c0,0.236,0.189,0.422,0.424,0.422
		h1.531l0.132-0.422h-1.663C26.773,35.819,26.644,35.731,26.57,35.608z M37.423,35.608c-0.074,0.123-0.202,0.212-0.357,0.212h-1.649
		l0.13,0.421h1.52c0.236,0,0.421-0.188,0.421-0.422C37.488,35.739,37.461,35.671,37.423,35.608z M30.359,35.819l-2.771,9.294
		c-0.411-0.123-0.621-0.766-0.649-1.731c-0.032,1.194,0.179,2.013,0.649,2.153l2.771-9.294h3.287l2.773,9.294
		c0.467-0.14,0.678-0.959,0.646-2.153c-0.023,0.963-0.236,1.606-0.646,1.731l-2.773-9.294H30.359z"/>
</g>
</svg>
