<?xml version="1.0" encoding="utf-8"?>
<!-- Generator: Adobe Illustrator 17.0.0, SVG Export Plug-In . SVG Version: 6.00 Build 0)  -->
<!DOCTYPE svg PUBLIC "-//W3C//DTD SVG 1.1//EN" "http://www.w3.org/Graphics/SVG/1.1/DTD/svg11.dtd">
<svg version="1.1" id="图层_1" xmlns="http://www.w3.org/2000/svg" xmlns:xlink="http://www.w3.org/1999/xlink" x="0px" y="0px"
	 width="48px" height="48px" viewBox="8 8 48 48" enable-background="new 8 8 48 48" xml:space="preserve">
<g id="g151" opacity="0.5">
	<path id="path153" opacity="0.08" enable-background="new    " d="M48.41,52.136H15.617c-3.019,0-5.48-2.367-5.48-5.266v4.028
		c0,2.265,1.925,4.102,4.283,4.102h35.185c2.358,0,4.256-1.836,4.256-4.102V46.87C53.861,49.77,51.428,52.136,48.41,52.136z"/>
	<path id="path155" opacity="0.1" enable-background="new    " d="M48.383,52.136H15.59c-3.018,0-5.451-2.323-5.451-5.222v2.107
		c0,2.265,1.039,5.025,5.25,5.025s28.929,0,33.195,0s5.279-2.76,5.279-5.025v-2.107C53.861,49.813,51.4,52.136,48.383,52.136z"/>
	<path id="path157" opacity="0.1" enable-background="new    " d="M48.383,52.136H15.59c-3.018,0-5.451-2.323-5.451-5.222v1.137
		c0,2.266,1.802,5.041,5.25,5.041s29.249,0,33.195,0c3.947,0,5.279-2.775,5.279-5.039v-1.137
		C53.861,49.813,51.4,52.136,48.383,52.136z"/>
	<rect id="rect159" x="15.107" y="52.136" opacity="0.05" enable-background="new    " width="33.786" height="0.955"/>
	<rect id="rect161" x="16.101" y="52.136" opacity="0.05" enable-background="new    " width="30.805" height="0.955"/>
	<rect id="rect163" x="16.101" y="53.091" opacity="0.05" enable-background="new    " width="30.805" height="0.955"/>
	<rect id="rect165" x="18.087" y="53.091" opacity="0.05" enable-background="new    " width="27.824" height="0.955"/>
	<rect id="rect167" x="21.069" y="53.091" opacity="0.05" enable-background="new    " width="21.862" height="0.955"/>
	<rect id="rect169" x="25.044" y="53.091" opacity="0.05" enable-background="new    " width="13.912" height="0.955"/>
	<rect id="rect171" x="18.087" y="52.136" opacity="0.05" enable-background="new    " width="27.824" height="0.955"/>
	<rect id="rect173" x="20.075" y="52.136" opacity="0.05" enable-background="new    " width="23.849" height="0.955"/>
	<rect id="rect175" x="21.069" y="52.136" opacity="0.05" enable-background="new    " width="21.862" height="0.955"/>
	<rect id="rect177" x="23.056" y="52.136" opacity="0.05" enable-background="new    " width="17.887" height="0.955"/>
	<rect id="rect179" x="23.056" y="52.136" opacity="0.05" enable-background="new    " width="17.887" height="0.955"/>
</g>
<path fill="#C4DCED" stroke="#9DBCD7" stroke-miterlimit="10" d="M53.466,46.281c0,3.121-2.531,5.652-5.652,5.652H16.185
	c-3.121,0-5.652-2.531-5.652-5.652V14.652c0-3.121,2.531-5.652,5.652-5.652h31.63c3.121,0,5.652,2.531,5.652,5.652L53.466,46.281
	L53.466,46.281z"/>
<path opacity="0.6" fill="none" stroke="#FFFFFF" stroke-miterlimit="10" d="M16.185,50.934c-2.565,0-4.652-2.087-4.652-4.652
	V14.652c0-2.565,2.087-4.652,4.652-4.652h31.629c2.565,0,4.652,2.087,4.652,4.652v31.629c0,2.565-2.087,4.652-4.652,4.652H16.185z"
	/>
<path opacity="0.08" fill="none" stroke="#000000" stroke-miterlimit="10" enable-background="new    " d="M53.627,21.193
	c0,0,0-1.899-1.876-1.899c-5.445,0-22.83,0.003-24.387,0.003c-1.891,0-1.876-1.872-1.876-1.872s0-1.885-1.876-1.885
	c-3.284,0-9.861,0-11.255,0c-1.847,0-1.876,1.816-1.876,1.873"/>
<path opacity="0.03" fill="none" stroke="#000000" stroke-miterlimit="10" enable-background="new    " d="M53.627,20.112
	c0,0,0-1.899-1.876-1.899c-5.445,0-22.83,0.003-24.387,0.003c-1.891,0-1.876-1.872-1.876-1.872s0-1.885-1.876-1.885
	c-3.284,0-9.861,0-11.255,0c-1.847,0-1.876,1.816-1.876,1.873"/>
<linearGradient id="SVGID_1_" gradientUnits="userSpaceOnUse" x1="1127.9993" y1="1377.9335" x2="1127.9993" y2="1342.5322" gradientTransform="matrix(1 0 0 1 -1096 -1326)">
	<stop  offset="0" style="stop-color:#D1E0ED"/>
	<stop  offset="1" style="stop-color:#E4EEFB"/>
</linearGradient>
<path fill="url(#SVGID_1_)" stroke="#9DBCD7" stroke-miterlimit="10" d="M16.172,51.933H47.92c3.121,0,5.546-2.595,5.546-5.717
	V20.871c0-0.445-0.665-0.864-1.55-0.864c-5.468,0-22.903,0.003-24.466,0.003c-1.899,0-1.87-1.733-1.87-1.733
	s0.013-1.745-1.871-1.745c-3.298,0-9.904,0-11.304,0c-1.855,0-1.872,1.538-1.872,1.596v28.089
	C10.533,49.338,13.051,51.933,16.172,51.933z"/>
<path opacity="0.8" fill="none" stroke="#FFFFFF" stroke-miterlimit="10" d="M16.172,50.934c-2.558,0-4.64-2.116-4.64-4.717V18.128
	c0.023-0.596,0.662-0.596,0.872-0.596h11.304c0.21,0,0.85,0,0.871,0.754c-0.002,0.091,0.003,1.14,0.779,1.928
	c0.357,0.363,1.01,0.796,2.092,0.796l24.466-0.003c0.263,0,0.446,0.055,0.551,0.102v25.107c0,2.601-2.04,4.717-4.547,4.717H16.172z"
	/>
<radialGradient id="SVGID_2_" cx="1506.46" cy="-1013.1687" r="34.4255" gradientTransform="matrix(0.0197 0.9998 -0.9109 0.018 -922.1061 -1463.46)" gradientUnits="userSpaceOnUse">
	<stop  offset="0" style="stop-color:#FFFFFF;stop-opacity:0.6"/>
	<stop  offset="0.3783" style="stop-color:#FAFCFE;stop-opacity:0.4487"/>
	<stop  offset="0.829" style="stop-color:#EBF3FC;stop-opacity:0.2684"/>
	<stop  offset="1" style="stop-color:#E4EEFB;stop-opacity:0.2"/>
</radialGradient>
<path fill="url(#SVGID_2_)" d="M16.172,51.181c-2.695,0-4.887-2.226-4.887-4.964V18.128c0-0.036,0.006-0.336,0.229-0.56
	c0.187-0.187,0.486-0.282,0.889-0.282h11.304c0.446,0,0.673,0.053,0.809,0.19c0.3,0.302,0.313,0.762,0.313,0.767
	c-0.001,0.099,0.004,1.081,0.732,1.82c0.464,0.471,1.1,0.709,1.89,0.709c0,0,20.898-0.008,24.461-0.008
	c0.471,0,0.731,0.162,0.798,0.239v25.214c0,2.738-2.15,4.964-4.793,4.964H16.172L16.172,51.181L16.172,51.181z"/>
<g id="g27_1_">
	
		<linearGradient id="path36_2_" gradientUnits="userSpaceOnUse" x1="1520.0824" y1="2152.541" x2="1526.0471" y2="2162.8721" gradientTransform="matrix(1 0 0 1 -1508 -2144)">
		<stop  offset="0" style="stop-color:#FFFFFF"/>
		<stop  offset="0.5" style="stop-color:#FFFFFF;stop-opacity:0.6"/>
		<stop  offset="1" style="stop-color:#FFFFFF;stop-opacity:0.15"/>
	</linearGradient>
	<path id="path36_1_" fill="url(#path36_2_)" d="M17,20.627c0.667-1.381,1.481-2.674,2.414-3.869l-1.699-3.725
		c-1.451,1.372-2.629,2.883-3.569,4.351L17,20.627z"/>
	
		<linearGradient id="path45_2_" gradientUnits="userSpaceOnUse" x1="1525.4906" y1="2150.9939" x2="1529.3943" y2="2157.7554" gradientTransform="matrix(1 0 0 1 -1508 -2144)">
		<stop  offset="0" style="stop-color:#FFFFFF"/>
		<stop  offset="0.5" style="stop-color:#FFFFFF;stop-opacity:0.6"/>
		<stop  offset="1" style="stop-color:#FFFFFF;stop-opacity:0.15"/>
	</linearGradient>
	<path id="path45_1_" fill="url(#path45_2_)" d="M17.178,9.452l0.888,1.946c0.854-0.709,1.791-0.954,2.812-1.946H17.178z"/>
	
		<linearGradient id="path54_2_" gradientUnits="userSpaceOnUse" x1="1526.7184" y1="2149.7102" x2="1531.4878" y2="2157.9709" gradientTransform="matrix(1 0 0 1 -1508 -2144)">
		<stop  offset="0" style="stop-color:#FFFFFF"/>
		<stop  offset="0.5" style="stop-color:#FFFFFF;stop-opacity:0.6"/>
		<stop  offset="1" style="stop-color:#FFFFFF;stop-opacity:0.15"/>
	</linearGradient>
	<path id="path54_1_" fill="url(#path54_2_)" d="M23.841,9.452h-0.703c-1.772,0.992-3.321,1.75-4.65,2.881l1.628,3.573
		c1.391-1.607,3.005-3.015,4.813-4.152c0.014-0.013,0.024-0.024,0.039-0.036C26.994,9.968,24.983,9.452,23.841,9.452z"/>
	
		<linearGradient id="path63_2_" gradientUnits="userSpaceOnUse" x1="1516.7354" y1="2157.2505" x2="1521.9113" y2="2166.2153" gradientTransform="matrix(1 0 0 1 -1508 -2144)">
		<stop  offset="0" style="stop-color:#FFFFFF"/>
		<stop  offset="0.5" style="stop-color:#FFFFFF;stop-opacity:0.6"/>
		<stop  offset="1" style="stop-color:#FFFFFF;stop-opacity:0.15"/>
	</linearGradient>
	<path id="path63_1_" fill="url(#path63_2_)" d="M13.606,18.269c-1.089,1.855-1.802,3.569-2.224,4.741
		c0.5,0.714,1.327,1.182,2.265,1.182c1.161,0,2.153-0.717,2.563-1.731c0.105-0.283,0.233-0.555,0.351-0.834L13.606,18.269z"/>
	
		<linearGradient id="path72_2_" gradientUnits="userSpaceOnUse" x1="1516.5024" y1="2157.6179" x2="1522.2385" y2="2167.5532" gradientTransform="matrix(1 0 0 1 -1508 -2144)">
		<stop  offset="0" style="stop-color:#FFFFFF"/>
		<stop  offset="0.5" style="stop-color:#FFFFFF;stop-opacity:0.6"/>
		<stop  offset="1" style="stop-color:#FFFFFF;stop-opacity:0.15"/>
	</linearGradient>
	<path id="path72_1_" fill="url(#path72_2_)" d="M10.901,15.192l-0.021,6.229c0,0,0,0.002,0,0.004c0,0.039,0.01,0.076,0.012,0.114
		c0.474-1.152,1.135-2.56,2.031-4.048L10.901,15.192z"/>
	
		<linearGradient id="path149_2_" gradientUnits="userSpaceOnUse" x1="1520.8402" y1="2154.5063" x2="1526.2263" y2="2163.8357" gradientTransform="matrix(1 0 0 1 -1508 -2144)">
		<stop  offset="0" style="stop-color:#FFFFFF"/>
		<stop  offset="0.5" style="stop-color:#FFFFFF;stop-opacity:0.6"/>
		<stop  offset="1" style="stop-color:#FFFFFF;stop-opacity:0.15"/>
	</linearGradient>
	<path id="path149_1_" fill="url(#path149_2_)" d="M15.994,9.464c-2.024-0.168-4.689,2.111-5.03,4.297l2.511,2.855
		c1.002-1.53,2.248-3.096,3.786-4.512L15.994,9.464z"/>
</g>
<g>
	<path opacity="0.05" fill="#FFFFFF" enable-background="new    " d="M27.883,23.265c-0.128,0.013-0.25,0.054-0.36,0.12
		l-6.143,3.731c-0.404,0.245-0.533,0.77-0.289,1.174c0.048,0.081,0.109,0.151,0.182,0.213l3.345,2.825l-3.398,2.744
		c-0.37,0.293-0.43,0.831-0.138,1.201c0.058,0.072,0.127,0.135,0.204,0.185l3.917,2.505c-0.017,0.065-0.026,0.132-0.027,0.2v0.533
		c-0.003,0.281,0.131,0.544,0.36,0.706l5.996,4.184c0.292,0.203,0.68,0.203,0.973,0l6.077-4.184
		c0.233-0.159,0.373-0.423,0.373-0.706v-0.6c0-0.072-0.008-0.144-0.027-0.213l3.784-2.426c0.396-0.257,0.509-0.787,0.251-1.182
		c-0.05-0.078-0.113-0.146-0.185-0.204l-3.345-2.705l3.345-2.852c0.359-0.306,0.402-0.845,0.096-1.205
		c-0.061-0.072-0.134-0.133-0.216-0.182L36.53,23.41c-0.315-0.192-0.719-0.16-0.999,0.08l-3.491,3.013l-3.518-3.038
		C28.345,23.315,28.114,23.242,27.883,23.265z M27.963,24.118l4.078,3.518l4.051-3.491l6.13,3.718l-4.131,3.518l4.157,3.358
		l-6.09,3.89l-4.156-3.531l-4.157,3.531l-6.09-3.891l4.184-3.372l6.063,3.732l6.05-3.718l-6.05-3.731l-6.023,3.718l-4.157-3.518
		L27.963,24.118z M32.001,28.662l4.411,2.719l-4.411,2.705l-4.398-2.705L32.001,28.662z M32.001,35.806l4.157,3.531l1.945-1.24v0.6
		l-6.077,4.184l-5.996-4.184v-0.533l1.812,1.173L32.001,35.806z"/>
	<path opacity="0.1" fill="#FFFFFF" enable-background="new    " d="M27.923,23.691c-0.067,0.007-0.13,0.03-0.187,0.067
		l-6.144,3.731c-0.199,0.127-0.258,0.39-0.131,0.589c0.021,0.033,0.047,0.065,0.078,0.091l3.744,3.171l-3.797,3.065
		c-0.184,0.147-0.213,0.416-0.065,0.6c0.029,0.036,0.065,0.068,0.105,0.094l4.251,2.719c-0.109,0.081-0.174,0.209-0.173,0.347v0.533
		c0.002,0.139,0.072,0.269,0.187,0.347l5.996,4.184c0.145,0.099,0.335,0.099,0.48,0l6.077-4.184
		c0.115-0.078,0.185-0.207,0.187-0.347v-0.6c0.002-0.144-0.068-0.279-0.187-0.36l4.131-2.638c0.199-0.125,0.259-0.389,0.133-0.589
		c-0.025-0.039-0.057-0.075-0.094-0.105l-3.758-3.038l3.744-3.185c0.176-0.156,0.193-0.425,0.037-0.602
		c-0.027-0.03-0.057-0.056-0.091-0.078l-6.129-3.718c-0.159-0.1-0.365-0.084-0.506,0.039l-3.772,3.252l-3.797-3.278
		C28.155,23.72,28.04,23.682,27.923,23.691z M27.963,24.118l4.078,3.518l4.051-3.491l6.13,3.718l-4.131,3.518l4.157,3.358
		l-6.09,3.89l-4.156-3.531l-4.157,3.531l-6.09-3.891l4.184-3.372l6.063,3.732l6.05-3.718l-6.05-3.731l-6.023,3.718l-4.157-3.518
		C21.82,27.849,27.963,24.118,27.963,24.118z M32.001,28.143l5.237,3.238l-5.237,3.225l-5.237-3.225L32.001,28.143z M32.001,35.806
		l4.157,3.531l1.945-1.24v0.6l-6.077,4.184l-5.996-4.184v-0.533l1.812,1.173L32.001,35.806z"/>
	<path opacity="0.3" fill="#669CCC" enable-background="new    " d="M27.961,24.118l-6.136,3.735l4.157,3.513l6.024-3.713
		l6.047,3.724l-6.047,3.724l4.157,3.523l6.092-3.891l-4.168-3.357l4.135-3.513l-6.136-3.724l-4.046,3.49L27.961,24.118
		L27.961,24.118z M25.937,31.366l-4.19,3.367l6.102,3.891l4.147-3.523C31.996,35.1,25.937,31.366,25.937,31.366z M31.996,35.812
		l-4.147,3.523l-1.823-1.167v0.534l6.003,4.18l6.069-4.18v-0.6l-1.935,1.235C36.163,39.336,31.996,35.812,31.996,35.812z"/>
	<path opacity="0.3" fill="#669CCC" enable-background="new    " d="M27.963,24.118l-6.144,3.731l4.157,3.518L32,27.65l6.05,3.731
		L32,35.098l4.157,3.531l6.09-3.891L38.09,31.38l4.131-3.518l-6.129-3.718l-4.051,3.491L27.963,24.118z M32.001,35.099l-6.063-3.731
		l-4.184,3.372l6.09,3.891L32.001,35.099z M27.897,24.944l3.013,2.598l-4.877,2.998l-3.079-2.598L27.897,24.944z M36.158,24.971
		l4.93,2.985l-3.065,2.612l-4.877-2.998C33.148,27.569,36.158,24.971,36.158,24.971z M25.991,32.18l4.877,3.013l-3.079,2.612
		l-4.904-3.131L25.991,32.18z M38.024,32.18l3.091,2.492l-4.904,3.132l-3.079-2.612L38.024,32.18z M32.001,35.806l-4.157,3.531
		l-1.812-1.173v0.533l5.996,4.184l6.077-4.184v-0.6l-1.945,1.24L32.001,35.806z M32.001,36.671l3.531,2.998l-3.491,2.399
		l-3.518-2.439L32.001,36.671z"/>
	<path opacity="0.5" fill="#669CCC" enable-background="new    " d="M27.963,24.118l-6.144,3.731l0.293,0.253l5.851-3.557
		l3.784,3.265l0.253-0.159l0.306,0.187l3.784-3.265l5.836,3.545l0.293-0.253l-6.13-3.718l-4.051,3.491L27.963,24.118z
		 M25.697,31.554l-3.945,3.185l0.293,0.187l3.891-3.131l5.77,3.557l0.295-0.253l-5.703-3.505l-0.321,0.2L25.697,31.554z
		 M32.001,35.099l0.293,0.253l5.756-3.545l-0.347-0.213L32.001,35.099z M38.344,31.594l-0.253,0.213l3.865,3.119l0.293-0.187
		L38.344,31.594z M32.001,35.806l-4.157,3.531l-1.812-1.173v0.427l1.812,1.173l4.157-3.531l4.157,3.531l1.945-1.24v-0.427
		l-1.945,1.24L32.001,35.806z"/>
	<path opacity="0.3" fill="#669CCC" enable-background="new    " d="M27.963,24.118l-6.144,3.731l4.157,3.518L32,27.65l6.05,3.731
		L32,35.098l4.157,3.531l6.09-3.891L38.09,31.38l4.131-3.518l-6.129-3.718l-4.051,3.491L27.963,24.118z M32.001,35.099l-6.063-3.731
		l-4.184,3.372l6.09,3.891L32.001,35.099z M27.923,24.532l3.531,3.052l-5.451,3.372l-3.612-3.052
		C22.392,27.904,27.923,24.532,27.923,24.532z M36.132,24.558l5.517,3.358l-3.612,3.065l-5.451-3.372
		C32.587,27.61,36.132,24.558,36.132,24.558z M25.964,31.78l5.464,3.372l-3.612,3.065l-5.491-3.505L25.964,31.78z M38.051,31.78
		l3.625,2.932l-5.491,3.505l-3.612-3.065L38.051,31.78z M32.001,35.806l-4.157,3.531l-1.812-1.173v0.533l5.996,4.184l6.077-4.184
		v-0.6l-1.945,1.24L32.001,35.806z M32.001,36.245l3.945,3.345c0.042,0.039,0.091,0.065,0.146,0.079l-4.051,2.799l-4.065-2.825
		c0.029-0.014,0.056-0.032,0.08-0.054L32.001,36.245z"/>
	<path opacity="0.2" fill="#FFFFFF" enable-background="new    " d="M31.748,27.809l-5.77,3.558l-3.865-3.265l-0.293,0.173
		l3.878,3.278l0.24-0.187l0.36,0.226L32,28.076l5.703,3.518l0.347-0.213l-5.744-3.545l-0.266,0.226L31.748,27.809z M41.929,28.116
		l-3.839,3.265l0.253,0.213l3.878-3.304L41.929,28.116z M22.046,34.926l-0.293,0.24l6.09,3.891l4.159-3.531l-0.293-0.173
		l-3.865,3.278L22.046,34.926z M32.001,35.525l4.157,3.531l6.09-3.891l-0.293-0.24l-5.796,3.705l-3.865-3.278L32.001,35.525z
		 M26.031,38.697v0.427l5.996,4.184l6.077-4.184v-0.427l-6.077,4.184L26.031,38.697z"/>
</g>
</svg>
