<?xml version="1.0" encoding="utf-8"?>
<!-- Generator: Adobe Illustrator 17.0.0, SVG Export Plug-In . SVG Version: 6.00 Build 0)  -->
<!DOCTYPE svg PUBLIC "-//W3C//DTD SVG 1.1//EN" "http://www.w3.org/Graphics/SVG/1.1/DTD/svg11.dtd">
<svg version="1.1" id="图层_1" xmlns="http://www.w3.org/2000/svg" xmlns:xlink="http://www.w3.org/1999/xlink" x="0px" y="0px"
	 width="48px" height="48px" viewBox="8 8 48 48" enable-background="new 8 8 48 48" xml:space="preserve">
<g id="g151" opacity="0.5">
	<path id="path153" opacity="0.08" enable-background="new    " d="M48.41,52.136H15.617c-3.019,0-5.48-2.367-5.48-5.266v4.028
		c0,2.265,1.925,4.102,4.283,4.102h35.185c2.358,0,4.256-1.836,4.256-4.102V46.87C53.861,49.77,51.428,52.136,48.41,52.136z"/>
	<path id="path155" opacity="0.1" enable-background="new    " d="M48.383,52.136H15.59c-3.018,0-5.451-2.323-5.451-5.222v2.107
		c0,2.265,1.039,5.025,5.25,5.025s28.929,0,33.195,0s5.279-2.76,5.279-5.025v-2.107C53.861,49.813,51.4,52.136,48.383,52.136z"/>
	<path id="path157" opacity="0.1" enable-background="new    " d="M48.383,52.136H15.59c-3.018,0-5.451-2.323-5.451-5.222v1.137
		c0,2.266,1.802,5.041,5.25,5.041s29.249,0,33.195,0c3.947,0,5.279-2.775,5.279-5.039v-1.137
		C53.861,49.813,51.4,52.136,48.383,52.136z"/>
	<rect id="rect159" x="15.107" y="52.136" opacity="0.05" enable-background="new    " width="33.786" height="0.955"/>
	<rect id="rect161" x="16.101" y="52.136" opacity="0.05" enable-background="new    " width="30.805" height="0.955"/>
	<rect id="rect163" x="16.101" y="53.091" opacity="0.05" enable-background="new    " width="30.805" height="0.955"/>
	<rect id="rect165" x="18.087" y="53.091" opacity="0.05" enable-background="new    " width="27.824" height="0.955"/>
	<rect id="rect167" x="21.069" y="53.091" opacity="0.05" enable-background="new    " width="21.862" height="0.955"/>
	<rect id="rect169" x="25.044" y="53.091" opacity="0.05" enable-background="new    " width="13.912" height="0.955"/>
	<rect id="rect171" x="18.087" y="52.136" opacity="0.05" enable-background="new    " width="27.824" height="0.955"/>
	<rect id="rect173" x="20.075" y="52.136" opacity="0.05" enable-background="new    " width="23.849" height="0.955"/>
	<rect id="rect175" x="21.069" y="52.136" opacity="0.05" enable-background="new    " width="21.862" height="0.955"/>
	<rect id="rect177" x="23.056" y="52.136" opacity="0.05" enable-background="new    " width="17.887" height="0.955"/>
	<rect id="rect179" x="23.056" y="52.136" opacity="0.05" enable-background="new    " width="17.887" height="0.955"/>
</g>
<path fill="#C4DCED" stroke="#9DBCD7" stroke-miterlimit="10" d="M53.466,46.281c0,3.121-2.531,5.652-5.652,5.652H16.185
	c-3.121,0-5.652-2.531-5.652-5.652V14.652c0-3.121,2.531-5.652,5.652-5.652h31.63c3.121,0,5.652,2.531,5.652,5.652L53.466,46.281
	L53.466,46.281z"/>
<path opacity="0.6" fill="none" stroke="#FFFFFF" stroke-miterlimit="10" d="M16.185,50.934c-2.565,0-4.652-2.087-4.652-4.652
	V14.652c0-2.565,2.087-4.652,4.652-4.652h31.629c2.565,0,4.652,2.087,4.652,4.652v31.629c0,2.565-2.087,4.652-4.652,4.652H16.185z"
	/>
<path opacity="0.08" fill="none" stroke="#000000" stroke-miterlimit="10" enable-background="new    " d="M53.627,21.193
	c0,0,0-1.899-1.876-1.899c-5.445,0-22.83,0.003-24.387,0.003c-1.891,0-1.876-1.872-1.876-1.872s0-1.885-1.876-1.885
	c-3.284,0-9.861,0-11.255,0c-1.847,0-1.876,1.816-1.876,1.873"/>
<path opacity="0.03" fill="none" stroke="#000000" stroke-miterlimit="10" enable-background="new    " d="M53.627,20.112
	c0,0,0-1.899-1.876-1.899c-5.445,0-22.83,0.003-24.387,0.003c-1.891,0-1.876-1.872-1.876-1.872s0-1.885-1.876-1.885
	c-3.284,0-9.861,0-11.255,0c-1.847,0-1.876,1.816-1.876,1.873"/>
<linearGradient id="SVGID_1_" gradientUnits="userSpaceOnUse" x1="1127.9993" y1="1377.9335" x2="1127.9993" y2="1342.5322" gradientTransform="matrix(1 0 0 1 -1096 -1326)">
	<stop  offset="0" style="stop-color:#D1E0ED"/>
	<stop  offset="1" style="stop-color:#E4EEFB"/>
</linearGradient>
<path fill="url(#SVGID_1_)" stroke="#9DBCD7" stroke-miterlimit="10" d="M16.172,51.933H47.92c3.121,0,5.546-2.595,5.546-5.717
	V20.871c0-0.445-0.665-0.864-1.55-0.864c-5.468,0-22.903,0.003-24.466,0.003c-1.899,0-1.87-1.733-1.87-1.733
	s0.013-1.745-1.871-1.745c-3.298,0-9.904,0-11.304,0c-1.855,0-1.872,1.538-1.872,1.596v28.089
	C10.533,49.338,13.051,51.933,16.172,51.933z"/>
<path opacity="0.8" fill="none" stroke="#FFFFFF" stroke-miterlimit="10" d="M16.172,50.934c-2.558,0-4.64-2.116-4.64-4.717V18.128
	c0.023-0.596,0.662-0.596,0.872-0.596h11.304c0.21,0,0.85,0,0.871,0.754c-0.002,0.091,0.003,1.14,0.779,1.928
	c0.357,0.363,1.01,0.796,2.092,0.796l24.466-0.003c0.263,0,0.446,0.055,0.551,0.102v25.107c0,2.601-2.04,4.717-4.547,4.717H16.172z"
	/>
<radialGradient id="SVGID_2_" cx="1506.46" cy="-1013.1687" r="34.4255" gradientTransform="matrix(0.0197 0.9998 -0.9109 0.018 -922.1061 -1463.46)" gradientUnits="userSpaceOnUse">
	<stop  offset="0" style="stop-color:#FFFFFF;stop-opacity:0.6"/>
	<stop  offset="0.3783" style="stop-color:#FAFCFE;stop-opacity:0.4487"/>
	<stop  offset="0.829" style="stop-color:#EBF3FC;stop-opacity:0.2684"/>
	<stop  offset="1" style="stop-color:#E4EEFB;stop-opacity:0.2"/>
</radialGradient>
<path fill="url(#SVGID_2_)" d="M16.172,51.181c-2.695,0-4.887-2.226-4.887-4.964V18.128c0-0.036,0.006-0.336,0.229-0.56
	c0.187-0.187,0.486-0.282,0.889-0.282h11.304c0.446,0,0.673,0.053,0.809,0.19c0.3,0.302,0.313,0.762,0.313,0.767
	c-0.001,0.099,0.004,1.081,0.732,1.82c0.464,0.471,1.1,0.709,1.89,0.709c0,0,20.898-0.008,24.461-0.008
	c0.471,0,0.731,0.162,0.798,0.239v25.214c0,2.738-2.15,4.964-4.793,4.964H16.172L16.172,51.181L16.172,51.181z"/>
<g id="g27_1_">
	
		<linearGradient id="path36_2_" gradientUnits="userSpaceOnUse" x1="1520.0824" y1="2152.541" x2="1526.0471" y2="2162.8721" gradientTransform="matrix(1 0 0 1 -1508 -2144)">
		<stop  offset="0" style="stop-color:#FFFFFF"/>
		<stop  offset="0.5" style="stop-color:#FFFFFF;stop-opacity:0.6"/>
		<stop  offset="1" style="stop-color:#FFFFFF;stop-opacity:0.15"/>
	</linearGradient>
	<path id="path36_1_" fill="url(#path36_2_)" d="M17,20.627c0.667-1.381,1.481-2.674,2.414-3.869l-1.699-3.725
		c-1.451,1.372-2.629,2.883-3.569,4.351L17,20.627z"/>
	
		<linearGradient id="path45_2_" gradientUnits="userSpaceOnUse" x1="1525.4906" y1="2150.9939" x2="1529.3943" y2="2157.7554" gradientTransform="matrix(1 0 0 1 -1508 -2144)">
		<stop  offset="0" style="stop-color:#FFFFFF"/>
		<stop  offset="0.5" style="stop-color:#FFFFFF;stop-opacity:0.6"/>
		<stop  offset="1" style="stop-color:#FFFFFF;stop-opacity:0.15"/>
	</linearGradient>
	<path id="path45_1_" fill="url(#path45_2_)" d="M17.178,9.452l0.888,1.946c0.854-0.709,1.791-0.954,2.812-1.946H17.178z"/>
	
		<linearGradient id="path54_2_" gradientUnits="userSpaceOnUse" x1="1526.7184" y1="2149.7102" x2="1531.4878" y2="2157.9709" gradientTransform="matrix(1 0 0 1 -1508 -2144)">
		<stop  offset="0" style="stop-color:#FFFFFF"/>
		<stop  offset="0.5" style="stop-color:#FFFFFF;stop-opacity:0.6"/>
		<stop  offset="1" style="stop-color:#FFFFFF;stop-opacity:0.15"/>
	</linearGradient>
	<path id="path54_1_" fill="url(#path54_2_)" d="M23.841,9.452h-0.703c-1.772,0.992-3.321,1.75-4.65,2.881l1.628,3.573
		c1.391-1.607,3.005-3.015,4.813-4.152c0.014-0.013,0.024-0.024,0.039-0.036C26.994,9.968,24.983,9.452,23.841,9.452z"/>
	
		<linearGradient id="path63_2_" gradientUnits="userSpaceOnUse" x1="1516.7354" y1="2157.2505" x2="1521.9113" y2="2166.2153" gradientTransform="matrix(1 0 0 1 -1508 -2144)">
		<stop  offset="0" style="stop-color:#FFFFFF"/>
		<stop  offset="0.5" style="stop-color:#FFFFFF;stop-opacity:0.6"/>
		<stop  offset="1" style="stop-color:#FFFFFF;stop-opacity:0.15"/>
	</linearGradient>
	<path id="path63_1_" fill="url(#path63_2_)" d="M13.606,18.269c-1.089,1.855-1.802,3.569-2.224,4.741
		c0.5,0.714,1.327,1.182,2.265,1.182c1.161,0,2.153-0.717,2.563-1.731c0.105-0.283,0.233-0.555,0.351-0.834L13.606,18.269z"/>
	
		<linearGradient id="path72_2_" gradientUnits="userSpaceOnUse" x1="1516.5024" y1="2157.6179" x2="1522.2385" y2="2167.5532" gradientTransform="matrix(1 0 0 1 -1508 -2144)">
		<stop  offset="0" style="stop-color:#FFFFFF"/>
		<stop  offset="0.5" style="stop-color:#FFFFFF;stop-opacity:0.6"/>
		<stop  offset="1" style="stop-color:#FFFFFF;stop-opacity:0.15"/>
	</linearGradient>
	<path id="path72_1_" fill="url(#path72_2_)" d="M10.901,15.192l-0.021,6.229c0,0,0,0.002,0,0.004c0,0.039,0.01,0.076,0.012,0.114
		c0.474-1.152,1.135-2.56,2.031-4.048L10.901,15.192z"/>
	
		<linearGradient id="path149_2_" gradientUnits="userSpaceOnUse" x1="1520.8402" y1="2154.5063" x2="1526.2263" y2="2163.8357" gradientTransform="matrix(1 0 0 1 -1508 -2144)">
		<stop  offset="0" style="stop-color:#FFFFFF"/>
		<stop  offset="0.5" style="stop-color:#FFFFFF;stop-opacity:0.6"/>
		<stop  offset="1" style="stop-color:#FFFFFF;stop-opacity:0.15"/>
	</linearGradient>
	<path id="path149_1_" fill="url(#path149_2_)" d="M15.994,9.464c-2.024-0.168-4.689,2.111-5.03,4.297l2.511,2.855
		c1.002-1.53,2.248-3.096,3.786-4.512L15.994,9.464z"/>
</g>
<g>
	<path opacity="0.3" fill="#FFFFFF" enable-background="new    " d="M35.277,22.299c-1.005,0.021-1.998,0.371-2.814,1.061
		c-1.286,1.087-1.475,2.319-1.568,3.305c-0.093,0.986-0.108,1.692-1,2.444c-0.89,0.753-1.631,0.668-2.643,0.615
		c-1.012-0.053-2.268-0.055-3.552,1.03c-0.586,0.498-1.005,1.122-1.26,1.783c0,0,0,0.014,0,0.017
		c-0.008,0.019-0.027,0.076-0.03,0.108c-0.034,0.091-0.076,0.176-0.108,0.292c-0.012,0.04-0.042,0.114-0.063,0.199
		c0,0.009,0.002,0.009,0,0.017c-0.027,0.128-0.044,0.265-0.061,0.4c-0.008,0.054,0,0.105,0,0.108
		c-0.002,0.034-0.014,0.076-0.017,0.108c0.002-0.017-0.009,0.027-0.014,0.138c-0.002,0.056,0,0.072,0,0.063
		c-0.002,0.046,0,0.059,0,0.031c0,0.059-0.002,0.124,0,0.183c0,0-0.002,0.026,0,0.092c0.005,0.11,0.017,0.154,0.014,0.138
		c0.005,0.051,0.008,0.13,0.017,0.217c0.017,0.134,0.033,0.271,0.061,0.4c0.002,0.008,0,0.008,0,0.016
		c0.021,0.084,0.051,0.158,0.063,0.2c0.042,0.157,0.093,0.282,0.138,0.4c0,0.005,0,0.011,0,0.016
		c0.238,0.618,0.633,1.173,1.152,1.645c0.005,0.004-0.002,0.013,0,0.016c0.005,0.005,0.009,0.011,0.017,0.016
		c0.025,0.034,0.059,0.067,0.091,0.092c0,0.005,0,0.012,0,0.016c1.285,1.087,2.54,1.083,3.552,1.03
		c1.012-0.053,1.753-0.139,2.643,0.615c0.893,0.754,0.907,1.459,1,2.444c0.093,0.986,0.282,2.22,1.568,3.305
		c1.869,1.579,4.688,1.372,6.303-0.461c1.616-1.835,1.409-4.63-0.461-6.21c-1.285-1.085-2.54-1.083-3.552-1.029
		c-1.012,0.053-1.753,0.138-2.643-0.616c-0.885-0.748-0.91-1.449-1-2.428c0.091-0.978,0.115-1.68,1-2.428
		c0.891-0.753,1.632-0.668,2.643-0.615c1.012,0.053,2.268,0.056,3.552-1.03c1.869-1.581,2.075-4.375,0.461-6.21
		C37.859,22.79,36.564,22.272,35.277,22.299z M35.294,22.791c1.144-0.024,2.294,0.435,3.103,1.353
		c1.436,1.631,1.25,4.095-0.414,5.504c-2.344,1.979-4.152-0.082-6.195,1.645c-1.032,0.872-1.074,1.825-1.169,2.813
		c0.093,0.988,0.135,1.94,1.169,2.814c2.043,1.725,3.851-0.335,6.195,1.645c1.664,1.407,1.851,3.872,0.414,5.504
		c-1.434,1.631-3.944,1.806-5.609,0.4c-2.343-1.979-0.524-4.022-2.569-5.749c-2.043-1.726-3.851,0.334-6.195-1.646v-0.014
		c-0.519-0.44-0.894-0.98-1.122-1.568c-0.002-0.004,0.002-0.013,0-0.017c-0.044-0.12-0.088-0.23-0.124-0.355
		c-0.014-0.054-0.033-0.113-0.044-0.169c-0.002-0.006,0.002-0.011,0-0.016c-0.025-0.116-0.047-0.236-0.063-0.355
		c-0.008-0.061-0.009-0.124-0.014-0.184c-0.002-0.041-0.014-0.082-0.017-0.124c0-0.027,0-0.065,0-0.092c0-0.056,0-0.098,0-0.154
		c0-0.006,0-0.024,0-0.03c0-0.021,0-0.04,0-0.061c0.002-0.042,0.014-0.082,0.017-0.124c0.005-0.054,0.009-0.115,0.014-0.169
		c0.002-0.008,0-0.009,0-0.017c0.017-0.117,0.037-0.237,0.063-0.353c0-0.006-0.002-0.009,0-0.017
		c0.012-0.054,0.03-0.114,0.044-0.169c0.034-0.124,0.079-0.233,0.124-0.353c0.002-0.005-0.002-0.012,0-0.017
		c0.226-0.589,0.603-1.144,1.122-1.583c2.344-1.979,4.152,0.082,6.195-1.645c2.045-1.726,0.226-3.77,2.569-5.75
		C33.514,23.128,34.399,22.812,35.294,22.791z"/>
	<path opacity="0.3" fill="#669CCC" enable-background="new    " d="M35.297,22.793c-0.893,0.019-1.785,0.328-2.515,0.944
		c-2.343,1.98-0.522,4.038-2.566,5.764c-2.043,1.726-3.854-0.338-6.195,1.642v0.004c-0.522,0.44-0.897,0.985-1.123,1.574
		c0,0.002,0,0.008-0.002,0.012c-0.047,0.12-0.084,0.239-0.12,0.363c-0.014,0.055-0.03,0.11-0.042,0.165
		c-0.002,0.006-0.002,0.013-0.005,0.019c-0.025,0.116-0.042,0.232-0.059,0.351c0,0.001,0,0.001,0,0.004
		c0,0.005-0.002,0.012-0.002,0.018c-0.008,0.055-0.012,0.109-0.017,0.165c-0.002,0.042-0.008,0.083-0.009,0.124
		c0,0.021-0.002,0.043-0.002,0.065c0,0.008,0,0.014,0,0.021c-0.002,0.055-0.002,0.109,0,0.164c0,0.029,0.002,0.059,0.002,0.086
		c0.002,0.041,0.008,0.083,0.009,0.124c0.005,0.063,0.012,0.122,0.019,0.184c0,0,0,0.002,0,0.002
		c0.017,0.117,0.033,0.233,0.059,0.351c0.002,0.006,0.002,0.012,0.005,0.019c0.012,0.055,0.027,0.109,0.042,0.164
		c0.034,0.124,0.073,0.244,0.12,0.363c0.002,0.005,0.002,0.008,0.002,0.013c0.226,0.589,0.603,1.132,1.123,1.572v0.004
		c2.342,1.979,4.152-0.084,6.195,1.642c2.045,1.725,0.225,3.783,2.566,5.762c1.667,1.407,4.178,1.223,5.615-0.409
		c1.434-1.631,1.25-4.094-0.414-5.501c-2.342-1.98-4.152,0.088-6.197-1.639c-1.03-0.872-1.077-1.831-1.171-2.819
		c0.093-0.988,0.14-1.947,1.171-2.817c2.045-1.726,3.856,0.34,6.197-1.64c1.664-1.407,1.848-3.869,0.414-5.501
		C37.589,23.227,36.444,22.768,35.297,22.793C35.297,22.792,35.297,22.792,35.297,22.793z"/>
	<path opacity="0.3" fill="#669CCC" enable-background="new    " d="M35.294,22.791c-0.893,0.021-1.778,0.338-2.508,0.954
		c-2.343,1.98-0.525,4.022-2.569,5.75c-2.043,1.726-3.851-0.335-6.195,1.645c-0.519,0.44-0.894,0.994-1.122,1.583
		c-0.002,0.005,0.002,0.012,0,0.017c-0.044,0.12-0.088,0.229-0.124,0.353c-0.014,0.055-0.033,0.115-0.044,0.169
		c-0.002,0.008,0,0.011,0,0.017c-0.025,0.116-0.047,0.236-0.063,0.353c0,0.008,0.002,0.009,0,0.017
		c-0.005,0.054-0.009,0.115-0.014,0.169c-0.002,0.042-0.014,0.082-0.017,0.124c0,0.021,0,0.04,0,0.061c0,0.008,0,0.025,0,0.03
		c0,0.056,0,0.098,0,0.154c0,0.027,0,0.065,0,0.092c0.002,0.025,0.014,0.05,0.017,0.076c0.002-0.016-0.002-0.031,0-0.046
		c0.005-0.056,0.009-0.115,0.014-0.171c0.002-0.005,0-0.009,0-0.014c0.017-0.118,0.037-0.238,0.063-0.355
		c0-0.006-0.002-0.011,0-0.016c0.012-0.055,0.03-0.115,0.044-0.17c0.034-0.124,0.079-0.233,0.124-0.355
		c0.002-0.004-0.002-0.012,0-0.014c0.226-0.589,0.603-1.144,1.122-1.584c2.344-1.979,4.152,0.082,6.195-1.645
		c2.045-1.726,0.226-3.77,2.569-5.75c0.729-0.616,1.616-0.933,2.508-0.952c1.144-0.025,2.294,0.435,3.103,1.353
		c0.589,0.666,0.9,1.474,0.954,2.29c0.061-0.981-0.246-1.979-0.954-2.781C37.588,23.227,36.438,22.768,35.294,22.791z
		 M30.649,34.352c-0.008,0.082-0.024,0.162-0.03,0.246c0.093,0.987,0.135,1.94,1.169,2.813c2.043,1.726,3.851-0.335,6.195,1.645
		c0.831,0.704,1.292,1.664,1.367,2.659c0.061-1.16-0.402-2.333-1.367-3.151c-2.344-1.98-4.152,0.08-6.195-1.645
		C30.84,36.119,30.735,35.251,30.649,34.352z"/>
	<path opacity="0.3" fill="#669CCC" enable-background="new    " d="M35.294,22.791c-0.893,0.021-1.778,0.338-2.508,0.954
		c-2.343,1.98-0.525,4.022-2.569,5.75c-2.043,1.726-3.851-0.335-6.195,1.645c-0.519,0.44-0.894,0.994-1.122,1.583
		c-0.002,0.005,0.002,0.012,0,0.017c-0.044,0.12-0.088,0.229-0.124,0.353c-0.014,0.055-0.033,0.115-0.044,0.169
		c-0.002,0.008,0,0.011,0,0.017c-0.025,0.116-0.047,0.236-0.063,0.353c0,0.008,0.002,0.009,0,0.017
		c-0.005,0.054-0.009,0.115-0.014,0.169c-0.002,0.042-0.014,0.082-0.017,0.124c0,0.021,0,0.04,0,0.061c0,0.008,0,0.025,0,0.03
		c0,0.056,0,0.098,0,0.154c0,0.027,0,0.065,0,0.092c0.002,0.041,0.014,0.082,0.017,0.124c0.005,0.063,0.008,0.124,0.014,0.184
		c0.017,0.118,0.037,0.238,0.063,0.355c0.002,0.005-0.002,0.009,0,0.016c0.012,0.056,0.03,0.115,0.044,0.169
		c0.034,0.124,0.079,0.234,0.124,0.355c0.002,0.004-0.002,0.013,0,0.017c0.226,0.588,0.603,1.127,1.122,1.568v0.014
		c2.344,1.98,4.152-0.08,6.195,1.646c2.045,1.725,0.226,3.769,2.569,5.749c1.667,1.407,4.175,1.231,5.609-0.4
		c1.436-1.631,1.25-4.097-0.414-5.504c-2.344-1.98-4.152,0.08-6.195-1.645c-1.032-0.872-1.074-1.825-1.169-2.814
		c0.093-0.988,0.135-1.94,1.169-2.813c2.043-1.726,3.851,0.335,6.195-1.645c1.664-1.407,1.851-3.872,0.414-5.504
		C37.588,23.227,36.438,22.768,35.294,22.791z M35.307,23.314c1-0.021,1.989,0.371,2.689,1.168c1.248,1.419,1.096,3.54-0.353,4.765
		c-1.052,0.889-1.856,0.851-2.844,0.799c-0.988-0.051-2.194-0.133-3.351,0.846c-1.171,0.99-1.26,2.195-1.353,3.167
		c-0.002,0.03-0.002,0.063,0,0.092c0.093,0.97,0.182,2.176,1.353,3.166c1.157,0.978,2.363,0.897,3.351,0.846s1.792-0.09,2.844,0.799
		c1.449,1.225,1.6,3.347,0.353,4.764c-1.248,1.419-3.42,1.565-4.871,0.339c-1.054-0.889-1.122-1.652-1.215-2.615
		c-0.091-0.961-0.194-2.159-1.353-3.136c-1.157-0.978-2.363-0.896-3.351-0.845c-0.978,0.05-1.778,0.075-2.814-0.784
		c-0.009-0.006-0.019-0.011-0.03-0.017c0-0.004,0-0.011,0-0.016c-0.451-0.38-0.772-0.834-0.968-1.337c-0.002-0.005,0-0.012,0-0.016
		c-0.002-0.004,0-0.016,0-0.016c-0.047-0.124-0.084-0.221-0.108-0.309c-0.019-0.061-0.04-0.11-0.047-0.138
		c0-0.008,0.002-0.008,0-0.016c-0.021-0.101-0.034-0.208-0.047-0.307c-0.005-0.034-0.009-0.098-0.014-0.17
		c-0.008-0.088-0.014-0.101-0.017-0.092c0,0.002,0-0.014,0-0.017s0.002-0.027,0-0.075c0-0.05,0-0.075,0-0.124
		c0.002-0.044,0.002-0.066,0-0.03c0.002-0.04,0-0.047,0-0.047c0,0.005,0-0.017,0-0.016c0.002,0.011,0.009-0.006,0.017-0.092
		c0.002-0.054,0.009-0.114,0.014-0.154c0.002-0.008,0-0.008,0-0.016c0.012-0.1,0.025-0.206,0.047-0.307c0-0.005,0-0.011,0-0.016
		c0.005-0.023,0.025-0.069,0.047-0.139c0.024-0.088,0.061-0.184,0.108-0.307c0,0,0-0.013,0-0.016
		c0.196-0.512,0.519-0.988,0.968-1.369c1.054-0.889,1.856-0.851,2.844-0.799c0.988,0.051,2.194,0.133,3.351-0.846
		c1.16-0.977,1.262-2.174,1.353-3.136c0.093-0.961,0.162-1.723,1.215-2.613C33.76,23.606,34.531,23.331,35.307,23.314z"/>
	<path opacity="0.3" fill="#669CCC" enable-background="new    " d="M35.294,22.791c-0.893,0.021-1.778,0.338-2.508,0.954
		c-2.343,1.98-0.525,4.022-2.569,5.75c-2.043,1.726-3.851-0.335-6.195,1.645c-0.519,0.44-0.894,0.994-1.122,1.583
		c-0.002,0.005,0.002,0.012,0,0.017c-0.044,0.12-0.088,0.229-0.124,0.353c-0.014,0.055-0.033,0.115-0.044,0.169
		c-0.002,0.008,0,0.011,0,0.017c-0.025,0.116-0.047,0.236-0.063,0.353c0,0.008,0.002,0.009,0,0.017
		c-0.005,0.054-0.009,0.115-0.014,0.169c-0.002,0.042-0.014,0.082-0.017,0.124c0,0.021,0,0.04,0,0.061c0,0.008,0,0.025,0,0.03
		c0,0.056,0,0.098,0,0.154c0,0.027,0,0.065,0,0.092c0.002,0.041,0.014,0.082,0.017,0.124c0.005,0.063,0.008,0.124,0.014,0.184
		c0.017,0.118,0.037,0.238,0.063,0.355c0.002,0.005-0.002,0.009,0,0.016c0.012,0.056,0.03,0.115,0.044,0.169
		c0.034,0.124,0.079,0.234,0.124,0.355c0.002,0.004-0.002,0.013,0,0.017c0.226,0.588,0.603,1.127,1.122,1.568v0.014
		c2.344,1.98,4.152-0.08,6.195,1.646c2.045,1.725,0.226,3.769,2.569,5.749c1.667,1.407,4.175,1.231,5.609-0.4
		c1.436-1.631,1.25-4.097-0.414-5.504c-2.344-1.98-4.152,0.08-6.195-1.645c-1.032-0.872-1.074-1.825-1.169-2.814
		c0.093-0.988,0.135-1.94,1.169-2.813c2.043-1.726,3.851,0.335,6.195-1.645c1.664-1.407,1.851-3.872,0.414-5.504
		C37.588,23.227,36.438,22.768,35.294,22.791z M35.307,23.759c0.873-0.018,1.741,0.336,2.353,1.03
		c1.087,1.236,0.956,3.052-0.309,4.12c-0.952,0.803-1.558,0.727-2.538,0.676c-0.977-0.05-2.38-0.109-3.658,0.969
		c-1.29,1.09-1.414,2.504-1.507,3.46c-0.005,0.061-0.005,0.122,0,0.183c0.093,0.956,0.217,2.369,1.507,3.459
		c1.276,1.079,2.681,1.02,3.658,0.969c0.978-0.051,1.587-0.124,2.538,0.676c1.265,1.07,1.395,2.884,0.309,4.119
		c-1.089,1.236-2.977,1.377-4.244,0.307c-0.952-0.803-0.97-1.37-1.061-2.319c-0.091-0.952-0.232-2.352-1.507-3.428
		c-1.276-1.078-2.678-1.019-3.658-0.969c-0.968,0.05-1.577,0.113-2.508-0.662c-0.009-0.009-0.019-0.005-0.03-0.016
		c0-0.005,0-0.011,0-0.016c-0.393-0.332-0.675-0.732-0.846-1.169c0-0.004,0.002-0.012,0-0.016c0-0.002,0-0.017,0-0.017
		c-0.047-0.124-0.075-0.204-0.091-0.261c-0.024-0.08-0.03-0.124-0.03-0.124c-0.002-0.008,0-0.008,0-0.016
		c-0.021-0.09-0.034-0.178-0.047-0.262c-0.002-0.012-0.009-0.058-0.017-0.139c-0.009-0.153-0.019-0.182-0.014-0.091
		c0.002,0.044,0.002,0.021,0-0.063c-0.002-0.044-0.002-0.078,0-0.124c0.002-0.075,0.002-0.085,0-0.017
		c0.002-0.079,0.002-0.093,0-0.046c-0.005,0.092,0.005,0.063,0.014-0.092c0.005-0.047,0.014-0.095,0.017-0.124
		c0-0.004,0-0.013,0-0.016c0.012-0.084,0.025-0.171,0.047-0.262c0-0.005,0-0.011,0-0.016c-0.002,0.006,0.008-0.04,0.03-0.124
		c0.017-0.059,0.044-0.135,0.091-0.262c0,0,0-0.014,0-0.016V33.05c0.174-0.441,0.463-0.86,0.846-1.185
		c0.952-0.801,1.558-0.727,2.538-0.676c0.978,0.051,2.38,0.11,3.658-0.968c1.276-1.077,1.417-2.477,1.507-3.428
		c0.091-0.952,0.11-1.518,1.061-2.321C33.975,24.01,34.632,23.775,35.307,23.759z"/>
	<path opacity="0.3" fill="#FFFFFF" enable-background="new    " d="M39.349,26.973c-0.075,0.995-0.534,1.972-1.367,2.676
		c-2.344,1.979-4.152-0.082-6.195,1.645c-1.032,0.872-1.074,1.825-1.169,2.813c0.008,0.083,0.024,0.164,0.03,0.246
		c0.086-0.901,0.191-1.768,1.138-2.568c2.043-1.726,3.851,0.334,6.195-1.645C38.952,29.317,39.415,28.138,39.349,26.973z
		 M22.656,34.352c-0.002,0.026-0.014,0.05-0.017,0.075c0,0.021,0,0.042,0,0.063c0,0.008,0,0.024,0,0.03c0,0.055,0,0.098,0,0.153
		c0,0.029,0,0.065,0,0.092c0.002,0.041,0.014,0.082,0.017,0.124c0.005,0.063,0.008,0.124,0.014,0.184
		c0.017,0.118,0.037,0.237,0.063,0.355c0.002,0.006-0.002,0.009,0,0.016c0.012,0.056,0.03,0.115,0.044,0.17
		c0.034,0.124,0.079,0.233,0.124,0.353c0.002,0.005-0.002,0.012,0,0.017c0.226,0.589,0.603,1.127,1.122,1.567v0.016
		c2.344,1.979,4.152-0.08,6.195,1.645c2.045,1.726,0.226,3.769,2.569,5.75c1.667,1.407,4.175,1.231,5.609-0.4
		c0.708-0.804,1.017-1.817,0.954-2.798c-0.051,0.823-0.363,1.634-0.954,2.306c-1.434,1.631-3.944,1.806-5.609,0.4
		c-2.343-1.979-0.524-4.022-2.569-5.749c-2.043-1.726-3.851,0.334-6.195-1.646V37.06c-0.519-0.44-0.894-0.98-1.122-1.568
		c-0.002-0.004,0.002-0.013,0-0.017c-0.044-0.12-0.088-0.23-0.124-0.355c-0.014-0.054-0.033-0.113-0.044-0.169
		c-0.002-0.006,0.002-0.011,0-0.016c-0.025-0.116-0.047-0.236-0.063-0.355c-0.008-0.061-0.009-0.124-0.014-0.184
		C22.653,34.382,22.658,34.366,22.656,34.352z"/>
</g>
</svg>
