<?xml version="1.0" encoding="utf-8"?>
<!-- Generator: Adobe Illustrator 17.0.0, SVG Export Plug-In . SVG Version: 6.00 Build 0)  -->
<!DOCTYPE svg PUBLIC "-//W3C//DTD SVG 1.1//EN" "http://www.w3.org/Graphics/SVG/1.1/DTD/svg11.dtd">
<svg version="1.1" id="图层_1" xmlns="http://www.w3.org/2000/svg" xmlns:xlink="http://www.w3.org/1999/xlink" x="0px" y="0px"
	 width="48px" height="48px" viewBox="8 8 48 48" enable-background="new 8 8 48 48" xml:space="preserve">
<g id="g151" opacity="0.5">
	<path id="path153" opacity="0.08" enable-background="new    " d="M48.41,52.136H15.617c-3.019,0-5.48-2.367-5.48-5.266v4.028
		c0,2.265,1.925,4.102,4.283,4.102h35.185c2.358,0,4.256-1.836,4.256-4.102V46.87C53.861,49.77,51.428,52.136,48.41,52.136z"/>
	<path id="path155" opacity="0.1" enable-background="new    " d="M48.383,52.136H15.59c-3.018,0-5.451-2.323-5.451-5.222v2.107
		c0,2.265,1.039,5.025,5.25,5.025s28.929,0,33.195,0s5.279-2.76,5.279-5.025v-2.107C53.861,49.813,51.4,52.136,48.383,52.136z"/>
	<path id="path157" opacity="0.1" enable-background="new    " d="M48.383,52.136H15.59c-3.018,0-5.451-2.323-5.451-5.222v1.137
		c0,2.266,1.802,5.041,5.25,5.041s29.249,0,33.195,0c3.947,0,5.279-2.775,5.279-5.039v-1.137
		C53.861,49.813,51.4,52.136,48.383,52.136z"/>
	<rect id="rect159" x="15.107" y="52.136" opacity="0.05" enable-background="new    " width="33.786" height="0.955"/>
	<rect id="rect161" x="16.101" y="52.136" opacity="0.05" enable-background="new    " width="30.805" height="0.955"/>
	<rect id="rect163" x="16.101" y="53.091" opacity="0.05" enable-background="new    " width="30.805" height="0.955"/>
	<rect id="rect165" x="18.087" y="53.091" opacity="0.05" enable-background="new    " width="27.824" height="0.955"/>
	<rect id="rect167" x="21.069" y="53.091" opacity="0.05" enable-background="new    " width="21.862" height="0.955"/>
	<rect id="rect169" x="25.044" y="53.091" opacity="0.05" enable-background="new    " width="13.912" height="0.955"/>
	<rect id="rect171" x="18.087" y="52.136" opacity="0.05" enable-background="new    " width="27.824" height="0.955"/>
	<rect id="rect173" x="20.075" y="52.136" opacity="0.05" enable-background="new    " width="23.849" height="0.955"/>
	<rect id="rect175" x="21.069" y="52.136" opacity="0.05" enable-background="new    " width="21.862" height="0.955"/>
	<rect id="rect177" x="23.056" y="52.136" opacity="0.05" enable-background="new    " width="17.887" height="0.955"/>
	<rect id="rect179" x="23.056" y="52.136" opacity="0.05" enable-background="new    " width="17.887" height="0.955"/>
</g>
<path fill="#C4DCED" stroke="#9DBCD7" stroke-miterlimit="10" d="M53.466,46.281c0,3.121-2.531,5.652-5.652,5.652H16.185
	c-3.121,0-5.652-2.531-5.652-5.652V14.652c0-3.121,2.531-5.652,5.652-5.652h31.63c3.121,0,5.652,2.531,5.652,5.652L53.466,46.281
	L53.466,46.281z"/>
<path opacity="0.6" fill="none" stroke="#FFFFFF" stroke-miterlimit="10" d="M16.185,50.934c-2.565,0-4.652-2.087-4.652-4.652
	V14.652c0-2.565,2.087-4.652,4.652-4.652h31.629c2.565,0,4.652,2.087,4.652,4.652v31.629c0,2.565-2.087,4.652-4.652,4.652H16.185z"
	/>
<path opacity="0.08" fill="none" stroke="#000000" stroke-miterlimit="10" enable-background="new    " d="M53.627,21.193
	c0,0,0-1.899-1.876-1.899c-5.445,0-22.83,0.003-24.387,0.003c-1.891,0-1.876-1.872-1.876-1.872s0-1.885-1.876-1.885
	c-3.284,0-9.861,0-11.255,0c-1.847,0-1.876,1.816-1.876,1.873"/>
<path opacity="0.03" fill="none" stroke="#000000" stroke-miterlimit="10" enable-background="new    " d="M53.627,20.112
	c0,0,0-1.899-1.876-1.899c-5.445,0-22.83,0.003-24.387,0.003c-1.891,0-1.876-1.872-1.876-1.872s0-1.885-1.876-1.885
	c-3.284,0-9.861,0-11.255,0c-1.847,0-1.876,1.816-1.876,1.873"/>
<linearGradient id="SVGID_1_" gradientUnits="userSpaceOnUse" x1="1127.9993" y1="1377.9335" x2="1127.9993" y2="1342.5322" gradientTransform="matrix(1 0 0 1 -1096 -1326)">
	<stop  offset="0" style="stop-color:#D1E0ED"/>
	<stop  offset="1" style="stop-color:#E4EEFB"/>
</linearGradient>
<path fill="url(#SVGID_1_)" stroke="#9DBCD7" stroke-miterlimit="10" d="M16.172,51.933H47.92c3.121,0,5.546-2.595,5.546-5.717
	V20.871c0-0.445-0.665-0.864-1.55-0.864c-5.468,0-22.903,0.003-24.466,0.003c-1.899,0-1.87-1.733-1.87-1.733
	s0.013-1.745-1.871-1.745c-3.298,0-9.904,0-11.304,0c-1.855,0-1.872,1.538-1.872,1.596v28.089
	C10.533,49.338,13.051,51.933,16.172,51.933z"/>
<path opacity="0.8" fill="none" stroke="#FFFFFF" stroke-miterlimit="10" d="M16.172,50.934c-2.558,0-4.64-2.116-4.64-4.717V18.128
	c0.023-0.596,0.662-0.596,0.872-0.596h11.304c0.21,0,0.85,0,0.871,0.754c-0.002,0.091,0.003,1.14,0.779,1.928
	c0.357,0.363,1.01,0.796,2.092,0.796l24.466-0.003c0.263,0,0.446,0.055,0.551,0.102v25.107c0,2.601-2.04,4.717-4.547,4.717H16.172z"
	/>
<radialGradient id="SVGID_2_" cx="1506.46" cy="-1013.1687" r="34.4255" gradientTransform="matrix(0.0197 0.9998 -0.9109 0.018 -922.1061 -1463.46)" gradientUnits="userSpaceOnUse">
	<stop  offset="0" style="stop-color:#FFFFFF;stop-opacity:0.6"/>
	<stop  offset="0.3783" style="stop-color:#FAFCFE;stop-opacity:0.4487"/>
	<stop  offset="0.829" style="stop-color:#EBF3FC;stop-opacity:0.2684"/>
	<stop  offset="1" style="stop-color:#E4EEFB;stop-opacity:0.2"/>
</radialGradient>
<path fill="url(#SVGID_2_)" d="M16.172,51.181c-2.695,0-4.887-2.226-4.887-4.964V18.128c0-0.036,0.006-0.336,0.229-0.56
	c0.187-0.187,0.486-0.282,0.889-0.282h11.304c0.446,0,0.673,0.053,0.809,0.19c0.3,0.302,0.313,0.762,0.313,0.767
	c-0.001,0.099,0.004,1.081,0.732,1.82c0.464,0.471,1.1,0.709,1.89,0.709c0,0,20.898-0.008,24.461-0.008
	c0.471,0,0.731,0.162,0.798,0.239v25.214c0,2.738-2.15,4.964-4.793,4.964H16.172L16.172,51.181L16.172,51.181z"/>
<g id="g27_1_">
	
		<linearGradient id="path36_2_" gradientUnits="userSpaceOnUse" x1="1520.0824" y1="2152.541" x2="1526.0471" y2="2162.8721" gradientTransform="matrix(1 0 0 1 -1508 -2144)">
		<stop  offset="0" style="stop-color:#FFFFFF"/>
		<stop  offset="0.5" style="stop-color:#FFFFFF;stop-opacity:0.6"/>
		<stop  offset="1" style="stop-color:#FFFFFF;stop-opacity:0.15"/>
	</linearGradient>
	<path id="path36_1_" fill="url(#path36_2_)" d="M17,20.627c0.667-1.381,1.481-2.674,2.414-3.869l-1.699-3.725
		c-1.451,1.372-2.629,2.883-3.569,4.351L17,20.627z"/>
	
		<linearGradient id="path45_2_" gradientUnits="userSpaceOnUse" x1="1525.4906" y1="2150.9939" x2="1529.3943" y2="2157.7554" gradientTransform="matrix(1 0 0 1 -1508 -2144)">
		<stop  offset="0" style="stop-color:#FFFFFF"/>
		<stop  offset="0.5" style="stop-color:#FFFFFF;stop-opacity:0.6"/>
		<stop  offset="1" style="stop-color:#FFFFFF;stop-opacity:0.15"/>
	</linearGradient>
	<path id="path45_1_" fill="url(#path45_2_)" d="M17.178,9.452l0.888,1.946c0.854-0.709,1.791-0.954,2.812-1.946H17.178z"/>
	
		<linearGradient id="path54_2_" gradientUnits="userSpaceOnUse" x1="1526.7184" y1="2149.7102" x2="1531.4878" y2="2157.9709" gradientTransform="matrix(1 0 0 1 -1508 -2144)">
		<stop  offset="0" style="stop-color:#FFFFFF"/>
		<stop  offset="0.5" style="stop-color:#FFFFFF;stop-opacity:0.6"/>
		<stop  offset="1" style="stop-color:#FFFFFF;stop-opacity:0.15"/>
	</linearGradient>
	<path id="path54_1_" fill="url(#path54_2_)" d="M23.841,9.452h-0.703c-1.772,0.992-3.321,1.75-4.65,2.881l1.628,3.573
		c1.391-1.607,3.005-3.015,4.813-4.152c0.014-0.013,0.024-0.024,0.039-0.036C26.994,9.968,24.983,9.452,23.841,9.452z"/>
	
		<linearGradient id="path63_2_" gradientUnits="userSpaceOnUse" x1="1516.7354" y1="2157.2505" x2="1521.9113" y2="2166.2153" gradientTransform="matrix(1 0 0 1 -1508 -2144)">
		<stop  offset="0" style="stop-color:#FFFFFF"/>
		<stop  offset="0.5" style="stop-color:#FFFFFF;stop-opacity:0.6"/>
		<stop  offset="1" style="stop-color:#FFFFFF;stop-opacity:0.15"/>
	</linearGradient>
	<path id="path63_1_" fill="url(#path63_2_)" d="M13.606,18.269c-1.089,1.855-1.802,3.569-2.224,4.741
		c0.5,0.714,1.327,1.182,2.265,1.182c1.161,0,2.153-0.717,2.563-1.731c0.105-0.283,0.233-0.555,0.351-0.834L13.606,18.269z"/>
	
		<linearGradient id="path72_2_" gradientUnits="userSpaceOnUse" x1="1516.5024" y1="2157.6179" x2="1522.2385" y2="2167.5532" gradientTransform="matrix(1 0 0 1 -1508 -2144)">
		<stop  offset="0" style="stop-color:#FFFFFF"/>
		<stop  offset="0.5" style="stop-color:#FFFFFF;stop-opacity:0.6"/>
		<stop  offset="1" style="stop-color:#FFFFFF;stop-opacity:0.15"/>
	</linearGradient>
	<path id="path72_1_" fill="url(#path72_2_)" d="M10.901,15.192l-0.021,6.229c0,0,0,0.002,0,0.004c0,0.039,0.01,0.076,0.012,0.114
		c0.474-1.152,1.135-2.56,2.031-4.048L10.901,15.192z"/>
	
		<linearGradient id="path149_2_" gradientUnits="userSpaceOnUse" x1="1520.8402" y1="2154.5063" x2="1526.2263" y2="2163.8357" gradientTransform="matrix(1 0 0 1 -1508 -2144)">
		<stop  offset="0" style="stop-color:#FFFFFF"/>
		<stop  offset="0.5" style="stop-color:#FFFFFF;stop-opacity:0.6"/>
		<stop  offset="1" style="stop-color:#FFFFFF;stop-opacity:0.15"/>
	</linearGradient>
	<path id="path149_1_" fill="url(#path149_2_)" d="M15.994,9.464c-2.024-0.168-4.689,2.111-5.03,4.297l2.511,2.855
		c1.002-1.53,2.248-3.096,3.786-4.512L15.994,9.464z"/>
</g>
<g>
	<path opacity="0.3" fill="#FFFFFF" enable-background="new    " d="M30.549,22.441c-0.939,0-1.703,0.792-1.703,1.72v0.853
		c-0.317,0.113-0.616,0.245-0.913,0.389l-0.597-0.612c-0.005,0-0.01,0-0.015,0c-0.647-0.647-1.744-0.679-2.406-0.016l-2.063,2.064
		c-0.666,0.663-0.632,1.76,0.012,2.408c0,0.004,0,0.01,0,0.015l0.616,0.599c-0.144,0.297-0.277,0.597-0.391,0.911h-0.852
		c-0.926,0-1.72,0.765-1.72,1.703v2.9c0,0.944,0.795,1.706,1.72,1.706h0.852c0.115,0.314,0.248,0.614,0.391,0.913l-0.616,0.597
		c0,0.005,0,0.01,0,0.015c-0.644,0.646-0.678,1.743-0.012,2.406l2.063,2.065c0.354,0.354,0.814,0.495,1.225,0.493
		c0.434-0.005,0.869-0.196,1.183-0.51c0.005,0,0.01,0,0.015,0l0.597-0.614c0.297,0.144,0.597,0.277,0.913,0.389v0.852
		c0,0.93,0.765,1.72,1.704,1.72h2.9c0.941,0,1.706-0.79,1.706-1.72v-0.852c0.314-0.113,0.614-0.245,0.913-0.389l0.597,0.614
		c0.005,0,0.01,0,0.017,0c0.646,0.649,1.741,0.679,2.406,0.017l2.063-2.065c0.664-0.664,0.632-1.76-0.017-2.406
		c0-0.005,0-0.01,0-0.015l-0.611-0.597c0.141-0.3,0.277-0.599,0.389-0.913h0.852c0.926,0,1.718-0.762,1.718-1.706v-2.899
		c0-0.939-0.793-1.703-1.718-1.703h-0.852c-0.113-0.315-0.248-0.615-0.389-0.911l0.611-0.599c0-0.005,0-0.01,0-0.015
		c0.649-0.647,0.679-1.743,0.017-2.408l-2.063-2.064c-0.666-0.664-1.76-0.632-2.406,0.016c-0.007,0-0.012,0-0.017,0l-0.598,0.612
		c-0.3-0.145-0.599-0.277-0.913-0.389v-0.853c0-0.927-0.765-1.72-1.706-1.72C33.45,22.441,30.549,22.441,30.549,22.441z
		 M30.549,23.397h2.9c0.416,0,0.748,0.342,0.748,0.762v1.481c0.741,0.197,1.461,0.505,2.109,0.882l1.048-1.061
		c0.298-0.298,0.768-0.307,1.06-0.016l2.065,2.064c0.293,0.293,0.283,0.763-0.017,1.062L39.4,29.616
		c0.377,0.647,0.684,1.366,0.884,2.107h1.48c0.421,0,0.762,0.335,0.762,0.748v2.9c0,0.416-0.342,0.75-0.762,0.75h-1.48
		c-0.201,0.741-0.507,1.461-0.884,2.107l1.062,1.045c0.3,0.297,0.31,0.77,0.017,1.062L38.413,42.4
		c-0.293,0.293-0.762,0.283-1.06-0.015l-1.048-1.065c-0.649,0.377-1.369,0.686-2.109,0.882v1.48c0,0.423-0.333,0.765-0.748,0.765
		h-2.9c-0.413,0-0.748-0.342-0.748-0.765v-1.48c-0.74-0.196-1.459-0.505-2.107-0.882l-1.048,1.065
		c-0.148,0.148-0.33,0.22-0.522,0.222c-0.193,0.003-0.391-0.062-0.538-0.208l-2.065-2.065c-0.293-0.293-0.281-0.765,0.017-1.062
		l1.06-1.045c-0.376-0.646-0.681-1.366-0.882-2.107h-1.48c-0.421,0-0.76-0.335-0.76-0.75v-2.9c0-0.413,0.339-0.748,0.76-0.748h1.48
		c0.201-0.739,0.507-1.459,0.882-2.107l-1.06-1.046c-0.297-0.298-0.31-0.768-0.017-1.062l2.065-2.064
		c0.293-0.293,0.765-0.283,1.06,0.016l1.048,1.061c0.649-0.377,1.366-0.685,2.107-0.882V24.16
		C29.801,23.739,30.136,23.397,30.549,23.397z M32.001,30.739c-1.755,0-3.184,1.429-3.184,3.185c0,1.755,1.428,3.186,3.184,3.186
		c1.756,0,3.185-1.43,3.185-3.186C35.185,32.169,33.755,30.739,32.001,30.739z M32.001,31.697c1.236,0,2.226,0.989,2.226,2.228
		c0,1.236-0.991,2.228-2.226,2.228c-1.236,0-2.228-0.991-2.228-2.228C29.772,32.686,30.764,31.697,32.001,31.697z"/>
	<path opacity="0.3" fill="#FFFFFF" enable-background="new    " d="M30.549,22.92c-0.675,0-1.225,0.568-1.225,1.241v1.167
		c-0.531,0.167-1.043,0.372-1.528,0.627l-0.804-0.823c0-0.005,0-0.01,0-0.015c-0.475-0.474-1.272-0.493-1.751-0.015l-2.062,2.062
		c-0.478,0.478-0.458,1.277,0.015,1.749c0.005,0,0.01,0,0.015,0l0.824,0.807c-0.255,0.482-0.46,0.994-0.628,1.526h-1.169
		c-0.673,0-1.241,0.547-1.241,1.225v2.9c0,0.678,0.569,1.227,1.241,1.227h1.169c0.168,0.531,0.374,1.045,0.628,1.525l-0.824,0.81
		c-0.005,0-0.01,0-0.015,0c-0.472,0.472-0.493,1.27-0.015,1.748l2.062,2.062c0.25,0.25,0.58,0.349,0.882,0.344
		c0.314-0.003,0.637-0.127,0.869-0.359c0-0.005,0-0.012,0-0.017l0.804-0.819c0.483,0.253,0.996,0.458,1.528,0.626v1.166
		c0,0.675,0.55,1.243,1.225,1.243h2.9c0.679,0,1.227-0.569,1.227-1.243v-1.165c0.531-0.168,1.043-0.374,1.528-0.626l0.806,0.819
		c0,0.005,0,0.012,0,0.017c0.472,0.472,1.27,0.493,1.748,0.015l2.065-2.062c0.477-0.478,0.458-1.277-0.017-1.748
		c-0.005,0-0.01,0-0.015,0l-0.824-0.81c0.258-0.478,0.463-0.993,0.628-1.525h1.168c0.673,0,1.241-0.55,1.241-1.227v-2.9
		c0-0.678-0.569-1.225-1.241-1.225h-1.167c-0.165-0.531-0.372-1.044-0.628-1.526l0.824-0.807c0.005,0,0.01,0,0.015,0
		c0.474-0.472,0.493-1.271,0.017-1.749l-2.065-2.064c-0.478-0.478-1.277-0.458-1.748,0.015c0,0.005,0,0.01,0,0.015l-0.806,0.823
		c-0.483-0.255-0.996-0.46-1.528-0.627V24.16c0-0.673-0.547-1.241-1.227-1.241L30.549,22.92L30.549,22.92L30.549,22.92L30.549,22.92
		z M30.549,23.397h2.9c0.416,0,0.748,0.342,0.748,0.762v1.481c0.741,0.197,1.461,0.505,2.109,0.882l1.048-1.061
		c0.298-0.298,0.768-0.307,1.06-0.016l2.065,2.064c0.293,0.293,0.282,0.763-0.017,1.062L39.4,29.616
		c0.377,0.647,0.684,1.366,0.884,2.107h1.48c0.421,0,0.762,0.335,0.762,0.748v2.9c0,0.416-0.342,0.75-0.762,0.75h-1.48
		c-0.201,0.741-0.507,1.461-0.884,2.107l1.062,1.045c0.3,0.297,0.31,0.77,0.017,1.062L38.413,42.4
		c-0.293,0.293-0.762,0.283-1.06-0.015l-1.048-1.065c-0.649,0.377-1.369,0.686-2.109,0.882v1.48c0,0.423-0.333,0.765-0.748,0.765
		h-2.9c-0.413,0-0.748-0.342-0.748-0.765v-1.48c-0.741-0.196-1.459-0.505-2.107-0.882l-1.047,1.065
		c-0.148,0.148-0.33,0.22-0.522,0.222c-0.193,0.003-0.391-0.062-0.538-0.208l-2.065-2.065c-0.293-0.293-0.28-0.765,0.017-1.062
		l1.06-1.045c-0.376-0.646-0.681-1.366-0.882-2.107h-1.48c-0.421,0-0.76-0.335-0.76-0.75v-2.9c0-0.413,0.339-0.748,0.76-0.748h1.48
		c0.201-0.739,0.507-1.459,0.882-2.107l-1.06-1.046c-0.297-0.298-0.31-0.768-0.017-1.062l2.065-2.064
		c0.293-0.293,0.765-0.283,1.06,0.016l1.048,1.061c0.649-0.377,1.366-0.685,2.107-0.882V24.16
		C29.801,23.739,30.136,23.397,30.549,23.397z M32,30.739c-1.755,0-3.184,1.429-3.184,3.185c0,1.755,1.428,3.186,3.184,3.186
		s3.185-1.43,3.185-3.186C35.185,32.169,33.755,30.739,32,30.739z M32,31.217c1.498,0,2.707,1.208,2.707,2.707
		c0,1.496-1.208,2.707-2.707,2.707c-1.498,0-2.704-1.211-2.704-2.707C29.297,32.426,30.502,31.217,32,31.217z"/>
	<path opacity="0.3" fill="#669CCC" enable-background="new    " d="M30.547,44.451c-0.413,0-0.75-0.344-0.75-0.768v-1.484
		c-0.738-0.196-1.449-0.495-2.095-0.871l-1.058,1.058c-0.148,0.146-0.326,0.224-0.52,0.227c-0.191,0.003-0.386-0.066-0.535-0.215
		l-2.064-2.065c-0.293-0.29-0.283-0.757,0.017-1.055l1.055-1.055c-0.377-0.646-0.673-1.354-0.873-2.095h-1.485
		c-0.42,0-0.762-0.335-0.762-0.75v-2.907c0-0.416,0.342-0.748,0.762-0.748h1.485c0.201-0.742,0.495-1.45,0.873-2.097l-1.055-1.056
		c-0.3-0.298-0.31-0.762-0.017-1.055l2.065-2.066c0.295-0.293,0.761-0.281,1.055,0.016l1.058,1.056
		c0.646-0.377,1.357-0.675,2.095-0.872v-1.485c0-0.422,0.337-0.766,0.75-0.766h2.907c0.414,0,0.751,0.344,0.751,0.766v1.485
		c0.74,0.197,1.449,0.495,2.093,0.872l1.06-1.056c0.298-0.297,0.762-0.308,1.055-0.016l2.065,2.066
		c0.293,0.293,0.283,0.756-0.015,1.055l-1.057,1.056c0.377,0.647,0.675,1.356,0.873,2.097h1.485c0.421,0,0.765,0.333,0.765,0.748
		v2.907c0,0.416-0.344,0.75-0.765,0.75h-1.485c-0.198,0.741-0.495,1.449-0.873,2.095l1.057,1.055
		c0.298,0.297,0.307,0.765,0.015,1.055l-2.065,2.065c-0.293,0.297-0.757,0.285-1.055-0.012l-1.06-1.058
		c-0.644,0.376-1.352,0.675-2.093,0.871v1.485c0,0.423-0.337,0.768-0.751,0.768h-2.907V44.451L30.547,44.451z M32.001,37.107
		c1.756,0,3.182-1.428,3.182-3.184s-1.428-3.184-3.182-3.184c-1.755,0-3.182,1.428-3.182,3.184
		C28.819,35.68,30.245,37.107,32.001,37.107z"/>
	<path opacity="0.3" fill="#669CCC" enable-background="new    " d="M30.549,23.397c-0.413,0-0.748,0.342-0.748,0.762v1.481
		c-0.741,0.197-1.459,0.505-2.107,0.882l-1.048-1.061c-0.295-0.298-0.768-0.307-1.06-0.016l-2.065,2.064
		c-0.293,0.293-0.281,0.763,0.017,1.062l1.06,1.046c-0.376,0.647-0.681,1.366-0.882,2.107h-1.48c-0.421,0-0.76,0.335-0.76,0.748v2.9
		c0,0.416,0.339,0.75,0.76,0.75h1.48c0.201,0.741,0.507,1.461,0.882,2.107l-1.06,1.045c-0.297,0.297-0.31,0.77-0.017,1.062
		l2.065,2.065c0.146,0.146,0.345,0.21,0.538,0.208c0.191-0.003,0.374-0.073,0.522-0.222l1.048-1.065
		c0.649,0.377,1.366,0.686,2.107,0.882v1.48c0,0.423,0.335,0.765,0.748,0.765h2.9c0.416,0,0.748-0.342,0.748-0.765v-1.48
		c0.741-0.196,1.461-0.505,2.11-0.882l1.048,1.065c0.297,0.297,0.768,0.307,1.06,0.015l2.065-2.065
		c0.293-0.293,0.283-0.765-0.017-1.062L39.4,38.229c0.377-0.646,0.684-1.366,0.884-2.107h1.48c0.421,0,0.762-0.335,0.762-0.75v-2.9
		c0-0.413-0.342-0.748-0.762-0.748h-1.48c-0.201-0.739-0.507-1.459-0.884-2.107l1.062-1.046c0.3-0.298,0.31-0.768,0.017-1.062
		l-2.065-2.064c-0.293-0.293-0.762-0.283-1.06,0.016l-1.048,1.061c-0.649-0.377-1.369-0.685-2.11-0.882V24.16
		c0-0.422-0.333-0.762-0.748-0.762C33.449,23.397,30.549,23.397,30.549,23.397z M30.76,24.355h2.482v1.285
		c0,0.436,0.295,0.818,0.715,0.927c0.654,0.174,1.293,0.443,1.872,0.778c0.377,0.222,0.859,0.162,1.166-0.151l0.913-0.911
		l1.735,1.735l-0.911,0.911c-0.312,0.31-0.374,0.79-0.151,1.167c0.335,0.578,0.604,1.219,0.78,1.869
		c0.108,0.423,0.49,0.718,0.928,0.718h1.283v2.483h-1.283c-0.436,0-0.819,0.295-0.928,0.718c-0.175,0.649-0.444,1.293-0.78,1.869
		c-0.222,0.376-0.161,0.857,0.151,1.166l0.911,0.913l-1.735,1.733l-0.913-0.911c-0.307-0.312-0.788-0.371-1.166-0.148
		c-0.578,0.335-1.218,0.604-1.872,0.777c-0.421,0.108-0.715,0.49-0.715,0.928v1.285H30.76v-1.285c0-0.436-0.295-0.819-0.717-0.928
		c-0.652-0.173-1.29-0.441-1.869-0.777c-0.377-0.222-0.857-0.163-1.166,0.148l-0.913,0.911l-1.735-1.733l0.913-0.913
		c0.31-0.31,0.371-0.79,0.148-1.166c-0.335-0.576-0.604-1.22-0.777-1.869c-0.111-0.423-0.493-0.718-0.931-0.718H22.43v-2.484h1.283
		c0.436,0,0.819-0.295,0.931-0.718c0.173-0.65,0.44-1.29,0.777-1.869c0.222-0.377,0.161-0.858-0.148-1.167l-0.913-0.911l1.735-1.735
		l0.913,0.911c0.31,0.312,0.788,0.372,1.166,0.151c0.579-0.336,1.218-0.604,1.869-0.778c0.423-0.109,0.717-0.49,0.717-0.927
		C30.76,25.64,30.76,24.355,30.76,24.355z M32.001,29.783c-2.275,0-4.141,1.867-4.141,4.141c0,2.278,1.867,4.144,4.141,4.144
		c2.273,0,4.141-1.867,4.141-4.144C36.141,31.649,34.275,29.783,32.001,29.783z M32.001,30.739c1.756,0,3.185,1.429,3.185,3.185
		c0,1.755-1.43,3.186-3.185,3.186c-1.755,0-3.184-1.43-3.184-3.186C28.816,32.169,30.245,30.739,32.001,30.739z"/>
	<path opacity="0.3" fill="#669CCC" enable-background="new    " d="M30.549,23.397c-0.413,0-0.748,0.342-0.748,0.762v1.481
		c-0.741,0.197-1.459,0.505-2.107,0.882l-1.048-1.061c-0.295-0.298-0.768-0.307-1.06-0.016l-2.065,2.064
		c-0.293,0.293-0.281,0.763,0.017,1.062l1.06,1.046c-0.376,0.647-0.681,1.366-0.882,2.107h-1.48c-0.421,0-0.76,0.335-0.76,0.748v2.9
		c0,0.416,0.339,0.75,0.76,0.75h1.48c0.201,0.741,0.507,1.461,0.882,2.107l-1.06,1.045c-0.297,0.297-0.31,0.77-0.017,1.062
		l2.065,2.065c0.146,0.146,0.345,0.21,0.538,0.208c0.191-0.003,0.374-0.073,0.522-0.222l1.048-1.065
		c0.649,0.377,1.366,0.686,2.107,0.882v1.48c0,0.423,0.335,0.765,0.748,0.765h2.9c0.416,0,0.748-0.342,0.748-0.765v-1.48
		c0.741-0.196,1.461-0.505,2.11-0.882l1.048,1.065c0.297,0.297,0.768,0.307,1.06,0.015l2.065-2.065
		c0.293-0.293,0.283-0.765-0.017-1.062L39.4,38.229c0.377-0.646,0.684-1.366,0.884-2.107h1.48c0.421,0,0.762-0.335,0.762-0.75v-2.9
		c0-0.413-0.342-0.748-0.762-0.748h-1.48c-0.201-0.739-0.507-1.459-0.884-2.107l1.062-1.046c0.3-0.298,0.31-0.768,0.017-1.062
		l-2.065-2.064c-0.293-0.293-0.762-0.283-1.06,0.016l-1.048,1.061c-0.649-0.377-1.369-0.685-2.11-0.882V24.16
		c0-0.422-0.333-0.762-0.748-0.762C33.449,23.397,30.549,23.397,30.549,23.397z M30.549,23.877h2.9c0.153,0,0.272,0.115,0.272,0.283
		v1.481c0,0.217,0.146,0.409,0.359,0.463c0.694,0.186,1.376,0.481,1.988,0.837c0.189,0.108,0.431,0.072,0.583-0.089l1.045-1.046
		c0.123-0.125,0.267-0.123,0.374-0.016l2.065,2.064c0.106,0.108,0.106,0.25-0.015,0.375l-1.048,1.046
		c-0.16,0.151-0.198,0.391-0.089,0.583c0.356,0.612,0.652,1.292,0.837,1.988c0.054,0.212,0.245,0.359,0.465,0.359h1.48
		c0.168,0,0.285,0.118,0.285,0.269v2.9c0,0.153-0.118,0.272-0.285,0.272h-1.48c-0.22,0-0.411,0.146-0.465,0.356
		c-0.186,0.696-0.481,1.378-0.837,1.991c-0.108,0.191-0.071,0.431,0.089,0.58l1.048,1.048c0.121,0.126,0.121,0.265,0.015,0.374
		l-2.065,2.065c-0.106,0.108-0.25,0.108-0.374-0.015l-1.045-1.048c-0.151-0.161-0.394-0.198-0.583-0.089
		c-0.614,0.356-1.295,0.652-1.988,0.837c-0.213,0.054-0.359,0.245-0.359,0.463v1.48c0,0.17-0.118,0.285-0.272,0.285h-2.9
		c-0.151,0-0.269-0.116-0.269-0.285v-1.48c0-0.217-0.146-0.409-0.359-0.463c-0.695-0.186-1.376-0.481-1.988-0.837
		c-0.191-0.109-0.431-0.072-0.583,0.089l-1.045,1.048c-0.066,0.066-0.106,0.087-0.179,0.087c-0.085,0.003-0.153-0.03-0.193-0.073
		l-2.065-2.065c-0.109-0.108-0.109-0.248,0.017-0.374l1.045-1.048c0.163-0.148,0.198-0.389,0.089-0.58
		c-0.356-0.614-0.654-1.295-0.837-1.991c-0.055-0.21-0.245-0.356-0.465-0.356h-1.48c-0.168,0-0.28-0.118-0.28-0.272v-2.9
		c0-0.151,0.113-0.269,0.28-0.269h1.48c0.22,0,0.411-0.146,0.465-0.359c0.184-0.696,0.481-1.375,0.837-1.988
		c0.108-0.192,0.073-0.432-0.089-0.583l-1.045-1.046c-0.126-0.125-0.126-0.266-0.017-0.375l2.065-2.064
		c0.106-0.108,0.248-0.108,0.373,0.016l1.045,1.046c0.151,0.161,0.391,0.197,0.583,0.089c0.614-0.356,1.293-0.652,1.989-0.837
		c0.212-0.054,0.359-0.245,0.359-0.463v-1.481C30.28,23.993,30.399,23.877,30.549,23.877z M32.001,30.261
		c-2.015,0-3.662,1.648-3.662,3.663s1.647,3.662,3.662,3.662c2.014,0,3.662-1.646,3.662-3.662
		C35.662,31.908,34.016,30.261,32.001,30.261z M32.001,30.739c1.756,0,3.185,1.429,3.185,3.185c0,1.755-1.43,3.186-3.185,3.186
		c-1.755,0-3.184-1.43-3.184-3.186C28.816,32.169,30.245,30.739,32.001,30.739z"/>
	<path opacity="0.3" fill="#669CCC" enable-background="new    " d="M30.549,23.397c-0.413,0-0.748,0.342-0.748,0.762v0.478
		c0-0.422,0.335-0.762,0.748-0.762h2.9c0.416,0,0.748,0.341,0.748,0.762v-0.478c0-0.422-0.333-0.762-0.748-0.762H30.549z
		 M26.11,25.237c-0.191-0.004-0.377,0.063-0.524,0.209l-2.065,2.064c-0.198,0.201-0.241,0.48-0.165,0.732
		c0.035-0.089,0.091-0.18,0.165-0.253l2.065-2.064c0.293-0.293,0.764-0.283,1.06,0.016l1.048,1.062
		c0.649-0.377,1.366-0.686,2.107-0.883v-0.478c-0.741,0.197-1.459,0.505-2.107,0.882l-1.048-1.061
		C26.498,25.312,26.299,25.241,26.11,25.237z M37.893,25.237c-0.191,0.004-0.389,0.075-0.538,0.224l-1.048,1.061
		c-0.649-0.377-1.369-0.685-2.11-0.882v0.478c0.741,0.197,1.461,0.505,2.11,0.883l1.048-1.062c0.297-0.298,0.767-0.31,1.06-0.016
		l2.065,2.064c0.074,0.073,0.129,0.164,0.163,0.253c0.08-0.251,0.034-0.532-0.163-0.732l-2.065-2.064
		C38.267,25.3,38.081,25.234,37.893,25.237z M24.436,29.932c-0.297,0.563-0.55,1.167-0.72,1.793h-1.48
		c-0.42,0-0.76,0.335-0.76,0.748v0.478c0-0.413,0.34-0.748,0.76-0.748h1.48c0.201-0.741,0.507-1.459,0.882-2.107L24.436,29.932z
		 M39.565,29.932L39.4,30.096c0.377,0.647,0.684,1.366,0.884,2.107h1.48c0.421,0,0.762,0.335,0.762,0.748v-0.478
		c0-0.413-0.342-0.748-0.762-0.748h-1.48C40.116,31.099,39.863,30.495,39.565,29.932z M28.829,34.165
		c-0.003,0.077-0.012,0.158-0.012,0.236c0,1.758,1.428,3.186,3.184,3.186c1.756,0,3.185-1.428,3.185-3.186
		c0-0.077-0.01-0.158-0.017-0.236c-0.121,1.644-1.491,2.945-3.169,2.945C30.323,37.11,28.952,35.81,28.829,34.165z M24.436,38.396
		l-0.896,0.881c-0.22,0.222-0.278,0.527-0.181,0.795c0.037-0.116,0.089-0.224,0.181-0.317l1.06-1.045
		C24.541,38.608,24.489,38.5,24.436,38.396z M39.565,38.396c-0.054,0.104-0.106,0.212-0.165,0.314l1.062,1.045
		c0.092,0.092,0.144,0.201,0.179,0.317c0.101-0.269,0.039-0.574-0.179-0.795L39.565,38.396z"/>
	<path opacity="0.3" fill="#FFFFFF" enable-background="new    " d="M23.357,28.257c-0.096,0.265-0.039,0.573,0.182,0.792
		l0.896,0.882c0.055-0.103,0.106-0.214,0.163-0.314l-1.06-1.046C23.446,28.48,23.394,28.368,23.357,28.257z M40.642,28.257
		c-0.035,0.111-0.087,0.222-0.179,0.314l-1.062,1.046c0.059,0.1,0.111,0.211,0.166,0.314l0.896-0.882
		C40.681,28.83,40.743,28.523,40.642,28.257z M32.001,30.739c-1.755,0-3.184,1.429-3.184,3.185c0,0.08,0.01,0.161,0.012,0.241
		c0.123-1.646,1.493-2.947,3.172-2.947c1.677,0,3.048,1.3,3.169,2.947c0.007-0.08,0.017-0.161,0.017-0.241
		C35.185,32.169,33.755,30.739,32.001,30.739z M21.475,35.373v0.478c0,0.416,0.34,0.748,0.76,0.748h1.48
		c0.17,0.626,0.423,1.232,0.72,1.796l0.163-0.165c-0.376-0.646-0.681-1.366-0.882-2.107h-1.48
		C21.816,36.124,21.475,35.788,21.475,35.373z M42.527,35.373c0,0.416-0.342,0.75-0.762,0.75h-1.48
		c-0.201,0.741-0.507,1.461-0.884,2.107l0.166,0.165c0.297-0.564,0.55-1.171,0.72-1.796h1.48c0.421,0,0.762-0.333,0.762-0.748v-0.48
		L42.527,35.373L42.527,35.373z M23.357,40.084c-0.075,0.255-0.032,0.535,0.166,0.734l2.065,2.062
		c0.146,0.148,0.344,0.212,0.538,0.21c0.191-0.003,0.374-0.073,0.522-0.224l1.048-1.062c0.649,0.376,1.366,0.686,2.107,0.882v-0.478
		c-0.741-0.196-1.459-0.505-2.107-0.882l-1.048,1.065c-0.148,0.148-0.33,0.22-0.522,0.222c-0.193,0.003-0.391-0.062-0.538-0.208
		l-2.065-2.065C23.448,40.264,23.392,40.173,23.357,40.084z M34.197,42.206v0.478c0.741-0.196,1.461-0.507,2.11-0.882l1.048,1.062
		c0.297,0.3,0.768,0.307,1.06,0.015l2.065-2.062c0.198-0.198,0.243-0.478,0.163-0.734c-0.032,0.089-0.089,0.182-0.163,0.255
		l-2.065,2.065c-0.293,0.293-0.762,0.283-1.06-0.015l-1.048-1.065C35.657,41.701,34.938,42.011,34.197,42.206 M29.801,43.686v0.478
		c0,0.423,0.335,0.765,0.748,0.765h2.9c0.416,0,0.748-0.342,0.748-0.765v-0.478c0,0.423-0.333,0.765-0.748,0.765h-2.9
		C30.136,44.451,29.801,44.11,29.801,43.686z"/>
</g>
</svg>
