<?xml version="1.0" encoding="utf-8"?>
<!-- Generator: Adobe Illustrator 17.0.0, SVG Export Plug-In . SVG Version: 6.00 Build 0)  -->
<!DOCTYPE svg PUBLIC "-//W3C//DTD SVG 1.1//EN" "http://www.w3.org/Graphics/SVG/1.1/DTD/svg11.dtd">
<svg version="1.1" id="图层_1" xmlns="http://www.w3.org/2000/svg" xmlns:xlink="http://www.w3.org/1999/xlink" x="0px" y="0px"
	 width="48px" height="48px" viewBox="8 8 48 48" enable-background="new 8 8 48 48" xml:space="preserve">
<g id="g151" opacity="0.5">
	<path id="path153" opacity="0.08" enable-background="new    " d="M48.41,52.136H15.617c-3.019,0-5.48-2.367-5.48-5.266v4.028
		c0,2.265,1.925,4.102,4.283,4.102h35.185c2.358,0,4.256-1.836,4.256-4.102V46.87C53.861,49.77,51.428,52.136,48.41,52.136z"/>
	<path id="path155" opacity="0.1" enable-background="new    " d="M48.383,52.136H15.59c-3.018,0-5.451-2.323-5.451-5.222v2.107
		c0,2.265,1.039,5.025,5.25,5.025s28.929,0,33.195,0s5.279-2.76,5.279-5.025v-2.107C53.861,49.813,51.4,52.136,48.383,52.136z"/>
	<path id="path157" opacity="0.1" enable-background="new    " d="M48.383,52.136H15.59c-3.018,0-5.451-2.323-5.451-5.222v1.137
		c0,2.266,1.802,5.041,5.25,5.041s29.249,0,33.195,0c3.947,0,5.279-2.775,5.279-5.039v-1.137
		C53.861,49.813,51.4,52.136,48.383,52.136z"/>
	<rect id="rect159" x="15.107" y="52.136" opacity="0.05" enable-background="new    " width="33.786" height="0.955"/>
	<rect id="rect161" x="16.101" y="52.136" opacity="0.05" enable-background="new    " width="30.805" height="0.955"/>
	<rect id="rect163" x="16.101" y="53.091" opacity="0.05" enable-background="new    " width="30.805" height="0.955"/>
	<rect id="rect165" x="18.087" y="53.091" opacity="0.05" enable-background="new    " width="27.824" height="0.955"/>
	<rect id="rect167" x="21.069" y="53.091" opacity="0.05" enable-background="new    " width="21.862" height="0.955"/>
	<rect id="rect169" x="25.044" y="53.091" opacity="0.05" enable-background="new    " width="13.912" height="0.955"/>
	<rect id="rect171" x="18.087" y="52.136" opacity="0.05" enable-background="new    " width="27.824" height="0.955"/>
	<rect id="rect173" x="20.075" y="52.136" opacity="0.05" enable-background="new    " width="23.849" height="0.955"/>
	<rect id="rect175" x="21.069" y="52.136" opacity="0.05" enable-background="new    " width="21.862" height="0.955"/>
	<rect id="rect177" x="23.056" y="52.136" opacity="0.05" enable-background="new    " width="17.887" height="0.955"/>
	<rect id="rect179" x="23.056" y="52.136" opacity="0.05" enable-background="new    " width="17.887" height="0.955"/>
</g>
<path fill="#C4DCED" stroke="#9DBCD7" stroke-miterlimit="10" d="M53.466,46.281c0,3.121-2.531,5.652-5.652,5.652H16.185
	c-3.121,0-5.652-2.531-5.652-5.652V14.652c0-3.121,2.531-5.652,5.652-5.652h31.63c3.121,0,5.652,2.531,5.652,5.652L53.466,46.281
	L53.466,46.281z"/>
<path opacity="0.6" fill="none" stroke="#FFFFFF" stroke-miterlimit="10" d="M16.185,50.934c-2.565,0-4.652-2.087-4.652-4.652
	V14.652c0-2.565,2.087-4.652,4.652-4.652h31.629c2.565,0,4.652,2.087,4.652,4.652v31.629c0,2.565-2.087,4.652-4.652,4.652H16.185z"
	/>
<path opacity="0.08" fill="none" stroke="#000000" stroke-miterlimit="10" enable-background="new    " d="M53.627,21.193
	c0,0,0-1.899-1.876-1.899c-5.445,0-22.83,0.003-24.387,0.003c-1.891,0-1.876-1.872-1.876-1.872s0-1.885-1.876-1.885
	c-3.284,0-9.861,0-11.255,0c-1.847,0-1.876,1.816-1.876,1.873"/>
<path opacity="0.03" fill="none" stroke="#000000" stroke-miterlimit="10" enable-background="new    " d="M53.627,20.112
	c0,0,0-1.899-1.876-1.899c-5.445,0-22.83,0.003-24.387,0.003c-1.891,0-1.876-1.872-1.876-1.872s0-1.885-1.876-1.885
	c-3.284,0-9.861,0-11.255,0c-1.847,0-1.876,1.816-1.876,1.873"/>
<linearGradient id="SVGID_1_" gradientUnits="userSpaceOnUse" x1="1127.9993" y1="1377.9335" x2="1127.9993" y2="1342.5322" gradientTransform="matrix(1 0 0 1 -1096 -1326)">
	<stop  offset="0" style="stop-color:#D1E0ED"/>
	<stop  offset="1" style="stop-color:#E4EEFB"/>
</linearGradient>
<path fill="url(#SVGID_1_)" stroke="#9DBCD7" stroke-miterlimit="10" d="M16.172,51.933H47.92c3.121,0,5.546-2.595,5.546-5.717
	V20.871c0-0.445-0.665-0.864-1.55-0.864c-5.468,0-22.903,0.003-24.466,0.003c-1.899,0-1.87-1.733-1.87-1.733
	s0.013-1.745-1.871-1.745c-3.298,0-9.904,0-11.304,0c-1.855,0-1.872,1.538-1.872,1.596v28.089
	C10.533,49.338,13.051,51.933,16.172,51.933z"/>
<path opacity="0.8" fill="none" stroke="#FFFFFF" stroke-miterlimit="10" d="M16.172,50.934c-2.558,0-4.64-2.116-4.64-4.717V18.128
	c0.023-0.596,0.662-0.596,0.872-0.596h11.304c0.21,0,0.85,0,0.871,0.754c-0.002,0.091,0.003,1.14,0.779,1.928
	c0.357,0.363,1.01,0.796,2.092,0.796l24.466-0.003c0.263,0,0.446,0.055,0.551,0.102v25.107c0,2.601-2.04,4.717-4.547,4.717H16.172z"
	/>
<radialGradient id="SVGID_2_" cx="1506.46" cy="-1013.1687" r="34.4255" gradientTransform="matrix(0.0197 0.9998 -0.9109 0.018 -922.1061 -1463.46)" gradientUnits="userSpaceOnUse">
	<stop  offset="0" style="stop-color:#FFFFFF;stop-opacity:0.6"/>
	<stop  offset="0.3783" style="stop-color:#FAFCFE;stop-opacity:0.4487"/>
	<stop  offset="0.829" style="stop-color:#EBF3FC;stop-opacity:0.2684"/>
	<stop  offset="1" style="stop-color:#E4EEFB;stop-opacity:0.2"/>
</radialGradient>
<path fill="url(#SVGID_2_)" d="M16.172,51.181c-2.695,0-4.887-2.226-4.887-4.964V18.128c0-0.036,0.006-0.336,0.229-0.56
	c0.187-0.187,0.486-0.282,0.889-0.282h11.304c0.446,0,0.673,0.053,0.809,0.19c0.3,0.302,0.313,0.762,0.313,0.767
	c-0.001,0.099,0.004,1.081,0.732,1.82c0.464,0.471,1.1,0.709,1.89,0.709c0,0,20.898-0.008,24.461-0.008
	c0.471,0,0.731,0.162,0.798,0.239v25.214c0,2.738-2.15,4.964-4.793,4.964H16.172L16.172,51.181L16.172,51.181z"/>
<g id="g27_1_">
	
		<linearGradient id="path36_2_" gradientUnits="userSpaceOnUse" x1="1520.0824" y1="2152.541" x2="1526.0471" y2="2162.8721" gradientTransform="matrix(1 0 0 1 -1508 -2144)">
		<stop  offset="0" style="stop-color:#FFFFFF"/>
		<stop  offset="0.5" style="stop-color:#FFFFFF;stop-opacity:0.6"/>
		<stop  offset="1" style="stop-color:#FFFFFF;stop-opacity:0.15"/>
	</linearGradient>
	<path id="path36_1_" fill="url(#path36_2_)" d="M17,20.627c0.667-1.381,1.481-2.674,2.414-3.869l-1.699-3.725
		c-1.451,1.372-2.629,2.883-3.569,4.351L17,20.627z"/>
	
		<linearGradient id="path45_2_" gradientUnits="userSpaceOnUse" x1="1525.4906" y1="2150.9939" x2="1529.3943" y2="2157.7554" gradientTransform="matrix(1 0 0 1 -1508 -2144)">
		<stop  offset="0" style="stop-color:#FFFFFF"/>
		<stop  offset="0.5" style="stop-color:#FFFFFF;stop-opacity:0.6"/>
		<stop  offset="1" style="stop-color:#FFFFFF;stop-opacity:0.15"/>
	</linearGradient>
	<path id="path45_1_" fill="url(#path45_2_)" d="M17.178,9.452l0.888,1.946c0.854-0.709,1.791-0.954,2.812-1.946H17.178z"/>
	
		<linearGradient id="path54_2_" gradientUnits="userSpaceOnUse" x1="1526.7184" y1="2149.7102" x2="1531.4878" y2="2157.9709" gradientTransform="matrix(1 0 0 1 -1508 -2144)">
		<stop  offset="0" style="stop-color:#FFFFFF"/>
		<stop  offset="0.5" style="stop-color:#FFFFFF;stop-opacity:0.6"/>
		<stop  offset="1" style="stop-color:#FFFFFF;stop-opacity:0.15"/>
	</linearGradient>
	<path id="path54_1_" fill="url(#path54_2_)" d="M23.841,9.452h-0.703c-1.772,0.992-3.321,1.75-4.65,2.881l1.628,3.573
		c1.391-1.607,3.005-3.015,4.813-4.152c0.014-0.013,0.024-0.024,0.039-0.036C26.994,9.968,24.983,9.452,23.841,9.452z"/>
	
		<linearGradient id="path63_2_" gradientUnits="userSpaceOnUse" x1="1516.7354" y1="2157.2505" x2="1521.9113" y2="2166.2153" gradientTransform="matrix(1 0 0 1 -1508 -2144)">
		<stop  offset="0" style="stop-color:#FFFFFF"/>
		<stop  offset="0.5" style="stop-color:#FFFFFF;stop-opacity:0.6"/>
		<stop  offset="1" style="stop-color:#FFFFFF;stop-opacity:0.15"/>
	</linearGradient>
	<path id="path63_1_" fill="url(#path63_2_)" d="M13.606,18.269c-1.089,1.855-1.802,3.569-2.224,4.741
		c0.5,0.714,1.327,1.182,2.265,1.182c1.161,0,2.153-0.717,2.563-1.731c0.105-0.283,0.233-0.555,0.351-0.834L13.606,18.269z"/>
	
		<linearGradient id="path72_2_" gradientUnits="userSpaceOnUse" x1="1516.5024" y1="2157.6179" x2="1522.2385" y2="2167.5532" gradientTransform="matrix(1 0 0 1 -1508 -2144)">
		<stop  offset="0" style="stop-color:#FFFFFF"/>
		<stop  offset="0.5" style="stop-color:#FFFFFF;stop-opacity:0.6"/>
		<stop  offset="1" style="stop-color:#FFFFFF;stop-opacity:0.15"/>
	</linearGradient>
	<path id="path72_1_" fill="url(#path72_2_)" d="M10.901,15.192l-0.021,6.229c0,0,0,0.002,0,0.004c0,0.039,0.01,0.076,0.012,0.114
		c0.474-1.152,1.135-2.56,2.031-4.048L10.901,15.192z"/>
	
		<linearGradient id="path149_2_" gradientUnits="userSpaceOnUse" x1="1520.8402" y1="2154.5063" x2="1526.2263" y2="2163.8357" gradientTransform="matrix(1 0 0 1 -1508 -2144)">
		<stop  offset="0" style="stop-color:#FFFFFF"/>
		<stop  offset="0.5" style="stop-color:#FFFFFF;stop-opacity:0.6"/>
		<stop  offset="1" style="stop-color:#FFFFFF;stop-opacity:0.15"/>
	</linearGradient>
	<path id="path149_1_" fill="url(#path149_2_)" d="M15.994,9.464c-2.024-0.168-4.689,2.111-5.03,4.297l2.511,2.855
		c1.002-1.53,2.248-3.096,3.786-4.512L15.994,9.464z"/>
</g>
<g>
	<g opacity="0.3">
		<g opacity="0.5">
			<path fill="#FFFFFF" d="M24.799,25.418c2.695-0.893,5.786-0.337,8.001,1.441c-0.426,2.369-0.853,4.737-1.28,7.106
				c-2.214-1.778-5.306-2.335-8.001-1.441C23.945,30.155,24.372,27.786,24.799,25.418z"/>
		</g>
		<g>
			<path fill="#669CCC" d="M24.799,24.76c2.695-0.893,5.786-0.337,8.001,1.441c-0.426,2.369-0.853,4.737-1.28,7.106
				c-2.214-1.778-5.306-2.335-8.001-1.441C23.945,29.497,24.372,27.129,24.799,24.76z"/>
		</g>
	</g>
	<g opacity="0.3">
		<g opacity="0.5">
			<path fill="#FFFFFF" d="M33.942,27.065c2.234,1.74,5.3,2.292,8.001,1.441c-0.426,2.369-0.853,4.737-1.28,7.106
				c-2.701,0.851-5.767,0.299-8.001-1.441C33.089,31.802,33.516,29.433,33.942,27.065z"/>
		</g>
		<g>
			<path fill="#669CCC" d="M33.942,26.407c2.234,1.74,5.3,2.292,8.001,1.441c-0.426,2.369-0.853,4.737-1.28,7.106
				c-2.701,0.851-5.767,0.299-8.001-1.441C33.089,31.144,33.516,28.776,33.942,26.407z"/>
		</g>
	</g>
	<g opacity="0.3">
		<g opacity="0.5">
			<path fill="#FFFFFF" d="M23.336,33.539c2.695-0.893,5.786-0.337,8.001,1.441c-0.426,2.369-0.853,4.737-1.28,7.106
				c-2.214-1.778-5.306-2.335-8.001-1.441C22.483,38.275,22.909,35.906,23.336,33.539z"/>
		</g>
		<g>
			<path fill="#669CCC" d="M23.336,32.88c2.695-0.893,5.786-0.337,8.001,1.441c-0.426,2.369-0.853,4.737-1.28,7.106
				c-2.214-1.778-5.306-2.335-8.001-1.441C22.483,37.617,22.909,35.249,23.336,32.88z"/>
		</g>
	</g>
	<g opacity="0.3">
		<g opacity="0.5">
			<path fill="#FFFFFF" d="M32.48,35.185c2.234,1.74,5.3,2.292,8.001,1.441c-0.426,2.369-0.853,4.737-1.28,7.106
				c-2.701,0.851-5.767,0.299-8.001-1.441C31.627,39.922,32.054,37.553,32.48,35.185z"/>
		</g>
		<g>
			<path fill="#669CCC" d="M32.48,34.527c2.234,1.74,5.3,2.292,8.001,1.441c-0.426,2.369-0.853,4.737-1.28,7.106
				c-2.701,0.851-5.767,0.299-8.001-1.441C31.627,39.264,32.054,36.896,32.48,34.527z"/>
		</g>
	</g>
	<path opacity="0.1" fill="#669CCC" enable-background="new    " d="M24.799,24.76c-0.426,2.369-0.853,4.737-1.28,7.106
		c2.695-0.893,5.786-0.337,8.001,1.441c0.426-2.369,0.853-4.737,1.28-7.106C30.585,24.424,27.494,23.867,24.799,24.76z
		 M31.054,32.169c-1.448-0.898-3.153-1.384-4.901-1.384c-0.61,0-1.213,0.06-1.8,0.178l1.025-5.688
		c0.662-0.182,1.351-0.274,2.056-0.274c1.684,0,3.319,0.524,4.646,1.481L31.054,32.169z"/>
	<path opacity="0.1" fill="#669CCC" enable-background="new    " d="M33.942,26.407c-0.426,2.369-0.853,4.737-1.28,7.106
		c2.234,1.74,5.3,2.292,8.001,1.441c0.426-2.369,0.853-4.737,1.28-7.106C39.242,28.699,36.176,28.148,33.942,26.407z M40.086,34.433
		c-0.649,0.169-1.324,0.254-2.01,0.254c-1.691,0-3.341-0.516-4.691-1.461l1.026-5.695c1.468,0.89,3.188,1.372,4.945,1.372
		c0.594,0,1.182-0.055,1.756-0.165L40.086,34.433z"/>
	<path opacity="0.1" fill="#669CCC" enable-background="new    " d="M23.336,32.88c-0.426,2.369-0.853,4.737-1.28,7.106
		c2.695-0.893,5.786-0.337,8.001,1.441c0.426-2.369,0.853-4.737,1.28-7.106C29.122,32.544,26.032,31.987,23.336,32.88z
		 M29.591,40.29c-1.448-0.898-3.153-1.384-4.901-1.384c-0.61,0-1.213,0.06-1.8,0.178l1.025-5.688
		c0.662-0.182,1.351-0.274,2.056-0.274c1.684,0,3.319,0.524,4.646,1.481L29.591,40.29z"/>
	<path opacity="0.1" fill="#669CCC" enable-background="new    " d="M32.48,34.527c-0.426,2.369-0.853,4.737-1.28,7.106
		c2.234,1.74,5.3,2.292,8.001,1.441c0.426-2.369,0.853-4.737,1.28-7.106C37.78,36.82,34.714,36.268,32.48,34.527z M38.624,42.553
		c-0.649,0.169-1.324,0.254-2.01,0.254c-1.691,0-3.341-0.516-4.691-1.461l1.026-5.695c1.468,0.89,3.188,1.372,4.945,1.372
		c0.594,0,1.182-0.055,1.757-0.165L38.624,42.553z"/>
	<g opacity="0.5">
		<path opacity="0.3" fill="#669CCC" enable-background="new    " d="M24.799,24.76c-0.426,2.369-0.853,4.737-1.28,7.106
			c2.695-0.893,5.786-0.337,8.001,1.441c0.426-2.369,0.853-4.737,1.28-7.106C30.585,24.424,27.494,23.867,24.799,24.76z
			 M31.29,32.721c-1.479-1.039-3.282-1.605-5.137-1.605c-0.756,0-1.498,0.095-2.213,0.282l1.15-6.382
			c0.752-0.228,1.539-0.345,2.344-0.345c1.825,0,3.595,0.591,5.007,1.668L31.29,32.721z"/>
		<path opacity="0.3" fill="#669CCC" enable-background="new    " d="M33.942,26.407c-0.426,2.369-0.853,4.737-1.28,7.106
			c2.234,1.74,5.3,2.292,8.001,1.441c0.426-2.369,0.853-4.737,1.28-7.106C39.242,28.699,36.176,28.148,33.942,26.407z
			 M40.374,34.696c-0.739,0.213-1.511,0.321-2.298,0.321c-1.831,0-3.617-0.583-5.053-1.646l1.15-6.387
			c1.5,1.027,3.321,1.587,5.182,1.587c0.739,0,1.466-0.088,2.169-0.263L40.374,34.696z"/>
		<path opacity="0.3" fill="#669CCC" enable-background="new    " d="M23.336,32.88c-0.426,2.369-0.853,4.737-1.28,7.106
			c2.695-0.893,5.786-0.337,8.001,1.441c0.426-2.369,0.853-4.737,1.28-7.106C29.122,32.544,26.032,31.987,23.336,32.88z
			 M29.827,40.842c-1.479-1.039-3.282-1.606-5.137-1.606c-0.756,0-1.498,0.095-2.213,0.282l1.15-6.382
			c0.752-0.228,1.539-0.345,2.344-0.345c1.825,0,3.595,0.591,5.007,1.668L29.827,40.842z"/>
		<path opacity="0.3" fill="#669CCC" enable-background="new    " d="M32.48,34.527c-0.426,2.369-0.853,4.737-1.28,7.106
			c2.234,1.74,5.3,2.292,8.001,1.441c0.426-2.369,0.853-4.737,1.28-7.106C37.78,36.82,34.714,36.268,32.48,34.527z M38.912,42.816
			c-0.739,0.213-1.511,0.321-2.298,0.321c-1.831,0-3.617-0.583-5.053-1.645l1.15-6.387c1.5,1.027,3.32,1.587,5.181,1.587
			c0.739,0,1.466-0.088,2.169-0.263L38.912,42.816z"/>
	</g>
</g>
</svg>
