<?xml version="1.0" encoding="utf-8"?>
<!-- Generator: Adobe Illustrator 17.0.0, SVG Export Plug-In . SVG Version: 6.00 Build 0)  -->
<!DOCTYPE svg PUBLIC "-//W3C//DTD SVG 1.1//EN" "http://www.w3.org/Graphics/SVG/1.1/DTD/svg11.dtd">
<svg version="1.1" id="图层_1" xmlns="http://www.w3.org/2000/svg" xmlns:xlink="http://www.w3.org/1999/xlink" x="0px" y="0px"
	 width="48px" height="48px" viewBox="8 8 48 48" enable-background="new 8 8 48 48" xml:space="preserve">
<g id="g151" opacity="0.5">
	<path id="path153" opacity="0.08" enable-background="new    " d="M48.41,52.136H15.617c-3.019,0-5.48-2.367-5.48-5.266v4.028
		c0,2.265,1.925,4.102,4.283,4.102h35.185c2.358,0,4.256-1.836,4.256-4.102V46.87C53.861,49.77,51.428,52.136,48.41,52.136z"/>
	<path id="path155" opacity="0.1" enable-background="new    " d="M48.383,52.136H15.59c-3.018,0-5.451-2.323-5.451-5.222v2.107
		c0,2.265,1.039,5.025,5.25,5.025s28.929,0,33.195,0s5.279-2.76,5.279-5.025v-2.107C53.861,49.813,51.4,52.136,48.383,52.136z"/>
	<path id="path157" opacity="0.1" enable-background="new    " d="M48.383,52.136H15.59c-3.018,0-5.451-2.323-5.451-5.222v1.137
		c0,2.266,1.802,5.041,5.25,5.041s29.249,0,33.195,0c3.947,0,5.279-2.775,5.279-5.039v-1.137
		C53.861,49.813,51.4,52.136,48.383,52.136z"/>
	<rect id="rect159" x="15.107" y="52.136" opacity="0.05" enable-background="new    " width="33.786" height="0.955"/>
	<rect id="rect161" x="16.101" y="52.136" opacity="0.05" enable-background="new    " width="30.805" height="0.955"/>
	<rect id="rect163" x="16.101" y="53.091" opacity="0.05" enable-background="new    " width="30.805" height="0.955"/>
	<rect id="rect165" x="18.087" y="53.091" opacity="0.05" enable-background="new    " width="27.824" height="0.955"/>
	<rect id="rect167" x="21.069" y="53.091" opacity="0.05" enable-background="new    " width="21.862" height="0.955"/>
	<rect id="rect169" x="25.044" y="53.091" opacity="0.05" enable-background="new    " width="13.912" height="0.955"/>
	<rect id="rect171" x="18.087" y="52.136" opacity="0.05" enable-background="new    " width="27.824" height="0.955"/>
	<rect id="rect173" x="20.075" y="52.136" opacity="0.05" enable-background="new    " width="23.849" height="0.955"/>
	<rect id="rect175" x="21.069" y="52.136" opacity="0.05" enable-background="new    " width="21.862" height="0.955"/>
	<rect id="rect177" x="23.056" y="52.136" opacity="0.05" enable-background="new    " width="17.887" height="0.955"/>
	<rect id="rect179" x="23.056" y="52.136" opacity="0.05" enable-background="new    " width="17.887" height="0.955"/>
</g>
<path fill="#C4DCED" stroke="#9DBCD7" stroke-miterlimit="10" d="M53.466,46.281c0,3.121-2.531,5.652-5.652,5.652H16.185
	c-3.121,0-5.652-2.531-5.652-5.652V14.652c0-3.121,2.531-5.652,5.652-5.652h31.63c3.121,0,5.652,2.531,5.652,5.652L53.466,46.281
	L53.466,46.281z"/>
<path opacity="0.6" fill="none" stroke="#FFFFFF" stroke-miterlimit="10" d="M16.185,50.934c-2.565,0-4.652-2.087-4.652-4.652
	V14.652c0-2.565,2.087-4.652,4.652-4.652h31.629c2.565,0,4.652,2.087,4.652,4.652v31.629c0,2.565-2.087,4.652-4.652,4.652H16.185z"
	/>
<path opacity="0.08" fill="none" stroke="#000000" stroke-miterlimit="10" enable-background="new    " d="M53.627,21.193
	c0,0,0-1.899-1.876-1.899c-5.445,0-22.83,0.003-24.387,0.003c-1.891,0-1.876-1.872-1.876-1.872s0-1.885-1.876-1.885
	c-3.284,0-9.861,0-11.255,0c-1.847,0-1.876,1.816-1.876,1.873"/>
<path opacity="0.03" fill="none" stroke="#000000" stroke-miterlimit="10" enable-background="new    " d="M53.627,20.112
	c0,0,0-1.899-1.876-1.899c-5.445,0-22.83,0.003-24.387,0.003c-1.891,0-1.876-1.872-1.876-1.872s0-1.885-1.876-1.885
	c-3.284,0-9.861,0-11.255,0c-1.847,0-1.876,1.816-1.876,1.873"/>
<linearGradient id="SVGID_1_" gradientUnits="userSpaceOnUse" x1="1127.9993" y1="1377.9335" x2="1127.9993" y2="1342.5322" gradientTransform="matrix(1 0 0 1 -1096 -1326)">
	<stop  offset="0" style="stop-color:#D1E0ED"/>
	<stop  offset="1" style="stop-color:#E4EEFB"/>
</linearGradient>
<path fill="url(#SVGID_1_)" stroke="#9DBCD7" stroke-miterlimit="10" d="M16.172,51.933H47.92c3.121,0,5.546-2.595,5.546-5.717
	V20.871c0-0.445-0.665-0.864-1.55-0.864c-5.468,0-22.903,0.003-24.466,0.003c-1.899,0-1.87-1.733-1.87-1.733
	s0.013-1.745-1.871-1.745c-3.298,0-9.904,0-11.304,0c-1.855,0-1.872,1.538-1.872,1.596v28.089
	C10.533,49.338,13.051,51.933,16.172,51.933z"/>
<path opacity="0.8" fill="none" stroke="#FFFFFF" stroke-miterlimit="10" d="M16.172,50.934c-2.558,0-4.64-2.116-4.64-4.717V18.128
	c0.023-0.596,0.662-0.596,0.872-0.596h11.304c0.21,0,0.85,0,0.871,0.754c-0.002,0.091,0.003,1.14,0.779,1.928
	c0.357,0.363,1.01,0.796,2.092,0.796l24.466-0.003c0.263,0,0.446,0.055,0.551,0.102v25.107c0,2.601-2.04,4.717-4.547,4.717H16.172z"
	/>
<radialGradient id="SVGID_2_" cx="1506.46" cy="-1013.1687" r="34.4255" gradientTransform="matrix(0.0197 0.9998 -0.9109 0.018 -922.1061 -1463.46)" gradientUnits="userSpaceOnUse">
	<stop  offset="0" style="stop-color:#FFFFFF;stop-opacity:0.6"/>
	<stop  offset="0.3783" style="stop-color:#FAFCFE;stop-opacity:0.4487"/>
	<stop  offset="0.829" style="stop-color:#EBF3FC;stop-opacity:0.2684"/>
	<stop  offset="1" style="stop-color:#E4EEFB;stop-opacity:0.2"/>
</radialGradient>
<path fill="url(#SVGID_2_)" d="M16.172,51.181c-2.695,0-4.887-2.226-4.887-4.964V18.128c0-0.036,0.006-0.336,0.229-0.56
	c0.187-0.187,0.486-0.282,0.889-0.282h11.304c0.446,0,0.673,0.053,0.809,0.19c0.3,0.302,0.313,0.762,0.313,0.767
	c-0.001,0.099,0.004,1.081,0.732,1.82c0.464,0.471,1.1,0.709,1.89,0.709c0,0,20.898-0.008,24.461-0.008
	c0.471,0,0.731,0.162,0.798,0.239v25.214c0,2.738-2.15,4.964-4.793,4.964H16.172L16.172,51.181L16.172,51.181z"/>
<g id="g27_1_">
	
		<linearGradient id="path36_2_" gradientUnits="userSpaceOnUse" x1="1520.0824" y1="2152.541" x2="1526.0471" y2="2162.8721" gradientTransform="matrix(1 0 0 1 -1508 -2144)">
		<stop  offset="0" style="stop-color:#FFFFFF"/>
		<stop  offset="0.5" style="stop-color:#FFFFFF;stop-opacity:0.6"/>
		<stop  offset="1" style="stop-color:#FFFFFF;stop-opacity:0.15"/>
	</linearGradient>
	<path id="path36_1_" fill="url(#path36_2_)" d="M17,20.627c0.667-1.381,1.481-2.674,2.414-3.869l-1.699-3.725
		c-1.451,1.372-2.629,2.883-3.569,4.351L17,20.627z"/>
	
		<linearGradient id="path45_2_" gradientUnits="userSpaceOnUse" x1="1525.4906" y1="2150.9939" x2="1529.3943" y2="2157.7554" gradientTransform="matrix(1 0 0 1 -1508 -2144)">
		<stop  offset="0" style="stop-color:#FFFFFF"/>
		<stop  offset="0.5" style="stop-color:#FFFFFF;stop-opacity:0.6"/>
		<stop  offset="1" style="stop-color:#FFFFFF;stop-opacity:0.15"/>
	</linearGradient>
	<path id="path45_1_" fill="url(#path45_2_)" d="M17.178,9.452l0.888,1.946c0.854-0.709,1.791-0.954,2.812-1.946H17.178z"/>
	
		<linearGradient id="path54_2_" gradientUnits="userSpaceOnUse" x1="1526.7184" y1="2149.7102" x2="1531.4878" y2="2157.9709" gradientTransform="matrix(1 0 0 1 -1508 -2144)">
		<stop  offset="0" style="stop-color:#FFFFFF"/>
		<stop  offset="0.5" style="stop-color:#FFFFFF;stop-opacity:0.6"/>
		<stop  offset="1" style="stop-color:#FFFFFF;stop-opacity:0.15"/>
	</linearGradient>
	<path id="path54_1_" fill="url(#path54_2_)" d="M23.841,9.452h-0.703c-1.772,0.992-3.321,1.75-4.65,2.881l1.628,3.573
		c1.391-1.607,3.005-3.015,4.813-4.152c0.014-0.013,0.024-0.024,0.039-0.036C26.994,9.968,24.983,9.452,23.841,9.452z"/>
	
		<linearGradient id="path63_2_" gradientUnits="userSpaceOnUse" x1="1516.7354" y1="2157.2505" x2="1521.9113" y2="2166.2153" gradientTransform="matrix(1 0 0 1 -1508 -2144)">
		<stop  offset="0" style="stop-color:#FFFFFF"/>
		<stop  offset="0.5" style="stop-color:#FFFFFF;stop-opacity:0.6"/>
		<stop  offset="1" style="stop-color:#FFFFFF;stop-opacity:0.15"/>
	</linearGradient>
	<path id="path63_1_" fill="url(#path63_2_)" d="M13.606,18.269c-1.089,1.855-1.802,3.569-2.224,4.741
		c0.5,0.714,1.327,1.182,2.265,1.182c1.161,0,2.153-0.717,2.563-1.731c0.105-0.283,0.233-0.555,0.351-0.834L13.606,18.269z"/>
	
		<linearGradient id="path72_2_" gradientUnits="userSpaceOnUse" x1="1516.5024" y1="2157.6179" x2="1522.2385" y2="2167.5532" gradientTransform="matrix(1 0 0 1 -1508 -2144)">
		<stop  offset="0" style="stop-color:#FFFFFF"/>
		<stop  offset="0.5" style="stop-color:#FFFFFF;stop-opacity:0.6"/>
		<stop  offset="1" style="stop-color:#FFFFFF;stop-opacity:0.15"/>
	</linearGradient>
	<path id="path72_1_" fill="url(#path72_2_)" d="M10.901,15.192l-0.021,6.229c0,0,0,0.002,0,0.004c0,0.039,0.01,0.076,0.012,0.114
		c0.474-1.152,1.135-2.56,2.031-4.048L10.901,15.192z"/>
	
		<linearGradient id="path149_2_" gradientUnits="userSpaceOnUse" x1="1520.8402" y1="2154.5063" x2="1526.2263" y2="2163.8357" gradientTransform="matrix(1 0 0 1 -1508 -2144)">
		<stop  offset="0" style="stop-color:#FFFFFF"/>
		<stop  offset="0.5" style="stop-color:#FFFFFF;stop-opacity:0.6"/>
		<stop  offset="1" style="stop-color:#FFFFFF;stop-opacity:0.15"/>
	</linearGradient>
	<path id="path149_1_" fill="url(#path149_2_)" d="M15.994,9.464c-2.024-0.168-4.689,2.111-5.03,4.297l2.511,2.855
		c1.002-1.53,2.248-3.096,3.786-4.512L15.994,9.464z"/>
</g>
<g>
	<g opacity="0.3" enable-background="new    ">
		<g>
			<path fill="#FFFFFF" d="M36.885,24.921h-9.72h-5.551v4.542v1.061v3.004v1.061v3.358v1.061v3.363v1.061v4.437h5.551h9.72h5.501
				v-4.437V42.37v-3.363v-1.061v-3.358v-1.061v-3.004v-1.061v-4.541L36.885,24.921L36.885,24.921L36.885,24.921z M25.987,46.774
				h-3.281v-3.28h3.28L25.987,46.774L25.987,46.774z M25.987,42.401h-3.281v-3.274h3.28L25.987,42.401L25.987,42.401z
				 M25.987,38.034h-3.281v-3.28h3.28L25.987,38.034L25.987,38.034z M25.987,33.661h-3.281v-3.28h3.28L25.987,33.661L25.987,33.661z
				 M25.987,29.652h-3.281v-3.638h3.28L25.987,29.652L25.987,29.652z M36.919,37.946v1.061v3.363v1.061v3.344h-9.838V43.43V42.37
				v-3.363v-1.061v-1.005h9.838V37.946z M36.919,29.462v1.061v3.004v1.061v1.259h-9.838v-1.26v-1.061v-3.004v-1.061v-3.448h9.838
				V29.462z M41.292,46.774h-3.28v-3.28h3.28V46.774z M41.292,42.401h-3.28v-3.274h3.28V42.401z M41.292,38.034h-3.28v-3.28h3.28
				V38.034z M41.292,33.661h-3.28v-3.28h3.28V33.661z M41.292,29.652h-3.28v-3.638h3.28V29.652z"/>
		</g>
		<g>
			<path fill="#669CCC" d="M36.885,24.192h-9.72h-5.551v4.183v1.419v3.004v1.061v3.358v1.061v3.363v1.061v4.437h5.551h9.72h5.501
				v-4.437V41.64v-3.363v-1.061v-3.358v-1.061v-3.004v-1.419v-4.183C42.386,24.192,36.885,24.192,36.885,24.192z M25.987,46.045
				h-3.281v-3.28h3.28L25.987,46.045L25.987,46.045z M25.987,41.672h-3.281v-3.274h3.28L25.987,41.672L25.987,41.672z
				 M25.987,37.305h-3.281v-3.28h3.28L25.987,37.305L25.987,37.305z M25.987,32.932h-3.281v-3.28h3.28L25.987,32.932L25.987,32.932z
				 M25.987,28.565h-3.281v-3.28h3.28L25.987,28.565L25.987,28.565z M36.919,37.217v1.061v3.363v1.061v3.344h-9.838v-3.344V41.64
				v-3.363v-1.061v-1.005h9.838V37.217z M36.919,28.375v1.419v3.004v1.061v1.259h-9.838v-1.26v-1.061v-3.004v-1.419v-3.089h9.838
				V28.375z M41.292,46.045h-3.28v-3.28h3.28V46.045z M41.292,41.672h-3.28v-3.274h3.28V41.672z M41.292,37.305h-3.28v-3.28h3.28
				V37.305z M41.292,32.932h-3.28v-3.28h3.28V32.932z M41.292,28.565h-3.28v-3.28h3.28V28.565z"/>
		</g>
	</g>
	<path opacity="0.3" fill="#669CCC" enable-background="new    " d="M26.351,42.401h-4.008v4.008h4.008V42.401z M25.987,46.045
		h-3.281v-3.28h3.28L25.987,46.045L25.987,46.045z"/>
	<path opacity="0.3" fill="#669CCC" enable-background="new    " d="M41.656,33.661h-4.008v4.008h4.008V33.661z M41.292,37.305
		h-3.28v-3.28h3.28V37.305z"/>
	<path opacity="0.3" fill="#669CCC" enable-background="new    " d="M36.708,24.192h-9.72h-5.373v4v1.419v3.004v1.061v3.358v1.061
		v3.363v1.061v4.619h5.373h9.72h5.678v-4.619v-1.061v-3.363v-1.061v-3.358v-1.061v-3.004v-1.419v-4
		C42.385,24.192,36.708,24.192,36.708,24.192z M42.022,46.774H21.978V24.557h20.043L42.022,46.774L42.022,46.774z"/>
	<path opacity="0.3" fill="#669CCC" enable-background="new    " d="M41.656,38.034h-4.008v4.003h4.008V38.034z M41.292,41.672
		h-3.28v-3.274h3.28V41.672z"/>
	<path opacity="0.3" fill="#669CCC" enable-background="new    " d="M37.283,24.921H26.716v10.562h10.568L37.283,24.921
		L37.283,24.921z M36.919,28.193v1.419v3.004v1.061v1.441h-9.838v-1.442v-1.061v-3.004v-1.419v-2.907h9.838V28.193z"/>
	<path opacity="0.3" fill="#669CCC" enable-background="new    " d="M37.283,35.847H26.716v10.562h10.568L37.283,35.847
		L37.283,35.847z M36.919,37.035v1.061v3.363v1.061v3.527h-9.838v-3.527v-1.061v-3.363v-1.061v-0.822h9.838V37.035z"/>
	<path opacity="0.3" fill="#669CCC" enable-background="new    " d="M41.656,42.401h-4.008v4.008h4.008V42.401z M41.292,46.045
		h-3.28v-3.28h3.28V46.045z"/>
	<path opacity="0.3" fill="#669CCC" enable-background="new    " d="M26.351,33.661h-4.008v4.008h4.008V33.661z M25.987,37.305
		h-3.281v-3.28h3.28L25.987,37.305L25.987,37.305z"/>
	<path opacity="0.3" fill="#669CCC" enable-background="new    " d="M26.351,38.034h-4.008v4.003h4.008V38.034z M25.987,41.672
		h-3.281v-3.274h3.28L25.987,41.672L25.987,41.672z"/>
	<path opacity="0.3" fill="#669CCC" enable-background="new    " d="M41.656,29.304h-4.008v4.003h4.008V29.304z M41.292,32.942
		h-3.28v-3.274h3.28V32.942z"/>
	<path opacity="0.3" fill="#669CCC" enable-background="new    " d="M26.351,29.304h-4.008v4.003h4.008V29.304z M25.987,32.942
		h-3.281v-3.274h3.28L25.987,32.942L25.987,32.942z"/>
	<path opacity="0.3" fill="#669CCC" enable-background="new    " d="M41.656,24.921h-4.008v4.008h4.008V24.921z M41.292,28.565
		h-3.28v-3.28h3.28V28.565z"/>
	<path opacity="0.3" fill="#669CCC" enable-background="new    " d="M26.351,24.921h-4.008v4.008h4.008V24.921z M25.987,28.565
		h-3.281v-3.28h3.28L25.987,28.565L25.987,28.565z"/>
	<rect x="27.081" y="25.286" opacity="0.3" fill="#669CCC" enable-background="new    " width="9.839" height="9.833"/>
	<rect x="27.081" y="36.212" opacity="0.3" fill="#669CCC" enable-background="new    " width="9.839" height="9.833"/>
</g>
</svg>
