<?xml version="1.0" encoding="utf-8"?>
<!-- Generator: Adobe Illustrator 17.0.0, SVG Export Plug-In . SVG Version: 6.00 Build 0)  -->
<!DOCTYPE svg PUBLIC "-//W3C//DTD SVG 1.1//EN" "http://www.w3.org/Graphics/SVG/1.1/DTD/svg11.dtd">
<svg version="1.1" id="图层_1" xmlns="http://www.w3.org/2000/svg" xmlns:xlink="http://www.w3.org/1999/xlink" x="0px" y="0px"
	 width="48px" height="48px" viewBox="8 8 48 48" enable-background="new 8 8 48 48" xml:space="preserve">
<g id="g151" opacity="0.5">
	<path id="path153" opacity="0.08" enable-background="new    " d="M48.41,52.136H15.617c-3.019,0-5.48-2.367-5.48-5.266v4.028
		c0,2.265,1.925,4.102,4.283,4.102h35.185c2.358,0,4.256-1.836,4.256-4.102V46.87C53.861,49.77,51.428,52.136,48.41,52.136z"/>
	<path id="path155" opacity="0.1" enable-background="new    " d="M48.383,52.136H15.59c-3.018,0-5.451-2.323-5.451-5.222v2.107
		c0,2.265,1.039,5.025,5.25,5.025s28.929,0,33.195,0s5.279-2.76,5.279-5.025v-2.107C53.861,49.813,51.4,52.136,48.383,52.136z"/>
	<path id="path157" opacity="0.1" enable-background="new    " d="M48.383,52.136H15.59c-3.018,0-5.451-2.323-5.451-5.222v1.137
		c0,2.266,1.802,5.041,5.25,5.041s29.249,0,33.195,0c3.947,0,5.279-2.775,5.279-5.039v-1.137
		C53.861,49.813,51.4,52.136,48.383,52.136z"/>
	<rect id="rect159" x="15.107" y="52.136" opacity="0.05" enable-background="new    " width="33.786" height="0.955"/>
	<rect id="rect161" x="16.101" y="52.136" opacity="0.05" enable-background="new    " width="30.805" height="0.955"/>
	<rect id="rect163" x="16.101" y="53.091" opacity="0.05" enable-background="new    " width="30.805" height="0.955"/>
	<rect id="rect165" x="18.087" y="53.091" opacity="0.05" enable-background="new    " width="27.824" height="0.955"/>
	<rect id="rect167" x="21.069" y="53.091" opacity="0.05" enable-background="new    " width="21.862" height="0.955"/>
	<rect id="rect169" x="25.044" y="53.091" opacity="0.05" enable-background="new    " width="13.912" height="0.955"/>
	<rect id="rect171" x="18.087" y="52.136" opacity="0.05" enable-background="new    " width="27.824" height="0.955"/>
	<rect id="rect173" x="20.075" y="52.136" opacity="0.05" enable-background="new    " width="23.849" height="0.955"/>
	<rect id="rect175" x="21.069" y="52.136" opacity="0.05" enable-background="new    " width="21.862" height="0.955"/>
	<rect id="rect177" x="23.056" y="52.136" opacity="0.05" enable-background="new    " width="17.887" height="0.955"/>
	<rect id="rect179" x="23.056" y="52.136" opacity="0.05" enable-background="new    " width="17.887" height="0.955"/>
</g>
<path fill="#C4DCED" stroke="#9DBCD7" stroke-miterlimit="10" d="M53.466,46.281c0,3.121-2.531,5.652-5.652,5.652H16.185
	c-3.121,0-5.652-2.531-5.652-5.652V14.652c0-3.121,2.531-5.652,5.652-5.652h31.63c3.121,0,5.652,2.531,5.652,5.652L53.466,46.281
	L53.466,46.281z"/>
<path opacity="0.6" fill="none" stroke="#FFFFFF" stroke-miterlimit="10" d="M16.185,50.934c-2.565,0-4.652-2.087-4.652-4.652
	V14.652c0-2.565,2.087-4.652,4.652-4.652h31.629c2.565,0,4.652,2.087,4.652,4.652v31.629c0,2.565-2.087,4.652-4.652,4.652H16.185z"
	/>
<path opacity="0.08" fill="none" stroke="#000000" stroke-miterlimit="10" enable-background="new    " d="M53.627,21.193
	c0,0,0-1.899-1.876-1.899c-5.445,0-22.83,0.003-24.387,0.003c-1.891,0-1.876-1.872-1.876-1.872s0-1.885-1.876-1.885
	c-3.284,0-9.861,0-11.255,0c-1.847,0-1.876,1.816-1.876,1.873"/>
<path opacity="0.03" fill="none" stroke="#000000" stroke-miterlimit="10" enable-background="new    " d="M53.627,20.112
	c0,0,0-1.899-1.876-1.899c-5.445,0-22.83,0.003-24.387,0.003c-1.891,0-1.876-1.872-1.876-1.872s0-1.885-1.876-1.885
	c-3.284,0-9.861,0-11.255,0c-1.847,0-1.876,1.816-1.876,1.873"/>
<linearGradient id="SVGID_1_" gradientUnits="userSpaceOnUse" x1="1127.9993" y1="1377.9335" x2="1127.9993" y2="1342.5322" gradientTransform="matrix(1 0 0 1 -1096 -1326)">
	<stop  offset="0" style="stop-color:#D1E0ED"/>
	<stop  offset="1" style="stop-color:#E4EEFB"/>
</linearGradient>
<path fill="url(#SVGID_1_)" stroke="#9DBCD7" stroke-miterlimit="10" d="M16.172,51.933H47.92c3.121,0,5.546-2.595,5.546-5.717
	V20.871c0-0.445-0.665-0.864-1.55-0.864c-5.468,0-22.903,0.003-24.466,0.003c-1.899,0-1.87-1.733-1.87-1.733
	s0.013-1.745-1.871-1.745c-3.298,0-9.904,0-11.304,0c-1.855,0-1.872,1.538-1.872,1.596v28.089
	C10.533,49.338,13.051,51.933,16.172,51.933z"/>
<path opacity="0.8" fill="none" stroke="#FFFFFF" stroke-miterlimit="10" d="M16.172,50.934c-2.558,0-4.64-2.116-4.64-4.717V18.128
	c0.023-0.596,0.662-0.596,0.872-0.596h11.304c0.21,0,0.85,0,0.871,0.754c-0.002,0.091,0.003,1.14,0.779,1.928
	c0.357,0.363,1.01,0.796,2.092,0.796l24.466-0.003c0.263,0,0.446,0.055,0.551,0.102v25.107c0,2.601-2.04,4.717-4.547,4.717H16.172z"
	/>
<radialGradient id="SVGID_2_" cx="1506.46" cy="-1013.1687" r="34.4255" gradientTransform="matrix(0.0197 0.9998 -0.9109 0.018 -922.1061 -1463.46)" gradientUnits="userSpaceOnUse">
	<stop  offset="0" style="stop-color:#FFFFFF;stop-opacity:0.6"/>
	<stop  offset="0.3783" style="stop-color:#FAFCFE;stop-opacity:0.4487"/>
	<stop  offset="0.829" style="stop-color:#EBF3FC;stop-opacity:0.2684"/>
	<stop  offset="1" style="stop-color:#E4EEFB;stop-opacity:0.2"/>
</radialGradient>
<path fill="url(#SVGID_2_)" d="M16.172,51.181c-2.695,0-4.887-2.226-4.887-4.964V18.128c0-0.036,0.006-0.336,0.229-0.56
	c0.187-0.187,0.486-0.282,0.889-0.282h11.304c0.446,0,0.673,0.053,0.809,0.19c0.3,0.302,0.313,0.762,0.313,0.767
	c-0.001,0.099,0.004,1.081,0.732,1.82c0.464,0.471,1.1,0.709,1.89,0.709c0,0,20.898-0.008,24.461-0.008
	c0.471,0,0.731,0.162,0.798,0.239v25.214c0,2.738-2.15,4.964-4.793,4.964H16.172L16.172,51.181L16.172,51.181z"/>
<g id="g27_1_">
	
		<linearGradient id="path36_2_" gradientUnits="userSpaceOnUse" x1="1520.0824" y1="2152.541" x2="1526.0471" y2="2162.8721" gradientTransform="matrix(1 0 0 1 -1508 -2144)">
		<stop  offset="0" style="stop-color:#FFFFFF"/>
		<stop  offset="0.5" style="stop-color:#FFFFFF;stop-opacity:0.6"/>
		<stop  offset="1" style="stop-color:#FFFFFF;stop-opacity:0.15"/>
	</linearGradient>
	<path id="path36_1_" fill="url(#path36_2_)" d="M17,20.627c0.667-1.381,1.481-2.674,2.414-3.869l-1.699-3.725
		c-1.451,1.372-2.629,2.883-3.569,4.351L17,20.627z"/>
	
		<linearGradient id="path45_2_" gradientUnits="userSpaceOnUse" x1="1525.4906" y1="2150.9939" x2="1529.3943" y2="2157.7554" gradientTransform="matrix(1 0 0 1 -1508 -2144)">
		<stop  offset="0" style="stop-color:#FFFFFF"/>
		<stop  offset="0.5" style="stop-color:#FFFFFF;stop-opacity:0.6"/>
		<stop  offset="1" style="stop-color:#FFFFFF;stop-opacity:0.15"/>
	</linearGradient>
	<path id="path45_1_" fill="url(#path45_2_)" d="M17.178,9.452l0.888,1.946c0.854-0.709,1.791-0.954,2.812-1.946H17.178z"/>
	
		<linearGradient id="path54_2_" gradientUnits="userSpaceOnUse" x1="1526.7184" y1="2149.7102" x2="1531.4878" y2="2157.9709" gradientTransform="matrix(1 0 0 1 -1508 -2144)">
		<stop  offset="0" style="stop-color:#FFFFFF"/>
		<stop  offset="0.5" style="stop-color:#FFFFFF;stop-opacity:0.6"/>
		<stop  offset="1" style="stop-color:#FFFFFF;stop-opacity:0.15"/>
	</linearGradient>
	<path id="path54_1_" fill="url(#path54_2_)" d="M23.841,9.452h-0.703c-1.772,0.992-3.321,1.75-4.65,2.881l1.628,3.573
		c1.391-1.607,3.005-3.015,4.813-4.152c0.014-0.013,0.024-0.024,0.039-0.036C26.994,9.968,24.983,9.452,23.841,9.452z"/>
	
		<linearGradient id="path63_2_" gradientUnits="userSpaceOnUse" x1="1516.7354" y1="2157.2505" x2="1521.9113" y2="2166.2153" gradientTransform="matrix(1 0 0 1 -1508 -2144)">
		<stop  offset="0" style="stop-color:#FFFFFF"/>
		<stop  offset="0.5" style="stop-color:#FFFFFF;stop-opacity:0.6"/>
		<stop  offset="1" style="stop-color:#FFFFFF;stop-opacity:0.15"/>
	</linearGradient>
	<path id="path63_1_" fill="url(#path63_2_)" d="M13.606,18.269c-1.089,1.855-1.802,3.569-2.224,4.741
		c0.5,0.714,1.327,1.182,2.265,1.182c1.161,0,2.153-0.717,2.563-1.731c0.105-0.283,0.233-0.555,0.351-0.834L13.606,18.269z"/>
	
		<linearGradient id="path72_2_" gradientUnits="userSpaceOnUse" x1="1516.5024" y1="2157.6179" x2="1522.2385" y2="2167.5532" gradientTransform="matrix(1 0 0 1 -1508 -2144)">
		<stop  offset="0" style="stop-color:#FFFFFF"/>
		<stop  offset="0.5" style="stop-color:#FFFFFF;stop-opacity:0.6"/>
		<stop  offset="1" style="stop-color:#FFFFFF;stop-opacity:0.15"/>
	</linearGradient>
	<path id="path72_1_" fill="url(#path72_2_)" d="M10.901,15.192l-0.021,6.229c0,0,0,0.002,0,0.004c0,0.039,0.01,0.076,0.012,0.114
		c0.474-1.152,1.135-2.56,2.031-4.048L10.901,15.192z"/>
	
		<linearGradient id="path149_2_" gradientUnits="userSpaceOnUse" x1="1520.8402" y1="2154.5063" x2="1526.2263" y2="2163.8357" gradientTransform="matrix(1 0 0 1 -1508 -2144)">
		<stop  offset="0" style="stop-color:#FFFFFF"/>
		<stop  offset="0.5" style="stop-color:#FFFFFF;stop-opacity:0.6"/>
		<stop  offset="1" style="stop-color:#FFFFFF;stop-opacity:0.15"/>
	</linearGradient>
	<path id="path149_1_" fill="url(#path149_2_)" d="M15.994,9.464c-2.024-0.168-4.689,2.111-5.03,4.297l2.511,2.855
		c1.002-1.53,2.248-3.096,3.786-4.512L15.994,9.464z"/>
</g>
<g>
	<path opacity="0.3" fill="#FFFFFF" enable-background="new    " d="M29.634,22.622c-2.214,0-4.437,0.835-6.123,2.515
		c-3.373,3.361-3.373,8.854,0,12.215c2.843,2.832,7.181,3.278,10.504,1.326c0.171,0.013,0.352,0.018,0.493,0.047
		c0.095,0.019,0.04-0.018,0.077,0c0.002,0.093-0.003,0.192,0,0.37c0.008,0.463,0.134,1.25,0.74,1.836l-0.016,0.016l0.047,0.047
		l4.643,4.704c0,0,0.015,0.015,0.016,0.016c0.023,0.024,0.465,0.476,1.157,0.586c0.71,0.113,1.649-0.172,2.484-1.003
		c0.835-0.831,1.117-1.772,1.003-2.484c-0.108-0.675-0.526-1.097-0.571-1.142l-0.031-0.031l-4.643-4.703
		c-0.011-0.012-0.02-0.019-0.031-0.031c-0.59-0.624-1.414-0.721-1.882-0.725c-0.171-0.002-0.261,0.001-0.354,0
		c-0.017-0.036,0.022,0.013,0-0.093c-0.029-0.14-0.047-0.311-0.061-0.479c1.958-3.311,1.533-7.639-1.311-10.472
		C34.084,23.454,31.848,22.622,29.634,22.622z M29.634,23.609c1.962,0,3.933,0.745,5.429,2.236c2.609,2.599,2.942,6.601,1.003,9.563
		c0.026,0.503,0.103,1.315,0.432,1.604c0.447,0.392,1.493-0.168,2.175,0.586l4.704,4.766c0,0,0.927,0.868-0.432,2.221
		c-1.359,1.353-2.221,0.432-2.221,0.432l-4.704-4.766c-0.756-0.679-0.207-1.729-0.602-2.175c-0.289-0.327-1.099-0.391-1.604-0.417
		c-2.973,1.933-6.984,1.581-9.594-1.018c-2.993-2.981-2.993-7.815,0-10.797C25.716,24.355,27.672,23.609,29.634,23.609z
		 M29.665,26.154c-1.411,0-2.684,0.544-3.609,1.465c-0.925,0.921-1.512,2.219-1.512,3.624c0,2.811,2.299,5.09,5.121,5.09
		s5.105-2.279,5.105-5.09S32.486,26.154,29.665,26.154z M29.665,27.142c2.287,0,4.118,1.83,4.118,4.103s-1.832,4.103-4.118,4.103
		s-4.133-1.834-4.133-4.103c0-1.129,0.49-2.175,1.234-2.915C27.506,27.591,28.509,27.142,29.665,27.142z"/>
	<path opacity="0.3" fill="#FFFFFF" enable-background="new    " d="M29.634,23.101c-2.093,0-4.19,0.786-5.784,2.375
		c-3.189,3.178-3.189,8.359,0,11.537c2.724,2.714,6.888,3.099,10.041,1.172c0.225,0.013,0.488,0.033,0.71,0.077
		c0.255,0.051,0.434,0.157,0.432,0.154c-0.007-0.008,0.02,0.018,0.031,0.139c0.011,0.121-0.004,0.304,0,0.524
		c0.007,0.431,0.095,1.061,0.586,1.527c0.012,0.011,0.019,0.02,0.031,0.031l4.673,4.735c0,0,0.341,0.359,0.894,0.448
		c0.554,0.088,1.308-0.107,2.067-0.864c0.759-0.757,0.952-1.512,0.864-2.067c-0.085-0.534-0.407-0.855-0.432-0.879l-0.016-0.016
		l-4.673-4.736c-0.005-0.006-0.01-0.01-0.016-0.016c-0.47-0.505-1.107-0.582-1.543-0.586c-0.22-0.002-0.405,0.01-0.524,0
		c-0.12-0.01-0.147-0.039-0.139-0.031c0.001,0.001-0.116-0.192-0.17-0.448c-0.047-0.221-0.063-0.473-0.077-0.694
		c1.934-3.141,1.568-7.295-1.157-10.01C33.838,23.886,31.727,23.101,29.634,23.101z M29.634,23.609c1.962,0,3.933,0.745,5.429,2.236
		c2.609,2.599,2.942,6.601,1.003,9.563c0.026,0.503,0.103,1.315,0.432,1.604c0.447,0.392,1.493-0.168,2.175,0.586l4.704,4.766
		c0,0,0.927,0.868-0.432,2.221c-1.359,1.353-2.221,0.432-2.221,0.432l-4.704-4.766c-0.756-0.679-0.207-1.729-0.602-2.175
		c-0.289-0.327-1.099-0.391-1.604-0.417c-2.973,1.933-6.984,1.581-9.594-1.018c-2.993-2.981-2.993-7.815,0-10.797
		C25.716,24.355,27.672,23.609,29.634,23.609z M29.665,26.154c-1.411,0-2.684,0.544-3.609,1.465
		c-0.925,0.921-1.512,2.219-1.512,3.624c0,2.811,2.299,5.09,5.121,5.09s5.105-2.279,5.105-5.09S32.486,26.154,29.665,26.154z
		 M29.665,26.664c2.545,0,4.596,2.048,4.596,4.581s-2.052,4.581-4.596,4.581s-4.612-2.05-4.612-4.581
		c0-1.263,0.542-2.426,1.373-3.254C27.255,27.163,28.386,26.664,29.665,26.664z"/>
	<path opacity="0.3" fill="#669CCC" enable-background="new    " d="M24.212,25.846c-2.993,2.981-2.993,7.821,0,10.803
		c2.609,2.599,6.628,2.946,9.601,1.013c0.506,0.026,1.32,0.095,1.609,0.422c0.394,0.445-0.163,1.488,0.593,2.166l4.702,4.764
		c0,0,0.873,0.932,2.231-0.422c1.359-1.353,0.423-2.222,0.423-2.222l-4.702-4.764c-0.682-0.753-1.727-0.198-2.174-0.591
		c-0.328-0.289-0.398-1.1-0.423-1.603c1.94-2.961,1.592-6.966-1.016-9.565C32.063,22.864,27.206,22.864,24.212,25.846z
		 M26.048,27.619c0.925-0.921,2.204-1.463,3.614-1.463c2.822,0,5.111,2.281,5.111,5.092s-2.29,5.092-5.111,5.092
		s-5.111-2.281-5.111-5.092C24.551,29.842,25.123,28.54,26.048,27.619z"/>
	<path opacity="0.3" fill="#669CCC" enable-background="new    " d="M29.634,23.609c-1.962,0-3.918,0.745-5.414,2.236
		c-1.558,1.553-2.301,3.609-2.236,5.645c0.061-1.872,0.804-3.725,2.236-5.152c2.993-2.981,7.85-2.981,10.843,0
		c1.425,1.419,2.15,3.262,2.221,5.121c0.053-2.024-0.67-4.069-2.221-5.615C33.567,24.355,31.596,23.609,29.634,23.609z
		 M24.56,31.491c-0.004,0.081-0.016,0.164-0.016,0.247c0,2.811,2.299,5.09,5.121,5.09s5.105-2.279,5.105-5.09
		c0-0.082-0.012-0.164-0.016-0.247c-0.13,2.696-2.352,4.843-5.09,4.843C26.926,36.334,24.689,34.188,24.56,31.491z M36.096,35.841
		c-0.012,0.019-0.018,0.043-0.031,0.061c0.026,0.503,0.103,1.315,0.432,1.604c0.447,0.392,1.493-0.168,2.175,0.586l4.704,4.766
		c0,0,0.206,0.208,0.278,0.571c0.136-0.669-0.278-1.064-0.278-1.064l-4.704-4.766c-0.682-0.753-1.727-0.194-2.175-0.586
		C36.251,36.796,36.142,36.295,36.096,35.841z"/>
	<path opacity="0.3" fill="#669CCC" enable-background="new    " d="M29.634,23.609c-1.962,0-3.918,0.745-5.414,2.236
		c-2.993,2.981-2.993,7.815,0,10.797c2.609,2.599,6.621,2.95,9.594,1.018c0.506,0.026,1.315,0.089,1.604,0.417
		c0.394,0.445-0.154,1.496,0.602,2.175l4.704,4.766c0,0,0.862,0.921,2.221-0.432c1.358-1.353,0.432-2.221,0.432-2.221l-4.704-4.766
		c-0.682-0.753-1.727-0.194-2.175-0.586c-0.328-0.289-0.406-1.101-0.432-1.604c1.94-2.961,1.606-6.963-1.003-9.563
		C33.567,24.355,31.596,23.609,29.634,23.609z M29.634,24.104c1.836,0,3.675,0.703,5.074,2.097c2.442,2.433,2.753,6.164,0.941,8.93
		c-0.059,0.092-0.086,0.2-0.077,0.309c0.013,0.264,0.035,0.61,0.108,0.956c0.073,0.347,0.169,0.702,0.493,0.987
		c0.229,0.201,0.488,0.259,0.71,0.278c0.222,0.019,0.434,0.014,0.617,0.016c0.365,0.003,0.588,0.026,0.802,0.262
		c0.005,0.005,0.01,0.011,0.016,0.016l4.704,4.766c0.005,0.005,0.01,0.011,0.016,0.016c0,0,0.103,0.086,0.139,0.309
		c0.036,0.223,0.015,0.589-0.586,1.187c-0.601,0.6-0.966,0.621-1.187,0.586c-0.222-0.035-0.309-0.139-0.309-0.139
		c-0.005-0.005-0.01-0.011-0.016-0.016l-4.705-4.765c-0.005-0.005-0.01-0.011-0.016-0.016c-0.238-0.214-0.271-0.451-0.278-0.817
		c-0.003-0.183,0.005-0.38-0.016-0.602c-0.02-0.222-0.076-0.482-0.278-0.71c-0.288-0.325-0.641-0.425-0.987-0.493
		c-0.347-0.069-0.696-0.079-0.956-0.093c-0.109-0.009-0.216,0.019-0.309,0.077c-2.777,1.805-6.518,1.478-8.961-0.956
		c-2.801-2.791-2.801-7.296,0-10.087C25.976,24.805,27.798,24.104,29.634,24.104z M29.665,25.661c-1.539,0-2.946,0.589-3.964,1.604
		c-1.016,1.013-1.651,2.435-1.651,3.979c0,3.084,2.524,5.583,5.615,5.583s5.599-2.501,5.599-5.583S32.756,25.661,29.665,25.661z
		 M29.665,26.154c2.822,0,5.105,2.279,5.105,5.09c0,2.811-2.284,5.09-5.105,5.09c-2.822,0-5.121-2.279-5.121-5.09
		c0-1.405,0.586-2.703,1.512-3.624C26.981,26.698,28.254,26.154,29.665,26.154z"/>
	<path opacity="0.3" fill="#FFFFFF" enable-background="new    " d="M29.665,26.154c-1.411,0-2.684,0.544-3.609,1.465
		c-0.925,0.921-1.512,2.219-1.512,3.624c0,0.083,0.012,0.164,0.016,0.247c0.062-1.31,0.626-2.51,1.496-3.378
		c0.925-0.921,2.198-1.465,3.609-1.465c2.739,0,4.961,2.147,5.09,4.843c0.004-0.081,0.016-0.164,0.016-0.247
		C34.77,28.433,32.486,26.154,29.665,26.154z M37.284,31.46c-0.036,1.381-0.432,2.748-1.218,3.949
		c0.006,0.126,0.016,0.281,0.031,0.432C36.951,34.509,37.343,32.984,37.284,31.46z M21.984,31.491
		c-0.067,2.038,0.676,4.091,2.236,5.645c2.609,2.599,6.621,2.95,9.594,1.018c0.506,0.026,1.315,0.089,1.604,0.417
		c0.394,0.445-0.154,1.496,0.602,2.175l4.704,4.766c0,0,0.862,0.921,2.221-0.432c0.702-0.699,0.786-1.263,0.71-1.651
		c-0.066,0.326-0.264,0.713-0.71,1.157c-1.359,1.353-2.221,0.432-2.221,0.432l-4.704-4.766c-0.756-0.679-0.207-1.729-0.602-2.175
		c-0.289-0.327-1.099-0.391-1.604-0.417c-2.973,1.933-6.984,1.581-9.594-1.018C22.786,35.214,22.043,33.364,21.984,31.491z"/>
</g>
</svg>
