<?xml version="1.0" encoding="utf-8"?>
<!-- Generator: Adobe Illustrator 17.0.0, SVG Export Plug-In . SVG Version: 6.00 Build 0)  -->
<!DOCTYPE svg PUBLIC "-//W3C//DTD SVG 1.1//EN" "http://www.w3.org/Graphics/SVG/1.1/DTD/svg11.dtd">
<svg version="1.1" id="图层_1" xmlns="http://www.w3.org/2000/svg" xmlns:xlink="http://www.w3.org/1999/xlink" x="0px" y="0px"
	 width="48px" height="48px" viewBox="8 8 48 48" enable-background="new 8 8 48 48" xml:space="preserve">
<g id="g151" opacity="0.5">
	<path id="path153" opacity="0.08" enable-background="new    " d="M48.41,52.136H15.617c-3.019,0-5.48-2.367-5.48-5.266v4.028
		c0,2.265,1.925,4.102,4.283,4.102h35.185c2.358,0,4.256-1.836,4.256-4.102V46.87C53.861,49.77,51.428,52.136,48.41,52.136z"/>
	<path id="path155" opacity="0.1" enable-background="new    " d="M48.383,52.136H15.59c-3.018,0-5.451-2.323-5.451-5.222v2.107
		c0,2.265,1.039,5.025,5.25,5.025s28.929,0,33.195,0s5.279-2.76,5.279-5.025v-2.107C53.861,49.813,51.4,52.136,48.383,52.136z"/>
	<path id="path157" opacity="0.1" enable-background="new    " d="M48.383,52.136H15.59c-3.018,0-5.451-2.323-5.451-5.222v1.137
		c0,2.266,1.802,5.041,5.25,5.041s29.249,0,33.195,0c3.947,0,5.279-2.775,5.279-5.039v-1.137
		C53.861,49.813,51.4,52.136,48.383,52.136z"/>
	<rect id="rect159" x="15.107" y="52.136" opacity="0.05" enable-background="new    " width="33.786" height="0.955"/>
	<rect id="rect161" x="16.101" y="52.136" opacity="0.05" enable-background="new    " width="30.805" height="0.955"/>
	<rect id="rect163" x="16.101" y="53.091" opacity="0.05" enable-background="new    " width="30.805" height="0.955"/>
	<rect id="rect165" x="18.087" y="53.091" opacity="0.05" enable-background="new    " width="27.824" height="0.955"/>
	<rect id="rect167" x="21.069" y="53.091" opacity="0.05" enable-background="new    " width="21.862" height="0.955"/>
	<rect id="rect169" x="25.044" y="53.091" opacity="0.05" enable-background="new    " width="13.912" height="0.955"/>
	<rect id="rect171" x="18.087" y="52.136" opacity="0.05" enable-background="new    " width="27.824" height="0.955"/>
	<rect id="rect173" x="20.075" y="52.136" opacity="0.05" enable-background="new    " width="23.849" height="0.955"/>
	<rect id="rect175" x="21.069" y="52.136" opacity="0.05" enable-background="new    " width="21.862" height="0.955"/>
	<rect id="rect177" x="23.056" y="52.136" opacity="0.05" enable-background="new    " width="17.887" height="0.955"/>
	<rect id="rect179" x="23.056" y="52.136" opacity="0.05" enable-background="new    " width="17.887" height="0.955"/>
</g>
<path fill="#C4DCED" stroke="#9DBCD7" stroke-miterlimit="10" d="M53.466,46.281c0,3.121-2.531,5.652-5.652,5.652H16.185
	c-3.121,0-5.652-2.531-5.652-5.652V14.652c0-3.121,2.531-5.652,5.652-5.652h31.63c3.121,0,5.652,2.531,5.652,5.652L53.466,46.281
	L53.466,46.281z"/>
<path opacity="0.6" fill="none" stroke="#FFFFFF" stroke-miterlimit="10" d="M16.185,50.934c-2.565,0-4.652-2.087-4.652-4.652
	V14.652c0-2.565,2.087-4.652,4.652-4.652h31.629c2.565,0,4.652,2.087,4.652,4.652v31.629c0,2.565-2.087,4.652-4.652,4.652H16.185z"
	/>
<path opacity="0.08" fill="none" stroke="#000000" stroke-miterlimit="10" enable-background="new    " d="M53.627,21.193
	c0,0,0-1.899-1.876-1.899c-5.445,0-22.83,0.003-24.387,0.003c-1.891,0-1.876-1.872-1.876-1.872s0-1.885-1.876-1.885
	c-3.284,0-9.861,0-11.255,0c-1.847,0-1.876,1.816-1.876,1.873"/>
<path opacity="0.03" fill="none" stroke="#000000" stroke-miterlimit="10" enable-background="new    " d="M53.627,20.112
	c0,0,0-1.899-1.876-1.899c-5.445,0-22.83,0.003-24.387,0.003c-1.891,0-1.876-1.872-1.876-1.872s0-1.885-1.876-1.885
	c-3.284,0-9.861,0-11.255,0c-1.847,0-1.876,1.816-1.876,1.873"/>
<linearGradient id="SVGID_1_" gradientUnits="userSpaceOnUse" x1="1127.9993" y1="1377.9335" x2="1127.9993" y2="1342.5322" gradientTransform="matrix(1 0 0 1 -1096 -1326)">
	<stop  offset="0" style="stop-color:#D1E0ED"/>
	<stop  offset="1" style="stop-color:#E4EEFB"/>
</linearGradient>
<path fill="url(#SVGID_1_)" stroke="#9DBCD7" stroke-miterlimit="10" d="M16.172,51.933H47.92c3.121,0,5.546-2.595,5.546-5.717
	V20.871c0-0.445-0.665-0.864-1.55-0.864c-5.468,0-22.903,0.003-24.466,0.003c-1.899,0-1.87-1.733-1.87-1.733
	s0.013-1.745-1.871-1.745c-3.298,0-9.904,0-11.304,0c-1.855,0-1.872,1.538-1.872,1.596v28.089
	C10.533,49.338,13.051,51.933,16.172,51.933z"/>
<path opacity="0.8" fill="none" stroke="#FFFFFF" stroke-miterlimit="10" d="M16.172,50.934c-2.558,0-4.64-2.116-4.64-4.717V18.128
	c0.023-0.596,0.662-0.596,0.872-0.596h11.304c0.21,0,0.85,0,0.871,0.754c-0.002,0.091,0.003,1.14,0.779,1.928
	c0.357,0.363,1.01,0.796,2.092,0.796l24.466-0.003c0.263,0,0.446,0.055,0.551,0.102v25.107c0,2.601-2.04,4.717-4.547,4.717H16.172z"
	/>
<radialGradient id="SVGID_2_" cx="1506.46" cy="-1013.1687" r="34.4255" gradientTransform="matrix(0.0197 0.9998 -0.9109 0.018 -922.1061 -1463.46)" gradientUnits="userSpaceOnUse">
	<stop  offset="0" style="stop-color:#FFFFFF;stop-opacity:0.6"/>
	<stop  offset="0.3783" style="stop-color:#FAFCFE;stop-opacity:0.4487"/>
	<stop  offset="0.829" style="stop-color:#EBF3FC;stop-opacity:0.2684"/>
	<stop  offset="1" style="stop-color:#E4EEFB;stop-opacity:0.2"/>
</radialGradient>
<path fill="url(#SVGID_2_)" d="M16.172,51.181c-2.695,0-4.887-2.226-4.887-4.964V18.128c0-0.036,0.006-0.336,0.229-0.56
	c0.187-0.187,0.486-0.282,0.889-0.282h11.304c0.446,0,0.673,0.053,0.809,0.19c0.3,0.302,0.313,0.762,0.313,0.767
	c-0.001,0.099,0.004,1.081,0.732,1.82c0.464,0.471,1.1,0.709,1.89,0.709c0,0,20.898-0.008,24.461-0.008
	c0.471,0,0.731,0.162,0.798,0.239v25.214c0,2.738-2.15,4.964-4.793,4.964H16.172L16.172,51.181L16.172,51.181z"/>
<g id="g27_1_">
	
		<linearGradient id="path36_2_" gradientUnits="userSpaceOnUse" x1="1520.0824" y1="2152.541" x2="1526.0471" y2="2162.8721" gradientTransform="matrix(1 0 0 1 -1508 -2144)">
		<stop  offset="0" style="stop-color:#FFFFFF"/>
		<stop  offset="0.5" style="stop-color:#FFFFFF;stop-opacity:0.6"/>
		<stop  offset="1" style="stop-color:#FFFFFF;stop-opacity:0.15"/>
	</linearGradient>
	<path id="path36_1_" fill="url(#path36_2_)" d="M17,20.627c0.667-1.381,1.481-2.674,2.414-3.869l-1.699-3.725
		c-1.451,1.372-2.629,2.883-3.569,4.351L17,20.627z"/>
	
		<linearGradient id="path45_2_" gradientUnits="userSpaceOnUse" x1="1525.4906" y1="2150.9939" x2="1529.3943" y2="2157.7554" gradientTransform="matrix(1 0 0 1 -1508 -2144)">
		<stop  offset="0" style="stop-color:#FFFFFF"/>
		<stop  offset="0.5" style="stop-color:#FFFFFF;stop-opacity:0.6"/>
		<stop  offset="1" style="stop-color:#FFFFFF;stop-opacity:0.15"/>
	</linearGradient>
	<path id="path45_1_" fill="url(#path45_2_)" d="M17.178,9.452l0.888,1.946c0.854-0.709,1.791-0.954,2.812-1.946H17.178z"/>
	
		<linearGradient id="path54_2_" gradientUnits="userSpaceOnUse" x1="1526.7184" y1="2149.7102" x2="1531.4878" y2="2157.9709" gradientTransform="matrix(1 0 0 1 -1508 -2144)">
		<stop  offset="0" style="stop-color:#FFFFFF"/>
		<stop  offset="0.5" style="stop-color:#FFFFFF;stop-opacity:0.6"/>
		<stop  offset="1" style="stop-color:#FFFFFF;stop-opacity:0.15"/>
	</linearGradient>
	<path id="path54_1_" fill="url(#path54_2_)" d="M23.841,9.452h-0.703c-1.772,0.992-3.321,1.75-4.65,2.881l1.628,3.573
		c1.391-1.607,3.005-3.015,4.813-4.152c0.014-0.013,0.024-0.024,0.039-0.036C26.994,9.968,24.983,9.452,23.841,9.452z"/>
	
		<linearGradient id="path63_2_" gradientUnits="userSpaceOnUse" x1="1516.7354" y1="2157.2505" x2="1521.9113" y2="2166.2153" gradientTransform="matrix(1 0 0 1 -1508 -2144)">
		<stop  offset="0" style="stop-color:#FFFFFF"/>
		<stop  offset="0.5" style="stop-color:#FFFFFF;stop-opacity:0.6"/>
		<stop  offset="1" style="stop-color:#FFFFFF;stop-opacity:0.15"/>
	</linearGradient>
	<path id="path63_1_" fill="url(#path63_2_)" d="M13.606,18.269c-1.089,1.855-1.802,3.569-2.224,4.741
		c0.5,0.714,1.327,1.182,2.265,1.182c1.161,0,2.153-0.717,2.563-1.731c0.105-0.283,0.233-0.555,0.351-0.834L13.606,18.269z"/>
	
		<linearGradient id="path72_2_" gradientUnits="userSpaceOnUse" x1="1516.5024" y1="2157.6179" x2="1522.2385" y2="2167.5532" gradientTransform="matrix(1 0 0 1 -1508 -2144)">
		<stop  offset="0" style="stop-color:#FFFFFF"/>
		<stop  offset="0.5" style="stop-color:#FFFFFF;stop-opacity:0.6"/>
		<stop  offset="1" style="stop-color:#FFFFFF;stop-opacity:0.15"/>
	</linearGradient>
	<path id="path72_1_" fill="url(#path72_2_)" d="M10.901,15.192l-0.021,6.229c0,0,0,0.002,0,0.004c0,0.039,0.01,0.076,0.012,0.114
		c0.474-1.152,1.135-2.56,2.031-4.048L10.901,15.192z"/>
	
		<linearGradient id="path149_2_" gradientUnits="userSpaceOnUse" x1="1520.8402" y1="2154.5063" x2="1526.2263" y2="2163.8357" gradientTransform="matrix(1 0 0 1 -1508 -2144)">
		<stop  offset="0" style="stop-color:#FFFFFF"/>
		<stop  offset="0.5" style="stop-color:#FFFFFF;stop-opacity:0.6"/>
		<stop  offset="1" style="stop-color:#FFFFFF;stop-opacity:0.15"/>
	</linearGradient>
	<path id="path149_1_" fill="url(#path149_2_)" d="M15.994,9.464c-2.024-0.168-4.689,2.111-5.03,4.297l2.511,2.855
		c1.002-1.53,2.248-3.096,3.786-4.512L15.994,9.464z"/>
</g>
<g>
	<g opacity="0.3" enable-background="new    ">
		<g opacity="0.5">
			<circle fill="#FFFFFF" cx="40.62" cy="31.9" r="1.745"/>
		</g>
		<g>
			<circle fill="#669CCC" cx="40.62" cy="31.063" r="1.745"/>
		</g>
	</g>
	<path opacity="0.3" fill="#669CCC" enable-background="new    " d="M40.62,29.318c-0.964,0-1.745,0.781-1.745,1.745
		c0,0.964,0.781,1.745,1.745,1.745s1.745-0.781,1.745-1.745C42.365,30.099,41.584,29.318,40.62,29.318z M40.62,32.371
		c-0.722,0-1.309-0.587-1.309-1.309c0-0.722,0.587-1.309,1.309-1.309s1.309,0.587,1.309,1.309
		C41.928,31.784,41.342,32.371,40.62,32.371z"/>
	<g>
		<path opacity="0.1" fill="#669CCC" enable-background="new    " d="M45.882,44.151c0,0.462-0.375,0.837-0.837,0.837H18.944
			c-0.462,0-0.837-0.375-0.837-0.837V25.117c0-0.462,0.375-0.837,0.837-0.837h26.101c0.462,0,0.837,0.375,0.837,0.837V44.151
			L45.882,44.151z"/>
		<path opacity="0.3" fill="#669CCC" enable-background="new    " d="M45.046,24.281H18.944c-0.462,0-0.837,0.375-0.837,0.837
			v19.033c0,0.462,0.375,0.837,0.837,0.837h26.101c0.462,0,0.837-0.375,0.837-0.837V25.117
			C45.882,24.656,45.507,24.281,45.046,24.281z M45.464,44.151c0,0.231-0.188,0.418-0.418,0.418h-26.1
			c-0.231,0-0.418-0.188-0.418-0.418V25.117c0-0.231,0.188-0.418,0.418-0.418h26.101c0.231,0,0.418,0.188,0.418,0.418L45.464,44.151
			L45.464,44.151z"/>
	</g>
	<g>
		<g opacity="0.1" enable-background="new    ">
			<g>
				<path fill="#FFFFFF" d="M30.405,33.013c0,0-1.679-1.028-1.798-1.344c-0.119-0.316-1.847-0.593-1.847-0.593l-0.613,0.395
					l-0.692,1.146v-0.079c0,0-0.152-0.324-0.429-0.601c-0.458-0.172-1.738,3.43-3.393,3.43h-0.158l-0.513-0.071l-0.395-0.391
					l-0.712-0.828l-0.474,0.396c0,0-0.593,0.317-0.75,0.475s-0.503,0.277-0.503,0.277l-0.071-0.088v9.746
					c0,0.462,0.375,0.837,0.837,0.837h26.101c0.462,0,0.837-0.375,0.837-0.837v-4.372C40.82,39.682,33.902,37.29,30.405,33.013z"/>
			</g>
			<g>
				<path fill="#669CCC" d="M30.405,32.177c0,0-1.679-1.028-1.798-1.344c-0.119-0.316-1.847-0.593-1.847-0.593l-0.613,0.395
					l-0.692,1.146v-0.079c0,0-0.152-0.324-0.429-0.601c-0.458-0.172-1.738,3.43-3.393,3.43h-0.158l-0.513-0.071l-0.395-0.391
					l-0.712-0.828l-0.474,0.396c0,0-0.593,0.317-0.75,0.475c-0.158,0.158-0.503,0.277-0.503,0.277l-0.071-0.088v9.746
					c0,0.462,0.375,0.837,0.837,0.837h26.101c0.462,0,0.837-0.375,0.837-0.837v-4.372C40.82,38.846,33.902,36.454,30.405,32.177z"/>
			</g>
		</g>
		<path opacity="0.3" fill="#669CCC" enable-background="new    " d="M30.405,32.177c0,0-1.679-1.028-1.798-1.344
			c-0.119-0.316-1.847-0.593-1.847-0.593l-0.613,0.395l-0.692,1.146v-0.079c0,0-0.152-0.324-0.429-0.601
			c-0.458-0.172-1.738,3.43-3.393,3.43h-0.158l-0.513-0.071l-0.395-0.391l-0.712-0.828l-0.474,0.396c0,0-0.593,0.317-0.75,0.475
			c-0.158,0.158-0.503,0.277-0.503,0.277l-0.071-0.088v9.746c0,0.462,0.375,0.837,0.837,0.837h26.101
			c0.462,0,0.837-0.375,0.837-0.837v-4.372C40.82,38.846,33.902,36.454,30.405,32.177z M45.412,44.047
			c0,0.231-0.188,0.418-0.418,0.418h-26.1c-0.231,0-0.418-0.188-0.418-0.418v-9.348c0.143-0.065,0.325-0.165,0.452-0.291
			c0.063-0.063,0.369-0.25,0.652-0.402l0.038-0.02l0.19-0.159l0.443,0.515l0.517,0.514l0.68,0.094h0.186
			c1.276,0,2.23-1.529,2.927-2.646c0.131-0.208,0.281-0.45,0.4-0.619c0.031,0.047,0.057,0.09,0.076,0.123v1.476l1.418-2.348
			l0.395-0.255c0.618,0.109,1.228,0.273,1.401,0.377c0.094,0.167,0.426,0.548,1.875,1.439c3.458,4.179,10.086,6.614,15.285,7.532
			L45.412,44.047L45.412,44.047z"/>
	</g>
	<path opacity="0.1" fill="#669CCC" enable-background="new    " d="M34.564,40.218c-5.406,0.183-13.823,1.751-16.395,2.248v1.581
		c0,0.462,0.375,0.837,0.837,0.837h26.1c0.462,0,0.837-0.375,0.837-0.837V37.26C44.135,37.779,40.495,40.017,34.564,40.218z"/>
	<path opacity="0.3" fill="#669CCC" enable-background="new    " d="M34.555,40.218c-5.406,0.183-13.823,1.751-16.395,2.248v1.581
		c0,0.462,0.375,0.837,0.837,0.837h26.1c0.462,0,0.837-0.375,0.837-0.837V37.26C44.126,37.779,40.487,40.017,34.555,40.218z
		 M45.515,44.047c0,0.231-0.188,0.418-0.418,0.418h-26.1c-0.231,0-0.418-0.188-0.418-0.418v-1.235
		c3.38-0.646,10.986-2.006,15.991-2.176c4.57-0.155,7.766-1.483,9.881-2.363c0.392-0.163,0.75-0.311,1.064-0.43
		C45.515,37.843,45.515,44.047,45.515,44.047z"/>
</g>
</svg>
