<?xml version="1.0" encoding="utf-8"?>
<!-- Generator: Adobe Illustrator 17.0.0, SVG Export Plug-In . SVG Version: 6.00 Build 0)  -->
<!DOCTYPE svg PUBLIC "-//W3C//DTD SVG 1.1//EN" "http://www.w3.org/Graphics/SVG/1.1/DTD/svg11.dtd">
<svg version="1.1" id="图层_1" xmlns="http://www.w3.org/2000/svg" xmlns:xlink="http://www.w3.org/1999/xlink" x="0px" y="0px"
	 width="48px" height="48px" viewBox="8 8 48 48" enable-background="new 8 8 48 48" xml:space="preserve">
<g id="g151" opacity="0.5">
	<path id="path153" opacity="0.08" enable-background="new    " d="M48.41,52.136H15.617c-3.019,0-5.48-2.367-5.48-5.266v4.028
		c0,2.265,1.925,4.102,4.283,4.102h35.185c2.358,0,4.256-1.836,4.256-4.102V46.87C53.861,49.77,51.428,52.136,48.41,52.136z"/>
	<path id="path155" opacity="0.1" enable-background="new    " d="M48.383,52.136H15.59c-3.018,0-5.451-2.323-5.451-5.222v2.107
		c0,2.265,1.039,5.025,5.25,5.025s28.929,0,33.195,0s5.279-2.76,5.279-5.025v-2.107C53.861,49.813,51.4,52.136,48.383,52.136z"/>
	<path id="path157" opacity="0.1" enable-background="new    " d="M48.383,52.136H15.59c-3.018,0-5.451-2.323-5.451-5.222v1.137
		c0,2.266,1.802,5.041,5.25,5.041s29.249,0,33.195,0c3.947,0,5.279-2.775,5.279-5.039v-1.137
		C53.861,49.813,51.4,52.136,48.383,52.136z"/>
	<rect id="rect159" x="15.107" y="52.136" opacity="0.05" enable-background="new    " width="33.786" height="0.955"/>
	<rect id="rect161" x="16.101" y="52.136" opacity="0.05" enable-background="new    " width="30.805" height="0.955"/>
	<rect id="rect163" x="16.101" y="53.091" opacity="0.05" enable-background="new    " width="30.805" height="0.955"/>
	<rect id="rect165" x="18.087" y="53.091" opacity="0.05" enable-background="new    " width="27.824" height="0.955"/>
	<rect id="rect167" x="21.069" y="53.091" opacity="0.05" enable-background="new    " width="21.862" height="0.955"/>
	<rect id="rect169" x="25.044" y="53.091" opacity="0.05" enable-background="new    " width="13.912" height="0.955"/>
	<rect id="rect171" x="18.087" y="52.136" opacity="0.05" enable-background="new    " width="27.824" height="0.955"/>
	<rect id="rect173" x="20.075" y="52.136" opacity="0.05" enable-background="new    " width="23.849" height="0.955"/>
	<rect id="rect175" x="21.069" y="52.136" opacity="0.05" enable-background="new    " width="21.862" height="0.955"/>
	<rect id="rect177" x="23.056" y="52.136" opacity="0.05" enable-background="new    " width="17.887" height="0.955"/>
	<rect id="rect179" x="23.056" y="52.136" opacity="0.05" enable-background="new    " width="17.887" height="0.955"/>
</g>
<path fill="#C4DCED" stroke="#9DBCD7" stroke-miterlimit="10" d="M53.466,46.281c0,3.121-2.531,5.652-5.652,5.652H16.185
	c-3.121,0-5.652-2.531-5.652-5.652V14.652c0-3.121,2.531-5.652,5.652-5.652h31.63c3.121,0,5.652,2.531,5.652,5.652L53.466,46.281
	L53.466,46.281z"/>
<path opacity="0.6" fill="none" stroke="#FFFFFF" stroke-miterlimit="10" d="M16.185,50.934c-2.565,0-4.652-2.087-4.652-4.652
	V14.652c0-2.565,2.087-4.652,4.652-4.652h31.629c2.565,0,4.652,2.087,4.652,4.652v31.629c0,2.565-2.087,4.652-4.652,4.652H16.185z"
	/>
<path opacity="0.08" fill="none" stroke="#000000" stroke-miterlimit="10" enable-background="new    " d="M53.627,21.193
	c0,0,0-1.899-1.876-1.899c-5.445,0-22.83,0.003-24.387,0.003c-1.891,0-1.876-1.872-1.876-1.872s0-1.885-1.876-1.885
	c-3.284,0-9.861,0-11.255,0c-1.847,0-1.876,1.816-1.876,1.873"/>
<path opacity="0.03" fill="none" stroke="#000000" stroke-miterlimit="10" enable-background="new    " d="M53.627,20.112
	c0,0,0-1.899-1.876-1.899c-5.445,0-22.83,0.003-24.387,0.003c-1.891,0-1.876-1.872-1.876-1.872s0-1.885-1.876-1.885
	c-3.284,0-9.861,0-11.255,0c-1.847,0-1.876,1.816-1.876,1.873"/>
<linearGradient id="SVGID_1_" gradientUnits="userSpaceOnUse" x1="1127.9993" y1="1377.9335" x2="1127.9993" y2="1342.5322" gradientTransform="matrix(1 0 0 1 -1096 -1326)">
	<stop  offset="0" style="stop-color:#D1E0ED"/>
	<stop  offset="1" style="stop-color:#E4EEFB"/>
</linearGradient>
<path fill="url(#SVGID_1_)" stroke="#9DBCD7" stroke-miterlimit="10" d="M16.172,51.933H47.92c3.121,0,5.546-2.595,5.546-5.717
	V20.871c0-0.445-0.665-0.864-1.55-0.864c-5.468,0-22.903,0.003-24.466,0.003c-1.899,0-1.87-1.733-1.87-1.733
	s0.013-1.745-1.871-1.745c-3.298,0-9.904,0-11.304,0c-1.855,0-1.872,1.538-1.872,1.596v28.089
	C10.533,49.338,13.051,51.933,16.172,51.933z"/>
<path opacity="0.8" fill="none" stroke="#FFFFFF" stroke-miterlimit="10" d="M16.172,50.934c-2.558,0-4.64-2.116-4.64-4.717V18.128
	c0.023-0.596,0.662-0.596,0.872-0.596h11.304c0.21,0,0.85,0,0.871,0.754c-0.002,0.091,0.003,1.14,0.779,1.928
	c0.357,0.363,1.01,0.796,2.092,0.796l24.466-0.003c0.263,0,0.446,0.055,0.551,0.102v25.107c0,2.601-2.04,4.717-4.547,4.717H16.172z"
	/>
<radialGradient id="SVGID_2_" cx="1506.46" cy="-1013.1687" r="34.4255" gradientTransform="matrix(0.0197 0.9998 -0.9109 0.018 -922.1061 -1463.46)" gradientUnits="userSpaceOnUse">
	<stop  offset="0" style="stop-color:#FFFFFF;stop-opacity:0.6"/>
	<stop  offset="0.3783" style="stop-color:#FAFCFE;stop-opacity:0.4487"/>
	<stop  offset="0.829" style="stop-color:#EBF3FC;stop-opacity:0.2684"/>
	<stop  offset="1" style="stop-color:#E4EEFB;stop-opacity:0.2"/>
</radialGradient>
<path fill="url(#SVGID_2_)" d="M16.172,51.181c-2.695,0-4.887-2.226-4.887-4.964V18.128c0-0.036,0.006-0.336,0.229-0.56
	c0.187-0.187,0.486-0.282,0.889-0.282h11.304c0.446,0,0.673,0.053,0.809,0.19c0.3,0.302,0.313,0.762,0.313,0.767
	c-0.001,0.099,0.004,1.081,0.732,1.82c0.464,0.471,1.1,0.709,1.89,0.709c0,0,20.898-0.008,24.461-0.008
	c0.471,0,0.731,0.162,0.798,0.239v25.214c0,2.738-2.15,4.964-4.793,4.964H16.172L16.172,51.181L16.172,51.181z"/>
<g id="g27_1_">
	
		<linearGradient id="path36_2_" gradientUnits="userSpaceOnUse" x1="1520.0824" y1="2152.541" x2="1526.0471" y2="2162.8721" gradientTransform="matrix(1 0 0 1 -1508 -2144)">
		<stop  offset="0" style="stop-color:#FFFFFF"/>
		<stop  offset="0.5" style="stop-color:#FFFFFF;stop-opacity:0.6"/>
		<stop  offset="1" style="stop-color:#FFFFFF;stop-opacity:0.15"/>
	</linearGradient>
	<path id="path36_1_" fill="url(#path36_2_)" d="M17,20.627c0.667-1.381,1.481-2.674,2.414-3.869l-1.699-3.725
		c-1.451,1.372-2.629,2.883-3.569,4.351L17,20.627z"/>
	
		<linearGradient id="path45_2_" gradientUnits="userSpaceOnUse" x1="1525.4906" y1="2150.9939" x2="1529.3943" y2="2157.7554" gradientTransform="matrix(1 0 0 1 -1508 -2144)">
		<stop  offset="0" style="stop-color:#FFFFFF"/>
		<stop  offset="0.5" style="stop-color:#FFFFFF;stop-opacity:0.6"/>
		<stop  offset="1" style="stop-color:#FFFFFF;stop-opacity:0.15"/>
	</linearGradient>
	<path id="path45_1_" fill="url(#path45_2_)" d="M17.178,9.452l0.888,1.946c0.854-0.709,1.791-0.954,2.812-1.946H17.178z"/>
	
		<linearGradient id="path54_2_" gradientUnits="userSpaceOnUse" x1="1526.7184" y1="2149.7102" x2="1531.4878" y2="2157.9709" gradientTransform="matrix(1 0 0 1 -1508 -2144)">
		<stop  offset="0" style="stop-color:#FFFFFF"/>
		<stop  offset="0.5" style="stop-color:#FFFFFF;stop-opacity:0.6"/>
		<stop  offset="1" style="stop-color:#FFFFFF;stop-opacity:0.15"/>
	</linearGradient>
	<path id="path54_1_" fill="url(#path54_2_)" d="M23.841,9.452h-0.703c-1.772,0.992-3.321,1.75-4.65,2.881l1.628,3.573
		c1.391-1.607,3.005-3.015,4.813-4.152c0.014-0.013,0.024-0.024,0.039-0.036C26.994,9.968,24.983,9.452,23.841,9.452z"/>
	
		<linearGradient id="path63_2_" gradientUnits="userSpaceOnUse" x1="1516.7354" y1="2157.2505" x2="1521.9113" y2="2166.2153" gradientTransform="matrix(1 0 0 1 -1508 -2144)">
		<stop  offset="0" style="stop-color:#FFFFFF"/>
		<stop  offset="0.5" style="stop-color:#FFFFFF;stop-opacity:0.6"/>
		<stop  offset="1" style="stop-color:#FFFFFF;stop-opacity:0.15"/>
	</linearGradient>
	<path id="path63_1_" fill="url(#path63_2_)" d="M13.606,18.269c-1.089,1.855-1.802,3.569-2.224,4.741
		c0.5,0.714,1.327,1.182,2.265,1.182c1.161,0,2.153-0.717,2.563-1.731c0.105-0.283,0.233-0.555,0.351-0.834L13.606,18.269z"/>
	
		<linearGradient id="path72_2_" gradientUnits="userSpaceOnUse" x1="1516.5024" y1="2157.6179" x2="1522.2385" y2="2167.5532" gradientTransform="matrix(1 0 0 1 -1508 -2144)">
		<stop  offset="0" style="stop-color:#FFFFFF"/>
		<stop  offset="0.5" style="stop-color:#FFFFFF;stop-opacity:0.6"/>
		<stop  offset="1" style="stop-color:#FFFFFF;stop-opacity:0.15"/>
	</linearGradient>
	<path id="path72_1_" fill="url(#path72_2_)" d="M10.901,15.192l-0.021,6.229c0,0,0,0.002,0,0.004c0,0.039,0.01,0.076,0.012,0.114
		c0.474-1.152,1.135-2.56,2.031-4.048L10.901,15.192z"/>
	
		<linearGradient id="path149_2_" gradientUnits="userSpaceOnUse" x1="1520.8402" y1="2154.5063" x2="1526.2263" y2="2163.8357" gradientTransform="matrix(1 0 0 1 -1508 -2144)">
		<stop  offset="0" style="stop-color:#FFFFFF"/>
		<stop  offset="0.5" style="stop-color:#FFFFFF;stop-opacity:0.6"/>
		<stop  offset="1" style="stop-color:#FFFFFF;stop-opacity:0.15"/>
	</linearGradient>
	<path id="path149_1_" fill="url(#path149_2_)" d="M15.994,9.464c-2.024-0.168-4.689,2.111-5.03,4.297l2.511,2.855
		c1.002-1.53,2.248-3.096,3.786-4.512L15.994,9.464z"/>
</g>
<g>
	<path opacity="0.3" fill="#669CCC" enable-background="new    " d="M32.008,26.704c-4.376,0-8.75,1.674-12.089,5.014l2.009,2.011
		c5.567-5.567,14.593-5.567,20.159,0l2.011-2.011C40.758,28.378,36.385,26.704,32.008,26.704z M32.008,32.405
		c-2.917,0-5.842,1.107-8.067,3.334l2.023,2.023c3.339-3.339,8.751-3.339,12.089,0l2.023-2.023
		C37.851,33.513,34.927,32.405,32.008,32.405z M32.008,38.108c-1.459,0-2.919,0.553-4.033,1.667l4.033,4.033l4.034-4.033
		C34.929,38.66,33.466,38.108,32.008,38.108z"/>
	<path opacity="0.3" fill="#669CCC" enable-background="new    " d="M32.008,26.704c-4.376,0-8.75,1.674-12.089,5.014l2.009,2.011
		c5.567-5.567,14.593-5.567,20.159,0l2.011-2.011C40.758,28.378,36.385,26.704,32.008,26.704z M32.008,27.493
		c3.924,0,7.817,1.46,10.919,4.276l-0.89,0.89c-5.703-5.127-14.353-5.127-20.056,0l-0.892-0.89
		C24.192,28.953,28.084,27.493,32.008,27.493z M32.008,32.405c-2.917,0-5.842,1.107-8.067,3.334l2.023,2.023
		c3.339-3.339,8.751-3.339,12.089,0l2.023-2.023C37.851,33.513,34.927,32.405,32.008,32.405z M32.008,33.195
		c2.468,0,4.915,0.888,6.899,2.596l-0.903,0.903c-3.465-2.917-8.526-2.917-11.989,0l-0.903-0.903
		C27.096,34.083,29.542,33.195,32.008,33.195z M32.008,38.108c-1.459,0-2.919,0.553-4.033,1.667l4.033,4.033l4.034-4.033
		C34.929,38.66,33.466,38.108,32.008,38.108z M32.008,38.896c0.999,0,1.953,0.39,2.803,0.992l-2.803,2.8l-2.799-2.8
		C30.057,39.286,31.009,38.896,32.008,38.896z"/>
	<path opacity="0.3" fill="#669CCC" enable-background="new    " d="M32.008,26.704c-4.376,0-8.75,1.674-12.089,5.014l2.009,2.011
		c5.567-5.567,14.593-5.567,20.159,0l2.011-2.011C40.758,28.378,36.385,26.704,32.008,26.704z M32.008,27.124
		c4.141,0,8.262,1.557,11.481,4.619l-1.425,1.425c-5.645-5.333-14.464-5.333-20.107,0l-1.427-1.425
		C23.749,28.682,27.869,27.124,32.008,27.124z M32.008,32.405c-2.917,0-5.842,1.107-8.067,3.334l2.023,2.023
		c3.339-3.339,8.751-3.339,12.089,0l2.023-2.023C37.851,33.513,34.927,32.405,32.008,32.405z M32.008,32.826
		c2.682,0,5.355,0.99,7.458,2.939l-1.438,1.438c-3.414-3.11-8.627-3.11-12.039,0l-1.439-1.438
		C26.654,33.815,29.326,32.826,32.008,32.826z M32.008,38.108c-1.459,0-2.919,0.553-4.033,1.667l4.033,4.033l4.034-4.033
		C34.929,38.66,33.466,38.108,32.008,38.108z M32.008,38.527c1.223,0,2.441,0.433,3.425,1.273l-3.425,3.423l-3.422-3.423
		C29.57,38.959,30.786,38.527,32.008,38.527z"/>
	<path opacity="0.3" fill="#669CCC" enable-background="new    " d="M32.008,26.704c-4.376,0-8.75,1.674-12.089,5.014l0.203,0.204
		c3.314-3.204,7.599-4.81,11.885-4.81c4.29,0,8.575,1.606,11.889,4.81l0.203-0.204C40.758,28.378,36.385,26.704,32.008,26.704z
		 M32.008,32.405c-2.917,0-5.842,1.107-8.067,3.334l0.203,0.203c2.2-2.09,5.036-3.13,7.864-3.13c2.829,0,5.667,1.04,7.866,3.13
		l0.203-0.203C37.851,33.513,34.927,32.405,32.008,32.405z M32.008,38.108c-1.459,0-2.919,0.553-4.033,1.667l0.217,0.216
		c1.083-0.979,2.449-1.476,3.817-1.476c1.371,0,2.737,0.497,3.819,1.476l0.215-0.216C34.929,38.66,33.466,38.108,32.008,38.108z"/>
	<path opacity="0.3" fill="#FFFFFF" enable-background="new    " d="M32.008,25.889c-4.583,0-9.168,1.762-12.661,5.256
		c-0.002,0-0.025,0.025-0.025,0.025c-0.002,0-0.025,0.038-0.025,0.038c-0.002,0.001-0.027,0.025-0.027,0.025
		c0,0.001-0.025,0.038-0.025,0.038c0,0.001-0.025,0.025-0.025,0.025c0,0.002-0.012,0.038-0.012,0.04
		c-0.002,0-0.027,0.038-0.027,0.038l-0.012,0.038c0,0.001-0.014,0.038-0.014,0.038c0,0-0.014,0.024-0.014,0.025
		c0,0.001-0.012,0.038-0.012,0.038c0,0.001-0.012,0.051-0.012,0.051c0,0.001,0,0.038,0,0.038c0,0.001-0.014,0.038-0.014,0.038
		s0,0.038,0,0.038c0,0.001,0,0.038,0,0.038c0,0,0,0.038,0,0.038c0,0.001,0,0.038,0,0.038c0,0.001,0.014,0.038,0.014,0.038v0.038
		c0,0.002,0.012,0.051,0.012,0.052c0,0,0.012,0.038,0.012,0.038c0,0.001,0.014,0.025,0.014,0.025c0,0.002,0.014,0.039,0.014,0.04
		l0.012,0.038c0,0.001,0.025,0.038,0.027,0.038c0,0.001,0.012,0.038,0.012,0.039l0.025,0.025c0,0.001,0.025,0.038,0.025,0.038
		c0,0,0.025,0.025,0.027,0.025c0,0,0.023,0.038,0.025,0.038c0,0.001,0.023,0.025,0.025,0.025l2.009,2.011
		c0.002,0,0.025,0.023,0.025,0.025c0.002,0,0.038,0.023,0.038,0.025c0,0.001,0.025,0.025,0.025,0.025
		c0.002,0,0.036,0.025,0.038,0.025c0,0.001,0.025,0.025,0.025,0.025c0,0,0.036,0.013,0.038,0.013c0,0,0.036,0.025,0.038,0.025
		l0.036,0.014c0.002,0,0.036,0.012,0.038,0.012c0.002,0,0.025,0.014,0.027,0.014l0.036,0.013c0.002,0,0.051,0.012,0.053,0.012h0.036
		c0.002,0,0.036,0.014,0.038,0.014c0,0,0.036,0,0.038,0h0.036c0.002,0,0.038,0,0.038,0s0.036,0,0.038,0c0,0,0.036-0.014,0.038-0.014
		h0.036c0.002,0,0.051-0.012,0.053-0.012l0.036-0.013c0.002,0,0.025-0.014,0.025-0.014c0.002,0,0.038-0.012,0.038-0.012l0.038-0.014
		c0,0,0.036-0.025,0.038-0.025l0.036-0.013c0.002-0.001,0.025-0.025,0.025-0.025c0.002,0,0.038-0.025,0.038-0.025
		s0.025-0.024,0.025-0.025c0.002-0.001,0.038-0.025,0.038-0.025c0-0.001,0.025-0.025,0.025-0.025c5.256-5.256,13.758-5.256,19.016,0
		c0,0,0.023,0.023,0.023,0.025c0.002,0,0.039,0.023,0.039,0.025c0.002,0.001,0.025,0.025,0.027,0.025L41.63,34.4
		c0.002,0.001,0.025,0.025,0.025,0.025c0.002,0.001,0.036,0.013,0.039,0.013l0.038,0.025c0,0,0.036,0.014,0.039,0.014l0.036,0.012
		c0.002,0,0.025,0.014,0.025,0.014c0.002,0,0.038,0.013,0.038,0.013l0.051,0.012c0.002,0,0.039,0,0.039,0l0.038,0.014
		c0,0,0.036,0,0.039,0h0.036c0.002,0,0.038,0,0.038,0c0.002,0,0.036,0,0.039,0l0.036-0.014c0.002,0,0.038,0,0.038,0
		c0.002,0,0.051-0.012,0.051-0.012c0.002,0,0.038-0.013,0.038-0.013c0.002,0,0.025-0.014,0.025-0.014
		c0.002,0,0.038-0.012,0.038-0.012c0.002,0,0.036-0.014,0.039-0.014l0.036-0.025c0.002,0,0.038-0.012,0.038-0.012
		c0.002-0.002,0.025-0.025,0.027-0.027l0.036-0.025c0.002,0,0.025-0.024,0.027-0.025c0-0.001,0.036-0.025,0.036-0.025
		c0.002-0.001,0.025-0.025,0.025-0.025l2.009-2.011c0.002,0,0.025-0.025,0.027-0.025c0.002,0,0.023-0.038,0.025-0.038
		c0-0.001,0.025-0.025,0.025-0.025c0.002-0.001,0.025-0.038,0.025-0.038c0.002,0,0.027-0.025,0.027-0.025
		c0-0.001,0.012-0.039,0.012-0.04c0,0,0.025-0.038,0.025-0.038c0.002,0,0.014-0.038,0.014-0.038c0-0.001,0.012-0.038,0.012-0.039
		c0,0,0.014-0.025,0.014-0.025c0-0.001,0.014-0.038,0.014-0.038c0-0.001,0.012-0.049,0.012-0.052v-0.038
		c0-0.001,0.014-0.038,0.014-0.038c0,0,0-0.038,0-0.038s0-0.038,0-0.038c0-0.001,0-0.038,0-0.038c0,0,0-0.038,0-0.038
		s-0.014-0.038-0.014-0.038c0,0,0-0.038,0-0.038c0,0-0.012-0.049-0.012-0.051c0,0-0.014-0.038-0.014-0.038s-0.014-0.025-0.014-0.025
		c0-0.001-0.012-0.038-0.012-0.04c0,0-0.012-0.038-0.014-0.038c0-0.001-0.025-0.038-0.025-0.038s-0.012-0.038-0.012-0.038
		c0,0-0.025-0.024-0.027-0.025c0-0.001-0.023-0.038-0.025-0.038c0,0-0.025-0.025-0.025-0.025c-0.002,0-0.023-0.038-0.025-0.038
		c-0.002-0.001-0.025-0.025-0.027-0.025C41.175,27.652,36.592,25.889,32.008,25.889L32.008,25.889z M32.008,26.704
		c4.379,0,8.751,1.674,12.092,5.014l-2.011,2.011c-5.565-5.567-14.591-5.567-20.159,0l-2.009-2.011
		C23.258,28.378,27.632,26.704,32.008,26.704z M32.008,31.592c-3.122,0-6.256,1.192-8.642,3.576l-0.023,0.025
		c-0.002,0.001-0.025,0.038-0.027,0.039c0,0.001-0.023,0.024-0.025,0.025l-0.025,0.036c0,0.002-0.025,0.025-0.025,0.026
		s-0.014,0.036-0.014,0.038l-0.025,0.038c0,0.001-0.012,0.037-0.014,0.039c0,0-0.012,0.036-0.012,0.038
		c0,0.001-0.014,0.024-0.014,0.025c0,0.001-0.012,0.038-0.012,0.039c0,0-0.014,0.049-0.014,0.051s0,0.038,0,0.038l-0.012,0.038
		c0,0.001,0,0.036,0,0.038c0,0.001,0,0.036,0,0.038c0,0.001,0,0.038,0,0.038c0,0.002,0,0.038,0,0.04l0.012,0.036
		c0,0.002,0,0.038,0,0.038c0,0.001,0.014,0.051,0.014,0.051c0,0.002,0.012,0.038,0.012,0.039s0.014,0.025,0.014,0.025
		c0,0.001,0.012,0.038,0.012,0.038c0.002,0.001,0.014,0.036,0.014,0.039l0.025,0.036c0,0.002,0.014,0.038,0.014,0.038
		c0,0.001,0.025,0.025,0.025,0.025l0.025,0.038c0,0.001,0.025,0.025,0.025,0.025c0.002,0.001,0.025,0.038,0.027,0.038
		c0,0.001,0.023,0.025,0.023,0.025l2.023,2.023c0.002,0.001,0.025,0.025,0.027,0.025c0,0.001,0.036,0.025,0.036,0.026
		c0.002,0,0.025,0.023,0.025,0.025c0.002,0.001,0.038,0.025,0.038,0.025c0.002,0.001,0.025,0.025,0.027,0.025l0.036,0.013
		c0.002,0,0.036,0.025,0.038,0.025c0,0.001,0.036,0.012,0.038,0.012c0,0.001,0.036,0.013,0.036,0.013
		c0.002,0,0.025,0.014,0.027,0.014l0.036,0.013c0.002,0,0.051,0.013,0.053,0.013h0.036c0.002,0,0.036,0.012,0.038,0.012
		c0.002,0,0.036,0,0.038,0c0,0,0.036,0,0.038,0c0,0,0.036,0,0.038,0h0.036c0.002,0,0.036-0.012,0.038-0.012c0,0,0.036,0,0.038,0
		c0,0,0.049-0.013,0.051-0.013c0,0,0.036-0.013,0.038-0.013c0,0,0.023-0.014,0.025-0.014c0,0,0.036-0.012,0.038-0.013
		c0,0,0.036-0.012,0.036-0.012c0.002,0,0.036-0.025,0.038-0.025c0,0,0.036-0.013,0.038-0.013c0-0.001,0.025-0.025,0.025-0.025
		c0,0,0.036-0.024,0.038-0.025c0-0.001,0.023-0.025,0.025-0.025c0-0.001,0.036-0.025,0.036-0.026c0.002,0,0.025-0.023,0.027-0.025
		c3.03-3.03,7.915-3.03,10.944,0c0,0.001,0.025,0.025,0.025,0.025c0.002,0.001,0.036,0.025,0.038,0.026c0,0,0.023,0.023,0.025,0.025
		c0,0.001,0.038,0.025,0.038,0.025c0,0.001,0.025,0.025,0.025,0.025c0,0,0.036,0.013,0.039,0.013l0.036,0.025
		c0.002,0.001,0.038,0.012,0.038,0.012c0,0.001,0.039,0.013,0.039,0.013l0.025,0.014c0,0,0.036,0.013,0.039,0.013l0.051,0.013
		c0.002,0,0.036,0,0.039,0l0.036,0.012c0.002,0,0.038,0,0.038,0c0.002,0,0.039,0,0.039,0s0.036,0,0.038,0h0.036
		c0.002,0,0.039-0.012,0.039-0.012c0.002,0,0.036,0,0.038,0l0.051-0.013c0.002,0,0.036-0.013,0.039-0.013l0.025-0.014
		c0,0,0.036-0.012,0.038-0.013c0.002,0,0.036-0.012,0.039-0.012l0.036-0.025c0.002,0,0.036-0.013,0.038-0.013
		c0.002-0.001,0.025-0.025,0.025-0.025c0.002,0,0.036-0.024,0.039-0.025c0.002-0.001,0.023-0.025,0.025-0.025
		c0.002-0.001,0.036-0.025,0.039-0.026c0,0,0.025-0.023,0.025-0.025l2.023-2.023c0.002,0,0.023-0.023,0.025-0.025
		c0.002-0.001,0.025-0.038,0.025-0.038c0.002,0,0.025-0.024,0.025-0.025c0.002,0,0.027-0.038,0.027-0.038
		c0-0.001,0.025-0.025,0.025-0.025c0-0.001,0.012-0.036,0.012-0.038c0.002,0,0.025-0.036,0.025-0.036
		c0.002-0.002,0.014-0.038,0.014-0.039s0.014-0.038,0.014-0.038c0,0,0.012-0.024,0.012-0.025c0-0.001,0.014-0.037,0.014-0.039
		c0,0,0.014-0.049,0.014-0.051c0-0.001,0-0.036,0-0.038l0.012-0.036c0-0.002,0-0.038,0-0.04c0,0,0-0.037,0-0.038
		c0-0.001,0-0.036,0-0.038c0-0.002,0-0.038,0-0.038l-0.012-0.038c0-0.001,0-0.038,0-0.038c0-0.001-0.014-0.051-0.014-0.051
		c0-0.001-0.014-0.038-0.014-0.039s-0.012-0.024-0.012-0.025c0-0.001-0.014-0.038-0.014-0.038c0-0.002-0.012-0.038-0.014-0.039
		c0,0-0.023-0.038-0.025-0.038c0-0.002-0.012-0.038-0.012-0.038c0-0.001-0.025-0.024-0.025-0.026c0,0-0.025-0.036-0.027-0.036
		c0-0.002-0.023-0.025-0.025-0.025c0-0.001-0.023-0.038-0.025-0.039c-0.002,0-0.023-0.025-0.025-0.025
		C38.267,32.784,35.133,31.592,32.008,31.592L32.008,31.592z M32.008,32.405c2.92,0,5.843,1.107,8.07,3.334l-2.023,2.023
		c-3.339-3.339-8.751-3.339-12.089,0l-2.023-2.023C26.165,33.513,29.089,32.405,32.008,32.405z M32.008,37.292
		c-1.664,0-3.337,0.64-4.606,1.909c0,0-0.025,0.024-0.025,0.025c-0.002,0.001-0.025,0.038-0.025,0.038
		c-0.002,0.002-0.025,0.025-0.027,0.025c0,0.001-0.023,0.038-0.025,0.038c0,0.001-0.025,0.025-0.025,0.025
		c0,0.002-0.012,0.038-0.012,0.04c0,0-0.025,0.036-0.027,0.036c0,0.002-0.012,0.038-0.012,0.038c0,0.001-0.014,0.038-0.014,0.039
		l-0.012,0.025c0,0.001-0.014,0.036-0.014,0.038l-0.012,0.051c0,0.001,0,0.036,0,0.039c0,0-0.014,0.036-0.014,0.038s0,0.038,0,0.038
		c0,0.001,0,0.038,0,0.039c0,0,0,0.036,0,0.038c0,0.002,0,0.038,0,0.039l0.014,0.038c0,0.001,0,0.036,0,0.039
		c0,0.001,0.012,0.05,0.012,0.05c0,0.001,0.014,0.038,0.014,0.039c0,0.001,0.012,0.024,0.012,0.025l0.014,0.036
		c0,0.002,0.012,0.038,0.012,0.038c0.002,0.001,0.027,0.038,0.027,0.039c0,0,0.012,0.036,0.012,0.038
		c0,0.001,0.025,0.024,0.025,0.025c0.002,0,0.025,0.036,0.025,0.036c0.002,0.002,0.025,0.025,0.027,0.026
		c0,0.001,0.023,0.038,0.025,0.038c0,0.001,0.025,0.025,0.025,0.025l4.033,4.035c0.002,0.001,0.025,0.024,0.025,0.025
		c0.002,0.001,0.036,0.024,0.038,0.025c0,0.001,0.025,0.025,0.025,0.025c0.002,0.001,0.038,0.025,0.038,0.025
		c0.002,0.001,0.025,0.025,0.025,0.025c0.002,0,0.038,0.012,0.038,0.014c0,0,0.036,0.023,0.038,0.025c0,0,0.036,0.012,0.036,0.013
		c0.002,0.001,0.038,0.012,0.038,0.012c0.002,0,0.025,0.014,0.025,0.014c0.002,0,0.038,0.012,0.038,0.012l0.051,0.014
		c0.002,0,0.038,0,0.038,0s0.036,0.013,0.038,0.013c0,0,0.036,0,0.038,0h0.041c0.002,0,0.036,0,0.038,0c0,0,0.036,0,0.039,0
		l0.036-0.013c0.002,0,0.038,0,0.038,0l0.051-0.014c0.002,0,0.038-0.012,0.038-0.012l0.025-0.014c0.002,0,0.036-0.011,0.038-0.012
		c0.002-0.001,0.036-0.013,0.039-0.013c0-0.001,0.036-0.025,0.038-0.025c0-0.001,0.036-0.014,0.039-0.014
		c0,0,0.023-0.025,0.025-0.025c0,0,0.036-0.024,0.036-0.025c0.002,0,0.025-0.024,0.028-0.025c0-0.001,0.036-0.024,0.036-0.025
		c0.002-0.001,0.025-0.024,0.025-0.025l4.036-4.035c0,0,0.023-0.024,0.025-0.025c0,0,0.025-0.036,0.025-0.038
		s0.025-0.024,0.025-0.026l0.025-0.036c0-0.002,0.025-0.025,0.027-0.025c0-0.001,0.012-0.038,0.012-0.038
		c0-0.001,0.025-0.038,0.025-0.038c0-0.001,0.014-0.036,0.014-0.039L36.8,40.04c0-0.002,0.014-0.025,0.014-0.025
		c0-0.001,0.014-0.038,0.014-0.039c0,0,0.012-0.049,0.012-0.05c0-0.002,0-0.038,0-0.039l0.014-0.038c0-0.001,0-0.036,0-0.039
		c0-0.001,0-0.038,0-0.038c0-0.001,0-0.038,0-0.039c0,0,0-0.036,0-0.038s-0.014-0.038-0.014-0.038c0-0.002,0-0.038,0-0.039
		l-0.012-0.051c0-0.002-0.014-0.038-0.014-0.038L36.8,39.505c0-0.001-0.012-0.038-0.012-0.039s-0.014-0.037-0.014-0.038
		l-0.025-0.036c0-0.002-0.012-0.038-0.012-0.04c-0.002,0-0.027-0.024-0.027-0.025c0,0-0.025-0.037-0.025-0.038
		c0,0-0.025-0.024-0.025-0.025c0,0-0.025-0.036-0.025-0.038c-0.002-0.001-0.025-0.025-0.025-0.025
		C35.346,37.932,33.673,37.292,32.008,37.292z M32.008,38.108c1.46,0,2.922,0.553,4.034,1.667l-4.034,4.033l-4.033-4.033
		C29.088,38.66,30.549,38.108,32.008,38.108z"/>
	<path opacity="0.3" fill="#FFFFFF" enable-background="new    " d="M32.008,26.272c-4.486,0-8.973,1.72-12.395,5.141
		c-0.168,0.169-0.168,0.443,0,0.611l2.009,2.011c0.171,0.169,0.443,0.169,0.611,0c5.401-5.401,14.148-5.401,19.549,0
		c0.166,0.169,0.441,0.169,0.609,0l2.009-2.011c0.171-0.168,0.171-0.442,0-0.611C40.982,27.991,36.496,26.272,32.008,26.272z
		 M32.008,26.704c4.379,0,8.751,1.674,12.092,5.014l-2.011,2.011c-5.565-5.567-14.591-5.567-20.159,0l-2.009-2.011
		C23.258,28.378,27.632,26.704,32.008,26.704z M32.008,31.972c-3.028,0-6.063,1.152-8.373,3.463c-0.168,0.167-0.168,0.442,0,0.61
		l2.023,2.023c0.168,0.168,0.441,0.168,0.611,0c3.174-3.174,8.304-3.174,11.479,0c0.168,0.168,0.443,0.168,0.611,0l2.023-2.023
		c0.168-0.168,0.168-0.442,0-0.61C38.073,33.124,35.035,31.972,32.008,31.972z M32.008,32.405c2.92,0,5.843,1.107,8.07,3.334
		l-2.023,2.023c-3.339-3.339-8.751-3.339-12.089,0l-2.023-2.023C26.165,33.513,29.089,32.405,32.008,32.405z M32.008,37.674
		c-1.569,0-3.144,0.599-4.339,1.795c-0.168,0.168-0.168,0.443,0,0.61l4.033,4.034c0.171,0.169,0.443,0.169,0.611,0l4.034-4.034
		c0.171-0.167,0.171-0.442,0-0.61C35.152,38.273,33.577,37.674,32.008,37.674z M32.008,38.108c1.46,0,2.922,0.553,4.034,1.667
		l-4.034,4.033l-4.033-4.033C29.088,38.66,30.549,38.108,32.008,38.108z"/>
	<path opacity="0.3" fill="#FFFFFF" enable-background="new    " d="M32.008,29.553c-3.647,0-7.295,1.392-10.079,4.175l-1.807-1.808
		c-0.069,0.066-0.136,0.136-0.203,0.204l2.009,2.011c5.567-5.567,14.593-5.567,20.159,0l2.011-2.011
		c-0.069-0.068-0.136-0.137-0.203-0.204l-1.809,1.808C39.306,30.945,35.657,29.553,32.008,29.553z M32.008,35.257
		c-2.186,0-4.374,0.837-6.044,2.506l-1.82-1.82c-0.069,0.066-0.136,0.137-0.203,0.204l2.023,2.023c3.339-3.34,8.751-3.34,12.089,0
		l2.023-2.023c-0.067-0.067-0.134-0.138-0.203-0.204l-1.82,1.82C36.383,36.093,34.196,35.257,32.008,35.257z M28.19,39.99
		c-0.071,0.064-0.149,0.123-0.217,0.191l4.033,4.033l4.034-4.033c-0.067-0.068-0.145-0.127-0.215-0.191l-3.819,3.818
		C32.007,43.806,28.19,39.99,28.19,39.99z"/>
</g>
</svg>
