<?xml version="1.0" encoding="utf-8"?>
<!-- Generator: Adobe Illustrator 17.0.0, SVG Export Plug-In . SVG Version: 6.00 Build 0)  -->
<!DOCTYPE svg PUBLIC "-//W3C//DTD SVG 1.1//EN" "http://www.w3.org/Graphics/SVG/1.1/DTD/svg11.dtd">
<svg version="1.1" id="图层_1" xmlns="http://www.w3.org/2000/svg" xmlns:xlink="http://www.w3.org/1999/xlink" x="0px" y="0px"
	 width="48px" height="48px" viewBox="8 8 48 48" enable-background="new 8 8 48 48" xml:space="preserve">
<g id="g151" opacity="0.5">
	<path id="path153" opacity="0.08" enable-background="new    " d="M48.41,52.136H15.617c-3.019,0-5.48-2.367-5.48-5.266v4.028
		c0,2.265,1.925,4.102,4.283,4.102h35.185c2.358,0,4.256-1.836,4.256-4.102V46.87C53.861,49.77,51.428,52.136,48.41,52.136z"/>
	<path id="path155" opacity="0.1" enable-background="new    " d="M48.383,52.136H15.59c-3.018,0-5.451-2.323-5.451-5.222v2.107
		c0,2.265,1.039,5.025,5.25,5.025s28.929,0,33.195,0s5.279-2.76,5.279-5.025v-2.107C53.861,49.813,51.4,52.136,48.383,52.136z"/>
	<path id="path157" opacity="0.1" enable-background="new    " d="M48.383,52.136H15.59c-3.018,0-5.451-2.323-5.451-5.222v1.137
		c0,2.266,1.802,5.041,5.25,5.041s29.249,0,33.195,0c3.947,0,5.279-2.775,5.279-5.039v-1.137
		C53.861,49.813,51.4,52.136,48.383,52.136z"/>
	<rect id="rect159" x="15.107" y="52.136" opacity="0.05" enable-background="new    " width="33.786" height="0.955"/>
	<rect id="rect161" x="16.101" y="52.136" opacity="0.05" enable-background="new    " width="30.805" height="0.955"/>
	<rect id="rect163" x="16.101" y="53.091" opacity="0.05" enable-background="new    " width="30.805" height="0.955"/>
	<rect id="rect165" x="18.087" y="53.091" opacity="0.05" enable-background="new    " width="27.824" height="0.955"/>
	<rect id="rect167" x="21.069" y="53.091" opacity="0.05" enable-background="new    " width="21.862" height="0.955"/>
	<rect id="rect169" x="25.044" y="53.091" opacity="0.05" enable-background="new    " width="13.912" height="0.955"/>
	<rect id="rect171" x="18.087" y="52.136" opacity="0.05" enable-background="new    " width="27.824" height="0.955"/>
	<rect id="rect173" x="20.075" y="52.136" opacity="0.05" enable-background="new    " width="23.849" height="0.955"/>
	<rect id="rect175" x="21.069" y="52.136" opacity="0.05" enable-background="new    " width="21.862" height="0.955"/>
	<rect id="rect177" x="23.056" y="52.136" opacity="0.05" enable-background="new    " width="17.887" height="0.955"/>
	<rect id="rect179" x="23.056" y="52.136" opacity="0.05" enable-background="new    " width="17.887" height="0.955"/>
</g>
<path fill="#C4DCED" stroke="#9DBCD7" stroke-miterlimit="10" d="M53.466,46.281c0,3.121-2.531,5.652-5.652,5.652H16.185
	c-3.121,0-5.652-2.531-5.652-5.652V14.652c0-3.121,2.531-5.652,5.652-5.652h31.63c3.121,0,5.652,2.531,5.652,5.652L53.466,46.281
	L53.466,46.281z"/>
<path opacity="0.6" fill="none" stroke="#FFFFFF" stroke-miterlimit="10" d="M16.185,50.934c-2.565,0-4.652-2.087-4.652-4.652
	V14.652c0-2.565,2.087-4.652,4.652-4.652h31.629c2.565,0,4.652,2.087,4.652,4.652v31.629c0,2.565-2.087,4.652-4.652,4.652H16.185z"
	/>
<path opacity="0.08" fill="none" stroke="#000000" stroke-miterlimit="10" enable-background="new    " d="M53.627,21.193
	c0,0,0-1.899-1.876-1.899c-5.445,0-22.83,0.003-24.387,0.003c-1.891,0-1.876-1.872-1.876-1.872s0-1.885-1.876-1.885
	c-3.284,0-9.861,0-11.255,0c-1.847,0-1.876,1.816-1.876,1.873"/>
<path opacity="0.03" fill="none" stroke="#000000" stroke-miterlimit="10" enable-background="new    " d="M53.627,20.112
	c0,0,0-1.899-1.876-1.899c-5.445,0-22.83,0.003-24.387,0.003c-1.891,0-1.876-1.872-1.876-1.872s0-1.885-1.876-1.885
	c-3.284,0-9.861,0-11.255,0c-1.847,0-1.876,1.816-1.876,1.873"/>
<linearGradient id="SVGID_1_" gradientUnits="userSpaceOnUse" x1="1127.9993" y1="1377.9335" x2="1127.9993" y2="1342.5322" gradientTransform="matrix(1 0 0 1 -1096 -1326)">
	<stop  offset="0" style="stop-color:#D1E0ED"/>
	<stop  offset="1" style="stop-color:#E4EEFB"/>
</linearGradient>
<path fill="url(#SVGID_1_)" stroke="#9DBCD7" stroke-miterlimit="10" d="M16.172,51.933H47.92c3.121,0,5.546-2.595,5.546-5.717
	V20.871c0-0.445-0.665-0.864-1.55-0.864c-5.468,0-22.903,0.003-24.466,0.003c-1.899,0-1.87-1.733-1.87-1.733
	s0.013-1.745-1.871-1.745c-3.298,0-9.904,0-11.304,0c-1.855,0-1.872,1.538-1.872,1.596v28.089
	C10.533,49.338,13.051,51.933,16.172,51.933z"/>
<path opacity="0.8" fill="none" stroke="#FFFFFF" stroke-miterlimit="10" d="M16.172,50.934c-2.558,0-4.64-2.116-4.64-4.717V18.128
	c0.023-0.596,0.662-0.596,0.872-0.596h11.304c0.21,0,0.85,0,0.871,0.754c-0.002,0.091,0.003,1.14,0.779,1.928
	c0.357,0.363,1.01,0.796,2.092,0.796l24.466-0.003c0.263,0,0.446,0.055,0.551,0.102v25.107c0,2.601-2.04,4.717-4.547,4.717H16.172z"
	/>
<radialGradient id="SVGID_2_" cx="1506.46" cy="-1013.1687" r="34.4255" gradientTransform="matrix(0.0197 0.9998 -0.9109 0.018 -922.1061 -1463.46)" gradientUnits="userSpaceOnUse">
	<stop  offset="0" style="stop-color:#FFFFFF;stop-opacity:0.6"/>
	<stop  offset="0.3783" style="stop-color:#FAFCFE;stop-opacity:0.4487"/>
	<stop  offset="0.829" style="stop-color:#EBF3FC;stop-opacity:0.2684"/>
	<stop  offset="1" style="stop-color:#E4EEFB;stop-opacity:0.2"/>
</radialGradient>
<path fill="url(#SVGID_2_)" d="M16.172,51.181c-2.695,0-4.887-2.226-4.887-4.964V18.128c0-0.036,0.006-0.336,0.229-0.56
	c0.187-0.187,0.486-0.282,0.889-0.282h11.304c0.446,0,0.673,0.053,0.809,0.19c0.3,0.302,0.313,0.762,0.313,0.767
	c-0.001,0.099,0.004,1.081,0.732,1.82c0.464,0.471,1.1,0.709,1.89,0.709c0,0,20.898-0.008,24.461-0.008
	c0.471,0,0.731,0.162,0.798,0.239v25.214c0,2.738-2.15,4.964-4.793,4.964H16.172L16.172,51.181L16.172,51.181z"/>
<g id="g27_1_">
	
		<linearGradient id="path36_2_" gradientUnits="userSpaceOnUse" x1="1520.0824" y1="2152.541" x2="1526.0471" y2="2162.8721" gradientTransform="matrix(1 0 0 1 -1508 -2144)">
		<stop  offset="0" style="stop-color:#FFFFFF"/>
		<stop  offset="0.5" style="stop-color:#FFFFFF;stop-opacity:0.6"/>
		<stop  offset="1" style="stop-color:#FFFFFF;stop-opacity:0.15"/>
	</linearGradient>
	<path id="path36_1_" fill="url(#path36_2_)" d="M17,20.627c0.667-1.381,1.481-2.674,2.414-3.869l-1.699-3.725
		c-1.451,1.372-2.629,2.883-3.569,4.351L17,20.627z"/>
	
		<linearGradient id="path45_2_" gradientUnits="userSpaceOnUse" x1="1525.4906" y1="2150.9939" x2="1529.3943" y2="2157.7554" gradientTransform="matrix(1 0 0 1 -1508 -2144)">
		<stop  offset="0" style="stop-color:#FFFFFF"/>
		<stop  offset="0.5" style="stop-color:#FFFFFF;stop-opacity:0.6"/>
		<stop  offset="1" style="stop-color:#FFFFFF;stop-opacity:0.15"/>
	</linearGradient>
	<path id="path45_1_" fill="url(#path45_2_)" d="M17.178,9.452l0.888,1.946c0.854-0.709,1.791-0.954,2.812-1.946H17.178z"/>
	
		<linearGradient id="path54_2_" gradientUnits="userSpaceOnUse" x1="1526.7184" y1="2149.7102" x2="1531.4878" y2="2157.9709" gradientTransform="matrix(1 0 0 1 -1508 -2144)">
		<stop  offset="0" style="stop-color:#FFFFFF"/>
		<stop  offset="0.5" style="stop-color:#FFFFFF;stop-opacity:0.6"/>
		<stop  offset="1" style="stop-color:#FFFFFF;stop-opacity:0.15"/>
	</linearGradient>
	<path id="path54_1_" fill="url(#path54_2_)" d="M23.841,9.452h-0.703c-1.772,0.992-3.321,1.75-4.65,2.881l1.628,3.573
		c1.391-1.607,3.005-3.015,4.813-4.152c0.014-0.013,0.024-0.024,0.039-0.036C26.994,9.968,24.983,9.452,23.841,9.452z"/>
	
		<linearGradient id="path63_2_" gradientUnits="userSpaceOnUse" x1="1516.7354" y1="2157.2505" x2="1521.9113" y2="2166.2153" gradientTransform="matrix(1 0 0 1 -1508 -2144)">
		<stop  offset="0" style="stop-color:#FFFFFF"/>
		<stop  offset="0.5" style="stop-color:#FFFFFF;stop-opacity:0.6"/>
		<stop  offset="1" style="stop-color:#FFFFFF;stop-opacity:0.15"/>
	</linearGradient>
	<path id="path63_1_" fill="url(#path63_2_)" d="M13.606,18.269c-1.089,1.855-1.802,3.569-2.224,4.741
		c0.5,0.714,1.327,1.182,2.265,1.182c1.161,0,2.153-0.717,2.563-1.731c0.105-0.283,0.233-0.555,0.351-0.834L13.606,18.269z"/>
	
		<linearGradient id="path72_2_" gradientUnits="userSpaceOnUse" x1="1516.5024" y1="2157.6179" x2="1522.2385" y2="2167.5532" gradientTransform="matrix(1 0 0 1 -1508 -2144)">
		<stop  offset="0" style="stop-color:#FFFFFF"/>
		<stop  offset="0.5" style="stop-color:#FFFFFF;stop-opacity:0.6"/>
		<stop  offset="1" style="stop-color:#FFFFFF;stop-opacity:0.15"/>
	</linearGradient>
	<path id="path72_1_" fill="url(#path72_2_)" d="M10.901,15.192l-0.021,6.229c0,0,0,0.002,0,0.004c0,0.039,0.01,0.076,0.012,0.114
		c0.474-1.152,1.135-2.56,2.031-4.048L10.901,15.192z"/>
	
		<linearGradient id="path149_2_" gradientUnits="userSpaceOnUse" x1="1520.8402" y1="2154.5063" x2="1526.2263" y2="2163.8357" gradientTransform="matrix(1 0 0 1 -1508 -2144)">
		<stop  offset="0" style="stop-color:#FFFFFF"/>
		<stop  offset="0.5" style="stop-color:#FFFFFF;stop-opacity:0.6"/>
		<stop  offset="1" style="stop-color:#FFFFFF;stop-opacity:0.15"/>
	</linearGradient>
	<path id="path149_1_" fill="url(#path149_2_)" d="M15.994,9.464c-2.024-0.168-4.689,2.111-5.03,4.297l2.511,2.855
		c1.002-1.53,2.248-3.096,3.786-4.512L15.994,9.464z"/>
</g>
<g>
	<path opacity="0.3" fill="#FFFFFF" enable-background="new    " d="M24.74,46.185c-2.164,0-3.925-1.761-3.925-3.925V27.739
		c0-2.164,1.761-3.925,3.925-3.925H39.26c2.164,0,3.925,1.761,3.925,3.925v14.522c0,2.164-1.761,3.925-3.925,3.925H24.74V46.185z
		 M39.26,43.887c0.897,0,1.627-0.73,1.627-1.626v-14.03l-0.681,0.123c-0.048,0.009-1.186,0.211-2.557,0.211
		c-0.143,0-0.287-0.003-0.432-0.006c0.015,0-1.513,0.081-2.745,0.455c0.16,0.054,0.256,0.124,0.329,0.225
		c0.02,0.026,0.043,0.078,0.073,0.155l0.145-0.125c5.157,4.489,1.932,9.224,1.901,9.271c-1.647,2.31-4.186,4.142-6.201,5.348H39.26z
		 M23.111,37.95c0.747,0.288,2.177,0.741,3.908,0.772l0.578,0.013c0.42,0.009,0.824,0.019,1.217,0.019
		c1.891,0,3.297-0.217,4.881-1.329c2.017-1.413,1.792-3.667,1.78-3.761c-0.007-0.394-0.068-0.789-0.155-1.163
		c-0.003,0.558-0.053,1.135-0.183,1.683c-0.015,0.087-0.524,2.707-3.005,3.336c-0.38,0.094-0.763,0.143-1.143,0.143
		c-1.523,0-2.973-0.757-4.424-2.317c-1.14-1.225-2.78-4.58-3.174-8.503c-0.179,0.262-0.281,0.575-0.281,0.9v10.211L23.111,37.95
		L23.111,37.95z M30.727,35.373c0.007,0,0.183,0.059,0.428,0.059c0.758,0,1.42-0.544,1.92-1.574c0.02-0.033,0.413-0.752,0.507-2.275
		c-0.195,1.016-0.59,2.184-1.379,3.005c-0.051,0.058-0.643,0.696-1.351,0.696c-0.121,0-0.251-0.019-0.382-0.063
		C30.55,35.276,30.637,35.327,30.727,35.373L30.727,35.373z M30.601,26.112c-0.464,0.861-1.599,3.244-1.518,5.781
		c0,0.036-0.022,1.147,0.439,2.152c-0.048-0.149-0.089-0.318-0.129-0.504c-0.022-0.079-0.611-2.613,2.527-5.539
		c0.053-0.052,1.056-1.046,2.02-1.89L30.601,26.112L30.601,26.112z"/>
	<path opacity="0.3" fill="#669CCC" enable-background="new    " d="M39.26,24.321H24.74c-1.886,0-3.418,1.53-3.418,3.417V42.26
		c0,1.886,1.531,3.417,3.418,3.417H39.26c1.888,0,3.418-1.53,3.418-3.417V27.739C42.679,25.852,41.149,24.321,39.26,24.321z
		 M41.396,42.26c0,1.177-0.956,2.137-2.136,2.137H28.763c1.826-0.946,5.596-3.142,7.739-6.151c0,0,3.053-4.354-1.817-8.595
		c0,0,1.254,1.968,1.297,3.951c0,0,0.312,2.623-1.995,4.236c-2.303,1.616-4.321,1.439-6.976,1.391
		c-2.123-0.037-3.814-0.681-4.407-0.94V27.737c0-0.85,0.502-1.579,1.222-1.923c0.183,4.276,1.974,7.954,3.112,9.178
		c1.163,1.252,2.879,2.581,5.073,2.028c2.193-0.554,2.633-2.958,2.633-2.958c0.481-2.049-0.215-4.48-0.251-4.532
		c-0.036-0.051-0.367-0.107-0.367-0.107c0.35,3.224-0.49,4.652-0.49,4.652c-1.224,2.529-3.034,1.75-3.034,1.75
		c-2.012-1.024-1.923-3.919-1.923-3.919c-0.099-3.016,1.439-5.811,1.726-6.307h5.081c-1.043,0.71-3.116,2.771-3.116,2.771
		c-2.954,2.754-2.374,5.07-2.374,5.07c0.479,2.43,1.939,0.79,1.939,0.79c1.54-1.602,1.42-4.787,1.42-4.787
		c-0.626,0.103-1.019,0.45-1.019,0.45c-0.073,2.124-1.319,3.443-1.319,3.443c-0.486,0.538-0.831,0.026-0.831,0.026
		c-0.256-0.384,0.253-0.652,0.253-0.652c0.712-0.628,0.925-1.698,0.913-2.1c-0.01-0.402,0.203-0.512,0.203-0.512
		c1.007-0.782,2.015-1.243,2.015-1.243c1.351-0.694,3.763-0.812,3.763-0.812c1.52,0.051,2.884-0.195,2.884-0.195l1.268-0.229
		c0,0.038,0.01,0.075,0.01,0.114v14.523L41.396,42.26L41.396,42.26L41.396,42.26z"/>
	<g opacity="0.3">
		<path opacity="0.5" fill="#669CCC" enable-background="new    " d="M40.025,27.353c-0.01,0.001-1.099,0.194-2.377,0.194
			c-0.13,0-0.266-0.001-0.398-0.006c-0.145,0.005-2.58,0.131-4.012,0.866c-0.01,0.005-0.241,0.111-0.59,0.305
			c0.273-0.267,2.099-2.062,3.021-2.69l1.363-0.929h-7.021l-0.147,0.253c-0.319,0.546-1.898,3.438-1.794,6.578
			c-0.005,0.1-0.073,3.198,2.2,4.354c0.065,0.03,0.4,0.168,0.884,0.168c0.672,0,1.93-0.279,2.835-2.15
			c0.005-0.006,0.071-0.119,0.157-0.338c-0.043,0.201-0.471,2.116-2.263,2.569c-0.299,0.075-0.598,0.114-0.894,0.114
			c-1.227,0-2.433-0.653-3.681-1.994c-1.097-1.181-2.802-4.812-2.973-8.855l-0.033-0.768l-0.694,0.33
			c-0.92,0.438-1.515,1.373-1.515,2.382v10.886l0.306,0.131c0.652,0.283,2.405,0.942,4.602,0.981l0.573,0.013
			c0.428,0.009,0.839,0.019,1.239,0.019c2.04-0.001,3.669-0.253,5.466-1.515c2.524-1.768,2.222-4.593,2.207-4.712
			c-0.007-0.325-0.043-0.649-0.104-0.963c1.401,2.88-0.208,5.248-0.297,5.374c-2.043,2.866-5.61,4.984-7.557,5.99L26.674,44.9H39.26
			c1.459,0,2.645-1.186,2.645-2.644V27.737c0-0.047-0.005-0.093-0.013-0.137l-0.077-0.52l-0.522,0.045L40.025,27.353z
			 M41.396,27.739v14.522c0,1.177-0.956,2.137-2.136,2.137H28.763c1.826-0.946,5.596-3.142,7.739-6.151c0,0,3.053-4.354-1.817-8.595
			c0,0,1.254,1.968,1.297,3.951c0,0,0.312,2.623-1.995,4.236c-2.303,1.616-4.321,1.439-6.976,1.391
			c-2.123-0.037-3.814-0.681-4.407-0.94V27.739c0-0.85,0.502-1.579,1.222-1.923c0.183,4.276,1.974,7.954,3.112,9.178
			c1.163,1.252,2.879,2.581,5.073,2.028c2.193-0.554,2.633-2.958,2.633-2.958c0.481-2.049-0.215-4.48-0.251-4.532
			c-0.036-0.051-0.367-0.107-0.367-0.107c0.35,3.224-0.49,4.652-0.49,4.652c-1.224,2.529-3.034,1.75-3.034,1.75
			c-2.012-1.024-1.923-3.919-1.923-3.919c-0.099-3.016,1.439-5.811,1.726-6.307h5.081c-1.043,0.71-3.116,2.771-3.116,2.771
			c-2.954,2.754-2.374,5.07-2.374,5.07c0.479,2.43,1.939,0.79,1.939,0.79c1.54-1.602,1.42-4.787,1.42-4.787
			c-0.626,0.103-1.019,0.45-1.019,0.45c-0.073,2.124-1.319,3.443-1.319,3.443c-0.486,0.538-0.831,0.026-0.831,0.026
			c-0.256-0.384,0.253-0.652,0.253-0.652c0.712-0.628,0.925-1.698,0.913-2.1c-0.01-0.402,0.203-0.512,0.203-0.512
			c1.007-0.782,2.015-1.243,2.015-1.243c1.351-0.694,3.763-0.812,3.763-0.812c1.52,0.051,2.884-0.195,2.884-0.195l1.268-0.229
			C41.386,27.663,41.396,27.699,41.396,27.739z M30.637,34.079c0.188-0.035,0.423-0.14,0.654-0.398
			c0.048-0.048,1.275-1.369,1.437-3.508l0,0c-0.058,0.972-0.302,2.717-1.259,3.71c-0.155,0.169-0.442,0.386-0.618,0.386
			C30.789,34.266,30.715,34.207,30.637,34.079z"/>
		<path opacity="0.5" fill="#669CCC" enable-background="new    " d="M39.26,24.321H24.74c-1.886,0-3.418,1.53-3.418,3.417V42.26
			c0,1.886,1.531,3.417,3.418,3.417H39.26c1.888,0,3.418-1.53,3.418-3.417V27.739C42.679,25.852,41.149,24.321,39.26,24.321z
			 M42.169,42.26c0,1.604-1.305,2.908-2.908,2.908H24.74c-1.604,0-2.908-1.305-2.908-2.908V27.739c0-1.604,1.305-2.908,2.908-2.908
			H39.26c1.604,0,2.908,1.305,2.908,2.908L42.169,42.26L42.169,42.26z"/>
	</g>
	<g opacity="0.3">
		<path opacity="0.05" fill="#FFFFFF" enable-background="new    " d="M40.117,27.853c0,0-1.365,0.246-2.884,0.195
			c0,0-2.413,0.117-3.763,0.812c0,0-1.007,0.462-2.015,1.243c0,0-0.213,0.11-0.203,0.512c0.013,0.402-0.201,1.471-0.913,2.1
			c0,0-0.51,0.269-0.253,0.652c0,0,0.345,0.511,0.831-0.026c0,0,1.247-1.319,1.319-3.443c0,0,0.394-0.347,1.019-0.45
			c0,0,0.121,3.186-1.42,4.787c0,0-1.461,1.64-1.939-0.79c0,0-0.58-2.316,2.374-5.07c0,0,2.072-2.062,3.116-2.771h-5.081
			c-0.287,0.496-1.826,3.29-1.726,6.307c0,0-0.089,2.895,1.923,3.919c0,0,1.809,0.779,3.034-1.75c0,0,0.841-1.427,0.49-4.652
			c0,0,0.331,0.057,0.367,0.107c0.036,0.052,0.732,2.481,0.251,4.532c0,0-0.439,2.403-2.633,2.958
			c-2.193,0.552-3.908-0.777-5.073-2.028c-1.138-1.224-2.927-4.902-3.112-9.178c-0.72,0.343-1.222,1.073-1.222,1.923v10.552
			c0.594,0.259,2.285,0.902,4.407,0.94c2.654,0.048,4.671,0.225,6.976-1.391c2.306-1.614,1.995-4.236,1.995-4.236
			c-0.043-1.984-1.297-3.951-1.297-3.951c4.869,4.24,1.817,8.595,1.817,8.595c-2.142,3.008-5.913,5.204-7.739,6.15H39.26
			c1.179,0,2.136-0.958,2.136-2.137V27.739c0-0.039-0.01-0.075-0.01-0.114L40.117,27.853z M29.782,29.795
			c0.279-1.347,0.788-2.501,1.128-3.176h1.716c-0.585,0.548-1.029,0.991-1.051,1.01C30.768,28.384,30.193,29.116,29.782,29.795z
			 M28.814,38.243c-0.388,0-0.79-0.009-1.206-0.019l-0.58-0.013c-1.439-0.026-2.664-0.359-3.408-0.618v-7.042
			c0.686,2.291,1.692,4.19,2.572,5.137c1.411,1.515,2.833,2.323,4.338,2.459C30.005,38.22,29.442,38.243,28.814,38.243z
			 M40.378,42.26c0,0.617-0.502,1.119-1.118,1.119h-6.804c1.678-1.146,3.555-2.694,4.879-4.55c0.033-0.051,3.345-4.909-1.586-9.587
			c0.657-0.113,1.249-0.16,1.478-0.176c0.143,0.003,0.283,0.006,0.423,0.006c1.425,0,2.599-0.211,2.65-0.219l0.079-0.015
			C40.378,28.839,40.378,42.26,40.378,42.26z"/>
		<path opacity="0.05" fill="#FFFFFF" enable-background="new    " d="M39.26,23.306H24.74c-2.445,0-4.434,1.988-4.434,4.434v14.522
			c0,2.445,1.99,4.434,4.434,4.434H39.26c2.445,0,4.434-1.988,4.434-4.434V27.739C43.695,25.294,41.705,23.306,39.26,23.306z
			 M42.679,42.26c0,1.886-1.529,3.417-3.418,3.417H24.74c-1.886,0-3.418-1.53-3.418-3.417V27.739c0-1.887,1.531-3.417,3.418-3.417
			H39.26c1.888,0,3.418,1.53,3.418,3.417V42.26L42.679,42.26z"/>
	</g>
	<g opacity="0.3">
		<path opacity="0.9" fill="#FFFFFF" enable-background="new    " d="M36.503,38.755c0,0,1.019-1.459,0.937-3.508
			c-0.082,1.778-0.937,2.999-0.937,2.999c-2.142,3.009-5.912,5.205-7.739,6.151h0.94C31.683,43.282,34.678,41.313,36.503,38.755z"/>
		<path opacity="0.9" fill="#FFFFFF" enable-background="new    " d="M29.896,33.951c0.479,2.43,1.939,0.793,1.939,0.793
			c1.54-1.602,1.42-4.788,1.42-4.788c-0.003,0-0.005,0.001-0.005,0.001c-0.036,0.965-0.253,3.071-1.416,4.276
			c0,0-1.461,1.64-1.939-0.79c0,0-0.022-0.09-0.036-0.252C29.828,33.668,29.896,33.951,29.896,33.951z"/>
		<path opacity="0.9" fill="#FFFFFF" enable-background="new    " d="M28.577,32.003c0-0.029,0-0.057,0-0.085
			C28.577,31.925,28.577,31.954,28.577,32.003z"/>
		<path opacity="0.9" fill="#FFFFFF" enable-background="new    " d="M34.07,29.942c-0.026-0.005-0.046-0.009-0.046-0.009
			c0.051,0.454,0.075,0.868,0.079,1.253C34.113,30.812,34.103,30.399,34.07,29.942z"/>
		<path opacity="0.9" fill="#FFFFFF" enable-background="new    " d="M30.305,25.603c-0.285,0.492-1.807,3.255-1.726,6.251
			c0.089-2.795,1.457-5.278,1.726-5.742h4.42c0.241-0.201,0.468-0.378,0.662-0.51H30.305L30.305,25.603z"/>
		<path opacity="0.9" fill="#FFFFFF" enable-background="new    " d="M39.26,45.676H24.74c-1.886,0-3.418-1.53-3.418-3.417v0.507
			c0,1.888,1.531,3.418,3.418,3.418H39.26c1.888,0,3.418-1.529,3.418-3.418V42.26C42.679,44.147,41.149,45.676,39.26,45.676z"/>
		<path opacity="0.9" fill="#FFFFFF" enable-background="new    " d="M41.386,27.623l-1.268,0.229c0,0-1.365,0.246-2.884,0.195
			c0,0-2.413,0.117-3.763,0.812c0,0-1.007,0.462-2.015,1.243c0,0-0.213,0.11-0.203,0.512c0.013,0.402-0.201,1.471-0.913,2.1
			c0,0-0.51,0.269-0.253,0.652c0,0,0.013,0.017,0.029,0.038c0.097-0.116,0.225-0.182,0.225-0.182c0.712-0.63,0.925-1.698,0.913-2.1
			c-0.01-0.402,0.203-0.512,0.203-0.512c0.263-0.203,0.524-0.383,0.768-0.542c0.003-0.058,0.01-0.114,0.013-0.173
			c0,0,0.394-0.347,1.019-0.45c0,0,0,0.014,0,0.027c0.133-0.068,0.215-0.106,0.215-0.106c1.351-0.694,3.763-0.81,3.763-0.81
			c1.52,0.049,2.884-0.197,2.884-0.197l1.268-0.229c0,0.038,0.01,0.075,0.01,0.114v-0.508
			C41.396,27.699,41.386,27.663,41.386,27.623z"/>
		<path opacity="0.9" fill="#FFFFFF" enable-background="new    " d="M26.937,34.994c-1.138-1.224-2.927-4.902-3.112-9.178
			c-0.72,0.343-1.222,1.073-1.222,1.923v0.508c0-0.85,0.502-1.579,1.222-1.923c0.183,4.276,1.974,7.957,3.112,9.181
			c1.163,1.251,2.879,2.58,5.073,2.026c2.193-0.552,2.633-2.958,2.633-2.958c0.145-0.614,0.181-1.263,0.165-1.87
			c-0.013,0.452-0.058,0.915-0.165,1.363c0,0-0.439,2.403-2.633,2.958C29.816,37.575,28.102,36.245,26.937,34.994z"/>
	</g>
	<g opacity="0.3">
		<path opacity="0.5" fill="#669CCC" enable-background="new    " d="M29.86,33.175c0.055-0.898,0.468-2.514,2.411-4.324
			c0,0,2.072-2.062,3.116-2.771h-0.624c-1.079,0.89-2.493,2.294-2.493,2.294C29.909,30.576,29.808,32.492,29.86,33.175z"/>
		<path opacity="0.5" fill="#669CCC" enable-background="new    " d="M34.686,29.65c0,0,0.234,0.368,0.502,0.946
			c1.664,1.641,2.202,3.272,2.253,4.638C37.511,33.658,36.972,31.641,34.686,29.65z"/>
		<path opacity="0.5" fill="#669CCC" enable-background="new    " d="M34.392,29.534c-0.036-0.051-0.367-0.107-0.367-0.107
			c0.02,0.167,0.031,0.328,0.043,0.484c0.089,0.017,0.295,0.061,0.324,0.1c0.026,0.037,0.375,1.251,0.415,2.679
			C34.848,31.064,34.42,29.575,34.392,29.534z"/>
		<path opacity="0.5" fill="#669CCC" enable-background="new    " d="M28.577,31.823c-0.003,0.031,0,0.063,0,0.094v-0.008
			C28.574,31.881,28.577,31.852,28.577,31.823z"/>
		<path opacity="0.5" fill="#669CCC" enable-background="new    " d="M30.918,33.34c-0.42,0.466-0.734,0.146-0.812,0.051
			c-0.087,0.116-0.143,0.271-0.02,0.452c0,0,0.345,0.511,0.831-0.026c0,0,1.247-1.321,1.319-3.444c0,0,0.394-0.345,1.014-0.448
			c0.01-0.295,0.005-0.479,0.005-0.479c-0.005,0.001-0.01,0.003-0.015,0.003c-0.225,0.115-0.59,0.312-1.016,0.588
			C32.106,32.078,30.918,33.34,30.918,33.34z"/>
		<path opacity="0.5" fill="#669CCC" enable-background="new    " d="M39.26,24.321H24.74c-1.886,0-3.418,1.53-3.418,3.417v0.478
			c0-1.887,1.531-3.417,3.418-3.417H39.26c1.888,0,3.418,1.53,3.418,3.417v-0.478C42.679,25.852,41.149,24.321,39.26,24.321z"/>
		<path opacity="0.5" fill="#669CCC" enable-background="new    " d="M27.012,39.707c2.654,0.048,4.671,0.225,6.976-1.391
			c2.072-1.451,2.032-3.71,2.002-4.152c-0.043,0.857-0.355,2.521-2.002,3.676c-2.303,1.616-4.321,1.439-6.976,1.391
			c-2.123-0.037-3.814-0.681-4.407-0.94v0.478C23.198,39.025,24.89,39.669,27.012,39.707z"/>
		<path opacity="0.5" fill="#669CCC" enable-background="new    " d="M30.5,36.305c0,0,1.809,0.779,3.034-1.75
			c0,0,0.614-1.051,0.57-3.376c-0.041,1.992-0.57,2.9-0.57,2.9c-1.224,2.529-3.034,1.75-3.034,1.75
			c-1.802-0.918-1.918-3.33-1.923-3.824c-0.003,0.129-0.005,0.253,0,0.382C28.577,32.386,28.488,35.281,30.5,36.305z"/>
		<path opacity="0.5" fill="#669CCC" enable-background="new    " d="M39.26,44.872c1.179,0,2.136-0.957,2.136-2.136v-0.478
			c0,1.177-0.956,2.137-2.136,2.137h-9.613c-0.326,0.181-0.626,0.343-0.884,0.476C28.763,44.872,39.26,44.872,39.26,44.872z"/>
	</g>
</g>
</svg>
