<?xml version="1.0" encoding="utf-8"?>
<!-- Generator: Adobe Illustrator 17.0.0, SVG Export Plug-In . SVG Version: 6.00 Build 0)  -->
<!DOCTYPE svg PUBLIC "-//W3C//DTD SVG 1.1//EN" "http://www.w3.org/Graphics/SVG/1.1/DTD/svg11.dtd">
<svg version="1.1" id="图层_1" xmlns="http://www.w3.org/2000/svg" xmlns:xlink="http://www.w3.org/1999/xlink" x="0px" y="0px"
	 width="48px" height="48px" viewBox="8 8 48 48" enable-background="new 8 8 48 48" xml:space="preserve">
<g id="g151" opacity="0.5">
	<path id="path153" opacity="0.08" enable-background="new    " d="M48.41,52.136H15.617c-3.019,0-5.48-2.367-5.48-5.266v4.028
		c0,2.265,1.925,4.102,4.283,4.102h35.185c2.358,0,4.256-1.836,4.256-4.102V46.87C53.861,49.77,51.428,52.136,48.41,52.136z"/>
	<path id="path155" opacity="0.1" enable-background="new    " d="M48.383,52.136H15.59c-3.018,0-5.451-2.323-5.451-5.222v2.107
		c0,2.265,1.039,5.025,5.25,5.025s28.929,0,33.195,0s5.279-2.76,5.279-5.025v-2.107C53.861,49.813,51.4,52.136,48.383,52.136z"/>
	<path id="path157" opacity="0.1" enable-background="new    " d="M48.383,52.136H15.59c-3.018,0-5.451-2.323-5.451-5.222v1.137
		c0,2.266,1.802,5.041,5.25,5.041s29.249,0,33.195,0c3.947,0,5.279-2.775,5.279-5.039v-1.137
		C53.861,49.813,51.4,52.136,48.383,52.136z"/>
	<rect id="rect159" x="15.107" y="52.136" opacity="0.05" enable-background="new    " width="33.786" height="0.955"/>
	<rect id="rect161" x="16.101" y="52.136" opacity="0.05" enable-background="new    " width="30.805" height="0.955"/>
	<rect id="rect163" x="16.101" y="53.091" opacity="0.05" enable-background="new    " width="30.805" height="0.955"/>
	<rect id="rect165" x="18.087" y="53.091" opacity="0.05" enable-background="new    " width="27.824" height="0.955"/>
	<rect id="rect167" x="21.069" y="53.091" opacity="0.05" enable-background="new    " width="21.862" height="0.955"/>
	<rect id="rect169" x="25.044" y="53.091" opacity="0.05" enable-background="new    " width="13.912" height="0.955"/>
	<rect id="rect171" x="18.087" y="52.136" opacity="0.05" enable-background="new    " width="27.824" height="0.955"/>
	<rect id="rect173" x="20.075" y="52.136" opacity="0.05" enable-background="new    " width="23.849" height="0.955"/>
	<rect id="rect175" x="21.069" y="52.136" opacity="0.05" enable-background="new    " width="21.862" height="0.955"/>
	<rect id="rect177" x="23.056" y="52.136" opacity="0.05" enable-background="new    " width="17.887" height="0.955"/>
	<rect id="rect179" x="23.056" y="52.136" opacity="0.05" enable-background="new    " width="17.887" height="0.955"/>
</g>
<path fill="#C4DCED" stroke="#9DBCD7" stroke-miterlimit="10" d="M53.466,46.281c0,3.121-2.531,5.652-5.652,5.652H16.185
	c-3.121,0-5.652-2.531-5.652-5.652V14.652c0-3.121,2.531-5.652,5.652-5.652h31.63c3.121,0,5.652,2.531,5.652,5.652L53.466,46.281
	L53.466,46.281z"/>
<path opacity="0.6" fill="none" stroke="#FFFFFF" stroke-miterlimit="10" d="M16.185,50.934c-2.565,0-4.652-2.087-4.652-4.652
	V14.652c0-2.565,2.087-4.652,4.652-4.652h31.629c2.565,0,4.652,2.087,4.652,4.652v31.629c0,2.565-2.087,4.652-4.652,4.652H16.185z"
	/>
<path opacity="0.08" fill="none" stroke="#000000" stroke-miterlimit="10" enable-background="new    " d="M53.627,21.193
	c0,0,0-1.899-1.876-1.899c-5.445,0-22.83,0.003-24.387,0.003c-1.891,0-1.876-1.872-1.876-1.872s0-1.885-1.876-1.885
	c-3.284,0-9.861,0-11.255,0c-1.847,0-1.876,1.816-1.876,1.873"/>
<path opacity="0.03" fill="none" stroke="#000000" stroke-miterlimit="10" enable-background="new    " d="M53.627,20.112
	c0,0,0-1.899-1.876-1.899c-5.445,0-22.83,0.003-24.387,0.003c-1.891,0-1.876-1.872-1.876-1.872s0-1.885-1.876-1.885
	c-3.284,0-9.861,0-11.255,0c-1.847,0-1.876,1.816-1.876,1.873"/>
<linearGradient id="SVGID_1_" gradientUnits="userSpaceOnUse" x1="1127.9993" y1="1377.9335" x2="1127.9993" y2="1342.5322" gradientTransform="matrix(1 0 0 1 -1096 -1326)">
	<stop  offset="0" style="stop-color:#D1E0ED"/>
	<stop  offset="1" style="stop-color:#E4EEFB"/>
</linearGradient>
<path fill="url(#SVGID_1_)" stroke="#9DBCD7" stroke-miterlimit="10" d="M16.172,51.933H47.92c3.121,0,5.546-2.595,5.546-5.717
	V20.871c0-0.445-0.665-0.864-1.55-0.864c-5.468,0-22.903,0.003-24.466,0.003c-1.899,0-1.87-1.733-1.87-1.733
	s0.013-1.745-1.871-1.745c-3.298,0-9.904,0-11.304,0c-1.855,0-1.872,1.538-1.872,1.596v28.089
	C10.533,49.338,13.051,51.933,16.172,51.933z"/>
<path opacity="0.8" fill="none" stroke="#FFFFFF" stroke-miterlimit="10" d="M16.172,50.934c-2.558,0-4.64-2.116-4.64-4.717V18.128
	c0.023-0.596,0.662-0.596,0.872-0.596h11.304c0.21,0,0.85,0,0.871,0.754c-0.002,0.091,0.003,1.14,0.779,1.928
	c0.357,0.363,1.01,0.796,2.092,0.796l24.466-0.003c0.263,0,0.446,0.055,0.551,0.102v25.107c0,2.601-2.04,4.717-4.547,4.717H16.172z"
	/>
<radialGradient id="SVGID_2_" cx="1506.46" cy="-1013.1687" r="34.4255" gradientTransform="matrix(0.0197 0.9998 -0.9109 0.018 -922.1061 -1463.46)" gradientUnits="userSpaceOnUse">
	<stop  offset="0" style="stop-color:#FFFFFF;stop-opacity:0.6"/>
	<stop  offset="0.3783" style="stop-color:#FAFCFE;stop-opacity:0.4487"/>
	<stop  offset="0.829" style="stop-color:#EBF3FC;stop-opacity:0.2684"/>
	<stop  offset="1" style="stop-color:#E4EEFB;stop-opacity:0.2"/>
</radialGradient>
<path fill="url(#SVGID_2_)" d="M16.172,51.181c-2.695,0-4.887-2.226-4.887-4.964V18.128c0-0.036,0.006-0.336,0.229-0.56
	c0.187-0.187,0.486-0.282,0.889-0.282h11.304c0.446,0,0.673,0.053,0.809,0.19c0.3,0.302,0.313,0.762,0.313,0.767
	c-0.001,0.099,0.004,1.081,0.732,1.82c0.464,0.471,1.1,0.709,1.89,0.709c0,0,20.898-0.008,24.461-0.008
	c0.471,0,0.731,0.162,0.798,0.239v25.214c0,2.738-2.15,4.964-4.793,4.964H16.172L16.172,51.181L16.172,51.181z"/>
<g id="g27_1_">
	
		<linearGradient id="path36_2_" gradientUnits="userSpaceOnUse" x1="1520.0824" y1="2152.541" x2="1526.0471" y2="2162.8721" gradientTransform="matrix(1 0 0 1 -1508 -2144)">
		<stop  offset="0" style="stop-color:#FFFFFF"/>
		<stop  offset="0.5" style="stop-color:#FFFFFF;stop-opacity:0.6"/>
		<stop  offset="1" style="stop-color:#FFFFFF;stop-opacity:0.15"/>
	</linearGradient>
	<path id="path36_1_" fill="url(#path36_2_)" d="M17,20.627c0.667-1.381,1.481-2.674,2.414-3.869l-1.699-3.725
		c-1.451,1.372-2.629,2.883-3.569,4.351L17,20.627z"/>
	
		<linearGradient id="path45_2_" gradientUnits="userSpaceOnUse" x1="1525.4906" y1="2150.9939" x2="1529.3943" y2="2157.7554" gradientTransform="matrix(1 0 0 1 -1508 -2144)">
		<stop  offset="0" style="stop-color:#FFFFFF"/>
		<stop  offset="0.5" style="stop-color:#FFFFFF;stop-opacity:0.6"/>
		<stop  offset="1" style="stop-color:#FFFFFF;stop-opacity:0.15"/>
	</linearGradient>
	<path id="path45_1_" fill="url(#path45_2_)" d="M17.178,9.452l0.888,1.946c0.854-0.709,1.791-0.954,2.812-1.946H17.178z"/>
	
		<linearGradient id="path54_2_" gradientUnits="userSpaceOnUse" x1="1526.7184" y1="2149.7102" x2="1531.4878" y2="2157.9709" gradientTransform="matrix(1 0 0 1 -1508 -2144)">
		<stop  offset="0" style="stop-color:#FFFFFF"/>
		<stop  offset="0.5" style="stop-color:#FFFFFF;stop-opacity:0.6"/>
		<stop  offset="1" style="stop-color:#FFFFFF;stop-opacity:0.15"/>
	</linearGradient>
	<path id="path54_1_" fill="url(#path54_2_)" d="M23.841,9.452h-0.703c-1.772,0.992-3.321,1.75-4.65,2.881l1.628,3.573
		c1.391-1.607,3.005-3.015,4.813-4.152c0.014-0.013,0.024-0.024,0.039-0.036C26.994,9.968,24.983,9.452,23.841,9.452z"/>
	
		<linearGradient id="path63_2_" gradientUnits="userSpaceOnUse" x1="1516.7354" y1="2157.2505" x2="1521.9113" y2="2166.2153" gradientTransform="matrix(1 0 0 1 -1508 -2144)">
		<stop  offset="0" style="stop-color:#FFFFFF"/>
		<stop  offset="0.5" style="stop-color:#FFFFFF;stop-opacity:0.6"/>
		<stop  offset="1" style="stop-color:#FFFFFF;stop-opacity:0.15"/>
	</linearGradient>
	<path id="path63_1_" fill="url(#path63_2_)" d="M13.606,18.269c-1.089,1.855-1.802,3.569-2.224,4.741
		c0.5,0.714,1.327,1.182,2.265,1.182c1.161,0,2.153-0.717,2.563-1.731c0.105-0.283,0.233-0.555,0.351-0.834L13.606,18.269z"/>
	
		<linearGradient id="path72_2_" gradientUnits="userSpaceOnUse" x1="1516.5024" y1="2157.6179" x2="1522.2385" y2="2167.5532" gradientTransform="matrix(1 0 0 1 -1508 -2144)">
		<stop  offset="0" style="stop-color:#FFFFFF"/>
		<stop  offset="0.5" style="stop-color:#FFFFFF;stop-opacity:0.6"/>
		<stop  offset="1" style="stop-color:#FFFFFF;stop-opacity:0.15"/>
	</linearGradient>
	<path id="path72_1_" fill="url(#path72_2_)" d="M10.901,15.192l-0.021,6.229c0,0,0,0.002,0,0.004c0,0.039,0.01,0.076,0.012,0.114
		c0.474-1.152,1.135-2.56,2.031-4.048L10.901,15.192z"/>
	
		<linearGradient id="path149_2_" gradientUnits="userSpaceOnUse" x1="1520.8402" y1="2154.5063" x2="1526.2263" y2="2163.8357" gradientTransform="matrix(1 0 0 1 -1508 -2144)">
		<stop  offset="0" style="stop-color:#FFFFFF"/>
		<stop  offset="0.5" style="stop-color:#FFFFFF;stop-opacity:0.6"/>
		<stop  offset="1" style="stop-color:#FFFFFF;stop-opacity:0.15"/>
	</linearGradient>
	<path id="path149_1_" fill="url(#path149_2_)" d="M15.994,9.464c-2.024-0.168-4.689,2.111-5.03,4.297l2.511,2.855
		c1.002-1.53,2.248-3.096,3.786-4.512L15.994,9.464z"/>
</g>
<g>
	<g opacity="0.3" enable-background="new    ">
		<g>
			<path fill="#FFFFFF" d="M32,45.764c-6.276,0-11.382-5.106-11.382-11.382S25.724,23,32,23s11.382,5.106,11.382,11.382
				S38.276,45.764,32,45.764z M32,24.423c-5.492,0-9.959,4.468-9.959,9.959c0,5.491,4.468,9.959,9.959,9.959
				c5.491,0,9.959-4.469,9.959-9.959C41.959,28.89,37.491,24.423,32,24.423z"/>
		</g>
		<g>
			<path fill="#669CCC" d="M32,45.076c-6.276,0-11.382-5.106-11.382-11.382S25.724,22.311,32,22.311s11.382,5.106,11.382,11.382
				S38.276,45.076,32,45.076z M32,23.735c-5.492,0-9.959,4.468-9.959,9.959c0,5.491,4.468,9.959,9.959,9.959
				c5.491,0,9.959-4.469,9.959-9.959C41.959,28.202,37.491,23.735,32,23.735z"/>
		</g>
	</g>
	<g>
		<path opacity="0.3" fill="#669CCC" enable-background="new    " d="M32,23.378c-5.688,0-10.316,4.627-10.316,10.316
			S26.312,44.009,32,44.009s10.316-4.628,10.316-10.316S37.688,23.378,32,23.378z M32,43.652c-5.492,0-9.959-4.469-9.959-9.959
			c0-5.492,4.468-9.959,9.959-9.959c5.491,0,9.959,4.468,9.959,9.959C41.959,39.184,37.491,43.652,32,43.652z"/>
		<path opacity="0.3" fill="#669CCC" enable-background="new    " d="M32,22.311c-6.276,0-11.382,5.106-11.382,11.382
			S25.724,45.076,32,45.076s11.382-5.106,11.382-11.382S38.276,22.311,32,22.311z M32,44.719c-6.079,0-11.025-4.946-11.025-11.025
			S25.92,22.668,32,22.668c6.079,0,11.025,4.946,11.025,11.025C43.025,39.773,38.079,44.719,32,44.719z"/>
	</g>
	<g>
		<g>
			<g>
				<g>
					<g>
						<defs>
							<circle id="SVGID_7_" cx="32" cy="34.382" r="9.472"/>
						</defs>
						<clipPath id="SVGID_3_">
							<use xlink:href="#SVGID_7_"  overflow="visible"/>
						</clipPath>
						<path opacity="0.3" clip-path="url(#SVGID_3_)" fill="#FFFFFF" enable-background="new    " d="M29.31,25.163
							c0.371,0.497,0.025,1.33,0.586,1.321c0.272,0.387-0.544,0.116,0.045,0.413c0.34,0.266-0.359,0.42,0.061,0.658
							c-0.482,0.249,0.08,1.304,0.44,1.567c0.592,0.497,0.261-1.053,0.922-1.134c0.359-0.409,0.988-0.671,1.437-1.083
							c-0.438-0.034-0.693-0.307-0.279-0.475c0.763,0.779,0.191-0.369-0.231-0.55c0.408-0.13,0.806-0.034,0.749-0.371
							c0.432-0.316-0.415-0.417-0.717-0.346C31.318,25.163,30.314,25.163,29.31,25.163z M23.048,25.489
							c-0.552,0.157-0.591,1.473-0.036,0.742C23.148,25.932,23.776,25.569,23.048,25.489z M25.625,25.535
							c-0.318,0.497,0.047,0.896,0.31,0.289C26.124,25.571,25.797,25.544,25.625,25.535z M26.421,25.648
							c-0.615,0.284-0.151,0.947-0.136,1.095c0.648,0.224,1.008-0.147,1.253,0.486c0.616,0.355-0.013,0.97-0.244,1.13
							c0.417-0.364,1.218,0.982,1.006,0.272c-0.25-0.182,0.673,0.293,0.195-0.299c-0.441-0.709,0.036-0.317,0.221-0.151
							c0.631-0.565-0.715-0.634-0.379-1.215c-0.294-0.239-0.681-0.96-1.202-0.819c-0.35,0.45-0.05-0.984-0.561-0.266
							c-0.027,0.4-0.01,0.909-0.159,0.215C26.315,25.973,26.587,25.69,26.421,25.648z M25.167,25.652
							c-0.412,0.136-0.39,0.693,0.118,0.753C25.458,26.207,25.353,25.689,25.167,25.652z M23.557,25.829
							c-0.535,0.127-0.317,0.558-0.153,0.68c-0.663,0.166,1.013,0.212,0.178,0.317c-0.693,0.277,0.669,0.603,0.893,0.275
							c0.856,0.21,0.03-0.684-0.044-1.169c-0.364-0.389-0.014,0.896-0.343,0.042C23.972,26.227,23.609,26.01,23.557,25.829z
							 M40.585,25.886c-0.719,0.28,0.447,1.341,0.157,0.376C40.713,26.146,40.808,25.838,40.585,25.886z M25.57,26.313
							c-0.517,0.484,0.656,0.885-0.149,1.246c-0.12-0.451-0.328,0.225-0.788-0.139c-0.792,0.329-1.197-0.172-1.86-0.514
							c-0.398-0.05-0.249,0.378-0.275,0.777c0,1.105,0,2.21,0,3.315c0.39,0.411,0.153,0.181,0,0.068
							c0.215,0.729-0.095,1.793,0.75,2.216c0.144,0.265,0.746,1.398,0.775,1.06c-0.302-0.316-0.612-1.262-0.101-0.418
							c0.459,0.802,1.076,1.322,1.978,1.513c0.494,0.166,0.899,0.743,1.332,0.616c0.245,0.645-0.728,1.266,0.033,1.867
							c0.397,0.609,1.062,1.009,0.702,1.864c-0.252,0.836-0.144,1.745-0.363,2.525c-0.068,0.474,0.662,1.676,0.598,0.714
							c0.213-0.669,0.207-1.406,0.709-1.879c0.686,0.006,0.131-0.737,0.812-0.639c0.415-0.544,0.537-1.192,1.238-1.408
							c0.083-0.66,1.167-1.671,0.048-1.928c-0.304-0.149-1.086-0.204-1.027-0.277c0.122-0.656-1.011-0.843-1.493-1.11
							c-0.633-0.448-1.585,0.745-1.807-0.283c-0.133-0.323-0.62-0.328-0.397-0.828c-0.403,0.4-1.191,0.278-0.985-0.494
							c0.313-0.65,1.517-0.682,1.722,0.101c-0.285-0.864,0.55-1.536,1.014-2.15c0.094-0.294,0.655-0.547,0.462-0.157
							c0.328-0.012,0.828-0.603,0.244-0.331c-0.009-0.541-0.512-0.387-0.677-0.31c0.303-0.48,1.857-0.217,1.206-1.002
							c-0.504-0.204-0.462-1.394-0.973-0.731c0.043-0.408-1.038-1.209-1.014-0.523c0.131,0.612,0.024,1.319-0.257,1.722
							c-0.059-0.899-1.594-0.7-1.397-1.657c0.285-0.457,0.62-1.088,0.651-1.03c0.512-0.196,0.925-0.763,0.331-1.136
							c-0.032,0.325-0.447,0.996-0.388,0.184C25.841,27.613,25.93,26.434,25.57,26.313z M37.835,26.627
							c-0.9,0.219-1.257,1.077-1.703,1.788c-0.656,0.295-0.631,1.564,0.102,1.158c0.196,0.343-0.138,0.881,0.435,0.435
							c0.461-0.609,0.081-1.594,0.865-1.978c0.057,0.298-0.724,1.414,0.188,1.23c0.825,0.032-0.6,0.082-0.198,0.607
							c-0.417-0.246-0.201,0.674-0.744,0.46c-0.471,0.257-0.781-0.119-0.671-0.529c-0.371,0.216,0.116,0.825-0.527,0.861
							c-0.144,0.512-1.33,0.435-0.656,0.953c0.299,0.775-1.115,0.048-0.714,0.977c0.344,0.918,1.063-0.304,1.357-0.541
							c0.563-0.436,1.399,0.744,0.891,0.788c0.568-0.076,0.452-0.616-0.004-0.825c-0.246-0.636,0.779,0.312,0.722,0.631
							c0.361,0.675,0.212-0.692,0.581-0.086c-0.043,0.639,1.48,0.151,0.753,0.965c-0.625,0.127-1.242-0.16-1.78,0.023
							c-0.501-0.006-0.476-0.539-0.658-0.673c-0.638,0.052-1.426,0.045-1.852,0.559c-0.461,0.631-1.127,1.515-0.624,2.322
							c0.504,1.196,1.752,0.062,2.469,0.768c0.213,0.294-0.184,0.644,0.292,0.964c0.18,0.68-0.204,1.325,0.237,1.974
							c0.227,0.611,0.369,1.524,1.218,0.967c0.898-0.539,0.659-1.533,1.399-2.084c-0.586-1.132,0.717-1.628,1.042-2.547
							c-0.71,0.104-1.343-0.603-1.515-1.315c-0.298-0.346-0.221-0.855,0.112-0.206c0.459,0.444,0.468,1.758,1.316,1.081
							c0.388-0.162,1.446-0.779,0.603-1.06c-0.543,0.393-1.143-1.174-0.345-0.265c0.58,0.246,0.986,0.391,0.986-0.423
							c0-2.195,0-4.419,0-6.628c-0.181,0.184-0.645,0.524-0.879,0.298c-0.403,0.056-0.936,0.839-0.808,0.082
							c-0.352-0.023-0.063,0.678-0.544,0.699c-0.048,0.361-0.486,0.067-0.322,0.409c-0.338-0.239-0.624-0.995,0.042-0.52
							c0.988-0.295-0.651-0.964-0.779-1.125C38.332,26.775,37.888,26.554,37.835,26.627z M33.514,27.893
							c-0.327,0.375-0.758-0.098-0.766,0.225c0.059,0.097,0.295,0.793,0.816,0.279C33.844,28.279,33.733,27.984,33.514,27.893z
							 M26.564,28.118c-0.618,0.539,1.052,0.59,0.131,0.062L26.564,28.118z M34.732,29.611c-0.446,0.29,0.213,0.907-0.01,1.196
							c-0.279,0.486,1.038-0.034,0.334-0.422C35.005,30.053,34.643,29.646,34.732,29.611z M34.431,30.197
							c-0.621,0.175-0.142,1.08,0.08,0.227C34.522,30.375,34.538,30.194,34.431,30.197z M29.458,30.851
							c-0.577,0.393-0.089,0.786,0.333,0.609C29.705,31.223,29.461,31.074,29.458,30.851z M40.372,31.513
							c0.288,0.145-0.528,0.393-0.012,0.649c0.301,0.354,0.187,1.112-0.302,0.574C40.149,32.138,39.395,31.689,40.372,31.513z
							 M38.889,31.517c-0.039,0.385,0.832,0.982-0.107,0.788c-0.497,0.058-1.24-0.015-0.615-0.633
							c0.198-0.119,0.716,0.409,0.447-0.085C38.71,31.583,38.798,31.546,38.889,31.517z M26.925,34.522
							c-0.061,0.204,1.145,0.409,0.313,0.083l-0.124-0.044L26.925,34.522z M40.101,38.213c-0.796,0.021-0.69,2.068-0.136,0.856
							C40.019,38.806,40.229,38.459,40.101,38.213z"/>
					</g>
				</g>
			</g>
		</g>
		<g>
			<g>
				<g>
					<g>
						<defs>
							<circle id="SVGID_9_" cx="32" cy="33.693" r="9.472"/>
						</defs>
						<clipPath id="SVGID_4_">
							<use xlink:href="#SVGID_9_"  overflow="visible"/>
						</clipPath>
						<path opacity="0.3" clip-path="url(#SVGID_4_)" fill="#669CCC" enable-background="new    " d="M29.31,24.475
							c0.371,0.497,0.025,1.33,0.586,1.321c0.272,0.387-0.544,0.116,0.045,0.413c0.34,0.266-0.359,0.42,0.061,0.658
							c-0.482,0.249,0.08,1.304,0.44,1.567c0.592,0.497,0.261-1.053,0.922-1.134c0.359-0.409,0.988-0.671,1.437-1.083
							c-0.438-0.034-0.693-0.307-0.279-0.475c0.763,0.779,0.191-0.369-0.231-0.55c0.408-0.13,0.806-0.034,0.749-0.371
							c0.432-0.316-0.415-0.417-0.717-0.346C31.318,24.475,30.314,24.475,29.31,24.475z M23.048,24.801
							c-0.552,0.157-0.591,1.473-0.036,0.742C23.148,25.243,23.776,24.88,23.048,24.801z M25.625,24.846
							c-0.318,0.497,0.047,0.896,0.31,0.289C26.124,24.883,25.797,24.855,25.625,24.846z M26.421,24.959
							c-0.615,0.284-0.151,0.947-0.136,1.095c0.648,0.224,1.008-0.147,1.253,0.486c0.616,0.355-0.013,0.97-0.244,1.13
							c0.417-0.364,1.218,0.982,1.006,0.272c-0.25-0.182,0.673,0.293,0.195-0.299c-0.441-0.709,0.036-0.317,0.221-0.151
							c0.631-0.565-0.715-0.634-0.379-1.215c-0.294-0.239-0.681-0.96-1.202-0.819c-0.35,0.45-0.05-0.984-0.561-0.266
							c-0.027,0.4-0.01,0.909-0.159,0.215C26.315,25.284,26.587,25.002,26.421,24.959z M25.167,24.964
							c-0.412,0.136-0.39,0.693,0.118,0.753C25.458,25.518,25.353,25,25.167,24.964z M23.557,25.141
							c-0.535,0.127-0.317,0.558-0.153,0.68c-0.663,0.166,1.013,0.212,0.178,0.317c-0.693,0.277,0.669,0.603,0.893,0.275
							c0.856,0.21,0.03-0.684-0.044-1.169c-0.364-0.389-0.014,0.896-0.343,0.042C23.972,25.538,23.609,25.322,23.557,25.141z
							 M40.585,25.197c-0.719,0.28,0.447,1.341,0.157,0.376C40.713,25.458,40.808,25.15,40.585,25.197z M25.57,25.624
							c-0.517,0.484,0.656,0.885-0.149,1.246c-0.12-0.451-0.328,0.225-0.788-0.139c-0.792,0.329-1.197-0.172-1.86-0.514
							c-0.398-0.05-0.249,0.378-0.275,0.777c0,1.105,0,2.21,0,3.315c0.39,0.411,0.153,0.181,0,0.068
							c0.215,0.729-0.095,1.793,0.75,2.216c0.144,0.265,0.746,1.398,0.775,1.06c-0.302-0.316-0.612-1.262-0.101-0.418
							c0.459,0.802,1.076,1.322,1.978,1.513c0.494,0.166,0.899,0.743,1.332,0.616c0.245,0.645-0.728,1.266,0.033,1.867
							c0.397,0.609,1.062,1.009,0.702,1.864c-0.252,0.836-0.144,1.745-0.363,2.525c-0.068,0.474,0.662,1.676,0.598,0.714
							c0.213-0.669,0.207-1.406,0.709-1.879c0.686,0.006,0.131-0.737,0.812-0.639c0.415-0.544,0.537-1.192,1.238-1.408
							c0.083-0.66,1.167-1.671,0.048-1.928c-0.304-0.149-1.086-0.204-1.027-0.277c0.122-0.656-1.011-0.843-1.493-1.11
							c-0.633-0.449-1.585,0.745-1.807-0.283c-0.133-0.323-0.62-0.328-0.397-0.828c-0.403,0.4-1.191,0.278-0.985-0.494
							c0.313-0.65,1.517-0.682,1.722,0.101c-0.285-0.864,0.55-1.536,1.014-2.15c0.094-0.294,0.655-0.547,0.462-0.157
							c0.328-0.012,0.828-0.603,0.244-0.331c-0.009-0.541-0.512-0.387-0.677-0.31c0.303-0.48,1.857-0.217,1.206-1.002
							c-0.504-0.204-0.462-1.394-0.973-0.731c0.043-0.408-1.038-1.209-1.014-0.523c0.131,0.612,0.024,1.319-0.257,1.722
							c-0.059-0.899-1.594-0.7-1.397-1.657c0.285-0.457,0.62-1.088,0.651-1.03c0.512-0.196,0.925-0.763,0.331-1.136
							c-0.032,0.325-0.447,0.996-0.388,0.184C25.841,26.924,25.93,25.745,25.57,25.624z M37.835,25.939
							c-0.9,0.219-1.257,1.077-1.703,1.788c-0.656,0.295-0.631,1.564,0.102,1.158c0.196,0.343-0.138,0.881,0.435,0.435
							c0.461-0.609,0.081-1.594,0.865-1.978c0.057,0.298-0.724,1.414,0.188,1.23c0.825,0.032-0.6,0.082-0.198,0.607
							c-0.417-0.246-0.201,0.674-0.744,0.46C36.31,29.896,36,29.52,36.109,29.11c-0.371,0.216,0.116,0.825-0.527,0.861
							c-0.144,0.512-1.33,0.435-0.656,0.953c0.299,0.775-1.115,0.048-0.714,0.977c0.344,0.918,1.063-0.304,1.357-0.541
							c0.563-0.436,1.399,0.744,0.891,0.788c0.568-0.076,0.452-0.616-0.004-0.825c-0.246-0.636,0.779,0.312,0.722,0.631
							c0.361,0.676,0.212-0.692,0.581-0.086c-0.043,0.639,1.48,0.151,0.753,0.965c-0.625,0.127-1.242-0.16-1.78,0.023
							c-0.501-0.006-0.476-0.539-0.658-0.673c-0.638,0.052-1.426,0.045-1.852,0.559c-0.461,0.631-1.127,1.515-0.624,2.322
							c0.504,1.196,1.752,0.062,2.469,0.768c0.213,0.294-0.184,0.644,0.292,0.964c0.18,0.68-0.204,1.325,0.237,1.974
							c0.227,0.611,0.369,1.524,1.218,0.967c0.898-0.539,0.659-1.533,1.399-2.084c-0.586-1.132,0.717-1.628,1.042-2.547
							c-0.71,0.104-1.343-0.603-1.515-1.315c-0.298-0.346-0.221-0.855,0.112-0.206c0.459,0.444,0.468,1.758,1.316,1.081
							c0.388-0.162,1.446-0.779,0.603-1.06c-0.543,0.393-1.143-1.174-0.345-0.265c0.58,0.246,0.986,0.391,0.986-0.423
							c0-2.195,0-4.419,0-6.628c-0.181,0.184-0.645,0.524-0.879,0.298c-0.403,0.056-0.936,0.839-0.808,0.082
							c-0.352-0.023-0.063,0.678-0.544,0.699c-0.048,0.361-0.486,0.067-0.322,0.409c-0.338-0.239-0.624-0.995,0.042-0.52
							c0.988-0.295-0.651-0.964-0.779-1.125C38.332,26.087,37.888,25.866,37.835,25.939z M33.514,27.204
							c-0.327,0.375-0.758-0.098-0.766,0.225c0.059,0.097,0.295,0.793,0.816,0.279C33.844,27.59,33.733,27.295,33.514,27.204z
							 M26.564,27.429c-0.618,0.539,1.052,0.59,0.131,0.062L26.564,27.429z M34.732,28.923c-0.446,0.29,0.213,0.907-0.01,1.196
							c-0.279,0.486,1.038-0.034,0.334-0.422C35.005,29.364,34.643,28.957,34.732,28.923z M34.431,29.508
							c-0.621,0.175-0.142,1.08,0.08,0.227C34.522,29.686,34.538,29.505,34.431,29.508z M29.458,30.163
							c-0.577,0.393-0.089,0.786,0.333,0.609C29.705,30.534,29.461,30.386,29.458,30.163z M40.372,30.824
							c0.288,0.145-0.528,0.393-0.012,0.649c0.301,0.354,0.187,1.112-0.302,0.574C40.149,31.449,39.395,31.001,40.372,30.824z
							 M38.889,30.829c-0.039,0.385,0.832,0.982-0.107,0.788c-0.497,0.058-1.24-0.015-0.615-0.633
							c0.198-0.119,0.716,0.409,0.447-0.085C38.71,30.894,38.798,30.858,38.889,30.829z M26.925,33.833
							c-0.061,0.204,1.145,0.409,0.313,0.083l-0.124-0.044L26.925,33.833z M40.101,37.524c-0.796,0.021-0.69,2.068-0.136,0.856
							C40.019,38.118,40.229,37.77,40.101,37.524z"/>
					</g>
				</g>
			</g>
		</g>
	</g>
	<g>
		<g>
			<g>
				<defs>
					<path id="SVGID_11_" d="M32,42.762c-5,0-9.068-4.068-9.068-9.068S27,24.625,32,24.625s9.068,4.068,9.068,9.068
						S37,42.762,32,42.762z"/>
				</defs>
				<clipPath id="SVGID_5_">
					<use xlink:href="#SVGID_11_"  overflow="visible"/>
				</clipPath>
				<g clip-path="url(#SVGID_5_)">
					<path opacity="0.3" fill="#669CCC" enable-background="new    " d="M29.791,30.772c-0.086-0.237-0.329-0.387-0.333-0.609
						C28.88,30.556,29.367,30.948,29.791,30.772z"/>
					<path opacity="0.3" fill="#669CCC" enable-background="new    " d="M25.285,25.716c0.173-0.198,0.068-0.716-0.118-0.753
						C24.755,25.1,24.777,25.657,25.285,25.716z"/>
					<path opacity="0.3" fill="#669CCC" enable-background="new    " d="M23.013,25.542c0.135-0.299,0.764-0.662,0.036-0.742
						C22.496,24.958,22.457,26.274,23.013,25.542z"/>
					<path opacity="0.3" fill="#669CCC" enable-background="new    " d="M23.404,25.82c-0.663,0.166,1.013,0.212,0.178,0.317
						c-0.693,0.277,0.669,0.603,0.893,0.275c0.856,0.21,0.03-0.684-0.044-1.169c-0.364-0.389-0.014,0.896-0.343,0.042
						c-0.116,0.254-0.48,0.036-0.532-0.144C23.021,25.267,23.24,25.699,23.404,25.82z M24.232,25.988
						c0.023,0,0.046-0.002,0.069-0.006c0,0,0.019,0.035,0.028,0.054c-0.038,0.014-0.073,0.035-0.105,0.06c0-0.001,0-0.003,0-0.004
						c0.001-0.038-0.001-0.072-0.007-0.104C24.222,25.988,24.232,25.988,24.232,25.988z"/>
					<path opacity="0.3" fill="#669CCC" enable-background="new    " d="M27.538,26.54c0.616,0.355-0.013,0.97-0.244,1.13
						c0.417-0.364,1.218,0.982,1.006,0.272c-0.25-0.182,0.673,0.293,0.195-0.299c-0.441-0.709,0.036-0.317,0.221-0.151
						c0.631-0.565-0.715-0.634-0.379-1.215c-0.294-0.239-0.681-0.96-1.202-0.819c-0.35,0.45-0.05-0.984-0.561-0.266
						c-0.027,0.4-0.01,0.909-0.159,0.215c-0.1-0.121,0.172-0.404,0.006-0.447c-0.615,0.284-0.151,0.947-0.136,1.095
						C26.933,26.278,27.293,25.907,27.538,26.54z"/>
					<path opacity="0.3" fill="#669CCC" enable-background="new    " d="M34.51,29.735c0.012-0.05,0.028-0.23-0.08-0.227
						C33.809,29.683,34.289,30.587,34.51,29.735z"/>
					<path opacity="0.3" fill="#669CCC" enable-background="new    " d="M26.564,27.429c-0.618,0.539,1.052,0.59,0.131,0.062
						L26.564,27.429z"/>
					<path opacity="0.3" fill="#669CCC" enable-background="new    " d="M25.936,25.135c0.188-0.252-0.139-0.28-0.31-0.289
						C25.308,25.344,25.672,25.743,25.936,25.135z"/>
					<path opacity="0.3" fill="#669CCC" enable-background="new    " d="M29.896,25.843c0.272,0.387-0.544,0.093,0.045,0.389
						c0.34,0.266-0.359,0.407,0.061,0.646c-0.482,0.249,0.08,1.297,0.44,1.561c0.592,0.497,0.261-1.057,0.922-1.137
						c0.359-0.409,0.988-0.673,1.437-1.084c-0.438-0.034-0.693-0.307-0.279-0.475c0.763,0.779,0.191-0.369-0.231-0.551
						c0.408-0.13,0.806,0.013,0.749-0.324c0.432-0.316-0.415-0.299-0.717-0.299c-1.004,0-2.008,0-3.012,0
						C29.681,25.258,29.335,25.852,29.896,25.843z M32.036,25.258c-0.087,0-0.143-0.013-0.149,0.104
						c-0.008,0.153,0.072,0.199,0.202,0.274c-0.198,0.188-0.186,0.359-0.175,0.437c0.015,0.096,0.055,0.161,0.117,0.239
						c-0.042,0.028-0.084,0.043-0.127,0.071c-0.262,0.17-0.532,0.338-0.751,0.557c-0.442,0.147-0.574,0.631-0.651,0.971
						c-0.16-0.229-0.303-0.563-0.284-0.703c0.114-0.072,0.185-0.197,0.188-0.334c0.002-0.074-0.017-0.147-0.053-0.208
						c0.056-0.092,0.103-0.215,0.085-0.368c-0.011-0.09-0.043-0.173-0.096-0.25c0.03-0.12,0.024-0.288-0.117-0.487
						c-0.065-0.093-0.166-0.153-0.277-0.167c-0.012-0.063-0.021,0.034-0.028-0.034c-0.009-0.089-0.019-0.105-0.036-0.105
						C29.885,25.258,32.036,25.258,32.036,25.258z"/>
					<path opacity="0.3" fill="#669CCC" enable-background="new    " d="M34.721,30.119c-0.279,0.486,1.038-0.034,0.334-0.422
						c-0.051-0.333-0.413-0.74-0.325-0.775C34.285,29.214,34.945,29.83,34.721,30.119z"/>
					<path opacity="0.3" fill="#669CCC" enable-background="new    " d="M39.966,38.38c0.053-0.263,0.263-0.61,0.136-0.856
						C39.305,37.544,39.412,39.591,39.966,38.38z"/>
					<path opacity="0.3" fill="#669CCC" enable-background="new    " d="M40.562,26.591c-0.403,0.056-0.949,0.839-0.822,0.082
						c-0.352-0.023-0.07,0.678-0.551,0.699c-0.048,0.361-0.49,0.067-0.325,0.409c-0.338-0.239-0.625-0.995,0.04-0.52
						c0.988-0.295-0.652-0.964-0.78-1.125c0.21-0.05-0.235-0.27-0.288-0.197c-0.9,0.219-1.257,1.077-1.703,1.788
						c-0.656,0.295-0.631,1.564,0.102,1.158c0.196,0.343-0.138,0.881,0.435,0.435c0.461-0.609,0.081-1.594,0.865-1.978
						c0.057,0.298-0.724,1.414,0.188,1.23c0.825,0.032-0.6,0.082-0.198,0.607c-0.417-0.246-0.201,0.674-0.744,0.46
						c-0.471,0.257-0.781-0.119-0.672-0.529c-0.371,0.216,0.116,0.825-0.527,0.861c-0.144,0.512-1.33,0.435-0.656,0.953
						c0.299,0.775-1.115,0.048-0.714,0.977c0.344,0.918,1.063-0.304,1.357-0.541c0.563-0.436,1.399,0.744,0.891,0.788
						c0.568-0.076,0.452-0.616-0.004-0.825c-0.246-0.636,0.779,0.312,0.722,0.631c0.361,0.675,0.212-0.692,0.581-0.086
						c-0.043,0.639,1.48,0.151,0.753,0.965c-0.625,0.127-1.242-0.16-1.78,0.023c-0.501-0.006-0.476-0.539-0.658-0.673
						c-0.638,0.052-1.426,0.045-1.852,0.559c-0.461,0.631-1.127,1.515-0.624,2.322c0.504,1.196,1.752,0.062,2.469,0.768
						c0.213,0.294-0.184,0.644,0.292,0.964c0.18,0.68-0.204,1.325,0.237,1.974c0.227,0.611,0.369,1.524,1.218,0.967
						c0.898-0.539,0.659-1.533,1.399-2.084c-0.586-1.132,0.717-1.628,1.042-2.547c-0.71,0.104-1.343-0.603-1.515-1.315
						c-0.298-0.346-0.221-0.855,0.112-0.206c0.459,0.444,0.468,1.758,1.316,1.081c0.388-0.162,1.446-0.779,0.603-1.06
						c-0.543,0.393-1.116-1.174-0.317-0.265c0.58,0.246,1.013,0.391,1.013-0.423c0-2.195,0-4.419,0-6.628
						C41.123,26.478,40.795,26.818,40.562,26.591z M34.604,31.795c-0.004-0.01-0.015-0.038-0.016-0.039
						c0.009-0.001,0.057-0.007,0.073-0.009C34.641,31.765,34.622,31.781,34.604,31.795z M39.605,35.413
						c-0.074,0.094-0.156,0.195-0.24,0.291c-0.383,0.438-0.893,1.024-0.631,1.841c-0.268,0.291-0.394,0.631-0.508,0.938
						c-0.145,0.388-0.259,0.628-0.617,0.843c-0.169,0.111-0.241,0.049-0.255,0.049h-0.005c-0.092,0-0.217-0.354-0.278-0.537
						c-0.031-0.094-0.062-0.153-0.094-0.239c-0.012-0.03-0.026-0.043-0.045-0.069c-0.182-0.269-0.162-0.54-0.136-0.894
						c0.021-0.283,0.045-0.601-0.045-0.943c-0.025-0.095-0.084-0.175-0.166-0.23c-0.055-0.037-0.067-0.058-0.067-0.058
						c-0.007-0.019,0.003-0.093,0.008-0.138c0.019-0.157,0.05-0.42-0.131-0.668c-0.013-0.018-0.028-0.035-0.043-0.051
						c-0.252-0.248-0.574-0.368-0.988-0.368c-0.169,0-0.334,0.019-0.493,0.036c-0.14,0.016-0.273,0.031-0.393,0.031
						c-0.247,0-0.386-0.05-0.506-0.336c-0.008-0.02-0.018-0.039-0.03-0.057c-0.323-0.519,0.073-1.139,0.583-1.837l0.017-0.023
						c0.265-0.31,0.796-0.222,1.314-0.258c0.098,0.23,0.3,0.786,0.873,0.786c0.001,0,0.003,0,0.004,0
						c0.044,0,0.088-0.137,0.13-0.151c0.083-0.028,0.178-0.107,0.299-0.107c0.133,0,0.278,0.108,0.432,0.125
						c0.178,0.02,0.363,0.132,0.559,0.132c0.001,0,0.004,0,0.006,0c-0.034,0,0.066,0.376,0.213,0.58
						C38.545,34.706,38.998,35.182,39.605,35.413z M38.782,31.617c-0.497,0.058-1.24-0.015-0.615-0.633
						c0.198-0.119,0.716,0.409,0.447-0.085c0.096-0.006,0.184-0.042,0.275-0.071C38.85,31.214,39.721,31.812,38.782,31.617z
						 M41.123,32.921c0,0.097-0.064,0.161-0.072,0.203c-0.092-0.021-0.252-0.073-0.357-0.117c-0.235-0.254-0.418-0.355-0.602-0.355
						c-0.16,0-0.309,0.082-0.389,0.219c-0.1,0.174-0.08,0.399,0.065,0.651c0.067,0.116,0.296,0.466,0.671,0.541
						c-0.125,0.085-0.279,0.171-0.426,0.233c-0.035,0.014-0.068,0.034-0.097,0.057c-0.067,0.054-0.114,0.08-0.14,0.091
						c-0.062-0.076-0.148-0.277-0.202-0.402c-0.1-0.234-0.213-0.497-0.391-0.694c-0.074-0.138-0.161-0.271-0.272-0.363
						c0.12-0.155,0.263-0.402,0.173-0.669c-0.042-0.125-0.118-0.213-0.208-0.275c0.072,0.01,0.135,0.015,0.191,0.015
						c0.31,0,0.444-0.162,0.497-0.259c0.018-0.033,0.031-0.065,0.041-0.098c0.038,0.104,0.066,0.201,0.053,0.285
						c-0.019,0.12,0.019,0.242,0.101,0.332c0.195,0.214,0.389,0.318,0.592,0.318c0.219,0,0.409-0.125,0.506-0.336
						c0.14-0.302,0.069-0.755-0.158-1.053c0.082-0.1,0.164-0.241,0.134-0.426c-0.015-0.089-0.071-0.255-0.279-0.36
						c-0.057-0.029-0.119-0.043-0.182-0.043c-0.024,0-0.048,0.002-0.072,0.007c-0.27,0.049-0.6,0.141-0.758,0.422
						c-0.054,0.098-0.077,0.195-0.08,0.289c-0.013-0.021-0.027-0.041-0.039-0.061c-0.041-0.063-0.115-0.177-0.131-0.23
						c0.006-0.128-0.05-0.251-0.149-0.332c-0.073-0.059-0.163-0.09-0.255-0.09c-0.041,0-0.083,0.006-0.122,0.019l-0.061,0.02
						c-0.043,0.014-0.091,0.031-0.113,0.032c-0.081,0.004-0.158,0.033-0.221,0.08c-0.043-0.009-0.087-0.014-0.133-0.014
						c-0.102,0-0.197,0.025-0.28,0.075c-0.028,0.017-0.054,0.036-0.076,0.059c-0.216,0.214-0.335,0.42-0.356,0.616
						c-0.063,0.009-0.116,0.03-0.162,0.057c-0.032-0.045-0.068-0.091-0.108-0.138c-0.201-0.239-0.501-0.525-0.789-0.525
						c-0.149,0-0.287,0.072-0.371,0.192c-0.083-0.024-0.167-0.036-0.252-0.036c-0.172,0-0.337,0.052-0.481,0.15
						c-0.01-0.074-0.031-0.151-0.062-0.232c-0.006-0.015-0.012-0.029-0.02-0.043c0.184-0.083,0.412-0.199,0.561-0.4
						c0.181-0.052,0.297-0.147,0.372-0.256c0.085,0.031,0.176,0.047,0.27,0.047c0.108,0,0.218-0.021,0.327-0.061
						c0.039,0.007,0.077,0.01,0.114,0.01c0.395,0,0.556-0.308,0.632-0.496c0.099-0.01,0.193-0.055,0.263-0.133
						c0.093-0.105,0.123-0.245,0.089-0.374c0.041-0.017,0.083-0.033,0.106-0.041c0.277-0.102,0.4-0.347,0.364-0.572
						c-0.055-0.347-0.396-0.448-0.645-0.448c-0.006,0-0.018,0-0.019,0c0.026,0,0.061-0.102,0.085-0.166
						c0.089-0.245,0.166-0.418,0.129-0.619c-0.024-0.124-0.104-0.21-0.216-0.266c-0.057-0.028-0.119-0.033-0.181-0.033
						c-0.061,0-0.122,0.019-0.177,0.046c-0.649,0.318-0.735,0.918-0.804,1.398c-0.011,0.076-0.022,0.152-0.034,0.224
						c-0.076-0.076-0.179-0.116-0.284-0.116c-0.057,0-0.115,0.012-0.169,0.038c0.001-0.047,0.009-0.107,0.033-0.174
						c0.042-0.12,0.115-0.211,0.201-0.25c0.073-0.033,0.134-0.086,0.176-0.153c0.074-0.118,0.145-0.239,0.217-0.36
						c0.321-0.546,0.601-1.024,1.105-1.209c0.003,0.005,0.007,0.01,0.01,0.014c0.079,0.1,0.199,0.169,0.415,0.294
						c0.036,0.021,0.083,0.047,0.133,0.078c-0.11,0.056-0.195,0.155-0.235,0.28c-0.115,0.363,0.218,0.869,0.508,1.074
						c0.07,0.05,0.151,0.074,0.233,0.074c0.093,0,0.186-0.032,0.261-0.096c0.057-0.048,0.098-0.109,0.121-0.176
						c0.109-0.052,0.184-0.122,0.237-0.2c0.155-0.069,0.252-0.187,0.315-0.308c0.191-0.005,0.347-0.118,0.512-0.237
						c0.051-0.037,0.13-0.094,0.195-0.133c0.072,0.024,0.205,0.036,0.285,0.036c0.095,0-0.008-0.018,0.336-0.047v5.897h0.001V32.921
						z M40.36,31.473c0.301,0.354,0.187,1.112-0.302,0.574c0.091-0.598-0.663-1.047,0.313-1.224
						C40.66,30.969,39.844,31.217,40.36,31.473z"/>
					<path opacity="0.3" fill="#669CCC" enable-background="new    " d="M40.742,25.573c-0.028-0.116,0.066-0.424-0.157-0.376
						C39.867,25.478,41.032,26.538,40.742,25.573z"/>
					<path opacity="0.3" fill="#669CCC" enable-background="new    " d="M31.008,36.479c-0.304-0.149-1.086-0.204-1.027-0.277
						c0.122-0.656-1.011-0.843-1.493-1.11c-0.633-0.449-1.585,0.745-1.807-0.283c-0.133-0.323-0.62-0.328-0.397-0.828
						c-0.402,0.4-1.191,0.278-0.984-0.494c0.313-0.65,1.517-0.682,1.722,0.101c-0.285-0.864,0.55-1.536,1.014-2.15
						c0.095-0.293,0.656-0.545,0.462-0.155c0.328-0.012,0.828-0.603,0.244-0.331c-0.009-0.541-0.512-0.387-0.677-0.31
						c0.303-0.48,1.857-0.217,1.206-1.002c-0.504-0.204-0.462-1.394-0.973-0.731c0.043-0.408-1.038-1.209-1.014-0.523
						c0.131,0.612,0.024,1.319-0.257,1.722c-0.059-0.899-1.594-0.7-1.397-1.657c0.285-0.457,0.62-1.088,0.651-1.03
						c0.512-0.196,0.925-0.763,0.331-1.136c-0.032,0.325-0.447,0.996-0.388,0.184c-0.385,0.455-0.296-0.724-0.656-0.845
						c-0.517,0.484,0.656,0.885-0.149,1.246c-0.12-0.451-0.328,0.225-0.788-0.139c-0.792,0.329-1.352-0.172-2.015-0.514
						c-0.398-0.05-0.43,0.378-0.43,0.777c0,1.105,0,2.21,0,3.315c0.689,0.411,0.307,0.181,0.155,0.068
						c0.215,0.729-0.017,1.793,0.828,2.216c0.144,0.265,0.785,1.398,0.813,1.06c-0.302-0.316-0.593-1.262-0.082-0.418
						c0.459,0.802,1.085,1.322,1.987,1.513c0.494,0.166,0.904,0.743,1.337,0.616c0.245,0.645-0.725,1.266,0.035,1.867
						c0.397,0.609,1.063,1.009,0.704,1.864c-0.252,0.836-0.143,1.745-0.362,2.525c-0.068,0.474,0.662,1.676,0.599,0.714
						c0.213-0.669,0.207-1.406,0.709-1.879c0.686,0.006,0.131-0.737,0.812-0.639c0.415-0.544,0.537-1.192,1.238-1.408
						C31.044,37.747,32.127,36.737,31.008,36.479z M24.936,33.312c-0.011,0.023-0.02,0.047-0.027,0.072
						c-0.042,0.156-0.054,0.292-0.045,0.411c-0.221-0.201-0.418-0.453-0.593-0.76c-0.208-0.343-0.349-0.546-0.609-0.546
						c-0.004,0-0.008,0-0.011,0c-0.008,0-0.048-0.088-0.048-0.088c-0.04-0.073-0.1-0.131-0.174-0.168
						c-0.354-0.177-0.393-0.543-0.429-1.125c-0.006-0.087-0.011-0.176-0.018-0.265c0.042-0.039,0.064-0.085,0.087-0.14
						c0.092-0.215-0.193-0.342-0.193-0.553v-3.142c0-0.087,0.017-0.171,0.014-0.248c0.028,0.017,0.061,0.034,0.087,0.05
						c0.34,0.213,0.695,0.434,1.161,0.434c0.148,0,0.297-0.022,0.449-0.067c0.105,0.048,0.215,0.072,0.325,0.072
						c0.105,0,0.197-0.022,0.273-0.05c0.02,0.014,0.041,0.026,0.063,0.037c0.055,0.026,0.114,0.039,0.174,0.039
						c0.056,0,0.113-0.012,0.165-0.036c0.063-0.028,0.202-0.091,0.323-0.206c0.017,0.029,0.037,0.056,0.061,0.081
						c0.006,0.006,0.011,0.012,0.017,0.017c-0.105,0.105-0.215,0.294-0.405,0.618c-0.094,0.16-0.196,0.335-0.292,0.49
						c-0.025,0.041-0.043,0.085-0.053,0.133c-0.166,0.807,0.484,1.128,0.872,1.32c0.351,0.173,0.506,0.268,0.517,0.445
						c0.012,0.171,0.129,0.316,0.294,0.363c0.036,0.01,0.072,0.015,0.109,0.015c0.13,0,0.255-0.063,0.331-0.173
						c0.284-0.407,0.422-1.031,0.377-1.641c0.075,0.07,0.139,0.147,0.159,0.201c-0.005,0.168,0.096,0.323,0.254,0.386
						c0.049,0.02,0.1,0.029,0.15,0.029c0.066,0,0.131-0.017,0.189-0.047c0.088,0.196,0.202,0.439,0.4,0.607
						c-0.06,0.015-0.122,0.03-0.174,0.041c-0.367,0.084-0.781,0.179-0.991,0.511c-0.096,0.152-0.08,0.349,0.039,0.483
						c0.027,0.031,0.058,0.056,0.091,0.077c-0.071,0.076-0.131,0.16-0.171,0.248c-0.078,0.1-0.169,0.204-0.263,0.314
						c-0.279,0.323-0.598,0.694-0.758,1.127c-0.149-0.053-0.313-0.081-0.488-0.081C25.632,32.596,25.145,32.877,24.936,33.312z
						 M30.873,37.538c-0.096,0.186-0.194,0.378-0.256,0.57c-0.486,0.229-0.72,0.638-0.927,1.005c-0.058,0.102-0.114,0.2-0.175,0.294
						c-0.323,0.034-0.523,0.242-0.594,0.621c-0.001,0.007-0.003,0.014-0.004,0.022c-0.103,0-0.209,0.04-0.283,0.11
						c-0.257,0.243-0.407,0.534-0.508,0.834c0.019-0.178,0.032-0.356,0.045-0.532c0.032-0.435,0.062-0.845,0.176-1.233
						c0.352-0.863-0.097-1.408-0.459-1.846c-0.105-0.127-0.204-0.247-0.286-0.374c-0.024-0.037-0.054-0.069-0.088-0.096
						c-0.186-0.147-0.188-0.204-0.023-0.603c0.094-0.228,0.205-0.499,0.183-0.799c0.008-0.003,0.015-0.006,0.023-0.008
						c0.16-0.056,0.325-0.114,0.446-0.114c0.062,0,0.092,0.016,0.114,0.031c0.012,0.009,0.025,0.017,0.037,0.023
						c0.15,0.083,0.331,0.152,0.523,0.225c0.277,0.105,0.792,0.301,0.77,0.455c-0.016,0.076-0.012,0.157,0.015,0.229
						c0.091,0.246,0.308,0.286,0.668,0.352c0.182,0.033,0.456,0.083,0.562,0.136c0.028,0.014,0.057,0.024,0.087,0.031
						c0.155,0.036,0.195,0.078,0.195,0.078C31.13,37.038,30.963,37.363,30.873,37.538z"/>
					<path opacity="0.3" fill="#669CCC" enable-background="new    " d="M27.115,33.873l-0.189-0.039
						c-0.061,0.204,1.145,0.409,0.313,0.083L27.115,33.873z"/>
					<path opacity="0.3" fill="#669CCC" enable-background="new    " d="M33.514,27.204c-0.327,0.375-0.758-0.098-0.766,0.225
						c0.059,0.097,0.295,0.793,0.816,0.279C33.844,27.59,33.733,27.295,33.514,27.204z"/>
				</g>
			</g>
		</g>
	</g>
</g>
</svg>
