<?xml version="1.0" encoding="utf-8"?>
<!-- Generator: Adobe Illustrator 17.0.0, SVG Export Plug-In . SVG Version: 6.00 Build 0)  -->
<!DOCTYPE svg PUBLIC "-//W3C//DTD SVG 1.1//EN" "http://www.w3.org/Graphics/SVG/1.1/DTD/svg11.dtd">
<svg version="1.1" id="图层_1" xmlns="http://www.w3.org/2000/svg" xmlns:xlink="http://www.w3.org/1999/xlink" x="0px" y="0px"
	 width="48px" height="48px" viewBox="8 8 48 48" enable-background="new 8 8 48 48" xml:space="preserve">
<g id="g151" opacity="0.5">
	<path id="path153" opacity="0.08" enable-background="new    " d="M48.41,52.136H15.617c-3.019,0-5.48-2.367-5.48-5.266v4.028
		c0,2.265,1.925,4.102,4.283,4.102h35.185c2.358,0,4.256-1.836,4.256-4.102V46.87C53.861,49.77,51.428,52.136,48.41,52.136z"/>
	<path id="path155" opacity="0.1" enable-background="new    " d="M48.383,52.136H15.59c-3.018,0-5.451-2.323-5.451-5.222v2.107
		c0,2.265,1.039,5.025,5.25,5.025s28.929,0,33.195,0s5.279-2.76,5.279-5.025v-2.107C53.861,49.813,51.4,52.136,48.383,52.136z"/>
	<path id="path157" opacity="0.1" enable-background="new    " d="M48.383,52.136H15.59c-3.018,0-5.451-2.323-5.451-5.222v1.137
		c0,2.266,1.802,5.041,5.25,5.041s29.249,0,33.195,0c3.947,0,5.279-2.775,5.279-5.039v-1.137
		C53.861,49.813,51.4,52.136,48.383,52.136z"/>
	<rect id="rect159" x="15.107" y="52.136" opacity="0.05" enable-background="new    " width="33.786" height="0.955"/>
	<rect id="rect161" x="16.101" y="52.136" opacity="0.05" enable-background="new    " width="30.805" height="0.955"/>
	<rect id="rect163" x="16.101" y="53.091" opacity="0.05" enable-background="new    " width="30.805" height="0.955"/>
	<rect id="rect165" x="18.087" y="53.091" opacity="0.05" enable-background="new    " width="27.824" height="0.955"/>
	<rect id="rect167" x="21.069" y="53.091" opacity="0.05" enable-background="new    " width="21.862" height="0.955"/>
	<rect id="rect169" x="25.044" y="53.091" opacity="0.05" enable-background="new    " width="13.912" height="0.955"/>
	<rect id="rect171" x="18.087" y="52.136" opacity="0.05" enable-background="new    " width="27.824" height="0.955"/>
	<rect id="rect173" x="20.075" y="52.136" opacity="0.05" enable-background="new    " width="23.849" height="0.955"/>
	<rect id="rect175" x="21.069" y="52.136" opacity="0.05" enable-background="new    " width="21.862" height="0.955"/>
	<rect id="rect177" x="23.056" y="52.136" opacity="0.05" enable-background="new    " width="17.887" height="0.955"/>
	<rect id="rect179" x="23.056" y="52.136" opacity="0.05" enable-background="new    " width="17.887" height="0.955"/>
</g>
<path fill="#C4DCED" stroke="#9DBCD7" stroke-miterlimit="10" d="M53.466,46.281c0,3.121-2.531,5.652-5.652,5.652H16.185
	c-3.121,0-5.652-2.531-5.652-5.652V14.652c0-3.121,2.531-5.652,5.652-5.652h31.63c3.121,0,5.652,2.531,5.652,5.652L53.466,46.281
	L53.466,46.281z"/>
<path opacity="0.6" fill="none" stroke="#FFFFFF" stroke-miterlimit="10" d="M16.185,50.934c-2.565,0-4.652-2.087-4.652-4.652
	V14.652c0-2.565,2.087-4.652,4.652-4.652h31.629c2.565,0,4.652,2.087,4.652,4.652v31.629c0,2.565-2.087,4.652-4.652,4.652H16.185z"
	/>
<path opacity="0.08" fill="none" stroke="#000000" stroke-miterlimit="10" enable-background="new    " d="M53.627,21.193
	c0,0,0-1.899-1.876-1.899c-5.445,0-22.83,0.003-24.387,0.003c-1.891,0-1.876-1.872-1.876-1.872s0-1.885-1.876-1.885
	c-3.284,0-9.861,0-11.255,0c-1.847,0-1.876,1.816-1.876,1.873"/>
<path opacity="0.03" fill="none" stroke="#000000" stroke-miterlimit="10" enable-background="new    " d="M53.627,20.112
	c0,0,0-1.899-1.876-1.899c-5.445,0-22.83,0.003-24.387,0.003c-1.891,0-1.876-1.872-1.876-1.872s0-1.885-1.876-1.885
	c-3.284,0-9.861,0-11.255,0c-1.847,0-1.876,1.816-1.876,1.873"/>
<linearGradient id="SVGID_1_" gradientUnits="userSpaceOnUse" x1="1127.9993" y1="1377.9335" x2="1127.9993" y2="1342.5322" gradientTransform="matrix(1 0 0 1 -1096 -1326)">
	<stop  offset="0" style="stop-color:#D1E0ED"/>
	<stop  offset="1" style="stop-color:#E4EEFB"/>
</linearGradient>
<path fill="url(#SVGID_1_)" stroke="#9DBCD7" stroke-miterlimit="10" d="M16.172,51.933H47.92c3.121,0,5.546-2.595,5.546-5.717
	V20.871c0-0.445-0.665-0.864-1.55-0.864c-5.468,0-22.903,0.003-24.466,0.003c-1.899,0-1.87-1.733-1.87-1.733
	s0.013-1.745-1.871-1.745c-3.298,0-9.904,0-11.304,0c-1.855,0-1.872,1.538-1.872,1.596v28.089
	C10.533,49.338,13.051,51.933,16.172,51.933z"/>
<path opacity="0.8" fill="none" stroke="#FFFFFF" stroke-miterlimit="10" d="M16.172,50.934c-2.558,0-4.64-2.116-4.64-4.717V18.128
	c0.023-0.596,0.662-0.596,0.872-0.596h11.304c0.21,0,0.85,0,0.871,0.754c-0.002,0.091,0.003,1.14,0.779,1.928
	c0.357,0.363,1.01,0.796,2.092,0.796l24.466-0.003c0.263,0,0.446,0.055,0.551,0.102v25.107c0,2.601-2.04,4.717-4.547,4.717H16.172z"
	/>
<radialGradient id="SVGID_2_" cx="1506.46" cy="-1013.1687" r="34.4255" gradientTransform="matrix(0.0197 0.9998 -0.9109 0.018 -922.1061 -1463.46)" gradientUnits="userSpaceOnUse">
	<stop  offset="0" style="stop-color:#FFFFFF;stop-opacity:0.6"/>
	<stop  offset="0.3783" style="stop-color:#FAFCFE;stop-opacity:0.4487"/>
	<stop  offset="0.829" style="stop-color:#EBF3FC;stop-opacity:0.2684"/>
	<stop  offset="1" style="stop-color:#E4EEFB;stop-opacity:0.2"/>
</radialGradient>
<path fill="url(#SVGID_2_)" d="M16.172,51.181c-2.695,0-4.887-2.226-4.887-4.964V18.128c0-0.036,0.006-0.336,0.229-0.56
	c0.187-0.187,0.486-0.282,0.889-0.282h11.304c0.446,0,0.673,0.053,0.809,0.19c0.3,0.302,0.313,0.762,0.313,0.767
	c-0.001,0.099,0.004,1.081,0.732,1.82c0.464,0.471,1.1,0.709,1.89,0.709c0,0,20.898-0.008,24.461-0.008
	c0.471,0,0.731,0.162,0.798,0.239v25.214c0,2.738-2.15,4.964-4.793,4.964H16.172L16.172,51.181L16.172,51.181z"/>
<g id="g27_1_">
	
		<linearGradient id="path36_2_" gradientUnits="userSpaceOnUse" x1="1520.0824" y1="2152.541" x2="1526.0471" y2="2162.8721" gradientTransform="matrix(1 0 0 1 -1508 -2144)">
		<stop  offset="0" style="stop-color:#FFFFFF"/>
		<stop  offset="0.5" style="stop-color:#FFFFFF;stop-opacity:0.6"/>
		<stop  offset="1" style="stop-color:#FFFFFF;stop-opacity:0.15"/>
	</linearGradient>
	<path id="path36_1_" fill="url(#path36_2_)" d="M17,20.627c0.667-1.381,1.481-2.674,2.414-3.869l-1.699-3.725
		c-1.451,1.372-2.629,2.883-3.569,4.351L17,20.627z"/>
	
		<linearGradient id="path45_2_" gradientUnits="userSpaceOnUse" x1="1525.4906" y1="2150.9939" x2="1529.3943" y2="2157.7554" gradientTransform="matrix(1 0 0 1 -1508 -2144)">
		<stop  offset="0" style="stop-color:#FFFFFF"/>
		<stop  offset="0.5" style="stop-color:#FFFFFF;stop-opacity:0.6"/>
		<stop  offset="1" style="stop-color:#FFFFFF;stop-opacity:0.15"/>
	</linearGradient>
	<path id="path45_1_" fill="url(#path45_2_)" d="M17.178,9.452l0.888,1.946c0.854-0.709,1.791-0.954,2.812-1.946H17.178z"/>
	
		<linearGradient id="path54_2_" gradientUnits="userSpaceOnUse" x1="1526.7184" y1="2149.7102" x2="1531.4878" y2="2157.9709" gradientTransform="matrix(1 0 0 1 -1508 -2144)">
		<stop  offset="0" style="stop-color:#FFFFFF"/>
		<stop  offset="0.5" style="stop-color:#FFFFFF;stop-opacity:0.6"/>
		<stop  offset="1" style="stop-color:#FFFFFF;stop-opacity:0.15"/>
	</linearGradient>
	<path id="path54_1_" fill="url(#path54_2_)" d="M23.841,9.452h-0.703c-1.772,0.992-3.321,1.75-4.65,2.881l1.628,3.573
		c1.391-1.607,3.005-3.015,4.813-4.152c0.014-0.013,0.024-0.024,0.039-0.036C26.994,9.968,24.983,9.452,23.841,9.452z"/>
	
		<linearGradient id="path63_2_" gradientUnits="userSpaceOnUse" x1="1516.7354" y1="2157.2505" x2="1521.9113" y2="2166.2153" gradientTransform="matrix(1 0 0 1 -1508 -2144)">
		<stop  offset="0" style="stop-color:#FFFFFF"/>
		<stop  offset="0.5" style="stop-color:#FFFFFF;stop-opacity:0.6"/>
		<stop  offset="1" style="stop-color:#FFFFFF;stop-opacity:0.15"/>
	</linearGradient>
	<path id="path63_1_" fill="url(#path63_2_)" d="M13.606,18.269c-1.089,1.855-1.802,3.569-2.224,4.741
		c0.5,0.714,1.327,1.182,2.265,1.182c1.161,0,2.153-0.717,2.563-1.731c0.105-0.283,0.233-0.555,0.351-0.834L13.606,18.269z"/>
	
		<linearGradient id="path72_2_" gradientUnits="userSpaceOnUse" x1="1516.5024" y1="2157.6179" x2="1522.2385" y2="2167.5532" gradientTransform="matrix(1 0 0 1 -1508 -2144)">
		<stop  offset="0" style="stop-color:#FFFFFF"/>
		<stop  offset="0.5" style="stop-color:#FFFFFF;stop-opacity:0.6"/>
		<stop  offset="1" style="stop-color:#FFFFFF;stop-opacity:0.15"/>
	</linearGradient>
	<path id="path72_1_" fill="url(#path72_2_)" d="M10.901,15.192l-0.021,6.229c0,0,0,0.002,0,0.004c0,0.039,0.01,0.076,0.012,0.114
		c0.474-1.152,1.135-2.56,2.031-4.048L10.901,15.192z"/>
	
		<linearGradient id="path149_2_" gradientUnits="userSpaceOnUse" x1="1520.8402" y1="2154.5063" x2="1526.2263" y2="2163.8357" gradientTransform="matrix(1 0 0 1 -1508 -2144)">
		<stop  offset="0" style="stop-color:#FFFFFF"/>
		<stop  offset="0.5" style="stop-color:#FFFFFF;stop-opacity:0.6"/>
		<stop  offset="1" style="stop-color:#FFFFFF;stop-opacity:0.15"/>
	</linearGradient>
	<path id="path149_1_" fill="url(#path149_2_)" d="M15.994,9.464c-2.024-0.168-4.689,2.111-5.03,4.297l2.511,2.855
		c1.002-1.53,2.248-3.096,3.786-4.512L15.994,9.464z"/>
</g>
<g>
	<g opacity="0.3">
		<g opacity="0.5">
			<path fill="#FFFFFF" d="M44.022,35.31c0-1.836-1.602-3.453-4.166-4.536c0.343-2.761-0.255-4.956-1.845-5.875
				c-0.505-0.292-1.082-0.439-1.713-0.439c-1.316,0-2.808,0.639-4.297,1.769c-1.489-1.13-2.981-1.769-4.298-1.769
				c-0.632,0-1.208,0.148-1.714,0.439c-1.59,0.919-2.188,3.114-1.845,5.875c-2.563,1.083-4.166,2.7-4.166,4.536
				c0,1.836,1.602,3.452,4.164,4.535c-0.021,0.17-0.04,0.337-0.054,0.503c-0.229,2.625,0.447,4.533,1.902,5.373
				c0.505,0.292,1.082,0.439,1.714,0.439c1.316,0,2.807-0.639,4.297-1.769c1.489,1.13,2.98,1.769,4.297,1.769
				c0.632,0,1.209-0.148,1.714-0.439c1.456-0.84,2.131-2.748,1.902-5.373c-0.015-0.166-0.033-0.334-0.054-0.503
				C42.421,38.762,44.022,37.146,44.022,35.31z M36.297,25.733c0.406,0,0.768,0.09,1.077,0.269c1.003,0.579,1.472,2.164,1.26,4.32
				c-1.008-0.325-2.126-0.576-3.325-0.74c-0.736-0.951-1.51-1.794-2.296-2.508C34.19,26.221,35.331,25.733,36.297,25.733z
				 M36.05,37.648c-0.448,0.776-0.934,1.512-1.442,2.197c-0.823,0.09-1.693,0.141-2.608,0.141c-0.915,0-1.785-0.05-2.608-0.141
				c-0.509-0.685-0.994-1.421-1.442-2.197c-0.459-0.794-0.851-1.575-1.184-2.335c0.341-0.781,0.737-1.567,1.184-2.342
				c0.448-0.776,0.934-1.512,1.442-2.197c0.823-0.09,1.693-0.141,2.608-0.141s1.785,0.05,2.608,0.141
				c0.509,0.685,0.994,1.421,1.442,2.197c0.448,0.775,0.843,1.561,1.184,2.342C36.9,36.073,36.508,36.854,36.05,37.648z
				 M37.869,36.951c0.24,0.709,0.43,1.406,0.566,2.082c-0.636,0.214-1.332,0.4-2.083,0.549c0.276-0.417,0.543-0.85,0.8-1.296
				C37.409,37.84,37.647,37.394,37.869,36.951z M32,42.729c-0.505-0.448-1.01-0.956-1.502-1.515
				c0.492,0.029,0.992,0.046,1.502,0.046c0.51,0,1.011-0.017,1.502-0.046C33.009,41.773,32.505,42.281,32,42.729z M27.648,39.581
				c-0.752-0.149-1.447-0.335-2.083-0.549c0.136-0.675,0.325-1.373,0.566-2.082c0.222,0.444,0.459,0.889,0.717,1.334
				C27.105,38.731,27.373,39.164,27.648,39.581z M26.126,33.679c-0.248-0.729-0.436-1.428-0.569-2.089
				c0.638-0.215,1.336-0.402,2.09-0.551c-0.276,0.417-0.543,0.85-0.801,1.296C26.59,32.78,26.351,33.229,26.126,33.679z M32,27.891
				c0.505,0.448,1.009,0.955,1.502,1.514C33.01,29.377,32.51,29.36,32,29.36c-0.51,0-1.01,0.017-1.502,0.046
				C30.99,28.847,31.495,28.339,32,27.891z M37.152,32.335c-0.257-0.447-0.525-0.879-0.8-1.296c0.754,0.149,1.452,0.336,2.09,0.551
				c-0.133,0.661-0.32,1.36-0.569,2.089C37.649,33.229,37.409,32.78,37.152,32.335z M26.625,26.001
				c0.309-0.178,0.671-0.269,1.077-0.269c0.966,0,2.107,0.488,3.284,1.341c-0.786,0.715-1.559,1.557-2.296,2.508
				c-1.199,0.164-2.317,0.415-3.325,0.74C25.153,28.165,25.623,26.58,26.625,26.001z M21.251,35.31c0-1.158,1.138-2.358,3.111-3.252
				c0.223,1.037,0.565,2.131,1.023,3.253c-0.451,1.105-0.795,2.199-1.022,3.251C22.39,37.667,21.251,36.468,21.251,35.31z
				 M27.703,44.888c-0.406,0-0.769-0.09-1.078-0.269c-0.988-0.57-1.451-2.086-1.27-4.159c0.005-0.052,0.011-0.106,0.017-0.158
				c1.007,0.324,2.123,0.574,3.319,0.738c0.736,0.951,1.51,1.794,2.296,2.508C29.81,44.399,28.669,44.888,27.703,44.888z
				 M38.644,40.459c0.181,2.073-0.282,3.589-1.27,4.16c-0.309,0.178-0.672,0.269-1.078,0.269c-0.965,0-2.107-0.488-3.283-1.341
				c0.786-0.715,1.56-1.558,2.296-2.508c1.196-0.164,2.312-0.414,3.319-0.738C38.633,40.353,38.64,40.407,38.644,40.459z
				 M39.637,38.562c-0.228-1.052-0.572-2.147-1.022-3.251c0.458-1.121,0.8-2.216,1.023-3.253c1.974,0.895,3.112,2.094,3.112,3.252
				C42.749,36.468,41.61,37.667,39.637,38.562z"/>
		</g>
		<g>
			<path fill="#669CCC" d="M44.022,34.621c0-1.836-1.602-3.453-4.166-4.536c0.343-2.761-0.255-4.956-1.845-5.875
				c-0.505-0.292-1.082-0.439-1.713-0.439c-1.316,0-2.808,0.639-4.297,1.769c-1.489-1.13-2.981-1.769-4.298-1.769
				c-0.632,0-1.208,0.148-1.714,0.439c-1.59,0.919-2.188,3.114-1.845,5.875c-2.563,1.083-4.166,2.7-4.166,4.536
				c0,1.836,1.602,3.452,4.164,4.535c-0.021,0.17-0.04,0.337-0.054,0.503c-0.229,2.625,0.447,4.533,1.902,5.373
				c0.505,0.292,1.082,0.439,1.714,0.439c1.316,0,2.807-0.639,4.297-1.769c1.489,1.13,2.98,1.769,4.297,1.769
				c0.632,0,1.209-0.148,1.714-0.439c1.456-0.84,2.131-2.748,1.902-5.373c-0.015-0.166-0.033-0.334-0.054-0.503
				C42.421,38.073,44.022,36.457,44.022,34.621z M36.297,25.044c0.406,0,0.768,0.09,1.077,0.269c1.003,0.579,1.472,2.164,1.26,4.32
				c-1.008-0.325-2.126-0.576-3.325-0.74c-0.736-0.951-1.51-1.794-2.296-2.508C34.19,25.532,35.331,25.044,36.297,25.044z
				 M36.05,36.959c-0.448,0.776-0.934,1.512-1.442,2.197c-0.823,0.09-1.693,0.141-2.608,0.141c-0.915,0-1.785-0.05-2.608-0.141
				c-0.509-0.685-0.994-1.421-1.442-2.197c-0.459-0.794-0.851-1.575-1.184-2.335c0.341-0.781,0.737-1.567,1.184-2.342
				c0.448-0.776,0.934-1.512,1.442-2.197c0.823-0.09,1.693-0.141,2.608-0.141s1.785,0.05,2.608,0.141
				c0.509,0.685,0.994,1.421,1.442,2.197c0.448,0.775,0.843,1.561,1.184,2.342C36.9,35.384,36.508,36.165,36.05,36.959z
				 M37.869,36.262c0.24,0.709,0.43,1.406,0.566,2.082c-0.636,0.214-1.332,0.4-2.083,0.549c0.276-0.417,0.543-0.85,0.8-1.296
				S37.647,36.705,37.869,36.262z M32,42.04c-0.505-0.448-1.01-0.955-1.502-1.515C30.99,40.554,31.49,40.57,32,40.57
				c0.51,0,1.011-0.017,1.502-0.046C33.009,41.084,32.505,41.592,32,42.04z M27.648,38.892c-0.752-0.149-1.447-0.335-2.083-0.549
				c0.136-0.675,0.325-1.373,0.566-2.082c0.222,0.444,0.459,0.889,0.717,1.334C27.105,38.042,27.373,38.475,27.648,38.892z
				 M26.126,32.99c-0.248-0.729-0.436-1.428-0.569-2.089c0.638-0.215,1.336-0.402,2.09-0.551c-0.276,0.417-0.543,0.85-0.801,1.296
				C26.59,32.091,26.351,32.54,26.126,32.99z M32,27.202c0.505,0.448,1.009,0.956,1.502,1.514C33.01,28.688,32.51,28.671,32,28.671
				c-0.51,0-1.01,0.017-1.502,0.046C30.99,28.158,31.495,27.65,32,27.202z M37.152,31.646c-0.257-0.447-0.525-0.879-0.8-1.296
				c0.754,0.149,1.452,0.336,2.09,0.551c-0.133,0.661-0.32,1.36-0.569,2.089C37.649,32.54,37.409,32.091,37.152,31.646z
				 M26.625,25.313c0.309-0.178,0.671-0.269,1.077-0.269c0.966,0,2.107,0.488,3.284,1.341c-0.786,0.715-1.559,1.557-2.296,2.508
				c-1.199,0.164-2.317,0.415-3.325,0.74C25.153,27.476,25.623,25.891,26.625,25.313z M21.251,34.621
				c0-1.158,1.138-2.358,3.111-3.252c0.223,1.037,0.565,2.131,1.023,3.253c-0.451,1.105-0.795,2.199-1.022,3.251
				C22.39,36.978,21.251,35.779,21.251,34.621z M27.703,44.199c-0.406,0-0.769-0.09-1.078-0.269c-0.988-0.57-1.451-2.086-1.27-4.159
				c0.005-0.052,0.011-0.106,0.017-0.158c1.007,0.324,2.123,0.574,3.319,0.738c0.736,0.951,1.51,1.794,2.296,2.508
				C29.81,43.711,28.669,44.199,27.703,44.199z M38.644,39.77c0.181,2.073-0.282,3.589-1.27,4.16
				c-0.309,0.178-0.672,0.269-1.078,0.269c-0.965,0-2.107-0.488-3.283-1.341c0.786-0.715,1.56-1.558,2.296-2.508
				c1.196-0.164,2.312-0.414,3.319-0.738C38.633,39.664,38.64,39.718,38.644,39.77z M39.637,37.873
				c-0.228-1.052-0.572-2.147-1.022-3.251c0.458-1.121,0.8-2.216,1.023-3.253c1.974,0.895,3.112,2.094,3.112,3.252
				C42.749,35.779,41.61,36.978,39.637,37.873z"/>
		</g>
	</g>
	<g>
		<path opacity="0.3" fill="#669CCC" enable-background="new    " d="M39.768,31.079c-0.042-0.019-0.086-0.028-0.131-0.028
			c-0.049,0-0.098,0.011-0.143,0.034c-0.086,0.044-0.148,0.123-0.168,0.217c-0.222,1.031-0.56,2.107-1.006,3.199
			c-0.032,0.077-0.032,0.164,0,0.24c0.444,1.089,0.783,2.164,1.006,3.198c0.02,0.094,0.082,0.174,0.168,0.217
			c0.045,0.022,0.094,0.034,0.143,0.034c0.045,0,0.09-0.01,0.131-0.028c2.096-0.95,3.299-2.242,3.299-3.542
			C43.067,33.32,41.864,32.029,39.768,31.079z M39.637,37.873c-0.228-1.052-0.572-2.147-1.022-3.251
			c0.458-1.121,0.8-2.216,1.023-3.253c1.974,0.895,3.112,2.094,3.112,3.252C42.749,35.779,41.61,36.978,39.637,37.873z"/>
		<path opacity="0.3" fill="#669CCC" enable-background="new    " d="M29.357,39.473c0.861,0.095,1.75,0.143,2.643,0.143
			c0.891,0,1.781-0.048,2.643-0.143c0.088-0.01,0.168-0.056,0.221-0.127c0.525-0.707,1.017-1.457,1.462-2.228
			c0.447-0.774,0.851-1.57,1.2-2.366c0.036-0.081,0.036-0.174,0.001-0.255c-0.349-0.8-0.753-1.598-1.2-2.374
			c-0.445-0.771-0.937-1.52-1.462-2.228c-0.053-0.071-0.133-0.117-0.221-0.127c-0.862-0.095-1.751-0.143-2.643-0.143
			c-0.891,0-1.781,0.048-2.643,0.143c-0.088,0.01-0.168,0.055-0.221,0.127c-0.525,0.707-1.017,1.457-1.462,2.228
			c-0.448,0.775-0.851,1.574-1.201,2.374c-0.036,0.081-0.036,0.174,0.001,0.255c0.349,0.795,0.753,1.592,1.2,2.366
			c0.445,0.772,0.938,1.522,1.462,2.228C29.189,39.417,29.269,39.464,29.357,39.473z M26.765,34.624
			c0.341-0.781,0.737-1.567,1.184-2.342c0.448-0.776,0.934-1.512,1.442-2.197c0.823-0.09,1.693-0.141,2.608-0.141
			c0.915,0,1.785,0.05,2.608,0.141c0.509,0.685,0.994,1.421,1.442,2.197c0.448,0.775,0.843,1.561,1.184,2.342
			c-0.334,0.76-0.726,1.541-1.184,2.335c-0.448,0.776-0.934,1.512-1.442,2.197c-0.823,0.09-1.693,0.141-2.608,0.141
			c-0.915,0-1.785-0.05-2.608-0.141c-0.509-0.685-0.994-1.421-1.442-2.197C27.491,36.165,27.099,35.384,26.765,34.624z"/>
		<path opacity="0.3" fill="#669CCC" enable-background="new    " d="M26.105,33.308c0.007,0.001,0.015,0.001,0.021,0.001
			c0.12,0,0.23-0.068,0.285-0.176c0.23-0.459,0.469-0.905,0.712-1.327c0.251-0.435,0.517-0.865,0.791-1.279
			c0.071-0.107,0.07-0.246-0.001-0.353c-0.06-0.089-0.16-0.141-0.264-0.141c-0.02,0-0.042,0.002-0.062,0.006
			c-0.746,0.147-1.462,0.337-2.131,0.562c-0.152,0.051-0.242,0.207-0.211,0.364c0.139,0.692,0.334,1.408,0.579,2.129
			C25.866,33.214,25.977,33.299,26.105,33.308z M25.558,30.901c0.638-0.215,1.336-0.402,2.09-0.551
			c-0.276,0.417-0.543,0.85-0.801,1.296c-0.257,0.445-0.497,0.894-0.721,1.344C25.878,32.261,25.69,31.562,25.558,30.901z"/>
		<path opacity="0.3" fill="#669CCC" enable-background="new    " d="M35.057,29.088c0.051,0.066,0.126,0.109,0.209,0.121
			c1.168,0.16,2.269,0.405,3.27,0.727c0.032,0.011,0.065,0.015,0.098,0.015c0.061,0,0.122-0.018,0.175-0.052
			c0.081-0.053,0.133-0.139,0.143-0.235c0.225-2.29-0.292-3.976-1.418-4.627c-0.358-0.207-0.773-0.311-1.236-0.311
			c-1.006,0-2.205,0.484-3.47,1.402c-0.077,0.056-0.126,0.145-0.131,0.24c-0.005,0.096,0.033,0.189,0.104,0.253
			C33.578,27.328,34.338,28.158,35.057,29.088z M36.297,25.044c0.406,0,0.768,0.09,1.077,0.269c1.003,0.579,1.472,2.164,1.26,4.32
			c-1.008-0.325-2.126-0.576-3.325-0.74c-0.736-0.951-1.51-1.794-2.296-2.508C34.19,25.532,35.331,25.044,36.297,25.044z"/>
		<path opacity="0.3" fill="#669CCC" enable-background="new    " d="M25.463,38.645c0.666,0.224,1.38,0.412,2.123,0.56
			c0.02,0.004,0.042,0.006,0.062,0.006c0.105,0,0.205-0.051,0.264-0.141c0.072-0.107,0.072-0.245,0.001-0.353
			c-0.274-0.415-0.54-0.845-0.791-1.28c-0.243-0.422-0.475-0.853-0.708-1.318c-0.054-0.108-0.165-0.176-0.284-0.176
			c-0.007,0-0.015,0.001-0.022,0.001c-0.128,0.009-0.238,0.094-0.28,0.215c-0.245,0.723-0.439,1.437-0.576,2.121
			C25.221,38.437,25.312,38.594,25.463,38.645z M26.13,36.262c0.222,0.444,0.459,0.889,0.717,1.334
			c0.257,0.447,0.525,0.879,0.8,1.296c-0.752-0.149-1.447-0.335-2.083-0.549C25.701,37.668,25.89,36.971,26.13,36.262z"/>
		<path opacity="0.3" fill="#669CCC" enable-background="new    " d="M44.022,34.621c0-1.836-1.602-3.453-4.166-4.536
			c0.343-2.761-0.255-4.956-1.845-5.875c-0.505-0.292-1.082-0.439-1.713-0.439c-1.316,0-2.808,0.639-4.297,1.769
			c-1.489-1.13-2.981-1.769-4.298-1.769c-0.632,0-1.208,0.148-1.714,0.439c-1.59,0.919-2.188,3.114-1.845,5.875
			c-2.563,1.083-4.166,2.7-4.166,4.536c0,1.836,1.602,3.452,4.164,4.535c-0.021,0.17-0.04,0.337-0.054,0.503
			c-0.229,2.625,0.447,4.533,1.902,5.373c0.505,0.292,1.082,0.439,1.714,0.439c1.316,0,2.807-0.639,4.297-1.769
			c1.489,1.13,2.98,1.769,4.297,1.769c0.632,0,1.209-0.148,1.714-0.439c1.456-0.84,2.131-2.748,1.902-5.373
			c-0.015-0.166-0.033-0.334-0.054-0.503C42.421,38.073,44.022,36.457,44.022,34.621z M39.734,38.863
			c-0.131,0.055-0.21,0.191-0.192,0.333c0.021,0.166,0.04,0.329,0.053,0.491c0.217,2.494-0.402,4.295-1.744,5.069
			c-0.456,0.263-0.979,0.397-1.555,0.397c-1.215,0-2.634-0.589-4.104-1.704c-0.057-0.043-0.125-0.065-0.192-0.065
			c-0.068,0-0.135,0.022-0.192,0.065c-1.47,1.115-2.89,1.704-4.104,1.704c-0.575,0-1.099-0.134-1.555-0.397
			c-1.342-0.775-1.961-2.575-1.744-5.069c0.014-0.162,0.032-0.326,0.053-0.491c0.018-0.142-0.061-0.277-0.192-0.333
			c-2.523-1.066-3.969-2.612-3.969-4.242s1.447-3.176,3.971-4.243c0.131-0.055,0.209-0.191,0.192-0.333
			c-0.339-2.718,0.277-4.745,1.689-5.56c0.456-0.263,0.979-0.397,1.555-0.397c1.215,0,2.634,0.589,4.105,1.704
			c0.057,0.043,0.125,0.065,0.192,0.065c0.068,0,0.135-0.021,0.192-0.065c1.47-1.115,2.89-1.704,4.105-1.704
			c0.575,0,1.099,0.133,1.554,0.397c1.411,0.815,2.027,2.842,1.689,5.56c-0.018,0.141,0.061,0.277,0.192,0.333
			c2.524,1.066,3.971,2.612,3.971,4.243C43.704,36.25,42.257,37.797,39.734,38.863z"/>
		<path opacity="0.3" fill="#669CCC" enable-background="new    " d="M30.259,28.507c-0.085,0.096-0.104,0.234-0.048,0.35
			c0.053,0.11,0.165,0.179,0.286,0.179c0.006,0,0.013,0,0.019-0.001c0.507-0.03,1.006-0.046,1.483-0.046s0.976,0.015,1.483,0.046
			c0.006,0.001,0.013,0.001,0.019,0.001c0.121,0,0.232-0.069,0.286-0.179c0.056-0.115,0.038-0.253-0.048-0.35
			c-0.496-0.563-1.011-1.082-1.53-1.542c-0.06-0.053-0.136-0.081-0.211-0.081s-0.151,0.027-0.211,0.081
			C31.27,27.425,30.755,27.944,30.259,28.507z M32,27.202c0.505,0.448,1.009,0.956,1.502,1.514C33.01,28.688,32.51,28.671,32,28.671
			c-0.51,0-1.01,0.017-1.502,0.046C30.99,28.158,31.495,27.65,32,27.202z"/>
		<path opacity="0.3" fill="#669CCC" enable-background="new    " d="M28.942,40.154c-0.051-0.066-0.126-0.109-0.209-0.121
			c-1.165-0.16-2.264-0.404-3.264-0.726c-0.032-0.011-0.065-0.015-0.098-0.015c-0.061,0-0.122,0.018-0.174,0.052
			c-0.081,0.053-0.133,0.139-0.143,0.234l-0.007,0.059c-0.004,0.035-0.008,0.069-0.011,0.104c-0.192,2.202,0.329,3.829,1.428,4.463
			c0.358,0.207,0.774,0.311,1.237,0.311c1.006,0,2.205-0.484,3.47-1.402c0.077-0.056,0.126-0.145,0.131-0.24
			c0.005-0.096-0.033-0.189-0.104-0.253C30.421,41.914,29.661,41.084,28.942,40.154z M27.703,44.199
			c-0.406,0-0.769-0.09-1.078-0.269c-0.988-0.57-1.451-2.086-1.27-4.159c0.005-0.052,0.011-0.106,0.017-0.158
			c1.007,0.324,2.123,0.574,3.319,0.738c0.736,0.951,1.51,1.794,2.296,2.508C29.81,43.711,28.668,44.199,27.703,44.199z"/>
		<path opacity="0.3" fill="#669CCC" enable-background="new    " d="M33.741,40.735c0.085-0.096,0.104-0.234,0.048-0.35
			c-0.053-0.11-0.165-0.179-0.286-0.179c-0.007,0-0.013,0-0.019,0.001c-0.515,0.03-1.001,0.045-1.483,0.045
			c-0.482,0-0.968-0.015-1.483-0.045c-0.006-0.001-0.013-0.001-0.019-0.001c-0.121,0-0.232,0.069-0.286,0.179
			c-0.056,0.115-0.038,0.253,0.048,0.35c0.496,0.562,1.01,1.082,1.53,1.543c0.06,0.053,0.136,0.081,0.211,0.081
			s0.151-0.027,0.212-0.081C32.73,41.817,33.245,41.298,33.741,40.735z M32,42.04c-0.505-0.448-1.01-0.955-1.502-1.515
			C30.99,40.554,31.49,40.57,32,40.57c0.51,0,1.011-0.017,1.502-0.046C33.009,41.084,32.505,41.592,32,42.04z"/>
		<path opacity="0.3" fill="#669CCC" enable-background="new    " d="M25.191,29.899c0.053,0.034,0.113,0.052,0.175,0.052
			c0.033,0,0.066-0.005,0.098-0.015c1.003-0.323,2.103-0.567,3.271-0.727c0.082-0.011,0.158-0.054,0.209-0.121
			c0.719-0.929,1.479-1.759,2.258-2.467c0.071-0.065,0.109-0.158,0.104-0.253s-0.053-0.184-0.131-0.24
			c-1.265-0.917-2.465-1.402-3.47-1.402c-0.463,0-0.878,0.105-1.236,0.311c-1.126,0.651-1.642,2.337-1.418,4.627
			C25.058,29.759,25.11,29.846,25.191,29.899z M26.625,25.313c0.309-0.178,0.671-0.269,1.077-0.269c0.966,0,2.107,0.488,3.284,1.341
			c-0.786,0.715-1.559,1.557-2.296,2.508c-1.199,0.164-2.317,0.415-3.325,0.74C25.153,27.476,25.622,25.891,26.625,25.313z"/>
		<path opacity="0.3" fill="#669CCC" enable-background="new    " d="M36.351,39.21c0.02,0,0.042-0.002,0.062-0.006
			c0.742-0.146,1.456-0.335,2.123-0.559c0.152-0.051,0.242-0.207,0.21-0.364c-0.138-0.685-0.332-1.398-0.576-2.122
			c-0.042-0.121-0.152-0.207-0.28-0.215c-0.007-0.001-0.015-0.001-0.022-0.001c-0.12,0-0.23,0.067-0.284,0.176
			c-0.229,0.458-0.467,0.901-0.707,1.318c-0.251,0.435-0.517,0.865-0.791,1.279c-0.071,0.107-0.07,0.246,0.001,0.353
			C36.147,39.159,36.247,39.21,36.351,39.21z M37.152,37.596c0.257-0.445,0.495-0.89,0.717-1.334c0.24,0.709,0.43,1.406,0.566,2.082
			c-0.636,0.214-1.332,0.4-2.083,0.549C36.627,38.475,36.895,38.042,37.152,37.596z"/>
		<path opacity="0.3" fill="#669CCC" enable-background="new    " d="M25.68,34.501c-0.446-1.092-0.785-2.168-1.006-3.199
			c-0.02-0.094-0.082-0.174-0.168-0.217c-0.045-0.022-0.094-0.034-0.143-0.034c-0.045,0-0.09,0.009-0.131,0.028
			c-2.096,0.95-3.299,2.241-3.299,3.542c0,1.301,1.202,2.592,3.299,3.542c0.042,0.019,0.087,0.028,0.131,0.028
			c0.049,0,0.098-0.011,0.143-0.034c0.086-0.043,0.148-0.123,0.168-0.217c0.223-1.033,0.562-2.109,1.006-3.198
			C25.711,34.665,25.711,34.578,25.68,34.501z M24.363,37.873c-1.974-0.895-3.112-2.094-3.112-3.252
			c0-1.158,1.138-2.358,3.111-3.252c0.223,1.037,0.565,2.131,1.023,3.253C24.935,35.726,24.59,36.821,24.363,37.873z"/>
		<path opacity="0.3" fill="#669CCC" enable-background="new    " d="M38.95,39.64l-0.007-0.061
			c-0.01-0.096-0.062-0.182-0.143-0.234c-0.052-0.034-0.113-0.052-0.174-0.052c-0.033,0-0.065,0.005-0.098,0.015
			c-1,0.322-2.099,0.566-3.264,0.725c-0.082,0.011-0.158,0.054-0.209,0.121c-0.719,0.93-1.479,1.76-2.258,2.468
			c-0.071,0.065-0.109,0.158-0.104,0.253c0.005,0.096,0.053,0.184,0.131,0.24c1.264,0.917,2.465,1.402,3.47,1.402
			c0.463,0,0.879-0.105,1.237-0.311c1.099-0.635,1.621-2.261,1.428-4.463C38.958,39.708,38.955,39.674,38.95,39.64z M37.374,43.93
			c-0.309,0.178-0.672,0.269-1.078,0.269c-0.965,0-2.107-0.488-3.283-1.341c0.786-0.715,1.56-1.558,2.296-2.508
			c1.196-0.164,2.312-0.414,3.319-0.738c0.005,0.053,0.012,0.106,0.017,0.158C38.825,41.843,38.363,43.359,37.374,43.93z"/>
		<path opacity="0.3" fill="#669CCC" enable-background="new    " d="M38.544,30.599c-0.668-0.225-1.385-0.414-2.131-0.562
			c-0.02-0.004-0.042-0.006-0.061-0.006c-0.105,0-0.205,0.051-0.264,0.141c-0.072,0.106-0.072,0.245-0.001,0.353
			c0.275,0.416,0.541,0.847,0.791,1.28c0.242,0.42,0.482,0.866,0.713,1.327c0.054,0.108,0.165,0.176,0.284,0.176
			c0.007,0,0.015-0.001,0.022-0.001c0.128-0.009,0.238-0.093,0.28-0.215c0.245-0.721,0.44-1.437,0.579-2.129
			C38.786,30.807,38.696,30.651,38.544,30.599z M37.874,32.99c-0.224-0.45-0.465-0.899-0.721-1.344
			c-0.257-0.447-0.525-0.879-0.8-1.296c0.754,0.149,1.452,0.336,2.09,0.551C38.309,31.562,38.122,32.261,37.874,32.99z"/>
	</g>
</g>
</svg>
