<?xml version="1.0" encoding="utf-8"?>
<!-- Generator: Adobe Illustrator 17.0.0, SVG Export Plug-In . SVG Version: 6.00 Build 0)  -->
<!DOCTYPE svg PUBLIC "-//W3C//DTD SVG 1.1//EN" "http://www.w3.org/Graphics/SVG/1.1/DTD/svg11.dtd">
<svg version="1.1" id="图层_1" xmlns="http://www.w3.org/2000/svg" xmlns:xlink="http://www.w3.org/1999/xlink" x="0px" y="0px"
	 width="48px" height="48px" viewBox="8 8 48 48" enable-background="new 8 8 48 48" xml:space="preserve">
<path fill="#EBF2FB" stroke="#9DBCD7" stroke-miterlimit="10" d="M53.354,46.371c0,3.119-2.529,5.648-5.648,5.648H15.983
	c-3.119,0-5.648-2.529-5.648-5.648V14.648c0-3.119,2.529-5.648,5.648-5.648h31.723c3.119,0,5.648,2.529,5.648,5.648V46.371z"/>
<path opacity="0.6" fill="none" stroke="#FFFFFF" stroke-miterlimit="10" d="M15.983,51.019c-2.563,0-4.648-2.085-4.648-4.647
	V14.647c0-2.562,2.085-4.647,4.648-4.647h31.723c2.562,0,4.647,2.085,4.647,4.647v31.724c0,2.562-2.085,4.647-4.647,4.647H15.983z"
	/>
<g id="g27_1_">
	
		<linearGradient id="path36_2_" gradientUnits="userSpaceOnUse" x1="1245.9258" y1="-1660.5281" x2="1251.8859" y2="-1670.8513" gradientTransform="matrix(1 0 0 -1 -1234 -1652)">
		<stop  offset="0" style="stop-color:#FFFFFF"/>
		<stop  offset="0.5" style="stop-color:#FFFFFF;stop-opacity:0.6"/>
		<stop  offset="1" style="stop-color:#FFFFFF;stop-opacity:0.15"/>
	</linearGradient>
	<path id="path36_1_" fill="url(#path36_2_)" d="M16.841,20.606c0.666-1.379,1.479-2.672,2.413-3.866l-1.698-3.722
		c-1.45,1.37-2.627,2.881-3.567,4.348L16.841,20.606z"/>
	
		<linearGradient id="path45_2_" gradientUnits="userSpaceOnUse" x1="1251.3302" y1="-1658.9821" x2="1255.2308" y2="-1665.7383" gradientTransform="matrix(1 0 0 -1 -1234 -1652)">
		<stop  offset="0" style="stop-color:#FFFFFF"/>
		<stop  offset="0.5" style="stop-color:#FFFFFF;stop-opacity:0.6"/>
		<stop  offset="1" style="stop-color:#FFFFFF;stop-opacity:0.15"/>
	</linearGradient>
	<path id="path45_1_" fill="url(#path45_2_)" d="M17.017,9.438l0.887,1.945c0.854-0.709,1.79-0.953,2.81-1.945H17.017z"/>
	
		<linearGradient id="path54_2_" gradientUnits="userSpaceOnUse" x1="1252.557" y1="-1657.6991" x2="1257.3229" y2="-1665.9537" gradientTransform="matrix(1 0 0 -1 -1234 -1652)">
		<stop  offset="0" style="stop-color:#FFFFFF"/>
		<stop  offset="0.5" style="stop-color:#FFFFFF;stop-opacity:0.6"/>
		<stop  offset="1" style="stop-color:#FFFFFF;stop-opacity:0.15"/>
	</linearGradient>
	<path id="path54_1_" fill="url(#path54_2_)" d="M23.675,9.438h-0.702c-1.77,0.992-3.318,1.749-4.645,2.879l1.627,3.57
		c1.39-1.606,3.003-3.012,4.809-4.149c0.014-0.013,0.024-0.024,0.039-0.036C26.826,9.954,24.816,9.438,23.675,9.438z"/>
	
		<linearGradient id="path63_2_" gradientUnits="userSpaceOnUse" x1="1242.5809" y1="-1665.234" x2="1247.7528" y2="-1674.192" gradientTransform="matrix(1 0 0 -1 -1234 -1652)">
		<stop  offset="0" style="stop-color:#FFFFFF"/>
		<stop  offset="0.5" style="stop-color:#FFFFFF;stop-opacity:0.6"/>
		<stop  offset="1" style="stop-color:#FFFFFF;stop-opacity:0.15"/>
	</linearGradient>
	<path id="path63_1_" fill="url(#path63_2_)" d="M13.448,18.249c-1.089,1.853-1.8,3.567-2.222,4.737
		c0.499,0.713,1.326,1.181,2.263,1.181c1.16,0,2.151-0.717,2.561-1.729c0.105-0.283,0.233-0.554,0.35-0.833L13.448,18.249z"/>
	
		<linearGradient id="path72_2_" gradientUnits="userSpaceOnUse" x1="1242.3491" y1="-1665.6007" x2="1248.0808" y2="-1675.5284" gradientTransform="matrix(1 0 0 -1 -1234 -1652)">
		<stop  offset="0" style="stop-color:#FFFFFF"/>
		<stop  offset="0.5" style="stop-color:#FFFFFF;stop-opacity:0.6"/>
		<stop  offset="1" style="stop-color:#FFFFFF;stop-opacity:0.15"/>
	</linearGradient>
	<path id="path72_1_" fill="url(#path72_2_)" d="M10.745,15.174l-0.022,6.223c0,0,0,0.002,0,0.004c0,0.039,0.01,0.076,0.012,0.114
		c0.473-1.152,1.134-2.558,2.03-4.045L10.745,15.174z"/>
	
		<linearGradient id="path149_2_" gradientUnits="userSpaceOnUse" x1="1246.6833" y1="-1662.4917" x2="1252.0654" y2="-1671.8137" gradientTransform="matrix(1 0 0 -1 -1234 -1652)">
		<stop  offset="0" style="stop-color:#FFFFFF"/>
		<stop  offset="0.5" style="stop-color:#FFFFFF;stop-opacity:0.6"/>
		<stop  offset="1" style="stop-color:#FFFFFF;stop-opacity:0.15"/>
	</linearGradient>
	<path id="path149_1_" fill="url(#path149_2_)" d="M15.834,9.45c-2.022-0.168-4.685,2.11-5.027,4.294l2.509,2.854
		c1.002-1.528,2.247-3.094,3.783-4.508L15.834,9.45z"/>
</g>
<g id="g151" opacity="0.5">
	<path id="path153" opacity="0.08" enable-background="new    " d="M48.143,52.535H15.576c-2.998,0-5.441-2.333-5.441-5.192v3.971
		c0,2.234,1.912,4.044,4.253,4.044H49.33c2.342,0,4.227-1.811,4.227-4.044v-3.971C53.557,50.201,51.139,52.535,48.143,52.535z"/>
	<path id="path155" opacity="0.1" enable-background="new    " d="M48.115,52.535H15.548c-2.997,0-5.414-2.291-5.414-5.15v2.077
		c0,2.234,1.032,4.955,5.214,4.955s28.73,0,32.967,0c4.237,0,5.242-2.721,5.242-4.955v-2.077
		C53.557,50.243,51.112,52.535,48.115,52.535z"/>
	<path id="path157" opacity="0.1" enable-background="new    " d="M48.115,52.535H15.548c-2.997,0-5.414-2.291-5.414-5.15v1.121
		c0,2.235,1.79,4.97,5.214,4.97s29.047,0,32.967,0s5.242-2.736,5.242-4.97v-1.121C53.557,50.243,51.112,52.535,48.115,52.535z"/>
	<rect id="rect159" x="15.068" y="52.535" opacity="0.05" enable-background="new    " width="33.554" height="0.942"/>
	<rect id="rect161" x="16.055" y="52.535" opacity="0.05" enable-background="new    " width="30.593" height="0.942"/>
	<rect id="rect163" x="16.055" y="53.476" opacity="0.05" enable-background="new    " width="30.593" height="0.942"/>
	<rect id="rect165" x="18.029" y="53.476" opacity="0.05" enable-background="new    " width="27.632" height="0.942"/>
	<rect id="rect167" x="20.99" y="53.476" opacity="0.05" enable-background="new    " width="21.711" height="0.942"/>
	<rect id="rect169" x="24.937" y="53.476" opacity="0.05" enable-background="new    " width="13.816" height="0.942"/>
	<rect id="rect171" x="18.029" y="52.535" opacity="0.05" enable-background="new    " width="27.632" height="0.942"/>
	<rect id="rect173" x="20.003" y="52.535" opacity="0.05" enable-background="new    " width="23.685" height="0.942"/>
	<rect id="rect175" x="20.99" y="52.535" opacity="0.05" enable-background="new    " width="21.711" height="0.942"/>
	<rect id="rect177" x="22.963" y="52.535" opacity="0.05" enable-background="new    " width="17.764" height="0.942"/>
	<rect id="rect179" x="22.963" y="52.535" opacity="0.05" enable-background="new    " width="17.764" height="0.942"/>
</g>
<g>
	<path opacity="0.3" fill="#669CCC" enable-background="new    " d="M49.146,30.509c0,4.459-7.746,8.074-17.301,8.074
		s-17.301-3.615-17.301-8.074s7.746-8.074,17.301-8.074S49.146,26.05,49.146,30.509z"/>
	<path opacity="0.3" fill="#669CCC" enable-background="new    " d="M40.495,15.526c3.861,2.23,3.119,10.746-1.659,19.02
		S27.056,47.723,23.194,45.492c-3.861-2.228-3.119-10.746,1.659-19.02S36.633,13.298,40.495,15.526z"/>
	<path opacity="0.3" fill="#669CCC" enable-background="new    " d="M23.195,15.526c3.861-2.228,10.865,2.672,15.642,10.946
		s5.52,16.792,1.659,19.02c-3.861,2.23-10.865-2.672-15.642-10.945S19.333,17.757,23.195,15.526z"/>
</g>
</svg>
