<?xml version="1.0" encoding="utf-8"?>
<!-- Generator: Adobe Illustrator 17.0.0, SVG Export Plug-In . SVG Version: 6.00 Build 0)  -->
<!DOCTYPE svg PUBLIC "-//W3C//DTD SVG 1.1//EN" "http://www.w3.org/Graphics/SVG/1.1/DTD/svg11.dtd">
<svg version="1.1" id="图层_1" xmlns="http://www.w3.org/2000/svg" xmlns:xlink="http://www.w3.org/1999/xlink" x="0px" y="0px"
	 width="48px" height="48px" viewBox="8 8 48 48" enable-background="new 8 8 48 48" xml:space="preserve">
<g id="g151" opacity="0.5">
	<path id="path153" opacity="0.08" enable-background="new    " d="M48.41,52.136H15.617c-3.019,0-5.48-2.367-5.48-5.266v4.028
		c0,2.265,1.925,4.102,4.283,4.102h35.185c2.358,0,4.256-1.836,4.256-4.102V46.87C53.861,49.77,51.428,52.136,48.41,52.136z"/>
	<path id="path155" opacity="0.1" enable-background="new    " d="M48.383,52.136H15.59c-3.018,0-5.451-2.323-5.451-5.222v2.107
		c0,2.265,1.039,5.025,5.25,5.025s28.929,0,33.195,0s5.279-2.76,5.279-5.025v-2.107C53.861,49.813,51.4,52.136,48.383,52.136z"/>
	<path id="path157" opacity="0.1" enable-background="new    " d="M48.383,52.136H15.59c-3.018,0-5.451-2.323-5.451-5.222v1.137
		c0,2.266,1.802,5.041,5.25,5.041s29.249,0,33.195,0c3.947,0,5.279-2.775,5.279-5.039v-1.137
		C53.861,49.813,51.4,52.136,48.383,52.136z"/>
	<rect id="rect159" x="15.107" y="52.136" opacity="0.05" enable-background="new    " width="33.786" height="0.955"/>
	<rect id="rect161" x="16.101" y="52.136" opacity="0.05" enable-background="new    " width="30.805" height="0.955"/>
	<rect id="rect163" x="16.101" y="53.091" opacity="0.05" enable-background="new    " width="30.805" height="0.955"/>
	<rect id="rect165" x="18.087" y="53.091" opacity="0.05" enable-background="new    " width="27.824" height="0.955"/>
	<rect id="rect167" x="21.069" y="53.091" opacity="0.05" enable-background="new    " width="21.862" height="0.955"/>
	<rect id="rect169" x="25.044" y="53.091" opacity="0.05" enable-background="new    " width="13.912" height="0.955"/>
	<rect id="rect171" x="18.087" y="52.136" opacity="0.05" enable-background="new    " width="27.824" height="0.955"/>
	<rect id="rect173" x="20.075" y="52.136" opacity="0.05" enable-background="new    " width="23.849" height="0.955"/>
	<rect id="rect175" x="21.069" y="52.136" opacity="0.05" enable-background="new    " width="21.862" height="0.955"/>
	<rect id="rect177" x="23.056" y="52.136" opacity="0.05" enable-background="new    " width="17.887" height="0.955"/>
	<rect id="rect179" x="23.056" y="52.136" opacity="0.05" enable-background="new    " width="17.887" height="0.955"/>
</g>
<path fill="#C4DCED" stroke="#9DBCD7" stroke-miterlimit="10" d="M53.466,46.281c0,3.121-2.531,5.652-5.652,5.652H16.185
	c-3.121,0-5.652-2.531-5.652-5.652V14.652c0-3.121,2.531-5.652,5.652-5.652h31.63c3.121,0,5.652,2.531,5.652,5.652L53.466,46.281
	L53.466,46.281z"/>
<path opacity="0.6" fill="none" stroke="#FFFFFF" stroke-miterlimit="10" d="M16.185,50.934c-2.565,0-4.652-2.087-4.652-4.652
	V14.652c0-2.565,2.087-4.652,4.652-4.652h31.629c2.565,0,4.652,2.087,4.652,4.652v31.629c0,2.565-2.087,4.652-4.652,4.652H16.185z"
	/>
<g id="g27_1_">
	
		<linearGradient id="path36_2_" gradientUnits="userSpaceOnUse" x1="1520.0824" y1="2152.541" x2="1526.0471" y2="2162.8721" gradientTransform="matrix(1 0 0 1 -1508 -2144)">
		<stop  offset="0" style="stop-color:#FFFFFF"/>
		<stop  offset="0.5" style="stop-color:#FFFFFF;stop-opacity:0.6"/>
		<stop  offset="1" style="stop-color:#FFFFFF;stop-opacity:0.15"/>
	</linearGradient>
	<path id="path36_1_" fill="url(#path36_2_)" d="M17,20.627c0.667-1.381,1.481-2.674,2.414-3.869l-1.699-3.725
		c-1.451,1.372-2.629,2.883-3.569,4.351L17,20.627z"/>
	
		<linearGradient id="path45_2_" gradientUnits="userSpaceOnUse" x1="1525.4906" y1="2150.9939" x2="1529.3943" y2="2157.7554" gradientTransform="matrix(1 0 0 1 -1508 -2144)">
		<stop  offset="0" style="stop-color:#FFFFFF"/>
		<stop  offset="0.5" style="stop-color:#FFFFFF;stop-opacity:0.6"/>
		<stop  offset="1" style="stop-color:#FFFFFF;stop-opacity:0.15"/>
	</linearGradient>
	<path id="path45_1_" fill="url(#path45_2_)" d="M17.178,9.452l0.888,1.946c0.854-0.709,1.791-0.954,2.812-1.946H17.178z"/>
	
		<linearGradient id="path54_2_" gradientUnits="userSpaceOnUse" x1="1526.7184" y1="2149.7102" x2="1531.4878" y2="2157.9709" gradientTransform="matrix(1 0 0 1 -1508 -2144)">
		<stop  offset="0" style="stop-color:#FFFFFF"/>
		<stop  offset="0.5" style="stop-color:#FFFFFF;stop-opacity:0.6"/>
		<stop  offset="1" style="stop-color:#FFFFFF;stop-opacity:0.15"/>
	</linearGradient>
	<path id="path54_1_" fill="url(#path54_2_)" d="M23.841,9.452h-0.703c-1.772,0.992-3.321,1.75-4.65,2.881l1.628,3.573
		c1.391-1.607,3.005-3.015,4.813-4.152c0.014-0.013,0.024-0.024,0.039-0.036C26.994,9.968,24.983,9.452,23.841,9.452z"/>
	
		<linearGradient id="path63_2_" gradientUnits="userSpaceOnUse" x1="1516.7354" y1="2157.2505" x2="1521.9113" y2="2166.2153" gradientTransform="matrix(1 0 0 1 -1508 -2144)">
		<stop  offset="0" style="stop-color:#FFFFFF"/>
		<stop  offset="0.5" style="stop-color:#FFFFFF;stop-opacity:0.6"/>
		<stop  offset="1" style="stop-color:#FFFFFF;stop-opacity:0.15"/>
	</linearGradient>
	<path id="path63_1_" fill="url(#path63_2_)" d="M13.606,18.269c-1.089,1.855-1.802,3.569-2.224,4.741
		c0.5,0.714,1.327,1.182,2.265,1.182c1.161,0,2.153-0.717,2.563-1.731c0.105-0.283,0.233-0.555,0.351-0.834L13.606,18.269z"/>
	
		<linearGradient id="path72_2_" gradientUnits="userSpaceOnUse" x1="1516.5024" y1="2157.6179" x2="1522.2385" y2="2167.5532" gradientTransform="matrix(1 0 0 1 -1508 -2144)">
		<stop  offset="0" style="stop-color:#FFFFFF"/>
		<stop  offset="0.5" style="stop-color:#FFFFFF;stop-opacity:0.6"/>
		<stop  offset="1" style="stop-color:#FFFFFF;stop-opacity:0.15"/>
	</linearGradient>
	<path id="path72_1_" fill="url(#path72_2_)" d="M10.901,15.192l-0.021,6.229c0,0,0,0.002,0,0.004c0,0.039,0.01,0.076,0.012,0.114
		c0.474-1.152,1.135-2.56,2.031-4.048L10.901,15.192z"/>
	
		<linearGradient id="path149_2_" gradientUnits="userSpaceOnUse" x1="1520.8402" y1="2154.5063" x2="1526.2263" y2="2163.8357" gradientTransform="matrix(1 0 0 1 -1508 -2144)">
		<stop  offset="0" style="stop-color:#FFFFFF"/>
		<stop  offset="0.5" style="stop-color:#FFFFFF;stop-opacity:0.6"/>
		<stop  offset="1" style="stop-color:#FFFFFF;stop-opacity:0.15"/>
	</linearGradient>
	<path id="path149_1_" fill="url(#path149_2_)" d="M15.994,9.464c-2.024-0.168-4.689,2.111-5.03,4.297l2.511,2.855
		c1.002-1.53,2.248-3.096,3.786-4.512L15.994,9.464z"/>
</g>
<g>
	<g>
		
			<rect x="17.61" y="14.376" transform="matrix(0.9291 -0.3699 0.3699 0.9291 -6.4251 11.0079)" opacity="0.5" fill="#669CCC" enable-background="new    " width="15.765" height="15.765"/>
		
			<rect x="17.786" y="13.967" transform="matrix(0.9291 -0.3699 0.3699 0.9291 -6.2613 11.0442)" opacity="0.2" fill="#669CCC" enable-background="new    " width="15.765" height="15.765"/>
		
			<rect x="17.963" y="13.557" transform="matrix(0.9291 -0.3699 0.3699 0.9291 -6.0972 11.0804)" opacity="0.1" fill="#669CCC" enable-background="new    " width="15.765" height="15.765"/>
	</g>
	
		<rect x="17.54" y="14.735" transform="matrix(0.9291 -0.3699 0.3699 0.9291 -6.1423 10.8365)" fill="#FFFFFF" width="15.292" height="13.4"/>
</g>
<g>
	<g>
		
			<rect x="28.188" y="14.75" transform="matrix(1 -0.0012 0.0012 1 -0.0276 0.0438)" opacity="0.5" fill="#669CCC" enable-background="new    " width="16.554" height="16.554"/>
		
			<rect x="28.519" y="14.418" transform="matrix(1 -0.0012 0.0012 1 -0.0272 0.0442)" opacity="0.2" fill="#669CCC" enable-background="new    " width="16.554" height="16.554"/>
		
			<rect x="28.85" y="14.087" transform="matrix(1 -0.0012 0.0012 1 -0.0268 0.0446)" opacity="0.1" fill="#669CCC" enable-background="new    " width="16.554" height="16.554"/>
	</g>
	
		<rect x="28.519" y="15.073" transform="matrix(1 -0.0012 0.0012 1 -0.0265 0.0439)" fill="#FFFFFF" width="16.057" height="14.071"/>
</g>
<g>
	<path opacity="0.08" fill="none" stroke="#000000" stroke-miterlimit="10" enable-background="new    " d="M53.627,26.193
		c0,0,0-1.899-1.876-1.899c-5.445,0-22.83,0.003-24.387,0.003c-1.891,0-1.876-1.872-1.876-1.872s0-1.885-1.876-1.885
		c-3.284,0-9.861,0-11.255,0c-1.847,0-1.876,1.816-1.876,1.873"/>
	<path opacity="0.03" fill="none" stroke="#000000" stroke-miterlimit="10" enable-background="new    " d="M53.627,25.112
		c0,0,0-1.899-1.876-1.899c-5.445,0-22.83,0.003-24.387,0.003c-1.891,0-1.876-1.872-1.876-1.872s0-1.885-1.876-1.885
		c-3.284,0-9.861,0-11.255,0c-1.847,0-1.876,1.816-1.876,1.873"/>
	
		<linearGradient id="SVGID_1_" gradientUnits="userSpaceOnUse" x1="1127.9993" y1="1377.9335" x2="1127.9993" y2="1347.5322" gradientTransform="matrix(1 0 0 1 -1096 -1326)">
		<stop  offset="0" style="stop-color:#D1E0ED"/>
		<stop  offset="1" style="stop-color:#E4EEFB"/>
	</linearGradient>
	<path fill="url(#SVGID_1_)" stroke="#9DBCD7" stroke-miterlimit="10" d="M16.172,51.933H47.92c3.121,0,5.546-2.595,5.546-5.717
		V25.871c0-0.445-0.665-0.864-1.55-0.864c-5.468,0-22.903,0.003-24.466,0.003c-1.899,0-1.87-1.733-1.87-1.733
		s0.013-1.745-1.871-1.745c-3.298,0-9.904,0-11.304,0c-1.855,0-1.872,1.538-1.872,1.596v23.089
		C10.533,49.338,13.051,51.933,16.172,51.933z"/>
	<path opacity="0.8" fill="none" stroke="#FFFFFF" stroke-miterlimit="10" d="M16.172,50.934c-2.558,0-4.64-2.116-4.64-4.717V23.128
		c0.023-0.596,0.662-0.596,0.872-0.596h11.304c0.21,0,0.85,0,0.871,0.754c-0.002,0.091,0.003,1.14,0.779,1.928
		c0.357,0.363,1.01,0.796,2.092,0.796l24.466-0.003c0.263,0,0.446,0.055,0.551,0.102v20.107c0,2.601-2.04,4.717-4.547,4.717H16.172z
		"/>
	
		<radialGradient id="SVGID_2_" cx="1510.3705" cy="-1013.1181" r="31.4372" gradientTransform="matrix(0.0197 0.9998 -0.9109 0.018 -922.1061 -1463.46)" gradientUnits="userSpaceOnUse">
		<stop  offset="0" style="stop-color:#FFFFFF;stop-opacity:0.6"/>
		<stop  offset="0.3783" style="stop-color:#FAFCFE;stop-opacity:0.4487"/>
		<stop  offset="0.829" style="stop-color:#EBF3FC;stop-opacity:0.2684"/>
		<stop  offset="1" style="stop-color:#E4EEFB;stop-opacity:0.2"/>
	</radialGradient>
	<path fill="url(#SVGID_2_)" d="M16.172,51.181c-2.695,0-4.887-2.226-4.887-4.964V23.128c0-0.036,0.006-0.336,0.229-0.56
		c0.187-0.187,0.486-0.282,0.889-0.282h11.304c0.446,0,0.673,0.053,0.809,0.19c0.3,0.302,0.313,0.762,0.313,0.767
		c-0.001,0.099,0.004,1.081,0.732,1.82c0.464,0.471,1.1,0.709,1.89,0.709c0,0,20.898-0.008,24.461-0.008
		c0.471,0,0.731,0.162,0.798,0.239v20.214c0,2.738-2.15,4.964-4.793,4.964H16.172L16.172,51.181L16.172,51.181z"/>
</g>
<g>
	<path opacity="0.1" fill="#FFFFFF" enable-background="new    " d="M25.59,46.702c-1.911,0-3.466-1.555-3.466-3.466V30.416
		c0-1.911,1.555-3.466,3.466-3.466H38.41c1.911,0,3.466,1.555,3.466,3.466v12.823c0,1.911-1.555,3.466-3.466,3.466H25.59V46.702z
		 M38.41,44.674c0.792,0,1.437-0.644,1.437-1.436V30.851l-0.601,0.108c-0.043,0.008-1.047,0.186-2.258,0.186
		c-0.126,0-0.253-0.002-0.382-0.005c0.013,0-1.335,0.071-2.423,0.402c0.141,0.048,0.226,0.109,0.291,0.199
		c0.018,0.023,0.038,0.069,0.064,0.136l0.128-0.111c4.553,3.963,1.706,8.145,1.678,8.186c-1.454,2.04-3.696,3.658-5.475,4.722
		L38.41,44.674L38.41,44.674z M24.151,39.431c0.66,0.255,1.921,0.654,3.451,0.681l0.51,0.011c0.371,0.008,0.727,0.016,1.075,0.016
		c1.669,0,2.911-0.192,4.31-1.174c1.781-1.248,1.582-3.238,1.571-3.321c-0.007-0.348-0.06-0.696-0.136-1.028
		c-0.002,0.493-0.047,1.002-0.161,1.486c-0.013,0.076-0.463,2.39-2.653,2.945c-0.335,0.083-0.674,0.126-1.009,0.126
		c-1.345,0-2.625-0.669-3.907-2.046c-1.007-1.082-2.455-4.043-2.801-7.508c-0.159,0.232-0.247,0.508-0.247,0.795L24.151,39.431
		L24.151,39.431L24.151,39.431z M30.876,37.156c0.007,0,0.161,0.053,0.378,0.053c0.669,0,1.254-0.48,1.696-1.39
		c0.018-0.03,0.365-0.664,0.448-2.009c-0.172,0.898-0.521,1.928-1.217,2.653c-0.045,0.051-0.568,0.615-1.192,0.615
		c-0.107,0-0.222-0.016-0.338-0.055C30.72,37.071,30.796,37.116,30.876,37.156L30.876,37.156z M30.765,28.979
		c-0.409,0.76-1.412,2.864-1.34,5.104c0,0.032-0.02,1.013,0.388,1.9c-0.043-0.132-0.079-0.281-0.114-0.445
		c-0.02-0.07-0.54-2.307,2.231-4.891c0.047-0.046,0.932-0.924,1.783-1.668L30.765,28.979L30.765,28.979z"/>
	<path opacity="0.3" fill="#669CCC" enable-background="new    " d="M38.41,27.398H25.59c-1.665,0-3.018,1.35-3.018,3.017v12.822
		c0,1.665,1.352,3.017,3.018,3.017H38.41c1.667,0,3.018-1.35,3.018-3.017V30.416C41.428,28.75,40.078,27.398,38.41,27.398z
		 M40.296,43.237c0,1.039-0.844,1.887-1.885,1.887h-9.268c1.612-0.836,4.941-2.774,6.833-5.431c0,0,2.695-3.844-1.604-7.589
		c0,0,1.107,1.737,1.145,3.488c0,0,0.275,2.316-1.762,3.741c-2.034,1.427-3.815,1.271-6.159,1.229
		c-1.875-0.033-3.367-0.601-3.892-0.83v-9.317c0-0.75,0.444-1.394,1.079-1.698c0.161,3.776,1.743,7.023,2.747,8.104
		c1.028,1.105,2.542,2.279,4.479,1.791C33.945,38.123,34.334,36,34.334,36c0.424-1.809-0.19-3.955-0.222-4.001
		c-0.032-0.045-0.324-0.095-0.324-0.095c0.309,2.847-0.432,4.108-0.432,4.108c-1.081,2.233-2.678,1.545-2.678,1.545
		c-1.777-0.904-1.698-3.46-1.698-3.46c-0.088-2.663,1.271-5.131,1.524-5.568h4.487c-0.922,0.626-2.751,2.447-2.751,2.447
		c-2.609,2.431-2.097,4.477-2.097,4.477c0.422,2.145,1.712,0.698,1.712,0.698c1.36-1.414,1.254-4.227,1.254-4.227
		c-0.553,0.091-0.9,0.397-0.9,0.397c-0.064,1.876-1.164,3.04-1.164,3.04c-0.429,0.475-0.734,0.023-0.734,0.023
		c-0.226-0.34,0.224-0.575,0.224-0.575c0.629-0.555,0.817-1.499,0.806-1.854c-0.009-0.355,0.179-0.452,0.179-0.452
		c0.889-0.69,1.779-1.098,1.779-1.098c1.192-0.613,3.322-0.716,3.322-0.716c1.342,0.045,2.546-0.172,2.546-0.172l1.118-0.203
		c0,0.034,0.009,0.066,0.009,0.101v12.823H40.296L40.296,43.237L40.296,43.237z"/>
	<g opacity="0.5">
		<path opacity="0.5" fill="#669CCC" enable-background="new    " d="M39.086,30.075c-0.009,0.001-0.971,0.171-2.099,0.171
			c-0.114,0-0.235-0.001-0.351-0.005c-0.128,0.005-2.278,0.116-3.542,0.765c-0.009,0.005-0.213,0.098-0.521,0.27
			c0.242-0.236,1.853-1.82,2.668-2.375l1.204-0.82h-6.2l-0.13,0.224c-0.282,0.482-1.676,3.036-1.585,5.808
			c-0.005,0.088-0.064,2.824,1.943,3.844c0.058,0.026,0.353,0.149,0.78,0.149c0.593,0,1.704-0.247,2.504-1.898
			c0.005-0.005,0.062-0.105,0.139-0.298c-0.038,0.177-0.416,1.868-1.998,2.268c-0.265,0.066-0.528,0.101-0.79,0.101
			c-1.083,0-2.148-0.576-3.25-1.76c-0.969-1.043-2.474-4.248-2.625-7.819l-0.03-0.678l-0.613,0.292
			c-0.812,0.387-1.338,1.212-1.338,2.103v9.612l0.271,0.116c0.575,0.25,2.124,0.832,4.063,0.867l0.505,0.011
			c0.378,0.008,0.74,0.016,1.094,0.016c1.802-0.001,3.24-0.224,4.826-1.338c2.228-1.562,1.962-4.056,1.949-4.16
			c-0.007-0.288-0.038-0.573-0.091-0.851c1.237,2.543-0.184,4.634-0.262,4.745c-1.804,2.531-4.954,4.4-6.673,5.289l-1.638,0.847
			H38.41c1.288,0,2.335-1.047,2.335-2.334v-12.82c0-0.041-0.005-0.082-0.011-0.121l-0.068-0.459l-0.461,0.039L39.086,30.075z
			 M40.296,30.416v12.823c0,1.039-0.844,1.887-1.885,1.887h-9.268c1.612-0.836,4.941-2.774,6.833-5.431c0,0,2.695-3.844-1.604-7.589
			c0,0,1.107,1.737,1.145,3.488c0,0,0.275,2.316-1.762,3.741c-2.034,1.427-3.815,1.271-6.159,1.229
			c-1.875-0.033-3.367-0.601-3.892-0.83v-9.318c0-0.75,0.444-1.394,1.079-1.698c0.161,3.776,1.743,7.023,2.747,8.104
			c1.028,1.105,2.542,2.279,4.479,1.791C33.945,38.123,34.334,36,34.334,36c0.424-1.809-0.19-3.955-0.222-4.001
			c-0.032-0.045-0.324-0.095-0.324-0.095c0.309,2.847-0.432,4.108-0.432,4.108c-1.081,2.233-2.678,1.545-2.678,1.545
			c-1.777-0.904-1.698-3.46-1.698-3.46c-0.088-2.663,1.271-5.131,1.524-5.568h4.487c-0.922,0.626-2.751,2.447-2.751,2.447
			c-2.609,2.431-2.097,4.477-2.097,4.477c0.422,2.145,1.712,0.698,1.712,0.698c1.36-1.414,1.254-4.227,1.254-4.227
			c-0.553,0.091-0.9,0.397-0.9,0.397c-0.064,1.876-1.164,3.04-1.164,3.04c-0.429,0.475-0.734,0.023-0.734,0.023
			c-0.226-0.34,0.224-0.575,0.224-0.575c0.629-0.555,0.817-1.499,0.806-1.854c-0.009-0.355,0.179-0.452,0.179-0.452
			c0.889-0.69,1.779-1.098,1.779-1.098c1.192-0.613,3.322-0.716,3.322-0.716c1.342,0.045,2.546-0.172,2.546-0.172l1.118-0.203
			C40.287,30.349,40.296,30.381,40.296,30.416z M30.796,36.014c0.166-0.03,0.373-0.123,0.578-0.351
			c0.043-0.043,1.126-1.209,1.269-3.097l0,0c-0.051,0.858-0.267,2.399-1.111,3.276c-0.136,0.15-0.39,0.341-0.546,0.341
			C30.93,36.179,30.865,36.127,30.796,36.014z"/>
		<path opacity="0.5" fill="#669CCC" enable-background="new    " d="M38.41,27.398H25.59c-1.665,0-3.018,1.35-3.018,3.017v12.822
			c0,1.665,1.352,3.017,3.018,3.017H38.41c1.667,0,3.018-1.35,3.018-3.017V30.416C41.428,28.75,40.078,27.398,38.41,27.398z
			 M40.978,43.237c0,1.416-1.152,2.568-2.568,2.568H25.59c-1.416,0-2.568-1.152-2.568-2.568V30.416c0-1.416,1.152-2.568,2.568-2.568
			H38.41c1.416,0,2.568,1.152,2.568,2.568C40.978,30.416,40.978,43.237,40.978,43.237z"/>
	</g>
	<g>
		<path opacity="0.05" fill="#FFFFFF" enable-background="new    " d="M39.167,30.516c0,0-1.206,0.217-2.546,0.172
			c0,0-2.131,0.104-3.322,0.716c0,0-0.889,0.408-1.779,1.098c0,0-0.188,0.097-0.179,0.452c0.011,0.355-0.177,1.299-0.806,1.854
			c0,0-0.449,0.237-0.224,0.575c0,0,0.305,0.451,0.734-0.023c0,0,1.101-1.164,1.164-3.04c0,0,0.347-0.307,0.9-0.397
			c0,0,0.107,2.812-1.254,4.227c0,0-1.29,1.448-1.712-0.698c0,0-0.512-2.045,2.097-4.477c0,0,1.83-1.82,2.751-2.447h-4.487
			c-0.253,0.438-1.612,2.905-1.524,5.568c0,0-0.079,2.556,1.698,3.46c0,0,1.597,0.688,2.678-1.545c0,0,0.742-1.26,0.432-4.108
			c0,0,0.292,0.051,0.324,0.095c0.032,0.046,0.646,2.191,0.222,4.001c0,0-0.388,2.122-2.325,2.612
			c-1.936,0.488-3.451-0.686-4.479-1.791c-1.004-1.081-2.585-4.328-2.747-8.104c-0.635,0.303-1.079,0.948-1.079,1.698v9.317
			c0.524,0.228,2.018,0.796,3.892,0.83c2.343,0.043,4.124,0.199,6.159-1.229c2.036-1.425,1.762-3.741,1.762-3.741
			c-0.038-1.752-1.145-3.488-1.145-3.488c4.3,3.744,1.604,7.589,1.604,7.589c-1.891,2.657-5.22,4.596-6.833,5.431h9.268
			c1.04,0,1.885-0.846,1.885-1.887V30.416c0-0.035-0.009-0.066-0.009-0.101L39.167,30.516z M30.042,32.232
			c0.245-1.189,0.696-2.208,0.996-2.804h1.515c-0.517,0.484-0.908,0.875-0.928,0.892C30.912,30.986,30.405,31.632,30.042,32.232z
			 M29.187,39.69c-0.343,0-0.698-0.008-1.065-0.016l-0.512-0.011c-1.271-0.023-2.352-0.317-3.009-0.546v-6.219
			c0.606,2.023,1.495,3.7,2.271,4.536c1.246,1.338,2.501,2.052,3.83,2.171C30.239,39.671,29.742,39.69,29.187,39.69z M39.397,43.237
			c0,0.545-0.444,0.988-0.987,0.988h-6.007c1.481-1.012,3.14-2.378,4.308-4.017c0.03-0.045,2.953-4.333-1.401-8.465
			c0.58-0.099,1.103-0.141,1.305-0.155c0.126,0.003,0.25,0.005,0.373,0.005c1.258,0,2.295-0.186,2.34-0.193l0.07-0.013
			L39.397,43.237z"/>
		<path opacity="0.05" fill="#FFFFFF" enable-background="new    " d="M38.41,26.501H25.59c-2.158,0-3.915,1.756-3.915,3.914v12.823
			c0,2.158,1.757,3.914,3.915,3.914H38.41c2.158,0,3.915-1.756,3.915-3.914V30.416C42.326,28.257,40.569,26.501,38.41,26.501z
			 M41.428,43.237c0,1.665-1.35,3.017-3.018,3.017H25.59c-1.665,0-3.018-1.35-3.018-3.017V30.416c0-1.666,1.352-3.017,3.018-3.017
			H38.41c1.667,0,3.018,1.35,3.018,3.017C41.428,30.416,41.428,43.237,41.428,43.237z"/>
	</g>
	<g opacity="0.2">
		<path opacity="0.9" fill="#FFFFFF" enable-background="new    " d="M35.975,40.142c0,0,0.9-1.288,0.828-3.097
			c-0.072,1.57-0.828,2.648-0.828,2.648c-1.891,2.657-5.22,4.596-6.833,5.431h0.83C31.72,44.14,34.365,42.402,35.975,40.142z"/>
		<path opacity="0.9" fill="#FFFFFF" enable-background="new    " d="M30.143,35.902c0.422,2.145,1.712,0.7,1.712,0.7
			c1.36-1.414,1.254-4.228,1.254-4.228c-0.002,0-0.005,0.001-0.005,0.001c-0.032,0.852-0.224,2.711-1.25,3.776
			c0,0-1.29,1.448-1.712-0.698c0,0-0.02-0.08-0.032-0.222C30.082,35.652,30.143,35.902,30.143,35.902z"/>
		<path opacity="0.9" fill="#FFFFFF" enable-background="new    " d="M28.977,34.181c0-0.025,0-0.051,0-0.076
			C28.977,34.112,28.977,34.137,28.977,34.181z"/>
		<path opacity="0.9" fill="#FFFFFF" enable-background="new    " d="M33.828,32.362c-0.023-0.005-0.04-0.008-0.04-0.008
			c0.045,0.401,0.066,0.766,0.07,1.106C33.866,33.129,33.857,32.765,33.828,32.362z"/>
		<path opacity="0.9" fill="#FFFFFF" enable-background="new    " d="M30.503,28.53c-0.251,0.434-1.595,2.874-1.524,5.52
			c0.079-2.468,1.286-4.66,1.524-5.07h3.902c0.213-0.178,0.414-0.334,0.584-0.449L30.503,28.53L30.503,28.53z"/>
		<path opacity="0.9" fill="#FFFFFF" enable-background="new    " d="M38.41,46.254H25.59c-1.665,0-3.018-1.35-3.018-3.017v0.448
			c0,1.667,1.352,3.018,3.018,3.018H38.41c1.667,0,3.018-1.35,3.018-3.018v-0.448C41.428,44.903,40.078,46.254,38.41,46.254z"/>
		<path opacity="0.9" fill="#FFFFFF" enable-background="new    " d="M40.287,30.314l-1.119,0.202c0,0-1.206,0.217-2.546,0.172
			c0,0-2.131,0.104-3.322,0.716c0,0-0.889,0.408-1.779,1.098c0,0-0.188,0.097-0.179,0.452c0.011,0.355-0.177,1.299-0.806,1.854
			c0,0-0.449,0.237-0.224,0.575c0,0,0.011,0.015,0.025,0.034c0.085-0.103,0.199-0.161,0.199-0.161
			c0.629-0.555,0.817-1.499,0.806-1.854c-0.009-0.355,0.179-0.452,0.179-0.452c0.232-0.179,0.463-0.338,0.678-0.478
			c0.002-0.051,0.009-0.101,0.011-0.153c0,0,0.347-0.307,0.9-0.397c0,0,0,0.012,0,0.024c0.116-0.06,0.19-0.094,0.19-0.094
			c1.192-0.613,3.322-0.715,3.322-0.715c1.342,0.044,2.546-0.174,2.546-0.174l1.119-0.202c0,0.034,0.009,0.066,0.009,0.101v-0.449
			C40.296,30.381,40.287,30.349,40.287,30.314z"/>
		<path opacity="0.9" fill="#FFFFFF" enable-background="new    " d="M27.53,36.822c-1.004-1.081-2.585-4.328-2.747-8.104
			c-0.635,0.303-1.079,0.948-1.079,1.698v0.449c0-0.75,0.444-1.394,1.079-1.698c0.161,3.776,1.743,7.025,2.747,8.106
			c1.028,1.104,2.542,2.278,4.479,1.789c1.936-0.488,2.325-2.612,2.325-2.612c0.128-0.542,0.159-1.115,0.145-1.651
			c-0.011,0.399-0.051,0.808-0.145,1.204c0,0-0.388,2.122-2.325,2.612C30.072,39.1,28.558,37.927,27.53,36.822z"/>
	</g>
	<g>
		<path opacity="0.5" fill="#669CCC" enable-background="new    " d="M30.11,35.216c0.049-0.793,0.414-2.22,2.128-3.819
			c0,0,1.83-1.82,2.751-2.447h-0.55c-0.953,0.785-2.201,2.025-2.201,2.025C30.153,32.921,30.064,34.613,30.11,35.216z"/>
		<path opacity="0.5" fill="#669CCC" enable-background="new    " d="M34.371,32.104c0,0,0.207,0.326,0.444,0.836
			c1.47,1.449,1.945,2.889,1.989,4.096C36.866,35.642,36.39,33.86,34.371,32.104z"/>
		<path opacity="0.5" fill="#669CCC" enable-background="new    " d="M34.111,32.001c-0.032-0.045-0.324-0.095-0.324-0.095
			c0.018,0.147,0.027,0.29,0.038,0.428c0.079,0.015,0.26,0.053,0.286,0.088c0.023,0.033,0.331,1.104,0.367,2.365
			C34.514,33.352,34.136,32.037,34.111,32.001z"/>
		<path opacity="0.5" fill="#669CCC" enable-background="new    " d="M28.977,34.021c-0.002,0.027,0,0.055,0,0.083v-0.007
			C28.975,34.072,28.977,34.047,28.977,34.021z"/>
		<path opacity="0.5" fill="#669CCC" enable-background="new    " d="M31.044,35.361c-0.371,0.412-0.649,0.129-0.716,0.045
			c-0.076,0.103-0.126,0.239-0.018,0.399c0,0,0.305,0.451,0.734-0.023c0,0,1.101-1.166,1.164-3.041c0,0,0.347-0.305,0.896-0.396
			c0.009-0.26,0.005-0.422,0.005-0.422c-0.005,0.001-0.009,0.002-0.013,0.002c-0.199,0.101-0.521,0.276-0.898,0.519
			C32.094,34.247,31.044,35.361,31.044,35.361z"/>
		<path opacity="0.5" fill="#669CCC" enable-background="new    " d="M38.41,27.398H25.59c-1.665,0-3.018,1.35-3.018,3.017v0.422
			c0-1.666,1.352-3.017,3.018-3.017H38.41c1.667,0,3.018,1.35,3.018,3.017v-0.422C41.428,28.75,40.078,27.398,38.41,27.398z"/>
		<path opacity="0.5" fill="#669CCC" enable-background="new    " d="M27.596,40.983c2.343,0.043,4.124,0.199,6.159-1.229
			c1.83-1.281,1.794-3.276,1.768-3.667c-0.038,0.757-0.313,2.226-1.768,3.246c-2.034,1.427-3.815,1.271-6.159,1.229
			c-1.875-0.033-3.367-0.601-3.892-0.83v0.422C24.229,40.382,25.721,40.95,27.596,40.983z"/>
		<path opacity="0.5" fill="#669CCC" enable-background="new    " d="M30.675,37.98c0,0,1.597,0.688,2.678-1.545
			c0,0,0.542-0.928,0.503-2.981c-0.036,1.759-0.503,2.56-0.503,2.56c-1.081,2.233-2.678,1.545-2.678,1.545
			c-1.591-0.81-1.693-2.941-1.698-3.376c-0.002,0.114-0.005,0.224,0,0.338C28.977,34.519,28.899,37.075,30.675,37.98z"/>
		<path opacity="0.5" fill="#669CCC" enable-background="new    " d="M38.41,45.544c1.04,0,1.885-0.845,1.885-1.885v-0.422
			c0,1.039-0.844,1.887-1.885,1.887h-8.488c-0.288,0.159-0.553,0.303-0.78,0.42C29.142,45.544,38.41,45.544,38.41,45.544z"/>
	</g>
</g>
</svg>
