<?xml version="1.0" encoding="utf-8"?>
<!-- Generator: Adobe Illustrator 17.0.0, SVG Export Plug-In . SVG Version: 6.00 Build 0)  -->
<!DOCTYPE svg PUBLIC "-//W3C//DTD SVG 1.1//EN" "http://www.w3.org/Graphics/SVG/1.1/DTD/svg11.dtd">
<svg version="1.1" id="图层_1" xmlns="http://www.w3.org/2000/svg" xmlns:xlink="http://www.w3.org/1999/xlink" x="0px" y="0px"
	 width="48px" height="48px" viewBox="8 8 48 48" enable-background="new 8 8 48 48" xml:space="preserve">
<g id="g151" opacity="0.5">
	<path id="path153" opacity="0.08" enable-background="new    " d="M48.41,52.136H15.617c-3.019,0-5.48-2.367-5.48-5.266v4.028
		c0,2.265,1.925,4.102,4.283,4.102h35.185c2.358,0,4.256-1.836,4.256-4.102V46.87C53.861,49.77,51.428,52.136,48.41,52.136z"/>
	<path id="path155" opacity="0.1" enable-background="new    " d="M48.383,52.136H15.59c-3.018,0-5.451-2.323-5.451-5.222v2.107
		c0,2.265,1.039,5.025,5.25,5.025s28.929,0,33.195,0s5.279-2.76,5.279-5.025v-2.107C53.861,49.813,51.4,52.136,48.383,52.136z"/>
	<path id="path157" opacity="0.1" enable-background="new    " d="M48.383,52.136H15.59c-3.018,0-5.451-2.323-5.451-5.222v1.137
		c0,2.266,1.802,5.041,5.25,5.041s29.249,0,33.195,0c3.947,0,5.279-2.775,5.279-5.039v-1.137
		C53.861,49.813,51.4,52.136,48.383,52.136z"/>
	<rect id="rect159" x="15.107" y="52.136" opacity="0.05" enable-background="new    " width="33.786" height="0.955"/>
	<rect id="rect161" x="16.101" y="52.136" opacity="0.05" enable-background="new    " width="30.805" height="0.955"/>
	<rect id="rect163" x="16.101" y="53.091" opacity="0.05" enable-background="new    " width="30.805" height="0.955"/>
	<rect id="rect165" x="18.087" y="53.091" opacity="0.05" enable-background="new    " width="27.824" height="0.955"/>
	<rect id="rect167" x="21.069" y="53.091" opacity="0.05" enable-background="new    " width="21.862" height="0.955"/>
	<rect id="rect169" x="25.044" y="53.091" opacity="0.05" enable-background="new    " width="13.912" height="0.955"/>
	<rect id="rect171" x="18.087" y="52.136" opacity="0.05" enable-background="new    " width="27.824" height="0.955"/>
	<rect id="rect173" x="20.075" y="52.136" opacity="0.05" enable-background="new    " width="23.849" height="0.955"/>
	<rect id="rect175" x="21.069" y="52.136" opacity="0.05" enable-background="new    " width="21.862" height="0.955"/>
	<rect id="rect177" x="23.056" y="52.136" opacity="0.05" enable-background="new    " width="17.887" height="0.955"/>
	<rect id="rect179" x="23.056" y="52.136" opacity="0.05" enable-background="new    " width="17.887" height="0.955"/>
</g>
<path fill="#C4DCED" stroke="#9DBCD7" stroke-miterlimit="10" d="M53.466,46.281c0,3.121-2.531,5.652-5.652,5.652H16.185
	c-3.121,0-5.652-2.531-5.652-5.652V14.652c0-3.121,2.531-5.652,5.652-5.652h31.63c3.121,0,5.652,2.531,5.652,5.652L53.466,46.281
	L53.466,46.281z"/>
<path opacity="0.6" fill="none" stroke="#FFFFFF" stroke-miterlimit="10" d="M16.185,50.934c-2.565,0-4.652-2.087-4.652-4.652
	V14.652c0-2.565,2.087-4.652,4.652-4.652h31.629c2.565,0,4.652,2.087,4.652,4.652v31.629c0,2.565-2.087,4.652-4.652,4.652H16.185z"
	/>
<g id="g27_1_">
	
		<linearGradient id="path36_2_" gradientUnits="userSpaceOnUse" x1="1520.0824" y1="2152.541" x2="1526.0471" y2="2162.8721" gradientTransform="matrix(1 0 0 1 -1508 -2144)">
		<stop  offset="0" style="stop-color:#FFFFFF"/>
		<stop  offset="0.5" style="stop-color:#FFFFFF;stop-opacity:0.6"/>
		<stop  offset="1" style="stop-color:#FFFFFF;stop-opacity:0.15"/>
	</linearGradient>
	<path id="path36_1_" fill="url(#path36_2_)" d="M17,20.627c0.667-1.381,1.481-2.674,2.414-3.869l-1.699-3.725
		c-1.451,1.372-2.629,2.883-3.569,4.351L17,20.627z"/>
	
		<linearGradient id="path45_2_" gradientUnits="userSpaceOnUse" x1="1525.4906" y1="2150.9939" x2="1529.3943" y2="2157.7554" gradientTransform="matrix(1 0 0 1 -1508 -2144)">
		<stop  offset="0" style="stop-color:#FFFFFF"/>
		<stop  offset="0.5" style="stop-color:#FFFFFF;stop-opacity:0.6"/>
		<stop  offset="1" style="stop-color:#FFFFFF;stop-opacity:0.15"/>
	</linearGradient>
	<path id="path45_1_" fill="url(#path45_2_)" d="M17.178,9.452l0.888,1.946c0.854-0.709,1.791-0.954,2.812-1.946H17.178z"/>
	
		<linearGradient id="path54_2_" gradientUnits="userSpaceOnUse" x1="1526.7184" y1="2149.7102" x2="1531.4878" y2="2157.9709" gradientTransform="matrix(1 0 0 1 -1508 -2144)">
		<stop  offset="0" style="stop-color:#FFFFFF"/>
		<stop  offset="0.5" style="stop-color:#FFFFFF;stop-opacity:0.6"/>
		<stop  offset="1" style="stop-color:#FFFFFF;stop-opacity:0.15"/>
	</linearGradient>
	<path id="path54_1_" fill="url(#path54_2_)" d="M23.841,9.452h-0.703c-1.772,0.992-3.321,1.75-4.65,2.881l1.628,3.573
		c1.391-1.607,3.005-3.015,4.813-4.152c0.014-0.013,0.024-0.024,0.039-0.036C26.994,9.968,24.983,9.452,23.841,9.452z"/>
	
		<linearGradient id="path63_2_" gradientUnits="userSpaceOnUse" x1="1516.7354" y1="2157.2505" x2="1521.9113" y2="2166.2153" gradientTransform="matrix(1 0 0 1 -1508 -2144)">
		<stop  offset="0" style="stop-color:#FFFFFF"/>
		<stop  offset="0.5" style="stop-color:#FFFFFF;stop-opacity:0.6"/>
		<stop  offset="1" style="stop-color:#FFFFFF;stop-opacity:0.15"/>
	</linearGradient>
	<path id="path63_1_" fill="url(#path63_2_)" d="M13.606,18.269c-1.089,1.855-1.802,3.569-2.224,4.741
		c0.5,0.714,1.327,1.182,2.265,1.182c1.161,0,2.153-0.717,2.563-1.731c0.105-0.283,0.233-0.555,0.351-0.834L13.606,18.269z"/>
	
		<linearGradient id="path72_2_" gradientUnits="userSpaceOnUse" x1="1516.5024" y1="2157.6179" x2="1522.2385" y2="2167.5532" gradientTransform="matrix(1 0 0 1 -1508 -2144)">
		<stop  offset="0" style="stop-color:#FFFFFF"/>
		<stop  offset="0.5" style="stop-color:#FFFFFF;stop-opacity:0.6"/>
		<stop  offset="1" style="stop-color:#FFFFFF;stop-opacity:0.15"/>
	</linearGradient>
	<path id="path72_1_" fill="url(#path72_2_)" d="M10.901,15.192l-0.021,6.229c0,0,0,0.002,0,0.004c0,0.039,0.01,0.076,0.012,0.114
		c0.474-1.152,1.135-2.56,2.031-4.048L10.901,15.192z"/>
	
		<linearGradient id="path149_2_" gradientUnits="userSpaceOnUse" x1="1520.8402" y1="2154.5063" x2="1526.2263" y2="2163.8357" gradientTransform="matrix(1 0 0 1 -1508 -2144)">
		<stop  offset="0" style="stop-color:#FFFFFF"/>
		<stop  offset="0.5" style="stop-color:#FFFFFF;stop-opacity:0.6"/>
		<stop  offset="1" style="stop-color:#FFFFFF;stop-opacity:0.15"/>
	</linearGradient>
	<path id="path149_1_" fill="url(#path149_2_)" d="M15.994,9.464c-2.024-0.168-4.689,2.111-5.03,4.297l2.511,2.855
		c1.002-1.53,2.248-3.096,3.786-4.512L15.994,9.464z"/>
</g>
<g>
	<g>
		
			<rect x="15.119" y="15.183" transform="matrix(0.986 -0.1666 0.1666 0.986 -3.617 4.2678)" opacity="0.5" fill="#669CCC" enable-background="new    " width="17.019" height="17.019"/>
		
			<rect x="15.398" y="14.79" transform="matrix(0.986 -0.1666 0.1666 0.986 -3.5477 4.3087)" opacity="0.2" fill="#669CCC" enable-background="new    " width="17.019" height="17.019"/>
		
			<rect x="15.677" y="14.398" transform="matrix(0.986 -0.1666 0.1666 0.986 -3.4784 4.3498)" opacity="0.1" fill="#669CCC" enable-background="new    " width="17.019" height="17.019"/>
	</g>
	
		<rect x="15.274" y="15.516" transform="matrix(0.986 -0.1666 0.1666 0.986 -3.4613 4.2378)" fill="#FFFFFF" width="16.509" height="14.466"/>
</g>
<g>
	<g>
		
			<rect x="30.159" y="14.833" transform="matrix(0.9967 -0.0814 0.0814 0.9967 -1.7718 3.225)" opacity="0.5" fill="#669CCC" enable-background="new    " width="17.02" height="17.02"/>
		
			<rect x="30.471" y="14.466" transform="matrix(0.9967 -0.0814 0.0814 0.9967 -1.7409 3.2492)" opacity="0.2" fill="#669CCC" enable-background="new    " width="17.02" height="17.02"/>
		
			<rect x="30.782" y="14.099" transform="matrix(0.9967 -0.0814 0.0814 0.9967 -1.71 3.2733)" opacity="0.1" fill="#669CCC" enable-background="new    " width="17.02" height="17.02"/>
	</g>
	
		<rect x="30.408" y="15.163" transform="matrix(0.9967 -0.0814 0.0814 0.9967 -1.6947 3.2215)" fill="#FFFFFF" width="16.51" height="14.467"/>
</g>
<g>
	<g>
		
			<rect x="20.416" y="16.762" transform="matrix(0.9995 -0.0321 0.0321 0.9995 -0.7963 0.9415)" opacity="0.5" fill="#669CCC" enable-background="new    " width="17.02" height="17.02"/>
		
			<rect x="20.745" y="16.411" transform="matrix(0.9995 -0.0321 0.0321 0.9995 -0.7849 0.9519)" opacity="0.2" fill="#669CCC" enable-background="new    " width="17.02" height="17.02"/>
		
			<rect x="21.075" y="16.059" transform="matrix(0.9995 -0.0321 0.0321 0.9995 -0.7734 0.9623)" opacity="0.1" fill="#669CCC" enable-background="new    " width="17.02" height="17.02"/>
	</g>
	
		<rect x="20.721" y="17.092" transform="matrix(0.9995 -0.0321 0.0321 0.9995 -0.7659 0.9427)" fill="#FFFFFF" width="16.51" height="14.467"/>
</g>
<g>
	<g>
		
			<rect x="32.562" y="18.373" transform="matrix(1 -0.0034 0.0034 1 -0.0912 0.1398)" opacity="0.5" fill="#669CCC" enable-background="new    " width="17.02" height="17.02"/>
		
			<rect x="32.901" y="18.032" transform="matrix(1 -0.0034 0.0034 1 -0.09 0.141)" opacity="0.2" fill="#669CCC" enable-background="new    " width="17.02" height="17.02"/>
		
			<rect x="33.24" y="17.69" transform="matrix(1 -0.0034 0.0034 1 -0.0888 0.1421)" opacity="0.1" fill="#669CCC" enable-background="new    " width="17.02" height="17.02"/>
	</g>
	
		<rect x="32.899" y="18.705" transform="matrix(1 -0.0034 0.0034 1 -0.088 0.1401)" fill="#FFFFFF" width="16.509" height="14.467"/>
</g>
<g>
	<path opacity="0.08" fill="none" stroke="#000000" stroke-miterlimit="10" enable-background="new    " d="M53.627,26.193
		c0,0,0-1.899-1.876-1.899c-5.445,0-22.83,0.003-24.387,0.003c-1.891,0-1.876-1.872-1.876-1.872s0-1.885-1.876-1.885
		c-3.284,0-9.861,0-11.255,0c-1.847,0-1.876,1.816-1.876,1.873"/>
	<path opacity="0.03" fill="none" stroke="#000000" stroke-miterlimit="10" enable-background="new    " d="M53.627,25.112
		c0,0,0-1.899-1.876-1.899c-5.445,0-22.83,0.003-24.387,0.003c-1.891,0-1.876-1.872-1.876-1.872s0-1.885-1.876-1.885
		c-3.284,0-9.861,0-11.255,0c-1.847,0-1.876,1.816-1.876,1.873"/>
	
		<linearGradient id="SVGID_1_" gradientUnits="userSpaceOnUse" x1="1127.9993" y1="1377.9335" x2="1127.9993" y2="1347.5322" gradientTransform="matrix(1 0 0 1 -1096 -1326)">
		<stop  offset="0" style="stop-color:#D1E0ED"/>
		<stop  offset="1" style="stop-color:#E4EEFB"/>
	</linearGradient>
	<path fill="url(#SVGID_1_)" stroke="#9DBCD7" stroke-miterlimit="10" d="M16.172,51.933H47.92c3.121,0,5.546-2.595,5.546-5.717
		V25.871c0-0.445-0.665-0.864-1.55-0.864c-5.468,0-22.903,0.003-24.466,0.003c-1.899,0-1.87-1.733-1.87-1.733
		s0.013-1.745-1.871-1.745c-3.298,0-9.904,0-11.304,0c-1.855,0-1.872,1.538-1.872,1.596v23.089
		C10.533,49.338,13.051,51.933,16.172,51.933z"/>
	<path opacity="0.8" fill="none" stroke="#FFFFFF" stroke-miterlimit="10" d="M16.172,50.934c-2.558,0-4.64-2.116-4.64-4.717V23.128
		c0.023-0.596,0.662-0.596,0.872-0.596h11.304c0.21,0,0.85,0,0.871,0.754c-0.002,0.091,0.003,1.14,0.779,1.928
		c0.357,0.363,1.01,0.796,2.092,0.796l24.466-0.003c0.263,0,0.446,0.055,0.551,0.102v20.107c0,2.601-2.04,4.717-4.547,4.717H16.172z
		"/>
	
		<radialGradient id="SVGID_2_" cx="1510.3705" cy="-1013.1181" r="31.4372" gradientTransform="matrix(0.0197 0.9998 -0.9109 0.018 -922.1061 -1463.46)" gradientUnits="userSpaceOnUse">
		<stop  offset="0" style="stop-color:#FFFFFF;stop-opacity:0.6"/>
		<stop  offset="0.3783" style="stop-color:#FAFCFE;stop-opacity:0.4487"/>
		<stop  offset="0.829" style="stop-color:#EBF3FC;stop-opacity:0.2684"/>
		<stop  offset="1" style="stop-color:#E4EEFB;stop-opacity:0.2"/>
	</radialGradient>
	<path fill="url(#SVGID_2_)" d="M16.172,51.181c-2.695,0-4.887-2.226-4.887-4.964V23.128c0-0.036,0.006-0.336,0.229-0.56
		c0.187-0.187,0.486-0.282,0.889-0.282h11.304c0.446,0,0.673,0.053,0.809,0.19c0.3,0.302,0.313,0.762,0.313,0.767
		c-0.001,0.099,0.004,1.081,0.732,1.82c0.464,0.471,1.1,0.709,1.89,0.709c0,0,20.898-0.008,24.461-0.008
		c0.471,0,0.731,0.162,0.798,0.239v20.214c0,2.738-2.15,4.964-4.793,4.964H16.172L16.172,51.181L16.172,51.181z"/>
</g>
<g id="Symbol">
	<path opacity="0.05" fill="#FFFFFF" enable-background="new    " d="M35.529,26.404c-1.914,0.019-3.852-0.032-5.785,0.025
		c-0.097,0.001-0.188,0.037-0.259,0.103c-0.188,0.192-0.331,0.194-0.633,0.168c-0.282-0.024-0.676-0.079-1.111,0.013v-0.013
		c-0.013,0.001-0.025,0.012-0.039,0.013c-0.015,0.004-0.023-0.004-0.039,0v0.013c-0.654,0.059-1.269,0.397-1.575,1.02l-0.013-0.013
		c-0.011,0.015-0.015,0.036-0.026,0.051c-0.666,1.029-1.395,2.046-2.04,3.125c-0.016,0.025-0.029,0.051-0.039,0.077
		c-0.151,0.443,0.025,0.871,0.271,1.136c0.242,0.26,0.54,0.427,0.775,0.555c0.005,0.003,0.008,0.01,0.013,0.013
		c0.365,0.223,0.746,0.44,1.11,0.671c-0.131-0.012-0.27-0.022-0.387-0.013c-0.339,0.024-0.637,0.08-0.852,0.065
		c-0.017-0.001-0.035-0.001-0.051,0c-1.213,0.082-2.461,0.095-3.706,0.22c-0.017,0.003-0.035,0.008-0.051,0.013
		c-1.039,0.275-1.067,1.787-0.129,2.195l-0.013,0.013c0.058,0.046,0.075,0.035,0.129,0.064c0.116,0.063,0.199,0.118,0.271,0.142
		c-0.957,1.791-0.853,4.044,0.323,5.72c0.002,0.003-0.001,0.01,0,0.013c0.86,1.309,1.88,2.485,2.841,3.655
		c0.072,0.082,0.175,0.129,0.284,0.129c0.326,0.016,0.471,0.123,0.697,0.323c0.226,0.2,0.491,0.502,0.916,0.749
		c0.036,0.023,0.075,0.041,0.116,0.051c0.885,0.17,1.758,0.027,2.518,0.064c0.008,0.001,0.017,0.001,0.026,0
		c0.899-0.022,1.841,0.058,2.802-0.025c0.022-0.002,0.044-0.007,0.064-0.013c0.256-0.069,0.47-0.216,0.607-0.4
		c0.137-0.185,0.199-0.386,0.232-0.581c0.022-0.128,0.008-0.213,0.013-0.335c0.526,0.928,1.023,1.874,1.614,2.789
		c0.011,0.018,0.025,0.036,0.039,0.051c0.728,0.792,2.111,0.097,2.001-0.943h0.013c0.001-0.032-0.001-0.034,0-0.064
		c0.001-0.167,0.01-0.278,0.013-0.349c0.011,0.003,0.001-0.004,0.013,0c0.038,0.011,0.077,0.014,0.116,0.013
		c1.989,0.027,3.888-1.078,4.842-2.828c0.003-0.005,0.01-0.008,0.013-0.013c0.788-1.359,1.395-2.799,2.014-4.196
		c0.037-0.091,0.037-0.193,0-0.285c-0.11-0.29-0.103-0.471-0.051-0.71c0.051-0.239,0.171-0.537,0.284-0.93
		c0.009-0.034,0.013-0.069,0.013-0.103c-0.01-0.835-0.559-1.41-0.749-1.898c-0.004-0.008-0.008-0.017-0.013-0.026
		c-0.534-1.031-1.024-2.101-1.6-3.138c-0.015-0.023-0.032-0.045-0.052-0.065c-0.27-0.306-0.671-0.416-1.007-0.374
		c-0.315,0.039-0.585,0.182-0.814,0.361l-0.013,0.013c-0.011,0.008-0.028,0.004-0.039,0.013l-0.245,0.156
		c0.526-0.928,1.052-1.851,1.562-2.789c0.005-0.017,0.01-0.035,0.013-0.052c0.398-1.043-0.941-2.034-1.808-1.33
		c-0.013,0.008-0.026,0.016-0.039,0.025c-0.102,0.101-0.091,0.097-0.09,0.103c-0.014-0.028-0.034-0.042-0.051-0.103
		c-0.009-0.032-0.023-0.062-0.039-0.09C38.079,27.54,37.045,26.414,35.529,26.404z M31.9,31.788c0.118,0.172,0.244,0.383,0.31,0.516
		c0.073,0.147,0.061,0.23,0.065,0.22c0.004-0.011,0.015,0.037-0.206,0.09c-0.008,0-0.017,0-0.026,0
		c-0.347,0.115-0.645,0.349-0.826,0.671s-0.219,0.771,0,1.15c0.27,0.454,0.755,0.592,1.15,0.607
		c0.394,0.015,0.766-0.038,0.994-0.013c0.013,0.001,0.025,0.001,0.039,0l2.299-0.013c-0.19,0.127-0.387,0.242-0.555,0.426
		c-0.015,0.02-0.028,0.042-0.039,0.064c-0.266,0.458-0.161,0.96,0.013,1.317c0.175,0.357,0.403,0.659,0.49,0.878
		c0.004,0.013,0.008,0.026,0.013,0.039l0.259,0.478c-0.072-0.046-0.12-0.113-0.206-0.142c-0.003-0.001,0.002-0.012,0-0.013
		c-0.004-0.001-0.008,0.001-0.013,0c-0.387-0.137-0.785-0.024-1.059,0.181c-0.263,0.197-0.43,0.47-0.542,0.75l-0.013-0.013
		l-1.252,2.259c0.002-0.357,0.035-0.688-0.026-1.059c-0.006-0.027-0.014-0.053-0.025-0.077c-0.104-0.249-0.288-0.454-0.491-0.568
		c-0.202-0.114-0.407-0.142-0.607-0.155c-0.399-0.026-0.785,0.037-1.02,0.026c-0.008-0.001-0.017-0.001-0.026,0l-1.33,0.038
		c0.103-0.049,0.209-0.08,0.297-0.168l0.013,0.013c0.008-0.008,0.005-0.019,0.013-0.026c0.323-0.309,0.395-0.761,0.31-1.11
		c-0.085-0.347-0.283-0.624-0.478-0.852h0.013c-0.007-0.01-0.019-0.016-0.026-0.026c-0.757-1.083-1.485-2.206-2.272-3.292
		c0.626,0.395,1.24,0.795,1.885,1.162c0.024,0.016,0.05,0.029,0.077,0.039c0.473,0.134,0.921-0.081,1.175-0.361
		c0.25-0.275,0.39-0.602,0.504-0.852l0.013-0.013L31.9,31.788z M36.445,39.252l0.156,0.284h-0.142
		C36.459,39.443,36.453,39.354,36.445,39.252z M27.949,39.342c0.096,0.049,0.185,0.085,0.297,0.129l-0.361,0.013L27.949,39.342z"/>
	<path opacity="0.1" fill="#FFFFFF" enable-background="new    " d="M35.533,26.773c-1.923,0.02-3.852-0.023-5.771,0.035
		c-0.561,0.573-1.264,0.073-1.999,0.268c-0.59,0.032-1.115,0.328-1.36,0.87c-0.68,1.056-1.423,2.079-2.067,3.156
		c-0.215,0.633,0.411,1,0.876,1.255c1.331,0.812,2.632,1.693,3.983,2.461c0.682,0.192,1.012-0.512,1.24-1.014
		c0.479-0.924,0.959-1.848,1.438-2.771c0.26,0.654,1.438,1.667,0.287,1.948c-0.509,0.168-0.925,0.738-0.622,1.26
		c0.387,0.653,1.234,0.344,1.852,0.413c1.207-0.003,2.413-0.006,3.619-0.008c-0.517,0.366-1.152,0.593-1.581,1.062
		c-0.384,0.662,0.296,1.265,0.532,1.851c0.423,0.779,0.846,1.558,1.269,2.338c-0.378,0.004-0.754,0.008-1.131,0.011
		c-0.004-0.529,0.087-1.272-0.554-1.477c-0.541-0.198-0.988,0.262-1.164,0.731c-0.647,1.161-1.294,2.321-1.941,3.482
		c-0.031-0.798,0.082-1.615-0.046-2.401c-0.305-0.725-1.178-0.439-1.784-0.467c-1.113,0.033-2.227,0.066-3.34,0.098
		c0.17-0.342,0.339-0.685,0.508-1.027c0.466,0.241,1.086,0.647,1.547,0.161c0.481-0.434,0.143-1.094-0.202-1.491
		c-0.835-1.194-1.624-2.433-2.487-3.598c-0.504-0.388-1.182-0.09-1.762-0.132c-1.227,0.082-2.463,0.101-3.685,0.224
		c-0.732,0.194-0.735,1.34-0.004,1.545c0.24,0.187,0.907,0.228,0.535,0.626c-0.923,1.676-0.843,3.823,0.263,5.394
		c0.842,1.283,1.862,2.455,2.83,3.632c0.845,0.042,1.067,0.696,1.801,1.119c0.798,0.153,1.635,0.029,2.449,0.07
		c0.926-0.023,1.862,0.045,2.78-0.035c0.741-0.2,0.56-1.068,0.583-1.648c-0.017-0.473-0.023-0.898,0.252-0.249
		c0.693,1.171,1.313,2.396,2.049,3.536c0.498,0.542,1.486,0.035,1.363-0.686c0.004-0.429-0.125-0.989,0.509-0.783
		c1.851,0.025,3.638-1.009,4.519-2.639c0.776-1.336,1.377-2.773,1.999-4.18c-0.268-0.708,0.009-1.121,0.22-1.862
		c-0.008-0.647-0.495-1.169-0.723-1.756c-0.54-1.04-1.031-2.115-1.598-3.134c-0.372-0.421-0.963-0.245-1.337,0.066
		c-0.509,0.305-1.017,0.611-1.525,0.915c0.75-1.344,1.529-2.678,2.262-4.028c0.266-0.697-0.659-1.369-1.235-0.9
		c-0.357,0.354-0.627,0.342-0.777-0.164C37.782,27.791,36.861,26.783,35.533,26.773z"/>
	<path opacity="0.2" fill="#FFFFFF" enable-background="new    " d="M35.556,27.212l-5.575,0.011
		c-0.137-0.001-0.262,0.075-0.325,0.197s-0.053,0.268,0.025,0.38c-0.373-0.185-0.777-0.325-1.247-0.335
		c-0.385-0.008-0.804,0.054-1.247,0.22c-0.07,0.027-0.131,0.075-0.173,0.138l-2.204,3.313c-0.058,0.082-0.079,0.184-0.059,0.282
		c0.02,0.099,0.078,0.184,0.163,0.237l4.293,2.69c0.087,0.054,0.192,0.07,0.29,0.044c0.099-0.026,0.182-0.093,0.23-0.183
		l2.077-3.993c0.025-0.042,0.04-0.089,0.046-0.138c0.605,0.878,1.113,1.855,1.512,2.759l-1.281,0.692
		c-0.152,0.077-0.23,0.249-0.189,0.416c0.042,0.165,0.192,0.28,0.362,0.277l5.032-0.011c0.133,0.002,0.257-0.069,0.323-0.185
		l2.343-4.155c0.094-0.147,0.07-0.341-0.056-0.461c-0.126-0.12-0.321-0.135-0.464-0.036l-0.912,0.578l-0.611-1.074
		c-0.008-0.008-0.015-0.015-0.023-0.023c-0.272-0.409-0.547-0.787-0.912-1.085c-0.365-0.298-0.818-0.504-1.385-0.554
		C35.579,27.211,35.568,27.211,35.556,27.212z M40.393,33.145c-0.054,0.008-0.105,0.027-0.15,0.058l-4.317,2.62
		c-0.168,0.099-0.229,0.312-0.138,0.485l2.135,3.936c0.018,0.035,0.041,0.066,0.07,0.093l-2.332,0.011l-0.012-1.143
		c0.004-0.17-0.112-0.321-0.278-0.362c-0.166-0.041-0.337,0.037-0.416,0.189l-2.308,4.132c-0.062,0.111-0.062,0.247,0,0.358
		l2.308,4.062c0.078,0.155,0.254,0.233,0.421,0.188c0.168-0.045,0.28-0.2,0.271-0.373l0.011-1.304h0.75
		c1.905-0.001,3.098-0.72,3.947-1.87c0.849-1.15,1.417-2.69,2.285-4.467c0.073-0.144,0.044-0.32-0.073-0.431
		c-0.117-0.112-0.294-0.134-0.434-0.053c0.442-0.466,0.799-1,0.761-1.593c-0.006-0.049-0.022-0.096-0.046-0.138l-2.1-4.19
		C40.685,33.216,40.543,33.134,40.393,33.145z M26.08,34.161l-4.675,0.254c-0.164,0.012-0.3,0.132-0.332,0.294
		c-0.033,0.161,0.047,0.325,0.194,0.399l1.177,0.589l-0.335,0.681c-0.849,1.705-0.741,3.099-0.092,4.375
		c0.649,1.275,1.774,2.458,2.978,4.028c0.114,0.14,0.315,0.176,0.471,0.084c0.156-0.093,0.22-0.285,0.152-0.454
		c-0.022-0.049-0.016-0.1-0.035-0.15c0.213,0.718,0.577,1.394,1.212,1.662c0.044,0.02,0.09,0.032,0.138,0.035h4.675
		c0.099,0.001,0.193-0.037,0.262-0.107c0.07-0.07,0.108-0.164,0.107-0.262l0.035-5.032c0.001-0.1-0.039-0.197-0.111-0.267
		c-0.072-0.07-0.17-0.107-0.27-0.103l-4.928,0.149c-0.066,0.002-0.129,0.023-0.185,0.058l1.062-2.135l1.027,0.508
		c0.148,0.069,0.323,0.031,0.43-0.092c0.107-0.123,0.12-0.301,0.032-0.439l-2.666-3.912C26.332,34.215,26.209,34.154,26.08,34.161z
		 M25.411,43.232c0.013,0.256,0.053,0.516,0.116,0.773C25.46,43.749,25.4,43.496,25.411,43.232z"/>
	<path opacity="0.3" fill="#669CCC" enable-background="new    " d="M35.556,27.582l-5.575,0.011
		c0.608,0.363,1.402,1.18,2.066,2.112c0.742,1.041,1.345,2.243,1.789,3.29l-1.581,0.854l5.032-0.011l2.343-4.155l-1.247,0.785
		l-0.797-1.408C37.056,28.26,36.559,27.671,35.556,27.582z M28.423,27.836c-0.342-0.007-0.707,0.046-1.108,0.197l-2.204,3.313
		l4.293,2.689l2.077-3.993C30.846,29.159,29.901,27.865,28.423,27.836z M40.427,33.514l-4.317,2.62l2.135,3.936l1.72,0.023
		c1.005,0.011,2.626-1.386,2.562-2.389L40.427,33.514z M26.103,34.53l-4.675,0.254l1.501,0.75l-0.497,1.004
		c-1.623,3.259,0.421,4.85,2.851,8.021c-0.347-0.787-0.328-1.631-0.023-2.446l2.158-4.34l1.35,0.669L26.103,34.53z M35.279,39.204
		l-2.308,4.132l2.308,4.062l0.011-1.674h1.12c3.641-0.001,4.143-2.539,5.898-6.129c-0.55,0.662-1.304,1.016-2.17,1.108l-4.847,0.011
		L35.279,39.204z M31.644,40.555l-4.928,0.15l-0.785,1.524c-0.458,0.895,0.078,2.968,1.004,3.359h4.675L31.644,40.555z"/>
	<path opacity="0.3" fill="#669CCC" enable-background="new    " d="M35.556,27.582l-5.575,0.011
		c0.608,0.363,1.402,1.18,2.066,2.112c0.742,1.041,1.345,2.243,1.789,3.29l-1.581,0.854l5.032-0.011l2.343-4.155l-1.247,0.785
		l-0.797-1.408C37.056,28.26,36.559,27.671,35.556,27.582z M28.423,27.836c-0.342-0.007-0.707,0.046-1.108,0.197l-2.204,3.313
		l4.293,2.689l2.077-3.993C30.846,29.159,29.901,27.865,28.423,27.836z M35.498,28.286c0.376,0.034,0.587,0.131,0.808,0.311
		c0.222,0.181,0.439,0.472,0.692,0.854l0.773,1.362c0.063,0.111,0.155,0.202,0.266,0.266l-1.166,2.055l-2.343,0.011
		c0.029-0.144,0.013-0.293-0.046-0.427c-0.458-1.079-1.072-2.313-1.858-3.416c-0.262-0.368-0.549-0.687-0.831-1.004L35.498,28.286z
		 M28.412,28.539c0.938,0.019,1.636,0.812,2.227,1.593l-1.5,2.897l-3.035-1.893l1.65-2.482
		C27.985,28.591,28.213,28.536,28.412,28.539z M40.427,33.514l-4.317,2.62l2.135,3.936l1.72,0.023
		c1.005,0.011,2.626-1.386,2.562-2.389L40.427,33.514z M40.139,34.519l1.662,3.301c-0.03,0.156-0.228,0.578-0.623,0.935
		c-0.433,0.392-1.028,0.637-1.2,0.635l-1.304-0.023l-1.616-2.978L40.139,34.519z M26.103,34.53l-4.675,0.254l1.501,0.75
		l-0.497,1.004c-1.623,3.259,0.421,4.85,2.851,8.022c-0.347-0.788-0.328-1.631-0.023-2.447l2.158-4.34l1.35,0.669L26.103,34.53z
		 M25.757,35.257l1.305,1.916c-0.119,0.067-0.214,0.168-0.278,0.289l-2.158,4.339c-0.009,0.023-0.016,0.046-0.023,0.07
		c-0.068,0.182-0.061,0.377-0.104,0.566c-0.643-0.803-1.209-1.529-1.536-2.17c-0.54-1.06-0.634-1.933,0.104-3.416l0.496-1.004
		c0.073-0.147,0.094-0.313,0.058-0.473L25.757,35.257z M35.279,39.204l-2.308,4.132l2.308,4.062l0.011-1.674h1.12
		c3.641-0.001,4.143-2.539,5.898-6.129c-0.55,0.662-1.304,1.016-2.17,1.108l-4.847,0.011L35.279,39.204z M31.644,40.555l-4.928,0.15
		l-0.785,1.524c-0.458,0.895,0.078,2.968,1.004,3.359h4.675L31.644,40.555z M40.761,41.247c-0.43,0.933-0.831,1.765-1.257,2.343
		c-0.706,0.955-1.436,1.431-3.093,1.431h-1.12c-0.17,0-0.333,0.061-0.461,0.173l-1.05-1.858l1.131-2.032
		c0.113,0.075,0.245,0.114,0.381,0.116l4.847-0.011c0.023,0.001,0.046,0.001,0.07,0C40.401,41.388,40.574,41.292,40.761,41.247z
		 M30.939,41.282l-0.035,3.601h-3.739c-0.126-0.097-0.431-0.467-0.578-0.981c-0.159-0.561-0.112-1.198-0.035-1.35l0.6-1.154
		L30.939,41.282z"/>
	<path opacity="0.3" fill="#669CCC" enable-background="new    " d="M35.556,27.582l-5.575,0.011
		c0.608,0.363,1.402,1.18,2.066,2.112c0.742,1.041,1.345,2.243,1.789,3.29l-1.581,0.854l5.032-0.011l2.343-4.155l-1.247,0.785
		l-0.797-1.408C37.056,28.26,36.559,27.671,35.556,27.582z M28.423,27.836c-0.342-0.007-0.707,0.046-1.108,0.197l-2.204,3.313
		l4.293,2.689l2.077-3.993C30.846,29.159,29.901,27.865,28.423,27.836z M35.522,27.94c0.437,0.039,0.726,0.174,0.993,0.392
		c0.261,0.214,0.508,0.521,0.762,0.9l0.011,0.023l0.785,1.385c0.047,0.087,0.128,0.152,0.224,0.178
		c0.096,0.026,0.198,0.012,0.283-0.039l0.035-0.023l-1.535,2.724l-3.382,0.011l0.312-0.173c0.165-0.089,0.235-0.289,0.161-0.461
		c-0.452-1.064-1.059-2.286-1.824-3.359c-0.432-0.606-0.907-1.114-1.373-1.547L35.522,27.94z M28.412,28.193
		c1.193,0.024,2.008,1.04,2.632,1.893l-1.777,3.428l-3.648-2.284l1.916-2.874C27.854,28.248,28.142,28.188,28.412,28.193z
		 M40.427,33.514l-4.317,2.62l2.135,3.936l1.72,0.023c1.005,0.011,2.626-1.386,2.562-2.389L40.427,33.514z M40.277,34.022
		l1.882,3.751c-0.005,0.304-0.292,0.821-0.75,1.235c-0.477,0.431-1.111,0.73-1.443,0.727l-1.5-0.023l-1.87-3.452L40.277,34.022z
		 M26.103,34.53l-4.675,0.254l1.501,0.75l-0.497,1.004c-1.623,3.259,0.421,4.85,2.851,8.021c-0.347-0.787-0.328-1.631-0.023-2.446
		l2.158-4.34l1.35,0.669L26.103,34.53z M25.919,34.899l1.766,2.608l-0.104-0.058c-0.178-0.088-0.395-0.016-0.485,0.161l-2.158,4.34
		c-0.004,0.011-0.008,0.023-0.011,0.035c-0.15,0.403-0.228,0.819-0.242,1.235c-0.838-1.04-1.596-1.972-2.02-2.805
		c-0.575-1.128-0.681-2.162,0.093-3.717l0.496-1.004c0.088-0.178,0.015-0.395-0.161-0.485l-0.289-0.139L25.919,34.899z
		 M35.279,39.204l-2.308,4.132l2.308,4.062l0.011-1.674h1.12c3.641-0.001,4.143-2.539,5.898-6.129
		c-0.55,0.662-1.304,1.016-2.17,1.108l-4.847,0.011L35.279,39.204z M31.644,40.555l-4.928,0.15l-0.785,1.524
		c-0.458,0.895,0.078,2.968,1.004,3.359h4.675L31.644,40.555z M34.933,40.555v0.161c0.003,0.197,0.161,0.354,0.358,0.358
		l4.847-0.011c0.011,0.001,0.023,0.001,0.035,0c0.43-0.046,0.833-0.173,1.212-0.346c-0.561,1.223-1.059,2.315-1.616,3.07
		c-0.751,1.017-1.622,1.58-3.359,1.581h-1.12c-0.197,0.003-0.355,0.161-0.358,0.358v0.323l-1.547-2.724L34.933,40.555z
		 M31.286,40.925l-0.035,4.305H27.05c-0.271-0.133-0.614-0.633-0.785-1.235c-0.175-0.618-0.162-1.31-0.011-1.605l0.692-1.339
		L31.286,40.925z"/>
</g>
</svg>
