<?xml version="1.0" encoding="utf-8"?>
<!-- Generator: Adobe Illustrator 17.0.0, SVG Export Plug-In . SVG Version: 6.00 Build 0)  -->
<!DOCTYPE svg PUBLIC "-//W3C//DTD SVG 1.1//EN" "http://www.w3.org/Graphics/SVG/1.1/DTD/svg11.dtd">
<svg version="1.1" id="图层_1" xmlns="http://www.w3.org/2000/svg" xmlns:xlink="http://www.w3.org/1999/xlink" x="0px" y="0px"
	 width="48px" height="48px" viewBox="8 8 48 48" enable-background="new 8 8 48 48" xml:space="preserve">
<g id="g151" opacity="0.5">
	<path id="path153" opacity="0.08" enable-background="new    " d="M48.41,52.136H15.617c-3.019,0-5.48-2.367-5.48-5.266v4.028
		c0,2.265,1.925,4.102,4.283,4.102h35.185c2.358,0,4.256-1.836,4.256-4.102V46.87C53.861,49.77,51.428,52.136,48.41,52.136z"/>
	<path id="path155" opacity="0.1" enable-background="new    " d="M48.383,52.136H15.59c-3.018,0-5.451-2.323-5.451-5.222v2.107
		c0,2.265,1.039,5.025,5.25,5.025s28.929,0,33.195,0s5.279-2.76,5.279-5.025v-2.107C53.861,49.813,51.4,52.136,48.383,52.136z"/>
	<path id="path157" opacity="0.1" enable-background="new    " d="M48.383,52.136H15.59c-3.018,0-5.451-2.323-5.451-5.222v1.137
		c0,2.266,1.802,5.041,5.25,5.041s29.249,0,33.195,0c3.947,0,5.279-2.775,5.279-5.039v-1.137
		C53.861,49.813,51.4,52.136,48.383,52.136z"/>
	<rect id="rect159" x="15.107" y="52.136" opacity="0.05" enable-background="new    " width="33.786" height="0.955"/>
	<rect id="rect161" x="16.101" y="52.136" opacity="0.05" enable-background="new    " width="30.805" height="0.955"/>
	<rect id="rect163" x="16.101" y="53.091" opacity="0.05" enable-background="new    " width="30.805" height="0.955"/>
	<rect id="rect165" x="18.087" y="53.091" opacity="0.05" enable-background="new    " width="27.824" height="0.955"/>
	<rect id="rect167" x="21.069" y="53.091" opacity="0.05" enable-background="new    " width="21.862" height="0.955"/>
	<rect id="rect169" x="25.044" y="53.091" opacity="0.05" enable-background="new    " width="13.912" height="0.955"/>
	<rect id="rect171" x="18.087" y="52.136" opacity="0.05" enable-background="new    " width="27.824" height="0.955"/>
	<rect id="rect173" x="20.075" y="52.136" opacity="0.05" enable-background="new    " width="23.849" height="0.955"/>
	<rect id="rect175" x="21.069" y="52.136" opacity="0.05" enable-background="new    " width="21.862" height="0.955"/>
	<rect id="rect177" x="23.056" y="52.136" opacity="0.05" enable-background="new    " width="17.887" height="0.955"/>
	<rect id="rect179" x="23.056" y="52.136" opacity="0.05" enable-background="new    " width="17.887" height="0.955"/>
</g>
<path fill="#C4DCED" stroke="#9DBCD7" stroke-miterlimit="10" d="M53.466,46.281c0,3.121-2.531,5.652-5.652,5.652H16.185
	c-3.121,0-5.652-2.531-5.652-5.652V14.652c0-3.121,2.531-5.652,5.652-5.652h31.63c3.121,0,5.652,2.531,5.652,5.652L53.466,46.281
	L53.466,46.281z"/>
<path opacity="0.6" fill="none" stroke="#FFFFFF" stroke-miterlimit="10" d="M16.185,50.934c-2.565,0-4.652-2.087-4.652-4.652
	V14.652c0-2.565,2.087-4.652,4.652-4.652h31.629c2.565,0,4.652,2.087,4.652,4.652v31.629c0,2.565-2.087,4.652-4.652,4.652H16.185z"
	/>
<path opacity="0.08" fill="none" stroke="#000000" stroke-miterlimit="10" enable-background="new    " d="M53.627,21.193
	c0,0,0-1.899-1.876-1.899c-5.445,0-22.83,0.003-24.387,0.003c-1.891,0-1.876-1.872-1.876-1.872s0-1.885-1.876-1.885
	c-3.284,0-9.861,0-11.255,0c-1.847,0-1.876,1.816-1.876,1.873"/>
<path opacity="0.03" fill="none" stroke="#000000" stroke-miterlimit="10" enable-background="new    " d="M53.627,20.112
	c0,0,0-1.899-1.876-1.899c-5.445,0-22.83,0.003-24.387,0.003c-1.891,0-1.876-1.872-1.876-1.872s0-1.885-1.876-1.885
	c-3.284,0-9.861,0-11.255,0c-1.847,0-1.876,1.816-1.876,1.873"/>
<linearGradient id="SVGID_1_" gradientUnits="userSpaceOnUse" x1="1127.9993" y1="1377.9335" x2="1127.9993" y2="1342.5322" gradientTransform="matrix(1 0 0 1 -1096 -1326)">
	<stop  offset="0" style="stop-color:#D1E0ED"/>
	<stop  offset="1" style="stop-color:#E4EEFB"/>
</linearGradient>
<path fill="url(#SVGID_1_)" stroke="#9DBCD7" stroke-miterlimit="10" d="M16.172,51.933H47.92c3.121,0,5.546-2.595,5.546-5.717
	V20.871c0-0.445-0.665-0.864-1.55-0.864c-5.468,0-22.903,0.003-24.466,0.003c-1.899,0-1.87-1.733-1.87-1.733
	s0.013-1.745-1.871-1.745c-3.298,0-9.904,0-11.304,0c-1.855,0-1.872,1.538-1.872,1.596v28.089
	C10.533,49.338,13.051,51.933,16.172,51.933z"/>
<path opacity="0.8" fill="none" stroke="#FFFFFF" stroke-miterlimit="10" d="M16.172,50.934c-2.558,0-4.64-2.116-4.64-4.717V18.128
	c0.023-0.596,0.662-0.596,0.872-0.596h11.304c0.21,0,0.85,0,0.871,0.754c-0.002,0.091,0.003,1.14,0.779,1.928
	c0.357,0.363,1.01,0.796,2.092,0.796l24.466-0.003c0.263,0,0.446,0.055,0.551,0.102v25.107c0,2.601-2.04,4.717-4.547,4.717H16.172z"
	/>
<radialGradient id="SVGID_2_" cx="1506.46" cy="-1013.1687" r="34.4255" gradientTransform="matrix(0.0197 0.9998 -0.9109 0.018 -922.1061 -1463.46)" gradientUnits="userSpaceOnUse">
	<stop  offset="0" style="stop-color:#FFFFFF;stop-opacity:0.6"/>
	<stop  offset="0.3783" style="stop-color:#FAFCFE;stop-opacity:0.4487"/>
	<stop  offset="0.829" style="stop-color:#EBF3FC;stop-opacity:0.2684"/>
	<stop  offset="1" style="stop-color:#E4EEFB;stop-opacity:0.2"/>
</radialGradient>
<path fill="url(#SVGID_2_)" d="M16.172,51.181c-2.695,0-4.887-2.226-4.887-4.964V18.128c0-0.036,0.006-0.336,0.229-0.56
	c0.187-0.187,0.486-0.282,0.889-0.282h11.304c0.446,0,0.673,0.053,0.809,0.19c0.3,0.302,0.313,0.762,0.313,0.767
	c-0.001,0.099,0.004,1.081,0.732,1.82c0.464,0.471,1.1,0.709,1.89,0.709c0,0,20.898-0.008,24.461-0.008
	c0.471,0,0.731,0.162,0.798,0.239v25.214c0,2.738-2.15,4.964-4.793,4.964H16.172L16.172,51.181L16.172,51.181z"/>
<g id="g27_1_">
	
		<linearGradient id="path36_2_" gradientUnits="userSpaceOnUse" x1="1520.0824" y1="2152.541" x2="1526.0471" y2="2162.8721" gradientTransform="matrix(1 0 0 1 -1508 -2144)">
		<stop  offset="0" style="stop-color:#FFFFFF"/>
		<stop  offset="0.5" style="stop-color:#FFFFFF;stop-opacity:0.6"/>
		<stop  offset="1" style="stop-color:#FFFFFF;stop-opacity:0.15"/>
	</linearGradient>
	<path id="path36_1_" fill="url(#path36_2_)" d="M17,20.627c0.667-1.381,1.481-2.674,2.414-3.869l-1.699-3.725
		c-1.451,1.372-2.629,2.883-3.569,4.351L17,20.627z"/>
	
		<linearGradient id="path45_2_" gradientUnits="userSpaceOnUse" x1="1525.4906" y1="2150.9939" x2="1529.3943" y2="2157.7554" gradientTransform="matrix(1 0 0 1 -1508 -2144)">
		<stop  offset="0" style="stop-color:#FFFFFF"/>
		<stop  offset="0.5" style="stop-color:#FFFFFF;stop-opacity:0.6"/>
		<stop  offset="1" style="stop-color:#FFFFFF;stop-opacity:0.15"/>
	</linearGradient>
	<path id="path45_1_" fill="url(#path45_2_)" d="M17.178,9.452l0.888,1.946c0.854-0.709,1.791-0.954,2.812-1.946H17.178z"/>
	
		<linearGradient id="path54_2_" gradientUnits="userSpaceOnUse" x1="1526.7184" y1="2149.7102" x2="1531.4878" y2="2157.9709" gradientTransform="matrix(1 0 0 1 -1508 -2144)">
		<stop  offset="0" style="stop-color:#FFFFFF"/>
		<stop  offset="0.5" style="stop-color:#FFFFFF;stop-opacity:0.6"/>
		<stop  offset="1" style="stop-color:#FFFFFF;stop-opacity:0.15"/>
	</linearGradient>
	<path id="path54_1_" fill="url(#path54_2_)" d="M23.841,9.452h-0.703c-1.772,0.992-3.321,1.75-4.65,2.881l1.628,3.573
		c1.391-1.607,3.005-3.015,4.813-4.152c0.014-0.013,0.024-0.024,0.039-0.036C26.994,9.968,24.983,9.452,23.841,9.452z"/>
	
		<linearGradient id="path63_2_" gradientUnits="userSpaceOnUse" x1="1516.7354" y1="2157.2505" x2="1521.9113" y2="2166.2153" gradientTransform="matrix(1 0 0 1 -1508 -2144)">
		<stop  offset="0" style="stop-color:#FFFFFF"/>
		<stop  offset="0.5" style="stop-color:#FFFFFF;stop-opacity:0.6"/>
		<stop  offset="1" style="stop-color:#FFFFFF;stop-opacity:0.15"/>
	</linearGradient>
	<path id="path63_1_" fill="url(#path63_2_)" d="M13.606,18.269c-1.089,1.855-1.802,3.569-2.224,4.741
		c0.5,0.714,1.327,1.182,2.265,1.182c1.161,0,2.153-0.717,2.563-1.731c0.105-0.283,0.233-0.555,0.351-0.834L13.606,18.269z"/>
	
		<linearGradient id="path72_2_" gradientUnits="userSpaceOnUse" x1="1516.5024" y1="2157.6179" x2="1522.2385" y2="2167.5532" gradientTransform="matrix(1 0 0 1 -1508 -2144)">
		<stop  offset="0" style="stop-color:#FFFFFF"/>
		<stop  offset="0.5" style="stop-color:#FFFFFF;stop-opacity:0.6"/>
		<stop  offset="1" style="stop-color:#FFFFFF;stop-opacity:0.15"/>
	</linearGradient>
	<path id="path72_1_" fill="url(#path72_2_)" d="M10.901,15.192l-0.021,6.229c0,0,0,0.002,0,0.004c0,0.039,0.01,0.076,0.012,0.114
		c0.474-1.152,1.135-2.56,2.031-4.048L10.901,15.192z"/>
	
		<linearGradient id="path149_2_" gradientUnits="userSpaceOnUse" x1="1520.8402" y1="2154.5063" x2="1526.2263" y2="2163.8357" gradientTransform="matrix(1 0 0 1 -1508 -2144)">
		<stop  offset="0" style="stop-color:#FFFFFF"/>
		<stop  offset="0.5" style="stop-color:#FFFFFF;stop-opacity:0.6"/>
		<stop  offset="1" style="stop-color:#FFFFFF;stop-opacity:0.15"/>
	</linearGradient>
	<path id="path149_1_" fill="url(#path149_2_)" d="M15.994,9.464c-2.024-0.168-4.689,2.111-5.03,4.297l2.511,2.855
		c1.002-1.53,2.248-3.096,3.786-4.512L15.994,9.464z"/>
</g>
<g id="Symbol">
	<path opacity="0.05" fill="#FFFFFF" enable-background="new    " d="M35.762,23.677c-2.04,0.021-4.105-0.034-6.165,0.027
		c-0.103,0.001-0.2,0.04-0.275,0.11c-0.2,0.205-0.353,0.206-0.674,0.179c-0.3-0.026-0.72-0.084-1.184,0.014v-0.014
		c-0.015,0.001-0.026,0.012-0.041,0.014c-0.016,0.004-0.025-0.004-0.041,0v0.014c-0.697,0.063-1.353,0.423-1.679,1.088l-0.014-0.014
		c-0.011,0.017-0.017,0.038-0.028,0.055c-0.709,1.096-1.487,2.181-2.174,3.33c-0.017,0.026-0.031,0.054-0.041,0.083
		c-0.161,0.472,0.026,0.928,0.289,1.211c0.258,0.278,0.576,0.455,0.825,0.592c0.005,0.003,0.009,0.01,0.014,0.014
		c0.388,0.237,0.795,0.469,1.183,0.715c-0.14-0.012-0.287-0.023-0.413-0.014c-0.361,0.026-0.679,0.086-0.908,0.069
		c-0.018-0.001-0.037-0.001-0.055,0c-1.292,0.087-2.623,0.101-3.95,0.234c-0.018,0.003-0.037,0.008-0.055,0.014
		c-1.107,0.293-1.138,1.905-0.137,2.34l-0.014,0.014c0.062,0.048,0.08,0.037,0.137,0.068c0.123,0.068,0.211,0.126,0.289,0.152
		c-1.019,1.909-0.909,4.311,0.344,6.097c0.002,0.003-0.001,0.011,0,0.014c0.916,1.395,2.004,2.649,3.029,3.895
		c0.076,0.087,0.187,0.137,0.303,0.137c0.347,0.018,0.502,0.131,0.743,0.344c0.241,0.213,0.524,0.535,0.977,0.798
		c0.038,0.025,0.08,0.043,0.123,0.055c0.944,0.181,1.873,0.029,2.683,0.068c0.01,0.001,0.018,0.001,0.028,0
		c0.958-0.023,1.961,0.062,2.986-0.027c0.023-0.002,0.046-0.007,0.068-0.014c0.272-0.073,0.501-0.231,0.647-0.427
		c0.146-0.196,0.213-0.411,0.248-0.62c0.023-0.137,0.01-0.228,0.014-0.358c0.561,0.989,1.091,1.997,1.72,2.973
		c0.012,0.019,0.026,0.038,0.041,0.055c0.776,0.845,2.25,0.103,2.133-1.005h0.014c0.001-0.034-0.001-0.036,0-0.068
		c0.001-0.178,0.011-0.296,0.014-0.372c0.011,0.003,0.001-0.004,0.014,0c0.04,0.011,0.082,0.015,0.124,0.014
		c2.12,0.029,4.144-1.149,5.16-3.015c0.003-0.005,0.011-0.009,0.014-0.014c0.839-1.448,1.487-2.983,2.147-4.473
		c0.04-0.097,0.04-0.206,0-0.303c-0.117-0.309-0.109-0.502-0.054-0.756c0.054-0.254,0.183-0.572,0.303-0.991
		c0.01-0.036,0.014-0.073,0.014-0.11c-0.01-0.89-0.596-1.503-0.798-2.023c-0.004-0.01-0.009-0.018-0.014-0.028
		c-0.569-1.099-1.092-2.24-1.706-3.344c-0.015-0.025-0.035-0.048-0.055-0.069c-0.287-0.325-0.715-0.443-1.074-0.399
		c-0.336,0.041-0.623,0.195-0.867,0.386l-0.014,0.014c-0.011,0.009-0.03,0.004-0.041,0.014l-0.261,0.166
		c0.56-0.988,1.121-1.973,1.666-2.973c0.006-0.018,0.011-0.037,0.014-0.055c0.424-1.112-1.003-2.169-1.927-1.417
		c-0.015,0.009-0.028,0.018-0.041,0.027c-0.109,0.108-0.097,0.103-0.096,0.11c-0.015-0.03-0.036-0.045-0.054-0.11
		c-0.01-0.034-0.024-0.066-0.041-0.096C38.48,24.888,37.379,23.688,35.762,23.677z M31.894,29.416
		c0.126,0.183,0.261,0.408,0.33,0.551c0.078,0.157,0.065,0.245,0.069,0.234c0.004-0.011,0.017,0.039-0.22,0.096
		c-0.01,0-0.018,0-0.028,0c-0.37,0.123-0.687,0.372-0.881,0.715c-0.192,0.343-0.234,0.822,0,1.225
		c0.287,0.484,0.805,0.631,1.225,0.646c0.42,0.016,0.817-0.041,1.06-0.014c0.014,0.001,0.027,0.001,0.041,0l2.45-0.014
		c-0.203,0.136-0.412,0.258-0.592,0.455c-0.015,0.022-0.03,0.044-0.041,0.068c-0.283,0.488-0.172,1.023,0.014,1.404
		s0.429,0.702,0.523,0.936c0.004,0.014,0.009,0.028,0.014,0.041l0.275,0.509c-0.076-0.049-0.129-0.12-0.22-0.152
		c-0.003-0.001,0.002-0.012,0-0.014c-0.004-0.001-0.01,0.001-0.014,0c-0.413-0.145-0.837-0.026-1.128,0.192
		c-0.281,0.21-0.458,0.501-0.578,0.798l-0.014-0.014l-1.335,2.408c0.002-0.38,0.037-0.733-0.028-1.128
		c-0.006-0.029-0.015-0.057-0.027-0.083c-0.111-0.265-0.307-0.484-0.524-0.605c-0.216-0.121-0.434-0.151-0.646-0.165
		c-0.426-0.028-0.837,0.04-1.088,0.028c-0.01-0.001-0.018-0.001-0.028,0l-1.417,0.041c0.109-0.052,0.222-0.084,0.317-0.179
		l0.014,0.014c0.008-0.008,0.006-0.021,0.014-0.028c0.344-0.329,0.422-0.811,0.33-1.183c-0.091-0.37-0.302-0.665-0.51-0.908h0.014
		c-0.007-0.011-0.021-0.017-0.028-0.028c-0.806-1.154-1.583-2.351-2.422-3.509c0.668,0.422,1.322,0.848,2.009,1.238
		c0.026,0.017,0.054,0.031,0.082,0.041c0.505,0.142,0.981-0.087,1.252-0.386c0.267-0.294,0.416-0.641,0.537-0.908l0.014-0.014
		L31.894,29.416z M36.739,37.37l0.166,0.303h-0.152C36.754,37.574,36.747,37.479,36.739,37.37z M27.684,37.466
		c0.102,0.053,0.198,0.091,0.317,0.137l-0.386,0.014L27.684,37.466z"/>
	<path opacity="0.1" fill="#FFFFFF" enable-background="new    " d="M35.767,24.071c-2.05,0.021-4.105-0.024-6.151,0.037
		c-0.599,0.61-1.348,0.078-2.13,0.286c-0.629,0.034-1.189,0.35-1.449,0.928c-0.726,1.126-1.516,2.216-2.202,3.363
		c-0.229,0.674,0.438,1.066,0.933,1.338c1.42,0.865,2.805,1.804,4.245,2.623c0.726,0.205,1.079-0.546,1.322-1.081
		c0.511-0.985,1.022-1.969,1.533-2.954c0.278,0.698,1.533,1.776,0.306,2.076c-0.543,0.18-0.986,0.787-0.662,1.343
		c0.413,0.696,1.315,0.366,1.974,0.44c1.286-0.003,2.572-0.006,3.857-0.01c-0.551,0.391-1.229,0.632-1.685,1.132
		c-0.41,0.706,0.315,1.348,0.567,1.973c0.451,0.831,0.902,1.661,1.353,2.492c-0.402,0.004-0.803,0.009-1.206,0.012
		c-0.004-0.564,0.093-1.356-0.59-1.574c-0.577-0.211-1.052,0.279-1.24,0.779c-0.69,1.237-1.379,2.473-2.069,3.711
		c-0.033-0.851,0.088-1.722-0.049-2.559c-0.325-0.773-1.255-0.468-1.902-0.498c-1.186,0.035-2.373,0.07-3.56,0.104
		c0.181-0.365,0.361-0.731,0.541-1.095c0.496,0.257,1.157,0.689,1.649,0.172c0.513-0.463,0.152-1.165-0.215-1.59
		c-0.891-1.273-1.731-2.593-2.651-3.836c-0.538-0.413-1.259-0.096-1.879-0.14c-1.308,0.088-2.625,0.108-3.927,0.239
		c-0.78,0.206-0.784,1.428-0.004,1.646c0.256,0.2,0.967,0.243,0.57,0.666c-0.984,1.786-0.899,4.074,0.281,5.749
		c0.897,1.367,1.984,2.617,3.016,3.871c0.9,0.046,1.138,0.742,1.919,1.193c0.85,0.163,1.743,0.031,2.609,0.074
		c0.986-0.023,1.984,0.048,2.963-0.037c0.789-0.213,0.597-1.138,0.622-1.757c-0.018-0.505-0.024-0.957,0.269-0.265
		c0.739,1.249,1.4,2.553,2.184,3.769c0.531,0.578,1.584,0.037,1.453-0.731c0.004-0.458-0.134-1.054,0.543-0.834
		c1.972,0.026,3.877-1.075,4.817-2.812c0.827-1.424,1.467-2.956,2.131-4.455c-0.286-0.754,0.01-1.196,0.235-1.984
		c-0.008-0.689-0.527-1.245-0.77-1.872c-0.575-1.108-1.099-2.254-1.704-3.34c-0.397-0.449-1.026-0.261-1.425,0.07
		c-0.542,0.325-1.084,0.651-1.626,0.975c0.8-1.433,1.629-2.854,2.411-4.293c0.283-0.742-0.702-1.459-1.316-0.96
		c-0.381,0.378-0.668,0.365-0.828-0.175C38.164,25.155,37.183,24.08,35.767,24.071z"/>
	<path opacity="0.2" fill="#FFFFFF" enable-background="new    " d="M35.792,24.539l-5.942,0.012
		c-0.145-0.001-0.28,0.081-0.347,0.21c-0.068,0.129-0.057,0.286,0.027,0.405c-0.397-0.197-0.828-0.347-1.328-0.357
		c-0.41-0.008-0.856,0.058-1.328,0.234c-0.076,0.029-0.14,0.081-0.184,0.148l-2.349,3.531c-0.062,0.087-0.084,0.196-0.063,0.3
		c0.021,0.105,0.084,0.196,0.173,0.253l4.576,2.866c0.092,0.057,0.204,0.075,0.309,0.047c0.105-0.028,0.194-0.099,0.245-0.195
		l2.214-4.256c0.026-0.046,0.043-0.095,0.049-0.148c0.645,0.936,1.186,1.977,1.611,2.94l-1.365,0.738
		c-0.162,0.083-0.246,0.266-0.201,0.443c0.044,0.176,0.205,0.299,0.386,0.295l5.363-0.012c0.142,0.002,0.274-0.073,0.344-0.197
		l2.497-4.428c0.1-0.157,0.075-0.363-0.06-0.491c-0.134-0.129-0.341-0.145-0.493-0.038l-0.972,0.615l-0.652-1.144
		c-0.008-0.009-0.015-0.017-0.025-0.025c-0.29-0.436-0.582-0.839-0.972-1.156c-0.389-0.318-0.872-0.537-1.476-0.59
		C35.816,24.538,35.804,24.538,35.792,24.539z M40.946,30.862c-0.057,0.009-0.112,0.029-0.16,0.062l-4.601,2.793
		c-0.178,0.106-0.244,0.333-0.148,0.516l2.276,4.195c0.019,0.037,0.044,0.07,0.074,0.099l-2.485,0.012L35.89,37.32
		c0.004-0.181-0.119-0.341-0.296-0.386c-0.176-0.044-0.36,0.04-0.443,0.201l-2.46,4.404c-0.066,0.118-0.066,0.263,0,0.381l2.46,4.33
		c0.083,0.165,0.27,0.248,0.449,0.2s0.299-0.214,0.289-0.397l0.012-1.39h0.8c2.031-0.001,3.302-0.767,4.207-1.993
		c0.905-1.225,1.51-2.867,2.436-4.761c0.079-0.153,0.047-0.341-0.079-0.46c-0.124-0.119-0.313-0.142-0.463-0.057
		c0.471-0.496,0.852-1.066,0.811-1.698c-0.006-0.052-0.023-0.102-0.049-0.148l-2.238-4.466
		C41.258,30.937,41.106,30.85,40.946,30.862z M25.692,31.944l-4.982,0.27c-0.175,0.012-0.32,0.14-0.355,0.313
		c-0.035,0.172,0.05,0.346,0.207,0.424l1.255,0.628l-0.357,0.726c-0.905,1.818-0.79,3.303-0.098,4.662
		c0.692,1.359,1.892,2.619,3.174,4.293c0.122,0.15,0.336,0.188,0.502,0.09c0.166-0.099,0.235-0.304,0.162-0.483
		c-0.023-0.052-0.017-0.107-0.037-0.16c0.227,0.765,0.615,1.486,1.292,1.772c0.046,0.022,0.096,0.035,0.148,0.037h4.982
		c0.105,0.001,0.206-0.04,0.28-0.114c0.074-0.074,0.115-0.175,0.115-0.279l0.037-5.363c0.001-0.107-0.042-0.209-0.118-0.284
		s-0.181-0.114-0.288-0.109l-5.252,0.159c-0.07,0.002-0.137,0.023-0.197,0.062l1.132-2.276l1.095,0.541
		c0.158,0.073,0.344,0.033,0.458-0.098c0.115-0.131,0.128-0.321,0.034-0.468l-2.841-4.17C25.96,32.002,25.829,31.937,25.692,31.944z
		 M24.979,41.613c0.014,0.272,0.057,0.549,0.123,0.825C25.03,42.164,24.967,41.894,24.979,41.613z"/>
	<path opacity="0.3" fill="#669CCC" enable-background="new    " d="M35.792,24.932l-5.942,0.012
		c0.648,0.387,1.494,1.258,2.202,2.251c0.791,1.11,1.433,2.39,1.907,3.506l-1.685,0.91l5.363-0.012l2.497-4.428l-1.328,0.837
		l-0.849-1.501C37.39,25.655,36.861,25.028,35.792,24.932z M28.19,25.203c-0.364-0.007-0.753,0.05-1.181,0.209l-2.349,3.531
		l4.576,2.866l2.214-4.256C30.772,26.613,29.765,25.234,28.19,25.203z M40.982,31.255l-4.601,2.793l2.276,4.195l1.833,0.025
		c1.071,0.012,2.799-1.478,2.731-2.546L40.982,31.255z M25.717,32.338l-4.982,0.271l1.599,0.8l-0.529,1.07
		c-1.729,3.474,0.448,5.169,3.039,8.549c-0.37-0.839-0.349-1.738-0.025-2.608l2.301-4.625l1.439,0.713L25.717,32.338z M35.496,37.32
		l-2.46,4.404l2.46,4.33l0.012-1.784h1.193c3.881-0.001,4.415-2.707,6.286-6.532c-0.586,0.706-1.39,1.083-2.313,1.181l-5.166,0.012
		L35.496,37.32z M31.621,38.759l-5.252,0.16l-0.837,1.624c-0.488,0.954,0.084,3.164,1.07,3.58h4.982L31.621,38.759z"/>
	<path opacity="0.3" fill="#669CCC" enable-background="new    " d="M35.792,24.932l-5.942,0.012
		c0.648,0.387,1.494,1.258,2.202,2.251c0.791,1.11,1.433,2.39,1.907,3.506l-1.685,0.91l5.363-0.012l2.497-4.428l-1.328,0.836
		l-0.849-1.501C37.39,25.655,36.861,25.028,35.792,24.932z M28.19,25.203c-0.364-0.007-0.753,0.05-1.181,0.209l-2.349,3.531
		l4.576,2.866l2.214-4.256C30.772,26.613,29.765,25.234,28.19,25.203z M35.73,25.683c0.401,0.036,0.625,0.14,0.861,0.332
		c0.236,0.193,0.468,0.503,0.738,0.91l0.825,1.452c0.067,0.118,0.165,0.216,0.283,0.283l-1.243,2.19l-2.497,0.012
		c0.031-0.153,0.014-0.312-0.049-0.455c-0.488-1.151-1.143-2.466-1.981-3.641c-0.28-0.392-0.586-0.732-0.886-1.07L35.73,25.683z
		 M28.177,25.953c0.999,0.02,1.744,0.864,2.374,1.698l-1.599,3.087l-3.236-2.017l1.76-2.644
		C27.722,26.007,27.966,25.949,28.177,25.953z M40.982,31.255l-4.601,2.793l2.276,4.195l1.833,0.025
		c1.071,0.012,2.799-1.478,2.731-2.546L40.982,31.255z M40.675,32.326l1.771,3.518c-0.032,0.166-0.242,0.615-0.665,0.997
		c-0.46,0.417-1.096,0.679-1.279,0.676l-1.39-0.024l-1.722-3.174L40.675,32.326z M25.717,32.338l-4.982,0.271l1.599,0.8l-0.529,1.07
		c-1.729,3.474,0.448,5.169,3.039,8.549c-0.37-0.839-0.349-1.738-0.025-2.608l2.301-4.625l1.439,0.713L25.717,32.338z
		 M25.348,33.112l1.39,2.042c-0.126,0.071-0.228,0.179-0.296,0.308l-2.3,4.625c-0.01,0.024-0.018,0.049-0.025,0.074
		c-0.073,0.195-0.065,0.402-0.11,0.603c-0.686-0.856-1.288-1.63-1.637-2.313c-0.575-1.129-0.676-2.06,0.111-3.641l0.529-1.07
		c0.079-0.156,0.101-0.334,0.062-0.504L25.348,33.112z M35.496,37.32l-2.46,4.404l2.46,4.33l0.012-1.784h1.193
		c3.881-0.001,4.415-2.707,6.286-6.532c-0.586,0.706-1.39,1.083-2.313,1.181l-5.166,0.012L35.496,37.32z M31.621,38.759l-5.252,0.16
		l-0.837,1.624c-0.488,0.954,0.084,3.164,1.07,3.58h4.982L31.621,38.759z M41.34,39.497c-0.459,0.994-0.886,1.881-1.34,2.497
		c-0.752,1.019-1.531,1.525-3.297,1.525H35.51c-0.181,0-0.355,0.065-0.492,0.184l-1.119-1.981l1.205-2.166
		c0.12,0.079,0.261,0.122,0.406,0.123l5.166-0.012c0.025,0.001,0.049,0.001,0.074,0C40.955,39.647,41.139,39.545,41.34,39.497z
		 M30.871,39.534l-0.037,3.839h-3.985c-0.134-0.103-0.46-0.498-0.615-1.046c-0.17-0.599-0.119-1.278-0.037-1.439l0.64-1.23
		L30.871,39.534z"/>
	<path opacity="0.3" fill="#669CCC" enable-background="new    " d="M35.792,24.932l-5.942,0.012
		c0.648,0.387,1.494,1.258,2.202,2.251c0.791,1.11,1.433,2.39,1.907,3.506l-1.685,0.91l5.363-0.012l2.497-4.428l-1.328,0.837
		l-0.849-1.501C37.39,25.655,36.861,25.028,35.792,24.932z M28.19,25.203c-0.364-0.007-0.753,0.05-1.181,0.209l-2.349,3.531
		l4.576,2.866l2.214-4.256C30.772,26.613,29.765,25.234,28.19,25.203z M35.755,25.313c0.466,0.041,0.773,0.185,1.058,0.418
		c0.278,0.228,0.541,0.555,0.812,0.96l0.012,0.025l0.836,1.476c0.05,0.093,0.137,0.162,0.239,0.189
		c0.102,0.028,0.211,0.012,0.302-0.042l0.037-0.025l-1.636,2.904l-3.605,0.012l0.333-0.184c0.176-0.095,0.25-0.308,0.172-0.492
		c-0.481-1.133-1.129-2.437-1.944-3.579c-0.46-0.646-0.967-1.187-1.464-1.649L35.755,25.313z M28.177,25.584
		c1.271,0.026,2.14,1.109,2.805,2.017l-1.895,3.653l-3.887-2.435l2.042-3.063C27.582,25.642,27.889,25.578,28.177,25.584z
		 M40.982,31.255l-4.601,2.793l2.276,4.195l1.833,0.025c1.071,0.012,2.799-1.478,2.731-2.546L40.982,31.255z M40.823,31.796
		l2.006,3.998c-0.006,0.323-0.311,0.875-0.799,1.316c-0.508,0.459-1.184,0.778-1.538,0.775l-1.599-0.024l-1.993-3.678L40.823,31.796
		z M25.717,32.338l-4.982,0.271l1.599,0.8l-0.529,1.07c-1.729,3.474,0.448,5.169,3.039,8.549c-0.37-0.839-0.349-1.738-0.025-2.608
		l2.301-4.625l1.439,0.713L25.717,32.338z M25.52,32.731l1.882,2.78l-0.11-0.062c-0.19-0.094-0.421-0.017-0.516,0.172l-2.301,4.625
		c-0.004,0.012-0.009,0.024-0.012,0.037c-0.16,0.43-0.243,0.872-0.258,1.316c-0.894-1.109-1.701-2.102-2.152-2.99
		c-0.612-1.203-0.726-2.304,0.099-3.961l0.529-1.07c0.094-0.19,0.017-0.421-0.172-0.516L22.2,32.915L25.52,32.731z M35.496,37.32
		l-2.46,4.404l2.46,4.33l0.012-1.784h1.193c3.881-0.001,4.415-2.707,6.286-6.532c-0.586,0.706-1.39,1.083-2.313,1.181l-5.166,0.012
		L35.496,37.32z M31.621,38.759l-5.252,0.16l-0.837,1.624c-0.488,0.954,0.084,3.164,1.07,3.58h4.982L31.621,38.759z M35.128,38.759
		v0.172c0.003,0.209,0.172,0.378,0.381,0.381l5.166-0.012c0.012,0.001,0.025,0.001,0.037,0c0.458-0.048,0.888-0.184,1.292-0.369
		c-0.597,1.303-1.129,2.468-1.722,3.272c-0.8,1.085-1.729,1.685-3.579,1.685h-1.193c-0.209,0.003-0.378,0.172-0.381,0.381v0.344
		l-1.649-2.903L35.128,38.759z M31.24,39.153l-0.037,4.588h-4.477c-0.289-0.142-0.654-0.674-0.837-1.316
		c-0.187-0.659-0.173-1.396-0.012-1.71l0.738-1.427L31.24,39.153z"/>
</g>
</svg>
