<?xml version="1.0" encoding="UTF-8" standalone="no"?>
<!-- Generator: Adobe Illustrator 17.0.0, SVG Export Plug-In . SVG Version: 6.00 Build 0)  -->

<svg
   xmlns:dc="http://purl.org/dc/elements/1.1/"
   xmlns:cc="http://creativecommons.org/ns#"
   xmlns:rdf="http://www.w3.org/1999/02/22-rdf-syntax-ns#"
   xmlns:svg="http://www.w3.org/2000/svg"
   xmlns="http://www.w3.org/2000/svg"
   xmlns:xlink="http://www.w3.org/1999/xlink"
   xmlns:sodipodi="http://sodipodi.sourceforge.net/DTD/sodipodi-0.dtd"
   xmlns:inkscape="http://www.inkscape.org/namespaces/inkscape"
   version="1.1"
   id="图层_1"
   inkscape:version="0.48.4 r9939"
   sodipodi:docname="folder-videos.svg"
   x="0px"
   y="0px"
   width="48px"
   height="48px"
   viewBox="0 0 48 48"
   enable-background="new 0 0 48 48"
   xml:space="preserve"><metadata
     id="metadata153"><rdf:RDF><cc:Work
         rdf:about=""><dc:format>image/svg+xml</dc:format><dc:type
           rdf:resource="http://purl.org/dc/dcmitype/StillImage" /><dc:title></dc:title></cc:Work></rdf:RDF></metadata><defs
     id="defs151"><linearGradient
       id="path3347_1_"
       gradientUnits="userSpaceOnUse"
       x1="879.66052"
       y1="-1124.1611"
       x2="879.66052"
       y2="-1107.6879"
       gradientTransform="matrix(1,0,0,-1,-855.6602,-1091.96)"><stop
         offset="0"
         style="stop-color:#a2c8f1;stop-opacity:0.78430003;"
         id="stop155" /><stop
         offset="1"
         style="stop-color:#6eaee6;stop-opacity:0.39219999;"
         id="stop157" /></linearGradient><linearGradient
       id="rect2941_2_"
       gradientUnits="userSpaceOnUse"
       x1="590.66058"
       y1="792.53833"
       x2="590.66058"
       y2="778.87122"
       gradientTransform="translate(-566.6602,-761.96)"><stop
         offset="0"
         style="stop-color:#a5c8ee;stop-opacity:0.78430003;"
         id="stop155-3" /><stop
         offset="1"
         style="stop-color:#6eaee6;stop-opacity:0.39219999;"
         id="stop157-8" /></linearGradient></defs><sodipodi:namedview
     inkscape:current-layer="图层_1"
     inkscape:window-maximized="0"
     inkscape:window-y="149"
     inkscape:window-x="1173"
     inkscape:window-height="480"
     inkscape:window-width="702"
     inkscape:pageshadow="2"
     inkscape:pageopacity="0"
     inkscape:cy="26.77801"
     inkscape:cx="25.585848"
     inkscape:zoom="5.6568542"
     showgrid="false"
     guidetolerance="10"
     gridtolerance="10"
     objecttolerance="10"
     borderopacity="1"
     pagecolor="#ffffff"
     bordercolor="#666666"
     id="namedview252"
     showguides="true"
     inkscape:guide-bbox="true"><sodipodi:guide
       orientation="-0.70710678,0.70710678"
       position="-135.41095,99.52528"
       id="guide3130" /></sodipodi:namedview><radialGradient
     id="ellipse10_1_"
     cx="315"
     cy="-2047.0854"
     r="23.9962"
     gradientTransform="matrix(1 0 0 -0.1841 -291 -333.2854)"
     gradientUnits="userSpaceOnUse"><stop
       offset="0"
       style="stop-color:#000000;stop-opacity:0.6"
       id="stop5" /><stop
       offset="0.8996"
       style="stop-color:#000000;stop-opacity:0.0603"
       id="stop7" /><stop
       offset="1"
       style="stop-color:#000000;stop-opacity:0"
       id="stop9" /></radialGradient><ellipse
     id="ellipse10"
     display="none"
     fill="url(#ellipse10_1_)"
     cx="24"
     cy="43.583"
     rx="24"
     ry="4.417" /><linearGradient
     id="path12_1_"
     gradientUnits="userSpaceOnUse"
     x1="24"
     y1="45"
     x2="24"
     y2="1"><stop
       offset="0"
       style="stop-color:#c2d3e1;stop-opacity:1;"
       id="stop13" /><stop
       offset="0.4314"
       style="stop-color:#AFD3E2"
       id="stop15" /><stop
       offset="1"
       style="stop-color:#cadff0;stop-opacity:1;"
       id="stop17" /></linearGradient><path
     id="path12"
     fill="url(#path12_1_)"
     d="M46,39.5c0,3.037-2.463,5.5-5.5,5.5h-33C4.462,45,2,42.537,2,39.5v-33  C2,3.462,4.462,1,7.5,1h33C43.537,1,46,3.462,46,6.5V39.5z" /><path
     id="path188"
     fill="#FFFFFF"
     enable-background="new    "
     d="M40.5,2H7.499C5.017,2,3,4.018,3,6.5v33  C3,41.98,5.017,44,7.499,44H40.5c2.48,0,4.5-2.02,4.5-4.5v-33C45,4.018,42.98,2,40.5,2z M44,39.5c0,1.933-1.567,3.5-3.5,3.5h-33  C5.567,43,4,41.433,4,39.5v-33C4,4.567,5.567,3,7.5,3h33C42.433,3,44,4.567,44,6.5V39.5z" /><linearGradient
     id="path98_1_"
     gradientUnits="userSpaceOnUse"
     x1="314.9998"
     y1="-333.0005"
     x2="314.9998"
     y2="-377"
     gradientTransform="matrix(1 0 0 -1 -291 -332)"><stop
       offset="0"
       style="stop-color:#000000;stop-opacity:0.1"
       id="stop22" /><stop
       offset="1"
       style="stop-color:#000000;stop-opacity:0.8"
       id="stop24" /></linearGradient><path
     id="path98"
     opacity="0.5"
     fill="url(#path98_1_)"
     fill-opacity="0.8"
     enable-background="new    "
     d="M40.5,1h-33  C4.462,1,2,3.463,2,6.5v33C2,42.537,4.462,45,7.5,45h33c3.037,0,5.5-2.463,5.5-5.5v-33C46,3.463,43.537,1,40.5,1z M44.94,39.484  c0,2.48-2.019,4.5-4.497,4.5H7.462c-2.481,0-4.497-2.02-4.497-4.5v-33c0-2.482,2.016-4.5,4.497-4.5h32.981  c2.479,0,4.497,2.018,4.497,4.5V39.484z" /><g
     id="g125"
     display="none"
     opacity="0.3"><defs
       id="defs28"><filter
         id="Adobe_OpacityMaskFilter"
         filterUnits="userSpaceOnUse"
         x="4.769"
         y="13.895"
         width="37.382"
         height="27.883"><feColorMatrix
           type="matrix"
           values="1 0 0 0 0  0 1 0 0 0  0 0 1 0 0  0 0 0 1 0"
           id="feColorMatrix31" /></filter></defs><mask
       maskUnits="userSpaceOnUse"
       x="4.769"
       y="13.895"
       width="37.382"
       height="27.883"
       id="SVGID_11_"
       display="inline"><g
         id="g135"
         filter="url(#Adobe_OpacityMaskFilter)"><image
           sodipodi:absref="/usr/share/icons/Deepin/places/48/DEB81AAE695B461C.jpeg"
           xlink:href="DEB81AAE695B461C.jpeg"
           transform="matrix(0.232 0 0 0.2313 2.7686 11.8945)"
           id="image137"
           height="138"
           width="179"
           enable-background="new    "
           overflow="visible" /></g></mask><g
       id="g139"
       display="inline"
       mask="url(#SVGID_11_)"><path
         id="path141"
         fill="#FFF2B3"
         d="M7.228,41.777c-1.356,0-2.459-1.135-2.459-2.528v-25.29l10.667-0.064    c0.102,0.77,0.198,1.883,0.875,2.788c0.542,0.724,1.464,1.31,3.214,1.31l22.626-0.003v21.26c0,1.394-1.104,2.528-2.459,2.528    H7.228z" /></g></g><g
     id="g151"
     opacity="0.5"><path
       id="path153"
       opacity="0.08"
       enable-background="new    "
       d="M40.514,45h-33C4.476,45,2,42.521,2,39.484v4.219   C2,46.076,3.937,48,6.31,48h35.407C44.09,48,46,46.076,46,43.703v-4.219C46,42.521,43.551,45,40.514,45z" /><path
       id="path155"
       opacity="0.1"
       enable-background="new    "
       d="M40.486,45h-33C4.449,45,2,42.566,2,39.529v2.207   C2,44.109,3.046,47,7.283,47s29.112,0,33.405,0S46,44.109,46,41.736v-2.207C46,42.566,43.523,45,40.486,45z" /><path
       id="path157"
       opacity="0.1"
       enable-background="new    "
       d="M40.486,45h-33C4.449,45,2,42.566,2,39.529v1.191   C2,43.094,3.814,46,7.283,46s29.434,0,33.405,0C44.66,46,46,43.094,46,40.721v-1.191C46,42.566,43.523,45,40.486,45z" /><rect
       id="rect159"
       x="7"
       y="45"
       opacity="0.05"
       enable-background="new    "
       width="34"
       height="1" /><rect
       id="rect161"
       x="8"
       y="45"
       opacity="0.05"
       enable-background="new    "
       width="31"
       height="1" /><rect
       id="rect163"
       x="8"
       y="46"
       opacity="0.05"
       enable-background="new    "
       width="31"
       height="1" /><rect
       id="rect165"
       x="10"
       y="46"
       opacity="0.05"
       enable-background="new    "
       width="28"
       height="1" /><rect
       id="rect167"
       x="13"
       y="46"
       opacity="0.05"
       enable-background="new    "
       width="22"
       height="1" /><rect
       id="rect169"
       x="17"
       y="46"
       opacity="0.05"
       enable-background="new    "
       width="14"
       height="1" /><rect
       id="rect171"
       x="10"
       y="45"
       opacity="0.05"
       enable-background="new    "
       width="28"
       height="1" /><rect
       id="rect173"
       x="12"
       y="45"
       opacity="0.05"
       enable-background="new    "
       width="24"
       height="1" /><rect
       id="rect175"
       x="13"
       y="45"
       opacity="0.05"
       enable-background="new    "
       width="22"
       height="1" /><rect
       id="rect177"
       x="15"
       y="45"
       opacity="0.05"
       enable-background="new    "
       width="18"
       height="1" /><rect
       id="rect179"
       x="15"
       y="45"
       opacity="0.05"
       enable-background="new    "
       width="18"
       height="1" /></g><path
     id="path197"
     fill="#8FBCE5"
     d="M40.5,1h-33C4.462,1,2,3.463,2,6.5v33C2,42.537,4.462,45,7.5,45h33c3.037,0,5.5-2.463,5.5-5.5  v-33C46,3.463,43.537,1,40.5,1z M44.94,39.484c0,2.48-2.019,4.5-4.497,4.5H7.462c-2.481,0-4.497-2.02-4.497-4.5v-33  c0-2.482,2.016-4.5,4.497-4.5h32.981c2.479,0,4.497,2.018,4.497,4.5V39.484z"
     style="fill:#9dbcd7;fill-opacity:1" /><g
     id="g203"
     display="none"><polygon
       id="polygon205"
       display="inline"
       opacity="0.6"
       fill="#FFF8D9"
       enable-background="new    "
       points="17,36 17,29    13.062,29 23.992,18.889 28,22.544 28,22 31,22 31,25.304 35.033,29 31,29 31,36  " /><polygon
       id="polygon207"
       display="inline"
       opacity="0.8"
       fill="#8C6E22"
       enable-background="new    "
       points="17.5,35.5 17.5,28.5    14.339,28.5 23.995,19.567 28.5,23.677 28.5,22.5 30.5,22.5 30.5,25.523 33.748,28.5 30.5,28.5 30.5,35.5  " /><linearGradient
       id="polygon214_1_"
       gradientUnits="userSpaceOnUse"
       x1="315.0388"
       y1="-352.2461"
       x2="315.0388"
       y2="-367"
       gradientTransform="matrix(1 0 0 -1 -291 -332)"><stop
         offset="0"
         style="stop-color:#BFAA68"
         id="stop58" /><stop
         offset="1"
         style="stop-color:#CBA03B"
         id="stop60" /></linearGradient><polygon
       id="polygon214"
       display="inline"
       fill="url(#polygon214_1_)"
       points="18,35 18,28 15.616,28 23.997,20.246 29,24.81    29,23 30,23 30,25.743 32.462,28 30,28 30,35  " /></g><path
     id="path216"
     fill="none"
     d="M35.033,29" /><path
     id="path218"
     fill="none"
     d="M24,18.889" /><path
     id="path248"
     fill="none"
     d="M160.033,49" /><path
     id="path250"
     fill="none"
     d="M149,38.889" /><g
     id="g67"><linearGradient
       id="path123_1_"
       gradientUnits="userSpaceOnUse"
       x1="315.0002"
       y1="-340.5918"
       x2="315.0002"
       y2="-376.6097"
       gradientTransform="matrix(1 0 0 -1 -291 -332)"><stop
         offset="0"
         style="stop-color:#e4eefb;stop-opacity:1;"
         id="stop70" /><stop
         offset="1"
         style="stop-color:#d1e0ed;stop-opacity:1;"
         id="stop72" /></linearGradient><path
       id="path123"
       d="M44,11.984c-5.805,0-22.341,0.003-24,0.003c-2.016,0-2-1.987-2-1.987s0-2-2-2   C12.499,8,5.487,8,4,8c-1.969,0-2,1.928-2,1.989V39.5C2,42.537,4.463,45,7.5,45h33c3.037,0,5.5-2.463,5.5-5.5V14   C46,14,46,11.984,44,11.984z"
       fill="url(#path123_1_)" /><g
       id="g143"><path
         id="polygon145"
         d="M46,14L46,14L46,14z"
         fill="#EEFAFF" /><polygon
         id="polygon149"
         points="2,10.025 2,10 2,10.025   "
         fill="#EEFAFF" /><path
         id="path147"
         d="M20.5,12.487L44,12.484c1.411,0,1.997,1.261,2,1.515c0,0,0-2.015-2-2.015    c-5.805,0-22.341,0.003-24,0.003c-2.016,0-2-1.987-2-1.987s0-2-2-2C12.498,8,5.486,8,4,8c-2,0-2,2-2,2    c0.003-0.248,0.589-1.5,2-1.5h12c1.458,0,1.5,1.346,1.5,1.5c0,0.041,0,1.087,0.722,1.816c0.442,0.445,1.041,0.671,1.778,0.671    L20.5,12.487"
         fill="#EEFAFF" /></g><g
       id="g79"><path
         stroke-miterlimit="10"
         d="M7.5,43.5c-2.206,0-4-1.794-4-4V8.989    C3.523,8.5,3.766,8.5,4,8.5h12c0.175,0,0.5,0,0.5,0.5c-0.002,0.239,0.038,1.538,1.013,2.52c0.438,0.441,1.225,0.967,2.487,0.967    l24-0.003c0.224,0,0.478,0,0.5,0.543V39.5c0,2.206-1.794,4-4,4H7.5z"
         id="path81"
         stroke="#FFFFFF"
         fill="none"
         opacity="0.7" /><g
         id="g83"><path
           d="M40.507,45h-33c-3.033,0-5.5-2.468-5.5-5.5V8.99c0.016-0.994,0.641-1.989,2-1.989h12c1.579,0,2,1.257,2,2     c0,0.036,0.006,0.888,0.578,1.464c0.344,0.347,0.823,0.523,1.422,0.523l24-0.003c1.365,0,1.988,1.011,2,2.012V39.5     C46.007,42.532,43.539,45,40.507,45z M4.007,8.001c-0.856,0-0.994,0.625-1,0.997V39.5c0,2.481,2.019,4.5,4.5,4.5h33     c2.481,0,4.5-2.019,4.5-4.5V13.003c-0.004-0.376-0.141-1.018-1-1.018l-24,0.003c-0.876,0-1.594-0.276-2.132-0.819     c-0.843-0.85-0.868-2.036-0.868-2.168c0-0.3-0.098-1-1-1H4.007z"
           id="path85"
           fill="#8FBCE5" /><path
           d="M40.507,45h-33c-3.033,0-5.5-2.468-5.5-5.5V8.99c0.016-0.994,0.641-1.989,2-1.989h12c1.579,0,2,1.257,2,2     c0,0.036,0.006,0.888,0.578,1.464c0.344,0.347,0.823,0.523,1.422,0.523l24-0.003c1.365,0,1.988,1.011,2,2.012V39.5     C46.007,42.532,43.539,45,40.507,45z M4.007,8.001c-0.856,0-0.994,0.625-1,0.997V39.5c0,2.481,2.019,4.5,4.5,4.5h33     c2.481,0,4.5-2.019,4.5-4.5V13.003c-0.004-0.376-0.141-1.018-1-1.018l-24,0.003c-0.876,0-1.594-0.276-2.132-0.819     c-0.843-0.85-0.868-2.036-0.868-2.168c0-0.3-0.098-1-1-1H4.007z"
           id="path87"
           fill="#8FBCE5"
           style="fill:#9dbcd7;fill-opacity:1" /></g><path
         d="M44,9.967L20,9.97c-0.6,0-1.078-0.176-1.422-0.523C18.006,8.871,18,8.019,18,7.982c0-0.743-0.421-2-2-2H4    c-1.359,0-1.984,0.995-2,1.989v1.062c0.014-0.843,0.47-1.679,1.435-1.917C3.576,7.037,3.756,6.983,4,6.983h12    c0.232,0,0.409,0.047,0.546,0.12C17.678,7.357,18,8.397,18,9.045c0,0.036,0.006,0.888,0.578,1.464    c0.135,0.136,0.296,0.238,0.471,0.321c0.294,0.085,0.607,0.14,0.951,0.14l24-0.003c0.24,0,0.419,0.053,0.559,0.134    c0.974,0.238,1.431,1.09,1.441,1.941v-1.062C45.988,10.978,45.365,9.967,44,9.967z"
         id="path89"
         opacity="0.05" /></g></g><linearGradient
     id="path25_1_"
     gradientUnits="userSpaceOnUse"
     x1="642.9738"
     y1="773.0254"
     x2="642.9738"
     y2="792.192"
     gradientTransform="matrix(1 0 0 1 -564.6602 -757.96)"><stop
       offset="0"
       style="stop-color:#FFFFFF;stop-opacity:0.2"
       id="stop92" /><stop
       offset="0.08"
       style="stop-color:#FFFFFF;stop-opacity:0.9"
       id="stop94" /><stop
       offset="0.25"
       style="stop-color:#FFFFFF;stop-opacity:0.6"
       id="stop96" /><stop
       offset="1"
       style="stop-color:#FFFFFF;stop-opacity:0"
       id="stop98" /></linearGradient><path
     id="path25"
     fill="url(#path25_1_)"
     d="M99.313,26.836c0,2.491-0.66,4.229-4.994,4.229s-29.638,0-33.014,0  s-3.992-1.481-3.992-3.972l0.025-7.056c0-2.488,3.194-4.972,5.472-4.972h31.003c2.279,0,5.531,2.609,5.5,5.5V26.836z" /><g
     id="g27"
     opacity="0.8"><linearGradient
       id="path36_1_"
       gradientUnits="userSpaceOnUse"
       x1="295.3478"
       y1="-333.4479"
       x2="301.3581"
       y2="-343.8579"
       gradientTransform="matrix(1 0 0 -1 -291 -332)"><stop
         offset="0"
         style="stop-color:#FFFFFF"
         id="stop103" /><stop
         offset="0.5"
         style="stop-color:#FFFFFF;stop-opacity:0.6"
         id="stop105" /><stop
         offset="1"
         style="stop-color:#FFFFFF;stop-opacity:0.15"
         id="stop107" /></linearGradient><path
       id="path36"
       fill="url(#path36_1_)"
       d="M9.303,13.627c0.672-1.391,1.492-2.694,2.433-3.899l-1.712-3.754   c-1.462,1.382-2.649,2.905-3.596,4.384L9.303,13.627z" /><linearGradient
       id="path45_1_"
       gradientUnits="userSpaceOnUse"
       x1="300.7964"
       y1="-331.8896"
       x2="304.7298"
       y2="-338.7026"
       gradientTransform="matrix(1 0 0 -1 -291 -332)"><stop
         offset="0"
         style="stop-color:#FFFFFF"
         id="stop111" /><stop
         offset="0.5"
         style="stop-color:#FFFFFF;stop-opacity:0.6"
         id="stop113" /><stop
         offset="1"
         style="stop-color:#FFFFFF;stop-opacity:0.15"
         id="stop115" /></linearGradient><path
       id="path45"
       fill="url(#path45_1_)"
       d="M9.481,2.366l0.895,1.961c0.861-0.715,1.805-0.961,2.834-1.961H9.481z" /><linearGradient
       id="path54_1_"
       gradientUnits="userSpaceOnUse"
       x1="302.0345"
       y1="-330.5953"
       x2="306.8404"
       y2="-338.9194"
       gradientTransform="matrix(1 0 0 -1 -291 -332)"><stop
         offset="0"
         style="stop-color:#FFFFFF"
         id="stop119" /><stop
         offset="0.5"
         style="stop-color:#FFFFFF;stop-opacity:0.6"
         id="stop121" /><stop
         offset="1"
         style="stop-color:#FFFFFF;stop-opacity:0.15"
         id="stop123" /></linearGradient><path
       id="path54"
       fill="url(#path54_1_)"
       d="M16.196,2.366h-0.708c-1.785,1-3.346,1.763-4.685,2.903l1.641,3.6   c1.402-1.619,3.028-3.038,4.849-4.184c0.014-0.013,0.024-0.024,0.039-0.037C19.373,2.886,17.346,2.366,16.196,2.366z" /><linearGradient
       id="path63_1_"
       gradientUnits="userSpaceOnUse"
       x1="291.974"
       y1="-338.1939"
       x2="297.1894"
       y2="-347.2272"
       gradientTransform="matrix(1 0 0 -1 -291 -332)"><stop
         offset="0"
         style="stop-color:#FFFFFF"
         id="stop127" /><stop
         offset="0.5"
         style="stop-color:#FFFFFF;stop-opacity:0.6"
         id="stop129" /><stop
         offset="1"
         style="stop-color:#FFFFFF;stop-opacity:0.15"
         id="stop131" /></linearGradient><path
       id="path63"
       fill="url(#path63_1_)"
       d="M5.882,11.251c-1.098,1.869-1.815,3.596-2.241,4.777   c0.504,0.719,1.337,1.191,2.282,1.191c1.17,0,2.169-0.723,2.583-1.744c0.106-0.285,0.235-0.559,0.353-0.84L5.882,11.251z" /><linearGradient
       id="path72_1_"
       gradientUnits="userSpaceOnUse"
       x1="291.739"
       y1="-338.5643"
       x2="297.519"
       y2="-348.5756"
       gradientTransform="matrix(1 0 0 -1 -291 -332)"><stop
         offset="0"
         style="stop-color:#FFFFFF"
         id="stop135" /><stop
         offset="0.5"
         style="stop-color:#FFFFFF;stop-opacity:0.6"
         id="stop137" /><stop
         offset="1"
         style="stop-color:#FFFFFF;stop-opacity:0.15"
         id="stop139" /></linearGradient><path
       id="path72"
       fill="url(#path72_1_)"
       d="M3.157,8.15l-0.022,6.276c0,0,0,0.002,0,0.004c0,0.039,0.01,0.076,0.012,0.115   c0.477-1.161,1.143-2.58,2.047-4.079L3.157,8.15z" /><linearGradient
       id="path81_1_"
       gradientUnits="userSpaceOnUse"
       x1="296.2229"
       y1="-335.6222"
       x2="301.4355"
       y2="-344.6505"
       gradientTransform="matrix(1 0 0 -1 -291 -332)"><stop
         offset="0"
         style="stop-color:#FFFFFF"
         id="stop143" /><stop
         offset="0.5"
         style="stop-color:#FFFFFF;stop-opacity:0.6"
         id="stop145" /><stop
         offset="1"
         style="stop-color:#FFFFFF;stop-opacity:0.15"
         id="stop147" /></linearGradient><path
       id="path149"
       fill="url(#path81_1_)"
       d="M8.289,2.378c-1.479,0.08-4.724,2.128-5.069,4.33l2.53,2.877   c1.01-1.541,2.266-3.12,3.815-4.546L8.289,2.378z" /></g><g
     transform="translate(-0.001,-3.3108281e-4)"
     id="g3151"><path
       style="fill:none"
       inkscape:connector-curvature="0"
       d="M 35.033,29"
       id="path216-0" /><path
       style="fill:none"
       inkscape:connector-curvature="0"
       d="M 24,18.889"
       id="path218-5" /><path
       style="opacity:0.05;fill:#ffffff"
       d="m 21.55,13.584 c -1.211,0.019 -2.59,0.325 -4.248,1.005 -0.254,0.104 -0.447,0.317 -0.524,0.581 l -2.096,7.151 c -0.075,0.255 -0.033,0.529 0.113,0.751 -0.235,0.111 -0.41,0.317 -0.481,0.566 l -2.053,7.109 c -0.142,0.477 0.129,0.978 0.606,1.12 0.197,0.059 0.408,0.048 0.598,-0.03 2.01,-0.824 3.384,-0.966 4.447,-0.807 1.062,0.159 1.876,0.627 2.761,1.218 0.228,0.155 0.516,0.197 0.779,0.113 0.06,0.203 0.191,0.379 0.368,0.496 0.948,0.638 2.048,1.276 3.498,1.487 1.45,0.211 3.184,-0.013 5.395,-0.92 0.254,-0.104 0.447,-0.317 0.524,-0.581 l 2.011,-6.925 c 0.082,-0.285 0.019,-0.592 -0.17,-0.821 0.031,-0.014 0.054,-0.015 0.085,-0.028 0.24,-0.107 0.421,-0.314 0.496,-0.566 l 2.082,-7.123 c 0.142,-0.477 -0.129,-0.978 -0.606,-1.12 -0.197,-0.059 -0.408,-0.048 -0.598,0.03 -2.005,0.822 -3.388,0.963 -4.461,0.807 -1.073,-0.156 -1.898,-0.617 -2.776,-1.204 -0.204,-0.135 -0.455,-0.181 -0.694,-0.127 -0.037,-0.255 -0.181,-0.482 -0.397,-0.623 -1.19,-0.8 -2.644,-1.59 -4.659,-1.559 z m 0.014,0.906 c 1.786,-0.027 3.006,0.635 4.149,1.402 l -2.082,7.123 c -1.101,-0.736 -2.282,-1.418 -3.965,-1.43 -1.11,-0.009 -2.442,0.304 -4.121,0.991 l 2.096,-7.151 c 1.584,-0.65 2.852,-0.919 3.923,-0.935 z m 5.24,2.152 c 1.825,1.22 3.856,2.21 8.072,0.481 l -2.082,7.123 c -4.042,1.794 -6.248,0.788 -8.072,-0.439 l 2.082,-7.165 z m -7.675,6.302 c 1.784,-0.043 3.009,0.592 4.149,1.359 l -2.11,7.194 c -1.831,-1.221 -3.819,-2.228 -8.043,-0.496 l 2.053,-7.109 h 0.028 c 1.578,-0.644 2.852,-0.922 3.923,-0.948 z m 5.253,2.068 c 1.829,1.221 3.702,2.11 8.001,0.651 l -2.011,6.925 c -4.22,1.731 -6.23,0.748 -8.058,-0.481 l 2.068,-7.095 z"
       enable-background="new    "
       inkscape:connector-curvature="0"
       id="path5235" /><path
       style="opacity:0.1;fill:#ffffff"
       d="m 21.55,14.023 c -1.143,0.018 -2.456,0.312 -4.078,0.977 -0.13,0.053 -0.229,0.163 -0.269,0.297 l -2.096,7.151 c -0.065,0.248 0.084,0.501 0.332,0.566 0.091,0.024 0.188,0.019 0.277,-0.014 1.644,-0.674 2.931,-0.957 3.951,-0.949 1.559,0.011 2.627,0.621 3.71,1.345 0.216,0.138 0.503,0.075 0.641,-0.14 0.023,-0.036 0.041,-0.074 0.053,-0.115 l 2.082,-7.123 c 0.055,-0.192 -0.02,-0.397 -0.184,-0.51 -1.168,-0.782 -2.515,-1.515 -4.419,-1.485 z m 0.014,0.467 c 1.786,-0.027 3.006,0.635 4.149,1.402 l -2.082,7.123 c -1.101,-0.736 -2.282,-1.418 -3.965,-1.43 -1.11,-0.009 -2.442,0.304 -4.121,0.991 l 2.096,-7.151 c 1.584,-0.65 2.852,-0.919 3.923,-0.935 z m 5.183,1.685 c -0.184,0.026 -0.335,0.16 -0.382,0.34 l -2.082,7.165 c -0.055,0.192 0.02,0.397 0.184,0.51 0.935,0.629 2.017,1.236 3.399,1.43 1.382,0.194 3.033,-0.026 5.112,-0.949 0.125,-0.057 0.218,-0.165 0.255,-0.297 l 2.082,-7.123 c 0.065,-0.248 -0.084,-0.501 -0.332,-0.566 -0.091,-0.024 -0.188,-0.019 -0.277,0.014 -2.055,0.843 -3.536,1.005 -4.701,0.836 -1.165,-0.17 -2.051,-0.677 -2.945,-1.274 -0.092,-0.066 -0.202,-0.096 -0.313,-0.086 z m 0.057,0.467 c 1.825,1.22 3.856,2.21 8.072,0.481 l -2.082,7.123 c -4.042,1.794 -6.248,0.788 -8.072,-0.439 l 2.082,-7.165 z m -7.69,5.835 c -1.106,0.027 -2.39,0.332 -3.937,0.949 -0.014,0.006 -0.029,-0.006 -0.042,0 -0.189,0.021 -0.347,0.156 -0.397,0.34 l -2.053,7.109 c -0.065,0.248 0.084,0.501 0.332,0.566 0.091,0.024 0.188,0.019 0.277,-0.014 2.059,-0.845 3.532,-0.994 4.687,-0.821 1.155,0.173 2.032,0.674 2.931,1.274 0.216,0.138 0.503,0.075 0.641,-0.14 0.023,-0.036 0.041,-0.074 0.053,-0.115 l 2.11,-7.194 c 0.055,-0.192 -0.02,-0.397 -0.184,-0.51 -1.169,-0.787 -2.518,-1.49 -4.418,-1.444 z m 0.015,0.467 c 1.784,-0.043 3.009,0.592 4.149,1.359 l -2.11,7.194 c -1.831,-1.221 -3.819,-2.228 -8.043,-0.496 l 2.053,-7.109 h 0.028 c 1.578,-0.644 2.852,-0.922 3.923,-0.948 z m 5.197,1.6 c -0.184,0.026 -0.335,0.16 -0.382,0.34 l -2.068,7.095 c -0.055,0.192 0.02,0.397 0.184,0.51 0.931,0.627 1.957,1.233 3.314,1.43 1.357,0.197 3.006,-0.019 5.169,-0.906 0.13,-0.053 0.229,-0.163 0.269,-0.297 l 2.011,-6.925 c 0.07,-0.246 -0.073,-0.503 -0.319,-0.573 -0.09,-0.026 -0.186,-0.023 -0.276,0.007 -2.103,0.713 -3.56,0.844 -4.701,0.666 -1.142,-0.178 -1.992,-0.662 -2.889,-1.26 -0.091,-0.066 -0.202,-0.097 -0.312,-0.087 z m 0.056,0.468 c 1.829,1.221 3.702,2.11 8.001,0.651 l -2.011,6.925 c -4.22,1.731 -6.23,0.748 -8.058,-0.481 l 2.068,-7.095 z"
       enable-background="new    "
       inkscape:connector-curvature="0"
       id="path5224" /><path
       style="opacity:0.5;fill:#669ccc"
       d="m 21.564,14.49 c -1.071,0.016 -2.339,0.285 -3.923,0.935 l -2.096,7.151 c 1.678,-0.688 3.011,-1 4.121,-0.991 1.683,0.012 2.864,0.694 3.965,1.43 l 2.082,-7.123 C 24.57,15.125 23.35,14.463 21.564,14.49 z m 5.24,2.152 -2.082,7.165 c 1.824,1.227 4.03,2.233 8.072,0.439 l 2.082,-7.123 c -4.216,1.729 -6.247,0.739 -8.072,-0.481 z m -7.675,6.302 c -1.071,0.026 -2.345,0.304 -3.923,0.949 h -0.028 l -2.053,7.109 c 4.224,-1.733 6.213,-0.726 8.043,0.496 l 2.11,-7.194 c -1.14,-0.768 -2.365,-1.403 -4.149,-1.36 z m 5.253,2.068 -2.068,7.095 c 1.827,1.229 3.838,2.213 8.058,0.481 l 2.011,-6.925 c -4.299,1.458 -6.171,0.569 -8.001,-0.651 z"
       enable-background="new    "
       inkscape:connector-curvature="0"
       id="path5142" /><path
       style="opacity:0.5;fill:#669ccc"
       d="m 21.564,14.49 c -1.071,0.016 -2.339,0.285 -3.923,0.935 l -2.096,7.151 c 1.678,-0.688 3.011,-1 4.121,-0.991 1.683,0.012 2.864,0.694 3.965,1.43 l 2.082,-7.123 C 24.57,15.125 23.35,14.463 21.564,14.49 z m 0.014,0.892 c 1.288,-0.02 2.183,0.392 3.073,0.935 l -1.572,5.367 c -0.945,-0.526 -2.014,-0.981 -3.413,-0.991 -0.835,-0.007 -1.768,0.195 -2.776,0.496 l 1.487,-5.055 c 1.299,-0.493 2.361,-0.739 3.201,-0.752 z m 5.226,1.26 -2.082,7.165 c 1.824,1.227 4.03,2.233 8.072,0.439 l 2.082,-7.123 c -4.216,1.729 -6.247,0.739 -8.072,-0.481 z m 0.552,1.346 c 0.715,0.392 1.499,0.752 2.464,0.892 1.046,0.152 2.312,-0.032 3.724,-0.425 l -1.487,5.084 c -1.697,0.692 -2.992,0.879 -4.008,0.736 -0.863,-0.121 -1.576,-0.478 -2.266,-0.892 l 1.573,-5.395 z m -8.227,4.956 c -1.071,0.026 -2.345,0.304 -3.923,0.949 h -0.028 l -2.053,7.109 c 4.224,-1.733 6.213,-0.726 8.043,0.496 l 2.11,-7.194 c -1.14,-0.768 -2.365,-1.403 -4.149,-1.36 z m 0.028,0.892 c 1.292,-0.031 2.175,0.373 3.059,0.906 l -1.586,5.395 c -0.713,-0.396 -1.486,-0.734 -2.45,-0.878 -1.045,-0.157 -2.319,0.028 -3.739,0.425 l 1.473,-5.07 c 1.313,-0.498 2.395,-0.757 3.243,-0.778 z m 5.225,1.176 -2.068,7.095 c 1.827,1.229 3.838,2.213 8.058,0.481 l 2.011,-6.925 c -4.299,1.458 -6.171,0.569 -8.001,-0.651 z m 0.538,1.345 c 0.702,0.386 1.453,0.731 2.393,0.878 1.041,0.162 2.327,0.003 3.781,-0.34 l -1.459,4.971 c -1.767,0.667 -3.078,0.852 -4.064,0.708 -0.838,-0.122 -1.516,-0.465 -2.195,-0.878 l 1.544,-5.339 z"
       enable-background="new    "
       inkscape:connector-curvature="0"
       id="path5196" /><path
       style="opacity:0.5;fill:#669ccc"
       d="m 21.564,14.49 c -1.071,0.016 -2.339,0.285 -3.923,0.935 l -2.096,7.151 c 0.055,-0.022 0.102,-0.035 0.156,-0.057 l 1.94,-6.642 c 1.583,-0.65 2.851,-0.918 3.923,-0.935 1.729,-0.026 2.924,0.596 4.036,1.331 l 0.113,-0.382 C 24.57,15.125 23.35,14.463 21.564,14.49 z m 5.24,2.152 -2.082,7.165 c 0.037,0.025 0.076,0.046 0.113,0.071 l 1.968,-6.783 c 1.802,1.204 3.807,2.177 7.916,0.538 l 0.156,-0.51 c -4.215,1.729 -6.246,0.739 -8.071,-0.481 z m -7.675,6.302 c -1.071,0.026 -2.345,0.304 -3.923,0.949 h -0.028 l -2.053,7.109 c 0.049,-0.02 0.093,-0.037 0.142,-0.057 l 1.912,-6.599 h 0.028 c 1.578,-0.645 2.852,-0.923 3.923,-0.949 1.727,-0.042 2.927,0.554 4.036,1.289 l 0.113,-0.382 c -1.141,-0.768 -2.366,-1.403 -4.15,-1.36 z m 5.253,2.068 -2.068,7.095 c 0.037,0.025 0.076,0.046 0.113,0.071 l 1.954,-6.712 c 1.808,1.207 3.663,2.083 7.859,0.694 l 0.142,-0.496 c -4.298,1.457 -6.17,0.568 -8,-0.652 z"
       enable-background="new    "
       inkscape:connector-curvature="0"
       id="path5174" /><path
       style="opacity:0.5;fill:#669ccc"
       d="m 21.564,14.49 c -1.071,0.016 -2.339,0.285 -3.923,0.935 l -2.096,7.151 c 1.678,-0.688 3.011,-1 4.121,-0.991 1.683,0.012 2.864,0.694 3.965,1.43 l 2.082,-7.123 C 24.57,15.125 23.35,14.463 21.564,14.49 z m 0.014,0.481 c 1.514,-0.023 2.537,0.493 3.554,1.147 l -1.798,6.188 c -1.002,-0.62 -2.132,-1.192 -3.668,-1.204 -0.971,-0.008 -2.113,0.27 -3.399,0.722 l 1.77,-6.033 c 1.433,-0.562 2.596,-0.805 3.541,-0.82 z m 5.226,1.671 -2.082,7.165 c 1.824,1.227 4.03,2.233 8.072,0.439 l 2.082,-7.123 c -4.216,1.729 -6.247,0.739 -8.072,-0.481 z m 0.297,0.723 c 0.796,0.488 1.668,0.943 2.776,1.105 1.15,0.168 2.582,-0.063 4.277,-0.637 l -1.756,6.033 c -1.85,0.787 -3.265,0.981 -4.404,0.821 -1.057,-0.149 -1.902,-0.59 -2.705,-1.105 l 1.812,-6.217 z m -7.972,5.579 c -1.071,0.026 -2.345,0.304 -3.923,0.949 h -0.028 l -2.053,7.109 c 4.224,-1.733 6.213,-0.726 8.043,0.496 l 2.11,-7.194 c -1.14,-0.768 -2.365,-1.403 -4.149,-1.36 z m 0.014,0.482 c 1.515,-0.037 2.543,0.457 3.554,1.105 l -1.827,6.245 c -0.794,-0.489 -1.66,-0.94 -2.761,-1.105 -1.147,-0.172 -2.575,0.045 -4.277,0.623 l 1.742,-6.018 c 1.444,-0.571 2.616,-0.827 3.569,-0.85 z m 5.239,1.586 -2.068,7.095 c 1.827,1.229 3.838,2.213 8.058,0.481 l 2.011,-6.925 c -4.299,1.458 -6.171,0.569 -8.001,-0.651 z m 0.298,0.722 c 0.785,0.48 1.627,0.922 2.705,1.09 1.135,0.177 2.567,-0.002 4.305,-0.496 l -1.713,5.877 c -1.93,0.759 -3.35,0.941 -4.461,0.779 -1.032,-0.15 -1.835,-0.589 -2.634,-1.105 l 1.798,-6.145 z"
       enable-background="new    "
       inkscape:connector-curvature="0"
       id="path5183" /><path
       style="opacity:0.2;fill:#ffffff"
       d="m 25.6,16.274 -1.968,6.741 c -1.101,-0.736 -2.282,-1.418 -3.965,-1.43 -1.074,-0.008 -2.363,0.293 -3.965,0.935 l -0.156,0.51 c 1.678,-0.688 3.011,-1 4.121,-0.991 1.683,0.012 2.864,0.694 3.965,1.43 l 2.082,-7.123 C 25.677,16.321 25.637,16.299 25.6,16.274 z m 9.276,1.303 c -0.053,0.022 -0.103,0.036 -0.156,0.057 l -1.926,6.613 c -3.961,1.758 -6.156,0.824 -7.958,-0.368 l -0.113,0.382 c 1.824,1.227 4.03,2.233 8.072,0.439 l 2.081,-7.123 z m -11.711,7.109 -1.997,6.811 C 19.359,30.29 17.39,29.295 13.266,30.945 l -0.142,0.51 c 4.224,-1.733 6.213,-0.726 8.043,0.496 l 2.11,-7.194 C 23.241,24.732 23.201,24.71 23.165,24.686 z m 9.218,1.43 c -0.049,0.017 -0.093,0.027 -0.142,0.042 l -1.869,6.429 c -4.134,1.696 -6.146,0.783 -7.944,-0.411 l -0.113,0.382 c 1.827,1.229 3.838,2.213 8.058,0.481 l 2.01,-6.923 z"
       enable-background="new    "
       inkscape:connector-curvature="0"
       id="path5209" /></g></svg>