<?xml version="1.0" encoding="utf-8"?>
<!-- Generator: Adobe Illustrator 17.0.0, SVG Export Plug-In . SVG Version: 6.00 Build 0)  -->
<!DOCTYPE svg PUBLIC "-//W3C//DTD SVG 1.1//EN" "http://www.w3.org/Graphics/SVG/1.1/DTD/svg11.dtd">
<svg version="1.1"
	 id="svg10078" xmlns:dc="http://purl.org/dc/elements/1.1/" xmlns:cc="http://creativecommons.org/ns#" xmlns:rdf="http://www.w3.org/1999/02/22-rdf-syntax-ns#" xmlns:svg="http://www.w3.org/2000/svg" xmlns:sodipodi="http://sodipodi.sourceforge.net/DTD/sodipodi-0.dtd" xmlns:inkscape="http://www.inkscape.org/namespaces/inkscape" sodipodi:docname="folder-remote.svg" inkscape:version="0.48.3.1 r9886"
	 xmlns="http://www.w3.org/2000/svg" xmlns:xlink="http://www.w3.org/1999/xlink" x="0px" y="0px" width="16px" height="16px"
	 viewBox="0 0 16 16" enable-background="new 0 0 16 16" xml:space="preserve">
<sodipodi:namedview  showguides="true" bordercolor="#666666" pagecolor="#ffffff" borderopacity="1.0" showgrid="true" inkscape:zoom="22.197802" inkscape:cx="1.0398514" inkscape:cy="8" id="base" inkscape:guide-bbox="true" inkscape:pageopacity="0.0" inkscape:window-y="26" inkscape:window-maximized="1" inkscape:pageshadow="2" inkscape:window-width="1280" inkscape:current-layer="layer1" inkscape:window-height="752" inkscape:window-x="0" inkscape:grid-bbox="true" inkscape:document-units="px">
	<inkscape:grid  type="xygrid" id="grid10129"></inkscape:grid>
</sodipodi:namedview>
<path id="path4112-19-69-3" inkscape:connector-curvature="0" fill="#3C3C3C" d="M8,10.486c-0.884,0-1.758,0.463-2.118,0.861
	L8,13.65l2.139-2.283C9.779,10.949,8.884,10.486,8,10.486z M8,6.486c-1.848,0-3.504,0.736-4.865,1.861L4.46,9.76
	c0.906-0.649,2.317-1.275,3.487-1.275c1.198,0,2.676,0.64,3.595,1.318l1.365-1.478C11.546,7.201,9.848,6.486,8,6.486z M8,2.486
	c-2.853,0-5.468,1.096-7.5,2.923l1.296,1.459C3.608,5.279,5.514,4.486,8,4.486s4.334,0.747,6.233,2.414L15.5,5.408
	C13.468,3.582,10.853,2.485,8,2.486L8,2.486z"/>
</svg>
