<?xml version="1.0" encoding="UTF-8" standalone="no"?>
<!-- Created with Inkscape (http://www.inkscape.org/) -->

<svg
   xmlns:dc="http://purl.org/dc/elements/1.1/"
   xmlns:cc="http://creativecommons.org/ns#"
   xmlns:rdf="http://www.w3.org/1999/02/22-rdf-syntax-ns#"
   xmlns:svg="http://www.w3.org/2000/svg"
   xmlns="http://www.w3.org/2000/svg"
   version="1.1"
   width="16"
   height="16"
   viewBox="0 0 16 16"
   id="图层_1"
   xml:space="preserve"><metadata
     id="metadata9"><rdf:RDF><cc:Work
         rdf:about=""><dc:format>image/svg+xml</dc:format><dc:type
           rdf:resource="http://purl.org/dc/dcmitype/StillImage" /><dc:title></dc:title></cc:Work></rdf:RDF></metadata><defs
     id="defs7" /><path
     d="m 8.593,1.472 c -3.605,0 -6.527,2.922 -6.527,6.527 H 0.879 L 1.917,9.78 2.956,11.561 3.997,9.78 5.035,7.999 H 3.848 c 0,-2.622 2.125,-4.747 4.746,-4.747 2.622,0 4.747,2.126 4.747,4.747 0,2.622 -2.125,4.747 -4.747,4.747 -0.865,0 -1.674,-0.234 -2.372,-0.64 L 5.33,13.654 c 0.961,0.554 2.078,0.872 3.265,0.872 3.605,0 6.528,-2.922 6.528,-6.528 C 15.121,4.394 12.198,1.472 8.593,1.472 z m 0,2.374 C 8.265,3.846 8,4.111 8,4.44 V 7.805 C 7.942,7.965 7.974,8.159 8.094,8.326 8.116,8.361 8.146,8.389 8.177,8.418 l 2.094,2.105 c 0.233,0.233 0.572,0.264 0.761,0.075 L 11.19,10.44 C 11.379,10.251 11.348,9.912 11.115,9.679 L 9.187,7.759 V 4.44 C 9.187,4.11 8.922,3.846 8.593,3.846 z"
     id="path4090"
     style="fill:#3c3c3c" /><path
     d="m 8.593,3.252 c -2.621,0 -4.746,2.126 -4.746,4.747 H 3.864 C 4.02,5.518 6.073,3.548 8.593,3.548 c 2.571,0 4.658,2.047 4.738,4.6 C 13.332,8.099 13.34,8.05 13.34,7.999 13.34,5.378 11.215,3.252 8.593,3.252 z M 8,8.12 C 7.951,8.275 7.979,8.46 8.094,8.621 8.116,8.656 8.146,8.684 8.177,8.715 l 2.094,2.105 c 0.233,0.233 0.572,0.262 0.761,0.073 l 0.158,-0.157 c 0.117,-0.118 0.151,-0.293 0.101,-0.464 -0.02,0.061 -0.054,0.118 -0.101,0.167 l -0.158,0.158 c -0.189,0.189 -0.528,0.158 -0.761,-0.075 L 8.177,8.418 C 8.146,8.388 8.116,8.361 8.094,8.326 8.046,8.26 8.021,8.191 8,8.12 z m 7.121,0.028 c -0.079,3.536 -2.974,6.379 -6.528,6.379 -1.136,0 -2.202,-0.296 -3.133,-0.808 l -0.132,0.233 c 0.961,0.554 2.078,0.872 3.265,0.872 3.605,0 6.528,-2.922 6.528,-6.528 0,-0.05 0.002,-0.099 0,-0.148 z M 0.879,8.296 1.917,10.077 2.956,11.858 3.997,10.077 5.035,8.296 H 4.858 L 3.998,9.78 2.957,11.561 1.918,9.78 1.056,8.296 c 0,0 -0.177,0 -0.177,0 z"
     id="path4535"
     style="opacity:0.2;fill:#ffffff" /></svg>