<?xml version="1.0" encoding="utf-8"?>
<!-- Generator: Adobe Illustrator 17.0.0, SVG Export Plug-In . SVG Version: 6.00 Build 0)  -->
<!DOCTYPE svg PUBLIC "-//W3C//DTD SVG 1.1//EN" "http://www.w3.org/Graphics/SVG/1.1/DTD/svg11.dtd">
<svg version="1.1" id="图层_1" xmlns="http://www.w3.org/2000/svg" xmlns:xlink="http://www.w3.org/1999/xlink" x="0px" y="0px"
	 width="16px" height="16px" viewBox="0 0 16 16" enable-background="new 0 0 16 16" xml:space="preserve">
<path fill="#333333" d="M-11.343,15.741c-1.063,0-1.964-0.572-2.191-1.392c-0.145-0.525-0.027-1.079,0.332-1.558
	c0.351-0.469,0.915-0.822,1.587-0.997c0.686-0.178,1.426-0.095,2.042,0.228l0.001-0.414l-0.042-8.673
	c0-0.541,0.499-1.185,1.027-1.327l7.348-1.885l0.149,0.058c0.444,0.172,0.538,0.501,0.538,0.748l-0.031,11.126
	c-0.127,0.928-0.934,1.715-1.968,1.983c-0.263,0.068-0.529,0.103-0.792,0.103l0,0c-1.064,0-1.965-0.572-2.191-1.392
	c-0.146-0.526-0.027-1.079,0.332-1.559c0.35-0.467,0.914-0.821,1.586-0.996c0.688-0.178,1.425-0.094,2.041,0.227l0.002-0.497
	l-0.041-6.276l-6.965,1.889l-0.004,8.519c-0.126,0.927-0.934,1.714-1.968,1.982C-10.814,15.706-11.08,15.741-11.343,15.741z"/>
<path fill="#333333" d="M13,2H7H6v2v7.428C5.581,11.163,5.065,11,4.5,11C3.119,11,2,11.938,2,13.094s1.119,2.094,2.5,2.094
	S7,14.25,7,13.094C7,13.062,6.99,13.032,6.989,13H7V4h6v6.428C12.581,10.163,12.065,10,11.5,10C10.119,10,9,10.938,9,12.094
	s1.119,2.094,2.5,2.094S14,13.25,14,12.094c0-0.032-0.01-0.062-0.011-0.094H14V4V2H13z"/>
</svg>
