<?xml version="1.0" encoding="UTF-8" standalone="no"?>
<!-- Generator: Adobe Illustrator 17.0.0, SVG Export Plug-In . SVG Version: 6.00 Build 0)  -->

<svg
   xmlns:dc="http://purl.org/dc/elements/1.1/"
   xmlns:cc="http://creativecommons.org/ns#"
   xmlns:rdf="http://www.w3.org/1999/02/22-rdf-syntax-ns#"
   xmlns:svg="http://www.w3.org/2000/svg"
   xmlns="http://www.w3.org/2000/svg"
   xmlns:xlink="http://www.w3.org/1999/xlink"
   xmlns:sodipodi="http://sodipodi.sourceforge.net/DTD/sodipodi-0.dtd"
   xmlns:inkscape="http://www.inkscape.org/namespaces/inkscape"
   version="1.1"
   id="图层_1"
   inkscape:version="0.48.4 r9939"
   sodipodi:docname="folder-images.svg"
   x="0px"
   y="0px"
   width="48px"
   height="48px"
   viewBox="0 0 48 48"
   enable-background="new 0 0 48 48"
   xml:space="preserve"><metadata
     id="metadata153"><rdf:RDF><cc:Work
         rdf:about=""><dc:format>image/svg+xml</dc:format><dc:type
           rdf:resource="http://purl.org/dc/dcmitype/StillImage" /><dc:title></dc:title></cc:Work></rdf:RDF></metadata><defs
     id="defs151"><linearGradient
       id="path3347_1_"
       gradientUnits="userSpaceOnUse"
       x1="879.66052"
       y1="-1124.1611"
       x2="879.66052"
       y2="-1107.6879"
       gradientTransform="matrix(1,0,0,-1,-855.6602,-1091.96)"><stop
         offset="0"
         style="stop-color:#a2c8f1;stop-opacity:0.78430003;"
         id="stop155" /><stop
         offset="1"
         style="stop-color:#6eaee6;stop-opacity:0.39219999;"
         id="stop157" /></linearGradient><linearGradient
       id="rect2941_2_"
       gradientUnits="userSpaceOnUse"
       x1="590.66058"
       y1="792.53833"
       x2="590.66058"
       y2="778.87122"
       gradientTransform="translate(-566.6602,-761.96)"><stop
         offset="0"
         style="stop-color:#a5c8ee;stop-opacity:0.78430003;"
         id="stop155-3" /><stop
         offset="1"
         style="stop-color:#6eaee6;stop-opacity:0.39219999;"
         id="stop157-8" /></linearGradient></defs><sodipodi:namedview
     inkscape:current-layer="图层_1"
     inkscape:window-maximized="0"
     inkscape:window-y="149"
     inkscape:window-x="1173"
     inkscape:window-height="480"
     inkscape:window-width="702"
     inkscape:pageshadow="2"
     inkscape:pageopacity="0"
     inkscape:cy="26.77801"
     inkscape:cx="25.585848"
     inkscape:zoom="5.6568542"
     showgrid="false"
     guidetolerance="10"
     gridtolerance="10"
     objecttolerance="10"
     borderopacity="1"
     pagecolor="#ffffff"
     bordercolor="#666666"
     id="namedview252"
     showguides="true"
     inkscape:guide-bbox="true"><sodipodi:guide
       orientation="-0.70710678,0.70710678"
       position="-135.41095,99.52528"
       id="guide3130" /></sodipodi:namedview><radialGradient
     id="ellipse10_1_"
     cx="315"
     cy="-2047.0854"
     r="23.9962"
     gradientTransform="matrix(1 0 0 -0.1841 -291 -333.2854)"
     gradientUnits="userSpaceOnUse"><stop
       offset="0"
       style="stop-color:#000000;stop-opacity:0.6"
       id="stop5" /><stop
       offset="0.8996"
       style="stop-color:#000000;stop-opacity:0.0603"
       id="stop7" /><stop
       offset="1"
       style="stop-color:#000000;stop-opacity:0"
       id="stop9" /></radialGradient><ellipse
     id="ellipse10"
     display="none"
     fill="url(#ellipse10_1_)"
     cx="24"
     cy="43.583"
     rx="24"
     ry="4.417" /><linearGradient
     id="path12_1_"
     gradientUnits="userSpaceOnUse"
     x1="24"
     y1="45"
     x2="24"
     y2="1"><stop
       offset="0"
       style="stop-color:#c2d3e1;stop-opacity:1;"
       id="stop13" /><stop
       offset="0.4314"
       style="stop-color:#AFD3E2"
       id="stop15" /><stop
       offset="1"
       style="stop-color:#cadff0;stop-opacity:1;"
       id="stop17" /></linearGradient><path
     id="path12"
     fill="url(#path12_1_)"
     d="M46,39.5c0,3.037-2.463,5.5-5.5,5.5h-33C4.462,45,2,42.537,2,39.5v-33  C2,3.462,4.462,1,7.5,1h33C43.537,1,46,3.462,46,6.5V39.5z" /><path
     id="path188"
     fill="#FFFFFF"
     enable-background="new    "
     d="M40.5,2H7.499C5.017,2,3,4.018,3,6.5v33  C3,41.98,5.017,44,7.499,44H40.5c2.48,0,4.5-2.02,4.5-4.5v-33C45,4.018,42.98,2,40.5,2z M44,39.5c0,1.933-1.567,3.5-3.5,3.5h-33  C5.567,43,4,41.433,4,39.5v-33C4,4.567,5.567,3,7.5,3h33C42.433,3,44,4.567,44,6.5V39.5z" /><linearGradient
     id="path98_1_"
     gradientUnits="userSpaceOnUse"
     x1="314.9998"
     y1="-333.0005"
     x2="314.9998"
     y2="-377"
     gradientTransform="matrix(1 0 0 -1 -291 -332)"><stop
       offset="0"
       style="stop-color:#000000;stop-opacity:0.1"
       id="stop22" /><stop
       offset="1"
       style="stop-color:#000000;stop-opacity:0.8"
       id="stop24" /></linearGradient><path
     id="path98"
     opacity="0.5"
     fill="url(#path98_1_)"
     fill-opacity="0.8"
     enable-background="new    "
     d="M40.5,1h-33  C4.462,1,2,3.463,2,6.5v33C2,42.537,4.462,45,7.5,45h33c3.037,0,5.5-2.463,5.5-5.5v-33C46,3.463,43.537,1,40.5,1z M44.94,39.484  c0,2.48-2.019,4.5-4.497,4.5H7.462c-2.481,0-4.497-2.02-4.497-4.5v-33c0-2.482,2.016-4.5,4.497-4.5h32.981  c2.479,0,4.497,2.018,4.497,4.5V39.484z" /><g
     id="g125"
     display="none"
     opacity="0.3"><defs
       id="defs28"><filter
         id="Adobe_OpacityMaskFilter"
         filterUnits="userSpaceOnUse"
         x="4.769"
         y="13.895"
         width="37.382"
         height="27.883"><feColorMatrix
           type="matrix"
           values="1 0 0 0 0  0 1 0 0 0  0 0 1 0 0  0 0 0 1 0"
           id="feColorMatrix31" /></filter></defs><mask
       maskUnits="userSpaceOnUse"
       x="4.769"
       y="13.895"
       width="37.382"
       height="27.883"
       id="SVGID_11_"
       display="inline"><g
         id="g135"
         filter="url(#Adobe_OpacityMaskFilter)"><image
           sodipodi:absref="/usr/share/icons/Deepin/places/48/DEB81AAE695B461C.jpeg"
           xlink:href="DEB81AAE695B461C.jpeg"
           transform="matrix(0.232 0 0 0.2313 2.7686 11.8945)"
           id="image137"
           height="138"
           width="179"
           enable-background="new    "
           overflow="visible" /></g></mask><g
       id="g139"
       display="inline"
       mask="url(#SVGID_11_)"><path
         id="path141"
         fill="#FFF2B3"
         d="M7.228,41.777c-1.356,0-2.459-1.135-2.459-2.528v-25.29l10.667-0.064    c0.102,0.77,0.198,1.883,0.875,2.788c0.542,0.724,1.464,1.31,3.214,1.31l22.626-0.003v21.26c0,1.394-1.104,2.528-2.459,2.528    H7.228z" /></g></g><g
     id="g151"
     opacity="0.5"><path
       id="path153"
       opacity="0.08"
       enable-background="new    "
       d="M40.514,45h-33C4.476,45,2,42.521,2,39.484v4.219   C2,46.076,3.937,48,6.31,48h35.407C44.09,48,46,46.076,46,43.703v-4.219C46,42.521,43.551,45,40.514,45z" /><path
       id="path155"
       opacity="0.1"
       enable-background="new    "
       d="M40.486,45h-33C4.449,45,2,42.566,2,39.529v2.207   C2,44.109,3.046,47,7.283,47s29.112,0,33.405,0S46,44.109,46,41.736v-2.207C46,42.566,43.523,45,40.486,45z" /><path
       id="path157"
       opacity="0.1"
       enable-background="new    "
       d="M40.486,45h-33C4.449,45,2,42.566,2,39.529v1.191   C2,43.094,3.814,46,7.283,46s29.434,0,33.405,0C44.66,46,46,43.094,46,40.721v-1.191C46,42.566,43.523,45,40.486,45z" /><rect
       id="rect159"
       x="7"
       y="45"
       opacity="0.05"
       enable-background="new    "
       width="34"
       height="1" /><rect
       id="rect161"
       x="8"
       y="45"
       opacity="0.05"
       enable-background="new    "
       width="31"
       height="1" /><rect
       id="rect163"
       x="8"
       y="46"
       opacity="0.05"
       enable-background="new    "
       width="31"
       height="1" /><rect
       id="rect165"
       x="10"
       y="46"
       opacity="0.05"
       enable-background="new    "
       width="28"
       height="1" /><rect
       id="rect167"
       x="13"
       y="46"
       opacity="0.05"
       enable-background="new    "
       width="22"
       height="1" /><rect
       id="rect169"
       x="17"
       y="46"
       opacity="0.05"
       enable-background="new    "
       width="14"
       height="1" /><rect
       id="rect171"
       x="10"
       y="45"
       opacity="0.05"
       enable-background="new    "
       width="28"
       height="1" /><rect
       id="rect173"
       x="12"
       y="45"
       opacity="0.05"
       enable-background="new    "
       width="24"
       height="1" /><rect
       id="rect175"
       x="13"
       y="45"
       opacity="0.05"
       enable-background="new    "
       width="22"
       height="1" /><rect
       id="rect177"
       x="15"
       y="45"
       opacity="0.05"
       enable-background="new    "
       width="18"
       height="1" /><rect
       id="rect179"
       x="15"
       y="45"
       opacity="0.05"
       enable-background="new    "
       width="18"
       height="1" /></g><path
     id="path197"
     fill="#8FBCE5"
     d="M40.5,1h-33C4.462,1,2,3.463,2,6.5v33C2,42.537,4.462,45,7.5,45h33c3.037,0,5.5-2.463,5.5-5.5  v-33C46,3.463,43.537,1,40.5,1z M44.94,39.484c0,2.48-2.019,4.5-4.497,4.5H7.462c-2.481,0-4.497-2.02-4.497-4.5v-33  c0-2.482,2.016-4.5,4.497-4.5h32.981c2.479,0,4.497,2.018,4.497,4.5V39.484z"
     style="fill:#9dbcd7;fill-opacity:1" /><g
     id="g203"
     display="none"><polygon
       id="polygon205"
       display="inline"
       opacity="0.6"
       fill="#FFF8D9"
       enable-background="new    "
       points="17,36 17,29    13.062,29 23.992,18.889 28,22.544 28,22 31,22 31,25.304 35.033,29 31,29 31,36  " /><polygon
       id="polygon207"
       display="inline"
       opacity="0.8"
       fill="#8C6E22"
       enable-background="new    "
       points="17.5,35.5 17.5,28.5    14.339,28.5 23.995,19.567 28.5,23.677 28.5,22.5 30.5,22.5 30.5,25.523 33.748,28.5 30.5,28.5 30.5,35.5  " /><linearGradient
       id="polygon214_1_"
       gradientUnits="userSpaceOnUse"
       x1="315.0388"
       y1="-352.2461"
       x2="315.0388"
       y2="-367"
       gradientTransform="matrix(1 0 0 -1 -291 -332)"><stop
         offset="0"
         style="stop-color:#BFAA68"
         id="stop58" /><stop
         offset="1"
         style="stop-color:#CBA03B"
         id="stop60" /></linearGradient><polygon
       id="polygon214"
       display="inline"
       fill="url(#polygon214_1_)"
       points="18,35 18,28 15.616,28 23.997,20.246 29,24.81    29,23 30,23 30,25.743 32.462,28 30,28 30,35  " /></g><path
     id="path216"
     fill="none"
     d="M35.033,29" /><path
     id="path218"
     fill="none"
     d="M24,18.889" /><path
     id="path248"
     fill="none"
     d="M160.033,49" /><path
     id="path250"
     fill="none"
     d="M149,38.889" /><g
     id="g67"><linearGradient
       id="path123_1_"
       gradientUnits="userSpaceOnUse"
       x1="315.0002"
       y1="-340.5918"
       x2="315.0002"
       y2="-376.6097"
       gradientTransform="matrix(1 0 0 -1 -291 -332)"><stop
         offset="0"
         style="stop-color:#e4eefb;stop-opacity:1;"
         id="stop70" /><stop
         offset="1"
         style="stop-color:#d1e0ed;stop-opacity:1;"
         id="stop72" /></linearGradient><path
       id="path123"
       d="M44,11.984c-5.805,0-22.341,0.003-24,0.003c-2.016,0-2-1.987-2-1.987s0-2-2-2   C12.499,8,5.487,8,4,8c-1.969,0-2,1.928-2,1.989V39.5C2,42.537,4.463,45,7.5,45h33c3.037,0,5.5-2.463,5.5-5.5V14   C46,14,46,11.984,44,11.984z"
       fill="url(#path123_1_)" /><g
       id="g143"><path
         id="polygon145"
         d="M46,14L46,14L46,14z"
         fill="#EEFAFF" /><polygon
         id="polygon149"
         points="2,10.025 2,10 2,10.025   "
         fill="#EEFAFF" /><path
         id="path147"
         d="M20.5,12.487L44,12.484c1.411,0,1.997,1.261,2,1.515c0,0,0-2.015-2-2.015    c-5.805,0-22.341,0.003-24,0.003c-2.016,0-2-1.987-2-1.987s0-2-2-2C12.498,8,5.486,8,4,8c-2,0-2,2-2,2    c0.003-0.248,0.589-1.5,2-1.5h12c1.458,0,1.5,1.346,1.5,1.5c0,0.041,0,1.087,0.722,1.816c0.442,0.445,1.041,0.671,1.778,0.671    L20.5,12.487"
         fill="#EEFAFF" /></g><g
       id="g79"><path
         stroke-miterlimit="10"
         d="M7.5,43.5c-2.206,0-4-1.794-4-4V8.989    C3.523,8.5,3.766,8.5,4,8.5h12c0.175,0,0.5,0,0.5,0.5c-0.002,0.239,0.038,1.538,1.013,2.52c0.438,0.441,1.225,0.967,2.487,0.967    l24-0.003c0.224,0,0.478,0,0.5,0.543V39.5c0,2.206-1.794,4-4,4H7.5z"
         id="path81"
         stroke="#FFFFFF"
         fill="none"
         opacity="0.7" /><g
         id="g83"><path
           d="M40.507,45h-33c-3.033,0-5.5-2.468-5.5-5.5V8.99c0.016-0.994,0.641-1.989,2-1.989h12c1.579,0,2,1.257,2,2     c0,0.036,0.006,0.888,0.578,1.464c0.344,0.347,0.823,0.523,1.422,0.523l24-0.003c1.365,0,1.988,1.011,2,2.012V39.5     C46.007,42.532,43.539,45,40.507,45z M4.007,8.001c-0.856,0-0.994,0.625-1,0.997V39.5c0,2.481,2.019,4.5,4.5,4.5h33     c2.481,0,4.5-2.019,4.5-4.5V13.003c-0.004-0.376-0.141-1.018-1-1.018l-24,0.003c-0.876,0-1.594-0.276-2.132-0.819     c-0.843-0.85-0.868-2.036-0.868-2.168c0-0.3-0.098-1-1-1H4.007z"
           id="path85"
           fill="#8FBCE5" /><path
           d="M40.507,45h-33c-3.033,0-5.5-2.468-5.5-5.5V8.99c0.016-0.994,0.641-1.989,2-1.989h12c1.579,0,2,1.257,2,2     c0,0.036,0.006,0.888,0.578,1.464c0.344,0.347,0.823,0.523,1.422,0.523l24-0.003c1.365,0,1.988,1.011,2,2.012V39.5     C46.007,42.532,43.539,45,40.507,45z M4.007,8.001c-0.856,0-0.994,0.625-1,0.997V39.5c0,2.481,2.019,4.5,4.5,4.5h33     c2.481,0,4.5-2.019,4.5-4.5V13.003c-0.004-0.376-0.141-1.018-1-1.018l-24,0.003c-0.876,0-1.594-0.276-2.132-0.819     c-0.843-0.85-0.868-2.036-0.868-2.168c0-0.3-0.098-1-1-1H4.007z"
           id="path87"
           fill="#8FBCE5"
           style="fill:#9dbcd7;fill-opacity:1" /></g><path
         d="M44,9.967L20,9.97c-0.6,0-1.078-0.176-1.422-0.523C18.006,8.871,18,8.019,18,7.982c0-0.743-0.421-2-2-2H4    c-1.359,0-1.984,0.995-2,1.989v1.062c0.014-0.843,0.47-1.679,1.435-1.917C3.576,7.037,3.756,6.983,4,6.983h12    c0.232,0,0.409,0.047,0.546,0.12C17.678,7.357,18,8.397,18,9.045c0,0.036,0.006,0.888,0.578,1.464    c0.135,0.136,0.296,0.238,0.471,0.321c0.294,0.085,0.607,0.14,0.951,0.14l24-0.003c0.24,0,0.419,0.053,0.559,0.134    c0.974,0.238,1.431,1.09,1.441,1.941v-1.062C45.988,10.978,45.365,9.967,44,9.967z"
         id="path89"
         opacity="0.05" /></g></g><linearGradient
     id="path25_1_"
     gradientUnits="userSpaceOnUse"
     x1="642.9738"
     y1="773.0254"
     x2="642.9738"
     y2="792.192"
     gradientTransform="matrix(1 0 0 1 -564.6602 -757.96)"><stop
       offset="0"
       style="stop-color:#FFFFFF;stop-opacity:0.2"
       id="stop92" /><stop
       offset="0.08"
       style="stop-color:#FFFFFF;stop-opacity:0.9"
       id="stop94" /><stop
       offset="0.25"
       style="stop-color:#FFFFFF;stop-opacity:0.6"
       id="stop96" /><stop
       offset="1"
       style="stop-color:#FFFFFF;stop-opacity:0"
       id="stop98" /></linearGradient><path
     id="path25"
     fill="url(#path25_1_)"
     d="M99.313,26.836c0,2.491-0.66,4.229-4.994,4.229s-29.638,0-33.014,0  s-3.992-1.481-3.992-3.972l0.025-7.056c0-2.488,3.194-4.972,5.472-4.972h31.003c2.279,0,5.531,2.609,5.5,5.5V26.836z" /><g
     id="g27"
     opacity="0.8"><linearGradient
       id="path36_1_"
       gradientUnits="userSpaceOnUse"
       x1="295.3478"
       y1="-333.4479"
       x2="301.3581"
       y2="-343.8579"
       gradientTransform="matrix(1 0 0 -1 -291 -332)"><stop
         offset="0"
         style="stop-color:#FFFFFF"
         id="stop103" /><stop
         offset="0.5"
         style="stop-color:#FFFFFF;stop-opacity:0.6"
         id="stop105" /><stop
         offset="1"
         style="stop-color:#FFFFFF;stop-opacity:0.15"
         id="stop107" /></linearGradient><path
       id="path36"
       fill="url(#path36_1_)"
       d="M9.303,13.627c0.672-1.391,1.492-2.694,2.433-3.899l-1.712-3.754   c-1.462,1.382-2.649,2.905-3.596,4.384L9.303,13.627z" /><linearGradient
       id="path45_1_"
       gradientUnits="userSpaceOnUse"
       x1="300.7964"
       y1="-331.8896"
       x2="304.7298"
       y2="-338.7026"
       gradientTransform="matrix(1 0 0 -1 -291 -332)"><stop
         offset="0"
         style="stop-color:#FFFFFF"
         id="stop111" /><stop
         offset="0.5"
         style="stop-color:#FFFFFF;stop-opacity:0.6"
         id="stop113" /><stop
         offset="1"
         style="stop-color:#FFFFFF;stop-opacity:0.15"
         id="stop115" /></linearGradient><path
       id="path45"
       fill="url(#path45_1_)"
       d="M9.481,2.366l0.895,1.961c0.861-0.715,1.805-0.961,2.834-1.961H9.481z" /><linearGradient
       id="path54_1_"
       gradientUnits="userSpaceOnUse"
       x1="302.0345"
       y1="-330.5953"
       x2="306.8404"
       y2="-338.9194"
       gradientTransform="matrix(1 0 0 -1 -291 -332)"><stop
         offset="0"
         style="stop-color:#FFFFFF"
         id="stop119" /><stop
         offset="0.5"
         style="stop-color:#FFFFFF;stop-opacity:0.6"
         id="stop121" /><stop
         offset="1"
         style="stop-color:#FFFFFF;stop-opacity:0.15"
         id="stop123" /></linearGradient><path
       id="path54"
       fill="url(#path54_1_)"
       d="M16.196,2.366h-0.708c-1.785,1-3.346,1.763-4.685,2.903l1.641,3.6   c1.402-1.619,3.028-3.038,4.849-4.184c0.014-0.013,0.024-0.024,0.039-0.037C19.373,2.886,17.346,2.366,16.196,2.366z" /><linearGradient
       id="path63_1_"
       gradientUnits="userSpaceOnUse"
       x1="291.974"
       y1="-338.1939"
       x2="297.1894"
       y2="-347.2272"
       gradientTransform="matrix(1 0 0 -1 -291 -332)"><stop
         offset="0"
         style="stop-color:#FFFFFF"
         id="stop127" /><stop
         offset="0.5"
         style="stop-color:#FFFFFF;stop-opacity:0.6"
         id="stop129" /><stop
         offset="1"
         style="stop-color:#FFFFFF;stop-opacity:0.15"
         id="stop131" /></linearGradient><path
       id="path63"
       fill="url(#path63_1_)"
       d="M5.882,11.251c-1.098,1.869-1.815,3.596-2.241,4.777   c0.504,0.719,1.337,1.191,2.282,1.191c1.17,0,2.169-0.723,2.583-1.744c0.106-0.285,0.235-0.559,0.353-0.84L5.882,11.251z" /><linearGradient
       id="path72_1_"
       gradientUnits="userSpaceOnUse"
       x1="291.739"
       y1="-338.5643"
       x2="297.519"
       y2="-348.5756"
       gradientTransform="matrix(1 0 0 -1 -291 -332)"><stop
         offset="0"
         style="stop-color:#FFFFFF"
         id="stop135" /><stop
         offset="0.5"
         style="stop-color:#FFFFFF;stop-opacity:0.6"
         id="stop137" /><stop
         offset="1"
         style="stop-color:#FFFFFF;stop-opacity:0.15"
         id="stop139" /></linearGradient><path
       id="path72"
       fill="url(#path72_1_)"
       d="M3.157,8.15l-0.022,6.276c0,0,0,0.002,0,0.004c0,0.039,0.01,0.076,0.012,0.115   c0.477-1.161,1.143-2.58,2.047-4.079L3.157,8.15z" /><linearGradient
       id="path81_1_"
       gradientUnits="userSpaceOnUse"
       x1="296.2229"
       y1="-335.6222"
       x2="301.4355"
       y2="-344.6505"
       gradientTransform="matrix(1 0 0 -1 -291 -332)"><stop
         offset="0"
         style="stop-color:#FFFFFF"
         id="stop143" /><stop
         offset="0.5"
         style="stop-color:#FFFFFF;stop-opacity:0.6"
         id="stop145" /><stop
         offset="1"
         style="stop-color:#FFFFFF;stop-opacity:0.15"
         id="stop147" /></linearGradient><path
       id="path149"
       fill="url(#path81_1_)"
       d="M8.289,2.378c-1.479,0.08-4.724,2.128-5.069,4.33l2.53,2.877   c1.01-1.541,2.266-3.12,3.815-4.546L8.289,2.378z" /></g><g
     transform="translate(0,-5e-4)"
     id="g43"><path
       style="opacity:0.1;fill:#ffffff"
       inkscape:connector-curvature="0"
       id="path45_1_-5"
       enable-background="new    "
       d="m 18.129,33.045 c -1.75,0 -3.174,-1.424 -3.174,-3.174 V 18.129 c 0,-1.75 1.424,-3.174 3.174,-3.174 h 11.742 c 1.75,0 3.174,1.424 3.174,3.174 v 11.743 c 0,1.75 -1.424,3.174 -3.174,3.174 H 18.129 z m 11.742,-1.858 c 0.725,0 1.316,-0.59 1.316,-1.315 V 18.527 l -0.551,0.099 c -0.039,0.007 -0.959,0.17 -2.068,0.17 -0.115,0 -0.232,-0.002 -0.35,-0.005 0.012,0 -1.223,0.065 -2.219,0.368 0.129,0.044 0.207,0.1 0.266,0.182 0.016,0.021 0.035,0.063 0.059,0.125 l 0.117,-0.101 c 4.17,3.63 1.562,7.459 1.537,7.497 -1.332,1.868 -3.385,3.35 -5.014,4.325 h 6.907 z M 16.812,26.386 c 0.604,0.233 1.76,0.599 3.16,0.624 l 0.467,0.01 c 0.34,0.007 0.666,0.015 0.984,0.015 1.529,0 2.666,-0.176 3.947,-1.075 1.631,-1.143 1.449,-2.965 1.439,-3.041 -0.006,-0.319 -0.055,-0.638 -0.125,-0.941 -0.002,0.451 -0.043,0.918 -0.148,1.361 -0.012,0.07 -0.424,2.189 -2.43,2.697 -0.307,0.076 -0.617,0.115 -0.924,0.115 -1.232,0 -2.404,-0.612 -3.578,-1.874 -0.922,-0.991 -2.248,-3.703 -2.566,-6.876 -0.145,0.212 -0.227,0.465 -0.227,0.728 v 8.257 z m 6.159,-2.084 c 0.006,0 0.148,0.048 0.346,0.048 0.613,0 1.148,-0.44 1.553,-1.273 0.016,-0.027 0.334,-0.608 0.41,-1.84 -0.158,0.822 -0.477,1.766 -1.115,2.43 -0.041,0.047 -0.52,0.563 -1.092,0.563 -0.098,0 -0.203,-0.015 -0.309,-0.051 0.064,0.045 0.134,0.086 0.207,0.123 l 0,0 z m -0.102,-7.489 c -0.375,0.696 -1.293,2.623 -1.227,4.675 0,0.029 -0.018,0.928 0.355,1.74 -0.039,-0.121 -0.072,-0.257 -0.104,-0.408 -0.018,-0.064 -0.494,-2.113 2.043,-4.479 0.043,-0.042 0.854,-0.846 1.633,-1.528 h -2.7 z" /><path
       style="opacity:0.5;fill:#669ccc"
       inkscape:connector-curvature="0"
       id="path52"
       enable-background="new    "
       d="M 29.871,15.365 H 18.129 c -1.525,0 -2.764,1.237 -2.764,2.763 v 11.743 c 0,1.525 1.238,2.763 2.764,2.763 h 11.742 c 1.527,0 2.764,-1.237 2.764,-2.763 V 18.129 c 0,-1.526 -1.237,-2.764 -2.764,-2.764 z m 1.727,14.506 c 0,0.952 -0.773,1.728 -1.727,1.728 h -8.488 c 1.477,-0.765 4.525,-2.541 6.258,-4.974 0,0 2.469,-3.521 -1.469,-6.95 0,0 1.014,1.591 1.049,3.195 0,0 0.252,2.121 -1.613,3.426 -1.863,1.307 -3.494,1.164 -5.641,1.125 -1.717,-0.03 -3.084,-0.551 -3.564,-0.76 v -8.533 c 0,-0.687 0.406,-1.277 0.988,-1.555 0.148,3.458 1.596,6.432 2.516,7.422 0.941,1.012 2.328,2.087 4.102,1.64 1.773,-0.448 2.129,-2.392 2.129,-2.392 0.389,-1.657 -0.174,-3.622 -0.203,-3.664 -0.029,-0.041 -0.297,-0.087 -0.297,-0.087 0.283,2.607 -0.396,3.762 -0.396,3.762 -0.99,2.045 -2.453,1.415 -2.453,1.415 -1.627,-0.828 -1.555,-3.169 -1.555,-3.169 -0.08,-2.439 1.164,-4.699 1.396,-5.1 h 4.109 c -0.844,0.574 -2.52,2.241 -2.52,2.241 -2.389,2.227 -1.92,4.1 -1.92,4.1 0.387,1.965 1.568,0.639 1.568,0.639 1.246,-1.295 1.148,-3.871 1.148,-3.871 -0.506,0.083 -0.824,0.364 -0.824,0.364 -0.059,1.718 -1.066,2.784 -1.066,2.784 -0.393,0.435 -0.672,0.021 -0.672,0.021 -0.207,-0.311 0.205,-0.527 0.205,-0.527 0.576,-0.508 0.748,-1.373 0.738,-1.698 -0.008,-0.325 0.164,-0.414 0.164,-0.414 0.814,-0.632 1.629,-1.005 1.629,-1.005 1.092,-0.561 3.043,-0.656 3.043,-0.656 1.229,0.041 2.332,-0.158 2.332,-0.158 l 1.025,-0.185 c 0,0.031 0.008,0.061 0.008,0.092 v 11.744 z" /><path
       style="opacity:0.4;fill:#669ccc"
       inkscape:connector-curvature="0"
       id="path59"
       enable-background="new    "
       d="M 29.871,15.365 H 18.129 c -1.525,0 -2.764,1.237 -2.764,2.763 v 11.743 c 0,1.525 1.238,2.763 2.764,2.763 h 11.742 c 1.527,0 2.764,-1.237 2.764,-2.763 V 18.129 c 0,-1.526 -1.237,-2.764 -2.764,-2.764 z m -1.361,0.823 h 1.361 c 0.732,0 1.373,0.409 1.703,1.01 l -0.131,0.028 -1.025,0.186 c -0.008,0.001 -0.855,0.151 -1.85,0.151 -0.102,0 -0.205,-0.002 -0.309,-0.005 l -0.033,-0.001 -0.035,0.002 c -0.139,0.006 -0.979,0.054 -1.885,0.249 0.338,-0.299 0.66,-0.568 0.893,-0.727 l 1.311,-0.893 z m -6.703,0 c -0.41,0.754 -1.469,2.944 -1.396,5.319 -0.004,0.207 0.01,1.313 0.521,2.353 -0.139,-0.129 -0.281,-0.271 -0.424,-0.424 -0.844,-0.908 -2.16,-3.731 -2.295,-6.897 l -0.016,-0.351 h 3.61 z M 19.18,31.812 h -1.051 c -1.07,0 -1.941,-0.87 -1.941,-1.94 v -2.407 c 0.621,0.257 2.029,0.748 3.764,0.779 l 0.461,0.009 c 0.35,0.009 0.686,0.016 1.012,0.016 1.684,0 3.119,-0.221 4.656,-1.299 0.332,-0.232 0.607,-0.484 0.838,-0.748 -1.668,2.295 -4.686,4.012 -5.912,4.646 l -1.827,0.944 z m 12.418,-1.941 c 0,0.952 -0.773,1.728 -1.727,1.728 h -8.488 c 1.477,-0.765 4.525,-2.541 6.258,-4.974 0,0 2.469,-3.521 -1.469,-6.95 0,0 1.014,1.591 1.049,3.195 0,0 0.252,2.121 -1.613,3.426 -1.863,1.307 -3.494,1.164 -5.641,1.125 -1.717,-0.03 -3.084,-0.551 -3.564,-0.76 v -8.533 c 0,-0.687 0.406,-1.277 0.988,-1.555 0.148,3.458 1.596,6.432 2.516,7.422 0.941,1.012 2.328,2.087 4.102,1.64 1.773,-0.448 2.129,-2.392 2.129,-2.392 0.389,-1.657 -0.174,-3.622 -0.203,-3.664 -0.029,-0.041 -0.297,-0.087 -0.297,-0.087 0.283,2.607 -0.396,3.762 -0.396,3.762 -0.99,2.045 -2.453,1.415 -2.453,1.415 -1.627,-0.828 -1.555,-3.169 -1.555,-3.169 -0.08,-2.439 1.164,-4.699 1.396,-5.1 h 4.109 c -0.844,0.574 -2.52,2.241 -2.52,2.241 -2.389,2.227 -1.92,4.1 -1.92,4.1 0.387,1.965 1.568,0.639 1.568,0.639 1.246,-1.295 1.148,-3.871 1.148,-3.871 -0.506,0.083 -0.824,0.364 -0.824,0.364 -0.059,1.718 -1.066,2.784 -1.066,2.784 -0.393,0.435 -0.672,0.021 -0.672,0.021 -0.207,-0.311 0.205,-0.527 0.205,-0.527 0.576,-0.508 0.748,-1.373 0.738,-1.698 -0.008,-0.325 0.164,-0.414 0.164,-0.414 0.814,-0.632 1.629,-1.005 1.629,-1.005 1.092,-0.561 3.043,-0.656 3.043,-0.656 1.229,0.041 2.332,-0.158 2.332,-0.158 l 1.025,-0.185 c 0,0.031 0.008,0.061 0.008,0.092 v 11.744 z" /><g
       style="opacity:0.5"
       id="g61"><path
         style="opacity:0.5;fill:#669ccc"
         inkscape:connector-curvature="0"
         id="path68"
         enable-background="new    "
         d="m 30.49,17.817 c -0.008,0.001 -0.889,0.157 -1.922,0.157 -0.105,0 -0.215,-0.001 -0.322,-0.005 -0.117,0.004 -2.086,0.106 -3.244,0.7 -0.008,0.004 -0.195,0.09 -0.477,0.247 0.221,-0.216 1.697,-1.667 2.443,-2.175 L 28.07,15.99 h -5.678 l -0.119,0.205 c -0.258,0.442 -1.535,2.78 -1.451,5.319 -0.004,0.081 -0.059,2.586 1.779,3.521 0.053,0.024 0.324,0.136 0.715,0.136 0.543,0 1.561,-0.226 2.293,-1.738 0.004,-0.005 0.057,-0.096 0.127,-0.273 -0.035,0.162 -0.381,1.711 -1.83,2.077 -0.242,0.061 -0.484,0.092 -0.723,0.092 -0.992,0 -1.967,-0.528 -2.977,-1.612 -0.887,-0.955 -2.266,-3.891 -2.404,-7.161 l -0.027,-0.621 -0.561,0.267 c -0.744,0.354 -1.225,1.11 -1.225,1.926 v 8.803 l 0.248,0.106 c 0.527,0.229 1.945,0.762 3.721,0.794 l 0.463,0.01 c 0.346,0.007 0.678,0.015 1.002,0.015 1.65,-0.001 2.967,-0.205 4.42,-1.225 2.041,-1.43 1.797,-3.714 1.785,-3.81 -0.006,-0.263 -0.035,-0.525 -0.084,-0.779 1.133,2.329 -0.168,4.244 -0.24,4.346 -1.652,2.318 -4.537,4.03 -6.111,4.844 l -1.5,0.776 h 10.178 c 1.18,0 2.139,-0.959 2.139,-2.138 V 18.129 c 0,-0.038 -0.004,-0.075 -0.01,-0.111 l -0.062,-0.421 -0.422,0.036 -1.026,0.184 z m 1.108,0.312 v 11.743 c 0,0.952 -0.773,1.728 -1.727,1.728 h -8.488 c 1.477,-0.765 4.525,-2.541 6.258,-4.974 0,0 2.469,-3.521 -1.469,-6.95 0,0 1.014,1.591 1.049,3.195 0,0 0.252,2.121 -1.613,3.426 -1.863,1.307 -3.494,1.164 -5.641,1.125 -1.717,-0.03 -3.084,-0.551 -3.564,-0.76 v -8.533 c 0,-0.687 0.406,-1.277 0.988,-1.555 0.148,3.458 1.596,6.432 2.516,7.422 0.941,1.012 2.328,2.087 4.102,1.64 1.773,-0.448 2.129,-2.392 2.129,-2.392 0.389,-1.657 -0.174,-3.622 -0.203,-3.664 -0.029,-0.041 -0.297,-0.087 -0.297,-0.087 0.283,2.607 -0.396,3.762 -0.396,3.762 -0.99,2.045 -2.453,1.415 -2.453,1.415 -1.627,-0.828 -1.555,-3.169 -1.555,-3.169 -0.08,-2.439 1.164,-4.699 1.396,-5.1 h 4.109 c -0.844,0.574 -2.52,2.241 -2.52,2.241 -2.389,2.227 -1.92,4.1 -1.92,4.1 0.387,1.965 1.568,0.639 1.568,0.639 1.246,-1.295 1.148,-3.871 1.148,-3.871 -0.506,0.083 -0.824,0.364 -0.824,0.364 -0.059,1.718 -1.066,2.784 -1.066,2.784 -0.393,0.435 -0.672,0.021 -0.672,0.021 -0.207,-0.311 0.205,-0.527 0.205,-0.527 0.576,-0.508 0.748,-1.373 0.738,-1.698 -0.008,-0.325 0.164,-0.414 0.164,-0.414 0.814,-0.632 1.629,-1.005 1.629,-1.005 1.092,-0.561 3.043,-0.656 3.043,-0.656 1.229,0.041 2.332,-0.158 2.332,-0.158 l 1.025,-0.185 c 0.001,0.032 0.009,0.061 0.009,0.093 z m -8.7,5.127 c 0.152,-0.028 0.342,-0.113 0.529,-0.322 0.039,-0.039 1.031,-1.107 1.162,-2.837 l 0,0 c -0.047,0.786 -0.244,2.197 -1.018,3 -0.125,0.137 -0.357,0.312 -0.5,0.312 -0.05,-0.002 -0.11,-0.05 -0.173,-0.153 z" /><path
         style="opacity:0.5;fill:#669ccc"
         inkscape:connector-curvature="0"
         id="path75"
         enable-background="new    "
         d="M 29.871,15.365 H 18.129 c -1.525,0 -2.764,1.237 -2.764,2.763 v 11.743 c 0,1.525 1.238,2.763 2.764,2.763 h 11.742 c 1.527,0 2.764,-1.237 2.764,-2.763 V 18.129 c 0,-1.526 -1.237,-2.764 -2.764,-2.764 z m 2.352,14.506 c 0,1.297 -1.055,2.352 -2.352,2.352 H 18.129 c -1.297,0 -2.352,-1.055 -2.352,-2.352 V 18.129 c 0,-1.297 1.055,-2.352 2.352,-2.352 h 11.742 c 1.297,0 2.352,1.055 2.352,2.352 v 11.742 z" /></g><g
       id="g77"><path
         style="opacity:0.05;fill:#ffffff"
         inkscape:connector-curvature="0"
         id="path79"
         enable-background="new    "
         d="m 30.564,18.221 c 0,0 -1.104,0.199 -2.332,0.158 0,0 -1.951,0.095 -3.043,0.656 0,0 -0.814,0.374 -1.629,1.005 0,0 -0.172,0.089 -0.164,0.414 0.01,0.325 -0.162,1.19 -0.738,1.698 0,0 -0.412,0.217 -0.205,0.527 0,0 0.279,0.413 0.672,-0.021 0,0 1.008,-1.066 1.066,-2.784 0,0 0.318,-0.281 0.824,-0.364 0,0 0.098,2.576 -1.148,3.871 0,0 -1.182,1.326 -1.568,-0.639 0,0 -0.469,-1.873 1.92,-4.1 0,0 1.676,-1.667 2.52,-2.241 H 22.63 c -0.232,0.401 -1.477,2.66 -1.396,5.1 0,0 -0.072,2.341 1.555,3.169 0,0 1.463,0.63 2.453,-1.415 0,0 0.68,-1.154 0.396,-3.762 0,0 0.268,0.046 0.297,0.087 0.029,0.042 0.592,2.006 0.203,3.664 0,0 -0.355,1.943 -2.129,2.392 -1.773,0.447 -3.16,-0.628 -4.102,-1.64 -0.92,-0.99 -2.367,-3.964 -2.516,-7.422 -0.582,0.277 -0.988,0.868 -0.988,1.555 v 8.533 c 0.48,0.209 1.848,0.729 3.564,0.76 2.146,0.039 3.777,0.182 5.641,-1.125 1.865,-1.305 1.613,-3.426 1.613,-3.426 -0.035,-1.604 -1.049,-3.195 -1.049,-3.195 3.938,3.429 1.469,6.95 1.469,6.95 -1.732,2.433 -4.781,4.209 -6.258,4.974 h 8.488 c 0.953,0 1.727,-0.775 1.727,-1.728 V 18.129 c 0,-0.032 -0.008,-0.061 -0.008,-0.092 l -1.026,0.184 z m -8.357,1.571 c 0.225,-1.089 0.637,-2.022 0.912,-2.568 h 1.387 c -0.473,0.443 -0.832,0.801 -0.85,0.817 -0.652,0.61 -1.117,1.202 -1.449,1.751 z m -0.783,6.831 c -0.314,0 -0.639,-0.007 -0.975,-0.015 l -0.469,-0.01 c -1.164,-0.021 -2.154,-0.29 -2.756,-0.5 v -5.695 c 0.555,1.853 1.369,3.388 2.08,4.154 1.141,1.225 2.291,1.879 3.508,1.988 -0.425,0.06 -0.88,0.078 -1.388,0.078 z m 9.351,3.248 c 0,0.499 -0.406,0.905 -0.904,0.905 h -5.502 c 1.357,-0.927 2.875,-2.178 3.945,-3.679 0.027,-0.041 2.705,-3.969 -1.283,-7.753 0.531,-0.091 1.01,-0.129 1.195,-0.142 0.115,0.003 0.229,0.005 0.342,0.005 1.152,0 2.102,-0.17 2.143,-0.177 l 0.064,-0.012 v 10.853 z" /><path
         style="opacity:0.05;fill:#ffffff"
         inkscape:connector-curvature="0"
         id="path81_1_-1"
         enable-background="new    "
         d="M 29.871,14.544 H 18.129 c -1.977,0 -3.586,1.608 -3.586,3.585 v 11.743 c 0,1.977 1.609,3.585 3.586,3.585 h 11.742 c 1.977,0 3.586,-1.608 3.586,-3.585 V 18.129 c 0,-1.977 -1.609,-3.585 -3.586,-3.585 z m 2.764,15.327 c 0,1.525 -1.236,2.763 -2.764,2.763 H 18.129 c -1.525,0 -2.764,-1.237 -2.764,-2.763 V 18.129 c 0,-1.526 1.238,-2.763 2.764,-2.763 h 11.742 c 1.527,0 2.764,1.237 2.764,2.763 v 11.742 z" /></g><g
       style="opacity:0.2"
       id="g161"
       enable-background="new    "><path
         style="opacity:0.9;fill:#ffffff"
         inkscape:connector-curvature="0"
         id="path163"
         enable-background="new    "
         d="m 27.641,27.037 c 0,0 0.824,-1.18 0.758,-2.837 -0.066,1.438 -0.758,2.425 -0.758,2.425 -1.732,2.433 -4.781,4.209 -6.258,4.974 h 0.76 c 1.601,-0.901 4.023,-2.493 5.498,-4.562 z" /><path
         style="opacity:0.9;fill:#ffffff"
         inkscape:connector-curvature="0"
         id="path165"
         enable-background="new    "
         d="m 22.299,23.153 c 0.387,1.965 1.568,0.641 1.568,0.641 1.246,-1.295 1.148,-3.872 1.148,-3.872 -0.002,0 -0.004,10e-4 -0.004,10e-4 -0.029,0.78 -0.205,2.483 -1.145,3.458 0,0 -1.182,1.326 -1.568,-0.639 0,0 -0.018,-0.073 -0.029,-0.204 -0.025,0.386 0.03,0.615 0.03,0.615 z" /><path
         style="opacity:0.9;fill:#ffffff"
         inkscape:connector-curvature="0"
         id="path167"
         enable-background="new    "
         d="m 21.232,21.577 c 0,-0.023 0,-0.046 0,-0.069 0,0.006 0,0.029 0,0.069 z" /><path
         style="opacity:0.9;fill:#ffffff"
         inkscape:connector-curvature="0"
         id="path91"
         enable-background="new    "
         d="m 25.674,19.911 c -0.021,-0.004 -0.037,-0.007 -0.037,-0.007 0.041,0.367 0.061,0.702 0.064,1.013 0.008,-0.303 0,-0.637 -0.027,-1.006 z" /><path
         style="opacity:0.9;fill:#ffffff"
         inkscape:connector-curvature="0"
         id="path93"
         enable-background="new    "
         d="m 22.629,16.402 c -0.23,0.398 -1.461,2.632 -1.396,5.055 0.072,-2.26 1.178,-4.268 1.396,-4.643 h 3.574 c 0.195,-0.163 0.379,-0.306 0.535,-0.412 h -4.109 z" /><path
         style="opacity:0.9;fill:#ffffff"
         inkscape:connector-curvature="0"
         id="path95"
         enable-background="new    "
         d="M 29.871,32.634 H 18.129 c -1.525,0 -2.764,-1.237 -2.764,-2.763 v 0.41 c 0,1.527 1.238,2.764 2.764,2.764 h 11.742 c 1.527,0 2.764,-1.236 2.764,-2.764 v -0.41 c 0,1.526 -1.237,2.763 -2.764,2.763 z" /><path
         style="opacity:0.9;fill:#ffffff"
         inkscape:connector-curvature="0"
         id="path97"
         enable-background="new    "
         d="m 31.59,18.036 -1.025,0.185 c 0,0 -1.104,0.199 -2.332,0.158 0,0 -1.951,0.095 -3.043,0.656 0,0 -0.814,0.374 -1.629,1.005 0,0 -0.172,0.089 -0.164,0.414 0.01,0.325 -0.162,1.19 -0.738,1.698 0,0 -0.412,0.217 -0.205,0.527 0,0 0.01,0.014 0.023,0.031 0.078,-0.094 0.182,-0.147 0.182,-0.147 0.576,-0.509 0.748,-1.373 0.738,-1.698 -0.008,-0.325 0.164,-0.414 0.164,-0.414 0.213,-0.164 0.424,-0.31 0.621,-0.438 0.002,-0.047 0.008,-0.092 0.01,-0.14 0,0 0.318,-0.281 0.824,-0.364 0,0 0,0.011 0,0.022 0.107,-0.055 0.174,-0.086 0.174,-0.086 1.092,-0.561 3.043,-0.655 3.043,-0.655 1.229,0.04 2.332,-0.159 2.332,-0.159 l 1.025,-0.185 c 0,0.031 0.008,0.061 0.008,0.092 v -0.411 c 0,-0.03 -0.008,-0.059 -0.008,-0.091 z" /><path
         style="opacity:0.9;fill:#ffffff"
         inkscape:connector-curvature="0"
         id="path99"
         enable-background="new    "
         d="m 19.906,23.996 c -0.92,-0.99 -2.367,-3.964 -2.516,-7.422 -0.582,0.277 -0.988,0.868 -0.988,1.555 v 0.411 c 0,-0.687 0.406,-1.277 0.988,-1.555 0.148,3.458 1.596,6.434 2.516,7.424 0.941,1.011 2.328,2.086 4.102,1.638 1.773,-0.447 2.129,-2.392 2.129,-2.392 0.117,-0.496 0.146,-1.021 0.133,-1.512 -0.01,0.366 -0.047,0.74 -0.133,1.102 0,0 -0.355,1.943 -2.129,2.392 -1.774,0.446 -3.16,-0.629 -4.102,-1.641 z" /></g><g
       id="g101"><path
         style="opacity:0.5;fill:#669ccc"
         inkscape:connector-curvature="0"
         id="path108"
         enable-background="new    "
         d="m 22.27,22.525 c 0.045,-0.726 0.379,-2.033 1.949,-3.497 0,0 1.676,-1.667 2.52,-2.241 h -0.504 c -0.873,0.719 -2.016,1.855 -2.016,1.855 -1.91,1.781 -1.992,3.331 -1.949,3.883 z" /><path
         style="opacity:0.5;fill:#669ccc"
         inkscape:connector-curvature="0"
         id="path115"
         enable-background="new    "
         d="m 26.172,19.675 c 0,0 0.189,0.298 0.406,0.765 1.346,1.327 1.781,2.646 1.822,3.751 0.057,-1.276 -0.379,-2.907 -2.228,-4.516 z" /><path
         style="opacity:0.5;fill:#669ccc"
         inkscape:connector-curvature="0"
         id="path122"
         enable-background="new    "
         d="m 25.934,19.581 c -0.029,-0.041 -0.297,-0.087 -0.297,-0.087 0.016,0.135 0.025,0.265 0.035,0.392 0.072,0.014 0.238,0.049 0.262,0.081 0.021,0.03 0.303,1.011 0.336,2.166 0.033,-1.315 -0.313,-2.519 -0.336,-2.552 z" /><path
         style="opacity:0.5;fill:#669ccc"
         inkscape:connector-curvature="0"
         id="path129"
         enable-background="new    "
         d="m 21.232,21.431 c -0.002,0.025 0,0.051 0,0.076 0,-0.001 0,-0.006 0,-0.006 -0.002,-0.023 0,-0.046 0,-0.07 z" /><path
         style="opacity:0.5;fill:#669ccc"
         inkscape:connector-curvature="0"
         id="path136"
         enable-background="new    "
         d="m 23.125,22.658 c -0.34,0.377 -0.594,0.118 -0.656,0.041 -0.07,0.094 -0.115,0.219 -0.016,0.366 0,0 0.279,0.413 0.672,-0.021 0,0 1.008,-1.068 1.066,-2.785 0,0 0.318,-0.279 0.82,-0.363 0.008,-0.238 0.004,-0.387 0.004,-0.387 -0.004,0.001 -0.008,0.002 -0.012,0.002 -0.182,0.093 -0.477,0.253 -0.822,0.475 -0.095,1.652 -1.056,2.672 -1.056,2.672 z" /><path
         style="opacity:0.5;fill:#669ccc"
         inkscape:connector-curvature="0"
         id="path143"
         enable-background="new    "
         d="M 29.871,15.365 H 18.129 c -1.525,0 -2.764,1.237 -2.764,2.763 v 0.386 c 0,-1.526 1.238,-2.763 2.764,-2.763 h 11.742 c 1.527,0 2.764,1.237 2.764,2.763 v -0.386 c 0,-1.525 -1.237,-2.763 -2.764,-2.763 z" /><path
         style="opacity:0.5;fill:#669ccc"
         inkscape:connector-curvature="0"
         id="path150"
         enable-background="new    "
         d="m 19.967,27.807 c 2.146,0.039 3.777,0.182 5.641,-1.125 1.676,-1.173 1.643,-3 1.619,-3.358 -0.035,0.693 -0.287,2.039 -1.619,2.973 -1.863,1.307 -3.494,1.164 -5.641,1.125 -1.717,-0.03 -3.084,-0.551 -3.564,-0.76 v 0.386 c 0.48,0.208 1.847,0.728 3.564,0.759 z" /><path
         style="opacity:0.5;fill:#669ccc"
         inkscape:connector-curvature="0"
         id="path157_1_"
         enable-background="new    "
         d="m 22.787,25.056 c 0,0 1.463,0.63 2.453,-1.415 0,0 0.496,-0.85 0.461,-2.73 -0.033,1.611 -0.461,2.345 -0.461,2.345 -0.99,2.045 -2.453,1.415 -2.453,1.415 -1.457,-0.742 -1.551,-2.693 -1.555,-3.092 -0.002,0.104 -0.004,0.205 0,0.309 0,-0.001 -0.072,2.34 1.555,3.168 z" /><path
         style="opacity:0.5;fill:#669ccc"
         inkscape:connector-curvature="0"
         id="path164"
         enable-background="new    "
         d="m 29.871,31.984 c 0.953,0 1.727,-0.774 1.727,-1.727 v -0.386 c 0,0.952 -0.773,1.728 -1.727,1.728 h -7.773 c -0.264,0.146 -0.506,0.277 -0.715,0.385 h 8.488 z" /></g></g></svg>