<?xml version="1.0" encoding="utf-8"?>
<!-- Generator: Adobe Illustrator 17.0.0, SVG Export Plug-In . SVG Version: 6.00 Build 0)  -->
<!DOCTYPE svg PUBLIC "-//W3C//DTD SVG 1.1//EN" "http://www.w3.org/Graphics/SVG/1.1/DTD/svg11.dtd">
<svg version="1.1" id="图层_1" xmlns="http://www.w3.org/2000/svg" xmlns:xlink="http://www.w3.org/1999/xlink" x="0px" y="0px"
	 width="16px" height="16px" viewBox="0 0 16 16" enable-background="new 0 0 16 16" xml:space="preserve">
<g>
	<g>
		<path fill="#3C3C3C" d="M15,16H1V1h14V16z M2,15h12V2H2V15z"/>
	</g>
	<g>
		<rect x="5" y="2" fill="#3C3C3C" width="1" height="13"/>
	</g>
	<g>
		<rect x="10" y="2" fill="#3C3C3C" width="1" height="13"/>
	</g>
	<g>
		<rect x="2" y="4" fill="#3C3C3C" width="3" height="1"/>
	</g>
	<g>
		<rect x="2" y="8" fill="#3C3C3C" width="3" height="1"/>
	</g>
	<g>
		<rect x="6" y="8" fill="#3C3C3C" width="8" height="1"/>
	</g>
	<g>
		<rect x="2" y="12" fill="#3C3C3C" width="3" height="1"/>
	</g>
	<g>
		<rect x="11" y="4" fill="#3C3C3C" width="3" height="1"/>
	</g>
	<g>
		<rect x="11" y="12" fill="#3C3C3C" width="3" height="1"/>
	</g>
</g>
<rect x="6" y="2" fill="#F0F0F0" width="4" height="6"/>
<rect x="6" y="9" fill="#F0F0F0" width="4" height="6"/>
<path fill="#3C3C3C" d="M23.542,1.292v15h14v-15H23.542z M24.542,2.292h3v2h-3V2.292z M24.542,5.292h3v3h-3V5.292z M24.542,9.292h3
	v3h-3V9.292z M24.542,15.292v-2h3v2H24.542z M36.542,15.292h-3v-2h3V15.292z M36.542,12.292h-3v-3h3V12.292z M36.542,8.292h-3v-3h3
	V8.292z M36.542,4.292h-3v-2h3V4.292z"/>
<path fill="#3C3C3C" d="M16.445,26.307H4.751c-0.639,0-1.157,0.555-1.157,1.237v12.525c0,0.684,0.518,1.237,1.157,1.237h11.694
	c0.639,0,1.157-0.555,1.157-1.237V27.546C17.602,26.862,17.084,26.307,16.445,26.307z"/>
<rect x="4.64" y="34.385" fill="#FFFFFF" width="2.259" height="2.308"/>
<rect x="4.64" y="30.924" fill="#FFFFFF" width="2.259" height="2.308"/>
<rect x="4.64" y="27.462" fill="#FFFFFF" width="2.259" height="2.308"/>
<rect x="7.9" y="34.391" fill="#666666" width="5.396" height="5.898"/>
<rect x="7.9" y="27.4" fill="#666666" width="5.396" height="5.898"/>
<rect x="14.334" y="34.391" fill="#FFFFFF" width="2.281" height="2.33"/>
<rect x="14.334" y="30.895" fill="#FFFFFF" width="2.281" height="2.33"/>
<rect x="14.334" y="27.4" fill="#FFFFFF" width="2.281" height="2.33"/>
<rect x="17.25" y="-5.375" fill="#3C3C3C" width="6" height="7"/>
<rect x="41.525" y="-3" fill="#B4B4B4" width="4" height="5"/>
</svg>
