<?xml version="1.0" encoding="utf-8"?>
<!-- Generator: Adobe Illustrator 17.0.0, SVG Export Plug-In . SVG Version: 6.00 Build 0)  -->
<!DOCTYPE svg PUBLIC "-//W3C//DTD SVG 1.1//EN" "http://www.w3.org/Graphics/SVG/1.1/DTD/svg11.dtd">
<svg version="1.1" id="图层_1" xmlns="http://www.w3.org/2000/svg" xmlns:xlink="http://www.w3.org/1999/xlink" x="0px" y="0px"
	 width="16px" height="16px" viewBox="0 0 16 16" enable-background="new 0 0 16 16" xml:space="preserve">
<path fill="#3C3C3C" d="M15.778,8.5L14,6.722V2h-1h-2v1v0.722l-3-3L6.586,2.136L0.222,8.5l1.414,1.414L2,9.55V15v1h4h4h3h1v-1V9.55
	l0.364,0.364L15.778,8.5z M12,3h1v2.722l-1-1V3z M7,15v-3h2v3H7z M13,15h-3v-4H6v4H3V8.55l5-5l5,5V15z"/>
<g>
	<line fill="none" stroke="#3C3C3C" x1="31.693" y1="8.071" x2="31.693" y2="16.071"/>
	<line fill="none" stroke="#3C3C3C" x1="31.193" y1="16.571" x2="43.193" y2="16.571"/>
	<line fill="none" stroke="#3C3C3C" x1="42.693" y1="17.071" x2="42.693" y2="3.071"/>
</g>
<rect x="35.693" y="12.571" fill="none" stroke="#3C3C3C" width="3" height="4"/>
<line fill="none" stroke="#3C3C3C" x1="40.193" y1="3.571" x2="42.193" y2="3.571"/>
<line fill="none" stroke="#3C3C3C" x1="40.693" y1="4.071" x2="40.693" y2="7.071"/>
<g>
	<line fill="none" stroke="#3C3C3C" stroke-width="2" x1="44.264" y1="10.278" x2="36.486" y2="2.5"/>
	<line fill="none" stroke="#3C3C3C" stroke-width="2" x1="30.122" y1="10.278" x2="37.9" y2="2.5"/>
</g>
</svg>
