<?xml version="1.0" encoding="UTF-8" standalone="no"?>
<!-- Generator: Adobe Illustrator 17.0.0, SVG Export Plug-In . SVG Version: 6.00 Build 0)  -->

<svg
   xmlns:dc="http://purl.org/dc/elements/1.1/"
   xmlns:cc="http://creativecommons.org/ns#"
   xmlns:rdf="http://www.w3.org/1999/02/22-rdf-syntax-ns#"
   xmlns:svg="http://www.w3.org/2000/svg"
   xmlns="http://www.w3.org/2000/svg"
   xmlns:xlink="http://www.w3.org/1999/xlink"
   xmlns:sodipodi="http://sodipodi.sourceforge.net/DTD/sodipodi-0.dtd"
   xmlns:inkscape="http://www.inkscape.org/namespaces/inkscape"
   version="1.1"
   id="图层_1"
   inkscape:version="0.48.4 r9939"
   sodipodi:docname="folder-saved-search.svg"
   x="0px"
   y="0px"
   width="48px"
   height="48px"
   viewBox="0 0 48 48"
   enable-background="new 0 0 48 48"
   xml:space="preserve"><metadata
     id="metadata153"><rdf:RDF><cc:Work
         rdf:about=""><dc:format>image/svg+xml</dc:format><dc:type
           rdf:resource="http://purl.org/dc/dcmitype/StillImage" /><dc:title></dc:title></cc:Work></rdf:RDF></metadata><defs
     id="defs151"><linearGradient
       id="path3347_1_"
       gradientUnits="userSpaceOnUse"
       x1="879.66052"
       y1="-1124.1611"
       x2="879.66052"
       y2="-1107.6879"
       gradientTransform="matrix(1,0,0,-1,-855.6602,-1091.96)"><stop
         offset="0"
         style="stop-color:#a2c8f1;stop-opacity:0.78430003;"
         id="stop155" /><stop
         offset="1"
         style="stop-color:#6eaee6;stop-opacity:0.39219999;"
         id="stop157" /></linearGradient><linearGradient
       id="rect2941_2_"
       gradientUnits="userSpaceOnUse"
       x1="590.66058"
       y1="792.53833"
       x2="590.66058"
       y2="778.87122"
       gradientTransform="translate(-566.6602,-761.96)"><stop
         offset="0"
         style="stop-color:#a5c8ee;stop-opacity:0.78430003;"
         id="stop155-3" /><stop
         offset="1"
         style="stop-color:#6eaee6;stop-opacity:0.39219999;"
         id="stop157-8" /></linearGradient></defs><sodipodi:namedview
     inkscape:current-layer="图层_1"
     inkscape:window-maximized="0"
     inkscape:window-y="149"
     inkscape:window-x="1173"
     inkscape:window-height="480"
     inkscape:window-width="702"
     inkscape:pageshadow="2"
     inkscape:pageopacity="0"
     inkscape:cy="26.77801"
     inkscape:cx="25.585848"
     inkscape:zoom="5.6568542"
     showgrid="false"
     guidetolerance="10"
     gridtolerance="10"
     objecttolerance="10"
     borderopacity="1"
     pagecolor="#ffffff"
     bordercolor="#666666"
     id="namedview252"
     showguides="true"
     inkscape:guide-bbox="true"><sodipodi:guide
       orientation="-0.70710678,0.70710678"
       position="-135.41095,99.52528"
       id="guide3130" /></sodipodi:namedview><radialGradient
     id="ellipse10_1_"
     cx="315"
     cy="-2047.0854"
     r="23.9962"
     gradientTransform="matrix(1 0 0 -0.1841 -291 -333.2854)"
     gradientUnits="userSpaceOnUse"><stop
       offset="0"
       style="stop-color:#000000;stop-opacity:0.6"
       id="stop5" /><stop
       offset="0.8996"
       style="stop-color:#000000;stop-opacity:0.0603"
       id="stop7" /><stop
       offset="1"
       style="stop-color:#000000;stop-opacity:0"
       id="stop9" /></radialGradient><ellipse
     id="ellipse10"
     display="none"
     fill="url(#ellipse10_1_)"
     cx="24"
     cy="43.583"
     rx="24"
     ry="4.417" /><linearGradient
     id="path12_1_"
     gradientUnits="userSpaceOnUse"
     x1="24"
     y1="45"
     x2="24"
     y2="1"><stop
       offset="0"
       style="stop-color:#c2d3e1;stop-opacity:1;"
       id="stop13" /><stop
       offset="0.4314"
       style="stop-color:#AFD3E2"
       id="stop15" /><stop
       offset="1"
       style="stop-color:#cadff0;stop-opacity:1;"
       id="stop17" /></linearGradient><path
     id="path12"
     fill="url(#path12_1_)"
     d="M46,39.5c0,3.037-2.463,5.5-5.5,5.5h-33C4.462,45,2,42.537,2,39.5v-33  C2,3.462,4.462,1,7.5,1h33C43.537,1,46,3.462,46,6.5V39.5z" /><path
     id="path188"
     fill="#FFFFFF"
     enable-background="new    "
     d="M40.5,2H7.499C5.017,2,3,4.018,3,6.5v33  C3,41.98,5.017,44,7.499,44H40.5c2.48,0,4.5-2.02,4.5-4.5v-33C45,4.018,42.98,2,40.5,2z M44,39.5c0,1.933-1.567,3.5-3.5,3.5h-33  C5.567,43,4,41.433,4,39.5v-33C4,4.567,5.567,3,7.5,3h33C42.433,3,44,4.567,44,6.5V39.5z" /><linearGradient
     id="path98_1_"
     gradientUnits="userSpaceOnUse"
     x1="314.9998"
     y1="-333.0005"
     x2="314.9998"
     y2="-377"
     gradientTransform="matrix(1 0 0 -1 -291 -332)"><stop
       offset="0"
       style="stop-color:#000000;stop-opacity:0.1"
       id="stop22" /><stop
       offset="1"
       style="stop-color:#000000;stop-opacity:0.8"
       id="stop24" /></linearGradient><path
     id="path98"
     opacity="0.5"
     fill="url(#path98_1_)"
     fill-opacity="0.8"
     enable-background="new    "
     d="M40.5,1h-33  C4.462,1,2,3.463,2,6.5v33C2,42.537,4.462,45,7.5,45h33c3.037,0,5.5-2.463,5.5-5.5v-33C46,3.463,43.537,1,40.5,1z M44.94,39.484  c0,2.48-2.019,4.5-4.497,4.5H7.462c-2.481,0-4.497-2.02-4.497-4.5v-33c0-2.482,2.016-4.5,4.497-4.5h32.981  c2.479,0,4.497,2.018,4.497,4.5V39.484z" /><g
     id="g125"
     display="none"
     opacity="0.3"><defs
       id="defs28"><filter
         id="Adobe_OpacityMaskFilter"
         filterUnits="userSpaceOnUse"
         x="4.769"
         y="13.895"
         width="37.382"
         height="27.883"><feColorMatrix
           type="matrix"
           values="1 0 0 0 0  0 1 0 0 0  0 0 1 0 0  0 0 0 1 0"
           id="feColorMatrix31" /></filter></defs><mask
       maskUnits="userSpaceOnUse"
       x="4.769"
       y="13.895"
       width="37.382"
       height="27.883"
       id="SVGID_11_"
       display="inline"><g
         id="g135"
         filter="url(#Adobe_OpacityMaskFilter)"><image
           sodipodi:absref="/usr/share/icons/Deepin/places/48/DEB81AAE695B461C.jpeg"
           xlink:href="DEB81AAE695B461C.jpeg"
           transform="matrix(0.232 0 0 0.2313 2.7686 11.8945)"
           id="image137"
           height="138"
           width="179"
           enable-background="new    "
           overflow="visible" /></g></mask><g
       id="g139"
       display="inline"
       mask="url(#SVGID_11_)"><path
         id="path141"
         fill="#FFF2B3"
         d="M7.228,41.777c-1.356,0-2.459-1.135-2.459-2.528v-25.29l10.667-0.064    c0.102,0.77,0.198,1.883,0.875,2.788c0.542,0.724,1.464,1.31,3.214,1.31l22.626-0.003v21.26c0,1.394-1.104,2.528-2.459,2.528    H7.228z" /></g></g><g
     id="g151"
     opacity="0.5"><path
       id="path153"
       opacity="0.08"
       enable-background="new    "
       d="M40.514,45h-33C4.476,45,2,42.521,2,39.484v4.219   C2,46.076,3.937,48,6.31,48h35.407C44.09,48,46,46.076,46,43.703v-4.219C46,42.521,43.551,45,40.514,45z" /><path
       id="path155"
       opacity="0.1"
       enable-background="new    "
       d="M40.486,45h-33C4.449,45,2,42.566,2,39.529v2.207   C2,44.109,3.046,47,7.283,47s29.112,0,33.405,0S46,44.109,46,41.736v-2.207C46,42.566,43.523,45,40.486,45z" /><path
       id="path157"
       opacity="0.1"
       enable-background="new    "
       d="M40.486,45h-33C4.449,45,2,42.566,2,39.529v1.191   C2,43.094,3.814,46,7.283,46s29.434,0,33.405,0C44.66,46,46,43.094,46,40.721v-1.191C46,42.566,43.523,45,40.486,45z" /><rect
       id="rect159"
       x="7"
       y="45"
       opacity="0.05"
       enable-background="new    "
       width="34"
       height="1" /><rect
       id="rect161"
       x="8"
       y="45"
       opacity="0.05"
       enable-background="new    "
       width="31"
       height="1" /><rect
       id="rect163"
       x="8"
       y="46"
       opacity="0.05"
       enable-background="new    "
       width="31"
       height="1" /><rect
       id="rect165"
       x="10"
       y="46"
       opacity="0.05"
       enable-background="new    "
       width="28"
       height="1" /><rect
       id="rect167"
       x="13"
       y="46"
       opacity="0.05"
       enable-background="new    "
       width="22"
       height="1" /><rect
       id="rect169"
       x="17"
       y="46"
       opacity="0.05"
       enable-background="new    "
       width="14"
       height="1" /><rect
       id="rect171"
       x="10"
       y="45"
       opacity="0.05"
       enable-background="new    "
       width="28"
       height="1" /><rect
       id="rect173"
       x="12"
       y="45"
       opacity="0.05"
       enable-background="new    "
       width="24"
       height="1" /><rect
       id="rect175"
       x="13"
       y="45"
       opacity="0.05"
       enable-background="new    "
       width="22"
       height="1" /><rect
       id="rect177"
       x="15"
       y="45"
       opacity="0.05"
       enable-background="new    "
       width="18"
       height="1" /><rect
       id="rect179"
       x="15"
       y="45"
       opacity="0.05"
       enable-background="new    "
       width="18"
       height="1" /></g><path
     id="path197"
     fill="#8FBCE5"
     d="M40.5,1h-33C4.462,1,2,3.463,2,6.5v33C2,42.537,4.462,45,7.5,45h33c3.037,0,5.5-2.463,5.5-5.5  v-33C46,3.463,43.537,1,40.5,1z M44.94,39.484c0,2.48-2.019,4.5-4.497,4.5H7.462c-2.481,0-4.497-2.02-4.497-4.5v-33  c0-2.482,2.016-4.5,4.497-4.5h32.981c2.479,0,4.497,2.018,4.497,4.5V39.484z"
     style="fill:#9dbcd7;fill-opacity:1" /><g
     id="g203"
     display="none"><polygon
       id="polygon205"
       display="inline"
       opacity="0.6"
       fill="#FFF8D9"
       enable-background="new    "
       points="17,36 17,29    13.062,29 23.992,18.889 28,22.544 28,22 31,22 31,25.304 35.033,29 31,29 31,36  " /><polygon
       id="polygon207"
       display="inline"
       opacity="0.8"
       fill="#8C6E22"
       enable-background="new    "
       points="17.5,35.5 17.5,28.5    14.339,28.5 23.995,19.567 28.5,23.677 28.5,22.5 30.5,22.5 30.5,25.523 33.748,28.5 30.5,28.5 30.5,35.5  " /><linearGradient
       id="polygon214_1_"
       gradientUnits="userSpaceOnUse"
       x1="315.0388"
       y1="-352.2461"
       x2="315.0388"
       y2="-367"
       gradientTransform="matrix(1 0 0 -1 -291 -332)"><stop
         offset="0"
         style="stop-color:#BFAA68"
         id="stop58" /><stop
         offset="1"
         style="stop-color:#CBA03B"
         id="stop60" /></linearGradient><polygon
       id="polygon214"
       display="inline"
       fill="url(#polygon214_1_)"
       points="18,35 18,28 15.616,28 23.997,20.246 29,24.81    29,23 30,23 30,25.743 32.462,28 30,28 30,35  " /></g><path
     id="path216"
     fill="none"
     d="M35.033,29" /><path
     id="path218"
     fill="none"
     d="M24,18.889" /><path
     id="path248"
     fill="none"
     d="M160.033,49" /><path
     id="path250"
     fill="none"
     d="M149,38.889" /><g
     id="g67"><linearGradient
       id="path123_1_"
       gradientUnits="userSpaceOnUse"
       x1="315.0002"
       y1="-340.5918"
       x2="315.0002"
       y2="-376.6097"
       gradientTransform="matrix(1 0 0 -1 -291 -332)"><stop
         offset="0"
         style="stop-color:#e4eefb;stop-opacity:1;"
         id="stop70" /><stop
         offset="1"
         style="stop-color:#d1e0ed;stop-opacity:1;"
         id="stop72" /></linearGradient><path
       id="path123"
       d="M44,11.984c-5.805,0-22.341,0.003-24,0.003c-2.016,0-2-1.987-2-1.987s0-2-2-2   C12.499,8,5.487,8,4,8c-1.969,0-2,1.928-2,1.989V39.5C2,42.537,4.463,45,7.5,45h33c3.037,0,5.5-2.463,5.5-5.5V14   C46,14,46,11.984,44,11.984z"
       fill="url(#path123_1_)" /><g
       id="g143"><path
         id="polygon145"
         d="M46,14L46,14L46,14z"
         fill="#EEFAFF" /><polygon
         id="polygon149"
         points="2,10.025 2,10 2,10.025   "
         fill="#EEFAFF" /><path
         id="path147"
         d="M20.5,12.487L44,12.484c1.411,0,1.997,1.261,2,1.515c0,0,0-2.015-2-2.015    c-5.805,0-22.341,0.003-24,0.003c-2.016,0-2-1.987-2-1.987s0-2-2-2C12.498,8,5.486,8,4,8c-2,0-2,2-2,2    c0.003-0.248,0.589-1.5,2-1.5h12c1.458,0,1.5,1.346,1.5,1.5c0,0.041,0,1.087,0.722,1.816c0.442,0.445,1.041,0.671,1.778,0.671    L20.5,12.487"
         fill="#EEFAFF" /></g><g
       id="g79"><path
         stroke-miterlimit="10"
         d="M7.5,43.5c-2.206,0-4-1.794-4-4V8.989    C3.523,8.5,3.766,8.5,4,8.5h12c0.175,0,0.5,0,0.5,0.5c-0.002,0.239,0.038,1.538,1.013,2.52c0.438,0.441,1.225,0.967,2.487,0.967    l24-0.003c0.224,0,0.478,0,0.5,0.543V39.5c0,2.206-1.794,4-4,4H7.5z"
         id="path81"
         stroke="#FFFFFF"
         fill="none"
         opacity="0.7" /><g
         id="g83"><path
           d="M40.507,45h-33c-3.033,0-5.5-2.468-5.5-5.5V8.99c0.016-0.994,0.641-1.989,2-1.989h12c1.579,0,2,1.257,2,2     c0,0.036,0.006,0.888,0.578,1.464c0.344,0.347,0.823,0.523,1.422,0.523l24-0.003c1.365,0,1.988,1.011,2,2.012V39.5     C46.007,42.532,43.539,45,40.507,45z M4.007,8.001c-0.856,0-0.994,0.625-1,0.997V39.5c0,2.481,2.019,4.5,4.5,4.5h33     c2.481,0,4.5-2.019,4.5-4.5V13.003c-0.004-0.376-0.141-1.018-1-1.018l-24,0.003c-0.876,0-1.594-0.276-2.132-0.819     c-0.843-0.85-0.868-2.036-0.868-2.168c0-0.3-0.098-1-1-1H4.007z"
           id="path85"
           fill="#8FBCE5" /><path
           d="M40.507,45h-33c-3.033,0-5.5-2.468-5.5-5.5V8.99c0.016-0.994,0.641-1.989,2-1.989h12c1.579,0,2,1.257,2,2     c0,0.036,0.006,0.888,0.578,1.464c0.344,0.347,0.823,0.523,1.422,0.523l24-0.003c1.365,0,1.988,1.011,2,2.012V39.5     C46.007,42.532,43.539,45,40.507,45z M4.007,8.001c-0.856,0-0.994,0.625-1,0.997V39.5c0,2.481,2.019,4.5,4.5,4.5h33     c2.481,0,4.5-2.019,4.5-4.5V13.003c-0.004-0.376-0.141-1.018-1-1.018l-24,0.003c-0.876,0-1.594-0.276-2.132-0.819     c-0.843-0.85-0.868-2.036-0.868-2.168c0-0.3-0.098-1-1-1H4.007z"
           id="path87"
           fill="#8FBCE5"
           style="fill:#9dbcd7;fill-opacity:1" /></g><path
         d="M44,9.967L20,9.97c-0.6,0-1.078-0.176-1.422-0.523C18.006,8.871,18,8.019,18,7.982c0-0.743-0.421-2-2-2H4    c-1.359,0-1.984,0.995-2,1.989v1.062c0.014-0.843,0.47-1.679,1.435-1.917C3.576,7.037,3.756,6.983,4,6.983h12    c0.232,0,0.409,0.047,0.546,0.12C17.678,7.357,18,8.397,18,9.045c0,0.036,0.006,0.888,0.578,1.464    c0.135,0.136,0.296,0.238,0.471,0.321c0.294,0.085,0.607,0.14,0.951,0.14l24-0.003c0.24,0,0.419,0.053,0.559,0.134    c0.974,0.238,1.431,1.09,1.441,1.941v-1.062C45.988,10.978,45.365,9.967,44,9.967z"
         id="path89"
         opacity="0.05" /></g></g><linearGradient
     id="path25_1_"
     gradientUnits="userSpaceOnUse"
     x1="642.9738"
     y1="773.0254"
     x2="642.9738"
     y2="792.192"
     gradientTransform="matrix(1 0 0 1 -564.6602 -757.96)"><stop
       offset="0"
       style="stop-color:#FFFFFF;stop-opacity:0.2"
       id="stop92" /><stop
       offset="0.08"
       style="stop-color:#FFFFFF;stop-opacity:0.9"
       id="stop94" /><stop
       offset="0.25"
       style="stop-color:#FFFFFF;stop-opacity:0.6"
       id="stop96" /><stop
       offset="1"
       style="stop-color:#FFFFFF;stop-opacity:0"
       id="stop98" /></linearGradient><path
     id="path25"
     fill="url(#path25_1_)"
     d="M99.313,26.836c0,2.491-0.66,4.229-4.994,4.229s-29.638,0-33.014,0  s-3.992-1.481-3.992-3.972l0.025-7.056c0-2.488,3.194-4.972,5.472-4.972h31.003c2.279,0,5.531,2.609,5.5,5.5V26.836z" /><g
     id="g27"
     opacity="0.8"><linearGradient
       id="path36_1_"
       gradientUnits="userSpaceOnUse"
       x1="295.3478"
       y1="-333.4479"
       x2="301.3581"
       y2="-343.8579"
       gradientTransform="matrix(1 0 0 -1 -291 -332)"><stop
         offset="0"
         style="stop-color:#FFFFFF"
         id="stop103" /><stop
         offset="0.5"
         style="stop-color:#FFFFFF;stop-opacity:0.6"
         id="stop105" /><stop
         offset="1"
         style="stop-color:#FFFFFF;stop-opacity:0.15"
         id="stop107" /></linearGradient><path
       id="path36"
       fill="url(#path36_1_)"
       d="M9.303,13.627c0.672-1.391,1.492-2.694,2.433-3.899l-1.712-3.754   c-1.462,1.382-2.649,2.905-3.596,4.384L9.303,13.627z" /><linearGradient
       id="path45_1_"
       gradientUnits="userSpaceOnUse"
       x1="300.7964"
       y1="-331.8896"
       x2="304.7298"
       y2="-338.7026"
       gradientTransform="matrix(1 0 0 -1 -291 -332)"><stop
         offset="0"
         style="stop-color:#FFFFFF"
         id="stop111" /><stop
         offset="0.5"
         style="stop-color:#FFFFFF;stop-opacity:0.6"
         id="stop113" /><stop
         offset="1"
         style="stop-color:#FFFFFF;stop-opacity:0.15"
         id="stop115" /></linearGradient><path
       id="path45"
       fill="url(#path45_1_)"
       d="M9.481,2.366l0.895,1.961c0.861-0.715,1.805-0.961,2.834-1.961H9.481z" /><linearGradient
       id="path54_1_"
       gradientUnits="userSpaceOnUse"
       x1="302.0345"
       y1="-330.5953"
       x2="306.8404"
       y2="-338.9194"
       gradientTransform="matrix(1 0 0 -1 -291 -332)"><stop
         offset="0"
         style="stop-color:#FFFFFF"
         id="stop119" /><stop
         offset="0.5"
         style="stop-color:#FFFFFF;stop-opacity:0.6"
         id="stop121" /><stop
         offset="1"
         style="stop-color:#FFFFFF;stop-opacity:0.15"
         id="stop123" /></linearGradient><path
       id="path54"
       fill="url(#path54_1_)"
       d="M16.196,2.366h-0.708c-1.785,1-3.346,1.763-4.685,2.903l1.641,3.6   c1.402-1.619,3.028-3.038,4.849-4.184c0.014-0.013,0.024-0.024,0.039-0.037C19.373,2.886,17.346,2.366,16.196,2.366z" /><linearGradient
       id="path63_1_"
       gradientUnits="userSpaceOnUse"
       x1="291.974"
       y1="-338.1939"
       x2="297.1894"
       y2="-347.2272"
       gradientTransform="matrix(1 0 0 -1 -291 -332)"><stop
         offset="0"
         style="stop-color:#FFFFFF"
         id="stop127" /><stop
         offset="0.5"
         style="stop-color:#FFFFFF;stop-opacity:0.6"
         id="stop129" /><stop
         offset="1"
         style="stop-color:#FFFFFF;stop-opacity:0.15"
         id="stop131" /></linearGradient><path
       id="path63"
       fill="url(#path63_1_)"
       d="M5.882,11.251c-1.098,1.869-1.815,3.596-2.241,4.777   c0.504,0.719,1.337,1.191,2.282,1.191c1.17,0,2.169-0.723,2.583-1.744c0.106-0.285,0.235-0.559,0.353-0.84L5.882,11.251z" /><linearGradient
       id="path72_1_"
       gradientUnits="userSpaceOnUse"
       x1="291.739"
       y1="-338.5643"
       x2="297.519"
       y2="-348.5756"
       gradientTransform="matrix(1 0 0 -1 -291 -332)"><stop
         offset="0"
         style="stop-color:#FFFFFF"
         id="stop135" /><stop
         offset="0.5"
         style="stop-color:#FFFFFF;stop-opacity:0.6"
         id="stop137" /><stop
         offset="1"
         style="stop-color:#FFFFFF;stop-opacity:0.15"
         id="stop139" /></linearGradient><path
       id="path72"
       fill="url(#path72_1_)"
       d="M3.157,8.15l-0.022,6.276c0,0,0,0.002,0,0.004c0,0.039,0.01,0.076,0.012,0.115   c0.477-1.161,1.143-2.58,2.047-4.079L3.157,8.15z" /><linearGradient
       id="path81_1_"
       gradientUnits="userSpaceOnUse"
       x1="296.2229"
       y1="-335.6222"
       x2="301.4355"
       y2="-344.6505"
       gradientTransform="matrix(1 0 0 -1 -291 -332)"><stop
         offset="0"
         style="stop-color:#FFFFFF"
         id="stop143" /><stop
         offset="0.5"
         style="stop-color:#FFFFFF;stop-opacity:0.6"
         id="stop145" /><stop
         offset="1"
         style="stop-color:#FFFFFF;stop-opacity:0.15"
         id="stop147" /></linearGradient><path
       id="path149"
       fill="url(#path81_1_)"
       d="M8.289,2.378c-1.479,0.08-4.724,2.128-5.069,4.33l2.53,2.877   c1.01-1.541,2.266-3.12,3.815-4.546L8.289,2.378z" /></g><g
     transform="translate(-5e-4,0)"
     id="layer6_1_"><path
       style="opacity:0.05;fill:#ffffff"
       id="path4765"
       inkscape:connector-curvature="0"
       enable-background="new    "
       d="m 22.8,14.496 c -0.777,0 -1.41,0.656 -1.41,1.423 v 0.706 c -0.262,0.094 -0.51,0.203 -0.756,0.322 L 20.14,16.44 c -0.004,0 -0.008,0 -0.012,0 -0.535,-0.536 -1.443,-0.562 -1.992,-0.013 l -1.707,1.708 c -0.551,0.549 -0.523,1.457 0.01,1.993 0,0.003 0,0.008 0,0.012 l 0.51,0.496 C 16.83,20.882 16.72,21.13 16.625,21.39 H 15.92 c -0.766,0 -1.424,0.633 -1.424,1.41 v 2.4 c 0,0.781 0.658,1.412 1.424,1.412 h 0.705 c 0.096,0.26 0.205,0.508 0.324,0.756 l -0.51,0.494 c 0,0.004 0,0.008 0,0.012 -0.533,0.535 -0.561,1.443 -0.01,1.992 l 1.707,1.709 c 0.293,0.293 0.674,0.41 1.014,0.408 0.359,-0.004 0.719,-0.162 0.979,-0.422 0.004,0 0.008,0 0.012,0 l 0.494,-0.508 c 0.246,0.119 0.494,0.229 0.756,0.322 v 0.705 c 0,0.77 0.633,1.424 1.41,1.424 h 2.4 c 0.779,0 1.412,-0.654 1.412,-1.424 v -0.705 c 0.26,-0.094 0.508,-0.203 0.756,-0.322 l 0.494,0.508 c 0.004,0 0.008,0 0.014,0 0.535,0.537 1.441,0.562 1.992,0.014 l 1.707,-1.709 c 0.549,-0.549 0.523,-1.457 -0.014,-1.992 0,-0.004 0,-0.008 0,-0.012 l -0.506,-0.494 c 0.117,-0.248 0.229,-0.496 0.322,-0.756 h 0.705 c 0.766,0 1.422,-0.631 1.422,-1.412 v -2.4 c 0,-0.777 -0.656,-1.41 -1.422,-1.41 h -0.705 c -0.094,-0.261 -0.205,-0.509 -0.322,-0.754 l 0.506,-0.496 c 0,-0.004 0,-0.008 0,-0.012 0.537,-0.536 0.562,-1.443 0.014,-1.993 l -1.707,-1.708 c -0.551,-0.549 -1.457,-0.523 -1.992,0.013 -0.006,0 -0.01,0 -0.014,0 l -0.494,0.507 c -0.248,-0.12 -0.496,-0.229 -0.756,-0.322 v -0.706 c 0,-0.767 -0.633,-1.423 -1.412,-1.423 H 22.8 z m 0,0.791 h 2.4 c 0.344,0 0.619,0.283 0.619,0.631 v 1.226 c 0.613,0.163 1.209,0.418 1.746,0.73 l 0.867,-0.878 c 0.246,-0.247 0.635,-0.254 0.877,-0.013 l 1.709,1.708 c 0.242,0.243 0.234,0.632 -0.014,0.879 l -0.879,0.866 c 0.312,0.536 0.566,1.131 0.732,1.744 h 1.225 c 0.348,0 0.631,0.277 0.631,0.619 v 2.4 c 0,0.344 -0.283,0.621 -0.631,0.621 h -1.225 c -0.166,0.613 -0.42,1.209 -0.732,1.744 l 0.879,0.865 c 0.248,0.246 0.256,0.637 0.014,0.879 l -1.709,1.709 c -0.242,0.242 -0.631,0.234 -0.877,-0.012 l -0.867,-0.881 c -0.537,0.312 -1.133,0.568 -1.746,0.73 v 1.225 c 0,0.35 -0.275,0.633 -0.619,0.633 h -2.4 c -0.342,0 -0.619,-0.283 -0.619,-0.633 v -1.225 c -0.613,-0.162 -1.207,-0.418 -1.744,-0.73 l -0.867,0.881 c -0.123,0.123 -0.273,0.182 -0.432,0.184 -0.16,0.002 -0.324,-0.051 -0.445,-0.172 l -1.709,-1.709 c -0.242,-0.242 -0.232,-0.633 0.014,-0.879 l 0.877,-0.865 C 17.564,27.029 17.311,26.433 17.145,25.82 H 15.92 c -0.348,0 -0.629,-0.277 -0.629,-0.621 v -2.4 c 0,-0.342 0.281,-0.619 0.629,-0.619 h 1.225 c 0.166,-0.612 0.42,-1.208 0.73,-1.744 L 16.998,19.57 c -0.246,-0.247 -0.256,-0.636 -0.014,-0.879 l 1.709,-1.708 c 0.242,-0.242 0.633,-0.234 0.877,0.013 l 0.867,0.878 c 0.537,-0.312 1.131,-0.567 1.744,-0.73 v -1.226 c 0,-0.348 0.277,-0.631 0.619,-0.631 z m 1.201,6.077 c -1.453,0 -2.635,1.183 -2.635,2.636 0,1.453 1.182,2.637 2.635,2.637 1.453,0 2.636,-1.184 2.636,-2.637 0,-1.453 -1.183,-2.636 -2.636,-2.636 z m 0,0.792 c 1.023,0 1.843,0.818 1.843,1.844 0,1.023 -0.82,1.844 -1.843,1.844 -1.023,0 -1.844,-0.82 -1.844,-1.844 0,-1.025 0.821,-1.844 1.844,-1.844 z" /><path
       style="opacity:0.1;fill:#ffffff"
       id="path4754"
       inkscape:connector-curvature="0"
       enable-background="new    "
       d="m 22.8,14.892 c -0.559,0 -1.014,0.47 -1.014,1.027 v 0.966 c -0.439,0.138 -0.863,0.308 -1.264,0.519 l -0.666,-0.681 c 0,-0.004 0,-0.008 0,-0.012 -0.393,-0.392 -1.053,-0.408 -1.449,-0.012 L 16.7,18.406 c -0.396,0.396 -0.379,1.057 0.012,1.448 0.004,0 0.008,0 0.012,0 l 0.682,0.668 c -0.211,0.399 -0.381,0.823 -0.52,1.263 h -0.967 c -0.557,0 -1.027,0.453 -1.027,1.014 v 2.4 c 0,0.561 0.471,1.016 1.027,1.016 h 0.967 c 0.139,0.439 0.309,0.865 0.52,1.262 l -0.682,0.67 c -0.004,0 -0.008,0 -0.012,0 -0.391,0.391 -0.408,1.051 -0.012,1.447 l 1.707,1.707 c 0.207,0.207 0.48,0.289 0.73,0.285 0.26,-0.002 0.527,-0.105 0.719,-0.297 0,-0.004 0,-0.01 0,-0.014 l 0.666,-0.678 c 0.4,0.209 0.824,0.379 1.264,0.518 v 0.965 c 0,0.559 0.455,1.029 1.014,1.029 h 2.4 c 0.562,0 1.016,-0.471 1.016,-1.029 v -0.965 c 0.439,-0.139 0.863,-0.309 1.264,-0.518 l 0.668,0.678 c 0,0.004 0,0.01 0,0.014 0.391,0.391 1.051,0.408 1.447,0.012 l 1.709,-1.707 c 0.395,-0.396 0.379,-1.057 -0.014,-1.447 -0.004,0 -0.008,0 -0.012,0 l -0.682,-0.67 c 0.213,-0.396 0.383,-0.822 0.52,-1.262 h 0.967 c 0.557,0 1.027,-0.455 1.027,-1.016 v -2.4 c 0,-0.561 -0.471,-1.014 -1.027,-1.014 h -0.967 c -0.137,-0.439 -0.307,-0.864 -0.52,-1.263 l 0.682,-0.668 c 0.004,0 0.008,0 0.012,0 0.393,-0.391 0.408,-1.052 0.014,-1.448 l -1.709,-1.708 c -0.396,-0.396 -1.057,-0.379 -1.447,0.012 0,0.004 0,0.008 0,0.012 l -0.668,0.681 c -0.4,-0.211 -0.824,-0.381 -1.264,-0.519 v -0.966 c 0,-0.557 -0.453,-1.027 -1.016,-1.027 h -2.4 z m 0,0.395 h 2.4 c 0.344,0 0.619,0.283 0.619,0.631 v 1.226 c 0.613,0.163 1.209,0.418 1.746,0.73 l 0.867,-0.878 c 0.246,-0.247 0.635,-0.254 0.877,-0.013 l 1.709,1.708 c 0.242,0.243 0.234,0.632 -0.014,0.879 l -0.879,0.866 c 0.312,0.536 0.566,1.131 0.732,1.744 h 1.225 c 0.348,0 0.631,0.277 0.631,0.619 v 2.4 c 0,0.344 -0.283,0.621 -0.631,0.621 h -1.225 c -0.166,0.613 -0.42,1.209 -0.732,1.744 l 0.879,0.865 c 0.248,0.246 0.256,0.637 0.014,0.879 l -1.709,1.709 c -0.242,0.242 -0.631,0.234 -0.877,-0.012 l -0.867,-0.881 c -0.537,0.312 -1.133,0.568 -1.746,0.73 v 1.225 c 0,0.35 -0.275,0.633 -0.619,0.633 h -2.4 c -0.342,0 -0.619,-0.283 -0.619,-0.633 v -1.225 c -0.613,-0.162 -1.207,-0.418 -1.744,-0.73 l -0.867,0.881 c -0.123,0.123 -0.273,0.182 -0.432,0.184 -0.16,0.002 -0.324,-0.051 -0.445,-0.172 l -1.709,-1.709 c -0.242,-0.242 -0.232,-0.633 0.014,-0.879 l 0.877,-0.865 C 17.564,27.029 17.311,26.433 17.145,25.82 H 15.92 c -0.348,0 -0.629,-0.277 -0.629,-0.621 v -2.4 c 0,-0.342 0.281,-0.619 0.629,-0.619 h 1.225 c 0.166,-0.612 0.42,-1.208 0.73,-1.744 L 16.998,19.57 c -0.246,-0.247 -0.256,-0.636 -0.014,-0.879 l 1.709,-1.708 c 0.242,-0.242 0.633,-0.234 0.877,0.013 l 0.867,0.878 c 0.537,-0.312 1.131,-0.567 1.744,-0.73 v -1.226 c 0,-0.348 0.277,-0.631 0.619,-0.631 z m 1.201,6.077 c -1.453,0 -2.635,1.183 -2.635,2.636 0,1.453 1.182,2.637 2.635,2.637 1.453,0 2.636,-1.184 2.636,-2.637 0,-1.453 -1.183,-2.636 -2.636,-2.636 z m 0,0.396 c 1.24,0 2.24,1 2.24,2.24 0,1.238 -1,2.24 -2.24,2.24 -1.24,0 -2.238,-1.002 -2.238,-2.24 0,-1.24 0.998,-2.24 2.238,-2.24 z" /><path
       style="opacity:0.5;fill:#669ccc"
       id="rect3267"
       inkscape:connector-curvature="0"
       enable-background="new    "
       d="m 22.798,32.713 c -0.342,0 -0.621,-0.285 -0.621,-0.635 V 30.85 c -0.611,-0.162 -1.199,-0.41 -1.734,-0.721 l -0.875,0.875 c -0.123,0.121 -0.27,0.186 -0.43,0.188 -0.158,0.002 -0.32,-0.055 -0.443,-0.178 L 16.986,29.305 C 16.744,29.065 16.752,28.678 17,28.432 l 0.873,-0.873 C 17.561,27.024 17.316,26.438 17.15,25.825 h -1.229 c -0.348,0 -0.631,-0.277 -0.631,-0.621 v -2.406 c 0,-0.344 0.283,-0.619 0.631,-0.619 h 1.229 c 0.166,-0.614 0.41,-1.2 0.723,-1.736 L 17,19.569 c -0.248,-0.247 -0.256,-0.631 -0.014,-0.873 l 1.709,-1.71 c 0.244,-0.242 0.629,-0.233 0.873,0.013 l 0.875,0.874 c 0.535,-0.312 1.123,-0.559 1.734,-0.722 v -1.229 c 0,-0.349 0.279,-0.634 0.621,-0.634 h 2.406 c 0.342,0 0.621,0.285 0.621,0.634 v 1.229 c 0.613,0.163 1.199,0.41 1.732,0.722 l 0.877,-0.874 c 0.246,-0.246 0.631,-0.255 0.873,-0.013 l 1.709,1.71 c 0.242,0.242 0.234,0.626 -0.012,0.873 l -0.875,0.874 c 0.312,0.536 0.559,1.122 0.723,1.736 h 1.229 c 0.348,0 0.633,0.275 0.633,0.619 v 2.406 c 0,0.344 -0.285,0.621 -0.633,0.621 h -1.229 c -0.164,0.613 -0.41,1.199 -0.723,1.734 l 0.875,0.873 c 0.246,0.246 0.254,0.633 0.012,0.873 l -1.709,1.709 c -0.242,0.246 -0.627,0.236 -0.873,-0.01 l -0.877,-0.875 c -0.533,0.311 -1.119,0.559 -1.732,0.721 v 1.229 c 0,0.35 -0.279,0.635 -0.621,0.635 h -2.406 z m 1.203,-6.078 c 1.453,0 2.634,-1.182 2.634,-2.635 0,-1.453 -1.182,-2.635 -2.634,-2.635 -1.453,0 -2.633,1.182 -2.633,2.635 0,1.453 1.18,2.635 2.633,2.635 z" /><path
       style="opacity:0.5;fill:#669ccc"
       id="path4726"
       inkscape:connector-curvature="0"
       enable-background="new    "
       d="m 22.8,15.287 c -0.342,0 -0.619,0.283 -0.619,0.631 v 1.226 c -0.613,0.163 -1.207,0.418 -1.744,0.73 L 19.57,16.996 c -0.244,-0.247 -0.635,-0.254 -0.877,-0.013 l -1.709,1.708 c -0.242,0.243 -0.232,0.632 0.014,0.879 l 0.877,0.866 c -0.311,0.536 -0.564,1.131 -0.73,1.744 H 15.92 c -0.348,0 -0.629,0.277 -0.629,0.619 v 2.4 c 0,0.344 0.281,0.621 0.629,0.621 h 1.225 c 0.166,0.613 0.42,1.209 0.73,1.744 l -0.877,0.865 c -0.246,0.246 -0.256,0.637 -0.014,0.879 l 1.709,1.709 c 0.121,0.121 0.285,0.174 0.445,0.172 0.158,-0.002 0.309,-0.061 0.432,-0.184 l 0.867,-0.881 c 0.537,0.312 1.131,0.568 1.744,0.73 v 1.225 c 0,0.35 0.277,0.633 0.619,0.633 h 2.4 c 0.344,0 0.619,-0.283 0.619,-0.633 v -1.225 c 0.613,-0.162 1.209,-0.418 1.746,-0.73 l 0.867,0.881 c 0.246,0.246 0.635,0.254 0.877,0.012 l 1.709,-1.709 c 0.242,-0.242 0.234,-0.633 -0.014,-0.879 l -0.879,-0.865 c 0.312,-0.535 0.566,-1.131 0.732,-1.744 h 1.225 c 0.348,0 0.631,-0.277 0.631,-0.621 v -2.4 c 0,-0.342 -0.283,-0.619 -0.631,-0.619 h -1.225 c -0.166,-0.612 -0.42,-1.208 -0.732,-1.744 l 0.879,-0.866 c 0.248,-0.247 0.256,-0.636 0.014,-0.879 l -1.709,-1.708 c -0.242,-0.242 -0.631,-0.234 -0.877,0.013 l -0.867,0.878 c -0.537,-0.312 -1.133,-0.567 -1.746,-0.73 v -1.226 c 0,-0.349 -0.275,-0.631 -0.619,-0.631 h -2.4 z m 0.174,0.793 h 2.054 v 1.064 c 0,0.361 0.244,0.677 0.592,0.767 0.541,0.144 1.07,0.366 1.549,0.644 0.312,0.184 0.711,0.134 0.965,-0.125 l 0.756,-0.754 1.436,1.436 -0.754,0.754 c -0.258,0.256 -0.309,0.654 -0.125,0.966 0.277,0.479 0.5,1.009 0.645,1.547 0.09,0.35 0.406,0.594 0.768,0.594 h 1.062 v 2.055 H 30.86 c -0.361,0 -0.678,0.244 -0.768,0.594 -0.145,0.537 -0.367,1.07 -0.645,1.547 -0.184,0.311 -0.133,0.709 0.125,0.965 l 0.754,0.756 -1.436,1.434 -0.756,-0.754 c -0.254,-0.258 -0.652,-0.307 -0.965,-0.123 -0.479,0.277 -1.008,0.5 -1.549,0.643 -0.348,0.09 -0.592,0.406 -0.592,0.768 v 1.064 h -2.054 v -1.064 c 0,-0.361 -0.244,-0.678 -0.594,-0.768 -0.539,-0.143 -1.068,-0.365 -1.547,-0.643 -0.312,-0.184 -0.709,-0.135 -0.965,0.123 l -0.756,0.754 -1.436,-1.434 0.756,-0.756 c 0.256,-0.256 0.307,-0.654 0.123,-0.965 -0.277,-0.477 -0.5,-1.01 -0.643,-1.547 -0.092,-0.35 -0.408,-0.594 -0.77,-0.594 H 16.08 v -2.055 h 1.062 c 0.361,0 0.678,-0.244 0.77,-0.594 0.143,-0.538 0.365,-1.068 0.643,-1.547 0.184,-0.312 0.133,-0.71 -0.123,-0.966 l -0.756,-0.754 1.436,-1.436 0.756,0.754 c 0.256,0.258 0.652,0.308 0.965,0.125 0.479,-0.278 1.008,-0.5 1.547,-0.644 0.35,-0.09 0.594,-0.406 0.594,-0.767 V 16.08 z m 1.027,4.493 c -1.883,0 -3.428,1.545 -3.428,3.428 0,1.885 1.545,3.43 3.428,3.43 1.882,0 3.427,-1.545 3.427,-3.43 0,-1.884 -1.544,-3.428 -3.427,-3.428 z m 0,0.791 c 1.453,0 2.636,1.183 2.636,2.636 0,1.453 -1.184,2.637 -2.636,2.637 -1.453,0 -2.635,-1.184 -2.635,-2.637 0,-1.453 1.182,-2.636 2.635,-2.636 z" /><path
       style="opacity:0.5;fill:#669ccc"
       id="path4713"
       inkscape:connector-curvature="0"
       enable-background="new    "
       d="m 22.8,15.287 c -0.342,0 -0.619,0.283 -0.619,0.631 v 1.226 c -0.613,0.163 -1.207,0.418 -1.744,0.73 L 19.57,16.996 c -0.244,-0.247 -0.635,-0.254 -0.877,-0.013 l -1.709,1.708 c -0.242,0.243 -0.232,0.632 0.014,0.879 l 0.877,0.866 c -0.311,0.536 -0.564,1.131 -0.73,1.744 H 15.92 c -0.348,0 -0.629,0.277 -0.629,0.619 v 2.4 c 0,0.344 0.281,0.621 0.629,0.621 h 1.225 c 0.166,0.613 0.42,1.209 0.73,1.744 l -0.877,0.865 c -0.246,0.246 -0.256,0.637 -0.014,0.879 l 1.709,1.709 c 0.121,0.121 0.285,0.174 0.445,0.172 0.158,-0.002 0.309,-0.061 0.432,-0.184 l 0.867,-0.881 c 0.537,0.312 1.131,0.568 1.744,0.73 v 1.225 c 0,0.35 0.277,0.633 0.619,0.633 h 2.4 c 0.344,0 0.619,-0.283 0.619,-0.633 v -1.225 c 0.613,-0.162 1.209,-0.418 1.746,-0.73 l 0.867,0.881 c 0.246,0.246 0.635,0.254 0.877,0.012 l 1.709,-1.709 c 0.242,-0.242 0.234,-0.633 -0.014,-0.879 l -0.879,-0.865 c 0.312,-0.535 0.566,-1.131 0.732,-1.744 h 1.225 c 0.348,0 0.631,-0.277 0.631,-0.621 v -2.4 c 0,-0.342 -0.283,-0.619 -0.631,-0.619 h -1.225 c -0.166,-0.612 -0.42,-1.208 -0.732,-1.744 l 0.879,-0.866 c 0.248,-0.247 0.256,-0.636 0.014,-0.879 l -1.709,-1.708 c -0.242,-0.242 -0.631,-0.234 -0.877,0.013 l -0.867,0.878 c -0.537,-0.312 -1.133,-0.567 -1.746,-0.73 v -1.226 c 0,-0.349 -0.275,-0.631 -0.619,-0.631 h -2.4 z m 0,0.397 h 2.4 c 0.127,0 0.225,0.095 0.225,0.234 v 1.226 c 0,0.18 0.121,0.338 0.297,0.383 0.574,0.154 1.139,0.398 1.646,0.693 0.156,0.089 0.357,0.06 0.482,-0.074 l 0.865,-0.866 c 0.102,-0.103 0.221,-0.102 0.309,-0.013 l 1.709,1.708 c 0.088,0.089 0.088,0.207 -0.012,0.31 l -0.867,0.866 c -0.133,0.125 -0.164,0.324 -0.074,0.483 0.295,0.507 0.539,1.069 0.693,1.645 0.045,0.176 0.203,0.297 0.385,0.297 h 1.225 c 0.139,0 0.236,0.098 0.236,0.223 v 2.4 c 0,0.127 -0.098,0.225 -0.236,0.225 h -1.225 c -0.182,0 -0.34,0.121 -0.385,0.295 -0.154,0.576 -0.398,1.141 -0.693,1.648 -0.09,0.158 -0.059,0.357 0.074,0.48 l 0.867,0.867 c 0.1,0.104 0.1,0.219 0.012,0.309 l -1.709,1.709 c -0.088,0.09 -0.207,0.09 -0.309,-0.012 L 27.85,29.853 c -0.125,-0.133 -0.326,-0.164 -0.482,-0.074 -0.508,0.295 -1.072,0.539 -1.646,0.693 -0.176,0.045 -0.297,0.203 -0.297,0.383 v 1.225 c 0,0.141 -0.098,0.236 -0.225,0.236 h -2.4 c -0.125,0 -0.223,-0.096 -0.223,-0.236 v -1.225 c 0,-0.18 -0.121,-0.338 -0.297,-0.383 -0.576,-0.154 -1.139,-0.398 -1.646,-0.693 -0.158,-0.09 -0.357,-0.059 -0.482,0.074 l -0.865,0.867 c -0.055,0.055 -0.088,0.072 -0.148,0.072 -0.07,0.002 -0.127,-0.025 -0.16,-0.061 L 17.27,29.022 c -0.09,-0.09 -0.09,-0.205 0.014,-0.309 l 0.865,-0.867 c 0.135,-0.123 0.164,-0.322 0.074,-0.48 -0.295,-0.508 -0.541,-1.072 -0.693,-1.648 -0.045,-0.174 -0.203,-0.295 -0.385,-0.295 H 15.92 c -0.139,0 -0.232,-0.098 -0.232,-0.225 v -2.4 c 0,-0.125 0.094,-0.223 0.232,-0.223 h 1.225 c 0.182,0 0.34,-0.121 0.385,-0.297 0.152,-0.576 0.398,-1.138 0.693,-1.645 0.09,-0.159 0.061,-0.358 -0.074,-0.483 L 17.284,19.284 C 17.18,19.181 17.18,19.064 17.27,18.974 l 1.709,-1.708 c 0.088,-0.089 0.205,-0.09 0.309,0.013 l 0.865,0.866 c 0.125,0.133 0.324,0.163 0.482,0.074 0.508,-0.295 1.07,-0.539 1.646,-0.693 0.176,-0.045 0.297,-0.203 0.297,-0.383 V 15.917 C 22.577,15.78 22.675,15.684 22.8,15.684 z m 1.201,5.284 c -1.668,0 -3.031,1.364 -3.031,3.032 0,1.668 1.363,3.031 3.031,3.031 1.667,0 3.031,-1.363 3.031,-3.031 0,-1.668 -1.363,-3.032 -3.031,-3.032 z m 0,0.396 c 1.453,0 2.636,1.183 2.636,2.636 0,1.453 -1.184,2.637 -2.636,2.637 -1.453,0 -2.635,-1.184 -2.635,-2.637 0,-1.453 1.182,-2.636 2.635,-2.636 z" /><path
       style="opacity:0.5;fill:#669ccc"
       id="path4704"
       inkscape:connector-curvature="0"
       enable-background="new    "
       d="m 22.8,15.287 c -0.342,0 -0.619,0.283 -0.619,0.631 v 0.396 c 0,-0.349 0.277,-0.631 0.619,-0.631 h 2.4 c 0.344,0 0.619,0.282 0.619,0.631 v -0.396 c 0,-0.349 -0.275,-0.631 -0.619,-0.631 h -2.4 z m -3.674,1.523 c -0.158,-0.003 -0.312,0.052 -0.434,0.173 l -1.709,1.708 c -0.164,0.166 -0.199,0.397 -0.137,0.606 0.029,-0.074 0.076,-0.149 0.137,-0.21 l 1.709,-1.708 c 0.242,-0.243 0.633,-0.234 0.877,0.013 l 0.867,0.879 c 0.537,-0.312 1.131,-0.568 1.744,-0.731 v -0.396 c -0.613,0.163 -1.207,0.418 -1.744,0.73 L 19.569,16.996 C 19.447,16.872 19.282,16.813 19.126,16.81 z m 9.752,0 c -0.158,0.003 -0.322,0.062 -0.445,0.186 l -0.867,0.878 c -0.537,-0.312 -1.133,-0.567 -1.746,-0.73 v 0.396 c 0.613,0.163 1.209,0.418 1.746,0.731 l 0.867,-0.879 c 0.246,-0.247 0.635,-0.256 0.877,-0.013 l 1.709,1.708 c 0.061,0.061 0.107,0.136 0.135,0.21 0.066,-0.208 0.029,-0.44 -0.135,-0.606 L 29.31,16.983 C 29.188,16.862 29.034,16.807 28.878,16.81 z M 17.74,20.696 c -0.246,0.466 -0.455,0.966 -0.596,1.484 h -1.225 c -0.348,0 -0.629,0.277 -0.629,0.619 v 0.396 c 0,-0.342 0.281,-0.619 0.629,-0.619 h 1.225 c 0.166,-0.613 0.42,-1.208 0.73,-1.744 L 17.74,20.696 z m 12.522,0 -0.137,0.136 c 0.312,0.536 0.566,1.131 0.732,1.744 h 1.225 c 0.348,0 0.631,0.277 0.631,0.619 v -0.396 c 0,-0.342 -0.283,-0.619 -0.631,-0.619 h -1.225 c -0.139,-0.518 -0.348,-1.018 -0.595,-1.484 z m -8.886,3.503 c -0.002,0.064 -0.01,0.131 -0.01,0.195 0,1.455 1.182,2.637 2.635,2.637 1.453,0 2.636,-1.182 2.636,-2.637 0,-0.064 -0.008,-0.131 -0.014,-0.195 -0.1,1.361 -1.234,2.438 -2.623,2.438 -1.387,0 -2.522,-1.076 -2.624,-2.438 z m -3.636,3.502 -0.742,0.729 c -0.182,0.184 -0.23,0.436 -0.15,0.658 0.031,-0.096 0.074,-0.186 0.15,-0.262 l 0.877,-0.865 c -0.048,-0.084 -0.091,-0.174 -0.135,-0.26 z m 12.522,0 c -0.045,0.086 -0.088,0.176 -0.137,0.26 l 0.879,0.865 c 0.076,0.076 0.119,0.166 0.148,0.262 0.084,-0.223 0.033,-0.475 -0.148,-0.658 l -0.742,-0.729 z" /><path
       style="opacity:0.2;fill:#ffffff"
       id="path4739"
       inkscape:connector-curvature="0"
       enable-background="new    "
       d="m 16.847,19.31 c -0.08,0.219 -0.033,0.474 0.15,0.656 l 0.742,0.73 c 0.045,-0.085 0.088,-0.177 0.135,-0.26 L 16.997,19.57 c -0.076,-0.076 -0.119,-0.168 -0.15,-0.26 z m 14.306,0 c -0.029,0.092 -0.072,0.184 -0.148,0.26 l -0.879,0.866 c 0.049,0.083 0.092,0.175 0.137,0.26 l 0.742,-0.73 c 0.181,-0.182 0.232,-0.436 0.148,-0.656 z m -7.152,2.054 c -1.453,0 -2.635,1.183 -2.635,2.636 0,0.066 0.008,0.133 0.01,0.199 0.102,-1.363 1.236,-2.439 2.625,-2.439 1.388,0 2.523,1.076 2.623,2.439 0.006,-0.066 0.014,-0.133 0.014,-0.199 -0.001,-1.453 -1.184,-2.636 -2.637,-2.636 z m -8.711,3.835 v 0.396 c 0,0.344 0.281,0.619 0.629,0.619 h 1.225 c 0.141,0.518 0.35,1.02 0.596,1.486 l 0.135,-0.137 c -0.311,-0.535 -0.564,-1.131 -0.73,-1.744 H 15.92 c -0.348,0.002 -0.63,-0.276 -0.63,-0.62 z m 17.424,0 c 0,0.344 -0.283,0.621 -0.631,0.621 h -1.225 c -0.166,0.613 -0.42,1.209 -0.732,1.744 l 0.137,0.137 c 0.246,-0.467 0.455,-0.969 0.596,-1.486 h 1.225 c 0.348,0 0.631,-0.275 0.631,-0.619 v -0.397 z m -15.867,3.899 c -0.062,0.211 -0.027,0.443 0.137,0.607 l 1.709,1.707 c 0.121,0.123 0.285,0.176 0.445,0.174 0.158,-0.002 0.309,-0.061 0.432,-0.186 l 0.867,-0.879 c 0.537,0.311 1.131,0.568 1.744,0.73 v -0.396 c -0.613,-0.162 -1.207,-0.418 -1.744,-0.73 l -0.867,0.881 c -0.123,0.123 -0.273,0.182 -0.432,0.184 -0.16,0.002 -0.324,-0.051 -0.445,-0.172 l -1.709,-1.709 c -0.061,-0.061 -0.108,-0.137 -0.137,-0.211 z m 14.306,0 c -0.027,0.074 -0.074,0.15 -0.135,0.211 l -1.709,1.709 c -0.242,0.242 -0.631,0.234 -0.877,-0.012 l -0.867,-0.881 c -0.537,0.312 -1.133,0.568 -1.746,0.73 v 0.396 c 0.613,-0.162 1.209,-0.42 1.746,-0.73 l 0.867,0.879 c 0.246,0.248 0.635,0.254 0.877,0.012 l 1.709,-1.707 c 0.164,-0.164 0.201,-0.396 0.135,-0.607 z m -8.972,2.982 v 0.396 c 0,0.35 0.277,0.633 0.619,0.633 h 2.4 c 0.344,0 0.619,-0.283 0.619,-0.633 V 32.08 c 0,0.35 -0.275,0.633 -0.619,0.633 h -2.4 c -0.342,0 -0.619,-0.283 -0.619,-0.633 z" /></g></svg>