<?xml version="1.0" encoding="UTF-8" standalone="no"?>
<!-- Generator: Adobe Illustrator 17.0.0, SVG Export Plug-In . SVG Version: 6.00 Build 0)  -->

<svg
   xmlns:dc="http://purl.org/dc/elements/1.1/"
   xmlns:cc="http://creativecommons.org/ns#"
   xmlns:rdf="http://www.w3.org/1999/02/22-rdf-syntax-ns#"
   xmlns:svg="http://www.w3.org/2000/svg"
   xmlns="http://www.w3.org/2000/svg"
   xmlns:xlink="http://www.w3.org/1999/xlink"
   xmlns:sodipodi="http://sodipodi.sourceforge.net/DTD/sodipodi-0.dtd"
   xmlns:inkscape="http://www.inkscape.org/namespaces/inkscape"
   version="1.1"
   id="图层_1"
   inkscape:version="0.48.4 r9939"
   sodipodi:docname="folder-system.svg"
   x="0px"
   y="0px"
   width="48px"
   height="48px"
   viewBox="0 0 48 48"
   enable-background="new 0 0 48 48"
   xml:space="preserve"><metadata
     id="metadata153"><rdf:RDF><cc:Work
         rdf:about=""><dc:format>image/svg+xml</dc:format><dc:type
           rdf:resource="http://purl.org/dc/dcmitype/StillImage" /><dc:title></dc:title></cc:Work></rdf:RDF></metadata><defs
     id="defs151"><linearGradient
       id="path3347_1_"
       gradientUnits="userSpaceOnUse"
       x1="879.66052"
       y1="-1124.1611"
       x2="879.66052"
       y2="-1107.6879"
       gradientTransform="matrix(1,0,0,-1,-855.6602,-1091.96)"><stop
         offset="0"
         style="stop-color:#a2c8f1;stop-opacity:0.78430003;"
         id="stop155" /><stop
         offset="1"
         style="stop-color:#6eaee6;stop-opacity:0.39219999;"
         id="stop157" /></linearGradient><linearGradient
       id="rect2941_2_"
       gradientUnits="userSpaceOnUse"
       x1="590.66058"
       y1="792.53833"
       x2="590.66058"
       y2="778.87122"
       gradientTransform="translate(-566.6602,-761.96)"><stop
         offset="0"
         style="stop-color:#a5c8ee;stop-opacity:0.78430003;"
         id="stop155-3" /><stop
         offset="1"
         style="stop-color:#6eaee6;stop-opacity:0.39219999;"
         id="stop157-8" /></linearGradient></defs><sodipodi:namedview
     inkscape:current-layer="图层_1"
     inkscape:window-maximized="0"
     inkscape:window-y="149"
     inkscape:window-x="1173"
     inkscape:window-height="480"
     inkscape:window-width="702"
     inkscape:pageshadow="2"
     inkscape:pageopacity="0"
     inkscape:cy="26.77801"
     inkscape:cx="25.585848"
     inkscape:zoom="5.6568542"
     showgrid="false"
     guidetolerance="10"
     gridtolerance="10"
     objecttolerance="10"
     borderopacity="1"
     pagecolor="#ffffff"
     bordercolor="#666666"
     id="namedview252"
     showguides="true"
     inkscape:guide-bbox="true"><sodipodi:guide
       orientation="-0.70710678,0.70710678"
       position="-135.41095,99.52528"
       id="guide3130" /></sodipodi:namedview><radialGradient
     id="ellipse10_1_"
     cx="315"
     cy="-2047.0854"
     r="23.9962"
     gradientTransform="matrix(1 0 0 -0.1841 -291 -333.2854)"
     gradientUnits="userSpaceOnUse"><stop
       offset="0"
       style="stop-color:#000000;stop-opacity:0.6"
       id="stop5" /><stop
       offset="0.8996"
       style="stop-color:#000000;stop-opacity:0.0603"
       id="stop7" /><stop
       offset="1"
       style="stop-color:#000000;stop-opacity:0"
       id="stop9" /></radialGradient><ellipse
     id="ellipse10"
     display="none"
     fill="url(#ellipse10_1_)"
     cx="24"
     cy="43.583"
     rx="24"
     ry="4.417" /><linearGradient
     id="path12_1_"
     gradientUnits="userSpaceOnUse"
     x1="24"
     y1="45"
     x2="24"
     y2="1"><stop
       offset="0"
       style="stop-color:#c2d3e1;stop-opacity:1;"
       id="stop13" /><stop
       offset="0.4314"
       style="stop-color:#AFD3E2"
       id="stop15" /><stop
       offset="1"
       style="stop-color:#cadff0;stop-opacity:1;"
       id="stop17" /></linearGradient><path
     id="path12"
     fill="url(#path12_1_)"
     d="M46,39.5c0,3.037-2.463,5.5-5.5,5.5h-33C4.462,45,2,42.537,2,39.5v-33  C2,3.462,4.462,1,7.5,1h33C43.537,1,46,3.462,46,6.5V39.5z" /><path
     id="path188"
     fill="#FFFFFF"
     enable-background="new    "
     d="M40.5,2H7.499C5.017,2,3,4.018,3,6.5v33  C3,41.98,5.017,44,7.499,44H40.5c2.48,0,4.5-2.02,4.5-4.5v-33C45,4.018,42.98,2,40.5,2z M44,39.5c0,1.933-1.567,3.5-3.5,3.5h-33  C5.567,43,4,41.433,4,39.5v-33C4,4.567,5.567,3,7.5,3h33C42.433,3,44,4.567,44,6.5V39.5z" /><linearGradient
     id="path98_1_"
     gradientUnits="userSpaceOnUse"
     x1="314.9998"
     y1="-333.0005"
     x2="314.9998"
     y2="-377"
     gradientTransform="matrix(1 0 0 -1 -291 -332)"><stop
       offset="0"
       style="stop-color:#000000;stop-opacity:0.1"
       id="stop22" /><stop
       offset="1"
       style="stop-color:#000000;stop-opacity:0.8"
       id="stop24" /></linearGradient><path
     id="path98"
     opacity="0.5"
     fill="url(#path98_1_)"
     fill-opacity="0.8"
     enable-background="new    "
     d="M40.5,1h-33  C4.462,1,2,3.463,2,6.5v33C2,42.537,4.462,45,7.5,45h33c3.037,0,5.5-2.463,5.5-5.5v-33C46,3.463,43.537,1,40.5,1z M44.94,39.484  c0,2.48-2.019,4.5-4.497,4.5H7.462c-2.481,0-4.497-2.02-4.497-4.5v-33c0-2.482,2.016-4.5,4.497-4.5h32.981  c2.479,0,4.497,2.018,4.497,4.5V39.484z" /><g
     id="g125"
     display="none"
     opacity="0.3"><defs
       id="defs28"><filter
         id="Adobe_OpacityMaskFilter"
         filterUnits="userSpaceOnUse"
         x="4.769"
         y="13.895"
         width="37.382"
         height="27.883"><feColorMatrix
           type="matrix"
           values="1 0 0 0 0  0 1 0 0 0  0 0 1 0 0  0 0 0 1 0"
           id="feColorMatrix31" /></filter></defs><mask
       maskUnits="userSpaceOnUse"
       x="4.769"
       y="13.895"
       width="37.382"
       height="27.883"
       id="SVGID_11_"
       display="inline"><g
         id="g135"
         filter="url(#Adobe_OpacityMaskFilter)"><image
           sodipodi:absref="/usr/share/icons/Deepin/places/48/DEB81AAE695B461C.jpeg"
           xlink:href="DEB81AAE695B461C.jpeg"
           transform="matrix(0.232 0 0 0.2313 2.7686 11.8945)"
           id="image137"
           height="138"
           width="179"
           enable-background="new    "
           overflow="visible" /></g></mask><g
       id="g139"
       display="inline"
       mask="url(#SVGID_11_)"><path
         id="path141"
         fill="#FFF2B3"
         d="M7.228,41.777c-1.356,0-2.459-1.135-2.459-2.528v-25.29l10.667-0.064    c0.102,0.77,0.198,1.883,0.875,2.788c0.542,0.724,1.464,1.31,3.214,1.31l22.626-0.003v21.26c0,1.394-1.104,2.528-2.459,2.528    H7.228z" /></g></g><g
     id="g151"
     opacity="0.5"><path
       id="path153"
       opacity="0.08"
       enable-background="new    "
       d="M40.514,45h-33C4.476,45,2,42.521,2,39.484v4.219   C2,46.076,3.937,48,6.31,48h35.407C44.09,48,46,46.076,46,43.703v-4.219C46,42.521,43.551,45,40.514,45z" /><path
       id="path155"
       opacity="0.1"
       enable-background="new    "
       d="M40.486,45h-33C4.449,45,2,42.566,2,39.529v2.207   C2,44.109,3.046,47,7.283,47s29.112,0,33.405,0S46,44.109,46,41.736v-2.207C46,42.566,43.523,45,40.486,45z" /><path
       id="path157"
       opacity="0.1"
       enable-background="new    "
       d="M40.486,45h-33C4.449,45,2,42.566,2,39.529v1.191   C2,43.094,3.814,46,7.283,46s29.434,0,33.405,0C44.66,46,46,43.094,46,40.721v-1.191C46,42.566,43.523,45,40.486,45z" /><rect
       id="rect159"
       x="7"
       y="45"
       opacity="0.05"
       enable-background="new    "
       width="34"
       height="1" /><rect
       id="rect161"
       x="8"
       y="45"
       opacity="0.05"
       enable-background="new    "
       width="31"
       height="1" /><rect
       id="rect163"
       x="8"
       y="46"
       opacity="0.05"
       enable-background="new    "
       width="31"
       height="1" /><rect
       id="rect165"
       x="10"
       y="46"
       opacity="0.05"
       enable-background="new    "
       width="28"
       height="1" /><rect
       id="rect167"
       x="13"
       y="46"
       opacity="0.05"
       enable-background="new    "
       width="22"
       height="1" /><rect
       id="rect169"
       x="17"
       y="46"
       opacity="0.05"
       enable-background="new    "
       width="14"
       height="1" /><rect
       id="rect171"
       x="10"
       y="45"
       opacity="0.05"
       enable-background="new    "
       width="28"
       height="1" /><rect
       id="rect173"
       x="12"
       y="45"
       opacity="0.05"
       enable-background="new    "
       width="24"
       height="1" /><rect
       id="rect175"
       x="13"
       y="45"
       opacity="0.05"
       enable-background="new    "
       width="22"
       height="1" /><rect
       id="rect177"
       x="15"
       y="45"
       opacity="0.05"
       enable-background="new    "
       width="18"
       height="1" /><rect
       id="rect179"
       x="15"
       y="45"
       opacity="0.05"
       enable-background="new    "
       width="18"
       height="1" /></g><path
     id="path197"
     fill="#8FBCE5"
     d="M40.5,1h-33C4.462,1,2,3.463,2,6.5v33C2,42.537,4.462,45,7.5,45h33c3.037,0,5.5-2.463,5.5-5.5  v-33C46,3.463,43.537,1,40.5,1z M44.94,39.484c0,2.48-2.019,4.5-4.497,4.5H7.462c-2.481,0-4.497-2.02-4.497-4.5v-33  c0-2.482,2.016-4.5,4.497-4.5h32.981c2.479,0,4.497,2.018,4.497,4.5V39.484z"
     style="fill:#9dbcd7;fill-opacity:1" /><g
     id="g203"
     display="none"><polygon
       id="polygon205"
       display="inline"
       opacity="0.6"
       fill="#FFF8D9"
       enable-background="new    "
       points="17,36 17,29    13.062,29 23.992,18.889 28,22.544 28,22 31,22 31,25.304 35.033,29 31,29 31,36  " /><polygon
       id="polygon207"
       display="inline"
       opacity="0.8"
       fill="#8C6E22"
       enable-background="new    "
       points="17.5,35.5 17.5,28.5    14.339,28.5 23.995,19.567 28.5,23.677 28.5,22.5 30.5,22.5 30.5,25.523 33.748,28.5 30.5,28.5 30.5,35.5  " /><linearGradient
       id="polygon214_1_"
       gradientUnits="userSpaceOnUse"
       x1="315.0388"
       y1="-352.2461"
       x2="315.0388"
       y2="-367"
       gradientTransform="matrix(1 0 0 -1 -291 -332)"><stop
         offset="0"
         style="stop-color:#BFAA68"
         id="stop58" /><stop
         offset="1"
         style="stop-color:#CBA03B"
         id="stop60" /></linearGradient><polygon
       id="polygon214"
       display="inline"
       fill="url(#polygon214_1_)"
       points="18,35 18,28 15.616,28 23.997,20.246 29,24.81    29,23 30,23 30,25.743 32.462,28 30,28 30,35  " /></g><path
     id="path216"
     fill="none"
     d="M35.033,29" /><path
     id="path218"
     fill="none"
     d="M24,18.889" /><path
     id="path248"
     fill="none"
     d="M160.033,49" /><path
     id="path250"
     fill="none"
     d="M149,38.889" /><g
     id="g67"><linearGradient
       id="path123_1_"
       gradientUnits="userSpaceOnUse"
       x1="315.0002"
       y1="-340.5918"
       x2="315.0002"
       y2="-376.6097"
       gradientTransform="matrix(1 0 0 -1 -291 -332)"><stop
         offset="0"
         style="stop-color:#e4eefb;stop-opacity:1;"
         id="stop70" /><stop
         offset="1"
         style="stop-color:#d1e0ed;stop-opacity:1;"
         id="stop72" /></linearGradient><path
       id="path123"
       d="M44,11.984c-5.805,0-22.341,0.003-24,0.003c-2.016,0-2-1.987-2-1.987s0-2-2-2   C12.499,8,5.487,8,4,8c-1.969,0-2,1.928-2,1.989V39.5C2,42.537,4.463,45,7.5,45h33c3.037,0,5.5-2.463,5.5-5.5V14   C46,14,46,11.984,44,11.984z"
       fill="url(#path123_1_)" /><g
       id="g143"><path
         id="polygon145"
         d="M46,14L46,14L46,14z"
         fill="#EEFAFF" /><polygon
         id="polygon149"
         points="2,10.025 2,10 2,10.025   "
         fill="#EEFAFF" /><path
         id="path147"
         d="M20.5,12.487L44,12.484c1.411,0,1.997,1.261,2,1.515c0,0,0-2.015-2-2.015    c-5.805,0-22.341,0.003-24,0.003c-2.016,0-2-1.987-2-1.987s0-2-2-2C12.498,8,5.486,8,4,8c-2,0-2,2-2,2    c0.003-0.248,0.589-1.5,2-1.5h12c1.458,0,1.5,1.346,1.5,1.5c0,0.041,0,1.087,0.722,1.816c0.442,0.445,1.041,0.671,1.778,0.671    L20.5,12.487"
         fill="#EEFAFF" /></g><g
       id="g79"><path
         stroke-miterlimit="10"
         d="M7.5,43.5c-2.206,0-4-1.794-4-4V8.989    C3.523,8.5,3.766,8.5,4,8.5h12c0.175,0,0.5,0,0.5,0.5c-0.002,0.239,0.038,1.538,1.013,2.52c0.438,0.441,1.225,0.967,2.487,0.967    l24-0.003c0.224,0,0.478,0,0.5,0.543V39.5c0,2.206-1.794,4-4,4H7.5z"
         id="path81"
         stroke="#FFFFFF"
         fill="none"
         opacity="0.7" /><g
         id="g83"><path
           d="M40.507,45h-33c-3.033,0-5.5-2.468-5.5-5.5V8.99c0.016-0.994,0.641-1.989,2-1.989h12c1.579,0,2,1.257,2,2     c0,0.036,0.006,0.888,0.578,1.464c0.344,0.347,0.823,0.523,1.422,0.523l24-0.003c1.365,0,1.988,1.011,2,2.012V39.5     C46.007,42.532,43.539,45,40.507,45z M4.007,8.001c-0.856,0-0.994,0.625-1,0.997V39.5c0,2.481,2.019,4.5,4.5,4.5h33     c2.481,0,4.5-2.019,4.5-4.5V13.003c-0.004-0.376-0.141-1.018-1-1.018l-24,0.003c-0.876,0-1.594-0.276-2.132-0.819     c-0.843-0.85-0.868-2.036-0.868-2.168c0-0.3-0.098-1-1-1H4.007z"
           id="path85"
           fill="#8FBCE5" /><path
           d="M40.507,45h-33c-3.033,0-5.5-2.468-5.5-5.5V8.99c0.016-0.994,0.641-1.989,2-1.989h12c1.579,0,2,1.257,2,2     c0,0.036,0.006,0.888,0.578,1.464c0.344,0.347,0.823,0.523,1.422,0.523l24-0.003c1.365,0,1.988,1.011,2,2.012V39.5     C46.007,42.532,43.539,45,40.507,45z M4.007,8.001c-0.856,0-0.994,0.625-1,0.997V39.5c0,2.481,2.019,4.5,4.5,4.5h33     c2.481,0,4.5-2.019,4.5-4.5V13.003c-0.004-0.376-0.141-1.018-1-1.018l-24,0.003c-0.876,0-1.594-0.276-2.132-0.819     c-0.843-0.85-0.868-2.036-0.868-2.168c0-0.3-0.098-1-1-1H4.007z"
           id="path87"
           fill="#8FBCE5"
           style="fill:#9dbcd7;fill-opacity:1" /></g><path
         d="M44,9.967L20,9.97c-0.6,0-1.078-0.176-1.422-0.523C18.006,8.871,18,8.019,18,7.982c0-0.743-0.421-2-2-2H4    c-1.359,0-1.984,0.995-2,1.989v1.062c0.014-0.843,0.47-1.679,1.435-1.917C3.576,7.037,3.756,6.983,4,6.983h12    c0.232,0,0.409,0.047,0.546,0.12C17.678,7.357,18,8.397,18,9.045c0,0.036,0.006,0.888,0.578,1.464    c0.135,0.136,0.296,0.238,0.471,0.321c0.294,0.085,0.607,0.14,0.951,0.14l24-0.003c0.24,0,0.419,0.053,0.559,0.134    c0.974,0.238,1.431,1.09,1.441,1.941v-1.062C45.988,10.978,45.365,9.967,44,9.967z"
         id="path89"
         opacity="0.05" /></g></g><linearGradient
     id="path25_1_"
     gradientUnits="userSpaceOnUse"
     x1="642.9738"
     y1="773.0254"
     x2="642.9738"
     y2="792.192"
     gradientTransform="matrix(1 0 0 1 -564.6602 -757.96)"><stop
       offset="0"
       style="stop-color:#FFFFFF;stop-opacity:0.2"
       id="stop92" /><stop
       offset="0.08"
       style="stop-color:#FFFFFF;stop-opacity:0.9"
       id="stop94" /><stop
       offset="0.25"
       style="stop-color:#FFFFFF;stop-opacity:0.6"
       id="stop96" /><stop
       offset="1"
       style="stop-color:#FFFFFF;stop-opacity:0"
       id="stop98" /></linearGradient><path
     id="path25"
     fill="url(#path25_1_)"
     d="M99.313,26.836c0,2.491-0.66,4.229-4.994,4.229s-29.638,0-33.014,0  s-3.992-1.481-3.992-3.972l0.025-7.056c0-2.488,3.194-4.972,5.472-4.972h31.003c2.279,0,5.531,2.609,5.5,5.5V26.836z" /><g
     id="g27"
     opacity="0.8"><linearGradient
       id="path36_1_"
       gradientUnits="userSpaceOnUse"
       x1="295.3478"
       y1="-333.4479"
       x2="301.3581"
       y2="-343.8579"
       gradientTransform="matrix(1 0 0 -1 -291 -332)"><stop
         offset="0"
         style="stop-color:#FFFFFF"
         id="stop103" /><stop
         offset="0.5"
         style="stop-color:#FFFFFF;stop-opacity:0.6"
         id="stop105" /><stop
         offset="1"
         style="stop-color:#FFFFFF;stop-opacity:0.15"
         id="stop107" /></linearGradient><path
       id="path36"
       fill="url(#path36_1_)"
       d="M9.303,13.627c0.672-1.391,1.492-2.694,2.433-3.899l-1.712-3.754   c-1.462,1.382-2.649,2.905-3.596,4.384L9.303,13.627z" /><linearGradient
       id="path45_1_"
       gradientUnits="userSpaceOnUse"
       x1="300.7964"
       y1="-331.8896"
       x2="304.7298"
       y2="-338.7026"
       gradientTransform="matrix(1 0 0 -1 -291 -332)"><stop
         offset="0"
         style="stop-color:#FFFFFF"
         id="stop111" /><stop
         offset="0.5"
         style="stop-color:#FFFFFF;stop-opacity:0.6"
         id="stop113" /><stop
         offset="1"
         style="stop-color:#FFFFFF;stop-opacity:0.15"
         id="stop115" /></linearGradient><path
       id="path45"
       fill="url(#path45_1_)"
       d="M9.481,2.366l0.895,1.961c0.861-0.715,1.805-0.961,2.834-1.961H9.481z" /><linearGradient
       id="path54_1_"
       gradientUnits="userSpaceOnUse"
       x1="302.0345"
       y1="-330.5953"
       x2="306.8404"
       y2="-338.9194"
       gradientTransform="matrix(1 0 0 -1 -291 -332)"><stop
         offset="0"
         style="stop-color:#FFFFFF"
         id="stop119" /><stop
         offset="0.5"
         style="stop-color:#FFFFFF;stop-opacity:0.6"
         id="stop121" /><stop
         offset="1"
         style="stop-color:#FFFFFF;stop-opacity:0.15"
         id="stop123" /></linearGradient><path
       id="path54"
       fill="url(#path54_1_)"
       d="M16.196,2.366h-0.708c-1.785,1-3.346,1.763-4.685,2.903l1.641,3.6   c1.402-1.619,3.028-3.038,4.849-4.184c0.014-0.013,0.024-0.024,0.039-0.037C19.373,2.886,17.346,2.366,16.196,2.366z" /><linearGradient
       id="path63_1_"
       gradientUnits="userSpaceOnUse"
       x1="291.974"
       y1="-338.1939"
       x2="297.1894"
       y2="-347.2272"
       gradientTransform="matrix(1 0 0 -1 -291 -332)"><stop
         offset="0"
         style="stop-color:#FFFFFF"
         id="stop127" /><stop
         offset="0.5"
         style="stop-color:#FFFFFF;stop-opacity:0.6"
         id="stop129" /><stop
         offset="1"
         style="stop-color:#FFFFFF;stop-opacity:0.15"
         id="stop131" /></linearGradient><path
       id="path63"
       fill="url(#path63_1_)"
       d="M5.882,11.251c-1.098,1.869-1.815,3.596-2.241,4.777   c0.504,0.719,1.337,1.191,2.282,1.191c1.17,0,2.169-0.723,2.583-1.744c0.106-0.285,0.235-0.559,0.353-0.84L5.882,11.251z" /><linearGradient
       id="path72_1_"
       gradientUnits="userSpaceOnUse"
       x1="291.739"
       y1="-338.5643"
       x2="297.519"
       y2="-348.5756"
       gradientTransform="matrix(1 0 0 -1 -291 -332)"><stop
         offset="0"
         style="stop-color:#FFFFFF"
         id="stop135" /><stop
         offset="0.5"
         style="stop-color:#FFFFFF;stop-opacity:0.6"
         id="stop137" /><stop
         offset="1"
         style="stop-color:#FFFFFF;stop-opacity:0.15"
         id="stop139" /></linearGradient><path
       id="path72"
       fill="url(#path72_1_)"
       d="M3.157,8.15l-0.022,6.276c0,0,0,0.002,0,0.004c0,0.039,0.01,0.076,0.012,0.115   c0.477-1.161,1.143-2.58,2.047-4.079L3.157,8.15z" /><linearGradient
       id="path81_1_"
       gradientUnits="userSpaceOnUse"
       x1="296.2229"
       y1="-335.6222"
       x2="301.4355"
       y2="-344.6505"
       gradientTransform="matrix(1 0 0 -1 -291 -332)"><stop
         offset="0"
         style="stop-color:#FFFFFF"
         id="stop143" /><stop
         offset="0.5"
         style="stop-color:#FFFFFF;stop-opacity:0.6"
         id="stop145" /><stop
         offset="1"
         style="stop-color:#FFFFFF;stop-opacity:0.15"
         id="stop147" /></linearGradient><path
       id="path149"
       fill="url(#path81_1_)"
       d="M8.289,2.378c-1.479,0.08-4.724,2.128-5.069,4.33l2.53,2.877   c1.01-1.541,2.266-3.12,3.815-4.546L8.289,2.378z" /></g><g
     transform="translate(-0.001,-4.4570195e-4)"
     id="layer6_12_"><path
       style="opacity:0.05;fill:#ffffff"
       id="path4873_1_"
       inkscape:connector-curvature="0"
       enable-background="new    "
       d="m 23.588,12.902 c -0.668,0 -1.232,0.566 -1.232,1.233 v 2.544 c -0.973,0.573 -1.645,1.6 -1.645,2.801 0,0.538 0.168,1.03 0.398,1.478 l -0.785,2.635 h -1.258 c -0.668,0 -1.234,0.565 -1.234,1.232 0,0.668 0.566,1.233 1.234,1.233 h 0.527 l -0.605,2.005 c -0.473,1.589 -0.719,3.072 -0.732,4.266 -0.006,0.597 0.031,1.113 0.182,1.581 0.146,0.467 0.453,0.981 1.039,1.156 0.434,0.126 0.887,-0.121 1.016,-0.553 l 2.518,-8.455 h 1.992 l 2.518,8.455 c 0.131,0.432 0.584,0.679 1.016,0.553 0.586,-0.175 0.893,-0.689 1.041,-1.156 0.148,-0.468 0.186,-0.984 0.18,-1.581 -0.012,-1.193 -0.258,-2.677 -0.732,-4.266 l -0.604,-2.005 h 0.514 c 0.668,0 1.234,-0.565 1.234,-1.233 0,-0.667 -0.566,-1.232 -1.234,-1.232 H 27.69 l -0.783,-2.647 c 0.225,-0.446 0.385,-0.933 0.385,-1.465 0,-1.201 -0.672,-2.228 -1.645,-2.801 v -2.544 c 0,-0.667 -0.566,-1.233 -1.234,-1.233 h -0.825 z m 0,0.822 h 0.822 c 0.229,0 0.412,0.183 0.412,0.411 v 3.02 c 0.959,0.338 1.645,1.251 1.645,2.325 0,0.521 -0.162,1.003 -0.438,1.401 l 1.055,3.533 h 1.85 c 0.229,0 0.41,0.183 0.41,0.41 0,0.229 -0.182,0.412 -0.41,0.412 h -1.605 l 0.912,3.058 c 0.91,3.056 0.938,5.728 0.064,5.987 l -2.699,-9.045 h -3.199 l -2.697,9.045 c -0.873,-0.26 -0.848,-2.932 0.064,-5.987 l 0.912,-3.058 h -1.619 c -0.229,0 -0.412,-0.184 -0.412,-0.412 0,-0.228 0.184,-0.41 0.412,-0.41 h 1.863 l 1.053,-3.521 c -0.281,-0.4 -0.449,-0.885 -0.449,-1.413 0,-1.074 0.686,-1.987 1.645,-2.325 v -3.02 c -10e-4,-0.228 0.182,-0.411 0.409,-0.411 z M 24,17.835 c -0.908,0 -1.645,0.737 -1.645,1.645 0,0.133 0.021,0.263 0.051,0.386 0.018,0.076 0.037,0.146 0.064,0.219 0.029,0.074 0.062,0.148 0.104,0.219 0.01,0.019 0.025,0.031 0.039,0.051 0.008,0.016 0.014,0.035 0.025,0.051 0.02,0.029 0.043,0.051 0.064,0.078 0.045,0.06 0.1,0.127 0.152,0.18 0.043,0.04 0.084,0.079 0.129,0.115 0.018,0.014 0.033,0.025 0.051,0.039 0.025,0.018 0.053,0.035 0.078,0.051 0.068,0.043 0.145,0.083 0.219,0.115 0.008,0.004 0.016,0.01 0.025,0.014 0.094,0.039 0.193,0.068 0.295,0.09 0.111,0.023 0.229,0.039 0.348,0.039 0.123,0 0.244,-0.026 0.359,-0.053 0.076,-0.016 0.146,-0.037 0.219,-0.063 0.143,-0.054 0.277,-0.129 0.398,-0.218 0.061,-0.045 0.127,-0.09 0.18,-0.143 0.053,-0.052 0.096,-0.107 0.141,-0.166 0.043,-0.055 0.08,-0.12 0.115,-0.18 0.004,-0.006 0.012,-0.008 0.014,-0.014 0.035,-0.062 0.076,-0.125 0.104,-0.192 0.029,-0.073 0.045,-0.152 0.062,-0.231 0.031,-0.123 0.053,-0.253 0.053,-0.386 C 25.645,18.572 24.908,17.835 24,17.835 z m 0,0.823 c 0.465,0 0.822,0.357 0.822,0.821 0,0.042 -0.006,0.106 -0.025,0.192 -0.023,0.101 -0.035,0.137 -0.025,0.116 0.008,-0.024 -0.014,0.011 -0.053,0.077 -0.004,0.006 0.004,0.006 0,0.013 -0.006,0.011 -0.006,0.001 -0.012,0.013 -0.035,0.059 -0.057,0.096 -0.053,0.09 -0.049,0.063 -0.076,0.078 -0.076,0.078 0.021,-0.021 -0.01,0.018 -0.09,0.076 -0.066,0.049 -0.129,0.079 -0.193,0.104 -0.033,0.013 -0.07,0.027 -0.115,0.038 -0.109,0.024 -0.17,0.026 -0.18,0.026 -0.049,0 -0.115,0 -0.18,-0.014 -0.039,-0.008 -0.062,-0.014 -0.09,-0.025 0.002,-0.001 -0.012,-0.009 -0.051,-0.025 -0.008,-0.003 -0.006,0.002 -0.014,0 -0.045,-0.02 -0.09,-0.049 -0.117,-0.064 -0.021,-0.015 -0.033,-0.023 -0.037,-0.025 -0.012,-0.01 -0.021,-0.009 -0.025,-0.014 -0.002,0 -0.025,-0.025 -0.053,-0.051 -0.002,-0.004 0.004,-0.01 0,-0.014 -0.002,-0.003 -0.039,-0.042 -0.076,-0.09 -0.02,-0.025 -0.027,-0.023 -0.039,-0.038 -0.014,-0.02 -0.008,-0.018 -0.012,-0.026 -0.008,-0.009 -0.008,-0.004 -0.014,-0.012 -0.006,-0.011 -0.008,-0.004 -0.014,-0.014 -0.004,-0.008 -0.018,-0.025 -0.025,-0.038 -0.002,-0.003 0.002,-0.011 0,-0.013 -0.006,-0.01 -0.025,-0.039 -0.025,-0.039 -0.002,-0.004 0.002,-0.008 0,-0.013 -0.004,-0.011 -0.008,-0.044 -0.025,-0.116 -0.02,-0.086 -0.025,-0.15 -0.025,-0.192 0,-0.463 0.357,-0.821 0.822,-0.821 z m -0.578,3.211 -0.758,2.545 h 2.697 l -0.758,-2.545 c -0.193,0.049 -0.396,0.078 -0.604,0.078 -0.198,0 -0.392,-0.033 -0.577,-0.078 z M 24,22.77 c 0.004,0 0.008,0 0.012,0 l 0.258,0.822 H 23.756 L 24,22.77 z" /><path
       style="opacity:0.1;fill:#ffffff"
       id="path4862_1_"
       inkscape:connector-curvature="0"
       enable-background="new    "
       d="m 23.588,13.3 c -0.457,0 -0.834,0.377 -0.834,0.835 v 2.775 c -0.967,0.47 -1.645,1.428 -1.645,2.569 0,0.53 0.162,1.013 0.41,1.439 l -0.912,3.071 h -1.541 c -0.457,0 -0.836,0.377 -0.836,0.834 0,0.458 0.379,0.836 0.836,0.836 h 1.041 l -0.746,2.506 c -0.465,1.559 -0.707,3.021 -0.719,4.162 -0.006,0.57 0.039,1.061 0.166,1.465 0.129,0.404 0.359,0.777 0.771,0.899 0.225,0.072 0.467,-0.053 0.539,-0.279 0,-10e-4 0,-0.002 0,-0.003 l 2.609,-8.75 h 2.557 l 2.607,8.75 c 0.07,0.227 0.309,0.353 0.535,0.283 0.002,0 0.004,0 0.004,0 0.412,-0.123 0.645,-0.496 0.771,-0.9 0.129,-0.404 0.174,-0.895 0.168,-1.465 -0.014,-1.141 -0.256,-2.604 -0.721,-4.162 l -0.744,-2.506 h 1.027 c 0.457,0 0.836,-0.378 0.836,-0.836 0,-0.457 -0.379,-0.834 -0.836,-0.834 H 27.402 L 26.49,20.905 c 0.242,-0.424 0.398,-0.904 0.398,-1.427 0,-1.142 -0.678,-2.1 -1.645,-2.569 v -2.775 c 0,-0.458 -0.377,-0.835 -0.836,-0.835 h -0.819 z m 0,0.424 h 0.822 c 0.229,0 0.412,0.183 0.412,0.411 v 3.02 c 0.959,0.338 1.645,1.251 1.645,2.325 0,0.521 -0.162,1.003 -0.438,1.401 l 1.055,3.533 h 1.85 c 0.229,0 0.41,0.183 0.41,0.41 0,0.229 -0.182,0.412 -0.41,0.412 h -1.605 l 0.912,3.058 c 0.91,3.056 0.938,5.728 0.064,5.987 l -2.699,-9.045 h -3.199 l -2.697,9.045 c -0.873,-0.26 -0.848,-2.932 0.064,-5.987 l 0.912,-3.058 h -1.619 c -0.229,0 -0.412,-0.184 -0.412,-0.412 0,-0.228 0.184,-0.41 0.412,-0.41 h 1.863 l 1.053,-3.521 c -0.281,-0.4 -0.449,-0.885 -0.449,-1.413 0,-1.074 0.686,-1.987 1.645,-2.325 v -3.02 c -10e-4,-0.228 0.182,-0.411 0.409,-0.411 z M 24,17.835 c -0.908,0 -1.645,0.737 -1.645,1.645 0,0.133 0.021,0.263 0.051,0.386 0.018,0.076 0.037,0.146 0.064,0.219 0.029,0.074 0.062,0.148 0.104,0.219 0.01,0.019 0.025,0.031 0.039,0.051 0.008,0.016 0.014,0.035 0.025,0.051 0.02,0.029 0.043,0.051 0.064,0.078 0.045,0.06 0.1,0.127 0.152,0.18 0.043,0.04 0.084,0.079 0.129,0.115 0.018,0.014 0.033,0.025 0.051,0.039 0.025,0.018 0.053,0.035 0.078,0.051 0.068,0.043 0.145,0.083 0.219,0.115 0.008,0.004 0.016,0.01 0.025,0.014 0.094,0.039 0.193,0.068 0.295,0.09 0.111,0.023 0.229,0.039 0.348,0.039 0.123,0 0.244,-0.026 0.359,-0.053 0.076,-0.016 0.146,-0.037 0.219,-0.063 0.143,-0.054 0.277,-0.129 0.398,-0.218 0.061,-0.045 0.127,-0.09 0.18,-0.143 0.053,-0.052 0.096,-0.107 0.141,-0.166 0.043,-0.055 0.08,-0.12 0.115,-0.18 0.004,-0.006 0.012,-0.008 0.014,-0.014 0.035,-0.062 0.076,-0.125 0.104,-0.192 0.029,-0.073 0.045,-0.152 0.062,-0.231 0.031,-0.123 0.053,-0.253 0.053,-0.386 C 25.645,18.572 24.908,17.835 24,17.835 z m 0,0.425 c 0.676,0 1.221,0.543 1.221,1.22 0,0.085 -0.014,0.179 -0.039,0.283 -0.021,0.09 -0.041,0.155 -0.051,0.18 -0.008,0.018 -0.035,0.054 -0.078,0.128 -0.004,0.006 0.004,0.008 0,0.014 -0.004,0.004 -0.008,-0.006 -0.012,0 -0.035,0.059 -0.059,0.117 -0.078,0.141 -0.047,0.062 -0.076,0.091 -0.102,0.116 -0.016,0.015 -0.07,0.051 -0.143,0.103 -0.092,0.068 -0.193,0.129 -0.295,0.167 -0.053,0.02 -0.094,0.024 -0.154,0.038 -0.113,0.025 -0.205,0.053 -0.27,0.053 -0.082,0 -0.172,-0.021 -0.258,-0.039 -0.07,-0.016 -0.135,-0.03 -0.193,-0.052 0.002,-10e-4 -0.006,-0.005 -0.023,-0.013 -0.006,-0.002 -0.006,0.004 -0.014,0 -0.059,-0.026 -0.121,-0.061 -0.168,-0.09 -0.02,-0.014 -0.037,-0.029 -0.051,-0.039 -0.004,-0.002 -0.01,0.003 -0.014,0 -0.01,-0.008 -0.016,-0.02 -0.025,-0.025 -0.021,-0.018 -0.061,-0.049 -0.102,-0.09 -0.027,-0.027 -0.076,-0.074 -0.117,-0.129 -0.051,-0.066 -0.057,-0.092 -0.037,-0.064 0.047,0.07 0.033,0.057 -0.025,-0.038 -0.018,-0.024 -0.02,-0.027 -0.027,-0.038 -0.025,-0.045 -0.053,-0.093 -0.076,-0.154 -0.016,-0.04 -0.033,-0.094 -0.051,-0.167 -0.025,-0.104 -0.039,-0.198 -0.039,-0.283 0,-0.679 0.543,-1.222 1.221,-1.222 z m -0.578,3.609 -0.758,2.545 h 2.697 l -0.758,-2.545 c -0.193,0.049 -0.396,0.078 -0.604,0.078 -0.198,0 -0.392,-0.033 -0.577,-0.078 z m 0.308,0.463 c 0.092,0.011 0.172,0.039 0.27,0.039 0.104,0 0.195,-0.027 0.295,-0.039 l 0.488,1.658 h -1.541 l 0.488,-1.658 z" /><path
       style="opacity:0.5;fill:#669ccc"
       id="rect2957_1_"
       inkscape:connector-curvature="0"
       enable-background="new    "
       d="m 23.588,13.724 c -0.227,0 -0.41,0.183 -0.41,0.411 v 3.02 c -0.959,0.338 -1.645,1.251 -1.645,2.325 0,0.528 0.168,1.013 0.449,1.413 l -1.053,3.521 h -1.863 c -0.229,0 -0.412,0.183 -0.412,0.41 0,0.229 0.184,0.412 0.412,0.412 h 1.619 l -0.912,3.058 c -0.912,3.056 -0.938,5.728 -0.064,5.987 l 2.697,-9.045 h 3.199 l 2.699,9.045 c 0.873,-0.26 0.846,-2.932 -0.064,-5.987 l -0.912,-3.058 h 1.605 c 0.229,0 0.41,-0.184 0.41,-0.412 0,-0.228 -0.182,-0.41 -0.41,-0.41 h -1.85 l -1.055,-3.533 c 0.275,-0.398 0.438,-0.88 0.438,-1.401 0,-1.074 -0.686,-1.987 -1.645,-2.325 v -3.02 c 0,-0.228 -0.184,-0.411 -0.412,-0.411 H 23.588 z M 24,17.835 c 0.908,0 1.645,0.737 1.645,1.645 0,0.133 -0.021,0.263 -0.053,0.386 -0.018,0.079 -0.033,0.158 -0.062,0.231 -0.027,0.067 -0.068,0.13 -0.104,0.192 -0.002,0.006 -0.01,0.008 -0.014,0.014 -0.035,0.06 -0.072,0.125 -0.115,0.18 -0.045,0.059 -0.088,0.114 -0.141,0.166 -0.053,0.053 -0.119,0.098 -0.18,0.143 -0.121,0.089 -0.256,0.164 -0.398,0.218 -0.072,0.026 -0.143,0.048 -0.219,0.063 -0.115,0.026 -0.236,0.053 -0.359,0.053 -0.119,0 -0.236,-0.016 -0.348,-0.039 -0.102,-0.021 -0.201,-0.051 -0.295,-0.09 -0.01,-0.004 -0.018,-0.01 -0.025,-0.014 -0.074,-0.032 -0.15,-0.072 -0.219,-0.115 C 23.088,20.852 23.06,20.835 23.035,20.817 23.017,20.803 23.002,20.792 22.984,20.778 22.939,20.742 22.898,20.703 22.855,20.663 22.802,20.61 22.748,20.543 22.703,20.483 22.682,20.456 22.658,20.434 22.639,20.405 22.627,20.389 22.621,20.37 22.614,20.354 22.6,20.334 22.585,20.322 22.575,20.303 22.534,20.233 22.501,20.158 22.471,20.084 22.444,20.012 22.424,19.941 22.407,19.865 22.378,19.742 22.356,19.612 22.356,19.479 22.355,18.572 23.092,17.835 24,17.835 z m -0.578,4.034 c 0.186,0.045 0.379,0.078 0.578,0.078 0.207,0 0.41,-0.029 0.604,-0.078 l 0.758,2.545 h -2.697 l 0.757,-2.545 z" /><path
       style="opacity:0.5;fill:#669ccc"
       id="path4832_1_"
       inkscape:connector-curvature="0"
       enable-background="new    "
       d="m 23.588,13.724 c -0.227,0 -0.41,0.183 -0.41,0.411 v 3.02 c -0.959,0.338 -1.645,1.251 -1.645,2.325 0,0.528 0.168,1.013 0.449,1.413 l -1.053,3.521 h -1.863 c -0.229,0 -0.412,0.183 -0.412,0.41 0,0.229 0.184,0.412 0.412,0.412 h 1.619 l -0.912,3.058 c -0.912,3.056 -0.938,5.728 -0.064,5.987 l 2.697,-9.045 h 3.199 l 2.699,9.045 c 0.873,-0.26 0.846,-2.932 -0.064,-5.987 l -0.912,-3.058 h 1.605 c 0.229,0 0.41,-0.184 0.41,-0.412 0,-0.228 -0.182,-0.41 -0.41,-0.41 h -1.85 l -1.055,-3.533 c 0.275,-0.398 0.438,-0.88 0.438,-1.401 0,-1.074 -0.686,-1.987 -1.645,-2.325 v -3.02 c 0,-0.228 -0.184,-0.411 -0.412,-0.411 H 23.588 z M 24,17.835 c 0.908,0 1.645,0.737 1.645,1.645 0,0.133 -0.021,0.263 -0.053,0.386 -0.018,0.079 -0.033,0.158 -0.062,0.231 -0.027,0.067 -0.068,0.13 -0.104,0.192 -0.002,0.006 -0.01,0.008 -0.014,0.014 -0.035,0.06 -0.072,0.125 -0.115,0.18 -0.045,0.059 -0.088,0.114 -0.141,0.166 -0.053,0.053 -0.119,0.098 -0.18,0.143 -0.121,0.089 -0.256,0.164 -0.398,0.218 -0.072,0.026 -0.143,0.048 -0.219,0.063 -0.115,0.026 -0.236,0.053 -0.359,0.053 -0.119,0 -0.236,-0.016 -0.348,-0.039 -0.102,-0.021 -0.201,-0.051 -0.295,-0.09 -0.01,-0.004 -0.018,-0.01 -0.025,-0.014 -0.074,-0.032 -0.15,-0.072 -0.219,-0.115 C 23.088,20.852 23.06,20.835 23.035,20.817 23.017,20.803 23.002,20.792 22.984,20.778 22.939,20.742 22.898,20.703 22.855,20.663 22.802,20.61 22.748,20.543 22.703,20.483 22.682,20.456 22.658,20.434 22.639,20.405 22.627,20.389 22.621,20.37 22.614,20.354 22.6,20.334 22.585,20.322 22.575,20.303 22.534,20.233 22.501,20.158 22.471,20.084 22.444,20.012 22.424,19.941 22.407,19.865 22.378,19.742 22.356,19.612 22.356,19.479 22.355,18.572 23.092,17.835 24,17.835 z m 1.361,3.675 0.025,0.077 c -0.012,-0.022 -0.025,-0.043 -0.039,-0.064 0.007,-0.003 0.01,-0.01 0.014,-0.013 z m -2.722,0.025 c 0.008,0.006 0.016,0.021 0.025,0.025 -0.01,0.025 -0.02,0.052 -0.025,0.078 l -0.76,2.543 c -0.043,0.143 -0.047,0.293 -0.012,0.438 0,0.004 0,0.009 0,0.013 -0.115,0.101 -0.199,0.228 -0.244,0.373 l -1.131,3.764 c 0.023,-0.084 0.039,-0.158 0.064,-0.243 l 0.912,-3.059 c 0.045,-0.146 0.051,-0.301 0.014,-0.449 0.109,-0.102 0.188,-0.229 0.23,-0.373 l 0.927,-3.11 z m 2.748,0.104 0.912,3.006 c 0.043,0.144 0.123,0.271 0.232,0.373 -0.037,0.148 -0.033,0.304 0.012,0.449 l 0.912,3.059 c 0.025,0.085 0.041,0.159 0.064,0.243 l -1.131,-3.764 c -0.041,-0.144 -0.121,-0.271 -0.23,-0.373 0.037,-0.147 0.033,-0.304 -0.014,-0.45 l -0.757,-2.543 z m -1.965,0.23 c 0.186,0.045 0.379,0.078 0.578,0.078 0.207,0 0.41,-0.029 0.604,-0.078 l 0.758,2.545 h -2.697 l 0.757,-2.545 z" /><path
       style="opacity:0.5;fill:#669ccc"
       id="path4806_1_"
       inkscape:connector-curvature="0"
       enable-background="new    "
       d="m 23.588,13.724 c -0.227,0 -0.41,0.183 -0.41,0.411 v 0.411 c 0,-0.228 0.184,-0.411 0.41,-0.411 h 0.822 c 0.229,0 0.412,0.183 0.412,0.411 v -0.411 c 0,-0.228 -0.184,-0.411 -0.412,-0.411 h -0.822 z m -0.41,3.43 c -0.959,0.338 -1.645,1.251 -1.645,2.325 0,0.071 0.008,0.138 0.014,0.206 0.08,-0.984 0.734,-1.804 1.631,-2.12 v -0.411 z m 1.644,0 v 0.411 c 0.896,0.316 1.551,1.136 1.631,2.12 0.006,-0.068 0.014,-0.137 0.014,-0.206 0,-1.074 -0.686,-1.987 -1.645,-2.325 z m -2.441,2.557 c -0.006,0.06 -0.025,0.119 -0.025,0.18 0,0.133 0.021,0.263 0.051,0.386 0.018,0.077 0.037,0.146 0.064,0.218 0.029,0.075 0.062,0.15 0.104,0.219 0.01,0.02 0.025,0.033 0.039,0.052 0.008,0.017 0.014,0.036 0.025,0.052 0.02,0.028 0.043,0.049 0.064,0.076 0.045,0.061 0.1,0.127 0.152,0.18 0.043,0.041 0.084,0.08 0.129,0.116 0.018,0.014 0.033,0.026 0.051,0.038 0.025,0.019 0.053,0.035 0.078,0.053 0.068,0.043 0.145,0.082 0.219,0.115 0.008,0.004 0.016,0.009 0.025,0.013 0.094,0.038 0.193,0.067 0.295,0.09 0.111,0.022 0.229,0.038 0.348,0.038 0.123,0 0.244,-0.025 0.359,-0.051 0.076,-0.018 0.146,-0.037 0.219,-0.064 0.143,-0.054 0.277,-0.129 0.398,-0.219 0.061,-0.045 0.127,-0.089 0.18,-0.141 0.053,-0.053 0.096,-0.107 0.141,-0.168 0.043,-0.054 0.08,-0.119 0.115,-0.18 0.004,-0.004 0.012,-0.008 0.014,-0.012 0.035,-0.062 0.076,-0.126 0.104,-0.193 0.029,-0.074 0.045,-0.152 0.062,-0.231 0.031,-0.123 0.053,-0.253 0.053,-0.386 0,-0.061 -0.02,-0.12 -0.025,-0.18 -0.01,0.051 -0.016,0.105 -0.027,0.154 -0.018,0.079 -0.033,0.158 -0.062,0.231 -0.027,0.067 -0.068,0.13 -0.104,0.192 -0.002,0.006 -0.01,0.008 -0.014,0.014 -0.035,0.06 -0.072,0.125 -0.115,0.18 -0.045,0.059 -0.088,0.114 -0.141,0.166 -0.053,0.053 -0.119,0.098 -0.18,0.143 -0.121,0.089 -0.256,0.164 -0.398,0.218 -0.072,0.026 -0.143,0.048 -0.219,0.063 -0.115,0.026 -0.236,0.053 -0.359,0.053 -0.119,0 -0.236,-0.016 -0.348,-0.039 -0.102,-0.021 -0.201,-0.051 -0.295,-0.09 -0.01,-0.004 -0.018,-0.01 -0.025,-0.014 -0.074,-0.032 -0.15,-0.072 -0.219,-0.115 -0.025,-0.016 -0.053,-0.033 -0.078,-0.051 -0.018,-0.014 -0.033,-0.025 -0.051,-0.039 -0.045,-0.036 -0.086,-0.075 -0.129,-0.115 -0.053,-0.053 -0.107,-0.12 -0.152,-0.18 -0.021,-0.027 -0.045,-0.049 -0.064,-0.078 -0.012,-0.016 -0.018,-0.035 -0.025,-0.051 -0.014,-0.02 -0.029,-0.032 -0.039,-0.051 -0.041,-0.07 -0.074,-0.145 -0.104,-0.219 -0.027,-0.072 -0.047,-0.143 -0.064,-0.219 -0.013,-0.048 -0.019,-0.103 -0.027,-0.154 z m 3.726,1.44 c -0.029,0.047 -0.047,0.096 -0.078,0.141 l 1.055,3.533 h 1.85 c 0.15,0 0.275,0.086 0.348,0.206 0.037,-0.062 0.062,-0.128 0.062,-0.206 0,-0.228 -0.182,-0.41 -0.41,-0.41 h -1.85 l -0.977,-3.264 z m -4.201,0.012 -0.977,3.251 h -1.863 c -0.229,0 -0.412,0.183 -0.412,0.41 0,0.078 0.027,0.145 0.064,0.206 0.072,-0.12 0.197,-0.206 0.348,-0.206 h 1.863 l 1.053,-3.52 c -0.031,-0.042 -0.05,-0.096 -0.076,-0.141 z m 0.887,3.251 -0.129,0.41 h 2.697 l -0.129,-0.41 h -2.439 z m -2.236,1.234 -0.783,2.646 c -0.494,1.655 -0.723,3.196 -0.695,4.304 0.031,-1.063 0.26,-2.433 0.695,-3.893 l 0.912,-3.058 h -0.129 z m 6.771,0 0.912,3.058 c 0.436,1.46 0.664,2.829 0.693,3.893 0.027,-1.107 -0.201,-2.648 -0.693,-4.304 l -0.785,-2.646 h -0.127 z" /><path
       style="opacity:0.5;fill:#669ccc"
       id="path4815_1_"
       inkscape:connector-curvature="0"
       enable-background="new    "
       d="m 23.588,13.724 c -0.227,0 -0.41,0.183 -0.41,0.411 v 3.02 c -0.959,0.338 -1.645,1.251 -1.645,2.325 0,0.528 0.168,1.013 0.449,1.413 l -1.053,3.521 h -1.863 c -0.229,0 -0.412,0.183 -0.412,0.41 0,0.229 0.184,0.412 0.412,0.412 h 1.619 l -0.912,3.058 c -0.912,3.056 -0.938,5.728 -0.064,5.987 l 2.697,-9.045 h 3.199 l 2.699,9.045 c 0.873,-0.26 0.846,-2.932 -0.064,-5.987 l -0.912,-3.058 h 1.605 c 0.229,0 0.41,-0.184 0.41,-0.412 0,-0.228 -0.182,-0.41 -0.41,-0.41 h -1.85 l -1.055,-3.533 c 0.275,-0.398 0.438,-0.88 0.438,-1.401 0,-1.074 -0.686,-1.987 -1.645,-2.325 v -3.02 c 0,-0.228 -0.184,-0.411 -0.412,-0.411 h -0.821 z m 0,0.411 h 0.822 v 3.02 c 0,0.172 0.109,0.326 0.271,0.385 0.02,0.008 0.031,0.031 0.051,0.039 -0.23,-0.09 -0.473,-0.154 -0.732,-0.154 -0.259,0 -0.504,0.064 -0.732,0.154 0.02,-0.008 0.029,-0.031 0.051,-0.039 0.162,-0.059 0.27,-0.213 0.27,-0.385 v -3.02 z m 0.412,3.7 c 0.908,0 1.645,0.737 1.645,1.645 0,0.133 -0.021,0.263 -0.053,0.386 -0.018,0.079 -0.033,0.158 -0.062,0.231 -0.027,0.067 -0.068,0.13 -0.104,0.192 -0.002,0.006 -0.01,0.008 -0.014,0.014 -0.035,0.06 -0.072,0.125 -0.115,0.18 -0.045,0.059 -0.088,0.114 -0.141,0.166 -0.053,0.053 -0.119,0.098 -0.18,0.143 -0.121,0.089 -0.256,0.164 -0.398,0.218 -0.072,0.026 -0.143,0.048 -0.219,0.063 -0.115,0.026 -0.236,0.053 -0.359,0.053 -0.119,0 -0.236,-0.016 -0.348,-0.039 -0.102,-0.021 -0.201,-0.051 -0.295,-0.09 -0.01,-0.004 -0.018,-0.01 -0.025,-0.014 -0.074,-0.032 -0.15,-0.072 -0.219,-0.115 C 23.088,20.852 23.06,20.835 23.035,20.817 23.017,20.803 23.002,20.792 22.984,20.778 22.939,20.742 22.898,20.703 22.855,20.663 22.802,20.61 22.748,20.543 22.703,20.483 22.682,20.456 22.658,20.434 22.639,20.405 22.627,20.389 22.621,20.37 22.614,20.354 22.6,20.334 22.585,20.322 22.575,20.303 22.534,20.233 22.501,20.158 22.471,20.084 22.444,20.012 22.424,19.941 22.407,19.865 22.378,19.742 22.356,19.612 22.356,19.479 22.355,18.572 23.092,17.835 24,17.835 z m 1.709,2.763 c -0.01,0.015 -0.004,0.037 -0.014,0.051 -0.008,0.009 -0.018,0.018 -0.025,0.026 0.018,-0.024 0.025,-0.055 0.039,-0.077 z m -3.367,0.09 c 0.01,0.011 0.043,0.043 0.039,0.039 0.051,0.066 0.113,0.153 0.193,0.23 0.041,0.041 0.086,0.088 0.154,0.142 0.021,0.019 0.043,0.037 0.064,0.052 0.035,0.025 0.074,0.047 0.102,0.064 0.09,0.057 0.18,0.101 0.27,0.141 -0.031,-0.014 -0.014,-0.01 0.039,0.014 0,0.004 0,0.008 0,0.012 0.088,0.037 0.17,0.057 0.256,0.078 -0.197,-0.021 -0.381,0.104 -0.436,0.295 l -0.758,2.544 c -0.068,0.217 0.053,0.447 0.27,0.515 0.018,0.006 0.035,0.01 0.051,0.012 h -0.18 c -0.184,-0.001 -0.346,0.119 -0.398,0.297 L 19.58,33.24 c -0.051,-0.255 -0.107,-0.513 -0.104,-0.898 0.012,-1.027 0.248,-2.435 0.693,-3.933 l 0.914,-3.058 c 0.066,-0.217 -0.055,-0.447 -0.271,-0.515 -0.018,-0.005 -0.033,-0.009 -0.051,-0.013 h 0.168 c 0.184,0.002 0.346,-0.118 0.396,-0.295 l 1.055,-3.521 c 0.032,-0.106 0.018,-0.222 -0.038,-0.319 z m 3.303,0.025 c -0.037,0.09 -0.043,0.19 -0.014,0.283 l 1.055,3.533 c 0.051,0.177 0.213,0.297 0.398,0.295 h 0.166 c -0.223,0.04 -0.373,0.254 -0.332,0.477 0.002,0.018 0.006,0.035 0.012,0.051 l 0.912,3.058 c 0.447,1.498 0.684,2.905 0.693,3.933 0.004,0.386 -0.053,0.644 -0.104,0.898 l -2.428,-8.119 c -0.051,-0.178 -0.215,-0.298 -0.398,-0.297 h -0.166 c 0.223,-0.039 0.373,-0.252 0.332,-0.476 -0.002,-0.018 -0.006,-0.034 -0.012,-0.051 l -0.758,-2.544 c -0.062,-0.215 -0.285,-0.34 -0.502,-0.283 -0.016,0.004 -0.033,-0.004 -0.051,0 0.092,-0.02 0.18,-0.043 0.27,-0.076 0.184,-0.068 0.354,-0.161 0.502,-0.27 0.051,-0.038 0.127,-0.092 0.219,-0.181 0.08,-0.079 0.135,-0.147 0.18,-0.206 0.008,-0.01 0.018,-0.015 0.026,-0.025 z m -2.223,1.156 c 0.186,0.045 0.379,0.078 0.578,0.078 0.207,0 0.41,-0.029 0.604,-0.078 l 0.758,2.545 h -2.697 l 0.757,-2.545 z" /><path
       style="opacity:0.2;fill:#ffffff"
       id="path4847_1_"
       inkscape:connector-curvature="0"
       enable-background="new    "
       d="m 24,17.835 c -0.908,0 -1.645,0.737 -1.645,1.645 0,0.08 0.012,0.155 0.025,0.231 0.09,-0.823 0.771,-1.465 1.619,-1.465 0.848,0 1.527,0.642 1.619,1.465 C 25.63,19.635 25.643,19.56 25.643,19.48 25.645,18.572 24.908,17.835 24,17.835 z m -2.453,1.851 c -0.006,0.067 -0.014,0.137 -0.014,0.205 0,0.471 0.143,0.898 0.373,1.272 l 0.076,-0.271 c -0.244,-0.347 -0.398,-0.76 -0.435,-1.206 z m 4.906,0 c -0.035,0.441 -0.186,0.85 -0.424,1.195 l 0.078,0.27 c 0.221,-0.369 0.359,-0.797 0.359,-1.26 10e-4,-0.069 -0.007,-0.138 -0.013,-0.205 z m -3.031,2.183 -0.758,2.545 h 0.129 l 0.629,-2.133 c 0.186,0.044 0.379,0.076 0.578,0.076 0.207,0 0.41,-0.029 0.604,-0.076 l 0.629,2.133 h 0.129 l -0.758,-2.545 c -0.193,0.049 -0.396,0.078 -0.604,0.078 -0.199,0 -0.393,-0.033 -0.578,-0.078 z m -4.703,3.161 c -0.037,0.062 -0.064,0.128 -0.064,0.206 0,0.229 0.184,0.411 0.412,0.411 h 1.49 l 0.129,-0.411 h -1.619 c -0.151,0 -0.276,-0.085 -0.348,-0.206 z m 10.562,0 c -0.072,0.12 -0.197,0.206 -0.348,0.206 h -1.605 l 0.127,0.411 h 1.479 c 0.229,0 0.41,-0.183 0.41,-0.411 0,-0.078 -0.026,-0.144 -0.063,-0.206 z m -6.875,0.206 -2.697,9.045 c -0.4,-0.12 -0.605,-0.746 -0.631,-1.684 -0.031,1.162 0.174,1.959 0.631,2.095 l 2.697,-9.045 h 3.199 l 2.699,9.045 c 0.455,-0.136 0.66,-0.933 0.629,-2.095 -0.023,0.938 -0.23,1.563 -0.629,1.684 l -2.699,-9.045 h -3.199 z" /></g></svg>