<?xml version="1.0" encoding="UTF-8" standalone="no"?>
<!-- Generator: Adobe Illustrator 17.0.0, SVG Export Plug-In . SVG Version: 6.00 Build 0)  -->

<svg
   xmlns:dc="http://purl.org/dc/elements/1.1/"
   xmlns:cc="http://creativecommons.org/ns#"
   xmlns:rdf="http://www.w3.org/1999/02/22-rdf-syntax-ns#"
   xmlns:svg="http://www.w3.org/2000/svg"
   xmlns="http://www.w3.org/2000/svg"
   xmlns:xlink="http://www.w3.org/1999/xlink"
   xmlns:sodipodi="http://sodipodi.sourceforge.net/DTD/sodipodi-0.dtd"
   xmlns:inkscape="http://www.inkscape.org/namespaces/inkscape"
   version="1.1"
   id="图层_1"
   inkscape:version="0.48.4 r9939"
   sodipodi:docname="folder-home.svg"
   x="0px"
   y="0px"
   width="48px"
   height="48px"
   viewBox="0 0 48 48"
   enable-background="new 0 0 48 48"
   xml:space="preserve"><metadata
     id="metadata153"><rdf:RDF><cc:Work
         rdf:about=""><dc:format>image/svg+xml</dc:format><dc:type
           rdf:resource="http://purl.org/dc/dcmitype/StillImage" /><dc:title></dc:title></cc:Work></rdf:RDF></metadata><defs
     id="defs151"><linearGradient
       id="path3347_1_"
       gradientUnits="userSpaceOnUse"
       x1="879.66052"
       y1="-1124.1611"
       x2="879.66052"
       y2="-1107.6879"
       gradientTransform="matrix(1,0,0,-1,-855.6602,-1091.96)"><stop
         offset="0"
         style="stop-color:#a2c8f1;stop-opacity:0.78430003;"
         id="stop155" /><stop
         offset="1"
         style="stop-color:#6eaee6;stop-opacity:0.39219999;"
         id="stop157" /></linearGradient><linearGradient
       id="rect2941_2_"
       gradientUnits="userSpaceOnUse"
       x1="590.66058"
       y1="792.53833"
       x2="590.66058"
       y2="778.87122"
       gradientTransform="translate(-566.6602,-761.96)"><stop
         offset="0"
         style="stop-color:#a5c8ee;stop-opacity:0.78430003;"
         id="stop155-3" /><stop
         offset="1"
         style="stop-color:#6eaee6;stop-opacity:0.39219999;"
         id="stop157-8" /></linearGradient></defs><sodipodi:namedview
     inkscape:current-layer="图层_1"
     inkscape:window-maximized="0"
     inkscape:window-y="149"
     inkscape:window-x="1173"
     inkscape:window-height="480"
     inkscape:window-width="702"
     inkscape:pageshadow="2"
     inkscape:pageopacity="0"
     inkscape:cy="26.77801"
     inkscape:cx="25.585848"
     inkscape:zoom="5.6568542"
     showgrid="false"
     guidetolerance="10"
     gridtolerance="10"
     objecttolerance="10"
     borderopacity="1"
     pagecolor="#ffffff"
     bordercolor="#666666"
     id="namedview252"
     showguides="true"
     inkscape:guide-bbox="true"><sodipodi:guide
       orientation="-0.70710678,0.70710678"
       position="-135.41095,99.52528"
       id="guide3130" /></sodipodi:namedview><radialGradient
     id="ellipse10_1_"
     cx="315"
     cy="-2047.0854"
     r="23.9962"
     gradientTransform="matrix(1 0 0 -0.1841 -291 -333.2854)"
     gradientUnits="userSpaceOnUse"><stop
       offset="0"
       style="stop-color:#000000;stop-opacity:0.6"
       id="stop5" /><stop
       offset="0.8996"
       style="stop-color:#000000;stop-opacity:0.0603"
       id="stop7" /><stop
       offset="1"
       style="stop-color:#000000;stop-opacity:0"
       id="stop9" /></radialGradient><ellipse
     id="ellipse10"
     display="none"
     fill="url(#ellipse10_1_)"
     cx="24"
     cy="43.583"
     rx="24"
     ry="4.417" /><linearGradient
     id="path12_1_"
     gradientUnits="userSpaceOnUse"
     x1="24"
     y1="45"
     x2="24"
     y2="1"><stop
       offset="0"
       style="stop-color:#c2d3e1;stop-opacity:1;"
       id="stop13" /><stop
       offset="0.4314"
       style="stop-color:#AFD3E2"
       id="stop15" /><stop
       offset="1"
       style="stop-color:#cadff0;stop-opacity:1;"
       id="stop17" /></linearGradient><path
     id="path12"
     fill="url(#path12_1_)"
     d="M46,39.5c0,3.037-2.463,5.5-5.5,5.5h-33C4.462,45,2,42.537,2,39.5v-33  C2,3.462,4.462,1,7.5,1h33C43.537,1,46,3.462,46,6.5V39.5z" /><path
     id="path188"
     fill="#FFFFFF"
     enable-background="new    "
     d="M40.5,2H7.499C5.017,2,3,4.018,3,6.5v33  C3,41.98,5.017,44,7.499,44H40.5c2.48,0,4.5-2.02,4.5-4.5v-33C45,4.018,42.98,2,40.5,2z M44,39.5c0,1.933-1.567,3.5-3.5,3.5h-33  C5.567,43,4,41.433,4,39.5v-33C4,4.567,5.567,3,7.5,3h33C42.433,3,44,4.567,44,6.5V39.5z" /><linearGradient
     id="path98_1_"
     gradientUnits="userSpaceOnUse"
     x1="314.9998"
     y1="-333.0005"
     x2="314.9998"
     y2="-377"
     gradientTransform="matrix(1 0 0 -1 -291 -332)"><stop
       offset="0"
       style="stop-color:#000000;stop-opacity:0.1"
       id="stop22" /><stop
       offset="1"
       style="stop-color:#000000;stop-opacity:0.8"
       id="stop24" /></linearGradient><path
     id="path98"
     opacity="0.5"
     fill="url(#path98_1_)"
     fill-opacity="0.8"
     enable-background="new    "
     d="M40.5,1h-33  C4.462,1,2,3.463,2,6.5v33C2,42.537,4.462,45,7.5,45h33c3.037,0,5.5-2.463,5.5-5.5v-33C46,3.463,43.537,1,40.5,1z M44.94,39.484  c0,2.48-2.019,4.5-4.497,4.5H7.462c-2.481,0-4.497-2.02-4.497-4.5v-33c0-2.482,2.016-4.5,4.497-4.5h32.981  c2.479,0,4.497,2.018,4.497,4.5V39.484z" /><g
     id="g125"
     display="none"
     opacity="0.3"><defs
       id="defs28"><filter
         id="Adobe_OpacityMaskFilter"
         filterUnits="userSpaceOnUse"
         x="4.769"
         y="13.895"
         width="37.382"
         height="27.883"><feColorMatrix
           type="matrix"
           values="1 0 0 0 0  0 1 0 0 0  0 0 1 0 0  0 0 0 1 0"
           id="feColorMatrix31" /></filter></defs><mask
       maskUnits="userSpaceOnUse"
       x="4.769"
       y="13.895"
       width="37.382"
       height="27.883"
       id="SVGID_11_"
       display="inline"><g
         id="g135"
         filter="url(#Adobe_OpacityMaskFilter)"><image
           sodipodi:absref="/usr/share/icons/Deepin/places/48/DEB81AAE695B461C.jpeg"
           xlink:href="DEB81AAE695B461C.jpeg"
           transform="matrix(0.232 0 0 0.2313 2.7686 11.8945)"
           id="image137"
           height="138"
           width="179"
           enable-background="new    "
           overflow="visible" /></g></mask><g
       id="g139"
       display="inline"
       mask="url(#SVGID_11_)"><path
         id="path141"
         fill="#FFF2B3"
         d="M7.228,41.777c-1.356,0-2.459-1.135-2.459-2.528v-25.29l10.667-0.064    c0.102,0.77,0.198,1.883,0.875,2.788c0.542,0.724,1.464,1.31,3.214,1.31l22.626-0.003v21.26c0,1.394-1.104,2.528-2.459,2.528    H7.228z" /></g></g><g
     id="g151"
     opacity="0.5"><path
       id="path153"
       opacity="0.08"
       enable-background="new    "
       d="M40.514,45h-33C4.476,45,2,42.521,2,39.484v4.219   C2,46.076,3.937,48,6.31,48h35.407C44.09,48,46,46.076,46,43.703v-4.219C46,42.521,43.551,45,40.514,45z" /><path
       id="path155"
       opacity="0.1"
       enable-background="new    "
       d="M40.486,45h-33C4.449,45,2,42.566,2,39.529v2.207   C2,44.109,3.046,47,7.283,47s29.112,0,33.405,0S46,44.109,46,41.736v-2.207C46,42.566,43.523,45,40.486,45z" /><path
       id="path157"
       opacity="0.1"
       enable-background="new    "
       d="M40.486,45h-33C4.449,45,2,42.566,2,39.529v1.191   C2,43.094,3.814,46,7.283,46s29.434,0,33.405,0C44.66,46,46,43.094,46,40.721v-1.191C46,42.566,43.523,45,40.486,45z" /><rect
       id="rect159"
       x="7"
       y="45"
       opacity="0.05"
       enable-background="new    "
       width="34"
       height="1" /><rect
       id="rect161"
       x="8"
       y="45"
       opacity="0.05"
       enable-background="new    "
       width="31"
       height="1" /><rect
       id="rect163"
       x="8"
       y="46"
       opacity="0.05"
       enable-background="new    "
       width="31"
       height="1" /><rect
       id="rect165"
       x="10"
       y="46"
       opacity="0.05"
       enable-background="new    "
       width="28"
       height="1" /><rect
       id="rect167"
       x="13"
       y="46"
       opacity="0.05"
       enable-background="new    "
       width="22"
       height="1" /><rect
       id="rect169"
       x="17"
       y="46"
       opacity="0.05"
       enable-background="new    "
       width="14"
       height="1" /><rect
       id="rect171"
       x="10"
       y="45"
       opacity="0.05"
       enable-background="new    "
       width="28"
       height="1" /><rect
       id="rect173"
       x="12"
       y="45"
       opacity="0.05"
       enable-background="new    "
       width="24"
       height="1" /><rect
       id="rect175"
       x="13"
       y="45"
       opacity="0.05"
       enable-background="new    "
       width="22"
       height="1" /><rect
       id="rect177"
       x="15"
       y="45"
       opacity="0.05"
       enable-background="new    "
       width="18"
       height="1" /><rect
       id="rect179"
       x="15"
       y="45"
       opacity="0.05"
       enable-background="new    "
       width="18"
       height="1" /></g><path
     id="path197"
     fill="#8FBCE5"
     d="M40.5,1h-33C4.462,1,2,3.463,2,6.5v33C2,42.537,4.462,45,7.5,45h33c3.037,0,5.5-2.463,5.5-5.5  v-33C46,3.463,43.537,1,40.5,1z M44.94,39.484c0,2.48-2.019,4.5-4.497,4.5H7.462c-2.481,0-4.497-2.02-4.497-4.5v-33  c0-2.482,2.016-4.5,4.497-4.5h32.981c2.479,0,4.497,2.018,4.497,4.5V39.484z"
     style="fill:#9dbcd7;fill-opacity:1" /><g
     id="g203"
     display="none"><polygon
       id="polygon205"
       display="inline"
       opacity="0.6"
       fill="#FFF8D9"
       enable-background="new    "
       points="17,36 17,29    13.062,29 23.992,18.889 28,22.544 28,22 31,22 31,25.304 35.033,29 31,29 31,36  " /><polygon
       id="polygon207"
       display="inline"
       opacity="0.8"
       fill="#8C6E22"
       enable-background="new    "
       points="17.5,35.5 17.5,28.5    14.339,28.5 23.995,19.567 28.5,23.677 28.5,22.5 30.5,22.5 30.5,25.523 33.748,28.5 30.5,28.5 30.5,35.5  " /><linearGradient
       id="polygon214_1_"
       gradientUnits="userSpaceOnUse"
       x1="315.0388"
       y1="-352.2461"
       x2="315.0388"
       y2="-367"
       gradientTransform="matrix(1 0 0 -1 -291 -332)"><stop
         offset="0"
         style="stop-color:#BFAA68"
         id="stop58" /><stop
         offset="1"
         style="stop-color:#CBA03B"
         id="stop60" /></linearGradient><polygon
       id="polygon214"
       display="inline"
       fill="url(#polygon214_1_)"
       points="18,35 18,28 15.616,28 23.997,20.246 29,24.81    29,23 30,23 30,25.743 32.462,28 30,28 30,35  " /></g><path
     id="path216"
     fill="none"
     d="M35.033,29" /><path
     id="path218"
     fill="none"
     d="M24,18.889" /><path
     id="path248"
     fill="none"
     d="M160.033,49" /><path
     id="path250"
     fill="none"
     d="M149,38.889" /><g
     id="g67"><linearGradient
       id="path123_1_"
       gradientUnits="userSpaceOnUse"
       x1="315.0002"
       y1="-340.5918"
       x2="315.0002"
       y2="-376.6097"
       gradientTransform="matrix(1 0 0 -1 -291 -332)"><stop
         offset="0"
         style="stop-color:#e4eefb;stop-opacity:1;"
         id="stop70" /><stop
         offset="1"
         style="stop-color:#d1e0ed;stop-opacity:1;"
         id="stop72" /></linearGradient><path
       id="path123"
       d="M44,11.984c-5.805,0-22.341,0.003-24,0.003c-2.016,0-2-1.987-2-1.987s0-2-2-2   C12.499,8,5.487,8,4,8c-1.969,0-2,1.928-2,1.989V39.5C2,42.537,4.463,45,7.5,45h33c3.037,0,5.5-2.463,5.5-5.5V14   C46,14,46,11.984,44,11.984z"
       fill="url(#path123_1_)" /><g
       id="g143"><path
         id="polygon145"
         d="M46,14L46,14L46,14z"
         fill="#EEFAFF" /><polygon
         id="polygon149"
         points="2,10.025 2,10 2,10.025   "
         fill="#EEFAFF" /><path
         id="path147"
         d="M20.5,12.487L44,12.484c1.411,0,1.997,1.261,2,1.515c0,0,0-2.015-2-2.015    c-5.805,0-22.341,0.003-24,0.003c-2.016,0-2-1.987-2-1.987s0-2-2-2C12.498,8,5.486,8,4,8c-2,0-2,2-2,2    c0.003-0.248,0.589-1.5,2-1.5h12c1.458,0,1.5,1.346,1.5,1.5c0,0.041,0,1.087,0.722,1.816c0.442,0.445,1.041,0.671,1.778,0.671    L20.5,12.487"
         fill="#EEFAFF" /></g><g
       id="g79"><path
         stroke-miterlimit="10"
         d="M7.5,43.5c-2.206,0-4-1.794-4-4V8.989    C3.523,8.5,3.766,8.5,4,8.5h12c0.175,0,0.5,0,0.5,0.5c-0.002,0.239,0.038,1.538,1.013,2.52c0.438,0.441,1.225,0.967,2.487,0.967    l24-0.003c0.224,0,0.478,0,0.5,0.543V39.5c0,2.206-1.794,4-4,4H7.5z"
         id="path81"
         stroke="#FFFFFF"
         fill="none"
         opacity="0.7" /><g
         id="g83"><path
           d="M40.507,45h-33c-3.033,0-5.5-2.468-5.5-5.5V8.99c0.016-0.994,0.641-1.989,2-1.989h12c1.579,0,2,1.257,2,2     c0,0.036,0.006,0.888,0.578,1.464c0.344,0.347,0.823,0.523,1.422,0.523l24-0.003c1.365,0,1.988,1.011,2,2.012V39.5     C46.007,42.532,43.539,45,40.507,45z M4.007,8.001c-0.856,0-0.994,0.625-1,0.997V39.5c0,2.481,2.019,4.5,4.5,4.5h33     c2.481,0,4.5-2.019,4.5-4.5V13.003c-0.004-0.376-0.141-1.018-1-1.018l-24,0.003c-0.876,0-1.594-0.276-2.132-0.819     c-0.843-0.85-0.868-2.036-0.868-2.168c0-0.3-0.098-1-1-1H4.007z"
           id="path85"
           fill="#8FBCE5" /><path
           d="M40.507,45h-33c-3.033,0-5.5-2.468-5.5-5.5V8.99c0.016-0.994,0.641-1.989,2-1.989h12c1.579,0,2,1.257,2,2     c0,0.036,0.006,0.888,0.578,1.464c0.344,0.347,0.823,0.523,1.422,0.523l24-0.003c1.365,0,1.988,1.011,2,2.012V39.5     C46.007,42.532,43.539,45,40.507,45z M4.007,8.001c-0.856,0-0.994,0.625-1,0.997V39.5c0,2.481,2.019,4.5,4.5,4.5h33     c2.481,0,4.5-2.019,4.5-4.5V13.003c-0.004-0.376-0.141-1.018-1-1.018l-24,0.003c-0.876,0-1.594-0.276-2.132-0.819     c-0.843-0.85-0.868-2.036-0.868-2.168c0-0.3-0.098-1-1-1H4.007z"
           id="path87"
           fill="#8FBCE5"
           style="fill:#9dbcd7;fill-opacity:1" /></g><path
         d="M44,9.967L20,9.97c-0.6,0-1.078-0.176-1.422-0.523C18.006,8.871,18,8.019,18,7.982c0-0.743-0.421-2-2-2H4    c-1.359,0-1.984,0.995-2,1.989v1.062c0.014-0.843,0.47-1.679,1.435-1.917C3.576,7.037,3.756,6.983,4,6.983h12    c0.232,0,0.409,0.047,0.546,0.12C17.678,7.357,18,8.397,18,9.045c0,0.036,0.006,0.888,0.578,1.464    c0.135,0.136,0.296,0.238,0.471,0.321c0.294,0.085,0.607,0.14,0.951,0.14l24-0.003c0.24,0,0.419,0.053,0.559,0.134    c0.974,0.238,1.431,1.09,1.441,1.941v-1.062C45.988,10.978,45.365,9.967,44,9.967z"
         id="path89"
         opacity="0.05" /></g></g><linearGradient
     id="path25_1_"
     gradientUnits="userSpaceOnUse"
     x1="642.9738"
     y1="773.0254"
     x2="642.9738"
     y2="792.192"
     gradientTransform="matrix(1 0 0 1 -564.6602 -757.96)"><stop
       offset="0"
       style="stop-color:#FFFFFF;stop-opacity:0.2"
       id="stop92" /><stop
       offset="0.08"
       style="stop-color:#FFFFFF;stop-opacity:0.9"
       id="stop94" /><stop
       offset="0.25"
       style="stop-color:#FFFFFF;stop-opacity:0.6"
       id="stop96" /><stop
       offset="1"
       style="stop-color:#FFFFFF;stop-opacity:0"
       id="stop98" /></linearGradient><path
     id="path25"
     fill="url(#path25_1_)"
     d="M99.313,26.836c0,2.491-0.66,4.229-4.994,4.229s-29.638,0-33.014,0  s-3.992-1.481-3.992-3.972l0.025-7.056c0-2.488,3.194-4.972,5.472-4.972h31.003c2.279,0,5.531,2.609,5.5,5.5V26.836z" /><g
     id="g27"
     opacity="0.8"><linearGradient
       id="path36_1_"
       gradientUnits="userSpaceOnUse"
       x1="295.3478"
       y1="-333.4479"
       x2="301.3581"
       y2="-343.8579"
       gradientTransform="matrix(1 0 0 -1 -291 -332)"><stop
         offset="0"
         style="stop-color:#FFFFFF"
         id="stop103" /><stop
         offset="0.5"
         style="stop-color:#FFFFFF;stop-opacity:0.6"
         id="stop105" /><stop
         offset="1"
         style="stop-color:#FFFFFF;stop-opacity:0.15"
         id="stop107" /></linearGradient><path
       id="path36"
       fill="url(#path36_1_)"
       d="M9.303,13.627c0.672-1.391,1.492-2.694,2.433-3.899l-1.712-3.754   c-1.462,1.382-2.649,2.905-3.596,4.384L9.303,13.627z" /><linearGradient
       id="path45_1_"
       gradientUnits="userSpaceOnUse"
       x1="300.7964"
       y1="-331.8896"
       x2="304.7298"
       y2="-338.7026"
       gradientTransform="matrix(1 0 0 -1 -291 -332)"><stop
         offset="0"
         style="stop-color:#FFFFFF"
         id="stop111" /><stop
         offset="0.5"
         style="stop-color:#FFFFFF;stop-opacity:0.6"
         id="stop113" /><stop
         offset="1"
         style="stop-color:#FFFFFF;stop-opacity:0.15"
         id="stop115" /></linearGradient><path
       id="path45"
       fill="url(#path45_1_)"
       d="M9.481,2.366l0.895,1.961c0.861-0.715,1.805-0.961,2.834-1.961H9.481z" /><linearGradient
       id="path54_1_"
       gradientUnits="userSpaceOnUse"
       x1="302.0345"
       y1="-330.5953"
       x2="306.8404"
       y2="-338.9194"
       gradientTransform="matrix(1 0 0 -1 -291 -332)"><stop
         offset="0"
         style="stop-color:#FFFFFF"
         id="stop119" /><stop
         offset="0.5"
         style="stop-color:#FFFFFF;stop-opacity:0.6"
         id="stop121" /><stop
         offset="1"
         style="stop-color:#FFFFFF;stop-opacity:0.15"
         id="stop123" /></linearGradient><path
       id="path54"
       fill="url(#path54_1_)"
       d="M16.196,2.366h-0.708c-1.785,1-3.346,1.763-4.685,2.903l1.641,3.6   c1.402-1.619,3.028-3.038,4.849-4.184c0.014-0.013,0.024-0.024,0.039-0.037C19.373,2.886,17.346,2.366,16.196,2.366z" /><linearGradient
       id="path63_1_"
       gradientUnits="userSpaceOnUse"
       x1="291.974"
       y1="-338.1939"
       x2="297.1894"
       y2="-347.2272"
       gradientTransform="matrix(1 0 0 -1 -291 -332)"><stop
         offset="0"
         style="stop-color:#FFFFFF"
         id="stop127" /><stop
         offset="0.5"
         style="stop-color:#FFFFFF;stop-opacity:0.6"
         id="stop129" /><stop
         offset="1"
         style="stop-color:#FFFFFF;stop-opacity:0.15"
         id="stop131" /></linearGradient><path
       id="path63"
       fill="url(#path63_1_)"
       d="M5.882,11.251c-1.098,1.869-1.815,3.596-2.241,4.777   c0.504,0.719,1.337,1.191,2.282,1.191c1.17,0,2.169-0.723,2.583-1.744c0.106-0.285,0.235-0.559,0.353-0.84L5.882,11.251z" /><linearGradient
       id="path72_1_"
       gradientUnits="userSpaceOnUse"
       x1="291.739"
       y1="-338.5643"
       x2="297.519"
       y2="-348.5756"
       gradientTransform="matrix(1 0 0 -1 -291 -332)"><stop
         offset="0"
         style="stop-color:#FFFFFF"
         id="stop135" /><stop
         offset="0.5"
         style="stop-color:#FFFFFF;stop-opacity:0.6"
         id="stop137" /><stop
         offset="1"
         style="stop-color:#FFFFFF;stop-opacity:0.15"
         id="stop139" /></linearGradient><path
       id="path72"
       fill="url(#path72_1_)"
       d="M3.157,8.15l-0.022,6.276c0,0,0,0.002,0,0.004c0,0.039,0.01,0.076,0.012,0.115   c0.477-1.161,1.143-2.58,2.047-4.079L3.157,8.15z" /><linearGradient
       id="path81_1_"
       gradientUnits="userSpaceOnUse"
       x1="296.2229"
       y1="-335.6222"
       x2="301.4355"
       y2="-344.6505"
       gradientTransform="matrix(1 0 0 -1 -291 -332)"><stop
         offset="0"
         style="stop-color:#FFFFFF"
         id="stop143" /><stop
         offset="0.5"
         style="stop-color:#FFFFFF;stop-opacity:0.6"
         id="stop145" /><stop
         offset="1"
         style="stop-color:#FFFFFF;stop-opacity:0.15"
         id="stop147" /></linearGradient><path
       id="path149"
       fill="url(#path81_1_)"
       d="M8.289,2.378c-1.479,0.08-4.724,2.128-5.069,4.33l2.53,2.877   c1.01-1.541,2.266-3.12,3.815-4.546L8.289,2.378z" /></g><g
     transform="translate(-5e-4,0)"
     id="layer6_9_"><path
       style="opacity:0.05;fill:#ffffff"
       id="path3930_1_"
       inkscape:connector-curvature="0"
       enable-background="new    "
       d="m 18.861,16.612 c -0.56,0 -1.039,0.342 -1.272,0.822 h -1.4 c -1.119,0 -2.043,0.924 -2.043,2.043 v 9.868 c 0,1.118 0.924,2.043 2.043,2.043 h 15.623 c 1.12,0 2.043,-0.925 2.043,-2.043 v -9.868 c 0,-1.119 -0.923,-2.043 -2.043,-2.043 h -9.623 c -0.233,-0.479 -0.712,-0.822 -1.272,-0.822 h -2.056 z m 0,0.809 h 2.056 c 0.341,0 0.617,0.275 0.617,0.617 v 0.206 h 10.278 c 0.684,0 1.234,0.55 1.234,1.233 v 9.868 c 0,0.683 -0.551,1.233 -1.234,1.233 H 16.188 c -0.684,0 -1.233,-0.551 -1.233,-1.233 v -9.868 c 0,-0.683 0.55,-1.233 1.233,-1.233 h 2.056 v -0.206 c 0,-0.342 0.276,-0.617 0.617,-0.617 z m -1.85,2.467 c -0.228,0 -0.411,0.184 -0.411,0.411 v 0.823 c 0,0.227 0.183,0.41 0.411,0.41 h 4.112 c 0.228,0 0.411,-0.184 0.411,-0.41 v -0.823 c 0,-0.228 -0.184,-0.411 -0.411,-0.411 h -4.112 z m 0.398,0.81 h 3.315 v 0.026 h -3.315 v -0.026 z m 9.881,0.012 c -2.271,0 -4.112,1.841 -4.112,4.111 0,2.271 1.84,4.111 4.112,4.111 2.271,0 4.111,-1.84 4.111,-4.111 0,-2.27 -1.84,-4.111 -4.111,-4.111 z m 0,0.81 c 1.832,0 3.302,1.47 3.302,3.302 0,1.832 -1.47,3.303 -3.302,3.303 -1.833,0 -3.303,-1.471 -3.303,-3.303 0,-1.832 1.47,-3.302 3.303,-3.302 z m 0,0.847 c -1.348,0 -2.454,1.107 -2.454,2.454 0,1.348 1.106,2.454 2.454,2.454 1.347,0 2.453,-1.106 2.453,-2.454 0,-1.346 -1.106,-2.454 -2.453,-2.454 z m 0,0.81 c 0.908,0 1.645,0.736 1.645,1.645 0,0.909 -0.736,1.646 -1.645,1.646 -0.909,0 -1.646,-0.736 -1.646,-1.646 0.001,-0.909 0.738,-1.645 1.646,-1.645 z" /><path
       style="opacity:0.1;fill:#ffffff"
       id="path3921_1_"
       inkscape:connector-curvature="0"
       enable-background="new    "
       d="m 18.861,17.036 c -0.477,0 -0.829,0.372 -0.925,0.822 h -1.748 c -0.888,0 -1.619,0.731 -1.619,1.619 v 9.868 c 0,0.888 0.731,1.618 1.619,1.618 h 15.623 c 0.889,0 1.619,-0.73 1.619,-1.618 v -9.868 c 0,-0.888 -0.73,-1.619 -1.619,-1.619 h -9.97 c -0.096,-0.451 -0.449,-0.822 -0.925,-0.822 h -2.055 z m 0,0.385 h 2.056 c 0.341,0 0.617,0.275 0.617,0.617 v 0.206 h 10.278 c 0.684,0 1.234,0.55 1.234,1.233 v 9.868 c 0,0.683 -0.551,1.233 -1.234,1.233 H 16.188 c -0.684,0 -1.233,-0.551 -1.233,-1.233 v -9.868 c 0,-0.683 0.55,-1.233 1.233,-1.233 h 2.056 v -0.206 c 0,-0.342 0.276,-0.617 0.617,-0.617 z m -1.85,2.467 c -0.228,0 -0.411,0.184 -0.411,0.411 v 0.823 c 0,0.227 0.183,0.41 0.411,0.41 h 4.112 c 0.228,0 0.411,-0.184 0.411,-0.41 v -0.823 c 0,-0.228 -0.184,-0.411 -0.411,-0.411 h -4.112 z m -0.026,0.386 c 0.004,-0.003 0.014,0 0.026,0 h 4.112 c 0.023,0 0.025,0.003 0.025,0.025 v 0.823 c 0,0.021 -0.002,0.025 -0.025,0.025 h -4.112 c -0.023,0 -0.026,-0.004 -0.026,-0.025 v -0.823 c 0,-0.012 -0.004,-0.022 0,-0.025 z M 27.29,20.71 c -2.271,0 -4.112,1.841 -4.112,4.111 0,2.271 1.84,4.111 4.112,4.111 2.271,0 4.111,-1.84 4.111,-4.111 0,-2.27 -1.84,-4.111 -4.111,-4.111 z m 0,0.386 c 2.064,0 3.726,1.662 3.726,3.726 0,2.065 -1.661,3.727 -3.726,3.727 -2.065,0 -3.727,-1.661 -3.727,-3.727 0,-2.064 1.662,-3.726 3.727,-3.726 z m 0,1.696 c -1.115,0 -2.03,0.915 -2.03,2.029 0,1.114 0.915,2.031 2.03,2.031 1.113,0 2.029,-0.917 2.029,-2.031 0,-1.114 -0.916,-2.029 -2.029,-2.029 z m 0,0.385 c 0.908,0 1.645,0.736 1.645,1.645 0,0.909 -0.736,1.646 -1.645,1.646 -0.909,0 -1.646,-0.736 -1.646,-1.646 0.001,-0.909 0.738,-1.645 1.646,-1.645 z" /><linearGradient
       id="linearGradient3159"
       gradientUnits="userSpaceOnUse"
       x1="590.66058"
       y1="792.53833"
       x2="590.66058"
       y2="778.87122"
       gradientTransform="translate(-566.6602,-761.96)"><stop
         offset="0"
         style="stop-color:#94C8FF;stop-opacity:0.7843"
         id="stop3161" /><stop
         offset="1"
         style="stop-color:#55B0FF;stop-opacity:0.3922"
         id="stop3163" /></linearGradient><path
       style="opacity:0.9;fill:url(#rect2941_2_)"
       id="rect2941_1_"
       inkscape:connector-curvature="0"
       enable-background="new    "
       d="m 18.861,17.421 c -0.341,0 -0.617,0.275 -0.617,0.617 v 0.206 h -2.056 c -0.684,0 -1.233,0.55 -1.233,1.233 v 9.868 c 0,0.683 0.55,1.233 1.233,1.233 h 15.623 c 0.684,0 1.234,-0.551 1.234,-1.233 v -9.868 c 0,-0.683 -0.551,-1.233 -1.234,-1.233 H 21.534 v -0.206 c 0,-0.342 -0.275,-0.617 -0.617,-0.617 h -2.056 z m -1.85,2.467 h 4.112 c 0.228,0 0.411,0.184 0.411,0.411 v 0.823 c 0,0.227 -0.184,0.41 -0.411,0.41 h -4.112 c -0.228,0 -0.411,-0.184 -0.411,-0.41 v -0.823 c 0,-0.227 0.183,-0.411 0.411,-0.411 z M 27.29,20.71 c 2.271,0 4.111,1.841 4.111,4.111 0,2.271 -1.841,4.111 -4.111,4.111 -2.271,0 -4.112,-1.84 -4.112,-4.111 0,-2.27 1.841,-4.111 4.112,-4.111 z m 0,2.467 c -0.908,0 -1.646,0.736 -1.646,1.645 0,0.909 0.737,1.646 1.646,1.646 0.909,0 1.645,-0.736 1.645,-1.646 0,-0.909 -0.737,-1.645 -1.645,-1.645 z" /><path
       style="opacity:0.2;fill:#669ccc"
       id="path3893_1_"
       inkscape:connector-curvature="0"
       enable-background="new    "
       d="m 18.861,17.421 c -0.341,0 -0.617,0.275 -0.617,0.617 v 0.206 h -2.056 c -0.684,0 -1.233,0.55 -1.233,1.233 v 9.868 c 0,0.683 0.55,1.233 1.233,1.233 h 15.623 c 0.684,0 1.234,-0.551 1.234,-1.233 v -9.868 c 0,-0.683 -0.551,-1.233 -1.234,-1.233 H 21.534 v -0.206 c 0,-0.342 -0.275,-0.617 -0.617,-0.617 h -2.056 z m 0.244,0.861 h 1.567 c 0.011,0.331 0.211,0.625 0.514,0.758 -0.021,-10e-4 -0.042,-0.013 -0.064,-0.013 h -2.519 c 0.295,-0.134 0.489,-0.422 0.502,-0.745 z m 2.094,0.758 c 0.116,0.007 0.228,0.026 0.334,0.064 h 10.278 c 0.223,0 0.373,0.15 0.373,0.373 v 4.973 c -0.201,-2.553 -2.292,-4.6 -4.895,-4.6 -2.735,0 -4.973,2.237 -4.973,4.972 0,2.603 2.047,4.694 4.6,4.896 H 16.188 c -0.223,0 -0.373,-0.151 -0.373,-0.373 v -8.043 c 0.101,0.595 0.576,1.092 1.195,1.092 h 4.112 c 0.688,0 1.272,-0.583 1.272,-1.271 V 20.3 c 0,-0.545 -0.367,-1.019 -0.861,-1.195 -0.114,0.001 -0.227,-0.021 -0.334,-0.065 z m -5.011,0.064 h 0.643 c -0.528,0.09 -0.925,0.487 -1.015,1.015 v -0.643 c 0,-0.222 0.15,-0.372 0.372,-0.372 z m 0.823,0.784 h 4.112 c 0.228,0 0.411,0.184 0.411,0.411 v 0.823 c 0,0.227 -0.184,0.41 -0.411,0.41 h -4.112 c -0.228,0 -0.411,-0.184 -0.411,-0.41 v -0.823 c 0,-0.227 0.183,-0.411 0.411,-0.411 z M 27.29,20.71 c 2.271,0 4.111,1.841 4.111,4.111 0,2.271 -1.841,4.111 -4.111,4.111 -2.271,0 -4.112,-1.84 -4.112,-4.111 0,-2.27 1.841,-4.111 4.112,-4.111 z m 0,2.467 c -0.908,0 -1.646,0.736 -1.646,1.645 0,0.909 0.737,1.646 1.646,1.646 0.909,0 1.645,-0.736 1.645,-1.646 0,-0.909 -0.737,-1.645 -1.645,-1.645 z m 0,0.861 c 0.444,0 0.783,0.339 0.783,0.783 0,0.444 -0.339,0.784 -0.783,0.784 -0.445,0 -0.784,-0.34 -0.784,-0.784 0,-0.444 0.339,-0.783 0.784,-0.783 z m 4.895,1.157 v 4.15 c 0,0.222 -0.15,0.373 -0.373,0.373 h -4.148 c 2.421,-0.191 4.329,-2.101 4.521,-4.523 z" /><path
       style="opacity:0.2;fill:#669ccc"
       id="path3880_1_"
       inkscape:connector-curvature="0"
       enable-background="new    "
       d="m 18.861,17.421 c -0.341,0 -0.617,0.275 -0.617,0.617 v 0.206 h -2.056 c -0.684,0 -1.233,0.55 -1.233,1.233 v 9.868 c 0,0.683 0.55,1.233 1.233,1.233 h 15.623 c 0.684,0 1.234,-0.551 1.234,-1.233 v -9.868 c 0,-0.683 -0.551,-1.233 -1.234,-1.233 H 21.534 v -0.206 c 0,-0.342 -0.275,-0.617 -0.617,-0.617 h -2.056 z m 0,0.424 h 2.056 c 0.111,0 0.192,0.082 0.192,0.193 v 0.206 c 0.003,0.233 0.191,0.421 0.424,0.424 h 10.278 c 0.453,0 0.811,0.356 0.811,0.809 v 9.868 c 0,0.452 -0.357,0.809 -0.811,0.809 H 16.188 c -0.453,0 -0.81,-0.356 -0.81,-0.809 v -9.868 c 0,-0.453 0.356,-0.809 0.81,-0.809 h 2.056 c 0.233,-0.003 0.421,-0.191 0.424,-0.424 v -0.206 c 0,-0.111 0.082,-0.193 0.193,-0.193 z m -1.85,1.619 c -0.458,0 -0.835,0.377 -0.835,0.835 v 0.823 c 0,0.457 0.377,0.834 0.835,0.834 h 4.112 c 0.458,0 0.835,-0.377 0.835,-0.834 v -0.823 c 0,-0.458 -0.377,-0.835 -0.835,-0.835 h -4.112 z m 0,0.424 h 4.112 c 0.228,0 0.411,0.184 0.411,0.411 v 0.823 c 0,0.227 -0.184,0.41 -0.411,0.41 h -4.112 c -0.228,0 -0.411,-0.184 -0.411,-0.41 v -0.823 c 0,-0.227 0.183,-0.411 0.411,-0.411 z m 10.279,0.398 c -2.503,0 -4.536,2.033 -4.536,4.535 0,2.503 2.033,4.536 4.536,4.536 2.502,0 4.535,-2.033 4.535,-4.536 0,-2.501 -2.033,-4.535 -4.535,-4.535 z m 0,0.424 c 2.271,0 4.111,1.841 4.111,4.111 0,2.271 -1.841,4.111 -4.111,4.111 -2.271,0 -4.112,-1.84 -4.112,-4.111 0,-2.27 1.841,-4.111 4.112,-4.111 z m 0,2.467 c -0.908,0 -1.646,0.736 -1.646,1.645 0,0.909 0.737,1.646 1.646,1.646 0.909,0 1.645,-0.736 1.645,-1.646 0,-0.909 -0.737,-1.645 -1.645,-1.645 z m 0,0.425 c 0.676,0 1.221,0.544 1.221,1.22 0,0.677 -0.545,1.221 -1.221,1.221 -0.677,0 -1.222,-0.544 -1.222,-1.221 0,-0.676 0.545,-1.22 1.222,-1.22 z" /><path
       style="opacity:0.5;fill:#669ccc"
       id="path3871_1_"
       inkscape:connector-curvature="0"
       enable-background="new    "
       d="m 18.861,17.421 c -0.341,0 -0.617,0.275 -0.617,0.617 v 0.206 h -2.056 c -0.684,0 -1.233,0.55 -1.233,1.233 v 0.411 c 0,-0.684 0.55,-1.233 1.233,-1.233 h 2.056 v -0.206 c 0,-0.341 0.275,-0.617 0.617,-0.617 h 2.056 c 0.341,0 0.617,0.275 0.617,0.617 v 0.206 h 10.278 c 0.684,0 1.234,0.55 1.234,1.233 v -0.411 c 0,-0.683 -0.551,-1.233 -1.234,-1.233 H 21.534 v -0.206 c 0,-0.342 -0.275,-0.617 -0.617,-0.617 H 18.861 z M 16.6,21.122 v 0.41 c 0,0.229 0.183,0.411 0.411,0.411 h 4.112 c 0.228,0 0.411,-0.183 0.411,-0.411 v -0.41 c 0,0.227 -0.184,0.41 -0.411,0.41 h -4.112 c -0.228,0 -0.411,-0.183 -0.411,-0.41 z m 10.69,2.055 c -0.908,0 -1.646,0.736 -1.646,1.645 0,0.07 0.018,0.139 0.025,0.205 0.103,-0.811 0.781,-1.438 1.62,-1.438 0.838,0 1.517,0.627 1.619,1.438 0.008,-0.066 0.025,-0.135 0.025,-0.205 0.002,-0.909 -0.735,-1.645 -1.643,-1.645 z m -4.099,1.85 c -0.003,0.069 -0.013,0.138 -0.013,0.206 0,2.271 1.84,4.112 4.112,4.112 2.271,0 4.111,-1.841 4.111,-4.112 0,-0.068 -0.01,-0.137 -0.014,-0.206 -0.106,2.177 -1.896,3.906 -4.098,3.906 -2.201,0 -3.991,-1.73 -4.098,-3.906 z" /><path
       style="opacity:0.2;fill:#ffffff"
       id="path3906_1_"
       inkscape:connector-curvature="0"
       enable-background="new    "
       d="m 17.011,19.888 c -0.228,0 -0.411,0.184 -0.411,0.411 v 0.411 c 0,-0.227 0.183,-0.411 0.411,-0.411 h 4.112 c 0.228,0 0.411,0.185 0.411,0.411 v -0.411 c 0,-0.228 -0.184,-0.411 -0.411,-0.411 H 17.011 z M 27.29,20.71 c -2.271,0 -4.112,1.841 -4.112,4.111 0,0.069 0.01,0.138 0.013,0.205 0.107,-2.175 1.897,-3.904 4.099,-3.904 2.201,0 3.991,1.729 4.098,3.904 0.004,-0.067 0.014,-0.136 0.014,-0.205 -0.001,-2.27 -1.841,-4.111 -4.112,-4.111 z m -1.62,4.317 c -0.008,0.068 -0.025,0.137 -0.025,0.206 0,0.908 0.737,1.646 1.646,1.646 0.909,0 1.645,-0.737 1.645,-1.646 0,-0.069 -0.018,-0.138 -0.025,-0.206 -0.103,0.812 -0.781,1.44 -1.619,1.44 -0.841,0 -1.52,-0.628 -1.622,-1.44 z m -10.715,4.318 v 0.41 c 0,0.685 0.55,1.234 1.233,1.234 h 15.623 c 0.684,0 1.234,-0.55 1.234,-1.234 v -0.41 c 0,0.683 -0.551,1.233 -1.234,1.233 H 16.188 c -0.683,0 -1.233,-0.55 -1.233,-1.233 z" /></g></svg>