<?xml version="1.0" encoding="UTF-8" standalone="no"?>
<!-- Generator: Adobe Illustrator 17.0.0, SVG Export Plug-In . SVG Version: 6.00 Build 0)  -->

<svg
   xmlns:dc="http://purl.org/dc/elements/1.1/"
   xmlns:cc="http://creativecommons.org/ns#"
   xmlns:rdf="http://www.w3.org/1999/02/22-rdf-syntax-ns#"
   xmlns:svg="http://www.w3.org/2000/svg"
   xmlns="http://www.w3.org/2000/svg"
   xmlns:xlink="http://www.w3.org/1999/xlink"
   xmlns:sodipodi="http://sodipodi.sourceforge.net/DTD/sodipodi-0.dtd"
   xmlns:inkscape="http://www.inkscape.org/namespaces/inkscape"
   version="1.1"
   id="图层_1"
   inkscape:version="0.48.4 r9939"
   sodipodi:docname="folder-templates.svg"
   x="0px"
   y="0px"
   width="48px"
   height="48px"
   viewBox="0 0 48 48"
   enable-background="new 0 0 48 48"
   xml:space="preserve"><metadata
     id="metadata153"><rdf:RDF><cc:Work
         rdf:about=""><dc:format>image/svg+xml</dc:format><dc:type
           rdf:resource="http://purl.org/dc/dcmitype/StillImage" /><dc:title></dc:title></cc:Work></rdf:RDF></metadata><defs
     id="defs151"><linearGradient
       id="path3347_1_"
       gradientUnits="userSpaceOnUse"
       x1="879.66052"
       y1="-1124.1611"
       x2="879.66052"
       y2="-1107.6879"
       gradientTransform="matrix(1,0,0,-1,-855.6602,-1091.96)"><stop
         offset="0"
         style="stop-color:#a2c8f1;stop-opacity:0.78430003;"
         id="stop155" /><stop
         offset="1"
         style="stop-color:#6eaee6;stop-opacity:0.39219999;"
         id="stop157" /></linearGradient><linearGradient
       id="rect2941_2_"
       gradientUnits="userSpaceOnUse"
       x1="590.66058"
       y1="792.53833"
       x2="590.66058"
       y2="778.87122"
       gradientTransform="translate(-566.6602,-761.96)"><stop
         offset="0"
         style="stop-color:#a5c8ee;stop-opacity:0.78430003;"
         id="stop155-3" /><stop
         offset="1"
         style="stop-color:#6eaee6;stop-opacity:0.39219999;"
         id="stop157-8" /></linearGradient></defs><sodipodi:namedview
     inkscape:current-layer="图层_1"
     inkscape:window-maximized="0"
     inkscape:window-y="149"
     inkscape:window-x="1173"
     inkscape:window-height="480"
     inkscape:window-width="702"
     inkscape:pageshadow="2"
     inkscape:pageopacity="0"
     inkscape:cy="26.77801"
     inkscape:cx="25.585848"
     inkscape:zoom="5.6568542"
     showgrid="false"
     guidetolerance="10"
     gridtolerance="10"
     objecttolerance="10"
     borderopacity="1"
     pagecolor="#ffffff"
     bordercolor="#666666"
     id="namedview252"
     showguides="true"
     inkscape:guide-bbox="true"><sodipodi:guide
       orientation="-0.70710678,0.70710678"
       position="-135.41095,99.52528"
       id="guide3130" /></sodipodi:namedview><radialGradient
     id="ellipse10_1_"
     cx="315"
     cy="-2047.0854"
     r="23.9962"
     gradientTransform="matrix(1 0 0 -0.1841 -291 -333.2854)"
     gradientUnits="userSpaceOnUse"><stop
       offset="0"
       style="stop-color:#000000;stop-opacity:0.6"
       id="stop5" /><stop
       offset="0.8996"
       style="stop-color:#000000;stop-opacity:0.0603"
       id="stop7" /><stop
       offset="1"
       style="stop-color:#000000;stop-opacity:0"
       id="stop9" /></radialGradient><ellipse
     id="ellipse10"
     display="none"
     fill="url(#ellipse10_1_)"
     cx="24"
     cy="43.583"
     rx="24"
     ry="4.417" /><linearGradient
     id="path12_1_"
     gradientUnits="userSpaceOnUse"
     x1="24"
     y1="45"
     x2="24"
     y2="1"><stop
       offset="0"
       style="stop-color:#c2d3e1;stop-opacity:1;"
       id="stop13" /><stop
       offset="0.4314"
       style="stop-color:#AFD3E2"
       id="stop15" /><stop
       offset="1"
       style="stop-color:#cadff0;stop-opacity:1;"
       id="stop17" /></linearGradient><path
     id="path12"
     fill="url(#path12_1_)"
     d="M46,39.5c0,3.037-2.463,5.5-5.5,5.5h-33C4.462,45,2,42.537,2,39.5v-33  C2,3.462,4.462,1,7.5,1h33C43.537,1,46,3.462,46,6.5V39.5z" /><path
     id="path188"
     fill="#FFFFFF"
     enable-background="new    "
     d="M40.5,2H7.499C5.017,2,3,4.018,3,6.5v33  C3,41.98,5.017,44,7.499,44H40.5c2.48,0,4.5-2.02,4.5-4.5v-33C45,4.018,42.98,2,40.5,2z M44,39.5c0,1.933-1.567,3.5-3.5,3.5h-33  C5.567,43,4,41.433,4,39.5v-33C4,4.567,5.567,3,7.5,3h33C42.433,3,44,4.567,44,6.5V39.5z" /><linearGradient
     id="path98_1_"
     gradientUnits="userSpaceOnUse"
     x1="314.9998"
     y1="-333.0005"
     x2="314.9998"
     y2="-377"
     gradientTransform="matrix(1 0 0 -1 -291 -332)"><stop
       offset="0"
       style="stop-color:#000000;stop-opacity:0.1"
       id="stop22" /><stop
       offset="1"
       style="stop-color:#000000;stop-opacity:0.8"
       id="stop24" /></linearGradient><path
     id="path98"
     opacity="0.5"
     fill="url(#path98_1_)"
     fill-opacity="0.8"
     enable-background="new    "
     d="M40.5,1h-33  C4.462,1,2,3.463,2,6.5v33C2,42.537,4.462,45,7.5,45h33c3.037,0,5.5-2.463,5.5-5.5v-33C46,3.463,43.537,1,40.5,1z M44.94,39.484  c0,2.48-2.019,4.5-4.497,4.5H7.462c-2.481,0-4.497-2.02-4.497-4.5v-33c0-2.482,2.016-4.5,4.497-4.5h32.981  c2.479,0,4.497,2.018,4.497,4.5V39.484z" /><g
     id="g125"
     display="none"
     opacity="0.3"><defs
       id="defs28"><filter
         id="Adobe_OpacityMaskFilter"
         filterUnits="userSpaceOnUse"
         x="4.769"
         y="13.895"
         width="37.382"
         height="27.883"><feColorMatrix
           type="matrix"
           values="1 0 0 0 0  0 1 0 0 0  0 0 1 0 0  0 0 0 1 0"
           id="feColorMatrix31" /></filter></defs><mask
       maskUnits="userSpaceOnUse"
       x="4.769"
       y="13.895"
       width="37.382"
       height="27.883"
       id="SVGID_11_"
       display="inline"><g
         id="g135"
         filter="url(#Adobe_OpacityMaskFilter)"><image
           sodipodi:absref="/usr/share/icons/Deepin/places/48/DEB81AAE695B461C.jpeg"
           xlink:href="DEB81AAE695B461C.jpeg"
           transform="matrix(0.232 0 0 0.2313 2.7686 11.8945)"
           id="image137"
           height="138"
           width="179"
           enable-background="new    "
           overflow="visible" /></g></mask><g
       id="g139"
       display="inline"
       mask="url(#SVGID_11_)"><path
         id="path141"
         fill="#FFF2B3"
         d="M7.228,41.777c-1.356,0-2.459-1.135-2.459-2.528v-25.29l10.667-0.064    c0.102,0.77,0.198,1.883,0.875,2.788c0.542,0.724,1.464,1.31,3.214,1.31l22.626-0.003v21.26c0,1.394-1.104,2.528-2.459,2.528    H7.228z" /></g></g><g
     id="g151"
     opacity="0.5"><path
       id="path153"
       opacity="0.08"
       enable-background="new    "
       d="M40.514,45h-33C4.476,45,2,42.521,2,39.484v4.219   C2,46.076,3.937,48,6.31,48h35.407C44.09,48,46,46.076,46,43.703v-4.219C46,42.521,43.551,45,40.514,45z" /><path
       id="path155"
       opacity="0.1"
       enable-background="new    "
       d="M40.486,45h-33C4.449,45,2,42.566,2,39.529v2.207   C2,44.109,3.046,47,7.283,47s29.112,0,33.405,0S46,44.109,46,41.736v-2.207C46,42.566,43.523,45,40.486,45z" /><path
       id="path157"
       opacity="0.1"
       enable-background="new    "
       d="M40.486,45h-33C4.449,45,2,42.566,2,39.529v1.191   C2,43.094,3.814,46,7.283,46s29.434,0,33.405,0C44.66,46,46,43.094,46,40.721v-1.191C46,42.566,43.523,45,40.486,45z" /><rect
       id="rect159"
       x="7"
       y="45"
       opacity="0.05"
       enable-background="new    "
       width="34"
       height="1" /><rect
       id="rect161"
       x="8"
       y="45"
       opacity="0.05"
       enable-background="new    "
       width="31"
       height="1" /><rect
       id="rect163"
       x="8"
       y="46"
       opacity="0.05"
       enable-background="new    "
       width="31"
       height="1" /><rect
       id="rect165"
       x="10"
       y="46"
       opacity="0.05"
       enable-background="new    "
       width="28"
       height="1" /><rect
       id="rect167"
       x="13"
       y="46"
       opacity="0.05"
       enable-background="new    "
       width="22"
       height="1" /><rect
       id="rect169"
       x="17"
       y="46"
       opacity="0.05"
       enable-background="new    "
       width="14"
       height="1" /><rect
       id="rect171"
       x="10"
       y="45"
       opacity="0.05"
       enable-background="new    "
       width="28"
       height="1" /><rect
       id="rect173"
       x="12"
       y="45"
       opacity="0.05"
       enable-background="new    "
       width="24"
       height="1" /><rect
       id="rect175"
       x="13"
       y="45"
       opacity="0.05"
       enable-background="new    "
       width="22"
       height="1" /><rect
       id="rect177"
       x="15"
       y="45"
       opacity="0.05"
       enable-background="new    "
       width="18"
       height="1" /><rect
       id="rect179"
       x="15"
       y="45"
       opacity="0.05"
       enable-background="new    "
       width="18"
       height="1" /></g><path
     id="path197"
     fill="#8FBCE5"
     d="M40.5,1h-33C4.462,1,2,3.463,2,6.5v33C2,42.537,4.462,45,7.5,45h33c3.037,0,5.5-2.463,5.5-5.5  v-33C46,3.463,43.537,1,40.5,1z M44.94,39.484c0,2.48-2.019,4.5-4.497,4.5H7.462c-2.481,0-4.497-2.02-4.497-4.5v-33  c0-2.482,2.016-4.5,4.497-4.5h32.981c2.479,0,4.497,2.018,4.497,4.5V39.484z"
     style="fill:#9dbcd7;fill-opacity:1" /><g
     id="g203"
     display="none"><polygon
       id="polygon205"
       display="inline"
       opacity="0.6"
       fill="#FFF8D9"
       enable-background="new    "
       points="17,36 17,29    13.062,29 23.992,18.889 28,22.544 28,22 31,22 31,25.304 35.033,29 31,29 31,36  " /><polygon
       id="polygon207"
       display="inline"
       opacity="0.8"
       fill="#8C6E22"
       enable-background="new    "
       points="17.5,35.5 17.5,28.5    14.339,28.5 23.995,19.567 28.5,23.677 28.5,22.5 30.5,22.5 30.5,25.523 33.748,28.5 30.5,28.5 30.5,35.5  " /><linearGradient
       id="polygon214_1_"
       gradientUnits="userSpaceOnUse"
       x1="315.0388"
       y1="-352.2461"
       x2="315.0388"
       y2="-367"
       gradientTransform="matrix(1 0 0 -1 -291 -332)"><stop
         offset="0"
         style="stop-color:#BFAA68"
         id="stop58" /><stop
         offset="1"
         style="stop-color:#CBA03B"
         id="stop60" /></linearGradient><polygon
       id="polygon214"
       display="inline"
       fill="url(#polygon214_1_)"
       points="18,35 18,28 15.616,28 23.997,20.246 29,24.81    29,23 30,23 30,25.743 32.462,28 30,28 30,35  " /></g><path
     id="path216"
     fill="none"
     d="M35.033,29" /><path
     id="path218"
     fill="none"
     d="M24,18.889" /><path
     id="path248"
     fill="none"
     d="M160.033,49" /><path
     id="path250"
     fill="none"
     d="M149,38.889" /><g
     id="g67"><linearGradient
       id="path123_1_"
       gradientUnits="userSpaceOnUse"
       x1="315.0002"
       y1="-340.5918"
       x2="315.0002"
       y2="-376.6097"
       gradientTransform="matrix(1 0 0 -1 -291 -332)"><stop
         offset="0"
         style="stop-color:#e4eefb;stop-opacity:1;"
         id="stop70" /><stop
         offset="1"
         style="stop-color:#d1e0ed;stop-opacity:1;"
         id="stop72" /></linearGradient><path
       id="path123"
       d="M44,11.984c-5.805,0-22.341,0.003-24,0.003c-2.016,0-2-1.987-2-1.987s0-2-2-2   C12.499,8,5.487,8,4,8c-1.969,0-2,1.928-2,1.989V39.5C2,42.537,4.463,45,7.5,45h33c3.037,0,5.5-2.463,5.5-5.5V14   C46,14,46,11.984,44,11.984z"
       fill="url(#path123_1_)" /><g
       id="g143"><path
         id="polygon145"
         d="M46,14L46,14L46,14z"
         fill="#EEFAFF" /><polygon
         id="polygon149"
         points="2,10.025 2,10 2,10.025   "
         fill="#EEFAFF" /><path
         id="path147"
         d="M20.5,12.487L44,12.484c1.411,0,1.997,1.261,2,1.515c0,0,0-2.015-2-2.015    c-5.805,0-22.341,0.003-24,0.003c-2.016,0-2-1.987-2-1.987s0-2-2-2C12.498,8,5.486,8,4,8c-2,0-2,2-2,2    c0.003-0.248,0.589-1.5,2-1.5h12c1.458,0,1.5,1.346,1.5,1.5c0,0.041,0,1.087,0.722,1.816c0.442,0.445,1.041,0.671,1.778,0.671    L20.5,12.487"
         fill="#EEFAFF" /></g><g
       id="g79"><path
         stroke-miterlimit="10"
         d="M7.5,43.5c-2.206,0-4-1.794-4-4V8.989    C3.523,8.5,3.766,8.5,4,8.5h12c0.175,0,0.5,0,0.5,0.5c-0.002,0.239,0.038,1.538,1.013,2.52c0.438,0.441,1.225,0.967,2.487,0.967    l24-0.003c0.224,0,0.478,0,0.5,0.543V39.5c0,2.206-1.794,4-4,4H7.5z"
         id="path81"
         stroke="#FFFFFF"
         fill="none"
         opacity="0.7" /><g
         id="g83"><path
           d="M40.507,45h-33c-3.033,0-5.5-2.468-5.5-5.5V8.99c0.016-0.994,0.641-1.989,2-1.989h12c1.579,0,2,1.257,2,2     c0,0.036,0.006,0.888,0.578,1.464c0.344,0.347,0.823,0.523,1.422,0.523l24-0.003c1.365,0,1.988,1.011,2,2.012V39.5     C46.007,42.532,43.539,45,40.507,45z M4.007,8.001c-0.856,0-0.994,0.625-1,0.997V39.5c0,2.481,2.019,4.5,4.5,4.5h33     c2.481,0,4.5-2.019,4.5-4.5V13.003c-0.004-0.376-0.141-1.018-1-1.018l-24,0.003c-0.876,0-1.594-0.276-2.132-0.819     c-0.843-0.85-0.868-2.036-0.868-2.168c0-0.3-0.098-1-1-1H4.007z"
           id="path85"
           fill="#8FBCE5" /><path
           d="M40.507,45h-33c-3.033,0-5.5-2.468-5.5-5.5V8.99c0.016-0.994,0.641-1.989,2-1.989h12c1.579,0,2,1.257,2,2     c0,0.036,0.006,0.888,0.578,1.464c0.344,0.347,0.823,0.523,1.422,0.523l24-0.003c1.365,0,1.988,1.011,2,2.012V39.5     C46.007,42.532,43.539,45,40.507,45z M4.007,8.001c-0.856,0-0.994,0.625-1,0.997V39.5c0,2.481,2.019,4.5,4.5,4.5h33     c2.481,0,4.5-2.019,4.5-4.5V13.003c-0.004-0.376-0.141-1.018-1-1.018l-24,0.003c-0.876,0-1.594-0.276-2.132-0.819     c-0.843-0.85-0.868-2.036-0.868-2.168c0-0.3-0.098-1-1-1H4.007z"
           id="path87"
           fill="#8FBCE5"
           style="fill:#9dbcd7;fill-opacity:1" /></g><path
         d="M44,9.967L20,9.97c-0.6,0-1.078-0.176-1.422-0.523C18.006,8.871,18,8.019,18,7.982c0-0.743-0.421-2-2-2H4    c-1.359,0-1.984,0.995-2,1.989v1.062c0.014-0.843,0.47-1.679,1.435-1.917C3.576,7.037,3.756,6.983,4,6.983h12    c0.232,0,0.409,0.047,0.546,0.12C17.678,7.357,18,8.397,18,9.045c0,0.036,0.006,0.888,0.578,1.464    c0.135,0.136,0.296,0.238,0.471,0.321c0.294,0.085,0.607,0.14,0.951,0.14l24-0.003c0.24,0,0.419,0.053,0.559,0.134    c0.974,0.238,1.431,1.09,1.441,1.941v-1.062C45.988,10.978,45.365,9.967,44,9.967z"
         id="path89"
         opacity="0.05" /></g></g><linearGradient
     id="path25_1_"
     gradientUnits="userSpaceOnUse"
     x1="642.9738"
     y1="773.0254"
     x2="642.9738"
     y2="792.192"
     gradientTransform="matrix(1 0 0 1 -564.6602 -757.96)"><stop
       offset="0"
       style="stop-color:#FFFFFF;stop-opacity:0.2"
       id="stop92" /><stop
       offset="0.08"
       style="stop-color:#FFFFFF;stop-opacity:0.9"
       id="stop94" /><stop
       offset="0.25"
       style="stop-color:#FFFFFF;stop-opacity:0.6"
       id="stop96" /><stop
       offset="1"
       style="stop-color:#FFFFFF;stop-opacity:0"
       id="stop98" /></linearGradient><path
     id="path25"
     fill="url(#path25_1_)"
     d="M99.313,26.836c0,2.491-0.66,4.229-4.994,4.229s-29.638,0-33.014,0  s-3.992-1.481-3.992-3.972l0.025-7.056c0-2.488,3.194-4.972,5.472-4.972h31.003c2.279,0,5.531,2.609,5.5,5.5V26.836z" /><g
     id="g27"
     opacity="0.8"><linearGradient
       id="path36_1_"
       gradientUnits="userSpaceOnUse"
       x1="295.3478"
       y1="-333.4479"
       x2="301.3581"
       y2="-343.8579"
       gradientTransform="matrix(1 0 0 -1 -291 -332)"><stop
         offset="0"
         style="stop-color:#FFFFFF"
         id="stop103" /><stop
         offset="0.5"
         style="stop-color:#FFFFFF;stop-opacity:0.6"
         id="stop105" /><stop
         offset="1"
         style="stop-color:#FFFFFF;stop-opacity:0.15"
         id="stop107" /></linearGradient><path
       id="path36"
       fill="url(#path36_1_)"
       d="M9.303,13.627c0.672-1.391,1.492-2.694,2.433-3.899l-1.712-3.754   c-1.462,1.382-2.649,2.905-3.596,4.384L9.303,13.627z" /><linearGradient
       id="path45_1_"
       gradientUnits="userSpaceOnUse"
       x1="300.7964"
       y1="-331.8896"
       x2="304.7298"
       y2="-338.7026"
       gradientTransform="matrix(1 0 0 -1 -291 -332)"><stop
         offset="0"
         style="stop-color:#FFFFFF"
         id="stop111" /><stop
         offset="0.5"
         style="stop-color:#FFFFFF;stop-opacity:0.6"
         id="stop113" /><stop
         offset="1"
         style="stop-color:#FFFFFF;stop-opacity:0.15"
         id="stop115" /></linearGradient><path
       id="path45"
       fill="url(#path45_1_)"
       d="M9.481,2.366l0.895,1.961c0.861-0.715,1.805-0.961,2.834-1.961H9.481z" /><linearGradient
       id="path54_1_"
       gradientUnits="userSpaceOnUse"
       x1="302.0345"
       y1="-330.5953"
       x2="306.8404"
       y2="-338.9194"
       gradientTransform="matrix(1 0 0 -1 -291 -332)"><stop
         offset="0"
         style="stop-color:#FFFFFF"
         id="stop119" /><stop
         offset="0.5"
         style="stop-color:#FFFFFF;stop-opacity:0.6"
         id="stop121" /><stop
         offset="1"
         style="stop-color:#FFFFFF;stop-opacity:0.15"
         id="stop123" /></linearGradient><path
       id="path54"
       fill="url(#path54_1_)"
       d="M16.196,2.366h-0.708c-1.785,1-3.346,1.763-4.685,2.903l1.641,3.6   c1.402-1.619,3.028-3.038,4.849-4.184c0.014-0.013,0.024-0.024,0.039-0.037C19.373,2.886,17.346,2.366,16.196,2.366z" /><linearGradient
       id="path63_1_"
       gradientUnits="userSpaceOnUse"
       x1="291.974"
       y1="-338.1939"
       x2="297.1894"
       y2="-347.2272"
       gradientTransform="matrix(1 0 0 -1 -291 -332)"><stop
         offset="0"
         style="stop-color:#FFFFFF"
         id="stop127" /><stop
         offset="0.5"
         style="stop-color:#FFFFFF;stop-opacity:0.6"
         id="stop129" /><stop
         offset="1"
         style="stop-color:#FFFFFF;stop-opacity:0.15"
         id="stop131" /></linearGradient><path
       id="path63"
       fill="url(#path63_1_)"
       d="M5.882,11.251c-1.098,1.869-1.815,3.596-2.241,4.777   c0.504,0.719,1.337,1.191,2.282,1.191c1.17,0,2.169-0.723,2.583-1.744c0.106-0.285,0.235-0.559,0.353-0.84L5.882,11.251z" /><linearGradient
       id="path72_1_"
       gradientUnits="userSpaceOnUse"
       x1="291.739"
       y1="-338.5643"
       x2="297.519"
       y2="-348.5756"
       gradientTransform="matrix(1 0 0 -1 -291 -332)"><stop
         offset="0"
         style="stop-color:#FFFFFF"
         id="stop135" /><stop
         offset="0.5"
         style="stop-color:#FFFFFF;stop-opacity:0.6"
         id="stop137" /><stop
         offset="1"
         style="stop-color:#FFFFFF;stop-opacity:0.15"
         id="stop139" /></linearGradient><path
       id="path72"
       fill="url(#path72_1_)"
       d="M3.157,8.15l-0.022,6.276c0,0,0,0.002,0,0.004c0,0.039,0.01,0.076,0.012,0.115   c0.477-1.161,1.143-2.58,2.047-4.079L3.157,8.15z" /><linearGradient
       id="path81_1_"
       gradientUnits="userSpaceOnUse"
       x1="296.2229"
       y1="-335.6222"
       x2="301.4355"
       y2="-344.6505"
       gradientTransform="matrix(1 0 0 -1 -291 -332)"><stop
         offset="0"
         style="stop-color:#FFFFFF"
         id="stop143" /><stop
         offset="0.5"
         style="stop-color:#FFFFFF;stop-opacity:0.6"
         id="stop145" /><stop
         offset="1"
         style="stop-color:#FFFFFF;stop-opacity:0.15"
         id="stop147" /></linearGradient><path
       id="path149"
       fill="url(#path81_1_)"
       d="M8.289,2.378c-1.479,0.08-4.724,2.128-5.069,4.33l2.53,2.877   c1.01-1.541,2.266-3.12,3.815-4.546L8.289,2.378z" /></g><g
     transform="translate(-0.00104382,4.8505304e-4)"
     id="layer6_13_"><path
       style="opacity:0.05;fill:#ffffff"
       id="path5077_1_"
       inkscape:connector-curvature="0"
       enable-background="new    "
       d="m 19.896,14.145 c -3.162,0 -5.744,2.583 -5.744,5.743 0,1.931 1,3.599 2.467,4.639 -0.674,0.21 -1.234,0.757 -1.234,1.528 0,0.771 0.561,1.319 1.234,1.529 v 1.761 c 0,1.115 0.926,2.043 2.043,2.043 h 0.244 l -0.32,0.423 c -0.352,0.455 -0.248,1.106 0.025,1.465 0.271,0.358 0.689,0.581 1.182,0.578 h 3.699 3.716 c 0.492,0.003 0.91,-0.22 1.182,-0.578 0.272,-0.358 0.375,-1.01 0.025,-1.465 l -0.32,-0.423 h 0.025 0.41 c 1.061,0 1.92,-0.849 2.004,-1.89 l 0.977,0.682 h 0.014 l 0.064,0.051 0.012,-0.025 c 0.465,0.345 1.211,0.363 1.645,-0.025 0.457,-0.41 0.604,-0.933 0.604,-1.491 v -2.03 -1.62 c 0.004,-0.466 -0.129,-0.882 -0.385,-1.232 -0.254,-0.352 -0.734,-0.709 -1.322,-0.592 -0.006,0.004 -0.01,0.009 -0.014,0.014 -0.209,0.042 -0.373,0.149 -0.527,0.27 l -0.012,-0.014 -0.064,0.039 c -0.004,0.004 -0.01,0.01 -0.014,0.014 l -0.988,0.693 c -0.01,-0.096 -0.057,-0.178 -0.078,-0.27 1.068,-1.037 1.773,-2.464 1.773,-4.074 0,-3.16 -2.582,-5.743 -5.744,-5.743 -1.238,0 -2.349,0.458 -3.29,1.131 -0.941,-0.673 -2.051,-1.131 -3.289,-1.131 z m 0,0.81 c 1.264,0 2.414,0.475 3.287,1.259 0.873,-0.785 2.026,-1.259 3.29,-1.259 2.727,0 4.936,2.209 4.936,4.934 0,1.555 -0.729,2.925 -1.852,3.83 0.133,0.195 0.207,0.437 0.207,0.693 v 1.221 h 0.166 l 2.121,-1.49 c 0.074,-0.066 0.156,-0.111 0.244,-0.129 0.373,-0.074 0.748,0.444 0.744,1.027 v 1.62 2.029 c 0,0.357 -0.135,0.708 -0.334,0.887 -0.199,0.178 -0.455,0.178 -0.654,0 L 29.93,28.099 h -0.166 v 1.247 c 0,0.683 -0.551,1.232 -1.234,1.232 h -0.41 -1.658 l 1.311,1.722 c 0.23,0.301 -0.107,0.749 -0.564,0.746 H 23.493 19.794 C 19.337,33.049 18.997,32.601 19.228,32.3 l 1.312,-1.722 h -1.467 -0.41 c -0.684,0 -1.234,-0.55 -1.234,-1.232 v -2.48 c -0.066,0.011 -0.133,0.013 -0.205,0.013 -0.568,0 -1.027,-0.367 -1.027,-0.822 0,-0.456 0.459,-0.822 1.027,-0.822 0.072,0 0.139,0.002 0.205,0.013 v -0.835 c 0,-0.086 0.01,-0.164 0.027,-0.244 -1.484,-0.852 -2.494,-2.445 -2.494,-4.279 -0.002,-2.726 2.207,-4.935 4.934,-4.935 z m 0,2.467 c -1.363,0 -2.469,1.104 -2.469,2.466 0,1.363 1.105,2.467 2.469,2.467 0.766,0 1.447,-0.351 1.9,-0.899 0.176,-0.213 0.314,-0.456 0.412,-0.719 0.012,-0.038 0.025,-0.078 0.037,-0.116 0.031,-0.098 0.059,-0.193 0.078,-0.296 0.002,-0.012 -0.002,-0.026 0,-0.039 0.021,-0.13 0.037,-0.262 0.037,-0.398 0,-0.135 -0.016,-0.268 -0.037,-0.398 -0.002,-0.013 0.002,-0.026 0,-0.039 -0.004,-0.022 -0.01,-0.042 -0.014,-0.064 -0.025,-0.121 -0.061,-0.234 -0.102,-0.347 -0.098,-0.264 -0.236,-0.506 -0.412,-0.72 -0.452,-0.547 -1.133,-0.898 -1.899,-0.898 z m 6.577,0 c -0.766,0 -1.447,0.351 -1.901,0.899 -0.176,0.213 -0.315,0.456 -0.413,0.72 -0.045,0.125 -0.09,0.251 -0.115,0.385 -0.004,0.021 0.004,0.043 0,0.064 -0.02,0.13 -0.037,0.263 -0.037,0.398 0,0.136 0.018,0.269 0.037,0.398 0.004,0.021 -0.004,0.044 0,0.064 0.025,0.134 0.07,0.26 0.115,0.386 0.098,0.264 0.236,0.506 0.413,0.719 0.454,0.549 1.135,0.899 1.901,0.899 1.363,0 2.469,-1.104 2.469,-2.467 0,-1.36 -1.106,-2.465 -2.469,-2.465 z m -6.577,0.822 c 0.906,0 1.645,0.737 1.645,1.645 0,0.909 -0.738,1.645 -1.645,1.645 -0.91,0 -1.646,-0.736 -1.646,-1.645 -0.001,-0.908 0.736,-1.645 1.646,-1.645 z m 6.577,0 c 0.91,0 1.646,0.737 1.646,1.645 0,0.909 -0.736,1.645 -1.646,1.645 -0.906,0 -1.643,-0.736 -1.643,-1.645 0,-0.908 0.737,-1.645 1.643,-1.645 z" /><path
       style="opacity:0.1;fill:#ffffff"
       id="path5066_1_"
       inkscape:connector-curvature="0"
       enable-background="new    "
       d="m 19.896,14.556 c -2.938,0 -5.334,2.395 -5.334,5.332 0,1.878 1.008,3.511 2.48,4.459 0,0.021 -0.014,0.04 -0.014,0.063 v 0.49 c -0.65,0.084 -1.232,0.507 -1.232,1.156 0,0.649 0.582,1.072 1.232,1.156 v 2.134 c 0,0.895 0.738,1.631 1.633,1.631 h 0.41 0.668 l -0.822,1.079 c -0.229,0.299 -0.164,0.713 0.027,0.964 0.189,0.251 0.49,0.426 0.848,0.424 h 3.699 3.716 c 0.357,0.002 0.656,-0.173 0.848,-0.424 0.189,-0.251 0.256,-0.665 0.025,-0.964 l -0.822,-1.079 h 0.861 0.41 c 0.895,0 1.633,-0.736 1.633,-1.631 V 28.74 l 1.631,1.131 0.025,0.026 0.014,-0.013 c 0.326,0.261 0.816,0.269 1.131,-0.014 0.324,-0.291 0.475,-0.727 0.475,-1.182 V 26.66 25.04 c 0.002,-0.377 -0.113,-0.719 -0.309,-0.988 -0.195,-0.271 -0.529,-0.501 -0.912,-0.424 -0.148,0.029 -0.271,0.111 -0.385,0.205 l -0.014,-0.013 -0.025,0.025 -1.631,1.144 v -0.578 c 0,-0.206 -0.109,-0.38 -0.18,-0.565 1.098,-0.972 1.822,-2.372 1.822,-3.958 0,-2.938 -2.395,-5.332 -5.332,-5.332 -1.254,0 -2.378,0.478 -3.29,1.208 -0.909,-0.73 -2.032,-1.208 -3.286,-1.208 z m 0,0.399 c 1.264,0 2.414,0.475 3.287,1.259 0.873,-0.785 2.026,-1.259 3.29,-1.259 2.727,0 4.936,2.209 4.936,4.934 0,1.555 -0.729,2.925 -1.852,3.83 0.133,0.195 0.207,0.437 0.207,0.693 v 1.221 h 0.166 l 2.121,-1.49 c 0.074,-0.066 0.156,-0.111 0.244,-0.129 0.373,-0.074 0.748,0.444 0.744,1.027 v 1.62 2.029 c 0,0.357 -0.135,0.708 -0.334,0.887 -0.199,0.178 -0.455,0.178 -0.654,0 L 29.93,28.099 h -0.166 v 1.247 c 0,0.683 -0.551,1.232 -1.234,1.232 h -0.41 -1.658 l 1.311,1.722 c 0.23,0.301 -0.107,0.749 -0.564,0.746 H 23.493 19.794 C 19.337,33.049 18.997,32.601 19.228,32.3 l 1.312,-1.722 h -1.467 -0.41 c -0.684,0 -1.234,-0.55 -1.234,-1.232 v -2.48 c -0.066,0.011 -0.133,0.013 -0.205,0.013 -0.568,0 -1.027,-0.367 -1.027,-0.822 0,-0.456 0.459,-0.822 1.027,-0.822 0.072,0 0.139,0.002 0.205,0.013 v -0.835 c 0,-0.086 0.01,-0.164 0.027,-0.244 -1.484,-0.852 -2.494,-2.445 -2.494,-4.279 -0.002,-2.726 2.207,-4.935 4.934,-4.935 z m 0,2.467 c -1.363,0 -2.469,1.104 -2.469,2.466 0,1.363 1.105,2.467 2.469,2.467 0.766,0 1.447,-0.351 1.9,-0.899 0.176,-0.213 0.314,-0.456 0.412,-0.719 0.012,-0.038 0.025,-0.078 0.037,-0.116 0.031,-0.098 0.059,-0.193 0.078,-0.296 0.002,-0.012 -0.002,-0.026 0,-0.039 0.021,-0.13 0.037,-0.262 0.037,-0.398 0,-0.135 -0.016,-0.268 -0.037,-0.398 -0.002,-0.013 0.002,-0.026 0,-0.039 -0.004,-0.022 -0.01,-0.042 -0.014,-0.064 -0.025,-0.121 -0.061,-0.234 -0.102,-0.347 -0.098,-0.264 -0.236,-0.506 -0.412,-0.72 -0.452,-0.547 -1.133,-0.898 -1.899,-0.898 z m 6.577,0 c -0.766,0 -1.447,0.351 -1.901,0.899 -0.176,0.213 -0.315,0.456 -0.413,0.72 -0.045,0.125 -0.09,0.251 -0.115,0.385 -0.004,0.021 0.004,0.043 0,0.064 -0.02,0.13 -0.037,0.263 -0.037,0.398 0,0.136 0.018,0.269 0.037,0.398 0.004,0.021 -0.004,0.044 0,0.064 0.025,0.134 0.07,0.26 0.115,0.386 0.098,0.264 0.236,0.506 0.413,0.719 0.454,0.549 1.135,0.899 1.901,0.899 1.363,0 2.469,-1.104 2.469,-2.467 0,-1.36 -1.106,-2.465 -2.469,-2.465 z m -6.577,0.398 c 0.432,0 0.807,0.143 1.129,0.373 -0.322,-0.216 -0.715,-0.347 -1.129,-0.347 -1.123,0 -2.043,0.922 -2.043,2.043 0,1.122 0.92,2.042 2.043,2.042 0.414,0 0.807,-0.131 1.129,-0.346 -0.322,0.23 -0.697,0.373 -1.129,0.373 -1.15,0 -2.07,-0.918 -2.07,-2.069 0,-1.15 0.92,-2.069 2.07,-2.069 z m 6.577,0 c 1.15,0 2.07,0.919 2.07,2.068 0,1.15 -0.92,2.069 -2.07,2.069 -0.43,0 -0.807,-0.143 -1.129,-0.373 0.322,0.215 0.715,0.346 1.129,0.346 1.123,0 2.043,-0.921 2.043,-2.042 0,-1.121 -0.92,-2.043 -2.043,-2.043 -0.414,0 -0.807,0.131 -1.129,0.347 0.322,-0.229 0.699,-0.372 1.129,-0.372 z m -6.577,0.424 c 0.906,0 1.645,0.737 1.645,1.645 0,0.909 -0.738,1.645 -1.645,1.645 -0.91,0 -1.646,-0.736 -1.646,-1.645 -0.001,-0.908 0.736,-1.645 1.646,-1.645 z m 6.577,0 c 0.91,0 1.646,0.737 1.646,1.645 0,0.909 -0.736,1.645 -1.646,1.645 -0.906,0 -1.643,-0.736 -1.643,-1.645 0,-0.908 0.737,-1.645 1.643,-1.645 z m -5.14,0.205 c 0.047,0.047 0.113,0.065 0.154,0.116 0.148,0.178 0.264,0.393 0.348,0.617 0.037,0.104 0.07,0.19 0.09,0.282 0.004,0.023 0.01,0.038 0.012,0.051 0.004,0.017 -0.004,0.015 0,0.039 0.021,0.121 0.027,0.231 0.027,0.333 0,0.103 -0.006,0.213 -0.027,0.334 -0.012,0.072 -0.012,0.108 -0.012,0.116 -0.014,0.053 -0.031,0.101 -0.051,0.167 -0.012,0.037 -0.029,0.063 -0.039,0.09 -0.084,0.224 -0.199,0.438 -0.348,0.617 -0.041,0.051 -0.107,0.069 -0.154,0.116 0.369,-0.37 0.604,-0.879 0.604,-1.439 0,-0.56 -0.234,-1.069 -0.604,-1.439 z m 3.703,0 c -0.37,0.37 -0.604,0.879 -0.604,1.439 0,0.561 0.235,1.07 0.604,1.439 -0.047,-0.046 -0.114,-0.065 -0.155,-0.116 -0.146,-0.178 -0.266,-0.393 -0.348,-0.617 -0.045,-0.123 -0.084,-0.226 -0.102,-0.321 -0.004,-0.02 0.004,-0.021 0,-0.051 -0.021,-0.122 -0.027,-0.231 -0.027,-0.334 0,-0.103 0.006,-0.212 0.027,-0.333 0.004,-0.031 -0.004,-0.032 0,-0.052 0.018,-0.096 0.057,-0.198 0.102,-0.321 0.082,-0.224 0.201,-0.439 0.348,-0.617 0.041,-0.05 0.107,-0.069 0.155,-0.116 z" /><path
       style="opacity:0.5;fill:#669ccc"
       id="path3729_1_"
       inkscape:connector-curvature="0"
       enable-background="new    "
       d="m 19.896,14.955 c -2.727,0 -4.936,2.209 -4.936,4.934 0,1.833 1.01,3.427 2.494,4.279 -0.018,0.08 -0.027,0.158 -0.027,0.244 v 0.835 c -0.066,-0.011 -0.133,-0.013 -0.205,-0.013 -0.568,0 -1.027,0.366 -1.027,0.822 0,0.455 0.459,0.822 1.027,0.822 0.072,0 0.139,-0.002 0.205,-0.013 v 2.48 c 0,0.683 0.551,1.232 1.234,1.232 h 0.41 1.467 L 19.226,32.3 c -0.23,0.301 0.109,0.749 0.566,0.746 h 3.699 3.716 c 0.457,0.003 0.795,-0.445 0.564,-0.746 L 26.46,30.578 h 1.658 0.41 c 0.684,0 1.234,-0.55 1.234,-1.232 v -1.247 h 0.166 l 2.121,1.478 c 0.199,0.178 0.455,0.178 0.654,0 0.199,-0.179 0.334,-0.529 0.334,-0.887 v -2.03 -1.62 c 0.004,-0.583 -0.371,-1.102 -0.744,-1.027 -0.088,0.018 -0.17,0.062 -0.244,0.129 l -2.121,1.49 h -0.166 v -1.221 c 0,-0.257 -0.074,-0.498 -0.207,-0.693 1.123,-0.904 1.852,-2.275 1.852,-3.83 0,-2.725 -2.209,-4.934 -4.936,-4.934 -1.264,0 -2.417,0.475 -3.29,1.259 -0.871,-0.784 -2.021,-1.258 -3.285,-1.258 z m 0,2.467 c 0.766,0 1.447,0.351 1.9,0.899 0.176,0.213 0.314,0.456 0.412,0.72 0.041,0.113 0.076,0.226 0.102,0.347 0.004,0.021 0.01,0.042 0.014,0.064 0.002,0.012 -0.002,0.026 0,0.039 0.021,0.13 0.037,0.263 0.037,0.398 0,0.136 -0.016,0.269 -0.037,0.398 -0.002,0.013 0.002,0.026 0,0.039 -0.02,0.103 -0.047,0.198 -0.078,0.296 -0.012,0.038 -0.025,0.078 -0.037,0.116 -0.098,0.264 -0.236,0.506 -0.412,0.719 -0.453,0.549 -1.135,0.899 -1.9,0.899 -1.363,0 -2.469,-1.104 -2.469,-2.467 -0.001,-1.362 1.105,-2.467 2.468,-2.467 z m 6.577,0 c 1.363,0 2.469,1.104 2.469,2.466 0,1.363 -1.105,2.467 -2.469,2.467 -0.766,0 -1.447,-0.351 -1.901,-0.899 -0.176,-0.213 -0.315,-0.456 -0.413,-0.719 -0.045,-0.126 -0.09,-0.252 -0.115,-0.386 -0.004,-0.021 0.004,-0.043 0,-0.064 -0.02,-0.13 -0.037,-0.262 -0.037,-0.398 0,-0.135 0.018,-0.268 0.037,-0.398 0.004,-0.021 -0.004,-0.043 0,-0.064 0.025,-0.134 0.07,-0.26 0.115,-0.385 0.098,-0.264 0.236,-0.506 0.413,-0.72 0.454,-0.549 1.135,-0.9 1.901,-0.9 z m -6.577,0.822 c -0.91,0 -1.646,0.737 -1.646,1.645 0,0.909 0.736,1.645 1.646,1.645 0.906,0 1.645,-0.736 1.645,-1.645 -0.001,-0.908 -0.739,-1.645 -1.645,-1.645 z m 6.577,0 c -0.906,0 -1.643,0.737 -1.643,1.645 0,0.909 0.737,1.645 1.643,1.645 0.91,0 1.646,-0.736 1.646,-1.645 0.001,-0.908 -0.736,-1.645 -1.646,-1.645 z" /><path
       style="opacity:0.5;fill:#669ccc"
       id="path5038_1_"
       inkscape:connector-curvature="0"
       enable-background="new    "
       d="m 19.896,14.955 c -2.727,0 -4.936,2.209 -4.936,4.934 0,1.833 1.01,3.427 2.494,4.279 -0.018,0.08 -0.027,0.158 -0.027,0.244 v 0.835 c -0.066,-0.011 -0.133,-0.013 -0.205,-0.013 -0.568,0 -1.027,0.366 -1.027,0.822 0,0.455 0.459,0.822 1.027,0.822 0.072,0 0.139,-0.002 0.205,-0.013 v 2.48 c 0,0.683 0.551,1.232 1.234,1.232 h 0.41 1.467 L 19.226,32.3 c -0.23,0.301 0.109,0.749 0.566,0.746 h 3.699 3.716 c 0.457,0.003 0.795,-0.445 0.564,-0.746 L 26.46,30.578 h 1.658 0.41 c 0.684,0 1.234,-0.55 1.234,-1.232 v -1.247 h 0.166 l 2.121,1.478 c 0.199,0.178 0.455,0.178 0.654,0 0.199,-0.179 0.334,-0.529 0.334,-0.887 v -2.03 -1.62 c 0.004,-0.583 -0.371,-1.102 -0.744,-1.027 -0.088,0.018 -0.17,0.062 -0.244,0.129 l -2.121,1.49 h -0.166 v -1.221 c 0,-0.257 -0.074,-0.498 -0.207,-0.693 1.123,-0.904 1.852,-2.275 1.852,-3.83 0,-2.725 -2.209,-4.934 -4.936,-4.934 -1.264,0 -2.417,0.475 -3.29,1.259 -0.871,-0.784 -2.021,-1.258 -3.285,-1.258 z m 0,0.797 c 1.064,0 2.027,0.395 2.762,1.053 0.301,0.266 0.752,0.266 1.053,0 0.732,-0.659 1.696,-1.053 2.763,-1.053 2.297,0 4.139,1.842 4.139,4.137 0,1.306 -0.607,2.451 -1.555,3.212 -0.32,0.262 -0.389,0.725 -0.154,1.066 0.039,0.059 0.064,0.139 0.064,0.244 v 1.221 c 0,0.439 0.355,0.796 0.795,0.796 0,0 0,0 0.002,0 h 0.166 c 0.166,0.003 0.328,-0.047 0.463,-0.141 l 1.838,-1.298 c 0.002,0.021 0.012,0.031 0.012,0.051 v 1.62 2.029 c 0,0.028 -0.006,0.023 -0.012,0.051 L 30.38,27.443 c -0.131,-0.092 -0.289,-0.141 -0.449,-0.141 h -0.166 c -0.439,-0.001 -0.797,0.354 -0.797,0.795 0,10e-4 0,10e-4 0,10e-4 v 1.247 c 0,0.256 -0.182,0.436 -0.438,0.436 h -0.41 -1.658 c -0.439,0 -0.797,0.355 -0.797,0.795 0,0.179 0.059,0.351 0.168,0.49 l 0.898,1.183 h -3.239 -3.225 l 0.9,-1.183 c 0.27,-0.347 0.207,-0.847 -0.141,-1.116 -0.141,-0.109 -0.312,-0.169 -0.488,-0.169 h -1.467 -0.41 c -0.256,0 -0.438,-0.18 -0.438,-0.436 v -2.48 c 0,-0.44 -0.357,-0.795 -0.797,-0.794 -0.043,0 -0.086,0.003 -0.127,0.01 0.002,0 -0.021,0 -0.078,0 -0.084,0 -0.133,-0.011 -0.168,-0.025 -0.057,0.023 -0.062,0.049 -0.062,0 0,-0.049 0.006,-0.023 0.062,0 0.035,-0.015 0.084,-0.025 0.168,-0.025 0.057,0 0.08,0 0.078,0 0.434,0.071 0.842,-0.223 0.914,-0.656 0.006,-0.042 0.01,-0.086 0.01,-0.128 v -0.835 c 0,-0.027 0.006,-0.051 0.014,-0.09 0.066,-0.336 -0.088,-0.678 -0.385,-0.848 -1.248,-0.715 -2.096,-2.045 -2.096,-3.585 10e-4,-2.295 1.843,-4.137 4.14,-4.137 z m 0,0.873 c -1.793,0 -3.264,1.471 -3.264,3.263 0,1.792 1.471,3.263 3.264,3.263 1.008,0 1.92,-0.472 2.518,-1.194 0.234,-0.284 0.412,-0.606 0.539,-0.951 0.021,-0.06 0.039,-0.101 0.051,-0.142 0,-0.004 0,-0.008 0,-0.013 0.033,-0.103 0.076,-0.225 0.104,-0.385 0.051,-0.287 0.043,-0.306 0,-0.052 0.023,-0.147 0.051,-0.323 0.051,-0.527 0,-0.203 -0.027,-0.378 -0.051,-0.526 0.039,0.248 0.051,0.23 0,-0.052 -0.006,-0.032 -0.008,-0.058 -0.014,-0.077 0,-0.004 0.002,-0.008 0,-0.013 -0.035,-0.17 -0.094,-0.321 -0.141,-0.45 -0.127,-0.344 -0.305,-0.666 -0.539,-0.951 -0.598,-0.721 -1.51,-1.193 -2.518,-1.193 z m 6.577,0 c -1.008,0 -1.92,0.472 -2.519,1.195 -0.234,0.285 -0.412,0.606 -0.539,0.951 -0.047,0.128 -0.115,0.296 -0.154,0.501 0,0.004 0,0.008 0,0.013 -0.016,0.097 -0.025,0.171 -0.025,0.193 -0.02,0.123 -0.025,0.256 -0.025,0.411 0,0.155 0.006,0.289 0.025,0.411 0,0.022 0.01,0.096 0.025,0.193 0,0.005 0,0.008 0,0.013 0.039,0.206 0.107,0.373 0.154,0.501 0.127,0.344 0.305,0.667 0.539,0.951 0.598,0.723 1.511,1.194 2.519,1.194 1.793,0 3.264,-1.471 3.264,-3.263 0,-1.792 -1.471,-3.264 -3.264,-3.264 z m -6.577,0.797 c 0.766,0 1.447,0.351 1.9,0.899 0.176,0.213 0.314,0.456 0.412,0.72 0.041,0.113 0.076,0.226 0.102,0.347 0.004,0.021 0.01,0.042 0.014,0.064 0.002,0.012 -0.002,0.026 0,0.039 0.021,0.13 0.037,0.263 0.037,0.398 0,0.136 -0.016,0.269 -0.037,0.398 -0.002,0.013 0.002,0.026 0,0.039 -0.02,0.103 -0.047,0.198 -0.078,0.296 -0.012,0.038 -0.025,0.078 -0.037,0.116 -0.098,0.264 -0.236,0.506 -0.412,0.719 -0.453,0.549 -1.135,0.899 -1.9,0.899 -1.363,0 -2.469,-1.104 -2.469,-2.467 -0.001,-1.362 1.105,-2.467 2.468,-2.467 z m 6.577,0 c 1.363,0 2.469,1.104 2.469,2.466 0,1.363 -1.105,2.467 -2.469,2.467 -0.766,0 -1.447,-0.351 -1.901,-0.899 -0.176,-0.213 -0.315,-0.456 -0.413,-0.719 -0.045,-0.126 -0.09,-0.252 -0.115,-0.386 -0.004,-0.021 0.004,-0.043 0,-0.064 -0.02,-0.13 -0.037,-0.262 -0.037,-0.398 0,-0.135 0.018,-0.268 0.037,-0.398 0.004,-0.021 -0.004,-0.043 0,-0.064 0.025,-0.134 0.07,-0.26 0.115,-0.385 0.098,-0.264 0.236,-0.506 0.413,-0.72 0.454,-0.549 1.135,-0.9 1.901,-0.9 z m -6.577,0.822 c -0.91,0 -1.646,0.737 -1.646,1.645 0,0.909 0.736,1.645 1.646,1.645 0.906,0 1.645,-0.736 1.645,-1.645 -0.001,-0.908 -0.739,-1.645 -1.645,-1.645 z m 6.577,0 c -0.906,0 -1.643,0.737 -1.643,1.645 0,0.909 0.737,1.645 1.643,1.645 0.91,0 1.646,-0.736 1.646,-1.645 0.001,-0.908 -0.736,-1.645 -1.646,-1.645 z m -6.577,0.797 c 0.477,0 0.848,0.37 0.848,0.848 0,0.479 -0.371,0.849 -0.848,0.849 -0.479,0 -0.85,-0.37 -0.85,-0.849 0,-0.479 0.371,-0.848 0.85,-0.848 z m 6.577,0 c 0.479,0 0.85,0.37 0.85,0.848 0,0.479 -0.371,0.849 -0.85,0.849 -0.477,0 -0.848,-0.37 -0.848,-0.849 0,-0.479 0.372,-0.848 0.848,-0.848 z" /><path
       style="opacity:0.5;fill:#669ccc"
       id="path5025_1_"
       inkscape:connector-curvature="0"
       enable-background="new    "
       d="m 19.896,14.955 c -2.727,0 -4.936,2.209 -4.936,4.934 0,1.833 1.01,3.427 2.494,4.279 -0.018,0.08 -0.027,0.158 -0.027,0.244 v 0.835 c -0.066,-0.011 -0.133,-0.013 -0.205,-0.013 -0.568,0 -1.027,0.366 -1.027,0.822 0,0.455 0.459,0.822 1.027,0.822 0.072,0 0.139,-0.002 0.205,-0.013 v 2.48 c 0,0.683 0.551,1.232 1.234,1.232 h 0.41 1.467 L 19.226,32.3 c -0.23,0.301 0.109,0.749 0.566,0.746 h 3.699 3.716 c 0.457,0.003 0.795,-0.445 0.564,-0.746 L 26.46,30.578 h 1.658 0.41 c 0.684,0 1.234,-0.55 1.234,-1.232 v -1.247 h 0.166 l 2.121,1.478 c 0.199,0.178 0.455,0.178 0.654,0 0.199,-0.179 0.334,-0.529 0.334,-0.887 v -2.03 -1.62 c 0.004,-0.583 -0.371,-1.102 -0.744,-1.027 -0.088,0.018 -0.17,0.062 -0.244,0.129 l -2.121,1.49 h -0.166 v -1.221 c 0,-0.257 -0.074,-0.498 -0.207,-0.693 1.123,-0.904 1.852,-2.275 1.852,-3.83 0,-2.725 -2.209,-4.934 -4.936,-4.934 -1.264,0 -2.417,0.475 -3.29,1.259 -0.871,-0.784 -2.021,-1.258 -3.285,-1.258 z m 0,0.424 c 1.158,0 2.207,0.438 3.006,1.156 0.16,0.143 0.404,0.143 0.564,0 0.799,-0.718 1.849,-1.156 3.007,-1.156 2.496,0 4.512,2.015 4.512,4.509 0,1.421 -0.668,2.667 -1.697,3.496 -0.178,0.138 -0.217,0.391 -0.09,0.578 0.084,0.122 0.143,0.273 0.143,0.449 v 1.221 c 0,0.233 0.189,0.423 0.424,0.424 h 0.166 c 0.088,0 0.174,-0.026 0.244,-0.077 l 2.121,-1.49 c 0.012,-0.008 0.025,-0.017 0.037,-0.025 0.021,-0.02 0.033,-0.024 0.039,-0.025 -0.002,0 0.014,0 0.014,0 -0.018,0.003 0.002,-0.013 0.076,0.09 0.08,0.11 0.156,0.313 0.154,0.513 v 1.62 2.029 c 0,0.25 -0.129,0.51 -0.193,0.565 -0.062,0.057 -0.023,0.059 -0.09,0 -0.012,-0.009 -0.025,-0.018 -0.037,-0.025 l -2.121,-1.478 c -0.07,-0.051 -0.156,-0.077 -0.244,-0.077 h -0.166 c -0.234,0.002 -0.424,0.19 -0.424,0.424 v 1.247 c 0,0.453 -0.355,0.809 -0.811,0.809 h -0.41 -1.658 c -0.236,0.004 -0.422,0.198 -0.418,0.435 0.002,0.089 0.031,0.175 0.084,0.247 l 1.285,1.695 c -0.029,0.039 -0.117,0.091 -0.205,0.09 h -3.716 -3.699 c -0.088,0.001 -0.178,-0.051 -0.205,-0.09 l 1.283,-1.695 c 0.141,-0.189 0.102,-0.457 -0.086,-0.598 -0.072,-0.052 -0.158,-0.082 -0.246,-0.084 h -1.467 -0.41 c -0.455,0 -0.809,-0.355 -0.809,-0.809 v -2.48 c 0,-0.235 -0.189,-0.427 -0.426,-0.429 -0.021,0 -0.041,0.002 -0.064,0.005 -0.029,0.005 -0.078,0.013 -0.141,0.013 -0.387,0 -0.604,-0.229 -0.604,-0.398 0,-0.169 0.217,-0.398 0.604,-0.398 0.062,0 0.111,0.008 0.141,0.013 0.234,0.034 0.451,-0.126 0.484,-0.359 0.004,-0.022 0.006,-0.043 0.006,-0.064 v -0.835 c 0,-0.055 0.012,-0.096 0.025,-0.154 0.039,-0.182 -0.043,-0.371 -0.205,-0.463 -1.357,-0.777 -2.289,-2.229 -2.289,-3.906 0,-2.498 2.016,-4.513 4.512,-4.513 z m 0,1.619 c -1.594,0 -2.893,1.298 -2.893,2.891 0,1.593 1.299,2.891 2.893,2.891 0.895,0 1.705,-0.411 2.234,-1.054 0.207,-0.251 0.363,-0.541 0.477,-0.848 0.018,-0.049 0.039,-0.088 0.051,-0.128 0.031,-0.101 0.066,-0.214 0.09,-0.347 0.006,-0.031 -0.004,-0.03 0,-0.051 0.021,-0.139 0.039,-0.291 0.039,-0.463 0,-0.141 -0.01,-0.267 -0.025,-0.385 0,-0.009 0,-0.05 -0.014,-0.128 -0.006,-0.03 -0.021,-0.057 -0.025,-0.077 h 0.012 c -0.029,-0.15 -0.082,-0.275 -0.127,-0.398 -0.113,-0.308 -0.27,-0.597 -0.477,-0.849 -0.53,-0.643 -1.341,-1.054 -2.235,-1.054 z m 6.577,0 c -0.895,0 -1.706,0.412 -2.235,1.053 -0.207,0.252 -0.363,0.541 -0.475,0.849 -0.049,0.128 -0.109,0.273 -0.143,0.449 -0.033,0.174 -0.021,0.204 0,0.077 -0.023,0.14 -0.037,0.291 -0.037,0.462 0,0.172 0.014,0.324 0.037,0.463 -0.021,-0.126 -0.033,-0.097 0,0.077 0.033,0.176 0.094,0.321 0.143,0.449 0.111,0.308 0.268,0.597 0.475,0.848 0.53,0.643 1.341,1.054 2.235,1.054 1.594,0 2.893,-1.298 2.893,-2.891 0,-1.593 -1.299,-2.89 -2.893,-2.89 z m -6.577,0.424 c 0.766,0 1.447,0.351 1.9,0.899 0.176,0.213 0.314,0.456 0.412,0.72 0.041,0.113 0.076,0.226 0.102,0.347 0.004,0.021 0.01,0.042 0.014,0.064 0.002,0.012 -0.002,0.026 0,0.039 0.021,0.13 0.037,0.263 0.037,0.398 0,0.136 -0.016,0.269 -0.037,0.398 -0.002,0.013 0.002,0.026 0,0.039 -0.02,0.103 -0.047,0.198 -0.078,0.296 -0.012,0.038 -0.025,0.078 -0.037,0.116 -0.098,0.264 -0.236,0.506 -0.412,0.719 -0.453,0.549 -1.135,0.899 -1.9,0.899 -1.363,0 -2.469,-1.104 -2.469,-2.467 -0.001,-1.362 1.105,-2.467 2.468,-2.467 z m 6.577,0 c 1.363,0 2.469,1.104 2.469,2.466 0,1.363 -1.105,2.467 -2.469,2.467 -0.766,0 -1.447,-0.351 -1.901,-0.899 -0.176,-0.213 -0.315,-0.456 -0.413,-0.719 -0.045,-0.126 -0.09,-0.252 -0.115,-0.386 -0.004,-0.021 0.004,-0.043 0,-0.064 -0.02,-0.13 -0.037,-0.262 -0.037,-0.398 0,-0.135 0.018,-0.268 0.037,-0.398 0.004,-0.021 -0.004,-0.043 0,-0.064 0.025,-0.134 0.07,-0.26 0.115,-0.385 0.098,-0.264 0.236,-0.506 0.413,-0.72 0.454,-0.549 1.135,-0.9 1.901,-0.9 z m -6.577,0.822 c -0.91,0 -1.646,0.737 -1.646,1.645 0,0.909 0.736,1.645 1.646,1.645 0.906,0 1.645,-0.736 1.645,-1.645 -0.001,-0.908 -0.739,-1.645 -1.645,-1.645 z m 6.577,0 c -0.906,0 -1.643,0.737 -1.643,1.645 0,0.909 0.737,1.645 1.643,1.645 0.91,0 1.646,-0.736 1.646,-1.645 0.001,-0.908 -0.736,-1.645 -1.646,-1.645 z m -6.577,0.424 c 0.676,0 1.219,0.542 1.219,1.22 0,0.678 -0.543,1.221 -1.219,1.221 -0.68,0 -1.221,-0.542 -1.221,-1.221 0,-0.677 0.541,-1.22 1.221,-1.22 z m 6.577,0 c 0.678,0 1.221,0.542 1.221,1.22 0,0.678 -0.543,1.221 -1.221,1.221 -0.676,0 -1.219,-0.542 -1.219,-1.221 0,-0.677 0.543,-1.22 1.219,-1.22 z" /><path
       style="opacity:0.5;fill:#669ccc"
       id="path5016_1_"
       inkscape:connector-curvature="0"
       enable-background="new    "
       d="m 19.896,14.955 c -2.727,0 -4.936,2.209 -4.936,4.934 0,0.081 0.01,0.165 0.014,0.245 0.09,-2.646 2.252,-4.767 4.922,-4.767 1.264,0 2.414,0.475 3.287,1.259 0.873,-0.785 2.026,-1.259 3.29,-1.259 2.646,0 4.799,2.087 4.922,4.703 0.002,-0.06 0.014,-0.12 0.014,-0.18 0,-2.725 -2.209,-4.934 -4.936,-4.934 -1.264,0 -2.417,0.475 -3.29,1.259 -0.873,-0.786 -2.023,-1.26 -3.287,-1.26 z m 0,3.289 c -0.91,0 -1.646,0.737 -1.646,1.645 0,0.07 0.018,0.138 0.025,0.206 0.102,-0.811 0.781,-1.439 1.621,-1.439 0.838,0 1.516,0.628 1.617,1.439 0.01,-0.067 0.027,-0.135 0.027,-0.206 0,-0.908 -0.738,-1.645 -1.644,-1.645 z m 6.577,0 c -0.906,0 -1.643,0.737 -1.643,1.645 0,0.07 0.016,0.138 0.025,0.206 0.102,-0.811 0.78,-1.439 1.618,-1.439 0.84,0 1.518,0.628 1.621,1.439 0.008,-0.067 0.025,-0.135 0.025,-0.206 0.001,-0.908 -0.736,-1.645 -1.646,-1.645 z m -4.138,1.85 c -0.006,0.065 -0.002,0.13 -0.012,0.193 -0.002,0.013 0.002,0.026 0,0.039 -0.02,0.103 -0.047,0.198 -0.078,0.296 -0.012,0.038 -0.025,0.078 -0.037,0.116 -0.098,0.264 -0.236,0.506 -0.412,0.719 -0.453,0.549 -1.135,0.899 -1.9,0.899 -1.277,0 -2.33,-0.966 -2.455,-2.21 -0.004,0.051 -0.014,0.103 -0.014,0.154 0,1.363 1.105,2.467 2.469,2.467 0.766,0 1.447,-0.352 1.9,-0.899 0.176,-0.213 0.314,-0.455 0.412,-0.72 0.012,-0.038 0.025,-0.077 0.037,-0.115 0.031,-0.098 0.059,-0.193 0.078,-0.295 0.002,-0.013 -0.002,-0.026 0,-0.039 0.021,-0.13 0.037,-0.262 0.037,-0.398 0.001,-0.071 -0.017,-0.138 -0.025,-0.207 z m 1.698,0 c -0.008,0.069 -0.025,0.136 -0.025,0.206 0,0.136 0.018,0.269 0.037,0.398 0.004,0.021 -0.004,0.044 0,0.064 0.025,0.134 0.07,0.26 0.115,0.385 0.098,0.265 0.236,0.507 0.413,0.72 0.454,0.548 1.135,0.899 1.901,0.899 1.363,0 2.469,-1.104 2.469,-2.467 0,-0.051 -0.01,-0.103 -0.014,-0.154 -0.125,1.244 -1.178,2.21 -2.455,2.21 -0.766,0 -1.447,-0.351 -1.901,-0.899 C 24.397,21.243 24.258,21 24.16,20.737 c -0.045,-0.126 -0.09,-0.252 -0.115,-0.386 -0.004,-0.021 0.004,-0.043 0,-0.064 -0.01,-0.063 -0.006,-0.128 -0.012,-0.193 z M 29.7,24 c -0.049,0.042 -0.092,0.088 -0.143,0.128 0.133,0.197 0.207,0.438 0.207,0.694 V 24.411 C 29.764,24.269 29.743,24.128 29.7,24 z m 2.595,0.013 c -0.088,0.018 -0.17,0.062 -0.244,0.129 l -2.121,1.49 h -0.166 v 0.411 h 0.166 l 2.121,-1.49 c 0.074,-0.067 0.156,-0.111 0.244,-0.129 0.373,-0.075 0.748,0.444 0.744,1.028 V 25.04 c 0.004,-0.583 -0.371,-1.101 -0.744,-1.027 z m -14.868,0.552 v 0.258 c 0,-0.086 0.01,-0.164 0.027,-0.244 -0.009,-0.006 -0.017,-0.008 -0.027,-0.014 z m -0.205,0.669 c -0.568,0 -1.027,0.366 -1.027,0.822 0,0.071 0.018,0.141 0.037,0.206 0.115,-0.355 0.51,-0.617 0.99,-0.617 0.072,0 0.139,0.002 0.205,0.013 v -0.411 c -0.066,-0.011 -0.133,-0.013 -0.205,-0.013 z m 3.006,5.755 -1.002,1.311 c -0.098,0.13 -0.088,0.289 -0.012,0.424 0.002,-0.004 0.008,-0.007 0.012,-0.013 l 1.312,-1.722 h -0.31 z m 6.233,0 1.311,1.722 c 0.004,0.006 0.01,0.009 0.014,0.013 C 27.86,32.589 27.872,32.43 27.772,32.3 L 26.77,30.989 h -0.309 z" /><path
       style="opacity:0.2;fill:#ffffff"
       id="path5051_1_"
       inkscape:connector-curvature="0"
       enable-background="new    "
       d="m 19.896,17.422 c -1.363,0 -2.469,1.104 -2.469,2.466 0,0.052 0.01,0.104 0.014,0.154 0.125,-1.244 1.178,-2.21 2.455,-2.21 0.766,0 1.447,0.351 1.9,0.899 0.176,0.213 0.314,0.456 0.412,0.72 0.041,0.113 0.076,0.227 0.102,0.347 0.004,0.022 0.01,0.042 0.014,0.064 0.002,0.013 -0.002,0.026 0,0.039 0.01,0.062 0.006,0.128 0.012,0.192 0.008,-0.068 0.025,-0.135 0.025,-0.206 0,-0.135 -0.016,-0.268 -0.037,-0.398 -0.002,-0.013 0.002,-0.026 0,-0.039 -0.004,-0.022 -0.01,-0.042 -0.014,-0.064 -0.025,-0.121 -0.061,-0.234 -0.102,-0.347 -0.098,-0.264 -0.236,-0.506 -0.412,-0.72 -0.453,-0.546 -1.134,-0.897 -1.9,-0.897 z m 6.577,0 c -0.766,0 -1.447,0.351 -1.901,0.899 -0.176,0.213 -0.315,0.456 -0.413,0.72 -0.045,0.125 -0.09,0.251 -0.115,0.385 -0.004,0.021 0.004,0.043 0,0.064 -0.02,0.13 -0.037,0.263 -0.037,0.398 0,0.07 0.018,0.137 0.025,0.206 0.006,-0.064 0.002,-0.13 0.012,-0.192 0.004,-0.021 -0.004,-0.044 0,-0.064 0.025,-0.134 0.07,-0.26 0.115,-0.385 0.098,-0.264 0.236,-0.506 0.413,-0.72 0.454,-0.548 1.135,-0.899 1.901,-0.899 1.277,0 2.33,0.966 2.455,2.21 0.004,-0.05 0.014,-0.103 0.014,-0.154 0,-1.363 -1.106,-2.468 -2.469,-2.468 z m 4.922,2.647 c -0.053,1.479 -0.758,2.78 -1.838,3.649 0.059,0.087 0.107,0.18 0.143,0.282 1.039,-0.902 1.709,-2.216 1.709,-3.701 0,-0.078 -0.01,-0.153 -0.014,-0.23 z m -13.12,0.025 c -0.008,0.067 -0.025,0.136 -0.025,0.206 0,0.909 0.736,1.645 1.646,1.645 0.906,0 1.645,-0.736 1.645,-1.645 0,-0.069 -0.018,-0.138 -0.027,-0.206 -0.102,0.812 -0.779,1.439 -1.617,1.439 -0.841,0 -1.521,-0.627 -1.622,-1.439 z m 6.58,0 c -0.01,0.067 -0.025,0.136 -0.025,0.206 0,0.909 0.737,1.645 1.643,1.645 0.91,0 1.646,-0.736 1.646,-1.645 0,-0.069 -0.018,-0.138 -0.025,-0.206 -0.104,0.812 -0.781,1.439 -1.621,1.439 -0.838,0 -1.516,-0.627 -1.618,-1.439 z m -9.881,0.039 c -0.002,0.056 -0.014,0.11 -0.014,0.167 0,1.823 0.996,3.412 2.467,4.265 v -0.153 c 0,-0.086 0.01,-0.164 0.027,-0.244 -1.419,-0.814 -2.396,-2.304 -2.48,-4.035 z m 1.258,6.129 c -0.02,0.065 -0.037,0.134 -0.037,0.205 0,0.456 0.459,0.822 1.027,0.822 0.072,0 0.139,-0.002 0.205,-0.013 v -0.411 c -0.066,0.011 -0.133,0.013 -0.205,0.013 -0.48,0 -0.875,-0.262 -0.99,-0.616 z m 13.532,1.837 v 0.411 h 0.166 l 2.121,1.478 c 0.199,0.177 0.455,0.179 0.654,0 0.199,-0.178 0.334,-0.53 0.334,-0.887 V 28.69 c 0,0.357 -0.135,0.708 -0.334,0.887 -0.199,0.178 -0.455,0.178 -0.654,0 L 29.93,28.099 h -0.166 z m -12.337,1.247 v 0.41 c 0,0.685 0.551,1.233 1.234,1.233 h 0.41 1.156 l 0.311,-0.411 h -1.467 -0.41 c -0.683,0 -1.234,-0.549 -1.234,-1.232 z m 12.337,0 c 0,0.683 -0.551,1.232 -1.234,1.232 h -0.41 -1.658 l 0.309,0.411 h 1.35 0.41 c 0.684,0 1.234,-0.549 1.234,-1.233 v -0.41 z m -10.55,3.378 c -0.209,0.3 0.129,0.735 0.578,0.733 h 3.699 3.716 c 0.447,0.002 0.785,-0.434 0.578,-0.733 -0.102,0.182 -0.318,0.323 -0.578,0.322 h -3.716 -3.699 c -0.261,10e-4 -0.478,-0.14 -0.578,-0.322 z" /></g></svg>