<?xml version="1.0" encoding="utf-8"?>
<!-- Generator: Adobe Illustrator 17.0.0, SVG Export Plug-In . SVG Version: 6.00 Build 0)  -->
<!DOCTYPE svg PUBLIC "-//W3C//DTD SVG 1.1//EN" "http://www.w3.org/Graphics/SVG/1.1/DTD/svg11.dtd">
<svg version="1.1" id="图层_1" xmlns="http://www.w3.org/2000/svg" xmlns:xlink="http://www.w3.org/1999/xlink" x="0px" y="0px"
	 width="256px" height="256px" viewBox="0 0 256 256" enable-background="new 0 0 256 256" xml:space="preserve">
<path fill="#C4DCED" stroke="#9DBCD7" stroke-width="2" stroke-miterlimit="10" d="M242,205.805
	C242,222.481,228.481,236,211.805,236H42.195C25.519,236,12,222.481,12,205.805V36.195C12,19.519,25.519,6,42.195,6h169.609
	C228.481,6,242,19.519,242,36.195V205.805z"/>
<path opacity="0.6" fill="none" stroke="#FFFFFF" stroke-width="2" stroke-miterlimit="10" enable-background="new    " d="
	M42.195,234C26.648,234,14,221.352,14,205.805V36.195C14,20.648,26.648,8,42.195,8h169.609C227.352,8,240,20.648,240,36.195v169.609
	C240,221.352,227.352,234,211.805,234H42.195z"/>
<g>
	<path opacity="0.08" fill="none" stroke="#000000" stroke-miterlimit="10" enable-background="new    " d="M242.749,72.737
		c0,0,0-10.146-10.022-10.146c-29.088,0-121.969,0.015-130.282,0.015c-10.102,0-10.022-10-10.022-10s0-10.065-10.022-10.065
		c-17.543,0-52.679,0-60.13,0c-9.866,0-10.022,9.703-10.022,10.01"/>
	<path opacity="0.05" fill="none" stroke="#000000" stroke-miterlimit="10" enable-background="new    " d="M242.749,71.737
		c0,0,0-10.146-10.022-10.146c-29.088,0-121.969,0.015-130.282,0.015c-10.102,0-10.022-10-10.022-10s0-10.065-10.022-10.065
		c-17.543,0-52.679,0-60.13,0c-9.866,0-10.022,9.703-10.022,10.01"/>
	<path opacity="0.03" fill="none" stroke="#000000" stroke-miterlimit="10" enable-background="new    " d="M242.749,70.737
		c0,0,0-10.146-10.022-10.146c-29.088,0-121.969,0.015-130.282,0.015c-10.102,0-10.022-10-10.022-10s0-10.065-10.022-10.065
		c-17.543,0-52.679,0-60.13,0c-9.866,0-10.022,9.703-10.022,10.01"/>
	
		<linearGradient id="SVGID_1_" gradientUnits="userSpaceOnUse" x1="401" y1="-343" x2="401" y2="-151" gradientTransform="matrix(1 0 0 -1 -274 -107)">
		<stop  offset="0" style="stop-color:#D1E0ED"/>
		<stop  offset="1" style="stop-color:#E4EEFB"/>
	</linearGradient>
	<path fill="url(#SVGID_1_)" stroke="#9DBCD7" stroke-width="2" stroke-miterlimit="10" d="M42.695,236h169.609
		C228.981,236,242,221.981,242,205.305V68.02c-1-2.376-3.585-4.618-8.317-4.618c-29.214,0-122.373,0.015-130.722,0.015
		c-10.146,0-10.003-9.676-10.003-9.676S93.021,44,82.956,44c-17.619,0-52.907,0-60.391,0C12.656,44,12,53.055,12,53.362v151.943
		C12,221.981,26.019,236,42.695,236z"/>
	<path fill="none" stroke="#FFFFFF" stroke-width="2" stroke-miterlimit="10" d="M42.695,234C27.141,234,14,220.859,14,205.305
		V53.362C14.015,53.124,14.494,46,22.565,46h60.391c2.473,0,4.406,0.683,5.745,2.031c2.218,2.232,2.259,5.664,2.258,5.698
		c-0.003,0.188-0.035,5.024,3.336,8.446c2.12,2.152,5.036,3.243,8.667,3.243c0,0,111.685-0.015,130.722-0.015
		c4.112,0,5.726,1.936,6.316,3.062v136.841C240,221.127,227.576,234,212.305,234H42.695z"/>
</g>
<g id="g27_1_">
	
		<linearGradient id="path36_2_" gradientUnits="userSpaceOnUse" x1="705.7983" y1="-927.4684" x2="737.6641" y2="-982.661" gradientTransform="matrix(1 0 0 -1 -686 -925)">
		<stop  offset="0" style="stop-color:#FFFFFF"/>
		<stop  offset="0.5" style="stop-color:#FFFFFF;stop-opacity:0.6"/>
		<stop  offset="1" style="stop-color:#FFFFFF;stop-opacity:0.15"/>
	</linearGradient>
	<path id="path36_1_" fill="url(#path36_2_)" d="M46.073,67.039c3.563-7.375,7.91-14.283,12.899-20.672l-9.077-19.903
		c-7.751,7.327-14.045,15.402-19.066,23.243L46.073,67.039z"/>
	
		<linearGradient id="path45_2_" gradientUnits="userSpaceOnUse" x1="734.6913" y1="-919.2034" x2="755.5458" y2="-955.3251" gradientTransform="matrix(1 0 0 -1 -686 -925)">
		<stop  offset="0" style="stop-color:#FFFFFF"/>
		<stop  offset="0.5" style="stop-color:#FFFFFF;stop-opacity:0.6"/>
		<stop  offset="1" style="stop-color:#FFFFFF;stop-opacity:0.15"/>
	</linearGradient>
	<path id="path45_1_" fill="url(#path45_2_)" d="M47.016,7.335l4.745,10.397c4.565-3.791,9.57-5.095,15.026-10.397H47.016z"/>
	
		<linearGradient id="path54_2_" gradientUnits="userSpaceOnUse" x1="741.2513" y1="-912.3436" x2="766.7317" y2="-956.4769" gradientTransform="matrix(1 0 0 -1 -686 -925)">
		<stop  offset="0" style="stop-color:#FFFFFF"/>
		<stop  offset="0.5" style="stop-color:#FFFFFF;stop-opacity:0.6"/>
		<stop  offset="1" style="stop-color:#FFFFFF;stop-opacity:0.15"/>
	</linearGradient>
	<path id="path54_1_" fill="url(#path54_2_)" d="M82.618,7.335h-3.754c-9.464,5.302-17.74,9.347-24.839,15.391l8.7,19.087
		c7.433-8.584,16.054-16.107,25.709-22.183c0.074-0.069,0.127-0.127,0.207-0.196C99.463,10.092,88.716,7.335,82.618,7.335z"/>
	
		<linearGradient id="path63_2_" gradientUnits="userSpaceOnUse" x1="687.9146" y1="-952.6288" x2="715.566" y2="-1000.5223" gradientTransform="matrix(1 0 0 -1 -686 -925)">
		<stop  offset="0" style="stop-color:#FFFFFF"/>
		<stop  offset="0.5" style="stop-color:#FFFFFF;stop-opacity:0.6"/>
		<stop  offset="1" style="stop-color:#FFFFFF;stop-opacity:0.15"/>
	</linearGradient>
	<path id="path63_1_" fill="url(#path63_2_)" d="M27.935,54.442c-5.821,9.909-9.623,19.066-11.882,25.327
		c2.672,3.812,7.089,6.315,12.099,6.315c6.203,0,11.5-3.833,13.695-9.246c0.562-1.511,1.246-2.964,1.872-4.454L27.935,54.442z"/>
	
		<linearGradient id="path72_2_" gradientUnits="userSpaceOnUse" x1="686.6721" y1="-954.5906" x2="717.317" y2="-1007.6694" gradientTransform="matrix(1 0 0 -1 -686 -925)">
		<stop  offset="0" style="stop-color:#FFFFFF"/>
		<stop  offset="0.5" style="stop-color:#FFFFFF;stop-opacity:0.6"/>
		<stop  offset="1" style="stop-color:#FFFFFF;stop-opacity:0.15"/>
	</linearGradient>
	<path id="path72_1_" fill="url(#path72_2_)" d="M13.487,38.001L13.37,71.276c0,0,0,0.011,0,0.021c0,0.207,0.053,0.403,0.064,0.61
		c2.529-6.155,6.06-13.679,10.853-21.626L13.487,38.001z"/>
	
		<linearGradient id="path149_2_" gradientUnits="userSpaceOnUse" x1="709.8471" y1="-937.9679" x2="738.6226" y2="-987.8077" gradientTransform="matrix(1 0 0 -1 -686 -925)">
		<stop  offset="0" style="stop-color:#FFFFFF"/>
		<stop  offset="0.5" style="stop-color:#FFFFFF;stop-opacity:0.6"/>
		<stop  offset="1" style="stop-color:#FFFFFF;stop-opacity:0.15"/>
	</linearGradient>
	<path id="path149_1_" fill="url(#path149_2_)" d="M40.696,7.398C29.886,6.5,15.65,18.681,13.821,30.355l13.414,15.254
		c5.355-8.17,12.014-16.542,20.227-24.102L40.696,7.398z"/>
</g>
<radialGradient id="SVGID_2_" cx="486.2212" cy="263.8451" r="190.6803" gradientTransform="matrix(0.0197 0.9998 0.9109 -0.018 -131.1523 -395.7167)" gradientUnits="userSpaceOnUse">
	<stop  offset="0" style="stop-color:#FFFFFF;stop-opacity:0.6"/>
	<stop  offset="0.3783" style="stop-color:#FAFCFE;stop-opacity:0.4487"/>
	<stop  offset="0.829" style="stop-color:#EBF3FC;stop-opacity:0.2684"/>
	<stop  offset="1" style="stop-color:#E4EEFB;stop-opacity:0.2"/>
</radialGradient>
<path fill="url(#SVGID_2_)" d="M42.695,234C27.141,234,14,220.859,14,205.305V53.362C14.015,53.124,14.494,46,22.565,46h60.391
	c2.473,0,4.405,0.683,5.744,2.031c2.219,2.232,2.259,5.664,2.259,5.698c-0.003,0.188-0.035,5.024,3.336,8.446
	c2.12,2.152,5.036,3.243,8.666,3.243c0,0,111.686-0.015,130.723-0.015c4.112,0,5.726,1.936,6.316,3.062v136.841
	C240,221.127,227.576,234,212.305,234H42.695z"/>
<g id="g151" opacity="0.5">
	<path id="path153" opacity="0.08" enable-background="new    " d="M213.51,236.845H40.636c-15.915,0-28.886-12.476-28.886-27.76
		v21.232c0,11.942,10.147,21.625,22.578,21.625h185.483c12.431,0,22.437-9.683,22.437-21.625v-21.232
		C242.249,224.369,229.42,236.845,213.51,236.845z"/>
	<path id="path155" opacity="0.1" enable-background="new    " d="M213.364,236.845H40.49c-15.91,0-28.739-12.249-28.739-27.533
		v11.107c0,11.942,5.48,26.491,27.676,26.491s152.506,0,174.996,0s27.827-14.549,27.827-26.491v-11.107
		C242.249,224.596,229.273,236.845,213.364,236.845z"/>
	<path id="path157" opacity="0.1" enable-background="new    " d="M213.364,236.845H40.49c-15.91,0-28.739-12.249-28.739-27.533
		v5.994c0,11.947,9.503,26.572,27.676,26.572s154.193,0,174.996,0c20.808,0,27.827-14.625,27.827-26.567v-5.994
		C242.249,224.596,229.273,236.845,213.364,236.845z"/>
	<rect id="rect159" x="37.944" y="236.845" opacity="0.05" enable-background="new    " width="178.112" height="5.033"/>
	<rect id="rect161" x="43.182" y="236.845" opacity="0.05" enable-background="new    " width="162.397" height="5.033"/>
	<rect id="rect163" x="43.182" y="241.877" opacity="0.05" enable-background="new    " width="162.397" height="5.033"/>
	<rect id="rect165" x="53.66" y="241.877" opacity="0.05" enable-background="new    " width="146.681" height="5.033"/>
	<rect id="rect167" x="69.375" y="241.877" opacity="0.05" enable-background="new    " width="115.249" height="5.033"/>
	<rect id="rect169" x="90.33" y="241.877" opacity="0.05" enable-background="new    " width="73.34" height="5.033"/>
	<rect id="rect171" x="53.66" y="236.845" opacity="0.05" enable-background="new    " width="146.681" height="5.033"/>
	<rect id="rect173" x="64.137" y="236.845" opacity="0.05" enable-background="new    " width="125.726" height="5.033"/>
	<rect id="rect175" x="69.375" y="236.845" opacity="0.05" enable-background="new    " width="115.249" height="5.033"/>
	<rect id="rect177" x="79.853" y="236.845" opacity="0.05" enable-background="new    " width="94.295" height="5.033"/>
	<rect id="rect179" x="79.853" y="236.845" opacity="0.05" enable-background="new    " width="94.295" height="5.033"/>
</g>
<g>
	<g opacity="0.3" enable-background="new    ">
		<g>
			<rect x="51.5" y="87" fill="#FFFFFF" width="151" height="93"/>
		</g>
		<g>
			<rect x="51.5" y="85" fill="#669CCC" width="151" height="93"/>
		</g>
	</g>
	<path opacity="0.3" fill="#669CCC" enable-background="new    " d="M51.5,85v93h151V85H51.5z M201.5,177h-149V86h149V177z"/>
	<path opacity="0.3" fill="#669CCC" enable-background="new    " d="M51.5,85v93h151V85H51.5z M200.5,176h-147V87h147V176z"/>
	<rect x="171.5" y="85" opacity="0.3" fill="#669CCC" enable-background="new    " width="31" height="93"/>
	<path opacity="0.3" fill="#669CCC" enable-background="new    " d="M171.5,85v93h31V85H171.5z M200.5,176h-27V87h27V176z"/>
	<polygon opacity="0.3" fill="#669CCC" enable-background="new    " points="161.057,170.833 92.943,170.833 90.943,178 
		163.057,178 	"/>
	<rect x="171.5" y="85" opacity="0.3" fill="#669CCC" enable-background="new    " width="1" height="93"/>
	<rect x="172" y="94.25" opacity="0.3" fill="#669CCC" enable-background="new    " width="30.5" height="1"/>
	<path opacity="0.3" fill="#669CCC" enable-background="new    " d="M179.353,87.832h-3.603c-0.468,0-0.848,0.38-0.848,0.848v3.603
		c0,0.468,0.38,0.848,0.848,0.848h3.603c0.469,0,0.848-0.38,0.848-0.848v-3.603C180.201,88.212,179.822,87.832,179.353,87.832z
		 M179.883,92.283c0,0.292-0.237,0.53-0.53,0.53h-2.604c0.453-0.235,1.388-0.78,1.92-1.526c0,0,0.758-1.08-0.451-2.132
		c0,0,0.311,0.488,0.322,0.98c0,0,0.077,0.651-0.495,1.051c-0.572,0.401-1.072,0.357-1.731,0.345
		c-0.527-0.009-0.946-0.169-1.094-0.233V88.68c0-0.211,0.125-0.392,0.303-0.477c0.045,1.061,0.49,1.974,0.772,2.277
		c0.289,0.311,0.714,0.64,1.259,0.503c0.544-0.137,0.653-0.734,0.653-0.734c0.119-0.508-0.053-1.111-0.062-1.124
		c-0.009-0.013-0.091-0.027-0.091-0.027c0.087,0.8-0.122,1.154-0.122,1.154c-0.304,0.627-0.753,0.434-0.753,0.434
		c-0.499-0.254-0.477-0.972-0.477-0.972c-0.025-0.748,0.357-1.442,0.428-1.565h1.261c-0.259,0.176-0.773,0.688-0.773,0.688
		c-0.733,0.683-0.589,1.258-0.589,1.258c0.119,0.603,0.481,0.196,0.481,0.196c0.382-0.397,0.352-1.188,0.352-1.188
		c-0.155,0.025-0.253,0.112-0.253,0.112c-0.018,0.527-0.327,0.854-0.327,0.854c-0.121,0.133-0.206,0.006-0.206,0.006
		c-0.064-0.095,0.063-0.162,0.063-0.162c0.177-0.156,0.23-0.421,0.226-0.521c-0.002-0.1,0.05-0.127,0.05-0.127
		c0.25-0.194,0.5-0.308,0.5-0.308c0.335-0.172,0.934-0.201,0.934-0.201c0.377,0.013,0.715-0.048,0.715-0.048l0.315-0.057
		c0,0.01,0.002,0.019,0.002,0.028L179.883,92.283L179.883,92.283L179.883,92.283z"/>
	<g opacity="0.3">
		<path opacity="0.5" fill="#669CCC" enable-background="new    " d="M179.543,88.585c-0.002,0-0.273,0.048-0.59,0.048
			c-0.032,0-0.066,0-0.099-0.002c-0.036,0.001-0.64,0.033-0.995,0.215c-0.002,0.001-0.06,0.028-0.146,0.076
			c0.068-0.066,0.521-0.511,0.75-0.667l0.338-0.23h-1.742l-0.036,0.063c-0.079,0.136-0.471,0.853-0.445,1.632
			c-0.001,0.025-0.018,0.793,0.546,1.08c0.016,0.007,0.099,0.042,0.219,0.042c0.167,0,0.479-0.069,0.704-0.533
			c0.001-0.002,0.018-0.029,0.039-0.084c-0.011,0.05-0.117,0.525-0.561,0.637c-0.074,0.019-0.148,0.028-0.222,0.028
			c-0.304,0-0.604-0.162-0.913-0.495c-0.272-0.293-0.695-1.194-0.738-2.197l-0.008-0.191l-0.172,0.082
			c-0.228,0.109-0.376,0.341-0.376,0.591v2.701l0.076,0.033c0.162,0.07,0.597,0.234,1.142,0.244l0.142,0.003
			c0.106,0.002,0.208,0.005,0.307,0.005c0.506,0,0.91-0.063,1.356-0.376c0.626-0.439,0.551-1.14,0.548-1.169
			c-0.002-0.081-0.011-0.161-0.026-0.239c0.348,0.715-0.052,1.302-0.074,1.333c-0.507,0.711-1.392,1.237-1.875,1.486l-0.46,0.238
			h3.123c0.362,0,0.656-0.294,0.656-0.656v-3.602c0-0.012-0.001-0.023-0.003-0.034l-0.019-0.129l-0.129,0.011L179.543,88.585z
			 M179.883,88.681v3.603c0,0.292-0.237,0.53-0.53,0.53h-2.604c0.453-0.235,1.388-0.78,1.92-1.526c0,0,0.758-1.08-0.451-2.132
			c0,0,0.311,0.488,0.322,0.98c0,0,0.077,0.651-0.495,1.051c-0.572,0.401-1.072,0.357-1.731,0.345
			c-0.527-0.009-0.946-0.169-1.094-0.233v-2.618c0-0.211,0.125-0.392,0.303-0.477c0.045,1.061,0.49,1.974,0.772,2.277
			c0.289,0.311,0.714,0.64,1.259,0.503c0.544-0.137,0.653-0.734,0.653-0.734c0.119-0.508-0.053-1.111-0.062-1.124
			c-0.009-0.013-0.091-0.027-0.091-0.027c0.087,0.8-0.122,1.154-0.122,1.154c-0.304,0.627-0.753,0.434-0.753,0.434
			c-0.499-0.254-0.477-0.972-0.477-0.972c-0.025-0.748,0.357-1.442,0.428-1.565h1.261c-0.259,0.176-0.773,0.688-0.773,0.688
			c-0.733,0.683-0.589,1.258-0.589,1.258c0.119,0.603,0.481,0.196,0.481,0.196c0.382-0.397,0.352-1.188,0.352-1.188
			c-0.155,0.025-0.253,0.112-0.253,0.112c-0.018,0.527-0.327,0.854-0.327,0.854c-0.121,0.133-0.206,0.006-0.206,0.006
			c-0.064-0.095,0.063-0.162,0.063-0.162c0.177-0.156,0.23-0.421,0.226-0.521c-0.002-0.1,0.05-0.127,0.05-0.127
			c0.25-0.194,0.5-0.308,0.5-0.308c0.335-0.172,0.934-0.201,0.934-0.201c0.377,0.013,0.715-0.048,0.715-0.048l0.315-0.057
			C179.88,88.662,179.883,88.671,179.883,88.681z M177.213,90.254c0.047-0.009,0.105-0.035,0.162-0.099
			c0.012-0.012,0.316-0.34,0.357-0.87l0,0c-0.014,0.241-0.075,0.674-0.312,0.92c-0.038,0.042-0.11,0.096-0.153,0.096
			C177.251,90.3,177.233,90.285,177.213,90.254z"/>
		<path opacity="0.5" fill="#669CCC" enable-background="new    " d="M179.353,87.832h-3.603c-0.468,0-0.848,0.38-0.848,0.848v3.603
			c0,0.468,0.38,0.848,0.848,0.848h3.603c0.469,0,0.848-0.38,0.848-0.848v-3.603C180.201,88.212,179.822,87.832,179.353,87.832z
			 M180.075,92.283c0,0.398-0.324,0.722-0.722,0.722h-3.603c-0.398,0-0.722-0.324-0.722-0.722v-3.603
			c0-0.398,0.324-0.722,0.722-0.722h3.603c0.398,0,0.722,0.324,0.722,0.722V92.283z"/>
	</g>
	<g opacity="0.3">
		<path opacity="0.5" fill="#669CCC" enable-background="new    " d="M177.021,90.029c0.014-0.223,0.116-0.624,0.598-1.073
			c0,0,0.514-0.511,0.773-0.688h-0.155c-0.268,0.221-0.619,0.569-0.619,0.569C177.033,89.384,177.008,89.86,177.021,90.029z"/>
		<path opacity="0.5" fill="#669CCC" enable-background="new    " d="M178.218,89.155c0,0,0.058,0.091,0.125,0.235
			c0.413,0.407,0.546,0.812,0.559,1.151C178.919,90.149,178.785,89.649,178.218,89.155z"/>
		<path opacity="0.5" fill="#669CCC" enable-background="new    " d="M178.145,89.126c-0.009-0.013-0.091-0.027-0.091-0.027
			c0.005,0.041,0.008,0.081,0.011,0.12c0.022,0.004,0.073,0.015,0.08,0.025c0.006,0.009,0.093,0.31,0.103,0.665
			C178.258,89.506,178.152,89.136,178.145,89.126z"/>
		<path opacity="0.5" fill="#669CCC" enable-background="new    " d="M176.702,89.694c-0.001,0.008,0,0.016,0,0.023v-0.002
			C176.702,89.708,176.702,89.701,176.702,89.694z"/>
		<path opacity="0.5" fill="#669CCC" enable-background="new    " d="M177.283,90.07c-0.104,0.116-0.182,0.036-0.201,0.013
			c-0.021,0.029-0.035,0.067-0.005,0.112c0,0,0.086,0.127,0.206-0.006c0,0,0.309-0.328,0.327-0.855c0,0,0.098-0.086,0.252-0.111
			c0.002-0.073,0.001-0.119,0.001-0.119c-0.001,0-0.002,0.001-0.004,0.001c-0.056,0.029-0.146,0.078-0.252,0.146
			C177.578,89.757,177.283,90.07,177.283,90.07z"/>
		<path opacity="0.5" fill="#669CCC" enable-background="new    " d="M179.353,87.832h-3.603c-0.468,0-0.848,0.38-0.848,0.848v0.118
			c0-0.468,0.38-0.848,0.848-0.848h3.603c0.469,0,0.848,0.38,0.848,0.848V88.68C180.201,88.212,179.822,87.832,179.353,87.832z"/>
		<path opacity="0.5" fill="#669CCC" enable-background="new    " d="M176.314,91.65c0.658,0.012,1.159,0.056,1.731-0.345
			c0.514-0.36,0.504-0.92,0.497-1.03c-0.011,0.213-0.088,0.626-0.497,0.912c-0.572,0.401-1.072,0.357-1.731,0.345
			c-0.527-0.009-0.946-0.169-1.094-0.233v0.118C175.368,91.481,175.787,91.64,176.314,91.65z"/>
		<path opacity="0.5" fill="#669CCC" enable-background="new    " d="M177.179,90.806c0,0,0.449,0.193,0.753-0.434
			c0,0,0.152-0.261,0.141-0.838c-0.01,0.494-0.141,0.72-0.141,0.72c-0.304,0.627-0.753,0.434-0.753,0.434
			c-0.447-0.228-0.476-0.826-0.477-0.949c-0.001,0.032-0.001,0.063,0,0.095C176.702,89.834,176.68,90.552,177.179,90.806z"/>
		<path opacity="0.5" fill="#669CCC" enable-background="new    " d="M179.353,92.932c0.292,0,0.53-0.237,0.53-0.53v-0.118
			c0,0.292-0.237,0.53-0.53,0.53h-2.385c-0.081,0.045-0.155,0.085-0.219,0.118C176.749,92.932,179.353,92.932,179.353,92.932z"/>
	</g>
</g>
</svg>
