<?xml version="1.0" encoding="utf-8"?>
<!-- Generator: Adobe Illustrator 17.0.0, SVG Export Plug-In . SVG Version: 6.00 Build 0)  -->
<!DOCTYPE svg PUBLIC "-//W3C//DTD SVG 1.1//EN" "http://www.w3.org/Graphics/SVG/1.1/DTD/svg11.dtd">
<svg version="1.1" id="图层_1" xmlns="http://www.w3.org/2000/svg" xmlns:xlink="http://www.w3.org/1999/xlink" x="0px" y="0px"
	 width="256px" height="256px" viewBox="0 0 256 256" enable-background="new 0 0 256 256" xml:space="preserve">
<path fill="#EBF2FB" stroke="#9DBCD7" stroke-width="2" stroke-miterlimit="10" d="M242.171,205.805
	c0,16.676-13.519,30.195-30.195,30.195H42.365c-16.676,0-30.195-13.519-30.195-30.195V36.195C12.17,19.519,25.689,6,42.365,6h169.61
	c16.677,0,30.196,13.519,30.196,30.195V205.805z"/>
<path opacity="0.3" fill="#669CCC" enable-background="new    " d="M242.171,205.805c0,16.676-13.519,30.195-30.195,30.195H42.365
	c-16.676,0-30.195-13.519-30.195-30.195V36.195C12.17,19.519,25.689,6,42.365,6h169.61c16.677,0,30.196,13.519,30.196,30.195
	V205.805z"/>
<g id="g151" opacity="0.5">
	<path id="path153" opacity="0.08" enable-background="new    " d="M214.094,236.845H39.975c-16.03,0-29.094-12.476-29.094-27.76
		v21.232c0,11.942,10.22,21.625,22.741,21.625h186.819c12.521,0,22.599-9.683,22.599-21.625v-21.232
		C243.04,224.369,230.119,236.845,214.094,236.845z"/>
	<path id="path155" opacity="0.1" enable-background="new    " d="M213.947,236.845H39.828c-16.025,0-28.946-12.249-28.946-27.533
		v11.107c0,11.942,5.519,26.491,27.875,26.491s153.605,0,176.257,0s28.027-14.549,28.027-26.491v-11.107
		C243.04,224.596,229.971,236.845,213.947,236.845z"/>
	<path id="path157" opacity="0.1" enable-background="new    " d="M213.947,236.845H39.828c-16.025,0-28.946-12.249-28.946-27.533
		v5.994c0,11.947,9.571,26.572,27.875,26.572s155.304,0,176.257,0c20.958,0,28.027-14.625,28.027-26.567v-5.994
		C243.04,224.596,229.971,236.845,213.947,236.845z"/>
	<rect id="rect159" x="37.264" y="236.845" opacity="0.05" enable-background="new    " width="179.395" height="5.033"/>
	<rect id="rect161" x="42.539" y="236.845" opacity="0.05" enable-background="new    " width="163.567" height="5.033"/>
	<rect id="rect163" x="42.539" y="241.877" opacity="0.05" enable-background="new    " width="163.567" height="5.033"/>
	<rect id="rect165" x="53.093" y="241.877" opacity="0.05" enable-background="new    " width="147.738" height="5.033"/>
	<rect id="rect167" x="68.921" y="241.877" opacity="0.05" enable-background="new    " width="116.079" height="5.033"/>
	<rect id="rect169" x="90.027" y="241.877" opacity="0.05" enable-background="new    " width="73.868" height="5.033"/>
	<rect id="rect171" x="53.093" y="236.845" opacity="0.05" enable-background="new    " width="147.738" height="5.033"/>
	<rect id="rect173" x="63.645" y="236.845" opacity="0.05" enable-background="new    " width="126.632" height="5.033"/>
	<rect id="rect175" x="68.921" y="236.845" opacity="0.05" enable-background="new    " width="116.079" height="5.033"/>
	<rect id="rect177" x="79.475" y="236.845" opacity="0.05" enable-background="new    " width="94.974" height="5.033"/>
	<rect id="rect179" x="79.475" y="236.845" opacity="0.05" enable-background="new    " width="94.974" height="5.033"/>
</g>
<path opacity="0.6" fill="none" stroke="#FFFFFF" stroke-width="2" stroke-miterlimit="10" enable-background="new    " d="
	M42.365,233.985c-15.538,0-28.179-12.642-28.179-28.18V36.194c0-15.538,12.641-28.179,28.179-28.179h169.61
	c15.538,0,28.18,12.641,28.18,28.179v169.609c0,15.539-12.642,28.182-28.18,28.182H42.365z"/>
<g id="g27_1_">
	
		<linearGradient id="path36_2_" gradientUnits="userSpaceOnUse" x1="706.674" y1="-928.4758" x2="738.5399" y2="-983.6687" gradientTransform="matrix(1 0 0 -1 -686 -925)">
		<stop  offset="0" style="stop-color:#FFFFFF"/>
		<stop  offset="0.5" style="stop-color:#FFFFFF;stop-opacity:0.6"/>
		<stop  offset="1" style="stop-color:#FFFFFF;stop-opacity:0.15"/>
	</linearGradient>
	<path id="path36_1_" fill="url(#path36_2_)" d="M46.949,68.047c3.563-7.375,7.91-14.283,12.899-20.672l-9.077-19.903
		c-7.751,7.327-14.045,15.402-19.066,23.243L46.949,68.047z"/>
	
		<linearGradient id="path45_2_" gradientUnits="userSpaceOnUse" x1="735.5671" y1="-920.2108" x2="756.4217" y2="-956.3327" gradientTransform="matrix(1 0 0 -1 -686 -925)">
		<stop  offset="0" style="stop-color:#FFFFFF"/>
		<stop  offset="0.5" style="stop-color:#FFFFFF;stop-opacity:0.6"/>
		<stop  offset="1" style="stop-color:#FFFFFF;stop-opacity:0.15"/>
	</linearGradient>
	<path id="path45_1_" fill="url(#path45_2_)" d="M47.892,8.342l4.745,10.397c4.565-3.791,9.57-5.095,15.026-10.397H47.892z"/>
	
		<linearGradient id="path54_2_" gradientUnits="userSpaceOnUse" x1="742.1271" y1="-913.351" x2="767.6076" y2="-957.4845" gradientTransform="matrix(1 0 0 -1 -686 -925)">
		<stop  offset="0" style="stop-color:#FFFFFF"/>
		<stop  offset="0.5" style="stop-color:#FFFFFF;stop-opacity:0.6"/>
		<stop  offset="1" style="stop-color:#FFFFFF;stop-opacity:0.15"/>
	</linearGradient>
	<path id="path54_1_" fill="url(#path54_2_)" d="M83.494,8.342H79.74C70.276,13.644,62,17.69,54.901,23.734l8.7,19.087
		c7.433-8.584,16.054-16.107,25.709-22.183c0.074-0.069,0.127-0.127,0.207-0.196C100.339,11.099,89.592,8.342,83.494,8.342z"/>
	
		<linearGradient id="path63_2_" gradientUnits="userSpaceOnUse" x1="688.7903" y1="-953.6364" x2="716.4418" y2="-1001.53" gradientTransform="matrix(1 0 0 -1 -686 -925)">
		<stop  offset="0" style="stop-color:#FFFFFF"/>
		<stop  offset="0.5" style="stop-color:#FFFFFF;stop-opacity:0.6"/>
		<stop  offset="1" style="stop-color:#FFFFFF;stop-opacity:0.15"/>
	</linearGradient>
	<path id="path63_1_" fill="url(#path63_2_)" d="M28.811,55.45c-5.821,9.909-9.623,19.066-11.882,25.327
		c2.672,3.812,7.089,6.315,12.099,6.315c6.203,0,11.5-3.833,13.695-9.246c0.562-1.511,1.246-2.964,1.872-4.454L28.811,55.45z"/>
	
		<linearGradient id="path72_2_" gradientUnits="userSpaceOnUse" x1="687.5477" y1="-955.5981" x2="718.1927" y2="-1008.6772" gradientTransform="matrix(1 0 0 -1 -686 -925)">
		<stop  offset="0" style="stop-color:#FFFFFF"/>
		<stop  offset="0.5" style="stop-color:#FFFFFF;stop-opacity:0.6"/>
		<stop  offset="1" style="stop-color:#FFFFFF;stop-opacity:0.15"/>
	</linearGradient>
	<path id="path72_1_" fill="url(#path72_2_)" d="M14.363,39.009l-0.117,33.275c0,0,0,0.011,0,0.021c0,0.207,0.053,0.403,0.064,0.61
		c2.529-6.155,6.06-13.679,10.853-21.626L14.363,39.009z"/>
	
		<linearGradient id="path149_2_" gradientUnits="userSpaceOnUse" x1="710.7228" y1="-938.9754" x2="739.4984" y2="-988.8154" gradientTransform="matrix(1 0 0 -1 -686 -925)">
		<stop  offset="0" style="stop-color:#FFFFFF"/>
		<stop  offset="0.5" style="stop-color:#FFFFFF;stop-opacity:0.6"/>
		<stop  offset="1" style="stop-color:#FFFFFF;stop-opacity:0.15"/>
	</linearGradient>
	<path id="path149_1_" fill="url(#path149_2_)" d="M41.572,8.405c-10.81-0.898-25.046,11.283-26.875,22.957l13.414,15.254
		c5.355-8.17,12.014-16.542,20.227-24.102L41.572,8.405z"/>
</g>
<g>
	<path opacity="0.9" fill="#FFFFFF" enable-background="new    " d="M176.416,162.465c0,0,11.146-15.961,10.251-38.37
		c-0.895,19.447-10.251,32.801-10.251,32.801c-23.425,32.908-64.664,56.927-84.642,67.276h10.281
		C123.71,211.986,156.468,190.452,176.416,162.465z"/>
	<path opacity="0.9" fill="#FFFFFF" enable-background="new    " d="M104.166,109.934c5.238,26.577,21.208,8.671,21.208,8.671
		c16.851-17.517,15.528-52.37,15.528-52.37c-0.029,0-0.054,0.015-0.054,0.015c-0.394,10.553-2.772,33.584-15.489,46.773
		c0,0-15.985,17.935-21.208-8.642c0,0-0.243-0.987-0.394-2.757C103.422,106.836,104.166,109.934,104.166,109.934z"/>
	<path opacity="0.9" fill="#FFFFFF" enable-background="new    " d="M89.737,88.619c0-0.311,0-0.622,0-0.934
		C89.737,87.768,89.737,88.079,89.737,88.619z"/>
	<path opacity="0.9" fill="#FFFFFF" enable-background="new    " d="M149.815,66.084c-0.282-0.053-0.501-0.092-0.501-0.092
		c0.554,4.965,0.827,9.493,0.866,13.699C150.287,75.596,150.18,71.078,149.815,66.084z"/>
	<path opacity="0.9" fill="#FFFFFF" enable-background="new    " d="M108.63,18.625c-3.112,5.383-19.764,35.598-18.878,68.37
		c0.973-30.569,15.931-57.725,18.878-62.797h48.339c2.636-2.203,5.126-4.138,7.236-5.573H108.63L108.63,18.625z"/>
	<path opacity="0.9" fill="#FFFFFF" enable-background="new    " d="M229.832,40.723l-13.865,2.5c0,0-14.934,2.689-31.542,2.135
		c0,0-26.387,1.284-41.156,8.875c0,0-11.01,5.058-22.035,13.592c0,0-2.325,1.201-2.218,5.602c0.136,4.396-2.193,16.092-9.984,22.963
		c0,0-5.573,2.937-2.772,7.129c0,0,0.136,0.19,0.311,0.418c1.055-1.269,2.461-1.989,2.461-1.989
		c7.791-6.886,10.115-18.572,9.984-22.963c-0.107-4.396,2.218-5.602,2.218-5.602c2.879-2.218,5.734-4.192,8.399-5.923
		c0.029-0.637,0.107-1.245,0.136-1.892c0,0,4.304-3.798,11.146-4.921c0,0,0,0.151,0,0.297c1.449-0.744,2.354-1.162,2.354-1.162
		c14.769-7.586,41.156-8.861,41.156-8.861c16.622,0.54,31.542-2.149,31.542-2.149l13.865-2.5c0,0.418,0.107,0.827,0.107,1.245
		v-5.559C229.939,41.55,229.832,41.161,229.832,40.723z"/>
	<path opacity="0.9" fill="#FFFFFF" enable-background="new    " d="M71.802,121.338C59.357,107.95,39.788,67.723,37.77,20.954
		c-7.873,3.749-13.364,11.739-13.364,21.033v5.559c0-9.293,5.49-17.274,13.364-21.033c2.004,46.773,21.587,87.025,34.032,100.413
		c12.727,13.675,31.488,28.216,55.478,22.156c23.98-6.045,28.794-32.354,28.794-32.354c1.58-6.711,1.974-13.811,1.799-20.449
		c-0.136,4.951-0.637,10.008-1.799,14.905c0,0-4.8,26.28-28.794,32.354C103.285,149.563,84.543,135.023,71.802,121.338z"/>
	<g>
		<g opacity="0.3">
			<path opacity="0.5" fill="#669CCC" enable-background="new    " d="M214.951,37.761c-0.107,0.015-12.026,2.12-25.998,2.12
				c-1.42,0-2.908-0.015-4.352-0.068c-1.58,0.054-28.216,1.435-43.875,9.468c-0.107,0.054-2.636,1.216-6.453,3.341
				c2.991-2.923,22.954-22.545,33.04-29.417l14.905-10.159h-76.793l-1.61,2.772c-3.492,5.977-20.76,37.601-19.623,71.939
				c-0.054,1.094-0.798,34.975,24.062,47.624c0.715,0.326,4.382,1.838,9.668,1.838c7.343,0,21.111-3.054,31.012-23.508
				c0.053-0.068,0.773-1.298,1.717-3.691c-0.472,2.193-5.155,23.143-24.748,28.094c-3.273,0.827-6.546,1.245-9.78,1.245
				c-13.417,0-26.606-7.139-40.266-21.801C63.86,104.643,45.21,64.931,43.343,20.706l-0.365-8.399l-7.586,3.608
				c-10.062,4.79-16.569,15.012-16.569,26.051V161.03l3.356,1.435c7.129,3.098,26.309,10.305,50.328,10.738l6.264,0.136
				c4.678,0.092,9.172,0.204,13.553,0.204c22.317-0.015,40.13-2.772,59.782-16.568c27.608-19.34,24.306-50.236,24.145-51.534
				c-0.083-3.56-0.472-7.1-1.138-10.538c15.324,31.503-2.271,57.404-3.244,58.78c-22.346,31.352-61.362,54.51-82.653,65.515
				l-20.289,10.494h137.659c15.961,0,28.93-12.97,28.93-28.916V41.982c0-0.515-0.053-1.012-0.136-1.503l-0.836-5.695l-5.709,0.486
				L214.951,37.761z M229.939,41.982V200.81c0,12.877-10.456,23.372-23.357,23.372H91.774
				c19.978-10.349,61.202-34.367,84.642-67.276c0,0,33.395-47.624-19.871-94.003c0,0,13.714,21.519,14.19,43.213
				c0,0,3.409,28.687-21.816,46.335c-25.196,17.677-47.259,15.742-76.297,15.217c-23.221-0.409-41.711-7.45-48.203-10.281V41.982
				c0-9.293,5.49-17.274,13.364-21.033c2.004,46.773,21.587,86.996,34.032,100.384c12.727,13.69,31.488,28.23,55.478,22.18
				c23.98-6.059,28.794-32.354,28.794-32.354c5.262-22.409-2.354-48.991-2.748-49.56c-0.394-0.554-4.017-1.177-4.017-1.177
				c3.827,35.262-5.354,50.882-5.354,50.882c-13.388,27.661-33.181,19.136-33.181,19.136c-22.005-11.2-21.033-42.863-21.033-42.863
				c-1.08-32.991,15.742-63.556,18.878-68.978h55.575c-11.414,7.766-34.085,30.312-34.085,30.312
				c-32.31,30.122-25.969,55.454-25.969,55.454c5.238,26.577,21.208,8.642,21.208,8.642c16.851-17.517,15.528-52.356,15.528-52.356
				c-6.842,1.123-11.146,4.921-11.146,4.921c-0.798,23.236-14.419,37.655-14.419,37.655c-5.315,5.884-9.089,0.282-9.089,0.282
				c-2.801-4.207,2.772-7.129,2.772-7.129c7.791-6.872,10.115-18.572,9.984-22.963c-0.107-4.396,2.218-5.602,2.218-5.602
				c11.01-8.549,22.035-13.592,22.035-13.592c14.769-7.586,41.156-8.875,41.156-8.875c16.622,0.554,31.542-2.135,31.542-2.135
				l13.865-2.5C229.832,41.161,229.939,41.55,229.939,41.982z M112.267,111.325c2.057-0.379,4.625-1.527,7.154-4.352
				c0.525-0.525,13.942-14.973,15.717-38.37l0,0c-0.637,10.631-3.302,29.713-13.767,40.577c-1.692,1.853-4.829,4.221-6.765,4.221
				C113.931,113.367,113.118,112.721,112.267,111.325z"/>
		</g>
		<g opacity="0.9" enable-background="new    ">
			<path fill="#FFFFFF" d="M229.925,200.808h-0.019V41.965c0-0.418-0.107-0.827-0.107-1.245l-13.865,2.5
				c0,0-14.92,2.689-31.542,2.135c0,0-26.387,1.289-41.156,8.875c0,0-11.025,5.043-22.035,13.592c0,0-2.325,1.206-2.218,5.602
				c0.131,4.391-2.193,16.092-9.984,22.963c0,0-5.573,2.923-2.772,7.129c0,0,3.774,5.602,9.089-0.282
				c0,0,13.621-14.419,14.419-37.655c0,0,4.304-3.798,11.146-4.921c0,0,1.323,34.839-15.528,52.356c0,0-15.97,17.935-21.208-8.642
				c0,0-6.341-25.332,25.969-55.454c0,0,22.672-22.545,34.085-30.312h-55.575c-3.137,5.422-19.958,35.987-18.878,68.978
				c0,0-0.973,31.664,21.033,42.863c0,0,19.793,8.525,33.181-19.136c0,0,9.181-15.62,5.354-50.882c0,0,3.623,0.622,4.017,1.177
				c0.394,0.569,8.009,27.151,2.748,49.56c0,0-4.814,26.295-28.794,32.354c-23.99,6.05-42.751-8.491-55.478-22.18
				C59.362,107.952,39.778,67.73,37.775,20.957c-7.873,3.759-13.364,11.739-13.364,21.033V157.4
				c6.492,2.83,24.982,9.872,48.203,10.281c29.037,0.525,51.101,2.461,76.297-15.217c25.225-17.648,21.816-46.335,21.816-46.335
				c-0.477-21.694-14.19-43.213-14.19-43.213c53.265,46.379,19.87,94.003,19.87,94.003c-23.44,32.908-64.664,56.927-84.642,67.276
				h114.807c12.902,0,23.357-10.494,23.357-23.372h-0.005V200.808z"/>
		</g>
	</g>
</g>
</svg>
