<?xml version="1.0" encoding="utf-8"?>
<!-- Generator: Adobe Illustrator 17.0.0, SVG Export Plug-In . SVG Version: 6.00 Build 0)  -->
<!DOCTYPE svg PUBLIC "-//W3C//DTD SVG 1.1//EN" "http://www.w3.org/Graphics/SVG/1.1/DTD/svg11.dtd">
<svg version="1.1" id="图层_1" xmlns="http://www.w3.org/2000/svg" xmlns:xlink="http://www.w3.org/1999/xlink" x="0px" y="0px"
	 width="256px" height="256px" viewBox="0 0 256 256" enable-background="new 0 0 256 256" xml:space="preserve">
<g>
	<path fill="#C4DCED" stroke="#9DBCD7" stroke-width="2" stroke-miterlimit="10" d="M242,205.805
		C242,222.481,228.481,236,211.805,236H42.195C25.519,236,12,222.481,12,205.805V36.195C12,19.519,25.519,6,42.195,6h169.609
		C228.481,6,242,19.519,242,36.195V205.805z"/>
	<path opacity="0.6" fill="none" stroke="#FFFFFF" stroke-width="2" stroke-miterlimit="10" d="M42.195,234
		C26.648,234,14,221.352,14,205.805V36.195C14,20.648,26.648,8,42.195,8h169.609C227.352,8,240,20.648,240,36.195v169.609
		C240,221.352,227.352,234,211.805,234H42.195z"/>
	<g>
		<path opacity="0.08" fill="none" stroke="#000000" stroke-miterlimit="10" d="M242.749,72.737c0,0,0-10.146-10.022-10.146
			c-29.088,0-121.969,0.015-130.282,0.015c-10.102,0-10.022-10-10.022-10s0-10.065-10.022-10.065c-17.543,0-52.679,0-60.13,0
			c-9.866,0-10.022,9.703-10.022,10.01"/>
		<path opacity="0.05" fill="none" stroke="#000000" stroke-miterlimit="10" d="M242.749,71.737c0,0,0-10.146-10.022-10.146
			c-29.088,0-121.969,0.015-130.282,0.015c-10.102,0-10.022-10-10.022-10s0-10.065-10.022-10.065c-17.543,0-52.679,0-60.13,0
			c-9.866,0-10.022,9.703-10.022,10.01"/>
		<path opacity="0.03" fill="none" stroke="#000000" stroke-miterlimit="10" d="M242.749,70.737c0,0,0-10.146-10.022-10.146
			c-29.088,0-121.969,0.015-130.282,0.015c-10.102,0-10.022-10-10.022-10s0-10.065-10.022-10.065c-17.543,0-52.679,0-60.13,0
			c-9.866,0-10.022,9.703-10.022,10.01"/>
		<linearGradient id="SVGID_1_" gradientUnits="userSpaceOnUse" x1="127" y1="236" x2="127" y2="44">
			<stop  offset="0" style="stop-color:#D1E0ED"/>
			<stop  offset="1" style="stop-color:#E4EEFB"/>
		</linearGradient>
		<path fill="url(#SVGID_1_)" stroke="#9DBCD7" stroke-width="2" stroke-miterlimit="10" d="M42.695,236h169.609
			C228.981,236,242,221.981,242,205.305V68.02c-1-2.376-3.585-4.618-8.317-4.618c-29.214,0-122.373,0.015-130.722,0.015
			c-10.146,0-10.003-9.676-10.003-9.676S93.021,44,82.956,44c-17.619,0-52.907,0-60.391,0C12.656,44,12,53.055,12,53.362v151.943
			C12,221.981,26.019,236,42.695,236z"/>
		<path fill="none" stroke="#FFFFFF" stroke-width="2" stroke-miterlimit="10" d="M42.695,234C27.141,234,14,220.859,14,205.305
			V53.362C14.015,53.124,14.494,46,22.565,46h60.391c2.473,0,4.406,0.683,5.745,2.031c2.218,2.232,2.259,5.664,2.258,5.698
			c-0.003,0.188-0.035,5.024,3.336,8.446c2.12,2.152,5.036,3.243,8.667,3.243c0,0,111.685-0.015,130.722-0.015
			c4.112,0,5.726,1.936,6.316,3.062v136.841C240,221.127,227.576,234,212.305,234H42.695z"/>
	</g>
	<g id="g27_1_">
		
			<linearGradient id="path36_2_" gradientUnits="userSpaceOnUse" x1="431.7986" y1="820.4682" x2="463.6644" y2="875.6608" gradientTransform="matrix(1 0 0 1 -412 -818)">
			<stop  offset="0" style="stop-color:#FFFFFF"/>
			<stop  offset="0.5" style="stop-color:#FFFFFF;stop-opacity:0.6"/>
			<stop  offset="1" style="stop-color:#FFFFFF;stop-opacity:0.15"/>
		</linearGradient>
		<path id="path36_1_" fill="url(#path36_2_)" d="M46.073,67.039c3.563-7.375,7.91-14.283,12.899-20.672l-9.077-19.903
			c-7.751,7.327-14.045,15.402-19.066,23.243L46.073,67.039z"/>
		
			<linearGradient id="path45_2_" gradientUnits="userSpaceOnUse" x1="460.6917" y1="812.2031" x2="481.5462" y2="848.3249" gradientTransform="matrix(1 0 0 1 -412 -818)">
			<stop  offset="0" style="stop-color:#FFFFFF"/>
			<stop  offset="0.5" style="stop-color:#FFFFFF;stop-opacity:0.6"/>
			<stop  offset="1" style="stop-color:#FFFFFF;stop-opacity:0.15"/>
		</linearGradient>
		<path id="path45_1_" fill="url(#path45_2_)" d="M47.016,7.335l4.745,10.397c4.565-3.791,9.57-5.095,15.026-10.397L47.016,7.335z"
			/>
		
			<linearGradient id="path54_2_" gradientUnits="userSpaceOnUse" x1="467.2517" y1="805.3433" x2="492.7321" y2="849.4767" gradientTransform="matrix(1 0 0 1 -412 -818)">
			<stop  offset="0" style="stop-color:#FFFFFF"/>
			<stop  offset="0.5" style="stop-color:#FFFFFF;stop-opacity:0.6"/>
			<stop  offset="1" style="stop-color:#FFFFFF;stop-opacity:0.15"/>
		</linearGradient>
		<path id="path54_1_" fill="url(#path54_2_)" d="M82.618,7.335h-3.754c-9.464,5.302-17.74,9.347-24.839,15.391l8.7,19.087
			c7.433-8.584,16.054-16.107,25.709-22.183c0.074-0.069,0.127-0.127,0.207-0.196C99.463,10.092,88.716,7.335,82.618,7.335z"/>
		
			<linearGradient id="path63_2_" gradientUnits="userSpaceOnUse" x1="413.9148" y1="845.6288" x2="441.5662" y2="893.5222" gradientTransform="matrix(1 0 0 1 -412 -818)">
			<stop  offset="0" style="stop-color:#FFFFFF"/>
			<stop  offset="0.5" style="stop-color:#FFFFFF;stop-opacity:0.6"/>
			<stop  offset="1" style="stop-color:#FFFFFF;stop-opacity:0.15"/>
		</linearGradient>
		<path id="path63_1_" fill="url(#path63_2_)" d="M27.935,54.442c-5.821,9.909-9.623,19.066-11.882,25.327
			c2.672,3.812,7.089,6.315,12.099,6.315c6.203,0,11.5-3.833,13.695-9.246c0.562-1.511,1.246-2.964,1.872-4.454L27.935,54.442z"/>
		
			<linearGradient id="path72_2_" gradientUnits="userSpaceOnUse" x1="412.6727" y1="847.5903" x2="443.3176" y2="900.6691" gradientTransform="matrix(1 0 0 1 -412 -818)">
			<stop  offset="0" style="stop-color:#FFFFFF"/>
			<stop  offset="0.5" style="stop-color:#FFFFFF;stop-opacity:0.6"/>
			<stop  offset="1" style="stop-color:#FFFFFF;stop-opacity:0.15"/>
		</linearGradient>
		<path id="path72_1_" fill="url(#path72_2_)" d="M13.487,38.001l-0.117,33.275c0,0,0,0.011,0,0.021c0,0.207,0.053,0.403,0.064,0.61
			c2.529-6.155,6.06-13.679,10.853-21.626L13.487,38.001z"/>
		
			<linearGradient id="path149_2_" gradientUnits="userSpaceOnUse" x1="435.8473" y1="830.9678" x2="464.6228" y2="880.8076" gradientTransform="matrix(1 0 0 1 -412 -818)">
			<stop  offset="0" style="stop-color:#FFFFFF"/>
			<stop  offset="0.5" style="stop-color:#FFFFFF;stop-opacity:0.6"/>
			<stop  offset="1" style="stop-color:#FFFFFF;stop-opacity:0.15"/>
		</linearGradient>
		<path id="path149_1_" fill="url(#path149_2_)" d="M40.696,7.398C29.886,6.5,15.65,18.681,13.821,30.355l13.414,15.254
			c5.355-8.17,12.014-16.542,20.227-24.102L40.696,7.398z"/>
	</g>
</g>
<radialGradient id="SVGID_2_" cx="118.765" cy="85.6572" r="190.6803" gradientTransform="matrix(0.0197 0.9998 -0.6593 0.013 172.8916 -34.1994)" gradientUnits="userSpaceOnUse">
	<stop  offset="0" style="stop-color:#FFFFFF;stop-opacity:0.6"/>
	<stop  offset="0.3783" style="stop-color:#FAFCFE;stop-opacity:0.4487"/>
	<stop  offset="0.829" style="stop-color:#EBF3FC;stop-opacity:0.2684"/>
	<stop  offset="1" style="stop-color:#E4EEFB;stop-opacity:0.2"/>
</radialGradient>
<path fill="url(#SVGID_2_)" d="M42.695,234C27.141,234,14,220.859,14,205.305V53.362C14.015,53.124,14.494,46,22.565,46h60.391
	c2.473,0,4.405,0.683,5.744,2.031c2.219,2.232,2.259,5.664,2.259,5.698c-0.003,0.188-0.035,5.024,3.336,8.446
	c2.12,2.152,5.036,3.243,8.666,3.243c0,0,111.686-0.015,130.723-0.015c4.112,0,5.726,1.936,6.316,3.062v136.841
	C240,221.127,227.576,234,212.305,234H42.695z"/>
<g id="g151" opacity="0.5">
	<path id="path153" opacity="0.08" enable-background="new    " d="M213.51,236.845H40.636c-15.915,0-28.886-12.476-28.886-27.76
		v21.232c0,11.942,10.147,21.625,22.578,21.625h185.483c12.431,0,22.437-9.683,22.437-21.625v-21.232
		C242.249,224.369,229.42,236.845,213.51,236.845z"/>
	<path id="path155" opacity="0.1" enable-background="new    " d="M213.364,236.845H40.49c-15.91,0-28.739-12.249-28.739-27.533
		v11.107c0,11.942,5.48,26.491,27.676,26.491s152.506,0,174.996,0s27.827-14.549,27.827-26.491v-11.107
		C242.249,224.596,229.273,236.845,213.364,236.845z"/>
	<path id="path157" opacity="0.1" enable-background="new    " d="M213.364,236.845H40.49c-15.91,0-28.739-12.249-28.739-27.533
		v5.994c0,11.947,9.503,26.572,27.676,26.572s154.193,0,174.996,0c20.808,0,27.827-14.625,27.827-26.567v-5.994
		C242.249,224.596,229.273,236.845,213.364,236.845z"/>
	<rect id="rect159" x="37.944" y="236.845" opacity="0.05" enable-background="new    " width="178.112" height="5.033"/>
	<rect id="rect161" x="43.182" y="236.845" opacity="0.05" enable-background="new    " width="162.397" height="5.033"/>
	<rect id="rect163" x="43.182" y="241.877" opacity="0.05" enable-background="new    " width="162.397" height="5.033"/>
	<rect id="rect165" x="53.66" y="241.877" opacity="0.05" enable-background="new    " width="146.681" height="5.033"/>
	<rect id="rect167" x="69.375" y="241.877" opacity="0.05" enable-background="new    " width="115.249" height="5.033"/>
	<rect id="rect169" x="90.33" y="241.877" opacity="0.05" enable-background="new    " width="73.34" height="5.033"/>
	<rect id="rect171" x="53.66" y="236.845" opacity="0.05" enable-background="new    " width="146.681" height="5.033"/>
	<rect id="rect173" x="64.137" y="236.845" opacity="0.05" enable-background="new    " width="125.726" height="5.033"/>
	<rect id="rect175" x="69.375" y="236.845" opacity="0.05" enable-background="new    " width="115.249" height="5.033"/>
	<rect id="rect177" x="79.853" y="236.845" opacity="0.05" enable-background="new    " width="94.295" height="5.033"/>
	<rect id="rect179" x="79.853" y="236.845" opacity="0.05" enable-background="new    " width="94.295" height="5.033"/>
</g>
<g>
	<path opacity="0.3" fill="#FFFFFF" enable-background="new    " d="M151.457,76.245c-5.512,0.118-10.958,2.034-15.433,5.814
		c-7.054,5.958-8.09,12.723-8.602,18.13c-0.512,5.407-0.591,9.278-5.485,13.405c-4.882,4.127-8.943,3.661-14.494,3.373
		c-5.551-0.289-12.434-0.302-19.481,5.649c-3.215,2.73-5.512,6.155-6.909,9.777c0,0,0,0.079,0,0.092
		c-0.039,0.105-0.151,0.42-0.164,0.591c-0.19,0.499-0.42,0.965-0.591,1.601c-0.066,0.217-0.23,0.623-0.348,1.089
		c0,0.052,0.013,0.052,0,0.092c-0.151,0.702-0.243,1.45-0.335,2.192c-0.039,0.295,0,0.577,0,0.591
		c-0.013,0.19-0.079,0.42-0.092,0.591c0.013-0.092-0.052,0.151-0.079,0.755c-0.013,0.308,0,0.394,0,0.341
		c-0.013,0.249,0,0.322,0,0.171c0,0.328-0.013,0.676,0,1.004c0,0-0.013,0.144,0,0.505c0.026,0.604,0.092,0.846,0.079,0.755
		c0.026,0.282,0.039,0.715,0.092,1.188c0.092,0.735,0.177,1.483,0.335,2.192c0.013,0.039,0,0.039,0,0.085
		c0.118,0.459,0.282,0.866,0.348,1.096c0.23,0.86,0.512,1.549,0.755,2.192c0,0.026,0,0.059,0,0.085
		c1.306,3.386,3.471,6.43,6.319,9.022c0.026,0.02-0.013,0.072,0,0.085c0.026,0.026,0.052,0.059,0.092,0.085
		c0.138,0.19,0.322,0.367,0.499,0.505c0,0.026,0,0.066,0,0.085c7.047,5.958,13.93,5.938,19.481,5.649
		c5.551-0.289,9.613-0.761,14.494,3.373c4.895,4.134,4.974,8.005,5.485,13.405c0.512,5.407,1.549,12.172,8.602,18.13
		c10.249,8.661,25.708,7.526,34.566-2.526c8.858-10.065,7.729-25.393-2.526-34.061c-7.047-5.951-13.93-5.938-19.481-5.643
		c-5.551,0.289-9.613,0.755-14.494-3.379c-4.856-4.101-4.987-7.946-5.485-13.32c0.499-5.367,0.63-9.212,5.485-13.32
		c4.888-4.127,8.95-3.661,14.494-3.373c5.551,0.289,12.434,0.308,19.481-5.649c10.249-8.668,11.378-23.996,2.526-34.054
		C165.617,78.935,158.517,76.094,151.457,76.245z M151.549,78.942c6.279-0.131,12.585,2.388,17.021,7.421
		c7.88,8.943,6.857,22.46-2.27,30.183c-12.854,10.853-22.775-0.446-33.976,9.022c-5.663,4.783-5.892,10.006-6.411,15.426
		c0.512,5.42,0.741,10.643,6.411,15.433c11.207,9.462,21.122-1.837,33.976,9.022c9.127,7.716,10.151,21.233,2.27,30.183
		c-7.867,8.943-21.633,9.908-30.767,2.192c-12.848-10.853-2.874-22.06-14.088-31.528c-11.201-9.468-21.122,1.831-33.976-9.029
		v-0.079c-2.848-2.415-4.908-5.374-6.155-8.602c-0.013-0.02,0.013-0.072,0-0.092c-0.243-0.656-0.486-1.26-0.682-1.942
		c-0.079-0.295-0.177-0.617-0.243-0.925c-0.013-0.033,0.013-0.059,0-0.085c-0.138-0.636-0.256-1.293-0.348-1.942
		c-0.039-0.335-0.052-0.676-0.079-1.01c-0.013-0.223-0.079-0.446-0.092-0.676c0-0.151,0-0.354,0-0.505c0-0.308,0-0.538,0-0.846
		c0-0.033,0-0.131,0-0.164c0-0.118,0-0.217,0-0.335c0.013-0.23,0.079-0.446,0.092-0.682c0.026-0.295,0.052-0.63,0.079-0.925
		c0.013-0.039,0-0.052,0-0.092c0.092-0.643,0.203-1.299,0.348-1.936c0-0.033-0.013-0.052,0-0.092
		c0.066-0.295,0.164-0.623,0.243-0.925c0.19-0.682,0.433-1.28,0.682-1.936c0.013-0.026-0.013-0.066,0-0.092
		c1.24-3.228,3.307-6.273,6.155-8.681c12.854-10.853,22.775,0.446,33.976-9.022c11.214-9.468,1.24-20.675,14.088-31.535
		C141.792,80.792,146.647,79.053,151.549,78.942z"/>
	<path opacity="0.3" fill="#669CCC" enable-background="new    " d="M151.568,78.949c-4.895,0.105-9.79,1.798-13.792,5.177
		c-12.848,10.859-2.861,22.145-14.075,31.607c-11.201,9.468-21.135-1.85-33.976,9.009v0.02c-2.861,2.415-4.921,5.4-6.161,8.628
		c0,0.013,0,0.039-0.013,0.066c-0.256,0.656-0.459,1.312-0.656,1.988c-0.079,0.302-0.164,0.604-0.23,0.906
		c-0.013,0.033-0.013,0.072-0.026,0.105c-0.138,0.636-0.23,1.273-0.322,1.923c0,0.007,0,0.007,0,0.02
		c0,0.026-0.013,0.066-0.013,0.098c-0.039,0.302-0.066,0.597-0.092,0.906c-0.013,0.23-0.039,0.453-0.052,0.682
		c0,0.112-0.013,0.236-0.013,0.354c0,0.039,0,0.079,0,0.118c-0.013,0.302-0.013,0.597,0,0.899c0,0.157,0.013,0.322,0.013,0.472
		c0.013,0.223,0.039,0.453,0.052,0.682c0.026,0.341,0.066,0.669,0.105,1.01c0,0,0,0.007,0,0.013
		c0.092,0.643,0.177,1.279,0.322,1.923c0.013,0.033,0.013,0.066,0.026,0.105c0.066,0.302,0.151,0.597,0.23,0.899
		c0.19,0.682,0.4,1.339,0.656,1.988c0.013,0.026,0.013,0.046,0.013,0.072c1.24,3.228,3.307,6.207,6.161,8.622v0.02
		c12.841,10.853,22.775-0.459,33.976,9.009c11.214,9.462,1.234,20.748,14.075,31.6c9.14,7.716,22.913,6.706,30.793-2.244
		c7.867-8.943,6.857-22.454-2.27-30.17c-12.841-10.859-22.775,0.479-33.989-8.989c-5.649-4.783-5.905-10.039-6.424-15.459
		c0.512-5.42,0.768-10.676,6.424-15.452c11.214-9.468,21.148,1.863,33.989-8.996c9.127-7.716,10.138-21.22,2.27-30.17
		C164.14,81.337,157.861,78.811,151.568,78.949C151.568,78.948,151.568,78.948,151.568,78.949z"/>
	<path opacity="0.3" fill="#669CCC" enable-background="new    " d="M151.549,78.942c-4.895,0.112-9.75,1.85-13.753,5.23
		c-12.848,10.859-2.874,22.06-14.088,31.535c-11.201,9.468-21.122-1.837-33.976,9.022c-2.848,2.415-4.908,5.453-6.155,8.681
		c-0.013,0.026,0.013,0.066,0,0.092c-0.243,0.656-0.486,1.253-0.682,1.936c-0.079,0.302-0.177,0.63-0.243,0.925
		c-0.013,0.039,0,0.059,0,0.092c-0.138,0.636-0.256,1.293-0.348,1.936c0,0.039,0.013,0.052,0,0.092
		c-0.026,0.295-0.052,0.63-0.079,0.925c-0.013,0.23-0.079,0.446-0.092,0.682c0,0.118,0,0.217,0,0.335c0,0.039,0,0.138,0,0.164
		c0,0.308,0,0.538,0,0.846c0,0.151,0,0.354,0,0.505c0.013,0.138,0.079,0.276,0.092,0.42c0.013-0.085-0.013-0.171,0-0.249
		c0.026-0.308,0.052-0.63,0.079-0.938c0.013-0.026,0-0.052,0-0.079c0.092-0.65,0.203-1.306,0.348-1.942c0-0.033-0.013-0.059,0-0.085
		c0.066-0.302,0.164-0.63,0.243-0.932c0.19-0.676,0.433-1.279,0.682-1.942c0.013-0.02-0.013-0.066,0-0.079
		c1.24-3.228,3.307-6.279,6.155-8.687c12.854-10.853,22.775,0.446,33.976-9.022c11.214-9.468,1.24-20.675,14.088-31.535
		c3.996-3.379,8.858-5.118,13.753-5.223c6.279-0.138,12.585,2.388,17.021,7.421c3.228,3.655,4.934,8.084,5.23,12.559
		c0.335-5.38-1.345-10.853-5.23-15.256C164.134,81.33,157.828,78.811,151.549,78.942z M126.077,142.346
		c-0.039,0.446-0.131,0.892-0.164,1.352c0.512,5.413,0.741,10.643,6.411,15.426c11.207,9.468,21.122-1.837,33.976,9.022
		c4.56,3.858,7.086,9.127,7.5,14.586c0.335-6.365-2.205-12.795-7.5-17.283c-12.854-10.859-22.775,0.44-33.976-9.022
		C127.127,152.038,126.549,147.274,126.077,142.346z"/>
	<path opacity="0.3" fill="#669CCC" enable-background="new    " d="M151.549,78.942c-4.895,0.112-9.75,1.85-13.753,5.23
		c-12.848,10.859-2.874,22.06-14.088,31.535c-11.201,9.468-21.122-1.837-33.976,9.022c-2.848,2.415-4.908,5.453-6.155,8.681
		c-0.013,0.026,0.013,0.066,0,0.092c-0.243,0.656-0.486,1.253-0.682,1.936c-0.079,0.302-0.177,0.63-0.243,0.925
		c-0.013,0.039,0,0.059,0,0.092c-0.138,0.636-0.256,1.293-0.348,1.936c0,0.039,0.013,0.052,0,0.092
		c-0.026,0.295-0.052,0.63-0.079,0.925c-0.013,0.23-0.079,0.446-0.092,0.682c0,0.118,0,0.217,0,0.335c0,0.039,0,0.138,0,0.164
		c0,0.308,0,0.538,0,0.846c0,0.151,0,0.354,0,0.505c0.013,0.223,0.079,0.446,0.092,0.676c0.026,0.341,0.039,0.682,0.079,1.01
		c0.092,0.65,0.203,1.306,0.348,1.942c0.013,0.026-0.013,0.052,0,0.085c0.066,0.308,0.164,0.63,0.243,0.925
		c0.19,0.682,0.433,1.286,0.682,1.942c0.013,0.02-0.013,0.072,0,0.092c1.24,3.222,3.307,6.181,6.155,8.602v0.079
		c12.854,10.859,22.775-0.44,33.976,9.029c11.214,9.462,1.24,20.669,14.088,31.528c9.14,7.716,22.9,6.752,30.767-2.192
		c7.88-8.943,6.857-22.467-2.27-30.183c-12.854-10.859-22.775,0.44-33.976-9.022c-5.663-4.783-5.892-10.006-6.411-15.433
		c0.512-5.42,0.741-10.643,6.411-15.426c11.207-9.468,21.122,1.837,33.976-9.022c9.127-7.716,10.151-21.233,2.27-30.183
		C164.134,81.33,157.828,78.811,151.549,78.942z M151.621,81.809c5.485-0.118,10.905,2.034,14.75,6.404
		c6.844,7.782,6.01,19.416-1.936,26.135c-5.768,4.875-10.177,4.665-15.597,4.383c-5.42-0.282-12.034-0.728-18.379,4.639
		c-6.424,5.426-6.909,12.04-7.421,17.368c-0.013,0.164-0.013,0.341,0,0.505c0.512,5.321,0.997,11.935,7.421,17.362
		c6.345,5.367,12.959,4.921,18.379,4.639s9.829-0.492,15.597,4.383c7.946,6.719,8.779,18.359,1.936,26.128
		c-6.844,7.782-18.759,8.582-26.719,1.857c-5.781-4.875-6.155-9.061-6.667-14.337c-0.499-5.269-1.063-11.837-7.421-17.198
		c-6.345-5.367-12.959-4.915-18.379-4.632c-5.367,0.276-9.75,0.413-15.433-4.298c-0.052-0.033-0.105-0.059-0.164-0.092
		c0-0.02,0-0.059,0-0.085c-2.474-2.08-4.232-4.573-5.308-7.329c-0.013-0.026,0-0.066,0-0.085c-0.013-0.02,0-0.085,0-0.085
		c-0.256-0.682-0.459-1.214-0.591-1.693c-0.105-0.335-0.217-0.604-0.256-0.755c0-0.046,0.013-0.046,0-0.085
		c-0.118-0.558-0.19-1.142-0.256-1.686c-0.026-0.19-0.052-0.538-0.079-0.932c-0.039-0.479-0.079-0.558-0.092-0.505
		c0,0.013,0-0.079,0-0.092s0.013-0.151,0-0.413c0-0.269,0-0.407,0-0.676c0.013-0.243,0.013-0.361,0-0.164
		c0.013-0.217,0-0.256,0-0.256c0,0.026,0-0.092,0-0.085c0.013,0.059,0.052-0.033,0.092-0.505c0.013-0.295,0.052-0.623,0.079-0.846
		c0.013-0.039,0-0.039,0-0.085c0.066-0.545,0.138-1.129,0.256-1.686c0-0.026,0-0.059,0-0.085c0.026-0.125,0.138-0.381,0.256-0.761
		c0.131-0.479,0.335-1.01,0.591-1.686c0,0,0-0.072,0-0.085c1.076-2.808,2.848-5.42,5.308-7.506
		c5.781-4.875,10.177-4.665,15.597-4.383c5.42,0.282,12.034,0.728,18.379-4.639c6.358-5.361,6.922-11.922,7.421-17.198
		c0.512-5.269,0.886-9.449,6.667-14.33C143.137,83.41,147.369,81.901,151.621,81.809z"/>
	<path opacity="0.3" fill="#669CCC" enable-background="new    " d="M151.549,78.942c-4.895,0.112-9.75,1.85-13.753,5.23
		c-12.848,10.859-2.874,22.06-14.088,31.535c-11.201,9.468-21.122-1.837-33.976,9.022c-2.848,2.415-4.908,5.453-6.155,8.681
		c-0.013,0.026,0.013,0.066,0,0.092c-0.243,0.656-0.486,1.253-0.682,1.936c-0.079,0.302-0.177,0.63-0.243,0.925
		c-0.013,0.039,0,0.059,0,0.092c-0.138,0.636-0.256,1.293-0.348,1.936c0,0.039,0.013,0.052,0,0.092
		c-0.026,0.295-0.052,0.63-0.079,0.925c-0.013,0.23-0.079,0.446-0.092,0.682c0,0.118,0,0.217,0,0.335c0,0.039,0,0.138,0,0.164
		c0,0.308,0,0.538,0,0.846c0,0.151,0,0.354,0,0.505c0.013,0.223,0.079,0.446,0.092,0.676c0.026,0.341,0.039,0.682,0.079,1.01
		c0.092,0.65,0.203,1.306,0.348,1.942c0.013,0.026-0.013,0.052,0,0.085c0.066,0.308,0.164,0.63,0.243,0.925
		c0.19,0.682,0.433,1.286,0.682,1.942c0.013,0.02-0.013,0.072,0,0.092c1.24,3.222,3.307,6.181,6.155,8.602v0.079
		c12.854,10.859,22.775-0.44,33.976,9.029c11.214,9.462,1.24,20.669,14.088,31.528c9.14,7.716,22.9,6.752,30.767-2.192
		c7.88-8.943,6.857-22.467-2.27-30.183c-12.854-10.859-22.775,0.44-33.976-9.022c-5.663-4.783-5.892-10.006-6.411-15.433
		c0.512-5.42,0.741-10.643,6.411-15.426c11.207-9.468,21.122,1.837,33.976-9.022c9.127-7.716,10.151-21.233,2.27-30.183
		C164.134,81.33,157.828,78.811,151.549,78.942z M151.621,84.25c4.79-0.098,9.547,1.844,12.907,5.649
		c5.958,6.778,5.243,16.739-1.693,22.598c-5.216,4.403-8.55,3.989-13.917,3.707c-5.354-0.276-13.057-0.597-20.059,5.315
		c-7.073,5.978-7.756,13.733-8.268,18.976c-0.026,0.335-0.026,0.669,0,1.004c0.512,5.243,1.194,12.992,8.268,18.969
		c7.001,5.919,14.704,5.597,20.059,5.315c5.367-0.282,8.701-0.682,13.917,3.707c6.936,5.866,7.651,15.82,1.693,22.591
		c-5.971,6.778-16.325,7.552-23.274,1.686c-5.216-4.403-5.321-7.513-5.82-12.723c-0.499-5.223-1.273-12.9-8.268-18.799
		c-6.995-5.912-14.685-5.59-20.059-5.315c-5.308,0.276-8.648,0.617-13.753-3.629c-0.052-0.052-0.105-0.026-0.164-0.085
		c0-0.026,0-0.059,0-0.085c-2.152-1.818-3.701-4.016-4.639-6.411c0-0.02,0.013-0.066,0-0.085c0-0.007,0-0.092,0-0.092
		c-0.256-0.682-0.407-1.115-0.499-1.43c-0.131-0.44-0.164-0.676-0.164-0.676c-0.013-0.046,0-0.046,0-0.085
		c-0.118-0.492-0.19-0.978-0.256-1.437c-0.013-0.066-0.052-0.315-0.092-0.761c-0.052-0.84-0.105-0.997-0.079-0.499
		c0.013,0.243,0.013,0.118,0-0.341c-0.013-0.243-0.013-0.426,0-0.676c0.013-0.407,0.013-0.466,0-0.092
		c0.013-0.433,0.013-0.512,0-0.249c-0.026,0.505,0.026,0.341,0.079-0.505c0.026-0.256,0.079-0.518,0.092-0.676
		c0-0.02,0-0.072,0-0.085c0.066-0.459,0.138-0.938,0.256-1.437c0-0.026,0-0.059,0-0.085c-0.013,0.033,0.039-0.217,0.164-0.676
		c0.092-0.322,0.243-0.741,0.499-1.437c0,0,0-0.079,0-0.085v-0.085c0.951-2.421,2.539-4.718,4.639-6.496
		c5.216-4.396,8.55-3.983,13.917-3.707c5.367,0.282,13.057,0.604,20.059-5.308c6.995-5.905,7.769-13.582,8.268-18.799
		c0.499-5.217,0.604-8.327,5.82-12.729C144.318,85.628,147.92,84.336,151.621,84.25z"/>
	<path opacity="0.3" fill="#FFFFFF" enable-background="new    " d="M173.792,101.875c-0.407,5.459-2.933,10.813-7.5,14.672
		c-12.854,10.853-22.775-0.446-33.976,9.022c-5.663,4.783-5.892,10.006-6.411,15.426c0.039,0.453,0.131,0.899,0.164,1.352
		c0.472-4.941,1.05-9.698,6.24-14.081c11.207-9.468,21.122,1.831,33.976-9.022C171.614,114.735,174.153,108.265,173.792,101.875z
		 M82.239,142.346c-0.013,0.144-0.079,0.276-0.092,0.413c0,0.118,0,0.23,0,0.348c0,0.039,0,0.131,0,0.164c0,0.302,0,0.538,0,0.84
		c0,0.157,0,0.354,0,0.505c0.013,0.223,0.079,0.446,0.092,0.676c0.026,0.341,0.039,0.682,0.079,1.01
		c0.092,0.65,0.203,1.299,0.348,1.942c0.013,0.033-0.013,0.052,0,0.085c0.066,0.308,0.164,0.63,0.243,0.932
		c0.19,0.676,0.433,1.279,0.682,1.936c0.013,0.026-0.013,0.066,0,0.092c1.24,3.228,3.307,6.181,6.155,8.596v0.085
		c12.854,10.853,22.775-0.44,33.976,9.022c11.214,9.468,1.24,20.669,14.088,31.535c9.14,7.716,22.9,6.752,30.767-2.192
		c3.884-4.409,5.577-9.967,5.23-15.347c-0.282,4.514-1.988,8.963-5.23,12.651c-7.867,8.943-21.633,9.908-30.767,2.192
		c-12.848-10.853-2.874-22.06-14.088-31.528c-11.201-9.468-21.122,1.831-33.976-9.029v-0.079c-2.848-2.415-4.908-5.374-6.155-8.602
		c-0.013-0.02,0.013-0.072,0-0.092c-0.243-0.656-0.486-1.26-0.682-1.942c-0.079-0.295-0.177-0.617-0.243-0.925
		c-0.013-0.033,0.013-0.059,0-0.085c-0.138-0.636-0.256-1.293-0.348-1.942c-0.039-0.335-0.052-0.676-0.079-1.01
		C82.226,142.51,82.252,142.425,82.239,142.346z"/>
</g>
</svg>
