<?xml version="1.0" encoding="utf-8"?>
<!-- Generator: Adobe Illustrator 17.0.0, SVG Export Plug-In . SVG Version: 6.00 Build 0)  -->
<!DOCTYPE svg PUBLIC "-//W3C//DTD SVG 1.1//EN" "http://www.w3.org/Graphics/SVG/1.1/DTD/svg11.dtd">
<svg version="1.1" id="图层_1" xmlns="http://www.w3.org/2000/svg" xmlns:xlink="http://www.w3.org/1999/xlink" x="0px" y="0px"
	 width="256px" height="256px" viewBox="0 0 256 256" enable-background="new 0 0 256 256" xml:space="preserve">
<g id="Layer_1">
	<g>
		<g opacity="0.5">
			<path opacity="0.08" enable-background="new    " d="M213.51,236.845H40.636c-15.915,0-28.886-12.476-28.886-27.76v21.232
				c0,11.942,10.147,21.625,22.578,21.625h185.483c12.431,0,22.437-9.683,22.437-21.625v-21.232
				C242.249,224.369,229.42,236.845,213.51,236.845z"/>
			<path opacity="0.1" enable-background="new    " d="M213.364,236.845H40.49c-15.91,0-28.739-12.249-28.739-27.533v11.107
				c0,11.942,5.48,26.491,27.676,26.491s152.506,0,174.996,0s27.827-14.549,27.827-26.491v-11.107
				C242.249,224.596,229.273,236.845,213.364,236.845z"/>
			<path opacity="0.1" enable-background="new    " d="M213.364,236.845H40.49c-15.91,0-28.739-12.249-28.739-27.533v5.994
				c0,11.947,9.503,26.572,27.676,26.572s154.193,0,174.996,0c20.808,0,27.827-14.625,27.827-26.567v-5.994
				C242.249,224.596,229.273,236.845,213.364,236.845z"/>
			<path opacity="0.05" enable-background="new    " d="M37.944,236.845h178.112v5.033H37.944V236.845z"/>
			<path opacity="0.05" enable-background="new    " d="M43.182,236.845h162.397v5.033H43.182V236.845z"/>
			<path opacity="0.05" enable-background="new    " d="M43.182,241.877h162.397v5.033H43.182V241.877z"/>
			<path opacity="0.05" enable-background="new    " d="M53.66,241.877h146.681v5.033H53.66V241.877z"/>
			<path opacity="0.05" enable-background="new    " d="M69.375,241.877h115.249v5.033H69.375V241.877z"/>
			<path opacity="0.05" enable-background="new    " d="M90.33,241.877h73.34v5.033H90.33V241.877z"/>
			<path opacity="0.05" enable-background="new    " d="M53.66,236.845h146.681v5.033H53.66V236.845z"/>
			<path opacity="0.05" enable-background="new    " d="M64.137,236.845h125.726v5.033H64.137V236.845z"/>
			<path opacity="0.05" enable-background="new    " d="M69.375,236.845h115.249v5.033H69.375V236.845z"/>
			<path opacity="0.05" enable-background="new    " d="M79.853,236.845h94.295v5.033H79.853V236.845z"/>
			<path opacity="0.05" enable-background="new    " d="M79.853,236.845h94.295v5.033H79.853V236.845z"/>
		</g>
		<g>
			<path fill="#C4DCED" d="M242,205.805C242,222.481,228.481,236,211.805,236H42.195C25.519,236,12,222.481,12,205.805V36.195
				C12,19.519,25.519,6,42.195,6h169.609C228.481,6,242,19.519,242,36.195V205.805z"/>
			<path fill-opacity="0" stroke="#9DBCD7" stroke-width="2" stroke-miterlimit="10" d="M242,205.805
				C242,222.481,228.481,236,211.805,236H42.195C25.519,236,12,222.481,12,205.805V36.195C12,19.519,25.519,6,42.195,6h169.609
				C228.481,6,242,19.519,242,36.195V205.805z"/>
		</g>
		<path fill-opacity="0" stroke="#FFFFFF" stroke-width="2" stroke-miterlimit="10" d="M42.195,234
			C26.648,234,14,221.352,14,205.805V36.195C14,20.648,26.648,8,42.195,8h169.609C227.352,8,240,20.648,240,36.195v169.609
			C240,221.352,227.352,234,211.805,234H42.195z"/>
		<path opacity="0.08" fill-opacity="0" stroke="#000000" stroke-miterlimit="10" enable-background="new    " d="M242.749,71.737
			c0,0,0-10.146-10.022-10.146c-29.088,0-121.969,0.015-130.282,0.015c-10.102,0-10.022-10-10.022-10s0-10.065-10.022-10.065
			c-17.543,0-52.679,0-60.13,0c-9.866,0-10.022,9.703-10.022,10.01"/>
		<path opacity="0.05" fill-opacity="0" stroke="#000000" stroke-miterlimit="10" enable-background="new    " d="M242.749,70.737
			c0,0,0-10.146-10.022-10.146c-29.088,0-121.969,0.015-130.282,0.015c-10.102,0-10.022-10-10.022-10s0-10.065-10.022-10.065
			c-17.543,0-52.679,0-60.13,0c-9.866,0-10.022,9.703-10.022,10.01"/>
		<path opacity="0.03" fill-opacity="0" stroke="#000000" stroke-miterlimit="10" enable-background="new    " d="M242.749,69.737
			c0,0,0-10.146-10.022-10.146c-29.088,0-121.969,0.015-130.282,0.015c-10.102,0-10.022-10-10.022-10s0-10.065-10.022-10.065
			c-17.543,0-52.679,0-60.13,0c-9.866,0-10.022,9.703-10.022,10.01"/>
		<g>
			
				<linearGradient id="SVGID_1_" gradientUnits="userSpaceOnUse" x1="401" y1="-343" x2="401" y2="-150" gradientTransform="matrix(1 0 0 -1 -274 -107)">
				<stop  offset="0" style="stop-color:#D1E0ED"/>
				<stop  offset="1" style="stop-color:#E4EEFB"/>
			</linearGradient>
			<path fill="url(#SVGID_1_)" d="M42.695,236h169.609C228.981,236,242,221.981,242,205.305V67.02c-1-2.376-3.585-4.618-8.317-4.618
				c-29.214,0-122.373,0.015-130.722,0.015c-10.146,0-10.003-9.676-10.003-9.676S93.021,43,82.956,43c-17.619,0-52.907,0-60.391,0
				C12.656,43,12,52.055,12,52.362v152.943C12,221.981,26.019,236,42.695,236z"/>
			<path fill-opacity="0" stroke="#9DBCD7" stroke-width="2" stroke-miterlimit="10" d="M42.695,236h169.609
				C228.981,236,242,221.981,242,205.305V67.02c-1-2.376-3.585-4.618-8.317-4.618c-29.214,0-122.373,0.015-130.722,0.015
				c-10.146,0-10.003-9.676-10.003-9.676S93.021,43,82.956,43c-17.619,0-52.907,0-60.391,0C12.656,43,12,52.055,12,52.362v152.943
				C12,221.981,26.019,236,42.695,236z"/>
		</g>
		<path fill-opacity="0" stroke="#FFFFFF" stroke-width="2" stroke-miterlimit="10" d="M42.695,234
			C27.141,234,14,220.859,14,205.305V52.362C14.015,52.124,14.494,45,22.565,45h60.391c2.473,0,4.406,0.683,5.745,2.031
			c2.218,2.232,2.259,5.664,2.258,5.698c-0.003,0.188-0.035,5.024,3.336,8.446c2.12,2.152,5.036,3.243,8.667,3.243
			c0,0,111.685-0.015,130.722-0.015c4.112,0,5.726,1.936,6.316,3.062v137.841C240,221.127,227.576,234,212.305,234H42.695z"/>
		<g>
			
				<linearGradient id="SVGID_2_" gradientUnits="userSpaceOnUse" x1="705.7988" y1="-927.4681" x2="737.6638" y2="-982.6611" gradientTransform="matrix(1 0 0 -1 -686 -925)">
				<stop  offset="0" style="stop-color:#FFFFFF"/>
				<stop  offset="0.5" style="stop-color:#FFFFFF;stop-opacity:0.6"/>
				<stop  offset="1" style="stop-color:#FFFFFF;stop-opacity:0.15"/>
			</linearGradient>
			<path fill="url(#SVGID_2_)" d="M46.073,67.039c3.563-7.375,7.91-14.283,12.899-20.672l-9.077-19.903
				c-7.751,7.327-14.045,15.402-19.066,23.243L46.073,67.039z"/>
			
				<linearGradient id="SVGID_3_" gradientUnits="userSpaceOnUse" x1="734.6916" y1="-919.2032" x2="755.5455" y2="-955.3253" gradientTransform="matrix(1 0 0 -1 -686 -925)">
				<stop  offset="0" style="stop-color:#FFFFFF"/>
				<stop  offset="0.5" style="stop-color:#FFFFFF;stop-opacity:0.6"/>
				<stop  offset="1" style="stop-color:#FFFFFF;stop-opacity:0.15"/>
			</linearGradient>
			<path fill="url(#SVGID_3_)" d="M47.016,7.335l4.745,10.397c4.565-3.791,9.57-5.095,15.026-10.397H47.016z"/>
			
				<linearGradient id="SVGID_4_" gradientUnits="userSpaceOnUse" x1="741.2518" y1="-912.3431" x2="766.7318" y2="-956.4771" gradientTransform="matrix(1 0 0 -1 -686 -925)">
				<stop  offset="0" style="stop-color:#FFFFFF"/>
				<stop  offset="0.5" style="stop-color:#FFFFFF;stop-opacity:0.6"/>
				<stop  offset="1" style="stop-color:#FFFFFF;stop-opacity:0.15"/>
			</linearGradient>
			<path fill="url(#SVGID_4_)" d="M82.618,7.335h-3.754c-9.464,5.302-17.74,9.347-24.839,15.391l8.7,19.087
				c7.433-8.584,16.054-16.107,25.709-22.183c0.074-0.069,0.127-0.127,0.207-0.196C99.463,10.092,88.716,7.335,82.618,7.335z"/>
			
				<linearGradient id="SVGID_5_" gradientUnits="userSpaceOnUse" x1="687.9149" y1="-952.6291" x2="715.5659" y2="-1000.522" gradientTransform="matrix(1 0 0 -1 -686 -925)">
				<stop  offset="0" style="stop-color:#FFFFFF"/>
				<stop  offset="0.5" style="stop-color:#FFFFFF;stop-opacity:0.6"/>
				<stop  offset="1" style="stop-color:#FFFFFF;stop-opacity:0.15"/>
			</linearGradient>
			<path fill="url(#SVGID_5_)" d="M27.935,54.442c-5.821,9.909-9.623,19.066-11.882,25.327c2.672,3.812,7.089,6.315,12.099,6.315
				c6.203,0,11.5-3.833,13.695-9.246c0.562-1.511,1.246-2.964,1.872-4.454L27.935,54.442z"/>
			
				<linearGradient id="SVGID_6_" gradientUnits="userSpaceOnUse" x1="686.6721" y1="-954.5906" x2="717.3171" y2="-1007.6696" gradientTransform="matrix(1 0 0 -1 -686 -925)">
				<stop  offset="0" style="stop-color:#FFFFFF"/>
				<stop  offset="0.5" style="stop-color:#FFFFFF;stop-opacity:0.6"/>
				<stop  offset="1" style="stop-color:#FFFFFF;stop-opacity:0.15"/>
			</linearGradient>
			<path fill="url(#SVGID_6_)" d="M13.487,38.001L13.37,71.276c0,0,0,0.011,0,0.021c0,0.207,0.053,0.403,0.064,0.61
				c2.529-6.155,6.06-13.679,10.853-21.626L13.487,38.001z"/>
			
				<linearGradient id="SVGID_7_" gradientUnits="userSpaceOnUse" x1="709.8471" y1="-937.968" x2="738.6231" y2="-987.8079" gradientTransform="matrix(1 0 0 -1 -686 -925)">
				<stop  offset="0" style="stop-color:#FFFFFF"/>
				<stop  offset="0.5" style="stop-color:#FFFFFF;stop-opacity:0.6"/>
				<stop  offset="1" style="stop-color:#FFFFFF;stop-opacity:0.15"/>
			</linearGradient>
			<path fill="url(#SVGID_7_)" d="M40.696,7.398C29.886,6.5,15.65,18.681,13.821,30.355l13.414,15.254
				c5.355-8.17,12.014-16.542,20.227-24.102L40.696,7.398z"/>
		</g>
		<g>
			<path opacity="0.05" fill="#FFFFFF" enable-background="new    " d="M101.586,79.312c-0.752,0.076-1.472,0.316-2.116,0.708
				l-36.129,21.94c-2.375,1.44-3.133,4.53-1.699,6.905c0.284,0.474,0.644,0.891,1.068,1.251l19.672,16.615l-19.983,16.14
				c-2.173,1.725-2.533,4.89-0.809,7.063c0.341,0.423,0.745,0.796,1.2,1.087l23.04,14.732c-0.101,0.385-0.152,0.777-0.158,1.175
				v3.133c-0.019,1.649,0.771,3.197,2.116,4.151l35.264,24.606c1.718,1.194,3.999,1.194,5.724,0l35.738-24.606
				c1.371-0.935,2.192-2.489,2.192-4.151v-3.525c0-0.423-0.051-0.847-0.158-1.251l22.256-14.265c2.331-1.51,2.994-4.624,1.478-6.949
				c-0.297-0.455-0.663-0.859-1.087-1.2l-19.672-15.907l19.672-16.773c2.11-1.8,2.363-4.972,0.562-7.088
				c-0.36-0.423-0.79-0.783-1.27-1.068l-36.046-21.864c-1.857-1.131-4.226-0.941-5.875,0.467l-20.532,17.714l-20.689-17.866
				C104.302,79.602,102.944,79.179,101.586,79.312z M102.053,84.328l23.981,20.689l23.823-20.532l36.047,21.865l-24.297,20.689
				l24.448,19.748l-35.813,22.882L125.8,148.904l-24.448,20.765l-35.813-22.882l24.606-19.83l35.655,21.947l35.58-21.865
				l-35.58-21.94l-35.422,21.865L65.93,106.275L102.053,84.328z M125.8,111.05l25.939,15.989L125.8,142.946l-25.863-15.907
				L125.8,111.05z M125.8,153.061l24.448,20.765l11.441-7.29v3.525l-35.737,24.606l-35.264-24.606v-3.133l10.657,6.899
				L125.8,153.061z"/>
			<path opacity="0.1" fill="#FFFFFF" enable-background="new    " d="M101.82,81.82c-0.392,0.044-0.764,0.177-1.099,0.392
				l-36.129,21.94c-1.169,0.745-1.516,2.293-0.771,3.462c0.126,0.196,0.278,0.379,0.455,0.537L86.298,126.8l-22.332,18.024
				c-1.08,0.865-1.251,2.445-0.379,3.525c0.171,0.215,0.379,0.398,0.619,0.55l24.998,15.989c-0.644,0.474-1.023,1.232-1.017,2.041
				v3.133c0.013,0.815,0.423,1.579,1.099,2.041l35.264,24.606c0.853,0.581,1.971,0.581,2.824,0l35.738-24.606
				c0.676-0.461,1.087-1.219,1.099-2.041v-3.525c0.013-0.847-0.398-1.643-1.099-2.116l24.297-15.516
				c1.169-0.739,1.523-2.287,0.783-3.462c-0.145-0.234-0.335-0.442-0.55-0.619l-22.098-17.866l22.022-18.731
				c1.036-0.916,1.137-2.502,0.221-3.538c-0.158-0.177-0.335-0.329-0.537-0.455l-36.047-21.865
				c-0.935-0.588-2.148-0.493-2.975,0.234l-22.18,19.123l-22.332-19.281C103.184,81.99,102.508,81.763,101.82,81.82z
				 M102.053,84.328l23.981,20.689l23.823-20.532l36.047,21.865l-24.297,20.689l24.448,19.748l-35.813,22.882L125.8,148.904
				l-24.448,20.765l-35.813-22.882l24.606-19.83l35.655,21.947l35.58-21.865l-35.58-21.94l-35.422,21.865L65.93,106.275
				C65.93,106.274,102.053,84.328,102.053,84.328z M125.8,107.999l30.797,19.041L125.8,146.005L95.003,127.04L125.8,107.999z
				 M125.8,153.061l24.448,20.765l11.441-7.29v3.525l-35.737,24.606l-35.264-24.606v-3.133l10.657,6.899L125.8,153.061z"/>
			<path opacity="0.3" fill="#669CCC" enable-background="new    " d="M102.041,84.328l-36.085,21.966l24.448,20.658l35.428-21.833
				l35.561,21.896l-35.561,21.896l24.448,20.721l35.826-22.882l-24.512-19.742l24.316-20.658l-36.085-21.896l-23.798,20.525
				L102.041,84.328L102.041,84.328z M90.139,126.951l-24.644,19.805l35.889,22.882l24.385-20.721
				C125.769,148.91,90.139,126.951,90.139,126.951z M125.769,153.099l-24.385,20.721l-10.721-6.867v3.14l35.302,24.581
				l35.693-24.581v-3.531l-11.378,7.259C150.28,173.82,125.769,153.099,125.769,153.099z"/>
			<path opacity="0.3" fill="#669CCC" enable-background="new    " d="M102.053,84.328l-36.129,21.94l24.448,20.689l35.428-21.858
				l35.58,21.94l-35.58,21.865l24.448,20.765l35.813-22.882l-24.448-19.748l24.297-20.689l-36.047-21.865l-23.823,20.532
				L102.053,84.328z M125.8,148.904l-35.655-21.94l-24.606,19.83l35.813,22.882L125.8,148.904z M101.662,89.186l17.714,15.282
				L90.695,122.1l-18.106-15.282L101.662,89.186z M150.249,89.344l28.997,17.556l-18.024,15.358l-28.681-17.632
				C132.541,104.625,150.249,89.344,150.249,89.344z M90.455,131.74l28.681,17.714l-18.106,15.358l-28.839-18.415L90.455,131.74z
				 M161.222,131.74l18.181,14.656l-28.839,18.415l-18.106-15.358L161.222,131.74z M125.8,153.061l-24.448,20.765l-10.657-6.899
				v3.133l35.264,24.606l35.738-24.606v-3.525l-11.441,7.29L125.8,153.061z M125.8,158.153l20.765,17.632l-20.532,14.107
				l-20.689-14.34L125.8,158.153z"/>
			<path opacity="0.5" fill="#669CCC" enable-background="new    " d="M102.053,84.328l-36.129,21.94l1.725,1.491l34.405-20.923
				l22.256,19.199l1.491-0.935l1.8,1.099L149.857,87l34.322,20.847l1.725-1.491l-36.047-21.865l-23.823,20.532L102.053,84.328z
				 M88.73,128.057l-23.198,18.731l1.725,1.099l22.882-18.415l33.931,20.923l1.731-1.491L92.262,128.29l-1.883,1.175L88.73,128.057z
				 M125.8,148.904l1.725,1.491l33.855-20.847l-2.041-1.251L125.8,148.904z M163.105,128.297l-1.491,1.251l22.73,18.339l1.725-1.099
				L163.105,128.297z M125.8,153.061l-24.448,20.765l-10.657-6.899v2.508l10.657,6.899l24.448-20.765l24.448,20.765l11.441-7.29
				v-2.508l-11.441,7.29L125.8,153.061z"/>
			<path opacity="0.3" fill="#669CCC" enable-background="new    " d="M102.053,84.328l-36.129,21.94l24.448,20.689l35.428-21.858
				l35.58,21.94l-35.58,21.865l24.448,20.765l35.813-22.882l-24.448-19.748l24.297-20.689l-36.047-21.865l-23.823,20.532
				L102.053,84.328z M125.8,148.904l-35.655-21.94l-24.606,19.83l35.813,22.882L125.8,148.904z M101.82,86.76l20.765,17.948
				l-32.054,19.83L69.292,106.59C69.291,106.59,101.82,86.76,101.82,86.76z M150.097,86.918l32.446,19.748l-21.239,18.024
				l-32.054-19.83C129.25,104.859,150.097,86.918,150.097,86.918z M90.297,129.39l32.13,19.83l-21.239,18.024L68.9,146.63
				L90.297,129.39z M161.38,129.39l21.315,17.24l-32.288,20.614l-21.239-18.024L161.38,129.39z M125.8,153.061l-24.448,20.765
				l-10.657-6.899v3.133l35.264,24.606l35.738-24.606v-3.525l-11.441,7.29L125.8,153.061z M125.8,155.645l23.197,19.672
				c0.246,0.227,0.537,0.385,0.859,0.467l-23.823,16.457l-23.905-16.615c0.171-0.082,0.329-0.19,0.467-0.316L125.8,155.645z"/>
			<path opacity="0.2" fill="#FFFFFF" enable-background="new    " d="M124.309,106.034l-33.931,20.923l-22.73-19.199l-1.725,1.017
				l22.806,19.281l1.409-1.099l2.116,1.333l33.545-20.683l33.539,20.689l2.041-1.251L127.6,106.198l-1.567,1.333
				C126.034,107.531,124.309,106.034,124.309,106.034z M184.186,107.841l-22.572,19.199l1.491,1.251l22.806-19.432L184.186,107.841z
				 M67.257,147.887l-1.725,1.409l35.813,22.882l24.455-20.765l-1.725-1.017l-22.73,19.281L67.257,147.887z M125.8,151.412
				l24.448,20.765l35.813-22.882l-1.725-1.409l-34.089,21.789l-22.73-19.281L125.8,151.412z M90.688,170.067v2.508l35.264,24.606
				l35.738-24.606v-2.508l-35.738,24.607L90.688,170.067z"/>
		</g>
	</g>
</g>
</svg>
