<?xml version="1.0" encoding="utf-8"?>
<!-- Generator: Adobe Illustrator 17.0.0, SVG Export Plug-In . SVG Version: 6.00 Build 0)  -->
<!DOCTYPE svg PUBLIC "-//W3C//DTD SVG 1.1//EN" "http://www.w3.org/Graphics/SVG/1.1/DTD/svg11.dtd">
<svg version="1.1" id="图层_1" xmlns="http://www.w3.org/2000/svg" xmlns:xlink="http://www.w3.org/1999/xlink" x="0px" y="0px"
	 width="256px" height="256px" viewBox="0 0 256 256" enable-background="new 0 0 256 256" xml:space="preserve">
<g>
	<path fill="#C4DCED" stroke="#9DBCD7" stroke-width="2" stroke-miterlimit="10" d="M242,205.805
		C242,222.481,228.481,236,211.805,236H42.195C25.519,236,12,222.481,12,205.805V36.195C12,19.519,25.519,6,42.195,6h169.609
		C228.481,6,242,19.519,242,36.195V205.805z"/>
	<path fill="none" stroke="#FFFFFF" stroke-width="2" stroke-miterlimit="10" d="M42.195,234C26.648,234,14,221.352,14,205.805
		V36.195C14,20.648,26.648,8,42.195,8h169.609C227.352,8,240,20.648,240,36.195v169.609C240,221.352,227.352,234,211.805,234H42.195
		z"/>
	<g>
		<path opacity="0.08" fill="none" stroke="#000000" stroke-miterlimit="10" d="M242.749,72.737c0,0,0-10.146-10.022-10.146
			c-29.088,0-121.969,0.015-130.282,0.015c-10.102,0-10.022-10-10.022-10s0-10.065-10.022-10.065c-17.543,0-52.679,0-60.13,0
			c-9.866,0-10.022,9.703-10.022,10.01"/>
		<path opacity="0.05" fill="none" stroke="#000000" stroke-miterlimit="10" d="M242.749,71.737c0,0,0-10.146-10.022-10.146
			c-29.088,0-121.969,0.015-130.282,0.015c-10.102,0-10.022-10-10.022-10s0-10.065-10.022-10.065c-17.543,0-52.679,0-60.13,0
			c-9.866,0-10.022,9.703-10.022,10.01"/>
		<path opacity="0.03" fill="none" stroke="#000000" stroke-miterlimit="10" d="M242.749,70.737c0,0,0-10.146-10.022-10.146
			c-29.088,0-121.969,0.015-130.282,0.015c-10.102,0-10.022-10-10.022-10s0-10.065-10.022-10.065c-17.543,0-52.679,0-60.13,0
			c-9.866,0-10.022,9.703-10.022,10.01"/>
		<linearGradient id="SVGID_1_" gradientUnits="userSpaceOnUse" x1="127" y1="236" x2="127" y2="44">
			<stop  offset="0" style="stop-color:#D1E0ED"/>
			<stop  offset="1" style="stop-color:#E4EEFB"/>
		</linearGradient>
		<path fill="url(#SVGID_1_)" stroke="#9DBCD7" stroke-width="2" stroke-miterlimit="10" d="M42.695,236h169.609
			C228.981,236,242,221.981,242,205.305V68.02c-1-2.376-3.585-4.618-8.317-4.618c-29.214,0-122.373,0.015-130.722,0.015
			c-10.146,0-10.003-9.676-10.003-9.676S93.021,44,82.956,44c-17.619,0-52.907,0-60.391,0C12.656,44,12,53.055,12,53.362v151.943
			C12,221.981,26.019,236,42.695,236z"/>
		<path fill="none" stroke="#FFFFFF" stroke-width="2" stroke-miterlimit="10" d="M42.695,234C27.141,234,14,220.859,14,205.305
			V53.362C14.015,53.124,14.494,46,22.565,46h60.391c2.473,0,4.406,0.683,5.745,2.031c2.218,2.232,2.259,5.664,2.258,5.698
			c-0.003,0.188-0.035,5.024,3.336,8.446c2.12,2.152,5.036,3.243,8.667,3.243c0,0,111.685-0.015,130.722-0.015
			c4.112,0,5.726,1.936,6.316,3.062v136.841C240,221.127,227.576,234,212.305,234H42.695z"/>
	</g>
	<g id="g27_1_">
		
			<linearGradient id="path36_2_" gradientUnits="userSpaceOnUse" x1="431.7986" y1="820.4682" x2="463.6644" y2="875.6608" gradientTransform="matrix(1 0 0 1 -412 -818)">
			<stop  offset="0" style="stop-color:#FFFFFF"/>
			<stop  offset="0.5" style="stop-color:#FFFFFF;stop-opacity:0.6"/>
			<stop  offset="1" style="stop-color:#FFFFFF;stop-opacity:0.15"/>
		</linearGradient>
		<path id="path36_1_" fill="url(#path36_2_)" d="M46.073,67.039c3.563-7.375,7.91-14.283,12.899-20.672l-9.077-19.903
			c-7.751,7.327-14.045,15.402-19.066,23.243L46.073,67.039z"/>
		
			<linearGradient id="path45_2_" gradientUnits="userSpaceOnUse" x1="460.6917" y1="812.2031" x2="481.5462" y2="848.3249" gradientTransform="matrix(1 0 0 1 -412 -818)">
			<stop  offset="0" style="stop-color:#FFFFFF"/>
			<stop  offset="0.5" style="stop-color:#FFFFFF;stop-opacity:0.6"/>
			<stop  offset="1" style="stop-color:#FFFFFF;stop-opacity:0.15"/>
		</linearGradient>
		<path id="path45_1_" fill="url(#path45_2_)" d="M47.016,7.335l4.745,10.397c4.565-3.791,9.57-5.095,15.026-10.397L47.016,7.335z"
			/>
		
			<linearGradient id="path54_2_" gradientUnits="userSpaceOnUse" x1="467.2517" y1="805.3433" x2="492.7321" y2="849.4767" gradientTransform="matrix(1 0 0 1 -412 -818)">
			<stop  offset="0" style="stop-color:#FFFFFF"/>
			<stop  offset="0.5" style="stop-color:#FFFFFF;stop-opacity:0.6"/>
			<stop  offset="1" style="stop-color:#FFFFFF;stop-opacity:0.15"/>
		</linearGradient>
		<path id="path54_1_" fill="url(#path54_2_)" d="M82.618,7.335h-3.754c-9.464,5.302-17.74,9.347-24.839,15.391l8.7,19.087
			c7.433-8.584,16.054-16.107,25.709-22.183c0.074-0.069,0.127-0.127,0.207-0.196C99.463,10.092,88.716,7.335,82.618,7.335z"/>
		
			<linearGradient id="path63_2_" gradientUnits="userSpaceOnUse" x1="413.9148" y1="845.6288" x2="441.5662" y2="893.5222" gradientTransform="matrix(1 0 0 1 -412 -818)">
			<stop  offset="0" style="stop-color:#FFFFFF"/>
			<stop  offset="0.5" style="stop-color:#FFFFFF;stop-opacity:0.6"/>
			<stop  offset="1" style="stop-color:#FFFFFF;stop-opacity:0.15"/>
		</linearGradient>
		<path id="path63_1_" fill="url(#path63_2_)" d="M27.935,54.442c-5.821,9.909-9.623,19.066-11.882,25.327
			c2.672,3.812,7.089,6.315,12.099,6.315c6.203,0,11.5-3.833,13.695-9.246c0.562-1.511,1.246-2.964,1.872-4.454L27.935,54.442z"/>
		
			<linearGradient id="path72_2_" gradientUnits="userSpaceOnUse" x1="412.6727" y1="847.5903" x2="443.3176" y2="900.6691" gradientTransform="matrix(1 0 0 1 -412 -818)">
			<stop  offset="0" style="stop-color:#FFFFFF"/>
			<stop  offset="0.5" style="stop-color:#FFFFFF;stop-opacity:0.6"/>
			<stop  offset="1" style="stop-color:#FFFFFF;stop-opacity:0.15"/>
		</linearGradient>
		<path id="path72_1_" fill="url(#path72_2_)" d="M13.487,38.001l-0.117,33.275c0,0,0,0.011,0,0.021c0,0.207,0.053,0.403,0.064,0.61
			c2.529-6.155,6.06-13.679,10.853-21.626L13.487,38.001z"/>
		
			<linearGradient id="path149_2_" gradientUnits="userSpaceOnUse" x1="435.8473" y1="830.9678" x2="464.6228" y2="880.8076" gradientTransform="matrix(1 0 0 1 -412 -818)">
			<stop  offset="0" style="stop-color:#FFFFFF"/>
			<stop  offset="0.5" style="stop-color:#FFFFFF;stop-opacity:0.6"/>
			<stop  offset="1" style="stop-color:#FFFFFF;stop-opacity:0.15"/>
		</linearGradient>
		<path id="path149_1_" fill="url(#path149_2_)" d="M40.696,7.398C29.886,6.5,15.65,18.681,13.821,30.355l13.414,15.254
			c5.355-8.17,12.014-16.542,20.227-24.102L40.696,7.398z"/>
	</g>
</g>
<g id="g151" opacity="0.5">
	<path id="path153" opacity="0.08" enable-background="new    " d="M213.51,236.845H40.636c-15.915,0-28.886-12.476-28.886-27.76
		v21.232c0,11.942,10.147,21.625,22.578,21.625h185.483c12.431,0,22.437-9.683,22.437-21.625v-21.232
		C242.249,224.369,229.42,236.845,213.51,236.845z"/>
	<path id="path155" opacity="0.1" enable-background="new    " d="M213.364,236.845H40.49c-15.91,0-28.739-12.249-28.739-27.533
		v11.107c0,11.942,5.48,26.491,27.676,26.491s152.506,0,174.996,0s27.827-14.549,27.827-26.491v-11.107
		C242.249,224.596,229.273,236.845,213.364,236.845z"/>
	<path id="path157" opacity="0.1" enable-background="new    " d="M213.364,236.845H40.49c-15.91,0-28.739-12.249-28.739-27.533
		v5.994c0,11.947,9.503,26.572,27.676,26.572s154.193,0,174.996,0c20.808,0,27.827-14.625,27.827-26.567v-5.994
		C242.249,224.596,229.273,236.845,213.364,236.845z"/>
	<rect id="rect159" x="37.944" y="236.845" opacity="0.05" enable-background="new    " width="178.112" height="5.033"/>
	<rect id="rect161" x="43.182" y="236.845" opacity="0.05" enable-background="new    " width="162.397" height="5.033"/>
	<rect id="rect163" x="43.182" y="241.877" opacity="0.05" enable-background="new    " width="162.397" height="5.033"/>
	<rect id="rect165" x="53.66" y="241.877" opacity="0.05" enable-background="new    " width="146.681" height="5.033"/>
	<rect id="rect167" x="69.375" y="241.877" opacity="0.05" enable-background="new    " width="115.249" height="5.033"/>
	<rect id="rect169" x="90.33" y="241.877" opacity="0.05" enable-background="new    " width="73.34" height="5.033"/>
	<rect id="rect171" x="53.66" y="236.845" opacity="0.05" enable-background="new    " width="146.681" height="5.033"/>
	<rect id="rect173" x="64.137" y="236.845" opacity="0.05" enable-background="new    " width="125.726" height="5.033"/>
	<rect id="rect175" x="69.375" y="236.845" opacity="0.05" enable-background="new    " width="115.249" height="5.033"/>
	<rect id="rect177" x="79.853" y="236.845" opacity="0.05" enable-background="new    " width="94.295" height="5.033"/>
	<rect id="rect179" x="79.853" y="236.845" opacity="0.05" enable-background="new    " width="94.295" height="5.033"/>
</g>
<g>
	<g opacity="0.3">
		<g opacity="0.5">
			<path fill="#FFFFFF" d="M86.38,86.613c16.327-5.414,35.052-2.041,48.465,8.729c-2.584,14.347-5.168,28.693-7.752,43.04
				c-13.412-10.771-32.137-14.143-48.465-8.729C81.212,115.306,83.796,100.96,86.38,86.613z"/>
		</g>
		<g>
			<path fill="#669CCC" d="M86.38,84.613c16.327-5.414,35.052-2.041,48.465,8.729c-2.584,14.347-5.168,28.693-7.752,43.04
				c-13.412-10.771-32.137-14.143-48.465-8.729C81.212,113.306,83.796,98.96,86.38,84.613z"/>
		</g>
	</g>
	<g opacity="0.3">
		<g opacity="0.5">
			<path fill="#FFFFFF" d="M141.768,96.59c13.532,10.542,32.105,13.887,48.465,8.729c-2.584,14.347-5.168,28.693-7.752,43.04
				c-16.36,5.158-34.933,1.812-48.465-8.729C136.6,125.283,139.184,110.936,141.768,96.59z"/>
		</g>
		<g>
			<path fill="#669CCC" d="M141.768,94.59c13.532,10.542,32.105,13.887,48.465,8.729c-2.584,14.347-5.168,28.693-7.752,43.04
				c-16.36,5.158-34.933,1.812-48.465-8.729C136.6,123.283,139.184,108.936,141.768,94.59z"/>
		</g>
	</g>
	<g opacity="0.3">
		<g opacity="0.5">
			<path fill="#FFFFFF" d="M77.52,135.802c16.327-5.414,35.052-2.041,48.465,8.729c-2.584,14.347-5.168,28.693-7.752,43.04
				c-13.412-10.771-32.137-14.143-48.465-8.729C72.352,164.495,74.936,150.148,77.52,135.802z"/>
		</g>
		<g>
			<path fill="#669CCC" d="M77.52,133.802c16.327-5.414,35.052-2.041,48.465,8.729c-2.584,14.347-5.168,28.693-7.752,43.04
				c-13.412-10.771-32.137-14.143-48.465-8.729C72.352,162.495,74.936,148.148,77.52,133.802z"/>
		</g>
	</g>
	<g opacity="0.3">
		<g opacity="0.5">
			<path fill="#FFFFFF" d="M132.908,145.778c13.532,10.542,32.105,13.887,48.465,8.729c-2.584,14.347-5.168,28.693-7.752,43.04
				c-16.36,5.158-34.933,1.812-48.465-8.729C127.74,174.471,130.324,160.124,132.908,145.778z"/>
		</g>
		<g>
			<path fill="#669CCC" d="M132.908,143.778c13.532,10.542,32.105,13.887,48.465,8.729c-2.584,14.347-5.168,28.693-7.752,43.04
				c-16.36,5.158-34.933,1.812-48.465-8.729C127.74,172.471,130.324,158.124,132.908,143.778z"/>
		</g>
	</g>
	<path opacity="0.1" fill="#669CCC" d="M86.38,84.613c-2.584,14.347-5.168,28.693-7.752,43.04
		c16.327-5.414,35.052-2.041,48.465,8.729c2.584-14.347,5.168-28.693,7.752-43.04C121.432,82.572,102.707,79.199,86.38,84.613z
		 M124.269,129.494c-8.773-5.441-19.1-8.385-29.688-8.385c-3.699,0-7.346,0.361-10.902,1.076l6.205-34.455
		c4.009-1.103,8.186-1.661,12.449-1.661c10.201,0,20.104,3.17,28.143,8.971L124.269,129.494z"/>
	<path opacity="0.1" fill="#669CCC" d="M141.768,94.589c-2.584,14.347-5.168,28.693-7.752,43.04
		c13.532,10.542,32.105,13.887,48.465,8.729c2.584-14.347,5.168-28.693,7.752-43.04C173.873,108.476,155.3,105.131,141.768,94.589z
		 M178.984,143.203c-3.933,1.022-8.018,1.54-12.177,1.54c-10.243,0-20.241-3.129-28.415-8.852l6.214-34.499
		c8.894,5.392,19.315,8.31,29.954,8.31c3.602,0,7.16-0.334,10.638-0.998L178.984,143.203z"/>
	<path opacity="0.1" fill="#669CCC" d="M77.52,133.801c-2.584,14.347-5.168,28.693-7.752,43.04
		c16.327-5.414,35.052-2.041,48.465,8.729c2.584-14.347,5.168-28.693,7.752-43.04C112.572,131.76,93.848,128.387,77.52,133.801z
		 M115.408,178.683c-8.772-5.441-19.1-8.386-29.688-8.386c-3.699,0-7.346,0.36-10.902,1.075l6.206-34.454
		c4.009-1.103,8.186-1.66,12.449-1.66c10.201,0,20.104,3.171,28.142,8.972L115.408,178.683z"/>
	<path opacity="0.1" fill="#669CCC" d="M132.908,143.778c-2.584,14.347-5.168,28.693-7.752,43.04
		c13.532,10.542,32.105,13.887,48.465,8.729c2.584-14.347,5.168-28.693,7.752-43.04C165.013,157.665,146.44,154.319,132.908,143.778
		z M170.125,192.391c-3.933,1.022-8.019,1.54-12.177,1.54c-10.244,0-20.241-3.128-28.415-8.851l6.214-34.498
		c8.893,5.391,19.315,8.31,29.953,8.31c3.602,0,7.161-0.335,10.639-0.998L170.125,192.391z"/>
	<g opacity="0.5">
		<path opacity="0.3" fill="#669CCC" d="M86.38,84.613c-2.584,14.347-5.168,28.693-7.752,43.04
			c16.327-5.414,35.052-2.041,48.465,8.729c2.584-14.347,5.168-28.693,7.752-43.04C121.432,82.572,102.707,79.199,86.38,84.613z
			 M125.699,132.835c-8.959-6.293-19.885-9.726-31.12-9.726c-4.579,0-9.076,0.573-13.408,1.706l6.964-38.661
			c4.551-1.384,9.321-2.085,14.197-2.085c11.055,0,21.777,3.58,30.331,10.104L125.699,132.835z"/>
		<path opacity="0.3" fill="#669CCC" d="M141.768,94.589c-2.584,14.347-5.168,28.693-7.752,43.04
			c13.532,10.542,32.105,13.887,48.465,8.729c2.584-14.347,5.168-28.693,7.752-43.04C173.873,108.476,155.3,105.131,141.768,94.589z
			 M180.729,144.798c-4.477,1.291-9.154,1.945-13.922,1.945c-11.093,0-21.912-3.531-30.606-9.966l6.969-38.688
			c9.089,6.219,20.113,9.614,31.391,9.614c4.476,0,8.881-0.535,13.137-1.594L180.729,144.798z"/>
		<path opacity="0.3" fill="#669CCC" d="M77.52,133.801c-2.584,14.347-5.168,28.693-7.752,43.04
			c16.327-5.414,35.052-2.041,48.465,8.729c2.584-14.347,5.168-28.693,7.752-43.04C112.572,131.76,93.848,128.387,77.52,133.801z
			 M116.839,182.023c-8.959-6.293-19.884-9.727-31.12-9.727c-4.579,0-9.075,0.573-13.408,1.706l6.963-38.66
			c4.551-1.384,9.321-2.085,14.198-2.085c11.055,0,21.777,3.58,30.33,10.105L116.839,182.023z"/>
		<path opacity="0.3" fill="#669CCC" d="M132.908,143.778c-2.584,14.347-5.168,28.693-7.752,43.04
			c13.532,10.542,32.105,13.887,48.465,8.729c2.584-14.347,5.168-28.693,7.752-43.04
			C165.013,157.665,146.44,154.319,132.908,143.778z M171.87,193.986c-4.477,1.291-9.154,1.944-13.922,1.944
			c-11.093,0-21.912-3.53-30.606-9.965l6.969-38.688c9.089,6.22,20.112,9.614,31.39,9.614c4.477,0,8.882-0.535,13.138-1.594
			L171.87,193.986z"/>
	</g>
</g>
</svg>
