<?xml version="1.0" encoding="utf-8"?>
<!-- Generator: Adobe Illustrator 17.0.0, SVG Export Plug-In . SVG Version: 6.00 Build 0)  -->
<!DOCTYPE svg PUBLIC "-//W3C//DTD SVG 1.1//EN" "http://www.w3.org/Graphics/SVG/1.1/DTD/svg11.dtd">
<svg version="1.1" id="图层_1" xmlns="http://www.w3.org/2000/svg" xmlns:xlink="http://www.w3.org/1999/xlink" x="0px" y="0px"
	 width="256px" height="256px" viewBox="0 0 256 256" enable-background="new 0 0 256 256" xml:space="preserve">
<path fill="#C4DCED" stroke="#9DBCD7" stroke-width="2" stroke-miterlimit="10" d="M242,205.805
	C242,222.481,228.481,236,211.805,236H42.195C25.519,236,12,222.481,12,205.805V36.195C12,19.519,25.519,6,42.195,6h169.609
	C228.481,6,242,19.519,242,36.195V205.805z"/>
<path opacity="0.6" fill="none" stroke="#FFFFFF" stroke-width="2" stroke-miterlimit="10" d="M42.195,234
	C26.648,234,14,221.352,14,205.805V36.195C14,20.648,26.648,8,42.195,8h169.609C227.352,8,240,20.648,240,36.195v169.609
	C240,221.352,227.352,234,211.805,234H42.195z"/>
<g>
	<path opacity="0.08" fill="none" stroke="#000000" stroke-miterlimit="10" d="M242.749,72.737c0,0,0-10.146-10.022-10.146
		c-29.088,0-121.969,0.015-130.282,0.015c-10.102,0-10.022-10-10.022-10s0-10.065-10.022-10.065c-17.543,0-52.679,0-60.13,0
		c-9.866,0-10.022,9.703-10.022,10.01"/>
	<path opacity="0.05" fill="none" stroke="#000000" stroke-miterlimit="10" d="M242.749,71.737c0,0,0-10.146-10.022-10.146
		c-29.088,0-121.969,0.015-130.282,0.015c-10.102,0-10.022-10-10.022-10s0-10.065-10.022-10.065c-17.543,0-52.679,0-60.13,0
		c-9.866,0-10.022,9.703-10.022,10.01"/>
	<path opacity="0.03" fill="none" stroke="#000000" stroke-miterlimit="10" d="M242.749,70.737c0,0,0-10.146-10.022-10.146
		c-29.088,0-121.969,0.015-130.282,0.015c-10.102,0-10.022-10-10.022-10s0-10.065-10.022-10.065c-17.543,0-52.679,0-60.13,0
		c-9.866,0-10.022,9.703-10.022,10.01"/>
	<linearGradient id="SVGID_1_" gradientUnits="userSpaceOnUse" x1="127" y1="236" x2="127" y2="44">
		<stop  offset="0" style="stop-color:#D1E0ED"/>
		<stop  offset="1" style="stop-color:#E4EEFB"/>
	</linearGradient>
	<path fill="url(#SVGID_1_)" stroke="#9DBCD7" stroke-width="2" stroke-miterlimit="10" d="M42.695,236h169.609
		C228.981,236,242,221.981,242,205.305V68.02c-1-2.376-3.585-4.618-8.317-4.618c-29.214,0-122.373,0.015-130.722,0.015
		c-10.146,0-10.003-9.676-10.003-9.676S93.021,44,82.956,44c-17.619,0-52.907,0-60.391,0C12.656,44,12,53.055,12,53.362v151.943
		C12,221.981,26.019,236,42.695,236z"/>
	<path fill="none" stroke="#FFFFFF" stroke-width="2" stroke-miterlimit="10" d="M42.695,234C27.141,234,14,220.859,14,205.305
		V53.362C14.015,53.124,14.494,46,22.565,46h60.391c2.473,0,4.406,0.683,5.745,2.031c2.218,2.232,2.259,5.664,2.258,5.698
		c-0.003,0.188-0.035,5.024,3.336,8.446c2.12,2.152,5.036,3.243,8.667,3.243c0,0,111.685-0.015,130.722-0.015
		c4.112,0,5.726,1.936,6.316,3.062v136.841C240,221.127,227.576,234,212.305,234H42.695z"/>
</g>
<g id="g27_1_">
	
		<linearGradient id="path36_2_" gradientUnits="userSpaceOnUse" x1="431.7986" y1="820.4682" x2="463.6644" y2="875.6608" gradientTransform="matrix(1 0 0 1 -412 -818)">
		<stop  offset="0" style="stop-color:#FFFFFF"/>
		<stop  offset="0.5" style="stop-color:#FFFFFF;stop-opacity:0.6"/>
		<stop  offset="1" style="stop-color:#FFFFFF;stop-opacity:0.15"/>
	</linearGradient>
	<path id="path36_1_" fill="url(#path36_2_)" d="M46.073,67.039c3.563-7.375,7.91-14.283,12.899-20.672l-9.077-19.903
		c-7.751,7.327-14.045,15.402-19.066,23.243L46.073,67.039z"/>
	
		<linearGradient id="path45_2_" gradientUnits="userSpaceOnUse" x1="460.6917" y1="812.2031" x2="481.5462" y2="848.3249" gradientTransform="matrix(1 0 0 1 -412 -818)">
		<stop  offset="0" style="stop-color:#FFFFFF"/>
		<stop  offset="0.5" style="stop-color:#FFFFFF;stop-opacity:0.6"/>
		<stop  offset="1" style="stop-color:#FFFFFF;stop-opacity:0.15"/>
	</linearGradient>
	<path id="path45_1_" fill="url(#path45_2_)" d="M47.016,7.335l4.745,10.397c4.565-3.791,9.57-5.095,15.026-10.397L47.016,7.335z"/>
	
		<linearGradient id="path54_2_" gradientUnits="userSpaceOnUse" x1="467.2517" y1="805.3433" x2="492.7321" y2="849.4767" gradientTransform="matrix(1 0 0 1 -412 -818)">
		<stop  offset="0" style="stop-color:#FFFFFF"/>
		<stop  offset="0.5" style="stop-color:#FFFFFF;stop-opacity:0.6"/>
		<stop  offset="1" style="stop-color:#FFFFFF;stop-opacity:0.15"/>
	</linearGradient>
	<path id="path54_1_" fill="url(#path54_2_)" d="M82.618,7.335h-3.754c-9.464,5.302-17.74,9.347-24.839,15.391l8.7,19.087
		c7.433-8.584,16.054-16.107,25.709-22.183c0.074-0.069,0.127-0.127,0.207-0.196C99.463,10.092,88.716,7.335,82.618,7.335z"/>
	
		<linearGradient id="path63_2_" gradientUnits="userSpaceOnUse" x1="413.9148" y1="845.6288" x2="441.5662" y2="893.5222" gradientTransform="matrix(1 0 0 1 -412 -818)">
		<stop  offset="0" style="stop-color:#FFFFFF"/>
		<stop  offset="0.5" style="stop-color:#FFFFFF;stop-opacity:0.6"/>
		<stop  offset="1" style="stop-color:#FFFFFF;stop-opacity:0.15"/>
	</linearGradient>
	<path id="path63_1_" fill="url(#path63_2_)" d="M27.935,54.442c-5.821,9.909-9.623,19.066-11.882,25.327
		c2.672,3.812,7.089,6.315,12.099,6.315c6.203,0,11.5-3.833,13.695-9.246c0.562-1.511,1.246-2.964,1.872-4.454L27.935,54.442z"/>
	
		<linearGradient id="path72_2_" gradientUnits="userSpaceOnUse" x1="412.6727" y1="847.5903" x2="443.3176" y2="900.6691" gradientTransform="matrix(1 0 0 1 -412 -818)">
		<stop  offset="0" style="stop-color:#FFFFFF"/>
		<stop  offset="0.5" style="stop-color:#FFFFFF;stop-opacity:0.6"/>
		<stop  offset="1" style="stop-color:#FFFFFF;stop-opacity:0.15"/>
	</linearGradient>
	<path id="path72_1_" fill="url(#path72_2_)" d="M13.487,38.001l-0.117,33.275c0,0,0,0.011,0,0.021c0,0.207,0.053,0.403,0.064,0.61
		c2.529-6.155,6.06-13.679,10.853-21.626L13.487,38.001z"/>
	
		<linearGradient id="path149_2_" gradientUnits="userSpaceOnUse" x1="435.8473" y1="830.9678" x2="464.6228" y2="880.8076" gradientTransform="matrix(1 0 0 1 -412 -818)">
		<stop  offset="0" style="stop-color:#FFFFFF"/>
		<stop  offset="0.5" style="stop-color:#FFFFFF;stop-opacity:0.6"/>
		<stop  offset="1" style="stop-color:#FFFFFF;stop-opacity:0.15"/>
	</linearGradient>
	<path id="path149_1_" fill="url(#path149_2_)" d="M40.696,7.398C29.886,6.5,15.65,18.681,13.821,30.355l13.414,15.254
		c5.355-8.17,12.014-16.542,20.227-24.102L40.696,7.398z"/>
</g>
<radialGradient id="SVGID_2_" cx="118.765" cy="85.6572" r="190.6803" gradientTransform="matrix(0.0197 0.9998 -0.9109 0.018 194.4482 -34.625)" gradientUnits="userSpaceOnUse">
	<stop  offset="0" style="stop-color:#FFFFFF;stop-opacity:0.6"/>
	<stop  offset="0.3783" style="stop-color:#FAFCFE;stop-opacity:0.4487"/>
	<stop  offset="0.829" style="stop-color:#EBF3FC;stop-opacity:0.2684"/>
	<stop  offset="1" style="stop-color:#E4EEFB;stop-opacity:0.2"/>
</radialGradient>
<path fill="url(#SVGID_2_)" d="M42.695,234C27.141,234,14,220.859,14,205.305V53.362C14.015,53.124,14.494,46,22.565,46h60.391
	c2.473,0,4.405,0.683,5.744,2.031c2.219,2.232,2.259,5.664,2.259,5.698c-0.003,0.188-0.035,5.024,3.336,8.446
	c2.12,2.152,5.036,3.243,8.666,3.243c0,0,111.686-0.015,130.723-0.015c4.112,0,5.726,1.936,6.316,3.062v136.841
	C240,221.127,227.576,234,212.305,234H42.695z"/>
<g id="g151" opacity="0.5">
	<path id="path153" opacity="0.08" enable-background="new    " d="M213.51,236.845H40.636c-15.915,0-28.886-12.476-28.886-27.76
		v21.232c0,11.942,10.147,21.625,22.578,21.625h185.483c12.431,0,22.437-9.683,22.437-21.625v-21.232
		C242.249,224.369,229.42,236.845,213.51,236.845z"/>
	<path id="path155" opacity="0.1" enable-background="new    " d="M213.364,236.845H40.49c-15.91,0-28.739-12.249-28.739-27.533
		v11.107c0,11.942,5.48,26.491,27.676,26.491s152.506,0,174.996,0s27.827-14.549,27.827-26.491v-11.107
		C242.249,224.596,229.273,236.845,213.364,236.845z"/>
	<path id="path157" opacity="0.1" enable-background="new    " d="M213.364,236.845H40.49c-15.91,0-28.739-12.249-28.739-27.533
		v5.994c0,11.947,9.503,26.572,27.676,26.572s154.193,0,174.996,0c20.808,0,27.827-14.625,27.827-26.567v-5.994
		C242.249,224.596,229.273,236.845,213.364,236.845z"/>
	<rect id="rect159" x="37.944" y="236.845" opacity="0.05" enable-background="new    " width="178.112" height="5.033"/>
	<rect id="rect161" x="43.182" y="236.845" opacity="0.05" enable-background="new    " width="162.397" height="5.033"/>
	<rect id="rect163" x="43.182" y="241.877" opacity="0.05" enable-background="new    " width="162.397" height="5.033"/>
	<rect id="rect165" x="53.66" y="241.877" opacity="0.05" enable-background="new    " width="146.681" height="5.033"/>
	<rect id="rect167" x="69.375" y="241.877" opacity="0.05" enable-background="new    " width="115.249" height="5.033"/>
	<rect id="rect169" x="90.33" y="241.877" opacity="0.05" enable-background="new    " width="73.34" height="5.033"/>
	<rect id="rect171" x="53.66" y="236.845" opacity="0.05" enable-background="new    " width="146.681" height="5.033"/>
	<rect id="rect173" x="64.137" y="236.845" opacity="0.05" enable-background="new    " width="125.726" height="5.033"/>
	<rect id="rect175" x="69.375" y="236.845" opacity="0.05" enable-background="new    " width="115.249" height="5.033"/>
	<rect id="rect177" x="79.853" y="236.845" opacity="0.05" enable-background="new    " width="94.295" height="5.033"/>
	<rect id="rect179" x="79.853" y="236.845" opacity="0.05" enable-background="new    " width="94.295" height="5.033"/>
</g>
<path fill="none" d="M325,185.288c-24.764,0-44.91-20.146-44.91-44.91c0-24.763,20.146-44.91,44.91-44.91s44.91,20.146,44.91,44.91
	C369.91,165.142,349.764,185.288,325,185.288z"/>
<circle fill="none" cx="310" cy="121.378" r="46.91"/>
<g>
	<g opacity="0.3" enable-background="new    ">
		<g>
			<path fill="#FFFFFF" d="M128,203.81c-35.183,0-63.81-28.627-63.81-63.81S92.817,76.19,128,76.19s63.81,28.627,63.81,63.81
				S163.183,203.81,128,203.81z M128,84.166c-30.788,0-55.834,25.046-55.834,55.834c0,30.781,25.046,55.834,55.834,55.834
				c30.781,0,55.834-25.054,55.834-55.834C183.834,109.212,158.781,84.166,128,84.166z"/>
		</g>
		<g>
			<path fill="#669CCC" d="M128,201.81c-35.183,0-63.81-28.627-63.81-63.81S92.817,74.19,128,74.19s63.81,28.627,63.81,63.81
				S163.183,201.81,128,201.81z M128,82.166c-30.788,0-55.834,25.046-55.834,55.834c0,30.781,25.046,55.834,55.834,55.834
				c30.781,0,55.834-25.054,55.834-55.834C183.834,107.212,158.781,82.166,128,82.166z"/>
		</g>
	</g>
	<g>
		<path opacity="0.3" fill="#669CCC" enable-background="new    " d="M128,80.166c-31.89,0-57.834,25.944-57.834,57.834
			S96.11,195.834,128,195.834S185.834,169.89,185.834,138S159.89,80.166,128,80.166z M128,193.834
			c-30.788,0-55.834-25.054-55.834-55.834c0-30.789,25.046-55.834,55.834-55.834c30.781,0,55.834,25.046,55.834,55.834
			C183.834,168.78,158.781,193.834,128,193.834z"/>
		<path opacity="0.3" fill="#669CCC" enable-background="new    " d="M128,74.19c-35.183,0-63.81,28.627-63.81,63.81
			s28.627,63.81,63.81,63.81s63.81-28.627,63.81-63.81S163.183,74.19,128,74.19z M128,199.811
			c-34.083,0-61.811-27.729-61.811-61.811c0-34.083,27.728-61.811,61.811-61.811c34.082,0,61.811,27.728,61.811,61.811
			C189.811,172.082,162.082,199.811,128,199.811z"/>
	</g>
	<g>
		<g>
			<g>
				<defs>
					<circle id="SVGID_3_" cx="128" cy="140" r="53.103"/>
				</defs>
				<clipPath id="SVGID_4_">
					<use xlink:href="#SVGID_3_"  overflow="visible"/>
				</clipPath>
			</g>
			<g>
				<defs>
					<circle id="SVGID_5_" cx="128" cy="140" r="53.103"/>
				</defs>
				<clipPath id="SVGID_6_">
					<use xlink:href="#SVGID_5_"  overflow="visible"/>
				</clipPath>
				<path opacity="0.3" clip-path="url(#SVGID_6_)" fill="#FFFFFF" d="M112.916,88.318c2.082,2.79,0.142,7.456,3.285,7.406
					c1.529,2.167-3.052,0.651,0.255,2.315c1.905,1.494-2.011,2.351,0.34,3.689c-2.705,1.395,0.446,7.307,2.464,8.787
					c3.321,2.79,1.466-5.905,5.169-6.358c2.011-2.294,5.544-3.767,8.058-6.068c-2.457-0.191-3.887-1.721-1.565-2.662
					c4.277,4.369,1.069-2.067-1.296-3.087c2.287-0.729,4.517-0.191,4.199-2.082c2.422-1.77-2.329-2.337-4.022-1.94
					C124.174,88.318,118.545,88.318,112.916,88.318z M77.812,90.145c-3.094,0.878-3.314,8.256-0.198,4.156
					C78.371,92.623,81.897,90.591,77.812,90.145z M92.263,90.4c-1.784,2.79,0.262,5.027,1.742,1.621
					C95.059,90.605,93.226,90.45,92.263,90.4z M96.723,91.03c-3.448,1.593-0.85,5.31-0.765,6.139
					c3.632,1.253,5.65-0.821,7.024,2.726c3.455,1.99-0.071,5.438-1.367,6.337c2.337-2.039,6.826,5.509,5.643,1.522
					c-1.402-1.02,3.774,1.643,1.09-1.678c-2.471-3.972,0.198-1.777,1.239-0.85c3.54-3.172-4.008-3.554-2.124-6.811
					c-1.65-1.338-3.816-5.381-6.741-4.588c-1.961,2.521-0.276-5.516-3.144-1.494c-0.149,2.244-0.057,5.098-0.892,1.204
					C96.129,92.857,97.651,91.271,96.723,91.03z M89.692,91.058c-2.308,0.765-2.188,3.887,0.658,4.22
					C91.321,94.167,90.733,91.264,89.692,91.058z M80.665,92.05c-3.002,0.708-1.777,3.13-0.857,3.809
					c-3.717,0.935,5.678,1.19,0.998,1.777c-3.887,1.551,3.753,3.377,5.006,1.544c4.801,1.175,0.17-3.838-0.248-6.556
					c-2.039-2.181-0.078,5.027-1.919,0.234C82.994,94.28,80.955,93.062,80.665,92.05z M176.13,92.368
					c-4.029,1.572,2.506,7.519,0.878,2.11C176.853,93.827,177.376,92.099,176.13,92.368z M91.951,94.762
					c-2.896,2.712,3.682,4.963-0.835,6.988c-0.673-2.528-1.841,1.26-4.418-0.779c-4.439,1.848-6.712-0.963-10.429-2.882
					c-2.23-0.276-1.395,2.117-1.544,4.354c0,6.195,0,12.391,0,18.586c2.188,2.301,0.857,1.012,0,0.382
					c1.204,4.085-0.531,10.054,4.206,12.426c0.807,1.487,4.185,7.838,4.34,5.94c-1.692-1.77-3.434-7.073-0.566-2.344
					c2.57,4.496,6.033,7.413,11.088,8.482c2.768,0.935,5.041,4.163,7.47,3.455c1.374,3.618-4.078,7.095,0.184,10.465
					c2.223,3.413,5.955,5.657,3.937,10.451c-1.416,4.687-0.807,9.785-2.032,14.154c-0.382,2.655,3.71,9.396,3.356,4
					c1.197-3.753,1.161-7.881,3.972-10.536c3.845,0.028,0.736-4.128,4.553-3.583c2.329-3.052,3.009-6.684,6.939-7.895
					c0.467-3.703,6.542-9.367,0.269-10.812c-1.706-0.835-6.089-1.14-5.756-1.551c0.687-3.675-5.671-4.723-8.369-6.224
					c-3.547-2.514-8.886,4.177-10.132-1.586c-0.743-1.813-3.476-1.841-2.223-4.645c-2.259,2.245-6.677,1.558-5.523-2.768
					c1.756-3.646,8.504-3.823,9.658,0.566c-1.6-4.843,3.08-8.61,5.686-12.051c0.531-1.643,3.675-3.059,2.591-0.871
					c1.841-0.064,4.638-3.384,1.367-1.855c-0.05-3.03-2.875-2.167-3.795-1.735c1.699-2.691,10.408-1.218,6.762-5.615
					c-2.825-1.14-2.591-7.817-5.452-4.1c0.241-2.287-5.82-6.776-5.686-2.931c0.736,3.434,0.135,7.399-1.437,9.651
					c-0.333-5.041-8.935-3.923-7.831-9.29c1.6-2.563,3.476-6.096,3.653-5.778c2.875-1.097,5.183-4.277,1.855-6.372
					c-0.177,1.827-2.506,5.586-2.174,1.034C93.473,102.047,93.969,95.441,91.951,94.762z M160.709,96.525
					c-5.048,1.232-7.045,6.04-9.544,10.026c-3.682,1.657-3.54,8.766,0.574,6.493c1.097,1.919-0.772,4.942,2.436,2.436
					c2.584-3.413,0.453-8.935,4.85-11.088c0.319,1.671-4.057,7.923,1.055,6.896c4.624,0.177-3.363,0.46-1.112,3.406
					c-2.337-1.381-1.126,3.781-4.17,2.577c-2.641,1.437-4.376-0.666-3.767-2.967c-2.082,1.211,0.651,4.624-2.953,4.829
					c-0.807,2.868-7.456,2.436-3.675,5.346c1.678,4.34-6.252,0.269-4,5.48c1.926,5.147,5.962-1.706,7.604-3.03
					c3.158-2.443,7.845,4.17,4.999,4.418c3.186-0.425,2.535-3.455-0.021-4.624c-1.381-3.569,4.369,1.749,4.05,3.54
					c2.025,3.788,1.19-3.88,3.257-0.481c-0.241,3.583,8.298,0.843,4.22,5.409c-3.505,0.708-6.96-0.899-9.976,0.127
					c-2.811-0.028-2.669-3.023-3.689-3.774c-3.576,0.29-7.994,0.255-10.38,3.137c-2.584,3.54-6.316,8.497-3.498,13.021
					c2.825,6.705,9.821,0.347,13.842,4.305c1.197,1.65-1.034,3.611,1.636,5.402c1.005,3.809-1.14,7.427,1.331,11.067
					c1.274,3.427,2.067,8.546,6.826,5.424c5.034-3.023,3.696-8.596,7.845-11.683c-3.285-6.344,4.022-9.127,5.841-14.281
					c-3.979,0.581-7.534-3.377-8.497-7.371c-1.671-1.94-1.239-4.793,0.63-1.154c2.57,2.485,2.627,9.856,7.378,6.061
					c2.174-0.906,8.107-4.369,3.377-5.94c-3.045,2.202-6.408-6.578-1.933-1.487c3.25,1.381,5.53,2.195,5.53-2.372
					c0-12.306,0-24.774,0-37.158c-1.012,1.034-3.618,2.938-4.928,1.671c-2.259,0.312-5.247,4.701-4.531,0.46
					c-1.968-0.127-0.354,3.802-3.052,3.915c-0.269,2.025-2.726,0.375-1.805,2.294c-1.898-1.338-3.498-5.579,0.234-2.917
					c5.544-1.657-3.654-5.402-4.369-6.309C163.499,97.353,161.007,96.114,160.709,96.525z M136.487,103.619
					c-1.834,2.103-4.248-0.552-4.291,1.26c0.333,0.545,1.657,4.447,4.574,1.565C138.335,105.786,137.719,104.129,136.487,103.619z
					 M97.523,104.879c-3.469,3.023,5.898,3.307,0.736,0.347L97.523,104.879z M143.313,113.256c-2.499,1.628,1.197,5.084-0.057,6.705
					c-1.565,2.726,5.82-0.191,1.876-2.365C144.849,115.727,142.817,113.447,143.313,113.256z M141.627,116.534
					c-3.484,0.984-0.793,6.054,0.446,1.274C142.137,117.532,142.229,116.52,141.627,116.534z M113.745,120.209
					c-3.236,2.202-0.503,4.404,1.869,3.413C115.132,122.29,113.766,121.455,113.745,120.209z M174.934,123.912
					c1.614,0.814-2.96,2.202-0.064,3.639c1.685,1.983,1.048,6.231-1.692,3.222C173.688,127.416,169.461,124.903,174.934,123.912z
					 M166.621,123.94c-0.219,2.16,4.666,5.509-0.602,4.418c-2.783,0.326-6.953-0.085-3.448-3.547
					c1.112-0.666,4.015,2.294,2.506-0.474C165.616,124.308,166.112,124.103,166.621,123.94z M99.548,140.784
					c-0.34,1.14,6.422,2.294,1.756,0.467l-0.694-0.248L99.548,140.784z M173.419,161.473c-4.461,0.113-3.866,11.591-0.758,4.801
					C172.958,164.801,174.134,162.854,173.419,161.473z"/>
			</g>
			<g>
				<defs>
					<circle id="SVGID_7_" cx="128" cy="140" r="53.103"/>
				</defs>
				<clipPath id="SVGID_8_">
					<use xlink:href="#SVGID_7_"  overflow="visible"/>
				</clipPath>
			</g>
		</g>
		<g>
			<g>
				<defs>
					<circle id="SVGID_9_" cx="128" cy="138" r="53.103"/>
				</defs>
				<clipPath id="SVGID_10_">
					<use xlink:href="#SVGID_9_"  overflow="visible"/>
				</clipPath>
			</g>
			<g>
				<defs>
					<circle id="SVGID_11_" cx="128" cy="138" r="53.103"/>
				</defs>
				<clipPath id="SVGID_12_">
					<use xlink:href="#SVGID_11_"  overflow="visible"/>
				</clipPath>
				<path opacity="0.3" clip-path="url(#SVGID_12_)" fill="#669CCC" d="M112.916,86.318c2.082,2.79,0.142,7.456,3.285,7.406
					c1.529,2.167-3.052,0.651,0.255,2.315c1.905,1.494-2.011,2.351,0.34,3.689c-2.705,1.395,0.446,7.307,2.464,8.787
					c3.321,2.79,1.466-5.905,5.169-6.358c2.011-2.294,5.544-3.767,8.058-6.068c-2.457-0.191-3.887-1.721-1.565-2.662
					c4.277,4.369,1.069-2.067-1.296-3.087c2.287-0.729,4.517-0.191,4.199-2.082c2.422-1.77-2.329-2.337-4.022-1.94
					C124.174,86.318,118.545,86.318,112.916,86.318z M77.812,88.145c-3.094,0.878-3.314,8.256-0.198,4.156
					C78.371,90.623,81.897,88.591,77.812,88.145z M92.263,88.4c-1.784,2.79,0.262,5.027,1.742,1.621
					C95.059,88.605,93.226,88.45,92.263,88.4z M96.723,89.03c-3.448,1.593-0.85,5.31-0.765,6.139
					c3.632,1.253,5.65-0.821,7.024,2.726c3.455,1.99-0.071,5.438-1.367,6.337c2.337-2.039,6.826,5.509,5.643,1.522
					c-1.402-1.02,3.774,1.643,1.09-1.678c-2.471-3.972,0.198-1.777,1.239-0.85c3.54-3.172-4.008-3.554-2.124-6.811
					c-1.65-1.338-3.816-5.381-6.741-4.588c-1.961,2.521-0.276-5.516-3.144-1.494c-0.149,2.244-0.057,5.098-0.892,1.204
					C96.129,90.857,97.651,89.271,96.723,89.03z M89.692,89.058c-2.308,0.765-2.188,3.887,0.658,4.22
					C91.321,92.167,90.733,89.264,89.692,89.058z M80.665,90.05c-3.002,0.708-1.777,3.13-0.857,3.809
					c-3.717,0.935,5.678,1.19,0.998,1.777c-3.887,1.551,3.753,3.377,5.006,1.544c4.801,1.175,0.17-3.838-0.248-6.556
					c-2.039-2.181-0.078,5.027-1.919,0.234C82.994,92.28,80.955,91.062,80.665,90.05z M176.13,90.368
					c-4.029,1.572,2.506,7.519,0.878,2.11C176.853,91.827,177.376,90.099,176.13,90.368z M91.951,92.762
					c-2.896,2.712,3.682,4.963-0.835,6.988c-0.673-2.528-1.841,1.26-4.418-0.779c-4.439,1.848-6.712-0.963-10.429-2.882
					c-2.23-0.276-1.395,2.117-1.544,4.354c0,6.195,0,12.391,0,18.586c2.188,2.301,0.857,1.012,0,0.382
					c1.204,4.085-0.531,10.054,4.206,12.426c0.807,1.487,4.185,7.838,4.34,5.94c-1.692-1.77-3.434-7.073-0.566-2.344
					c2.57,4.496,6.033,7.413,11.088,8.482c2.768,0.935,5.041,4.163,7.47,3.455c1.374,3.618-4.078,7.095,0.184,10.465
					c2.223,3.413,5.955,5.657,3.937,10.451c-1.416,4.687-0.807,9.785-2.032,14.154c-0.382,2.655,3.71,9.396,3.356,4
					c1.197-3.753,1.161-7.881,3.972-10.536c3.845,0.028,0.736-4.128,4.553-3.583c2.329-3.052,3.009-6.684,6.939-7.895
					c0.467-3.703,6.542-9.367,0.269-10.812c-1.706-0.835-6.089-1.14-5.756-1.551c0.687-3.675-5.671-4.723-8.369-6.224
					c-3.547-2.514-8.886,4.177-10.132-1.586c-0.743-1.813-3.476-1.841-2.223-4.645c-2.259,2.245-6.677,1.558-5.523-2.768
					c1.756-3.646,8.504-3.823,9.658,0.566c-1.6-4.843,3.08-8.61,5.686-12.051c0.531-1.643,3.675-3.059,2.591-0.871
					c1.841-0.064,4.638-3.384,1.367-1.855c-0.05-3.03-2.875-2.167-3.795-1.735c1.699-2.691,10.408-1.218,6.762-5.615
					c-2.825-1.14-2.591-7.817-5.452-4.1c0.241-2.287-5.82-6.776-5.686-2.931c0.736,3.434,0.135,7.399-1.437,9.651
					c-0.333-5.041-8.935-3.923-7.831-9.29c1.6-2.563,3.476-6.096,3.653-5.778c2.875-1.097,5.183-4.277,1.855-6.372
					c-0.177,1.827-2.506,5.586-2.174,1.034C93.473,100.047,93.969,93.441,91.951,92.762z M160.709,94.525
					c-5.048,1.232-7.045,6.04-9.544,10.026c-3.682,1.657-3.54,8.766,0.574,6.493c1.097,1.919-0.772,4.942,2.436,2.436
					c2.584-3.413,0.453-8.935,4.85-11.088c0.319,1.671-4.057,7.923,1.055,6.896c4.624,0.177-3.363,0.46-1.112,3.406
					c-2.337-1.381-1.126,3.781-4.17,2.577c-2.641,1.437-4.376-0.666-3.767-2.967c-2.082,1.211,0.651,4.624-2.953,4.829
					c-0.807,2.868-7.456,2.436-3.675,5.346c1.678,4.34-6.252,0.269-4,5.48c1.926,5.147,5.962-1.706,7.604-3.03
					c3.158-2.443,7.845,4.17,4.999,4.418c3.186-0.425,2.535-3.455-0.021-4.624c-1.381-3.569,4.369,1.749,4.05,3.54
					c2.025,3.788,1.19-3.88,3.257-0.481c-0.241,3.583,8.298,0.843,4.22,5.409c-3.505,0.708-6.96-0.899-9.976,0.127
					c-2.811-0.028-2.669-3.023-3.689-3.774c-3.576,0.29-7.994,0.255-10.38,3.137c-2.584,3.54-6.316,8.497-3.498,13.021
					c2.825,6.705,9.821,0.347,13.842,4.305c1.197,1.65-1.034,3.611,1.636,5.402c1.005,3.809-1.14,7.427,1.331,11.067
					c1.274,3.427,2.067,8.546,6.826,5.424c5.034-3.023,3.696-8.596,7.845-11.683c-3.285-6.344,4.022-9.127,5.841-14.281
					c-3.979,0.581-7.534-3.377-8.497-7.371c-1.671-1.94-1.239-4.793,0.63-1.154c2.57,2.485,2.627,9.856,7.378,6.061
					c2.174-0.906,8.107-4.369,3.377-5.94c-3.045,2.202-6.408-6.578-1.933-1.487c3.25,1.381,5.53,2.195,5.53-2.372
					c0-12.306,0-24.774,0-37.158c-1.012,1.034-3.618,2.938-4.928,1.671c-2.259,0.312-5.247,4.701-4.531,0.46
					c-1.968-0.127-0.354,3.802-3.052,3.915c-0.269,2.025-2.726,0.375-1.805,2.294c-1.898-1.338-3.498-5.579,0.234-2.917
					c5.544-1.657-3.654-5.402-4.369-6.309C163.499,95.353,161.007,94.114,160.709,94.525z M136.487,101.619
					c-1.834,2.103-4.248-0.552-4.291,1.26c0.333,0.545,1.657,4.447,4.574,1.565C138.335,103.786,137.719,102.129,136.487,101.619z
					 M97.523,102.879c-3.469,3.023,5.898,3.307,0.736,0.347L97.523,102.879z M143.313,111.256c-2.499,1.628,1.197,5.084-0.057,6.705
					c-1.565,2.726,5.82-0.191,1.876-2.365C144.849,113.727,142.817,111.447,143.313,111.256z M141.627,114.534
					c-3.484,0.984-0.793,6.054,0.446,1.274C142.137,115.532,142.229,114.52,141.627,114.534z M113.745,118.209
					c-3.236,2.202-0.503,4.404,1.869,3.413C115.132,120.29,113.766,119.455,113.745,118.209z M174.934,121.912
					c1.614,0.814-2.96,2.202-0.064,3.639c1.685,1.983,1.048,6.231-1.692,3.222C173.688,125.416,169.461,122.903,174.934,121.912z
					 M166.621,121.94c-0.219,2.16,4.666,5.509-0.602,4.418c-2.783,0.326-6.953-0.085-3.448-3.547
					c1.112-0.666,4.015,2.294,2.506-0.474C165.616,122.308,166.112,122.103,166.621,121.94z M99.548,138.784
					c-0.34,1.14,6.422,2.294,1.756,0.467l-0.694-0.248L99.548,138.784z M173.419,159.473c-4.461,0.113-3.866,11.591-0.758,4.801
					C172.958,162.801,174.134,160.854,173.419,159.473z"/>
			</g>
			<g>
				<defs>
					<circle id="SVGID_13_" cx="128" cy="138" r="53.103"/>
				</defs>
				<clipPath id="SVGID_14_">
					<use xlink:href="#SVGID_13_"  overflow="visible"/>
				</clipPath>
			</g>
		</g>
	</g>
	<g>
		<defs>
			<path id="SVGID_15_" d="M128,188.839c-28.033,0-50.839-22.806-50.839-50.839c0-28.032,22.806-50.839,50.839-50.839
				s50.839,22.806,50.839,50.839C178.839,166.033,156.033,188.839,128,188.839z"/>
		</defs>
		<clipPath id="SVGID_16_">
			<use xlink:href="#SVGID_15_"  overflow="visible"/>
		</clipPath>
		<g clip-path="url(#SVGID_16_)">
			<path opacity="0.3" fill="#669CCC" d="M115.614,121.622c-0.481-1.331-1.848-2.167-1.869-3.413
				C110.509,120.411,113.242,122.613,115.614,121.622z"/>
			<path opacity="0.3" fill="#669CCC" d="M90.351,93.279c0.97-1.112,0.382-4.015-0.659-4.22
				C87.384,89.823,87.505,92.946,90.351,93.279z"/>
			<path opacity="0.3" fill="#669CCC" d="M77.613,92.302c0.758-1.678,4.284-3.71,0.198-4.156
				C74.717,89.023,74.498,96.401,77.613,92.302z"/>
			<path opacity="0.3" fill="#669CCC" d="M79.808,93.859c-3.717,0.935,5.678,1.19,0.998,1.777c-3.887,1.551,3.753,3.377,5.006,1.544
				c4.801,1.175,0.17-3.838-0.248-6.557c-2.039-2.181-0.078,5.027-1.919,0.234c-0.651,1.423-2.691,0.205-2.981-0.807
				C77.663,90.758,78.888,93.179,79.808,93.859z M84.452,94.802c0.129,0,0.258-0.012,0.385-0.034
				c0.001,0.001,0.102,0.197,0.156,0.302c-0.21,0.081-0.408,0.194-0.586,0.336c0-0.008,0.001-0.015,0.001-0.023
				c0.007-0.211-0.007-0.404-0.039-0.581C84.394,94.802,84.45,94.802,84.452,94.802z"/>
			<path opacity="0.3" fill="#669CCC" d="M102.982,97.895c3.455,1.99-0.071,5.438-1.367,6.337c2.337-2.039,6.826,5.508,5.643,1.522
				c-1.402-1.02,3.774,1.643,1.09-1.678c-2.471-3.972,0.198-1.777,1.239-0.85c3.54-3.172-4.008-3.554-2.124-6.811
				c-1.65-1.338-3.816-5.381-6.741-4.588c-1.961,2.521-0.276-5.516-3.144-1.494c-0.149,2.244-0.057,5.098-0.892,1.204
				c-0.559-0.68,0.963-2.266,0.035-2.506c-3.448,1.593-0.85,5.31-0.765,6.139C99.591,96.422,101.609,94.348,102.982,97.895z"/>
			<path opacity="0.3" fill="#669CCC" d="M142.073,115.809c0.064-0.276,0.156-1.289-0.446-1.274
				C138.144,115.518,140.834,120.588,142.073,115.809z"/>
			<path opacity="0.3" fill="#669CCC" d="M97.523,102.88c-3.469,3.023,5.898,3.307,0.736,0.347L97.523,102.88z"/>
			<path opacity="0.3" fill="#669CCC" d="M94.004,90.022c1.055-1.416-0.779-1.572-1.742-1.621
				C90.478,91.19,92.525,93.427,94.004,90.022z"/>
			<path opacity="0.3" fill="#669CCC" d="M116.202,94.065c1.529,2.167-3.052,0.481,0.255,2.145c1.905,1.494-2.011,2.265,0.34,3.604
				c-2.705,1.395,0.446,7.264,2.464,8.744c3.321,2.79,1.466-5.926,5.169-6.38c2.011-2.294,5.544-3.777,8.057-6.079
				c-2.457-0.191-3.887-1.726-1.565-2.668c4.277,4.369,1.069-2.07-1.296-3.09c2.287-0.729,4.517,0.148,4.199-1.742
				c2.421-1.77-2.329-2.601-4.022-1.601c-5.629,0-11.258,0-16.887,0C114.998,89,113.058,94.115,116.202,94.065z M128.199,89
				c-0.489,0-0.802,0.782-0.834,1.438c-0.042,0.855,0.401,1.548,1.13,1.968c-1.111,1.054-1.047,2.227-0.979,2.665
				c0.084,0.541,0.31,1.011,0.655,1.446c-0.234,0.153-0.471,0.294-0.711,0.449c-1.468,0.952-2.98,1.925-4.212,3.152
				c-2.478,0.821-3.222,3.556-3.649,5.46c-0.898-1.286-1.702-3.149-1.593-3.934c0.639-0.404,1.039-1.104,1.055-1.868
				c0.009-0.417-0.097-0.819-0.296-1.167c0.31-0.517,0.58-1.208,0.478-2.061c-0.06-0.504-0.239-0.971-0.534-1.399
				c0.17-0.671,0.133-1.612-0.656-2.729c-0.366-0.519-0.93-0.856-1.549-0.939c-0.066-0.352-0.116-0.661-0.152-1.042
				c-0.048-0.499-0.102-1.439-0.2-1.439H128.199z"/>
			<path opacity="0.3" fill="#669CCC" d="M143.256,117.961c-1.565,2.726,5.82-0.191,1.876-2.365c-0.283-1.869-2.315-4.149-1.82-4.34
				C140.813,112.884,144.509,116.34,143.256,117.961z"/>
			<path opacity="0.3" fill="#669CCC" d="M172.661,164.274c0.297-1.473,1.473-3.42,0.758-4.801
				C168.958,159.587,169.553,171.064,172.661,164.274z"/>
			<path opacity="0.3" fill="#669CCC" d="M175.96,98.185c-2.259,0.312-5.303,4.701-4.588,0.46c-1.968-0.127-0.382,3.802-3.08,3.915
				c-0.269,2.025-2.74,0.375-1.82,2.294c-1.897-1.338-3.505-5.579,0.227-2.917c5.544-1.657-3.657-5.402-4.372-6.309
				c1.175-0.276-1.319-1.515-1.616-1.105c-5.048,1.232-7.046,6.04-9.545,10.026c-3.682,1.657-3.541,8.766,0.573,6.493
				c1.097,1.919-0.772,4.942,2.435,2.436c2.584-3.413,0.453-8.935,4.85-11.088c0.319,1.671-4.057,7.923,1.055,6.896
				c4.623,0.177-3.363,0.46-1.112,3.406c-2.337-1.381-1.126,3.781-4.17,2.577c-2.641,1.437-4.376-0.666-3.767-2.967
				c-2.082,1.211,0.651,4.623-2.953,4.829c-0.807,2.868-7.456,2.436-3.675,5.346c1.678,4.34-6.252,0.269-4,5.48
				c1.926,5.147,5.962-1.706,7.604-3.03c3.158-2.443,7.845,4.17,4.999,4.418c3.186-0.425,2.535-3.455-0.021-4.624
				c-1.381-3.569,4.369,1.749,4.05,3.54c2.025,3.788,1.189-3.88,3.257-0.482c-0.241,3.583,8.298,0.843,4.22,5.409
				c-3.505,0.708-6.96-0.899-9.976,0.127c-2.811-0.028-2.669-3.023-3.689-3.774c-3.576,0.29-7.994,0.255-10.38,3.137
				c-2.584,3.54-6.316,8.497-3.498,13.021c2.825,6.705,9.821,0.347,13.842,4.305c1.197,1.65-1.034,3.611,1.636,5.402
				c1.005,3.809-1.14,7.427,1.331,11.067c1.274,3.427,2.068,8.546,6.826,5.424c5.034-3.023,3.696-8.596,7.845-11.683
				c-3.285-6.344,4.022-9.127,5.841-14.281c-3.979,0.581-7.534-3.377-8.496-7.371c-1.671-1.94-1.239-4.793,0.63-1.154
				c2.57,2.485,2.627,9.856,7.378,6.061c2.174-0.906,8.107-4.369,3.377-5.94c-3.045,2.202-6.295-6.578-1.821-1.487
				c3.25,1.381,5.642,2.195,5.642-2.372c0-12.306,0-24.774,0-37.158C180,97.548,177.269,99.453,175.96,98.185z M142.598,127.353
				c-0.023-0.056-0.084-0.209-0.088-0.219c0.051-0.006,0.318-0.036,0.409-0.048C142.807,127.187,142.699,127.277,142.598,127.353z
				 M170.632,147.638c-0.416,0.525-0.876,1.093-1.346,1.63c-2.146,2.455-5.005,5.743-3.539,10.325
				c-1.499,1.631-2.209,3.54-2.85,5.258c-0.813,2.174-1.454,4.096-3.459,5.3c-0.945,0.619-1.355,0.849-1.428,0.849h-0.025
				c-0.515,0-1.219-2.563-1.558-3.584c-0.174-0.526-0.346-1.144-0.526-1.63c-0.064-0.17-0.147-0.382-0.25-0.533
				c-1.024-1.507-0.908-3.1-0.761-5.087c0.118-1.591,0.251-3.407-0.254-5.322c-0.14-0.533-0.47-1.002-0.928-1.31
				c-0.307-0.206-0.373-0.331-0.374-0.333c-0.036-0.105,0.013-0.526,0.043-0.777c0.103-0.881,0.275-2.355-0.735-3.747
				c-0.073-0.101-0.155-0.196-0.243-0.284c-1.411-1.387-3.221-2.062-5.538-2.062c-0.95,0-1.873,0.104-2.766,0.204
				c-0.788,0.09-1.533,0.173-2.201,0.173c-1.385,0-2.162-0.282-2.839-1.887c-0.046-0.111-0.101-0.217-0.165-0.318
				c-1.812-2.91,0.408-6.386,3.268-10.301l0.092-0.125c1.487-1.738,4.462-1.764,7.368-1.966c0.549,1.29,1.684,3.887,4.895,3.887
				c0.008,0,0.014,0,0.022,0c0.248,0,0.494-0.25,0.73-0.329c0.467-0.159,0.998-0.338,1.674-0.338c0.743,0,1.559,0.219,2.421,0.314
				c1,0.112,2.035,0.354,3.135,0.354c0.01,0,0.021,0,0.032,0c-0.19,1,0.371,2.624,1.196,3.771
				C164.693,143.161,167.232,146.343,170.632,147.638z M166.019,126.358c-2.783,0.326-6.953-0.085-3.448-3.547
				c1.112-0.666,4.015,2.294,2.506-0.474c0.538-0.028,1.034-0.234,1.544-0.397C166.402,124.1,171.287,127.449,166.019,126.358z
				 M179,133.673c0,0.542-0.283,0.904-0.324,1.136c-0.515-0.118-1.376-0.41-1.964-0.656c-1.318-1.423-2.326-1.988-3.354-1.988
				c-0.894,0-1.724,0.459-2.167,1.227c-0.564,0.976-0.445,2.238,0.368,3.648c0.376,0.651,1.662,2.614,3.764,3.036
				c-0.7,0.473-1.566,0.962-2.389,1.306c-0.195,0.081-0.379,0.189-0.544,0.321c-0.378,0.302-0.637,0.447-0.788,0.514
				c-0.348-0.428-0.828-1.55-1.129-2.252c-0.562-1.312-1.192-2.785-2.194-3.891c-0.415-0.771-0.903-1.52-1.527-2.031
				c0.674-0.871,1.474-2.256,0.972-3.748c-0.235-0.702-0.658-1.192-1.167-1.544c0.404,0.056,0.755,0.084,1.073,0.084
				c1.737,0,2.492-0.911,2.787-1.454c0.099-0.184,0.174-0.366,0.227-0.547c0.212,0.58,0.368,1.125,0.296,1.6
				c-0.102,0.674,0.105,1.36,0.565,1.864c1.093,1.201,2.179,1.784,3.319,1.784c1.229,0,2.288-0.703,2.833-1.882
				c0.783-1.694,0.388-4.23-0.889-5.902c0.46-0.557,0.923-1.355,0.751-2.388c-0.084-0.502-0.398-1.432-1.565-2.02
				c-0.318-0.16-0.668-0.242-1.019-0.242c-0.135,0-0.27,0.012-0.404,0.036c-1.513,0.274-3.363,0.79-4.248,2.368
				c-0.305,0.546-0.431,1.092-0.447,1.621c-0.074-0.118-0.148-0.232-0.219-0.341c-0.229-0.353-0.645-0.995-0.733-1.288
				c0.033-0.715-0.275-1.407-0.835-1.862c-0.409-0.332-0.914-0.506-1.427-0.506c-0.231,0-0.462,0.035-0.688,0.107l-0.342,0.113
				c-0.24,0.081-0.513,0.173-0.632,0.18c-0.454,0.024-0.883,0.183-1.237,0.447c-0.24-0.048-0.489-0.077-0.744-0.077
				c-0.574,0-1.102,0.142-1.571,0.422c-0.155,0.093-0.3,0.205-0.428,0.332c-1.213,1.198-1.88,2.354-1.999,3.452
				c-0.349,0.05-0.65,0.164-0.909,0.32c-0.181-0.253-0.382-0.511-0.605-0.775c-1.125-1.343-2.806-2.944-4.422-2.944
				c-0.836,0-1.611,0.402-2.077,1.075c-0.463-0.133-0.936-0.205-1.413-0.205c-0.964,0-1.889,0.289-2.694,0.839
				c-0.055-0.413-0.171-0.847-0.347-1.301c-0.032-0.082-0.069-0.163-0.109-0.24c1.029-0.467,2.309-1.117,3.147-2.244
				c1.013-0.289,1.665-0.822,2.084-1.433c0.478,0.171,0.988,0.261,1.517,0.261c0.607,0,1.222-0.114,1.836-0.34
				c0.218,0.036,0.432,0.054,0.641,0.054c2.213,0,3.121-1.728,3.546-2.779c0.554-0.053,1.086-0.308,1.476-0.748
				c0.52-0.585,0.691-1.375,0.497-2.093c0.23-0.097,0.463-0.183,0.594-0.231c1.553-0.574,2.239-1.506,2.037-2.768
				c-0.31-1.948-2.221-2.021-3.616-2.074c-0.029-0.001-0.101-0.002-0.108-0.002c0.147-0.478,0.34-1.006,0.472-1.368
				c0.501-1.375,0.934-2.563,0.72-3.688c-0.133-0.694-0.58-1.286-1.212-1.602c-0.318-0.159-0.665-0.239-1.013-0.239
				c-0.34,0-0.681,0.077-0.996,0.23c-3.638,1.781-4.12,5.132-4.507,7.825c-0.061,0.426-0.122,0.845-0.192,1.249
				c-0.428-0.422-1.004-0.653-1.593-0.653c-0.319,0-0.643,0.068-0.95,0.21c0.004-0.261,0.051-0.597,0.182-0.975
				c0.235-0.673,0.646-1.183,1.125-1.399c0.407-0.184,0.751-0.483,0.988-0.862c0.413-0.658,0.813-1.339,1.214-2.022
				c1.8-3.063,3.373-5.741,6.192-6.777c0.019,0.026,0.038,0.051,0.057,0.077c0.443,0.562,1.113,0.947,2.329,1.648
				c0.201,0.116,0.462,0.265,0.75,0.436c-0.617,0.317-1.092,0.867-1.316,1.571c-0.644,2.032,1.223,4.876,2.846,6.02
				c0.392,0.276,0.849,0.413,1.304,0.413c0.522,0,1.041-0.18,1.463-0.536c0.318-0.27,0.547-0.612,0.677-0.987
				c0.609-0.287,1.035-0.684,1.329-1.122c0.867-0.389,1.414-1.05,1.768-1.729c1.072-0.025,1.948-0.66,2.874-1.332
				c0.285-0.206,0.729-0.528,1.096-0.748c0.401,0.136,1.076,0.205,1.527,0.205c0.533,0,0.809-0.1,1.809-0.263V133.673z
				 M174.87,125.551c1.685,1.983,1.048,6.231-1.692,3.222c0.51-3.356-3.717-5.87,1.756-6.861
				C176.548,122.726,171.974,124.114,174.87,125.551z"/>
			<path opacity="0.3" fill="#669CCC" d="M177.008,92.479c-0.156-0.651,0.368-2.379-0.878-2.11
				C172.102,91.94,178.637,97.888,177.008,92.479z"/>
			<path opacity="0.3" fill="#669CCC" d="M122.439,153.618c-1.706-0.836-6.089-1.14-5.756-1.551
				c0.687-3.675-5.671-4.723-8.369-6.224c-3.547-2.514-8.886,4.177-10.132-1.586c-0.743-1.813-3.476-1.841-2.223-4.645
				c-2.259,2.244-6.677,1.558-5.523-2.768c1.756-3.646,8.504-3.823,9.658,0.566c-1.6-4.843,3.08-8.61,5.686-12.051
				c0.531-1.643,3.675-3.059,2.591-0.871c1.841-0.064,4.638-3.384,1.367-1.855c-0.05-3.03-2.875-2.167-3.795-1.735
				c1.699-2.691,10.408-1.218,6.762-5.615c-2.825-1.14-2.591-7.817-5.452-4.1c0.241-2.287-5.82-6.776-5.686-2.931
				c0.736,3.434,0.135,7.399-1.437,9.651c-0.333-5.041-8.935-3.923-7.831-9.289c1.6-2.563,3.476-6.096,3.653-5.778
				c2.875-1.097,5.183-4.277,1.855-6.372c-0.177,1.827-2.506,5.586-2.174,1.034c-2.16,2.549-1.664-4.057-3.682-4.737
				c-2.896,2.712,3.682,4.963-0.836,6.988c-0.673-2.528-1.841,1.26-4.418-0.779c-4.439,1.848-6.574-0.963-10.292-2.882
				C74.175,95.813,75,98.207,75,100.444c0,6.195,0,12.391,0,18.586c2,2.301,0.719,1.012-0.138,0.382
				c1.204,4.085-0.6,10.054,4.137,12.426c0.807,1.487,4.15,7.838,4.306,5.94c-1.692-1.77-3.451-7.073-0.584-2.344
				c2.57,4.496,6.024,7.413,11.079,8.482c2.768,0.935,5.037,4.163,7.466,3.455c1.374,3.618-4.081,7.095,0.182,10.465
				c2.223,3.413,5.954,5.657,3.936,10.451c-1.416,4.687-0.808,9.785-2.033,14.154c-0.382,2.655,3.71,9.396,3.356,4
				c1.197-3.753,1.161-7.881,3.972-10.536c3.845,0.028,0.736-4.128,4.553-3.583c2.329-3.052,3.009-6.684,6.939-7.895
				C122.638,160.727,128.713,155.062,122.439,153.618z M88.396,135.862c-0.062,0.128-0.111,0.262-0.148,0.399
				c-0.233,0.874-0.298,1.641-0.255,2.306c-1.243-1.125-2.34-2.663-3.324-4.383c-1.163-1.92-1.957-3.184-3.418-3.184
				c-0.02,0-0.041,0-0.061,0c-0.046,0-0.27-0.37-0.27-0.37c-0.221-0.407-0.562-0.672-0.976-0.88
				c-1.984-0.994-2.207-3.014-2.404-6.28c-0.03-0.491-0.06-0.972-0.101-1.469c0.236-0.214,0.434-0.472,0.564-0.776
				c0.515-1.203-0.003-1.909-1.003-3.094v-17.618c0-0.486,0.015-0.955,0-1.391c0.152,0.095,0.299,0.188,0.449,0.282
				c1.906,1.196,3.875,2.433,6.489,2.433c0.829,0,1.658-0.124,2.51-0.377c0.589,0.268,1.197,0.404,1.817,0.404
				c0.588,0,1.099-0.122,1.528-0.278c0.109,0.078,0.226,0.148,0.349,0.207c0.308,0.146,0.641,0.22,0.974,0.22
				c0.316,0,0.631-0.066,0.926-0.198c0.349-0.156,1.134-0.508,1.811-1.158c0.096,0.16,0.209,0.312,0.341,0.454
				c0.03,0.033,0.061,0.065,0.093,0.096c-0.586,0.589-1.207,1.649-2.269,3.464c-0.526,0.899-1.098,1.878-1.639,2.744
				c-0.143,0.228-0.243,0.479-0.297,0.742c-0.931,4.525,2.712,6.325,4.888,7.401c1.967,0.972,2.835,1.501,2.901,2.495
				c0.063,0.959,0.725,1.774,1.651,2.032c0.202,0.056,0.406,0.083,0.608,0.083c0.727,0,1.426-0.351,1.856-0.968
				c1.594-2.282,2.365-5.782,2.111-9.202c0.419,0.394,0.78,0.825,0.892,1.126c-0.025,0.941,0.537,1.808,1.423,2.162
				c0.274,0.109,0.558,0.162,0.84,0.162c0.37,0,0.736-0.091,1.062-0.264c0.495,1.098,1.133,2.459,2.245,3.407
				c-0.334,0.085-0.684,0.165-0.974,0.232c-2.053,0.471-4.38,1.004-5.556,2.867c-0.537,0.851-0.449,1.953,0.217,2.707
				c0.151,0.172,0.324,0.316,0.512,0.431c-0.399,0.423-0.731,0.897-0.96,1.393c-0.438,0.56-0.943,1.146-1.473,1.762
				c-1.562,1.814-3.352,3.892-4.251,6.317c-0.835-0.296-1.755-0.453-2.733-0.453C92.297,131.849,89.571,133.424,88.396,135.862z
				 M121.68,159.556c-0.537,1.046-1.086,2.117-1.435,3.196c-2.727,1.286-4.032,3.58-5.2,5.634c-0.326,0.573-0.64,1.124-0.978,1.652
				c-1.814,0.187-2.932,1.356-3.329,3.482c-0.007,0.038-0.015,0.081-0.023,0.124c-0.578,0.001-1.172,0.222-1.591,0.618
				c-1.441,1.362-2.28,2.998-2.848,4.68c0.109-0.998,0.182-1.997,0.255-2.982c0.179-2.435,0.348-4.737,0.989-6.91
				c1.975-4.84-0.543-7.893-2.57-10.351c-0.588-0.712-1.143-1.385-1.606-2.096c-0.134-0.206-0.301-0.388-0.493-0.541
				c-1.043-0.825-1.056-1.141-0.132-3.384c0.526-1.278,1.15-2.795,1.024-4.479c0.042-0.014,0.083-0.029,0.125-0.043
				c0.895-0.313,1.82-0.637,2.5-0.637c0.346,0,0.516,0.087,0.638,0.174c0.067,0.048,0.137,0.092,0.208,0.132
				c0.839,0.467,1.855,0.852,2.93,1.261c1.554,0.59,4.438,1.686,4.317,2.549c-0.089,0.428-0.065,0.879,0.086,1.285
				c0.512,1.383,1.729,1.605,3.745,1.974c1.019,0.186,2.558,0.468,3.152,0.758c0.156,0.076,0.319,0.135,0.488,0.174
				c0.868,0.2,1.092,0.433,1.093,0.436C123.12,156.748,122.183,158.574,121.68,159.556z"/>
			<path opacity="0.3" fill="#669CCC" d="M100.611,139.004l-1.062-0.219c-0.34,1.14,6.422,2.294,1.756,0.467L100.611,139.004z"/>
			<path opacity="0.3" fill="#669CCC" d="M136.487,101.619c-1.834,2.103-4.248-0.552-4.291,1.26
				c0.333,0.545,1.657,4.446,4.574,1.565C138.335,103.786,137.719,102.129,136.487,101.619z"/>
		</g>
	</g>
</g>
</svg>
