<?xml version="1.0" encoding="utf-8"?>
<!-- Generator: Adobe Illustrator 17.0.0, SVG Export Plug-In . SVG Version: 6.00 Build 0)  -->
<!DOCTYPE svg PUBLIC "-//W3C//DTD SVG 1.1//EN" "http://www.w3.org/Graphics/SVG/1.1/DTD/svg11.dtd">
<svg version="1.1" id="图层_1" xmlns="http://www.w3.org/2000/svg" xmlns:xlink="http://www.w3.org/1999/xlink" x="0px" y="0px"
	 width="256px" height="256px" viewBox="0 0 256 256" enable-background="new 0 0 256 256" xml:space="preserve">
<path fill="#C4DCED" stroke="#9DBCD7" stroke-width="2" stroke-miterlimit="10" d="M242,205.805
	C242,222.481,228.481,236,211.805,236H42.195C25.519,236,12,222.481,12,205.805V36.195C12,19.519,25.519,6,42.195,6h169.609
	C228.481,6,242,19.519,242,36.195V205.805z"/>
<path opacity="0.6" fill="none" stroke="#FFFFFF" stroke-width="2" stroke-miterlimit="10" d="M42.195,234
	C26.648,234,14,221.352,14,205.805V36.195C14,20.648,26.648,8,42.195,8h169.609C227.352,8,240,20.648,240,36.195v169.609
	C240,221.352,227.352,234,211.805,234H42.195z"/>
<g>
	<path opacity="0.08" fill="none" stroke="#000000" stroke-miterlimit="10" d="M242.749,72.737c0,0,0-10.146-10.022-10.146
		c-29.088,0-121.969,0.015-130.282,0.015c-10.102,0-10.022-10-10.022-10s0-10.065-10.022-10.065c-17.543,0-52.679,0-60.13,0
		c-9.866,0-10.022,9.703-10.022,10.01"/>
	<path opacity="0.05" fill="none" stroke="#000000" stroke-miterlimit="10" d="M242.749,71.737c0,0,0-10.146-10.022-10.146
		c-29.088,0-121.969,0.015-130.282,0.015c-10.102,0-10.022-10-10.022-10s0-10.065-10.022-10.065c-17.543,0-52.679,0-60.13,0
		c-9.866,0-10.022,9.703-10.022,10.01"/>
	<path opacity="0.03" fill="none" stroke="#000000" stroke-miterlimit="10" d="M242.749,70.737c0,0,0-10.146-10.022-10.146
		c-29.088,0-121.969,0.015-130.282,0.015c-10.102,0-10.022-10-10.022-10s0-10.065-10.022-10.065c-17.543,0-52.679,0-60.13,0
		c-9.866,0-10.022,9.703-10.022,10.01"/>
	<linearGradient id="SVGID_1_" gradientUnits="userSpaceOnUse" x1="127" y1="236" x2="127" y2="44">
		<stop  offset="0" style="stop-color:#D1E0ED"/>
		<stop  offset="1" style="stop-color:#E4EEFB"/>
	</linearGradient>
	<path fill="url(#SVGID_1_)" stroke="#9DBCD7" stroke-width="2" stroke-miterlimit="10" d="M42.695,236h169.609
		C228.981,236,242,221.981,242,205.305V68.02c-1-2.376-3.585-4.618-8.317-4.618c-29.214,0-122.373,0.015-130.722,0.015
		c-10.146,0-10.003-9.676-10.003-9.676S93.021,44,82.956,44c-17.619,0-52.907,0-60.391,0C12.656,44,12,53.055,12,53.362v151.943
		C12,221.981,26.019,236,42.695,236z"/>
	<path fill="none" stroke="#FFFFFF" stroke-width="2" stroke-miterlimit="10" d="M42.695,234C27.141,234,14,220.859,14,205.305
		V53.362C14.015,53.124,14.494,46,22.565,46h60.391c2.473,0,4.406,0.683,5.745,2.031c2.218,2.232,2.259,5.664,2.258,5.698
		c-0.003,0.188-0.035,5.024,3.336,8.446c2.12,2.152,5.036,3.243,8.667,3.243c0,0,111.685-0.015,130.722-0.015
		c4.112,0,5.726,1.936,6.316,3.062v136.841C240,221.127,227.576,234,212.305,234H42.695z"/>
</g>
<g id="g27_1_">
	
		<linearGradient id="path36_2_" gradientUnits="userSpaceOnUse" x1="431.7986" y1="820.4682" x2="463.6644" y2="875.6608" gradientTransform="matrix(1 0 0 1 -412 -818)">
		<stop  offset="0" style="stop-color:#FFFFFF"/>
		<stop  offset="0.5" style="stop-color:#FFFFFF;stop-opacity:0.6"/>
		<stop  offset="1" style="stop-color:#FFFFFF;stop-opacity:0.15"/>
	</linearGradient>
	<path id="path36_1_" fill="url(#path36_2_)" d="M46.073,67.039c3.563-7.375,7.91-14.283,12.899-20.672l-9.077-19.903
		c-7.751,7.327-14.045,15.402-19.066,23.243L46.073,67.039z"/>
	
		<linearGradient id="path45_2_" gradientUnits="userSpaceOnUse" x1="460.6917" y1="812.2031" x2="481.5462" y2="848.3249" gradientTransform="matrix(1 0 0 1 -412 -818)">
		<stop  offset="0" style="stop-color:#FFFFFF"/>
		<stop  offset="0.5" style="stop-color:#FFFFFF;stop-opacity:0.6"/>
		<stop  offset="1" style="stop-color:#FFFFFF;stop-opacity:0.15"/>
	</linearGradient>
	<path id="path45_1_" fill="url(#path45_2_)" d="M47.016,7.335l4.745,10.397c4.565-3.791,9.57-5.095,15.026-10.397L47.016,7.335z"/>
	
		<linearGradient id="path54_2_" gradientUnits="userSpaceOnUse" x1="467.2517" y1="805.3433" x2="492.7321" y2="849.4767" gradientTransform="matrix(1 0 0 1 -412 -818)">
		<stop  offset="0" style="stop-color:#FFFFFF"/>
		<stop  offset="0.5" style="stop-color:#FFFFFF;stop-opacity:0.6"/>
		<stop  offset="1" style="stop-color:#FFFFFF;stop-opacity:0.15"/>
	</linearGradient>
	<path id="path54_1_" fill="url(#path54_2_)" d="M82.618,7.335h-3.754c-9.464,5.302-17.74,9.347-24.839,15.391l8.7,19.087
		c7.433-8.584,16.054-16.107,25.709-22.183c0.074-0.069,0.127-0.127,0.207-0.196C99.463,10.092,88.716,7.335,82.618,7.335z"/>
	
		<linearGradient id="path63_2_" gradientUnits="userSpaceOnUse" x1="413.9148" y1="845.6288" x2="441.5662" y2="893.5222" gradientTransform="matrix(1 0 0 1 -412 -818)">
		<stop  offset="0" style="stop-color:#FFFFFF"/>
		<stop  offset="0.5" style="stop-color:#FFFFFF;stop-opacity:0.6"/>
		<stop  offset="1" style="stop-color:#FFFFFF;stop-opacity:0.15"/>
	</linearGradient>
	<path id="path63_1_" fill="url(#path63_2_)" d="M27.935,54.442c-5.821,9.909-9.623,19.066-11.882,25.327
		c2.672,3.812,7.089,6.315,12.099,6.315c6.203,0,11.5-3.833,13.695-9.246c0.562-1.511,1.246-2.964,1.872-4.454L27.935,54.442z"/>
	
		<linearGradient id="path72_2_" gradientUnits="userSpaceOnUse" x1="412.6727" y1="847.5903" x2="443.3176" y2="900.6691" gradientTransform="matrix(1 0 0 1 -412 -818)">
		<stop  offset="0" style="stop-color:#FFFFFF"/>
		<stop  offset="0.5" style="stop-color:#FFFFFF;stop-opacity:0.6"/>
		<stop  offset="1" style="stop-color:#FFFFFF;stop-opacity:0.15"/>
	</linearGradient>
	<path id="path72_1_" fill="url(#path72_2_)" d="M13.487,38.001l-0.117,33.275c0,0,0,0.011,0,0.021c0,0.207,0.053,0.403,0.064,0.61
		c2.529-6.155,6.06-13.679,10.853-21.626L13.487,38.001z"/>
	
		<linearGradient id="path149_2_" gradientUnits="userSpaceOnUse" x1="435.8473" y1="830.9678" x2="464.6228" y2="880.8076" gradientTransform="matrix(1 0 0 1 -412 -818)">
		<stop  offset="0" style="stop-color:#FFFFFF"/>
		<stop  offset="0.5" style="stop-color:#FFFFFF;stop-opacity:0.6"/>
		<stop  offset="1" style="stop-color:#FFFFFF;stop-opacity:0.15"/>
	</linearGradient>
	<path id="path149_1_" fill="url(#path149_2_)" d="M40.696,7.398C29.886,6.5,15.65,18.681,13.821,30.355l13.414,15.254
		c5.355-8.17,12.014-16.542,20.227-24.102L40.696,7.398z"/>
</g>
<radialGradient id="SVGID_2_" cx="118.765" cy="85.6572" r="190.6803" gradientTransform="matrix(0.0197 0.9998 -0.9109 0.018 194.4482 -34.625)" gradientUnits="userSpaceOnUse">
	<stop  offset="0" style="stop-color:#FFFFFF;stop-opacity:0.6"/>
	<stop  offset="0.3783" style="stop-color:#FAFCFE;stop-opacity:0.4487"/>
	<stop  offset="0.829" style="stop-color:#EBF3FC;stop-opacity:0.2684"/>
	<stop  offset="1" style="stop-color:#E4EEFB;stop-opacity:0.2"/>
</radialGradient>
<path fill="url(#SVGID_2_)" d="M42.695,234C27.141,234,14,220.859,14,205.305V53.362C14.015,53.124,14.494,46,22.565,46h60.391
	c2.473,0,4.405,0.683,5.744,2.031c2.219,2.232,2.259,5.664,2.259,5.698c-0.003,0.188-0.035,5.024,3.336,8.446
	c2.12,2.152,5.036,3.243,8.666,3.243c0,0,111.686-0.015,130.723-0.015c4.112,0,5.726,1.936,6.316,3.062v136.841
	C240,221.127,227.576,234,212.305,234H42.695z"/>
<g id="g151" opacity="0.5">
	<path id="path153" opacity="0.08" enable-background="new    " d="M213.51,236.845H40.636c-15.915,0-28.886-12.476-28.886-27.76
		v21.232c0,11.942,10.147,21.625,22.578,21.625h185.483c12.431,0,22.437-9.683,22.437-21.625v-21.232
		C242.249,224.369,229.42,236.845,213.51,236.845z"/>
	<path id="path155" opacity="0.1" enable-background="new    " d="M213.364,236.845H40.49c-15.91,0-28.739-12.249-28.739-27.533
		v11.107c0,11.942,5.48,26.491,27.676,26.491s152.506,0,174.996,0s27.827-14.549,27.827-26.491v-11.107
		C242.249,224.596,229.273,236.845,213.364,236.845z"/>
	<path id="path157" opacity="0.1" enable-background="new    " d="M213.364,236.845H40.49c-15.91,0-28.739-12.249-28.739-27.533
		v5.994c0,11.947,9.503,26.572,27.676,26.572s154.193,0,174.996,0c20.808,0,27.827-14.625,27.827-26.567v-5.994
		C242.249,224.596,229.273,236.845,213.364,236.845z"/>
	<rect id="rect159" x="37.944" y="236.845" opacity="0.05" enable-background="new    " width="178.112" height="5.033"/>
	<rect id="rect161" x="43.182" y="236.845" opacity="0.05" enable-background="new    " width="162.397" height="5.033"/>
	<rect id="rect163" x="43.182" y="241.877" opacity="0.05" enable-background="new    " width="162.397" height="5.033"/>
	<rect id="rect165" x="53.66" y="241.877" opacity="0.05" enable-background="new    " width="146.681" height="5.033"/>
	<rect id="rect167" x="69.375" y="241.877" opacity="0.05" enable-background="new    " width="115.249" height="5.033"/>
	<rect id="rect169" x="90.33" y="241.877" opacity="0.05" enable-background="new    " width="73.34" height="5.033"/>
	<rect id="rect171" x="53.66" y="236.845" opacity="0.05" enable-background="new    " width="146.681" height="5.033"/>
	<rect id="rect173" x="64.137" y="236.845" opacity="0.05" enable-background="new    " width="125.726" height="5.033"/>
	<rect id="rect175" x="69.375" y="236.845" opacity="0.05" enable-background="new    " width="115.249" height="5.033"/>
	<rect id="rect177" x="79.853" y="236.845" opacity="0.05" enable-background="new    " width="94.295" height="5.033"/>
	<rect id="rect179" x="79.853" y="236.845" opacity="0.05" enable-background="new    " width="94.295" height="5.033"/>
</g>
<g>
	<g opacity="0.3">
		<g opacity="0.5">
			<path fill="#FFFFFF" d="M203.54,142.546c0-11.54-10.069-21.697-26.176-28.502c2.157-17.347-1.604-31.143-11.596-36.915
				c-3.173-1.831-6.795-2.759-10.767-2.759c-8.273,0-17.642,4.019-27.002,11.116c-9.36-7.097-18.729-11.116-27.003-11.116
				c-3.971,0-7.594,0.928-10.768,2.76c-9.991,5.771-13.751,19.567-11.593,36.915C62.53,120.85,52.46,131.006,52.46,142.546
				c0,11.537,10.063,21.691,26.161,28.496c-0.135,1.064-0.252,2.119-0.342,3.162c-1.438,16.493,2.806,28.482,11.95,33.76
				c3.174,1.833,6.799,2.763,10.772,2.763c8.272,0,17.64-4.019,26.999-11.116c9.359,7.097,18.726,11.116,26.998,11.116
				c3.974,0,7.598-0.93,10.771-2.762c9.146-5.278,13.391-17.268,11.953-33.761c-0.091-1.042-0.208-2.098-0.343-3.162
				C193.477,164.237,203.54,154.083,203.54,142.546z M155.002,82.369c2.55,0,4.827,0.568,6.767,1.688
				c6.3,3.639,9.251,13.598,7.919,27.145c-6.337-2.042-13.362-3.619-20.895-4.649c-4.625-5.974-9.487-11.27-14.424-15.759
				C141.762,85.436,148.933,82.369,155.002,82.369z M153.447,157.239c-2.815,4.875-5.865,9.502-9.061,13.807
				c-5.171,0.568-10.639,0.885-16.386,0.885c-5.748,0-11.216-0.317-16.387-0.885c-3.196-4.306-6.246-8.932-9.061-13.807
				c-2.881-4.991-5.347-9.898-7.443-14.672c2.143-4.908,4.63-9.841,7.443-14.714c2.815-4.875,5.865-9.502,9.061-13.807
				c5.171-0.568,10.639-0.885,16.386-0.885c5.747,0,11.215,0.317,16.386,0.885c3.196,4.306,6.246,8.932,9.061,13.807
				c2.813,4.873,5.301,9.806,7.443,14.714C158.794,147.341,156.329,152.248,153.447,157.239z M164.878,152.855
				c1.509,4.457,2.702,8.838,3.555,13.08c-3.997,1.345-8.367,2.513-13.089,3.448c1.731-2.622,3.411-5.339,5.031-8.144
				C161.99,158.442,163.483,155.644,164.878,152.855z M128,189.162c-3.174-2.817-6.343-6.005-9.439-9.518
				c3.09,0.183,6.234,0.288,9.439,0.288c3.205,0,6.35-0.105,9.439-0.288C134.343,183.157,131.174,186.345,128,189.162z
				 M100.656,169.383c-4.722-0.935-9.092-2.102-13.089-3.448c0.853-4.242,2.046-8.624,3.555-13.08
				c1.396,2.789,2.888,5.587,4.503,8.385C97.244,164.044,98.925,166.761,100.656,169.383z M91.093,132.298
				c-1.56-4.581-2.739-8.971-3.573-13.125c4.01-1.352,8.396-2.526,13.136-3.464c-1.731,2.622-3.412,5.339-5.031,8.144
				C94.01,126.65,92.504,129.471,91.093,132.298z M128,95.933c3.174,2.816,6.342,6.003,9.438,9.516
				c-3.089-0.183-6.233-0.288-9.438-0.288c-3.205,0-6.349,0.105-9.438,0.288C121.658,101.936,124.826,98.749,128,95.933z
				 M160.375,123.854c-1.619-2.805-3.3-5.522-5.031-8.144c4.741,0.938,9.126,2.111,13.136,3.464
				c-0.835,4.154-2.013,8.544-3.573,13.125C163.495,129.471,161.99,126.65,160.375,123.854z M94.229,84.057
				c1.941-1.12,4.219-1.688,6.768-1.688c6.069,0,13.24,3.067,20.633,8.425c-4.937,4.488-9.799,9.785-14.423,15.759
				c-7.533,1.03-14.557,2.607-20.895,4.65C84.98,97.655,87.93,87.696,94.229,84.057z M60.46,142.546
				c0-7.277,7.15-14.812,19.552-20.433c1.401,6.515,3.549,13.393,6.427,20.439c-2.831,6.94-4.996,13.82-6.424,20.429
				C67.612,157.36,60.46,149.824,60.46,142.546z M101.001,202.727c-2.551,0-4.829-0.568-6.772-1.691
				c-6.208-3.582-9.117-13.108-7.981-26.136c0.029-0.329,0.072-0.665,0.105-0.996c6.326,2.036,13.336,3.609,20.852,4.637
				c4.625,5.975,9.488,11.272,14.425,15.761C114.239,199.66,107.069,202.727,101.001,202.727z M169.751,174.899
				c1.137,13.027-1.772,22.554-7.982,26.137c-1.941,1.122-4.22,1.69-6.771,1.69c-6.067,0-13.237-3.067-20.629-8.425
				c4.937-4.489,9.8-9.787,14.425-15.761c7.516-1.028,14.526-2.601,20.852-4.636C169.679,174.235,169.722,174.571,169.751,174.899z
				 M175.984,162.981c-1.428-6.609-3.592-13.489-6.424-20.429c2.878-7.045,5.026-13.924,6.427-20.439
				c12.402,5.62,19.552,13.156,19.552,20.433C195.54,149.824,188.388,157.36,175.984,162.981z"/>
		</g>
		<g>
			<path fill="#669CCC" d="M203.54,140.546c0-11.54-10.069-21.697-26.176-28.502c2.157-17.347-1.604-31.143-11.596-36.915
				c-3.173-1.831-6.795-2.759-10.767-2.759c-8.273,0-17.642,4.019-27.002,11.116c-9.36-7.097-18.729-11.116-27.003-11.116
				c-3.971,0-7.594,0.928-10.768,2.76c-9.991,5.771-13.751,19.567-11.593,36.915C62.53,118.85,52.46,129.006,52.46,140.546
				c0,11.537,10.063,21.691,26.161,28.496c-0.135,1.064-0.252,2.119-0.342,3.162c-1.438,16.493,2.806,28.482,11.95,33.76
				c3.174,1.833,6.799,2.763,10.772,2.763c8.272,0,17.64-4.019,26.999-11.116c9.359,7.097,18.726,11.116,26.998,11.116
				c3.974,0,7.598-0.93,10.771-2.762c9.146-5.278,13.391-17.268,11.953-33.761c-0.091-1.042-0.208-2.098-0.343-3.162
				C193.477,162.237,203.54,152.083,203.54,140.546z M155.002,80.369c2.55,0,4.827,0.568,6.767,1.688
				c6.3,3.639,9.251,13.598,7.919,27.145c-6.337-2.042-13.362-3.619-20.895-4.649c-4.625-5.974-9.487-11.27-14.424-15.759
				C141.762,83.436,148.933,80.369,155.002,80.369z M153.447,155.239c-2.815,4.875-5.865,9.502-9.061,13.807
				c-5.171,0.568-10.639,0.885-16.386,0.885c-5.748,0-11.216-0.317-16.387-0.885c-3.196-4.306-6.246-8.932-9.061-13.807
				c-2.881-4.991-5.347-9.898-7.443-14.672c2.143-4.908,4.63-9.841,7.443-14.714c2.815-4.875,5.865-9.502,9.061-13.807
				c5.171-0.568,10.639-0.885,16.386-0.885c5.747,0,11.215,0.317,16.386,0.885c3.196,4.306,6.246,8.932,9.061,13.807
				c2.813,4.873,5.301,9.806,7.443,14.714C158.794,145.341,156.329,150.248,153.447,155.239z M164.878,150.855
				c1.509,4.457,2.702,8.838,3.555,13.08c-3.997,1.345-8.367,2.513-13.089,3.448c1.731-2.622,3.411-5.339,5.031-8.144
				C161.99,156.442,163.483,153.644,164.878,150.855z M128,187.162c-3.174-2.817-6.343-6.005-9.439-9.518
				c3.09,0.183,6.234,0.288,9.439,0.288c3.205,0,6.35-0.105,9.439-0.288C134.343,181.157,131.174,184.345,128,187.162z
				 M100.656,167.383c-4.722-0.935-9.092-2.102-13.089-3.448c0.853-4.242,2.046-8.624,3.555-13.08
				c1.396,2.789,2.888,5.587,4.503,8.385C97.244,162.044,98.925,164.761,100.656,167.383z M91.093,130.298
				c-1.56-4.581-2.739-8.971-3.573-13.125c4.01-1.352,8.396-2.526,13.136-3.464c-1.731,2.622-3.412,5.339-5.031,8.144
				C94.01,124.65,92.504,127.471,91.093,130.298z M128,93.933c3.174,2.816,6.342,6.003,9.438,9.516
				c-3.089-0.183-6.233-0.288-9.438-0.288c-3.205,0-6.349,0.105-9.438,0.288C121.658,99.936,124.826,96.749,128,93.933z
				 M160.375,121.854c-1.619-2.805-3.3-5.522-5.031-8.144c4.741,0.938,9.126,2.111,13.136,3.464
				c-0.835,4.154-2.013,8.544-3.573,13.125C163.495,127.471,161.99,124.65,160.375,121.854z M94.229,82.057
				c1.941-1.12,4.219-1.688,6.768-1.688c6.069,0,13.24,3.067,20.633,8.425c-4.937,4.488-9.799,9.785-14.423,15.759
				c-7.533,1.03-14.557,2.607-20.895,4.65C84.98,95.655,87.93,85.696,94.229,82.057z M60.46,140.546
				c0-7.277,7.15-14.812,19.552-20.433c1.401,6.515,3.549,13.393,6.427,20.439c-2.831,6.94-4.996,13.82-6.424,20.429
				C67.612,155.36,60.46,147.824,60.46,140.546z M101.001,200.727c-2.551,0-4.829-0.568-6.772-1.691
				c-6.208-3.582-9.117-13.108-7.981-26.136c0.029-0.329,0.072-0.665,0.105-0.996c6.326,2.036,13.336,3.609,20.852,4.637
				c4.625,5.975,9.488,11.272,14.425,15.761C114.239,197.66,107.069,200.727,101.001,200.727z M169.751,172.899
				c1.137,13.027-1.772,22.554-7.982,26.137c-1.941,1.122-4.22,1.69-6.771,1.69c-6.067,0-13.237-3.067-20.629-8.425
				c4.937-4.489,9.8-9.787,14.425-15.761c7.516-1.028,14.526-2.601,20.852-4.636C169.679,172.235,169.722,172.571,169.751,172.899z
				 M175.984,160.981c-1.428-6.609-3.592-13.489-6.424-20.429c2.878-7.045,5.026-13.924,6.427-20.439
				c12.402,5.62,19.552,13.156,19.552,20.433C195.54,147.824,188.388,155.36,175.984,160.981z"/>
		</g>
	</g>
	<g>
		<path opacity="0.3" fill="#669CCC" d="M176.812,118.291c-0.263-0.119-0.544-0.178-0.825-0.178c-0.309,0-0.617,0.071-0.9,0.214
			c-0.54,0.272-0.928,0.774-1.055,1.366c-1.393,6.477-3.52,13.24-6.323,20.104c-0.198,0.484-0.198,1.027,0,1.512
			c2.791,6.84,4.918,13.602,6.32,20.096c0.128,0.592,0.516,1.093,1.056,1.364c0.283,0.143,0.591,0.214,0.899,0.214
			c0.281,0,0.562-0.06,0.825-0.179c13.175-5.97,20.73-14.083,20.73-22.257S189.985,124.261,176.812,118.291z M175.984,160.981
			c-1.428-6.609-3.592-13.489-6.424-20.429c2.878-7.045,5.026-13.924,6.427-20.439c12.402,5.62,19.552,13.156,19.552,20.433
			C195.54,147.824,188.388,155.36,175.984,160.981z"/>
		<path opacity="0.3" fill="#669CCC" d="M111.394,171.034c5.41,0.596,10.997,0.897,16.605,0.897c5.604,0,11.191-0.302,16.605-0.896
			c0.553-0.062,1.056-0.35,1.388-0.797c3.3-4.446,6.391-9.156,9.187-13.999c2.809-4.864,5.346-9.866,7.542-14.868
			c0.225-0.511,0.226-1.092,0.002-1.604c-2.193-5.024-4.731-10.042-7.544-14.914c-2.796-4.842-5.887-9.552-9.188-13.999
			c-0.331-0.447-0.834-0.735-1.387-0.796c-5.417-0.596-11.003-0.897-16.604-0.897c-5.602,0-11.189,0.302-16.605,0.897
			c-0.553,0.061-1.056,0.349-1.387,0.796c-3.298,4.442-6.389,9.152-9.187,13.999c-2.813,4.872-5.351,9.89-7.544,14.914
			c-0.223,0.512-0.223,1.093,0.002,1.604c2.194,4.998,4.732,10,7.542,14.868c2.801,4.852,5.892,9.562,9.187,13.999
			C110.339,170.685,110.842,170.973,111.394,171.034z M95.109,140.567c2.143-4.908,4.63-9.841,7.443-14.714
			c2.815-4.875,5.865-9.502,9.061-13.807c5.171-0.568,10.639-0.885,16.386-0.885c5.747,0,11.215,0.317,16.386,0.885
			c3.196,4.306,6.246,8.932,9.061,13.807c2.813,4.873,5.301,9.806,7.443,14.714c-2.097,4.774-4.562,9.681-7.443,14.672
			c-2.815,4.875-5.865,9.502-9.061,13.807c-5.171,0.568-10.639,0.885-16.386,0.885c-5.748,0-11.216-0.317-16.387-0.885
			c-3.196-4.306-6.246-8.932-9.061-13.807C99.671,150.248,97.205,145.341,95.109,140.567z"/>
		<path opacity="0.3" fill="#669CCC" d="M90.958,132.293c0.045,0.003,0.09,0.005,0.135,0.005c0.754,0,1.449-0.426,1.789-1.106
			c1.44-2.885,2.946-5.69,4.474-8.338c1.578-2.732,3.25-5.438,4.968-8.042c0.444-0.673,0.441-1.547-0.008-2.217
			c-0.376-0.56-1.002-0.885-1.66-0.885c-0.129,0-0.259,0.012-0.389,0.038c-4.685,0.927-9.189,2.115-13.387,3.53
			c-0.954,0.321-1.52,1.302-1.322,2.289c0.873,4.345,2.098,8.846,3.641,13.375C89.459,131.706,90.153,132.239,90.958,132.293z
			 M87.519,117.173c4.01-1.352,8.396-2.526,13.136-3.464c-1.731,2.622-3.412,5.339-5.031,8.144c-1.615,2.797-3.12,5.617-4.532,8.445
			C89.532,125.718,88.354,121.327,87.519,117.173z"/>
		<path opacity="0.3" fill="#669CCC" d="M147.212,105.777c0.32,0.414,0.791,0.686,1.311,0.757
			c7.339,1.004,14.254,2.542,20.552,4.572c0.2,0.065,0.407,0.097,0.613,0.097c0.386,0,0.768-0.111,1.097-0.328
			c0.506-0.332,0.835-0.875,0.894-1.477c1.415-14.389-1.832-24.986-8.909-29.073c-2.248-1.298-4.86-1.956-7.767-1.956
			c-6.317,0-13.857,3.044-21.807,8.805c-0.487,0.354-0.79,0.908-0.823,1.509c-0.033,0.602,0.206,1.186,0.651,1.591
			C137.918,94.722,142.691,99.938,147.212,105.777z M155.002,80.369c2.55,0,4.827,0.568,6.767,1.688
			c6.3,3.639,9.251,13.598,7.919,27.145c-6.337-2.042-13.362-3.619-20.895-4.649c-4.625-5.974-9.487-11.27-14.424-15.759
			C141.762,83.436,148.933,80.369,155.002,80.369z"/>
		<path opacity="0.3" fill="#669CCC" d="M86.928,165.83c4.184,1.408,8.671,2.591,13.338,3.515c0.129,0.025,0.26,0.038,0.389,0.038
			c0.658,0,1.284-0.325,1.66-0.885c0.45-0.67,0.453-1.544,0.009-2.217c-1.72-2.606-3.392-5.312-4.968-8.042
			c-1.531-2.652-2.986-5.36-4.447-8.28c-0.341-0.68-1.035-1.104-1.788-1.104c-0.046,0-0.092,0.002-0.138,0.005
			c-0.805,0.056-1.498,0.59-1.757,1.354c-1.538,4.544-2.756,9.028-3.621,13.327C85.407,164.527,85.974,165.509,86.928,165.83z
			 M91.121,150.855c1.396,2.789,2.888,5.587,4.503,8.385c1.62,2.805,3.3,5.522,5.031,8.144c-4.722-0.935-9.092-2.102-13.089-3.448
			C88.419,159.693,89.612,155.311,91.121,150.855z"/>
		<path opacity="0.3" fill="#669CCC" d="M203.54,140.546c0-11.54-10.069-21.697-26.176-28.502
			c2.157-17.347-1.604-31.143-11.596-36.915c-3.173-1.831-6.795-2.759-10.767-2.759c-8.273,0-17.642,4.019-27.002,11.116
			c-9.36-7.097-18.729-11.116-27.003-11.116c-3.971,0-7.594,0.928-10.768,2.76c-9.991,5.771-13.751,19.567-11.593,36.915
			c-16.106,6.806-26.175,16.962-26.175,28.502c0,11.537,10.063,21.691,26.161,28.496c-0.135,1.064-0.252,2.119-0.342,3.162
			c-1.438,16.493,2.806,28.482,11.95,33.76c3.174,1.833,6.799,2.763,10.772,2.763c8.272,0,17.64-4.019,26.999-11.116
			c9.359,7.097,18.726,11.116,26.998,11.116c3.974,0,7.598-0.93,10.771-2.762c9.146-5.278,13.391-17.268,11.953-33.761
			c-0.091-1.042-0.208-2.098-0.343-3.162C193.477,162.237,203.54,152.083,203.54,140.546z M176.6,167.2
			c-0.826,0.349-1.318,1.204-1.206,2.093c0.132,1.039,0.246,2.068,0.335,3.085c1.366,15.675-2.526,26.987-10.961,31.854
			c-2.866,1.655-6.153,2.494-9.771,2.494c-7.632,0-16.549-3.703-25.79-10.71c-0.357-0.271-0.783-0.406-1.208-0.406
			c-0.426,0-0.851,0.136-1.208,0.406c-9.24,7.007-18.158,10.71-25.79,10.71c-3.618,0-6.906-0.839-9.772-2.495
			c-8.434-4.867-12.325-16.18-10.958-31.854c0.088-1.017,0.203-2.047,0.334-3.086c0.112-0.889-0.38-1.743-1.206-2.092
			c-15.849-6.701-24.939-16.416-24.939-26.654c0-10.241,9.095-19.958,24.954-26.66c0.824-0.348,1.317-1.201,1.207-2.089
			c-2.125-17.08,1.742-29.813,10.609-34.936c2.865-1.654,6.151-2.492,9.768-2.492c7.635,0,16.554,3.704,25.794,10.71
			c0.357,0.271,0.783,0.406,1.208,0.406c0.426,0,0.851-0.135,1.208-0.406c9.24-7.006,18.159-10.71,25.794-10.71
			c3.616,0,6.902,0.838,9.767,2.492c8.867,5.122,12.735,17.855,10.611,34.936c-0.11,0.888,0.382,1.741,1.206,2.089
			c15.858,6.701,24.954,16.418,24.954,26.66C201.54,150.784,192.45,160.499,176.6,167.2z"/>
		<path opacity="0.3" fill="#669CCC" d="M117.061,102.127c-0.534,0.606-0.651,1.473-0.297,2.199c0.336,0.69,1.036,1.123,1.797,1.123
			c0.04,0,0.079-0.001,0.119-0.003c3.186-0.189,6.321-0.285,9.32-0.285c2.998,0,6.134,0.096,9.319,0.285
			c0.039,0.002,0.079,0.003,0.118,0.003c0.762,0,1.461-0.433,1.798-1.123c0.354-0.726,0.236-1.593-0.298-2.199
			c-3.116-3.537-6.35-6.797-9.61-9.689c-0.378-0.336-0.853-0.504-1.327-0.504c-0.474,0-0.949,0.168-1.327,0.504
			C123.411,95.332,120.177,98.591,117.061,102.127z M128,93.933c3.174,2.816,6.342,6.003,9.438,9.516
			c-3.089-0.183-6.233-0.288-9.438-0.288c-3.205,0-6.349,0.105-9.438,0.288C121.657,99.936,124.826,96.749,128,93.933z"/>
		<path opacity="0.3" fill="#669CCC" d="M108.788,175.315c-0.321-0.414-0.792-0.686-1.311-0.757
			c-7.323-1.002-14.224-2.536-20.511-4.56c-0.2-0.064-0.407-0.096-0.613-0.096c-0.384,0-0.765,0.11-1.094,0.326
			c-0.505,0.33-0.834,0.871-0.896,1.472l-0.041,0.374c-0.024,0.218-0.049,0.436-0.067,0.649
			c-1.207,13.835,2.064,24.056,8.974,28.043c2.249,1.3,4.864,1.959,7.771,1.959c6.317,0,13.857-3.045,21.804-8.806
			c0.487-0.354,0.79-0.907,0.823-1.509c0.033-0.601-0.206-1.186-0.651-1.59C118.081,186.37,113.307,181.153,108.788,175.315z
			 M101.001,200.727c-2.551,0-4.829-0.568-6.772-1.691c-6.208-3.582-9.117-13.108-7.981-26.136c0.029-0.329,0.072-0.665,0.105-0.996
			c6.326,2.036,13.336,3.609,20.852,4.637c4.625,5.975,9.488,11.272,14.425,15.761C114.239,197.66,107.069,200.727,101.001,200.727z
			"/>
		<path opacity="0.3" fill="#669CCC" d="M138.939,178.966c0.534-0.605,0.651-1.473,0.298-2.199
			c-0.337-0.689-1.036-1.123-1.797-1.123c-0.04,0-0.079,0.001-0.119,0.004c-3.24,0.191-6.289,0.284-9.321,0.284
			c-3.032,0-6.081-0.093-9.321-0.284c-0.04-0.003-0.079-0.004-0.119-0.004c-0.761,0-1.46,0.434-1.797,1.123
			c-0.354,0.726-0.236,1.594,0.297,2.199c3.114,3.534,6.348,6.795,9.612,9.692c0.379,0.336,0.853,0.504,1.328,0.504
			c0.475,0,0.949-0.168,1.328-0.504C132.591,185.761,135.825,182.5,138.939,178.966z M128,187.162
			c-3.174-2.817-6.343-6.005-9.439-9.518c3.09,0.183,6.234,0.288,9.439,0.288c3.205,0,6.35-0.105,9.439-0.288
			C134.343,181.157,131.174,184.345,128,187.162z"/>
		<path opacity="0.3" fill="#669CCC" d="M85.215,110.874c0.33,0.216,0.712,0.328,1.097,0.328c0.206,0,0.413-0.032,0.613-0.096
			c6.3-2.03,13.215-3.568,20.553-4.572c0.519-0.071,0.99-0.343,1.311-0.757c4.519-5.836,9.292-11.053,14.187-15.503
			c0.446-0.405,0.685-0.989,0.652-1.591c-0.033-0.601-0.336-1.155-0.823-1.509c-7.948-5.76-15.489-8.805-21.807-8.805
			c-2.905,0-5.519,0.658-7.768,1.956c-7.076,4.088-10.323,14.685-8.908,29.073C84.381,110,84.709,110.542,85.215,110.874z
			 M94.229,82.057c1.941-1.12,4.219-1.688,6.768-1.688c6.069,0,13.24,3.067,20.633,8.425c-4.937,4.488-9.799,9.785-14.423,15.759
			c-7.533,1.03-14.557,2.607-20.895,4.65C84.98,95.655,87.929,85.696,94.229,82.057z"/>
		<path opacity="0.3" fill="#669CCC" d="M155.344,169.383c0.129,0,0.259-0.013,0.389-0.038c4.664-0.923,9.151-2.105,13.338-3.514
			c0.955-0.321,1.521-1.302,1.323-2.29c-0.865-4.304-2.084-8.788-3.621-13.328c-0.259-0.765-0.952-1.298-1.757-1.354
			c-0.047-0.003-0.093-0.005-0.139-0.005c-0.753,0-1.447,0.425-1.788,1.105c-1.438,2.876-2.935,5.661-4.446,8.279
			c-1.577,2.732-3.248,5.438-4.968,8.041c-0.444,0.674-0.441,1.548,0.009,2.218C154.059,169.058,154.685,169.383,155.344,169.383z
			 M160.375,159.239c1.615-2.798,3.108-5.596,4.503-8.385c1.509,4.457,2.702,8.838,3.555,13.08
			c-3.997,1.345-8.367,2.513-13.089,3.448C157.075,164.761,158.755,162.044,160.375,159.239z"/>
		<path opacity="0.3" fill="#669CCC" d="M88.291,139.796c-2.803-6.862-4.931-13.626-6.324-20.103
			c-0.127-0.591-0.515-1.093-1.055-1.366c-0.283-0.143-0.591-0.214-0.9-0.214c-0.281,0-0.563,0.059-0.826,0.178
			c-13.172,5.969-20.726,14.081-20.726,22.254c0,8.175,7.556,16.287,20.729,22.257c0.263,0.119,0.544,0.179,0.826,0.179
			c0.309,0,0.617-0.071,0.899-0.214c0.54-0.271,0.928-0.772,1.056-1.364c1.402-6.492,3.529-13.253,6.321-20.096
			C88.489,140.822,88.489,140.28,88.291,139.796z M80.016,160.981c-12.404-5.621-19.555-13.157-19.555-20.435
			c0-7.277,7.15-14.812,19.552-20.433c1.401,6.515,3.549,13.393,6.427,20.439C83.608,147.492,81.443,154.372,80.016,160.981z"/>
		<path opacity="0.3" fill="#669CCC" d="M171.677,172.084l-0.041-0.38c-0.061-0.601-0.39-1.143-0.895-1.473
			c-0.329-0.216-0.711-0.327-1.096-0.327c-0.206,0-0.412,0.031-0.612,0.096c-6.288,2.023-13.188,3.557-20.511,4.559
			c-0.519,0.071-0.989,0.343-1.31,0.757c-4.522,5.841-9.297,11.058-14.189,15.507c-0.445,0.404-0.685,0.989-0.651,1.59
			c0.033,0.602,0.336,1.155,0.823,1.509c7.946,5.761,15.485,8.806,21.803,8.806c2.908,0,5.522-0.659,7.771-1.959
			c6.909-3.986,10.181-14.208,8.974-28.042C171.725,172.515,171.701,172.299,171.677,172.084z M161.768,199.036
			c-1.941,1.122-4.22,1.69-6.771,1.69c-6.067,0-13.237-3.067-20.629-8.425c4.937-4.489,9.8-9.787,14.425-15.761
			c7.516-1.028,14.526-2.601,20.852-4.636c0.033,0.331,0.077,0.667,0.105,0.996C170.887,185.927,167.978,195.453,161.768,199.036z"
			/>
		<path opacity="0.3" fill="#669CCC" d="M169.119,115.278c-4.197-1.416-8.702-2.604-13.388-3.53
			c-0.129-0.026-0.259-0.038-0.388-0.038c-0.658,0-1.284,0.325-1.66,0.885c-0.45,0.669-0.453,1.543-0.009,2.216
			c1.726,2.615,3.397,5.321,4.968,8.042c1.524,2.639,3.03,5.445,4.476,8.338c0.34,0.682,1.035,1.106,1.788,1.106
			c0.045,0,0.091-0.002,0.136-0.005c0.805-0.054,1.498-0.587,1.759-1.351c1.542-4.529,2.767-9.029,3.641-13.375
			C170.639,116.581,170.073,115.6,169.119,115.278z M164.907,130.298c-1.412-2.828-2.917-5.648-4.532-8.445
			c-1.619-2.805-3.3-5.522-5.031-8.144c4.741,0.938,9.126,2.111,13.136,3.464C167.646,121.327,166.467,125.718,164.907,130.298z"/>
	</g>
</g>
</svg>
