<?xml version="1.0" encoding="utf-8"?>
<!-- Generator: Adobe Illustrator 17.0.0, SVG Export Plug-In . SVG Version: 6.00 Build 0)  -->
<!DOCTYPE svg PUBLIC "-//W3C//DTD SVG 1.1//EN" "http://www.w3.org/Graphics/SVG/1.1/DTD/svg11.dtd">
<svg version="1.1" id="图层_1" xmlns="http://www.w3.org/2000/svg" xmlns:xlink="http://www.w3.org/1999/xlink" x="0px" y="0px"
	 width="256px" height="256px" viewBox="0 0 256 256" enable-background="new 0 0 256 256" xml:space="preserve">
<path fill="#EBF2FB" stroke="#9DBCD7" stroke-width="2" stroke-miterlimit="10" d="M242,205.805
	C242,222.481,228.481,236,211.805,236H42.195C25.519,236,12,222.481,12,205.805V36.195C12,19.519,25.519,6,42.195,6h169.609
	C228.481,6,242,19.519,242,36.195V205.805z"/>
<path opacity="0.6" fill="none" stroke="#FFFFFF" stroke-width="2" stroke-miterlimit="10" d="M42.195,234
	C26.648,234,14,221.352,14,205.805V36.195C14,20.648,26.648,8,42.195,8h169.609C227.352,8,240,20.648,240,36.195v169.609
	C240,221.352,227.352,234,211.805,234H42.195z"/>
<g id="g27_1_">
	
		<linearGradient id="path36_2_" gradientUnits="userSpaceOnUse" x1="431.7986" y1="820.4682" x2="463.6644" y2="875.6608" gradientTransform="matrix(1 0 0 1 -412 -818)">
		<stop  offset="0" style="stop-color:#FFFFFF"/>
		<stop  offset="0.5" style="stop-color:#FFFFFF;stop-opacity:0.6"/>
		<stop  offset="1" style="stop-color:#FFFFFF;stop-opacity:0.15"/>
	</linearGradient>
	<path id="path36_1_" fill="url(#path36_2_)" d="M46.073,67.039c3.563-7.375,7.91-14.283,12.899-20.672l-9.077-19.903
		c-7.751,7.327-14.045,15.402-19.066,23.243L46.073,67.039z"/>
	
		<linearGradient id="path45_2_" gradientUnits="userSpaceOnUse" x1="460.6917" y1="812.2031" x2="481.5462" y2="848.3249" gradientTransform="matrix(1 0 0 1 -412 -818)">
		<stop  offset="0" style="stop-color:#FFFFFF"/>
		<stop  offset="0.5" style="stop-color:#FFFFFF;stop-opacity:0.6"/>
		<stop  offset="1" style="stop-color:#FFFFFF;stop-opacity:0.15"/>
	</linearGradient>
	<path id="path45_1_" fill="url(#path45_2_)" d="M47.016,7.335l4.745,10.397c4.565-3.791,9.57-5.095,15.026-10.397L47.016,7.335z"/>
	
		<linearGradient id="path54_2_" gradientUnits="userSpaceOnUse" x1="467.2517" y1="805.3433" x2="492.7321" y2="849.4767" gradientTransform="matrix(1 0 0 1 -412 -818)">
		<stop  offset="0" style="stop-color:#FFFFFF"/>
		<stop  offset="0.5" style="stop-color:#FFFFFF;stop-opacity:0.6"/>
		<stop  offset="1" style="stop-color:#FFFFFF;stop-opacity:0.15"/>
	</linearGradient>
	<path id="path54_1_" fill="url(#path54_2_)" d="M82.618,7.335h-3.754c-9.464,5.302-17.74,9.347-24.839,15.391l8.7,19.087
		c7.433-8.584,16.054-16.107,25.709-22.183c0.074-0.069,0.127-0.127,0.207-0.196C99.463,10.092,88.716,7.335,82.618,7.335z"/>
	
		<linearGradient id="path63_2_" gradientUnits="userSpaceOnUse" x1="413.9148" y1="845.6288" x2="441.5662" y2="893.5222" gradientTransform="matrix(1 0 0 1 -412 -818)">
		<stop  offset="0" style="stop-color:#FFFFFF"/>
		<stop  offset="0.5" style="stop-color:#FFFFFF;stop-opacity:0.6"/>
		<stop  offset="1" style="stop-color:#FFFFFF;stop-opacity:0.15"/>
	</linearGradient>
	<path id="path63_1_" fill="url(#path63_2_)" d="M27.935,54.442c-5.821,9.909-9.623,19.066-11.882,25.327
		c2.672,3.812,7.089,6.315,12.099,6.315c6.203,0,11.5-3.833,13.695-9.246c0.562-1.511,1.246-2.964,1.872-4.454L27.935,54.442z"/>
	
		<linearGradient id="path72_2_" gradientUnits="userSpaceOnUse" x1="412.6727" y1="847.5903" x2="443.3176" y2="900.6691" gradientTransform="matrix(1 0 0 1 -412 -818)">
		<stop  offset="0" style="stop-color:#FFFFFF"/>
		<stop  offset="0.5" style="stop-color:#FFFFFF;stop-opacity:0.6"/>
		<stop  offset="1" style="stop-color:#FFFFFF;stop-opacity:0.15"/>
	</linearGradient>
	<path id="path72_1_" fill="url(#path72_2_)" d="M13.487,38.001l-0.117,33.275c0,0,0,0.011,0,0.021c0,0.207,0.053,0.403,0.064,0.61
		c2.529-6.155,6.06-13.679,10.853-21.626L13.487,38.001z"/>
	
		<linearGradient id="path149_2_" gradientUnits="userSpaceOnUse" x1="435.8473" y1="830.9678" x2="464.6228" y2="880.8076" gradientTransform="matrix(1 0 0 1 -412 -818)">
		<stop  offset="0" style="stop-color:#FFFFFF"/>
		<stop  offset="0.5" style="stop-color:#FFFFFF;stop-opacity:0.6"/>
		<stop  offset="1" style="stop-color:#FFFFFF;stop-opacity:0.15"/>
	</linearGradient>
	<path id="path149_1_" fill="url(#path149_2_)" d="M40.696,7.398C29.886,6.5,15.65,18.681,13.821,30.355l13.414,15.254
		c5.355-8.17,12.014-16.542,20.227-24.102L40.696,7.398z"/>
</g>
<g id="g151" opacity="0.5">
	<path id="path153" opacity="0.08" enable-background="new    " d="M213.51,236.845H40.636c-15.915,0-28.886-12.476-28.886-27.76
		v21.232c0,11.942,10.147,21.625,22.578,21.625h185.483c12.431,0,22.437-9.683,22.437-21.625v-21.232
		C242.249,224.369,229.42,236.845,213.51,236.845z"/>
	<path id="path155" opacity="0.1" enable-background="new    " d="M213.364,236.845H40.49c-15.91,0-28.739-12.249-28.739-27.533
		v11.107c0,11.942,5.48,26.491,27.676,26.491s152.506,0,174.996,0s27.827-14.549,27.827-26.491v-11.107
		C242.249,224.596,229.273,236.845,213.364,236.845z"/>
	<path id="path157" opacity="0.1" enable-background="new    " d="M213.364,236.845H40.49c-15.91,0-28.739-12.249-28.739-27.533
		v5.994c0,11.947,9.503,26.572,27.676,26.572s154.193,0,174.996,0c20.808,0,27.827-14.625,27.827-26.567v-5.994
		C242.249,224.596,229.273,236.845,213.364,236.845z"/>
	<rect id="rect159" x="37.944" y="236.845" opacity="0.05" enable-background="new    " width="178.112" height="5.033"/>
	<rect id="rect161" x="43.182" y="236.845" opacity="0.05" enable-background="new    " width="162.397" height="5.033"/>
	<rect id="rect163" x="43.182" y="241.877" opacity="0.05" enable-background="new    " width="162.397" height="5.033"/>
	<rect id="rect165" x="53.66" y="241.877" opacity="0.05" enable-background="new    " width="146.681" height="5.033"/>
	<rect id="rect167" x="69.375" y="241.877" opacity="0.05" enable-background="new    " width="115.249" height="5.033"/>
	<rect id="rect169" x="90.33" y="241.877" opacity="0.05" enable-background="new    " width="73.34" height="5.033"/>
	<rect id="rect171" x="53.66" y="236.845" opacity="0.05" enable-background="new    " width="146.681" height="5.033"/>
	<rect id="rect173" x="64.137" y="236.845" opacity="0.05" enable-background="new    " width="125.726" height="5.033"/>
	<rect id="rect175" x="69.375" y="236.845" opacity="0.05" enable-background="new    " width="115.249" height="5.033"/>
	<rect id="rect177" x="79.853" y="236.845" opacity="0.05" enable-background="new    " width="94.295" height="5.033"/>
	<rect id="rect179" x="79.853" y="236.845" opacity="0.05" enable-background="new    " width="94.295" height="5.033"/>
</g>
<g>
	<path opacity="0.3" fill="#669CCC" enable-background="new    " d="M219.5,120.998c0,23.84-41.415,43.167-92.5,43.167
		s-92.5-19.326-92.5-43.167S75.915,77.831,127,77.831S219.5,97.158,219.5,120.998z"/>
	<path opacity="0.3" fill="#669CCC" enable-background="new    " d="M173.25,40.893c20.646,11.926,16.675,57.449-8.868,101.688
		s-62.986,70.448-83.632,58.521c-20.646-11.914-16.675-57.449,8.868-101.688S152.604,28.979,173.25,40.893z"/>
	<path opacity="0.3" fill="#669CCC" enable-background="new    " d="M80.75,40.893c20.646-11.914,58.09,14.282,83.632,58.522
		s29.514,89.774,8.868,101.688c-20.646,11.926-58.09-14.282-83.632-58.521S60.104,52.819,80.75,40.893z"/>
</g>
</svg>
