<?xml version="1.0" encoding="utf-8"?>
<!-- Generator: Adobe Illustrator 17.0.0, SVG Export Plug-In . SVG Version: 6.00 Build 0)  -->
<!DOCTYPE svg PUBLIC "-//W3C//DTD SVG 1.1//EN" "http://www.w3.org/Graphics/SVG/1.1/DTD/svg11.dtd">
<svg version="1.1" id="图层_1" xmlns="http://www.w3.org/2000/svg" xmlns:xlink="http://www.w3.org/1999/xlink" x="0px" y="0px"
	 width="256px" height="256px" viewBox="0 0 256 256" enable-background="new 0 0 256 256" xml:space="preserve">
<path fill="#C4DCED" stroke="#9DBCD7" stroke-width="2" stroke-miterlimit="10" d="M242,205.805
	C242,222.481,228.481,236,211.805,236H42.195C25.519,236,12,222.481,12,205.805V36.195C12,19.519,25.519,6,42.195,6h169.609
	C228.481,6,242,19.519,242,36.195V205.805z"/>
<path opacity="0.6" fill="none" stroke="#FFFFFF" stroke-width="2" stroke-miterlimit="10" d="M42.195,234
	C26.648,234,14,221.352,14,205.805V36.195C14,20.648,26.648,8,42.195,8h169.609C227.352,8,240,20.648,240,36.195v169.609
	C240,221.352,227.352,234,211.805,234H42.195z"/>
<g id="g151" opacity="0.5">
	<path id="path153" opacity="0.08" enable-background="new    " d="M213.51,236.845H40.636c-15.915,0-28.886-12.476-28.886-27.76
		v21.232c0,11.942,10.147,21.625,22.578,21.625h185.483c12.431,0,22.437-9.683,22.437-21.625v-21.232
		C242.249,224.369,229.42,236.845,213.51,236.845z"/>
	<path id="path155" opacity="0.1" enable-background="new    " d="M213.364,236.845H40.49c-15.91,0-28.739-12.249-28.739-27.533
		v11.107c0,11.942,5.48,26.491,27.676,26.491s152.506,0,174.996,0s27.827-14.549,27.827-26.491v-11.107
		C242.249,224.596,229.273,236.845,213.364,236.845z"/>
	<path id="path157" opacity="0.1" enable-background="new    " d="M213.364,236.845H40.49c-15.91,0-28.739-12.249-28.739-27.533
		v5.994c0,11.947,9.503,26.572,27.676,26.572s154.193,0,174.996,0c20.808,0,27.827-14.625,27.827-26.567v-5.994
		C242.249,224.596,229.273,236.845,213.364,236.845z"/>
	<rect id="rect159" x="37.944" y="236.845" opacity="0.05" enable-background="new    " width="178.112" height="5.033"/>
	<rect id="rect161" x="43.182" y="236.845" opacity="0.05" enable-background="new    " width="162.397" height="5.033"/>
	<rect id="rect163" x="43.182" y="241.877" opacity="0.05" enable-background="new    " width="162.397" height="5.033"/>
	<rect id="rect165" x="53.66" y="241.877" opacity="0.05" enable-background="new    " width="146.681" height="5.033"/>
	<rect id="rect167" x="69.375" y="241.877" opacity="0.05" enable-background="new    " width="115.249" height="5.033"/>
	<rect id="rect169" x="90.33" y="241.877" opacity="0.05" enable-background="new    " width="73.34" height="5.033"/>
	<rect id="rect171" x="53.66" y="236.845" opacity="0.05" enable-background="new    " width="146.681" height="5.033"/>
	<rect id="rect173" x="64.137" y="236.845" opacity="0.05" enable-background="new    " width="125.726" height="5.033"/>
	<rect id="rect175" x="69.375" y="236.845" opacity="0.05" enable-background="new    " width="115.249" height="5.033"/>
	<rect id="rect177" x="79.853" y="236.845" opacity="0.05" enable-background="new    " width="94.295" height="5.033"/>
	<rect id="rect179" x="79.853" y="236.845" opacity="0.05" enable-background="new    " width="94.295" height="5.033"/>
</g>
<g>
	<g>
		
			<rect x="38.882" y="22.598" transform="matrix(0.9291 -0.3699 0.3699 0.9291 -20.5503 38.0284)" opacity="0.5" fill="#669CCC" enable-background="new    " width="100" height="100"/>
		
			<rect x="40" y="20" transform="matrix(0.9291 -0.3699 0.3699 0.9291 -19.51 38.2578)" opacity="0.2" fill="#669CCC" enable-background="new    " width="100" height="100"/>
		
			<rect x="41.118" y="17.402" transform="matrix(0.9291 -0.3699 0.3699 0.9291 -18.4696 38.4871)" opacity="0.1" fill="#669CCC" enable-background="new    " width="100" height="100"/>
	</g>
	
		<rect x="38.442" y="24.874" transform="matrix(0.9291 -0.3699 0.3699 0.9291 -18.7555 36.9402)" fill="#FFFFFF" width="97" height="85"/>
</g>
<g>
	<g>
		
			<rect x="105.983" y="24.973" transform="matrix(1 -0.0012 0.0012 1 -0.0913 0.1871)" opacity="0.5" fill="#669CCC" enable-background="new    " width="105.01" height="105.01"/>
		
			<rect x="108.08" y="22.87" transform="matrix(1 -0.0012 0.0012 1 -0.0888 0.1895)" opacity="0.2" fill="#669CCC" enable-background="new    " width="105.01" height="105.01"/>
		
			<rect x="110.178" y="20.767" transform="matrix(1 -0.0012 0.0012 1 -0.0863 0.192)" opacity="0.1" fill="#669CCC" enable-background="new    " width="105.01" height="105.01"/>
	</g>
	
		<rect x="108.075" y="27.022" transform="matrix(1 -0.0012 0.0012 1 -0.0844 0.1877)" fill="#FFFFFF" width="101.86" height="89.259"/>
</g>
<g>
	<g>
		<path opacity="0.08" fill="none" stroke="#000000" stroke-miterlimit="10" d="M242.749,94.737c0,0,0-10.146-10.022-10.146
			c-29.088,0-121.969,0.015-130.282,0.015c-10.102,0-10.022-10-10.022-10s0-10.065-10.022-10.065c-17.543,0-52.679,0-60.13,0
			c-9.866,0-10.022,9.703-10.022,10.01"/>
		<path opacity="0.05" fill="none" stroke="#000000" stroke-miterlimit="10" d="M242.749,93.737c0,0,0-10.146-10.022-10.146
			c-29.088,0-121.969,0.015-130.282,0.015c-10.102,0-10.022-10-10.022-10s0-10.065-10.022-10.065c-17.543,0-52.679,0-60.13,0
			c-9.866,0-10.022,9.703-10.022,10.01"/>
		<path opacity="0.03" fill="none" stroke="#000000" stroke-miterlimit="10" d="M242.749,92.737c0,0,0-10.146-10.022-10.146
			c-29.088,0-121.969,0.015-130.282,0.015c-10.102,0-10.022-10-10.022-10s0-10.065-10.022-10.065c-17.543,0-52.679,0-60.13,0
			c-9.866,0-10.022,9.703-10.022,10.01"/>
		<linearGradient id="SVGID_1_" gradientUnits="userSpaceOnUse" x1="127" y1="236" x2="127" y2="66">
			<stop  offset="0" style="stop-color:#D1E0ED"/>
			<stop  offset="1" style="stop-color:#E4EEFB"/>
		</linearGradient>
		<path fill="url(#SVGID_1_)" stroke="#9DBCD7" stroke-width="2" stroke-miterlimit="10" d="M42.695,236h169.609
			C228.981,236,242,221.981,242,205.305V90.02c-1-2.376-3.585-4.618-8.317-4.618c-29.214,0-122.373,0.015-130.722,0.015
			c-10.146,0-10.003-9.676-10.003-9.676S93.021,66,82.956,66c-17.619,0-52.907,0-60.391,0C12.656,66,12,75.055,12,75.362v129.943
			C12,221.981,26.019,236,42.695,236z"/>
		<path fill="none" stroke="#FFFFFF" stroke-width="2" stroke-miterlimit="10" d="M42.695,234C27.141,234,14,220.859,14,205.305
			V75.362C14.015,75.124,14.494,68,22.565,68h60.391c2.473,0,4.406,0.683,5.745,2.031c2.218,2.232,2.259,5.664,2.258,5.698
			c-0.003,0.188-0.035,5.024,3.336,8.446c2.12,2.152,5.036,3.243,8.667,3.243c0,0,111.685-0.015,130.722-0.015
			c4.112,0,5.726,1.936,6.316,3.062v114.841C240,221.127,227.576,234,212.305,234H42.695z"/>
	</g>
	
		<radialGradient id="SVGID_2_" cx="118.765" cy="103.0165" r="177.6389" gradientTransform="matrix(0.0197 0.9998 -0.9109 0.018 210.2612 -17.5779)" gradientUnits="userSpaceOnUse">
		<stop  offset="0" style="stop-color:#FFFFFF;stop-opacity:0.6"/>
		<stop  offset="0.3783" style="stop-color:#FAFCFE;stop-opacity:0.4487"/>
		<stop  offset="0.829" style="stop-color:#EBF3FC;stop-opacity:0.2684"/>
		<stop  offset="1" style="stop-color:#E4EEFB;stop-opacity:0.2"/>
	</radialGradient>
	<path fill="url(#SVGID_2_)" d="M42.695,234C27.141,234,14,220.859,14,205.305V75.362C14.015,75.124,14.494,68,22.565,68h60.391
		c2.473,0,4.405,0.683,5.744,2.031c2.219,2.232,2.259,5.664,2.259,5.698c-0.003,0.188-0.035,5.024,3.336,8.446
		c2.12,2.152,5.036,3.243,8.666,3.243c0,0,111.686-0.015,130.723-0.015c4.112,0,5.726,1.936,6.316,3.062v114.841
		C240,221.127,227.576,234,212.305,234H42.695z"/>
</g>
<g>
	<path opacity="0.1" fill="#FFFFFF" enable-background="new    " d="M86.335,218.147c-12.121,0-21.985-9.863-21.985-21.985v-81.33
		c0-12.121,9.863-21.985,21.985-21.985h81.33c12.121,0,21.985,9.863,21.985,21.985v81.337c0,12.121-9.863,21.985-21.985,21.985
		h-81.33V218.147z M167.665,205.278c5.022,0,9.115-4.087,9.115-9.108v-78.581l-3.816,0.686c-0.27,0.048-6.642,1.177-14.324,1.177
		c-0.797,0-1.607-0.014-2.424-0.035c0.083,0-8.471,0.45-15.37,2.549c0.894,0.305,1.434,0.693,1.842,1.261
		c0.111,0.145,0.242,0.436,0.409,0.866l0.81-0.7c28.883,25.143,10.819,51.664,10.646,51.928
		c-9.226,12.939-23.446,23.204-34.729,29.957H167.665z M77.213,172.024c4.184,1.614,12.191,4.149,21.888,4.322l3.235,0.069
		c2.355,0.048,4.613,0.104,6.816,0.104c10.591,0,18.466-1.219,27.339-7.446c11.297-7.917,10.036-20.537,9.967-21.063
		c-0.042-2.21-0.381-4.419-0.866-6.518c-0.014,3.124-0.298,6.358-1.025,9.427c-0.083,0.485-2.937,15.162-16.831,18.681
		c-2.126,0.526-4.274,0.797-6.4,0.797c-8.533,0-16.651-4.239-24.783-12.98c-6.386-6.864-15.571-25.649-17.773-47.626
		c-1.004,1.468-1.572,3.221-1.572,5.042v57.192h0.005V172.024z M119.873,157.589c0.042,0,1.025,0.332,2.397,0.332
		c4.246,0,7.952-3.048,10.757-8.817c0.111-0.187,2.313-4.211,2.84-12.745c-1.094,5.694-3.304,12.232-7.723,16.831
		c-0.284,0.326-3.602,3.9-7.564,3.9c-0.679,0-1.406-0.104-2.14-0.353C118.882,157.049,119.367,157.333,119.873,157.589
		L119.873,157.589z M119.166,105.717c-2.597,4.821-8.956,18.168-8.499,32.381c0,0.201-0.125,6.428,2.459,12.052
		c-0.27-0.838-0.499-1.78-0.72-2.826c-0.125-0.443-3.422-14.636,14.151-31.024c0.298-0.291,5.915-5.86,11.311-10.584h-18.702
		V105.717z"/>
	<path opacity="0.3" fill="#669CCC" enable-background="new    " d="M167.665,95.688h-81.33c-10.563,0-19.145,8.568-19.145,19.138
		v81.337c0,10.563,8.575,19.138,19.145,19.138h81.33c10.577,0,19.145-8.568,19.145-19.138v-81.33
		C186.81,104.263,178.242,95.688,167.665,95.688z M179.627,196.163c0,6.594-5.354,11.969-11.962,11.969h-58.792
		c10.23-5.299,31.342-17.6,43.346-34.452c0,0,17.101-24.388-10.175-48.139c0,0,7.023,11.02,7.266,22.13
		c0,0,1.745,14.691-11.172,23.73c-12.904,9.053-24.201,8.062-39.072,7.792c-11.893-0.208-21.361-3.816-24.686-5.264v-59.104
		c0-4.758,2.812-8.845,6.843-10.771c1.025,23.952,11.055,44.551,17.427,51.408c6.518,7.01,16.125,14.456,28.412,11.359
		c12.281-3.103,14.746-16.568,14.746-16.568c2.694-11.477-1.205-25.088-1.406-25.379c-0.201-0.284-2.057-0.603-2.057-0.603
		c1.96,18.057-2.743,26.057-2.743,26.057c-6.857,14.165-16.991,9.801-16.991,9.801c-11.269-5.735-10.771-21.95-10.771-21.95
		c-0.554-16.894,8.062-32.547,9.669-35.325h28.461c-5.846,3.976-17.455,15.522-17.455,15.522
		c-16.547,15.425-13.299,28.398-13.299,28.398c2.681,13.61,10.861,4.426,10.861,4.426c8.63-8.97,7.952-26.812,7.952-26.812
		c-3.505,0.575-5.707,2.521-5.707,2.521c-0.409,11.9-7.384,19.283-7.384,19.283c-2.722,3.013-4.655,0.145-4.655,0.145
		c-1.434-2.154,1.42-3.65,1.42-3.65c3.99-3.519,5.181-9.51,5.112-11.761c-0.055-2.251,1.136-2.868,1.136-2.868
		c5.638-4.378,11.283-6.961,11.283-6.961c7.564-3.886,21.077-4.544,21.077-4.544c8.513,0.284,16.152-1.094,16.152-1.094l7.1-1.281
		c0,0.215,0.055,0.423,0.055,0.637v81.344h0.009V196.163z"/>
	<g opacity="0.5">
		<path opacity="0.5" fill="#669CCC" enable-background="new    " d="M171.953,112.671c-0.055,0.007-6.158,1.087-13.313,1.087
			c-0.727,0-1.489-0.007-2.23-0.035c-0.81,0.028-14.449,0.734-22.469,4.849c-0.055,0.028-1.351,0.623-3.304,1.711
			c1.531-1.496,11.754-11.546,16.921-15.065l7.633-5.202h-39.328l-0.824,1.42c-1.787,3.061-10.632,19.256-10.05,36.842
			c-0.028,0.561-0.409,17.912,12.322,24.388c0.367,0.166,2.244,0.942,4.952,0.942c3.761,0,10.812-1.565,15.882-12.038
			c0.028-0.035,0.395-0.665,0.88-1.891c-0.242,1.122-2.639,11.851-12.675,14.386c-1.676,0.423-3.352,0.637-5.008,0.637
			c-6.871,0-13.624-3.657-20.62-11.165c-6.144-6.615-15.695-26.951-16.651-49.6l-0.187-4.301l-3.886,1.849
			c-5.153,2.452-8.485,7.688-8.485,13.34v60.974l1.718,0.734c3.65,1.586,13.472,5.278,25.773,5.5l3.207,0.069
			c2.397,0.048,4.696,0.104,6.94,0.104c11.429-0.007,20.551-1.42,30.615-8.485c14.137-9.905,12.447-25.725,12.364-26.39
			c-0.042-1.822-0.242-3.636-0.582-5.396c7.848,16.132-1.164,29.396-1.662,30.102c-11.443,16.056-31.425,27.914-42.328,33.552
			l-10.39,5.375h70.497c8.173,0,14.816-6.642,14.816-14.809v-81.323c0-0.263-0.028-0.519-0.069-0.769l-0.429-2.916l-2.923,0.249
			L171.953,112.671z M179.627,114.832v81.337c0,6.594-5.354,11.969-11.962,11.969h-58.792c10.23-5.299,31.342-17.6,43.346-34.452
			c0,0,17.101-24.388-10.175-48.139c0,0,7.023,11.02,7.266,22.13c0,0,1.745,14.691-11.172,23.73
			c-12.904,9.053-24.201,8.062-39.072,7.792c-11.893-0.208-21.361-3.816-24.686-5.264v-59.103c0-4.758,2.812-8.845,6.843-10.771
			c1.025,23.952,11.055,44.551,17.427,51.408c6.518,7.01,16.125,14.456,28.412,11.359c12.281-3.103,14.746-16.568,14.746-16.568
			c2.694-11.477-1.205-25.088-1.406-25.379c-0.201-0.284-2.057-0.603-2.057-0.603c1.96,18.057-2.743,26.057-2.743,26.057
			c-6.857,14.165-16.991,9.801-16.991,9.801c-11.269-5.735-10.771-21.95-10.771-21.95c-0.554-16.894,8.062-32.547,9.669-35.325
			h28.461c-5.846,3.976-17.455,15.522-17.455,15.522c-16.547,15.425-13.299,28.398-13.299,28.398
			c2.681,13.61,10.861,4.426,10.861,4.426c8.63-8.97,7.952-26.812,7.952-26.812c-3.505,0.575-5.707,2.521-5.707,2.521
			c-0.409,11.9-7.384,19.283-7.384,19.283c-2.722,3.013-4.655,0.145-4.655,0.145c-1.434-2.154,1.42-3.65,1.42-3.65
			c3.99-3.519,5.181-9.51,5.112-11.761c-0.055-2.251,1.136-2.868,1.136-2.868c5.638-4.378,11.283-6.961,11.283-6.961
			c7.564-3.886,21.077-4.544,21.077-4.544c8.513,0.284,16.152-1.094,16.152-1.094l7.1-1.281
			C179.572,114.41,179.627,114.611,179.627,114.832z M119.367,150.344c1.053-0.194,2.369-0.783,3.664-2.23
			c0.27-0.27,7.141-7.668,8.049-19.65l0,0c-0.326,5.444-1.69,15.217-7.051,20.779c-0.866,0.949-2.473,2.161-3.463,2.161
			C120.219,151.39,119.803,151.058,119.367,150.344z"/>
		<path opacity="0.5" fill="#669CCC" enable-background="new    " d="M167.665,95.688h-81.33c-10.563,0-19.145,8.568-19.145,19.138
			v81.337c0,10.563,8.575,19.138,19.145,19.138h81.33c10.577,0,19.145-8.568,19.145-19.138v-81.33
			C186.81,104.263,178.242,95.688,167.665,95.688z M183.956,196.163c0,8.984-7.307,16.291-16.291,16.291h-81.33
			c-8.984,0-16.291-7.307-16.291-16.291v-81.33c0-8.984,7.307-16.291,16.291-16.291h81.33c8.984,0,16.291,7.307,16.291,16.291
			V196.163z"/>
	</g>
	<g>
		<path opacity="0.05" fill="#FFFFFF" enable-background="new    " d="M172.465,115.47c0,0-7.647,1.378-16.152,1.094
			c0,0-13.514,0.658-21.077,4.544c0,0-5.638,2.59-11.283,6.961c0,0-1.191,0.616-1.136,2.868c0.069,2.251-1.122,8.242-5.112,11.761
			c0,0-2.854,1.503-1.42,3.65c0,0,1.932,2.861,4.655-0.145c0,0,6.982-7.384,7.384-19.283c0,0,2.203-1.946,5.707-2.521
			c0,0,0.679,17.843-7.952,26.812c0,0-8.187,9.184-10.861-4.426c0,0-3.249-12.973,13.299-28.398c0,0,11.609-11.546,17.455-15.522
			h-28.461c-1.607,2.777-10.23,18.424-9.669,35.325c0,0-0.499,16.215,10.771,21.95c0,0,10.133,4.364,16.991-9.801
			c0,0,4.71-7.993,2.743-26.057c0,0,1.856,0.319,2.057,0.603c0.201,0.291,4.1,13.894,1.406,25.379c0,0-2.459,13.458-14.746,16.568
			c-12.281,3.096-21.888-4.35-28.412-11.359c-6.372-6.857-16.395-27.456-17.427-51.408c-4.031,1.919-6.843,6.012-6.843,10.771
			v59.103c3.325,1.448,12.8,5.049,24.686,5.264c14.864,0.27,26.161,1.261,39.072-7.792c12.918-9.039,11.172-23.73,11.172-23.73
			c-0.242-11.11-7.266-22.13-7.266-22.13c27.276,23.751,10.175,48.139,10.175,48.139c-11.997,16.852-33.115,29.153-43.346,34.452
			h58.792c6.601,0,11.962-5.368,11.962-11.969v-81.341c0-0.222-0.055-0.423-0.055-0.637L172.465,115.47z M114.581,126.351
			c1.558-7.543,4.412-14.005,6.317-17.787h9.607c-3.276,3.068-5.763,5.548-5.887,5.659
			C120.101,118.448,116.88,122.548,114.581,126.351z M109.157,173.666c-2.175,0-4.426-0.048-6.753-0.104l-3.249-0.069
			c-8.062-0.145-14.92-2.009-19.089-3.463v-39.446c3.844,12.835,9.482,23.467,14.407,28.772c7.903,8.485,15.868,13.015,24.298,13.77
			C115.828,173.541,112.676,173.666,109.157,173.666z M173.927,196.163c0,3.456-2.812,6.268-6.262,6.268h-38.109
			c9.399-6.421,19.914-15.086,27.325-25.482c0.187-0.284,18.736-27.491-8.887-53.701c3.678-0.63,6.996-0.894,8.277-0.984
			c0.797,0.021,1.586,0.035,2.369,0.035c7.979,0,14.559-1.177,14.843-1.226l0.443-0.083L173.927,196.163z"/>
		<path opacity="0.05" fill="#FFFFFF" enable-background="new    " d="M167.665,90.001h-81.33
			c-13.694,0-24.838,11.138-24.838,24.831v81.337c0,13.694,11.145,24.831,24.838,24.831h81.33c13.694,0,24.838-11.138,24.838-24.831
			v-81.337C192.503,101.139,181.359,90.001,167.665,90.001z M186.81,196.163c0,10.563-8.561,19.138-19.145,19.138h-81.33
			c-10.563,0-19.145-8.568-19.145-19.138v-81.33c0-10.57,8.575-19.138,19.145-19.138h81.33c10.577,0,19.145,8.568,19.145,19.138
			V196.163z"/>
	</g>
	<g opacity="0.2">
		<path opacity="0.9" fill="#FFFFFF" enable-background="new    " d="M152.219,176.533c0,0,5.707-8.173,5.25-19.65
			c-0.457,9.96-5.25,16.797-5.25,16.797c-11.997,16.852-33.115,29.153-43.346,34.452h5.264
			C125.227,201.891,142.003,190.864,152.219,176.533z"/>
		<path opacity="0.9" fill="#FFFFFF" enable-background="new    " d="M115.218,149.631c2.681,13.61,10.861,4.44,10.861,4.44
			c8.63-8.97,7.952-26.819,7.952-26.819c-0.014,0-0.028,0.007-0.028,0.007c-0.201,5.403-1.42,17.198-7.931,23.952
			c0,0-8.187,9.184-10.861-4.426c0,0-0.125-0.506-0.201-1.413C114.837,148.045,115.218,149.631,115.218,149.631z"/>
		<path opacity="0.9" fill="#FFFFFF" enable-background="new    " d="M107.828,138.715c0-0.159,0-0.319,0-0.478
			C107.828,138.278,107.828,138.438,107.828,138.715z"/>
		<path opacity="0.9" fill="#FFFFFF" enable-background="new    " d="M138.595,127.175c-0.145-0.028-0.256-0.048-0.256-0.048
			c0.284,2.542,0.423,4.862,0.443,7.016C138.837,132.045,138.782,129.731,138.595,127.175z"/>
		<path opacity="0.9" fill="#FFFFFF" enable-background="new    " d="M117.504,102.87c-1.593,2.757-10.12,18.23-9.669,35.013
			c0.499-15.654,8.159-29.562,9.669-32.16h24.755c1.351-1.129,2.625-2.119,3.706-2.854h-28.461V102.87z"/>
		<path opacity="0.9" fill="#FFFFFF" enable-background="new    " d="M167.665,215.301h-81.33c-10.563,0-19.145-8.568-19.145-19.138
			v2.84c0,10.577,8.575,19.145,19.145,19.145h81.33c10.577,0,19.145-8.561,19.145-19.145v-2.84
			C186.81,206.733,178.242,215.301,167.665,215.301z"/>
		<path opacity="0.9" fill="#FFFFFF" enable-background="new    " d="M179.572,114.188l-7.1,1.281c0,0-7.647,1.378-16.152,1.094
			c0,0-13.514,0.658-21.077,4.544c0,0-5.638,2.59-11.283,6.961c0,0-1.191,0.616-1.136,2.868c0.069,2.251-1.122,8.242-5.112,11.761
			c0,0-2.854,1.503-1.42,3.65c0,0,0.069,0.097,0.159,0.215c0.54-0.651,1.261-1.018,1.261-1.018c3.99-3.526,5.181-9.51,5.112-11.761
			c-0.055-2.251,1.136-2.868,1.136-2.868c1.475-1.136,2.937-2.147,4.301-3.034c0.014-0.326,0.055-0.637,0.069-0.97
			c0,0,2.203-1.946,5.707-2.521c0,0,0,0.076,0,0.152c0.741-0.381,1.205-0.596,1.205-0.596c7.564-3.886,21.077-4.537,21.077-4.537
			c8.513,0.277,16.152-1.101,16.152-1.101l7.1-1.281c0,0.215,0.055,0.423,0.055,0.637v-2.847
			C179.627,114.611,179.572,114.41,179.572,114.188z"/>
		<path opacity="0.9" fill="#FFFFFF" enable-background="new    " d="M98.643,155.47c-6.372-6.857-16.395-27.456-17.427-51.408
			c-4.031,1.919-6.843,6.012-6.843,10.771v2.847c0-4.758,2.812-8.845,6.843-10.771c1.025,23.952,11.055,44.565,17.427,51.422
			c6.518,7.003,16.125,14.449,28.412,11.346c12.281-3.096,14.746-16.568,14.746-16.568c0.81-3.436,1.011-7.072,0.921-10.473
			c-0.069,2.535-0.326,5.126-0.921,7.633c0,0-2.459,13.458-14.746,16.568C114.768,169.925,105.168,162.479,98.643,155.47z"/>
	</g>
	<g>
		<path opacity="0.5" fill="#669CCC" enable-background="new    " d="M115.017,145.281c0.312-5.029,2.625-14.081,13.5-24.222
			c0,0,11.609-11.546,17.455-15.522h-3.491c-6.047,4.98-13.964,12.849-13.964,12.849
			C115.287,130.722,114.719,141.458,115.017,145.281z"/>
		<path opacity="0.5" fill="#669CCC" enable-background="new    " d="M142.044,125.541c0,0,1.309,2.064,2.812,5.299
			c9.323,9.191,12.336,18.327,12.62,25.981C157.871,147.982,154.851,136.685,142.044,125.541z"/>
		<path opacity="0.5" fill="#669CCC" enable-background="new    " d="M140.396,124.89c-0.201-0.284-2.057-0.603-2.057-0.603
			c0.111,0.935,0.173,1.836,0.242,2.715c0.499,0.097,1.648,0.339,1.815,0.561c0.145,0.208,2.099,7.003,2.327,15.003
			C142.952,133.458,140.555,125.118,140.396,124.89z"/>
		<path opacity="0.5" fill="#669CCC" enable-background="new    " d="M107.828,137.703c-0.014,0.173,0,0.353,0,0.526v-0.042
			C107.814,138.029,107.828,137.87,107.828,137.703z"/>
		<path opacity="0.5" fill="#669CCC" enable-background="new    " d="M120.939,146.202c-2.355,2.611-4.114,0.817-4.544,0.284
			c-0.485,0.651-0.797,1.517-0.111,2.535c0,0,1.932,2.861,4.655-0.145c0,0,6.982-7.397,7.384-19.29c0,0,2.203-1.932,5.68-2.514
			c0.055-1.648,0.028-2.681,0.028-2.681c-0.028,0.007-0.055,0.014-0.083,0.014c-1.261,0.644-3.304,1.752-5.694,3.29
			C127.596,139.137,120.939,146.202,120.939,146.202z"/>
		<path opacity="0.5" fill="#669CCC" enable-background="new    " d="M167.665,95.688h-81.33c-10.563,0-19.145,8.568-19.145,19.138
			v2.674c0-10.57,8.575-19.138,19.145-19.138h81.33c10.577,0,19.145,8.568,19.145,19.138v-2.674
			C186.81,104.263,178.242,95.688,167.665,95.688z"/>
		<path opacity="0.5" fill="#669CCC" enable-background="new    " d="M99.066,181.867c14.864,0.27,26.161,1.261,39.072-7.792
			c11.609-8.125,11.38-20.779,11.214-23.259c-0.242,4.8-1.988,14.123-11.214,20.592c-12.904,9.053-24.201,8.062-39.072,7.792
			c-11.893-0.208-21.361-3.816-24.686-5.264v2.674C77.704,178.05,87.173,181.652,99.066,181.867z"/>
		<path opacity="0.5" fill="#669CCC" enable-background="new    " d="M118.598,162.812c0,0,10.133,4.364,16.991-9.801
			c0,0,3.436-5.887,3.193-18.909c-0.229,11.159-3.193,16.243-3.193,16.243c-6.857,14.165-16.991,9.801-16.991,9.801
			c-10.092-5.139-10.743-18.653-10.771-21.417c-0.014,0.72-0.028,1.42,0,2.14C107.828,140.862,107.329,157.077,118.598,162.812z"/>
		<path opacity="0.5" fill="#669CCC" enable-background="new    " d="M167.665,210.798c6.601,0,11.962-5.361,11.962-11.962v-2.674
			c0,6.594-5.354,11.969-11.962,11.969h-53.839c-1.829,1.011-3.505,1.919-4.952,2.667
			C108.873,210.798,167.665,210.798,167.665,210.798z"/>
	</g>
</g>
<g id="g27_1_">
	
		<linearGradient id="path36_2_" gradientUnits="userSpaceOnUse" x1="431.7986" y1="820.4682" x2="463.6644" y2="875.6608" gradientTransform="matrix(1 0 0 1 -412 -818)">
		<stop  offset="0" style="stop-color:#FFFFFF"/>
		<stop  offset="0.5" style="stop-color:#FFFFFF;stop-opacity:0.6"/>
		<stop  offset="1" style="stop-color:#FFFFFF;stop-opacity:0.15"/>
	</linearGradient>
	<path id="path36_1_" fill="url(#path36_2_)" d="M46.073,67.039c3.563-7.375,7.91-14.283,12.899-20.672l-9.077-19.903
		c-7.751,7.327-14.045,15.402-19.066,23.243L46.073,67.039z"/>
	
		<linearGradient id="path45_2_" gradientUnits="userSpaceOnUse" x1="460.6917" y1="812.2031" x2="481.5462" y2="848.3249" gradientTransform="matrix(1 0 0 1 -412 -818)">
		<stop  offset="0" style="stop-color:#FFFFFF"/>
		<stop  offset="0.5" style="stop-color:#FFFFFF;stop-opacity:0.6"/>
		<stop  offset="1" style="stop-color:#FFFFFF;stop-opacity:0.15"/>
	</linearGradient>
	<path id="path45_1_" fill="url(#path45_2_)" d="M47.016,7.335l4.745,10.397c4.565-3.791,9.57-5.095,15.026-10.397L47.016,7.335z"/>
	
		<linearGradient id="path54_2_" gradientUnits="userSpaceOnUse" x1="467.2517" y1="805.3433" x2="492.7321" y2="849.4767" gradientTransform="matrix(1 0 0 1 -412 -818)">
		<stop  offset="0" style="stop-color:#FFFFFF"/>
		<stop  offset="0.5" style="stop-color:#FFFFFF;stop-opacity:0.6"/>
		<stop  offset="1" style="stop-color:#FFFFFF;stop-opacity:0.15"/>
	</linearGradient>
	<path id="path54_1_" fill="url(#path54_2_)" d="M82.618,7.335h-3.754c-9.464,5.302-17.74,9.347-24.839,15.391l8.7,19.087
		c7.433-8.584,16.054-16.107,25.709-22.183c0.074-0.069,0.127-0.127,0.207-0.196C99.463,10.092,88.716,7.335,82.618,7.335z"/>
	
		<linearGradient id="path63_2_" gradientUnits="userSpaceOnUse" x1="413.9148" y1="845.6288" x2="441.5662" y2="893.5222" gradientTransform="matrix(1 0 0 1 -412 -818)">
		<stop  offset="0" style="stop-color:#FFFFFF"/>
		<stop  offset="0.5" style="stop-color:#FFFFFF;stop-opacity:0.6"/>
		<stop  offset="1" style="stop-color:#FFFFFF;stop-opacity:0.15"/>
	</linearGradient>
	<path id="path63_1_" fill="url(#path63_2_)" d="M27.935,54.442c-5.821,9.909-9.623,19.066-11.882,25.327
		c2.672,3.812,7.089,6.315,12.099,6.315c6.203,0,11.5-3.833,13.695-9.246c0.562-1.511,1.246-2.964,1.872-4.454L27.935,54.442z"/>
	
		<linearGradient id="path72_2_" gradientUnits="userSpaceOnUse" x1="412.6727" y1="847.5903" x2="443.3176" y2="900.6691" gradientTransform="matrix(1 0 0 1 -412 -818)">
		<stop  offset="0" style="stop-color:#FFFFFF"/>
		<stop  offset="0.5" style="stop-color:#FFFFFF;stop-opacity:0.6"/>
		<stop  offset="1" style="stop-color:#FFFFFF;stop-opacity:0.15"/>
	</linearGradient>
	<path id="path72_1_" fill="url(#path72_2_)" d="M13.487,38.001l-0.117,33.275c0,0,0,0.011,0,0.021c0,0.207,0.053,0.403,0.064,0.61
		c2.529-6.155,6.06-13.679,10.853-21.626L13.487,38.001z"/>
	
		<linearGradient id="path149_2_" gradientUnits="userSpaceOnUse" x1="435.8473" y1="830.9678" x2="464.6228" y2="880.8076" gradientTransform="matrix(1 0 0 1 -412 -818)">
		<stop  offset="0" style="stop-color:#FFFFFF"/>
		<stop  offset="0.5" style="stop-color:#FFFFFF;stop-opacity:0.6"/>
		<stop  offset="1" style="stop-color:#FFFFFF;stop-opacity:0.15"/>
	</linearGradient>
	<path id="path149_1_" fill="url(#path149_2_)" d="M40.696,7.398C29.886,6.5,15.65,18.681,13.821,30.355l13.414,15.254
		c5.355-8.17,12.014-16.542,20.227-24.102L40.696,7.398z"/>
</g>
</svg>
