<?xml version="1.0" encoding="utf-8"?>
<!-- Generator: Adobe Illustrator 17.0.0, SVG Export Plug-In . SVG Version: 6.00 Build 0)  -->
<!DOCTYPE svg PUBLIC "-//W3C//DTD SVG 1.1//EN" "http://www.w3.org/Graphics/SVG/1.1/DTD/svg11.dtd">
<svg version="1.1" id="图层_1" xmlns="http://www.w3.org/2000/svg" xmlns:xlink="http://www.w3.org/1999/xlink" x="0px" y="0px"
	 width="256px" height="256px" viewBox="0 0 256 256" enable-background="new 0 0 256 256" xml:space="preserve">
<path fill="#C4DCED" stroke="#9DBCD7" stroke-width="2" stroke-miterlimit="10" d="M242,205.805
	C242,222.481,228.481,236,211.805,236H42.195C25.519,236,12,222.481,12,205.805V36.195C12,19.519,25.519,6,42.195,6h169.609
	C228.481,6,242,19.519,242,36.195V205.805z"/>
<path opacity="0.6" fill="none" stroke="#FFFFFF" stroke-width="2" stroke-miterlimit="10" d="M42.195,234
	C26.648,234,14,221.352,14,205.805V36.195C14,20.648,26.648,8,42.195,8h169.609C227.352,8,240,20.648,240,36.195v169.609
	C240,221.352,227.352,234,211.805,234H42.195z"/>
<g id="g151" opacity="0.5">
	<path id="path153" opacity="0.08" enable-background="new    " d="M213.51,236.845H40.636c-15.915,0-28.886-12.476-28.886-27.76
		v21.232c0,11.942,10.147,21.625,22.578,21.625h185.483c12.431,0,22.437-9.683,22.437-21.625v-21.232
		C242.249,224.369,229.42,236.845,213.51,236.845z"/>
	<path id="path155" opacity="0.1" enable-background="new    " d="M213.364,236.845H40.49c-15.91,0-28.739-12.249-28.739-27.533
		v11.107c0,11.942,5.48,26.491,27.676,26.491s152.506,0,174.996,0s27.827-14.549,27.827-26.491v-11.107
		C242.249,224.596,229.273,236.845,213.364,236.845z"/>
	<path id="path157" opacity="0.1" enable-background="new    " d="M213.364,236.845H40.49c-15.91,0-28.739-12.249-28.739-27.533
		v5.994c0,11.947,9.503,26.572,27.676,26.572s154.193,0,174.996,0c20.808,0,27.827-14.625,27.827-26.567v-5.994
		C242.249,224.596,229.273,236.845,213.364,236.845z"/>
	<rect id="rect159" x="37.944" y="236.845" opacity="0.05" enable-background="new    " width="178.112" height="5.033"/>
	<rect id="rect161" x="43.182" y="236.845" opacity="0.05" enable-background="new    " width="162.397" height="5.033"/>
	<rect id="rect163" x="43.182" y="241.877" opacity="0.05" enable-background="new    " width="162.397" height="5.033"/>
	<rect id="rect165" x="53.66" y="241.877" opacity="0.05" enable-background="new    " width="146.681" height="5.033"/>
	<rect id="rect167" x="69.375" y="241.877" opacity="0.05" enable-background="new    " width="115.249" height="5.033"/>
	<rect id="rect169" x="90.33" y="241.877" opacity="0.05" enable-background="new    " width="73.34" height="5.033"/>
	<rect id="rect171" x="53.66" y="236.845" opacity="0.05" enable-background="new    " width="146.681" height="5.033"/>
	<rect id="rect173" x="64.137" y="236.845" opacity="0.05" enable-background="new    " width="125.726" height="5.033"/>
	<rect id="rect175" x="69.375" y="236.845" opacity="0.05" enable-background="new    " width="115.249" height="5.033"/>
	<rect id="rect177" x="79.853" y="236.845" opacity="0.05" enable-background="new    " width="94.295" height="5.033"/>
	<rect id="rect179" x="79.853" y="236.845" opacity="0.05" enable-background="new    " width="94.295" height="5.033"/>
</g>
<radialGradient id="SVGID_1_" cx="118.765" cy="85.6572" r="190.6803" gradientTransform="matrix(0.0197 0.9998 -0.6593 0.013 172.8916 -34.1994)" gradientUnits="userSpaceOnUse">
	<stop  offset="0" style="stop-color:#FFFFFF;stop-opacity:0.6"/>
	<stop  offset="0.3783" style="stop-color:#FAFCFE;stop-opacity:0.4487"/>
	<stop  offset="0.829" style="stop-color:#EBF3FC;stop-opacity:0.2684"/>
	<stop  offset="1" style="stop-color:#E4EEFB;stop-opacity:0.2"/>
</radialGradient>
<path fill="url(#SVGID_1_)" d="M42.695,234C27.141,234,14,220.859,14,205.305V53.362C14.015,53.124,14.494,46,22.565,46h60.391
	c2.473,0,4.405,0.683,5.744,2.031c2.219,2.232,2.259,5.664,2.259,5.698c-0.003,0.188-0.035,5.024,3.336,8.446
	c2.12,2.152,5.036,3.243,8.666,3.243c0,0,111.686-0.015,130.723-0.015c4.112,0,5.726,1.936,6.316,3.062v136.841
	C240,221.127,227.576,234,212.305,234H42.695z"/>
<g>
	<g>
		
			<rect x="20.36" y="22.291" transform="matrix(0.986 -0.1666 0.1666 0.986 -11.4439 13.1862)" opacity="0.5" fill="#669CCC" enable-background="new    " width="105.01" height="105.01"/>
		
			<rect x="22.08" y="19.87" transform="matrix(0.986 -0.1666 0.1666 0.986 -11.0165 13.4391)" opacity="0.2" fill="#669CCC" enable-background="new    " width="105.01" height="105.01"/>
		
			<rect x="23.801" y="17.449" transform="matrix(0.986 -0.1666 0.1666 0.986 -10.5891 13.692)" opacity="0.1" fill="#669CCC" enable-background="new    " width="105.01" height="105.01"/>
	</g>
	
		<rect x="21.315" y="24.349" transform="matrix(0.986 -0.1666 0.1666 0.986 -10.4832 13.0017)" fill="#FFFFFF" width="101.86" height="89.259"/>
</g>
<g>
	<g>
		
			<rect x="113.158" y="20.134" transform="matrix(0.9967 -0.0814 0.0814 0.9967 -5.3649 13.7314)" opacity="0.5" fill="#669CCC" enable-background="new    " width="105.01" height="105.01"/>
		
			<rect x="115.08" y="17.87" transform="matrix(0.9967 -0.0814 0.0814 0.9967 -5.1742 13.8804)" opacity="0.2" fill="#669CCC" enable-background="new    " width="105.01" height="105.01"/>
		
			<rect x="117.003" y="15.606" transform="matrix(0.9967 -0.0814 0.0814 0.9967 -4.9834 14.0294)" opacity="0.1" fill="#669CCC" enable-background="new    " width="105.01" height="105.01"/>
	</g>
	
		<rect x="114.701" y="22.164" transform="matrix(0.9967 -0.0814 0.0814 0.9967 -4.889 13.7094)" fill="#FFFFFF" width="101.86" height="89.259"/>
</g>
<g>
	<g>
		
			<rect x="53.049" y="32.037" transform="matrix(0.9995 -0.0321 0.0321 0.9995 -2.6621 3.4354)" opacity="0.5" fill="#669CCC" enable-background="new    " width="105.01" height="105.01"/>
		
			<rect x="55.08" y="29.87" transform="matrix(0.9995 -0.0321 0.0321 0.9995 -2.5914 3.4996)" opacity="0.2" fill="#669CCC" enable-background="new    " width="105.01" height="105.01"/>
		
			<rect x="57.112" y="27.703" transform="matrix(0.9995 -0.0321 0.0321 0.9995 -2.5207 3.5638)" opacity="0.1" fill="#669CCC" enable-background="new    " width="105.01" height="105.01"/>
	</g>
	
		<rect x="54.929" y="34.073" transform="matrix(0.9995 -0.0321 0.0321 0.9995 -2.4743 3.4422)" fill="#FFFFFF" width="101.86" height="89.259"/>
</g>
<g>
	<g>
		
			<rect x="127.987" y="41.977" transform="matrix(1 -0.0034 0.0034 1 -0.3224 0.6185)" opacity="0.5" fill="#669CCC" enable-background="new    " width="105.01" height="105.01"/>
		
			<rect x="130.08" y="39.87" transform="matrix(1 -0.0034 0.0034 1 -0.3152 0.6256)" opacity="0.2" fill="#669CCC" enable-background="new    " width="105.01" height="105.01"/>
		
			<rect x="132.173" y="37.763" transform="matrix(1 -0.0034 0.0034 1 -0.3079 0.6328)" opacity="0.1" fill="#669CCC" enable-background="new    " width="105.01" height="105.01"/>
	</g>
	
		<rect x="130.064" y="44.026" transform="matrix(1 -0.0034 0.0034 1 -0.3024 0.6201)" fill="#FFFFFF" width="101.86" height="89.259"/>
</g>
<g>
	<path opacity="0.08" fill="none" stroke="#000000" stroke-miterlimit="10" d="M242.749,72.737c0,0,0-10.146-10.022-10.146
		c-29.088,0-121.969,0.015-130.282,0.015c-10.102,0-10.022-10-10.022-10s0-10.065-10.022-10.065c-17.543,0-52.679,0-60.13,0
		c-9.866,0-10.022,9.703-10.022,10.01"/>
	<path opacity="0.05" fill="none" stroke="#000000" stroke-miterlimit="10" d="M242.749,71.737c0,0,0-10.146-10.022-10.146
		c-29.088,0-121.969,0.015-130.282,0.015c-10.102,0-10.022-10-10.022-10s0-10.065-10.022-10.065c-17.543,0-52.679,0-60.13,0
		c-9.866,0-10.022,9.703-10.022,10.01"/>
	<path opacity="0.03" fill="none" stroke="#000000" stroke-miterlimit="10" d="M242.749,70.737c0,0,0-10.146-10.022-10.146
		c-29.088,0-121.969,0.015-130.282,0.015c-10.102,0-10.022-10-10.022-10s0-10.065-10.022-10.065c-17.543,0-52.679,0-60.13,0
		c-9.866,0-10.022,9.703-10.022,10.01"/>
	<linearGradient id="SVGID_2_" gradientUnits="userSpaceOnUse" x1="127" y1="236" x2="127" y2="44">
		<stop  offset="0" style="stop-color:#D1E0ED"/>
		<stop  offset="1" style="stop-color:#E4EEFB"/>
	</linearGradient>
	<path fill="url(#SVGID_2_)" stroke="#9DBCD7" stroke-width="2" stroke-miterlimit="10" d="M42.695,236h169.609
		C228.981,236,242,221.981,242,205.305V68.02c-1-2.376-3.585-4.618-8.317-4.618c-29.214,0-122.373,0.015-130.722,0.015
		c-10.146,0-10.003-9.676-10.003-9.676S93.021,44,82.956,44c-17.619,0-52.907,0-60.391,0C12.656,44,12,53.055,12,53.362v151.943
		C12,221.981,26.019,236,42.695,236z"/>
	<path fill="none" stroke="#FFFFFF" stroke-width="2" stroke-miterlimit="10" d="M42.695,234C27.141,234,14,220.859,14,205.305
		V53.362C14.015,53.124,14.494,46,22.565,46h60.391c2.473,0,4.406,0.683,5.745,2.031c2.218,2.232,2.259,5.664,2.258,5.698
		c-0.003,0.188-0.035,5.024,3.336,8.446c2.12,2.152,5.036,3.243,8.667,3.243c0,0,111.685-0.015,130.722-0.015
		c4.112,0,5.726,1.936,6.316,3.062v136.841C240,221.127,227.576,234,212.305,234H42.695z"/>
</g>
<g id="Symbol">
	<path opacity="0.05" fill="#FFFFFF" enable-background="new    " d="M147.724,74.988c-10.699,0.106-21.531-0.176-32.336,0.143
		c-0.538,0.002-1.053,0.21-1.444,0.577c-1.053,1.074-1.852,1.081-3.536,0.94c-1.575-0.134-3.779-0.441-6.209,0.072v-0.072
		c-0.076,0.005-0.139,0.067-0.217,0.072c-0.085,0.021-0.129-0.023-0.217,0v0.072c-3.656,0.33-7.093,2.217-8.805,5.703l-0.072-0.072
		c-0.058,0.088-0.088,0.199-0.146,0.289c-3.721,5.751-7.8,11.438-11.403,17.466c-0.09,0.136-0.162,0.282-0.217,0.434
		c-0.843,2.478,0.136,4.869,1.515,6.352c1.356,1.455,3.021,2.384,4.331,3.104c0.028,0.016,0.044,0.053,0.074,0.072
		c2.037,1.243,4.169,2.462,6.206,3.753c-0.73-0.067-1.506-0.12-2.164-0.074c-1.894,0.134-3.559,0.448-4.765,0.363
		c-0.097-0.007-0.192-0.007-0.289,0c-6.781,0.457-13.757,0.529-20.716,1.226c-0.097,0.016-0.194,0.042-0.289,0.072
		c-5.809,1.536-5.966,9.992-0.721,12.272l-0.074,0.072c0.326,0.254,0.418,0.194,0.723,0.36c0.647,0.356,1.111,0.661,1.515,0.795
		c-5.345,10.015-4.767,22.607,1.804,31.976c0.012,0.016-0.009,0.055,0,0.072c4.807,7.315,10.509,13.893,15.882,20.427
		c0.4,0.457,0.979,0.721,1.587,0.721c1.822,0.092,2.633,0.686,3.896,1.806c1.266,1.118,2.746,2.809,5.125,4.185
		c0.199,0.132,0.418,0.229,0.649,0.289c4.947,0.949,9.823,0.152,14.075,0.36c0.049,0.002,0.097,0.002,0.146,0
		c5.024-0.12,10.29,0.321,15.662-0.143c0.122-0.014,0.243-0.039,0.36-0.072c1.43-0.386,2.626-1.208,3.393-2.238
		s1.116-2.157,1.3-3.25c0.12-0.718,0.049-1.194,0.072-1.875c2.943,5.19,5.719,10.477,9.022,15.591
		c0.065,0.102,0.136,0.199,0.217,0.289c4.07,4.43,11.8,0.538,11.186-5.268h0.074c0.002-0.176-0.002-0.189,0-0.36
		c0.002-0.931,0.055-1.552,0.072-1.949c0.058,0.016,0.002-0.023,0.072,0c0.213,0.058,0.432,0.081,0.651,0.072
		c11.119,0.15,21.732-6.028,27.065-15.808c0.016-0.028,0.055-0.044,0.074-0.072c4.402-7.597,7.8-15.646,11.258-23.457
		c0.208-0.51,0.208-1.079,0-1.589c-0.612-1.621-0.575-2.635-0.286-3.968c0.286-1.335,0.959-2.998,1.587-5.197
		c0.051-0.189,0.074-0.383,0.072-0.577c-0.053-4.668-3.127-7.883-4.185-10.611c-0.023-0.048-0.046-0.097-0.074-0.146
		c-2.986-5.76-5.726-11.745-8.948-17.538c-0.083-0.132-0.18-0.252-0.291-0.363c-1.506-1.707-3.753-2.324-5.629-2.093
		c-1.76,0.217-3.268,1.021-4.548,2.021l-0.072,0.072c-0.058,0.046-0.159,0.025-0.217,0.072l-1.37,0.868
		c2.936-5.185,5.881-10.345,8.733-15.591c0.03-0.095,0.055-0.192,0.072-0.291c2.224-5.832-5.262-11.373-10.105-7.433
		c-0.076,0.044-0.148,0.092-0.217,0.143c-0.57,0.568-0.508,0.538-0.506,0.577c-0.079-0.157-0.187-0.236-0.286-0.577
		c-0.051-0.176-0.125-0.346-0.217-0.504C161.98,81.337,156.203,75.045,147.724,74.988z M127.44,105.085
		c0.658,0.961,1.365,2.139,1.732,2.887c0.407,0.825,0.342,1.287,0.363,1.226c0.018-0.058,0.088,0.203-1.155,0.506
		c-0.048,0-0.097,0-0.146,0c-1.94,0.642-3.608,1.954-4.619,3.753c-1.009,1.799-1.224,4.312,0,6.426
		c1.506,2.536,4.222,3.308,6.426,3.391c2.201,0.085,4.285-0.215,5.557-0.072c0.072,0.005,0.143,0.005,0.217,0l12.847-0.072
		c-1.062,0.711-2.162,1.351-3.104,2.381c-0.083,0.113-0.157,0.233-0.217,0.36c-1.485,2.561-0.903,5.365,0.074,7.363
		c0.977,1.998,2.25,3.684,2.742,4.908c0.021,0.074,0.044,0.146,0.072,0.217l1.446,2.67c-0.4-0.259-0.672-0.631-1.155-0.795
		c-0.016-0.005,0.014-0.067,0-0.072c-0.025-0.009-0.049,0.007-0.074,0c-2.167-0.762-4.388-0.134-5.917,1.009
		c-1.474,1.102-2.404,2.626-3.033,4.188l-0.072-0.072l-7.001,12.63c0.012-1.996,0.194-3.843-0.146-5.917
		c-0.032-0.15-0.081-0.296-0.143-0.434c-0.584-1.39-1.61-2.538-2.744-3.176c-1.132-0.637-2.275-0.792-3.391-0.866
		c-2.233-0.148-4.388,0.208-5.703,0.146c-0.049-0.002-0.097-0.002-0.146,0l-7.433,0.215c0.575-0.275,1.164-0.446,1.658-0.938
		l0.074,0.074c0.042-0.042,0.03-0.106,0.072-0.146c1.804-1.725,2.21-4.255,1.732-6.206c-0.476-1.942-1.584-3.49-2.672-4.765h0.074
		c-0.039-0.055-0.106-0.09-0.146-0.146c-4.229-6.051-8.301-12.332-12.703-18.404c3.499,2.21,6.934,4.446,10.539,6.495
		c0.134,0.09,0.279,0.162,0.432,0.217c2.647,0.746,5.146-0.453,6.569-2.021c1.397-1.541,2.178-3.361,2.816-4.765l0.072-0.072
		L127.44,105.085z M152.847,146.806l0.868,1.587h-0.795C152.924,147.875,152.889,147.376,152.847,146.806z M105.355,147.309
		c0.534,0.277,1.037,0.478,1.661,0.723l-2.021,0.072L105.355,147.309z"/>
	<path opacity="0.1" fill="#FFFFFF" enable-background="new    " d="M147.75,77.052c-10.749,0.109-21.531-0.125-32.26,0.194
		c-3.139,3.201-7.068,0.409-11.174,1.499c-3.296,0.176-6.234,1.834-7.599,4.862c-3.804,5.904-7.955,11.622-11.551,17.639
		c-1.201,3.536,2.296,5.59,4.897,7.017c7.444,4.536,14.711,9.465,22.266,13.759c3.811,1.074,5.656-2.862,6.931-5.67
		c2.679-5.165,5.359-10.327,8.038-15.491c1.455,3.659,8.038,9.317,1.605,10.89c-2.848,0.942-5.169,4.125-3.476,7.045
		c2.164,3.652,6.899,1.919,10.352,2.307c6.744-0.016,13.486-0.032,20.228-0.049c-2.889,2.049-6.442,3.317-8.839,5.936
		c-2.148,3.7,1.654,7.072,2.973,10.35c2.365,4.356,4.728,8.712,7.093,13.068c-2.109,0.023-4.215,0.044-6.324,0.065
		c-0.021-2.956,0.485-7.114-3.095-8.257c-3.026-1.106-5.52,1.464-6.506,4.088c-3.617,6.488-7.232,12.974-10.849,19.462
		c-0.173-4.462,0.46-9.031-0.259-13.422c-1.705-4.051-6.583-2.451-9.976-2.61c-6.222,0.182-12.447,0.365-18.672,0.547
		c0.947-1.915,1.894-3.829,2.841-5.742c2.603,1.347,6.072,3.615,8.645,0.903c2.691-2.428,0.797-6.114-1.129-8.338
		c-4.67-6.673-9.079-13.602-13.904-20.115c-2.818-2.169-6.606-0.504-9.853-0.737c-6.86,0.462-13.766,0.568-20.598,1.252
		c-4.09,1.081-4.109,7.488-0.021,8.636c1.34,1.049,5.072,1.275,2.989,3.495c-5.16,9.368-4.716,21.369,1.474,30.151
		c4.705,7.172,10.408,13.722,15.817,20.302c4.719,0.238,5.966,3.89,10.063,6.257c4.46,0.857,9.137,0.164,13.685,0.388
		c5.174-0.125,10.408,0.249,15.542-0.194c4.141-1.118,3.132-5.968,3.261-9.213c-0.097-2.647-0.125-5.019,1.411-1.39
		c3.873,6.55,7.34,13.392,11.456,19.767c2.786,3.03,8.306,0.196,7.62-3.834c0.023-2.397-0.702-5.527,2.848-4.375
		c10.343,0.139,20.335-5.638,25.261-14.75c4.338-7.467,7.696-15.503,11.177-23.365c-1.497-3.957,0.051-6.269,1.231-10.408
		c-0.042-3.615-2.765-6.532-4.04-9.816c-3.014-5.814-5.76-11.819-8.934-17.519c-2.081-2.356-5.382-1.37-7.474,0.367
		c-2.843,1.705-5.684,3.411-8.525,5.116c4.192-7.513,8.544-14.972,12.643-22.517c1.487-3.894-3.682-7.652-6.901-5.033
		c-1.998,1.982-3.504,1.915-4.345-0.917C160.319,82.737,155.176,77.103,147.75,77.052z"/>
	<path opacity="0.2" fill="#FFFFFF" enable-background="new    " d="M147.879,79.505l-31.163,0.065
		c-0.765-0.002-1.467,0.423-1.82,1.102c-0.353,0.679-0.298,1.499,0.143,2.123c-2.086-1.032-4.342-1.818-6.968-1.871
		c-2.15-0.042-4.492,0.305-6.968,1.226c-0.395,0.152-0.732,0.423-0.968,0.774l-12.322,18.517c-0.321,0.457-0.441,1.028-0.33,1.575
		c0.109,0.55,0.439,1.028,0.91,1.328l24,15.034c0.483,0.303,1.069,0.393,1.621,0.247c0.552-0.148,1.016-0.517,1.282-1.023
		l11.613-22.323c0.139-0.238,0.226-0.501,0.259-0.774c3.381,4.913,6.222,10.368,8.451,15.42l-7.16,3.871
		c-0.85,0.434-1.289,1.395-1.058,2.321c0.233,0.924,1.072,1.568,2.026,1.55l28.13-0.065c0.744,0.012,1.437-0.383,1.806-1.032
		l13.096-23.226c0.524-0.822,0.393-1.903-0.314-2.575c-0.704-0.674-1.79-0.758-2.589-0.199l-5.098,3.227l-3.418-6.001
		c-0.042-0.044-0.083-0.088-0.129-0.129c-1.522-2.287-3.056-4.398-5.098-6.063c-2.039-1.668-4.573-2.813-7.742-3.097
		C148.006,79.501,147.944,79.501,147.879,79.505z M174.912,112.666c-0.3,0.046-0.587,0.155-0.838,0.323l-24.132,14.646
		c-0.935,0.554-1.277,1.744-0.774,2.709l11.937,22c0.102,0.192,0.231,0.367,0.388,0.517l-13.034,0.065l-0.065-6.389
		c0.018-0.952-0.626-1.792-1.55-2.023c-0.926-0.231-1.887,0.208-2.321,1.056l-12.904,23.099c-0.346,0.621-0.346,1.379,0,2
		l12.904,22.709c0.437,0.864,1.418,1.303,2.354,1.053c0.935-0.249,1.568-1.12,1.517-2.086l0.065-7.289h4.194
		c10.652-0.005,17.318-4.026,22.065-10.454c4.746-6.426,7.918-15.036,12.775-24.968c0.411-0.806,0.245-1.788-0.411-2.411
		c-0.654-0.626-1.642-0.746-2.428-0.298c2.469-2.603,4.467-5.589,4.257-8.904c-0.032-0.273-0.12-0.536-0.259-0.774l-11.74-23.42
		C176.547,113.065,175.753,112.604,174.912,112.666z M94.908,118.345l-26.13,1.418c-0.917,0.067-1.679,0.737-1.859,1.642
		c-0.182,0.903,0.263,1.815,1.086,2.229l6.58,3.291l-1.871,3.806c-4.746,9.535-4.144,17.323-0.515,24.453
		c3.629,7.128,9.92,13.74,16.646,22.515c0.64,0.785,1.758,0.986,2.631,0.469c0.871-0.517,1.233-1.594,0.852-2.534
		c-0.12-0.275-0.09-0.561-0.194-0.838c1.189,4.014,3.224,7.793,6.774,9.292c0.243,0.113,0.506,0.18,0.774,0.192h26.13
		c0.55,0.005,1.079-0.21,1.467-0.598s0.603-0.917,0.598-1.464l0.194-28.13c0.005-0.561-0.219-1.099-0.621-1.49
		c-0.402-0.39-0.947-0.598-1.508-0.575l-27.548,0.838c-0.367,0.014-0.723,0.125-1.032,0.323l5.936-11.937l5.742,2.839
		c0.827,0.383,1.806,0.173,2.404-0.515c0.598-0.686,0.67-1.686,0.176-2.453l-14.902-21.871
		C96.315,118.65,95.629,118.306,94.908,118.345z M91.166,169.055c0.072,1.43,0.296,2.88,0.647,4.324
		C91.437,171.947,91.106,170.529,91.166,169.055z"/>
	<path opacity="0.3" fill="#669CCC" d="M147.879,81.57l-31.163,0.065c3.398,2.03,7.835,6.597,11.549,11.805
		c4.148,5.82,7.518,12.537,10.001,18.388l-8.839,4.774l28.13-0.065l13.096-23.226l-6.968,4.388l-4.451-7.872
		C156.261,85.358,153.485,82.074,147.879,81.57z M108.007,82.988c-1.908-0.037-3.95,0.261-6.195,1.097L89.49,102.602l24,15.032
		l11.613-22.323C121.548,90.384,116.268,83.152,108.007,82.988z M175.104,114.731l-24.13,14.646l11.937,22l9.613,0.129
		c5.617,0.062,14.678-7.749,14.323-13.355L175.104,114.731z M95.038,120.408l-26.13,1.42l8.389,4.194l-2.776,5.613
		c-9.07,18.219,2.351,27.111,15.937,44.838c-1.942-4.4-1.829-9.116-0.129-13.676l12.066-24.259l7.548,3.742L95.038,120.408z
		 M146.329,146.538l-12.902,23.099l12.902,22.709l0.065-9.354h6.259c20.353-0.009,23.157-14.196,32.969-34.26
		c-3.074,3.7-7.289,5.682-12.131,6.195l-27.098,0.065L146.329,146.538z M126.006,154.088l-27.548,0.838l-4.388,8.516
		c-2.559,5.001,0.439,16.591,5.613,18.776h26.13L126.006,154.088z"/>
	<path opacity="0.3" fill="#669CCC" d="M147.879,81.57l-31.163,0.065c3.398,2.03,7.835,6.597,11.549,11.805
		c4.148,5.82,7.518,12.537,10.001,18.388l-8.839,4.774l28.13-0.065l13.096-23.224l-6.968,4.386l-4.451-7.872
		C156.261,85.358,153.485,82.074,147.879,81.57z M108.007,82.988c-1.908-0.037-3.95,0.261-6.195,1.097L89.49,102.602l24,15.032
		l11.613-22.323C121.548,90.384,116.268,83.152,108.007,82.988z M147.556,85.506c2.102,0.187,3.277,0.73,4.515,1.742
		c1.24,1.012,2.453,2.638,3.871,4.774l4.324,7.613c0.351,0.619,0.864,1.132,1.483,1.483l-6.516,11.486l-13.096,0.062
		c0.164-0.801,0.074-1.638-0.259-2.386c-2.559-6.033-5.994-12.932-10.387-19.097c-1.467-2.056-3.072-3.839-4.647-5.613
		L147.556,85.506z M107.942,86.924c5.243,0.104,9.149,4.534,12.452,8.904l-8.387,16.193l-16.969-10.581l9.227-13.872
		C105.556,87.208,106.833,86.903,107.942,86.924z M175.104,114.731l-24.13,14.646l11.937,22l9.613,0.129
		c5.617,0.062,14.678-7.749,14.323-13.355L175.104,114.731z M173.492,120.346l9.29,18.45c-0.166,0.871-1.273,3.227-3.483,5.227
		c-2.416,2.187-5.749,3.559-6.71,3.548l-7.289-0.127l-9.033-16.646L173.492,120.346z M95.038,120.408l-26.13,1.42l8.389,4.194
		l-2.776,5.613c-9.07,18.219,2.351,27.111,15.937,44.841c-1.942-4.402-1.829-9.116-0.129-13.678l12.066-24.259l7.548,3.742
		L95.038,120.408z M93.102,124.473l7.292,10.71c-0.663,0.376-1.199,0.938-1.55,1.614L86.78,161.054
		c-0.051,0.127-0.092,0.256-0.129,0.388c-0.381,1.021-0.337,2.106-0.58,3.162c-3.596-4.49-6.756-8.546-8.583-12.131
		c-3.016-5.924-3.545-10.805,0.582-19.097l2.774-5.613c0.411-0.818,0.527-1.753,0.323-2.645L93.102,124.473z M146.329,146.538
		l-12.902,23.099l12.902,22.709l0.065-9.354h6.259c20.353-0.009,23.157-14.196,32.969-34.26c-3.074,3.7-7.289,5.682-12.131,6.195
		l-27.098,0.065L146.329,146.538z M126.006,154.088l-27.548,0.838l-4.388,8.516c-2.559,5.001,0.439,16.593,5.613,18.776h26.13
		L126.006,154.088z M176.975,157.959c-2.407,5.215-4.647,9.867-7.031,13.096c-3.945,5.34-8.029,7.996-17.291,8.001h-6.259
		c-0.949,0-1.864,0.344-2.58,0.968l-5.871-10.387l6.322-11.357c0.633,0.416,1.372,0.64,2.13,0.647l27.098-0.065
		c0.129,0.005,0.259,0.005,0.388,0C174.958,158.747,175.928,158.211,176.975,157.959z M122.07,158.151l-0.194,20.131h-20.903
		c-0.707-0.54-2.411-2.612-3.227-5.486c-0.889-3.139-0.626-6.7-0.192-7.548l3.354-6.451L122.07,158.151z"/>
	<path opacity="0.3" fill="#669CCC" d="M147.879,81.57l-31.163,0.065c3.398,2.03,7.835,6.597,11.549,11.805
		c4.148,5.82,7.518,12.537,10.001,18.388l-8.839,4.774l28.13-0.065l13.096-23.226l-6.968,4.388l-4.451-7.872
		C156.261,85.358,153.485,82.074,147.879,81.57z M108.007,82.988c-1.908-0.037-3.95,0.261-6.195,1.097L89.49,102.602l24,15.032
		l11.613-22.323C121.548,90.384,116.268,83.152,108.007,82.988z M147.685,83.57c2.441,0.217,4.054,0.972,5.548,2.192
		c1.462,1.196,2.841,2.913,4.259,5.033l0.065,0.129l4.386,7.742c0.263,0.49,0.716,0.85,1.254,0.995
		c0.536,0.146,1.109,0.067,1.584-0.222l0.194-0.129l-8.581,15.228l-18.905,0.062l1.744-0.968c0.922-0.497,1.312-1.614,0.903-2.58
		c-2.522-5.945-5.92-12.777-10.195-18.773c-2.414-3.388-5.07-6.229-7.677-8.645L147.685,83.57z M107.942,84.989
		c6.666,0.134,11.225,5.816,14.711,10.581l-9.936,19.161l-20.388-12.773l10.71-16.066C104.821,85.296,106.434,84.959,107.942,84.989
		z M175.104,114.731l-24.13,14.646l11.937,22l9.613,0.129c5.617,0.062,14.678-7.749,14.323-13.355L175.104,114.731z
		 M174.265,117.569l10.516,20.97c-0.03,1.695-1.633,4.585-4.192,6.904c-2.663,2.409-6.211,4.084-8.066,4.063l-8.387-0.127
		l-10.451-19.293L174.265,117.569z M95.038,120.408l-26.13,1.42l8.389,4.194l-2.776,5.613c-9.07,18.219,2.351,27.111,15.937,44.838
		c-1.942-4.4-1.829-9.116-0.129-13.676l12.066-24.259l7.548,3.742L95.038,120.408z M94.005,122.473l9.872,14.581l-0.58-0.321
		c-0.998-0.494-2.208-0.09-2.709,0.903l-12.066,24.259c-0.025,0.062-0.046,0.127-0.065,0.192c-0.838,2.252-1.275,4.576-1.356,6.904
		c-4.686-5.818-8.92-11.022-11.29-15.678c-3.211-6.308-3.809-12.087,0.517-20.774l2.774-5.613c0.492-0.998,0.088-2.208-0.903-2.709
		l-1.614-0.776L94.005,122.473z M146.329,146.538l-12.902,23.099l12.902,22.709l0.065-9.354h6.259
		c20.353-0.009,23.157-14.196,32.969-34.26c-3.074,3.7-7.289,5.682-12.131,6.195l-27.098,0.065L146.329,146.538z M126.006,154.088
		l-27.548,0.838l-4.388,8.516c-2.559,5.001,0.439,16.591,5.613,18.776h26.13L126.006,154.088z M144.394,154.088v0.903
		c0.016,1.097,0.903,1.982,2,2l27.098-0.065c0.065,0.002,0.129,0.002,0.194,0c2.402-0.254,4.654-0.963,6.774-1.936
		c-3.134,6.834-5.92,12.944-9.033,17.161c-4.199,5.687-9.068,8.835-18.773,8.839h-6.259c-1.097,0.016-1.984,0.903-2,2v1.806
		l-8.645-15.226L144.394,154.088z M124.006,156.153l-0.194,24.065h-23.483c-1.515-0.744-3.432-3.538-4.388-6.904
		c-0.979-3.458-0.908-7.322-0.065-8.969l3.871-7.483L124.006,156.153z"/>
</g>
<g id="g27_1_">
	
		<linearGradient id="path36_2_" gradientUnits="userSpaceOnUse" x1="431.7986" y1="820.4682" x2="463.6644" y2="875.6608" gradientTransform="matrix(1 0 0 1 -412 -818)">
		<stop  offset="0" style="stop-color:#FFFFFF"/>
		<stop  offset="0.5" style="stop-color:#FFFFFF;stop-opacity:0.6"/>
		<stop  offset="1" style="stop-color:#FFFFFF;stop-opacity:0.15"/>
	</linearGradient>
	<path id="path36_1_" fill="url(#path36_2_)" d="M46.073,67.039c3.563-7.375,7.91-14.283,12.899-20.672l-9.077-19.903
		c-7.751,7.327-14.045,15.402-19.066,23.243L46.073,67.039z"/>
	
		<linearGradient id="path45_2_" gradientUnits="userSpaceOnUse" x1="460.6917" y1="812.2031" x2="481.5462" y2="848.3249" gradientTransform="matrix(1 0 0 1 -412 -818)">
		<stop  offset="0" style="stop-color:#FFFFFF"/>
		<stop  offset="0.5" style="stop-color:#FFFFFF;stop-opacity:0.6"/>
		<stop  offset="1" style="stop-color:#FFFFFF;stop-opacity:0.15"/>
	</linearGradient>
	<path id="path45_1_" fill="url(#path45_2_)" d="M47.016,7.335l4.745,10.397c4.565-3.791,9.57-5.095,15.026-10.397L47.016,7.335z"/>
	
		<linearGradient id="path54_2_" gradientUnits="userSpaceOnUse" x1="467.2517" y1="805.3433" x2="492.7321" y2="849.4767" gradientTransform="matrix(1 0 0 1 -412 -818)">
		<stop  offset="0" style="stop-color:#FFFFFF"/>
		<stop  offset="0.5" style="stop-color:#FFFFFF;stop-opacity:0.6"/>
		<stop  offset="1" style="stop-color:#FFFFFF;stop-opacity:0.15"/>
	</linearGradient>
	<path id="path54_1_" fill="url(#path54_2_)" d="M82.618,7.335h-3.754c-9.464,5.302-17.74,9.347-24.839,15.391l8.7,19.087
		c7.433-8.584,16.054-16.107,25.709-22.183c0.074-0.069,0.127-0.127,0.207-0.196C99.463,10.092,88.716,7.335,82.618,7.335z"/>
	
		<linearGradient id="path63_2_" gradientUnits="userSpaceOnUse" x1="413.9148" y1="845.6288" x2="441.5662" y2="893.5222" gradientTransform="matrix(1 0 0 1 -412 -818)">
		<stop  offset="0" style="stop-color:#FFFFFF"/>
		<stop  offset="0.5" style="stop-color:#FFFFFF;stop-opacity:0.6"/>
		<stop  offset="1" style="stop-color:#FFFFFF;stop-opacity:0.15"/>
	</linearGradient>
	<path id="path63_1_" fill="url(#path63_2_)" d="M27.935,54.442c-5.821,9.909-9.623,19.066-11.882,25.327
		c2.672,3.812,7.089,6.315,12.099,6.315c6.203,0,11.5-3.833,13.695-9.246c0.562-1.511,1.246-2.964,1.872-4.454L27.935,54.442z"/>
	
		<linearGradient id="path72_2_" gradientUnits="userSpaceOnUse" x1="412.6727" y1="847.5903" x2="443.3176" y2="900.6691" gradientTransform="matrix(1 0 0 1 -412 -818)">
		<stop  offset="0" style="stop-color:#FFFFFF"/>
		<stop  offset="0.5" style="stop-color:#FFFFFF;stop-opacity:0.6"/>
		<stop  offset="1" style="stop-color:#FFFFFF;stop-opacity:0.15"/>
	</linearGradient>
	<path id="path72_1_" fill="url(#path72_2_)" d="M13.487,38.001l-0.117,33.275c0,0,0,0.011,0,0.021c0,0.207,0.053,0.403,0.064,0.61
		c2.529-6.155,6.06-13.679,10.853-21.626L13.487,38.001z"/>
	
		<linearGradient id="path149_2_" gradientUnits="userSpaceOnUse" x1="435.8473" y1="830.9678" x2="464.6228" y2="880.8076" gradientTransform="matrix(1 0 0 1 -412 -818)">
		<stop  offset="0" style="stop-color:#FFFFFF"/>
		<stop  offset="0.5" style="stop-color:#FFFFFF;stop-opacity:0.6"/>
		<stop  offset="1" style="stop-color:#FFFFFF;stop-opacity:0.15"/>
	</linearGradient>
	<path id="path149_1_" fill="url(#path149_2_)" d="M40.696,7.398C29.886,6.5,15.65,18.681,13.821,30.355l13.414,15.254
		c5.355-8.17,12.014-16.542,20.227-24.102L40.696,7.398z"/>
</g>
</svg>
