<?xml version="1.0" encoding="utf-8"?>
<!-- Generator: Adobe Illustrator 17.0.0, SVG Export Plug-In . SVG Version: 6.00 Build 0)  -->
<!DOCTYPE svg PUBLIC "-//W3C//DTD SVG 1.1//EN" "http://www.w3.org/Graphics/SVG/1.1/DTD/svg11.dtd">
<svg version="1.1"
	 id="svg3869" xmlns:dc="http://purl.org/dc/elements/1.1/" xmlns:cc="http://creativecommons.org/ns#" xmlns:rdf="http://www.w3.org/1999/02/22-rdf-syntax-ns#" xmlns:svg="http://www.w3.org/2000/svg" xmlns:sodipodi="http://sodipodi.sourceforge.net/DTD/sodipodi-0.dtd" xmlns:inkscape="http://www.inkscape.org/namespaces/inkscape" sodipodi:docname="address-book-insert.svg" inkscape:version="0.48+devel r12660"
	 xmlns="http://www.w3.org/2000/svg" xmlns:xlink="http://www.w3.org/1999/xlink" x="0px" y="0px" width="48px" height="48px"
	 viewBox="0 0 48 48" enable-background="new 0 0 48 48" xml:space="preserve">
<sodipodi:namedview  fit-margin-left="0" fit-margin-top="0" showgrid="false" inkscape:cy="32.440239" inkscape:cx="34.447293" inkscape:zoom="8" borderopacity="1.0" bordercolor="#666666" pagecolor="#ffffff" id="base" inkscape:window-maximized="1" inkscape:window-y="30" inkscape:window-x="0" inkscape:window-height="714" inkscape:window-width="1366" inkscape:current-layer="layer1" inkscape:document-units="px" inkscape:pageopacity="0.0" fit-margin-right="0" fit-margin-bottom="0" inkscape:pageshadow="2">
	<sodipodi:guide  orientation="30,0" position="9,39.000013" id="guide3264"></sodipodi:guide>
	<sodipodi:guide  orientation="0,30" position="9,9.0000126" id="guide3266"></sodipodi:guide>
	<sodipodi:guide  orientation="-30,0" position="39,9.0000126" id="guide3268"></sodipodi:guide>
	<sodipodi:guide  orientation="0,-30" position="39,39.000013" id="guide3270"></sodipodi:guide>
	<sodipodi:guide  orientation="4,0" position="9,17.000013" id="guide3275"></sodipodi:guide>
	<sodipodi:guide  orientation="0,30" position="9,13.000013" id="guide3277"></sodipodi:guide>
	<sodipodi:guide  orientation="-4,0" position="39,13.000013" id="guide3279"></sodipodi:guide>
	<sodipodi:guide  orientation="0,-30" position="39,17.000013" id="guide3281"></sodipodi:guide>
	<sodipodi:guide  orientation="4,0" position="9,39.000013" id="guide3293"></sodipodi:guide>
	<sodipodi:guide  orientation="0,15" position="9,35.000013" id="guide3295"></sodipodi:guide>
	<sodipodi:guide  orientation="-4,0" position="24,35.000013" id="guide3297"></sodipodi:guide>
	<sodipodi:guide  orientation="-1.9999999,0" position="22.000022,25.000013" id="guide3303"></sodipodi:guide>
	<sodipodi:guide  orientation="0,2" position="22.000022,27.000013" id="guide3305"></sodipodi:guide>
	<sodipodi:guide  orientation="0,-2" position="24.000021,25.000013" id="guide3309"></sodipodi:guide>
	<sodipodi:guide  orientation="-1.9999999,0" position="20.000022,35.000074" id="guide3319"></sodipodi:guide>
	<sodipodi:guide  orientation="0,2" position="20.000022,37.000074" id="guide3321"></sodipodi:guide>
	<sodipodi:guide  orientation="1.9999999,0" position="22.000021,37.000074" id="guide3323"></sodipodi:guide>
	<sodipodi:guide  orientation="0,-15" position="24,31.687513" id="guide3337"></sodipodi:guide>
	<sodipodi:guide  orientation="0,7" position="9,32.000013" id="guide3345"></sodipodi:guide>
	<sodipodi:guide  orientation="-7,0" position="16,32.000013" id="guide3347"></sodipodi:guide>
	<sodipodi:guide  orientation="0,-7" position="16,39.000013" id="guide3349"></sodipodi:guide>
</sodipodi:namedview>
<g id="layer1" transform="translate(-326,-508.36218)" inkscape:label="Capa 1" inkscape:groupmode="layer">
	<path id="path3356" inkscape:connector-curvature="0" fill="#DCDCDC" d="M365,517.362v6.406v0.594v0.312v12.281v6.406h-6.406
		h-2.188H350v-6.406v-12.281v-0.906c0-3.549,2.857-6.406,6.406-6.406H358h0.594H365z M361,521.362h-3.711h-0.365h-0.98
		c-2.169,0-3.943,1.757-3.943,3.941v0.559v8.559v4.941h3.943h1.346H361v-4.941v-8.559v-0.191v-0.367V521.362z"/>
	<path id="rect3283" fill="#DCDCDC" d="M335,517.362v6.406v0.594v0.312v12.281v6.406h6.406h2.188H350v-6.406v-12.281v-0.906
		c0-3.549-2.857-6.406-6.406-6.406H342h-0.594H335z M339,521.362h3.711h0.365h0.98c2.169,0,3.943,1.757,3.943,3.941v0.559v8.559
		v4.941h-3.943h-1.346H339v-4.941v-8.559v-0.191v-0.367V521.362z"/>
	<rect id="rect3260" x="335" y="517.362" fill="none" width="30" height="30"/>
	
		<path id="path3274" sodipodi:arg2="2.6179939" sodipodi:arg1="1.5707963" sodipodi:r2="2.0318732" sodipodi:r1="4.0637469" sodipodi:cy="532.95148" sodipodi:cx="327.05612" sodipodi:sides="3" sodipodi:type="star" inkscape:transform-center-y="0.66666448" inkscape:randomized="0" inkscape:rounded="0" inkscape:flatsided="true" fill="#DCDCDC" d="
		M350,547.362l-3.5-4h7L350,547.362z"/>
	
		<path id="path3272" sodipodi:ry="2.0000615" sodipodi:rx="2.0013857" sodipodi:cy="541.36218" sodipodi:cx="342.49863" sodipodi:type="arc" fill="none" d="
		M344.5,541.362c0,1.047-0.954,2-2.001,2c-1.047,0-1.999-0.953-1.999-2s0.952-2,1.999-2S344.5,540.315,344.5,541.362z"/>
	
		<path id="path3275" sodipodi:ry="2.0000615" sodipodi:rx="2.0013857" sodipodi:cy="530.36218" sodipodi:cx="336.99863" sodipodi:type="arc" fill="none" d="
		M339,530.362c0,1.047-0.954,2-2.001,2c-1.047,0-1.999-0.953-1.999-2s0.952-2,1.999-2S339,529.315,339,530.362z"/>
	
		<path id="path3277" sodipodi:ry="2.0000615" sodipodi:rx="2.0013857" sodipodi:cy="530.36218" sodipodi:cx="362.99863" sodipodi:type="arc" fill="none" d="
		M365,530.362c0,1.047-0.954,2-2.001,2c-1.047,0-1.999-0.953-1.999-2s0.952-2,1.999-2S365,529.315,365,530.362z"/>
	
		<path id="path3279" sodipodi:ry="2.0000615" sodipodi:rx="2.0013857" sodipodi:cy="541.36218" sodipodi:cx="357.49863" sodipodi:type="arc" fill="none" d="
		M359.5,541.362c0,1.047-0.954,2-2.001,2c-1.047,0-1.999-0.953-1.999-2s0.952-2,1.999-2S359.5,540.315,359.5,541.362z"/>
	
		<path id="path3288" sodipodi:ry="2.0000615" sodipodi:rx="2.0013857" sodipodi:cy="530.36218" sodipodi:cx="349.99863" sodipodi:type="arc" fill="none" d="
		M352,530.362L352,530.362L352,530.362z"/>
	
		<path id="path3287" sodipodi:ry="2.0000615" sodipodi:rx="2.0013857" sodipodi:cy="519.36218" sodipodi:cx="342.49863" sodipodi:type="arc" fill="none" d="
		M344.5,519.362L344.5,519.362L344.5,519.362z"/>
	
		<path id="path3296" sodipodi:arg2="2.6179939" sodipodi:arg1="1.5707963" sodipodi:r2="2.0318732" sodipodi:r1="4.0637469" sodipodi:cy="532.95148" sodipodi:cx="327.05612" sodipodi:sides="3" sodipodi:type="star" inkscape:transform-center-y="0.66666448" inkscape:randomized="0" inkscape:rounded="0" inkscape:flatsided="true" fill="none" d="
		M350,521.362l-3.5-4h7L350,521.362z"/>
	
		<path id="path3313" sodipodi:ry="1.0000308" sodipodi:rx="1.0006928" sodipodi:cy="520.36212" sodipodi:cx="346.99933" sodipodi:type="arc" fill="none" d="
		M348,520.362L348,520.362L348,520.362z"/>
	
		<path id="path3315" sodipodi:ry="1.0000308" sodipodi:rx="1.0006928" sodipodi:cy="530.36218" sodipodi:cx="348.99933" sodipodi:type="arc" fill="none" d="
		M350,530.362L350,530.362L350,530.362z"/>
</g>
</svg>
