<?xml version="1.0" encoding="utf-8"?>
<!-- Generator: Adobe Illustrator 17.0.0, SVG Export Plug-In . SVG Version: 6.00 Build 0)  -->
<!DOCTYPE svg PUBLIC "-//W3C//DTD SVG 1.1//EN" "http://www.w3.org/Graphics/SVG/1.1/DTD/svg11.dtd">
<svg version="1.1"
	 id="svg3813" xmlns:dc="http://purl.org/dc/elements/1.1/" xmlns:cc="http://creativecommons.org/ns#" xmlns:rdf="http://www.w3.org/1999/02/22-rdf-syntax-ns#" xmlns:svg="http://www.w3.org/2000/svg" xmlns:sodipodi="http://sodipodi.sourceforge.net/DTD/sodipodi-0.dtd" xmlns:inkscape="http://www.inkscape.org/namespaces/inkscape" sodipodi:docname="appointment.svg" inkscape:version="0.48+devel r12660"
	 xmlns="http://www.w3.org/2000/svg" xmlns:xlink="http://www.w3.org/1999/xlink" x="0px" y="0px" width="48px" height="48px"
	 viewBox="0 0 48 48" enable-background="new 0 0 48 48" xml:space="preserve">
<sodipodi:namedview  fit-margin-left="0" fit-margin-top="0" showgrid="false" inkscape:cy="22.915992" inkscape:cx="65.016651" inkscape:zoom="4" borderopacity="1.0" bordercolor="#666666" pagecolor="#ffffff" id="base" inkscape:window-maximized="1" inkscape:window-y="30" inkscape:window-x="0" inkscape:window-height="714" inkscape:window-width="1366" inkscape:current-layer="layer1" inkscape:document-units="px" inkscape:pageopacity="0.0" fit-margin-right="0" fit-margin-bottom="0" inkscape:pageshadow="2">
	<sodipodi:guide  orientation="30,0" position="9.0000072,38.999993" id="guide3264"></sodipodi:guide>
	<sodipodi:guide  orientation="0,30" position="9.0000072,8.9999929" id="guide3266"></sodipodi:guide>
	<sodipodi:guide  orientation="-30,0" position="39.000007,8.9999929" id="guide3268"></sodipodi:guide>
	<sodipodi:guide  orientation="0,-30" position="39.000007,38.999993" id="guide3270"></sodipodi:guide>
</sodipodi:namedview>
<g id="layer1" transform="translate(-378.85714,-514.07647)" inkscape:label="Capa 1" inkscape:groupmode="layer">
	<rect id="rect3260" x="387.857" y="523.076" fill="none" width="30" height="30"/>
	<path id="path3272" fill="#DCDCDC" d="M402.851,523.076c-3.927,0-7.829,1.618-10.604,4.395s-4.391,6.679-4.391,10.605
		s1.616,7.829,4.391,10.605s6.676,4.394,10.604,4.395s7.831-1.616,10.609-4.393s4.396-6.68,4.396-10.607s-1.618-7.831-4.396-10.607
		S406.779,523.076,402.851,523.076z M402.851,527.076c2.88,0,5.744,1.184,7.781,3.221s3.225,4.899,3.225,7.779
		s-1.187,5.743-3.225,7.779s-4.901,3.221-7.781,3.221s-5.74-1.186-7.775-3.223s-3.219-4.898-3.219-7.777s1.184-5.741,3.219-7.777
		S399.971,527.077,402.851,527.076z"/>
	
		<path id="path3274" sodipodi:ry="2.0000615" sodipodi:rx="2.0013857" sodipodi:cy="551.07648" sodipodi:cx="402.85574" sodipodi:type="arc" fill="none" d="
		M404.857,551.076L404.857,551.076L404.857,551.076z"/>
	
		<path id="path3278" sodipodi:ry="1.0000308" sodipodi:rx="1.0006928" sodipodi:cy="528.07648" sodipodi:cx="402.85645" sodipodi:type="arc" fill="none" d="
		M403.857,528.076L403.857,528.076L403.857,528.076z"/>
	
		<path id="path3280" sodipodi:ry="1.0000308" sodipodi:rx="1.0006928" sodipodi:cy="538.07648" sodipodi:cx="412.85648" sodipodi:type="arc" fill="none" d="
		M413.857,538.076L413.857,538.076L413.857,538.076z"/>
	<rect id="rect3282" x="400.857" y="529.076" fill="#DCDCDC" width="4" height="11"/>
	<rect id="rect3284" x="402.857" y="536.076" fill="#DCDCDC" width="9" height="4"/>
</g>
</svg>
