<?xml version="1.0" encoding="utf-8"?>
<!-- Generator: Adobe Illustrator 17.0.0, SVG Export Plug-In . SVG Version: 6.00 Build 0)  -->
<!DOCTYPE svg PUBLIC "-//W3C//DTD SVG 1.1//EN" "http://www.w3.org/Graphics/SVG/1.1/DTD/svg11.dtd">
<svg version="1.1"
	 id="svg3987" xmlns:dc="http://purl.org/dc/elements/1.1/" xmlns:cc="http://creativecommons.org/ns#" xmlns:rdf="http://www.w3.org/1999/02/22-rdf-syntax-ns#" xmlns:svg="http://www.w3.org/2000/svg" xmlns:sodipodi="http://sodipodi.sourceforge.net/DTD/sodipodi-0.dtd" xmlns:inkscape="http://www.inkscape.org/namespaces/inkscape" sodipodi:docname="bookmark_add.svg" inkscape:version="0.48+devel r12662"
	 xmlns="http://www.w3.org/2000/svg" xmlns:xlink="http://www.w3.org/1999/xlink" x="0px" y="0px" width="48px" height="48px"
	 viewBox="0 0 48 48" enable-background="new 0 0 48 48" xml:space="preserve">
<sodipodi:namedview  fit-margin-left="0" fit-margin-top="0" showgrid="false" inkscape:cy="32.015752" inkscape:cx="9.1284985" inkscape:zoom="11.477676" borderopacity="1.0" bordercolor="#666666" pagecolor="#ffffff" id="base" inkscape:window-maximized="1" inkscape:window-y="30" inkscape:window-x="0" inkscape:window-height="714" inkscape:window-width="1366" inkscape:current-layer="layer1" inkscape:document-units="px" inkscape:pageopacity="0.0" fit-margin-right="0" fit-margin-bottom="0" inkscape:pageshadow="2">
	<sodipodi:guide  orientation="29.999969,0" position="8.9999972,38.999996" id="guide3264"></sodipodi:guide>
	<sodipodi:guide  orientation="0,30" position="8.9999972,9.0000263" id="guide3266"></sodipodi:guide>
	<sodipodi:guide  orientation="-29.999969,0" position="38.999997,9.0000263" id="guide3268"></sodipodi:guide>
	<sodipodi:guide  orientation="0,-30" position="38.999997,38.999996" id="guide3270"></sodipodi:guide>
	<sodipodi:guide  orientation="0,-2" position="24.999988,7.0000263" id="guide3282"></sodipodi:guide>
</sodipodi:namedview>
<g id="layer1" transform="translate(-238.85715,-496.93362)" inkscape:label="Capa 1" inkscape:groupmode="layer">
	<rect id="rect3260" x="247.857" y="505.934" fill="none" width="30" height="30"/>
	<path id="rect4079" inkscape:connector-curvature="0" sodipodi:nodetypes="cccccccccccc" fill="#DCDCDC" d="M251.857,505.934v32
		l11-7l11,7v-32H251.857z M255.857,509.934h14v20.6l-7-3.85l-7,3.85V509.934z"/>
	
		<path id="path4075" sodipodi:ry="2.0000615" sodipodi:rx="2.0013857" sodipodi:cy="520.93359" sodipodi:cx="249.85576" sodipodi:type="arc" fill="none" d="
		M251.857,520.934c0,1.047-0.954,2-2.001,2c-1.047,0-1.999-0.953-1.999-2s0.952-2,1.999-2
		C250.904,518.934,251.857,519.886,251.857,520.934z"/>
	
		<path id="path4077" sodipodi:ry="2.0000615" sodipodi:rx="2.0013857" sodipodi:cy="520.93359" sodipodi:cx="275.85577" sodipodi:type="arc" fill="none" d="
		M277.857,520.934c0,1.047-0.954,2-2.001,2c-1.047,0-1.999-0.953-1.999-2s0.952-2,1.999-2S277.857,519.886,277.857,520.934z"/>
	
		<path id="path3267" sodipodi:ry="2.0000615" sodipodi:rx="2.0013857" sodipodi:cy="507.93362" sodipodi:cx="262.85577" sodipodi:type="arc" fill="none" d="
		M264.857,507.934c0,1.047-0.954,2-2.001,2c-1.047,0-1.999-0.953-1.999-2s0.952-2,1.999-2S264.857,506.886,264.857,507.934z"/>
	
		<path id="path3271" sodipodi:ry="2.0000615" sodipodi:rx="2.0013857" sodipodi:cy="526.93359" sodipodi:cx="262.85577" sodipodi:type="arc" fill="none" d="
		M264.857,526.934c0,1.047-0.954,2-2.001,2c-1.047,0-1.999-0.953-1.999-2s0.952-2,1.999-2S264.857,525.886,264.857,526.934z"/>
	
		<path id="path3298" sodipodi:ry="2.0000615" sodipodi:rx="2.0013857" sodipodi:cy="520.93359" sodipodi:cx="253.85576" sodipodi:type="arc" fill="none" d="
		M255.857,520.934c0,1.047-0.954,2-2.001,2c-1.047,0-1.999-0.953-1.999-2s0.952-2,1.999-2
		C254.904,518.934,255.857,519.886,255.857,520.934z"/>
	
		<path id="path3300" sodipodi:ry="2.0000615" sodipodi:rx="2.0013857" sodipodi:cy="520.93359" sodipodi:cx="271.85577" sodipodi:type="arc" fill="none" d="
		M273.857,520.934c0,1.047-0.954,2-2.001,2c-1.047,0-1.999-0.953-1.999-2s0.952-2,1.999-2S273.857,519.886,273.857,520.934z"/>
	
		<path id="path3322" sodipodi:arg2="1.3089969" sodipodi:arg1="0.26179939" sodipodi:r2="4.2357626" sodipodi:r1="8.4715252" sodipodi:cy="533.88507" sodipodi:cx="235.85194" sodipodi:sides="3" sodipodi:type="star" inkscape:transform-center-y="-1.1666704" inkscape:randomized="0" inkscape:rounded="0" inkscape:flatsided="true" fill="none" d="
		M273.857,535.934h-22l11-7L273.857,535.934z"/>
	
		<path id="path4143" sodipodi:ry="2.0000615" sodipodi:rx="2.0013857" sodipodi:cy="529.13367" sodipodi:cx="258.85577" sodipodi:type="arc" fill="none" d="
		M260.857,529.134c0,1.047-0.954,2-2.001,2c-1.047,0-1.999-0.953-1.999-2s0.952-2,1.999-2S260.857,528.086,260.857,529.134z"/>
	
		<path id="path4145" sodipodi:ry="2.0000615" sodipodi:rx="2.0013857" sodipodi:cy="529.13367" sodipodi:cx="266.85577" sodipodi:type="arc" fill="none" d="
		M268.857,529.134c0,1.047-0.954,2-2.001,2c-1.047,0-1.999-0.953-1.999-2s0.952-2,1.999-2S268.857,528.086,268.857,529.134z"/>
</g>
</svg>
