<?xml version="1.0" encoding="utf-8"?>
<!-- Generator: Adobe Illustrator 17.0.0, SVG Export Plug-In . SVG Version: 6.00 Build 0)  -->
<!DOCTYPE svg PUBLIC "-//W3C//DTD SVG 1.1//EN" "http://www.w3.org/Graphics/SVG/1.1/DTD/svg11.dtd">
<svg version="1.1"
	 id="svg3979" xmlns:dc="http://purl.org/dc/elements/1.1/" xmlns:cc="http://creativecommons.org/ns#" xmlns:rdf="http://www.w3.org/1999/02/22-rdf-syntax-ns#" xmlns:svg="http://www.w3.org/2000/svg" xmlns:sodipodi="http://sodipodi.sourceforge.net/DTD/sodipodi-0.dtd" xmlns:inkscape="http://www.inkscape.org/namespaces/inkscape" sodipodi:docname="extract-archive.svg" inkscape:version="0.48+devel r12677"
	 xmlns="http://www.w3.org/2000/svg" xmlns:xlink="http://www.w3.org/1999/xlink" x="0px" y="0px" width="48px" height="48px"
	 viewBox="0 0 48 48" enable-background="new 0 0 48 48" xml:space="preserve">
<sodipodi:namedview  fit-margin-left="0" fit-margin-top="0" showgrid="false" inkscape:cy="25.770869" inkscape:cx="25.237647" inkscape:zoom="12.425907" borderopacity="1.0" bordercolor="#666666" pagecolor="#ffffff" id="base" inkscape:window-maximized="1" inkscape:window-y="30" inkscape:window-x="0" inkscape:window-height="714" inkscape:window-width="1366" inkscape:current-layer="layer1" inkscape:document-units="px" inkscape:pageopacity="0.0" fit-margin-right="0" fit-margin-bottom="0" inkscape:pageshadow="2">
	<sodipodi:guide  orientation="30.000031,0" position="1.4433594e-05,39" id="guide3271"></sodipodi:guide>
	<sodipodi:guide  orientation="0,30" position="1.4433594e-05,8.9999696" id="guide3273"></sodipodi:guide>
	<sodipodi:guide  orientation="-30.000031,0" position="30.000014,8.9999696" id="guide3275"></sodipodi:guide>
	<sodipodi:guide  orientation="0,-30" position="30.000014,39" id="guide3277"></sodipodi:guide>
	<sodipodi:guide  orientation="18,0" position="30.000014,26.99997" id="guide3279"></sodipodi:guide>
	<sodipodi:guide  orientation="0,18" position="30.000014,8.9999696" id="guide3281"></sodipodi:guide>
	<sodipodi:guide  orientation="-18,0" position="48.000014,8.9999696" id="guide3283"></sodipodi:guide>
	<sodipodi:guide  orientation="0,-18" position="48.000014,26.99997" id="guide3285"></sodipodi:guide>
	<sodipodi:guide  orientation="-3.9999999,0" position="25.999996,8.9999697" id="guide3289"></sodipodi:guide>
	<sodipodi:guide  orientation="3.9999999,0" position="29.999996,12.99997" id="guide3293"></sodipodi:guide>
	<sodipodi:guide  orientation="0,-3.9999999" position="29.999996,8.9999697" id="guide3295"></sodipodi:guide>
	<sodipodi:guide  orientation="18,0" position="22.000014,26.99997" id="guide3309"></sodipodi:guide>
	<sodipodi:guide  orientation="0,4" position="22.000014,8.9999696" id="guide3311"></sodipodi:guide>
	<sodipodi:guide  orientation="-18,0" position="26.000014,8.9999696" id="guide3313"></sodipodi:guide>
	<sodipodi:guide  orientation="0,-4" position="26.000014,26.99997" id="guide3315"></sodipodi:guide>
	<sodipodi:guide  orientation="11,0" position="22.000014,39" id="guide3321"></sodipodi:guide>
	<sodipodi:guide  orientation="0,4" position="22.000014,28" id="guide3323"></sodipodi:guide>
	<sodipodi:guide  orientation="-11,0" position="26.000014,28" id="guide3325"></sodipodi:guide>
	<sodipodi:guide  orientation="0,-4" position="26.000014,39" id="guide3327"></sodipodi:guide>
	<sodipodi:guide  orientation="4,0" position="1.4433594e-05,39" id="guide3439"></sodipodi:guide>
	<sodipodi:guide  orientation="0,11" position="1.4433594e-05,35" id="guide3441"></sodipodi:guide>
	<sodipodi:guide  orientation="-4,0" position="11.000014,35" id="guide3443"></sodipodi:guide>
	<sodipodi:guide  orientation="0,-11" position="11.000014,39" id="guide3445"></sodipodi:guide>
	<sodipodi:guide  orientation="4,0" position="15.000014,39" id="guide3447"></sodipodi:guide>
	<sodipodi:guide  orientation="0,11" position="15.000014,35" id="guide3449"></sodipodi:guide>
	<sodipodi:guide  orientation="-4,0" position="26.000014,35" id="guide3451"></sodipodi:guide>
	<sodipodi:guide  orientation="0,-11" position="26.000014,39" id="guide3453"></sodipodi:guide>
</sodipodi:namedview>
<g id="layer1" transform="translate(-601.71428,-491.21933)" inkscape:label="Capa 1" inkscape:groupmode="layer">
	<path id="rect3263" inkscape:connector-curvature="0" sodipodi:nodetypes="cccccccccc" fill="#DCDCDC" d="M601.714,508.219v22h26
		v-22H601.714z M605.714,512.219h18v14h-18V512.219z"/>
	<rect id="rect3265" x="631.714" y="512.219" fill="none" width="18" height="18"/>
	<rect id="rect3372" x="638.714" y="519.219" fill="#DCDCDC" width="4" height="11"/>
	
		<path id="path3329" sodipodi:ry="2.0000615" sodipodi:rx="2.0013857" sodipodi:cy="528.21936" sodipodi:cx="614.71289" sodipodi:type="arc" fill="none" d="
		M616.714,528.219c0,1.105-0.896,2-2.001,2l0,0c-1.105,0-2.001-0.895-2.001-2l0,0c0-1.105,0.896-2,2.001-2l0,0
		C615.818,526.219,616.714,527.115,616.714,528.219L616.714,528.219z"/>
	<ellipse id="path3333" fill="none" cx="603.714" cy="515.219" rx="2" ry="2"/>
	
		<path id="path3417" sodipodi:ry="2.0000615" sodipodi:rx="2.0013857" sodipodi:cy="502.21933" sodipodi:cx="614.71289" sodipodi:type="arc" fill="none" d="
		M616.714,502.219c0,1.105-0.896,2-2.001,2l0,0c-1.105,0-2.001-0.895-2.001-2c0,0,0,0,0,0c0-1.105,0.896-2,2.001-2l0,0
		C615.818,500.219,616.714,501.115,616.714,502.219C616.714,502.219,616.714,502.219,616.714,502.219z"/>
	
		<path id="path3419" sodipodi:arg2="1.5707963" sodipodi:arg1="0.52359878" sodipodi:r2="2.9928446" sodipodi:r1="5.9856892" sodipodi:cy="515.01929" sodipodi:cx="639.57825" sodipodi:sides="3" sodipodi:type="star" inkscape:transform-center-y="-1.8333129" inkscape:randomized="0" inkscape:rounded="0" inkscape:flatsided="true" inkscape:transform-center-x="-2.0424436e-05" fill="#DCDCDC" d="
		M649.714,523.219h-18l9-11L649.714,523.219z"/>
	
		<path id="path3421" sodipodi:ry="2.0000615" sodipodi:rx="2.0013857" sodipodi:cy="528.21936" sodipodi:cx="633.71289" sodipodi:type="arc" fill="none" d="
		M635.714,528.219c0,1.105-0.896,2-2.001,2l0,0c-1.105,0-2.001-0.895-2.001-2l0,0c0-1.105,0.896-2,2.001-2l0,0
		C634.818,526.219,635.714,527.115,635.714,528.219L635.714,528.219z"/>
	
		<path id="path3423" sodipodi:ry="2.0000615" sodipodi:rx="2.0013857" sodipodi:cy="528.21936" sodipodi:cx="647.71289" sodipodi:type="arc" fill="none" d="
		M649.714,528.219c0,1.105-0.896,2-2.001,2l0,0c-1.105,0-2.001-0.895-2.001-2l0,0c0-1.105,0.896-2,2.001-2l0,0
		C648.818,526.219,649.714,527.115,649.714,528.219L649.714,528.219z"/>
	<rect id="rect3427" x="601.714" y="500.219" fill="#DCDCDC" width="11" height="4"/>
	<rect id="rect3429" x="616.714" y="500.219" fill="#DCDCDC" width="11" height="4"/>
	
		<path id="path3433" sodipodi:ry="2.0000615" sodipodi:rx="2.0013857" sodipodi:cy="506.21933" sodipodi:cx="614.71289" sodipodi:type="arc" fill="none" d="
		M616.714,506.219c0,1.105-0.896,2-2.001,2l0,0c-1.105,0-2.001-0.895-2.001-2c0,0,0,0,0,0c0-1.105,0.896-2,2.001-2l0,0
		C615.818,504.219,616.714,505.115,616.714,506.219C616.714,506.219,616.714,506.219,616.714,506.219z"/>
</g>
</svg>
