<?xml version="1.0" encoding="utf-8"?>
<!-- Generator: Adobe Illustrator 17.0.0, SVG Export Plug-In . SVG Version: 6.00 Build 0)  -->
<!DOCTYPE svg PUBLIC "-//W3C//DTD SVG 1.1//EN" "http://www.w3.org/Graphics/SVG/1.1/DTD/svg11.dtd">
<svg version="1.1"
	 id="svg4105" xmlns:dc="http://purl.org/dc/elements/1.1/" xmlns:cc="http://creativecommons.org/ns#" xmlns:rdf="http://www.w3.org/1999/02/22-rdf-syntax-ns#" xmlns:svg="http://www.w3.org/2000/svg" xmlns:sodipodi="http://sodipodi.sourceforge.net/DTD/sodipodi-0.dtd" xmlns:inkscape="http://www.inkscape.org/namespaces/inkscape" sodipodi:docname="go-home.svg" inkscape:version="0.48+devel r12660"
	 xmlns="http://www.w3.org/2000/svg" xmlns:xlink="http://www.w3.org/1999/xlink" x="0px" y="0px" width="48px" height="48px"
	 viewBox="0 0 48 48" enable-background="new 0 0 48 48" xml:space="preserve">
<sodipodi:namedview  showguides="true" showgrid="false" inkscape:cy="21.678663" inkscape:cx="10.293491" inkscape:zoom="12.067318" borderopacity="1.0" bordercolor="#666666" pagecolor="#ffffff" id="base" inkscape:window-maximized="1" inkscape:window-y="30" inkscape:window-x="0" inkscape:window-height="714" inkscape:window-width="1366" inkscape:current-layer="layer1" inkscape:document-units="px" inkscape:pageopacity="0.0" inkscape:pageshadow="2">
	<sodipodi:guide  orientation="30,0" position="9,39.000017" id="guide3271"></sodipodi:guide>
	<sodipodi:guide  orientation="0,30" position="9,9.0000174" id="guide3273"></sodipodi:guide>
	<sodipodi:guide  orientation="-30,0" position="39,9.0000174" id="guide3275"></sodipodi:guide>
	<sodipodi:guide  orientation="0,-30" position="39,39.000017" id="guide3277"></sodipodi:guide>
</sodipodi:namedview>
<g id="layer1" transform="translate(0,-1004.3622)" inkscape:label="Capa 1" inkscape:groupmode="layer">
	<rect id="rect3287" x="9" y="1013.362" fill="none" width="30" height="30"/>
	<rect id="rect3289" x="11" y="1039.362" fill="#DCDCDC" width="26" height="4"/>
	<rect id="rect3291" x="33" y="1013.362" fill="#DCDCDC" width="4" height="11"/>
	<rect id="rect3293" x="11" y="1032.362" fill="#DCDCDC" width="4" height="11"/>
	
		<path id="path4097" sodipodi:ry="2.0000615" sodipodi:rx="2.0013857" sodipodi:cy="1041.3622" sodipodi:cx="23.998613" sodipodi:type="arc" fill="none" d="
		M26,1041.362c0,1.047-0.954,2-2.001,2c-1.047,0-1.999-0.953-1.999-2s0.952-2,1.999-2C25.046,1039.362,26,1040.315,26,1041.362z"/>
	
		<rect id="rect3280" x="19.479" y="1020.276" transform="matrix(-0.7071 -0.7071 0.7071 -0.7071 -671.499 1766.4087)" fill="#DCDCDC" width="21.213" height="4"/>
	
		<rect id="rect3282" x="7.308" y="1020.276" transform="matrix(0.7071 -0.7071 0.7071 0.7071 -717.6116 312.0851)" fill="#DCDCDC" width="21.213" height="4"/>
	
		<path id="path4124" sodipodi:ry="1.0000308" sodipodi:rx="1.0006928" sodipodi:cy="1042.3622" sodipodi:cx="9.9993067" sodipodi:type="arc" fill="none" d="
		M11,1042.362c0,0.524-0.477,1-1,1s-1-0.476-1-1s0.476-1,1-1S11,1041.839,11,1042.362z"/>
	
		<path id="path4126" sodipodi:ry="1.0000308" sodipodi:rx="1.0006928" sodipodi:cy="1042.3622" sodipodi:cx="37.999306" sodipodi:type="arc" fill="none" d="
		M39,1042.362c0,0.524-0.477,1-1,1s-1-0.476-1-1s0.476-1,1-1S39,1041.839,39,1042.362z"/>
	
		<path id="path4099" sodipodi:ry="2.0000615" sodipodi:rx="2.0013857" sodipodi:cy="1015.3622" sodipodi:cx="23.998613" sodipodi:type="arc" fill="none" d="
		M26,1015.362c0,1.047-0.954,2-2.001,2c-1.047,0-1.999-0.953-1.999-2s0.952-2,1.999-2C25.046,1013.362,26,1014.315,26,1015.362z"/>
	<rect id="rect3273" x="33" y="1032.362" fill="#DCDCDC" width="4" height="11"/>
</g>
</svg>
