<?xml version="1.0" encoding="utf-8"?>
<!-- Generator: Adobe Illustrator 17.0.0, SVG Export Plug-In . SVG Version: 6.00 Build 0)  -->
<!DOCTYPE svg PUBLIC "-//W3C//DTD SVG 1.1//EN" "http://www.w3.org/Graphics/SVG/1.1/DTD/svg11.dtd">
<svg version="1.1"
	 id="svg18109" xmlns:dc="http://purl.org/dc/elements/1.1/" xmlns:cc="http://creativecommons.org/ns#" xmlns:rdf="http://www.w3.org/1999/02/22-rdf-syntax-ns#" xmlns:svg="http://www.w3.org/2000/svg" xmlns:sodipodi="http://sodipodi.sourceforge.net/DTD/sodipodi-0.dtd" xmlns:inkscape="http://www.inkscape.org/namespaces/inkscape" sodipodi:docname="gtk-jump-to-ltr.svg" inkscape:version="0.48+devel r12662"
	 xmlns="http://www.w3.org/2000/svg" xmlns:xlink="http://www.w3.org/1999/xlink" x="0px" y="0px" width="48px" height="48px"
	 viewBox="0 0 48 48" enable-background="new 0 0 48 48" xml:space="preserve">
<sodipodi:namedview  showgrid="false" inkscape:cy="24.63876" inkscape:cx="23.278084" inkscape:zoom="23.967943" borderopacity="1.0" bordercolor="#666666" pagecolor="#ffffff" id="base" inkscape:window-maximized="1" inkscape:window-y="30" inkscape:window-x="0" inkscape:window-height="714" inkscape:window-width="1366" inkscape:current-layer="layer1" inkscape:document-units="px" inkscape:pageopacity="0.0" inkscape:pageshadow="2">
	<sodipodi:guide  orientation="30,0" position="9,39.000017" id="guide3262"></sodipodi:guide>
	<sodipodi:guide  orientation="0,30" position="9,9.0000174" id="guide3264"></sodipodi:guide>
	<sodipodi:guide  orientation="-30,0" position="39,9.0000174" id="guide3266"></sodipodi:guide>
	<sodipodi:guide  orientation="11,0" position="39,39.000017" id="guide4174"></sodipodi:guide>
	<sodipodi:guide  orientation="0,4" position="35,39.000017" id="guide4180"></sodipodi:guide>
	<sodipodi:guide  orientation="-4,0" position="28,28.000017" id="guide4188"></sodipodi:guide>
	<sodipodi:guide  orientation="-11,0" position="39,9.0000174" id="guide3406"></sodipodi:guide>
	<sodipodi:guide  orientation="0,-4" position="39,20.000017" id="guide3408"></sodipodi:guide>
	<sodipodi:guide  orientation="0,4" position="35,9.0000174" id="guide3412"></sodipodi:guide>
	<sodipodi:guide  orientation="0,11" position="28,16.000017" id="guide3414"></sodipodi:guide>
	<sodipodi:guide  orientation="-4,0" position="39,16.000017" id="guide3416"></sodipodi:guide>
	<sodipodi:guide  orientation="0,-11" position="39,20.000017" id="guide3418"></sodipodi:guide>
	<sodipodi:guide  orientation="4,0" position="28,20.000017" id="guide3420"></sodipodi:guide>
	<sodipodi:guide  orientation="4,0" position="35,24.000017" id="guide3426"></sodipodi:guide>
	<sodipodi:guide  orientation="0,4" position="35,20.000017" id="guide3428"></sodipodi:guide>
	<sodipodi:guide  orientation="-4,0" position="39,20.000017" id="guide3430"></sodipodi:guide>
	<sodipodi:guide  orientation="0,-4" position="39,24.000017" id="guide3432"></sodipodi:guide>
</sodipodi:namedview>
<g id="layer1" transform="translate(0,-1004.3622)" inkscape:label="Capa 1" inkscape:groupmode="layer">
	<path id="path3270" inkscape:connector-curvature="0" fill="#DCDCDC" d="M24.006,1043.362c3.927,0,7.829-1.618,10.604-4.395
		c1.819-1.821,3.128-4.128,3.822-6.605h-4.203c-0.551,1.408-1.378,2.708-2.447,3.777c-2.035,2.036-4.895,3.223-7.775,3.223
		c-2.88,0-5.744-1.184-7.781-3.221c-2.038-2.036-3.225-4.899-3.225-7.779s1.187-5.743,3.225-7.779
		c2.036-2.035,4.897-3.219,7.775-3.221v-4c-3.925,0-7.826,1.617-10.604,4.393c-2.778,2.777-4.396,6.68-4.396,10.607
		s1.618,7.831,4.396,10.607S20.079,1043.362,24.006,1043.362z"/>
	
		<path id="path3274" sodipodi:ry="2.0000615" sodipodi:rx="2.0013857" sodipodi:cy="-1015.3622" sodipodi:cx="-24.001387" sodipodi:type="arc" fill="none" d="
		M22,1015.362c0-1.047,0.954-2,2.001-2c1.047,0,1.999,0.953,1.999,2s-0.952,2-1.999,2C22.954,1017.362,22,1016.409,22,1015.362z"/>
	<rect id="rect4125" x="35" y="1032.362" fill="#DCDCDC" width="4" height="11"/>
	<rect id="rect4127" x="28" y="1032.362" fill="#DCDCDC" width="11" height="4"/>
	<path id="path3424" inkscape:connector-curvature="0" fill="#DCDCDC" d="M39,1024.862c0,1.833-1.669,3.5-3.502,3.5
		c-1.833,0-3.498-1.667-3.498-3.5s1.666-3.5,3.498-3.5C37.331,1021.362,39,1023.029,39,1024.862z"/>
</g>
</svg>
