<?xml version="1.0" encoding="utf-8"?>
<!-- Generator: Adobe Illustrator 17.0.0, SVG Export Plug-In . SVG Version: 6.00 Build 0)  -->
<!DOCTYPE svg PUBLIC "-//W3C//DTD SVG 1.1//EN" "http://www.w3.org/Graphics/SVG/1.1/DTD/svg11.dtd">
<svg version="1.1"
	 id="svg2" xmlns:dc="http://purl.org/dc/elements/1.1/" xmlns:cc="http://creativecommons.org/ns#" xmlns:rdf="http://www.w3.org/1999/02/22-rdf-syntax-ns#" xmlns:svg="http://www.w3.org/2000/svg" xmlns:sodipodi="http://sodipodi.sourceforge.net/DTD/sodipodi-0.dtd" xmlns:inkscape="http://www.inkscape.org/namespaces/inkscape" sodipodi:docname="mail-encrytped.svg" inkscape:version="0.48+devel r12662"
	 xmlns="http://www.w3.org/2000/svg" xmlns:xlink="http://www.w3.org/1999/xlink" x="0px" y="0px" width="48px" height="48px"
	 viewBox="0 0 48 48" enable-background="new 0 0 48 48" xml:space="preserve">
<sodipodi:namedview  showgrid="true" inkscape:cy="30.802825" inkscape:cx="31.880739" inkscape:zoom="11.644018" borderopacity="1.0" bordercolor="#666666" pagecolor="#ffffff" id="base" inkscape:window-maximized="1" inkscape:window-y="30" inkscape:window-x="0" inkscape:window-height="714" inkscape:window-width="1366" inkscape:current-layer="layer1" inkscape:document-units="px" inkscape:pageopacity="0.0" inkscape:pageshadow="2">
	<sodipodi:guide  orientation="30,0" position="9,39.000017" id="guide3264"></sodipodi:guide>
	<sodipodi:guide  orientation="0,30" position="9,9.0000174" id="guide3266"></sodipodi:guide>
	<sodipodi:guide  orientation="-30,0" position="39,9.0000174" id="guide3268"></sodipodi:guide>
	<sodipodi:guide  orientation="0,-30" position="39,39.000017" id="guide3270"></sodipodi:guide>
	<sodipodi:guide  orientation="0,4" position="16,24.000017" id="guide3326"></sodipodi:guide>
	<sodipodi:guide  orientation="0,-4" position="20,28.000017" id="guide3330"></sodipodi:guide>
</sodipodi:namedview>
<g id="layer1" transform="translate(0,-1004.3622)" inkscape:label="Capa 1" inkscape:groupmode="layer">
	<rect id="rect3260" x="9" y="1013.362" fill="none" width="30" height="30"/>
	<rect id="rect3272" x="13" y="1028.362" fill="#DCDCDC" width="22" height="15"/>
	
		<path id="path3282" sodipodi:ry="3.5001078" sodipodi:rx="3.502425" sodipodi:cy="1028.3622" sodipodi:cx="12.497575" sodipodi:type="arc" fill="none" d="
		M16,1028.362c0,1.833-1.669,3.5-3.502,3.5S9,1030.195,9,1028.362c0-1.833,1.666-3.5,3.498-3.5S16,1026.53,16,1028.362z"/>
	
		<path id="path3274" sodipodi:ry="2.0000615" sodipodi:rx="2.0013857" sodipodi:cy="1028.3622" sodipodi:cx="10.998614" sodipodi:type="arc" fill="none" d="
		M13,1028.362c0,1.047-0.954,2-2.001,2c-1.047,0-1.999-0.953-1.999-2s0.952-2,1.999-2C12.046,1026.362,13,1027.315,13,1028.362z"/>
	
		<path id="path3280" sodipodi:ry="3.5001078" sodipodi:rx="3.502425" sodipodi:cy="1028.3622" sodipodi:cx="35.497578" sodipodi:type="arc" fill="none" d="
		M39,1028.362c0,1.833-1.669,3.5-3.502,3.5s-3.498-1.668-3.498-3.5c0-1.833,1.666-3.5,3.498-3.5S39,1026.53,39,1028.362z"/>
	
		<path id="path3276" sodipodi:ry="2.0000615" sodipodi:rx="2.0013857" sodipodi:cy="1028.3622" sodipodi:cx="36.998615" sodipodi:type="arc" fill="none" d="
		M39,1028.362c0,1.047-0.954,2-2.001,2c-1.047,0-1.999-0.953-1.999-2s0.952-2,1.999-2C38.046,1026.362,39,1027.315,39,1028.362z"/>
	<path id="rect3278" fill="#DCDCDC" d="M23.5,1013.362c-4.155,0-7.5,3.345-7.5,7.5v7.5h4v-6.98h0.002
		c0-0.007-0.002-0.013-0.002-0.02c0-2.216,1.784-4,4-4s4,1.784,4,4c0,0.007-0.002,0.013-0.002,0.02H28v6.98h4v-7.5
		c0-4.155-3.345-7.5-7.5-7.5H23.5z"/>
	
		<path id="path3286" sodipodi:ry="2.0000615" sodipodi:rx="2.0013857" sodipodi:cy="1015.3622" sodipodi:cx="23.99861" sodipodi:type="arc" fill="none" d="
		M26,1015.362c0,1.047-0.954,2-2.001,2c-1.047,0-1.999-0.953-1.999-2s0.952-2,1.999-2C25.046,1013.362,26,1014.315,26,1015.362z"/>
</g>
</svg>
