<?xml version="1.0" encoding="utf-8"?>
<!-- Generator: Adobe Illustrator 17.0.0, SVG Export Plug-In . SVG Version: 6.00 Build 0)  -->
<!DOCTYPE svg PUBLIC "-//W3C//DTD SVG 1.1//EN" "http://www.w3.org/Graphics/SVG/1.1/DTD/svg11.dtd">
<svg version="1.1"
	 id="svg18109" xmlns:dc="http://purl.org/dc/elements/1.1/" xmlns:cc="http://creativecommons.org/ns#" xmlns:rdf="http://www.w3.org/1999/02/22-rdf-syntax-ns#" xmlns:svg="http://www.w3.org/2000/svg" xmlns:sodipodi="http://sodipodi.sourceforge.net/DTD/sodipodi-0.dtd" xmlns:inkscape="http://www.inkscape.org/namespaces/inkscape" sodipodi:docname="object-rotate-left.svg" inkscape:version="0.48+devel r12662"
	 xmlns="http://www.w3.org/2000/svg" xmlns:xlink="http://www.w3.org/1999/xlink" x="0px" y="0px" width="48px" height="48px"
	 viewBox="0 0 48 48" enable-background="new 0 0 48 48" xml:space="preserve">
<sodipodi:namedview  showgrid="false" inkscape:cy="24.332245" inkscape:cx="14.461711" inkscape:zoom="11.983972" borderopacity="1.0" bordercolor="#666666" pagecolor="#ffffff" id="base" inkscape:window-maximized="1" inkscape:window-y="30" inkscape:window-x="0" inkscape:window-height="714" inkscape:window-width="1366" inkscape:current-layer="layer1" inkscape:document-units="px" inkscape:pageopacity="0.0" inkscape:pageshadow="2">
	<sodipodi:guide  orientation="30,0" position="9,39.000017" id="guide3262"></sodipodi:guide>
	<sodipodi:guide  orientation="0,30" position="9,9.0000174" id="guide3264"></sodipodi:guide>
	<sodipodi:guide  orientation="-30,0" position="39,9.0000174" id="guide3266"></sodipodi:guide>
	<sodipodi:guide  orientation="11,0" position="39,39.000017" id="guide4174"></sodipodi:guide>
	<sodipodi:guide  orientation="0,4" position="35,39.000017" id="guide4180"></sodipodi:guide>
	<sodipodi:guide  orientation="-11,0" position="39,9.0000174" id="guide3406"></sodipodi:guide>
	<sodipodi:guide  orientation="0,4" position="35,9.0000174" id="guide3412"></sodipodi:guide>
	<sodipodi:guide  orientation="-4,0" position="39,16.000017" id="guide3416"></sodipodi:guide>
	<sodipodi:guide  orientation="-4,0" position="39,20.000017" id="guide3430"></sodipodi:guide>
	<sodipodi:guide  orientation="11,0" position="9,39.000017" id="guide3287"></sodipodi:guide>
	<sodipodi:guide  orientation="0,4" position="9,28.000017" id="guide3289"></sodipodi:guide>
	<sodipodi:guide  orientation="-11,0" position="13,28.000017" id="guide3291"></sodipodi:guide>
	<sodipodi:guide  orientation="0,-4" position="13,39.000017" id="guide3293"></sodipodi:guide>
	<sodipodi:guide  orientation="0,-11" position="20,32.000017" id="guide3295"></sodipodi:guide>
	<sodipodi:guide  orientation="4,0" position="9,32.000017" id="guide3297"></sodipodi:guide>
	<sodipodi:guide  orientation="0,11" position="9,28.000017" id="guide3299"></sodipodi:guide>
	<sodipodi:guide  orientation="-4,0" position="20,28.000017" id="guide3301"></sodipodi:guide>
</sodipodi:namedview>
<g id="layer1" transform="translate(0,-1004.3622)" inkscape:label="Capa 1" inkscape:groupmode="layer">
	<path id="path3270" inkscape:connector-curvature="0" fill="#DCDCDC" d="M23.994,1013.362c-3.927,0-7.829,1.618-10.604,4.394
		c-1.819,1.821-3.128,4.128-3.822,6.606h4.203c0.551-1.408,1.378-2.708,2.447-3.777c2.035-2.036,4.895-3.222,7.775-3.223
		c2.88,0,5.744,1.184,7.781,3.221c2.038,2.036,3.225,4.899,3.225,7.779s-1.187,5.743-3.225,7.779
		c-2.036,2.035-4.897,3.219-7.775,3.221v4c3.925,0,7.826-1.617,10.604-4.393c2.778-2.777,4.396-6.68,4.396-10.607
		s-1.618-7.831-4.396-10.607C31.825,1014.978,27.921,1013.362,23.994,1013.362z"/>
	
		<path id="path3274" sodipodi:ry="2.0000615" sodipodi:rx="2.0013857" sodipodi:cy="1041.3622" sodipodi:cx="23.998613" sodipodi:type="arc" fill="none" d="
		M26,1041.362L26,1041.362L26,1041.362z"/>
	<rect id="rect4125" x="9" y="1013.362" fill="#DCDCDC" width="4" height="11"/>
	<rect id="rect4127" x="9" y="1020.362" fill="#DCDCDC" width="11" height="4"/>
	<path id="path3424" inkscape:connector-curvature="0" fill="#DCDCDC" d="M27.5,1028.362c0,1.833-1.669,3.5-3.502,3.5
		c-1.833,0-3.498-1.667-3.498-3.5s1.666-3.5,3.498-3.5C25.831,1024.862,27.5,1026.53,27.5,1028.362z"/>
</g>
</svg>
