<?xml version="1.0" encoding="utf-8"?>
<!-- Generator: Adobe Illustrator 17.0.0, SVG Export Plug-In . SVG Version: 6.00 Build 0)  -->
<!DOCTYPE svg PUBLIC "-//W3C//DTD SVG 1.1//EN" "http://www.w3.org/Graphics/SVG/1.1/DTD/svg11.dtd">
<svg version="1.1"
	 id="svg4355" xmlns:dc="http://purl.org/dc/elements/1.1/" xmlns:cc="http://creativecommons.org/ns#" xmlns:rdf="http://www.w3.org/1999/02/22-rdf-syntax-ns#" xmlns:svg="http://www.w3.org/2000/svg" xmlns:sodipodi="http://sodipodi.sourceforge.net/DTD/sodipodi-0.dtd" xmlns:inkscape="http://www.inkscape.org/namespaces/inkscape" sodipodi:docname="window_nofullscreen.svg" inkscape:version="0.48+devel r12660"
	 xmlns="http://www.w3.org/2000/svg" xmlns:xlink="http://www.w3.org/1999/xlink" x="0px" y="0px" width="48px" height="48px"
	 viewBox="0 0 48 48" enable-background="new 0 0 48 48" xml:space="preserve">
<sodipodi:namedview  fit-margin-left="0" fit-margin-top="0" showgrid="false" inkscape:cy="23.351779" inkscape:cx="3.3849742" inkscape:zoom="11.694048" borderopacity="1.0" bordercolor="#666666" pagecolor="#ffffff" id="base" inkscape:window-maximized="1" inkscape:window-y="30" inkscape:window-x="0" inkscape:window-height="714" inkscape:window-width="1366" inkscape:current-layer="layer1" inkscape:document-units="px" inkscape:pageopacity="0.0" fit-margin-right="0" fit-margin-bottom="0" inkscape:pageshadow="2" width="0px" height="0px">
	<sodipodi:guide  orientation="30,0" position="9.0000011,38.999996" id="guide3298"></sodipodi:guide>
	<sodipodi:guide  orientation="0,30" position="9.0000011,8.9999962" id="guide3300"></sodipodi:guide>
	<sodipodi:guide  orientation="-30,0" position="39.000001,8.9999962" id="guide3302"></sodipodi:guide>
	<sodipodi:guide  orientation="0,-30" position="39.000001,38.999996" id="guide3304"></sodipodi:guide>
</sodipodi:namedview>
<g id="layer1" transform="translate(-544.57141,-716.93359)" inkscape:label="Capa 1" inkscape:groupmode="layer">
	<rect id="rect3272" x="553.571" y="725.934" fill="none" width="11" height="11"/>
	<rect id="rect3274" x="572.571" y="744.934" fill="none" width="11" height="11"/>
	<rect id="rect3276" x="572.571" y="725.934" fill="none" width="11" height="11"/>
	<rect id="rect3278" x="553.571" y="744.934" fill="none" width="11" height="11"/>
	<rect id="rect3286" x="553.571" y="725.934" fill="none" width="30" height="30"/>
	<rect id="rect3308" x="560.571" y="744.933" fill="#DCDCDC" width="4" height="11"/>
	<rect id="rect3310" x="572.571" y="744.933" fill="#DCDCDC" width="4" height="11"/>
	<rect id="rect3312" x="560.571" y="725.934" fill="#DCDCDC" width="4" height="11"/>
	<rect id="rect3314" x="572.571" y="725.934" fill="#DCDCDC" width="4" height="11"/>
	<rect id="rect3316" x="572.571" y="744.933" fill="#DCDCDC" width="11" height="4"/>
	<rect id="rect3318" x="553.571" y="732.934" fill="#DCDCDC" width="11" height="4"/>
	<rect id="rect3320" x="572.571" y="732.934" fill="#DCDCDC" width="11" height="4"/>
	<rect id="rect3322" x="553.571" y="744.933" fill="#DCDCDC" width="11" height="4"/>
	
		<rect id="rect3280" x="557.071" y="725.655" transform="matrix(0.7071 -0.7071 0.7071 0.7071 -353.4534 609.5551)" fill="#DCDCDC" width="4" height="11.557"/>
	
		<rect id="rect3282" x="576.071" y="725.655" transform="matrix(0.7071 0.7071 -0.7071 0.7071 686.5148 -194.5261)" fill="#DCDCDC" width="4" height="11.557"/>
	
		<rect id="rect3284" x="557.071" y="744.655" transform="matrix(0.7071 0.7071 -0.7071 0.7071 694.3848 -175.5263)" fill="#DCDCDC" width="4" height="11.557"/>
	
		<rect id="rect3287" x="576.071" y="744.655" transform="matrix(0.7071 -0.7071 0.7071 0.7071 -361.3234 628.5549)" fill="#DCDCDC" width="4" height="11.557"/>
</g>
</svg>
