<?xml version="1.0" encoding="utf-8"?>
<!-- Generator: Adobe Illustrator 17.0.0, SVG Export Plug-In . SVG Version: 6.00 Build 0)  -->
<!DOCTYPE svg PUBLIC "-//W3C//DTD SVG 1.1//EN" "http://www.w3.org/Graphics/SVG/1.1/DTD/svg11.dtd">
<svg version="1.1" id="图层_1" xmlns="http://www.w3.org/2000/svg" xmlns:xlink="http://www.w3.org/1999/xlink" x="0px" y="0px"
	 width="22px" height="22px" viewBox="1 1 22 22" enable-background="new 1 1 22 22" xml:space="preserve">
<g>
	<path fill="#C4DCED" stroke="#9DBCD7" stroke-miterlimit="10" d="M22.476,19.735c0,1.527-1.238,2.765-2.765,2.765H4.241
		c-1.527,0-2.765-1.238-2.765-2.765V4.265c0-1.527,1.238-2.765,2.765-2.765h15.471c1.527,0,2.765,1.238,2.765,2.765L22.476,19.735
		L22.476,19.735z"/>
	<path opacity="0.6" fill="none" stroke="#FFFFFF" stroke-miterlimit="10" enable-background="new    " d="M4.241,21.543
		c-0.997,0-1.808-0.811-1.808-1.808V4.265c0-0.997,0.811-1.808,1.808-1.808h15.471c0.997,0,1.808,0.811,1.808,1.808v15.47
		c-0.001,0.997-0.812,1.808-1.809,1.808C19.711,21.543,4.241,21.543,4.241,21.543z"/>
	<path opacity="0.05" fill="none" stroke="#000000" stroke-width="0.3786" stroke-miterlimit="10" enable-background="new    " d="
		M22.551,7.477c0,0,0-0.929-0.917-0.929c-2.664,0-11.166,0.002-11.928,0.002c-0.925,0-0.917-0.915-0.917-0.915s0-0.922-0.917-0.922
		c-1.607,0-4.823,0-5.505,0c-0.903,0-0.917,0.888-0.917,0.916"/>
	
		<linearGradient id="SVGID_1_" gradientUnits="userSpaceOnUse" x1="1679.9751" y1="2091.5" x2="1679.9751" y2="2074.1851" gradientTransform="matrix(1 0 0 1 -1668 -2069)">
		<stop  offset="0" style="stop-color:#D1E0ED"/>
		<stop  offset="1" style="stop-color:#E4EEFB"/>
	</linearGradient>
	<path fill="url(#SVGID_1_)" stroke="#9DBCD7" stroke-miterlimit="10" d="M4.234,22.5h15.528c1.527,0,2.712-1.27,2.712-2.796V7.307
		c0-0.217-0.326-0.422-0.758-0.422c-2.675,0-11.202,0.002-11.967,0.002c-0.929,0-0.915-0.847-0.915-0.847s0.007-0.854-0.915-0.854
		c-1.613,0-4.845,0-5.529,0c-0.908,0-0.915,0.753-0.915,0.78v13.739C1.476,21.23,2.708,22.5,4.234,22.5z"/>
	<path opacity="0.8" fill="none" stroke="#FFFFFF" stroke-miterlimit="10" enable-background="new    " d="M4.234,21.543
		c-0.993,0-1.801-0.825-1.801-1.839V6.149l5.446-0.007c0.015,0.215,0.094,0.744,0.514,1.172C8.631,7.556,9.06,7.844,9.75,7.844
		l11.768-0.001v11.861c0,1.015-0.787,1.839-1.755,1.839L4.234,21.543L4.234,21.543z"/>
	<g opacity="0.3" enable-background="new    ">
		<g>
			<rect x="4.164" y="10.037" fill="#FFFFFF" width="15.67" height="9.651"/>
		</g>
		<g>
			<rect x="4.164" y="9.618" fill="#669CCC" width="15.67" height="9.651"/>
		</g>
	</g>
	<rect x="16.619" y="9.618" opacity="0.3" fill="#669CCC" enable-background="new    " width="3.217" height="9.651"/>
	<polygon opacity="0.3" fill="#669CCC" enable-background="new    " points="15.043,16.564 8.955,16.564 8.466,19.269 
		15.534,19.269 	"/>
	<rect x="4.643" y="10.097" opacity="0.3" fill="none" stroke="#669CCC" stroke-miterlimit="10" width="14.712" height="8.693"/>
	<rect x="16.619" y="9.656" opacity="0.3" fill="#669CCC" width="0.957" height="9.574"/>
</g>
</svg>
