<?xml version="1.0" encoding="utf-8"?>
<!-- Generator: Adobe Illustrator 17.0.0, SVG Export Plug-In . SVG Version: 6.00 Build 0)  -->
<!DOCTYPE svg PUBLIC "-//W3C//DTD SVG 1.1//EN" "http://www.w3.org/Graphics/SVG/1.1/DTD/svg11.dtd">
<svg version="1.1" id="图层_1" xmlns="http://www.w3.org/2000/svg" xmlns:xlink="http://www.w3.org/1999/xlink" x="0px" y="0px"
	 width="24px" height="24px" viewBox="4 4 24 24" enable-background="new 4 4 24 24" xml:space="preserve">
<path fill="#EBF2FB" stroke="#9DBCD7" stroke-miterlimit="10" d="M26.672,23.869c0,1.547-1.255,2.802-2.802,2.802H8.131
	c-1.547,0-2.802-1.255-2.802-2.802V8.131c0-1.547,1.254-2.802,2.802-2.802h15.739c1.547,0,2.802,1.255,2.802,2.802V23.869z"/>
<g id="g27_1_">
	
		<linearGradient id="path36_2_" gradientUnits="userSpaceOnUse" x1="1788.5001" y1="-2416.4963" x2="1791.457" y2="-2421.6182" gradientTransform="matrix(1 0 0 -1 -1782 -2411)">
		<stop  offset="0" style="stop-color:#FFFFFF"/>
		<stop  offset="0.5" style="stop-color:#FFFFFF;stop-opacity:0.6"/>
		<stop  offset="1" style="stop-color:#FFFFFF;stop-opacity:0.15"/>
	</linearGradient>
	<path id="path36_1_" fill="url(#path36_2_)" d="M8.939,11.489c0.33-0.684,0.734-1.326,1.198-1.918L9.294,7.724
		C8.574,8.404,7.99,9.153,7.524,9.881L8.939,11.489z"/>
	
		<linearGradient id="path45_2_" gradientUnits="userSpaceOnUse" x1="1791.1802" y1="-2415.73" x2="1793.1155" y2="-2419.082" gradientTransform="matrix(1 0 0 -1 -1782 -2411)">
		<stop  offset="0" style="stop-color:#FFFFFF"/>
		<stop  offset="0.5" style="stop-color:#FFFFFF;stop-opacity:0.6"/>
		<stop  offset="1" style="stop-color:#FFFFFF;stop-opacity:0.15"/>
	</linearGradient>
	<path id="path45_1_" fill="url(#path45_2_)" d="M9.025,5.948l0.44,0.965c0.424-0.352,0.888-0.473,1.394-0.965H9.025z"/>
	
		<linearGradient id="path54_2_" gradientUnits="userSpaceOnUse" x1="1791.7897" y1="-2415.0933" x2="1794.1542" y2="-2419.1885" gradientTransform="matrix(1 0 0 -1 -1782 -2411)">
		<stop  offset="0" style="stop-color:#FFFFFF"/>
		<stop  offset="0.5" style="stop-color:#FFFFFF;stop-opacity:0.6"/>
		<stop  offset="1" style="stop-color:#FFFFFF;stop-opacity:0.15"/>
	</linearGradient>
	<path id="path54_1_" fill="url(#path54_2_)" d="M12.329,5.948h-0.348c-0.878,0.492-1.646,0.868-2.305,1.428l0.807,1.771
		c0.69-0.797,1.49-1.494,2.386-2.058c0.007-0.006,0.012-0.012,0.019-0.018C13.892,6.204,12.895,5.948,12.329,5.948z"/>
	
		<linearGradient id="path63_2_" gradientUnits="userSpaceOnUse" x1="1786.8401" y1="-2418.8315" x2="1789.406" y2="-2423.2759" gradientTransform="matrix(1 0 0 -1 -1782 -2411)">
		<stop  offset="0" style="stop-color:#FFFFFF"/>
		<stop  offset="0.5" style="stop-color:#FFFFFF;stop-opacity:0.6"/>
		<stop  offset="1" style="stop-color:#FFFFFF;stop-opacity:0.15"/>
	</linearGradient>
	<path id="path63_1_" fill="url(#path63_2_)" d="M7.255,10.32c-0.54,0.919-0.893,1.769-1.102,2.35
		c0.248,0.353,0.658,0.586,1.122,0.586c0.576,0,1.067-0.356,1.27-0.858c0.052-0.14,0.116-0.275,0.173-0.413L7.255,10.32z"/>
	
		<linearGradient id="path72_2_" gradientUnits="userSpaceOnUse" x1="1786.7252" y1="-2419.0132" x2="1789.569" y2="-2423.9387" gradientTransform="matrix(1 0 0 -1 -1782 -2411)">
		<stop  offset="0" style="stop-color:#FFFFFF"/>
		<stop  offset="0.5" style="stop-color:#FFFFFF;stop-opacity:0.6"/>
		<stop  offset="1" style="stop-color:#FFFFFF;stop-opacity:0.15"/>
	</linearGradient>
	<path id="path72_1_" fill="url(#path72_2_)" d="M5.914,8.794l-0.011,3.087c0,0,0,0.001,0,0.002c0,0.019,0.005,0.038,0.006,0.057
		c0.235-0.572,0.563-1.269,1.007-2.007L5.914,8.794z"/>
	
		<linearGradient id="path149_2_" gradientUnits="userSpaceOnUse" x1="1788.8754" y1="-2417.4709" x2="1791.5455" y2="-2422.0959" gradientTransform="matrix(1 0 0 -1 -1782 -2411)">
		<stop  offset="0" style="stop-color:#FFFFFF"/>
		<stop  offset="0.5" style="stop-color:#FFFFFF;stop-opacity:0.6"/>
		<stop  offset="1" style="stop-color:#FFFFFF;stop-opacity:0.15"/>
	</linearGradient>
	<path id="path149_1_" fill="url(#path149_2_)" d="M8.439,5.954C7.435,5.87,6.114,7,5.945,8.084L7.19,9.5
		c0.497-0.758,1.115-1.535,1.877-2.236L8.439,5.954z"/>
</g>
<g>
	<path opacity="0.3" fill="#669CCC" enable-background="new    " d="M26.182,23.508c0,1.476-1.197,2.673-2.673,2.673H8.491
		c-1.476,0-2.673-1.197-2.673-2.673V8.492c0-1.476,1.197-2.673,2.673-2.673h15.018c1.477,0,2.674,1.197,2.674,2.673V23.508z"/>
	<g>
		<path opacity="0.9" fill="#FFFFFF" enable-background="new    " d="M20.148,19.492c0,0,0.939-1.344,0.863-3.231
			c-0.075,1.637-0.863,2.762-0.863,2.762c-1.973,2.771-5.446,4.794-7.128,5.666h0.866C15.71,23.663,18.468,21.848,20.148,19.492z"/>
		<path opacity="0.9" fill="#FFFFFF" enable-background="new    " d="M14.064,15.068c0.441,2.238,1.786,0.731,1.786,0.731
			c1.419-1.475,1.307-4.41,1.307-4.41c-0.002,0-0.004,0.002-0.004,0.002c-0.033,0.889-0.233,2.828-1.304,3.939
			c0,0-1.346,1.511-1.786-0.728c0,0-0.021-0.083-0.033-0.233C14.001,14.807,14.064,15.068,14.064,15.068z"/>
		<path opacity="0.9" fill="#FFFFFF" enable-background="new    " d="M12.848,13.274c0-0.026,0-0.053,0-0.079
			C12.848,13.202,12.848,13.227,12.848,13.274z"/>
		<path opacity="0.9" fill="#FFFFFF" enable-background="new    " d="M17.908,11.376c-0.024-0.005-0.042-0.008-0.042-0.008
			c0.047,0.419,0.07,0.8,0.073,1.154C17.948,12.175,17.939,11.795,17.908,11.376z"/>
		<path opacity="0.9" fill="#FFFFFF" enable-background="new    " d="M14.44,7.379c-0.262,0.453-1.664,2.998-1.59,5.758
			c0.082-2.574,1.342-4.861,1.59-5.288h4.071c0.222-0.185,0.432-0.349,0.61-0.47L14.44,7.379L14.44,7.379z"/>
		<path opacity="0.9" fill="#FFFFFF" enable-background="new    " d="M24.647,9.24L23.479,9.45c0,0-1.258,0.227-2.656,0.18
			c0,0-2.222,0.108-3.466,0.747c0,0-0.927,0.426-1.856,1.145c0,0-0.196,0.101-0.187,0.472c0.012,0.37-0.185,1.355-0.841,1.934
			c0,0-0.47,0.248-0.233,0.6c0,0,0.012,0.016,0.026,0.035c0.089-0.107,0.207-0.167,0.207-0.167c0.656-0.58,0.852-1.564,0.841-1.934
			c-0.009-0.37,0.187-0.472,0.187-0.472c0.242-0.187,0.483-0.353,0.707-0.499c0.002-0.053,0.009-0.105,0.012-0.16
			c0,0,0.362-0.32,0.939-0.414c0,0,0,0.013,0,0.025c0.122-0.062,0.198-0.098,0.198-0.098c1.244-0.639,3.466-0.746,3.466-0.746
			c1.4,0.046,2.656-0.181,2.656-0.181l1.168-0.211c0,0.035,0.009,0.07,0.009,0.105V9.343C24.656,9.309,24.647,9.276,24.647,9.24z"/>
		<path opacity="0.9" fill="#FFFFFF" enable-background="new    " d="M11.338,16.027c-1.048-1.127-2.696-4.515-2.866-8.454
			C7.809,7.889,7.347,8.562,7.347,9.345v0.468c0-0.782,0.463-1.455,1.125-1.772c0.169,3.939,1.817,7.329,2.866,8.456
			c1.072,1.152,2.652,2.376,4.672,1.866c2.019-0.509,2.425-2.724,2.425-2.724c0.134-0.565,0.167-1.163,0.152-1.722
			c-0.012,0.417-0.053,0.843-0.152,1.256c0,0-0.404,2.213-2.425,2.724C13.99,18.405,12.411,17.181,11.338,16.027z"/>
		<g>
			<g opacity="0.3">
				<path opacity="0.5" fill="#669CCC" enable-background="new    " d="M23.393,8.99c-0.009,0.002-1.013,0.179-2.189,0.179
					c-0.119,0-0.245-0.002-0.367-0.006c-0.134,0.004-2.376,0.121-3.695,0.797c-0.009,0.005-0.222,0.102-0.544,0.281
					c0.252-0.246,1.933-1.898,2.782-2.477l1.256-0.856h-6.467l-0.136,0.233c-0.294,0.503-1.748,3.167-1.652,6.058
					c-0.004,0.092-0.067,2.945,2.026,4.011c0.06,0.028,0.369,0.155,0.814,0.155c0.619,0,1.778-0.257,2.612-1.98
					c0.004-0.006,0.065-0.11,0.145-0.311c-0.04,0.185-0.434,1.949-2.084,2.366c-0.275,0.07-0.551,0.105-0.824,0.105
					c-1.13,0-2.24-0.601-3.391-1.835c-1.01-1.088-2.58-4.431-2.738-8.156L8.91,6.846L8.271,7.15
					C7.423,7.554,6.876,8.415,6.876,9.344v10.027l0.283,0.121c0.6,0.261,2.216,0.868,4.239,0.904l0.527,0.012
					c0.394,0.007,0.773,0.017,1.142,0.017c1.88-0.002,3.38-0.233,5.034-1.395c2.325-1.628,2.047-4.23,2.033-4.34
					c-0.007-0.3-0.04-0.598-0.096-0.887c1.29,2.653-0.191,4.834-0.273,4.95c-1.882,2.64-5.168,4.59-6.961,5.517l-1.709,0.884h11.593
					c1.344,0,2.436-1.092,2.436-2.435V9.345c0-0.044-0.005-0.085-0.012-0.127l-0.07-0.479l-0.481,0.041L23.393,8.99z M24.656,9.345
					v13.375c0,1.085-0.881,1.968-1.967,1.968h-9.668c1.682-0.872,5.154-2.894,7.128-5.666c0,0,2.812-4.011-1.673-7.916
					c0,0,1.155,1.812,1.195,3.639c0,0,0.287,2.416-1.837,3.902c-2.122,1.489-3.98,1.325-6.425,1.281
					c-1.955-0.035-3.513-0.628-4.059-0.866V9.345c0-0.782,0.463-1.455,1.125-1.772c0.169,3.939,1.817,7.326,2.866,8.454
					c1.072,1.153,2.652,2.378,4.672,1.868c2.019-0.51,2.425-2.724,2.425-2.724c0.443-1.887-0.198-4.126-0.232-4.173
					c-0.033-0.047-0.338-0.099-0.338-0.099c0.323,2.969-0.451,4.285-0.451,4.285c-1.127,2.329-2.794,1.611-2.794,1.611
					c-1.853-0.944-1.772-3.61-1.772-3.61c-0.091-2.778,1.325-5.352,1.59-5.808h4.68c-0.962,0.654-2.87,2.552-2.87,2.552
					c-2.721,2.537-2.187,4.67-2.187,4.67c0.441,2.238,1.786,0.728,1.786,0.728c1.419-1.475,1.307-4.409,1.307-4.409
					c-0.576,0.095-0.939,0.414-0.939,0.414c-0.067,1.957-1.214,3.171-1.214,3.171c-0.448,0.496-0.766,0.024-0.766,0.024
					c-0.236-0.354,0.233-0.6,0.233-0.6c0.656-0.578,0.852-1.564,0.841-1.934c-0.009-0.37,0.187-0.472,0.187-0.472
					c0.927-0.72,1.856-1.145,1.856-1.145c1.244-0.639,3.466-0.747,3.466-0.747c1.4,0.047,2.656-0.18,2.656-0.18l1.168-0.211
					C24.647,9.276,24.656,9.309,24.656,9.345z M14.746,15.185c0.173-0.032,0.389-0.128,0.602-0.367
					c0.044-0.044,1.175-1.261,1.324-3.231l0,0c-0.053,0.895-0.278,2.502-1.16,3.417c-0.143,0.156-0.407,0.356-0.569,0.356
					C14.886,15.358,14.818,15.302,14.746,15.185z"/>
			</g>
			<g opacity="0.9" enable-background="new    ">
				<path fill="#FFFFFF" d="M24.654,22.721h-0.002V9.344c0-0.035-0.009-0.07-0.009-0.105L23.476,9.45c0,0-1.256,0.227-2.656,0.18
					c0,0-2.222,0.109-3.466,0.747c0,0-0.929,0.425-1.856,1.145c0,0-0.196,0.101-0.187,0.472c0.011,0.37-0.185,1.355-0.841,1.934
					c0,0-0.47,0.246-0.233,0.6c0,0,0.318,0.472,0.766-0.024c0,0,1.148-1.214,1.214-3.171c0,0,0.362-0.32,0.939-0.414
					c0,0,0.111,2.934-1.307,4.409c0,0-1.345,1.511-1.786-0.728c0,0-0.534-2.133,2.187-4.67c0,0,1.909-1.898,2.87-2.552H14.44
					c-0.264,0.457-1.681,3.031-1.59,5.808c0,0-0.082,2.666,1.772,3.61c0,0,1.667,0.718,2.794-1.611c0,0,0.773-1.315,0.451-4.285
					c0,0,0.305,0.053,0.338,0.099c0.033,0.048,0.674,2.286,0.232,4.173c0,0-0.405,2.214-2.425,2.724
					c-2.021,0.51-3.6-0.715-4.672-1.868c-1.048-1.127-2.697-4.514-2.866-8.453C7.81,7.89,7.348,8.562,7.348,9.345v9.719
					c0.547,0.239,2.104,0.831,4.059,0.866c2.445,0.044,4.304,0.207,6.425-1.281c2.124-1.487,1.837-3.902,1.837-3.902
					c-0.04-1.826-1.195-3.639-1.195-3.639c4.485,3.906,1.673,7.916,1.673,7.916c-1.974,2.771-5.446,4.794-7.129,5.664h9.668
					C23.774,24.689,24.655,23.805,24.654,22.721L24.654,22.721L24.654,22.721L24.654,22.721z"/>
			</g>
		</g>
	</g>
</g>
<path opacity="0.6" fill="none" stroke="#FFFFFF" stroke-miterlimit="10" d="M8.13,25.671c-0.994,0-1.802-0.809-1.802-1.802V8.131
	c0-0.994,0.809-1.802,1.802-1.802H23.87c0.993,0,1.802,0.809,1.802,1.802v15.739c0,0.993-0.809,1.802-1.802,1.802H8.13z"/>
</svg>
