<?xml version="1.0" encoding="utf-8"?>
<!-- Generator: Adobe Illustrator 17.0.0, SVG Export Plug-In . SVG Version: 6.00 Build 0)  -->
<!DOCTYPE svg PUBLIC "-//W3C//DTD SVG 1.1//EN" "http://www.w3.org/Graphics/SVG/1.1/DTD/svg11.dtd">
<svg version="1.1" id="图层_1" xmlns="http://www.w3.org/2000/svg" xmlns:xlink="http://www.w3.org/1999/xlink" x="0px" y="0px"
	 width="24px" height="24px" viewBox="0 0 24 24" enable-background="new 0 0 24 24" xml:space="preserve">
<path fill="#C4DCED" stroke="#9DBCD7" stroke-miterlimit="10" d="M22.942,20.079c0,1.595-1.293,2.888-2.888,2.888H3.896
	c-1.595,0-2.888-1.293-2.888-2.888V3.921c0-1.595,1.293-2.888,2.888-2.888h16.159c1.595,0,2.888,1.293,2.888,2.888L22.942,20.079
	L22.942,20.079z"/>
<path opacity="0.6" fill="none" stroke="#FFFFFF" stroke-miterlimit="10" enable-background="new    " d="M3.896,21.967
	c-1.041,0-1.888-0.847-1.888-1.888V3.921c0-1.041,0.847-1.888,1.888-1.888h16.159c1.041,0,1.888,0.847,1.888,1.888v16.158
	c-0.001,1.041-0.848,1.888-1.889,1.888C20.054,21.967,3.896,21.967,3.896,21.967z"/>
<path opacity="0.05" fill="none" stroke="#000000" stroke-width="0.3786" stroke-miterlimit="10" enable-background="new    " d="
	M23.02,7.276c0,0,0-0.97-0.958-0.97c-2.782,0-11.663,0.002-12.458,0.002c-0.966,0-0.958-0.956-0.958-0.956s0-0.963-0.958-0.963
	c-1.678,0-5.038,0-5.75,0c-0.943,0-0.958,0.928-0.958,0.957"/>
<linearGradient id="SVGID_1_" gradientUnits="userSpaceOnUse" x1="1381.974" y1="-1687.967" x2="1381.974" y2="-1669.882" gradientTransform="matrix(1 0 0 -1 -1370 -1665)">
	<stop  offset="0" style="stop-color:#D1E0ED"/>
	<stop  offset="1" style="stop-color:#E4EEFB"/>
</linearGradient>
<path fill="url(#SVGID_1_)" stroke="#9DBCD7" stroke-miterlimit="10" d="M3.889,22.967h16.219c1.595,0,2.833-1.326,2.833-2.92V7.098
	c0-0.227-0.34-0.441-0.792-0.441c-2.794,0-11.7,0.002-12.499,0.002c-0.97,0-0.956-0.885-0.956-0.885s0.007-0.892-0.956-0.892
	c-1.685,0-5.06,0-5.775,0c-0.948,0-0.956,0.786-0.956,0.815v14.35C1.008,21.641,2.295,22.967,3.889,22.967z"/>
<path opacity="0.8" fill="none" stroke="#FFFFFF" stroke-miterlimit="10" enable-background="new    " d="M3.889,21.967
	c-1.037,0-1.881-0.862-1.881-1.921V5.889l5.688-0.007c0.016,0.225,0.098,0.777,0.537,1.224C8.481,7.358,8.929,7.659,9.65,7.659
	l12.291-0.001v12.389c0,1.06-0.822,1.921-1.833,1.921L3.889,21.967L3.889,21.967z"/>
<g id="g27_1_">
	
		<linearGradient id="path36_2_" gradientUnits="userSpaceOnUse" x1="1784.3451" y1="-2484.1682" x2="1787.3922" y2="-2489.446" gradientTransform="matrix(1 0 0 -1 -1782 -2483)">
		<stop  offset="0" style="stop-color:#FFFFFF"/>
		<stop  offset="0.5" style="stop-color:#FFFFFF;stop-opacity:0.6"/>
		<stop  offset="1" style="stop-color:#FFFFFF;stop-opacity:0.15"/>
	</linearGradient>
	<path id="path36_1_" fill="url(#path36_2_)" d="M4.858,7.342c0.341-0.705,0.756-1.366,1.233-1.977L5.223,3.462
		C4.482,4.163,3.88,4.935,3.4,5.685L4.858,7.342z"/>
	
		<linearGradient id="path45_2_" gradientUnits="userSpaceOnUse" x1="1787.1091" y1="-2483.3772" x2="1789.1033" y2="-2486.8313" gradientTransform="matrix(1 0 0 -1 -1782 -2483)">
		<stop  offset="0" style="stop-color:#FFFFFF"/>
		<stop  offset="0.5" style="stop-color:#FFFFFF;stop-opacity:0.6"/>
		<stop  offset="1" style="stop-color:#FFFFFF;stop-opacity:0.15"/>
	</linearGradient>
	<path id="path45_1_" fill="url(#path45_2_)" d="M4.949,1.633l0.454,0.994C5.84,2.265,6.318,2.14,6.84,1.633H4.949z"/>
	
		<linearGradient id="path54_2_" gradientUnits="userSpaceOnUse" x1="1787.736" y1="-2482.7214" x2="1790.1725" y2="-2486.9417" gradientTransform="matrix(1 0 0 -1 -1782 -2483)">
		<stop  offset="0" style="stop-color:#FFFFFF"/>
		<stop  offset="0.5" style="stop-color:#FFFFFF;stop-opacity:0.6"/>
		<stop  offset="1" style="stop-color:#FFFFFF;stop-opacity:0.15"/>
	</linearGradient>
	<path id="path54_1_" fill="url(#path54_2_)" d="M8.353,1.633H7.994C7.089,2.14,6.298,2.527,5.619,3.105L6.451,4.93
		C7.162,4.109,7.986,3.39,8.91,2.809C8.917,2.803,8.922,2.797,8.93,2.79C9.964,1.897,8.936,1.633,8.353,1.633z"/>
	
		<linearGradient id="path63_2_" gradientUnits="userSpaceOnUse" x1="1782.6355" y1="-2486.5737" x2="1785.2798" y2="-2491.1538" gradientTransform="matrix(1 0 0 -1 -1782 -2483)">
		<stop  offset="0" style="stop-color:#FFFFFF"/>
		<stop  offset="0.5" style="stop-color:#FFFFFF;stop-opacity:0.6"/>
		<stop  offset="1" style="stop-color:#FFFFFF;stop-opacity:0.15"/>
	</linearGradient>
	<path id="path63_1_" fill="url(#path63_2_)" d="M3.124,6.138C2.567,7.086,2.204,7.961,1.988,8.56
		c0.256,0.365,0.678,0.604,1.157,0.604c0.593,0,1.1-0.366,1.31-0.884c0.054-0.145,0.119-0.284,0.179-0.426L3.124,6.138z"/>
	
		<linearGradient id="path72_2_" gradientUnits="userSpaceOnUse" x1="1782.5165" y1="-2486.7615" x2="1785.4468" y2="-2491.8372" gradientTransform="matrix(1 0 0 -1 -1782 -2483)">
		<stop  offset="0" style="stop-color:#FFFFFF"/>
		<stop  offset="0.5" style="stop-color:#FFFFFF;stop-opacity:0.6"/>
		<stop  offset="1" style="stop-color:#FFFFFF;stop-opacity:0.15"/>
	</linearGradient>
	<path id="path72_1_" fill="url(#path72_2_)" d="M1.742,4.566L1.731,7.748c0,0,0,0.001,0,0.002c0,0.02,0.005,0.039,0.006,0.058
		C1.979,7.219,2.317,6.5,2.775,5.74L1.742,4.566z"/>
	
		<linearGradient id="path149_2_" gradientUnits="userSpaceOnUse" x1="1784.7327" y1="-2485.1721" x2="1787.4844" y2="-2489.938" gradientTransform="matrix(1 0 0 -1 -1782 -2483)">
		<stop  offset="0" style="stop-color:#FFFFFF"/>
		<stop  offset="0.5" style="stop-color:#FFFFFF;stop-opacity:0.6"/>
		<stop  offset="1" style="stop-color:#FFFFFF;stop-opacity:0.15"/>
	</linearGradient>
	<path id="path149_1_" fill="url(#path149_2_)" d="M4.344,1.639C3.31,1.553,1.949,2.718,1.774,3.834l1.283,1.459
		c0.512-0.781,1.149-1.582,1.934-2.305L4.344,1.639z"/>
</g>
<g>
	<g opacity="0.3">
		<g opacity="0.5">
			<path fill="#FFFFFF" d="M7.391,8.893c1.725-0.572,3.704-0.216,5.121,0.922c-0.273,1.516-0.546,3.032-0.819,4.549
				c-1.417-1.138-3.396-1.495-5.121-0.922C6.844,11.925,7.118,10.409,7.391,8.893z"/>
		</g>
		<g>
			<path fill="#669CCC" d="M7.391,8.472c1.725-0.572,3.704-0.216,5.121,0.922c-0.273,1.516-0.546,3.032-0.819,4.549
				c-1.417-1.138-3.396-1.495-5.121-0.922C6.844,11.504,7.118,9.988,7.391,8.472z"/>
		</g>
	</g>
	<g opacity="0.3">
		<g opacity="0.5">
			<path fill="#FFFFFF" d="M13.243,9.947c1.43,1.114,3.393,1.467,5.121,0.922c-0.273,1.516-0.546,3.032-0.819,4.549
				c-1.729,0.545-3.691,0.191-5.121-0.922C12.697,12.979,12.971,11.463,13.243,9.947z"/>
		</g>
		<g>
			<path fill="#669CCC" d="M13.243,9.526c1.43,1.114,3.393,1.467,5.121,0.922c-0.273,1.516-0.546,3.032-0.819,4.549
				c-1.729,0.545-3.691,0.191-5.121-0.922C12.697,12.558,12.971,11.042,13.243,9.526z"/>
		</g>
	</g>
	<g opacity="0.3">
		<g opacity="0.5">
			<path fill="#FFFFFF" d="M6.454,14.091c1.725-0.572,3.704-0.216,5.121,0.922c-0.273,1.516-0.546,3.032-0.819,4.549
				c-1.417-1.138-3.396-1.495-5.121-0.922C5.908,17.123,6.181,15.606,6.454,14.091z"/>
		</g>
		<g>
			<path fill="#669CCC" d="M6.454,13.669c1.725-0.572,3.704-0.216,5.121,0.922c-0.273,1.516-0.546,3.032-0.819,4.549
				c-1.417-1.138-3.396-1.495-5.121-0.922C5.908,16.701,6.181,15.186,6.454,13.669z"/>
		</g>
	</g>
	<g opacity="0.3">
		<g opacity="0.5">
			<path fill="#FFFFFF" d="M12.308,15.145c1.43,1.114,3.393,1.467,5.121,0.922c-0.273,1.516-0.546,3.032-0.819,4.549
				c-1.729,0.545-3.691,0.191-5.121-0.922C11.762,18.177,12.035,16.66,12.308,15.145z"/>
		</g>
		<g>
			<path fill="#669CCC" d="M12.308,14.723c1.43,1.114,3.393,1.467,5.121,0.922c-0.273,1.516-0.546,3.032-0.819,4.549
				c-1.729,0.545-3.691,0.191-5.121-0.922C11.762,17.756,12.035,16.24,12.308,14.723z"/>
		</g>
	</g>
	<path opacity="0.1" fill="#669CCC" enable-background="new    " d="M7.391,8.472c-0.273,1.516-0.546,3.032-0.819,4.549
		c1.725-0.572,3.704-0.216,5.121,0.922c0.273-1.516,0.546-3.032,0.819-4.549C11.095,8.257,9.116,7.9,7.391,8.472z M11.395,13.214
		c-0.927-0.575-2.018-0.886-3.137-0.886c-0.39,0-0.776,0.038-1.152,0.114l0.656-3.641c0.424-0.116,0.865-0.175,1.316-0.175
		c1.078,0,2.124,0.335,2.974,0.948L11.395,13.214z"/>
	<path opacity="0.1" fill="#669CCC" enable-background="new    " d="M13.243,9.526c-0.273,1.516-0.546,3.032-0.819,4.549
		c1.43,1.114,3.393,1.467,5.121,0.922c0.273-1.516,0.546-3.032,0.819-4.549C16.636,10.993,14.673,10.64,13.243,9.526z
		 M17.176,14.663c-0.415,0.108-0.847,0.163-1.287,0.163c-1.082,0-2.139-0.33-3.003-0.935l0.657-3.645
		c0.94,0.57,2.041,0.878,3.165,0.878c0.38,0,0.757-0.035,1.124-0.106L17.176,14.663z"/>
	<path opacity="0.1" fill="#669CCC" enable-background="new    " d="M6.454,13.669c-0.273,1.516-0.546,3.032-0.819,4.549
		c1.725-0.572,3.704-0.216,5.121,0.922c0.273-1.516,0.546-3.032,0.819-4.549C10.158,13.454,8.18,13.098,6.454,13.669z
		 M10.458,18.412c-0.927-0.575-2.018-0.886-3.137-0.886c-0.39,0-0.776,0.038-1.152,0.114L6.825,14
		c0.424-0.116,0.865-0.175,1.316-0.175c1.078,0,2.124,0.335,2.974,0.948L10.458,18.412z"/>
	<path opacity="0.1" fill="#669CCC" enable-background="new    " d="M12.308,14.723c-0.273,1.516-0.546,3.032-0.819,4.549
		c1.43,1.114,3.393,1.467,5.121,0.922c0.273-1.516,0.546-3.032,0.819-4.549C15.7,16.191,13.738,15.838,12.308,14.723z M16.24,19.861
		c-0.415,0.108-0.847,0.163-1.287,0.163c-1.082,0-2.139-0.33-3.003-0.935l0.657-3.645c0.94,0.57,2.041,0.878,3.165,0.878
		c0.38,0,0.757-0.035,1.125-0.106L16.24,19.861z"/>
	<g opacity="0.5">
		<path opacity="0.3" fill="#669CCC" enable-background="new    " d="M7.391,8.472c-0.273,1.516-0.546,3.032-0.819,4.549
			c1.725-0.572,3.704-0.216,5.121,0.922c0.273-1.516,0.546-3.032,0.819-4.549C11.095,8.257,9.116,7.9,7.391,8.472z M11.546,13.567
			c-0.947-0.665-2.101-1.027-3.288-1.027c-0.484,0-0.959,0.061-1.417,0.181l0.736-4.085c0.481-0.146,0.985-0.221,1.5-0.221
			c1.168,0,2.301,0.378,3.205,1.068L11.546,13.567z"/>
		<path opacity="0.3" fill="#669CCC" enable-background="new    " d="M13.243,9.526c-0.273,1.516-0.546,3.032-0.819,4.549
			c1.43,1.114,3.393,1.467,5.121,0.922c0.273-1.516,0.546-3.032,0.819-4.549C16.636,10.993,14.673,10.64,13.243,9.526z
			 M17.361,14.832c-0.473,0.136-0.967,0.205-1.471,0.205c-1.172,0-2.315-0.373-3.234-1.054l0.736-4.088
			c0.96,0.657,2.126,1.016,3.317,1.016c0.473,0,0.938-0.056,1.388-0.168L17.361,14.832z"/>
		<path opacity="0.3" fill="#669CCC" enable-background="new    " d="M6.454,13.669c-0.273,1.516-0.546,3.032-0.819,4.549
			c1.725-0.572,3.704-0.216,5.121,0.922c0.273-1.516,0.546-3.032,0.819-4.549C10.158,13.454,8.18,13.098,6.454,13.669z
			 M10.609,18.766c-0.947-0.665-2.101-1.028-3.288-1.028c-0.484,0-0.959,0.061-1.417,0.181l0.736-4.085
			c0.481-0.146,0.985-0.221,1.5-0.221c1.168,0,2.301,0.378,3.205,1.068L10.609,18.766z"/>
		<path opacity="0.3" fill="#669CCC" enable-background="new    " d="M12.308,14.723c-0.273,1.516-0.546,3.032-0.819,4.549
			c1.43,1.114,3.393,1.467,5.121,0.922c0.273-1.516,0.546-3.032,0.819-4.549C15.7,16.191,13.738,15.838,12.308,14.723z
			 M16.425,20.029c-0.473,0.136-0.967,0.205-1.471,0.205c-1.172,0-2.315-0.373-3.234-1.053l0.736-4.088
			c0.96,0.657,2.125,1.016,3.316,1.016c0.473,0,0.938-0.056,1.388-0.168L16.425,20.029z"/>
	</g>
</g>
</svg>
