<?xml version="1.0" encoding="utf-8"?>
<!-- Generator: Adobe Illustrator 17.0.0, SVG Export Plug-In . SVG Version: 6.00 Build 0)  -->
<!DOCTYPE svg PUBLIC "-//W3C//DTD SVG 1.1//EN" "http://www.w3.org/Graphics/SVG/1.1/DTD/svg11.dtd">
<svg version="1.1" id="图层_1" xmlns="http://www.w3.org/2000/svg" xmlns:xlink="http://www.w3.org/1999/xlink" x="0px" y="0px"
	 width="22px" height="22px" viewBox="1 1 22 22" enable-background="new 1 1 22 22" xml:space="preserve">
<path fill="#C4DCED" stroke="#9DBCD7" stroke-miterlimit="10" d="M22.476,19.735c0,1.527-1.238,2.765-2.765,2.765H4.241
	c-1.527,0-2.765-1.238-2.765-2.765V4.265c0-1.527,1.238-2.765,2.765-2.765h15.471c1.527,0,2.765,1.238,2.765,2.765L22.476,19.735
	L22.476,19.735z"/>
<path opacity="0.6" fill="none" stroke="#FFFFFF" stroke-miterlimit="10" enable-background="new    " d="M4.241,21.543
	c-0.997,0-1.808-0.811-1.808-1.808V4.265c0-0.997,0.811-1.808,1.808-1.808h15.471c0.997,0,1.808,0.811,1.808,1.808v15.47
	c-0.001,0.997-0.812,1.808-1.809,1.808C19.711,21.543,4.241,21.543,4.241,21.543z"/>
<linearGradient id="SVGID_1_" gradientUnits="userSpaceOnUse" x1="1679.9751" y1="2091.5" x2="1679.9751" y2="2074.1851" gradientTransform="matrix(1 0 0 1 -1668 -2069)">
	<stop  offset="0" style="stop-color:#D1E0ED"/>
	<stop  offset="1" style="stop-color:#E4EEFB"/>
</linearGradient>
<path fill="url(#SVGID_1_)" stroke="#9DBCD7" stroke-miterlimit="10" d="M4.234,22.5h15.528c1.527,0,2.712-1.27,2.712-2.796V7.307
	c0-0.217-0.326-0.422-0.758-0.422c-2.675,0-11.202,0.002-11.967,0.002c-0.929,0-0.915-0.847-0.915-0.847s0.007-0.854-0.915-0.854
	c-1.613,0-4.845,0-5.529,0c-0.908,0-0.915,0.753-0.915,0.78v13.739C1.476,21.23,2.708,22.5,4.234,22.5z"/>
<path opacity="0.8" fill="none" stroke="#FFFFFF" stroke-miterlimit="10" enable-background="new    " d="M4.234,21.543
	c-0.993,0-1.801-0.825-1.801-1.839V6.149l5.446-0.007c0.015,0.215,0.094,0.744,0.514,1.172C8.631,7.556,9.06,7.844,9.75,7.844
	l11.768-0.001v11.861c0,1.015-0.787,1.839-1.755,1.839L4.234,21.543L4.234,21.543z"/>
<rect x="10.18" y="8.814" opacity="0.3" fill="#669CCC" enable-background="new    " width="3.612" height="1"/>
<g opacity="0.3">
	<g>
		<polygon fill="#FFFFFF" points="13.792,15.639 13.792,13.928 10.18,13.928 10.18,15.639 8.698,15.639 11.987,21.332 
			15.273,15.639 		"/>
	</g>
	<g>
		<polygon fill="#669CCC" points="13.792,14.639 13.792,12.928 10.18,12.928 10.18,14.639 8.698,14.639 11.987,20.332 
			15.273,14.639 		"/>
	</g>
</g>
<path opacity="0.3" fill="#669CCC" d="M13.82,14.639v-1.711h-3.612v1.711H8.726l3.289,5.694l3.287-5.694H13.82z M12.014,18.332
	l-1.556-2.693h0.75v-1.711h1.612v1.711h0.75L12.014,18.332z"/>
<g opacity="0.3" enable-background="new    ">
	<g>
		<path fill="#FFFFFF" d="M10.208,11.216v2h3.611v-2H10.208z"/>
	</g>
	<g>
		<path fill="#669CCC" d="M10.208,10.216v2h3.611v-2H10.208z"/>
	</g>
</g>
<rect x="10.208" y="10.216" opacity="0.3" fill="#669CCC" enable-background="new    " width="3.611" height="1"/>
<g opacity="0.3" enable-background="new    ">
	<g>
		<rect x="10.169" y="9.814" fill="#FFFFFF" width="3.611" height="1"/>
	</g>
	<g>
		<rect x="10.169" y="8.814" fill="#669CCC" width="3.611" height="1"/>
	</g>
</g>
</svg>
