<?xml version="1.0" encoding="utf-8"?>
<!-- Generator: Adobe Illustrator 17.0.0, SVG Export Plug-In . SVG Version: 6.00 Build 0)  -->
<!DOCTYPE svg PUBLIC "-//W3C//DTD SVG 1.1//EN" "http://www.w3.org/Graphics/SVG/1.1/DTD/svg11.dtd">
<svg version="1.1" id="图层_1" xmlns="http://www.w3.org/2000/svg" xmlns:xlink="http://www.w3.org/1999/xlink" x="0px" y="0px"
	 width="22px" height="22px" viewBox="1 1 22 22" enable-background="new 1 1 22 22" xml:space="preserve">
<path fill="#C4DCED" stroke="#9DBCD7" stroke-miterlimit="10" d="M22.476,19.735c0,1.527-1.238,2.765-2.765,2.765H4.241
	c-1.527,0-2.765-1.238-2.765-2.765V4.265c0-1.527,1.238-2.765,2.765-2.765h15.471c1.527,0,2.765,1.238,2.765,2.765L22.476,19.735
	L22.476,19.735z"/>
<path opacity="0.6" fill="none" stroke="#FFFFFF" stroke-miterlimit="10" enable-background="new    " d="M4.241,21.543
	c-0.997,0-1.808-0.811-1.808-1.808V4.265c0-0.997,0.811-1.808,1.808-1.808h15.471c0.997,0,1.808,0.811,1.808,1.808v15.47
	c-0.001,0.997-0.812,1.808-1.809,1.808C19.711,21.543,4.241,21.543,4.241,21.543z"/>
<linearGradient id="SVGID_1_" gradientUnits="userSpaceOnUse" x1="1679.9751" y1="2091.5" x2="1679.9751" y2="2074.1851" gradientTransform="matrix(1 0 0 1 -1668 -2069)">
	<stop  offset="0" style="stop-color:#D1E0ED"/>
	<stop  offset="1" style="stop-color:#E4EEFB"/>
</linearGradient>
<path fill="url(#SVGID_1_)" stroke="#9DBCD7" stroke-miterlimit="10" d="M4.234,22.5h15.528c1.527,0,2.712-1.27,2.712-2.796V7.307
	c0-0.217-0.326-0.422-0.758-0.422c-2.675,0-11.202,0.002-11.967,0.002c-0.929,0-0.915-0.847-0.915-0.847s0.007-0.854-0.915-0.854
	c-1.613,0-4.845,0-5.529,0c-0.908,0-0.915,0.753-0.915,0.78v13.739C1.476,21.23,2.708,22.5,4.234,22.5z"/>
<path opacity="0.8" fill="none" stroke="#FFFFFF" stroke-miterlimit="10" enable-background="new    " d="M4.234,21.543
	c-0.993,0-1.801-0.825-1.801-1.839V6.149l5.446-0.007c0.015,0.215,0.094,0.744,0.514,1.172C8.631,7.556,9.06,7.844,9.75,7.844
	l11.768-0.001v11.861c0,1.015-0.787,1.839-1.755,1.839L4.234,21.543L4.234,21.543z"/>
<g>
	<path opacity="0.3" fill="#669CCC" enable-background="new    " d="M12.005,9.316c-2.529,0-5.056,0.967-6.985,2.897l1.161,1.162
		c3.217-3.217,8.432-3.217,11.648,0l1.162-1.162C17.061,10.283,14.534,9.316,12.005,9.316z M12.005,12.61
		c-1.686,0-3.376,0.64-4.661,1.926l1.169,1.169c1.929-1.929,5.057-1.929,6.985,0l1.169-1.169
		C15.381,13.25,13.692,12.61,12.005,12.61z M12.005,15.905c-0.843,0-1.687,0.32-2.33,0.963l2.33,2.33l2.331-2.33
		C13.693,16.224,12.848,15.905,12.005,15.905z"/>
	<path opacity="0.3" fill="#669CCC" enable-background="new    " d="M12.005,9.316c-2.529,0-5.056,0.967-6.985,2.897l1.161,1.162
		c3.217-3.217,8.432-3.217,11.648,0l1.162-1.162C17.061,10.283,14.534,9.316,12.005,9.316z M12.005,9.772
		c2.267,0,4.517,0.844,6.309,2.471L17.8,12.757c-3.295-2.963-8.294-2.963-11.589,0l-0.515-0.514
		C7.489,10.615,9.738,9.772,12.005,9.772z M12.005,12.61c-1.686,0-3.376,0.64-4.661,1.926l1.169,1.169
		c1.929-1.929,5.057-1.929,6.985,0l1.169-1.169C15.381,13.25,13.692,12.61,12.005,12.61z M12.005,13.066
		c1.426,0,2.84,0.513,3.986,1.5l-0.522,0.522c-2.002-1.686-4.927-1.686-6.928,0l-0.522-0.522
		C9.167,13.579,10.58,13.066,12.005,13.066z M12.005,15.905c-0.843,0-1.687,0.32-2.33,0.963l2.33,2.33l2.331-2.33
		C13.693,16.224,12.848,15.905,12.005,15.905z M12.005,16.36c0.577,0,1.128,0.225,1.62,0.573l-1.62,1.618l-1.617-1.618
		C10.878,16.586,11.428,16.36,12.005,16.36z"/>
	<path opacity="0.3" fill="#669CCC" enable-background="new    " d="M12.005,9.316c-2.529,0-5.056,0.967-6.985,2.897l1.161,1.162
		c3.217-3.217,8.432-3.217,11.648,0l1.162-1.162C17.061,10.283,14.534,9.316,12.005,9.316z M12.005,9.558
		c2.393,0,4.774,0.9,6.634,2.669l-0.823,0.823c-3.262-3.082-8.358-3.082-11.618,0l-0.825-0.823
		C7.233,10.459,9.614,9.558,12.005,9.558z M12.005,12.61c-1.686,0-3.376,0.64-4.661,1.926l1.169,1.169
		c1.929-1.929,5.057-1.929,6.985,0l1.169-1.169C15.381,13.25,13.692,12.61,12.005,12.61z M12.005,12.853
		c1.55,0,3.094,0.572,4.309,1.698l-0.831,0.831c-1.973-1.797-4.985-1.797-6.956,0l-0.831-0.831
		C8.912,13.425,10.455,12.853,12.005,12.853z M12.005,15.905c-0.843,0-1.687,0.32-2.33,0.963l2.33,2.33l2.331-2.33
		C13.693,16.224,12.848,15.905,12.005,15.905z M12.005,16.147c0.707,0,1.41,0.25,1.979,0.736l-1.979,1.978l-1.977-1.978
		C10.596,16.397,11.299,16.147,12.005,16.147z"/>
	<path opacity="0.3" fill="#669CCC" enable-background="new    " d="M12.005,9.316c-2.529,0-5.056,0.967-6.985,2.897l0.117,0.118
		c1.915-1.851,4.391-2.779,6.867-2.779c2.479,0,4.955,0.928,6.87,2.779l0.117-0.118C17.061,10.283,14.534,9.316,12.005,9.316z
		 M12.005,12.61c-1.686,0-3.376,0.64-4.661,1.926l0.117,0.117c1.271-1.208,2.91-1.809,4.544-1.809c1.635,0,3.275,0.601,4.545,1.809
		l0.117-0.117C15.381,13.25,13.692,12.61,12.005,12.61z M12.005,15.905c-0.843,0-1.687,0.32-2.33,0.963L9.8,16.993
		c0.626-0.566,1.415-0.853,2.206-0.853c0.792,0,1.582,0.287,2.207,0.853l0.124-0.125C13.693,16.224,12.848,15.905,12.005,15.905z"/>
	<path opacity="0.3" fill="#FFFFFF" enable-background="new    " d="M12.005,8.845c-2.648,0-5.297,1.018-7.316,3.037
		c-0.001,0-0.014,0.014-0.014,0.014c-0.001,0-0.014,0.022-0.014,0.022c-0.001,0.001-0.016,0.014-0.016,0.014
		c0,0.001-0.014,0.022-0.014,0.022c0,0.001-0.014,0.014-0.014,0.014c0,0.001-0.007,0.022-0.007,0.023
		c-0.001,0-0.016,0.022-0.016,0.022l-0.007,0.022c0,0.001-0.008,0.022-0.008,0.022L4.57,12.072c0,0.001-0.007,0.022-0.007,0.022
		c0,0.001-0.007,0.029-0.007,0.029c0,0.001,0,0.022,0,0.022c0,0.001-0.008,0.022-0.008,0.022v0.022c0,0.001,0,0.022,0,0.022v0.022
		c0,0.001,0,0.022,0,0.022c0,0.001,0.008,0.022,0.008,0.022v0.022c0,0.001,0.007,0.029,0.007,0.03l0.007,0.022
		c0,0.001,0.008,0.014,0.008,0.014c0,0.001,0.008,0.023,0.008,0.023l0.007,0.022c0,0.001,0.014,0.022,0.016,0.022
		c0,0.001,0.007,0.022,0.007,0.023L4.63,12.47c0,0.001,0.014,0.022,0.014,0.022s0.014,0.014,0.016,0.014
		c0,0,0.013,0.022,0.014,0.022c0,0.001,0.013,0.014,0.014,0.014l1.161,1.162c0.001,0,0.014,0.013,0.014,0.014
		c0.001,0,0.022,0.013,0.022,0.014s0.014,0.014,0.014,0.014c0.001,0,0.021,0.014,0.022,0.014c0,0.001,0.014,0.014,0.014,0.014
		s0.021,0.008,0.022,0.008c0,0,0.021,0.014,0.022,0.014L6,13.804c0.001,0,0.021,0.007,0.022,0.007s0.014,0.008,0.016,0.008
		l0.021,0.008c0.001,0,0.029,0.007,0.031,0.007h0.021c0.001,0,0.021,0.008,0.022,0.008c0,0,0.021,0,0.022,0h0.021
		c0.001,0,0.022,0,0.022,0s0.021,0,0.022,0c0,0,0.021-0.008,0.022-0.008h0.021c0.001,0,0.029-0.007,0.031-0.007l0.021-0.008
		c0.001,0,0.014-0.008,0.014-0.008c0.001,0,0.022-0.007,0.022-0.007l0.022-0.008c0,0,0.021-0.014,0.022-0.014l0.021-0.008
		C6.417,13.773,6.43,13.76,6.43,13.76c0.001,0,0.022-0.014,0.022-0.014l0.014-0.014c0.001-0.001,0.022-0.014,0.022-0.014
		c0-0.001,0.014-0.014,0.014-0.014c3.037-3.037,7.95-3.037,10.988,0c0,0,0.013,0.013,0.013,0.014c0.001,0,0.023,0.013,0.023,0.014
		c0.001,0.001,0.014,0.014,0.016,0.014l0.023,0.014c0.001,0.001,0.014,0.014,0.014,0.014c0.001,0.001,0.021,0.008,0.023,0.008
		l0.022,0.014c0,0,0.021,0.008,0.023,0.008l0.021,0.007c0.001,0,0.014,0.008,0.014,0.008c0.001,0,0.022,0.008,0.022,0.008
		l0.029,0.007c0.001,0,0.023,0,0.023,0l0.022,0.008c0,0,0.021,0,0.023,0h0.021c0.001,0,0.022,0,0.022,0c0.001,0,0.021,0,0.023,0
		l0.021-0.008c0.001,0,0.022,0,0.022,0c0.001,0,0.029-0.007,0.029-0.007c0.001,0,0.022-0.008,0.022-0.008
		c0.001,0,0.014-0.008,0.014-0.008c0.001,0,0.022-0.007,0.022-0.007c0.001,0,0.021-0.008,0.023-0.008l0.021-0.014
		c0.001,0,0.022-0.007,0.022-0.007c0.001-0.001,0.014-0.014,0.016-0.016l0.021-0.014c0.001,0,0.014-0.014,0.016-0.014
		c0-0.001,0.021-0.014,0.021-0.014c0.001-0.001,0.014-0.014,0.014-0.014l1.161-1.162c0.001,0,0.014-0.014,0.016-0.014
		c0.001,0,0.013-0.022,0.014-0.022c0-0.001,0.014-0.014,0.014-0.014c0.001-0.001,0.014-0.022,0.014-0.022
		c0.001,0,0.016-0.014,0.016-0.014c0-0.001,0.007-0.023,0.007-0.023l0.014-0.022c0.001,0,0.008-0.022,0.008-0.022
		c0-0.001,0.007-0.022,0.007-0.023l0.008-0.014c0-0.001,0.008-0.022,0.008-0.022c0-0.001,0.007-0.028,0.007-0.03v-0.022
		c0-0.001,0.008-0.022,0.008-0.022v-0.022v-0.022c0-0.001,0-0.022,0-0.022v-0.022l-0.008-0.022v-0.022c0,0-0.007-0.028-0.007-0.029
		l-0.008-0.022l-0.008-0.014c0-0.001-0.007-0.022-0.007-0.023c0,0-0.007-0.022-0.008-0.022c0-0.001-0.014-0.022-0.014-0.022
		l-0.007-0.022c0,0-0.014-0.014-0.016-0.014c0-0.001-0.013-0.022-0.014-0.022l-0.014-0.014c-0.001,0-0.013-0.022-0.014-0.022
		c-0.001-0.001-0.014-0.014-0.016-0.014C17.302,9.863,14.654,8.845,12.005,8.845L12.005,8.845z M12.005,9.316
		c2.53,0,5.057,0.967,6.987,2.897l-1.162,1.162c-3.216-3.217-8.431-3.217-11.648,0l-1.161-1.162
		C6.949,10.283,9.477,9.316,12.005,9.316z M12.005,12.14c-1.804,0-3.615,0.689-4.994,2.066L6.998,14.22
		c-0.001,0.001-0.014,0.022-0.016,0.023c0,0.001-0.013,0.014-0.014,0.014l-0.014,0.021c0,0.001-0.014,0.014-0.014,0.015
		s-0.008,0.021-0.008,0.022l-0.014,0.022c0,0.001-0.007,0.021-0.008,0.023c0,0-0.007,0.021-0.007,0.022s-0.008,0.014-0.008,0.014
		c0,0.001-0.007,0.022-0.007,0.023c0,0-0.008,0.028-0.008,0.029s0,0.022,0,0.022l-0.007,0.022c0,0.001,0,0.021,0,0.022
		s0,0.021,0,0.022s0,0.022,0,0.022c0,0.001,0,0.022,0,0.023l0.007,0.021c0,0.001,0,0.022,0,0.022c0,0.001,0.008,0.029,0.008,0.029
		c0,0.001,0.007,0.022,0.007,0.023s0.008,0.014,0.008,0.014c0,0.001,0.007,0.022,0.007,0.022c0.001,0.001,0.008,0.021,0.008,0.023
		l0.014,0.021c0,0.001,0.008,0.022,0.008,0.022c0,0.001,0.014,0.014,0.014,0.014l0.014,0.022c0,0.001,0.014,0.014,0.014,0.014
		c0.001,0.001,0.014,0.022,0.016,0.022c0,0.001,0.013,0.014,0.013,0.014l1.169,1.169c0.001,0.001,0.014,0.014,0.016,0.014
		c0,0.001,0.021,0.014,0.021,0.015c0.001,0,0.014,0.013,0.014,0.014c0.001,0.001,0.022,0.014,0.022,0.014
		c0.001,0.001,0.014,0.014,0.016,0.014l0.021,0.008c0.001,0,0.021,0.014,0.022,0.014c0,0.001,0.021,0.007,0.022,0.007
		c0,0.001,0.021,0.008,0.021,0.008c0.001,0,0.014,0.008,0.016,0.008l0.021,0.008c0.001,0,0.029,0.008,0.031,0.008h0.021
		c0.001,0,0.021,0.007,0.022,0.007s0.021,0,0.022,0c0,0,0.021,0,0.022,0c0,0,0.021,0,0.022,0h0.021c0.001,0,0.021-0.007,0.022-0.007
		c0,0,0.021,0,0.022,0c0,0,0.028-0.008,0.029-0.008c0,0,0.021-0.008,0.022-0.008c0,0,0.013-0.008,0.014-0.008
		c0,0,0.021-0.007,0.022-0.008l0.021-0.007c0.001,0,0.021-0.014,0.022-0.014c0,0,0.021-0.008,0.022-0.008
		c0-0.001,0.014-0.014,0.014-0.014s0.021-0.014,0.022-0.014c0-0.001,0.013-0.014,0.014-0.014c0-0.001,0.021-0.014,0.021-0.015
		c0.001,0,0.014-0.013,0.016-0.014c1.751-1.751,4.573-1.751,6.324,0c0,0.001,0.014,0.014,0.014,0.014
		c0.001,0.001,0.021,0.014,0.022,0.015c0,0,0.013,0.013,0.014,0.014c0,0.001,0.022,0.014,0.022,0.014
		c0,0.001,0.014,0.014,0.014,0.014s0.021,0.008,0.023,0.008l0.021,0.014c0.001,0.001,0.022,0.007,0.022,0.007
		c0,0.001,0.023,0.008,0.023,0.008l0.014,0.008c0,0,0.021,0.008,0.023,0.008l0.029,0.008c0.001,0,0.021,0,0.023,0l0.021,0.007
		c0.001,0,0.022,0,0.022,0c0.001,0,0.023,0,0.023,0s0.021,0,0.022,0h0.021c0.001,0,0.023-0.007,0.023-0.007c0.001,0,0.021,0,0.022,0
		l0.029-0.008c0.001,0,0.021-0.008,0.023-0.008l0.014-0.008c0,0,0.021-0.007,0.022-0.008c0.001,0,0.021-0.007,0.023-0.007
		l0.021-0.014c0.001,0,0.021-0.008,0.022-0.008c0.001-0.001,0.014-0.014,0.014-0.014c0.001,0,0.021-0.014,0.023-0.014
		c0.001-0.001,0.013-0.014,0.014-0.014c0.001-0.001,0.021-0.014,0.023-0.015c0,0,0.014-0.013,0.014-0.014l1.169-1.169
		c0.001,0,0.013-0.013,0.014-0.014s0.014-0.022,0.014-0.022c0.001,0,0.014-0.014,0.014-0.014c0.001,0,0.016-0.022,0.016-0.022
		c0-0.001,0.014-0.014,0.014-0.014c0-0.001,0.007-0.021,0.007-0.022c0.001,0,0.014-0.021,0.014-0.021
		c0.001-0.001,0.008-0.022,0.008-0.023s0.008-0.022,0.008-0.022l0.007-0.014c0-0.001,0.008-0.021,0.008-0.023
		c0,0,0.008-0.028,0.008-0.029s0-0.021,0-0.022l0.007-0.021c0-0.001,0-0.022,0-0.023c0,0,0-0.021,0-0.022s0-0.021,0-0.022
		s0-0.022,0-0.022L17.12,14.47c0-0.001,0-0.022,0-0.022c0-0.001-0.008-0.029-0.008-0.029c0-0.001-0.008-0.022-0.008-0.023
		s-0.007-0.014-0.007-0.014c0-0.001-0.008-0.022-0.008-0.022c0-0.001-0.007-0.022-0.008-0.023c0,0-0.013-0.022-0.014-0.022
		c0-0.001-0.007-0.022-0.007-0.022c0-0.001-0.014-0.014-0.014-0.015c0,0-0.014-0.021-0.016-0.021c0-0.001-0.013-0.014-0.014-0.014
		c0-0.001-0.013-0.022-0.014-0.023c-0.001,0-0.013-0.014-0.014-0.014C15.622,12.829,13.811,12.14,12.005,12.14L12.005,12.14z
		 M12.005,12.61c1.687,0,3.376,0.64,4.663,1.926l-1.169,1.169c-1.929-1.929-5.057-1.929-6.985,0l-1.169-1.169
		C8.629,13.25,10.319,12.61,12.005,12.61z M12.005,15.434c-0.962,0-1.928,0.37-2.661,1.103L9.33,16.551
		c-0.001,0.001-0.014,0.022-0.014,0.022c-0.001,0.001-0.014,0.014-0.016,0.014c0,0.001-0.013,0.022-0.014,0.022
		c0,0.001-0.014,0.014-0.014,0.014c0,0.001-0.007,0.022-0.007,0.023c0,0-0.014,0.021-0.016,0.021c0,0.001-0.007,0.022-0.007,0.022
		c0,0.001-0.008,0.022-0.008,0.023l-0.007,0.014c0,0.001-0.008,0.021-0.008,0.022l-0.007,0.029c0,0.001,0,0.021,0,0.023
		c0,0-0.008,0.021-0.008,0.022s0,0.022,0,0.022c0,0.001,0,0.022,0,0.023c0,0,0,0.021,0,0.022s0,0.022,0,0.023l0.008,0.022
		c0,0.001,0,0.021,0,0.023c0,0.001,0.007,0.029,0.007,0.029c0,0.001,0.008,0.022,0.008,0.023c0,0.001,0.007,0.014,0.007,0.014
		l0.008,0.021c0,0.001,0.007,0.022,0.007,0.022c0.001,0.001,0.016,0.022,0.016,0.023c0,0,0.007,0.021,0.007,0.022
		s0.014,0.014,0.014,0.014c0.001,0,0.014,0.021,0.014,0.021c0.001,0.001,0.014,0.014,0.016,0.015c0,0.001,0.013,0.022,0.014,0.022
		c0,0.001,0.014,0.014,0.014,0.014l2.33,2.332c0.001,0.001,0.014,0.014,0.014,0.014c0.001,0.001,0.021,0.014,0.022,0.014
		c0,0.001,0.014,0.014,0.014,0.014c0.001,0.001,0.022,0.014,0.022,0.014c0.001,0.001,0.014,0.014,0.014,0.014
		c0.001,0,0.022,0.007,0.022,0.008c0,0,0.021,0.013,0.022,0.014c0,0,0.021,0.007,0.021,0.008c0.001,0.001,0.022,0.007,0.022,0.007
		c0.001,0,0.014,0.008,0.014,0.008c0.001,0,0.022,0.007,0.022,0.007l0.029,0.008c0.001,0,0.022,0,0.022,0s0.021,0.008,0.022,0.008
		c0,0,0.021,0,0.022,0h0.024c0.001,0,0.021,0,0.022,0c0,0,0.021,0,0.023,0l0.021-0.008c0.001,0,0.022,0,0.022,0l0.029-0.008
		c0.001,0,0.022-0.007,0.022-0.007l0.014-0.008c0.001,0,0.021-0.006,0.022-0.007s0.021-0.008,0.023-0.008
		c0-0.001,0.021-0.014,0.022-0.014c0-0.001,0.021-0.008,0.023-0.008c0,0,0.013-0.014,0.014-0.014l0.021-0.014
		c0.001,0,0.014-0.014,0.016-0.014c0-0.001,0.021-0.014,0.021-0.014c0.001-0.001,0.014-0.014,0.014-0.014l2.332-2.332
		c0,0,0.013-0.014,0.014-0.014c0,0,0.014-0.021,0.014-0.022s0.014-0.014,0.014-0.015l0.014-0.021c0-0.001,0.014-0.014,0.016-0.014
		c0-0.001,0.007-0.022,0.007-0.022c0-0.001,0.014-0.022,0.014-0.022c0-0.001,0.008-0.021,0.008-0.023l0.007-0.021
		c0-0.001,0.008-0.014,0.008-0.014c0-0.001,0.008-0.022,0.008-0.023c0,0,0.007-0.028,0.007-0.029s0-0.022,0-0.023l0.008-0.022
		c0-0.001,0-0.021,0-0.023c0-0.001,0-0.022,0-0.022c0-0.001,0-0.022,0-0.023c0,0,0-0.021,0-0.022S14.794,16.8,14.794,16.8
		c0-0.001,0-0.022,0-0.023l-0.007-0.029c0-0.001-0.008-0.022-0.008-0.022l-0.008-0.014c0-0.001-0.007-0.022-0.007-0.023
		s-0.008-0.021-0.008-0.022l-0.014-0.021c0-0.001-0.007-0.022-0.007-0.023c-0.001,0-0.016-0.014-0.016-0.014
		s-0.014-0.021-0.014-0.022l-0.014-0.014c0,0-0.014-0.021-0.014-0.022c-0.001-0.001-0.014-0.014-0.014-0.014
		C13.934,15.803,12.967,15.434,12.005,15.434z M12.005,15.905c0.844,0,1.688,0.32,2.331,0.963l-2.331,2.33l-2.33-2.33
		C10.318,16.224,11.162,15.905,12.005,15.905z"/>
	<path opacity="0.3" fill="#FFFFFF" enable-background="new    " d="M12.005,9.066c-2.592,0-5.185,0.994-7.162,2.971
		c-0.097,0.098-0.097,0.256,0,0.353l1.161,1.162c0.099,0.098,0.256,0.098,0.353,0c3.121-3.121,8.175-3.121,11.296,0
		c0.096,0.098,0.255,0.098,0.352,0l1.161-1.162c0.099-0.097,0.099-0.255,0-0.353C17.191,10.059,14.598,9.066,12.005,9.066z
		 M12.005,9.316c2.53,0,5.057,0.967,6.987,2.897l-1.162,1.162c-3.216-3.217-8.431-3.217-11.648,0l-1.161-1.162
		C6.949,10.283,9.477,9.316,12.005,9.316z M12.005,12.36c-1.75,0-3.503,0.666-4.838,2.001c-0.097,0.096-0.097,0.255,0,0.352
		l1.169,1.169c0.097,0.097,0.255,0.097,0.353,0c1.834-1.834,4.798-1.834,6.633,0c0.097,0.097,0.256,0.097,0.353,0l1.169-1.169
		c0.097-0.097,0.097-0.255,0-0.352C15.51,13.025,13.754,12.36,12.005,12.36z M12.005,12.61c1.687,0,3.376,0.64,4.663,1.926
		l-1.169,1.169c-1.929-1.929-5.057-1.929-6.985,0l-1.169-1.169C8.629,13.25,10.319,12.61,12.005,12.61z M12.005,15.654
		c-0.907,0-1.817,0.346-2.507,1.037c-0.097,0.097-0.097,0.256,0,0.352l2.33,2.331c0.099,0.098,0.256,0.098,0.353,0l2.331-2.331
		c0.099-0.096,0.099-0.255,0-0.352C13.822,16,12.912,15.654,12.005,15.654z M12.005,15.905c0.844,0,1.688,0.32,2.331,0.963
		l-2.331,2.33l-2.33-2.33C10.318,16.224,11.162,15.905,12.005,15.905z"/>
	<path opacity="0.3" fill="#FFFFFF" enable-background="new    " d="M12.005,10.962c-2.107,0-4.215,0.804-5.824,2.412L5.137,12.33
		c-0.04,0.038-0.079,0.079-0.117,0.118l1.161,1.162c3.217-3.217,8.432-3.217,11.648,0l1.162-1.162
		c-0.04-0.039-0.079-0.079-0.117-0.118l-1.045,1.045C16.222,11.766,14.114,10.962,12.005,10.962z M12.005,14.258
		c-1.263,0-2.527,0.484-3.492,1.448l-1.052-1.052c-0.04,0.038-0.079,0.079-0.117,0.118l1.169,1.169c1.929-1.93,5.057-1.93,6.985,0
		l1.169-1.169c-0.039-0.039-0.077-0.08-0.117-0.118l-1.052,1.052C14.533,14.741,13.269,14.258,12.005,14.258z M9.799,16.993
		c-0.041,0.037-0.086,0.071-0.125,0.11l2.33,2.33l2.331-2.33c-0.039-0.039-0.084-0.073-0.124-0.11l-2.207,2.206
		C12.005,19.198,9.799,16.993,9.799,16.993z"/>
</g>
</svg>
