<?xml version="1.0" encoding="utf-8"?>
<!-- Generator: Adobe Illustrator 17.0.0, SVG Export Plug-In . SVG Version: 6.00 Build 0)  -->
<!DOCTYPE svg PUBLIC "-//W3C//DTD SVG 1.1//EN" "http://www.w3.org/Graphics/SVG/1.1/DTD/svg11.dtd">
<svg version="1.1" id="图层_1" xmlns="http://www.w3.org/2000/svg" xmlns:xlink="http://www.w3.org/1999/xlink" x="0px" y="0px"
	 width="22px" height="22px" viewBox="1 1 22 22" enable-background="new 1 1 22 22" xml:space="preserve">
<path fill="#C4DCED" stroke="#9DBCD7" stroke-miterlimit="10" d="M22.476,19.735c0,1.527-1.238,2.765-2.765,2.765H4.241
	c-1.527,0-2.765-1.238-2.765-2.765V4.265c0-1.527,1.238-2.765,2.765-2.765h15.471c1.527,0,2.765,1.238,2.765,2.765L22.476,19.735
	L22.476,19.735z"/>
<path opacity="0.6" fill="none" stroke="#FFFFFF" stroke-miterlimit="10" enable-background="new    " d="M4.241,21.543
	c-0.997,0-1.808-0.811-1.808-1.808V4.265c0-0.997,0.811-1.808,1.808-1.808h15.471c0.997,0,1.808,0.811,1.808,1.808v15.47
	c-0.001,0.997-0.812,1.808-1.809,1.808C19.711,21.543,4.241,21.543,4.241,21.543z"/>
<linearGradient id="SVGID_1_" gradientUnits="userSpaceOnUse" x1="1679.9751" y1="2091.5" x2="1679.9751" y2="2074.1851" gradientTransform="matrix(1 0 0 1 -1668 -2069)">
	<stop  offset="0" style="stop-color:#D1E0ED"/>
	<stop  offset="1" style="stop-color:#E4EEFB"/>
</linearGradient>
<path fill="url(#SVGID_1_)" stroke="#9DBCD7" stroke-miterlimit="10" d="M4.234,22.5h15.528c1.527,0,2.712-1.27,2.712-2.796V7.307
	c0-0.217-0.326-0.422-0.758-0.422c-2.675,0-11.202,0.002-11.967,0.002c-0.929,0-0.915-0.847-0.915-0.847s0.007-0.854-0.915-0.854
	c-1.613,0-4.845,0-5.529,0c-0.908,0-0.915,0.753-0.915,0.78v13.739C1.476,21.23,2.708,22.5,4.234,22.5z"/>
<path opacity="0.8" fill="none" stroke="#FFFFFF" stroke-miterlimit="10" enable-background="new    " d="M4.234,21.543
	c-0.993,0-1.801-0.825-1.801-1.839V6.149l5.446-0.007c0.015,0.215,0.094,0.744,0.514,1.172C8.631,7.556,9.06,7.844,9.75,7.844
	l11.768-0.001v11.861c0,1.015-0.787,1.839-1.755,1.839L4.234,21.543L4.234,21.543z"/>
<g opacity="0.3" enable-background="new    ">
	<g opacity="0.5">
		<circle fill="#FFFFFF" cx="16.519" cy="12.756" r="0.921"/>
	</g>
	<g>
		<circle fill="#669CCC" cx="16.519" cy="12.315" r="0.921"/>
	</g>
</g>
<g opacity="0.4">
	<g>
		<polygon fill="none" stroke="#FFFFFF" stroke-miterlimit="10" points="19.269,20.608 19.269,20.608 4.668,20.608 4.668,20.608 
			4.668,9.875 4.668,9.875 19.269,9.875 19.269,9.875 		"/>
	</g>
	<g>
		<polygon fill="none" stroke="#669CCC" stroke-miterlimit="10" points="19.269,19.608 19.269,19.608 4.668,19.608 4.668,19.608 
			4.668,8.875 4.668,8.875 19.269,8.875 19.269,8.875 		"/>
	</g>
</g>
<g opacity="0.3">
	<path fill="#669CCC" d="M11.645,12.61c0,0-0.886-0.543-0.949-0.709c-0.063-0.167-0.975-0.313-0.975-0.313l-0.324,0.209
		l-0.365,0.605V12.36c0,0-0.08-0.171-0.226-0.317c-0.241-0.091-0.917,1.81-1.79,1.81H6.934l-0.271-0.037l-0.209-0.206l-0.375-0.437
		l-0.25,0.209c0,0-0.313,0.168-0.395,0.251c-0.083,0.083-0.265,0.146-0.265,0.146l0,0v5.272c0.014,0.031,0.036,0.057,0.056,0.084
		h13.544v-2.766C16.27,15.803,13.264,14.59,11.645,12.61z"/>
</g>
<path opacity="0.3" fill="#669CCC" enable-background="new    " d="M13.292,16.122c-2.555,0.106-6.378,0.928-8.123,1.329v1.683
	h13.601v-4.687C17.704,14.972,15.933,16.013,13.292,16.122z"/>
</svg>
