<?xml version="1.0" encoding="utf-8"?>
<!-- Generator: Adobe Illustrator 17.0.0, SVG Export Plug-In . SVG Version: 6.00 Build 0)  -->
<!DOCTYPE svg PUBLIC "-//W3C//DTD SVG 1.1//EN" "http://www.w3.org/Graphics/SVG/1.1/DTD/svg11.dtd">
<svg version="1.1" id="图层_1" xmlns="http://www.w3.org/2000/svg" xmlns:xlink="http://www.w3.org/1999/xlink" x="0px" y="0px"
	 width="22px" height="22px" viewBox="1 1 22 22" enable-background="new 1 1 22 22" xml:space="preserve">
<g>
	<path fill="#C4DCED" stroke="#9DBCD7" stroke-miterlimit="10" d="M22.476,19.735c0,1.527-1.238,2.765-2.765,2.765H4.241
		c-1.527,0-2.765-1.238-2.765-2.765V4.265c0-1.527,1.238-2.765,2.765-2.765h15.471c1.527,0,2.765,1.238,2.765,2.765L22.476,19.735
		L22.476,19.735z"/>
	<path opacity="0.6" fill="none" stroke="#FFFFFF" stroke-miterlimit="10" enable-background="new    " d="M4.241,21.543
		c-0.997,0-1.808-0.811-1.808-1.808V4.265c0-0.997,0.811-1.808,1.808-1.808h15.471c0.997,0,1.808,0.811,1.808,1.808v15.47
		c-0.001,0.997-0.812,1.808-1.809,1.808C19.711,21.543,4.241,21.543,4.241,21.543z"/>
	<path opacity="0.05" fill="none" stroke="#000000" stroke-width="0.3786" stroke-miterlimit="10" enable-background="new    " d="
		M22.551,7.477c0,0,0-0.929-0.917-0.929c-2.664,0-11.166,0.002-11.928,0.002c-0.925,0-0.917-0.915-0.917-0.915s0-0.922-0.917-0.922
		c-1.607,0-4.823,0-5.505,0c-0.903,0-0.917,0.888-0.917,0.916"/>
	
		<linearGradient id="SVGID_1_" gradientUnits="userSpaceOnUse" x1="1680" y1="2091.2607" x2="1680" y2="2073.9458" gradientTransform="matrix(1 0 0 1 -1668 -2069)">
		<stop  offset="0" style="stop-color:#D1E0ED"/>
		<stop  offset="1" style="stop-color:#E4EEFB"/>
	</linearGradient>
	<path fill="url(#SVGID_1_)" stroke="#9DBCD7" stroke-miterlimit="10" d="M4.259,22.261h15.528c1.527,0,2.712-1.27,2.712-2.796
		V7.067c0-0.217-0.326-0.422-0.758-0.422c-2.675,0-11.202,0.002-11.967,0.002C8.846,6.647,8.86,5.8,8.86,5.8
		s0.007-0.854-0.915-0.854c-1.613,0-4.845,0-5.529,0c-0.908,0-0.915,0.753-0.915,0.78v13.739
		C1.501,20.991,2.733,22.261,4.259,22.261z"/>
	<path opacity="0.8" fill="none" stroke="#FFFFFF" stroke-miterlimit="10" enable-background="new    " d="M4.234,21.543
		c-0.993,0-1.801-0.825-1.801-1.839V6.149l5.446-0.007c0.015,0.215,0.094,0.744,0.514,1.172C8.631,7.556,9.06,7.844,9.75,7.844
		l11.768-0.001v11.861c0,1.015-0.787,1.839-1.755,1.839L4.234,21.543L4.234,21.543z"/>
</g>
<g opacity="0.5" enable-background="new    ">
	<g>
		<path fill="#FFFFFF" d="M16.416,9.343L16.416,9.343l-1.92,0h-0.17H9.932v0H9.583v0h-2.09v0H7.125v11h0.368v0h2.09v0h0.487v0h4.257
			h0.308h1.782v0h0.542v-11H16.416z M9.125,19.343h-1v-1.048h1V19.343z M9.125,17.295h-1v-1h1V17.295z M9.125,15.295h-1v-1h1V15.295
			z M9.125,13.295h-1v-1h1V13.295z M9.125,11.295h-1v-0.952h1V11.295z M13.958,19.343h-3.833v-4.088h3.833V19.343z M13.958,14.255
			h-3.833v-3.912h3.833V14.255z M15.958,19.343h-1v-1.048h1V19.343z M15.958,17.295h-1v-1h1V17.295z M15.958,15.295h-1v-1h1V15.295z
			 M15.958,13.295h-1v-1h1V13.295z M14.958,11.295v-0.952h1v0.952H14.958z"/>
	</g>
	<g>
		<path fill="#669CCC" d="M16.416,8.343L16.416,8.343l-1.92,0h-0.17H9.932v0H9.583v0h-2.09v0H7.125v11h0.368v0h2.09v0h0.487v0h4.257
			h0.308h1.782v0h0.542v-11H16.416z M9.125,18.343h-1v-1.048h1V18.343z M9.125,16.295h-1v-1h1V16.295z M9.125,14.295h-1v-1h1V14.295
			z M9.125,12.295h-1v-1h1V12.295z M9.125,10.295h-1V9.343h1V10.295z M13.958,18.343h-3.833v-4.088h3.833V18.343z M13.958,13.255
			h-3.833V9.343h3.833V13.255z M15.958,18.343h-1v-1.048h1V18.343z M15.958,16.295h-1v-1h1V16.295z M15.958,14.295h-1v-1h1V14.295z
			 M15.958,12.295h-1v-1h1V12.295z M14.958,10.295V9.343h1v0.952H14.958z"/>
	</g>
</g>
</svg>
