<?xml version="1.0" encoding="utf-8"?>
<!-- Generator: Adobe Illustrator 17.0.0, SVG Export Plug-In . SVG Version: 6.00 Build 0)  -->
<!DOCTYPE svg PUBLIC "-//W3C//DTD SVG 1.1//EN" "http://www.w3.org/Graphics/SVG/1.1/DTD/svg11.dtd">
<svg version="1.1" id="图层_1" xmlns="http://www.w3.org/2000/svg" xmlns:xlink="http://www.w3.org/1999/xlink" x="0px" y="0px"
	 width="22px" height="22px" viewBox="1 1 22 22" enable-background="new 1 1 22 22" xml:space="preserve">
<path fill="#C4DCED" stroke="#9DBCD7" stroke-miterlimit="10" d="M22.476,19.735c0,1.527-1.238,2.765-2.765,2.765H4.241
	c-1.527,0-2.765-1.238-2.765-2.765V4.265c0-1.527,1.238-2.765,2.765-2.765h15.471c1.527,0,2.765,1.238,2.765,2.765L22.476,19.735
	L22.476,19.735z"/>
<path opacity="0.6" fill="none" stroke="#FFFFFF" stroke-miterlimit="10" enable-background="new    " d="M4.241,21.543
	c-0.997,0-1.808-0.811-1.808-1.808V4.265c0-0.997,0.811-1.808,1.808-1.808h15.471c0.997,0,1.808,0.811,1.808,1.808v15.47
	c-0.001,0.997-0.812,1.808-1.809,1.808C19.711,21.543,4.241,21.543,4.241,21.543z"/>
<linearGradient id="SVGID_1_" gradientUnits="userSpaceOnUse" x1="1679.9751" y1="2091.5" x2="1679.9751" y2="2074.1851" gradientTransform="matrix(1 0 0 1 -1668 -2069)">
	<stop  offset="0" style="stop-color:#D1E0ED"/>
	<stop  offset="1" style="stop-color:#E4EEFB"/>
</linearGradient>
<path fill="url(#SVGID_1_)" stroke="#9DBCD7" stroke-miterlimit="10" d="M4.234,22.5h15.528c1.527,0,2.712-1.27,2.712-2.796V7.307
	c0-0.217-0.326-0.422-0.758-0.422c-2.675,0-11.202,0.002-11.967,0.002c-0.929,0-0.915-0.847-0.915-0.847s0.007-0.854-0.915-0.854
	c-1.613,0-4.845,0-5.529,0c-0.908,0-0.915,0.753-0.915,0.78v13.739C1.476,21.23,2.708,22.5,4.234,22.5z"/>
<path opacity="0.8" fill="none" stroke="#FFFFFF" stroke-miterlimit="10" enable-background="new    " d="M4.234,21.543
	c-0.993,0-1.801-0.825-1.801-1.839V6.149l5.446-0.007c0.015,0.215,0.094,0.744,0.514,1.172C8.631,7.556,9.06,7.844,9.75,7.844
	l11.768-0.001v11.861c0,1.015-0.787,1.839-1.755,1.839L4.234,21.543L4.234,21.543z"/>
<g opacity="0.3" enable-background="new    ">
	<g>
		<path fill="#FFFFFF" d="M16.295,13.326l-0.003-2.949h-2.102v0.698l-2.199-2.077l-1.019,1.017l-4.577,4.575l1.065,1.003l0.235-0.19
			v4.908h8.597v-4.981l0.287,0.277l1.026-1.017L16.295,13.326z M14.866,11.003h0.74v1.578l-0.74-0.741V11.003z M12.643,19.724
			h-1.316v-2.14h1.316V19.724z M15.607,19.724l-2.18,0.013v-2.675h-2.866v2.675H8.268l0.015-4.966l3.74-3.74l3.583,3.584
			C15.607,14.616,15.607,19.724,15.607,19.724z"/>
	</g>
	<g>
		<g>
			<g>
				<path fill="#669CCC" d="M16.295,12.944l-0.003-2.949h-2.102v0.698l-2.199-2.077l-1.019,1.017L6.395,14.21l1.065,1.003
					l0.235-0.19v4.908h8.597v-4.982l0.287,0.277l1.026-1.017L16.295,12.944z M14.866,10.621h0.74v1.578l-0.74-0.741V10.621z
					 M12.643,19.343h-1.316v-2.14h1.316V19.343z M15.607,19.343l-2.18,0.013v-2.675h-2.866v2.675H8.268l0.015-4.966l3.74-3.74
					l3.583,3.584C15.607,14.234,15.607,19.343,15.607,19.343z"/>
			</g>
		</g>
	</g>
</g>
<path opacity="0.3" fill="#669CCC" enable-background="new    " d="M16.295,12.944l-0.003-2.949h-2.102v0.698l-2.199-2.077
	l-1.019,1.017L6.395,14.21l1.065,1.003l0.235-0.19v4.908h8.597v-4.982l0.287,0.277l1.026-1.017L16.295,12.944z M14.866,10.621h0.74
	v1.578l-0.74-0.741V10.621z M10.942,19.547v-2.484h0.003L10.942,19.547z M12.643,19.343h-1.316v-2.14h1.316V19.343z M13.026,19.547
	v-2.484h0.018L13.026,19.547z M15.607,19.343l-2.18,0.013v-2.675h-2.866v2.675H8.268l0.015-4.966l3.74-3.74l3.583,3.584
	C15.607,14.234,15.607,19.343,15.607,19.343z M16.575,14.691l-4.553-4.582l-4.544,4.597l-0.536-0.505l5.054-5.051l5.061,5.063
	L16.575,14.691z"/>
</svg>
