<?xml version="1.0" encoding="utf-8"?>
<!-- Generator: Adobe Illustrator 17.0.0, SVG Export Plug-In . SVG Version: 6.00 Build 0)  -->
<!DOCTYPE svg PUBLIC "-//W3C//DTD SVG 1.1//EN" "http://www.w3.org/Graphics/SVG/1.1/DTD/svg11.dtd">
<svg version="1.1" id="图层_1" xmlns="http://www.w3.org/2000/svg" xmlns:xlink="http://www.w3.org/1999/xlink" x="0px" y="0px"
	 width="22px" height="22px" viewBox="1 1 22 22" enable-background="new 1 1 22 22" xml:space="preserve">
<g>
	<path fill="#C4DCED" stroke="#9DBCD7" stroke-miterlimit="10" d="M22.475,19.735c0,1.527-1.238,2.765-2.765,2.765H4.24
		c-1.527,0-2.765-1.238-2.765-2.765V4.265C1.475,2.738,2.713,1.5,4.24,1.5h15.471c1.527,0,2.765,1.238,2.765,2.765L22.475,19.735
		L22.475,19.735z"/>
	<path opacity="0.6" fill="none" stroke="#FFFFFF" stroke-miterlimit="10" enable-background="new    " d="M4.24,21.543
		c-0.997,0-1.808-0.811-1.808-1.808V4.265c0-0.997,0.811-1.808,1.808-1.808h15.471c0.997,0,1.808,0.811,1.808,1.808v15.47
		c-0.001,0.997-0.812,1.808-1.809,1.808C19.71,21.543,4.24,21.543,4.24,21.543z"/>
	
		<linearGradient id="SVGID_1_" gradientUnits="userSpaceOnUse" x1="1679.974" y1="2091.5" x2="1679.974" y2="2074.1851" gradientTransform="matrix(1 0 0 1 -1668 -2069)">
		<stop  offset="0" style="stop-color:#D1E0ED"/>
		<stop  offset="1" style="stop-color:#E4EEFB"/>
	</linearGradient>
	<path fill="url(#SVGID_1_)" stroke="#9DBCD7" stroke-miterlimit="10" d="M4.233,22.5h15.528c1.527,0,2.712-1.27,2.712-2.796V7.307
		c0-0.217-0.326-0.422-0.758-0.422c-2.675,0-11.202,0.002-11.967,0.002c-0.929,0-0.915-0.847-0.915-0.847S8.84,5.185,7.918,5.185
		c-1.613,0-4.845,0-5.529,0c-0.908,0-0.915,0.753-0.915,0.78v13.739C1.475,21.23,2.707,22.5,4.233,22.5z"/>
	<path opacity="0.8" fill="none" stroke="#FFFFFF" stroke-miterlimit="10" enable-background="new    " d="M4.233,21.543
		c-0.993,0-1.801-0.825-1.801-1.839V6.149l5.446-0.007c0.015,0.215,0.094,0.744,0.514,1.172C8.63,7.556,9.059,7.844,9.749,7.844
		l11.768-0.001v11.861c0,1.015-0.787,1.839-1.755,1.839L4.233,21.543L4.233,21.543z"/>
</g>
<g>
	<path opacity="0.3" fill="#FFFFFF" enable-background="new    " d="M11.199,8.116c-0.518,0-0.939,0.437-0.939,0.949v0.471
		C10.085,9.598,9.92,9.671,9.756,9.75L9.427,9.413c-0.003,0-0.006,0-0.008,0C9.062,9.056,8.457,9.038,8.091,9.404l-1.138,1.138
		c-0.367,0.366-0.349,0.971,0.007,1.328c0,0.002,0,0.006,0,0.008l0.34,0.33c-0.079,0.164-0.153,0.329-0.216,0.502h-0.47
		c-0.511,0-0.949,0.422-0.949,0.939v1.6c0,0.521,0.439,0.941,0.949,0.941h0.47c0.063,0.173,0.137,0.339,0.216,0.504l-0.34,0.329
		c0,0.003,0,0.006,0,0.008c-0.355,0.356-0.374,0.961-0.007,1.327l1.138,1.139c0.195,0.195,0.449,0.273,0.676,0.272
		c0.239-0.003,0.479-0.108,0.653-0.281c0.003,0,0.006,0,0.008,0l0.329-0.339c0.164,0.079,0.329,0.153,0.504,0.215v0.47
		c0,0.513,0.422,0.949,0.94,0.949h1.6c0.519,0,0.941-0.436,0.941-0.949v-0.47c0.173-0.062,0.339-0.135,0.504-0.215l0.329,0.339
		c0.003,0,0.006,0,0.009,0c0.356,0.358,0.96,0.375,1.327,0.009l1.138-1.139c0.366-0.366,0.349-0.971-0.009-1.327
		c0-0.003,0-0.006,0-0.008l-0.337-0.329c0.078-0.165,0.153-0.33,0.215-0.504h0.47c0.511,0,0.948-0.42,0.948-0.941V13.65
		c0-0.518-0.437-0.939-0.948-0.939h-0.47c-0.062-0.174-0.137-0.339-0.215-0.502l0.337-0.33c0-0.003,0-0.006,0-0.008
		c0.358-0.357,0.375-0.961,0.009-1.328l-1.138-1.138c-0.367-0.366-0.971-0.349-1.327,0.009c-0.004,0-0.007,0-0.009,0l-0.33,0.338
		c-0.165-0.08-0.33-0.153-0.504-0.215V9.066c0-0.511-0.422-0.949-0.941-0.949C12.799,8.116,11.199,8.116,11.199,8.116z
		 M11.199,8.644h1.6c0.229,0,0.413,0.189,0.413,0.42v0.817c0.409,0.109,0.806,0.279,1.163,0.486l0.578-0.585
		c0.164-0.164,0.424-0.169,0.585-0.009l1.139,1.138c0.162,0.162,0.156,0.421-0.009,0.586l-0.586,0.576
		c0.208,0.357,0.377,0.753,0.488,1.162h0.816c0.232,0,0.42,0.185,0.42,0.413v1.6c0,0.229-0.189,0.414-0.42,0.414H16.57
		c-0.111,0.409-0.28,0.806-0.488,1.162l0.586,0.576c0.165,0.164,0.171,0.425,0.009,0.586l-1.14,1.139
		c-0.162,0.162-0.42,0.156-0.585-0.008l-0.578-0.587c-0.358,0.208-0.755,0.378-1.163,0.486v0.816c0,0.233-0.184,0.422-0.413,0.422
		h-1.6c-0.228,0-0.413-0.189-0.413-0.422v-0.816c-0.408-0.108-0.805-0.279-1.162-0.486l-0.578,0.587
		c-0.082,0.082-0.182,0.121-0.288,0.122c-0.106,0.002-0.216-0.034-0.297-0.115l-1.139-1.139c-0.161-0.161-0.154-0.421,0.01-0.585
		l0.585-0.576C7.709,16.467,7.54,16.07,7.43,15.662H6.613c-0.232,0-0.419-0.185-0.419-0.414v-1.6c0-0.228,0.187-0.413,0.419-0.413
		H7.43c0.111-0.408,0.28-0.805,0.486-1.162l-0.585-0.577c-0.164-0.164-0.171-0.424-0.009-0.586l1.139-1.138
		C8.623,9.61,8.883,9.616,9.046,9.781l0.578,0.585c0.358-0.208,0.753-0.378,1.162-0.486V9.065
		C10.787,8.832,10.971,8.644,11.199,8.644z M12,12.694c-0.968,0-1.756,0.788-1.756,1.757c0,0.968,0.788,1.757,1.756,1.757
		s1.757-0.789,1.757-1.757C13.756,13.482,12.967,12.694,12,12.694z M12,13.222c0.682,0,1.228,0.546,1.228,1.229
		c0,0.682-0.547,1.229-1.228,1.229c-0.682,0-1.229-0.547-1.229-1.229C10.771,13.767,11.318,13.222,12,13.222z"/>
	<path opacity="0.3" fill="#FFFFFF" enable-background="new    " d="M11.199,8.381c-0.372,0-0.676,0.313-0.676,0.685V9.71
		C10.23,9.802,9.948,9.915,9.68,10.056L9.237,9.601c0-0.003,0-0.006,0-0.008C8.975,9.331,8.535,9.321,8.271,9.584l-1.137,1.137
		c-0.264,0.264-0.253,0.704,0.008,0.965c0.003,0,0.006,0,0.008,0l0.455,0.445c-0.141,0.266-0.254,0.548-0.346,0.842H6.614
		c-0.371,0-0.685,0.302-0.685,0.676v1.6c0,0.374,0.314,0.677,0.685,0.677h0.645c0.093,0.293,0.206,0.576,0.346,0.841L7.15,17.213
		c-0.003,0-0.006,0-0.008,0c-0.26,0.26-0.272,0.701-0.008,0.964l1.137,1.137c0.138,0.138,0.32,0.193,0.486,0.19
		c0.173-0.002,0.351-0.07,0.479-0.198c0-0.003,0-0.007,0-0.009l0.443-0.452c0.266,0.14,0.549,0.253,0.843,0.345v0.643
		c0,0.372,0.303,0.686,0.676,0.686h1.6c0.375,0,0.677-0.314,0.677-0.686V19.19c0.293-0.093,0.575-0.206,0.843-0.345l0.445,0.452
		c0,0.003,0,0.007,0,0.009c0.26,0.26,0.701,0.272,0.964,0.008l1.139-1.137c0.263-0.264,0.253-0.704-0.009-0.964
		c-0.003,0-0.006,0-0.008,0l-0.455-0.447c0.142-0.264,0.255-0.548,0.346-0.841h0.644c0.371,0,0.685-0.303,0.685-0.677v-1.6
		c0-0.374-0.314-0.676-0.685-0.676H16.74c-0.091-0.293-0.205-0.576-0.346-0.842l0.455-0.445c0.003,0,0.006,0,0.008,0
		c0.261-0.26,0.272-0.701,0.009-0.965l-1.139-1.138c-0.264-0.264-0.704-0.253-0.964,0.008c0,0.003,0,0.006,0,0.008l-0.445,0.454
		c-0.266-0.141-0.549-0.254-0.843-0.346V9.065c0-0.371-0.302-0.685-0.677-0.685L11.199,8.381L11.199,8.381L11.199,8.381
		L11.199,8.381z M11.199,8.644h1.6c0.229,0,0.413,0.189,0.413,0.42v0.817c0.409,0.109,0.806,0.279,1.163,0.486l0.578-0.585
		c0.164-0.164,0.424-0.169,0.585-0.009l1.139,1.138c0.162,0.162,0.156,0.421-0.009,0.586l-0.586,0.576
		c0.208,0.357,0.377,0.753,0.488,1.162h0.816c0.232,0,0.42,0.185,0.42,0.413v1.6c0,0.229-0.189,0.414-0.42,0.414H16.57
		c-0.111,0.409-0.28,0.806-0.488,1.162l0.586,0.576c0.165,0.164,0.171,0.425,0.009,0.586l-1.14,1.139
		c-0.162,0.162-0.42,0.156-0.585-0.008l-0.578-0.587c-0.358,0.208-0.755,0.378-1.163,0.486v0.816c0,0.233-0.184,0.422-0.413,0.422
		h-1.6c-0.228,0-0.413-0.189-0.413-0.422v-0.816c-0.409-0.108-0.805-0.279-1.162-0.486l-0.578,0.587
		c-0.082,0.082-0.182,0.121-0.288,0.122c-0.106,0.002-0.216-0.034-0.297-0.115l-1.139-1.139c-0.162-0.162-0.154-0.422,0.009-0.586
		l0.585-0.576c-0.207-0.356-0.376-0.753-0.486-1.162H6.614c-0.232,0-0.419-0.185-0.419-0.414v-1.6c0-0.228,0.187-0.413,0.419-0.413
		H7.43c0.111-0.408,0.28-0.805,0.486-1.162l-0.585-0.577c-0.164-0.164-0.171-0.424-0.009-0.586l1.139-1.138
		C8.623,9.609,8.883,9.615,9.046,9.78l0.578,0.585c0.358-0.208,0.753-0.378,1.162-0.486V9.065
		C10.787,8.832,10.971,8.644,11.199,8.644z M11.999,12.694c-0.968,0-1.756,0.788-1.756,1.757c0,0.968,0.788,1.757,1.756,1.757
		s1.757-0.789,1.757-1.757C13.756,13.482,12.967,12.694,11.999,12.694z M11.999,12.957c0.826,0,1.493,0.666,1.493,1.493
		c0,0.825-0.666,1.493-1.493,1.493c-0.826,0-1.491-0.668-1.491-1.493C10.509,13.624,11.173,12.957,11.999,12.957z"/>
	<path opacity="0.3" fill="#669CCC" enable-background="new    " d="M11.198,20.257c-0.228,0-0.414-0.19-0.414-0.424v-0.819
		c-0.407-0.108-0.799-0.273-1.156-0.48l-0.584,0.584c-0.082,0.081-0.18,0.124-0.287,0.125c-0.105,0.002-0.213-0.036-0.295-0.119
		l-1.138-1.139c-0.162-0.16-0.156-0.418,0.009-0.582l0.582-0.582c-0.208-0.356-0.371-0.747-0.482-1.156H6.615
		c-0.232,0-0.42-0.185-0.42-0.414v-1.603c0-0.229,0.189-0.413,0.42-0.413h0.819c0.111-0.409,0.273-0.8,0.482-1.157l-0.582-0.582
		c-0.165-0.164-0.171-0.42-0.009-0.582l1.139-1.14c0.163-0.162,0.42-0.155,0.582,0.009l0.584,0.582
		c0.356-0.208,0.749-0.372,1.156-0.481V9.067c0-0.233,0.186-0.423,0.414-0.423h1.603c0.228,0,0.414,0.19,0.414,0.423v0.819
		c0.408,0.109,0.799,0.273,1.154,0.481l0.585-0.582c0.164-0.164,0.42-0.17,0.582-0.009l1.139,1.14
		c0.162,0.162,0.156,0.417-0.008,0.582l-0.583,0.582c0.208,0.357,0.372,0.748,0.482,1.157h0.819c0.232,0,0.422,0.184,0.422,0.413
		v1.603c0,0.229-0.19,0.414-0.422,0.414h-0.819c-0.109,0.409-0.273,0.799-0.482,1.156l0.583,0.582
		c0.164,0.164,0.169,0.422,0.008,0.582l-1.139,1.139c-0.162,0.164-0.418,0.157-0.582-0.007l-0.585-0.584
		c-0.355,0.207-0.746,0.372-1.154,0.48v0.819c0,0.233-0.186,0.424-0.414,0.424L11.198,20.257L11.198,20.257L11.198,20.257z
		 M12,16.206c0.969,0,1.755-0.788,1.755-1.756S12.967,12.694,12,12.694c-0.968,0-1.755,0.788-1.755,1.756
		C10.245,15.419,11.031,16.206,12,16.206z"/>
	<path opacity="0.3" fill="#669CCC" enable-background="new    " d="M11.199,8.644c-0.228,0-0.413,0.189-0.413,0.42v0.817
		c-0.409,0.109-0.805,0.279-1.162,0.486L9.046,9.782C8.884,9.618,8.623,9.613,8.462,9.773l-1.139,1.138
		c-0.162,0.162-0.155,0.421,0.009,0.586l0.585,0.577c-0.207,0.357-0.376,0.753-0.486,1.162H6.614c-0.232,0-0.419,0.185-0.419,0.413
		v1.6c0,0.229,0.187,0.414,0.419,0.414H7.43c0.111,0.409,0.28,0.806,0.486,1.162l-0.585,0.576c-0.164,0.164-0.171,0.425-0.009,0.586
		l1.139,1.139c0.081,0.081,0.19,0.116,0.297,0.115c0.105-0.002,0.206-0.04,0.288-0.122l0.578-0.587
		c0.358,0.208,0.753,0.378,1.162,0.486v0.816c0,0.233,0.185,0.422,0.413,0.422h1.6c0.229,0,0.413-0.189,0.413-0.422v-0.816
		c0.409-0.108,0.806-0.279,1.164-0.486l0.578,0.587c0.164,0.164,0.424,0.169,0.585,0.008l1.139-1.139
		c0.162-0.162,0.156-0.422-0.009-0.586l-0.586-0.577c0.208-0.356,0.377-0.753,0.488-1.162h0.816c0.232,0,0.42-0.185,0.42-0.414v-1.6
		c0-0.228-0.189-0.413-0.42-0.413h-0.816c-0.111-0.408-0.28-0.805-0.488-1.162l0.586-0.577c0.165-0.164,0.171-0.424,0.009-0.586
		l-1.139-1.138c-0.162-0.162-0.42-0.156-0.585,0.009l-0.578,0.585c-0.358-0.208-0.755-0.378-1.164-0.486V9.065
		c0-0.233-0.184-0.42-0.413-0.42C12.799,8.644,11.199,8.644,11.199,8.644z M11.315,9.172h1.369v0.709
		c0,0.24,0.163,0.451,0.394,0.511c0.361,0.096,0.713,0.244,1.033,0.429c0.208,0.122,0.474,0.089,0.643-0.083l0.504-0.502
		l0.957,0.957l-0.502,0.502c-0.172,0.171-0.206,0.436-0.083,0.644c0.185,0.319,0.333,0.672,0.43,1.031
		c0.06,0.233,0.27,0.396,0.512,0.396h0.708v1.37h-0.708c-0.24,0-0.452,0.163-0.512,0.396c-0.097,0.358-0.245,0.713-0.43,1.031
		c-0.122,0.207-0.089,0.473,0.083,0.643l0.502,0.504l-0.957,0.956l-0.504-0.502c-0.169-0.172-0.435-0.205-0.643-0.082
		c-0.319,0.185-0.672,0.333-1.033,0.429c-0.232,0.06-0.394,0.27-0.394,0.512v0.709h-1.369v-0.709c0-0.24-0.163-0.452-0.395-0.512
		c-0.36-0.095-0.712-0.243-1.031-0.429c-0.208-0.122-0.473-0.09-0.643,0.082l-0.504,0.502L7.785,17.71l0.504-0.504
		c0.171-0.171,0.205-0.436,0.082-0.643c-0.185-0.318-0.333-0.673-0.429-1.031c-0.061-0.233-0.272-0.396-0.514-0.396H6.721v-1.37
		h0.708c0.24,0,0.452-0.163,0.514-0.396c0.095-0.359,0.243-0.712,0.429-1.031c0.122-0.208,0.089-0.473-0.082-0.644l-0.504-0.502
		l0.957-0.957l0.504,0.502c0.171,0.172,0.435,0.205,0.643,0.083c0.319-0.185,0.672-0.333,1.031-0.429
		c0.233-0.06,0.395-0.27,0.395-0.511C11.315,9.881,11.315,9.172,11.315,9.172z M12,12.166c-1.255,0-2.284,1.03-2.284,2.284
		c0,1.257,1.03,2.286,2.284,2.286s2.284-1.03,2.284-2.286C14.284,13.195,13.254,12.166,12,12.166z M12,12.694
		c0.969,0,1.757,0.788,1.757,1.757c0,0.968-0.789,1.757-1.757,1.757s-1.756-0.789-1.756-1.757
		C10.243,13.482,11.031,12.694,12,12.694z"/>
	<path opacity="0.3" fill="#669CCC" enable-background="new    " d="M11.199,8.644c-0.228,0-0.413,0.189-0.413,0.42v0.817
		c-0.409,0.109-0.805,0.279-1.162,0.486L9.046,9.782C8.884,9.618,8.623,9.613,8.462,9.773l-1.139,1.138
		c-0.162,0.162-0.155,0.421,0.009,0.586l0.585,0.577c-0.207,0.357-0.376,0.753-0.486,1.162H6.614c-0.232,0-0.419,0.185-0.419,0.413
		v1.6c0,0.229,0.187,0.414,0.419,0.414H7.43c0.111,0.409,0.28,0.806,0.486,1.162l-0.585,0.576c-0.164,0.164-0.171,0.425-0.009,0.586
		l1.139,1.139c0.081,0.081,0.19,0.116,0.297,0.115c0.105-0.002,0.206-0.04,0.288-0.122l0.578-0.587
		c0.358,0.208,0.753,0.378,1.162,0.486v0.816c0,0.233,0.185,0.422,0.413,0.422h1.6c0.229,0,0.413-0.189,0.413-0.422v-0.816
		c0.409-0.108,0.806-0.279,1.164-0.486l0.578,0.587c0.164,0.164,0.424,0.169,0.585,0.008l1.139-1.139
		c0.162-0.162,0.156-0.422-0.009-0.586l-0.586-0.577c0.208-0.356,0.377-0.753,0.488-1.162h0.816c0.232,0,0.42-0.185,0.42-0.414v-1.6
		c0-0.228-0.189-0.413-0.42-0.413h-0.816c-0.111-0.408-0.28-0.805-0.488-1.162l0.586-0.577c0.165-0.164,0.171-0.424,0.009-0.586
		l-1.139-1.138c-0.162-0.162-0.42-0.156-0.585,0.009l-0.578,0.585c-0.358-0.208-0.755-0.378-1.164-0.486V9.065
		c0-0.233-0.184-0.42-0.413-0.42C12.799,8.644,11.199,8.644,11.199,8.644z M11.199,8.909h1.6c0.084,0,0.15,0.063,0.15,0.156v0.817
		c0,0.12,0.081,0.226,0.198,0.255c0.383,0.103,0.759,0.265,1.097,0.462c0.104,0.06,0.238,0.04,0.322-0.049l0.576-0.577
		c0.068-0.069,0.147-0.068,0.206-0.009l1.139,1.138c0.058,0.06,0.058,0.138-0.008,0.207L15.9,11.886
		c-0.088,0.083-0.109,0.216-0.049,0.322c0.196,0.338,0.36,0.713,0.462,1.097c0.03,0.117,0.135,0.198,0.256,0.198h0.816
		c0.093,0,0.157,0.065,0.157,0.148v1.6c0,0.084-0.065,0.15-0.157,0.15h-0.816c-0.121,0-0.227,0.081-0.256,0.196
		c-0.103,0.384-0.265,0.76-0.462,1.098c-0.06,0.105-0.039,0.238,0.049,0.32l0.578,0.578c0.067,0.069,0.067,0.146,0.008,0.206
		l-1.139,1.139c-0.058,0.06-0.138,0.06-0.206-0.008l-0.576-0.578c-0.083-0.089-0.217-0.109-0.322-0.049
		c-0.339,0.196-0.714,0.36-1.097,0.462c-0.117,0.03-0.198,0.135-0.198,0.255v0.816c0,0.094-0.065,0.157-0.15,0.157h-1.6
		c-0.083,0-0.148-0.064-0.148-0.157V19.02c0-0.12-0.081-0.226-0.198-0.255c-0.383-0.103-0.759-0.265-1.097-0.462
		c-0.105-0.06-0.238-0.04-0.322,0.049L8.858,18.93c-0.036,0.036-0.058,0.048-0.099,0.048c-0.047,0.002-0.084-0.017-0.106-0.04
		l-1.139-1.139c-0.06-0.06-0.06-0.137,0.009-0.206L8.1,17.014c0.09-0.082,0.109-0.215,0.049-0.32
		c-0.196-0.339-0.361-0.714-0.462-1.098C7.657,15.48,7.552,15.4,7.431,15.4H6.614c-0.093,0-0.154-0.065-0.154-0.15v-1.6
		c0-0.083,0.062-0.148,0.154-0.148H7.43c0.121,0,0.227-0.081,0.256-0.198c0.101-0.384,0.265-0.758,0.462-1.097
		c0.06-0.106,0.04-0.238-0.049-0.322l-0.576-0.577c-0.069-0.069-0.069-0.147-0.009-0.207l1.139-1.138
		c0.058-0.06,0.137-0.06,0.206,0.009l0.576,0.577c0.083,0.089,0.216,0.109,0.322,0.049c0.339-0.196,0.713-0.36,1.097-0.462
		c0.117-0.03,0.198-0.135,0.198-0.255V9.064C11.051,8.973,11.116,8.909,11.199,8.909z M12,12.43c-1.111,0-2.02,0.909-2.02,2.02
		s0.908,2.02,2.02,2.02c1.111,0,2.02-0.908,2.02-2.02C14.019,13.338,13.111,12.43,12,12.43z M12,12.694
		c0.969,0,1.757,0.788,1.757,1.757c0,0.968-0.789,1.757-1.757,1.757s-1.756-0.789-1.756-1.757
		C10.243,13.482,11.031,12.694,12,12.694z"/>
	<path opacity="0.3" fill="#669CCC" enable-background="new    " d="M11.199,8.644c-0.228,0-0.413,0.189-0.413,0.42v0.264
		c0-0.233,0.185-0.42,0.413-0.42h1.6c0.229,0,0.413,0.188,0.413,0.42V9.064c0-0.233-0.184-0.42-0.413-0.42H11.199z M8.751,9.659
		C8.645,9.656,8.543,9.693,8.462,9.774l-1.139,1.138c-0.109,0.111-0.133,0.265-0.091,0.404c0.019-0.049,0.05-0.099,0.091-0.14
		l1.139-1.138c0.162-0.162,0.421-0.156,0.585,0.009l0.578,0.586c0.358-0.208,0.753-0.378,1.162-0.487V9.882
		c-0.409,0.109-0.805,0.279-1.162,0.486L9.046,9.783C8.965,9.7,8.855,9.661,8.751,9.659z M15.25,9.659
		c-0.105,0.002-0.215,0.041-0.297,0.124l-0.578,0.585c-0.358-0.208-0.755-0.378-1.164-0.486v0.264
		c0.409,0.109,0.806,0.279,1.164,0.487l0.578-0.586c0.164-0.164,0.423-0.171,0.585-0.009l1.139,1.138
		c0.041,0.04,0.071,0.09,0.09,0.14c0.044-0.138,0.019-0.293-0.09-0.404l-1.139-1.138C15.456,9.693,15.354,9.657,15.25,9.659z
		 M7.827,12.248c-0.164,0.311-0.303,0.644-0.397,0.989H6.614c-0.232,0-0.419,0.185-0.419,0.413v0.264
		c0-0.228,0.188-0.413,0.419-0.413H7.43c0.111-0.409,0.28-0.805,0.486-1.162L7.827,12.248z M16.172,12.248l-0.091,0.09
		c0.208,0.357,0.377,0.753,0.488,1.162h0.816c0.232,0,0.42,0.185,0.42,0.413V13.65c0-0.228-0.189-0.413-0.42-0.413h-0.816
		C16.476,12.892,16.337,12.559,16.172,12.248z M10.25,14.583c-0.002,0.042-0.007,0.087-0.007,0.13c0,0.97,0.788,1.757,1.756,1.757
		c0.969,0,1.757-0.788,1.757-1.757c0-0.042-0.006-0.087-0.009-0.13c-0.067,0.907-0.822,1.624-1.748,1.624
		C11.074,16.208,10.318,15.491,10.25,14.583z M7.827,16.917l-0.494,0.486c-0.121,0.122-0.153,0.291-0.1,0.439
		c0.02-0.064,0.049-0.124,0.1-0.175l0.585-0.576C7.885,17.034,7.856,16.974,7.827,16.917z M16.172,16.917
		c-0.03,0.057-0.058,0.117-0.091,0.173l0.586,0.576c0.051,0.051,0.079,0.111,0.099,0.175c0.056-0.148,0.022-0.317-0.099-0.439
		L16.172,16.917z"/>
	<path opacity="0.3" fill="#FFFFFF" enable-background="new    " d="M7.232,11.324c-0.053,0.146-0.022,0.316,0.1,0.437l0.494,0.486
		c0.03-0.057,0.058-0.118,0.09-0.173l-0.585-0.577C7.281,11.447,7.253,11.386,7.232,11.324z M16.766,11.324
		c-0.019,0.061-0.048,0.122-0.099,0.173l-0.586,0.577c0.033,0.055,0.061,0.116,0.092,0.173l0.494-0.486
		C16.788,11.641,16.822,11.471,16.766,11.324z M12,12.694c-0.968,0-1.756,0.788-1.756,1.757c0,0.044,0.006,0.089,0.007,0.133
		c0.068-0.908,0.824-1.626,1.75-1.626c0.925,0,1.681,0.717,1.748,1.626c0.004-0.044,0.009-0.089,0.009-0.133
		C13.756,13.482,12.967,12.694,12,12.694z M6.194,15.25v0.264c0,0.229,0.188,0.413,0.419,0.413H7.43
		c0.094,0.345,0.233,0.68,0.397,0.991l0.09-0.091c-0.207-0.356-0.376-0.753-0.486-1.162H6.614
		C6.382,15.664,6.194,15.478,6.194,15.25z M17.806,15.25c0,0.229-0.189,0.414-0.42,0.414H16.57c-0.111,0.409-0.28,0.806-0.488,1.162
		l0.092,0.091c0.164-0.311,0.303-0.646,0.397-0.991h0.816c0.232,0,0.42-0.184,0.42-0.413v-0.265L17.806,15.25L17.806,15.25z
		 M7.232,17.848c-0.041,0.141-0.018,0.295,0.092,0.405l1.139,1.137c0.081,0.082,0.19,0.117,0.297,0.116
		c0.105-0.002,0.206-0.04,0.288-0.124l0.578-0.586c0.358,0.207,0.753,0.378,1.162,0.486V19.02c-0.409-0.108-0.805-0.279-1.162-0.486
		l-0.578,0.587c-0.082,0.082-0.182,0.121-0.288,0.122c-0.106,0.002-0.216-0.034-0.297-0.115l-1.139-1.139
		C7.282,17.947,7.251,17.897,7.232,17.848z M13.211,19.019v0.264c0.409-0.108,0.806-0.28,1.164-0.486l0.578,0.586
		c0.164,0.165,0.424,0.169,0.585,0.008l1.139-1.137c0.109-0.109,0.134-0.264,0.09-0.405c-0.018,0.049-0.049,0.1-0.09,0.141
		l-1.139,1.139c-0.162,0.162-0.42,0.156-0.585-0.008l-0.578-0.587C14.017,18.74,13.62,18.911,13.211,19.019 M10.787,19.835v0.264
		c0,0.233,0.185,0.422,0.413,0.422h1.6c0.229,0,0.413-0.189,0.413-0.422v-0.264c0,0.233-0.184,0.422-0.413,0.422h-1.6
		C10.971,20.257,10.787,20.069,10.787,19.835z"/>
</g>
</svg>
