<?xml version="1.0" encoding="utf-8"?>
<!-- Generator: Adobe Illustrator 17.0.0, SVG Export Plug-In . SVG Version: 6.00 Build 0)  -->
<!DOCTYPE svg PUBLIC "-//W3C//DTD SVG 1.1//EN" "http://www.w3.org/Graphics/SVG/1.1/DTD/svg11.dtd">
<svg version="1.1" id="图层_1" xmlns="http://www.w3.org/2000/svg" xmlns:xlink="http://www.w3.org/1999/xlink" x="0px" y="0px"
	 width="22px" height="22px" viewBox="1 1 22 22" enable-background="new 1 1 22 22" xml:space="preserve">
<path fill="#C4DCED" stroke="#9DBCD7" stroke-miterlimit="10" d="M22.476,19.735c0,1.527-1.238,2.765-2.765,2.765H4.241
	c-1.527,0-2.765-1.238-2.765-2.765V4.265c0-1.527,1.238-2.765,2.765-2.765h15.471c1.527,0,2.765,1.238,2.765,2.765L22.476,19.735
	L22.476,19.735z"/>
<path opacity="0.6" fill="none" stroke="#FFFFFF" stroke-miterlimit="10" enable-background="new    " d="M4.241,21.543
	c-0.997,0-1.808-0.811-1.808-1.808V4.265c0-0.997,0.811-1.808,1.808-1.808h15.471c0.997,0,1.808,0.811,1.808,1.808v15.47
	c-0.001,0.997-0.812,1.808-1.809,1.808C19.711,21.543,4.241,21.543,4.241,21.543z"/>
<linearGradient id="SVGID_1_" gradientUnits="userSpaceOnUse" x1="1679.9751" y1="2091.5" x2="1679.9751" y2="2074.1851" gradientTransform="matrix(1 0 0 1 -1668 -2069)">
	<stop  offset="0" style="stop-color:#D1E0ED"/>
	<stop  offset="1" style="stop-color:#E4EEFB"/>
</linearGradient>
<path fill="url(#SVGID_1_)" stroke="#9DBCD7" stroke-miterlimit="10" d="M4.234,22.5h15.528c1.527,0,2.712-1.27,2.712-2.796V7.307
	c0-0.217-0.326-0.422-0.758-0.422c-2.675,0-11.202,0.002-11.967,0.002c-0.929,0-0.915-0.847-0.915-0.847s0.007-0.854-0.915-0.854
	c-1.613,0-4.845,0-5.529,0c-0.908,0-0.915,0.753-0.915,0.78v13.739C1.476,21.23,2.708,22.5,4.234,22.5z"/>
<path opacity="0.8" fill="none" stroke="#FFFFFF" stroke-miterlimit="10" enable-background="new    " d="M4.234,21.543
	c-0.993,0-1.801-0.825-1.801-1.839V6.149l5.446-0.007c0.015,0.215,0.094,0.744,0.514,1.172C8.631,7.556,9.06,7.844,9.75,7.844
	l11.768-0.001v11.861c0,1.015-0.787,1.839-1.755,1.839L4.234,21.543L4.234,21.543z"/>
<g opacity="0.5" enable-background="new    ">
	<g>
		<path fill="#FFFFFF" d="M13.912,9.983c-0.397,0.009-0.795,0.146-1.119,0.42c-1.043,0.881-0.233,1.797-1.142,2.565
			c-0.91,0.768-1.716-0.15-2.757,0.731v0.002c-0.233,0.196-0.399,0.438-0.5,0.701c0,0.001,0,0.004-0.001,0.006
			c-0.021,0.054-0.037,0.106-0.054,0.162c-0.007,0.025-0.013,0.049-0.019,0.074c-0.001,0.003-0.001,0.006-0.002,0.009
			c-0.011,0.052-0.019,0.103-0.026,0.156c0,0,0,0,0,0.002s-0.001,0.006-0.001,0.008c-0.004,0.025-0.006,0.049-0.008,0.074
			c-0.001,0.019-0.004,0.037-0.004,0.056c0,0.01-0.001,0.019-0.001,0.029c0,0.004,0,0.007,0,0.01c-0.001,0.025-0.001,0.049,0,0.073
			c0,0.012,0.001,0.026,0.001,0.038c0.001,0.018,0.004,0.037,0.004,0.056c0.002,0.028,0.006,0.055,0.009,0.082v0.001
			c0.008,0.052,0.014,0.103,0.026,0.156c0.001,0.003,0.001,0.006,0.002,0.009c0.006,0.025,0.012,0.049,0.019,0.073
			c0.015,0.056,0.033,0.108,0.054,0.162c0.001,0.002,0.001,0.004,0.001,0.006c0.101,0.262,0.268,0.504,0.5,0.7v0.002
			c1.043,0.881,1.848-0.037,2.757,0.731c0.911,0.768,0.101,1.684,1.142,2.565c0.742,0.626,1.859,0.545,2.499-0.182
			c0.639-0.726,0.556-1.822-0.184-2.448c-1.043-0.881-1.848,0.039-2.758-0.73c-0.459-0.388-0.48-0.815-0.521-1.254
			c0.041-0.439,0.062-0.866,0.521-1.254c0.911-0.768,1.717,0.151,2.758-0.73c0.741-0.626,0.822-1.722,0.184-2.448
			C14.933,10.176,14.423,9.972,13.912,9.983C13.912,9.982,13.912,9.982,13.912,9.983z"/>
	</g>
	<g>
		<path fill="#669CCC" d="M13.912,8.983c-0.397,0.009-0.795,0.146-1.119,0.42c-1.043,0.881-0.233,1.797-1.142,2.565
			c-0.91,0.768-1.716-0.15-2.757,0.731v0.002c-0.233,0.196-0.399,0.438-0.5,0.701c0,0.001,0,0.004-0.001,0.006
			c-0.021,0.054-0.037,0.106-0.054,0.162c-0.007,0.025-0.013,0.049-0.019,0.074c-0.001,0.003-0.001,0.006-0.002,0.009
			c-0.011,0.052-0.019,0.103-0.026,0.156c0,0,0,0,0,0.002s-0.001,0.006-0.001,0.008c-0.004,0.025-0.006,0.049-0.008,0.074
			c-0.001,0.019-0.004,0.037-0.004,0.056c0,0.01-0.001,0.019-0.001,0.029c0,0.004,0,0.007,0,0.01c-0.001,0.025-0.001,0.049,0,0.073
			c0,0.012,0.001,0.026,0.001,0.038c0.001,0.018,0.004,0.037,0.004,0.056c0.002,0.028,0.006,0.055,0.009,0.082v0.001
			c0.008,0.052,0.014,0.103,0.026,0.156c0.001,0.003,0.001,0.006,0.002,0.009c0.006,0.025,0.012,0.049,0.019,0.073
			c0.015,0.056,0.033,0.108,0.054,0.162c0.001,0.002,0.001,0.004,0.001,0.006c0.101,0.262,0.268,0.504,0.5,0.7v0.002
			c1.043,0.881,1.848-0.037,2.757,0.731c0.911,0.768,0.101,1.684,1.142,2.565c0.742,0.626,1.859,0.545,2.499-0.182
			c0.639-0.726,0.556-1.822-0.184-2.448c-1.043-0.881-1.848,0.039-2.758-0.73c-0.459-0.388-0.48-0.815-0.521-1.254
			c0.041-0.439,0.062-0.866,0.521-1.254c0.911-0.768,1.717,0.151,2.758-0.73c0.741-0.626,0.822-1.722,0.184-2.448
			C14.933,9.176,14.423,8.972,13.912,8.983C13.912,8.982,13.912,8.982,13.912,8.983z"/>
	</g>
</g>
</svg>
