<?xml version="1.0" encoding="utf-8"?>
<!-- Generator: Adobe Illustrator 17.0.0, SVG Export Plug-In . SVG Version: 6.00 Build 0)  -->
<!DOCTYPE svg PUBLIC "-//W3C//DTD SVG 1.1//EN" "http://www.w3.org/Graphics/SVG/1.1/DTD/svg11.dtd">
<svg version="1.1" id="图层_1" xmlns="http://www.w3.org/2000/svg" xmlns:xlink="http://www.w3.org/1999/xlink" x="0px" y="0px"
	 width="22px" height="22px" viewBox="1 1 22 22" enable-background="new 1 1 22 22" xml:space="preserve">
<g>
	<rect x="9.708" y="11.335" opacity="0.3" fill="#669CCC" width="3.503" height="0.528"/>
	<rect x="9.708" y="13.717" opacity="0.3" fill="#669CCC" width="4.583" height="0.528"/>
	<rect x="9.708" y="16.043" opacity="0.3" fill="#669CCC" width="4.583" height="0.528"/>
</g>
<g>
	<path fill="#C4DCED" stroke="#9DBCD7" stroke-miterlimit="10" d="M22.476,19.735c0,1.527-1.238,2.765-2.765,2.765H4.241
		c-1.527,0-2.765-1.238-2.765-2.765V4.265c0-1.527,1.238-2.765,2.765-2.765h15.471c1.527,0,2.765,1.238,2.765,2.765L22.476,19.735
		L22.476,19.735z"/>
	<path opacity="0.6" fill="none" stroke="#FFFFFF" stroke-miterlimit="10" enable-background="new    " d="M4.241,21.543
		c-0.997,0-1.808-0.811-1.808-1.808V4.265c0-0.997,0.811-1.808,1.808-1.808h15.471c0.997,0,1.808,0.811,1.808,1.808v15.47
		c-0.001,0.997-0.812,1.808-1.809,1.808C19.711,21.543,4.241,21.543,4.241,21.543z"/>
	<path opacity="0.05" fill="none" stroke="#000000" stroke-width="0.3786" stroke-miterlimit="10" enable-background="new    " d="
		M22.551,7.477c0,0,0-0.929-0.917-0.929c-2.664,0-11.166,0.002-11.928,0.002c-0.925,0-0.917-0.915-0.917-0.915s0-0.922-0.917-0.922
		c-1.607,0-4.823,0-5.505,0c-0.903,0-0.917,0.888-0.917,0.916"/>
	
		<linearGradient id="SVGID_1_" gradientUnits="userSpaceOnUse" x1="1679.9751" y1="2091.5" x2="1679.9751" y2="2074.1851" gradientTransform="matrix(1 0 0 1 -1668 -2069)">
		<stop  offset="0" style="stop-color:#D1E0ED"/>
		<stop  offset="1" style="stop-color:#E4EEFB"/>
	</linearGradient>
	<path fill="url(#SVGID_1_)" stroke="#9DBCD7" stroke-miterlimit="10" d="M4.234,22.5h15.528c1.527,0,2.712-1.27,2.712-2.796V7.307
		c0-0.217-0.326-0.422-0.758-0.422c-2.675,0-11.202,0.002-11.967,0.002c-0.929,0-0.915-0.847-0.915-0.847s0.007-0.854-0.915-0.854
		c-1.613,0-4.845,0-5.529,0c-0.908,0-0.915,0.753-0.915,0.78v13.739C1.476,21.23,2.708,22.5,4.234,22.5z"/>
	<path opacity="0.8" fill="none" stroke="#FFFFFF" stroke-miterlimit="10" enable-background="new    " d="M4.234,21.543
		c-0.993,0-1.801-0.825-1.801-1.839V6.149l5.446-0.007c0.015,0.215,0.094,0.744,0.514,1.172C8.631,7.556,9.06,7.844,9.75,7.844
		l11.768-0.001v11.861c0,1.015-0.787,1.839-1.755,1.839L4.234,21.543L4.234,21.543z"/>
	<g opacity="0.3">
		<g>
			<path fill="#FFFFFF" d="M16.994,20.899H7.006V9.343h6.556l3.432,3.357V20.899z M8.649,19.123h6.702v-5.677l-2.379-2.326H8.649
				V19.123z"/>
		</g>
		<g>
			<path fill="#669CCC" d="M16.994,19.899H7.006V8.343h6.556l3.432,3.357V19.899z M8.649,18.123h6.702v-5.677l-2.379-2.326H8.649
				V18.123z"/>
		</g>
	</g>
	<g>
		<path opacity="0.3" fill="#669CCC" d="M8.17,9.641v8.96h7.659v-6.357l-2.662-2.603H8.17z M15.351,18.123H8.649v-8.003h4.323
			l2.379,2.326V18.123z"/>
		<path opacity="0.3" fill="#669CCC" d="M13.562,8.343H7.006v11.555h9.988V11.7L13.562,8.343z M16.515,19.42h-9.03V8.822h5.881
			l3.149,3.079V19.42z"/>
	</g>
	<g opacity="0.3">
		<g>
			<line fill="none" stroke="#FFFFFF" stroke-miterlimit="10" x1="9.806" y1="12.84" x2="13.16" y2="12.84"/>
		</g>
		<g>
			<line fill="none" stroke="#669CCC" stroke-miterlimit="10" x1="9.806" y1="11.84" x2="13.16" y2="11.84"/>
		</g>
	</g>
	<g opacity="0.3">
		<g>
			<line fill="none" stroke="#FFFFFF" stroke-miterlimit="10" x1="9.806" y1="15.121" x2="14.194" y2="15.121"/>
		</g>
		<g>
			<line fill="none" stroke="#669CCC" stroke-miterlimit="10" x1="9.806" y1="14.121" x2="14.194" y2="14.121"/>
		</g>
	</g>
	<g opacity="0.3">
		<g>
			<line fill="none" stroke="#FFFFFF" stroke-miterlimit="10" x1="9.806" y1="17.348" x2="14.194" y2="17.348"/>
		</g>
		<g>
			<line fill="none" stroke="#669CCC" stroke-miterlimit="10" x1="9.806" y1="16.348" x2="14.194" y2="16.348"/>
		</g>
	</g>
</g>
</svg>
