<?xml version="1.0" encoding="utf-8"?>
<!-- Generator: Adobe Illustrator 17.0.0, SVG Export Plug-In . SVG Version: 6.00 Build 0)  -->
<!DOCTYPE svg PUBLIC "-//W3C//DTD SVG 1.1//EN" "http://www.w3.org/Graphics/SVG/1.1/DTD/svg11.dtd">
<svg version="1.1" id="图层_1" xmlns="http://www.w3.org/2000/svg" xmlns:xlink="http://www.w3.org/1999/xlink" x="0px" y="0px"
	 width="22px" height="22px" viewBox="1 1 22 22" enable-background="new 1 1 22 22" xml:space="preserve">
<path fill="#C4DCED" stroke="#9DBCD7" stroke-miterlimit="10" d="M22.476,19.735c0,1.527-1.238,2.765-2.765,2.765H4.241
	c-1.527,0-2.765-1.238-2.765-2.765V4.265c0-1.527,1.238-2.765,2.765-2.765h15.471c1.527,0,2.765,1.238,2.765,2.765L22.476,19.735
	L22.476,19.735z"/>
<path opacity="0.6" fill="none" stroke="#FFFFFF" stroke-miterlimit="10" enable-background="new    " d="M4.241,21.543
	c-0.997,0-1.808-0.811-1.808-1.808V4.265c0-0.997,0.811-1.808,1.808-1.808h15.471c0.997,0,1.808,0.811,1.808,1.808v15.47
	c-0.001,0.997-0.812,1.808-1.809,1.808C19.711,21.543,4.241,21.543,4.241,21.543z"/>
<linearGradient id="SVGID_1_" gradientUnits="userSpaceOnUse" x1="1679.9751" y1="2091.5" x2="1679.9751" y2="2074.1851" gradientTransform="matrix(1 0 0 1 -1668 -2069)">
	<stop  offset="0" style="stop-color:#D1E0ED"/>
	<stop  offset="1" style="stop-color:#E4EEFB"/>
</linearGradient>
<path fill="url(#SVGID_1_)" stroke="#9DBCD7" stroke-miterlimit="10" d="M4.234,22.5h15.528c1.527,0,2.712-1.27,2.712-2.796V7.307
	c0-0.217-0.326-0.422-0.758-0.422c-2.675,0-11.202,0.002-11.967,0.002c-0.929,0-0.915-0.847-0.915-0.847s0.007-0.854-0.915-0.854
	c-1.613,0-4.845,0-5.529,0c-0.908,0-0.915,0.753-0.915,0.78v13.739C1.476,21.23,2.708,22.5,4.234,22.5z"/>
<path opacity="0.8" fill="none" stroke="#FFFFFF" stroke-miterlimit="10" enable-background="new    " d="M4.234,21.543
	c-0.993,0-1.801-0.825-1.801-1.839V6.149l5.446-0.007c0.015,0.215,0.094,0.744,0.514,1.172C8.631,7.556,9.06,7.844,9.75,7.844
	l11.768-0.001v11.861c0,1.015-0.787,1.839-1.755,1.839L4.234,21.543L4.234,21.543z"/>
<g opacity="0.5">
	<g>
		<path fill="#FFFFFF" d="M14.125,20.563c-0.591,0-1.282-0.288-2.002-0.834l-0.121-0.092l-0.121,0.092
			c-0.719,0.546-1.412,0.834-2.002,0.834c-0.277,0-0.528-0.064-0.747-0.19c-0.648-0.374-0.947-1.25-0.841-2.465
			c0.007-0.08,0.045-0.392,0.045-0.392l-0.139-0.06c-1.23-0.52-1.936-1.27-1.936-2.057s0.706-1.537,1.936-2.057l0.14-0.059
			l-0.019-0.15c-0.165-1.326,0.132-2.312,0.813-2.705c0.218-0.126,0.47-0.19,0.747-0.19c0.591,0,1.283,0.288,2.003,0.833
			l0.121,0.092l0.121-0.092c0.719-0.545,1.412-0.833,2.002-0.833c0.276,0,0.528,0.064,0.746,0.19
			c0.682,0.394,0.979,1.38,0.813,2.705l-0.019,0.15l0.139,0.059c1.23,0.52,1.937,1.269,1.937,2.057c0,0.787-0.704,1.537-1.933,2.057
			l-0.14,0.06l0.046,0.393c0.106,1.214-0.192,2.089-0.841,2.464C14.653,20.499,14.402,20.563,14.125,20.563z M15.213,17.676
			c-0.489,0.157-1.029,0.277-1.605,0.356l-0.081,0.012l-0.05,0.064c-0.354,0.457-0.728,0.865-1.111,1.214l-0.182,0.166l0.199,0.145
			c0.632,0.458,1.234,0.7,1.74,0.7c0.236,0,0.448-0.054,0.632-0.16c0.559-0.322,0.823-1.141,0.728-2.246l-0.021-0.25L15.213,17.676z
			 M8.521,17.883c-0.101,1.15,0.165,1.969,0.723,2.29c0.18,0.106,0.393,0.16,0.632,0.16c0.505,0,1.106-0.242,1.74-0.7l0.2-0.145
			l-0.182-0.166c-0.384-0.349-0.758-0.758-1.111-1.214l-0.05-0.065l-0.081-0.011c-0.576-0.079-1.116-0.199-1.606-0.356l-0.232-0.074
			L8.521,17.883z M11.107,18.45c0.248,0.282,0.504,0.54,0.76,0.767l0.132,0.116l0.132-0.116c0.257-0.228,0.513-0.485,0.76-0.768
			l0.314-0.358l-0.477,0.027c-0.238,0.013-0.482,0.021-0.73,0.021s-0.492-0.008-0.731-0.021l-0.477-0.027L11.107,18.45z M12,12.889
			c-0.433,0-0.874,0.024-1.31,0.071l-0.087,0.009l-0.052,0.07c-0.265,0.358-0.509,0.729-0.725,1.105
			c-0.22,0.38-0.42,0.776-0.595,1.177l-0.035,0.08l0.035,0.08c0.173,0.396,0.374,0.792,0.595,1.175
			c0.22,0.38,0.463,0.752,0.725,1.104l0.052,0.07l0.086,0.01c0.421,0.047,0.862,0.071,1.311,0.071c0.44,0,0.881-0.024,1.311-0.071
			l0.088-0.01l0.052-0.07c0.269-0.365,0.513-0.736,0.725-1.104c0.223-0.389,0.423-0.784,0.595-1.174l0.035-0.08l-0.035-0.08
			c-0.176-0.4-0.376-0.797-0.596-1.177c-0.215-0.375-0.459-0.747-0.724-1.105l-0.053-0.07L13.31,12.96
			C12.884,12.913,12.443,12.889,12,12.889z M14.721,16.122c-0.108,0.216-0.226,0.433-0.35,0.649
			c-0.125,0.217-0.255,0.428-0.389,0.63L13.72,17.8l0.469-0.093c0.361-0.071,0.716-0.165,1.054-0.277l0.168-0.056l-0.035-0.173
			c-0.068-0.339-0.164-0.693-0.286-1.054l-0.152-0.453L14.721,16.122z M8.909,16.147c-0.123,0.362-0.219,0.717-0.287,1.055
			l-0.035,0.173l0.168,0.056c0.338,0.113,0.693,0.206,1.054,0.277l0.467,0.092l-0.261-0.397c-0.134-0.204-0.264-0.414-0.39-0.631
			c-0.126-0.217-0.241-0.435-0.349-0.649l-0.215-0.428L8.909,16.147z M15.578,13.751c-0.108,0.503-0.275,1.032-0.496,1.574
			l-0.03,0.075l0.03,0.076c0.217,0.527,0.384,1.057,0.496,1.573l0.053,0.241l0.226-0.102c1.052-0.478,1.655-1.13,1.654-1.789
			c0-0.66-0.604-1.312-1.654-1.79l-0.227-0.102L15.578,13.751z M8.142,13.61c-1.052,0.478-1.655,1.13-1.655,1.79
			s0.604,1.312,1.655,1.789l0.226,0.102l0.052-0.242c0.111-0.512,0.278-1.041,0.495-1.573L8.946,15.4l-0.031-0.075
			c-0.22-0.54-0.387-1.069-0.495-1.574l-0.052-0.243L8.142,13.61z M9.809,13.094c-0.374,0.074-0.73,0.168-1.058,0.279l-0.167,0.057
			l0.035,0.173c0.07,0.345,0.167,0.701,0.288,1.057l0.155,0.454l0.214-0.43c0.109-0.219,0.225-0.437,0.35-0.652
			c0.125-0.217,0.256-0.428,0.39-0.631l0.263-0.399L9.809,13.094z M13.983,13.399c0.134,0.203,0.264,0.413,0.39,0.631
			c0.123,0.216,0.241,0.435,0.351,0.653l0.214,0.426l0.154-0.451c0.119-0.35,0.216-0.706,0.288-1.057l0.035-0.173l-0.168-0.056
			c-0.33-0.111-0.687-0.205-1.058-0.279L13.72,13L13.983,13.399z M9.875,10.467c-0.235,0-0.448,0.054-0.632,0.16
			c-0.572,0.33-0.834,1.178-0.722,2.328l0.024,0.247l0.236-0.076c0.49-0.159,1.031-0.279,1.609-0.358l0.081-0.011l0.05-0.064
			c0.354-0.458,0.729-0.867,1.111-1.215l0.183-0.166l-0.2-0.145C10.982,10.71,10.381,10.467,9.875,10.467z M14.123,10.467
			c-0.505,0-1.106,0.243-1.74,0.701l-0.2,0.145l0.182,0.166c0.383,0.348,0.757,0.756,1.111,1.215l0.05,0.064l0.081,0.011
			c0.578,0.079,1.119,0.199,1.608,0.358l0.236,0.076l0.024-0.247c0.113-1.149-0.149-1.998-0.722-2.328
			C14.572,10.521,14.359,10.467,14.123,10.467z M11.866,11.585c-0.255,0.226-0.511,0.482-0.76,0.766l-0.315,0.359l0.478-0.028
			c0.239-0.014,0.482-0.022,0.73-0.022s0.492,0.008,0.731,0.021l0.477,0.026l-0.315-0.358c-0.247-0.28-0.503-0.538-0.76-0.765
			l-0.133-0.117L11.866,11.585z"/>
		<path fill="none" stroke="#FFFFFF" stroke-miterlimit="10" d="M14.125,20.563c-0.591,0-1.282-0.288-2.002-0.834l-0.121-0.092
			l-0.121,0.092c-0.719,0.546-1.412,0.834-2.002,0.834c-0.277,0-0.528-0.064-0.747-0.19c-0.648-0.374-0.947-1.25-0.841-2.465
			c0.007-0.08,0.045-0.392,0.045-0.392l-0.139-0.06c-1.23-0.52-1.936-1.27-1.936-2.057s0.706-1.537,1.936-2.057l0.14-0.059
			l-0.019-0.15c-0.165-1.326,0.132-2.312,0.813-2.705c0.218-0.126,0.47-0.19,0.747-0.19c0.591,0,1.283,0.288,2.003,0.833
			l0.121,0.092l0.121-0.092c0.719-0.545,1.412-0.833,2.002-0.833c0.276,0,0.528,0.064,0.746,0.19
			c0.682,0.394,0.979,1.38,0.813,2.705l-0.019,0.15l0.139,0.059c1.23,0.52,1.937,1.269,1.937,2.057c0,0.787-0.704,1.537-1.933,2.057
			l-0.14,0.06l0.046,0.393c0.106,1.214-0.192,2.089-0.841,2.464C14.653,20.499,14.402,20.563,14.125,20.563z M15.213,17.676
			c-0.489,0.157-1.029,0.277-1.605,0.356l-0.081,0.012l-0.05,0.064c-0.354,0.457-0.728,0.865-1.111,1.214l-0.182,0.166l0.199,0.145
			c0.632,0.458,1.234,0.7,1.74,0.7c0.236,0,0.448-0.054,0.632-0.16c0.559-0.322,0.823-1.141,0.728-2.246l-0.021-0.25L15.213,17.676z
			 M8.521,17.883c-0.101,1.15,0.165,1.969,0.723,2.29c0.18,0.106,0.393,0.16,0.632,0.16c0.505,0,1.106-0.242,1.74-0.7l0.2-0.145
			l-0.182-0.166c-0.384-0.349-0.758-0.758-1.111-1.214l-0.05-0.065l-0.081-0.011c-0.576-0.079-1.116-0.199-1.606-0.356l-0.232-0.074
			L8.521,17.883z M11.107,18.45c0.248,0.282,0.504,0.54,0.76,0.767l0.132,0.116l0.132-0.116c0.257-0.228,0.513-0.485,0.76-0.768
			l0.314-0.358l-0.477,0.027c-0.238,0.013-0.482,0.021-0.73,0.021s-0.492-0.008-0.731-0.021l-0.477-0.027L11.107,18.45z M12,12.889
			c-0.433,0-0.874,0.024-1.31,0.071l-0.087,0.009l-0.052,0.07c-0.265,0.358-0.509,0.729-0.725,1.105
			c-0.22,0.38-0.42,0.776-0.595,1.177l-0.035,0.08l0.035,0.08c0.173,0.396,0.374,0.792,0.595,1.175
			c0.22,0.38,0.463,0.752,0.725,1.104l0.052,0.07l0.086,0.01c0.421,0.047,0.862,0.071,1.311,0.071c0.44,0,0.881-0.024,1.311-0.071
			l0.088-0.01l0.052-0.07c0.269-0.365,0.513-0.736,0.725-1.104c0.223-0.389,0.423-0.784,0.595-1.174l0.035-0.08l-0.035-0.08
			c-0.176-0.4-0.376-0.797-0.596-1.177c-0.215-0.375-0.459-0.747-0.724-1.105l-0.053-0.07L13.31,12.96
			C12.884,12.913,12.443,12.889,12,12.889z M14.721,16.122c-0.108,0.216-0.226,0.433-0.35,0.649
			c-0.125,0.217-0.255,0.428-0.389,0.63L13.72,17.8l0.469-0.093c0.361-0.071,0.716-0.165,1.054-0.277l0.168-0.056l-0.035-0.173
			c-0.068-0.339-0.164-0.693-0.286-1.054l-0.152-0.453L14.721,16.122z M8.909,16.147c-0.123,0.362-0.219,0.717-0.287,1.055
			l-0.035,0.173l0.168,0.056c0.338,0.113,0.693,0.206,1.054,0.277l0.467,0.092l-0.261-0.397c-0.134-0.204-0.264-0.414-0.39-0.631
			c-0.126-0.217-0.241-0.435-0.349-0.649l-0.215-0.428L8.909,16.147z M15.578,13.751c-0.108,0.503-0.275,1.032-0.496,1.574
			l-0.03,0.075l0.03,0.076c0.217,0.527,0.384,1.057,0.496,1.573l0.053,0.241l0.226-0.102c1.052-0.478,1.655-1.13,1.654-1.789
			c0-0.66-0.604-1.312-1.654-1.79l-0.227-0.102L15.578,13.751z M8.142,13.61c-1.052,0.478-1.655,1.13-1.655,1.79
			s0.604,1.312,1.655,1.789l0.226,0.102l0.052-0.242c0.111-0.512,0.278-1.041,0.495-1.573L8.946,15.4l-0.031-0.075
			c-0.22-0.54-0.387-1.069-0.495-1.574l-0.052-0.243L8.142,13.61z M9.809,13.094c-0.374,0.074-0.73,0.168-1.058,0.279l-0.167,0.057
			l0.035,0.173c0.07,0.345,0.167,0.701,0.288,1.057l0.155,0.454l0.214-0.43c0.109-0.219,0.225-0.437,0.35-0.652
			c0.125-0.217,0.256-0.428,0.39-0.631l0.263-0.399L9.809,13.094z M13.983,13.399c0.134,0.203,0.264,0.413,0.39,0.631
			c0.123,0.216,0.241,0.435,0.351,0.653l0.214,0.426l0.154-0.451c0.119-0.35,0.216-0.706,0.288-1.057l0.035-0.173l-0.168-0.056
			c-0.33-0.111-0.687-0.205-1.058-0.279L13.72,13L13.983,13.399z M9.875,10.467c-0.235,0-0.448,0.054-0.632,0.16
			c-0.572,0.33-0.834,1.178-0.722,2.328l0.024,0.247l0.236-0.076c0.49-0.159,1.031-0.279,1.609-0.358l0.081-0.011l0.05-0.064
			c0.354-0.458,0.729-0.867,1.111-1.215l0.183-0.166l-0.2-0.145C10.982,10.71,10.381,10.467,9.875,10.467z M14.123,10.467
			c-0.505,0-1.106,0.243-1.74,0.701l-0.2,0.145l0.182,0.166c0.383,0.348,0.757,0.756,1.111,1.215l0.05,0.064l0.081,0.011
			c0.578,0.079,1.119,0.199,1.608,0.358l0.236,0.076l0.024-0.247c0.113-1.149-0.149-1.998-0.722-2.328
			C14.572,10.521,14.359,10.467,14.123,10.467z M11.866,11.585c-0.255,0.226-0.511,0.482-0.76,0.766l-0.315,0.359l0.478-0.028
			c0.239-0.014,0.482-0.022,0.73-0.022s0.492,0.008,0.731,0.021l0.477,0.026l-0.315-0.358c-0.247-0.28-0.503-0.538-0.76-0.765
			l-0.133-0.117L11.866,11.585z"/>
	</g>
	<g>
		<path fill="#C4DCED" d="M14.125,19.563c-0.591,0-1.282-0.288-2.002-0.834l-0.121-0.092l-0.121,0.092
			c-0.719,0.546-1.412,0.834-2.002,0.834c-0.277,0-0.528-0.064-0.747-0.19c-0.648-0.374-0.947-1.25-0.841-2.465
			c0.007-0.08,0.045-0.392,0.045-0.392l-0.139-0.06c-1.23-0.52-1.936-1.27-1.936-2.057s0.706-1.537,1.936-2.057l0.14-0.059
			l-0.019-0.15C8.152,10.809,8.448,9.823,9.13,9.429c0.218-0.126,0.47-0.19,0.747-0.19c0.591,0,1.283,0.288,2.003,0.833l0.121,0.092
			l0.121-0.092c0.719-0.545,1.412-0.833,2.002-0.833c0.276,0,0.528,0.064,0.746,0.19c0.682,0.394,0.979,1.38,0.813,2.705
			l-0.019,0.15l0.139,0.059c1.23,0.52,1.937,1.269,1.937,2.057c0,0.787-0.704,1.537-1.933,2.057l-0.14,0.06l0.046,0.393
			c0.106,1.214-0.192,2.089-0.841,2.464C14.653,19.499,14.402,19.563,14.125,19.563z M15.213,16.676
			c-0.489,0.157-1.029,0.277-1.605,0.356l-0.081,0.012l-0.05,0.064c-0.354,0.457-0.728,0.865-1.111,1.214l-0.182,0.166l0.199,0.145
			c0.632,0.458,1.234,0.7,1.74,0.7c0.236,0,0.448-0.054,0.632-0.16c0.559-0.322,0.823-1.141,0.728-2.246l-0.021-0.25L15.213,16.676z
			 M8.521,16.883c-0.101,1.15,0.165,1.969,0.723,2.29c0.18,0.106,0.393,0.16,0.632,0.16c0.505,0,1.106-0.242,1.74-0.7l0.2-0.145
			l-0.182-0.166c-0.384-0.349-0.758-0.758-1.111-1.214l-0.05-0.065l-0.081-0.011c-0.576-0.079-1.116-0.199-1.606-0.356l-0.232-0.074
			L8.521,16.883z M11.107,17.45c0.248,0.282,0.504,0.54,0.76,0.767l0.132,0.116l0.132-0.116c0.257-0.228,0.513-0.485,0.76-0.768
			l0.314-0.358l-0.477,0.027c-0.238,0.013-0.482,0.021-0.73,0.021s-0.492-0.008-0.731-0.021l-0.477-0.027L11.107,17.45z M12,11.889
			c-0.433,0-0.874,0.024-1.31,0.071l-0.087,0.009l-0.052,0.07c-0.265,0.358-0.509,0.729-0.725,1.105
			c-0.22,0.38-0.42,0.776-0.595,1.177l-0.035,0.08l0.035,0.08c0.173,0.396,0.374,0.792,0.595,1.175
			c0.22,0.38,0.463,0.752,0.725,1.104l0.052,0.07l0.086,0.01c0.421,0.047,0.862,0.071,1.311,0.071c0.44,0,0.881-0.024,1.311-0.071
			l0.088-0.01l0.052-0.07c0.269-0.365,0.513-0.736,0.725-1.104c0.223-0.389,0.423-0.784,0.595-1.174l0.035-0.08l-0.035-0.08
			c-0.176-0.4-0.376-0.797-0.596-1.177c-0.215-0.375-0.459-0.747-0.724-1.105l-0.053-0.07L13.31,11.96
			C12.884,11.913,12.443,11.889,12,11.889z M14.721,15.122c-0.108,0.216-0.226,0.433-0.35,0.649
			c-0.125,0.217-0.255,0.428-0.389,0.63L13.72,16.8l0.469-0.093c0.361-0.071,0.716-0.165,1.054-0.277l0.168-0.056l-0.035-0.173
			c-0.068-0.339-0.164-0.693-0.286-1.054l-0.152-0.453L14.721,15.122z M8.909,15.147c-0.123,0.362-0.219,0.717-0.287,1.055
			l-0.035,0.173l0.168,0.056c0.338,0.113,0.693,0.206,1.054,0.277l0.467,0.092l-0.261-0.397c-0.134-0.204-0.264-0.414-0.39-0.631
			c-0.126-0.217-0.241-0.435-0.349-0.649l-0.215-0.428L8.909,15.147z M15.578,12.751c-0.108,0.503-0.275,1.032-0.496,1.574
			l-0.03,0.075l0.03,0.076c0.217,0.527,0.384,1.057,0.496,1.573l0.053,0.241l0.226-0.102c1.052-0.478,1.655-1.13,1.654-1.789
			c0-0.66-0.604-1.312-1.654-1.79l-0.227-0.102L15.578,12.751z M8.142,12.61c-1.052,0.478-1.655,1.13-1.655,1.79
			s0.604,1.312,1.655,1.789l0.226,0.102l0.052-0.242c0.111-0.512,0.278-1.041,0.495-1.573L8.946,14.4l-0.031-0.075
			c-0.22-0.54-0.387-1.069-0.495-1.574l-0.052-0.243L8.142,12.61z M9.809,12.094c-0.374,0.074-0.73,0.168-1.058,0.279l-0.167,0.057
			l0.035,0.173c0.07,0.345,0.167,0.701,0.288,1.057l0.155,0.454l0.214-0.43c0.109-0.219,0.225-0.437,0.35-0.652
			c0.125-0.217,0.256-0.428,0.39-0.631l0.263-0.399L9.809,12.094z M13.983,12.399c0.134,0.203,0.264,0.413,0.39,0.631
			c0.123,0.216,0.241,0.435,0.351,0.653l0.214,0.426l0.154-0.451c0.119-0.35,0.216-0.706,0.288-1.057l0.035-0.173l-0.168-0.056
			c-0.33-0.111-0.687-0.205-1.058-0.279L13.72,12L13.983,12.399z M9.875,9.467c-0.235,0-0.448,0.054-0.632,0.16
			c-0.572,0.33-0.834,1.178-0.722,2.328l0.024,0.247l0.236-0.076c0.49-0.159,1.031-0.279,1.609-0.358l0.081-0.011l0.05-0.064
			c0.354-0.458,0.729-0.867,1.111-1.215l0.183-0.166l-0.2-0.145C10.982,9.71,10.381,9.467,9.875,9.467z M14.123,9.467
			c-0.505,0-1.106,0.243-1.74,0.701l-0.2,0.145l0.182,0.166c0.383,0.348,0.757,0.756,1.111,1.215l0.05,0.064l0.081,0.011
			c0.578,0.079,1.119,0.199,1.608,0.358l0.236,0.076l0.024-0.247c0.113-1.149-0.149-1.998-0.722-2.328
			C14.572,9.521,14.359,9.467,14.123,9.467z M11.866,10.585c-0.255,0.226-0.511,0.482-0.76,0.766l-0.315,0.359l0.478-0.028
			c0.239-0.014,0.482-0.022,0.73-0.022s0.492,0.008,0.731,0.021l0.477,0.026l-0.315-0.358c-0.247-0.28-0.503-0.538-0.76-0.765
			l-0.133-0.117L11.866,10.585z"/>
		<g>
			<path fill="none" stroke="#669CCC" stroke-miterlimit="10" d="M14.125,19.563c-0.591,0-1.282-0.288-2.002-0.834l-0.121-0.092
				l-0.121,0.092c-0.719,0.546-1.412,0.834-2.002,0.834c-0.277,0-0.528-0.064-0.747-0.19c-0.648-0.374-0.947-1.25-0.841-2.465
				c0.007-0.08,0.045-0.392,0.045-0.392l-0.139-0.06c-1.23-0.52-1.936-1.27-1.936-2.057s0.706-1.537,1.936-2.057l0.14-0.059
				l-0.019-0.15C8.152,10.809,8.448,9.823,9.13,9.429c0.218-0.126,0.47-0.19,0.747-0.19c0.591,0,1.283,0.288,2.003,0.833
				l0.121,0.092l0.121-0.092c0.719-0.545,1.412-0.833,2.002-0.833c0.276,0,0.528,0.064,0.746,0.19
				c0.682,0.394,0.979,1.38,0.813,2.705l-0.019,0.15l0.139,0.059c1.23,0.52,1.937,1.269,1.937,2.057
				c0,0.787-0.704,1.537-1.933,2.057l-0.14,0.06l0.046,0.393c0.106,1.214-0.192,2.089-0.841,2.464
				C14.653,19.499,14.402,19.563,14.125,19.563z M15.213,16.676c-0.489,0.157-1.029,0.277-1.605,0.356l-0.081,0.012l-0.05,0.064
				c-0.354,0.457-0.728,0.865-1.111,1.214l-0.182,0.166l0.199,0.145c0.632,0.458,1.234,0.7,1.74,0.7c0.236,0,0.448-0.054,0.632-0.16
				c0.559-0.322,0.823-1.141,0.728-2.246l-0.021-0.25L15.213,16.676z M8.521,16.883c-0.101,1.15,0.165,1.969,0.723,2.29
				c0.18,0.106,0.393,0.16,0.632,0.16c0.505,0,1.106-0.242,1.74-0.7l0.2-0.145l-0.182-0.166c-0.384-0.349-0.758-0.758-1.111-1.214
				l-0.05-0.065l-0.081-0.011c-0.576-0.079-1.116-0.199-1.606-0.356l-0.232-0.074L8.521,16.883z M11.107,17.45
				c0.248,0.282,0.504,0.54,0.76,0.767l0.132,0.116l0.132-0.116c0.257-0.228,0.513-0.485,0.76-0.768l0.314-0.358l-0.477,0.027
				c-0.238,0.013-0.482,0.021-0.73,0.021s-0.492-0.008-0.731-0.021l-0.477-0.027L11.107,17.45z M12,11.889
				c-0.433,0-0.874,0.024-1.31,0.071l-0.087,0.009l-0.052,0.07c-0.265,0.358-0.509,0.729-0.725,1.105
				c-0.22,0.38-0.42,0.776-0.595,1.177l-0.035,0.08l0.035,0.08c0.173,0.396,0.374,0.792,0.595,1.175
				c0.22,0.38,0.463,0.752,0.725,1.104l0.052,0.07l0.086,0.01c0.421,0.047,0.862,0.071,1.311,0.071c0.44,0,0.881-0.024,1.311-0.071
				l0.088-0.01l0.052-0.07c0.269-0.365,0.513-0.736,0.725-1.104c0.223-0.389,0.423-0.784,0.595-1.174l0.035-0.08l-0.035-0.08
				c-0.176-0.4-0.376-0.797-0.596-1.177c-0.215-0.375-0.459-0.747-0.724-1.105l-0.053-0.07L13.31,11.96
				C12.884,11.913,12.443,11.889,12,11.889z M14.721,15.122c-0.108,0.216-0.226,0.433-0.35,0.649
				c-0.125,0.217-0.255,0.428-0.389,0.63L13.72,16.8l0.469-0.093c0.361-0.071,0.716-0.165,1.054-0.277l0.168-0.056l-0.035-0.173
				c-0.068-0.339-0.164-0.693-0.286-1.054l-0.152-0.453L14.721,15.122z M8.909,15.147c-0.123,0.362-0.219,0.717-0.287,1.055
				l-0.035,0.173l0.168,0.056c0.338,0.113,0.693,0.206,1.054,0.277l0.467,0.092l-0.261-0.397c-0.134-0.204-0.264-0.414-0.39-0.631
				c-0.126-0.217-0.241-0.435-0.349-0.649l-0.215-0.428L8.909,15.147z M15.578,12.751c-0.108,0.503-0.275,1.032-0.496,1.574
				l-0.03,0.075l0.03,0.076c0.217,0.527,0.384,1.057,0.496,1.573l0.053,0.241l0.226-0.102c1.052-0.478,1.655-1.13,1.654-1.789
				c0-0.66-0.604-1.312-1.654-1.79l-0.227-0.102L15.578,12.751z M8.142,12.61c-1.052,0.478-1.655,1.13-1.655,1.79
				s0.604,1.312,1.655,1.789l0.226,0.102l0.052-0.242c0.111-0.512,0.278-1.041,0.495-1.573L8.946,14.4l-0.031-0.075
				c-0.22-0.54-0.387-1.069-0.495-1.574l-0.052-0.243L8.142,12.61z M9.809,12.094c-0.374,0.074-0.73,0.168-1.058,0.279l-0.167,0.057
				l0.035,0.173c0.07,0.345,0.167,0.701,0.288,1.057l0.155,0.454l0.214-0.43c0.109-0.219,0.225-0.437,0.35-0.652
				c0.125-0.217,0.256-0.428,0.39-0.631l0.263-0.399L9.809,12.094z M13.983,12.399c0.134,0.203,0.264,0.413,0.39,0.631
				c0.123,0.216,0.241,0.435,0.351,0.653l0.214,0.426l0.154-0.451c0.119-0.35,0.216-0.706,0.288-1.057l0.035-0.173l-0.168-0.056
				c-0.33-0.111-0.687-0.205-1.058-0.279L13.72,12L13.983,12.399z M9.875,9.467c-0.235,0-0.448,0.054-0.632,0.16
				c-0.572,0.33-0.834,1.178-0.722,2.328l0.024,0.247l0.236-0.076c0.49-0.159,1.031-0.279,1.609-0.358l0.081-0.011l0.05-0.064
				c0.354-0.458,0.729-0.867,1.111-1.215l0.183-0.166l-0.2-0.145C10.982,9.71,10.381,9.467,9.875,9.467z M14.123,9.467
				c-0.505,0-1.106,0.243-1.74,0.701l-0.2,0.145l0.182,0.166c0.383,0.348,0.757,0.756,1.111,1.215l0.05,0.064l0.081,0.011
				c0.578,0.079,1.119,0.199,1.608,0.358l0.236,0.076l0.024-0.247c0.113-1.149-0.149-1.998-0.722-2.328
				C14.572,9.521,14.359,9.467,14.123,9.467z M11.866,10.585c-0.255,0.226-0.511,0.482-0.76,0.766l-0.315,0.359l0.478-0.028
				c0.239-0.014,0.482-0.022,0.73-0.022s0.492,0.008,0.731,0.021l0.477,0.026l-0.315-0.358c-0.247-0.28-0.503-0.538-0.76-0.765
				l-0.133-0.117L11.866,10.585z"/>
		</g>
	</g>
</g>
</svg>
