<?xml version="1.0" encoding="utf-8"?>
<!-- Generator: Adobe Illustrator 17.0.0, SVG Export Plug-In . SVG Version: 6.00 Build 0)  -->
<!DOCTYPE svg PUBLIC "-//W3C//DTD SVG 1.1//EN" "http://www.w3.org/Graphics/SVG/1.1/DTD/svg11.dtd">
<svg version="1.1" id="图层_1" xmlns="http://www.w3.org/2000/svg" xmlns:xlink="http://www.w3.org/1999/xlink" x="0px" y="0px"
	 width="22px" height="22px" viewBox="1 1 22 22" enable-background="new 1 1 22 22" xml:space="preserve">
<path fill="#C4DCED" stroke="#9DBCD7" stroke-miterlimit="10" d="M22.476,19.735c0,1.527-1.238,2.765-2.765,2.765H4.241
	c-1.527,0-2.765-1.238-2.765-2.765V4.265c0-1.527,1.238-2.765,2.765-2.765h15.471c1.527,0,2.765,1.238,2.765,2.765L22.476,19.735
	L22.476,19.735z"/>
<path opacity="0.6" fill="none" stroke="#FFFFFF" stroke-miterlimit="10" enable-background="new    " d="M4.241,21.543
	c-0.997,0-1.808-0.811-1.808-1.808V4.265c0-0.997,0.811-1.808,1.808-1.808h15.471c0.997,0,1.808,0.811,1.808,1.808v15.47
	c-0.001,0.997-0.812,1.808-1.809,1.808C19.711,21.543,4.241,21.543,4.241,21.543z"/>
<linearGradient id="SVGID_1_" gradientUnits="userSpaceOnUse" x1="1679.9751" y1="2091.5" x2="1679.9751" y2="2074.1851" gradientTransform="matrix(1 0 0 1 -1668 -2069)">
	<stop  offset="0" style="stop-color:#D1E0ED"/>
	<stop  offset="1" style="stop-color:#E4EEFB"/>
</linearGradient>
<path fill="url(#SVGID_1_)" stroke="#9DBCD7" stroke-miterlimit="10" d="M4.234,22.5h15.528c1.527,0,2.712-1.27,2.712-2.796V7.307
	c0-0.217-0.326-0.422-0.758-0.422c-2.675,0-11.202,0.002-11.967,0.002c-0.929,0-0.915-0.847-0.915-0.847s0.007-0.854-0.915-0.854
	c-1.613,0-4.845,0-5.529,0c-0.908,0-0.915,0.753-0.915,0.78v13.739C1.476,21.23,2.708,22.5,4.234,22.5z"/>
<path opacity="0.8" fill="none" stroke="#FFFFFF" stroke-miterlimit="10" enable-background="new    " d="M4.234,21.543
	c-0.993,0-1.801-0.825-1.801-1.839V6.149l5.446-0.007c0.015,0.215,0.094,0.744,0.514,1.172C8.631,7.556,9.06,7.844,9.75,7.844
	l11.768-0.001v11.861c0,1.015-0.787,1.839-1.755,1.839L4.234,21.543L4.234,21.543z"/>
<g opacity="0.5">
	<path fill="#669CCC" d="M12,20.343c-3.315,0-6.011-2.696-6.011-6.011S8.685,8.322,12,8.322s6.011,2.696,6.011,6.011
		S15.315,20.343,12,20.343z M12,9.073c-2.9,0-5.259,2.359-5.259,5.259S9.1,19.591,12,19.591s5.259-2.36,5.259-5.259
		C17.259,11.432,14.9,9.073,12,9.073z"/>
</g>
<g>
	<g>
		<g>
			<g>
				<g>
					<g>
						<g>
							<defs>
								<circle id="SVGID_2_" cx="12" cy="14.696" r="5.002"/>
							</defs>
							<clipPath id="SVGID_3_">
								<use xlink:href="#SVGID_2_"  overflow="visible"/>
							</clipPath>
							<path opacity="0.3" clip-path="url(#SVGID_3_)" fill="#FFFFFF" enable-background="new    " d="M10.579,9.828
								c0.196,0.262,0.013,0.703,0.309,0.698c0.144,0.204-0.287,0.061,0.024,0.218c0.18,0.141-0.19,0.222,0.033,0.348
								c-0.255,0.131,0.042,0.688,0.233,0.827c0.313,0.262,0.138-0.556,0.487-0.598c0.19-0.216,0.522-0.354,0.759-0.572
								c-0.232-0.018-0.366-0.162-0.147-0.251c0.403,0.412,0.101-0.195-0.122-0.29c0.215-0.069,0.426-0.018,0.395-0.196
								c0.228-0.167-0.219-0.22-0.378-0.183C11.64,9.828,11.11,9.828,10.579,9.828z M7.272,10c-0.291,0.083-0.312,0.777-0.019,0.392
								C7.326,10.234,7.657,10.042,7.272,10z M8.634,10.024c-0.169,0.262,0.025,0.473,0.164,0.152
								C8.897,10.043,8.725,10.029,8.634,10.024z M9.054,10.083c-0.325,0.15-0.079,0.5-0.072,0.578
								c0.342,0.119,0.532-0.078,0.662,0.257c0.326,0.188-0.007,0.512-0.129,0.596c0.22-0.192,0.643,0.519,0.531,0.144
								c-0.132-0.096,0.355,0.155,0.103-0.158c-0.233-0.374,0.019-0.168,0.117-0.079c0.333-0.299-0.377-0.335-0.2-0.641
								c-0.155-0.126-0.36-0.507-0.635-0.433c-0.185,0.237-0.027-0.52-0.296-0.141c-0.014,0.212-0.006,0.48-0.084,0.114
								C8.998,10.256,9.141,10.106,9.054,10.083z M8.391,10.086c-0.217,0.072-0.206,0.366,0.062,0.397
								C8.546,10.379,8.49,10.105,8.391,10.086z M7.541,10.179c-0.282,0.067-0.168,0.295-0.08,0.359
								c-0.35,0.088,0.535,0.112,0.094,0.168c-0.366,0.146,0.353,0.319,0.472,0.146c0.452,0.111,0.016-0.361-0.023-0.618
								c-0.192-0.206-0.008,0.473-0.181,0.022C7.761,10.39,7.569,10.275,7.541,10.179z M16.533,10.21
								c-0.38,0.147,0.236,0.708,0.083,0.198C16.601,10.347,16.651,10.184,16.533,10.21z M8.604,10.435
								c-0.273,0.256,0.347,0.467-0.079,0.658c-0.063-0.238-0.173,0.119-0.416-0.074c-0.418,0.173-0.632-0.091-0.982-0.272
								c-0.211-0.027-0.131,0.199-0.146,0.411c0,0.583,0,1.167,0,1.75c0.206,0.217,0.08,0.096,0,0.036
								c0.114,0.385-0.05,0.947,0.396,1.17c0.076,0.14,0.393,0.738,0.409,0.56c-0.16-0.167-0.324-0.666-0.054-0.221
								c0.242,0.423,0.568,0.698,1.045,0.799c0.26,0.088,0.475,0.393,0.704,0.326c0.129,0.341-0.385,0.668,0.017,0.986
								c0.21,0.322,0.561,0.533,0.371,0.984c-0.133,0.441-0.076,0.921-0.191,1.334c-0.036,0.25,0.349,0.885,0.316,0.377
								c0.112-0.353,0.109-0.743,0.374-0.992c0.362,0.003,0.069-0.39,0.429-0.337c0.219-0.287,0.283-0.629,0.654-0.744
								c0.044-0.348,0.617-0.883,0.025-1.018c-0.161-0.079-0.573-0.108-0.542-0.146c0.064-0.347-0.534-0.445-0.788-0.586
								C9.811,15.2,9.309,15.83,9.191,15.287c-0.07-0.17-0.327-0.173-0.21-0.438c-0.213,0.212-0.629,0.146-0.52-0.26
								c0.166-0.344,0.801-0.36,0.91,0.054c-0.15-0.457,0.29-0.811,0.535-1.135c0.05-0.155,0.346-0.289,0.244-0.083
								c0.173-0.007,0.438-0.319,0.129-0.175c-0.005-0.285-0.27-0.204-0.357-0.164c0.16-0.254,0.98-0.115,0.637-0.529
								c-0.266-0.108-0.244-0.736-0.514-0.386c0.023-0.215-0.549-0.639-0.535-0.276c0.069,0.324,0.012,0.697-0.136,0.91
								c-0.032-0.475-0.842-0.37-0.738-0.875c0.15-0.241,0.327-0.574,0.344-0.544c0.27-0.103,0.488-0.403,0.175-0.6
								c-0.017,0.171-0.236,0.526-0.205,0.097C8.748,11.121,8.795,10.499,8.604,10.435z M15.081,10.6
								c-0.475,0.116-0.663,0.569-0.899,0.944c-0.347,0.156-0.333,0.826,0.054,0.612c0.103,0.181-0.073,0.465,0.23,0.23
								c0.243-0.322,0.043-0.842,0.457-1.045c0.03,0.157-0.382,0.747,0.1,0.649c0.436,0.017-0.317,0.043-0.104,0.321
								c-0.22-0.13-0.106,0.356-0.393,0.243c-0.249,0.136-0.413-0.063-0.354-0.28c-0.196,0.114,0.061,0.436-0.279,0.455
								c-0.076,0.27-0.703,0.23-0.347,0.504c0.158,0.409-0.589,0.025-0.377,0.516c0.182,0.484,0.561-0.161,0.716-0.285
								c0.298-0.23,0.739,0.393,0.47,0.416c0.3-0.04,0.238-0.326-0.002-0.436c-0.13-0.336,0.412,0.165,0.381,0.333
								c0.191,0.356,0.112-0.366,0.306-0.045c-0.023,0.337,0.781,0.079,0.397,0.509c-0.33,0.067-0.656-0.084-0.94,0.012
								c-0.264-0.003-0.252-0.284-0.348-0.355c-0.337,0.028-0.753,0.024-0.978,0.295c-0.243,0.333-0.596,0.8-0.329,1.226
								c0.266,0.632,0.925,0.033,1.304,0.406c0.112,0.155-0.097,0.34,0.154,0.509c0.095,0.359-0.108,0.7,0.125,1.043
								c0.12,0.323,0.195,0.805,0.643,0.51c0.474-0.284,0.348-0.81,0.739-1.1c-0.309-0.597,0.378-0.86,0.551-1.345
								c-0.375,0.055-0.709-0.319-0.8-0.694c-0.157-0.183-0.117-0.452,0.059-0.109c0.242,0.235,0.247,0.929,0.695,0.571
								c0.205-0.085,0.764-0.412,0.319-0.56c-0.287,0.208-0.603-0.62-0.182-0.14c0.306,0.13,0.521,0.207,0.521-0.223
								c0-1.159,0-2.333,0-3.5c-0.096,0.097-0.341,0.277-0.464,0.157c-0.213,0.03-0.494,0.443-0.427,0.043
								c-0.186-0.012-0.034,0.358-0.287,0.37c-0.025,0.191-0.257,0.035-0.17,0.216c-0.178-0.126-0.329-0.526,0.022-0.275
								c0.522-0.156-0.344-0.509-0.412-0.595C15.344,10.679,15.11,10.562,15.081,10.6z M12.799,11.269
								c-0.172,0.198-0.4-0.052-0.405,0.119c0.032,0.052,0.156,0.418,0.431,0.147C12.974,11.473,12.915,11.317,12.799,11.269z
								 M9.13,11.388c-0.326,0.284,0.555,0.311,0.069,0.033L9.13,11.388z M13.443,12.176c-0.236,0.153,0.112,0.479-0.006,0.632
								c-0.147,0.257,0.549-0.018,0.176-0.223C13.586,12.41,13.396,12.195,13.443,12.176z M13.284,12.485
								c-0.328,0.093-0.075,0.571,0.042,0.12C13.332,12.58,13.34,12.484,13.284,12.485z M10.658,12.831
								c-0.304,0.208-0.047,0.416,0.176,0.322C10.788,13.027,10.66,12.949,10.658,12.831z M16.421,13.18
								c0.152,0.077-0.279,0.208-0.007,0.343c0.159,0.187,0.099,0.587-0.16,0.304C16.304,13.511,15.905,13.273,16.421,13.18z
								 M15.638,13.183c-0.021,0.203,0.439,0.519-0.056,0.416c-0.262,0.031-0.655-0.008-0.325-0.334
								c0.104-0.063,0.378,0.216,0.236-0.045C15.543,13.218,15.59,13.199,15.638,13.183z M9.32,14.77
								c-0.033,0.108,0.605,0.216,0.166,0.044l-0.065-0.023L9.32,14.77z M16.278,16.719c-0.42,0.011-0.365,1.092-0.072,0.452
								C16.235,17.032,16.346,16.849,16.278,16.719z"/>
						</g>
					</g>
				</g>
			</g>
		</g>
	</g>
	<g>
		<g>
			<g>
				<g>
					<g>
						<g>
							<defs>
								<circle id="SVGID_4_" cx="12" cy="14.332" r="5.002"/>
							</defs>
							<clipPath id="SVGID_5_">
								<use xlink:href="#SVGID_4_"  overflow="visible"/>
							</clipPath>
							<path opacity="0.3" clip-path="url(#SVGID_5_)" fill="#669CCC" enable-background="new    " d="M10.579,9.464
								c0.196,0.262,0.013,0.703,0.309,0.698c0.144,0.204-0.287,0.061,0.024,0.218c0.18,0.141-0.19,0.222,0.033,0.348
								c-0.255,0.131,0.042,0.688,0.233,0.827c0.313,0.262,0.138-0.556,0.487-0.598c0.19-0.216,0.522-0.354,0.759-0.572
								c-0.232-0.018-0.366-0.162-0.147-0.251c0.403,0.412,0.101-0.195-0.122-0.29c0.215-0.069,0.426-0.018,0.395-0.196
								c0.228-0.167-0.219-0.22-0.378-0.183C11.64,9.464,11.11,9.464,10.579,9.464z M7.272,9.636
								c-0.291,0.083-0.312,0.777-0.019,0.392C7.326,9.87,7.657,9.678,7.272,9.636z M8.634,9.66
								c-0.169,0.262,0.025,0.473,0.164,0.152C8.897,9.679,8.725,9.665,8.634,9.66z M9.054,9.719c-0.325,0.15-0.079,0.5-0.072,0.578
								c0.342,0.119,0.532-0.078,0.662,0.257c0.326,0.188-0.007,0.512-0.129,0.596c0.22-0.192,0.643,0.519,0.531,0.144
								c-0.132-0.096,0.355,0.155,0.103-0.158c-0.233-0.374,0.019-0.168,0.117-0.079c0.333-0.299-0.377-0.335-0.2-0.641
								c-0.155-0.126-0.36-0.507-0.635-0.433c-0.185,0.237-0.027-0.52-0.296-0.141c-0.014,0.212-0.006,0.48-0.084,0.114
								C8.998,9.892,9.141,9.742,9.054,9.719z M8.391,9.722c-0.217,0.072-0.206,0.366,0.062,0.397
								C8.546,10.015,8.49,9.741,8.391,9.722z M7.541,9.816c-0.282,0.067-0.168,0.295-0.08,0.359
								c-0.35,0.088,0.535,0.112,0.094,0.168c-0.366,0.146,0.353,0.319,0.472,0.146c0.452,0.111,0.016-0.361-0.023-0.618
								C7.81,9.665,7.995,10.344,7.822,9.893C7.761,10.026,7.569,9.912,7.541,9.816z M16.533,9.846
								c-0.38,0.147,0.236,0.708,0.083,0.198C16.601,9.984,16.651,9.821,16.533,9.846z M8.604,10.071
								c-0.273,0.256,0.347,0.467-0.079,0.658c-0.063-0.238-0.173,0.119-0.416-0.074c-0.418,0.173-0.632-0.091-0.982-0.272
								c-0.211-0.027-0.131,0.199-0.146,0.411c0,0.583,0,1.167,0,1.75c0.206,0.217,0.08,0.096,0,0.036
								c0.114,0.385-0.05,0.947,0.396,1.17c0.077,0.141,0.394,0.739,0.41,0.561c-0.16-0.167-0.324-0.666-0.054-0.221
								c0.242,0.423,0.568,0.698,1.045,0.799c0.26,0.088,0.475,0.393,0.704,0.326c0.129,0.341-0.385,0.668,0.017,0.986
								c0.21,0.322,0.561,0.533,0.371,0.984c-0.133,0.441-0.076,0.921-0.191,1.334c-0.036,0.25,0.349,0.885,0.316,0.377
								c0.112-0.353,0.109-0.743,0.374-0.992c0.362,0.003,0.069-0.39,0.429-0.337c0.219-0.287,0.283-0.629,0.654-0.744
								c0.044-0.349,0.617-0.883,0.025-1.018c-0.161-0.079-0.573-0.108-0.542-0.146c0.064-0.347-0.534-0.445-0.788-0.586
								c-0.334-0.237-0.837,0.393-0.955-0.149c-0.07-0.17-0.327-0.173-0.21-0.438c-0.213,0.212-0.629,0.146-0.52-0.26
								c0.166-0.344,0.801-0.36,0.91,0.054c-0.15-0.457,0.29-0.811,0.535-1.135c0.05-0.155,0.346-0.289,0.244-0.083
								c0.173-0.007,0.438-0.319,0.129-0.175c-0.005-0.285-0.27-0.204-0.357-0.164c0.16-0.254,0.98-0.115,0.637-0.529
								c-0.266-0.108-0.244-0.736-0.514-0.386c0.023-0.215-0.549-0.639-0.535-0.276c0.069,0.324,0.012,0.697-0.136,0.91
								c-0.032-0.475-0.842-0.37-0.738-0.875c0.15-0.241,0.327-0.574,0.344-0.544c0.27-0.103,0.488-0.403,0.175-0.6
								c-0.017,0.171-0.236,0.526-0.205,0.097C8.748,10.757,8.795,10.135,8.604,10.071z M15.081,10.237
								c-0.475,0.116-0.663,0.569-0.899,0.944c-0.347,0.156-0.333,0.826,0.054,0.612c0.103,0.181-0.073,0.465,0.23,0.23
								c0.243-0.322,0.043-0.842,0.457-1.045c0.03,0.157-0.382,0.747,0.1,0.649c0.436,0.017-0.317,0.043-0.104,0.321
								c-0.22-0.13-0.106,0.356-0.393,0.243c-0.248,0.136-0.412-0.063-0.354-0.28c-0.196,0.114,0.061,0.436-0.279,0.455
								c-0.076,0.27-0.703,0.23-0.347,0.504c0.158,0.409-0.589,0.025-0.377,0.516c0.182,0.484,0.561-0.161,0.716-0.285
								c0.298-0.23,0.739,0.393,0.47,0.416c0.3-0.04,0.238-0.326-0.002-0.436c-0.13-0.336,0.412,0.165,0.381,0.333
								c0.191,0.357,0.112-0.366,0.306-0.045c-0.023,0.337,0.781,0.079,0.397,0.509c-0.33,0.067-0.656-0.084-0.94,0.012
								c-0.264-0.003-0.252-0.284-0.348-0.355c-0.337,0.028-0.753,0.024-0.978,0.295c-0.243,0.333-0.596,0.8-0.329,1.226
								c0.266,0.632,0.925,0.033,1.304,0.406c0.112,0.155-0.097,0.34,0.154,0.509c0.095,0.359-0.108,0.7,0.125,1.043
								c0.12,0.323,0.195,0.805,0.643,0.51c0.474-0.284,0.348-0.81,0.739-1.1c-0.309-0.597,0.378-0.86,0.551-1.345
								c-0.375,0.055-0.709-0.319-0.8-0.694c-0.157-0.183-0.117-0.452,0.059-0.109c0.242,0.235,0.247,0.929,0.695,0.571
								c0.205-0.085,0.764-0.412,0.319-0.56c-0.287,0.208-0.603-0.62-0.182-0.14c0.306,0.13,0.521,0.207,0.521-0.223
								c0-1.159,0-2.333,0-3.5c-0.096,0.097-0.341,0.277-0.464,0.157c-0.213,0.03-0.494,0.443-0.427,0.043
								c-0.186-0.012-0.034,0.358-0.287,0.37c-0.025,0.191-0.257,0.035-0.17,0.216c-0.178-0.126-0.329-0.526,0.022-0.275
								c0.522-0.156-0.344-0.509-0.412-0.595C15.344,10.316,15.11,10.199,15.081,10.237z M12.799,10.906
								c-0.172,0.198-0.4-0.052-0.405,0.119c0.032,0.052,0.156,0.418,0.431,0.147C12.974,11.11,12.915,10.954,12.799,10.906z
								 M9.13,11.024c-0.326,0.284,0.555,0.311,0.069,0.033L9.13,11.024z M13.443,11.813c-0.236,0.153,0.112,0.479-0.006,0.632
								c-0.147,0.257,0.549-0.018,0.176-0.223C13.586,12.046,13.396,11.831,13.443,11.813z M13.284,12.122
								c-0.328,0.093-0.075,0.571,0.042,0.12C13.332,12.216,13.34,12.121,13.284,12.122z M10.658,12.468
								c-0.304,0.208-0.047,0.416,0.176,0.322C10.788,12.663,10.66,12.586,10.658,12.468z M16.421,12.817
								c0.152,0.077-0.279,0.208-0.007,0.343c0.159,0.187,0.099,0.587-0.16,0.304C16.304,13.147,15.905,12.911,16.421,12.817z
								 M15.638,12.82c-0.021,0.203,0.439,0.519-0.056,0.416c-0.262,0.031-0.655-0.008-0.325-0.334
								c0.104-0.063,0.378,0.216,0.236-0.045C15.543,12.854,15.59,12.835,15.638,12.82z M9.32,14.406
								c-0.033,0.108,0.605,0.216,0.166,0.044l-0.065-0.023L9.32,14.406z M16.278,16.355c-0.42,0.011-0.365,1.092-0.072,0.452
								C16.235,16.668,16.346,16.486,16.278,16.355z"/>
						</g>
					</g>
				</g>
			</g>
		</g>
	</g>
</g>
<g>
	<g>
		<g>
			<g>
				<g>
					<defs>
						<path id="SVGID_6_" d="M12,19.121c-2.641,0-4.789-2.148-4.789-4.789S9.359,9.543,12,9.543s4.789,2.148,4.789,4.789
							S14.641,19.121,12,19.121z"/>
					</defs>
					<clipPath id="SVGID_7_">
						<use xlink:href="#SVGID_6_"  overflow="visible"/>
					</clipPath>
					<g clip-path="url(#SVGID_7_)">
						<path opacity="0.3" fill="#669CCC" enable-background="new    " d="M10.834,12.79c-0.045-0.125-0.173-0.204-0.176-0.322
							C10.352,12.675,10.61,12.883,10.834,12.79z"/>
						<path opacity="0.3" fill="#669CCC" enable-background="new    " d="M8.454,10.12c0.091-0.104,0.036-0.378-0.062-0.397
							C8.174,9.794,8.186,10.088,8.454,10.12z"/>
						<path opacity="0.3" fill="#669CCC" enable-background="new    " d="M7.254,10.028C7.325,9.87,7.657,9.678,7.273,9.636
							C6.981,9.719,6.96,10.415,7.254,10.028z"/>
						<path opacity="0.3" fill="#669CCC" enable-background="new    " d="M7.461,10.174c-0.35,0.088,0.535,0.112,0.094,0.168
							c-0.366,0.146,0.353,0.319,0.472,0.146c0.452,0.111,0.016-0.361-0.023-0.618C7.81,9.664,7.995,10.343,7.822,9.892
							c-0.061,0.134-0.254,0.019-0.281-0.076C7.258,9.882,7.374,10.111,7.461,10.174z M7.897,10.263
							c0.012,0,0.024-0.001,0.036-0.003c0,0,0.01,0.018,0.014,0.029c-0.02,0.008-0.038,0.018-0.056,0.032c0-0.001,0-0.002,0-0.002
							c0.001-0.02-0.001-0.038-0.004-0.055C7.893,10.263,7.897,10.263,7.897,10.263z"/>
						<path opacity="0.3" fill="#669CCC" enable-background="new    " d="M9.644,10.554c0.326,0.188-0.007,0.512-0.129,0.596
							c0.22-0.192,0.643,0.519,0.531,0.144c-0.132-0.096,0.355,0.155,0.103-0.158c-0.233-0.374,0.019-0.168,0.117-0.079
							c0.333-0.299-0.377-0.335-0.2-0.641c-0.155-0.126-0.36-0.507-0.635-0.433c-0.185,0.237-0.027-0.52-0.296-0.141
							c-0.014,0.212-0.006,0.48-0.084,0.114C8.998,9.893,9.141,9.743,9.054,9.72c-0.325,0.15-0.079,0.5-0.072,0.578
							C9.324,10.416,9.515,10.22,9.644,10.554z"/>
						<path opacity="0.3" fill="#669CCC" enable-background="new    " d="M13.325,12.242c0.007-0.027,0.014-0.122-0.042-0.12
							C12.956,12.214,13.209,12.692,13.325,12.242z"/>
						<path opacity="0.3" fill="#669CCC" enable-background="new    " d="M9.13,11.024c-0.326,0.284,0.555,0.311,0.069,0.033
							L9.13,11.024z"/>
						<path opacity="0.3" fill="#669CCC" enable-background="new    " d="M8.797,9.812c0.1-0.133-0.074-0.147-0.164-0.152
							C8.466,9.923,8.659,10.134,8.797,9.812z"/>
						<path opacity="0.3" fill="#669CCC" enable-background="new    " d="M10.888,10.187c0.144,0.204-0.287,0.049,0.024,0.206
							c0.18,0.141-0.19,0.214,0.033,0.341c-0.255,0.131,0.042,0.685,0.233,0.824c0.313,0.262,0.138-0.558,0.487-0.6
							c0.19-0.216,0.522-0.355,0.759-0.573c-0.232-0.018-0.366-0.162-0.147-0.251c0.403,0.412,0.101-0.195-0.122-0.291
							c0.215-0.069,0.426,0.007,0.395-0.171c0.228-0.167-0.219-0.158-0.378-0.158c-0.53,0-1.061,0-1.59,0
							C10.775,9.877,10.593,10.191,10.888,10.187z M12.019,9.877c-0.046,0-0.076-0.007-0.079,0.055
							c-0.004,0.08,0.038,0.105,0.106,0.145c-0.104,0.1-0.099,0.19-0.093,0.231c0.008,0.051,0.029,0.085,0.062,0.126
							c-0.022,0.014-0.044,0.023-0.067,0.037c-0.139,0.09-0.281,0.178-0.396,0.294c-0.234,0.078-0.304,0.333-0.344,0.513
							c-0.084-0.121-0.16-0.298-0.15-0.371c0.06-0.038,0.098-0.104,0.1-0.176c0.001-0.039-0.009-0.078-0.028-0.11
							c0.03-0.049,0.055-0.114,0.045-0.194c-0.006-0.048-0.023-0.091-0.051-0.132c0.016-0.063,0.012-0.152-0.062-0.258
							c-0.034-0.049-0.088-0.08-0.146-0.088c-0.007-0.034-0.011,0.018-0.014-0.018c-0.005-0.047-0.01-0.056-0.019-0.056
							C10.883,9.877,12.019,9.877,12.019,9.877z"/>
						<path opacity="0.3" fill="#669CCC" enable-background="new    " d="M13.437,12.444c-0.147,0.257,0.549-0.018,0.176-0.223
							c-0.027-0.176-0.218-0.391-0.171-0.409C13.206,11.966,13.555,12.292,13.437,12.444z"/>
						<path opacity="0.3" fill="#669CCC" enable-background="new    " d="M16.207,16.807c0.028-0.139,0.139-0.322,0.072-0.452
							C15.857,16.366,15.914,17.447,16.207,16.807z"/>
						<path opacity="0.3" fill="#669CCC" enable-background="new    " d="M16.522,10.582c-0.213,0.03-0.501,0.443-0.434,0.043
							c-0.186-0.012-0.037,0.358-0.291,0.37c-0.025,0.191-0.259,0.035-0.171,0.216c-0.178-0.126-0.33-0.526,0.021-0.275
							c0.522-0.156-0.345-0.509-0.412-0.595c0.111-0.027-0.124-0.143-0.152-0.104c-0.475,0.116-0.663,0.569-0.899,0.944
							c-0.347,0.156-0.333,0.826,0.054,0.612c0.103,0.181-0.073,0.465,0.23,0.23c0.243-0.322,0.043-0.842,0.457-1.045
							c0.03,0.157-0.382,0.747,0.1,0.649c0.436,0.017-0.317,0.043-0.104,0.321c-0.22-0.13-0.106,0.356-0.393,0.243
							c-0.249,0.136-0.413-0.063-0.355-0.28c-0.196,0.114,0.061,0.436-0.279,0.455c-0.076,0.27-0.703,0.23-0.347,0.504
							c0.158,0.409-0.589,0.025-0.377,0.516c0.182,0.484,0.561-0.161,0.716-0.285c0.298-0.23,0.739,0.393,0.47,0.416
							c0.3-0.04,0.238-0.326-0.002-0.436c-0.13-0.336,0.412,0.165,0.381,0.333c0.191,0.356,0.112-0.366,0.306-0.045
							c-0.023,0.337,0.781,0.079,0.397,0.509c-0.33,0.067-0.656-0.084-0.94,0.012c-0.264-0.003-0.252-0.284-0.348-0.355
							c-0.337,0.028-0.753,0.024-0.978,0.295c-0.243,0.333-0.596,0.8-0.329,1.226c0.266,0.632,0.925,0.033,1.304,0.406
							c0.112,0.155-0.097,0.34,0.154,0.509c0.095,0.359-0.108,0.7,0.125,1.043c0.12,0.323,0.195,0.805,0.643,0.51
							c0.474-0.284,0.348-0.81,0.739-1.1c-0.309-0.597,0.378-0.86,0.551-1.345c-0.375,0.055-0.709-0.319-0.8-0.694
							c-0.157-0.183-0.117-0.452,0.059-0.109c0.242,0.235,0.247,0.929,0.695,0.571c0.205-0.085,0.764-0.412,0.319-0.56
							c-0.287,0.208-0.59-0.62-0.168-0.14C16.771,14.279,17,14.355,17,13.925c0-1.159,0-2.333,0-3.5
							C16.818,10.522,16.644,10.702,16.522,10.582z M13.375,13.33c-0.002-0.006-0.008-0.02-0.009-0.021
							c0.005-0.001,0.03-0.004,0.038-0.005C13.395,13.314,13.384,13.322,13.375,13.33z M16.016,15.24
							c-0.039,0.05-0.082,0.103-0.126,0.154c-0.202,0.232-0.472,0.541-0.333,0.972c-0.142,0.154-0.208,0.333-0.268,0.495
							c-0.077,0.205-0.137,0.331-0.326,0.445c-0.089,0.058-0.127,0.026-0.135,0.026h-0.004c-0.049,0-0.115-0.187-0.146-0.283
							c-0.016-0.05-0.033-0.08-0.05-0.126c-0.007-0.016-0.013-0.023-0.024-0.036c-0.096-0.142-0.085-0.285-0.072-0.472
							c0.011-0.149,0.024-0.317-0.024-0.498c-0.013-0.05-0.044-0.093-0.088-0.122c-0.029-0.019-0.035-0.031-0.035-0.031
							c-0.004-0.01,0.002-0.049,0.004-0.073c0.01-0.083,0.027-0.222-0.069-0.352c-0.007-0.01-0.014-0.018-0.023-0.027
							c-0.133-0.131-0.304-0.194-0.522-0.194c-0.089,0-0.176,0.01-0.26,0.019c-0.074,0.009-0.145,0.016-0.208,0.016
							c-0.13,0-0.204-0.027-0.267-0.177c-0.004-0.011-0.01-0.021-0.016-0.03c-0.17-0.274,0.038-0.601,0.308-0.97l0.009-0.012
							c0.14-0.164,0.42-0.117,0.694-0.136c0.052,0.122,0.158,0.416,0.461,0.416c0.001,0,0.002,0,0.002,0
							c0.023,0,0.047-0.073,0.069-0.079c0.044-0.014,0.094-0.056,0.158-0.056c0.07,0,0.146,0.057,0.228,0.066
							c0.094,0.011,0.191,0.07,0.295,0.07c0.001,0,0.002,0,0.003,0c-0.018,0,0.034,0.198,0.112,0.306
							C15.456,14.867,15.696,15.118,16.016,15.24z M15.582,13.236c-0.262,0.031-0.655-0.008-0.325-0.334
							c0.104-0.063,0.378,0.216,0.236-0.045c0.051-0.003,0.097-0.022,0.146-0.037C15.617,13.023,16.078,13.338,15.582,13.236z
							 M16.818,13.924c0,0.052-0.034,0.085-0.038,0.107c-0.049-0.011-0.133-0.038-0.189-0.062c-0.124-0.134-0.221-0.188-0.318-0.188
							c-0.084,0-0.163,0.043-0.206,0.116c-0.053,0.092-0.042,0.211,0.034,0.344c0.035,0.061,0.156,0.246,0.354,0.285
							c-0.066,0.045-0.147,0.09-0.225,0.124c-0.018,0.008-0.036,0.018-0.052,0.03c-0.035,0.029-0.06,0.042-0.074,0.048
							c-0.033-0.04-0.079-0.146-0.106-0.213c-0.053-0.124-0.112-0.262-0.207-0.367c-0.039-0.073-0.085-0.143-0.144-0.191
							c0.063-0.081,0.139-0.213,0.091-0.353c-0.022-0.066-0.062-0.112-0.11-0.146c0.038,0.006,0.071,0.008,0.101,0.008
							c0.164,0,0.235-0.085,0.262-0.137c0.01-0.017,0.016-0.034,0.022-0.052c0.02,0.055,0.034,0.106,0.028,0.15
							c-0.01,0.063,0.01,0.127,0.054,0.175c0.103,0.113,0.206,0.168,0.313,0.168c0.116,0,0.216-0.066,0.267-0.177
							c0.074-0.16,0.036-0.398-0.083-0.556c0.043-0.053,0.086-0.127,0.071-0.225c-0.008-0.047-0.037-0.135-0.147-0.191
							c-0.03-0.015-0.063-0.023-0.096-0.023c-0.012,0-0.025,0.001-0.038,0.004c-0.143,0.026-0.317,0.075-0.4,0.223
							c-0.029,0.052-0.04,0.103-0.042,0.152c-0.007-0.011-0.014-0.022-0.021-0.033c-0.022-0.034-0.06-0.094-0.069-0.122
							c0.003-0.068-0.027-0.132-0.079-0.175c-0.038-0.032-0.086-0.048-0.135-0.048c-0.022,0-0.044,0.003-0.064,0.01L15.54,12.62
							c-0.023,0.008-0.048,0.016-0.059,0.017c-0.043,0.002-0.083,0.017-0.117,0.042c-0.023-0.005-0.046-0.008-0.07-0.008
							c-0.054,0-0.104,0.013-0.147,0.039c-0.014,0.009-0.029,0.019-0.04,0.032c-0.114,0.113-0.177,0.222-0.188,0.326
							c-0.034,0.005-0.061,0.016-0.085,0.03c-0.017-0.024-0.036-0.048-0.057-0.073c-0.106-0.126-0.264-0.278-0.416-0.278
							c-0.079,0-0.151,0.038-0.196,0.101c-0.044-0.012-0.088-0.019-0.133-0.019c-0.091,0-0.178,0.028-0.254,0.079
							c-0.006-0.039-0.016-0.079-0.033-0.123c-0.003-0.008-0.007-0.015-0.011-0.023c0.097-0.044,0.217-0.105,0.296-0.212
							c0.096-0.028,0.157-0.078,0.196-0.135c0.045,0.016,0.093,0.025,0.143,0.025c0.057,0,0.115-0.011,0.172-0.033
							c0.021,0.004,0.04,0.006,0.06,0.006c0.209,0,0.294-0.163,0.334-0.262c0.053-0.006,0.101-0.029,0.139-0.07
							c0.049-0.056,0.065-0.129,0.047-0.197c0.022-0.009,0.044-0.017,0.056-0.022c0.146-0.054,0.212-0.183,0.192-0.302
							c-0.029-0.183-0.209-0.236-0.341-0.236c-0.003,0-0.01,0-0.01,0c0.013,0,0.033-0.054,0.045-0.088
							c0.047-0.129,0.088-0.221,0.068-0.326c-0.012-0.065-0.055-0.111-0.114-0.141c-0.03-0.014-0.063-0.017-0.096-0.017
							s-0.064,0.01-0.094,0.024c-0.343,0.168-0.388,0.484-0.424,0.738c-0.006,0.04-0.011,0.08-0.018,0.119
							c-0.04-0.04-0.095-0.061-0.15-0.061c-0.03,0-0.06,0.007-0.089,0.02c0.001-0.025,0.005-0.056,0.017-0.092
							c0.022-0.063,0.06-0.111,0.106-0.132c0.038-0.017,0.071-0.045,0.093-0.08c0.039-0.062,0.077-0.126,0.115-0.191
							c0.169-0.288,0.317-0.541,0.583-0.639c0.002,0.003,0.004,0.006,0.006,0.008c0.042,0.053,0.105,0.089,0.219,0.155
							c0.019,0.011,0.044,0.025,0.07,0.041c-0.058,0.03-0.103,0.081-0.124,0.147c-0.06,0.191,0.115,0.459,0.268,0.567
							c0.037,0.027,0.079,0.039,0.124,0.039c0.049,0,0.099-0.017,0.138-0.051c0.03-0.025,0.052-0.057,0.064-0.093
							c0.057-0.028,0.097-0.064,0.125-0.105c0.081-0.036,0.133-0.099,0.167-0.163c0.101-0.003,0.183-0.062,0.27-0.125
							c0.027-0.019,0.069-0.05,0.103-0.07c0.038,0.012,0.108,0.019,0.15,0.019c0.05,0-0.004-0.01,0.177-0.025v3.114h0.001
							C16.818,13.923,16.818,13.924,16.818,13.924z M16.415,13.159c0.159,0.187,0.099,0.587-0.16,0.304
							c0.048-0.316-0.35-0.552,0.166-0.646C16.574,12.893,16.143,13.024,16.415,13.159z"/>
						<path opacity="0.3" fill="#669CCC" enable-background="new    " d="M16.617,10.044c-0.014-0.061,0.034-0.224-0.083-0.198
							C16.154,9.994,16.77,10.553,16.617,10.044z"/>
						<path opacity="0.3" fill="#669CCC" enable-background="new    " d="M11.476,15.803c-0.161-0.079-0.573-0.108-0.542-0.146
							c0.064-0.347-0.534-0.445-0.788-0.586c-0.334-0.237-0.837,0.393-0.955-0.149c-0.07-0.17-0.327-0.173-0.21-0.438
							c-0.213,0.212-0.629,0.146-0.52-0.26c0.166-0.344,0.801-0.36,0.91,0.054c-0.15-0.457,0.29-0.811,0.535-1.135
							c0.05-0.155,0.347-0.288,0.244-0.081c0.173-0.007,0.438-0.319,0.129-0.175c-0.005-0.285-0.27-0.204-0.357-0.164
							c0.16-0.254,0.98-0.115,0.637-0.529c-0.266-0.108-0.244-0.736-0.514-0.386c0.023-0.215-0.549-0.639-0.535-0.276
							c0.069,0.324,0.012,0.697-0.136,0.91c-0.032-0.475-0.842-0.37-0.738-0.875c0.15-0.241,0.327-0.574,0.344-0.544
							c0.27-0.103,0.488-0.403,0.175-0.6c-0.017,0.171-0.236,0.526-0.205,0.097c-0.203,0.24-0.156-0.382-0.347-0.446
							c-0.273,0.256,0.347,0.467-0.079,0.658c-0.063-0.238-0.173,0.119-0.416-0.074c-0.418,0.173-0.714-0.091-1.064-0.272
							c-0.211-0.027-0.227,0.199-0.227,0.411c0,0.583,0,1.167,0,1.75C7.182,12.761,6.98,12.64,6.9,12.58
							c0.114,0.385-0.009,0.947,0.438,1.17c0.076,0.14,0.415,0.738,0.429,0.56c-0.16-0.167-0.313-0.666-0.043-0.221
							c0.242,0.423,0.573,0.698,1.049,0.799c0.26,0.088,0.478,0.393,0.706,0.326c0.129,0.341-0.383,0.668,0.018,0.986
							c0.21,0.322,0.561,0.533,0.371,0.984c-0.133,0.441-0.076,0.921-0.191,1.334c-0.036,0.25,0.349,0.885,0.316,0.377
							c0.112-0.353,0.109-0.743,0.374-0.992c0.362,0.003,0.069-0.39,0.429-0.337c0.219-0.287,0.283-0.629,0.654-0.744
							C11.495,16.473,12.067,15.94,11.476,15.803z M8.27,14.131c-0.006,0.012-0.011,0.025-0.014,0.038
							c-0.022,0.082-0.029,0.154-0.024,0.217c-0.117-0.106-0.221-0.239-0.313-0.401c-0.11-0.181-0.184-0.288-0.322-0.288
							c-0.002,0-0.004,0-0.006,0c-0.004,0-0.025-0.047-0.025-0.047c-0.021-0.038-0.053-0.069-0.092-0.089
							c-0.187-0.094-0.208-0.287-0.227-0.595c-0.003-0.046-0.006-0.093-0.01-0.14c0.022-0.021,0.034-0.045,0.046-0.074
							c0.049-0.114-0.101-0.181-0.101-0.292v-1.659c0-0.046,0.009-0.09,0.008-0.131c0.014,0.009,0.033,0.018,0.046,0.027
							c0.18,0.112,0.367,0.229,0.613,0.229c0.079,0,0.157-0.011,0.237-0.035C8.142,10.916,8.2,10.93,8.257,10.93
							c0.056,0,0.104-0.011,0.145-0.027c0.011,0.008,0.022,0.013,0.034,0.019c0.029,0.013,0.06,0.021,0.092,0.021
							c0.03,0,0.059-0.007,0.087-0.019c0.034-0.014,0.106-0.048,0.17-0.109c0.009,0.015,0.019,0.03,0.033,0.043
							c0.003,0.003,0.006,0.007,0.009,0.009c-0.056,0.056-0.114,0.155-0.214,0.326c-0.05,0.084-0.103,0.177-0.154,0.259
							c-0.013,0.022-0.023,0.045-0.028,0.07c-0.088,0.426,0.256,0.596,0.461,0.697c0.186,0.091,0.267,0.142,0.273,0.235
							c0.007,0.09,0.068,0.167,0.155,0.191c0.019,0.006,0.038,0.008,0.057,0.008c0.069,0,0.135-0.034,0.175-0.091
							c0.15-0.214,0.223-0.545,0.199-0.866c0.039,0.037,0.074,0.078,0.084,0.106c-0.003,0.089,0.051,0.17,0.134,0.204
							c0.026,0.011,0.053,0.015,0.079,0.015c0.034,0,0.069-0.009,0.1-0.025c0.047,0.103,0.106,0.232,0.212,0.321
							c-0.032,0.008-0.064,0.016-0.092,0.022c-0.193,0.044-0.413,0.095-0.524,0.27c-0.051,0.08-0.042,0.184,0.021,0.255
							c0.014,0.016,0.031,0.03,0.048,0.04c-0.037,0.04-0.069,0.084-0.09,0.131c-0.041,0.053-0.089,0.108-0.139,0.166
							c-0.147,0.17-0.316,0.367-0.4,0.596c-0.079-0.028-0.166-0.043-0.258-0.043C8.638,13.753,8.38,13.901,8.27,14.131z
							 M11.404,16.363c-0.051,0.099-0.102,0.199-0.135,0.301c-0.257,0.121-0.38,0.337-0.489,0.53
							c-0.031,0.054-0.06,0.105-0.093,0.155c-0.17,0.018-0.276,0.127-0.314,0.328c-0.001,0.004-0.002,0.008-0.002,0.011
							c-0.055,0-0.11,0.021-0.149,0.058c-0.136,0.128-0.214,0.282-0.268,0.44c0.01-0.094,0.017-0.188,0.024-0.281
							c0.017-0.23,0.033-0.446,0.093-0.651c0.186-0.456-0.052-0.744-0.242-0.975c-0.056-0.067-0.108-0.13-0.151-0.197
							c-0.012-0.019-0.029-0.036-0.047-0.051c-0.099-0.078-0.1-0.108-0.012-0.319c0.05-0.121,0.108-0.263,0.097-0.422
							c0.004-0.002,0.008-0.003,0.012-0.004c0.084-0.03,0.171-0.06,0.236-0.06c0.033,0,0.049,0.009,0.06,0.016
							c0.007,0.005,0.013,0.009,0.019,0.012c0.079,0.044,0.175,0.08,0.276,0.119c0.146,0.056,0.418,0.159,0.407,0.24
							c-0.009,0.04-0.007,0.083,0.008,0.121c0.048,0.13,0.163,0.151,0.352,0.186c0.096,0.017,0.241,0.044,0.297,0.072
							c0.014,0.008,0.03,0.012,0.046,0.016c0.081,0.019,0.103,0.041,0.103,0.041C11.54,16.099,11.452,16.27,11.404,16.363z"/>
						<path opacity="0.3" fill="#669CCC" enable-background="new    " d="M9.421,14.427l-0.1-0.021
							c-0.033,0.108,0.605,0.216,0.166,0.044L9.421,14.427z"/>
						<path opacity="0.3" fill="#669CCC" enable-background="new    " d="M12.799,10.906c-0.172,0.198-0.4-0.052-0.405,0.119
							c0.032,0.052,0.156,0.418,0.431,0.147C12.974,11.11,12.915,10.954,12.799,10.906z"/>
					</g>
				</g>
			</g>
		</g>
	</g>
</g>
</svg>
