<?xml version="1.0" encoding="utf-8"?>
<!-- Generator: Adobe Illustrator 17.0.0, SVG Export Plug-In . SVG Version: 6.00 Build 0)  -->
<!DOCTYPE svg PUBLIC "-//W3C//DTD SVG 1.1//EN" "http://www.w3.org/Graphics/SVG/1.1/DTD/svg11.dtd">
<svg version="1.1" id="图层_1" xmlns="http://www.w3.org/2000/svg" xmlns:xlink="http://www.w3.org/1999/xlink" x="0px" y="0px"
	 width="22px" height="22px" viewBox="1 1 22 22" enable-background="new 1 1 22 22" xml:space="preserve">
<g>
	<path fill="#C4DCED" stroke="#9DBCD7" stroke-miterlimit="10" d="M22.475,19.735c0,1.527-1.238,2.765-2.765,2.765H4.24
		c-1.527,0-2.765-1.238-2.765-2.765V4.265C1.475,2.738,2.713,1.5,4.24,1.5h15.471c1.527,0,2.765,1.238,2.765,2.765L22.475,19.735
		L22.475,19.735z"/>
	<path opacity="0.6" fill="none" stroke="#FFFFFF" stroke-miterlimit="10" enable-background="new    " d="M4.24,21.543
		c-0.997,0-1.808-0.811-1.808-1.808V4.265c0-0.997,0.811-1.808,1.808-1.808h15.471c0.997,0,1.808,0.811,1.808,1.808v15.47
		c-0.001,0.997-0.812,1.808-1.809,1.808C19.71,21.543,4.24,21.543,4.24,21.543z"/>
	
		<rect x="5.248" y="4.587" transform="matrix(-0.9291 0.3699 -0.3699 -0.9291 20.01 11.7064)" fill="#FFFFFF" stroke="#9DBCD7" stroke-miterlimit="10" width="7.269" height="6.37"/>
	
		<rect x="11.078" y="5.192" transform="matrix(-1 0.0012 -0.0012 -1 29.7977 17.0532)" fill="#FFFFFF" stroke="#9DBCD7" stroke-miterlimit="10" width="7.632" height="6.688"/>
	
		<linearGradient id="SVGID_1_" gradientUnits="userSpaceOnUse" x1="1977.974" y1="-2454.5" x2="1977.974" y2="-2439.5796" gradientTransform="matrix(1 0 0 -1 -1966 -2432)">
		<stop  offset="0" style="stop-color:#D1E0ED"/>
		<stop  offset="1" style="stop-color:#E4EEFB"/>
	</linearGradient>
	<path fill="url(#SVGID_1_)" stroke="#9DBCD7" stroke-miterlimit="10" d="M4.233,22.5h15.528c1.527,0,2.712-1.27,2.712-2.796V9.701
		c0-0.217-0.326-0.422-0.758-0.422c-2.675,0-11.202,0.002-11.967,0.002c-0.929,0-0.915-0.847-0.915-0.847S8.84,7.58,7.918,7.58
		c-1.613,0-4.845,0-5.529,0c-0.908,0-0.915,0.753-0.915,0.78v11.345C1.475,21.23,2.707,22.5,4.233,22.5z"/>
	<path opacity="0.8" fill="none" stroke="#FFFFFF" stroke-miterlimit="10" enable-background="new    " d="M4.233,21.543
		c-0.993,0-1.801-0.825-1.801-1.839V8.543l5.446-0.007C7.894,8.751,7.972,9.28,8.392,9.708c0.237,0.241,0.666,0.529,1.357,0.529
		l11.768-0.001v9.468c0,1.015-0.787,1.839-1.755,1.839L4.233,21.543L4.233,21.543z"/>
	<path opacity="0.1" fill="#FFFFFF" enable-background="new    " d="M8.928,19.902c-0.909,0-1.648-0.739-1.648-1.648v-6.093
		c0-0.909,0.739-1.648,1.648-1.648h6.093c0.909,0,1.648,0.739,1.648,1.648v6.095c0,0.909-0.739,1.648-1.648,1.648H8.928V19.902z
		 M15.022,18.937c0.376,0,0.683-0.306,0.683-0.683v-5.887l-0.285,0.052c-0.02,0.004-0.498,0.088-1.073,0.088
		c-0.06,0-0.121-0.001-0.182-0.002c0.006,0-0.635,0.034-1.152,0.191c0.067,0.023,0.107,0.052,0.138,0.095
		c0.009,0.011,0.018,0.033,0.031,0.065l0.061-0.053c2.164,1.883,0.811,3.872,0.798,3.891c-0.691,0.97-1.757,1.739-2.602,2.244h3.585
		C15.022,18.939,15.022,18.937,15.022,18.937z M8.245,16.445c0.314,0.122,0.913,0.311,1.64,0.324l0.242,0.005
		c0.176,0.004,0.346,0.008,0.511,0.008c0.794,0,1.383-0.091,2.049-0.558c0.846-0.594,0.752-1.539,0.747-1.579
		c-0.003-0.166-0.029-0.331-0.065-0.488c-0.001,0.235-0.022,0.476-0.077,0.707c-0.006,0.036-0.22,1.135-1.261,1.4
		c-0.159,0.039-0.321,0.06-0.48,0.06c-0.64,0-1.248-0.318-1.857-0.973c-0.479-0.514-1.167-1.922-1.332-3.568
		c-0.076,0.11-0.118,0.241-0.118,0.378V16.445L8.245,16.445L8.245,16.445z M11.441,15.363c0.003,0,0.077,0.025,0.18,0.025
		c0.318,0,0.596-0.228,0.806-0.661c0.009-0.014,0.173-0.316,0.213-0.955c-0.081,0.427-0.248,0.916-0.578,1.261
		c-0.021,0.024-0.27,0.292-0.567,0.292c-0.051,0-0.105-0.008-0.161-0.026C11.367,15.323,11.403,15.345,11.441,15.363L11.441,15.363z
		 M11.388,11.477c-0.194,0.361-0.671,1.361-0.637,2.426c0,0.015-0.01,0.482,0.185,0.903c-0.02-0.063-0.037-0.133-0.055-0.212
		c-0.01-0.034-0.257-1.096,1.061-2.325c0.022-0.022,0.443-0.439,0.847-0.793L11.388,11.477L11.388,11.477z"/>
	<path opacity="0.5" fill="#669CCC" enable-background="new    " d="M15.022,10.726H8.928c-0.792,0-1.434,0.641-1.434,1.434v6.094
		c0,0.792,0.642,1.434,1.434,1.434h6.093c0.793,0,1.434-0.641,1.434-1.434V12.16C16.457,11.368,15.815,10.726,15.022,10.726z
		 M15.919,18.254c0,0.494-0.401,0.897-0.896,0.897h-4.405c0.766-0.397,2.349-1.318,3.248-2.581c0,0,1.281-1.827-0.762-3.607
		c0,0,0.527,0.825,0.544,1.658c0,0,0.131,1.101-0.838,1.778c-0.967,0.678-1.813,0.604-2.928,0.584
		c-0.891-0.015-1.601-0.285-1.85-0.394v-4.428c0-0.356,0.211-0.663,0.513-0.807c0.077,1.795,0.828,3.339,1.306,3.852
		c0.488,0.526,1.208,1.083,2.129,0.851c0.92-0.233,1.105-1.242,1.105-1.242c0.201-0.86-0.09-1.879-0.105-1.901
		c-0.015-0.021-0.154-0.045-0.154-0.045c0.146,1.353-0.205,1.952-0.205,1.952c-0.514,1.062-1.272,0.734-1.272,0.734
		c-0.844-0.43-0.807-1.645-0.807-1.645c-0.042-1.266,0.604-2.439,0.725-2.646h2.133c-0.438,0.298-1.308,1.163-1.308,1.163
		c-1.24,1.156-0.997,2.128-0.997,2.128c0.2,1.02,0.814,0.332,0.814,0.332c0.646-0.672,0.596-2.009,0.596-2.009
		c-0.263,0.043-0.428,0.189-0.428,0.189c-0.031,0.891-0.553,1.445-0.553,1.445c-0.204,0.226-0.349,0.011-0.349,0.011
		c-0.107-0.162,0.106-0.273,0.106-0.273c0.299-0.264,0.389-0.712,0.383-0.881c-0.004-0.169,0.085-0.214,0.085-0.214
		c0.422-0.328,0.845-0.522,0.845-0.522c0.567-0.291,1.579-0.34,1.579-0.34c0.638,0.021,1.21-0.081,1.21-0.081l0.531-0.097
		c0,0.016,0.004,0.032,0.004,0.048V18.254L15.919,18.254L15.919,18.254L15.919,18.254z"/>
	<g>
		<path opacity="0.05" fill="#FFFFFF" enable-background="new    " d="M15.382,12.208c0,0-0.573,0.103-1.21,0.081
			c0,0-1.013,0.05-1.579,0.34c0,0-0.422,0.194-0.845,0.522c0,0-0.089,0.046-0.085,0.214c0.005,0.169-0.084,0.618-0.383,0.881
			c0,0-0.214,0.113-0.106,0.273c0,0,0.145,0.214,0.349-0.011c0,0,0.524-0.553,0.553-1.445c0,0,0.165-0.146,0.428-0.189
			c0,0,0.051,1.337-0.596,2.009c0,0-0.613,0.688-0.814-0.332c0,0-0.243-0.972,0.997-2.128c0,0,0.869-0.866,1.308-1.163h-2.133
			c-0.121,0.208-0.766,1.381-0.725,2.646c0,0-0.037,1.215,0.807,1.645c0,0,0.759,0.327,1.272-0.734c0,0,0.352-0.599,0.205-1.952
			c0,0,0.139,0.024,0.154,0.045c0.015,0.022,0.307,1.042,0.105,1.901c0,0-0.185,1.008-1.105,1.242
			c-0.92,0.232-1.64-0.326-2.129-0.851c-0.477-0.514-1.228-2.057-1.306-3.852c-0.302,0.144-0.513,0.451-0.513,0.807v4.428
			c0.249,0.108,0.959,0.378,1.85,0.394c1.113,0.02,1.96,0.095,2.928-0.584c0.968-0.677,0.838-1.778,0.838-1.778
			c-0.018-0.833-0.544-1.658-0.544-1.658c2.044,1.78,0.762,3.608,0.762,3.608c-0.899,1.263-2.481,2.185-3.248,2.581h4.405
			c0.494,0,0.896-0.402,0.896-0.897v-6.093c0-0.016-0.004-0.032-0.004-0.048L15.382,12.208z M11.044,13.023
			c0.117-0.565,0.331-1.049,0.473-1.333h0.72c-0.246,0.23-0.432,0.416-0.441,0.424C11.458,12.431,11.218,12.738,11.044,13.023z
			 M10.638,16.568c-0.163,0-0.332-0.004-0.506-0.008l-0.243-0.005c-0.604-0.011-1.118-0.15-1.43-0.259V13.34
			c0.288,0.961,0.71,1.759,1.079,2.156c0.593,0.636,1.189,0.976,1.82,1.032C11.138,16.559,10.903,16.568,10.638,16.568z
			 M15.492,18.254c0,0.259-0.211,0.469-0.469,0.469h-2.855c0.704-0.481,1.493-1.131,2.048-1.909
			c0.014-0.021,1.404-2.059-0.666-4.023c0.276-0.047,0.525-0.067,0.62-0.074c0.06,0.001,0.119,0.002,0.177,0.002
			c0.598,0,1.09-0.088,1.113-0.092l0.034-0.006L15.492,18.254z"/>
		<path opacity="0.05" fill="#FFFFFF" enable-background="new    " d="M15.022,10.3H8.928c-1.025,0-1.861,0.835-1.861,1.86v6.095
			c0,1.025,0.835,1.86,1.861,1.86h6.093c1.025,0,1.861-0.835,1.861-1.86v-6.094C16.884,11.134,16.049,10.3,15.022,10.3z
			 M16.457,18.254c0,0.792-0.641,1.434-1.434,1.434H8.928c-0.792,0-1.434-0.641-1.434-1.434V12.16c0-0.792,0.642-1.434,1.434-1.434
			h6.093c0.793,0,1.434,0.641,1.434,1.434L16.457,18.254L16.457,18.254z"/>
	</g>
	<g opacity="0.2">
		<path opacity="0.9" fill="#FFFFFF" enable-background="new    " d="M13.865,16.783c0,0,0.428-0.612,0.393-1.472
			c-0.034,0.746-0.393,1.259-0.393,1.259c-0.899,1.263-2.481,2.185-3.248,2.581h0.394C11.842,18.684,13.1,17.857,13.865,16.783z"/>
		<path opacity="0.9" fill="#FFFFFF" enable-background="new    " d="M11.093,14.768c0.2,1.02,0.814,0.333,0.814,0.333
			c0.646-0.672,0.596-2.01,0.596-2.01c-0.001,0-0.002,0-0.002,0c-0.015,0.405-0.106,1.289-0.595,1.795c0,0-0.613,0.688-0.814-0.332
			c0,0-0.01-0.038-0.015-0.105C11.064,14.649,11.093,14.768,11.093,14.768z"/>
		<path opacity="0.9" fill="#FFFFFF" enable-background="new    " d="M10.539,13.95c0-0.011,0-0.024,0-0.036
			C10.539,13.917,10.539,13.929,10.539,13.95z"/>
		<path opacity="0.9" fill="#FFFFFF" enable-background="new    " d="M12.844,13.086c-0.011-0.002-0.019-0.004-0.019-0.004
			c0.021,0.191,0.032,0.364,0.034,0.526C12.863,13.45,12.858,13.277,12.844,13.086z"/>
		<path opacity="0.9" fill="#FFFFFF" enable-background="new    " d="M11.264,11.264c-0.12,0.206-0.758,1.366-0.725,2.623
			c0.037-1.173,0.611-2.215,0.725-2.41h1.855c0.101-0.084,0.197-0.159,0.278-0.214H11.264L11.264,11.264z"/>
		<path opacity="0.9" fill="#FFFFFF" enable-background="new    " d="M15.022,19.688H8.928c-0.792,0-1.434-0.641-1.434-1.434v0.213
			c0,0.793,0.642,1.434,1.434,1.434h6.093c0.793,0,1.434-0.641,1.434-1.434v-0.213C16.457,19.046,15.815,19.688,15.022,19.688z"/>
		<path opacity="0.9" fill="#FFFFFF" enable-background="new    " d="M15.915,12.112l-0.532,0.096c0,0-0.573,0.103-1.21,0.081
			c0,0-1.013,0.05-1.579,0.34c0,0-0.422,0.194-0.845,0.522c0,0-0.089,0.046-0.085,0.214c0.005,0.169-0.084,0.618-0.383,0.881
			c0,0-0.214,0.113-0.106,0.273c0,0,0.005,0.007,0.011,0.016c0.04-0.049,0.095-0.077,0.095-0.077
			c0.299-0.264,0.389-0.712,0.383-0.881c-0.004-0.169,0.085-0.214,0.085-0.214c0.11-0.085,0.22-0.161,0.323-0.227
			c0.001-0.024,0.004-0.048,0.005-0.073c0,0,0.165-0.146,0.428-0.189c0,0,0,0.006,0,0.011c0.056-0.029,0.09-0.045,0.09-0.045
			c0.567-0.291,1.579-0.34,1.579-0.34c0.638,0.021,1.21-0.082,1.21-0.082l0.532-0.096c0,0.016,0.004,0.032,0.004,0.048v-0.214
			C15.919,12.144,15.915,12.128,15.915,12.112z"/>
		<path opacity="0.9" fill="#FFFFFF" enable-background="new    " d="M9.85,15.205c-0.477-0.514-1.228-2.057-1.306-3.852
			c-0.302,0.144-0.513,0.451-0.513,0.807v0.214c0-0.356,0.211-0.663,0.513-0.807c0.077,1.795,0.828,3.339,1.306,3.853
			c0.488,0.525,1.208,1.083,2.129,0.85c0.92-0.232,1.105-1.242,1.105-1.242c0.061-0.258,0.076-0.53,0.069-0.785
			c-0.005,0.19-0.024,0.384-0.069,0.573c0,0-0.185,1.008-1.105,1.242C11.059,16.288,10.34,15.73,9.85,15.205z"/>
	</g>
</g>
</svg>
