<?xml version="1.0" encoding="utf-8"?>
<!-- Generator: Adobe Illustrator 17.0.0, SVG Export Plug-In . SVG Version: 6.00 Build 0)  -->
<!DOCTYPE svg PUBLIC "-//W3C//DTD SVG 1.1//EN" "http://www.w3.org/Graphics/SVG/1.1/DTD/svg11.dtd">
<svg version="1.1" id="图层_1" xmlns="http://www.w3.org/2000/svg" xmlns:xlink="http://www.w3.org/1999/xlink" x="0px" y="0px"
	 width="22px" height="22px" viewBox="1 1 22 22" enable-background="new 1 1 22 22" xml:space="preserve">
<path fill="#C4DCED" stroke="#9DBCD7" stroke-miterlimit="10" d="M22.476,19.735c0,1.527-1.238,2.765-2.765,2.765H4.241
	c-1.527,0-2.765-1.238-2.765-2.765V4.265c0-1.527,1.238-2.765,2.765-2.765h15.471c1.527,0,2.765,1.238,2.765,2.765L22.476,19.735
	L22.476,19.735z"/>
<path opacity="0.6" fill="none" stroke="#FFFFFF" stroke-miterlimit="10" enable-background="new    " d="M4.241,21.543
	c-0.997,0-1.808-0.811-1.808-1.808V4.265c0-0.997,0.811-1.808,1.808-1.808h15.471c0.997,0,1.808,0.811,1.808,1.808v15.47
	c-0.001,0.997-0.812,1.808-1.809,1.808C19.711,21.543,4.241,21.543,4.241,21.543z"/>
<linearGradient id="SVGID_1_" gradientUnits="userSpaceOnUse" x1="1679.9751" y1="2091.5" x2="1679.9751" y2="2074.1851" gradientTransform="matrix(1 0 0 1 -1668 -2069)">
	<stop  offset="0" style="stop-color:#D1E0ED"/>
	<stop  offset="1" style="stop-color:#E4EEFB"/>
</linearGradient>
<path fill="url(#SVGID_1_)" stroke="#9DBCD7" stroke-miterlimit="10" d="M4.234,22.5h15.528c1.527,0,2.712-1.27,2.712-2.796V7.307
	c0-0.217-0.326-0.422-0.758-0.422c-2.675,0-11.202,0.002-11.967,0.002c-0.929,0-0.915-0.847-0.915-0.847s0.007-0.854-0.915-0.854
	c-1.613,0-4.845,0-5.529,0c-0.908,0-0.915,0.753-0.915,0.78v13.739C1.476,21.23,2.708,22.5,4.234,22.5z"/>
<path opacity="0.8" fill="none" stroke="#FFFFFF" stroke-miterlimit="10" enable-background="new    " d="M4.234,21.543
	c-0.993,0-1.801-0.825-1.801-1.839V6.149l5.446-0.007c0.015,0.215,0.094,0.744,0.514,1.172C8.631,7.556,9.06,7.844,9.75,7.844
	l11.768-0.001v11.861c0,1.015-0.787,1.839-1.755,1.839L4.234,21.543L4.234,21.543z"/>
<path opacity="0.05" fill="#FFFFFF" enable-background="new    " d="M13.787,8.986c-0.969,0.01-1.949-0.016-2.928,0.012
	c-0.049,0.001-0.095,0.019-0.131,0.052c-0.095,0.097-0.168,0.099-0.321,0.085c-0.142-0.012-0.342-0.04-0.561,0.007V9.135
	c-0.007,0.001-0.013,0.006-0.02,0.007c-0.008,0.002-0.011-0.002-0.02,0v0.007C9.474,9.178,9.163,9.35,9.009,9.665L9.002,9.658
	C8.997,9.666,8.995,9.676,8.989,9.684c-0.337,0.521-0.706,1.035-1.032,1.582c-0.008,0.012-0.014,0.026-0.02,0.039
	c-0.077,0.224,0.012,0.44,0.137,0.574c0.123,0.131,0.273,0.216,0.393,0.281c0.003,0.002,0.004,0.005,0.007,0.007
	c0.185,0.113,0.377,0.223,0.562,0.34c-0.066-0.006-0.137-0.011-0.196-0.007c-0.171,0.012-0.323,0.04-0.431,0.033
	c-0.009-0.001-0.017-0.001-0.026,0c-0.614,0.041-1.246,0.048-1.876,0.111c-0.009,0.002-0.017,0.004-0.026,0.007
	c-0.526,0.139-0.54,0.904-0.065,1.111l-0.007,0.007c0.03,0.023,0.038,0.017,0.065,0.033c0.058,0.032,0.101,0.059,0.137,0.072
	c-0.484,0.907-0.432,2.046,0.164,2.894c0.001,0.002-0.001,0.005,0,0.007c0.436,0.663,0.952,1.257,1.438,1.85
	c0.036,0.041,0.088,0.065,0.144,0.065c0.165,0.008,0.238,0.062,0.352,0.164c0.114,0.101,0.249,0.254,0.463,0.379
	c0.018,0.011,0.038,0.021,0.058,0.026c0.448,0.086,0.889,0.013,1.274,0.033c0.004,0.001,0.009,0.001,0.013,0
	c0.455-0.011,0.932,0.03,1.418-0.012c0.011-0.001,0.022-0.004,0.033-0.007c0.129-0.034,0.237-0.109,0.307-0.202
	c0.069-0.094,0.101-0.195,0.118-0.294c0.011-0.065,0.004-0.108,0.007-0.169c0.266,0.469,0.518,0.948,0.817,1.411
	c0.006,0.01,0.012,0.018,0.02,0.026c0.369,0.401,1.068,0.049,1.013-0.477h0.007c0.001-0.016-0.001-0.017,0-0.033
	c0.001-0.084,0.005-0.141,0.007-0.176c0.006,0.002,0.001-0.002,0.007,0c0.019,0.006,0.039,0.007,0.058,0.007
	c1.006,0.013,1.967-0.546,2.45-1.431c0.002-0.003,0.005-0.004,0.007-0.007c0.398-0.687,0.706-1.416,1.019-2.124
	c0.019-0.046,0.019-0.098,0-0.145c-0.056-0.146-0.052-0.238-0.026-0.359s0.086-0.272,0.144-0.471
	c0.005-0.017,0.007-0.034,0.007-0.052c-0.005-0.422-0.282-0.713-0.379-0.96c-0.002-0.004-0.004-0.009-0.007-0.013
	c-0.27-0.522-0.518-1.063-0.81-1.588c-0.008-0.011-0.016-0.023-0.026-0.033c-0.137-0.155-0.34-0.211-0.509-0.19
	c-0.159,0.02-0.296,0.092-0.412,0.183l-0.007,0.007c-0.006,0.004-0.014,0.002-0.02,0.007l-0.124,0.079
	c0.266-0.469,0.532-0.936,0.791-1.411c0.003-0.009,0.005-0.017,0.007-0.026c0.201-0.528-0.476-1.029-0.915-0.673
	c-0.007,0.004-0.013,0.008-0.02,0.012c-0.052,0.051-0.046,0.049-0.046,0.052c-0.007-0.014-0.017-0.021-0.026-0.052
	c-0.005-0.016-0.011-0.032-0.02-0.046C15.076,9.56,14.553,8.991,13.787,8.986z M11.95,11.71c0.059,0.087,0.124,0.193,0.157,0.261
	c0.037,0.075,0.031,0.117,0.033,0.111c0.002-0.006,0.008,0.019-0.104,0.046c-0.004,0-0.009,0-0.013,0
	c-0.175,0.058-0.326,0.176-0.418,0.34c-0.092,0.164-0.111,0.39,0,0.582c0.137,0.23,0.382,0.3,0.582,0.307
	c0.199,0.008,0.388-0.019,0.503-0.007c0.007,0.001,0.012,0.001,0.02,0l1.163-0.007c-0.096,0.064-0.196,0.123-0.281,0.215
	c-0.008,0.011-0.014,0.021-0.02,0.033c-0.135,0.232-0.081,0.485,0.007,0.666c0.088,0.181,0.204,0.333,0.248,0.444
	c0.002,0.007,0.004,0.013,0.007,0.02l0.131,0.242c-0.036-0.023-0.06-0.057-0.104-0.072c-0.002-0.001,0.001-0.006,0-0.007
	c-0.002-0.001-0.004,0.001-0.007,0c-0.196-0.069-0.397-0.012-0.536,0.092c-0.133,0.1-0.217,0.237-0.274,0.379l-0.007-0.007
	l-0.634,1.143c0.001-0.181,0.017-0.349-0.013-0.536c-0.003-0.013-0.007-0.027-0.012-0.039c-0.053-0.126-0.146-0.23-0.249-0.287
	c-0.102-0.057-0.206-0.072-0.307-0.079c-0.202-0.013-0.397,0.019-0.516,0.013c-0.004-0.001-0.009-0.001-0.013,0l-0.673,0.019
	c0.052-0.025,0.105-0.04,0.15-0.085l0.007,0.007c0.004-0.004,0.003-0.01,0.007-0.013c0.164-0.156,0.2-0.385,0.157-0.562
	c-0.043-0.175-0.144-0.316-0.242-0.431h0.007c-0.004-0.005-0.01-0.008-0.013-0.013c-0.383-0.548-0.752-1.116-1.15-1.666
	c0.317,0.2,0.627,0.402,0.954,0.588c0.012,0.008,0.025,0.014,0.039,0.02c0.239,0.068,0.466-0.041,0.595-0.183
	c0.126-0.139,0.197-0.304,0.255-0.431l0.007-0.007L11.95,11.71z M14.25,15.487l0.079,0.144h-0.072
	C14.257,15.584,14.254,15.539,14.25,15.487z M9.95,15.533c0.049,0.025,0.094,0.043,0.15,0.065l-0.183,0.007L9.95,15.533z"/>
<g opacity="0.5" enable-background="new    ">
	<g>
		<path fill="#FFFFFF" d="M13.8,10.582l-2.822,0.006c0.307,0.184,0.709,0.597,1.046,1.068c0.375,0.527,0.681,1.135,0.906,1.665
			l-0.8,0.432l2.547-0.006l1.185-2.102l-0.631,0.398l-0.403-0.712C14.559,10.925,14.307,10.627,13.8,10.582z M10.19,10.71
			c-0.173-0.003-0.358,0.024-0.561,0.101l-1.114,1.676l2.172,1.36l1.051-2.02C11.417,11.38,10.938,10.725,10.19,10.71z
			 M16.264,13.583l-2.185,1.326l1.08,1.991l0.87,0.011c0.508,0.006,1.329-0.702,1.296-1.209L16.264,13.583z M9.017,14.097
			l-2.366,0.128l0.759,0.379l-0.252,0.508c-0.821,1.649,0.214,2.454,1.443,4.058c-0.175-0.398-0.166-0.825-0.011-1.238l1.092-2.196
			l0.684,0.339L9.017,14.097z M13.66,16.463l-1.168,2.091l1.168,2.056l0.006-0.847h0.567c1.842-0.001,2.097-1.285,2.984-3.101
			c-0.279,0.335-0.66,0.514-1.098,0.561l-2.453,0.006L13.66,16.463z M11.82,17.147l-2.493,0.076L8.93,17.993
			c-0.232,0.453,0.039,1.502,0.508,1.699h2.366L11.82,17.147z"/>
	</g>
	<g>
		<path fill="#669CCC" d="M13.8,9.582l-2.822,0.006c0.307,0.184,0.709,0.597,1.046,1.068c0.375,0.527,0.681,1.135,0.906,1.665
			l-0.8,0.432l2.547-0.006l1.185-2.102l-0.631,0.398l-0.403-0.712C14.559,9.925,14.307,9.627,13.8,9.582z M10.19,9.71
			C10.017,9.707,9.832,9.734,9.629,9.81l-1.114,1.676l2.172,1.36l1.051-2.02C11.417,10.38,10.938,9.725,10.19,9.71z M16.264,12.583
			l-2.185,1.326l1.08,1.991l0.87,0.011c0.508,0.006,1.329-0.702,1.296-1.209L16.264,12.583z M9.017,13.097l-2.366,0.128l0.759,0.379
			l-0.252,0.508c-0.821,1.649,0.214,2.454,1.443,4.058c-0.175-0.398-0.166-0.825-0.011-1.238l1.092-2.196l0.684,0.339L9.017,13.097z
			 M13.66,15.463l-1.168,2.091l1.168,2.056l0.006-0.847h0.567c1.842-0.001,2.097-1.285,2.984-3.101
			c-0.279,0.335-0.66,0.514-1.098,0.561l-2.453,0.006L13.66,15.463z M11.82,16.147l-2.493,0.076L8.93,16.993
			c-0.232,0.453,0.039,1.502,0.508,1.699h2.366L11.82,16.147z"/>
	</g>
</g>
</svg>
