<?xml version="1.0" encoding="utf-8"?>
<!-- Generator: Adobe Illustrator 17.0.0, SVG Export Plug-In . SVG Version: 6.00 Build 0)  -->
<!DOCTYPE svg PUBLIC "-//W3C//DTD SVG 1.1//EN" "http://www.w3.org/Graphics/SVG/1.1/DTD/svg11.dtd">
<svg version="1.1" id="图层_1" xmlns="http://www.w3.org/2000/svg" xmlns:xlink="http://www.w3.org/1999/xlink" x="0px" y="0px"
	 width="24px" height="24px" viewBox="0 0 24 24" enable-background="new 0 0 24 24" xml:space="preserve">
<path fill="#C4DCED" stroke="#9DBCD7" stroke-miterlimit="10" d="M22.942,20.079c0,1.595-1.293,2.888-2.888,2.888H3.896
	c-1.595,0-2.888-1.293-2.888-2.888V3.921c0-1.595,1.293-2.888,2.888-2.888h16.159c1.595,0,2.888,1.293,2.888,2.888L22.942,20.079
	L22.942,20.079z"/>
<path opacity="0.6" fill="none" stroke="#FFFFFF" stroke-miterlimit="10" enable-background="new    " d="M3.896,21.967
	c-1.041,0-1.888-0.847-1.888-1.888V3.921c0-1.041,0.847-1.888,1.888-1.888h16.159c1.041,0,1.888,0.847,1.888,1.888v16.158
	c-0.001,1.041-0.848,1.888-1.889,1.888C20.054,21.967,3.896,21.967,3.896,21.967z"/>
<rect x="4.105" y="3.092" transform="matrix(0.986 -0.1666 0.1666 0.986 -0.9704 1.4216)" fill="#FFFFFF" stroke="#9DBCD7" stroke-miterlimit="10" width="7.767" height="6.806"/>
<rect x="11.225" y="2.926" transform="matrix(0.9967 -0.0814 0.0814 0.9967 -0.465 1.2508)" fill="#FFFFFF" stroke="#9DBCD7" stroke-miterlimit="10" width="7.768" height="6.807"/>
<rect x="6.667" y="4.833" transform="matrix(0.9995 -0.0321 0.0321 0.9995 -0.2589 0.3429)" fill="#FFFFFF" stroke="#9DBCD7" stroke-miterlimit="10" width="7.768" height="6.807"/>
<rect x="12.398" y="6.592" transform="matrix(1 -0.0034 0.0034 1 -0.0339 0.0554)" fill="#FFFFFF" stroke="#9DBCD7" stroke-miterlimit="10" width="7.767" height="6.807"/>
<linearGradient id="SVGID_1_" gradientUnits="userSpaceOnUse" x1="1679.974" y1="2091.967" x2="1679.974" y2="2076.3831" gradientTransform="matrix(1 0 0 1 -1668 -2069)">
	<stop  offset="0" style="stop-color:#D1E0ED"/>
	<stop  offset="1" style="stop-color:#E4EEFB"/>
</linearGradient>
<path fill="url(#SVGID_1_)" stroke="#9DBCD7" stroke-miterlimit="10" d="M3.889,22.967h16.219c1.595,0,2.833-1.326,2.833-2.92V9.599
	c0-0.227-0.34-0.441-0.792-0.441c-2.794,0-11.7,0.002-12.499,0.002c-0.97,0-0.956-0.885-0.956-0.885s0.007-0.892-0.956-0.892
	c-1.685,0-5.06,0-5.775,0c-0.948,0-0.956,0.786-0.956,0.815v11.85C1.008,21.641,2.295,22.967,3.889,22.967z"/>
<path opacity="0.8" fill="none" stroke="#FFFFFF" stroke-miterlimit="10" enable-background="new    " d="M3.889,21.967
	c-1.037,0-1.881-0.862-1.881-1.921V8.389l5.688-0.007c0.016,0.225,0.098,0.777,0.537,1.224c0.248,0.252,0.696,0.553,1.417,0.553
	l12.291-0.001v9.889c0,1.06-0.822,1.921-1.833,1.921H3.889V21.967z"/>
<g opacity="0.5" enable-background="new    ">
	<g>
		<path fill="#FFFFFF" d="M13.674,11.863l-2.623,0.005c0.286,0.171,0.66,0.555,0.972,0.994c0.349,0.49,0.633,1.055,0.842,1.548
			l-0.744,0.402l2.368-0.005l1.102-1.955l-0.587,0.369l-0.375-0.662C14.379,12.182,14.145,11.905,13.674,11.863z M10.318,11.982
			c-0.161-0.003-0.333,0.022-0.521,0.093L8.76,13.634l2.02,1.265l0.977-1.879C11.458,12.605,11.013,11.996,10.318,11.982z
			 M15.965,14.654l-2.031,1.233l1.005,1.852l0.809,0.011c0.473,0.005,1.236-0.652,1.205-1.124L15.965,14.654z M9.226,15.132
			l-2.2,0.12l0.706,0.353l-0.234,0.472C6.735,17.61,7.697,18.358,8.84,19.85c-0.163-0.37-0.154-0.767-0.011-1.151l1.015-2.042
			l0.635,0.315L9.226,15.132z M13.543,17.331l-1.086,1.944l1.086,1.911l0.005-0.788h0.527c1.713,0,1.949-1.195,2.775-2.884
			c-0.259,0.311-0.614,0.478-1.021,0.521l-2.28,0.005L13.543,17.331z M11.833,17.966l-2.319,0.071l-0.369,0.717
			c-0.215,0.421,0.037,1.396,0.472,1.58h2.2L11.833,17.966z"/>
	</g>
	<g>
		<path fill="#669CCC" d="M13.674,10.863l-2.623,0.005c0.286,0.171,0.66,0.555,0.972,0.994c0.349,0.49,0.633,1.055,0.842,1.548
			l-0.744,0.402l2.368-0.005l1.102-1.955l-0.587,0.369l-0.375-0.662C14.379,11.182,14.145,10.905,13.674,10.863z M10.318,10.982
			c-0.161-0.003-0.333,0.022-0.521,0.093L8.76,12.634l2.02,1.265l0.977-1.879C11.458,11.605,11.013,10.996,10.318,10.982z
			 M15.965,13.654l-2.031,1.233l1.005,1.852l0.809,0.011c0.473,0.005,1.236-0.652,1.205-1.124L15.965,13.654z M9.226,14.132
			l-2.2,0.12l0.706,0.353l-0.234,0.472C6.735,16.61,7.697,17.358,8.84,18.85c-0.163-0.37-0.154-0.767-0.011-1.151l1.015-2.042
			l0.635,0.315L9.226,14.132z M13.543,16.331l-1.086,1.944l1.086,1.911l0.005-0.788h0.527c1.713,0,1.949-1.195,2.775-2.884
			c-0.259,0.311-0.614,0.478-1.021,0.521l-2.28,0.005L13.543,16.331z M11.833,16.966l-2.319,0.071l-0.369,0.717
			c-0.215,0.421,0.037,1.396,0.472,1.58h2.2L11.833,16.966z"/>
	</g>
</g>
</svg>
