<?xml version="1.0" encoding="UTF-8" standalone="no"?>
<svg width="48px" height="48px" viewBox="0 0 48 48" version="1.1" xmlns="http://www.w3.org/2000/svg" xmlns:xlink="http://www.w3.org/1999/xlink" xmlns:sketch="http://www.bohemiancoding.com/sketch/ns">
    <!-- Generator: Sketch 3.1.1 (8761) - http://www.bohemiancoding.com/sketch -->
    <title>deepin-translator</title>
    <desc>Created with Sketch.</desc>
    <defs>
        <filter x="-50%" y="-50%" width="200%" height="200%" filterUnits="objectBoundingBox" id="filter-1">
            <feGaussianBlur stdDeviation="10" in="SourceGraphic" result="blur"></feGaussianBlur>
        </filter>
        <linearGradient x1="49.3220325%" y1="98.8135625%" x2="50.1694925%" y2="-0.84745775%" id="linearGradient-2">
            <stop stop-color="#FAE895" offset="0%"></stop>
            <stop stop-color="#FFF3BE" offset="100%"></stop>
        </linearGradient>
        <linearGradient x1="20.6538694%" y1="10.9940911%" x2="80.1188947%" y2="90.0205544%" id="linearGradient-3">
            <stop stop-color="#9604E6" offset="0%"></stop>
            <stop stop-color="#3F43FF" offset="52.15%"></stop>
            <stop stop-color="#39C0FF" offset="100%"></stop>
        </linearGradient>
        <linearGradient x1="0.000438837331%" y1="49.9784442%" x2="99.9999306%" y2="50.0223127%" id="linearGradient-4">
            <stop stop-color="#430266" offset="0%"></stop>
            <stop stop-color="#222592" offset="52.15%"></stop>
            <stop stop-color="#1F7096" offset="100%"></stop>
        </linearGradient>
        <linearGradient x1="24.4339037%" y1="74.2741652%" x2="73.1676144%" y2="23.1481712%" id="linearGradient-5">
            <stop stop-color="#7E7876" offset="0%"></stop>
            <stop stop-color="#979290" offset="1.78%"></stop>
            <stop stop-color="#BCB9B8" offset="4.84%"></stop>
            <stop stop-color="#D9D8D7" offset="7.87%"></stop>
            <stop stop-color="#EEEDED" offset="10.8%"></stop>
            <stop stop-color="#FBFBFA" offset="13.6%"></stop>
            <stop stop-color="#FFFFFF" offset="16.13%"></stop>
            <stop stop-color="#BDBAB9" offset="26.88%"></stop>
            <stop stop-color="#FFFFFF" offset="68.28%"></stop>
            <stop stop-color="#727171" offset="88.17%"></stop>
            <stop stop-color="#FFFFFF" offset="100%"></stop>
        </linearGradient>
        <linearGradient x1="28.6322186%" y1="72.5436975%" x2="71.3608379%" y2="27.4332984%" id="linearGradient-6">
            <stop stop-color="#716F6F" offset="0%"></stop>
            <stop stop-color="#595757" offset="31.72%"></stop>
            <stop stop-color="#5C5A5A" offset="33.83%"></stop>
            <stop stop-color="#666464" offset="35.49%"></stop>
            <stop stop-color="#716F6F" offset="36.56%"></stop>
            <stop stop-color="#716F6F" offset="63.98%"></stop>
            <stop stop-color="#595757" offset="68.28%"></stop>
            <stop stop-color="#5C5A5A" offset="82.12%"></stop>
            <stop stop-color="#666464" offset="92.96%"></stop>
            <stop stop-color="#716F6F" offset="100%"></stop>
        </linearGradient>
        <linearGradient x1="29.552387%" y1="71.5903226%" x2="70.4056608%" y2="28.4036395%" id="linearGradient-7">
            <stop stop-color="#C4C2C2" offset="13.44%"></stop>
            <stop stop-color="#757272" offset="18.82%"></stop>
            <stop stop-color="#757272" offset="30.49%"></stop>
            <stop stop-color="#757272" offset="31.72%"></stop>
            <stop stop-color="#787575" offset="33.16%"></stop>
            <stop stop-color="#827F7F" offset="34.29%"></stop>
            <stop stop-color="#929090" offset="35.31%"></stop>
            <stop stop-color="#A9A7A7" offset="36.26%"></stop>
            <stop stop-color="#C4C2C2" offset="37.1%"></stop>
            <stop stop-color="#D9D5D4" offset="62.37%"></stop>
            <stop stop-color="#757272" offset="68.28%"></stop>
            <stop stop-color="#757272" offset="80.43%"></stop>
            <stop stop-color="#757272" offset="81.72%"></stop>
            <stop stop-color="#787575" offset="82.84%"></stop>
            <stop stop-color="#827F7F" offset="83.71%"></stop>
            <stop stop-color="#908D8D" offset="84.41%"></stop>
        </linearGradient>
        <linearGradient x1="24.3522513%" y1="76.8184189%" x2="75.5749317%" y2="23.155554%" id="linearGradient-8">
            <stop stop-color="#E5B865" offset="0%"></stop>
            <stop stop-color="#E1B360" offset="1.22%"></stop>
            <stop stop-color="#C8913F" offset="9.79%"></stop>
            <stop stop-color="#B67928" offset="17.95%"></stop>
            <stop stop-color="#AC6A1A" offset="25.46%"></stop>
            <stop stop-color="#A86515" offset="31.72%"></stop>
            <stop stop-color="#DDA441" offset="100%"></stop>
        </linearGradient>
        <linearGradient x1="51.0792157%" y1="99.9848965%" x2="48.9189709%" y2="0.0136134734%" id="linearGradient-9">
            <stop stop-color="#D7D7E3" offset="0%"></stop>
            <stop stop-color="#FFFFFF" offset="100%"></stop>
        </linearGradient>
        <linearGradient x1="0.540612776%" y1="53.3544223%" x2="100.52371%" y2="48.8568404%" id="linearGradient-10">
            <stop stop-color="#FFFFFF" stop-opacity="0.1" offset="0%"></stop>
            <stop stop-color="#FFFFFF" offset="53.23%"></stop>
            <stop stop-color="#FFFFFF" stop-opacity="0.1" offset="100%"></stop>
        </linearGradient>
    </defs>
    <g id="Page-1" stroke="none" stroke-width="1" fill="none" fill-rule="evenodd" sketch:type="MSPage">
        <g id="Group" sketch:type="MSLayerGroup" transform="translate(2.500000, 4.500000)">
            <rect id="rect4389" opacity="0.19004525" fill="#000000" filter="url(#filter-1)" sketch:type="MSShapeGroup" x="0.144068" y="37.2711865" width="42.711864" height="3.4576271" rx="1.9578555"></rect>
            <rect id="rect3261" stroke="#E9AE44" stroke-width="0.97560984" fill="url(#linearGradient-2)" sketch:type="MSShapeGroup" x="2" y="0" width="39.024391" height="39.024391" rx="1.9578555"></rect>
            <path d="M33.841921,35.942895 C33.599632,35.947795 33.360605,35.865395 33.168079,35.71121 C33.146869,35.69816 33.054684,35.63616 32.902948,35.518684 L32.633737,35.451794 L32.571737,35.410184 C32.175263,35.143421 31.467158,34.593579 30.348711,33.484105 C29.2115,32.351789 28.659211,31.647763 28.396527,31.253737 L28.029421,30.709605 L28.077551,30.645155 C28.069351,30.635355 28.063681,30.625575 28.058791,30.617415 C27.939685,30.474652 27.865449,30.293547 27.840159,30.10102 C25.741133,31.548231 23.312528,32.336283 20.767264,32.393389 C13.420263,32.558184 7.3042897,26.551526 7.1346055,18.995684 C6.9632897,11.44229 12.800263,5.1623421 20.148079,4.9967368 C27.494263,4.8311316 33.609421,10.840237 33.779921,18.393632 C33.836211,20.900553 33.227632,23.344658 32.012105,25.513026 C32.224211,25.526896 32.428974,25.608476 32.596211,25.745526 C32.613341,25.753726 32.703079,25.816496 32.849105,25.926632 L33.133,26.005762 L33.19174,26.045732 C33.590661,26.310863 34.299582,26.862337 35.412319,27.970179 C36.605003,29.155521 37.149951,29.880758 37.369398,30.208705 L37.736503,30.760179 L37.693263,30.818099 C37.697363,30.825399 37.700563,30.829519 37.703063,30.833599 C37.9943,31.190099 38.017142,31.748099 37.729983,32.160073 C37.630453,32.370547 37.26172,32.966889 36.280325,34.033941 C35.243457,35.162178 34.649562,35.596178 34.442351,35.728336 C34.30693,35.848257 34.082588,35.937178 33.84193,35.942889 L33.84193,35.942889 L33.841921,35.942895 Z M20.225579,8.458947 C14.862579,8.5805 10.600079,13.170132 10.724895,18.693026 C10.732195,19.036474 10.760795,19.391342 10.809735,19.778026 C11.359577,24.951763 15.696314,28.911605 20.684867,28.79821 C25.674235,28.685632 29.829051,24.538974 30.142314,19.361158 C30.175764,18.963868 30.187994,18.604921 30.180654,18.254132 C30.055025,12.731237 25.590209,8.338211 20.225577,8.458947 L20.225577,8.458947 L20.225579,8.458947 Z" id="Shape" opacity="0.1" fill="#231815" sketch:type="MSShapeGroup"></path>
            <path d="M33.8305,35.445263 C33.68529,35.448563 33.546605,35.402023 33.434027,35.316368 C33.379367,35.282108 33.269237,35.2095 33.093027,35.07571 L32.8075,35.00637 C32.428158,34.762449 31.746974,34.25666 30.652184,33.217344 C29.542711,32.160081 29.010816,31.510712 28.758737,31.150949 L28.575184,30.890712 L28.631474,30.817292 C28.517263,30.679421 28.452816,30.5905 28.421,30.544 C28.230921,30.322921 28.221948,29.997421 28.39816,29.766553 C28.41611,29.735553 28.44629,29.684973 28.48953,29.617263 L28.301895,29.440237 C26.115579,31.095474 23.514842,31.999368 20.75829,32.062184 C13.652763,32.222079 7.7440003,26.671447 7.5865529,19.685026 C7.4291055,12.699421 13.081711,6.88529 20.187237,6.724579 C27.292763,6.564684 33.202342,12.116947 33.35979,19.102553 C33.41689,21.677184 32.686763,24.166974 31.242816,26.325553 L31.465527,26.539289 C31.503057,26.513179 31.533237,26.493609 31.553627,26.480549 C31.662127,26.392439 31.794285,26.341049 31.937048,26.337785 C32.081443,26.334485 32.220943,26.381025 32.335153,26.470759 C32.388993,26.504209 32.495048,26.573549 32.665548,26.699996 L32.963311,26.776676 C33.346732,27.022229 34.030364,27.533729 35.116179,28.564887 C36.281127,29.673545 36.805679,30.342492 37.013706,30.640255 L37.198074,30.905387 L37.144234,30.974727 C37.254366,31.109332 37.316366,31.193358 37.347366,31.238227 C37.533366,31.456858 37.544787,31.775016 37.378366,32.005885 C37.283736,32.184543 36.950892,32.727043 35.964602,33.75249 C34.948945,34.813016 34.377892,35.203779 34.210655,35.307385 C34.104602,35.393045 33.971629,35.44199 33.830497,35.445253 L33.830497,35.445253 L33.8305,35.445263 Z M20.241079,9.166237 C14.637421,9.292684 10.179948,13.888842 10.303948,19.410921 C10.312948,19.757632 10.339848,20.111684 10.391238,20.495921 C10.959027,25.662316 15.486659,29.612368 20.699554,29.494079 C25.914079,29.376605 30.25979,25.225868 30.592632,20.047237 C30.626892,19.658921 30.639952,19.304053 30.631792,18.950816 C30.506974,13.429553 25.846369,9.038974 20.241079,9.166237 L20.241079,9.166237 L20.241079,9.166237 Z" id="path151" opacity="0.2" fill="#231815" sketch:type="MSShapeGroup"></path>
            <path d="M37.006369,31.61921 C37.006369,31.61921 36.907659,31.465842 36.581342,31.091395 C36.605002,31.061215 36.637632,31.022865 36.658032,30.997575 C36.441847,30.686759 35.929532,30.044733 34.81761,28.981759 C33.709768,27.922049 33.0449,27.439101 32.728374,27.235154 C32.703084,27.257184 32.663924,27.292254 32.635374,27.318364 C32.242979,27.005101 32.080637,26.912917 32.080637,26.912917 C32.006397,26.842757 31.890558,26.846017 31.819584,26.919417 C31.819584,26.919417 31.685795,26.998547 31.432084,27.200049 L30.672584,26.47318 C32.137742,24.405154 32.983716,21.883549 32.922532,19.168602 C32.769974,12.382079 27.0725,7.006842 20.197027,7.161842 C13.320737,7.316842 7.8712634,12.944158 8.024632,19.731526 C8.178,26.517263 13.87629,31.894132 20.752579,31.739947 C23.634763,31.673867 26.26079,30.638632 28.333711,28.966263 L29.065474,29.665395 C28.844395,29.964789 28.763632,30.118974 28.763632,30.118974 C28.692662,30.193214 28.695922,30.309868 28.770132,30.380842 C28.770132,30.380842 28.867212,30.535842 29.197606,30.916 C29.173946,30.94618 29.141316,30.98534 29.120106,31.01145 C29.335474,31.320635 29.841264,31.952871 30.956448,33.02074 C32.075711,34.087792 32.733237,34.565029 33.046501,34.765713 C33.071791,34.744503 33.110131,34.709423 33.137871,34.684133 C33.530266,34.997396 33.690976,35.087133 33.690976,35.087133 C33.766846,35.158103 33.882687,35.154843 33.953661,35.080633 C33.953661,35.080633 34.50595,34.771449 35.652134,33.571423 C36.801581,32.370581 37.012055,31.882739 37.012055,31.882739 C37.082215,31.807689 37.078135,31.690212 37.006355,31.619238 L37.006355,31.619238 L37.006369,31.61921 Z M20.712606,30.033316 C15.181553,30.157316 10.550316,26.01229 9.959685,20.613395 C9.909921,20.239763 9.87729,19.862053 9.869132,19.477 C9.738606,13.68 14.378,8.872553 20.232921,8.740395 C26.087027,8.608237 30.939342,13.200316 31.069869,18.997316 C31.078869,19.382368 31.063369,19.761711 31.029899,20.136974 C30.684004,25.557079 26.245294,29.906868 20.71261,30.033316 L20.71261,30.033316 L20.712606,30.033316 Z" id="path153" opacity="0.3" fill="#231815" sketch:type="MSShapeGroup"></path>
            <path d="M20.553527,29.525079 C14.290711,29.665395 9.081895,24.766579 8.942395,18.600842 C8.803711,12.436737 13.786553,7.305421 20.048553,7.165105 C26.311369,7.023158 31.519369,11.92279 31.658869,18.086895 C31.798369,24.252632 26.816342,29.383132 20.553527,29.525079 L20.553527,29.525079 L20.553527,29.525079 Z" id="path155" fill="url(#linearGradient-3)" sketch:type="MSShapeGroup"></path>
            <path d="M20.1905,6.891816 C13.476553,7.042737 8.147816,12.128368 8.285684,18.248421 C8.424369,24.366842 13.977448,29.206105 20.690579,29.054368 C27.403711,28.903447 32.733263,23.817816 32.594579,17.698579 C32.456711,11.580158 26.902816,6.739263 20.1905,6.891816 L20.1905,6.891816 L20.1905,6.891816 Z M20.654685,27.516605 C15.254974,27.638974 10.741211,23.907553 10.173421,19.038921 C10.126111,18.703632 10.094291,18.362632 10.086951,18.015105 C9.968661,12.787526 14.506082,8.444263 20.222319,8.314553 C25.936924,8.185658 30.666056,12.320079 30.784345,17.546842 C30.792545,17.894368 30.776145,18.237 30.743555,18.573921 C30.39766,23.463763 26.056029,27.394237 20.654687,27.516605 L20.654687,27.516605 L20.654685,27.516605 Z" id="path157" fill="url(#linearGradient-4)" sketch:type="MSShapeGroup"></path>
            <g id="g159" transform="translate(27.802632, 25.394737)" sketch:type="MSShapeGroup">
                <path d="M2.0239737,0.32468421 L0.2553421,2.1732632 C0.09136842,2.3470263 0.186,2.7027105 0.46744737,2.9711053 L2.6602895,5.0685 C3.1864737,4.6940526 3.5364474,4.351421 3.9427105,3.9280263 C4.3481579,3.503 4.6932368,3.1130526 5.0236316,2.5974737 L2.8307895,0.50171053 C2.5501579,0.23168421 2.1879474,0.15173684 2.0239737,0.32468421 L2.0239737,0.32468421 L2.0239737,0.32468421 Z" id="path161" fill="url(#linearGradient-5)"></path>
                <path d="M9.2714474,5.7505 C9.3448684,5.821474 9.3489474,5.9381316 9.2779774,6.0123684 C9.2779774,6.0123684 9.0675037,6.5010263 7.9180563,7.7018684 C6.7718721,8.9018947 6.2203984,9.2127105 6.2203984,9.2127105 C6.1494244,9.2861315 6.0327669,9.2877635 5.9577142,9.2176005 C5.9577142,9.2176005 5.311609,8.8545742 3.3692142,6.9970215 C1.4276316,5.141921 1.0352368,4.5105 1.0352368,4.5105 C0.9618158,4.440342 0.9577368,4.3228684 1.0287068,4.2486316 C1.0287068,4.2486316 1.3346279,3.6628947 2.4237068,2.5216053 C3.5152368,1.3819474 4.0871053,1.049921 4.0871053,1.049921 C4.1580789,0.9765 4.273921,0.97486842 4.3473421,1.0450263 C4.3473421,1.0450263 4.9983421,1.4096842 6.9366579,3.2631579 C8.8766053,5.1182632 9.2714474,5.7505 9.2714474,5.7505 L9.2714474,5.7505 L9.2714474,5.7505 Z" id="path163" fill="url(#linearGradient-6)"></path>
                <path d="M7.7418421,7.5126053 C6.9366579,8.3545 6.3892632,8.8268421 6.0882368,9.0658684 C5.7186842,8.7966579 4.9265526,8.1668684 3.5291053,6.8297895 C2.1341053,5.498421 1.4700526,4.738921 1.1788158,4.3750789 C1.4047895,4.0634474 1.8436842,3.5013684 2.6105263,2.7002632 C3.3757368,1.9007895 3.9157895,1.4349737 4.2176316,1.1951316 C4.5937105,1.4708684 5.3931842,2.1055526 6.7783947,3.4295789 C8.1676842,4.7585 8.8407105,5.5310526 9.1319474,5.8940789 C8.9337105,6.1714474 8.5217368,6.696 7.7418421,7.5126053 L7.7418421,7.5126053 L7.7418421,7.5126053 Z" id="path165" fill="url(#linearGradient-7)"></path>
                <path d="M7.2409474,7.0190526 C6.2856579,8.0183947 5.6558684,8.5984211 5.312421,8.8961842 C4.9991579,8.6955 4.3408158,8.2182632 3.2223684,7.1512105 C2.1071842,6.0833421 1.6013947,5.4511053 1.3860263,5.1435526 C1.6666579,4.7870526 2.2083421,4.1401316 3.119579,3.1872895 C4.0283684,2.2377105 4.65,1.6642105 4.9958947,1.3680789 C5.312421,1.5703947 5.9756579,2.0533421 7.0851316,3.1130526 C8.1970526,4.1760263 8.7101842,4.8188684 8.9247368,5.1288684 C8.6759211,5.4421316 8.1685,6.0482632 7.2409474,7.0190526 L7.2409474,7.0190526 L7.2409474,7.0190526 Z" id="path167" fill="url(#linearGradient-8)"></path>
            </g>
            <path d="M20.174184,6.226132 C13.072737,6.386842 7.442974,12.091658 7.597974,18.969579 C7.7537897,25.845868 13.635632,31.291263 20.736263,31.132184 C27.836895,30.971474 33.465842,25.265026 33.310842,18.388737 C33.155842,11.510816 27.274816,6.066237 20.174184,6.226132 L20.174184,6.226132 L20.174184,6.226132 Z M20.69629,29.401079 C14.984948,29.529974 10.204421,25.332737 9.595842,19.860421 C9.546082,19.484342 9.511002,19.100105 9.502842,18.709342 C9.369869,12.835658 14.162632,7.962132 20.209263,7.825895 C26.255079,7.688842 31.264842,12.340474 31.397,18.214158 C31.406,18.604921 31.3897,18.989158 31.3554,19.3685 C30.995637,24.863658 26.410084,29.272184 20.696295,29.401079 L20.696295,29.401079 L20.69629,29.401079 Z" id="path169" fill="#9FA0A0" sketch:type="MSShapeGroup"></path>
            <path d="M20.157053,5.4144211 C13.056421,5.5743158 7.4250266,11.206526 7.578395,17.992263 C7.7317634,24.778816 13.611974,30.151605 20.712606,29.990895 C27.813237,29.831 33.444632,24.197974 33.291263,17.412237 C33.137895,10.625684 27.257684,5.2537105 20.157053,5.4144211 L20.157053,5.4144211 L20.157053,5.4144211 Z M20.672632,28.285079 C14.960474,28.413974 10.182395,24.273026 9.575448,18.8725 C9.524868,18.499684 9.492238,18.121158 9.483268,17.736105 C9.351926,11.939105 14.146321,7.12921 20.192953,6.992974 C26.238768,6.855921 31.2469,11.444737 31.377426,17.241737 C31.386426,17.626789 31.370126,18.006132 31.335006,18.380579 C30.973612,23.802316 26.386427,28.156184 20.672638,28.285079 L20.672638,28.285079 L20.672632,28.285079 Z" id="path171" fill="url(#linearGradient-9)" sketch:type="MSShapeGroup"></path>
            <path d="M20.674263,28.294053 C14.674132,28.429474 9.700263,23.868395 9.484079,18.079553 C9.484079,18.131763 9.478379,18.180711 9.479979,18.232921 C9.612138,24.095184 14.627612,28.737026 20.681586,28.600789 C26.735579,28.463737 31.5365,23.6 31.403527,17.737737 C31.402711,17.685527 31.393727,17.636579 31.392107,17.584368 C31.436977,23.376474 26.674397,28.157816 20.674265,28.294053 L20.674265,28.294053 L20.674263,28.294053 Z" id="path173" fill="url(#linearGradient-10)" sketch:type="MSShapeGroup"></path>
            <g id="g175" transform="translate(10.671053, 11.526316)" fill="#FFFFFF" sketch:type="MSShapeGroup">
                <path d="M11.700868,4.6606053 C10.354,4.3506053 8.4882895,5.1655789 7.4775263,5.9438421 C8.4279211,4.3922105 10.233263,4.0055263 10.233263,4.0055263 L11.334579,-0.00978947 C8.0273684,-0.29776316 5.6795263,1.4243684 4.0968947,3.4116316 C-0.02447368,3.3537105 0.09707895,4.9779474 0.09707895,4.9779474 C0.062,5.3034474 0.47152632,5.6085526 1.0099474,5.6607632 C1.5483684,5.7129737 2.0125526,5.4918947 2.0468158,5.1672105 C2.0598684,5.048921 2.0125526,4.9338947 1.9236316,4.831921 C2.2499474,4.4485 2.8381316,4.2625 3.5193158,4.1939737 C1.9921579,6.4227105 1.3591053,8.6979474 1.3591053,8.6979474 C1.049921,10.665632 3.6441316,10.248763 3.6441316,10.248763 C2.9058421,8.8496842 4.8188684,5.3670789 4.8188684,5.3670789 C5.0056842,4.9583684 5.2112632,4.5814737 5.4258158,4.2331316 C6.3541842,4.3334737 7.1838421,4.5145789 7.5476842,4.6002368 L7.0557632,6.2872895 C7.0557632,6.2872895 6.6307368,7.8185263 6.4879737,9.0968684 C6.4308687,9.6051053 6.5418157,10.070921 6.6087105,10.247132 C7.0941053,11.523026 8.2043947,12.545211 9.6687368,12.882947 C12.001079,13.420553 14.346474,12.015763 14.907737,9.7462368 C15.469,7.475079 14.03321,5.1990263 11.700868,4.6606053 L11.700868,4.6606053 L11.700868,4.6606053 Z M5.8916316,3.5372632 C7.187921,1.7580263 8.6082105,0.95365789 8.6082105,0.95365789 L7.7442895,3.9231316 C7.1781316,3.731421 6.4822632,3.6115 5.8916316,3.5372632 L5.8916316,3.5372632 L5.8916316,3.5372632 Z M13.794184,9.5471842 C13.414026,11.084947 12.246632,12.076132 10.666447,11.711474 C9.087079,11.347632 8.5478421,9.8139474 8.928,8.2753684 C9.3081579,6.7367895 10.463316,5.777421 12.0435,6.1420789 C13.623684,6.5059211 14.174342,8.0086053 13.794184,9.5471842 L13.794184,9.5471842 L13.794184,9.5471842 Z" id="path177"></path>
                <path d="M18.999737,6.6193158 L19.409263,6.5442628 C19.409263,6.5442628 19.522658,8.3088154 17.851105,9.0976838 C17.851105,9.0976838 15.375184,10.430684 14.082158,7.9857628 C14.082158,7.9857628 13.082,6.3476575 13.875763,4.7519733 C13.875763,4.7519733 14.602632,3.2851838 16.306816,3.4409996 C16.306816,3.4409996 17.222947,3.4752626 17.255579,4.3612101 C17.255579,4.3612101 17.022263,4.9502101 16.275,4.8523154 C16.275,4.8523154 16.757947,4.0936312 15.979684,3.9206838 C15.979684,3.9206838 15.099447,3.7363154 14.953421,4.869447 C14.953421,4.869447 14.911001,5.9781049 15.517132,6.9856049 C15.517132,6.9856049 16.137947,8.2729207 17.0655,8.3365522 C17.066316,8.3365522 18.474368,8.3267622 18.999737,6.6193154 L18.999737,6.6193154 L18.999737,6.6193158 Z" id="path179"></path>
            </g>
        </g>
    </g>
</svg>