<?xml version="1.0" encoding="UTF-8" standalone="no"?>
<svg width="48px" height="48px" viewBox="0 0 48 48" version="1.1" xmlns="http://www.w3.org/2000/svg" xmlns:xlink="http://www.w3.org/1999/xlink" xmlns:sketch="http://www.bohemiancoding.com/sketch/ns">
    <!-- Generator: Sketch 3.1.1 (8761) - http://www.bohemiancoding.com/sketch -->
    <title>deepin-software-center</title>
    <desc>Created with Sketch.</desc>
    <defs>
        <radialGradient cx="50.8993387%" cy="8.85481589%" fx="50.8993387%" fy="8.85481589%" r="50.6329114%" id="radialGradient-1">
            <stop stop-color="#FFFFFF" offset="0%"></stop>
            <stop stop-color="#E6E6E6" offset="100%"></stop>
        </radialGradient>
        <linearGradient x1="50%" y1="100.632911%" x2="50%" y2="-0.262911392%" id="linearGradient-2">
            <stop stop-color="#BDBDBD" offset="0%"></stop>
            <stop stop-color="#CBCBCB" offset="100%"></stop>
        </linearGradient>
        <path id="path-3" d="M1.76898734,-0.253012048 L38.7310127,-0.253012048 C39.5917722,-0.253012048 40.25,0.4052158 40.25,1.26597529 L40.25,38.2280006 C40.25,39.0887601 39.5917722,39.746988 38.7310127,39.746988 L1.76898734,39.746988 C0.908227848,39.746988 0.25,39.0887601 0.25,38.2280006 L0.25,1.26597529 C0.25,0.4052158 0.908227848,-0.253012048 1.76898734,-0.253012048 L1.76898734,-0.253012048 Z"></path>
        <linearGradient x1="50.0250608%" y1="-2.8198364%" x2="50.6328467%" y2="103.993456%" id="linearGradient-5">
            <stop stop-color="#22E1FD" offset="0%"></stop>
            <stop stop-color="#0B53B6" offset="96.62%"></stop>
        </linearGradient>
        <linearGradient x1="50.0423975%" y1="-2.06986583%" x2="50.0423975%" y2="100.625222%" id="linearGradient-6">
            <stop stop-color="#646464" offset="0%"></stop>
            <stop stop-color="#646464" stop-opacity="0" offset="100%"></stop>
        </linearGradient>
        <linearGradient x1="50.0423975%" y1="-0.582521667%" x2="50.0423975%" y2="99.18059%" id="linearGradient-7">
            <stop stop-color="#646464" offset="0%"></stop>
            <stop stop-color="#646464" stop-opacity="0" offset="100%"></stop>
        </linearGradient>
        <radialGradient cx="50.1745137%" cy="0.679523411%" fx="50.1745137%" fy="0.679523411%" r="50%" id="radialGradient-8">
            <stop stop-color="#B4B4B4" offset="0%"></stop>
            <stop stop-color="#DCDCDC" offset="83.3%"></stop>
            <stop stop-color="#F5F5F5" offset="90.02%"></stop>
            <stop stop-color="#DCDCDC" offset="95.75%"></stop>
            <stop stop-color="#B4B4B4" offset="100%"></stop>
        </radialGradient>
        <radialGradient cx="53.6139701%" cy="99.9372079%" fx="53.6139701%" fy="99.9372079%" r="53.3333333%" id="radialGradient-9">
            <stop stop-color="#FFFFFF" offset="0%"></stop>
            <stop stop-color="#E6E6E6" offset="100%"></stop>
        </radialGradient>
        <linearGradient x1="50%" y1="149.742857%" x2="50%" y2="-2.03714286%" id="linearGradient-10">
            <stop stop-color="#AAAAAA" offset="0%"></stop>
            <stop stop-color="#DCDCDC" offset="100%"></stop>
        </linearGradient>
        <linearGradient x1="50%" y1="135.121667%" x2="50%" y2="1.08666667%" id="linearGradient-11">
            <stop stop-color="#C8C8C8" offset="0%"></stop>
            <stop stop-color="#C8C8C8" stop-opacity="0" offset="100%"></stop>
        </linearGradient>
    </defs>
    <g id="Page-1" stroke="none" stroke-width="1" fill="none" fill-rule="evenodd" sketch:type="MSPage">
        <g id="Group" sketch:type="MSLayerGroup" transform="translate(4.000000, 4.000000)">
            <mask id="mask-4" sketch:name="rect2985" fill="white">
                <use xlink:href="#path-3"></use>
            </mask>
            <use id="rect2985" stroke="url(#linearGradient-2)" fill="url(#radialGradient-1)" sketch:type="MSShapeGroup" xlink:href="#path-3"></use>
            <path d="M20.85,37.053012 C23.45,37.8120482 30.6,39.4819277 35.1,36.2433735 C38,34.1686747 37.65,30.8289157 37.65,30.8289157 C37.6,28.2987952 36,25.7686747 36,25.7686747 C42.15,31.1831325 38.5,37.2554217 38.5,37.2554217 C36.65,41 32.6,43.226506 29.35,44.0361446 C25.55,43.1759036 22.45,40.5445783 20.85,37.053012 L20.85,37.053012 Z M22.55,23.8963855 C23.3,27.9445783 25.05,31.3855422 26.15,32.6 C27.6,34.2192771 29.8,35.8891566 32.6,35.1807229 C35.4,34.4722892 35.95,31.3855422 35.95,31.3855422 C36.55,28.7542169 35.7,25.6674699 35.65,25.5662651 C35.6,25.5156627 35.2,25.4144578 35.2,25.4144578 C35.65,29.5638554 34.55,31.3855422 34.55,31.3855422 C33,34.6240964 30.7,33.6120482 30.7,33.6120482 C28.15,32.2963855 28.25,28.6024096 28.25,28.6024096 C28.15,26.0216867 29.2,21.7710843 31.1,19.2915663 C27.65,19.6457831 24.6,21.3662651 22.55,23.8963855 L22.55,23.8963855 Z M36.95,20.3036145 C35.45,21.5180723 32.95,24.1493976 32.95,24.1493976 C29.2,27.6915663 29.9,30.626506 29.9,30.626506 C30.5,33.7638554 32.35,31.6385542 32.35,31.6385542 C34.3,29.6144578 34.15,25.5156627 34.15,25.5156627 C33.35,25.6674699 32.85,26.0722892 32.85,26.0722892 C32.75,28.8048193 31.15,30.4746988 31.15,30.4746988 C30.55,31.1831325 30.1,30.5253012 30.1,30.5253012 C29.8,30.0192771 30.4,29.6650602 30.4,29.6650602 C31.3,28.8554217 31.6,27.4891566 31.55,26.9831325 C31.55,26.4771084 31.8,26.3253012 31.8,26.3253012 C33.1,25.313253 34.35,24.7566265 34.35,24.7566265 C36.05,23.8963855 39.15,23.7445783 39.15,23.7445783 C40,23.7951807 40.75,23.7445783 41.4,23.6939759 C40.25,22.226506 38.7,21.0626506 36.95,20.3036145 L36.95,20.3036145 Z" id="Shape" fill="url(#linearGradient-5)" sketch:type="MSShapeGroup" mask="url(#mask-4)"></path>
            <path d="M13.5,10.626506 C13.5,11.739759 12.6,12.6506024 11.5,12.6506024 C10.4,12.6506024 9.5,11.739759 9.5,10.626506 C9.5,9.51325301 10.4,8.60240964 11.5,8.60240964 C12.6,8.60240964 13.5,9.51325301 13.5,10.626506 L13.5,10.626506 Z" id="path3818" opacity="0.3" fill="#FFFFFF" sketch:type="MSShapeGroup" mask="url(#mask-4)"></path>
            <path d="M30.5,10.626506 C30.5,11.739759 29.6,12.6506024 28.5,12.6506024 C27.4,12.6506024 26.5,11.739759 26.5,10.626506 C26.5,9.51325301 27.4,8.60240964 28.5,8.60240964 C29.6,8.60240964 30.5,9.51325301 30.5,10.626506 L30.5,10.626506 Z" id="path3814" opacity="0.3" fill="#FFFFFF" sketch:type="MSShapeGroup" mask="url(#mask-4)"></path>
            <path d="M13,10.626506 C13,11.486747 12.35,12.1445783 11.5,12.1445783 C10.65,12.1445783 10,11.486747 10,10.626506 C10,9.76626506 10.65,9.10843373 11.5,9.10843373 C12.35,9.10843373 13,9.76626506 13,10.626506 L13,10.626506 Z" id="path3792" fill="url(#linearGradient-6)" sketch:type="MSShapeGroup" mask="url(#mask-4)"></path>
            <path d="M30,10.626506 C30,11.486747 29.35,12.1445783 28.5,12.1445783 C27.65,12.1445783 27,11.486747 27,10.626506 C27,9.76626506 27.65,9.10843373 28.5,9.10843373 C29.35,9.10843373 30,9.76626506 30,10.626506 L30,10.626506 Z" id="path3794" fill="url(#linearGradient-7)" sketch:type="MSShapeGroup" mask="url(#mask-4)"></path>
            <path d="M11.5,9.10843373 C10.95,9.10843373 10.5,9.71566265 10.5,10.4746988 C10.5,17.5590361 14.75,23.2771084 20,23.2771084 C25.25,23.2771084 29.5,17.5590361 29.5,10.4746988 C29.5,9.71566265 29.05,9.10843373 28.5,9.10843373 C27.95,9.10843373 27.5,9.71566265 27.5,10.4746988 C27.5,16.0409639 24.15,20.5951807 20,20.5951807 C15.85,20.5951807 12.5,16.0409639 12.5,10.4746988 C12.5,9.71566265 12.05,9.10843373 11.5,9.10843373 L11.5,9.10843373 Z" id="path3842" opacity="0.05" fill="#000000" sketch:type="MSShapeGroup" mask="url(#mask-4)"></path>
            <path d="M11.5,9.61445783 C10.95,9.61445783 10.5,10.0698795 10.5,10.626506 C10.5,15.939759 14.75,20.2409639 20,20.2409639 C25.25,20.2409639 29.5,15.939759 29.5,10.626506 C29.5,10.0698795 29.05,9.61445783 28.5,9.61445783 C27.95,9.61445783 27.5,10.0698795 27.5,10.626506 C27.5,14.826506 24.15,18.2168675 20,18.2168675 C15.85,18.2168675 12.5,14.826506 12.5,10.626506 C12.5,10.0698795 12.05,9.61445783 11.5,9.61445783 L11.5,9.61445783 Z" id="path3796" fill="url(#radialGradient-8)" sketch:type="MSShapeGroup" mask="url(#mask-4)"></path>
            <path d="M1.25,2.02409639 L38.75,2.02409639 C38.9,2.02409639 39,2.1253012 39,2.27710843 L39,4.80722892 C39,4.95903614 38.9,5.06024096 38.75,5.06024096 L1.25,5.06024096 C1.1,5.06024096 1,4.95903614 1,4.80722892 L1,2.27710843 C1,2.1253012 1.1,2.02409639 1.25,2.02409639 L1.25,2.02409639 Z" id="rect3870" opacity="0.25" fill="#FFFFFF" sketch:type="MSShapeGroup" mask="url(#mask-4)"></path>
            <path d="M1.75,0.759036145 L38.25,0.759036145 C38.55,0.759036145 38.75,0.961445783 38.75,1.26506024 L38.75,3.79518072 C38.75,4.09879518 38.55,4.30120482 38.25,4.30120482 L1.75,4.30120482 C1.45,4.30120482 1.25,4.09879518 1.25,3.79518072 L1.25,1.26506024 C1.25,0.961445783 1.45,0.759036145 1.75,0.759036145 L1.75,0.759036145 Z" id="rect3846" stroke="url(#linearGradient-10)" fill="url(#radialGradient-9)" sketch:type="MSShapeGroup" mask="url(#mask-4)"></path>
            <path d="M1.75,1.01204819 L38.25,1.01204819 C38.4,1.01204819 38.5,1.11325301 38.5,1.26506024 L38.5,3.79518072 C38.5,3.94698795 38.4,4.04819277 38.25,4.04819277 L1.75,4.04819277 C1.6,4.04819277 1.5,3.94698795 1.5,3.79518072 L1.5,1.26506024 C1.5,1.11325301 1.6,1.01204819 1.75,1.01204819 L1.75,1.01204819 Z" id="rect3848" fill="url(#linearGradient-11)" sketch:type="MSShapeGroup" mask="url(#mask-4)"></path>
        </g>
    </g>
</svg>